# https://github.com/mikedh/trimesh
v 0.20632046 -0.07925824 0.07507977
v 0.20632046 -0.07925824 0.07507977
v 0.20632046 -0.07925824 0.07507977
v 0.20632046 -0.01802797 0.07507977
v 0.20632046 -0.01802797 0.07507977
v 0.20632046 -0.01802797 0.07507977
v 0.22760282 -0.01802797 0.07507977
v 0.22760282 -0.01802797 0.07507977
v 0.22760282 -0.01802797 0.07507977
v 0.22760282 -0.07925824 0.07507977
v 0.22760282 -0.07925824 0.07507977
v 0.22760282 -0.07925824 0.07507977
v 0.20632046 -0.01802797 0.10587357
v 0.20632046 -0.01802797 0.10587357
v 0.20632046 -0.01802797 0.10587357
v 0.20632046 -0.07925824 0.10587357
v 0.20632046 -0.07925824 0.10587357
v 0.20632046 -0.07925824 0.10587357
v 0.22760282 -0.07925824 0.10587357
v 0.22760282 -0.07925824 0.10587357
v 0.22760282 -0.07925824 0.10587357
v 0.22760282 -0.01802797 0.10587357
v 0.22760282 -0.01802797 0.10587357
v 0.22760282 -0.01802797 0.10587357
v -0.08306734 -0.07925824 0.07507977
v -0.08306734 -0.07925824 0.07507977
v -0.08306734 -0.07925824 0.07507977
v -0.08306734 -0.01802797 0.07507977
v -0.08306734 -0.01802797 0.07507977
v -0.08306734 -0.01802797 0.07507977
v -0.06178497 -0.01802797 0.07507977
v -0.06178497 -0.01802797 0.07507977
v -0.06178497 -0.01802797 0.07507977
v -0.06178497 -0.07925824 0.07507977
v -0.06178497 -0.07925824 0.07507977
v -0.06178497 -0.07925824 0.07507977
v -0.08306734 -0.01802797 0.10587357
v -0.08306734 -0.01802797 0.10587357
v -0.08306734 -0.01802797 0.10587357
v -0.08306734 -0.07925824 0.10587357
v -0.08306734 -0.07925824 0.10587357
v -0.08306734 -0.07925824 0.10587357
v -0.06178497 -0.07925824 0.10587357
v -0.06178497 -0.07925824 0.10587357
v -0.06178497 -0.07925824 0.10587357
v -0.06178497 -0.01802797 0.10587357
v -0.06178497 -0.01802797 0.10587357
v -0.06178497 -0.01802797 0.10587357
v 0.06296729 -0.07925824 0.15017599
v 0.08530080 -0.07925824 0.14723573
v 0.10763428 -0.07925824 0.15017599
v 0.12844576 -0.07925824 0.15879639
v 0.04215579 -0.07925824 0.15879639
v 0.14631702 -0.07925824 0.17250947
v 0.02428456 -0.07925824 0.17250947
v 0.16003008 -0.07925824 0.19038072
v 0.01057147 -0.07925824 0.19038072
v 0.16865049 -0.07925824 0.21119221
v 0.00195108 -0.07925824 0.21119221
v -0.00045275 -0.07925824 0.22945102
v 0.17159077 -0.07925824 0.23352569
v -0.00081936 -0.07925824 0.24297820
v -0.00441172 -0.07925824 0.22858197
v 0.16865049 -0.07925824 0.25585920
v 0.00058978 -0.07925824 0.24551919
v 0.00195108 -0.07925824 0.25585920
v 0.16003008 -0.07925824 0.27667070
v 0.01057147 -0.07925824 0.27667070
v 0.02428456 -0.07925824 0.29454193
v 0.14631702 -0.07925824 0.29454193
v 0.12844576 -0.07925824 0.30825503
v 0.04215579 -0.07925824 0.30825503
v 0.10763428 -0.07925824 0.31687543
v 0.06296729 -0.07925824 0.31687543
v 0.09433234 -0.07925824 0.31862665
v 0.08530080 -0.07925824 0.31981569
v 0.08674796 -0.07925824 0.32023035
v 0.16550307 -0.07925824 0.13421315
v 0.18459556 -0.07925824 0.15397632
v 0.19792240 -0.07925824 0.17800758
v 0.20457540 -0.07925824 0.20466925
v 0.20410121 -0.07925824 0.23214437
v 0.19653203 -0.07925824 0.25856054
v 0.18238379 -0.07925824 0.28211759
v 0.16262058 -0.07925824 0.30121008
v 0.13858934 -0.07925824 0.31453696
v 0.11192768 -0.07925824 0.32118996
v 0.08869753 -0.07925824 0.32078896
v 0.01759864 -0.07925824 0.15109386
v 0.03736181 -0.07925824 0.13200135
v 0.14194601 -0.07925824 0.12006489
v 0.06139306 -0.07925824 0.11867450
v 0.11552984 -0.07925824 0.11249573
v 0.08805474 -0.07925824 0.11202150
v 0.00345038 -0.07925824 0.17465089
v -0.00411878 -0.07925824 0.20106708
v -0.00458193 -0.07925824 0.22789985
v 0.08445255 -0.07925824 0.32071571
v -0.00459302 -0.07925824 0.22854219
v -0.06708936 -0.07925824 0.10587359
v 0.24544249 -0.07925824 0.10587359
v 0.24544249 -0.07925824 0.39112972
v -0.08770590 -0.07925824 0.39112972
v -0.08770590 -0.07925824 0.10587359
f 1 4 8
f 8 12 1
f 13 18 19
f 19 22 13
f 2 11 21
f 21 16 2
f 20 10 7
f 7 23 20
f 9 5 15
f 15 24 9
f 3 17 14
f 14 6 3
f 25 28 31
f 31 34 25
f 39 40 44
f 44 46 39
f 26 36 43
f 43 42 26
f 45 35 33
f 33 47 45
f 32 30 38
f 38 48 32
f 27 41 37
f 37 29 27
f 50 78 79
f 79 51 50
f 52 51 79
f 79 80 52
f 54 52 80
f 80 56 54
f 56 80 81
f 81 58 56
f 58 81 82
f 82 61 58
f 61 82 83
f 83 64 61
f 67 64 83
f 83 84 67
f 70 67 84
f 84 85 70
f 71 70 85
f 85 86 71
f 73 71 86
f 86 87 73
f 75 73 87
f 87 77 75
f 77 87 88
f 78 50 89
f 89 90 78
f 91 78 90
f 90 92 91
f 93 91 92
f 92 94 93
f 89 50 49
f 49 53 89
f 95 89 53
f 53 55 95
f 95 55 57
f 57 96 95
f 96 57 59
f 59 97 96
f 97 59 60
f 60 63 97
f 88 98 77
f 63 99 97
f 93 100 101
f 101 91 93
f 78 91 101
f 101 79 78
f 80 79 101
f 101 81 80
f 81 101 102
f 102 82 81
f 83 82 102
f 102 84 83
f 85 84 102
f 102 86 85
f 87 86 102
f 102 103 87
f 88 87 103
f 103 98 88
f 76 98 103
f 103 74 76
f 72 74 103
f 103 69 72
f 68 69 103
f 103 66 68
f 65 66 103
f 103 62 65
f 63 62 103
f 103 99 63
f 97 99 103
f 103 96 97
f 95 96 103
f 103 104 95
f 89 95 104
f 104 90 89
f 92 90 104
f 104 94 92
f 93 94 104
f 104 100 93
f 98 76 77

