# https://github.com/mikedh/trimesh
v -0.20705039 -0.12814481 0.57206255
v -0.20705039 -0.12814481 0.57206255
v -0.20865746 -0.13142527 0.57206255
v -0.20865746 -0.13142527 0.57206255
v -0.20365347 -0.13387670 0.57206255
v -0.20365347 -0.13387670 0.57206255
v -0.20204640 -0.13059624 0.57206255
v -0.20204640 -0.13059624 0.57206255
v -0.20705039 -0.12814481 0.57720768
v -0.20705039 -0.12814481 0.57720768
v -0.20705039 -0.12814481 0.57720768
v -0.20865746 -0.13142527 0.57720768
v -0.20865746 -0.13142527 0.57720768
v -0.20865746 -0.13142527 0.57720768
v -0.20365347 -0.13387670 0.57720768
v -0.20365347 -0.13387670 0.57720768
v -0.20365347 -0.13387670 0.57720768
v -0.20204640 -0.13059624 0.57720768
v -0.20204640 -0.13059624 0.57720768
v -0.20204640 -0.13059624 0.57720768
f 11 12 15
f 16 6 8
f 7 2 9
f 3 13 10
f 4 5 17
f 15 19 11
f 8 20 16
f 9 18 7
f 10 1 3
f 17 14 4

