# https://github.com/mikedh/trimesh
v 0.04313094 -0.12521383 0.64296290
v 0.04313094 -0.12521383 0.64296290
v 0.04313094 -0.12521383 0.64296290
v 0.04245271 -0.12534874 0.64296290
v 0.04245271 -0.12534874 0.64296290
v 0.04245271 -0.12534874 0.64296290
v 0.04177447 -0.12521383 0.64296290
v 0.04177447 -0.12521383 0.64296290
v 0.04177447 -0.12521383 0.64296290
v 0.04370593 -0.12482964 0.64296290
v 0.04370593 -0.12482964 0.64296290
v 0.04370593 -0.12482964 0.64296290
v 0.04119949 -0.12482964 0.64296290
v 0.04119949 -0.12482964 0.64296290
v 0.04119949 -0.12482964 0.64296290
v 0.04409012 -0.12425465 0.64296290
v 0.04409012 -0.12425465 0.64296290
v 0.04409012 -0.12425465 0.64296290
v 0.04081529 -0.12425465 0.64296290
v 0.04081529 -0.12425465 0.64296290
v 0.04081529 -0.12425465 0.64296290
v 0.04422503 -0.12357642 0.64296290
v 0.04422503 -0.12357642 0.64296290
v 0.04422503 -0.12357642 0.64296290
v 0.04068039 -0.12357642 0.64296290
v 0.04068039 -0.12357642 0.64296290
v 0.04068039 -0.12357642 0.64296290
v 0.04409012 -0.12289818 0.64296290
v 0.04409012 -0.12289818 0.64296290
v 0.04409012 -0.12289818 0.64296290
v 0.04081529 -0.12289818 0.64296290
v 0.04081529 -0.12289818 0.64296290
v 0.04081529 -0.12289818 0.64296290
v 0.04119949 -0.12232320 0.64296290
v 0.04119949 -0.12232320 0.64296290
v 0.04119949 -0.12232320 0.64296290
v 0.04370593 -0.12232320 0.64296290
v 0.04370593 -0.12232320 0.64296290
v 0.04370593 -0.12232320 0.64296290
v 0.04313094 -0.12193900 0.64296290
v 0.04313094 -0.12193900 0.64296290
v 0.04313094 -0.12193900 0.64296290
v 0.04177447 -0.12193900 0.64296290
v 0.04177447 -0.12193900 0.64296290
v 0.04177447 -0.12193900 0.64296290
v 0.04245271 -0.12180409 0.64296290
v 0.04245271 -0.12180409 0.64296290
v 0.04245271 -0.12180409 0.64296290
v 0.04177447 -0.12521383 0.76468493
v 0.04177447 -0.12521383 0.76468493
v 0.04177447 -0.12521383 0.76468493
v 0.04245271 -0.12534874 0.76468493
v 0.04245271 -0.12534874 0.76468493
v 0.04245271 -0.12534874 0.76468493
v 0.04313094 -0.12521383 0.76468493
v 0.04313094 -0.12521383 0.76468493
v 0.04313094 -0.12521383 0.76468493
v 0.04370593 -0.12482964 0.76468493
v 0.04370593 -0.12482964 0.76468493
v 0.04370593 -0.12482964 0.76468493
v 0.04119949 -0.12482964 0.76468493
v 0.04119949 -0.12482964 0.76468493
v 0.04119949 -0.12482964 0.76468493
v 0.04409012 -0.12425465 0.76468493
v 0.04409012 -0.12425465 0.76468493
v 0.04409012 -0.12425465 0.76468493
v 0.04081529 -0.12425465 0.76468493
v 0.04081529 -0.12425465 0.76468493
v 0.04081529 -0.12425465 0.76468493
v 0.04422503 -0.12357642 0.76468493
v 0.04422503 -0.12357642 0.76468493
v 0.04422503 -0.12357642 0.76468493
v 0.04068039 -0.12357642 0.76468493
v 0.04068039 -0.12357642 0.76468493
v 0.04068039 -0.12357642 0.76468493
v 0.04409012 -0.12289818 0.76468493
v 0.04409012 -0.12289818 0.76468493
v 0.04409012 -0.12289818 0.76468493
v 0.04081529 -0.12289818 0.76468493
v 0.04081529 -0.12289818 0.76468493
v 0.04081529 -0.12289818 0.76468493
v 0.04119949 -0.12232320 0.76468493
v 0.04119949 -0.12232320 0.76468493
v 0.04119949 -0.12232320 0.76468493
v 0.04370593 -0.12232320 0.76468493
v 0.04370593 -0.12232320 0.76468493
v 0.04370593 -0.12232320 0.76468493
v 0.04313094 -0.12193900 0.76468493
v 0.04313094 -0.12193900 0.76468493
v 0.04313094 -0.12193900 0.76468493
v 0.04177447 -0.12193900 0.76468493
v 0.04177447 -0.12193900 0.76468493
v 0.04177447 -0.12193900 0.76468493
v 0.04245271 -0.12180409 0.76468493
v 0.04245271 -0.12180409 0.76468493
v 0.04245271 -0.12180409 0.76468493
v 0.04352236 -0.12315042 0.55731787
v 0.04352236 -0.12315042 0.55731787
v 0.04352236 -0.12315042 0.55731787
v 0.04321675 -0.12308963 0.55731787
v 0.04321675 -0.12308963 0.55731787
v 0.04321675 -0.12308963 0.55731787
v 0.04291114 -0.12315042 0.55731787
v 0.04291114 -0.12315042 0.55731787
v 0.04291114 -0.12315042 0.55731787
v 0.04378143 -0.12332352 0.55731787
v 0.04378143 -0.12332352 0.55731787
v 0.04378143 -0.12332352 0.55731787
v 0.04265206 -0.12332352 0.55731787
v 0.04265206 -0.12332352 0.55731787
v 0.04265206 -0.12332352 0.55731787
v 0.04395454 -0.12358260 0.55731787
v 0.04395454 -0.12358260 0.55731787
v 0.04395454 -0.12358260 0.55731787
v 0.04247896 -0.12358260 0.55731787
v 0.04247896 -0.12358260 0.55731787
v 0.04247896 -0.12358260 0.55731787
v 0.04401533 -0.12388821 0.55731787
v 0.04401533 -0.12388821 0.55731787
v 0.04401533 -0.12388821 0.55731787
v 0.04241817 -0.12388821 0.55731787
v 0.04241817 -0.12388821 0.55731787
v 0.04241817 -0.12388821 0.55731787
v 0.04395454 -0.12419381 0.55731787
v 0.04395454 -0.12419381 0.55731787
v 0.04395454 -0.12419381 0.55731787
v 0.04247896 -0.12419381 0.55731787
v 0.04247896 -0.12419381 0.55731787
v 0.04247896 -0.12419381 0.55731787
v 0.04265206 -0.12445290 0.55731787
v 0.04265206 -0.12445290 0.55731787
v 0.04265206 -0.12445290 0.55731787
v 0.04378143 -0.12445290 0.55731787
v 0.04378143 -0.12445290 0.55731787
v 0.04378143 -0.12445290 0.55731787
v 0.04352236 -0.12462600 0.55731787
v 0.04352236 -0.12462600 0.55731787
v 0.04352236 -0.12462600 0.55731787
v 0.04291114 -0.12462600 0.55731787
v 0.04291114 -0.12462600 0.55731787
v 0.04291114 -0.12462600 0.55731787
v 0.04321675 -0.12468679 0.55731787
v 0.04321675 -0.12468679 0.55731787
v 0.04321675 -0.12468679 0.55731787
v 0.04291111 -0.12315042 0.49678376
v 0.04291111 -0.12315042 0.49678376
v 0.04291111 -0.12315042 0.49678376
v 0.04321672 -0.12308963 0.49678376
v 0.04321672 -0.12308963 0.49678376
v 0.04321672 -0.12308963 0.49678376
v 0.04352232 -0.12315042 0.49678376
v 0.04352232 -0.12315042 0.49678376
v 0.04352232 -0.12315042 0.49678376
v 0.04378140 -0.12332352 0.49678376
v 0.04378140 -0.12332352 0.49678376
v 0.04378140 -0.12332352 0.49678376
v 0.04265203 -0.12332352 0.49678376
v 0.04265203 -0.12332352 0.49678376
v 0.04265203 -0.12332352 0.49678376
v 0.04395451 -0.12358260 0.49678376
v 0.04395451 -0.12358260 0.49678376
v 0.04395451 -0.12358260 0.49678376
v 0.04247892 -0.12358260 0.49678376
v 0.04247892 -0.12358260 0.49678376
v 0.04247892 -0.12358260 0.49678376
v 0.04401530 -0.12388821 0.49678376
v 0.04401530 -0.12388821 0.49678376
v 0.04401530 -0.12388821 0.49678376
v 0.04241813 -0.12388821 0.49678376
v 0.04241813 -0.12388821 0.49678376
v 0.04241813 -0.12388821 0.49678376
v 0.04395451 -0.12419381 0.49678376
v 0.04395451 -0.12419381 0.49678376
v 0.04395451 -0.12419381 0.49678376
v 0.04247892 -0.12419381 0.49678376
v 0.04247892 -0.12419381 0.49678376
v 0.04247892 -0.12419381 0.49678376
v 0.04265203 -0.12445290 0.49678376
v 0.04265203 -0.12445290 0.49678376
v 0.04265203 -0.12445290 0.49678376
v 0.04378140 -0.12445290 0.49678376
v 0.04378140 -0.12445290 0.49678376
v 0.04378140 -0.12445290 0.49678376
v 0.04352232 -0.12462600 0.49678376
v 0.04352232 -0.12462600 0.49678376
v 0.04352232 -0.12462600 0.49678376
v 0.04291111 -0.12462600 0.49678376
v 0.04291111 -0.12462600 0.49678376
v 0.04291111 -0.12462600 0.49678376
v 0.04321672 -0.12468679 0.49678376
v 0.04321672 -0.12468679 0.49678376
v 0.04321672 -0.12468679 0.49678376
f 1 4 7
f 10 7 15
f 16 15 21
f 22 21 27
f 28 27 31
f 37 28 36
f 42 36 45
f 51 52 55
f 61 51 58
f 67 61 64
f 73 67 71
f 81 73 77
f 83 77 87
f 91 83 88
f 94 46 44
f 92 43 34
f 35 33 80
f 32 26 75
f 25 19 68
f 20 13 63
f 8 50 62
f 5 54 49
f 2 57 53
f 12 59 56
f 11 17 65
f 18 24 72
f 23 29 76
f 30 39 85
f 86 38 40
f 89 41 47
f 97 100 103
f 108 103 109
f 112 109 117
f 120 117 121
f 124 121 127
f 135 124 130
f 136 130 140
f 147 149 153
f 159 147 154
f 164 159 160
f 171 164 166
f 176 171 173
f 178 173 183
f 188 178 184
f 191 143 139
f 189 141 131
f 132 129 177
f 128 122 169
f 123 115 165
f 116 111 158
f 104 145 157
f 102 148 146
f 99 152 150
f 107 156 151
f 106 114 161
f 113 119 168
f 118 126 172
f 125 133 181
f 182 134 138
f 185 137 144
f 7 10 1
f 15 16 10
f 21 22 16
f 27 28 22
f 31 36 28
f 36 42 37
f 45 48 42
f 55 58 51
f 58 64 61
f 64 71 67
f 71 77 73
f 77 83 81
f 87 88 83
f 88 95 91
f 44 93 94
f 34 82 92
f 80 84 35
f 75 79 32
f 68 74 25
f 63 69 20
f 62 14 8
f 49 9 5
f 53 6 2
f 56 3 12
f 65 60 11
f 72 66 18
f 76 70 23
f 85 78 30
f 40 90 86
f 47 96 89
f 103 108 97
f 109 112 108
f 117 120 112
f 121 124 120
f 127 130 124
f 130 136 135
f 140 142 136
f 153 154 147
f 154 160 159
f 160 166 164
f 166 173 171
f 173 178 176
f 183 184 178
f 184 190 188
f 139 187 191
f 131 179 189
f 177 180 132
f 169 175 128
f 165 170 123
f 158 163 116
f 157 110 104
f 146 105 102
f 150 101 99
f 151 98 107
f 161 155 106
f 168 162 113
f 172 167 118
f 181 174 125
f 138 186 182
f 144 192 185

