# https://github.com/mikedh/trimesh
v 0.49940710 0.28246094 0.02705165
v 0.49940710 0.28246094 0.55417198
v 0.49940710 0.16397660 0.53598715
v 0.49940710 0.16397660 0.02705165
v 0.49940710 0.16397660 0.55417198
v 0.49940710 -0.19036875 0.04917995
v 0.49940710 0.16397660 0.04917995
v 0.49940710 -0.19036875 0.48933503
v 0.49940710 0.16397660 0.48933503
v 0.49940710 -0.15298361 0.08044851
v 0.49940710 -0.13977237 0.08044851
v 0.49940710 -0.12656114 0.08044851
v 0.49940710 -0.11334989 0.08044851
v 0.49940710 -0.10013863 0.08044851
v 0.49940710 -0.08692741 0.08044851
v 0.49940710 -0.07371614 0.08044851
v 0.49940710 -0.06050492 0.08044851
v 0.49940710 -0.04729368 0.08044851
v 0.49940710 -0.03408243 0.08044851
v 0.49940710 -0.02087119 0.08044851
v 0.49940710 -0.00765995 0.08044851
v 0.49940710 0.00555130 0.08044851
v 0.49940710 0.01876251 0.08044851
v 0.49940710 0.03197378 0.08044851
v 0.49940710 0.04518500 0.08044851
v 0.49940710 0.05839624 0.08044851
v 0.49940710 0.07160751 0.08044851
v 0.49940710 0.08481873 0.08044851
v 0.49940710 0.09802997 0.08044851
v 0.49940710 0.11124122 0.08044851
v 0.49940710 0.12445246 0.08044851
v 0.49940710 0.13766370 0.08044851
v 0.49940710 0.15087495 0.08044851
v 0.49940710 0.15087495 0.13554685
v 0.49940710 0.15145100 0.39955604
v 0.49940710 0.15145100 0.45465440
v 0.49940710 0.13823973 0.45465440
v 0.49940710 0.12502848 0.45465440
v 0.49940710 0.11181724 0.45465440
v 0.49940710 0.09860603 0.45465440
v 0.49940710 0.08539475 0.45465440
v 0.49940710 0.07218351 0.45465440
v 0.49940710 0.05897230 0.45465440
v 0.49940710 0.04576105 0.45465440
v 0.49940710 0.03254978 0.45465440
v 0.49940710 0.01933857 0.45465440
v 0.49940710 0.00612732 0.45465440
v 0.49940710 -0.00708392 0.45465440
v 0.49940710 -0.02029516 0.45465440
v 0.49940710 -0.03350641 0.45465440
v 0.49940710 -0.04671763 0.45465440
v 0.49940710 -0.05992889 0.45465440
v 0.49940710 -0.07314012 0.45465440
v 0.49940710 -0.08635138 0.45465440
v 0.49940710 -0.09956262 0.45465440
v 0.49940710 -0.11277385 0.45465440
v 0.49940710 -0.12598510 0.45465440
v 0.49940710 -0.13919634 0.45465440
v 0.49940710 -0.15240758 0.45465440
v 0.49940710 -0.15298361 0.13554685
v 0.49940710 -0.15240758 0.39955604
v 0.49940710 -0.13977237 0.13554685
v 0.49940710 -0.13919634 0.39955604
v 0.49940710 -0.12656114 0.13554685
v 0.49940710 -0.12598510 0.39955604
v 0.49940710 -0.11334989 0.13554685
v 0.49940710 -0.11277385 0.39955604
v 0.49940710 -0.10013863 0.13554685
v 0.49940710 -0.09956262 0.39955604
v 0.49940710 -0.08692741 0.13554685
v 0.49940710 -0.08635138 0.39955604
v 0.49940710 -0.07371614 0.13554685
v 0.49940710 -0.07314012 0.39955604
v 0.49940710 -0.06050492 0.13554685
v 0.49940710 -0.05992889 0.39955604
v 0.49940710 -0.04729368 0.13554685
v 0.49940710 -0.04671763 0.39955604
v 0.49940710 -0.03408243 0.13554685
v 0.49940710 -0.03350641 0.39955604
v 0.49940710 -0.02087119 0.13554685
v 0.49940710 -0.02029516 0.39955604
v 0.49940710 -0.00765995 0.13554685
v 0.49940710 -0.00708392 0.39955604
v 0.49940710 0.00555130 0.13554685
v 0.49940710 0.00612732 0.39955604
v 0.49940710 0.01876251 0.13554685
v 0.49940710 0.01933857 0.39955604
v 0.49940710 0.03197378 0.13554685
v 0.49940710 0.03254978 0.39955604
v 0.49940710 0.04518500 0.13554685
v 0.49940710 0.04576105 0.39955604
v 0.49940710 0.05839624 0.13554685
v 0.49940710 0.05897230 0.39955604
v 0.49940710 0.07160751 0.13554685
v 0.49940710 0.07218351 0.39955604
v 0.49940710 0.08481873 0.13554685
v 0.49940710 0.08539475 0.39955604
v 0.49940710 0.09802997 0.13554685
v 0.49940710 0.09860603 0.39955604
v 0.49940710 0.11124122 0.13554685
v 0.49940710 0.11181724 0.39955604
v 0.49940710 0.12445246 0.13554685
v 0.49940710 0.12502848 0.39955604
v 0.49940710 0.13766370 0.13554685
v 0.49940710 0.13823973 0.39955604
v 0.49940710 0.16408616 0.08044851
v 0.49940710 0.17729743 0.08044851
v 0.49940710 0.17729743 0.13554685
v 0.49940710 0.17787346 0.39955604
v 0.49940710 0.17787346 0.45465440
v 0.49940710 0.16466221 0.45465440
v 0.49940710 0.16408616 0.13554685
v 0.49940710 0.16466221 0.39955604
f 10 8 6
f 6 7 10
f 11 10 7
f 7 12 11
f 13 12 7
f 7 14 13
f 15 14 7
f 7 16 15
f 17 16 7
f 7 18 17
f 19 18 7
f 7 20 19
f 21 20 7
f 7 22 21
f 23 22 7
f 7 24 23
f 25 24 7
f 7 26 25
f 27 26 7
f 7 28 27
f 29 28 7
f 7 30 29
f 31 30 7
f 7 32 31
f 33 32 7
f 7 34 33
f 35 34 7
f 7 36 35
f 36 7 9
f 9 37 36
f 38 37 9
f 9 39 38
f 40 39 9
f 9 41 40
f 42 41 9
f 9 43 42
f 44 43 9
f 9 45 44
f 46 45 9
f 9 47 46
f 48 47 9
f 9 49 48
f 50 49 9
f 9 51 50
f 52 51 9
f 9 53 52
f 54 53 9
f 9 55 54
f 56 55 9
f 9 57 56
f 58 57 9
f 9 59 58
f 59 9 8
f 8 60 59
f 60 8 10
f 61 59 60
f 60 62 61
f 63 61 62
f 62 12 63
f 11 12 62
f 58 63 12
f 12 64 58
f 57 58 64
f 64 65 57
f 65 64 66
f 66 67 65
f 14 67 66
f 66 13 14
f 56 67 14
f 14 68 56
f 55 56 68
f 68 69 55
f 69 68 70
f 70 71 69
f 16 71 70
f 70 15 16
f 54 71 16
f 16 72 54
f 53 54 72
f 72 73 53
f 73 72 74
f 74 75 73
f 18 75 74
f 74 17 18
f 52 75 18
f 18 76 52
f 51 52 76
f 76 77 51
f 77 76 78
f 78 79 77
f 20 79 78
f 78 19 20
f 50 79 20
f 20 80 50
f 49 50 80
f 80 81 49
f 81 80 82
f 82 83 81
f 22 83 82
f 82 21 22
f 48 83 22
f 22 84 48
f 47 48 84
f 84 85 47
f 85 84 86
f 86 87 85
f 24 87 86
f 86 23 24
f 46 87 24
f 24 88 46
f 45 46 88
f 88 89 45
f 89 88 90
f 90 91 89
f 26 91 90
f 90 25 26
f 44 91 26
f 26 92 44
f 43 44 92
f 92 93 43
f 93 92 94
f 94 95 93
f 28 95 94
f 94 27 28
f 95 28 96
f 96 41 95
f 41 42 95
f 97 41 96
f 96 98 97
f 99 97 98
f 98 30 99
f 29 30 98
f 40 99 30
f 30 100 40
f 39 40 100
f 100 101 39
f 101 100 102
f 102 103 101
f 32 103 102
f 102 31 32
f 38 103 32
f 32 104 38
f 37 38 104
f 104 105 37
f 105 104 34
f 34 35 105
f 106 9 7
f 7 1 106
f 1 7 4
f 107 106 1
f 1 108 107
f 109 108 1
f 1 110 109
f 110 1 2
f 2 111 110
f 111 2 5
f 5 112 111
f 106 112 5
f 5 3 106
f 9 106 3
f 113 111 112
f 112 108 113
f 113 108 109

