# https://github.com/mikedh/trimesh
v -0.20676777 -0.13498302 0.57206255
v -0.20676777 -0.13498302 0.57206255
v -0.20676777 -0.13498302 0.57206255
v -0.20668126 -0.13462762 0.57206255
v -0.20668126 -0.13462762 0.57206255
v -0.20668126 -0.13462762 0.57206255
v -0.20652830 -0.13429537 0.57206255
v -0.20652830 -0.13429537 0.57206255
v -0.20652830 -0.13429537 0.57206255
v -0.20677467 -0.13530745 0.57206255
v -0.20677467 -0.13530745 0.57206255
v -0.20677467 -0.13530745 0.57206255
v -0.20633221 -0.13403683 0.57206255
v -0.20633221 -0.13403683 0.57206255
v -0.20633221 -0.13403683 0.57206255
v -0.20670092 -0.13555151 0.57206255
v -0.20670092 -0.13555151 0.57206255
v -0.20670092 -0.13555151 0.57206255
v -0.20612280 -0.13389137 0.57206255
v -0.20612280 -0.13389137 0.57206255
v -0.20612280 -0.13389137 0.57206255
v -0.20655774 -0.13567806 0.57206255
v -0.20655774 -0.13567806 0.57206255
v -0.20655774 -0.13567806 0.57206255
v -0.20593198 -0.13388113 0.57206255
v -0.20593198 -0.13388113 0.57206255
v -0.20593198 -0.13388113 0.57206255
v -0.20636692 -0.13566782 0.57206255
v -0.20636692 -0.13566782 0.57206255
v -0.20636692 -0.13566782 0.57206255
v -0.20578879 -0.13400768 0.57206255
v -0.20578879 -0.13400768 0.57206255
v -0.20578879 -0.13400768 0.57206255
v -0.20571505 -0.13425174 0.57206255
v -0.20571505 -0.13425174 0.57206255
v -0.20571505 -0.13425174 0.57206255
v -0.20615751 -0.13552236 0.57206255
v -0.20615751 -0.13552236 0.57206255
v -0.20615751 -0.13552236 0.57206255
v -0.20596142 -0.13526382 0.57206255
v -0.20596142 -0.13526382 0.57206255
v -0.20596142 -0.13526382 0.57206255
v -0.20572195 -0.13457617 0.57206255
v -0.20572195 -0.13457617 0.57206255
v -0.20572195 -0.13457617 0.57206255
v -0.20580846 -0.13493157 0.57206255
v -0.20580846 -0.13493157 0.57206255
v -0.20580846 -0.13493157 0.57206255
v -0.20652830 -0.13429537 0.63703210
v -0.20652830 -0.13429537 0.63703210
v -0.20652830 -0.13429537 0.63703210
v -0.20668126 -0.13462762 0.63703210
v -0.20668126 -0.13462762 0.63703210
v -0.20668126 -0.13462762 0.63703210
v -0.20676777 -0.13498302 0.63703210
v -0.20676777 -0.13498302 0.63703210
v -0.20676777 -0.13498302 0.63703210
v -0.20677467 -0.13530745 0.63703210
v -0.20677467 -0.13530745 0.63703210
v -0.20677467 -0.13530745 0.63703210
v -0.20633221 -0.13403683 0.63703210
v -0.20633221 -0.13403683 0.63703210
v -0.20633221 -0.13403683 0.63703210
v -0.20670092 -0.13555151 0.63703210
v -0.20670092 -0.13555151 0.63703210
v -0.20670092 -0.13555151 0.63703210
v -0.20612280 -0.13389137 0.63703210
v -0.20612280 -0.13389137 0.63703210
v -0.20612280 -0.13389137 0.63703210
v -0.20655774 -0.13567806 0.63703210
v -0.20655774 -0.13567806 0.63703210
v -0.20655774 -0.13567806 0.63703210
v -0.20593198 -0.13388113 0.63703210
v -0.20593198 -0.13388113 0.63703210
v -0.20593198 -0.13388113 0.63703210
v -0.20636692 -0.13566782 0.63703210
v -0.20636692 -0.13566782 0.63703210
v -0.20636692 -0.13566782 0.63703210
v -0.20578879 -0.13400768 0.63703210
v -0.20578879 -0.13400768 0.63703210
v -0.20578879 -0.13400768 0.63703210
v -0.20571505 -0.13425174 0.63703210
v -0.20571505 -0.13425174 0.63703210
v -0.20571505 -0.13425174 0.63703210
v -0.20615751 -0.13552236 0.63703210
v -0.20615751 -0.13552236 0.63703210
v -0.20615751 -0.13552236 0.63703210
v -0.20596142 -0.13526382 0.63703210
v -0.20596142 -0.13526382 0.63703210
v -0.20596142 -0.13526382 0.63703210
v -0.20572195 -0.13457617 0.63703210
v -0.20572195 -0.13457617 0.63703210
v -0.20572195 -0.13457617 0.63703210
v -0.20580846 -0.13493157 0.63703210
v -0.20580846 -0.13493157 0.63703210
v -0.20580846 -0.13493157 0.63703210
f 1 4 7
f 10 7 15
f 16 15 21
f 22 21 27
f 28 27 31
f 37 28 36
f 42 36 45
f 51 52 55
f 61 51 58
f 67 61 64
f 73 67 71
f 81 73 77
f 83 77 87
f 91 83 88
f 94 46 44
f 92 43 34
f 35 33 80
f 32 26 75
f 25 19 68
f 20 13 63
f 8 50 62
f 5 54 49
f 2 57 53
f 12 59 56
f 11 17 65
f 18 24 72
f 23 29 76
f 30 39 85
f 86 38 40
f 89 41 47
f 7 10 1
f 15 16 10
f 21 22 16
f 27 28 22
f 31 36 28
f 36 42 37
f 45 48 42
f 55 58 51
f 58 64 61
f 64 71 67
f 71 77 73
f 77 83 81
f 87 88 83
f 88 95 91
f 44 93 94
f 34 82 92
f 80 84 35
f 75 79 32
f 68 74 25
f 63 69 20
f 62 14 8
f 49 9 5
f 53 6 2
f 56 3 12
f 65 60 11
f 72 66 18
f 76 70 23
f 85 78 30
f 40 90 86
f 47 96 89

