# https://github.com/mikedh/trimesh
v -0.33534286 0.00660787 0.54443773
v -0.33804348 0.00588677 0.54443773
v -0.34081447 0.00625403 0.54443773
v -0.34323395 0.00765375 0.54443773
v -0.33312376 0.00830755 0.54443773
v -0.34493366 0.00987284 0.54443773
v -0.33172404 0.01072707 0.54443773
v -0.33135678 0.01349806 0.54443773
v -0.34565476 0.01257345 0.54443773
v -0.34528749 0.01534444 0.54443773
v -0.33207787 0.01619867 0.54443773
v -0.34388777 0.01776395 0.54443773
v -0.33377759 0.01841775 0.54443773
v -0.34166868 0.01946364 0.54443773
v -0.33619707 0.01981748 0.54443773
v -0.33896806 0.02018474 0.54443773
v -0.40102314 -0.07591723 0.54411263
v -0.40372250 -0.07519142 0.54411263
v -0.40593862 -0.07348787 0.54411263
v -0.40733411 -0.07106591 0.54411263
v -0.39825150 -0.07555481 0.54411263
v -0.40769653 -0.06829429 0.54411263
v -0.39582956 -0.07415930 0.54411263
v -0.39412602 -0.07194319 0.54411263
v -0.40697071 -0.06559494 0.54411263
v -0.40526717 -0.06337883 0.54411263
v -0.39340020 -0.06924385 0.54411263
v -0.40284523 -0.06198333 0.54411263
v -0.39376262 -0.06647222 0.54411263
v -0.40007360 -0.06162090 0.54411263
v -0.39515811 -0.06405027 0.54411263
v -0.39737424 -0.06234671 0.54411263
v -0.42205844 -0.19988650 0.54036855
v -0.42475780 -0.19916068 0.54036855
v -0.42697392 -0.19745712 0.54036855
v -0.42836941 -0.19503517 0.54036855
v -0.41928681 -0.19952406 0.54036855
v -0.42873183 -0.19226353 0.54036855
v -0.41686487 -0.19812856 0.54036855
v -0.41516132 -0.19591245 0.54036855
v -0.42800601 -0.18956419 0.54036855
v -0.42630247 -0.18734808 0.54036855
v -0.41443551 -0.19321311 0.54036855
v -0.42388053 -0.18595258 0.54036855
v -0.41479793 -0.19044147 0.54036855
v -0.42110889 -0.18559015 0.54036855
v -0.41619342 -0.18801952 0.54036855
v -0.41840954 -0.18631596 0.54036855
v -0.20130603 -0.12957090 0.54088340
v -0.20207416 -0.13225852 0.54088340
v -0.20381231 -0.13444759 0.54088340
v -0.20625588 -0.13580488 0.54088340
v -0.20162489 -0.12679393 0.54088340
v -0.20903287 -0.13612373 0.54088340
v -0.20298217 -0.12435035 0.54088340
v -0.20517125 -0.12261219 0.54088340
v -0.21172048 -0.13535561 0.54088340
v -0.21390955 -0.13361746 0.54088340
v -0.20785886 -0.12184407 0.54088340
v -0.21526684 -0.13117388 0.54088340
v -0.21063584 -0.12216293 0.54088340
v -0.21558570 -0.12839690 0.54088340
v -0.21307942 -0.12352021 0.54088340
v -0.21481756 -0.12570929 0.54088340
v -0.18599442 -0.13743998 0.54088340
v -0.18676255 -0.14012759 0.54088340
v -0.18850070 -0.14231667 0.54088340
v -0.19094427 -0.14367395 0.54088340
v -0.18631328 -0.13466300 0.54088340
v -0.19372126 -0.14399280 0.54088340
v -0.18767056 -0.13221942 0.54088340
v -0.18985964 -0.13048127 0.54088340
v -0.19640887 -0.14322468 0.54088340
v -0.19859795 -0.14148653 0.54088340
v -0.19254725 -0.12971315 0.54088340
v -0.19995523 -0.13904295 0.54088340
v -0.19532424 -0.13003200 0.54088340
v -0.20027409 -0.13626597 0.54088340
v -0.19776781 -0.13138928 0.54088340
v -0.19950596 -0.13357836 0.54088340
v -0.17181413 -0.14472763 0.54088340
v -0.17258227 -0.14741524 0.54088340
v -0.17432041 -0.14960432 0.54088340
v -0.17676399 -0.15096160 0.54088340
v -0.17213299 -0.14195065 0.54088340
v -0.17954097 -0.15128046 0.54088340
v -0.17349028 -0.13950707 0.54088340
v -0.17567935 -0.13776892 0.54088340
v -0.18222858 -0.15051234 0.54088340
v -0.18441766 -0.14877418 0.54088340
v -0.17836697 -0.13700080 0.54088340
v -0.18577494 -0.14633060 0.54088340
v -0.18114395 -0.13731965 0.54088340
v -0.18609380 -0.14355363 0.54088340
v -0.18358752 -0.13867694 0.54088340
v -0.18532567 -0.14086601 0.54088340
v -0.15727838 -0.15219804 0.54088340
v -0.15804652 -0.15488565 0.54088340
v -0.15978467 -0.15707473 0.54088340
v -0.16222824 -0.15843201 0.54088340
v -0.15759724 -0.14942106 0.54088340
v -0.16500522 -0.15875087 0.54088340
v -0.15895453 -0.14697748 0.54088340
v -0.16114360 -0.14523933 0.54088340
v -0.16769283 -0.15798274 0.54088340
v -0.16988191 -0.15624459 0.54088340
v -0.16383122 -0.14447121 0.54088340
v -0.17123919 -0.15380101 0.54088340
v -0.16660820 -0.14479006 0.54088340
v -0.17155805 -0.15102403 0.54088340
v -0.16905177 -0.14614734 0.54088340
v -0.17078992 -0.14833642 0.54088340
v -0.14302273 -0.15952442 0.54088340
v -0.14379085 -0.16221203 0.54088340
v -0.14552900 -0.16440111 0.54088340
v -0.14797258 -0.16575839 0.54088340
v -0.14334158 -0.15674743 0.54088340
v -0.15074956 -0.16607725 0.54088340
v -0.14469886 -0.15430386 0.54088340
v -0.14688794 -0.15256571 0.54088340
v -0.15343717 -0.16530912 0.54088340
v -0.15562625 -0.16357097 0.54088340
v -0.14957555 -0.15179759 0.54088340
v -0.15698353 -0.16112740 0.54088340
v -0.15235253 -0.15211644 0.54088340
v -0.15730239 -0.15835041 0.54088340
v -0.15479611 -0.15347372 0.54088340
v -0.15653426 -0.15566280 0.54088340
v -0.25012151 -0.17943478 0.54088340
v -0.25209976 -0.18140958 0.54088340
v -0.25468315 -0.18247701 0.54088340
v -0.25747836 -0.18247457 0.54088340
v -0.24904957 -0.17685326 0.54088340
v -0.26005987 -0.18140263 0.54088340
v -0.24904714 -0.17405805 0.54088340
v -0.25011457 -0.17147467 0.54088340
v -0.26203467 -0.17942438 0.54088340
v -0.26310210 -0.17684100 0.54088340
v -0.25208936 -0.16949642 0.54088340
v -0.26309966 -0.17404579 0.54088340
v -0.25467088 -0.16842448 0.54088340
v -0.26202772 -0.17146427 0.54088340
v -0.25746609 -0.16842204 0.54088340
v -0.26004948 -0.16948947 0.54088340
v -0.21374654 0.06095195 0.54082250
v -0.21646735 0.06031129 0.54082250
v -0.21922623 0.06076060 0.54082250
v -0.22160315 0.06223148 0.54082250
v -0.21147802 0.06258506 0.54082250
v -0.22323626 0.06450001 0.54082250
v -0.21000713 0.06496198 0.54082250
v -0.20955782 0.06772086 0.54082250
v -0.22387693 0.06722082 0.54082250
v -0.22342762 0.06997970 0.54082250
v -0.21019848 0.07044167 0.54082250
v -0.22195672 0.07235662 0.54082250
v -0.21183159 0.07271020 0.54082250
v -0.21968820 0.07398973 0.54082250
v -0.21420851 0.07418109 0.54082250
v -0.21696739 0.07463040 0.54082250
v -0.23172358 -0.20702127 0.54088340
v -0.23370183 -0.20899607 0.54088340
v -0.23628521 -0.21006350 0.54088340
v -0.23908043 -0.21006106 0.54088340
v -0.23065164 -0.20443976 0.54088340
v -0.24166194 -0.20898912 0.54088340
v -0.23064921 -0.20164455 0.54088340
v -0.23171664 -0.19906116 0.54088340
v -0.24363674 -0.20701088 0.54088340
v -0.24470417 -0.20442749 0.54088340
v -0.23369143 -0.19708291 0.54088340
v -0.24470173 -0.20163228 0.54088340
v -0.23627295 -0.19601097 0.54088340
v -0.24362979 -0.19905076 0.54088340
v -0.23906816 -0.19600854 0.54088340
v -0.24165155 -0.19707597 0.54088340
v -0.40839159 -0.19159509 0.54036855
v -0.41109095 -0.19086927 0.54036855
v -0.41330707 -0.18916571 0.54036855
v -0.41470256 -0.18674376 0.54036855
v -0.40561996 -0.19123265 0.54036855
v -0.41506498 -0.18397213 0.54036855
v -0.40319802 -0.18983715 0.54036855
v -0.40149447 -0.18762104 0.54036855
v -0.41433916 -0.18127278 0.54036855
v -0.41263562 -0.17905668 0.54036855
v -0.40076866 -0.18492170 0.54036855
v -0.41021368 -0.17766117 0.54036855
v -0.40113108 -0.18215007 0.54036855
v -0.40744204 -0.17729873 0.54036855
v -0.40252657 -0.17972811 0.54036855
v -0.40474269 -0.17802455 0.54036855
v -0.39478490 -0.18252049 0.54036855
v -0.39748426 -0.18179467 0.54036855
v -0.39970038 -0.18009111 0.54036855
v -0.40109587 -0.17766916 0.54036855
v -0.39201327 -0.18215805 0.54036855
v -0.40145829 -0.17489753 0.54036855
v -0.38959133 -0.18076255 0.54036855
v -0.38788779 -0.17854644 0.54036855
v -0.40073247 -0.17219818 0.54036855
v -0.39902893 -0.16998208 0.54036855
v -0.38716197 -0.17584710 0.54036855
v -0.39660699 -0.16858657 0.54036855
v -0.38752439 -0.17307547 0.54036855
v -0.39383536 -0.16822413 0.54036855
v -0.38891988 -0.17065351 0.54036855
v -0.39113600 -0.16894995 0.54036855
v -0.28196636 -0.19050145 0.54173145
v -0.28466570 -0.18977564 0.54173145
v -0.28688181 -0.18807208 0.54173145
v -0.28827730 -0.18565012 0.54173145
v -0.27919473 -0.19013902 0.54173145
v -0.28863975 -0.18287849 0.54173145
v -0.27677277 -0.18874351 0.54173145
v -0.27506921 -0.18652741 0.54173145
v -0.28791393 -0.18017915 0.54173145
v -0.28621036 -0.17796304 0.54173145
v -0.27434340 -0.18382807 0.54173145
v -0.28378842 -0.17656753 0.54173145
v -0.27470583 -0.18105643 0.54173145
v -0.28101678 -0.17620510 0.54173145
v -0.27610133 -0.17863448 0.54173145
v -0.27831744 -0.17693092 0.54173145
v -0.24486223 0.00366020 0.54082250
v -0.24758304 0.00301953 0.54082250
v -0.25034191 0.00346885 0.54082250
v -0.25271884 0.00493973 0.54082250
v -0.24259370 0.00529331 0.54082250
v -0.25435194 0.00720826 0.54082250
v -0.24112281 0.00767023 0.54082250
v -0.24067350 0.01042911 0.54082250
v -0.25499261 0.00992907 0.54082250
v -0.25454330 0.01268795 0.54082250
v -0.24131417 0.01314992 0.54082250
v -0.25307241 0.01506487 0.54082250
v -0.24294727 0.01541845 0.54082250
v -0.25080388 0.01669798 0.54082250
v -0.24532420 0.01688933 0.54082250
v -0.24808308 0.01733865 0.54082250
v -0.22943171 0.03268085 0.54082250
v -0.23215251 0.03204019 0.54082250
v -0.23491139 0.03248950 0.54082250
v -0.23728831 0.03396038 0.54082250
v -0.22716318 0.03431396 0.54082250
v -0.23892142 0.03622891 0.54082250
v -0.22569228 0.03669088 0.54082250
v -0.22524298 0.03944976 0.54082250
v -0.23956208 0.03894972 0.54082250
v -0.23911278 0.04170860 0.54082250
v -0.22588364 0.04217057 0.54082250
v -0.23764189 0.04408552 0.54082250
v -0.22751675 0.04443910 0.54082250
v -0.23537336 0.04571863 0.54082250
v -0.22989367 0.04590999 0.54082250
v -0.23265255 0.04635929 0.54082250
v -0.23718395 0.01810101 0.54082250
v -0.23990475 0.01746034 0.54082250
v -0.24266363 0.01790966 0.54082250
v -0.24504056 0.01938054 0.54082250
v -0.23491542 0.01973412 0.54082250
v -0.24667366 0.02164907 0.54082250
v -0.23344453 0.02211104 0.54082250
v -0.23299522 0.02486992 0.54082250
v -0.24731433 0.02436988 0.54082250
v -0.24686502 0.02712876 0.54082250
v -0.23363589 0.02759073 0.54082250
v -0.24539413 0.02950568 0.54082250
v -0.23526899 0.02985926 0.54082250
v -0.24312560 0.03113879 0.54082250
v -0.23764592 0.03133014 0.54082250
v -0.24040479 0.03177946 0.54082250
v -0.31619389 -0.18723599 0.54088340
v -0.31898515 -0.18738473 0.54088340
v -0.32162085 -0.18645397 0.54088340
v -0.32369975 -0.18458541 0.54088340
v -0.31367202 -0.18603042 0.54088340
v -0.32490530 -0.18206353 0.54088340
v -0.31180344 -0.18395153 0.54088340
v -0.31087270 -0.18131583 0.54088340
v -0.32505403 -0.17927226 0.54088340
v -0.32412328 -0.17663656 0.54088340
v -0.31102141 -0.17852456 0.54088340
v -0.32225471 -0.17455767 0.54088340
v -0.31222697 -0.17600269 0.54088340
v -0.31973283 -0.17335210 0.54088340
v -0.31430587 -0.17413413 0.54088340
v -0.31694157 -0.17320337 0.54088340
v -0.31864935 -0.20427534 0.54088340
v -0.32144060 -0.20442407 0.54088340
v -0.32407630 -0.20349331 0.54088340
v -0.32615520 -0.20162475 0.54088340
v -0.31612747 -0.20306976 0.54088340
v -0.32736076 -0.19910288 0.54088340
v -0.31425890 -0.20099088 0.54088340
v -0.31332815 -0.19835518 0.54088340
v -0.32750948 -0.19631160 0.54088340
v -0.32657874 -0.19367591 0.54088340
v -0.31347687 -0.19556391 0.54088340
v -0.32471016 -0.19159702 0.54088340
v -0.31468243 -0.19304203 0.54088340
v -0.32218828 -0.19039145 0.54088340
v -0.31676133 -0.19117347 0.54088340
v -0.31939703 -0.19024271 0.54088340
v -0.32092333 -0.22005561 0.54088340
v -0.32371459 -0.22020435 0.54088340
v -0.32635029 -0.21927359 0.54088340
v -0.32842919 -0.21740503 0.54088340
v -0.31840146 -0.21885004 0.54088340
v -0.32963475 -0.21488316 0.54088340
v -0.31653288 -0.21677116 0.54088340
v -0.31560213 -0.21413546 0.54088340
v -0.32978347 -0.21209188 0.54088340
v -0.32885272 -0.20945618 0.54088340
v -0.31575086 -0.21134418 0.54088340
v -0.32698414 -0.20737730 0.54088340
v -0.31695641 -0.20882231 0.54088340
v -0.32446227 -0.20617172 0.54088340
v -0.31903531 -0.20695375 0.54088340
v -0.32167101 -0.20602299 0.54088340
v -0.32325423 -0.23623161 0.54088340
v -0.32604549 -0.23638035 0.54088340
v -0.32868119 -0.23544959 0.54088340
v -0.33076009 -0.23358103 0.54088340
v -0.32073235 -0.23502604 0.54088340
v -0.33196565 -0.23105915 0.54088340
v -0.31886378 -0.23294715 0.54088340
v -0.31793304 -0.23031146 0.54088340
v -0.33211436 -0.22826788 0.54088340
v -0.33118362 -0.22563218 0.54088340
v -0.31808176 -0.22752018 0.54088340
v -0.32931504 -0.22355330 0.54088340
v -0.31928731 -0.22499831 0.54088340
v -0.32679317 -0.22234772 0.54088340
v -0.32136621 -0.22312975 0.54088340
v -0.32400191 -0.22219899 0.54088340
v -0.32554030 -0.25209585 0.54088340
v -0.32833155 -0.25224459 0.54088340
v -0.33096725 -0.25131382 0.54088340
v -0.33304615 -0.24944526 0.54088340
v -0.32301842 -0.25089028 0.54088340
v -0.33425171 -0.24692339 0.54088340
v -0.32114985 -0.24881139 0.54088340
v -0.32021910 -0.24617569 0.54088340
v -0.33440043 -0.24413212 0.54088340
v -0.33346969 -0.24149642 0.54088340
v -0.32036782 -0.24338442 0.54088340
v -0.33160111 -0.23941753 0.54088340
v -0.32157338 -0.24086255 0.54088340
v -0.32907924 -0.23821196 0.54088340
v -0.32365228 -0.23899398 0.54088340
v -0.32628798 -0.23806322 0.54088340
v -0.36871996 -0.16431410 0.54036855
v -0.37141931 -0.16358828 0.54036855
v -0.37363544 -0.16188472 0.54036855
v -0.37503093 -0.15946277 0.54036855
v -0.36594833 -0.16395166 0.54036855
v -0.37539335 -0.15669114 0.54036855
v -0.36352638 -0.16255616 0.54036855
v -0.36182284 -0.16034005 0.54036855
v -0.37466753 -0.15399180 0.54036855
v -0.37296399 -0.15177568 0.54036855
v -0.36109703 -0.15764071 0.54036855
v -0.37054205 -0.15038018 0.54036855
v -0.36145945 -0.15486908 0.54036855
v -0.36777042 -0.15001775 0.54036855
v -0.36285493 -0.15244712 0.54036855
v -0.36507106 -0.15074357 0.54036855
v -0.44073187 -0.16760966 0.54476866
v -0.44341679 -0.16838716 0.54476866
v -0.44619486 -0.16807800 0.54476866
v -0.44864317 -0.16672926 0.54476866
v -0.43854890 -0.16586388 0.54476866
v -0.45038897 -0.16454626 0.54476866
v -0.43720014 -0.16341558 0.54476866
v -0.43689098 -0.16063751 0.54476866
v -0.45116645 -0.16186134 0.54476866
v -0.45085730 -0.15908327 0.54476866
v -0.43766847 -0.15795259 0.54476866
v -0.44950854 -0.15663498 0.54476866
v -0.43941427 -0.15576959 0.54476866
v -0.44732556 -0.15488919 0.54476866
v -0.44186258 -0.15442084 0.54476866
v -0.44464065 -0.15411169 0.54476866
v -0.42854364 -0.15836251 0.54482956
v -0.43122856 -0.15914001 0.54482956
v -0.43400663 -0.15883086 0.54482956
v -0.43645494 -0.15748212 0.54482956
v -0.42636067 -0.15661673 0.54482956
v -0.43820074 -0.15529911 0.54482956
v -0.42501191 -0.15416843 0.54482956
v -0.42470275 -0.15139036 0.54482956
v -0.43897822 -0.15261420 0.54482956
v -0.43866907 -0.14983612 0.54482956
v -0.42548024 -0.14870545 0.54482956
v -0.43732031 -0.14738783 0.54482956
v -0.42722604 -0.14652244 0.54482956
v -0.43513733 -0.14564204 0.54482956
v -0.42967435 -0.14517370 0.54482956
v -0.43245242 -0.14486454 0.54482956
v -0.40132953 -0.13764962 0.54482956
v -0.40401445 -0.13842711 0.54482956
v -0.40679252 -0.13811796 0.54482956
v -0.40924083 -0.13676922 0.54482956
v -0.39914656 -0.13590383 0.54482956
v -0.41098663 -0.13458621 0.54482956
v -0.39779780 -0.13345554 0.54482956
v -0.39748864 -0.13067746 0.54482956
v -0.41176411 -0.13190130 0.54482956
v -0.41145496 -0.12912322 0.54482956
v -0.39826613 -0.12799255 0.54482956
v -0.41010620 -0.12667493 0.54482956
v -0.40001193 -0.12580954 0.54482956
v -0.40792322 -0.12492914 0.54482956
v -0.40246024 -0.12446080 0.54482956
v -0.40523831 -0.12415164 0.54482956
v -0.38928107 -0.12901971 0.54482956
v -0.39196599 -0.12979720 0.54482956
v -0.39474406 -0.12948805 0.54482956
v -0.39719237 -0.12813931 0.54482956
v -0.38709809 -0.12727392 0.54482956
v -0.39893816 -0.12595630 0.54482956
v -0.38574934 -0.12482563 0.54482956
v -0.38544018 -0.12204755 0.54482956
v -0.39971565 -0.12327139 0.54482956
v -0.39940650 -0.12049331 0.54482956
v -0.38621767 -0.11936264 0.54482956
v -0.39805774 -0.11804502 0.54482956
v -0.38796347 -0.11717963 0.54482956
v -0.39587477 -0.11629923 0.54482956
v -0.39041178 -0.11583089 0.54482956
v -0.39318985 -0.11552173 0.54482956
v -0.41551865 -0.14793763 0.54482956
v -0.41820357 -0.14871512 0.54482956
v -0.42098164 -0.14840597 0.54482956
v -0.42342995 -0.14705722 0.54482956
v -0.41333568 -0.14619184 0.54482956
v -0.42517575 -0.14487422 0.54482956
v -0.41198692 -0.14374354 0.54482956
v -0.41167776 -0.14096546 0.54482956
v -0.42595323 -0.14218931 0.54482956
v -0.42564408 -0.13941123 0.54482956
v -0.41245525 -0.13828056 0.54482956
v -0.42429532 -0.13696293 0.54482956
v -0.41420105 -0.13609755 0.54482956
v -0.42211235 -0.13521715 0.54482956
v -0.41664936 -0.13474881 0.54482956
v -0.41942743 -0.13443965 0.54482956
v -0.26759831 0.01820059 0.54082250
v -0.26879065 0.01567243 0.54082250
v -0.27085974 0.01379302 0.54082250
v -0.27349053 0.01284847 0.54082250
v -0.26746420 0.02099259 0.54082250
v -0.27628253 0.01298257 0.54082250
v -0.26840875 0.02362339 0.54082250
v -0.27028816 0.02569246 0.54082250
v -0.27881069 0.01417493 0.54082250
v -0.28069010 0.01624400 0.54082250
v -0.27281633 0.02688482 0.54082250
v -0.28163465 0.01887480 0.54082250
v -0.27560832 0.02701892 0.54082250
v -0.28150054 0.02166680 0.54082250
v -0.27823911 0.02607437 0.54082250
v -0.28030820 0.02419496 0.54082250
v -0.26647443 0.03345841 0.54088340
v -0.26766677 0.03093026 0.54088340
v -0.26973584 0.02905084 0.54088340
v -0.27236665 0.02810629 0.54088340
v -0.26634032 0.03625041 0.54088340
v -0.27515865 0.02824040 0.54088340
v -0.26728486 0.03888121 0.54088340
v -0.26916428 0.04095028 0.54088340
v -0.27768680 0.02943276 0.54088340
v -0.27956622 0.03150183 0.54088340
v -0.27169244 0.04214264 0.54088340
v -0.28051077 0.03413262 0.54088340
v -0.27448443 0.04227675 0.54088340
v -0.28037666 0.03692463 0.54088340
v -0.27711524 0.04133220 0.54088340
v -0.27918431 0.03945278 0.54088340
v -0.26401442 0.06756967 0.54088340
v -0.26520676 0.06504151 0.54088340
v -0.26727585 0.06316210 0.54088340
v -0.26990664 0.06221754 0.54088340
v -0.26388031 0.07036167 0.54088340
v -0.27269863 0.06235165 0.54088340
v -0.26482486 0.07299247 0.54088340
v -0.26670427 0.07506154 0.54088340
v -0.27522680 0.06354401 0.54088340
v -0.27710621 0.06561308 0.54088340
v -0.26923243 0.07625390 0.54088340
v -0.27805076 0.06824388 0.54088340
v -0.27202442 0.07638800 0.54088340
v -0.27791665 0.07103588 0.54088340
v -0.27465522 0.07544345 0.54088340
v -0.27672431 0.07356404 0.54088340
v -0.26252002 0.08231448 0.54088340
v -0.26371236 0.07978633 0.54088340
v -0.26578143 0.07790691 0.54088340
v -0.26841224 0.07696236 0.54088340
v -0.26238591 0.08510648 0.54088340
v -0.27120424 0.07709647 0.54088340
v -0.26333046 0.08773728 0.54088340
v -0.26520987 0.08980635 0.54088340
v -0.27373240 0.07828883 0.54088340
v -0.27561181 0.08035790 0.54088340
v -0.26773803 0.09099871 0.54088340
v -0.27655636 0.08298870 0.54088340
v -0.27053003 0.09113282 0.54088340
v -0.27642225 0.08578070 0.54088340
v -0.27316083 0.09018827 0.54088340
v -0.27522991 0.08830885 0.54088340
v -0.26568070 0.05012267 0.54088340
v -0.26687305 0.04759452 0.54088340
v -0.26894213 0.04571510 0.54088340
v -0.27157293 0.04477055 0.54088340
v -0.26554659 0.05291467 0.54088340
v -0.27436492 0.04490466 0.54088340
v -0.26649114 0.05554547 0.54088340
v -0.26837056 0.05761455 0.54088340
v -0.27689308 0.04609702 0.54088340
v -0.27877250 0.04816609 0.54088340
v -0.27089872 0.05880690 0.54088340
v -0.27971704 0.05079689 0.54088340
v -0.27369071 0.05894101 0.54088340
v -0.27958293 0.05358889 0.54088340
v -0.27632150 0.05799646 0.54088340
v -0.27839059 0.05611704 0.54088340
v -0.38104709 -0.17335850 0.54036855
v -0.38374645 -0.17263268 0.54036855
v -0.38596258 -0.17092912 0.54036855
v -0.38735806 -0.16850716 0.54036855
v -0.37827546 -0.17299606 0.54036855
v -0.38772048 -0.16573553 0.54036855
v -0.37585352 -0.17160055 0.54036855
v -0.37414998 -0.16938445 0.54036855
v -0.38699467 -0.16303619 0.54036855
v -0.38529113 -0.16082008 0.54036855
v -0.37342416 -0.16668511 0.54036855
v -0.38286918 -0.15942458 0.54036855
v -0.37378658 -0.16391347 0.54036855
v -0.38009755 -0.15906214 0.54036855
v -0.37518207 -0.16149152 0.54036855
v -0.37739820 -0.15978796 0.54036855
v -0.18999645 -0.09241875 0.54088340
v -0.18999888 -0.09521397 0.54088340
v -0.19107082 -0.09779549 0.54088340
v -0.19304907 -0.09977028 0.54088340
v -0.19106388 -0.08983537 0.54088340
v -0.19563246 -0.10083771 0.54088340
v -0.19303867 -0.08785712 0.54088340
v -0.19562019 -0.08678519 0.54088340
v -0.19842767 -0.10083527 0.54088340
v -0.20100918 -0.09976334 0.54088340
v -0.19841540 -0.08678275 0.54088340
v -0.20298398 -0.09778509 0.54088340
v -0.20099879 -0.08785018 0.54088340
v -0.20405141 -0.09520171 0.54088340
v -0.20297704 -0.08982498 0.54088340
v -0.20404898 -0.09240649 0.54088340
v -0.17311478 -0.09579201 0.54088340
v -0.17311721 -0.09858723 0.54088340
v -0.17418915 -0.10116875 0.54088340
v -0.17616740 -0.10314354 0.54088340
v -0.17418221 -0.09320863 0.54088340
v -0.17875079 -0.10421097 0.54088340
v -0.17615700 -0.09123039 0.54088340
v -0.17873852 -0.09015845 0.54088340
v -0.18154600 -0.10420854 0.54088340
v -0.18412752 -0.10313660 0.54088340
v -0.18153373 -0.09015601 0.54088340
v -0.18610231 -0.10115835 0.54088340
v -0.18411712 -0.09122344 0.54088340
v -0.18716974 -0.09857497 0.54088340
v -0.18609537 -0.09319824 0.54088340
v -0.18716731 -0.09577975 0.54088340
v -0.15748058 -0.09891606 0.54088340
v -0.15748302 -0.10171129 0.54088340
v -0.15855496 -0.10429280 0.54088340
v -0.16053321 -0.10626760 0.54088340
v -0.15854801 -0.09633268 0.54088340
v -0.16311659 -0.10733503 0.54088340
v -0.16052281 -0.09435444 0.54088340
v -0.16310433 -0.09328250 0.54088340
v -0.16591180 -0.10733259 0.54088340
v -0.16849332 -0.10626065 0.54088340
v -0.16589954 -0.09328006 0.54088340
v -0.17046812 -0.10428240 0.54088340
v -0.16848292 -0.09434750 0.54088340
v -0.17153555 -0.10169903 0.54088340
v -0.17046117 -0.09632229 0.54088340
v -0.17153311 -0.09890380 0.54088340
v -0.14145432 -0.10211843 0.54088340
v -0.14145676 -0.10491365 0.54088340
v -0.14252869 -0.10749517 0.54088340
v -0.14450694 -0.10946997 0.54088340
v -0.14252175 -0.09953505 0.54088340
v -0.14709032 -0.11053740 0.54088340
v -0.14449655 -0.09755681 0.54088340
v -0.14707806 -0.09648487 0.54088340
v -0.14988554 -0.11053496 0.54088340
v -0.15246706 -0.10946302 0.54088340
v -0.14987328 -0.09648243 0.54088340
v -0.15444185 -0.10748477 0.54088340
v -0.15245666 -0.09754987 0.54088340
v -0.15550928 -0.10490140 0.54088340
v -0.15443491 -0.09952466 0.54088340
v -0.15550685 -0.10210618 0.54088340
v -0.12573696 -0.10525905 0.54088340
v -0.12573940 -0.10805427 0.54088340
v -0.12681134 -0.11063578 0.54088340
v -0.12878958 -0.11261058 0.54088340
v -0.12680439 -0.10267567 0.54088340
v -0.13137296 -0.11367801 0.54088340
v -0.12877919 -0.10069742 0.54088340
v -0.13136070 -0.09962548 0.54088340
v -0.13416818 -0.11367557 0.54088340
v -0.13674970 -0.11260363 0.54088340
v -0.13415593 -0.09962305 0.54088340
v -0.13872449 -0.11062539 0.54088340
v -0.13673930 -0.10069048 0.54088340
v -0.13979193 -0.10804201 0.54088340
v -0.13871755 -0.10266527 0.54088340
v -0.13978949 -0.10524679 0.54088340
v -0.46484069 -0.11829669 0.54476866
v -0.46759129 -0.11779930 0.54476866
v -0.46994218 -0.11628716 0.54476866
v -0.47153545 -0.11399047 0.54476866
v -0.46210911 -0.11770361 0.54476866
v -0.47212853 -0.11125889 0.54476866
v -0.45981243 -0.11611034 0.54476866
v -0.45830026 -0.11375945 0.54476866
v -0.47163116 -0.10850827 0.54476866
v -0.47011899 -0.10615738 0.54476866
v -0.45780289 -0.11100883 0.54476866
v -0.46782231 -0.10456412 0.54476866
v -0.45839597 -0.10827725 0.54476866
v -0.46509073 -0.10397103 0.54476866
v -0.45998924 -0.10598056 0.54476866
v -0.46234013 -0.10446842 0.54476866
v -0.44981193 -0.11543322 0.54482956
v -0.45256253 -0.11493583 0.54482956
v -0.45491342 -0.11342368 0.54482956
v -0.45650669 -0.11112700 0.54482956
v -0.44708034 -0.11484013 0.54482956
v -0.45709977 -0.10839541 0.54482956
v -0.44478367 -0.11324687 0.54482956
v -0.44327150 -0.11089598 0.54482956
v -0.45660239 -0.10564480 0.54482956
v -0.45509023 -0.10329391 0.54482956
v -0.44277413 -0.10814536 0.54482956
v -0.45279355 -0.10170064 0.54482956
v -0.44336720 -0.10541378 0.54482956
v -0.45006197 -0.10110755 0.54482956
v -0.44496048 -0.10311709 0.54482956
v -0.44731137 -0.10160495 0.54482956
v -0.41622626 -0.10898083 0.54482956
v -0.41897685 -0.10848344 0.54482956
v -0.42132775 -0.10697129 0.54482956
v -0.42292102 -0.10467461 0.54482956
v -0.41349467 -0.10838774 0.54482956
v -0.42351409 -0.10194302 0.54482956
v -0.41119799 -0.10679447 0.54482956
v -0.40968583 -0.10444358 0.54482956
v -0.42301672 -0.09919241 0.54482956
v -0.42150455 -0.09684152 0.54482956
v -0.40918846 -0.10169297 0.54482956
v -0.41920788 -0.09524825 0.54482956
v -0.40978153 -0.09896139 0.54482956
v -0.41647629 -0.09465516 0.54482956
v -0.41137480 -0.09666470 0.54482956
v -0.41372569 -0.09515256 0.54482956
v -0.40159711 -0.10660811 0.54482956
v -0.40434770 -0.10611071 0.54482956
v -0.40669860 -0.10459857 0.54482956
v -0.40829187 -0.10230188 0.54482956
v -0.39886552 -0.10601502 0.54482956
v -0.40888494 -0.09957030 0.54482956
v -0.39656885 -0.10442175 0.54482956
v -0.39505668 -0.10207086 0.54482956
v -0.40838757 -0.09681968 0.54482956
v -0.40687540 -0.09446879 0.54482956
v -0.39455931 -0.09932025 0.54482956
v -0.40457873 -0.09287553 0.54482956
v -0.39515238 -0.09658866 0.54482956
v -0.40184714 -0.09228244 0.54482956
v -0.39674565 -0.09429198 0.54482956
v -0.39909655 -0.09277983 0.54482956
v -0.43351000 -0.11188692 0.54482956
v -0.43626059 -0.11138953 0.54482956
v -0.43861148 -0.10987739 0.54482956
v -0.44020476 -0.10758070 0.54482956
v -0.43077841 -0.11129383 0.54482956
v -0.44079783 -0.10484912 0.54482956
v -0.42848173 -0.10970057 0.54482956
v -0.42696956 -0.10734968 0.54482956
v -0.44030046 -0.10209850 0.54482956
v -0.43878829 -0.09974761 0.54482956
v -0.42647219 -0.10459906 0.54482956
v -0.43649161 -0.09815435 0.54482956
v -0.42706527 -0.10186748 0.54482956
v -0.43376003 -0.09756126 0.54482956
v -0.42865854 -0.09957079 0.54482956
v -0.43100943 -0.09805865 0.54482956
v -0.22142489 0.04651114 0.54082250
v -0.22414569 0.04587048 0.54082250
v -0.22690457 0.04631978 0.54082250
v -0.22928150 0.04779067 0.54082250
v -0.21915636 0.04814425 0.54082250
v -0.23091460 0.05005921 0.54082250
v -0.21768547 0.05052117 0.54082250
v -0.21723616 0.05328005 0.54082250
v -0.23155527 0.05278001 0.54082250
v -0.23110596 0.05553889 0.54082250
v -0.21787683 0.05600086 0.54082250
v -0.22963507 0.05791581 0.54082250
v -0.21950993 0.05826939 0.54082250
v -0.22736654 0.05954892 0.54082250
v -0.22188686 0.05974028 0.54082250
v -0.22464573 0.06018958 0.54082250
v -0.34765292 -0.17881930 0.54088340
v -0.35028862 -0.17788854 0.54088340
v -0.35236752 -0.17601998 0.54088340
v -0.35357308 -0.17349811 0.54088340
v -0.34486166 -0.17867057 0.54088340
v -0.35372180 -0.17070683 0.54088340
v -0.34233979 -0.17746500 0.54088340
v -0.34047121 -0.17538611 0.54088340
v -0.35279105 -0.16807114 0.54088340
v -0.35092247 -0.16599225 0.54088340
v -0.33954046 -0.17275041 0.54088340
v -0.34840060 -0.16478668 0.54088340
v -0.33968918 -0.16995914 0.54088340
v -0.34560934 -0.16463794 0.54088340
v -0.34089474 -0.16743727 0.54088340
v -0.34297364 -0.16556871 0.54088340
v -0.35644210 -0.19362195 0.54088340
v -0.35907780 -0.19269119 0.54088340
v -0.36115670 -0.19082263 0.54088340
v -0.36236225 -0.18830076 0.54088340
v -0.35365084 -0.19347322 0.54088340
v -0.36251097 -0.18550948 0.54088340
v -0.35112897 -0.19226764 0.54088340
v -0.34926039 -0.19018876 0.54088340
v -0.36158023 -0.18287379 0.54088340
v -0.35971166 -0.18079490 0.54088340
v -0.34832965 -0.18755306 0.54088340
v -0.35718978 -0.17958933 0.54088340
v -0.34847836 -0.18476179 0.54088340
v -0.35439852 -0.17944059 0.54088340
v -0.34968392 -0.18223991 0.54088340
v -0.35176282 -0.18037135 0.54088340
v -0.36458187 -0.20733081 0.54088340
v -0.36721757 -0.20640005 0.54088340
v -0.36929647 -0.20453149 0.54088340
v -0.37050203 -0.20200961 0.54088340
v -0.36179061 -0.20718208 0.54088340
v -0.37065075 -0.19921834 0.54088340
v -0.35926874 -0.20597650 0.54088340
v -0.35740017 -0.20389762 0.54088340
v -0.36972001 -0.19658264 0.54088340
v -0.36785143 -0.19450376 0.54088340
v -0.35646942 -0.20126192 0.54088340
v -0.36532955 -0.19329819 0.54088340
v -0.35661814 -0.19847065 0.54088340
v -0.36253830 -0.19314945 0.54088340
v -0.35782370 -0.19594877 0.54088340
v -0.35990260 -0.19408021 0.54088340
v -0.37292569 -0.22138348 0.54088340
v -0.37556139 -0.22045271 0.54088340
v -0.37764029 -0.21858415 0.54088340
v -0.37884585 -0.21606228 0.54088340
v -0.37013443 -0.22123474 0.54088340
v -0.37899456 -0.21327101 0.54088340
v -0.36761255 -0.22002917 0.54088340
v -0.36574398 -0.21795028 0.54088340
v -0.37806382 -0.21063531 0.54088340
v -0.37619524 -0.20855642 0.54088340
v -0.36481324 -0.21531458 0.54088340
v -0.37367337 -0.20735085 0.54088340
v -0.36496196 -0.21252331 0.54088340
v -0.37088211 -0.20720212 0.54088340
v -0.36616751 -0.21000144 0.54088340
v -0.36824641 -0.20813287 0.54088340
v -0.38110876 -0.23516526 0.54088340
v -0.38374446 -0.23423450 0.54088340
v -0.38582336 -0.23236593 0.54088340
v -0.38702892 -0.22984406 0.54088340
v -0.37831750 -0.23501652 0.54088340
v -0.38717764 -0.22705279 0.54088340
v -0.37579563 -0.23381095 0.54088340
v -0.37392705 -0.23173206 0.54088340
v -0.38624689 -0.22441709 0.54088340
v -0.38437832 -0.22233820 0.54088340
v -0.37299631 -0.22909636 0.54088340
v -0.38185644 -0.22113263 0.54088340
v -0.37314503 -0.22630509 0.54088340
v -0.37906518 -0.22098389 0.54088340
v -0.37435059 -0.22378322 0.54088340
v -0.37642949 -0.22191465 0.54088340
v -0.43211374 -0.06972408 0.54411263
v -0.43481310 -0.06899827 0.54411263
v -0.43702922 -0.06729471 0.54411263
v -0.43842471 -0.06487275 0.54411263
v -0.42934210 -0.06936165 0.54411263
v -0.43878713 -0.06210113 0.54411263
v -0.42692017 -0.06796615 0.54411263
v -0.42521662 -0.06575003 0.54411263
v -0.43806131 -0.05940178 0.54411263
v -0.43635776 -0.05718567 0.54411263
v -0.42449080 -0.06305069 0.54411263
v -0.43393583 -0.05579017 0.54411263
v -0.42485322 -0.06027906 0.54411263
v -0.43116419 -0.05542774 0.54411263
v -0.42624871 -0.05785711 0.54411263
v -0.42846483 -0.05615355 0.54411263
v -0.21376260 -0.23395257 0.54088340
v -0.21574084 -0.23592736 0.54088340
v -0.21832423 -0.23699480 0.54088340
v -0.22111944 -0.23699236 0.54088340
v -0.21269066 -0.23137105 0.54088340
v -0.22370096 -0.23592042 0.54088340
v -0.21268822 -0.22857584 0.54088340
v -0.21375565 -0.22599245 0.54088340
v -0.22567576 -0.23394217 0.54088340
v -0.22674319 -0.23135879 0.54088340
v -0.21573045 -0.22401421 0.54088340
v -0.22674075 -0.22856357 0.54088340
v -0.21831196 -0.22294227 0.54088340
v -0.22566881 -0.22598206 0.54088340
v -0.22110718 -0.22293983 0.54088340
v -0.22369056 -0.22400726 0.54088340
v -0.22265573 -0.22061796 0.54088340
v -0.22463397 -0.22259276 0.54088340
v -0.22721736 -0.22366019 0.54088340
v -0.23001257 -0.22365775 0.54088340
v -0.22158379 -0.21803645 0.54088340
v -0.23259409 -0.22258581 0.54088340
v -0.22158135 -0.21524123 0.54088340
v -0.22264878 -0.21265785 0.54088340
v -0.23456889 -0.22060757 0.54088340
v -0.23563632 -0.21802418 0.54088340
v -0.22462358 -0.21067960 0.54088340
v -0.23563388 -0.21522897 0.54088340
v -0.22720510 -0.20960766 0.54088340
v -0.23456194 -0.21264745 0.54088340
v -0.23000031 -0.20960523 0.54088340
v -0.23258369 -0.21067266 0.54088340
v -0.22421228 -0.01006178 0.54082250
v -0.22692624 -0.01073090 0.54082250
v -0.22968967 -0.01031050 0.54082250
v -0.23208186 -0.00886459 0.54082250
v -0.22196097 -0.00840500 0.54082250
v -0.23373864 -0.00661329 0.54082250
v -0.22051507 -0.00601281 0.54082250
v -0.22009467 -0.00324938 0.54082250
v -0.23440776 -0.00389933 0.54082250
v -0.23398736 -0.00113590 0.54082250
v -0.22076379 -0.00053543 0.54082250
v -0.23254145 0.00125629 0.54082250
v -0.22242057 0.00171588 0.54082250
v -0.23029015 0.00291307 0.54082250
v -0.22481276 0.00316179 0.54082250
v -0.22757619 0.00358219 0.54082250
v -0.21166277 -0.00131124 0.54088340
v -0.21437672 -0.00198036 0.54088340
v -0.21714015 -0.00155996 0.54088340
v -0.21953235 -0.00011405 0.54088340
v -0.20941146 0.00034554 0.54088340
v -0.22118913 0.00213725 0.54088340
v -0.20796556 0.00273773 0.54088340
v -0.20754515 0.00550116 0.54088340
v -0.22185825 0.00485121 0.54088340
v -0.22143784 0.00761464 0.54088340
v -0.20821427 0.00821512 0.54088340
v -0.21999194 0.01000683 0.54088340
v -0.20987105 0.01046642 0.54088340
v -0.21774063 0.01166361 0.54088340
v -0.21226325 0.01191233 0.54088340
v -0.21502668 0.01233273 0.54088340
v -0.18363931 0.01829279 0.54088340
v -0.18635327 0.01762367 0.54088340
v -0.18911670 0.01804406 0.54088340
v -0.19150889 0.01948998 0.54088340
v -0.18138800 0.01994956 0.54088340
v -0.19316567 0.02174128 0.54088340
v -0.17994210 0.02234176 0.54088340
v -0.17952170 0.02510519 0.54088340
v -0.19383479 0.02445523 0.54088340
v -0.19341439 0.02721866 0.54088340
v -0.18019082 0.02781914 0.54088340
v -0.19196848 0.02961086 0.54088340
v -0.18184760 0.03007045 0.54088340
v -0.18971717 0.03126764 0.54088340
v -0.18423979 0.03151636 0.54088340
v -0.18700322 0.03193675 0.54088340
v -0.17125422 0.02643226 0.54088340
v -0.17396817 0.02576314 0.54088340
v -0.17673160 0.02618353 0.54088340
v -0.17912380 0.02762945 0.54088340
v -0.16900291 0.02808903 0.54088340
v -0.18078058 0.02988075 0.54088340
v -0.16755701 0.03048123 0.54088340
v -0.16713660 0.03324466 0.54088340
v -0.18144970 0.03259470 0.54088340
v -0.18102930 0.03535813 0.54088340
v -0.16780572 0.03595861 0.54088340
v -0.17958339 0.03775033 0.54088340
v -0.16946250 0.03820991 0.54088340
v -0.17733208 0.03940710 0.54088340
v -0.17185470 0.03965583 0.54088340
v -0.17461813 0.04007623 0.54088340
v -0.19822989 0.00858252 0.54088340
v -0.20094384 0.00791340 0.54088340
v -0.20370727 0.00833380 0.54088340
v -0.20609946 0.00977971 0.54088340
v -0.19597858 0.01023930 0.54088340
v -0.20775624 0.01203101 0.54088340
v -0.19453267 0.01263149 0.54088340
v -0.19411227 0.01539492 0.54088340
v -0.20842537 0.01474497 0.54088340
v -0.20800496 0.01750840 0.54088340
v -0.19478139 0.01810888 0.54088340
v -0.20655906 0.01990059 0.54088340
v -0.19643817 0.02036018 0.54088340
v -0.20430775 0.02155737 0.54088340
v -0.19883036 0.02180609 0.54088340
v -0.20159380 0.02222649 0.54088340
v -0.24056961 -0.19375716 0.54088340
v -0.24254786 -0.19573196 0.54088340
v -0.24513124 -0.19679939 0.54088340
v -0.24792646 -0.19679695 0.54088340
v -0.23949767 -0.19117565 0.54088340
v -0.25050797 -0.19572502 0.54088340
v -0.23949524 -0.18838043 0.54088340
v -0.24056267 -0.18579705 0.54088340
v -0.25248277 -0.19374677 0.54088340
v -0.25355020 -0.19116339 0.54088340
v -0.24253746 -0.18381880 0.54088340
v -0.25354776 -0.18836817 0.54088340
v -0.24511898 -0.18274687 0.54088340
v -0.25247582 -0.18578666 0.54088340
v -0.24791419 -0.18274443 0.54088340
v -0.25049758 -0.18381186 0.54088340
v -0.41561353 -0.07254033 0.54411263
v -0.41836412 -0.07204294 0.54411263
v -0.42071502 -0.07053079 0.54411263
v -0.42230829 -0.06823411 0.54411263
v -0.41288194 -0.07194724 0.54411263
v -0.42290136 -0.06550253 0.54411263
v -0.41058527 -0.07035398 0.54411263
v -0.40907310 -0.06800309 0.54411263
v -0.42240399 -0.06275191 0.54411263
v -0.42089182 -0.06040102 0.54411263
v -0.40857573 -0.06525247 0.54411263
v -0.41859515 -0.05880775 0.54411263
v -0.40916880 -0.06252089 0.54411263
v -0.41586356 -0.05821467 0.54411263
v -0.41076207 -0.06022420 0.54411263
v -0.41311297 -0.05871206 0.54411263
v 0.01480005 -0.16123662 0.76387295
v 0.01480005 -0.16123662 0.76979988
v 0.02049903 -0.16123662 0.76387295
v 0.02049903 -0.16123662 0.76979988
v 0.01940918 -0.16123662 0.76500642
v 0.01940918 -0.16123662 0.76866648
v 0.02069682 -0.16108827 0.75959170
v 0.01499784 -0.16108827 0.75959170
v 0.01499784 -0.16108827 0.75366476
v 0.02069682 -0.16108827 0.75366476
v 0.02049903 -0.16108827 0.74877924
v 0.01480005 -0.16108827 0.74877924
v 0.01480005 -0.16108827 0.74285224
v 0.02049903 -0.16108827 0.74285224
v 0.02049903 -0.16108827 0.73268263
v 0.02049903 -0.16108827 0.73860957
v 0.01480005 -0.16108827 0.73860957
v 0.01480005 -0.16108827 0.73268263
v 0.01588989 -0.16123662 0.76500642
v 0.01588989 -0.16123662 0.76866648
v 0.01968349 -0.16108827 0.75853784
v 0.01601117 -0.16108827 0.75853784
v 0.01968349 -0.16108827 0.75471862
v 0.01601117 -0.16108827 0.75471862
v 0.01558866 -0.16108827 0.74795904
v 0.01971042 -0.16108827 0.74795904
v 0.01971042 -0.16108827 0.74367245
v 0.01558866 -0.16108827 0.74367245
v 0.01566392 -0.16108827 0.73358103
v 0.01963515 -0.16108827 0.73358103
v 0.01566392 -0.16108827 0.73771111
v 0.01963515 -0.16108827 0.73771111
v -0.00297945 -0.14892864 0.52814138
v -0.00518191 -0.14711630 0.52814138
v -0.00652316 -0.14459907 0.52814138
v -0.00679902 -0.14176017 0.52814138
v -0.00025108 -0.14976018 0.52814138
v -0.00596748 -0.13903180 0.52814138
v 0.00258781 -0.14948433 0.52814138
v 0.00510505 -0.14814308 0.52814138
v -0.00415514 -0.13682934 0.52814138
v -0.00163790 -0.13548809 0.52814138
v 0.00691739 -0.14594062 0.52814138
v 0.00120099 -0.13521223 0.52814138
v 0.00774893 -0.14321225 0.52814138
v 0.00392936 -0.13604377 0.52814138
v 0.00747308 -0.14037335 0.52814138
v 0.00613182 -0.13785612 0.52814138
v -0.02708539 -0.13984693 0.52913839
v -0.02928785 -0.13803459 0.52913839
v -0.03062910 -0.13551736 0.52913839
v -0.03090496 -0.13267845 0.52913839
v -0.02435702 -0.14067847 0.52913839
v -0.03007342 -0.12995009 0.52913839
v -0.02151812 -0.14040262 0.52913839
v -0.01900089 -0.13906136 0.52913839
v -0.02826107 -0.12774762 0.52913839
v -0.02574384 -0.12640637 0.52913839
v -0.01718855 -0.13685890 0.52913839
v -0.02290494 -0.12613052 0.52913839
v -0.01635701 -0.13413054 0.52913839
v -0.02017658 -0.12696206 0.52913839
v -0.01663286 -0.13129163 0.52913839
v -0.01797412 -0.12877440 0.52913839
f 1 2 3
f 5 1 4
f 7 5 6
f 8 6 9
f 11 8 10
f 13 11 12
f 15 13 14
f 17 18 19
f 21 17 20
f 23 21 22
f 24 22 25
f 27 24 26
f 29 27 28
f 31 29 30
f 33 34 35
f 37 33 36
f 39 37 38
f 40 38 41
f 43 40 42
f 45 43 44
f 47 45 46
f 49 50 51
f 53 49 52
f 55 53 54
f 56 54 57
f 59 56 58
f 61 59 60
f 63 61 62
f 65 66 67
f 69 65 68
f 71 69 70
f 72 70 73
f 75 72 74
f 77 75 76
f 79 77 78
f 81 82 83
f 85 81 84
f 87 85 86
f 88 86 89
f 91 88 90
f 93 91 92
f 95 93 94
f 97 98 99
f 101 97 100
f 103 101 102
f 104 102 105
f 107 104 106
f 109 107 108
f 111 109 110
f 113 114 115
f 117 113 116
f 119 117 118
f 120 118 121
f 123 120 122
f 125 123 124
f 127 125 126
f 129 130 131
f 133 129 132
f 135 133 134
f 136 134 137
f 139 136 138
f 141 139 140
f 143 141 142
f 145 146 147
f 149 145 148
f 151 149 150
f 152 150 153
f 155 152 154
f 157 155 156
f 159 157 158
f 161 162 163
f 165 161 164
f 167 165 166
f 168 166 169
f 171 168 170
f 173 171 172
f 175 173 174
f 177 178 179
f 181 177 180
f 183 181 182
f 184 182 185
f 187 184 186
f 189 187 188
f 191 189 190
f 193 194 195
f 197 193 196
f 199 197 198
f 200 198 201
f 203 200 202
f 205 203 204
f 207 205 206
f 209 210 211
f 213 209 212
f 215 213 214
f 216 214 217
f 219 216 218
f 221 219 220
f 223 221 222
f 225 226 227
f 229 225 228
f 231 229 230
f 232 230 233
f 235 232 234
f 237 235 236
f 239 237 238
f 241 242 243
f 245 241 244
f 247 245 246
f 248 246 249
f 251 248 250
f 253 251 252
f 255 253 254
f 257 258 259
f 261 257 260
f 263 261 262
f 264 262 265
f 267 264 266
f 269 267 268
f 271 269 270
f 273 274 275
f 277 273 276
f 279 277 278
f 280 278 281
f 283 280 282
f 285 283 284
f 287 285 286
f 289 290 291
f 293 289 292
f 295 293 294
f 296 294 297
f 299 296 298
f 301 299 300
f 303 301 302
f 305 306 307
f 309 305 308
f 311 309 310
f 312 310 313
f 315 312 314
f 317 315 316
f 319 317 318
f 321 322 323
f 325 321 324
f 327 325 326
f 328 326 329
f 331 328 330
f 333 331 332
f 335 333 334
f 337 338 339
f 341 337 340
f 343 341 342
f 344 342 345
f 347 344 346
f 349 347 348
f 351 349 350
f 353 354 355
f 357 353 356
f 359 357 358
f 360 358 361
f 363 360 362
f 365 363 364
f 367 365 366
f 369 370 371
f 373 369 372
f 375 373 374
f 376 374 377
f 379 376 378
f 381 379 380
f 383 381 382
f 385 386 387
f 389 385 388
f 391 389 390
f 392 390 393
f 395 392 394
f 397 395 396
f 399 397 398
f 401 402 403
f 405 401 404
f 407 405 406
f 408 406 409
f 411 408 410
f 413 411 412
f 415 413 414
f 417 418 419
f 421 417 420
f 423 421 422
f 424 422 425
f 427 424 426
f 429 427 428
f 431 429 430
f 433 434 435
f 437 433 436
f 439 437 438
f 440 438 441
f 443 440 442
f 445 443 444
f 447 445 446
f 449 450 451
f 453 449 452
f 455 453 454
f 456 454 457
f 459 456 458
f 461 459 460
f 463 461 462
f 465 466 467
f 469 465 468
f 471 469 470
f 472 470 473
f 475 472 474
f 477 475 476
f 479 477 478
f 481 482 483
f 485 481 484
f 487 485 486
f 488 486 489
f 491 488 490
f 493 491 492
f 495 493 494
f 497 498 499
f 501 497 500
f 503 501 502
f 504 502 505
f 507 504 506
f 509 507 508
f 511 509 510
f 513 514 515
f 517 513 516
f 519 517 518
f 520 518 521
f 523 520 522
f 525 523 524
f 527 525 526
f 529 530 531
f 533 529 532
f 535 533 534
f 536 534 537
f 539 536 538
f 541 539 540
f 543 541 542
f 545 546 547
f 549 545 548
f 551 549 550
f 552 550 553
f 555 552 554
f 557 555 556
f 559 557 558
f 561 562 563
f 565 561 564
f 567 565 566
f 568 566 569
f 571 568 570
f 573 571 572
f 575 573 574
f 577 578 579
f 581 577 580
f 583 581 582
f 584 582 585
f 587 584 586
f 589 587 588
f 591 589 590
f 593 594 595
f 597 593 596
f 599 597 598
f 600 598 601
f 603 600 602
f 605 603 604
f 607 605 606
f 609 610 611
f 613 609 612
f 615 613 614
f 616 614 617
f 619 616 618
f 621 619 620
f 623 621 622
f 625 626 627
f 629 625 628
f 631 629 630
f 632 630 633
f 635 632 634
f 637 635 636
f 639 637 638
f 641 642 643
f 645 641 644
f 647 645 646
f 648 646 649
f 651 648 650
f 653 651 652
f 655 653 654
f 657 658 659
f 661 657 660
f 663 661 662
f 664 662 665
f 667 664 666
f 669 667 668
f 671 669 670
f 673 674 675
f 677 673 676
f 679 677 678
f 680 678 681
f 683 680 682
f 685 683 684
f 687 685 686
f 689 690 691
f 693 689 692
f 695 693 694
f 696 694 697
f 699 696 698
f 701 699 700
f 703 701 702
f 705 706 707
f 709 705 708
f 711 709 710
f 712 710 713
f 715 712 714
f 717 715 716
f 719 717 718
f 721 722 723
f 725 721 724
f 727 725 726
f 728 726 729
f 731 728 730
f 733 731 732
f 735 733 734
f 737 738 739
f 741 737 740
f 743 741 742
f 744 742 745
f 747 744 746
f 749 747 748
f 751 749 750
f 753 754 755
f 757 753 756
f 759 757 758
f 760 758 761
f 763 760 762
f 765 763 764
f 767 765 766
f 769 770 771
f 773 769 772
f 775 773 774
f 776 774 777
f 779 776 778
f 781 779 780
f 783 781 782
f 785 786 787
f 789 785 788
f 791 789 790
f 792 790 793
f 795 792 794
f 797 795 796
f 799 797 798
f 801 802 803
f 805 801 804
f 807 805 806
f 808 806 809
f 811 808 810
f 813 811 812
f 815 813 814
f 817 818 819
f 821 817 820
f 823 821 822
f 824 822 825
f 827 824 826
f 829 827 828
f 831 829 830
f 833 834 835
f 837 833 836
f 839 837 838
f 840 838 841
f 843 840 842
f 845 843 844
f 847 845 846
f 849 850 851
f 853 849 852
f 855 853 854
f 856 854 857
f 859 856 858
f 861 859 860
f 863 861 862
f 865 866 867
f 869 865 868
f 871 869 870
f 872 870 873
f 875 872 874
f 877 875 876
f 879 877 878
f 881 882 883
f 885 881 884
f 887 885 886
f 888 886 889
f 891 888 890
f 893 891 892
f 895 893 894
f 897 898 899
f 901 897 900
f 903 901 902
f 904 902 905
f 907 904 906
f 909 907 908
f 911 909 910
f 913 914 915
f 917 913 916
f 919 917 918
f 920 918 921
f 923 920 922
f 925 923 924
f 927 925 926
f 929 930 931
f 933 929 932
f 935 933 934
f 936 934 937
f 939 936 938
f 941 939 940
f 943 941 942
f 945 946 947
f 949 945 948
f 951 949 950
f 952 950 953
f 955 952 954
f 957 955 956
f 959 957 958
f 966 963 964
f 980 966 962
f 979 962 961
f 965 961 963
f 981 970 967
f 982 981 968
f 984 968 969
f 983 969 970
f 986 974 971
f 985 986 972
f 988 972 973
f 987 973 974
f 992 975 976
f 991 992 977
f 989 977 978
f 990 978 975
f 993 994 995
f 997 993 996
f 999 997 998
f 1000 998 1001
f 1003 1000 1002
f 1005 1003 1004
f 1007 1005 1006
f 1009 1010 1011
f 1013 1009 1012
f 1015 1013 1014
f 1016 1014 1017
f 1019 1016 1018
f 1021 1019 1020
f 1023 1021 1022
f 3 4 1
f 4 6 5
f 6 8 7
f 9 10 8
f 10 12 11
f 12 14 13
f 14 16 15
f 19 20 17
f 20 22 21
f 22 24 23
f 25 26 24
f 26 28 27
f 28 30 29
f 30 32 31
f 35 36 33
f 36 38 37
f 38 40 39
f 41 42 40
f 42 44 43
f 44 46 45
f 46 48 47
f 51 52 49
f 52 54 53
f 54 56 55
f 57 58 56
f 58 60 59
f 60 62 61
f 62 64 63
f 67 68 65
f 68 70 69
f 70 72 71
f 73 74 72
f 74 76 75
f 76 78 77
f 78 80 79
f 83 84 81
f 84 86 85
f 86 88 87
f 89 90 88
f 90 92 91
f 92 94 93
f 94 96 95
f 99 100 97
f 100 102 101
f 102 104 103
f 105 106 104
f 106 108 107
f 108 110 109
f 110 112 111
f 115 116 113
f 116 118 117
f 118 120 119
f 121 122 120
f 122 124 123
f 124 126 125
f 126 128 127
f 131 132 129
f 132 134 133
f 134 136 135
f 137 138 136
f 138 140 139
f 140 142 141
f 142 144 143
f 147 148 145
f 148 150 149
f 150 152 151
f 153 154 152
f 154 156 155
f 156 158 157
f 158 160 159
f 163 164 161
f 164 166 165
f 166 168 167
f 169 170 168
f 170 172 171
f 172 174 173
f 174 176 175
f 179 180 177
f 180 182 181
f 182 184 183
f 185 186 184
f 186 188 187
f 188 190 189
f 190 192 191
f 195 196 193
f 196 198 197
f 198 200 199
f 201 202 200
f 202 204 203
f 204 206 205
f 206 208 207
f 211 212 209
f 212 214 213
f 214 216 215
f 217 218 216
f 218 220 219
f 220 222 221
f 222 224 223
f 227 228 225
f 228 230 229
f 230 232 231
f 233 234 232
f 234 236 235
f 236 238 237
f 238 240 239
f 243 244 241
f 244 246 245
f 246 248 247
f 249 250 248
f 250 252 251
f 252 254 253
f 254 256 255
f 259 260 257
f 260 262 261
f 262 264 263
f 265 266 264
f 266 268 267
f 268 270 269
f 270 272 271
f 275 276 273
f 276 278 277
f 278 280 279
f 281 282 280
f 282 284 283
f 284 286 285
f 286 288 287
f 291 292 289
f 292 294 293
f 294 296 295
f 297 298 296
f 298 300 299
f 300 302 301
f 302 304 303
f 307 308 305
f 308 310 309
f 310 312 311
f 313 314 312
f 314 316 315
f 316 318 317
f 318 320 319
f 323 324 321
f 324 326 325
f 326 328 327
f 329 330 328
f 330 332 331
f 332 334 333
f 334 336 335
f 339 340 337
f 340 342 341
f 342 344 343
f 345 346 344
f 346 348 347
f 348 350 349
f 350 352 351
f 355 356 353
f 356 358 357
f 358 360 359
f 361 362 360
f 362 364 363
f 364 366 365
f 366 368 367
f 371 372 369
f 372 374 373
f 374 376 375
f 377 378 376
f 378 380 379
f 380 382 381
f 382 384 383
f 387 388 385
f 388 390 389
f 390 392 391
f 393 394 392
f 394 396 395
f 396 398 397
f 398 400 399
f 403 404 401
f 404 406 405
f 406 408 407
f 409 410 408
f 410 412 411
f 412 414 413
f 414 416 415
f 419 420 417
f 420 422 421
f 422 424 423
f 425 426 424
f 426 428 427
f 428 430 429
f 430 432 431
f 435 436 433
f 436 438 437
f 438 440 439
f 441 442 440
f 442 444 443
f 444 446 445
f 446 448 447
f 451 452 449
f 452 454 453
f 454 456 455
f 457 458 456
f 458 460 459
f 460 462 461
f 462 464 463
f 467 468 465
f 468 470 469
f 470 472 471
f 473 474 472
f 474 476 475
f 476 478 477
f 478 480 479
f 483 484 481
f 484 486 485
f 486 488 487
f 489 490 488
f 490 492 491
f 492 494 493
f 494 496 495
f 499 500 497
f 500 502 501
f 502 504 503
f 505 506 504
f 506 508 507
f 508 510 509
f 510 512 511
f 515 516 513
f 516 518 517
f 518 520 519
f 521 522 520
f 522 524 523
f 524 526 525
f 526 528 527
f 531 532 529
f 532 534 533
f 534 536 535
f 537 538 536
f 538 540 539
f 540 542 541
f 542 544 543
f 547 548 545
f 548 550 549
f 550 552 551
f 553 554 552
f 554 556 555
f 556 558 557
f 558 560 559
f 563 564 561
f 564 566 565
f 566 568 567
f 569 570 568
f 570 572 571
f 572 574 573
f 574 576 575
f 579 580 577
f 580 582 581
f 582 584 583
f 585 586 584
f 586 588 587
f 588 590 589
f 590 592 591
f 595 596 593
f 596 598 597
f 598 600 599
f 601 602 600
f 602 604 603
f 604 606 605
f 606 608 607
f 611 612 609
f 612 614 613
f 614 616 615
f 617 618 616
f 618 620 619
f 620 622 621
f 622 624 623
f 627 628 625
f 628 630 629
f 630 632 631
f 633 634 632
f 634 636 635
f 636 638 637
f 638 640 639
f 643 644 641
f 644 646 645
f 646 648 647
f 649 650 648
f 650 652 651
f 652 654 653
f 654 656 655
f 659 660 657
f 660 662 661
f 662 664 663
f 665 666 664
f 666 668 667
f 668 670 669
f 670 672 671
f 675 676 673
f 676 678 677
f 678 680 679
f 681 682 680
f 682 684 683
f 684 686 685
f 686 688 687
f 691 692 689
f 692 694 693
f 694 696 695
f 697 698 696
f 698 700 699
f 700 702 701
f 702 704 703
f 707 708 705
f 708 710 709
f 710 712 711
f 713 714 712
f 714 716 715
f 716 718 717
f 718 720 719
f 723 724 721
f 724 726 725
f 726 728 727
f 729 730 728
f 730 732 731
f 732 734 733
f 734 736 735
f 739 740 737
f 740 742 741
f 742 744 743
f 745 746 744
f 746 748 747
f 748 750 749
f 750 752 751
f 755 756 753
f 756 758 757
f 758 760 759
f 761 762 760
f 762 764 763
f 764 766 765
f 766 768 767
f 771 772 769
f 772 774 773
f 774 776 775
f 777 778 776
f 778 780 779
f 780 782 781
f 782 784 783
f 787 788 785
f 788 790 789
f 790 792 791
f 793 794 792
f 794 796 795
f 796 798 797
f 798 800 799
f 803 804 801
f 804 806 805
f 806 808 807
f 809 810 808
f 810 812 811
f 812 814 813
f 814 816 815
f 819 820 817
f 820 822 821
f 822 824 823
f 825 826 824
f 826 828 827
f 828 830 829
f 830 832 831
f 835 836 833
f 836 838 837
f 838 840 839
f 841 842 840
f 842 844 843
f 844 846 845
f 846 848 847
f 851 852 849
f 852 854 853
f 854 856 855
f 857 858 856
f 858 860 859
f 860 862 861
f 862 864 863
f 867 868 865
f 868 870 869
f 870 872 871
f 873 874 872
f 874 876 875
f 876 878 877
f 878 880 879
f 883 884 881
f 884 886 885
f 886 888 887
f 889 890 888
f 890 892 891
f 892 894 893
f 894 896 895
f 899 900 897
f 900 902 901
f 902 904 903
f 905 906 904
f 906 908 907
f 908 910 909
f 910 912 911
f 915 916 913
f 916 918 917
f 918 920 919
f 921 922 920
f 922 924 923
f 924 926 925
f 926 928 927
f 931 932 929
f 932 934 933
f 934 936 935
f 937 938 936
f 938 940 939
f 940 942 941
f 942 944 943
f 947 948 945
f 948 950 949
f 950 952 951
f 953 954 952
f 954 956 955
f 956 958 957
f 958 960 959
f 964 962 966
f 962 979 980
f 961 965 979
f 963 966 965
f 967 968 981
f 968 984 982
f 969 983 984
f 970 981 983
f 971 972 986
f 972 988 985
f 973 987 988
f 974 986 987
f 976 977 992
f 977 989 991
f 978 990 989
f 975 992 990
f 995 996 993
f 996 998 997
f 998 1000 999
f 1001 1002 1000
f 1002 1004 1003
f 1004 1006 1005
f 1006 1008 1007
f 1011 1012 1009
f 1012 1014 1013
f 1014 1016 1015
f 1017 1018 1016
f 1018 1020 1019
f 1020 1022 1021
f 1022 1024 1023

