# https://github.com/mikedh/trimesh
v -0.20884700 -0.12551775 0.57720762
v -0.20884700 -0.12551775 0.57720762
v -0.20884700 -0.12551775 0.57720762
v -0.20135028 -0.12942029 0.57720762
v -0.20135028 -0.12942029 0.57720762
v -0.20135028 -0.12942029 0.57720762
v -0.20395783 -0.13442936 0.57720762
v -0.20395783 -0.13442936 0.57720762
v -0.20395783 -0.13442936 0.57720762
v -0.21145455 -0.13052682 0.57720762
v -0.21145455 -0.13052682 0.57720762
v -0.21145455 -0.13052682 0.57720762
v -0.20135028 -0.12942029 0.57751070
v -0.20135028 -0.12942029 0.57751070
v -0.20135028 -0.12942029 0.57751070
v -0.20884700 -0.12551775 0.57751070
v -0.20884700 -0.12551775 0.57751070
v -0.20884700 -0.12551775 0.57751070
v -0.21145455 -0.13052682 0.57751070
v -0.21145455 -0.13052682 0.57751070
v -0.21145455 -0.13052682 0.57751070
v -0.20395783 -0.13442936 0.57751070
v -0.20395783 -0.13442936 0.57751070
v -0.20395783 -0.13442936 0.57751070
f 1 4 8
f 13 18 19
f 2 11 21
f 20 10 7
f 9 5 15
f 3 17 14
f 8 12 1
f 19 22 13
f 21 16 2
f 7 23 20
f 15 24 9
f 14 6 3

