# https://github.com/mikedh/trimesh
v 0.03454552 -0.12020717 0.58943234
v 0.03454552 -0.12020717 0.58943234
v 0.03454552 -0.12020717 0.58943234
v 0.03454552 -0.12020717 0.58943234
v 0.03460223 -0.12049621 0.58943234
v 0.03460223 -0.12049621 0.58943234
v 0.03460223 -0.12049621 0.58943234
v 0.03460223 -0.12049621 0.58943234
v 0.03385719 -0.12049621 0.58930612
v 0.03385719 -0.12049621 0.58930612
v 0.03385719 -0.12049621 0.58930612
v 0.03385719 -0.12049621 0.58930612
v 0.03385719 -0.12049621 0.58930612
v 0.03385719 -0.12049621 0.58930612
v 0.03385719 -0.12049621 0.58930612
v 0.03385719 -0.12049621 0.58930612
v 0.03385719 -0.12049621 0.58930612
v 0.03385719 -0.12049621 0.58930612
v 0.03385719 -0.12049621 0.58930612
v 0.03385719 -0.12049621 0.58930612
v 0.03385719 -0.12049621 0.58930612
v 0.03385719 -0.12049621 0.58930612
v 0.03385719 -0.12049621 0.58930612
v 0.03385719 -0.12049621 0.58930612
v 0.03124681 -0.11939004 0.59347429
v 0.03182171 -0.11843270 0.59300967
v 0.03182171 -0.11843270 0.59300967
v 0.03182171 -0.11843270 0.59300967
v 0.03182171 -0.11843270 0.59300967
v 0.03119770 -0.11937944 0.59300967
v 0.03119770 -0.11937944 0.59300967
v 0.03119770 -0.11937944 0.59300967
v 0.03119770 -0.11937944 0.59300967
v 0.03124496 -0.11939929 0.59350962
v 0.03124496 -0.11939929 0.59350962
v 0.03185680 -0.11847711 0.59354298
v 0.03186205 -0.11847360 0.59356733
v 0.03186205 -0.11847360 0.59356733
v 0.03589268 -0.12255973 0.59300967
v 0.03589268 -0.12255973 0.59300967
v 0.03589268 -0.12255973 0.59300967
v 0.03589268 -0.12255973 0.59300967
v 0.03651668 -0.12161298 0.59300967
v 0.03651668 -0.12161298 0.59300967
v 0.03651668 -0.12161298 0.59300967
v 0.03651668 -0.12161298 0.59300967
v 0.03642606 -0.12157492 0.59396822
v 0.03642606 -0.12157492 0.59396822
v 0.03642606 -0.12157492 0.59396822
v 0.03642606 -0.12157492 0.59396822
v 0.03582332 -0.12248942 0.59396822
v 0.03582332 -0.12248942 0.59396822
v 0.03582332 -0.12248942 0.59396822
v 0.03582332 -0.12248942 0.59396822
v 0.03385719 -0.11767739 0.59205111
v 0.03385719 -0.11767739 0.59205111
v 0.03385719 -0.11767739 0.59205111
v 0.03385719 -0.11767739 0.59205111
v 0.03492126 -0.11789197 0.59205111
v 0.03492126 -0.11789197 0.59205111
v 0.03492126 -0.11789197 0.59205111
v 0.03492126 -0.11789197 0.59205111
v 0.03481120 -0.11816131 0.59115792
v 0.03481120 -0.11816131 0.59115792
v 0.03481120 -0.11816131 0.59115792
v 0.03481120 -0.11816131 0.59115792
v 0.03385719 -0.11796893 0.59115792
v 0.03385719 -0.11796893 0.59115792
v 0.03385719 -0.11796893 0.59115792
v 0.03385719 -0.11796893 0.59115792
v 0.03463614 -0.11858977 0.59039089
v 0.03463614 -0.11858977 0.59039089
v 0.03463614 -0.11858977 0.59039089
v 0.03463614 -0.11858977 0.59039089
v 0.03440799 -0.11914816 0.58980233
v 0.03440799 -0.11914816 0.58980233
v 0.03440799 -0.11914816 0.58980233
v 0.03440799 -0.11914816 0.58980233
v 0.03385719 -0.11903709 0.58980233
v 0.03385719 -0.11903709 0.58980233
v 0.03385719 -0.11903709 0.58980233
v 0.03385719 -0.11903709 0.58980233
v 0.03385719 -0.11843270 0.59039089
v 0.03385719 -0.11843270 0.59039089
v 0.03385719 -0.11843270 0.59039089
v 0.03385719 -0.11843270 0.59039089
v 0.03573773 -0.11970654 0.59039089
v 0.03573773 -0.11970654 0.59039089
v 0.03573773 -0.11970654 0.59039089
v 0.03573773 -0.11970654 0.59039089
v 0.03518694 -0.11993783 0.58980233
v 0.03518694 -0.11993783 0.58980233
v 0.03518694 -0.11993783 0.58980233
v 0.03518694 -0.11993783 0.58980233
v 0.03487494 -0.11946445 0.58980233
v 0.03487494 -0.11946445 0.58980233
v 0.03487494 -0.11946445 0.58980233
v 0.03487494 -0.11946445 0.58980233
v 0.03529650 -0.11903709 0.59039089
v 0.03529650 -0.11903709 0.59039089
v 0.03529650 -0.11903709 0.59039089
v 0.03529650 -0.11903709 0.59039089
v 0.03283945 -0.12152797 0.58980233
v 0.03283945 -0.12152797 0.58980233
v 0.03283945 -0.12152797 0.58980233
v 0.03283945 -0.12152797 0.58980233
v 0.03241789 -0.12195534 0.59039089
v 0.03241789 -0.12195534 0.59039089
v 0.03241789 -0.12195534 0.59039089
v 0.03241789 -0.12195534 0.59039089
v 0.03197665 -0.12128588 0.59039089
v 0.03197665 -0.12128588 0.59039089
v 0.03197665 -0.12128588 0.59039089
v 0.03197665 -0.12128588 0.59039089
v 0.03252745 -0.12105460 0.58980233
v 0.03252745 -0.12105460 0.58980233
v 0.03252745 -0.12105460 0.58980233
v 0.03252745 -0.12105460 0.58980233
v 0.03561997 -0.12228327 0.59115792
v 0.03561997 -0.12228327 0.59115792
v 0.03561997 -0.12228327 0.59115792
v 0.03561997 -0.12228327 0.59115792
v 0.03616038 -0.12146336 0.59115792
v 0.03616038 -0.12146336 0.59115792
v 0.03616038 -0.12146336 0.59115792
v 0.03616038 -0.12146336 0.59115792
v 0.03642606 -0.12157492 0.59205111
v 0.03642606 -0.12157492 0.59205111
v 0.03642606 -0.12157492 0.59205111
v 0.03642606 -0.12157492 0.59205111
v 0.03582332 -0.12248942 0.59205111
v 0.03582332 -0.12248942 0.59205111
v 0.03582332 -0.12248942 0.59205111
v 0.03582332 -0.12248942 0.59205111
v 0.03385719 -0.12331502 0.59396822
v 0.03385719 -0.12331502 0.59396822
v 0.03385719 -0.12331502 0.59396822
v 0.03385719 -0.12331502 0.59396822
v 0.03492126 -0.12310046 0.59396822
v 0.03492126 -0.12310046 0.59396822
v 0.03492126 -0.12310046 0.59396822
v 0.03492126 -0.12310046 0.59396822
v 0.03490866 -0.12306963 0.59407046
v 0.03490866 -0.12306963 0.59407046
v 0.03385719 -0.12327878 0.59407929
v 0.03385719 -0.12327878 0.59407929
v 0.03197665 -0.11970654 0.59039089
v 0.03197665 -0.11970654 0.59039089
v 0.03197665 -0.11970654 0.59039089
v 0.03197665 -0.11970654 0.59039089
v 0.03182171 -0.12049621 0.59039089
v 0.03182171 -0.12049621 0.59039089
v 0.03182171 -0.12049621 0.59039089
v 0.03182171 -0.12049621 0.59039089
v 0.03136424 -0.12049621 0.59115792
v 0.03136424 -0.12049621 0.59115792
v 0.03136424 -0.12049621 0.59115792
v 0.03136424 -0.12049621 0.59115792
v 0.03155401 -0.11952907 0.59115792
v 0.03155401 -0.11952907 0.59115792
v 0.03155401 -0.11952907 0.59115792
v 0.03155401 -0.11952907 0.59115792
v 0.03333037 -0.11996214 0.58943234
v 0.03333037 -0.11996214 0.58943234
v 0.03333037 -0.11996214 0.58943234
v 0.03333037 -0.11996214 0.58943234
v 0.03316887 -0.12020717 0.58943234
v 0.03316887 -0.12020717 0.58943234
v 0.03316887 -0.12020717 0.58943234
v 0.03316887 -0.12020717 0.58943234
v 0.03414231 -0.12119402 0.58943234
v 0.03414231 -0.12119402 0.58943234
v 0.03414231 -0.12119402 0.58943234
v 0.03414231 -0.12119402 0.58943234
v 0.03385719 -0.12125151 0.58943234
v 0.03385719 -0.12125151 0.58943234
v 0.03385719 -0.12125151 0.58943234
v 0.03385719 -0.12125151 0.58943234
v 0.03440799 -0.12184426 0.58980233
v 0.03440799 -0.12184426 0.58980233
v 0.03440799 -0.12184426 0.58980233
v 0.03440799 -0.12184426 0.58980233
v 0.03385719 -0.12195534 0.58980233
v 0.03385719 -0.12195534 0.58980233
v 0.03385719 -0.12195534 0.58980233
v 0.03385719 -0.12195534 0.58980233
v 0.03103260 -0.12046690 0.59348140
v 0.03097858 -0.12049621 0.59300967
v 0.03097858 -0.12049621 0.59300967
v 0.03097858 -0.12049621 0.59300967
v 0.03097858 -0.12049621 0.59300967
v 0.03103843 -0.12049621 0.59359461
v 0.03103843 -0.12049621 0.59359461
v 0.03107667 -0.12049621 0.59205111
v 0.03107667 -0.12049621 0.59205111
v 0.03107667 -0.12049621 0.59205111
v 0.03107667 -0.12049621 0.59205111
v 0.03414231 -0.11979840 0.58943234
v 0.03414231 -0.11979840 0.58943234
v 0.03414231 -0.11979840 0.58943234
v 0.03414231 -0.11979840 0.58943234
v 0.03385719 -0.11974091 0.58943234
v 0.03385719 -0.11974091 0.58943234
v 0.03385719 -0.11974091 0.58943234
v 0.03385719 -0.11974091 0.58943234
v 0.03385719 -0.12302349 0.59115792
v 0.03385719 -0.12302349 0.59115792
v 0.03385719 -0.12302349 0.59115792
v 0.03385719 -0.12302349 0.59115792
v 0.03385719 -0.12331502 0.59205111
v 0.03385719 -0.12331502 0.59205111
v 0.03385719 -0.12331502 0.59205111
v 0.03385719 -0.12331502 0.59205111
v 0.03279313 -0.12310046 0.59205111
v 0.03279313 -0.12310046 0.59205111
v 0.03279313 -0.12310046 0.59205111
v 0.03279313 -0.12310046 0.59205111
v 0.03290318 -0.12283111 0.59115792
v 0.03290318 -0.12283111 0.59115792
v 0.03290318 -0.12283111 0.59115792
v 0.03290318 -0.12283111 0.59115792
v 0.03573773 -0.12128588 0.59039089
v 0.03573773 -0.12128588 0.59039089
v 0.03573773 -0.12128588 0.59039089
v 0.03573773 -0.12128588 0.59039089
v 0.03529650 -0.12195534 0.59039089
v 0.03529650 -0.12195534 0.59039089
v 0.03529650 -0.12195534 0.59039089
v 0.03529650 -0.12195534 0.59039089
v 0.03487494 -0.12152797 0.58980233
v 0.03487494 -0.12152797 0.58980233
v 0.03487494 -0.12152797 0.58980233
v 0.03487494 -0.12152797 0.58980233
v 0.03518694 -0.12105460 0.58980233
v 0.03518694 -0.12105460 0.58980233
v 0.03518694 -0.12105460 0.58980233
v 0.03518694 -0.12105460 0.58980233
v 0.03307825 -0.12240265 0.59039089
v 0.03307825 -0.12240265 0.59039089
v 0.03307825 -0.12240265 0.59039089
v 0.03307825 -0.12240265 0.59039089
v 0.03209441 -0.12228327 0.59115792
v 0.03209441 -0.12228327 0.59115792
v 0.03209441 -0.12228327 0.59115792
v 0.03209441 -0.12228327 0.59115792
v 0.03385719 -0.12255973 0.59039089
v 0.03385719 -0.12255973 0.59039089
v 0.03385719 -0.12255973 0.59039089
v 0.03385719 -0.12255973 0.59039089
v 0.03438402 -0.11996214 0.58943234
v 0.03438402 -0.11996214 0.58943234
v 0.03438402 -0.11996214 0.58943234
v 0.03438402 -0.11996214 0.58943234
v 0.03330639 -0.11914816 0.58980233
v 0.03330639 -0.11914816 0.58980233
v 0.03330639 -0.11914816 0.58980233
v 0.03330639 -0.11914816 0.58980233
v 0.03283945 -0.11946445 0.58980233
v 0.03283945 -0.11946445 0.58980233
v 0.03283945 -0.11946445 0.58980233
v 0.03283945 -0.11946445 0.58980233
v 0.03241789 -0.11903709 0.59039089
v 0.03241789 -0.11903709 0.59039089
v 0.03241789 -0.11903709 0.59039089
v 0.03241789 -0.11903709 0.59039089
v 0.03307825 -0.11858977 0.59039089
v 0.03307825 -0.11858977 0.59039089
v 0.03307825 -0.11858977 0.59039089
v 0.03307825 -0.11858977 0.59039089
v 0.03463614 -0.12240265 0.59039089
v 0.03463614 -0.12240265 0.59039089
v 0.03463614 -0.12240265 0.59039089
v 0.03463614 -0.12240265 0.59039089
v 0.03311215 -0.12049621 0.58943234
v 0.03311215 -0.12049621 0.58943234
v 0.03311215 -0.12049621 0.58943234
v 0.03311215 -0.12049621 0.58943234
v 0.03492126 -0.12310046 0.59205111
v 0.03492126 -0.12310046 0.59205111
v 0.03492126 -0.12310046 0.59205111
v 0.03492126 -0.12310046 0.59205111
v 0.03495879 -0.12319232 0.59300967
v 0.03495879 -0.12319232 0.59300967
v 0.03495879 -0.12319232 0.59300967
v 0.03495879 -0.12319232 0.59300967
v 0.03385719 -0.12341446 0.59300967
v 0.03385719 -0.12341446 0.59300967
v 0.03385719 -0.12341446 0.59300967
v 0.03385719 -0.12341446 0.59300967
v 0.03241789 -0.12049621 0.58980233
v 0.03241789 -0.12049621 0.58980233
v 0.03241789 -0.12049621 0.58980233
v 0.03241789 -0.12049621 0.58980233
v 0.03495879 -0.11780010 0.59300967
v 0.03495879 -0.11780010 0.59300967
v 0.03495879 -0.11780010 0.59300967
v 0.03495879 -0.11780010 0.59300967
v 0.03589268 -0.11843270 0.59300967
v 0.03589268 -0.11843270 0.59300967
v 0.03589268 -0.11843270 0.59300967
v 0.03589268 -0.11843270 0.59300967
v 0.03582332 -0.11850301 0.59205111
v 0.03582332 -0.11850301 0.59205111
v 0.03582332 -0.11850301 0.59205111
v 0.03582332 -0.11850301 0.59205111
v 0.03561997 -0.11870916 0.59115792
v 0.03561997 -0.11870916 0.59115792
v 0.03561997 -0.11870916 0.59115792
v 0.03561997 -0.11870916 0.59115792
v 0.03663772 -0.12049621 0.59205111
v 0.03663772 -0.12049621 0.59205111
v 0.03663772 -0.12049621 0.59205111
v 0.03663772 -0.12049621 0.59205111
v 0.03642606 -0.11941750 0.59205111
v 0.03642606 -0.11941750 0.59205111
v 0.03642606 -0.11941750 0.59205111
v 0.03642606 -0.11941750 0.59205111
v 0.03651668 -0.11937944 0.59300967
v 0.03651668 -0.11937944 0.59300967
v 0.03651668 -0.11937944 0.59300967
v 0.03651668 -0.11937944 0.59300967
v 0.03673581 -0.12049621 0.59300967
v 0.03673581 -0.12049621 0.59300967
v 0.03673581 -0.12049621 0.59300967
v 0.03673581 -0.12049621 0.59300967
v 0.03252745 -0.11993783 0.58980233
v 0.03252745 -0.11993783 0.58980233
v 0.03252745 -0.11993783 0.58980233
v 0.03252745 -0.11993783 0.58980233
v 0.03316887 -0.12078525 0.58943234
v 0.03316887 -0.12078525 0.58943234
v 0.03316887 -0.12078525 0.58943234
v 0.03316887 -0.12078525 0.58943234
v 0.03583638 -0.11847711 0.59368428
v 0.03584142 -0.11848466 0.59371807
v 0.03584142 -0.11848466 0.59371807
v 0.03492970 -0.11787129 0.59375248
v 0.03492970 -0.11787129 0.59375248
v 0.03155401 -0.12146336 0.59115792
v 0.03155401 -0.12146336 0.59115792
v 0.03155401 -0.12146336 0.59115792
v 0.03155401 -0.12146336 0.59115792
v 0.03128832 -0.12157492 0.59205111
v 0.03128832 -0.12157492 0.59205111
v 0.03128832 -0.12157492 0.59205111
v 0.03128832 -0.12157492 0.59205111
v 0.03635014 -0.12049621 0.59115792
v 0.03635014 -0.12049621 0.59115792
v 0.03635014 -0.12049621 0.59115792
v 0.03635014 -0.12049621 0.59115792
v 0.03616038 -0.11952906 0.59115792
v 0.03616038 -0.11952906 0.59115792
v 0.03616038 -0.11952906 0.59115792
v 0.03616038 -0.11952906 0.59115792
v 0.03189106 -0.12248942 0.59205111
v 0.03189106 -0.12248942 0.59205111
v 0.03189106 -0.12248942 0.59205111
v 0.03189106 -0.12248942 0.59205111
v 0.03185680 -0.12245669 0.59386305
v 0.03119770 -0.12161298 0.59300967
v 0.03119770 -0.12161298 0.59300967
v 0.03119770 -0.12161298 0.59300967
v 0.03119770 -0.12161298 0.59300967
v 0.03182171 -0.12255973 0.59300967
v 0.03182171 -0.12255973 0.59300967
v 0.03182171 -0.12255973 0.59300967
v 0.03182171 -0.12255973 0.59300967
v 0.03189106 -0.12248942 0.59396822
v 0.03189106 -0.12248942 0.59396822
v 0.03189106 -0.12248942 0.59396822
v 0.03189106 -0.12248942 0.59396822
v 0.03187949 -0.12247185 0.59396822
v 0.03187949 -0.12247185 0.59396822
v 0.03127216 -0.12158171 0.59379724
v 0.03127216 -0.12158171 0.59379724
v 0.03189106 -0.11850301 0.59205111
v 0.03189106 -0.11850301 0.59205111
v 0.03189106 -0.11850301 0.59205111
v 0.03189106 -0.11850301 0.59205111
v 0.03128832 -0.11941750 0.59205111
v 0.03128832 -0.11941750 0.59205111
v 0.03128832 -0.11941750 0.59205111
v 0.03128832 -0.11941750 0.59205111
v 0.03357208 -0.11979840 0.58943234
v 0.03357208 -0.11979840 0.58943234
v 0.03357208 -0.11979840 0.58943234
v 0.03357208 -0.11979840 0.58943234
v 0.03385719 -0.11757796 0.59300967
v 0.03385719 -0.11757796 0.59300967
v 0.03385719 -0.11757796 0.59300967
v 0.03385719 -0.11757796 0.59300967
v 0.03438402 -0.12103029 0.58943234
v 0.03438402 -0.12103029 0.58943234
v 0.03438402 -0.12103029 0.58943234
v 0.03438402 -0.12103029 0.58943234
v 0.03209441 -0.11870916 0.59115792
v 0.03209441 -0.11870916 0.59115792
v 0.03209441 -0.11870916 0.59115792
v 0.03209441 -0.11870916 0.59115792
v 0.03529650 -0.12049621 0.58980233
v 0.03529650 -0.12049621 0.58980233
v 0.03529650 -0.12049621 0.58980233
v 0.03529650 -0.12049621 0.58980233
v 0.03357208 -0.12119402 0.58943234
v 0.03357208 -0.12119402 0.58943234
v 0.03357208 -0.12119402 0.58943234
v 0.03357208 -0.12119402 0.58943234
v 0.03279313 -0.11789197 0.59205111
v 0.03279313 -0.11789197 0.59205111
v 0.03279313 -0.11789197 0.59205111
v 0.03279313 -0.11789197 0.59205111
v 0.03275559 -0.11780010 0.59300967
v 0.03275559 -0.11780010 0.59300967
v 0.03275559 -0.11780010 0.59300967
v 0.03275559 -0.11780010 0.59300967
v 0.03279313 -0.12310046 0.59396822
v 0.03279313 -0.12310046 0.59396822
v 0.03279313 -0.12310046 0.59396822
v 0.03279313 -0.12310046 0.59396822
v 0.03280413 -0.12307353 0.59405752
v 0.03280413 -0.12307353 0.59405752
v 0.03276972 -0.12306669 0.59401478
v 0.03189691 -0.12248349 0.59399392
v 0.03189691 -0.12248349 0.59399392
v 0.03589268 -0.12049621 0.59039089
v 0.03589268 -0.12049621 0.59039089
v 0.03589268 -0.12049621 0.59039089
v 0.03589268 -0.12049621 0.59039089
v 0.03333037 -0.12103029 0.58943234
v 0.03333037 -0.12103029 0.58943234
v 0.03333037 -0.12103029 0.58943234
v 0.03333037 -0.12103029 0.58943234
v 0.03330639 -0.12184426 0.58980233
v 0.03330639 -0.12184426 0.58980233
v 0.03330639 -0.12184426 0.58980233
v 0.03330639 -0.12184426 0.58980233
v 0.03275560 -0.12319232 0.59300967
v 0.03275560 -0.12319232 0.59300967
v 0.03275560 -0.12319232 0.59300967
v 0.03275560 -0.12319232 0.59300967
v 0.03580906 -0.12247495 0.59403090
v 0.03580906 -0.12247495 0.59403090
v 0.03492346 -0.12306669 0.59405206
v 0.03492346 -0.11786711 0.59372438
v 0.03385719 -0.11765502 0.59375253
v 0.03385719 -0.11765502 0.59375253
v 0.03290318 -0.11816131 0.59115792
v 0.03290318 -0.11816131 0.59115792
v 0.03290318 -0.11816131 0.59115792
v 0.03290318 -0.11816131 0.59115792
v 0.03642567 -0.12157476 0.59396957
v 0.03642567 -0.12157476 0.59396957
v 0.03642627 -0.12157385 0.59396822
v 0.03642627 -0.12157385 0.59396822
v 0.03384659 -0.11765291 0.59371157
v 0.03278198 -0.11786468 0.59368348
v 0.03278198 -0.11786468 0.59368348
v 0.03644638 -0.11939004 0.59365000
v 0.03644985 -0.11940751 0.59371660
v 0.03644985 -0.11940751 0.59371660
v 0.03454552 -0.12078525 0.58943234
v 0.03454552 -0.12078525 0.58943234
v 0.03454552 -0.12078525 0.58943234
v 0.03454552 -0.12078525 0.58943234
v 0.03666058 -0.12046690 0.59368863
v 0.03665475 -0.12049621 0.59380178
v 0.03665475 -0.12049621 0.59380178
v 0.03644638 -0.12154377 0.59382944
v 0.03644604 -0.12154428 0.59383183
v 0.03481120 -0.12283111 0.59115792
v 0.03481120 -0.12283111 0.59115792
v 0.03481120 -0.12283111 0.59115792
v 0.03481120 -0.12283111 0.59115792
v 0.03124681 -0.12154377 0.59362228
v 0.03384659 -0.12328088 0.59406629
v 0.03583638 -0.12245669 0.59399061
v 0.03276972 -0.11786711 0.59363558
f 1 6 14
f 25 28 30
f 30 34 25
f 28 25 36
f 36 37 28
f 39 43 47
f 47 51 39
f 55 59 63
f 63 67 55
f 71 75 79
f 79 83 71
f 87 91 95
f 95 99 87
f 103 107 111
f 111 115 103
f 119 123 127
f 127 132 119
f 136 140 144
f 144 146 136
f 148 152 156
f 156 160 148
f 163 15 167
f 16 171 175
f 179 183 176
f 176 174 179
f 187 32 188
f 188 193 187
f 35 32 187
f 31 197 191
f 76 201 204
f 204 80 76
f 209 211 217
f 217 220 209
f 225 227 233
f 233 236 225
f 108 241 218
f 218 243 108
f 249 206 219
f 219 238 249
f 252 2 17
f 257 259 265
f 265 268 257
f 226 273 182
f 182 230 226
f 170 18 275
f 281 284 289
f 289 210 281
f 92 4 250
f 250 96 92
f 116 112 151
f 151 291 116
f 297 300 305
f 305 60 297
f 61 302 307
f 307 64 61
f 313 316 320
f 320 322 313
f 131 128 44
f 44 40 131
f 258 329 147
f 147 262 258
f 314 304 298
f 298 318 314
f 11 332 274
f 334 335 299
f 299 294 334
f 334 294 337
f 330 117 290
f 290 276 330
f 155 342 346
f 346 194 155
f 154 113 340
f 340 158 154
f 270 246 184
f 184 180 270
f 350 352 315
f 315 310 350
f 341 242 357
f 357 344 341
f 359 360 367
f 367 368 359
f 359 368 373
f 360 359 375
f 376 382 33
f 33 26 376
f 202 24 384
f 388 296 62
f 62 56 388
f 9 392 172
f 203 387 254
f 254 81 203
f 385 166 260
f 260 256 385
f 398 159 381
f 381 379 398
f 205 198 10
f 403 5 3
f 3 93 403
f 65 306 100
f 100 72 65
f 13 177 407
f 391 57 411
f 411 413 391
f 419 420 422
f 422 371 419
f 371 422 423
f 428 222 234
f 234 400 428
f 200 251 12
f 430 104 118
f 118 331 430
f 97 253 199
f 199 77 97
f 404 435 105
f 105 429 404
f 356 214 440
f 440 365 356
f 244 221 216
f 216 355 244
f 130 312 323
f 323 45 130
f 21 406 431
f 415 408 377
f 377 29 415
f 139 52 442
f 442 443 139
f 139 443 143
f 433 240 109
f 109 106 433
f 23 432 333
f 444 338 295
f 295 389 444
f 444 389 445
f 161 157 196
f 196 383 161
f 58 68 447
f 447 410 58
f 185 248 239
f 239 436 185
f 425 402 94
f 94 88 425
f 345 358 366
f 366 363 345
f 452 48 454
f 114 110 245
f 245 339 114
f 455 446 390
f 390 412 455
f 455 412 456
f 321 301 336
f 336 458 321
f 460 321 458
f 31 380 197
f 134 41 282
f 282 278 134
f 124 348 311
f 311 129 124
f 401 235 461
f 461 8 401
f 324 319 459
f 459 465 324
f 466 324 465
f 448 266 264
f 264 397 448
f 69 66 73
f 73 84 69
f 178 186 434
f 434 405 178
f 212 286 438
f 438 215 212
f 89 101 308
f 308 353 89
f 46 325 467
f 467 468 46
f 49 46 468
f 468 469 49
f 49 469 453
f 288 135 417
f 417 437 288
f 120 133 280
f 280 471 120
f 272 472 208
f 208 247 272
f 473 279 213
f 213 207 473
f 195 343 361
f 361 190 195
f 354 309 303
f 303 317 354
f 474 189 362
f 362 374 474
f 189 474 192
f 138 145 475
f 475 416 138
f 416 475 421
f 7 463 20
f 224 427 349
f 349 125 224
f 19 462 395
f 237 232 393
f 393 464 237
f 426 90 351
f 351 347 426
f 228 223 126
f 126 121 228
f 287 283 142
f 142 137 287
f 53 50 451
f 451 476 53
f 53 476 441
f 477 457 414
f 414 38 477
f 38 414 27
f 229 122 470
f 470 271 229
f 82 255 267
f 267 85 82
f 231 181 173
f 173 394 231
f 285 42 54
f 54 141 285
f 386 22 164
f 292 153 150
f 150 326 292
f 439 418 369
f 369 364 439
f 277 293 328
f 328 168 277
f 409 450 396
f 396 378 409
f 70 86 269
f 269 449 70
f 102 98 78
f 78 74 102
f 165 169 327
f 327 261 165
f 424 372 370
f 263 149 162
f 162 399 263

