# https://github.com/mikedh/trimesh
v -0.44121075 -0.16519115 0.51753014
v -0.44359513 -0.16603688 0.51753014
v -0.44608867 -0.16560933 0.51753014
v -0.44802324 -0.16402310 0.51753014
v -0.43957442 -0.16329878 0.51753014
v -0.44888045 -0.16170318 0.51753014
v -0.43912459 -0.16086682 0.51753014
v -0.44843061 -0.15927121 0.51753014
v -0.43998180 -0.15854690 0.51753014
v -0.44679428 -0.15737884 0.51753014
v -0.44191636 -0.15696066 0.51753014
v -0.44440990 -0.15653311 0.51753014
v -0.44753344 -0.15634466 0.53886540
v -0.44765799 -0.15617038 0.53640767
v -0.44765799 -0.15617038 0.52354404
v -0.44765799 -0.15617038 0.52354404
v -0.44536687 -0.15535774 0.53298409
v -0.44536687 -0.15535774 0.53298409
v -0.44636811 -0.16618858 0.51879613
v -0.44354058 -0.16667339 0.51879613
v -0.44083681 -0.16571439 0.51879613
v -0.43898129 -0.16356852 0.51879613
v -0.44856182 -0.16438987 0.51879613
v -0.43847120 -0.16081079 0.51879613
v -0.44953384 -0.16175920 0.51879613
v -0.43944321 -0.15818012 0.51879613
v -0.44902377 -0.15900147 0.51879613
v -0.44117334 -0.15676153 0.51879613
v -0.44117334 -0.15676153 0.51879613
v -0.44716823 -0.15685562 0.51879613
v -0.44716823 -0.15685562 0.51879613
v -0.44163692 -0.15638141 0.51879613
v -0.44163692 -0.15638141 0.51879613
v -0.44446448 -0.15589660 0.51879613
v -0.44446448 -0.15589660 0.51879613
v -0.44453593 -0.15506301 0.53590251
v -0.44453593 -0.15506301 0.53640767
v -0.44453593 -0.15506301 0.52354404
v -0.44127094 -0.15562282 0.52354404
v -0.44127094 -0.15562282 0.52546759
v -0.44364741 -0.15521536 0.53640767
v -0.44451775 -0.15527502 0.52108631
v -0.44753344 -0.15634466 0.52108631
v -0.44136404 -0.15581576 0.52108631
v -0.44029518 -0.15642290 0.52354404
v -0.44082528 -0.15598825 0.53640767
v -0.44059247 -0.15644838 0.52108631
v -0.42902252 -0.15594402 0.51759104
v -0.43140690 -0.15678975 0.51759104
v -0.43390044 -0.15636222 0.51759104
v -0.43583500 -0.15477597 0.51759104
v -0.42738620 -0.15405165 0.51759104
v -0.43669222 -0.15245605 0.51759104
v -0.42693635 -0.15161968 0.51759104
v -0.43624238 -0.15002409 0.51759104
v -0.42779357 -0.14929976 0.51759104
v -0.43460605 -0.14813171 0.51759104
v -0.42972814 -0.14771353 0.51759104
v -0.43222168 -0.14728599 0.51759104
v -0.43534521 -0.14709753 0.53892629
v -0.43546977 -0.14692325 0.53646857
v -0.43546977 -0.14692325 0.52360493
v -0.43546977 -0.14692325 0.52360493
v -0.43317864 -0.14611061 0.53304499
v -0.43317864 -0.14611061 0.53304499
v -0.43417988 -0.15694146 0.51885704
v -0.43135235 -0.15742626 0.51885704
v -0.42864857 -0.15646726 0.51885704
v -0.42679306 -0.15432139 0.51885704
v -0.43637359 -0.15514274 0.51885704
v -0.42628296 -0.15156366 0.51885704
v -0.43734561 -0.15251207 0.51885704
v -0.42725499 -0.14893300 0.51885704
v -0.43683554 -0.14975434 0.51885704
v -0.42898511 -0.14751439 0.51885704
v -0.42898511 -0.14751439 0.51885704
v -0.43498000 -0.14760848 0.51885704
v -0.43498000 -0.14760848 0.51885704
v -0.42944869 -0.14713427 0.51885704
v -0.42944869 -0.14713427 0.51885704
v -0.43227626 -0.14664947 0.51885704
v -0.43227626 -0.14664947 0.51885704
v -0.43234771 -0.14581588 0.53596341
v -0.43234771 -0.14581588 0.53646857
v -0.43234771 -0.14581588 0.52360493
v -0.42908272 -0.14637569 0.52360493
v -0.42908272 -0.14637569 0.52552849
v -0.43145918 -0.14596823 0.53646857
v -0.43232952 -0.14602789 0.52114721
v -0.43534521 -0.14709753 0.52114721
v -0.42917581 -0.14656862 0.52114721
v -0.42810696 -0.14717577 0.52360493
v -0.42863704 -0.14674112 0.53646857
v -0.42840425 -0.14720126 0.52114721
v -0.40180841 -0.13523114 0.51759104
v -0.40419279 -0.13607687 0.51759104
v -0.40668633 -0.13564933 0.51759104
v -0.40862090 -0.13406308 0.51759104
v -0.40017209 -0.13333877 0.51759104
v -0.40947811 -0.13174317 0.51759104
v -0.39972224 -0.13090680 0.51759104
v -0.40902827 -0.12931120 0.51759104
v -0.40057946 -0.12858688 0.51759104
v -0.40739194 -0.12741882 0.51759104
v -0.40251403 -0.12700064 0.51759104
v -0.40500757 -0.12657310 0.51759104
v -0.40813110 -0.12638465 0.53892629
v -0.40825566 -0.12621037 0.53646857
v -0.40825566 -0.12621037 0.52360493
v -0.40825566 -0.12621037 0.52360493
v -0.40596453 -0.12539772 0.53304499
v -0.40596453 -0.12539772 0.53304499
v -0.40696577 -0.13622857 0.51885704
v -0.40413824 -0.13671338 0.51885704
v -0.40143446 -0.13575436 0.51885704
v -0.39957895 -0.13360851 0.51885704
v -0.40915948 -0.13442986 0.51885704
v -0.39906885 -0.13085078 0.51885704
v -0.41013150 -0.13179919 0.51885704
v -0.40004088 -0.12822011 0.51885704
v -0.40962143 -0.12904146 0.51885704
v -0.40177100 -0.12680151 0.51885704
v -0.40177100 -0.12680151 0.51885704
v -0.40776589 -0.12689560 0.51885704
v -0.40776589 -0.12689560 0.51885704
v -0.40223458 -0.12642139 0.51885704
v -0.40223458 -0.12642139 0.51885704
v -0.40506215 -0.12593658 0.51885704
v -0.40506215 -0.12593658 0.51885704
v -0.40513359 -0.12510300 0.53596341
v -0.40513359 -0.12510300 0.53646857
v -0.40513359 -0.12510300 0.52360493
v -0.40186861 -0.12566281 0.52360493
v -0.40186861 -0.12566281 0.52552849
v -0.40424507 -0.12525534 0.53646857
v -0.40511541 -0.12531501 0.52114721
v -0.40813110 -0.12638465 0.52114721
v -0.40196170 -0.12585574 0.52114721
v -0.40089285 -0.12646289 0.52360493
v -0.40142293 -0.12602824 0.53646857
v -0.40119014 -0.12648838 0.52114721
v -0.38975989 -0.12660123 0.51759104
v -0.39214427 -0.12744696 0.51759104
v -0.39463781 -0.12701942 0.51759104
v -0.39657237 -0.12543317 0.51759104
v -0.38812356 -0.12470886 0.51759104
v -0.39742959 -0.12311326 0.51759104
v -0.38767372 -0.12227689 0.51759104
v -0.39697974 -0.12068129 0.51759104
v -0.38853094 -0.11995697 0.51759104
v -0.39534342 -0.11878891 0.51759104
v -0.39046550 -0.11837073 0.51759104
v -0.39295904 -0.11794319 0.51759104
v -0.39608257 -0.11775474 0.53892629
v -0.39620713 -0.11758046 0.53646857
v -0.39620713 -0.11758046 0.52360493
v -0.39620713 -0.11758046 0.52360493
v -0.39391600 -0.11676781 0.53304499
v -0.39391600 -0.11676781 0.53304499
v -0.39491725 -0.12759866 0.51885704
v -0.39208972 -0.12808347 0.51885704
v -0.38938594 -0.12712446 0.51885704
v -0.38753043 -0.12497860 0.51885704
v -0.39711095 -0.12579995 0.51885704
v -0.38702033 -0.12222087 0.51885704
v -0.39808298 -0.12316928 0.51885704
v -0.38799235 -0.11959020 0.51885704
v -0.39757291 -0.12041155 0.51885704
v -0.38972248 -0.11817160 0.51885704
v -0.38972248 -0.11817160 0.51885704
v -0.39571737 -0.11826569 0.51885704
v -0.39571737 -0.11826569 0.51885704
v -0.39018606 -0.11779148 0.51885704
v -0.39018606 -0.11779148 0.51885704
v -0.39301362 -0.11730667 0.51885704
v -0.39301362 -0.11730667 0.51885704
v -0.39308507 -0.11647309 0.53596341
v -0.39308507 -0.11647309 0.53646857
v -0.39308507 -0.11647309 0.52360493
v -0.38982008 -0.11703290 0.52360493
v -0.38982008 -0.11703290 0.52552849
v -0.39219655 -0.11662543 0.53646857
v -0.39306689 -0.11668510 0.52114721
v -0.39608257 -0.11775474 0.52114721
v -0.38991318 -0.11722583 0.52114721
v -0.38884432 -0.11783298 0.52360493
v -0.38937441 -0.11739833 0.53646857
v -0.38914161 -0.11785847 0.52114721
v -0.41599753 -0.14551916 0.51759104
v -0.41838191 -0.14636489 0.51759104
v -0.42087545 -0.14593735 0.51759104
v -0.42281001 -0.14435110 0.51759104
v -0.41436121 -0.14362679 0.51759104
v -0.42366723 -0.14203119 0.51759104
v -0.41391136 -0.14119482 0.51759104
v -0.42321739 -0.13959923 0.51759104
v -0.41476858 -0.13887490 0.51759104
v -0.42158106 -0.13770685 0.51759104
v -0.41670315 -0.13728867 0.51759104
v -0.41919669 -0.13686112 0.51759104
v -0.42232022 -0.13667267 0.53892629
v -0.42244478 -0.13649839 0.53646857
v -0.42244478 -0.13649839 0.52360493
v -0.42244478 -0.13649839 0.52360493
v -0.42015365 -0.13568575 0.53304499
v -0.42015365 -0.13568575 0.53304499
v -0.42115489 -0.14651659 0.51885704
v -0.41832736 -0.14700140 0.51885704
v -0.41562358 -0.14604239 0.51885704
v -0.41376807 -0.14389653 0.51885704
v -0.42334860 -0.14471788 0.51885704
v -0.41325797 -0.14113880 0.51885704
v -0.42432062 -0.14208721 0.51885704
v -0.41423000 -0.13850814 0.51885704
v -0.42381055 -0.13932948 0.51885704
v -0.41596012 -0.13708953 0.51885704
v -0.41596012 -0.13708953 0.51885704
v -0.42195501 -0.13718362 0.51885704
v -0.42195501 -0.13718362 0.51885704
v -0.41642370 -0.13670941 0.51885704
v -0.41642370 -0.13670941 0.51885704
v -0.41925127 -0.13622461 0.51885704
v -0.41925127 -0.13622461 0.51885704
v -0.41932272 -0.13539102 0.53596341
v -0.41932272 -0.13539102 0.53646857
v -0.41932272 -0.13539102 0.52360493
v -0.41605773 -0.13595083 0.52360493
v -0.41605773 -0.13595083 0.52552849
v -0.41843419 -0.13554337 0.53646857
v -0.41930453 -0.13560303 0.52114721
v -0.42232022 -0.13667267 0.52114721
v -0.41615082 -0.13614376 0.52114721
v -0.41508197 -0.13675091 0.52360493
v -0.41561205 -0.13631626 0.53646857
v -0.41537926 -0.13677640 0.52114721
v -0.26972911 0.01944075 0.51358398
v -0.27067154 0.01709292 0.51358398
v -0.27264125 0.01550522 0.51358398
v -0.27511046 0.01510309 0.51358398
v -0.27006648 0.02191964 0.51358398
v -0.27741753 0.01599427 0.51358398
v -0.27159324 0.02386535 0.51358398
v -0.27894431 0.01793998 0.51358398
v -0.27390031 0.02475654 0.51358398
v -0.27928167 0.02041887 0.51358398
v -0.27636952 0.02435440 0.51358398
v -0.27833923 0.02276671 0.51358398
v -0.28054621 0.02054835 0.53491924
v -0.28075931 0.02057017 0.53246151
v -0.28075931 0.02057017 0.51959788
v -0.28075931 0.02057017 0.51959788
v -0.27985374 0.02282617 0.52903793
v -0.27985374 0.02282617 0.52903793
v -0.27239155 0.01491254 0.51484998
v -0.27015799 0.01671291 0.51484998
v -0.26908932 0.01937524 0.51484998
v -0.26947189 0.02218617 0.51484998
v -0.27519150 0.01445655 0.51484998
v -0.27120317 0.02439251 0.51484998
v -0.27780761 0.01546711 0.51484998
v -0.27381927 0.02540307 0.51484998
v -0.27953890 0.01767344 0.51484998
v -0.27602752 0.02504344 0.51484998
v -0.27602752 0.02504344 0.51484998
v -0.27992145 0.02048437 0.51484998
v -0.27992145 0.02048437 0.51484998
v -0.27661922 0.02494707 0.51484998
v -0.27661922 0.02494707 0.51484998
v -0.27885277 0.02314671 0.51484998
v -0.27885277 0.02314671 0.51484998
v -0.27952532 0.02364436 0.53195636
v -0.27952532 0.02364436 0.53246151
v -0.27952532 0.02364436 0.51959788
v -0.27694624 0.02572325 0.51959788
v -0.27694624 0.02572325 0.52152144
v -0.27882344 0.02421011 0.53246151
v -0.27935427 0.02351779 0.51714015
v -0.28054621 0.02054835 0.51714015
v -0.27686306 0.02552584 0.51714015
v -0.27570080 0.02592608 0.51959788
v -0.27637739 0.02581589 0.53246151
v -0.27587828 0.02568622 0.51714015
v -0.26860534 0.03469852 0.51364488
v -0.26954776 0.03235068 0.51364488
v -0.27151747 0.03076298 0.51364488
v -0.27398668 0.03036085 0.51364488
v -0.26894270 0.03717740 0.51364488
v -0.27629375 0.03125203 0.51364488
v -0.27046946 0.03912311 0.51364488
v -0.27782053 0.03319775 0.51364488
v -0.27277654 0.04001429 0.51364488
v -0.27815790 0.03567663 0.51364488
v -0.27524575 0.03961216 0.51364488
v -0.27721545 0.03802446 0.51364488
v -0.27942244 0.03580611 0.53498014
v -0.27963554 0.03582793 0.53252241
v -0.27963554 0.03582793 0.51965878
v -0.27963554 0.03582793 0.51965878
v -0.27872997 0.03808394 0.52909883
v -0.27872997 0.03808394 0.52909883
v -0.27126777 0.03017031 0.51491087
v -0.26903422 0.03197068 0.51491087
v -0.26796555 0.03463301 0.51491087
v -0.26834811 0.03744394 0.51491087
v -0.27406773 0.02971431 0.51491087
v -0.27007939 0.03965027 0.51491087
v -0.27668383 0.03072487 0.51491087
v -0.27269549 0.04066084 0.51491087
v -0.27841512 0.03293121 0.51491087
v -0.27490375 0.04030120 0.51491087
v -0.27490375 0.04030120 0.51491087
v -0.27879767 0.03574214 0.51491087
v -0.27879767 0.03574214 0.51491087
v -0.27549544 0.04020484 0.51491087
v -0.27549544 0.04020484 0.51491087
v -0.27772900 0.03840447 0.51491087
v -0.27772900 0.03840447 0.51491087
v -0.27840154 0.03890212 0.53201725
v -0.27840154 0.03890212 0.53252241
v -0.27840154 0.03890212 0.51965878
v -0.27582246 0.04098101 0.51965878
v -0.27582246 0.04098101 0.52158233
v -0.27769967 0.03946788 0.53252241
v -0.27823049 0.03877556 0.51720105
v -0.27942244 0.03580611 0.51720105
v -0.27573929 0.04078360 0.51720105
v -0.27457702 0.04118384 0.51965878
v -0.27525361 0.04107365 0.53252241
v -0.27475451 0.04094398 0.51720105
v -0.26614522 0.06880980 0.51364488
v -0.26708765 0.06646197 0.51364488
v -0.26905736 0.06487426 0.51364488
v -0.27152656 0.06447213 0.51364488
v -0.26648258 0.07128869 0.51364488
v -0.27383363 0.06536332 0.51364488
v -0.26800935 0.07323440 0.51364488
v -0.27536041 0.06730903 0.51364488
v -0.27031642 0.07412558 0.51364488
v -0.27569778 0.06978791 0.51364488
v -0.27278563 0.07372345 0.51364488
v -0.27475533 0.07213575 0.51364488
v -0.27696232 0.06991739 0.53498014
v -0.27717542 0.06993921 0.53252241
v -0.27717542 0.06993921 0.51965878
v -0.27717542 0.06993921 0.51965878
v -0.27626985 0.07219522 0.52909883
v -0.27626985 0.07219522 0.52909883
v -0.26880766 0.06428160 0.51491087
v -0.26657410 0.06608196 0.51491087
v -0.26550543 0.06874430 0.51491087
v -0.26588799 0.07155523 0.51491087
v -0.27160761 0.06382560 0.51491087
v -0.26761927 0.07376156 0.51491087
v -0.27422371 0.06483615 0.51491087
v -0.27023538 0.07477212 0.51491087
v -0.27595501 0.06704249 0.51491087
v -0.27244363 0.07441249 0.51491087
v -0.27244363 0.07441249 0.51491087
v -0.27633756 0.06985343 0.51491087
v -0.27633756 0.06985343 0.51491087
v -0.27303533 0.07431613 0.51491087
v -0.27303533 0.07431613 0.51491087
v -0.27526888 0.07251576 0.51491087
v -0.27526888 0.07251576 0.51491087
v -0.27594142 0.07301341 0.53201725
v -0.27594142 0.07301341 0.53252241
v -0.27594142 0.07301341 0.51965878
v -0.27336234 0.07509230 0.51965878
v -0.27336234 0.07509230 0.52158233
v -0.27523955 0.07357916 0.53252241
v -0.27577038 0.07288684 0.51720105
v -0.27696232 0.06991739 0.51720105
v -0.27327917 0.07489489 0.51720105
v -0.27211691 0.07529513 0.51965878
v -0.27279349 0.07518494 0.53252241
v -0.27229439 0.07505527 0.51720105
v -0.26465079 0.08355459 0.51364488
v -0.26559322 0.08120675 0.51364488
v -0.26756293 0.07961905 0.51364488
v -0.27003213 0.07921692 0.51364488
v -0.26498816 0.08603347 0.51364488
v -0.27233921 0.08010810 0.51364488
v -0.26651492 0.08797918 0.51364488
v -0.27386599 0.08205381 0.51364488
v -0.26882199 0.08887036 0.51364488
v -0.27420335 0.08453269 0.51364488
v -0.27129120 0.08846823 0.51364488
v -0.27326091 0.08688053 0.51364488
v -0.27546789 0.08466217 0.53498014
v -0.27568099 0.08468400 0.53252241
v -0.27568099 0.08468400 0.51965878
v -0.27568099 0.08468400 0.51965878
v -0.27477542 0.08694001 0.52909883
v -0.27477542 0.08694001 0.52909883
v -0.26731323 0.07902638 0.51491087
v -0.26507967 0.08082674 0.51491087
v -0.26401100 0.08348908 0.51491087
v -0.26439356 0.08630001 0.51491087
v -0.27011318 0.07857038 0.51491087
v -0.26612484 0.08850634 0.51491087
v -0.27272930 0.07958094 0.51491087
v -0.26874095 0.08951691 0.51491087
v -0.27446058 0.08178728 0.51491087
v -0.27094921 0.08915727 0.51491087
v -0.27094921 0.08915727 0.51491087
v -0.27484313 0.08459821 0.51491087
v -0.27484313 0.08459821 0.51491087
v -0.27154090 0.08906091 0.51491087
v -0.27154090 0.08906091 0.51491087
v -0.27377445 0.08726054 0.51491087
v -0.27377445 0.08726054 0.51491087
v -0.27444699 0.08775819 0.53201725
v -0.27444699 0.08775819 0.53252241
v -0.27444699 0.08775819 0.51965878
v -0.27186792 0.08983708 0.51965878
v -0.27186792 0.08983708 0.52158233
v -0.27374512 0.08832395 0.53252241
v -0.27427595 0.08763163 0.51720105
v -0.27546789 0.08466217 0.51720105
v -0.27178474 0.08963967 0.51720105
v -0.27062248 0.09003991 0.51965878
v -0.27129907 0.08992972 0.53252241
v -0.27079996 0.08980005 0.51720105
v -0.26781150 0.05136281 0.51364488
v -0.26875393 0.04901497 0.51364488
v -0.27072364 0.04742727 0.51364488
v -0.27319285 0.04702514 0.51364488
v -0.26814887 0.05384169 0.51364488
v -0.27549992 0.04791632 0.51364488
v -0.26967563 0.05578741 0.51364488
v -0.27702670 0.04986204 0.51364488
v -0.27198271 0.05667859 0.51364488
v -0.27736407 0.05234092 0.51364488
v -0.27445191 0.05627646 0.51364488
v -0.27642162 0.05468876 0.51364488
v -0.27862861 0.05247040 0.53498014
v -0.27884171 0.05249222 0.53252241
v -0.27884171 0.05249222 0.51965878
v -0.27884171 0.05249222 0.51965878
v -0.27793613 0.05474823 0.52909883
v -0.27793613 0.05474823 0.52909883
v -0.27047394 0.04683460 0.51491087
v -0.26824039 0.04863497 0.51491087
v -0.26717171 0.05129730 0.51491087
v -0.26755428 0.05410823 0.51491087
v -0.27327389 0.04637860 0.51491087
v -0.26928556 0.05631457 0.51491087
v -0.27589000 0.04738916 0.51491087
v -0.27190166 0.05732513 0.51491087
v -0.27762129 0.04959550 0.51491087
v -0.27410992 0.05696549 0.51491087
v -0.27410992 0.05696549 0.51491087
v -0.27800384 0.05240643 0.51491087
v -0.27800384 0.05240643 0.51491087
v -0.27470161 0.05686913 0.51491087
v -0.27470161 0.05686913 0.51491087
v -0.27693517 0.05506876 0.51491087
v -0.27693517 0.05506876 0.51491087
v -0.27760771 0.05556642 0.53201725
v -0.27760771 0.05556642 0.53252241
v -0.27760771 0.05556642 0.51965878
v -0.27502863 0.05764530 0.51965878
v -0.27502863 0.05764530 0.52158233
v -0.27690584 0.05613217 0.53252241
v -0.27743666 0.05543985 0.51720105
v -0.27862861 0.05247040 0.51720105
v -0.27494545 0.05744790 0.51720105
v -0.27378319 0.05784814 0.51965878
v -0.27445978 0.05773795 0.53252241
v -0.27396068 0.05760828 0.51720105
v -0.46419429 -0.11591749 0.51753014
v -0.46670605 -0.11561484 0.51753014
v -0.46874944 -0.11412317 0.51753014
v -0.46977696 -0.11184218 0.51753014
v -0.46188719 -0.11495004 0.51753014
v -0.46951325 -0.10938306 0.51753014
v -0.46040293 -0.11297170 0.51753014
v -0.46802899 -0.10740473 0.51753014
v -0.46013925 -0.11051258 0.51753014
v -0.46572189 -0.10643728 0.51753014
v -0.46116674 -0.10823160 0.51753014
v -0.46321013 -0.10673993 0.51753014
v -0.46592412 -0.10518229 0.53886540
v -0.46595818 -0.10497081 0.53640767
v -0.46595818 -0.10497081 0.52354404
v -0.46595818 -0.10497081 0.52354404
v -0.46354468 -0.10526163 0.53298409
v -0.46354468 -0.10526163 0.53298409
v -0.46925730 -0.11451776 0.51879613
v -0.46694020 -0.11620923 0.51879613
v -0.46409197 -0.11655243 0.51879613
v -0.46147583 -0.11545539 0.51879613
v -0.47042244 -0.11193123 0.51879613
v -0.45979277 -0.11321206 0.51879613
v -0.47012341 -0.10914270 0.51879613
v -0.45949374 -0.11042354 0.51879613
v -0.46844035 -0.10689938 0.51879613
v -0.46041268 -0.10838361 0.51879613
v -0.46041268 -0.10838361 0.51879613
v -0.46582421 -0.10580234 0.51879613
v -0.46582421 -0.10580234 0.51879613
v -0.46065888 -0.10783701 0.51879613
v -0.46065888 -0.10783701 0.51879613
v -0.46297601 -0.10614553 0.51879613
v -0.46297601 -0.10614553 0.51879613
v -0.46266937 -0.10536710 0.53590251
v -0.46266937 -0.10536710 0.53640767
v -0.46266937 -0.10536710 0.52354404
v -0.45999381 -0.10732025 0.52354404
v -0.45999381 -0.10732025 0.52546759
v -0.46194122 -0.10589863 0.53640767
v -0.46274735 -0.10556508 0.52108631
v -0.46592412 -0.10518229 0.52108631
v -0.46016295 -0.10745168 0.52108631
v -0.45947552 -0.10847076 0.52354404
v -0.45975708 -0.10784573 0.53640767
v -0.45975316 -0.10836139 0.52108631
v -0.44916559 -0.11305404 0.51759104
v -0.45167735 -0.11275138 0.51759104
v -0.45372074 -0.11125971 0.51759104
v -0.45474826 -0.10897872 0.51759104
v -0.44685849 -0.11208659 0.51759104
v -0.45448455 -0.10651960 0.51759104
v -0.44537423 -0.11010825 0.51759104
v -0.45300029 -0.10454127 0.51759104
v -0.44511055 -0.10764913 0.51759104
v -0.45069318 -0.10357382 0.51759104
v -0.44613804 -0.10536814 0.51759104
v -0.44818143 -0.10387648 0.51759104
v -0.45089542 -0.10231884 0.53892629
v -0.45092948 -0.10210736 0.53646857
v -0.45092948 -0.10210736 0.52360493
v -0.45092948 -0.10210736 0.52360493
v -0.44851597 -0.10239818 0.53304499
v -0.44851597 -0.10239818 0.53304499
v -0.45422860 -0.11165430 0.51885704
v -0.45191150 -0.11334577 0.51885704
v -0.44906327 -0.11368898 0.51885704
v -0.44644713 -0.11259193 0.51885704
v -0.45539374 -0.10906777 0.51885704
v -0.44476407 -0.11034860 0.51885704
v -0.45509470 -0.10627925 0.51885704
v -0.44446504 -0.10756008 0.51885704
v -0.45341164 -0.10403592 0.51885704
v -0.44538398 -0.10552015 0.51885704
v -0.44538398 -0.10552015 0.51885704
v -0.45079551 -0.10293888 0.51885704
v -0.45079551 -0.10293888 0.51885704
v -0.44563018 -0.10497355 0.51885704
v -0.44563018 -0.10497355 0.51885704
v -0.44794731 -0.10328207 0.51885704
v -0.44794731 -0.10328207 0.51885704
v -0.44764067 -0.10250365 0.53596341
v -0.44764067 -0.10250365 0.53646857
v -0.44764067 -0.10250365 0.52360493
v -0.44496511 -0.10445679 0.52360493
v -0.44496511 -0.10445679 0.52552849
v -0.44691252 -0.10303518 0.53646857
v -0.44771865 -0.10270163 0.52114721
v -0.45089542 -0.10231884 0.52114721
v -0.44513425 -0.10458823 0.52114721
v -0.44444682 -0.10560730 0.52360493
v -0.44472838 -0.10498227 0.53646857
v -0.44472445 -0.10549794 0.52114721
v -0.41557992 -0.10660161 0.51759104
v -0.41809168 -0.10629896 0.51759104
v -0.42013507 -0.10480729 0.51759104
v -0.42116259 -0.10252630 0.51759104
v -0.41327282 -0.10563416 0.51759104
v -0.42089888 -0.10006718 0.51759104
v -0.41178856 -0.10365582 0.51759104
v -0.41941461 -0.09808885 0.51759104
v -0.41152487 -0.10119670 0.51759104
v -0.41710751 -0.09712140 0.51759104
v -0.41255236 -0.09891572 0.51759104
v -0.41459576 -0.09742405 0.51759104
v -0.41730974 -0.09586642 0.53892629
v -0.41734381 -0.09565493 0.53646857
v -0.41734381 -0.09565493 0.52360493
v -0.41734381 -0.09565493 0.52360493
v -0.41493030 -0.09594575 0.53304499
v -0.41493030 -0.09594575 0.53304499
v -0.42064293 -0.10520188 0.51885704
v -0.41832582 -0.10689335 0.51885704
v -0.41547759 -0.10723655 0.51885704
v -0.41286146 -0.10613950 0.51885704
v -0.42180807 -0.10261534 0.51885704
v -0.41117840 -0.10389618 0.51885704
v -0.42150903 -0.09982682 0.51885704
v -0.41087937 -0.10110765 0.51885704
v -0.41982597 -0.09758349 0.51885704
v -0.41179830 -0.09906773 0.51885704
v -0.41179830 -0.09906773 0.51885704
v -0.41720984 -0.09648646 0.51885704
v -0.41720984 -0.09648646 0.51885704
v -0.41204451 -0.09852113 0.51885704
v -0.41204451 -0.09852113 0.51885704
v -0.41436164 -0.09682965 0.51885704
v -0.41436164 -0.09682965 0.51885704
v -0.41405499 -0.09605122 0.53596341
v -0.41405499 -0.09605122 0.53646857
v -0.41405499 -0.09605122 0.52360493
v -0.41137944 -0.09800437 0.52360493
v -0.41137944 -0.09800437 0.52552849
v -0.41332685 -0.09658275 0.53646857
v -0.41413297 -0.09624920 0.52114721
v -0.41730974 -0.09586642 0.52114721
v -0.41154858 -0.09813580 0.52114721
v -0.41086115 -0.09915488 0.52360493
v -0.41114271 -0.09852985 0.53646857
v -0.41113878 -0.09904551 0.52114721
v -0.40095071 -0.10422887 0.51759104
v -0.40346246 -0.10392622 0.51759104
v -0.40550585 -0.10243455 0.51759104
v -0.40653338 -0.10015356 0.51759104
v -0.39864360 -0.10326142 0.51759104
v -0.40626967 -0.09769444 0.51759104
v -0.39715934 -0.10128308 0.51759104
v -0.40478540 -0.09571611 0.51759104
v -0.39689566 -0.09882396 0.51759104
v -0.40247830 -0.09474866 0.51759104
v -0.39792315 -0.09654298 0.51759104
v -0.39996655 -0.09505131 0.51759104
v -0.40268053 -0.09349368 0.53892629
v -0.40271460 -0.09328219 0.53646857
v -0.40271460 -0.09328219 0.52360493
v -0.40271460 -0.09328219 0.52360493
v -0.40030109 -0.09357301 0.53304499
v -0.40030109 -0.09357301 0.53304499
v -0.40601371 -0.10282913 0.51885704
v -0.40369662 -0.10452061 0.51885704
v -0.40084838 -0.10486381 0.51885704
v -0.39823225 -0.10376677 0.51885704
v -0.40717886 -0.10024261 0.51885704
v -0.39654919 -0.10152344 0.51885704
v -0.40687982 -0.09745409 0.51885704
v -0.39625015 -0.09873492 0.51885704
v -0.40519676 -0.09521076 0.51885704
v -0.39716910 -0.09669499 0.51885704
v -0.39716910 -0.09669499 0.51885704
v -0.40258063 -0.09411372 0.51885704
v -0.40258063 -0.09411372 0.51885704
v -0.39741530 -0.09614839 0.51885704
v -0.39741530 -0.09614839 0.51885704
v -0.39973242 -0.09445691 0.51885704
v -0.39973242 -0.09445691 0.51885704
v -0.39942578 -0.09367848 0.53596341
v -0.39942578 -0.09367848 0.53646857
v -0.39942578 -0.09367848 0.52360493
v -0.39675022 -0.09563163 0.52360493
v -0.39675022 -0.09563163 0.52552849
v -0.39869763 -0.09421001 0.53646857
v -0.39950376 -0.09387646 0.52114721
v -0.40268053 -0.09349368 0.52114721
v -0.39691936 -0.09576306 0.52114721
v -0.39623194 -0.09678214 0.52360493
v -0.39651350 -0.09615711 0.53646857
v -0.39650957 -0.09667277 0.52114721
v -0.43286359 -0.10950772 0.51759104
v -0.43537535 -0.10920507 0.51759104
v -0.43741874 -0.10771340 0.51759104
v -0.43844626 -0.10543241 0.51759104
v -0.43055649 -0.10854027 0.51759104
v -0.43818255 -0.10297329 0.51759104
v -0.42907223 -0.10656193 0.51759104
v -0.43669829 -0.10099496 0.51759104
v -0.42880855 -0.10410281 0.51759104
v -0.43439119 -0.10002751 0.51759104
v -0.42983604 -0.10182183 0.51759104
v -0.43187943 -0.10033016 0.51759104
v -0.43459342 -0.09877252 0.53892629
v -0.43462748 -0.09856104 0.53646857
v -0.43462748 -0.09856104 0.52360493
v -0.43462748 -0.09856104 0.52360493
v -0.43221398 -0.09885186 0.53304499
v -0.43221398 -0.09885186 0.53304499
v -0.43792660 -0.10810798 0.51885704
v -0.43560950 -0.10979946 0.51885704
v -0.43276127 -0.11014266 0.51885704
v -0.43014513 -0.10904562 0.51885704
v -0.43909174 -0.10552146 0.51885704
v -0.42846208 -0.10680229 0.51885704
v -0.43879271 -0.10273293 0.51885704
v -0.42816304 -0.10401377 0.51885704
v -0.43710965 -0.10048961 0.51885704
v -0.42908198 -0.10197384 0.51885704
v -0.42908198 -0.10197384 0.51885704
v -0.43449351 -0.09939257 0.51885704
v -0.43449351 -0.09939257 0.51885704
v -0.42932818 -0.10142723 0.51885704
v -0.42932818 -0.10142723 0.51885704
v -0.43164531 -0.09973576 0.51885704
v -0.43164531 -0.09973576 0.51885704
v -0.43133867 -0.09895733 0.53596341
v -0.43133867 -0.09895733 0.53646857
v -0.43133867 -0.09895733 0.52360493
v -0.42866311 -0.10091048 0.52360493
v -0.42866311 -0.10091048 0.52552849
v -0.43061052 -0.09948886 0.53646857
v -0.43141665 -0.09915531 0.52114721
v -0.43459342 -0.09877252 0.52114721
v -0.42883225 -0.10104191 0.52114721
v -0.42814482 -0.10206098 0.52360493
v -0.42842638 -0.10143596 0.53646857
v -0.42842246 -0.10195162 0.52114721
v -0.22459379 -0.00762607 0.51358398
v -0.22701019 -0.00837543 0.51358398
v -0.22948457 -0.00784816 0.51358398
v -0.23135391 -0.00618556 0.51358398
v -0.22288283 -0.00580089 0.51358398
v -0.23211733 -0.00383311 0.51358398
v -0.22233576 -0.00338894 0.51358398
v -0.23157026 -0.00142116 0.51358398
v -0.22309918 -0.00103649 0.51358398
v -0.22985930 0.00040402 0.51358398
v -0.22496852 0.00062611 0.51358398
v -0.22744290 0.00115338 0.51358398
v -0.23055634 0.00146703 0.53491924
v -0.23067380 0.00164617 0.53246151
v -0.23067380 0.00164617 0.51959788
v -0.23067380 0.00164617 0.51959788
v -0.22835192 0.00236621 0.52903793
v -0.22835192 0.00236621 0.52903793
v -0.22978704 -0.00841573 0.51484998
v -0.22698122 -0.00901362 0.51484998
v -0.22424114 -0.00816389 0.51484998
v -0.22230099 -0.00609423 0.51484998
v -0.23190677 -0.00653042 0.51484998
v -0.22168066 -0.00335919 0.51484998
v -0.23277245 -0.00386287 0.51484998
v -0.22254632 -0.00069163 0.51484998
v -0.23215210 -0.00112783 0.51484998
v -0.22421811 0.00079526 0.51484998
v -0.22421811 0.00079526 0.51484998
v -0.23021197 0.00094184 0.51484998
v -0.23021197 0.00094184 0.51484998
v -0.22466606 0.00119367 0.51484998
v -0.22466606 0.00119367 0.51484998
v -0.22747187 0.00179157 0.51484998
v -0.22747187 0.00179157 0.51484998
v -0.22750983 0.00262735 0.53195636
v -0.22750983 0.00262735 0.53246151
v -0.22750983 0.00262735 0.51959788
v -0.22426996 0.00193697 0.51959788
v -0.22426996 0.00193697 0.52152144
v -0.22662812 0.00243947 0.53246151
v -0.22750017 0.00241478 0.51714015
v -0.23055634 0.00146703 0.51714015
v -0.22437069 0.00174792 0.51714015
v -0.22332709 0.00109837 0.51959788
v -0.22383930 0.00155395 0.53246151
v -0.22362516 0.00108484 0.51714015
v -0.21204422 0.00112447 0.51364488
v -0.21446062 0.00037511 0.51364488
v -0.21693499 0.00090238 0.51364488
v -0.21880434 0.00256498 0.51364488
v -0.21033325 0.00294965 0.51364488
v -0.21956775 0.00491743 0.51364488
v -0.20978619 0.00536160 0.51364488
v -0.21902069 0.00732938 0.51364488
v -0.21054960 0.00771405 0.51364488
v -0.21730973 0.00915456 0.51364488
v -0.21241895 0.00937666 0.51364488
v -0.21489332 0.00990392 0.51364488
v -0.21800676 0.01021758 0.53498014
v -0.21812422 0.01039671 0.53252241
v -0.21812422 0.01039671 0.51965878
v -0.21812422 0.01039671 0.51965878
v -0.21580234 0.01111675 0.52909883
v -0.21580234 0.01111675 0.52909883
v -0.21723746 0.00033482 0.51491087
v -0.21443164 -0.00026308 0.51491087
v -0.21169156 0.00058665 0.51491087
v -0.20975142 0.00265632 0.51491087
v -0.21935719 0.00222012 0.51491087
v -0.20913108 0.00539135 0.51491087
v -0.22022287 0.00488768 0.51491087
v -0.20999674 0.00805891 0.51491087
v -0.21960252 0.00762271 0.51491087
v -0.21166853 0.00954581 0.51491087
v -0.21166853 0.00954581 0.51491087
v -0.21766239 0.00969238 0.51491087
v -0.21766239 0.00969238 0.51491087
v -0.21211649 0.00994422 0.51491087
v -0.21211649 0.00994422 0.51491087
v -0.21492230 0.01054211 0.51491087
v -0.21492230 0.01054211 0.51491087
v -0.21496026 0.01137789 0.53201725
v -0.21496026 0.01137789 0.53252241
v -0.21496026 0.01137789 0.51965878
v -0.21172039 0.01068751 0.51965878
v -0.21172039 0.01068751 0.52158233
v -0.21407855 0.01119001 0.53252241
v -0.21495060 0.01116533 0.51720105
v -0.21800676 0.01021758 0.51720105
v -0.21182112 0.01049847 0.51720105
v -0.21077751 0.00984891 0.51965878
v -0.21128973 0.01030449 0.53252241
v -0.21107558 0.00983538 0.51720105
v -0.18402082 0.02072855 0.51364488
v -0.18643722 0.01997920 0.51364488
v -0.18891160 0.02050646 0.51364488
v -0.19078094 0.02216907 0.51364488
v -0.18230986 0.02255374 0.51364488
v -0.19154436 0.02452151 0.51364488
v -0.18176279 0.02496569 0.51364488
v -0.19099729 0.02693347 0.51364488
v -0.18252621 0.02731814 0.51364488
v -0.18928633 0.02875865 0.51364488
v -0.18439555 0.02898074 0.51364488
v -0.18686993 0.02950801 0.51364488
v -0.18998337 0.02982166 0.53498014
v -0.19010083 0.03000080 0.53252241
v -0.19010083 0.03000080 0.51965878
v -0.19010083 0.03000080 0.51965878
v -0.18777895 0.03072084 0.52909883
v -0.18777895 0.03072084 0.52909883
v -0.18921407 0.01993890 0.51491087
v -0.18640825 0.01934101 0.51491087
v -0.18366817 0.02019074 0.51491087
v -0.18172802 0.02226041 0.51491087
v -0.19133380 0.02182421 0.51491087
v -0.18110769 0.02499544 0.51491087
v -0.19219948 0.02449177 0.51491087
v -0.18197335 0.02766300 0.51491087
v -0.19157913 0.02722680 0.51491087
v -0.18364514 0.02914989 0.51491087
v -0.18364514 0.02914989 0.51491087
v -0.18963900 0.02929647 0.51491087
v -0.18963900 0.02929647 0.51491087
v -0.18409309 0.02954830 0.51491087
v -0.18409309 0.02954830 0.51491087
v -0.18689890 0.03014620 0.51491087
v -0.18689890 0.03014620 0.51491087
v -0.18693686 0.03098198 0.53201725
v -0.18693686 0.03098198 0.53252241
v -0.18693686 0.03098198 0.51965878
v -0.18369699 0.03029159 0.51965878
v -0.18369699 0.03029159 0.52158233
v -0.18605515 0.03079410 0.53252241
v -0.18692720 0.03076941 0.51720105
v -0.18998337 0.02982166 0.51720105
v -0.18379772 0.03010256 0.51720105
v -0.18275412 0.02945300 0.51965878
v -0.18326633 0.02990858 0.53252241
v -0.18305219 0.02943947 0.51720105
v -0.17163563 0.02886796 0.51364488
v -0.17405204 0.02811861 0.51364488
v -0.17652641 0.02864587 0.51364488
v -0.17839576 0.03030847 0.51364488
v -0.16992467 0.03069315 0.51364488
v -0.17915917 0.03266092 0.51364488
v -0.16937761 0.03310510 0.51364488
v -0.17861211 0.03507288 0.51364488
v -0.17014102 0.03545755 0.51364488
v -0.17690114 0.03689806 0.51364488
v -0.17201036 0.03712015 0.51364488
v -0.17448474 0.03764741 0.51364488
v -0.17759819 0.03796107 0.53498014
v -0.17771564 0.03814021 0.53252241
v -0.17771564 0.03814021 0.51965878
v -0.17771564 0.03814021 0.51965878
v -0.17539376 0.03886024 0.52909883
v -0.17539376 0.03886024 0.52909883
v -0.17682889 0.02807831 0.51491087
v -0.17402306 0.02748042 0.51491087
v -0.17128298 0.02833015 0.51491087
v -0.16934284 0.03039981 0.51491087
v -0.17894862 0.02996362 0.51491087
v -0.16872250 0.03313485 0.51491087
v -0.17981429 0.03263118 0.51491087
v -0.16958817 0.03580241 0.51491087
v -0.17919394 0.03536621 0.51491087
v -0.17125996 0.03728930 0.51491087
v -0.17125996 0.03728930 0.51491087
v -0.17725381 0.03743587 0.51491087
v -0.17725381 0.03743587 0.51491087
v -0.17170791 0.03768771 0.51491087
v -0.17170791 0.03768771 0.51491087
v -0.17451372 0.03828560 0.51491087
v -0.17451372 0.03828560 0.51491087
v -0.17455168 0.03912139 0.53201725
v -0.17455168 0.03912139 0.53252241
v -0.17455168 0.03912139 0.51965878
v -0.17131181 0.03843100 0.51965878
v -0.17131181 0.03843100 0.52158233
v -0.17366996 0.03893351 0.53252241
v -0.17454202 0.03890882 0.51720105
v -0.17759819 0.03796107 0.51720105
v -0.17141254 0.03824196 0.51720105
v -0.17036893 0.03759241 0.51965878
v -0.17088115 0.03804798 0.53252241
v -0.17066700 0.03757887 0.51720105
v -0.19861139 0.01101829 0.51364488
v -0.20102780 0.01026893 0.51364488
v -0.20350217 0.01079620 0.51364488
v -0.20537151 0.01245880 0.51364488
v -0.19690043 0.01284347 0.51364488
v -0.20613493 0.01481125 0.51364488
v -0.19635337 0.01525543 0.51364488
v -0.20558787 0.01722320 0.51364488
v -0.19711678 0.01760787 0.51364488
v -0.20387690 0.01904839 0.51364488
v -0.19898612 0.01927048 0.51364488
v -0.20146050 0.01979774 0.51364488
v -0.20457394 0.02011140 0.53498014
v -0.20469140 0.02029053 0.53252241
v -0.20469140 0.02029053 0.51965878
v -0.20469140 0.02029053 0.51965878
v -0.20236952 0.02101058 0.52909883
v -0.20236952 0.02101058 0.52909883
v -0.20380464 0.01022863 0.51491087
v -0.20099882 0.00963074 0.51491087
v -0.19825874 0.01048048 0.51491087
v -0.19631860 0.01255014 0.51491087
v -0.20592437 0.01211394 0.51491087
v -0.19569826 0.01528518 0.51491087
v -0.20679005 0.01478150 0.51491087
v -0.19656392 0.01795273 0.51491087
v -0.20616970 0.01751653 0.51491087
v -0.19823571 0.01943963 0.51491087
v -0.19823571 0.01943963 0.51491087
v -0.20422957 0.01958620 0.51491087
v -0.20422957 0.01958620 0.51491087
v -0.19868367 0.01983804 0.51491087
v -0.19868367 0.01983804 0.51491087
v -0.20148948 0.02043593 0.51491087
v -0.20148948 0.02043593 0.51491087
v -0.20152744 0.02127171 0.53201725
v -0.20152744 0.02127171 0.53252241
v -0.20152744 0.02127171 0.51965878
v -0.19828756 0.02058133 0.51965878
v -0.19828756 0.02058133 0.52158233
v -0.20064572 0.02108383 0.53252241
v -0.20151778 0.02105915 0.51720105
v -0.20457394 0.02011140 0.51720105
v -0.19838830 0.02039229 0.51720105
v -0.19734469 0.01974273 0.51965878
v -0.19785690 0.02019831 0.53252241
v -0.19764276 0.01972920 0.51720105
v -0.41496713 -0.07016115 0.51687411
v -0.41747889 -0.06985849 0.51687411
v -0.41952227 -0.06836682 0.51687411
v -0.42054980 -0.06608583 0.51687411
v -0.41266003 -0.06919369 0.51687411
v -0.42028609 -0.06362671 0.51687411
v -0.41117576 -0.06721536 0.51687411
v -0.41880182 -0.06164838 0.51687411
v -0.41091208 -0.06475624 0.51687411
v -0.41649472 -0.06068092 0.51687411
v -0.41193957 -0.06247525 0.51687411
v -0.41398297 -0.06098358 0.51687411
v -0.41669695 -0.05942595 0.53820937
v -0.41673102 -0.05921447 0.53575165
v -0.41673102 -0.05921447 0.52288801
v -0.41673102 -0.05921447 0.52288801
v -0.41431751 -0.05950528 0.53232806
v -0.41431751 -0.05950528 0.53232806
v -0.42003014 -0.06876141 0.51814011
v -0.41771304 -0.07045288 0.51814011
v -0.41486480 -0.07079608 0.51814011
v -0.41224867 -0.06969904 0.51814011
v -0.42119528 -0.06617488 0.51814011
v -0.41056561 -0.06745571 0.51814011
v -0.42089624 -0.06338636 0.51814011
v -0.41026657 -0.06466719 0.51814011
v -0.41921318 -0.06114303 0.51814011
v -0.41118552 -0.06262726 0.51814011
v -0.41118552 -0.06262726 0.51814011
v -0.41659705 -0.06004599 0.51814011
v -0.41659705 -0.06004599 0.51814011
v -0.41143172 -0.06208066 0.51814011
v -0.41143172 -0.06208066 0.51814011
v -0.41374884 -0.06038918 0.51814011
v -0.41374884 -0.06038918 0.51814011
v -0.41344220 -0.05961076 0.53524648
v -0.41344220 -0.05961076 0.53575165
v -0.41344220 -0.05961076 0.52288801
v -0.41076664 -0.06156390 0.52288801
v -0.41076664 -0.06156390 0.52481156
v -0.41271406 -0.06014229 0.53575165
v -0.41352018 -0.05980874 0.52043029
v -0.41669695 -0.05942595 0.52043029
v -0.41093578 -0.06169534 0.52043029
v -0.41024836 -0.06271440 0.52288801
v -0.41052992 -0.06208938 0.53575165
v -0.41052599 -0.06260505 0.52043029
f 1 2 3
f 3 4 1
f 5 1 4
f 4 6 5
f 7 5 6
f 6 8 7
f 9 7 8
f 8 10 9
f 11 9 10
f 10 12 11
f 13 14 16
f 16 18 13
f 19 20 21
f 21 22 19
f 23 19 22
f 22 24 23
f 25 23 24
f 24 26 25
f 27 25 26
f 26 29 27
f 30 27 29
f 29 33 30
f 30 33 34
f 36 37 17
f 17 38 36
f 38 17 15
f 39 40 41
f 41 38 39
f 38 41 36
f 42 38 15
f 15 43 42
f 32 44 42
f 42 35 32
f 31 35 42
f 42 43 31
f 44 39 38
f 38 42 44
f 39 45 46
f 46 40 39
f 47 45 39
f 39 44 47
f 28 47 44
f 44 32 28
f 48 49 50
f 50 51 48
f 52 48 51
f 51 53 52
f 54 52 53
f 53 55 54
f 56 54 55
f 55 57 56
f 58 56 57
f 57 59 58
f 60 61 62
f 62 64 60
f 66 67 68
f 68 69 66
f 70 66 69
f 69 71 70
f 72 70 71
f 71 73 72
f 74 72 73
f 73 76 74
f 77 74 76
f 76 80 77
f 77 80 82
f 83 84 65
f 65 85 83
f 85 65 63
f 86 87 88
f 88 85 86
f 85 88 83
f 89 85 63
f 63 90 89
f 79 91 89
f 89 81 79
f 78 81 89
f 89 90 78
f 91 86 85
f 85 89 91
f 86 92 93
f 93 87 86
f 94 92 86
f 86 91 94
f 75 94 91
f 91 79 75
f 95 96 97
f 97 98 95
f 99 95 98
f 98 100 99
f 101 99 100
f 100 102 101
f 103 101 102
f 102 104 103
f 105 103 104
f 104 106 105
f 107 108 109
f 109 112 107
f 113 114 115
f 115 116 113
f 117 113 116
f 116 118 117
f 119 117 118
f 118 120 119
f 121 119 120
f 120 122 121
f 124 121 122
f 122 127 124
f 124 127 128
f 130 131 111
f 111 132 130
f 132 111 110
f 133 134 135
f 135 132 133
f 132 135 130
f 136 132 110
f 110 137 136
f 126 138 136
f 136 129 126
f 125 129 136
f 136 137 125
f 138 133 132
f 132 136 138
f 133 139 140
f 140 134 133
f 141 139 133
f 133 138 141
f 123 141 138
f 138 126 123
f 142 143 144
f 144 145 142
f 146 142 145
f 145 147 146
f 148 146 147
f 147 149 148
f 150 148 149
f 149 151 150
f 152 150 151
f 151 153 152
f 154 155 156
f 156 158 154
f 160 161 162
f 162 163 160
f 164 160 163
f 163 165 164
f 166 164 165
f 165 167 166
f 168 166 167
f 167 170 168
f 171 168 170
f 170 174 171
f 171 174 175
f 177 178 159
f 159 179 177
f 179 159 157
f 180 181 182
f 182 179 180
f 179 182 177
f 183 179 157
f 157 184 183
f 173 185 183
f 183 176 173
f 172 176 183
f 183 184 172
f 185 180 179
f 179 183 185
f 180 186 187
f 187 181 180
f 188 186 180
f 180 185 188
f 169 188 185
f 185 173 169
f 189 190 191
f 191 192 189
f 193 189 192
f 192 194 193
f 195 193 194
f 194 196 195
f 197 195 196
f 196 198 197
f 199 197 198
f 198 200 199
f 201 202 203
f 203 206 201
f 207 208 209
f 209 210 207
f 211 207 210
f 210 212 211
f 213 211 212
f 212 214 213
f 215 213 214
f 214 216 215
f 218 215 216
f 216 220 218
f 218 220 222
f 224 225 205
f 205 226 224
f 226 205 204
f 227 228 229
f 229 226 227
f 226 229 224
f 230 226 204
f 204 231 230
f 221 232 230
f 230 223 221
f 219 223 230
f 230 231 219
f 232 227 226
f 226 230 232
f 227 233 234
f 234 228 227
f 235 233 227
f 227 232 235
f 217 235 232
f 232 221 217
f 236 237 238
f 238 239 236
f 240 236 239
f 239 241 240
f 242 240 241
f 241 243 242
f 244 242 243
f 243 245 244
f 246 244 245
f 245 247 246
f 248 249 250
f 250 253 248
f 254 255 256
f 256 257 254
f 258 254 257
f 257 259 258
f 260 258 259
f 259 261 260
f 262 260 261
f 261 264 262
f 265 262 264
f 264 268 265
f 265 268 269
f 271 272 252
f 252 273 271
f 273 252 251
f 274 275 276
f 276 273 274
f 273 276 271
f 277 273 251
f 251 278 277
f 267 279 277
f 277 270 267
f 266 270 277
f 277 278 266
f 279 274 273
f 273 277 279
f 274 280 281
f 281 275 274
f 282 280 274
f 274 279 282
f 263 282 279
f 279 267 263
f 283 284 285
f 285 286 283
f 287 283 286
f 286 288 287
f 289 287 288
f 288 290 289
f 291 289 290
f 290 292 291
f 293 291 292
f 292 294 293
f 295 296 298
f 298 300 295
f 301 302 303
f 303 304 301
f 305 301 304
f 304 306 305
f 307 305 306
f 306 308 307
f 309 307 308
f 308 310 309
f 312 309 310
f 310 315 312
f 312 315 316
f 318 319 299
f 299 320 318
f 320 299 297
f 321 322 323
f 323 320 321
f 320 323 318
f 324 320 297
f 297 325 324
f 314 326 324
f 324 317 314
f 313 317 324
f 324 325 313
f 326 321 320
f 320 324 326
f 321 327 328
f 328 322 321
f 329 327 321
f 321 326 329
f 311 329 326
f 326 314 311
f 330 331 332
f 332 333 330
f 334 330 333
f 333 335 334
f 336 334 335
f 335 337 336
f 338 336 337
f 337 339 338
f 340 338 339
f 339 341 340
f 342 343 344
f 344 347 342
f 348 349 350
f 350 351 348
f 352 348 351
f 351 353 352
f 354 352 353
f 353 355 354
f 356 354 355
f 355 358 356
f 359 356 358
f 358 362 359
f 359 362 363
f 365 366 346
f 346 367 365
f 367 346 345
f 368 369 370
f 370 367 368
f 367 370 365
f 371 367 345
f 345 372 371
f 361 373 371
f 371 364 361
f 360 364 371
f 371 372 360
f 373 368 367
f 367 371 373
f 368 374 375
f 375 369 368
f 376 374 368
f 368 373 376
f 357 376 373
f 373 361 357
f 377 378 379
f 379 380 377
f 381 377 380
f 380 382 381
f 383 381 382
f 382 384 383
f 385 383 384
f 384 386 385
f 387 385 386
f 386 388 387
f 389 390 391
f 391 393 389
f 395 396 397
f 397 398 395
f 399 395 398
f 398 400 399
f 401 399 400
f 400 402 401
f 403 401 402
f 402 404 403
f 407 403 404
f 404 408 407
f 407 408 410
f 412 413 394
f 394 414 412
f 414 394 392
f 415 416 417
f 417 414 415
f 414 417 412
f 418 414 392
f 392 419 418
f 409 420 418
f 418 411 409
f 406 411 418
f 418 419 406
f 420 415 414
f 414 418 420
f 415 421 422
f 422 416 415
f 423 421 415
f 415 420 423
f 405 423 420
f 420 409 405
f 424 425 426
f 426 427 424
f 428 424 427
f 427 429 428
f 430 428 429
f 429 431 430
f 432 430 431
f 431 433 432
f 434 432 433
f 433 435 434
f 436 437 438
f 438 441 436
f 442 443 444
f 444 445 442
f 446 442 445
f 445 447 446
f 448 446 447
f 447 449 448
f 450 448 449
f 449 451 450
f 453 450 451
f 451 456 453
f 453 456 458
f 459 460 440
f 440 461 459
f 461 440 439
f 462 463 464
f 464 461 462
f 461 464 459
f 465 461 439
f 439 466 465
f 455 467 465
f 465 457 455
f 454 457 465
f 465 466 454
f 467 462 461
f 461 465 467
f 462 468 469
f 469 463 462
f 470 468 462
f 462 467 470
f 452 470 467
f 467 455 452
f 471 472 473
f 473 474 471
f 475 471 474
f 474 476 475
f 477 475 476
f 476 478 477
f 479 477 478
f 478 480 479
f 481 479 480
f 480 482 481
f 483 484 485
f 485 487 483
f 489 490 491
f 491 492 489
f 493 489 492
f 492 494 493
f 495 493 494
f 494 496 495
f 497 495 496
f 496 498 497
f 501 497 498
f 498 502 501
f 501 502 505
f 506 507 488
f 488 508 506
f 508 488 486
f 509 510 511
f 511 508 509
f 508 511 506
f 512 508 486
f 486 513 512
f 503 514 512
f 512 504 503
f 500 504 512
f 512 513 500
f 514 509 508
f 508 512 514
f 509 515 516
f 516 510 509
f 517 515 509
f 509 514 517
f 499 517 514
f 514 503 499
f 518 519 520
f 520 521 518
f 522 518 521
f 521 523 522
f 524 522 523
f 523 525 524
f 526 524 525
f 525 527 526
f 528 526 527
f 527 529 528
f 530 531 533
f 533 534 530
f 536 537 538
f 538 539 536
f 540 536 539
f 539 541 540
f 542 540 541
f 541 543 542
f 544 542 543
f 543 545 544
f 548 544 545
f 545 550 548
f 548 550 551
f 553 554 535
f 535 555 553
f 555 535 532
f 556 557 558
f 558 555 556
f 555 558 553
f 559 555 532
f 532 560 559
f 549 561 559
f 559 552 549
f 547 552 559
f 559 560 547
f 561 556 555
f 555 559 561
f 556 562 563
f 563 557 556
f 564 562 556
f 556 561 564
f 546 564 561
f 561 549 546
f 565 566 567
f 567 568 565
f 569 565 568
f 568 570 569
f 571 569 570
f 570 572 571
f 573 571 572
f 572 574 573
f 575 573 574
f 574 576 575
f 577 578 579
f 579 581 577
f 583 584 585
f 585 586 583
f 587 583 586
f 586 588 587
f 589 587 588
f 588 590 589
f 591 589 590
f 590 592 591
f 595 591 592
f 592 596 595
f 595 596 599
f 600 601 582
f 582 602 600
f 602 582 580
f 603 604 605
f 605 602 603
f 602 605 600
f 606 602 580
f 580 607 606
f 597 608 606
f 606 598 597
f 594 598 606
f 606 607 594
f 608 603 602
f 602 606 608
f 603 609 610
f 610 604 603
f 611 609 603
f 603 608 611
f 593 611 608
f 608 597 593
f 612 613 614
f 614 615 612
f 616 612 615
f 615 617 616
f 618 616 617
f 617 619 618
f 620 618 619
f 619 621 620
f 622 620 621
f 621 623 622
f 624 625 627
f 627 628 624
f 630 631 632
f 632 633 630
f 634 630 633
f 633 635 634
f 636 634 635
f 635 637 636
f 638 636 637
f 637 639 638
f 642 638 639
f 639 643 642
f 642 643 646
f 647 648 629
f 629 649 647
f 649 629 626
f 650 651 652
f 652 649 650
f 649 652 647
f 653 649 626
f 626 654 653
f 644 655 653
f 653 645 644
f 641 645 653
f 653 654 641
f 655 650 649
f 649 653 655
f 650 656 657
f 657 651 650
f 658 656 650
f 650 655 658
f 640 658 655
f 655 644 640
f 659 660 661
f 661 662 659
f 663 659 662
f 662 664 663
f 665 663 664
f 664 666 665
f 667 665 666
f 666 668 667
f 669 667 668
f 668 670 669
f 671 672 673
f 673 675 671
f 677 678 679
f 679 680 677
f 681 677 680
f 680 682 681
f 683 681 682
f 682 684 683
f 685 683 684
f 684 686 685
f 688 685 686
f 686 691 688
f 688 691 693
f 694 695 676
f 676 696 694
f 696 676 674
f 697 698 699
f 699 696 697
f 696 699 694
f 700 696 674
f 674 701 700
f 690 702 700
f 700 692 690
f 689 692 700
f 700 701 689
f 702 697 696
f 696 700 702
f 697 703 704
f 704 698 697
f 705 703 697
f 697 702 705
f 687 705 702
f 702 690 687
f 706 707 708
f 708 709 706
f 710 706 709
f 709 711 710
f 712 710 711
f 711 713 712
f 714 712 713
f 713 715 714
f 716 714 715
f 715 717 716
f 718 719 720
f 720 723 718
f 724 725 726
f 726 727 724
f 728 724 727
f 727 729 728
f 730 728 729
f 729 731 730
f 732 730 731
f 731 734 732
f 735 732 734
f 734 737 735
f 735 737 739
f 741 742 722
f 722 743 741
f 743 722 721
f 744 745 746
f 746 743 744
f 743 746 741
f 747 743 721
f 721 748 747
f 738 749 747
f 747 740 738
f 736 740 747
f 747 748 736
f 749 744 743
f 743 747 749
f 744 750 751
f 751 745 744
f 752 750 744
f 744 749 752
f 733 752 749
f 749 738 733
f 753 754 755
f 755 756 753
f 757 753 756
f 756 758 757
f 759 757 758
f 758 760 759
f 761 759 760
f 760 762 761
f 763 761 762
f 762 764 763
f 765 766 768
f 768 770 765
f 771 772 773
f 773 774 771
f 775 771 774
f 774 776 775
f 777 775 776
f 776 778 777
f 779 777 778
f 778 781 779
f 783 779 781
f 781 784 783
f 783 784 787
f 788 789 769
f 769 790 788
f 790 769 767
f 791 792 793
f 793 790 791
f 790 793 788
f 794 790 767
f 767 795 794
f 785 796 794
f 794 786 785
f 782 786 794
f 794 795 782
f 796 791 790
f 790 794 796
f 791 797 798
f 798 792 791
f 799 797 791
f 791 796 799
f 780 799 796
f 796 785 780
f 800 801 802
f 802 803 800
f 804 800 803
f 803 805 804
f 806 804 805
f 805 807 806
f 808 806 807
f 807 809 808
f 810 808 809
f 809 811 810
f 812 813 815
f 815 816 812
f 818 819 820
f 820 821 818
f 822 818 821
f 821 823 822
f 824 822 823
f 823 825 824
f 826 824 825
f 825 827 826
f 830 826 827
f 827 831 830
f 830 831 834
f 835 836 817
f 817 837 835
f 837 817 814
f 838 839 840
f 840 837 838
f 837 840 835
f 841 837 814
f 814 842 841
f 832 843 841
f 841 833 832
f 829 833 841
f 841 842 829
f 843 838 837
f 837 841 843
f 838 844 845
f 845 839 838
f 846 844 838
f 838 843 846
f 828 846 843
f 843 832 828
f 847 848 849
f 849 850 847
f 851 847 850
f 850 852 851
f 853 851 852
f 852 854 853
f 855 853 854
f 854 856 855
f 857 855 856
f 856 858 857
f 859 860 862
f 862 864 859
f 865 866 867
f 867 868 865
f 869 865 868
f 868 870 869
f 871 869 870
f 870 872 871
f 873 871 872
f 872 875 873
f 876 873 875
f 875 878 876
f 876 878 880
f 882 883 863
f 863 884 882
f 884 863 861
f 885 886 887
f 887 884 885
f 884 887 882
f 888 884 861
f 861 889 888
f 879 890 888
f 888 881 879
f 877 881 888
f 888 889 877
f 890 885 884
f 884 888 890
f 885 891 892
f 892 886 885
f 893 891 885
f 885 890 893
f 874 893 890
f 890 879 874
f 894 895 896
f 896 897 894
f 898 894 897
f 897 899 898
f 900 898 899
f 899 901 900
f 902 900 901
f 901 903 902
f 904 902 903
f 903 905 904
f 906 907 908
f 908 911 906
f 912 913 914
f 914 915 912
f 916 912 915
f 915 917 916
f 918 916 917
f 917 919 918
f 920 918 919
f 919 921 920
f 924 920 921
f 921 925 924
f 924 925 928
f 929 930 910
f 910 931 929
f 931 910 909
f 932 933 934
f 934 931 932
f 931 934 929
f 935 931 909
f 909 936 935
f 926 937 935
f 935 927 926
f 923 927 935
f 935 936 923
f 937 932 931
f 931 935 937
f 932 938 939
f 939 933 932
f 940 938 932
f 932 937 940
f 922 940 937
f 937 926 922
f 941 942 943
f 943 944 941
f 945 941 944
f 944 946 945
f 947 945 946
f 946 948 947
f 949 947 948
f 948 950 949
f 951 949 950
f 950 952 951
f 953 954 955
f 955 957 953
f 959 960 961
f 961 962 959
f 963 959 962
f 962 964 963
f 965 963 964
f 964 966 965
f 967 965 966
f 966 968 967
f 970 967 968
f 968 972 970
f 970 972 974
f 976 977 958
f 958 978 976
f 978 958 956
f 979 980 981
f 981 978 979
f 978 981 976
f 982 978 956
f 956 983 982
f 973 984 982
f 982 975 973
f 971 975 982
f 982 983 971
f 984 979 978
f 978 982 984
f 979 985 986
f 986 980 979
f 987 985 979
f 979 984 987
f 969 987 984
f 984 973 969

