# https://github.com/mikedh/trimesh
v 0.06296729 -0.07925824 0.15017599
v 0.08530080 -0.07925824 0.14723573
v 0.10763428 -0.07925824 0.15017599
v 0.12844576 -0.07925824 0.15879639
v 0.04215579 -0.07925824 0.15879639
v 0.14631702 -0.07925824 0.17250947
v 0.02428456 -0.07925824 0.17250947
v 0.16003008 -0.07925824 0.19038072
v 0.01057147 -0.07925824 0.19038072
v 0.16865049 -0.07925824 0.21119221
v 0.00195108 -0.07925824 0.21119221
v -0.00045275 -0.07925824 0.22945102
v 0.17159077 -0.07925824 0.23352569
v -0.00081936 -0.07925824 0.24297820
v -0.00441172 -0.07925824 0.22858197
v 0.16865049 -0.07925824 0.25585920
v 0.00058978 -0.07925824 0.24551919
v 0.00195108 -0.07925824 0.25585920
v 0.16003008 -0.07925824 0.27667070
v 0.01057147 -0.07925824 0.27667070
v 0.02428456 -0.07925824 0.29454193
v 0.14631702 -0.07925824 0.29454193
v 0.12844576 -0.07925824 0.30825503
v 0.04215579 -0.07925824 0.30825503
v 0.10763428 -0.07925824 0.31687543
v 0.06296729 -0.07925824 0.31687543
v 0.09433234 -0.07925824 0.31862665
v 0.08530080 -0.07925824 0.31981569
v 0.08674796 -0.07925824 0.32023035
f 1 2 3
f 3 4 1
f 5 1 4
f 4 6 5
f 7 5 6
f 6 8 7
f 9 7 8
f 8 10 9
f 11 9 10
f 10 12 11
f 12 10 13
f 13 14 12
f 12 14 15
f 14 13 16
f 16 17 14
f 18 17 16
f 16 19 18
f 20 18 19
f 19 21 20
f 21 19 22
f 22 23 21
f 24 21 23
f 23 25 24
f 26 24 25
f 25 27 26
f 28 26 27
f 27 29 28

