# https://github.com/mikedh/trimesh
v 0.02930255 -0.12309186 0.63463791
v 0.02930255 -0.12309186 0.63463791
v 0.02930255 -0.12309186 0.63463791
v 0.02964804 -0.12316321 0.63679268
v 0.02964804 -0.12316321 0.63679268
v 0.02964804 -0.12316321 0.63679268
v 0.02846727 -0.12319280 0.63699634
v 0.02846727 -0.12319280 0.63699634
v 0.02846727 -0.12319280 0.63699634
v 0.02812178 -0.12312146 0.63484158
v 0.02812178 -0.12312146 0.63484158
v 0.02812178 -0.12312146 0.63484158
v 0.02936260 -0.10800596 0.63738498
v 0.02936260 -0.10800596 0.63738498
v 0.02936260 -0.10800596 0.63738498
v 0.02901711 -0.10793462 0.63523022
v 0.02901711 -0.10793462 0.63523022
v 0.02901711 -0.10793462 0.63523022
v 0.02783634 -0.10796422 0.63543389
v 0.02783634 -0.10796422 0.63543389
v 0.02783634 -0.10796422 0.63543389
v 0.02818184 -0.10803556 0.63758865
v 0.02818184 -0.10803556 0.63758865
v 0.02818184 -0.10803556 0.63758865
f 1 4 8
f 13 18 19
f 2 11 21
f 20 10 7
f 9 5 15
f 3 17 14
f 8 12 1
f 19 22 13
f 21 16 2
f 7 23 20
f 15 24 9
f 14 6 3

