# https://github.com/mikedh/trimesh
v 0.04143418 -0.12623045 0.63912915
v 0.04143418 -0.12623045 0.63912915
v 0.04143418 -0.12623045 0.63912915
v 0.04235127 -0.12641286 0.63912915
v 0.04235127 -0.12641286 0.63912915
v 0.04235127 -0.12641286 0.63912915
v 0.04326836 -0.12623045 0.63912915
v 0.04326836 -0.12623045 0.63912915
v 0.04326836 -0.12623045 0.63912915
v 0.04065670 -0.12571096 0.63912915
v 0.04065670 -0.12571096 0.63912915
v 0.04065670 -0.12571096 0.63912915
v 0.04404584 -0.12571096 0.63912915
v 0.04404584 -0.12571096 0.63912915
v 0.04404584 -0.12571096 0.63912915
v 0.04013721 -0.12493348 0.63912915
v 0.04013721 -0.12493348 0.63912915
v 0.04013721 -0.12493348 0.63912915
v 0.04456533 -0.12493348 0.63912915
v 0.04456533 -0.12493348 0.63912915
v 0.04456533 -0.12493348 0.63912915
v 0.03995479 -0.12401638 0.63912915
v 0.03995479 -0.12401638 0.63912915
v 0.03995479 -0.12401638 0.63912915
v 0.04474775 -0.12401638 0.63912915
v 0.04474775 -0.12401638 0.63912915
v 0.04474775 -0.12401638 0.63912915
v 0.04013721 -0.12309929 0.63912915
v 0.04013721 -0.12309929 0.63912915
v 0.04013721 -0.12309929 0.63912915
v 0.04456533 -0.12309929 0.63912915
v 0.04456533 -0.12309929 0.63912915
v 0.04456533 -0.12309929 0.63912915
v 0.04404584 -0.12232181 0.63912915
v 0.04404584 -0.12232181 0.63912915
v 0.04404584 -0.12232181 0.63912915
v 0.04065670 -0.12232181 0.63912915
v 0.04065670 -0.12232181 0.63912915
v 0.04065670 -0.12232181 0.63912915
v 0.04143418 -0.12180232 0.63912915
v 0.04143418 -0.12180232 0.63912915
v 0.04143418 -0.12180232 0.63912915
v 0.04326836 -0.12180232 0.63912915
v 0.04326836 -0.12180232 0.63912915
v 0.04326836 -0.12180232 0.63912915
v 0.04235127 -0.12161991 0.63912915
v 0.04235127 -0.12161991 0.63912915
v 0.04235127 -0.12161991 0.63912915
v 0.04326836 -0.12623045 0.63751058
v 0.04326836 -0.12623045 0.63751058
v 0.04326836 -0.12623045 0.63751058
v 0.04235127 -0.12641286 0.63751058
v 0.04235127 -0.12641286 0.63751058
v 0.04235127 -0.12641286 0.63751058
v 0.04143418 -0.12623045 0.63751058
v 0.04143418 -0.12623045 0.63751058
v 0.04143418 -0.12623045 0.63751058
v 0.04065671 -0.12571096 0.63751058
v 0.04065671 -0.12571096 0.63751058
v 0.04065671 -0.12571096 0.63751058
v 0.04404584 -0.12571096 0.63751058
v 0.04404584 -0.12571096 0.63751058
v 0.04404584 -0.12571096 0.63751058
v 0.04013721 -0.12493348 0.63751058
v 0.04013721 -0.12493348 0.63751058
v 0.04013721 -0.12493348 0.63751058
v 0.04456533 -0.12493348 0.63751058
v 0.04456533 -0.12493348 0.63751058
v 0.04456533 -0.12493348 0.63751058
v 0.03995479 -0.12401638 0.63751058
v 0.03995479 -0.12401638 0.63751058
v 0.03995479 -0.12401638 0.63751058
v 0.04474776 -0.12401638 0.63751058
v 0.04474776 -0.12401638 0.63751058
v 0.04474776 -0.12401638 0.63751058
v 0.04013721 -0.12309929 0.63751058
v 0.04013721 -0.12309929 0.63751058
v 0.04013721 -0.12309929 0.63751058
v 0.04456533 -0.12309929 0.63751058
v 0.04456533 -0.12309929 0.63751058
v 0.04456533 -0.12309929 0.63751058
v 0.04404584 -0.12232181 0.63751058
v 0.04404584 -0.12232181 0.63751058
v 0.04404584 -0.12232181 0.63751058
v 0.04065670 -0.12232181 0.63751058
v 0.04065670 -0.12232181 0.63751058
v 0.04065670 -0.12232181 0.63751058
v 0.04143418 -0.12180232 0.63751058
v 0.04143418 -0.12180232 0.63751058
v 0.04143418 -0.12180232 0.63751058
v 0.04326836 -0.12180232 0.63751058
v 0.04326836 -0.12180232 0.63751058
v 0.04326836 -0.12180232 0.63751058
v 0.04235127 -0.12161991 0.63751058
v 0.04235127 -0.12161991 0.63751058
v 0.04235127 -0.12161991 0.63751058
v 0.04103967 -0.12516713 0.64208775
v 0.04103967 -0.12516713 0.64208775
v 0.04103967 -0.12516713 0.64208775
v 0.04103967 -0.12516713 0.63912922
v 0.04103967 -0.12516713 0.63912922
v 0.04103967 -0.12516713 0.63912922
v 0.04164903 -0.12557429 0.63912922
v 0.04164903 -0.12557429 0.63912922
v 0.04164903 -0.12557429 0.63912922
v 0.04164902 -0.12557429 0.64208775
v 0.04164902 -0.12557429 0.64208775
v 0.04164902 -0.12557429 0.64208775
v 0.04236780 -0.12159725 0.64208775
v 0.04236780 -0.12159725 0.64208775
v 0.04236780 -0.12159725 0.64208775
v 0.04236780 -0.12159725 0.64296290
v 0.04236780 -0.12159725 0.64296290
v 0.04236780 -0.12159725 0.64296290
v 0.04322568 -0.12176789 0.64296290
v 0.04322568 -0.12176789 0.64296290
v 0.04322568 -0.12176789 0.64296290
v 0.04322568 -0.12176789 0.64208775
v 0.04322568 -0.12176789 0.64208775
v 0.04322568 -0.12176789 0.64208775
v 0.04308658 -0.12557429 0.64208775
v 0.04308658 -0.12557429 0.64208775
v 0.04308658 -0.12557429 0.64208775
v 0.04308658 -0.12557429 0.63912922
v 0.04308658 -0.12557429 0.63912922
v 0.04308658 -0.12557429 0.63912922
v 0.04369594 -0.12516713 0.63912922
v 0.04369594 -0.12516713 0.63912922
v 0.04369594 -0.12516713 0.63912922
v 0.04369594 -0.12516713 0.64208775
v 0.04369594 -0.12516713 0.64208775
v 0.04369594 -0.12516713 0.64208775
v 0.04063251 -0.12455778 0.64208775
v 0.04063251 -0.12455778 0.64208775
v 0.04063251 -0.12455778 0.64208775
v 0.04063251 -0.12455778 0.63912922
v 0.04063251 -0.12455778 0.63912922
v 0.04063251 -0.12455778 0.63912922
v 0.04150992 -0.12591011 0.64296290
v 0.04150992 -0.12591011 0.64296290
v 0.04150992 -0.12591011 0.64296290
v 0.04236780 -0.12608075 0.64296290
v 0.04236780 -0.12608075 0.64296290
v 0.04236780 -0.12608075 0.64296290
v 0.04322568 -0.12591011 0.64296290
v 0.04322568 -0.12591011 0.64296290
v 0.04322568 -0.12591011 0.64296290
v 0.04395295 -0.12542416 0.64296290
v 0.04395295 -0.12542416 0.64296290
v 0.04395295 -0.12542416 0.64296290
v 0.04078264 -0.12542416 0.64296290
v 0.04078264 -0.12542416 0.64296290
v 0.04078264 -0.12542416 0.64296290
v 0.04443891 -0.12469688 0.64296290
v 0.04443891 -0.12469688 0.64296290
v 0.04443891 -0.12469688 0.64296290
v 0.04029669 -0.12469688 0.64296290
v 0.04029669 -0.12469688 0.64296290
v 0.04029669 -0.12469688 0.64296290
v 0.04012605 -0.12383900 0.64296290
v 0.04012605 -0.12383900 0.64296290
v 0.04012605 -0.12383900 0.64296290
v 0.04460955 -0.12383900 0.64296290
v 0.04460955 -0.12383900 0.64296290
v 0.04460955 -0.12383900 0.64296290
v 0.04443891 -0.12298112 0.64296290
v 0.04443891 -0.12298112 0.64296290
v 0.04443891 -0.12298112 0.64296290
v 0.04029669 -0.12298112 0.64296290
v 0.04029669 -0.12298112 0.64296290
v 0.04029669 -0.12298112 0.64296290
v 0.04395295 -0.12225385 0.64296290
v 0.04395295 -0.12225385 0.64296290
v 0.04395295 -0.12225385 0.64296290
v 0.04078264 -0.12225385 0.64296290
v 0.04078264 -0.12225385 0.64296290
v 0.04078264 -0.12225385 0.64296290
v 0.04150992 -0.12176789 0.64296290
v 0.04150992 -0.12176789 0.64296290
v 0.04150992 -0.12176789 0.64296290
v 0.04369594 -0.12251086 0.64208775
v 0.04369594 -0.12251086 0.64208775
v 0.04369594 -0.12251086 0.64208775
v 0.04410309 -0.12312022 0.64208775
v 0.04410309 -0.12312022 0.64208775
v 0.04410309 -0.12312022 0.64208775
v 0.04410309 -0.12312022 0.63912922
v 0.04410309 -0.12312022 0.63912922
v 0.04410309 -0.12312022 0.63912922
v 0.04369594 -0.12251086 0.63912922
v 0.04369594 -0.12251086 0.63912922
v 0.04369594 -0.12251086 0.63912922
v 0.04236780 -0.12571726 0.64208775
v 0.04236780 -0.12571726 0.64208775
v 0.04236780 -0.12571726 0.64208775
v 0.04236780 -0.12571726 0.63912922
v 0.04236780 -0.12571726 0.63912922
v 0.04236780 -0.12571726 0.63912922
v 0.04078264 -0.12225385 0.64208775
v 0.04078264 -0.12225385 0.64208775
v 0.04078264 -0.12225385 0.64208775
v 0.04150992 -0.12176789 0.64208775
v 0.04150992 -0.12176789 0.64208775
v 0.04150992 -0.12176789 0.64208775
v 0.04460955 -0.12383900 0.64208775
v 0.04460955 -0.12383900 0.64208775
v 0.04460955 -0.12383900 0.64208775
v 0.04443891 -0.12298112 0.64208775
v 0.04443891 -0.12298112 0.64208775
v 0.04443891 -0.12298112 0.64208775
v 0.04395295 -0.12225385 0.64208775
v 0.04395295 -0.12225385 0.64208775
v 0.04395295 -0.12225385 0.64208775
v 0.04029669 -0.12298112 0.64208775
v 0.04029669 -0.12298112 0.64208775
v 0.04029669 -0.12298112 0.64208775
v 0.04048954 -0.12383900 0.64208775
v 0.04048954 -0.12383900 0.64208775
v 0.04048954 -0.12383900 0.64208775
v 0.04063251 -0.12312022 0.64208775
v 0.04063251 -0.12312022 0.64208775
v 0.04063251 -0.12312022 0.64208775
v 0.04063251 -0.12312022 0.63912922
v 0.04063251 -0.12312022 0.63912922
v 0.04063251 -0.12312022 0.63912922
v 0.04048954 -0.12383900 0.63912922
v 0.04048954 -0.12383900 0.63912922
v 0.04048954 -0.12383900 0.63912922
v 0.04410309 -0.12455778 0.63912922
v 0.04410309 -0.12455778 0.63912922
v 0.04410309 -0.12455778 0.63912922
v 0.04424607 -0.12383900 0.63912922
v 0.04424607 -0.12383900 0.63912922
v 0.04424607 -0.12383900 0.63912922
v 0.04103967 -0.12251086 0.63912922
v 0.04103967 -0.12251086 0.63912922
v 0.04103967 -0.12251086 0.63912922
v 0.04164903 -0.12210371 0.63912922
v 0.04164903 -0.12210371 0.63912922
v 0.04164903 -0.12210371 0.63912922
v 0.04308658 -0.12210371 0.63912922
v 0.04308658 -0.12210371 0.63912922
v 0.04308658 -0.12210371 0.63912922
v 0.04236780 -0.12196073 0.63912922
v 0.04236780 -0.12196073 0.63912922
v 0.04236780 -0.12196073 0.63912922
v 0.04078264 -0.12542416 0.64208775
v 0.04078264 -0.12542416 0.64208775
v 0.04078264 -0.12542416 0.64208775
v 0.04150992 -0.12591011 0.64208775
v 0.04150992 -0.12591011 0.64208775
v 0.04150992 -0.12591011 0.64208775
v 0.04029669 -0.12469688 0.64208775
v 0.04029669 -0.12469688 0.64208775
v 0.04029669 -0.12469688 0.64208775
v 0.04103967 -0.12251086 0.64208775
v 0.04103967 -0.12251086 0.64208775
v 0.04103967 -0.12251086 0.64208775
v 0.04012605 -0.12383900 0.64208775
v 0.04012605 -0.12383900 0.64208775
v 0.04012605 -0.12383900 0.64208775
v 0.04236780 -0.12608075 0.64208775
v 0.04236780 -0.12608075 0.64208775
v 0.04236780 -0.12608075 0.64208775
v 0.04443891 -0.12469688 0.64208775
v 0.04443891 -0.12469688 0.64208775
v 0.04443891 -0.12469688 0.64208775
v 0.04308658 -0.12210371 0.64208775
v 0.04308658 -0.12210371 0.64208775
v 0.04308658 -0.12210371 0.64208775
v 0.04164902 -0.12210371 0.64208775
v 0.04164902 -0.12210371 0.64208775
v 0.04164902 -0.12210371 0.64208775
v 0.04322568 -0.12591011 0.64208775
v 0.04322568 -0.12591011 0.64208775
v 0.04322568 -0.12591011 0.64208775
v 0.04395295 -0.12542416 0.64208775
v 0.04395295 -0.12542416 0.64208775
v 0.04395295 -0.12542416 0.64208775
v 0.04424607 -0.12383900 0.64208775
v 0.04424607 -0.12383900 0.64208775
v 0.04424607 -0.12383900 0.64208775
v 0.04236780 -0.12196073 0.64208775
v 0.04236780 -0.12196073 0.64208775
v 0.04236780 -0.12196073 0.64208775
v 0.04410309 -0.12455778 0.64208775
v 0.04410309 -0.12455778 0.64208775
v 0.04410309 -0.12455778 0.64208775
v 0.04302545 -0.12551106 0.63222722
v 0.04302545 -0.12551106 0.63222722
v 0.04302545 -0.12551106 0.63222722
v 0.04236538 -0.12564236 0.63222722
v 0.04236538 -0.12564236 0.63222722
v 0.04236538 -0.12564236 0.63222722
v 0.04170530 -0.12551106 0.63222722
v 0.04170530 -0.12551106 0.63222722
v 0.04170530 -0.12551106 0.63222722
v 0.04358504 -0.12513716 0.63222722
v 0.04358504 -0.12513716 0.63222722
v 0.04358504 -0.12513716 0.63222722
v 0.04114572 -0.12513716 0.63222722
v 0.04114572 -0.12513716 0.63222722
v 0.04114572 -0.12513716 0.63222722
v 0.04395894 -0.12457757 0.63222722
v 0.04395894 -0.12457757 0.63222722
v 0.04395894 -0.12457757 0.63222722
v 0.04077181 -0.12457757 0.63222722
v 0.04077181 -0.12457757 0.63222722
v 0.04077181 -0.12457757 0.63222722
v 0.04409025 -0.12391749 0.63222722
v 0.04409025 -0.12391749 0.63222722
v 0.04409025 -0.12391749 0.63222722
v 0.04064051 -0.12391749 0.63222722
v 0.04064051 -0.12391749 0.63222722
v 0.04064051 -0.12391749 0.63222722
v 0.04395894 -0.12325742 0.63222722
v 0.04395894 -0.12325742 0.63222722
v 0.04395894 -0.12325742 0.63222722
v 0.04077181 -0.12325742 0.63222722
v 0.04077181 -0.12325742 0.63222722
v 0.04077181 -0.12325742 0.63222722
v 0.04114572 -0.12269783 0.63222722
v 0.04114572 -0.12269783 0.63222722
v 0.04114572 -0.12269783 0.63222722
v 0.04358504 -0.12269783 0.63222722
v 0.04358504 -0.12269783 0.63222722
v 0.04358504 -0.12269783 0.63222722
v 0.04302545 -0.12232393 0.63222722
v 0.04302545 -0.12232393 0.63222722
v 0.04302545 -0.12232393 0.63222722
v 0.04170530 -0.12232393 0.63222722
v 0.04170530 -0.12232393 0.63222722
v 0.04170530 -0.12232393 0.63222722
v 0.04236538 -0.12219263 0.63222722
v 0.04236538 -0.12219263 0.63222722
v 0.04236538 -0.12219263 0.63222722
v 0.04170530 -0.12551106 0.63751058
v 0.04170530 -0.12551106 0.63751058
v 0.04170530 -0.12551106 0.63751058
v 0.04236538 -0.12564236 0.63751058
v 0.04236538 -0.12564236 0.63751058
v 0.04236538 -0.12564236 0.63751058
v 0.04302545 -0.12551106 0.63751058
v 0.04302545 -0.12551106 0.63751058
v 0.04302545 -0.12551106 0.63751058
v 0.04358504 -0.12513716 0.63751058
v 0.04358504 -0.12513716 0.63751058
v 0.04358504 -0.12513716 0.63751058
v 0.04114572 -0.12513716 0.63751058
v 0.04114572 -0.12513716 0.63751058
v 0.04114572 -0.12513716 0.63751058
v 0.04395894 -0.12457757 0.63751058
v 0.04395894 -0.12457757 0.63751058
v 0.04395894 -0.12457757 0.63751058
v 0.04077181 -0.12457757 0.63751058
v 0.04077181 -0.12457757 0.63751058
v 0.04077181 -0.12457757 0.63751058
v 0.04409025 -0.12391749 0.63751058
v 0.04409025 -0.12391749 0.63751058
v 0.04409025 -0.12391749 0.63751058
v 0.04064051 -0.12391749 0.63751058
v 0.04064051 -0.12391749 0.63751058
v 0.04064051 -0.12391749 0.63751058
v 0.04395894 -0.12325742 0.63751058
v 0.04395894 -0.12325742 0.63751058
v 0.04395894 -0.12325742 0.63751058
v 0.04077181 -0.12325742 0.63751058
v 0.04077181 -0.12325742 0.63751058
v 0.04077181 -0.12325742 0.63751058
v 0.04114572 -0.12269783 0.63751058
v 0.04114572 -0.12269783 0.63751058
v 0.04114572 -0.12269783 0.63751058
v 0.04358504 -0.12269783 0.63751058
v 0.04358504 -0.12269783 0.63751058
v 0.04358504 -0.12269783 0.63751058
v 0.04302545 -0.12232393 0.63751058
v 0.04302545 -0.12232393 0.63751058
v 0.04302545 -0.12232393 0.63751058
v 0.04170530 -0.12232393 0.63751058
v 0.04170530 -0.12232393 0.63751058
v 0.04170530 -0.12232393 0.63751058
v 0.04236538 -0.12219263 0.63751058
v 0.04236538 -0.12219263 0.63751058
v 0.04236538 -0.12219263 0.63751058
v 0.04331902 -0.12614661 0.63060859
v 0.04331902 -0.12614661 0.63060859
v 0.04331902 -0.12614661 0.63060859
v 0.04240193 -0.12632903 0.63060859
v 0.04240193 -0.12632903 0.63060859
v 0.04240193 -0.12632903 0.63060859
v 0.04148484 -0.12614661 0.63060859
v 0.04148484 -0.12614661 0.63060859
v 0.04148484 -0.12614661 0.63060859
v 0.04409650 -0.12562712 0.63060859
v 0.04409650 -0.12562712 0.63060859
v 0.04409650 -0.12562712 0.63060859
v 0.04070736 -0.12562712 0.63060859
v 0.04070736 -0.12562712 0.63060859
v 0.04070736 -0.12562712 0.63060859
v 0.04461599 -0.12484964 0.63060859
v 0.04461599 -0.12484964 0.63060859
v 0.04461599 -0.12484964 0.63060859
v 0.04018787 -0.12484964 0.63060859
v 0.04018787 -0.12484964 0.63060859
v 0.04018787 -0.12484964 0.63060859
v 0.04479841 -0.12393255 0.63060859
v 0.04479841 -0.12393255 0.63060859
v 0.04479841 -0.12393255 0.63060859
v 0.04000545 -0.12393255 0.63060859
v 0.04000545 -0.12393255 0.63060859
v 0.04000545 -0.12393255 0.63060859
v 0.04461599 -0.12301546 0.63060859
v 0.04461599 -0.12301546 0.63060859
v 0.04461599 -0.12301546 0.63060859
v 0.04018787 -0.12301546 0.63060859
v 0.04018787 -0.12301546 0.63060859
v 0.04018787 -0.12301546 0.63060859
v 0.04070736 -0.12223798 0.63060859
v 0.04070736 -0.12223798 0.63060859
v 0.04070736 -0.12223798 0.63060859
v 0.04409650 -0.12223798 0.63060859
v 0.04409650 -0.12223798 0.63060859
v 0.04409650 -0.12223798 0.63060859
v 0.04331902 -0.12171849 0.63060859
v 0.04331902 -0.12171849 0.63060859
v 0.04331902 -0.12171849 0.63060859
v 0.04148484 -0.12171849 0.63060859
v 0.04148484 -0.12171849 0.63060859
v 0.04148484 -0.12171849 0.63060859
v 0.04240193 -0.12153607 0.63060859
v 0.04240193 -0.12153607 0.63060859
v 0.04240193 -0.12153607 0.63060859
v 0.04148484 -0.12614661 0.63222716
v 0.04148484 -0.12614661 0.63222716
v 0.04148484 -0.12614661 0.63222716
v 0.04240193 -0.12632903 0.63222716
v 0.04240193 -0.12632903 0.63222716
v 0.04240193 -0.12632903 0.63222716
v 0.04331902 -0.12614661 0.63222716
v 0.04331902 -0.12614661 0.63222716
v 0.04331902 -0.12614661 0.63222716
v 0.04409650 -0.12562712 0.63222716
v 0.04409650 -0.12562712 0.63222716
v 0.04409650 -0.12562712 0.63222716
v 0.04070736 -0.12562712 0.63222716
v 0.04070736 -0.12562712 0.63222716
v 0.04070736 -0.12562712 0.63222716
v 0.04461599 -0.12484964 0.63222716
v 0.04461599 -0.12484964 0.63222716
v 0.04461599 -0.12484964 0.63222716
v 0.04018787 -0.12484964 0.63222716
v 0.04018787 -0.12484964 0.63222716
v 0.04018787 -0.12484964 0.63222716
v 0.04479841 -0.12393255 0.63222716
v 0.04479841 -0.12393255 0.63222716
v 0.04479841 -0.12393255 0.63222716
v 0.04000545 -0.12393255 0.63222716
v 0.04000545 -0.12393255 0.63222716
v 0.04000545 -0.12393255 0.63222716
v 0.04461599 -0.12301546 0.63222716
v 0.04461599 -0.12301546 0.63222716
v 0.04461599 -0.12301546 0.63222716
v 0.04018787 -0.12301546 0.63222716
v 0.04018787 -0.12301546 0.63222716
v 0.04018787 -0.12301546 0.63222716
v 0.04070736 -0.12223798 0.63222716
v 0.04070736 -0.12223798 0.63222716
v 0.04070736 -0.12223798 0.63222716
v 0.04409650 -0.12223798 0.63222716
v 0.04409650 -0.12223798 0.63222716
v 0.04409650 -0.12223798 0.63222716
v 0.04331902 -0.12171849 0.63222716
v 0.04331902 -0.12171849 0.63222716
v 0.04331902 -0.12171849 0.63222716
v 0.04148484 -0.12171849 0.63222716
v 0.04148484 -0.12171849 0.63222716
v 0.04148484 -0.12171849 0.63222716
v 0.04240193 -0.12153607 0.63222716
v 0.04240193 -0.12153607 0.63222716
v 0.04240193 -0.12153607 0.63222716
v 0.04324325 -0.12582623 0.62677491
v 0.04324325 -0.12582623 0.62677491
v 0.04324325 -0.12582623 0.62677491
v 0.04238537 -0.12599688 0.62677491
v 0.04238537 -0.12599688 0.62677491
v 0.04238537 -0.12599688 0.62677491
v 0.04152749 -0.12582623 0.62677491
v 0.04152749 -0.12582623 0.62677491
v 0.04152749 -0.12582623 0.62677491
v 0.04080021 -0.12534028 0.62677491
v 0.04080021 -0.12534028 0.62677491
v 0.04080021 -0.12534028 0.62677491
v 0.04397053 -0.12534028 0.62677491
v 0.04397053 -0.12534028 0.62677491
v 0.04397053 -0.12534028 0.62677491
v 0.04031427 -0.12461301 0.62677491
v 0.04031427 -0.12461301 0.62677491
v 0.04031427 -0.12461301 0.62677491
v 0.04445647 -0.12461301 0.62677491
v 0.04445647 -0.12461301 0.62677491
v 0.04445647 -0.12461301 0.62677491
v 0.04462712 -0.12375513 0.62677491
v 0.04462712 -0.12375513 0.62677491
v 0.04462712 -0.12375513 0.62677491
v 0.04014362 -0.12375513 0.62677491
v 0.04014362 -0.12375513 0.62677491
v 0.04014362 -0.12375513 0.62677491
v 0.04031427 -0.12289725 0.62677491
v 0.04031427 -0.12289725 0.62677491
v 0.04031427 -0.12289725 0.62677491
v 0.04445647 -0.12289725 0.62677491
v 0.04445647 -0.12289725 0.62677491
v 0.04445647 -0.12289725 0.62677491
v 0.04080021 -0.12216997 0.62677491
v 0.04080021 -0.12216997 0.62677491
v 0.04080021 -0.12216997 0.62677491
v 0.04397053 -0.12216997 0.62677491
v 0.04397053 -0.12216997 0.62677491
v 0.04397053 -0.12216997 0.62677491
v 0.04152749 -0.12168402 0.62677491
v 0.04152749 -0.12168402 0.62677491
v 0.04152749 -0.12168402 0.62677491
v 0.04324325 -0.12168402 0.62677491
v 0.04324325 -0.12168402 0.62677491
v 0.04324325 -0.12168402 0.62677491
v 0.04238537 -0.12151338 0.62677491
v 0.04238537 -0.12151338 0.62677491
v 0.04238537 -0.12151338 0.62677491
v 0.04152749 -0.12582623 0.62765006
v 0.04152749 -0.12582623 0.62765006
v 0.04152749 -0.12582623 0.62765006
v 0.04238537 -0.12599688 0.62765006
v 0.04238537 -0.12599688 0.62765006
v 0.04238537 -0.12599688 0.62765006
v 0.04324325 -0.12582623 0.62765006
v 0.04324325 -0.12582623 0.62765006
v 0.04324325 -0.12582623 0.62765006
v 0.04397053 -0.12534028 0.62765006
v 0.04397053 -0.12534028 0.62765006
v 0.04397053 -0.12534028 0.62765006
v 0.04238537 -0.12563339 0.62765006
v 0.04238537 -0.12563339 0.62765006
v 0.04238537 -0.12563339 0.62765006
v 0.04310415 -0.12549041 0.62765006
v 0.04310415 -0.12549041 0.62765006
v 0.04310415 -0.12549041 0.62765006
v 0.04371350 -0.12508326 0.62765006
v 0.04371350 -0.12508326 0.62765006
v 0.04371350 -0.12508326 0.62765006
v 0.04445647 -0.12461301 0.62765006
v 0.04445647 -0.12461301 0.62765006
v 0.04445647 -0.12461301 0.62765006
v 0.04412066 -0.12447391 0.62765006
v 0.04412066 -0.12447391 0.62765006
v 0.04412066 -0.12447391 0.62765006
v 0.04462712 -0.12375513 0.62765006
v 0.04462712 -0.12375513 0.62765006
v 0.04462712 -0.12375513 0.62765006
v 0.04426363 -0.12375513 0.62765006
v 0.04426363 -0.12375513 0.62765006
v 0.04426363 -0.12375513 0.62765006
v 0.04445647 -0.12289725 0.62765006
v 0.04445647 -0.12289725 0.62765006
v 0.04445647 -0.12289725 0.62765006
v 0.04412066 -0.12303635 0.62765006
v 0.04412066 -0.12303635 0.62765006
v 0.04412066 -0.12303635 0.62765006
v 0.04371350 -0.12242700 0.62765006
v 0.04371350 -0.12242700 0.62765006
v 0.04371350 -0.12242700 0.62765006
v 0.04397053 -0.12216997 0.62765006
v 0.04397053 -0.12216997 0.62765006
v 0.04397053 -0.12216997 0.62765006
v 0.04310415 -0.12201984 0.62765006
v 0.04310415 -0.12201984 0.62765006
v 0.04310415 -0.12201984 0.62765006
v 0.04324325 -0.12168402 0.62765006
v 0.04324325 -0.12168402 0.62765006
v 0.04324325 -0.12168402 0.62765006
v 0.04238537 -0.12187686 0.62765006
v 0.04238537 -0.12187686 0.62765006
v 0.04238537 -0.12187686 0.62765006
v 0.04152749 -0.12168402 0.62765006
v 0.04152749 -0.12168402 0.62765006
v 0.04152749 -0.12168402 0.62765006
v 0.04166659 -0.12201984 0.62765006
v 0.04166659 -0.12201984 0.62765006
v 0.04166659 -0.12201984 0.62765006
v 0.04080021 -0.12216997 0.62765006
v 0.04080021 -0.12216997 0.62765006
v 0.04080021 -0.12216997 0.62765006
v 0.04105724 -0.12242700 0.62765006
v 0.04105724 -0.12242700 0.62765006
v 0.04105724 -0.12242700 0.62765006
v 0.04031427 -0.12289725 0.62765006
v 0.04031427 -0.12289725 0.62765006
v 0.04031427 -0.12289725 0.62765006
v 0.04065008 -0.12303635 0.62765006
v 0.04065008 -0.12303635 0.62765006
v 0.04065008 -0.12303635 0.62765006
v 0.04014362 -0.12375513 0.62765006
v 0.04014362 -0.12375513 0.62765006
v 0.04014362 -0.12375513 0.62765006
v 0.04050711 -0.12375513 0.62765006
v 0.04050711 -0.12375513 0.62765006
v 0.04050711 -0.12375513 0.62765006
v 0.04065008 -0.12447391 0.62765006
v 0.04065008 -0.12447391 0.62765006
v 0.04065008 -0.12447391 0.62765006
v 0.04031427 -0.12461301 0.62765006
v 0.04031427 -0.12461301 0.62765006
v 0.04031427 -0.12461301 0.62765006
v 0.04105724 -0.12508326 0.62765006
v 0.04105724 -0.12508326 0.62765006
v 0.04105724 -0.12508326 0.62765006
v 0.04080021 -0.12534028 0.62765006
v 0.04080021 -0.12534028 0.62765006
v 0.04080021 -0.12534028 0.62765006
v 0.04166659 -0.12549041 0.62765006
v 0.04166659 -0.12549041 0.62765006
v 0.04166659 -0.12549041 0.62765006
v 0.04238537 -0.12151338 0.62765006
v 0.04238537 -0.12151338 0.62765006
v 0.04238537 -0.12151338 0.62765006
v 0.04166659 -0.12549041 0.63060859
v 0.04166659 -0.12549041 0.63060859
v 0.04166659 -0.12549041 0.63060859
v 0.04238537 -0.12563339 0.63060859
v 0.04238537 -0.12563339 0.63060859
v 0.04238537 -0.12563339 0.63060859
v 0.04310415 -0.12549041 0.63060859
v 0.04310415 -0.12549041 0.63060859
v 0.04310415 -0.12549041 0.63060859
v 0.04371350 -0.12508326 0.63060859
v 0.04371350 -0.12508326 0.63060859
v 0.04371350 -0.12508326 0.63060859
v 0.04105724 -0.12508326 0.63060859
v 0.04105724 -0.12508326 0.63060859
v 0.04105724 -0.12508326 0.63060859
v 0.04412066 -0.12447391 0.63060859
v 0.04412066 -0.12447391 0.63060859
v 0.04412066 -0.12447391 0.63060859
v 0.04065008 -0.12447391 0.63060859
v 0.04065008 -0.12447391 0.63060859
v 0.04065008 -0.12447391 0.63060859
v 0.04426363 -0.12375513 0.63060859
v 0.04426363 -0.12375513 0.63060859
v 0.04426363 -0.12375513 0.63060859
v 0.04050711 -0.12375513 0.63060859
v 0.04050711 -0.12375513 0.63060859
v 0.04050711 -0.12375513 0.63060859
v 0.04412066 -0.12303635 0.63060859
v 0.04412066 -0.12303635 0.63060859
v 0.04412066 -0.12303635 0.63060859
v 0.04065008 -0.12303635 0.63060859
v 0.04065008 -0.12303635 0.63060859
v 0.04065008 -0.12303635 0.63060859
v 0.04371350 -0.12242700 0.63060859
v 0.04371350 -0.12242700 0.63060859
v 0.04371350 -0.12242700 0.63060859
v 0.04105724 -0.12242700 0.63060859
v 0.04105724 -0.12242700 0.63060859
v 0.04105724 -0.12242700 0.63060859
v 0.04310415 -0.12201984 0.63060859
v 0.04310415 -0.12201984 0.63060859
v 0.04310415 -0.12201984 0.63060859
v 0.04166659 -0.12201984 0.63060859
v 0.04166659 -0.12201984 0.63060859
v 0.04166659 -0.12201984 0.63060859
v 0.04238537 -0.12187686 0.63060859
v 0.04238537 -0.12187686 0.63060859
v 0.04238537 -0.12187686 0.63060859
f 3 5 9
f 9 10 3
f 10 9 15
f 15 17 10
f 17 15 20
f 20 23 17
f 23 20 27
f 27 28 23
f 28 27 32
f 32 36 28
f 37 28 36
f 36 40 37
f 40 36 44
f 44 48 40
f 50 53 56
f 56 59 50
f 62 50 59
f 59 65 62
f 67 62 65
f 65 70 67
f 73 67 70
f 70 78 73
f 81 73 78
f 78 82 81
f 82 78 87
f 87 88 82
f 92 82 88
f 88 94 92
f 96 46 43
f 43 91 96
f 93 45 34
f 34 84 93
f 35 33 79
f 79 83 35
f 31 25 74
f 74 80 31
f 26 19 69
f 69 75 26
f 21 13 63
f 63 68 21
f 8 49 61
f 61 14 8
f 4 52 51
f 51 7 4
f 2 57 54
f 54 6 2
f 12 60 55
f 55 1 12
f 11 16 64
f 64 58 11
f 18 22 71
f 71 66 18
f 24 30 77
f 77 72 24
f 29 38 85
f 85 76 29
f 86 39 41
f 41 90 86
f 89 42 47
f 47 95 89
f 98 101 103
f 103 106 98
f 109 112 115
f 115 118 109
f 121 124 127
f 127 132 121
f 97 134 136
f 136 102 97
f 140 144 147
f 147 148 140
f 153 140 148
f 148 155 153
f 159 153 155
f 155 160 159
f 160 155 164
f 164 167 160
f 171 160 167
f 167 174 171
f 177 171 174
f 174 116 177
f 180 177 116
f 116 113 180
f 183 184 187
f 187 192 183
f 194 197 125
f 125 122 194
f 199 175 179
f 179 203 199
f 166 165 207
f 207 209 166
f 172 168 208
f 208 212 172
f 170 176 201
f 201 215 170
f 218 220 223
f 223 226 218
f 126 198 104
f 104 100 126
f 128 126 100
f 100 138 128
f 229 128 138
f 138 227 229
f 234 229 227
f 227 224 234
f 188 234 224
f 224 235 188
f 190 188 235
f 235 240 190
f 242 190 240
f 240 246 242
f 151 249 250
f 250 139 151
f 119 117 173
f 173 213 119
f 152 157 254
f 254 248 152
f 221 256 237
f 237 225 221
f 158 162 259
f 259 253 158
f 141 252 263
f 263 142 141
f 161 169 214
f 214 260 161
f 133 219 228
f 228 137 133
f 163 154 265
f 265 206 163
f 241 268 182
f 182 191 241
f 236 258 273
f 273 238 236
f 204 178 114
f 114 110 204
f 143 262 275
f 275 145 143
f 108 105 196
f 196 193 108
f 156 150 279
f 279 266 156
f 185 282 232
f 232 189 185
f 245 285 270
f 270 243 245
f 239 272 284
f 284 244 239
f 276 264 251
f 251 247 276
f 195 276 247
f 247 107 195
f 99 107 247
f 247 255 99
f 135 99 255
f 255 261 135
f 217 135 261
f 261 216 217
f 222 217 216
f 216 257 222
f 257 216 200
f 200 271 257
f 271 200 202
f 202 283 271
f 283 202 120
f 120 269 283
f 269 120 211
f 211 181 269
f 181 211 210
f 210 186 181
f 186 210 205
f 205 280 186
f 286 280 205
f 205 267 286
f 130 286 267
f 267 277 130
f 123 130 277
f 277 195 123
f 195 277 276
f 120 202 111
f 281 288 231
f 231 233 281
f 287 131 129
f 129 230 287
f 146 274 278
f 278 149 146
f 291 294 295
f 295 300 291
f 300 295 303
f 303 306 300
f 306 303 307
f 307 310 306
f 310 307 315
f 315 318 310
f 318 315 319
f 319 324 318
f 325 318 324
f 324 328 325
f 328 324 332
f 332 335 328
f 339 340 343
f 343 346 339
f 351 339 346
f 346 352 351
f 356 351 352
f 352 358 356
f 363 356 358
f 358 364 363
f 367 363 364
f 364 370 367
f 370 364 375
f 375 376 370
f 380 370 376
f 376 382 380
f 384 334 331
f 331 379 384
f 381 333 323
f 323 371 381
f 322 321 368
f 368 372 322
f 320 313 361
f 361 369 320
f 314 309 357
f 357 362 314
f 308 301 350
f 350 355 308
f 297 338 349
f 349 302 297
f 293 341 337
f 337 296 293
f 289 345 342
f 342 292 289
f 298 347 344
f 344 290 298
f 299 305 353
f 353 348 299
f 304 311 360
f 360 354 304
f 312 316 366
f 366 359 312
f 317 327 374
f 374 365 317
f 373 326 330
f 330 377 373
f 378 329 336
f 336 383 378
f 386 388 393
f 393 395 386
f 395 393 399
f 399 400 395
f 400 399 405
f 405 407 400
f 407 405 410
f 410 412 407
f 412 410 417
f 417 419 412
f 423 412 419
f 419 424 423
f 424 419 428
f 428 431 424
f 433 438 440
f 440 444 433
f 446 433 444
f 444 450 446
f 453 446 450
f 450 456 453
f 457 453 456
f 456 462 457
f 463 457 462
f 462 466 463
f 466 462 471
f 471 472 466
f 477 466 472
f 472 478 477
f 479 432 429
f 429 475 479
f 476 427 418
f 418 467 476
f 420 416 465
f 465 468 420
f 415 409 459
f 459 464 415
f 411 403 452
f 452 458 411
f 404 398 445
f 445 451 404
f 391 435 447
f 447 397 391
f 389 436 434
f 434 392 389
f 385 439 437
f 437 390 385
f 394 442 441
f 441 387 394
f 396 402 448
f 448 443 396
f 401 406 455
f 455 449 401
f 408 414 461
f 461 454 408
f 413 422 470
f 470 460 413
f 469 421 426
f 426 474 469
f 473 425 430
f 430 480 473
f 483 484 488
f 488 490 483
f 493 483 490
f 490 496 493
f 501 493 496
f 496 502 501
f 502 496 505
f 505 510 502
f 511 502 510
f 510 516 511
f 519 511 516
f 516 521 519
f 524 519 521
f 521 527 524
f 530 532 537
f 537 539 530
f 541 530 539
f 539 546 541
f 549 546 539
f 539 550 549
f 553 549 550
f 550 557 553
f 561 553 557
f 557 562 561
f 565 561 562
f 562 570 565
f 570 562 571
f 571 576 570
f 576 571 578
f 578 582 576
f 582 578 583
f 583 588 582
f 588 583 590
f 590 593 588
f 593 590 595
f 595 600 593
f 600 595 602
f 602 606 600
f 607 606 602
f 602 610 607
f 615 607 610
f 610 617 615
f 620 615 617
f 617 541 620
f 541 617 530
f 583 578 624
f 623 528 520
f 520 584 623
f 585 522 515
f 515 589 585
f 514 508 596
f 596 591 514
f 509 507 601
f 601 597 509
f 506 498 612
f 612 603 506
f 497 491 618
f 618 611 497
f 487 529 616
f 616 492 487
f 485 534 531
f 531 489 485
f 481 536 533
f 533 486 481
f 495 538 535
f 535 482 495
f 494 499 551
f 551 540 494
f 500 503 558
f 558 552 500
f 504 512 564
f 564 556 504
f 513 518 572
f 572 563 513
f 573 517 525
f 525 579 573
f 577 523 526
f 526 622 577
f 627 629 631
f 631 634 627
f 637 627 634
f 634 641 637
f 644 637 641
f 641 646 644
f 649 644 646
f 646 653 649
f 655 649 653
f 653 660 655
f 663 655 660
f 660 664 663
f 667 663 664
f 664 672 667
f 548 554 640
f 640 635 548
f 555 560 648
f 648 642 555
f 559 566 652
f 652 647 559
f 567 569 659
f 659 654 567
f 658 568 575
f 575 665 658
f 666 574 581
f 581 671 666
f 670 580 586
f 586 668 670
f 669 587 592
f 592 662 669
f 594 598 656
f 656 661 594
f 599 604 650
f 650 657 599
f 605 608 645
f 645 651 605
f 609 613 639
f 639 643 609
f 619 625 638
f 638 614 619
f 543 630 626
f 626 621 543
f 544 632 628
f 628 542 544
f 547 636 633
f 633 545 547

