# https://github.com/mikedh/trimesh
v -0.02221460 -0.11255083 0.34856784
v -0.05738667 -0.11255083 0.33984318
v -0.05736371 -0.11273955 0.33976842
v -0.02220678 -0.11273955 0.34848931
v -0.02221726 -0.11234833 0.34859461
v -0.05739451 -0.11234833 0.33986870
v -0.05738667 -0.11214581 0.33984318
v -0.02221460 -0.11214581 0.34856784
v -0.05736371 -0.11195710 0.33976842
v -0.02220678 -0.11195710 0.34848931
v -0.05732719 -0.11179505 0.33964948
v -0.02219433 -0.11179505 0.34836442
v -0.02217811 -0.11167071 0.34820162
v -0.05727959 -0.11167071 0.33949447
v -0.02215923 -0.11159254 0.34801206
v -0.05722418 -0.11159254 0.33931398
v -0.02213896 -0.11156588 0.34780863
v -0.05716470 -0.11156588 0.33912028
v -0.02211869 -0.11159254 0.34760521
v -0.05710521 -0.11159254 0.33892657
v -0.02209982 -0.11167071 0.34741561
v -0.05704979 -0.11167071 0.33874608
v -0.02208361 -0.11179505 0.34725284
v -0.05700219 -0.11179505 0.33859108
v -0.05696568 -0.11195710 0.33847213
v -0.02207116 -0.11195710 0.34712792
v -0.05694271 -0.11214581 0.33839737
v -0.02206335 -0.11214581 0.34704942
v -0.05693489 -0.11234833 0.33837186
v -0.02206068 -0.11234833 0.34702262
v -0.02206335 -0.11255083 0.34704942
v -0.05694271 -0.11255083 0.33839737
v -0.02207116 -0.11273955 0.34712792
v -0.05696568 -0.11273955 0.33847213
v -0.02208361 -0.11290159 0.34725284
v -0.05700219 -0.11290159 0.33859108
v -0.05704979 -0.11302593 0.33874608
v -0.02209982 -0.11302593 0.34741561
v -0.05710521 -0.11310410 0.33892657
v -0.02211869 -0.11310410 0.34760521
v -0.05716470 -0.11313076 0.33912028
v -0.02213896 -0.11313076 0.34780863
v -0.05732719 -0.11290159 0.33964948
v -0.05727959 -0.11302593 0.33949447
v -0.02217811 -0.11302593 0.34820162
v -0.02219433 -0.11290159 0.34836442
v -0.05722418 -0.11310410 0.33931398
v -0.02215923 -0.11310410 0.34801206
v 0.02672497 -0.11348064 0.34546348
v 0.02672497 -0.11348064 0.34546348
v 0.02670854 -0.11364269 0.34533984
v 0.02670854 -0.11364269 0.34533984
v 0.02651195 -0.11288691 0.34403947
v 0.02651195 -0.11288691 0.34403947
v 0.02651003 -0.11308941 0.34401288
v 0.02651003 -0.11308941 0.34401288
v 0.02652145 -0.11269820 0.34411720
v 0.02652145 -0.11269820 0.34411720
v 0.02653789 -0.11253615 0.34424084
v 0.02653789 -0.11253615 0.34424084
v 0.02656014 -0.11241180 0.34440189
v 0.02656014 -0.11241180 0.34440189
v 0.02658669 -0.11233364 0.34458942
v 0.02658669 -0.11233364 0.34458942
v 0.02661572 -0.11230698 0.34479067
v 0.02661572 -0.11230698 0.34479067
v 0.02657311 -0.11376703 0.34440130
v 0.02657311 -0.11376703 0.34440130
v 0.02660115 -0.11384519 0.34458878
v 0.02660115 -0.11384519 0.34458878
v 0.02654849 -0.11364269 0.34424035
v 0.02654849 -0.11364269 0.34424035
v 0.12400758 -0.11157713 0.32118808
v 0.12400758 -0.11157713 0.32118808
v 0.12400758 -0.11157713 0.32118808
v 0.12013723 -0.11047138 0.32160000
v 0.12013723 -0.11047138 0.32160000
v 0.12013790 -0.11046332 0.32160325
v 0.12013790 -0.11046332 0.32160325
v 0.12402292 -0.11138831 0.32126438
v 0.12402292 -0.11138831 0.32126438
v 0.12402292 -0.11138831 0.32126438
v 0.12398057 -0.11173939 0.32106712
v 0.12398057 -0.11173939 0.32106712
v 0.12398057 -0.11173939 0.32106712
v 0.12013609 -0.11047829 0.32159484
v 0.12013609 -0.11047829 0.32159484
v 0.12394371 -0.11186402 0.32090969
v 0.12394371 -0.11186402 0.32090969
v 0.12394371 -0.11186402 0.32090969
v 0.12013453 -0.11048361 0.32158813
v 0.12013453 -0.11048361 0.32158813
v 0.12389955 -0.11194253 0.32072653
v 0.12389955 -0.11194253 0.32072653
v 0.12389955 -0.11194253 0.32072653
v 0.12013263 -0.11048696 0.32158031
v 0.12013263 -0.11048696 0.32158031
v 0.12385110 -0.11196957 0.32053016
v 0.12385110 -0.11196957 0.32053016
v 0.12385110 -0.11196957 0.32053016
v 0.12013058 -0.11048811 0.32157194
v 0.12013058 -0.11048811 0.32157194
v 0.12380162 -0.11194330 0.32033391
v 0.12380162 -0.11194330 0.32033391
v 0.12380162 -0.11194330 0.32033391
v 0.12012846 -0.11048699 0.32156357
v 0.12012846 -0.11048699 0.32156357
v 0.12375448 -0.11186550 0.32015121
v 0.12375448 -0.11186550 0.32015121
v 0.12375448 -0.11186550 0.32015121
v 0.12012643 -0.11048368 0.32155578
v 0.12012643 -0.11048368 0.32155578
v 0.12371296 -0.11174149 0.31999446
v 0.12371296 -0.11174149 0.31999446
v 0.12371296 -0.11174149 0.31999446
v 0.12012469 -0.11047838 0.32154909
v 0.12012469 -0.11047838 0.32154909
v 0.12367982 -0.11157971 0.31987437
v 0.12367982 -0.11157971 0.31987437
v 0.12367982 -0.11157971 0.31987437
v 0.12012327 -0.11047149 0.32154397
v 0.12012327 -0.11047149 0.32154397
v 0.12365734 -0.11139119 0.31979912
v 0.12365734 -0.11139119 0.31979912
v 0.12365734 -0.11139119 0.31979912
v 0.12012233 -0.11046344 0.32154075
v 0.12012233 -0.11046344 0.32154075
v 0.12364707 -0.11118876 0.31977383
v 0.12364707 -0.11118876 0.31977383
v 0.12364707 -0.11118876 0.31977383
v 0.12012190 -0.11045481 0.32153968
v 0.12012190 -0.11045481 0.32153968
v 0.12012199 -0.11044618 0.32154081
v 0.12012199 -0.11044618 0.32154081
v 0.12364971 -0.11098624 0.31980023
v 0.12364971 -0.11098624 0.31980023
v 0.12364971 -0.11098624 0.31980023
v 0.12012263 -0.11043812 0.32154406
v 0.12012263 -0.11043812 0.32154406
v 0.12366504 -0.11079742 0.31987652
v 0.12366504 -0.11079742 0.31987652
v 0.12366504 -0.11079742 0.31987652
v 0.12012380 -0.11043121 0.32154922
v 0.12012380 -0.11043121 0.32154922
v 0.12369205 -0.11063516 0.31999749
v 0.12369205 -0.11063516 0.31999749
v 0.12369205 -0.11063516 0.31999749
v 0.12372888 -0.11051053 0.32015492
v 0.12372888 -0.11051053 0.32015492
v 0.12372888 -0.11051053 0.32015492
v 0.12012536 -0.11042590 0.32155593
v 0.12012536 -0.11042590 0.32155593
v 0.12377307 -0.11043201 0.32033808
v 0.12377307 -0.11043201 0.32033808
v 0.12377307 -0.11043201 0.32033808
v 0.12012723 -0.11042255 0.32156375
v 0.12012723 -0.11042255 0.32156375
v 0.12382154 -0.11040497 0.32053445
v 0.12382154 -0.11040497 0.32053445
v 0.12382154 -0.11040497 0.32053445
v 0.12012932 -0.11042140 0.32157212
v 0.12012932 -0.11042140 0.32157212
v 0.12387101 -0.11043125 0.32073070
v 0.12387101 -0.11043125 0.32073070
v 0.12387101 -0.11043125 0.32073070
v 0.12013140 -0.11042251 0.32158049
v 0.12013140 -0.11042251 0.32158049
v 0.12391814 -0.11050903 0.32091340
v 0.12391814 -0.11050903 0.32091340
v 0.12391814 -0.11050903 0.32091340
v 0.12013343 -0.11042583 0.32158828
v 0.12013343 -0.11042583 0.32158828
v 0.12395969 -0.11063305 0.32107015
v 0.12395969 -0.11063305 0.32107015
v 0.12395969 -0.11063305 0.32107015
v 0.12013520 -0.11043112 0.32159497
v 0.12013520 -0.11043112 0.32159497
v 0.12013661 -0.11043802 0.32160009
v 0.12013661 -0.11043802 0.32160009
v 0.12399283 -0.11079483 0.32119023
v 0.12399283 -0.11079483 0.32119023
v 0.12399283 -0.11079483 0.32119023
v 0.12013756 -0.11044606 0.32160331
v 0.12013756 -0.11044606 0.32160331
v 0.12050342 -0.11049675 0.32157142
v 0.12050342 -0.11049675 0.32157142
v 0.12050342 -0.11049675 0.32157142
v 0.12401528 -0.11098336 0.32126548
v 0.12401528 -0.11098336 0.32126548
v 0.12401528 -0.11098336 0.32126548
v 0.12013803 -0.11045469 0.32160438
v 0.12013803 -0.11045469 0.32160438
v 0.12402555 -0.11118578 0.32129078
v 0.12402555 -0.11118578 0.32129078
v 0.12402555 -0.11118578 0.32129078
v 0.02667330 -0.11241180 0.34517934
v 0.02667330 -0.11241180 0.34517934
v 0.02669794 -0.11253615 0.34534033
v 0.02669794 -0.11253615 0.34534033
v 0.02671747 -0.11269820 0.34546381
v 0.02671747 -0.11269820 0.34546381
v 0.02651583 -0.11329193 0.34403928
v 0.02651583 -0.11329193 0.34403928
v 0.02673446 -0.11329193 0.34554121
v 0.02673446 -0.11329193 0.34554121
v 0.02663071 -0.11387186 0.34479000
v 0.02663071 -0.11387186 0.34479000
v 0.02665975 -0.11384519 0.34499122
v 0.02665975 -0.11384519 0.34499122
v 0.02673058 -0.11288691 0.34554139
v 0.02673058 -0.11288691 0.34554139
v 0.02673638 -0.11308941 0.34556780
v 0.02673638 -0.11308941 0.34556780
v 0.02652895 -0.11348064 0.34411686
v 0.02652895 -0.11348064 0.34411686
v 0.02668629 -0.11376703 0.34517876
v 0.02668629 -0.11376703 0.34517876
v -0.05837829 -0.11156588 0.33867356
v -0.05837829 -0.11156588 0.33867356
v -0.05837829 -0.11159254 0.33888916
v -0.05837829 -0.11159254 0.33888916
v -0.05837829 -0.11167071 0.33825705
v -0.05837829 -0.11167071 0.33825705
v -0.05837829 -0.11159254 0.33845796
v -0.05837829 -0.11159254 0.33845796
v -0.05837829 -0.11167071 0.33909007
v -0.05837829 -0.11167071 0.33909007
v -0.05837829 -0.11255083 0.33947819
v -0.05837829 -0.11255083 0.33947819
v -0.05837829 -0.11273955 0.33939496
v -0.05837829 -0.11273955 0.33939496
v -0.05837829 -0.11273955 0.33795216
v -0.05837829 -0.11273955 0.33795216
v -0.05837829 -0.11255083 0.33786894
v -0.05837829 -0.11255083 0.33786894
v -0.05837829 -0.11179505 0.33926259
v -0.05837829 -0.11179505 0.33926259
v -0.05837829 -0.11179505 0.33808453
v -0.05837829 -0.11179505 0.33808453
v -0.05837829 -0.11234833 0.33950658
v -0.05837829 -0.11214581 0.33947819
v -0.05837829 -0.11214581 0.33947819
v -0.05837829 -0.11234833 0.33784057
v -0.05837829 -0.11290159 0.33926259
v -0.05837829 -0.11290159 0.33926259
v -0.05837829 -0.11214581 0.33786894
v -0.05837829 -0.11214581 0.33786894
v -0.05837829 -0.11290159 0.33808453
v -0.05837829 -0.11290159 0.33808453
v -0.05837829 -0.11313076 0.33867356
v -0.05837829 -0.11313076 0.33867356
v -0.05837829 -0.11310410 0.33845796
v -0.05837829 -0.11310410 0.33845796
v -0.05837829 -0.11302593 0.33909007
v -0.05837829 -0.11302593 0.33909007
v -0.05837829 -0.11310410 0.33888916
v -0.05837829 -0.11310410 0.33888916
v -0.05837829 -0.11195710 0.33939496
v -0.05837829 -0.11195710 0.33939496
v -0.05837829 -0.11195710 0.33795216
v -0.05837829 -0.11195710 0.33795216
v -0.05837829 -0.11302593 0.33825705
v -0.05837829 -0.11302593 0.33825705
v -0.07559197 -0.11273955 0.33305882
v -0.07559197 -0.11290159 0.33292644
v -0.07559197 -0.11195710 0.33305882
v -0.07559197 -0.11214581 0.33314204
v -0.07559197 -0.11234833 0.33317043
v -0.07559197 -0.11255083 0.33314204
v -0.07548720 -0.11167071 0.33279250
v -0.07559197 -0.11169502 0.33278766
v -0.07559197 -0.11179505 0.33292644
v -0.07342060 -0.11290159 0.33254765
v -0.07297339 -0.11273955 0.33257991
v -0.07264533 -0.11255083 0.33261744
v -0.07559197 -0.11302593 0.33275393
v -0.07559197 -0.11310410 0.33255302
v -0.07559197 -0.11310989 0.33250622
v -0.07514466 -0.11313076 0.33250208
v -0.07322413 -0.11167071 0.33279250
v -0.07372769 -0.11159254 0.33280805
v -0.07429901 -0.11156588 0.33281335
v -0.07454454 -0.11310410 0.33250739
v -0.07395648 -0.11302593 0.33252293
v 0.02664526 -0.11233364 0.34499186
v 0.02664526 -0.11233364 0.34499186
v 0.02664526 -0.11233364 0.34499186
v -0.07282263 -0.11179505 0.33276775
v -0.07245877 -0.11234833 0.33265770
v -0.07242645 -0.11214581 0.33269799
v -0.07255056 -0.11195710 0.33273553
v -0.07489914 -0.11159254 0.33280805
v 0.02607762 -0.11232501 0.34502697
v 0.02609248 -0.11232494 0.34502378
v 0.02608652 -0.11232461 0.34502418
v 0.12260818 -0.14797112 0.18846167
v 0.12260818 -0.14797112 0.18846167
v 0.12177406 -0.14853554 0.18515968
v 0.12157824 -0.14858645 0.18519436
v 0.12239245 -0.14803552 0.18841748
v 0.12239245 -0.14803552 0.18841748
v -0.00916137 -0.13074032 0.30944206
v -0.00916137 -0.13074032 0.30944206
v -0.00927445 -0.13086446 0.30932345
v -0.00927445 -0.13086446 0.30932345
v -0.04622378 -0.13418181 0.33821878
v -0.04622378 -0.13418181 0.33821878
v -0.04612892 -0.13405931 0.33835165
v -0.04612892 -0.13405931 0.33835165
v -0.00944200 -0.13141884 0.30915683
v -0.00944200 -0.13141884 0.30915683
v -0.04634973 -0.13473245 0.33801965
v -0.04634973 -0.13473245 0.33801965
v -0.04633808 -0.13453026 0.33804694
v -0.04633808 -0.13453026 0.33804694
v -0.00941971 -0.13121569 0.30917581
v -0.00941971 -0.13121569 0.30917581
v -0.04632927 -0.13493525 0.33803486
v -0.04632927 -0.13493525 0.33803486
v -0.00942791 -0.13162221 0.30917703
v -0.00942791 -0.13162221 0.30917703
v -0.04627811 -0.13512483 0.33809153
v -0.04627811 -0.13512483 0.33809153
v -0.00937840 -0.13181194 0.30923499
v -0.00937840 -0.13181194 0.30923499
v -0.05482789 -0.13434245 0.34802987
v -0.05990027 -0.13434245 0.36631681
v -0.05977340 -0.13418181 0.36633092
v -0.05470722 -0.13418181 0.34806630
v -0.05455091 -0.13405931 0.34811353
v -0.05960906 -0.13405931 0.36634917
v 0.11641306 -0.15271330 0.16158339
v 0.11126659 -0.15308297 0.15942075
v 0.11117484 -0.15295905 0.15955648
v 0.11631810 -0.15258962 0.16171777
v -0.05490907 -0.13493525 0.34800534
v -0.05998562 -0.13493525 0.36630737
v -0.06001012 -0.13473245 0.36630464
v -0.05493237 -0.13473245 0.34799832
v -0.05922036 -0.13473245 0.38225330
v -0.05922036 -0.13473245 0.38225330
v -0.05919148 -0.13453026 0.38225186
v -0.05919148 -0.13453026 0.38225186
v -0.05998101 -0.13453026 0.36630786
v 0.02124816 -0.13086433 0.28949604
v 0.01351500 -0.13217629 0.28182070
v 0.01338108 -0.13205370 0.28191497
v 0.02112856 -0.13073931 0.28960447
v 0.01323097 -0.13197703 0.28203100
v 0.02099450 -0.13065991 0.28973645
v 0.01307490 -0.13195149 0.28216086
v 0.02085512 -0.13063154 0.28988290
v 0.11944287 -0.15208221 0.16536631
v 0.11590623 -0.15259055 0.16239241
v 0.11583062 -0.15271461 0.16253747
v 0.11932080 -0.15221296 0.16547231
v -0.04589566 -0.13395892 0.33866660
v -0.04589566 -0.13395892 0.33866660
v -0.04601701 -0.13398328 0.33850439
v -0.04601701 -0.13398328 0.33850439
v -0.05283311 -0.13398328 0.34346841
v -0.05266093 -0.13395892 0.34359361
v 0.11945975 -0.15330771 0.16556421
v 0.11961304 -0.15342301 0.16547887
v 0.12136054 -0.15254538 0.17061323
v 0.12118274 -0.15244238 0.17062656
v -0.05299406 -0.13405931 0.34335139
v -0.05313283 -0.13418181 0.34325051
v -0.04629512 -0.13434245 0.33811483
v -0.04629512 -0.13434245 0.33811483
v -0.05323994 -0.13434245 0.34317263
v -0.05923231 -0.13552370 0.36639099
v -0.05419258 -0.13552370 0.34822171
v -0.05399862 -0.13549932 0.34828027
v -0.05902839 -0.13549932 0.36641362
v 0.10760846 -0.15414137 0.15627792
v 0.10758896 -0.15393835 0.15629988
v 0.11139595 -0.15343248 0.15925927
v 0.11142471 -0.15363427 0.15924455
v -0.05381731 -0.13542330 0.34833504
v -0.05883776 -0.13542330 0.36643478
v 0.02041993 -0.13160290 0.29052133
v 0.01258761 -0.13293169 0.28274762
v 0.01266350 -0.13311849 0.28271426
v 0.02048770 -0.13179108 0.29047993
v 0.01277210 -0.13327864 0.28264821
v 0.02058470 -0.13195320 0.29040235
v 0.01290603 -0.13340123 0.28255394
v 0.02070431 -0.13207822 0.29029389
v 0.11655199 -0.15365407 0.16151668
v 0.11140081 -0.15402407 0.15935206
v 0.11142638 -0.15383605 0.15927619
v 0.11657846 -0.15346598 0.16144118
v 0.11062726 -0.15343234 0.16057391
v 0.10706848 -0.15390522 0.15780744
v 0.10706962 -0.15410707 0.15783866
v 0.11062893 -0.15363412 0.16060556
v -0.05882234 -0.13406816 0.36643647
v -0.05901119 -0.13398786 0.36641552
v -0.05822936 -0.13398786 0.38220420
v -0.05822936 -0.13398786 0.38220420
v -0.05804200 -0.13406816 0.38219491
v -0.05804200 -0.13406816 0.38219491
v -0.05366100 -0.13530080 0.34838227
v -0.05867341 -0.13530080 0.36645302
v 0.08242155 -0.15435891 0.15621736
v 0.05862072 -0.15351222 0.16117073
v 0.05862164 -0.15331038 0.16113937
v 0.08242187 -0.15415705 0.15618615
v 0.05863488 -0.15369945 0.16125121
v 0.08242664 -0.15454582 0.15629972
v -0.05768372 -0.13454736 0.38217719
v -0.05768372 -0.13454736 0.38217719
v -0.05846120 -0.13454736 0.36647657
v -0.05853764 -0.13435778 0.36646808
v -0.05775956 -0.13435778 0.38218093
v -0.05775956 -0.13435778 0.38218093
v -0.05765941 -0.13475015 0.38217596
v -0.05765941 -0.13475015 0.38217596
v -0.05843669 -0.13475015 0.36647928
v -0.05883777 -0.13541445 0.38223435
v -0.05883777 -0.13541445 0.38223435
v -0.05962447 -0.13541445 0.36634745
v -0.05943562 -0.13549474 0.36636839
v -0.05865042 -0.13549474 0.38222503
v -0.05865042 -0.13549474 0.38222503
v 0.10760958 -0.15434322 0.15630915
v -0.00851950 -0.13086901 0.31013599
v -0.00851950 -0.13086901 0.31013599
v -0.00862755 -0.13074354 0.31001661
v -0.00862755 -0.13074354 0.31001661
v -0.04565784 -0.13406816 0.33897526
v -0.04565784 -0.13406816 0.33897526
v -0.04555757 -0.13419433 0.33910074
v -0.04555757 -0.13419433 0.33910074
v 0.11577776 -0.15287620 0.16265163
v 0.11575129 -0.15306429 0.16272711
v 0.11919279 -0.15256963 0.16562100
v 0.11923551 -0.15237920 0.16555918
v 0.12249928 -0.14883516 0.18511470
v 0.12235305 -0.14869189 0.18510961
v 0.12324503 -0.14808832 0.18864065
v 0.12324503 -0.14808832 0.18864065
v 0.12340553 -0.14822194 0.18870219
v 0.12340553 -0.14822194 0.18870219
v 0.11959338 -0.15199589 0.16524840
v 0.11599948 -0.15251245 0.16222635
v 0.12217512 -0.14859012 0.18511582
v 0.12304952 -0.14799845 0.18857719
v 0.12304952 -0.14799845 0.18857719
v 0.12197764 -0.14853679 0.18513290
v 0.12283229 -0.14795848 0.18851614
v 0.12283229 -0.14795848 0.18851614
v 0.11633027 -0.15401782 0.16194196
v 0.11642352 -0.15393972 0.16177590
v 0.12027782 -0.15338572 0.16501692
v 0.12012731 -0.15347205 0.16513482
v 0.11583863 -0.15365569 0.16268518
v 0.11071165 -0.15402395 0.16053074
v 0.11078705 -0.15418543 0.16042936
v 0.11591669 -0.15381697 0.16258492
v -0.05250379 -0.13549932 0.34370787
v -0.04574028 -0.13549932 0.33878214
v -0.04574028 -0.13549932 0.33878214
v -0.04562837 -0.13542330 0.33893485
v -0.04562837 -0.13542330 0.33893485
v -0.05234283 -0.13542330 0.34382488
v 0.11601166 -0.15394065 0.16245054
v 0.11611708 -0.15401830 0.16229118
v 0.11978318 -0.15349135 0.16537394
v 0.11657673 -0.15326420 0.16140952
v 0.11654696 -0.15306249 0.16142381
v 0.12047705 -0.15249759 0.16472857
v 0.12052514 -0.15269668 0.16472964
v 0.08253070 -0.15480841 0.15737398
v 0.08251038 -0.15489073 0.15718724
v 0.09931066 -0.15488027 0.15724846
v 0.10490674 -0.15487678 0.15726885
v 0.10730777 -0.15487529 0.15727760
v 0.10723880 -0.15479302 0.15746401
v 0.09930994 -0.15479795 0.15743512
v 0.10490601 -0.15479446 0.15745551
v 0.00887801 -0.13434267 0.27704631
v 0.00904476 -0.13441546 0.27695306
v 0.01305614 -0.13347791 0.28243791
v 0.00921813 -0.13443695 0.27684681
v 0.01321220 -0.13350344 0.28230805
v 0.00938630 -0.13440567 0.27673485
v 0.01336359 -0.13347610 0.28217313
v 0.12225280 -0.14974776 0.17893252
v 0.12211204 -0.15123056 0.17025775
v 0.12193425 -0.15112757 0.17027107
v 0.12207457 -0.14964943 0.17891859
v 0.08256555 -0.15357433 0.15750794
v 0.08255098 -0.15345362 0.15734324
v 0.05898032 -0.15261512 0.16224869
v 0.05902077 -0.15273674 0.16240801
v 0.08253303 -0.15337966 0.15715295
v 0.05893044 -0.15254003 0.16206504
v 0.10755245 -0.15374799 0.15637350
v 0.10750138 -0.15358327 0.15649381
v 0.11134201 -0.15324444 0.15931937
v 0.05901649 -0.15367807 0.16255423
v 0.05897473 -0.15384187 0.16243924
v 0.08254897 -0.15468051 0.15753303
v 0.08256402 -0.15451575 0.15765358
v 0.05904635 -0.15348837 0.16262405
v 0.08257476 -0.15432537 0.15772738
v -0.04609945 -0.13541445 0.33831124
v -0.04609945 -0.13541445 0.33831124
v -0.00918880 -0.13210058 0.30944614
v -0.00918880 -0.13210058 0.30944614
v -0.00906164 -0.13217980 0.30958496
v -0.00906164 -0.13217980 0.30958496
v -0.04598414 -0.13549474 0.33845931
v -0.04598414 -0.13549474 0.33845931
v 0.12052790 -0.15289831 0.16476221
v -0.05284763 -0.13549474 0.34345786
v -0.04586163 -0.13552370 0.33861993
v -0.04586163 -0.13552370 0.33861993
v -0.05267596 -0.13552370 0.34358266
v -0.04553351 -0.13530080 0.33906775
v -0.04553351 -0.13530080 0.33906775
v -0.05220407 -0.13530080 0.34392576
v 0.11575302 -0.15326607 0.16275879
v 0.11065771 -0.15383591 0.16059082
v 0.11578281 -0.15346778 0.16274448
v -0.00936256 -0.13102660 0.30923263
v -0.00936256 -0.13102660 0.30923263
v 0.11087881 -0.15430934 0.16029361
v -0.00838844 -0.13122190 0.31028575
v -0.00838844 -0.13122190 0.31028575
v -0.04542802 -0.13454736 0.33925167
v -0.04542802 -0.13454736 0.33925167
v -0.04540756 -0.13475015 0.33926688
v -0.04540756 -0.13475015 0.33926688
v -0.00837435 -0.13142527 0.31030596
v -0.00837435 -0.13142527 0.31030596
v 0.11065283 -0.15324432 0.16049803
v 0.12142312 -0.14991008 0.18544119
v 0.12160104 -0.15001185 0.18543499
v 0.12241269 -0.14946263 0.18864799
v 0.12241269 -0.14946263 0.18864799
v 0.12221717 -0.14937277 0.18858454
v 0.12221717 -0.14937277 0.18858454
v 0.11070389 -0.15308287 0.16038312
v -0.00865497 -0.13210379 0.31002073
v -0.00865497 -0.13210379 0.31002073
v -0.00854191 -0.13197966 0.31013933
v -0.00854191 -0.13197966 0.31013933
v 0.11649915 -0.15381565 0.16163084
v 0.12039990 -0.15325498 0.16491091
v -0.04619972 -0.13528828 0.33818579
v -0.04619972 -0.13528828 0.33818579
v -0.00929685 -0.13197510 0.30932680
v -0.00929685 -0.13197510 0.30932680
v 0.11622575 -0.15404462 0.16211771
v 0.11995859 -0.15350808 0.16525660
v 0.08251291 -0.15335751 0.15695003
v 0.08249199 -0.15338865 0.15674834
v 0.05881639 -0.15254641 0.16167563
v 0.05887452 -0.15251659 0.16186959
v 0.08247169 -0.15347098 0.15656160
v 0.05875999 -0.15262746 0.16149640
v 0.03381405 -0.15092215 0.17117796
v 0.03390379 -0.15089438 0.17135990
v 0.03372700 -0.15100121 0.17101038
v 0.12026096 -0.15216022 0.16481900
v 0.12010765 -0.15204493 0.16490435
v 0.01373751 -0.13272396 0.28172292
v 0.01369951 -0.13252325 0.28172132
v 0.02141293 -0.13121463 0.28937703
v 0.02144688 -0.13141604 0.28937461
v 0.01362361 -0.13233645 0.28175465
v 0.02134515 -0.13102645 0.28941843
v 0.01986393 -0.15103230 0.17940796
v 0.03371695 -0.15242957 0.17123361
v 0.03380326 -0.15245497 0.17141752
v 0.01999067 -0.15106178 0.17956802
v 0.03389300 -0.15242721 0.17159947
v 0.02012245 -0.15103825 0.17972515
v 0.00906560 -0.13288856 0.27667883
v 0.00889744 -0.13291983 0.27679079
v 0.01292351 -0.13197884 0.28229578
v 0.00874593 -0.13300172 0.27690084
v 0.01278712 -0.13205721 0.28242650
v 0.12093207 -0.15212237 0.17061547
v 0.12103659 -0.15229811 0.17062732
v 0.12117468 -0.15084347 0.17913731
v 0.12106991 -0.15067047 0.17910943
v 0.12127689 -0.14976680 0.18543610
v 0.12117231 -0.14959178 0.18542005
v 0.12147659 -0.14965730 0.17892965
v 0.12133774 -0.15111983 0.17037353
v 0.12116315 -0.15121825 0.17042072
v 0.12130156 -0.14976029 0.17895010
v 0.12140353 -0.14868607 0.18523456
v -0.00878531 -0.13218147 0.30988237
v -0.00878531 -0.13218147 0.30988237
v 0.12153342 -0.15107025 0.17033100
v 0.11976210 -0.15195985 0.16512662
v 0.12195703 -0.15255312 0.17051079
v 0.12176133 -0.15260270 0.17055330
v 0.10744723 -0.15488416 0.15687365
v 0.10750822 -0.15481016 0.15668364
v 0.11127670 -0.15430941 0.15961310
v 0.11118660 -0.15438728 0.15978050
v 0.11098065 -0.15438725 0.16013276
v 0.11924363 -0.15297033 0.16565464
v 0.11933375 -0.15315331 0.16562418
v 0.10717668 -0.15466516 0.15762279
v 0.11919556 -0.15277125 0.16565357
v 0.11610402 -0.15248565 0.16205060
v -0.05438595 -0.13549474 0.34816332
v 0.12236270 -0.15155058 0.17026883
v 0.12038694 -0.15231462 0.16475905
v 0.12225819 -0.15137485 0.17025698
v 0.05880940 -0.15407948 0.16191375
v 0.05886753 -0.15404966 0.16210771
v 0.05892392 -0.15396862 0.16228694
v 0.03398004 -0.15234815 0.17176705
v 0.02025026 -0.15096332 0.17986868
v 0.00640945 -0.14833250 0.19525955
v 0.02036543 -0.15084207 0.17998879
v 0.00654731 -0.14821557 0.19535444
v -0.00280347 -0.14556666 0.21076034
v 0.00052185 -0.14712986 0.20161526
v 0.00067752 -0.14721909 0.20171619
v -0.00262876 -0.14566484 0.21080893
v 0.10708909 -0.15431009 0.15781672
v 0.08245338 -0.15359888 0.15640253
v 0.05870920 -0.15275420 0.16134410
v 0.08243835 -0.15376363 0.15628199
v 0.05866744 -0.15291801 0.16122912
v 0.10712037 -0.15355903 0.15759743
v 0.10708579 -0.15371829 0.15772516
v 0.10743927 -0.15345543 0.15665257
v -0.05314345 -0.13528828 0.34324278
v -0.05300708 -0.13541445 0.34334195
v -0.05333269 -0.13473245 0.34310523
v -0.05490468 -0.13453026 0.34800669
v -0.05330811 -0.13453026 0.34312307
v -0.05844872 -0.13552370 0.38221503
v -0.05844872 -0.13552370 0.38221503
v -0.05824642 -0.13549932 0.38220503
v -0.05824642 -0.13549932 0.38220503
v 0.10737885 -0.15490637 0.15707623
v 0.11108563 -0.15441383 0.15995775
v 0.00852429 -0.13388137 0.27719172
v 0.00860859 -0.13406621 0.27716985
v 0.00872925 -0.13422355 0.27712027
v 0.12358370 -0.14878334 0.18883577
v 0.12358370 -0.14878334 0.18883577
v 0.12266289 -0.14940641 0.18519064
v 0.12265965 -0.14920503 0.18515665
v 0.12358083 -0.14858172 0.18880320
v 0.12358083 -0.14858172 0.18880320
v 0.02133487 -0.13196348 0.28958978
v 0.01361209 -0.13327368 0.28192478
v 0.01369226 -0.13311242 0.28182825
v 0.02140647 -0.13180367 0.28948476
v 0.01373504 -0.13292492 0.28175941
v 0.02144467 -0.13161695 0.28941135
v 0.12155789 -0.15260005 0.17058824
v 0.03351200 -0.15188104 0.17071348
v 0.03351342 -0.15167924 0.17068194
v 0.03353386 -0.15206877 0.17079104
v 0.12260386 -0.14901019 0.18513075
v 0.12352006 -0.14839024 0.18875763
v 0.12352006 -0.14839024 0.18875763
v -0.00892401 -0.13220740 0.30973377
v -0.00892401 -0.13220740 0.30973377
v 0.12341886 -0.14916230 0.18885409
v 0.12341886 -0.14916230 0.18885409
v 0.12251431 -0.14977438 0.18527325
v 0.12261330 -0.14960061 0.18523041
v 0.12352846 -0.14898137 0.18885312
v 0.12352846 -0.14898137 0.18885312
v -0.05324746 -0.13512483 0.34316716
v -0.05483635 -0.13512483 0.34802730
v -0.05331200 -0.13493525 0.34312025
v -0.05866082 -0.13419433 0.36645441
v -0.05788176 -0.13419433 0.38218700
v -0.05788176 -0.13419433 0.38218700
v -0.04541921 -0.13495235 0.33923959
v -0.04541921 -0.13495235 0.33923959
v -0.04546217 -0.13514016 0.33917164
v -0.04546217 -0.13514016 0.33917164
v -0.00845378 -0.13181751 0.31023016
v -0.00845378 -0.13181751 0.31023016
v -0.00839664 -0.13162843 0.31028698
v -0.00839664 -0.13162843 0.31028698
v 0.12092264 -0.15153188 0.17051618
v 0.12102158 -0.15135879 0.17046937
v -0.05219344 -0.13419433 0.34393349
v -0.05208943 -0.13435778 0.34400911
v -0.04547918 -0.13435778 0.33919501
v 0.11649112 -0.15287459 0.16148312
v 0.08245137 -0.15482576 0.15659232
v 0.08243682 -0.15470506 0.15642763
v 0.09931331 -0.15469455 0.15648912
v 0.10490939 -0.15469106 0.15650951
v 0.10755770 -0.15468941 0.15651917
v 0.09931277 -0.15481526 0.15665377
v 0.10490886 -0.15481177 0.15667416
v 0.00087382 -0.14572728 0.20156923
v 0.00069784 -0.14579234 0.20148350
v -0.00260596 -0.14423926 0.21056940
v -0.00240846 -0.14418431 0.21059595
v 0.00053930 -0.14590468 0.20141544
v -0.00278388 -0.14434249 0.21055465
v 0.00848481 -0.13348062 0.27714824
v 0.00848207 -0.13368164 0.27718433
v 0.01254960 -0.13273097 0.28274599
v 0.01255207 -0.13253002 0.28270953
v 0.12200211 -0.15006642 0.18539112
v 0.12219793 -0.15001551 0.18535644
v 0.12306977 -0.14942557 0.18880771
v 0.12306977 -0.14942557 0.18880771
v 0.12285403 -0.14948996 0.18876352
v 0.12285403 -0.14948996 0.18876352
v 0.08257573 -0.15373356 0.15763583
v 0.05904904 -0.15289663 0.16253213
v 0.05906320 -0.15308386 0.16261261
v 0.08258082 -0.15392048 0.15771820
v 0.11134977 -0.15418553 0.15946697
v 0.09930919 -0.15344318 0.15740431
v 0.10490527 -0.15343970 0.15742470
v 0.10716983 -0.15343829 0.15743295
v 0.09930866 -0.15356390 0.15756896
v 0.10490475 -0.15356041 0.15758935
v 0.12132118 -0.15098393 0.17915894
v 0.12179853 -0.15006517 0.18541790
v 0.12262992 -0.14950261 0.18870905
v 0.12262992 -0.14950261 0.18870905
v 0.12256323 -0.15045629 0.17904860
v 0.12242169 -0.15194721 0.17032637
v 0.12241847 -0.15174580 0.17029250
v 0.12255998 -0.15025497 0.17901424
v -0.05232981 -0.13406816 0.34383436
v -0.05248927 -0.13398786 0.34371841
v -0.05398227 -0.13398786 0.34828524
v -0.05380265 -0.13406816 0.34833946
v 0.02083836 -0.13215762 0.29016194
v 0.02097774 -0.13218598 0.29001549
v 0.02111294 -0.13216138 0.28986450
v 0.02056597 -0.15009364 0.18010614
v 0.02056389 -0.15029537 0.18013807
v 0.03419362 -0.15167011 0.17209549
v 0.03419505 -0.15146832 0.17206395
v 0.03417319 -0.15128058 0.17198640
v 0.02053388 -0.14990487 0.18003463
v 0.03412955 -0.15111970 0.17186811
v 0.02046981 -0.14974193 0.17992839
v 0.12205669 -0.14923915 0.18852299
v 0.12205669 -0.14923915 0.18852299
v 0.12250410 -0.15006121 0.17898203
v 0.12239932 -0.14988821 0.17895415
v 0.12227243 -0.15097139 0.17914136
v 0.12213162 -0.15245471 0.17046358
v 0.12227321 -0.15231416 0.17041493
v 0.12241437 -0.15082714 0.17911440
v 0.12237262 -0.14991590 0.18531624
v 0.09931384 -0.15414653 0.15624770
v 0.08242761 -0.15395401 0.15620818
v 0.09931365 -0.15394350 0.15626972
v 0.10490973 -0.15394001 0.15629011
v 0.10490993 -0.15414305 0.15626809
v 0.10759227 -0.15453015 0.15639144
v 0.05906228 -0.15328569 0.16264396
v 0.00039560 -0.14699676 0.20152302
v 0.00570184 -0.14817284 0.19464264
v 0.00581162 -0.14830229 0.19475623
v 0.00594697 -0.14838702 0.19488350
v -0.00325983 -0.13700997 0.25345166
v -0.00308114 -0.13691843 0.25339803
v -0.00293013 -0.14448696 0.21055273
v -0.00340669 -0.13714484 0.25350592
v -0.00875472 -0.13066431 0.30987783
v -0.00875472 -0.13066431 0.30987783
v -0.04577316 -0.13398786 0.33882719
v -0.04577316 -0.13398786 0.33882719
v -0.00889234 -0.13063672 0.30972902
v -0.00889234 -0.13063672 0.30972902
v -0.00903105 -0.13066264 0.30958039
v -0.00903105 -0.13066264 0.30958039
v 0.12173688 -0.15107290 0.17029606
v 0.11993750 -0.15197658 0.16500927
v 0.11077695 -0.15295898 0.16023699
v -0.00843795 -0.13103218 0.31022777
v -0.00843795 -0.13103218 0.31022777
v 0.12194214 -0.14907086 0.18846755
v 0.12194214 -0.14907086 0.18846755
v 0.00030737 -0.14682887 0.20144576
v -0.00294516 -0.14542631 0.21071056
v -0.00304417 -0.14525334 0.21066297
v 0.05866315 -0.15385933 0.16137533
v 0.05870360 -0.15398096 0.16153465
v 0.12048519 -0.15308874 0.16482404
v -0.05209695 -0.13514016 0.34400365
v -0.05354033 -0.13514016 0.34841869
v -0.05202878 -0.13495235 0.34405324
v -0.05346354 -0.13495235 0.34844187
v 0.12237215 -0.15214106 0.17036812
v -0.05200420 -0.13475015 0.34407108
v -0.05343585 -0.13475015 0.34845025
v 0.12087309 -0.15172574 0.17055793
v -0.05202489 -0.13454736 0.34405605
v -0.05345916 -0.13454736 0.34844319
v -0.00201794 -0.13778610 0.25332034
v -0.00154727 -0.14503739 0.21089855
v -0.00154405 -0.14483598 0.21086471
v -0.00201471 -0.13758490 0.25328526
v -0.00159363 -0.14464219 0.21082255
v -0.00206450 -0.13738786 0.25326217
v -0.00169264 -0.14446923 0.21077497
v -0.00216393 -0.13720839 0.25325262
v 0.03358412 -0.15128848 0.17076223
v 0.01966887 -0.14988494 0.17897328
v 0.01976352 -0.14972566 0.17906181
v 0.03364858 -0.15112615 0.17086857
v 0.03353802 -0.15147713 0.17069857
v 0.01960118 -0.15007141 0.17892237
v 0.00173553 -0.13575281 0.26176813
v -0.00230622 -0.13705873 0.25325728
v 0.00160814 -0.13559759 0.26180535
v -0.00248167 -0.13694907 0.25327584
v 0.00145107 -0.13548107 0.26186404
v 0.12111650 -0.14939693 0.18539416
v 0.12188139 -0.14887937 0.18842199
v 0.12188139 -0.14887937 0.18842199
v 0.12126186 -0.14882758 0.18527756
v 0.12116286 -0.14900136 0.18532038
v 0.12193376 -0.14847972 0.18837207
v 0.12193376 -0.14847972 0.18837207
v 0.12204334 -0.14829879 0.18837110
v 0.12204334 -0.14829879 0.18837110
v 0.00862139 -0.13312867 0.27700148
v 0.01267501 -0.13218125 0.28254413
v 0.00853233 -0.13329202 0.27708586
v 0.01259485 -0.13234252 0.28264066
v 0.02071992 -0.13065615 0.29003386
v 0.02059811 -0.13073204 0.29017905
v 0.02049800 -0.13085405 0.29030858
v 0.00040898 -0.14605665 0.20136970
v 0.00031579 -0.14623789 0.20134939
v -0.00303472 -0.14466285 0.21056376
v 0.00026606 -0.14643605 0.20135589
v -0.00309053 -0.14485815 0.21058698
v 0.12111328 -0.14919555 0.18536016
v 0.12187852 -0.14867775 0.18838942
v 0.12187852 -0.14867775 0.18838942
v 0.12087631 -0.15192714 0.17059180
v -0.05919606 -0.13493525 0.38225207
v -0.05919606 -0.13493525 0.38225207
v -0.05912022 -0.13512483 0.38224833
v -0.05912022 -0.13512483 0.38224833
v -0.05911139 -0.13434245 0.38224787
v -0.05911139 -0.13434245 0.38224787
v -0.05899801 -0.13528828 0.38224226
v -0.05899801 -0.13528828 0.38224226
v -0.05898552 -0.13418181 0.38224165
v -0.05898552 -0.13418181 0.38224165
v -0.05882248 -0.13405931 0.38223355
v -0.05882248 -0.13405931 0.38223355
v -0.05863336 -0.13398328 0.38222420
v -0.05863336 -0.13398328 0.38222420
v -0.05843106 -0.13395892 0.38221417
v -0.05843106 -0.13395892 0.38221417
v -0.05805730 -0.13542330 0.38219571
v -0.05805730 -0.13542330 0.38219571
v -0.05789425 -0.13530080 0.38218762
v -0.05789425 -0.13530080 0.38218762
v -0.05776839 -0.13514016 0.38218136
v -0.05776839 -0.13514016 0.38218136
v -0.05768829 -0.13495235 0.38217737
v -0.05768829 -0.13495235 0.38217737
v 0.09931386 -0.15434839 0.15627892
v 0.09931368 -0.15453530 0.15636127
v 0.10490976 -0.15453181 0.15638166
v 0.10490995 -0.15434490 0.15629931
v 0.09930984 -0.15336921 0.15721408
v 0.10490593 -0.15336573 0.15723447
v 0.10723083 -0.15336428 0.15724295
v 0.00558922 -0.14761588 0.19445358
v 0.00558672 -0.14781753 0.19448597
v 0.00026319 -0.14663762 0.20138876
v 0.00562513 -0.14800750 0.19455044
v -0.05456557 -0.13541445 0.34810908
v 0.08248945 -0.15492188 0.15698553
v 0.08246934 -0.15489972 0.15678262
v 0.09931214 -0.15488923 0.15684400
v 0.10490821 -0.15488574 0.15686439
v 0.09931141 -0.15491140 0.15704682
v 0.10490749 -0.15490791 0.15706723
v -0.05353187 -0.13435778 0.34842124
v -0.05854654 -0.13514016 0.36646710
v 0.12115963 -0.14990454 0.17897706
v 0.08258050 -0.15412233 0.15774943
v 0.09930834 -0.15431495 0.15778837
v 0.09930813 -0.15411191 0.15781039
v 0.10490421 -0.15410842 0.15783078
v 0.10490443 -0.15431146 0.15780876
v -0.05846580 -0.13495235 0.36647609
v -0.05364902 -0.13419433 0.34838588
v 0.09931271 -0.15358838 0.15646396
v 0.10490879 -0.15358489 0.15648437
v 0.09931205 -0.15346049 0.15662296
v 0.10490813 -0.15345701 0.15664336
v -0.05471920 -0.13528828 0.34806268
v 0.12187671 -0.14959992 0.17891335
v 0.12167276 -0.14960260 0.17891712
v 0.11621267 -0.15251197 0.16187714
v 0.12219979 -0.14814728 0.18838659
v 0.12219979 -0.14814728 0.18838659
v -0.05436960 -0.13398328 0.34816826
v 0.00164406 -0.14633468 0.20209698
v 0.00678738 -0.14747465 0.19542783
v 0.00674897 -0.14728468 0.19536335
v 0.00159988 -0.14614343 0.20203996
v 0.00667226 -0.14711934 0.19527117
v 0.00151166 -0.14597553 0.20196272
v 0.03399009 -0.15091979 0.17154381
v 0.02013829 -0.14950594 0.17948260
v 0.02026503 -0.14953543 0.17964265
v 0.02000651 -0.14952948 0.17932546
v 0.01987869 -0.14960441 0.17918194
v 0.01956506 -0.15027236 0.17891254
v 0.01956298 -0.15047409 0.17894448
v 0.12190124 -0.15112907 0.17917433
v 0.12169728 -0.15113176 0.17917811
v -0.05921451 -0.13395892 0.36639295
v -0.00327949 -0.13823286 0.25366487
v -0.00342179 -0.13808320 0.25366953
v -0.00310405 -0.13834251 0.25364632
v -0.00183433 -0.14432887 0.21072519
v -0.00200904 -0.14423070 0.21067660
v 0.00966235 -0.13419683 0.27652416
v 0.00172202 -0.13669057 0.26193518
v 0.00181606 -0.13652567 0.26185993
v 0.00975140 -0.13403348 0.27643978
v 0.00186623 -0.13633623 0.26180247
v 0.00979892 -0.13384488 0.27637743
v 0.00186912 -0.13613515 0.26176665
v 0.00980166 -0.13364386 0.27634134
v 0.00073680 -0.13673366 0.26243553
v 0.00089389 -0.13685017 0.26237684
v 0.00106995 -0.13692003 0.26230070
v -0.00243294 -0.14571415 0.21085299
v -0.00290738 -0.13840468 0.25361513
v -0.00222934 -0.14571123 0.21088956
v -0.00270292 -0.13841513 0.25357346
v -0.00203184 -0.14565628 0.21091613
v -0.00250458 -0.13837316 0.25352412
v -0.00351173 -0.13731385 0.25355715
v 0.00052890 -0.13580558 0.26238092
v 0.00062293 -0.13564067 0.26230567
v -0.00356777 -0.13750549 0.25360181
v 0.00047871 -0.13599503 0.26243841
v -0.00357102 -0.13770668 0.25363689
v 0.00047582 -0.13619609 0.26247423
v 0.00182455 -0.13593616 0.26175494
v 0.00975944 -0.13344413 0.27633395
v 0.00967514 -0.13325929 0.27635581
v 0.00125300 -0.13693848 0.26221226
v 0.00143056 -0.13690426 0.26211757
v -0.00232589 -0.13828161 0.25347051
v 0.00159053 -0.13681970 0.26202307
v -0.00217902 -0.13814674 0.25341623
v -0.00352122 -0.13790373 0.25366000
v 0.00052040 -0.13639508 0.26248594
v 0.00060941 -0.13657844 0.26247272
v 0.00955449 -0.13310195 0.27640537
v 0.00940573 -0.13298283 0.27647933
v 0.00127500 -0.13541121 0.26194018
v 0.00923898 -0.13291005 0.27657261
v 0.03406711 -0.15099664 0.17171715
v -0.00207399 -0.13797773 0.25336500
v 0.05863758 -0.15310771 0.16115929
v 0.00109195 -0.13539277 0.26202862
v 0.00091439 -0.13542698 0.26212331
v -0.00309375 -0.14505955 0.21062082
v 0.00075441 -0.13551155 0.26221781
v 0.00674165 -0.14787590 0.19545831
v 0.02052777 -0.15049632 0.18012825
v 0.00678488 -0.14767631 0.19546023
v 0.12209741 -0.15107438 0.17916181
v 0.02046008 -0.15068279 0.18007733
v 0.03412292 -0.15206087 0.17201521
v 0.03416903 -0.15187223 0.17207887
v 0.12149943 -0.15108226 0.17917285
v 0.01975085 -0.15095181 0.17925590
v 0.00609870 -0.14842125 0.19501577
v 0.00625643 -0.14840265 0.19514404
v 0.12101400 -0.15047670 0.17907722
v -0.00185391 -0.14555305 0.21093087
v -0.00170767 -0.14540857 0.21093280
v 0.12326243 -0.14931381 0.18883860
v 0.12326243 -0.14931381 0.18883860
v -0.05990917 -0.13512483 0.36631584
v 0.10737031 -0.15337316 0.15683900
v 0.11107299 -0.15288115 0.15971734
v -0.05978600 -0.13528828 0.36632951
v 0.09930926 -0.15467007 0.15759412
v 0.09930872 -0.15450532 0.15771459
v 0.10490481 -0.15450184 0.15773499
v 0.10490535 -0.15466658 0.15761451
v 0.10712562 -0.15450045 0.15774308
v 0.09931325 -0.15375312 0.15634348
v 0.10490933 -0.15374963 0.15636387
v 0.12101077 -0.15027539 0.17904286
v 0.12106043 -0.15008023 0.17900870
v 0.01959506 -0.15066286 0.17901598
v 0.01965914 -0.15082580 0.17912220
v 0.03357749 -0.15222965 0.17090933
v 0.09931133 -0.15337818 0.15680964
v 0.10490740 -0.15337469 0.15683003
v 0.10729921 -0.15334207 0.15704037
v 0.09931056 -0.15334704 0.15701125
v 0.10490665 -0.15334355 0.15703164
v 0.03363995 -0.15235272 0.17106027
v -0.05941843 -0.13398328 0.36637030
v -0.05417564 -0.13395892 0.34822683
v 0.11086704 -0.15288111 0.16006959
v 0.00085201 -0.14725836 0.20181893
v 0.00103343 -0.14724502 0.20191650
v 0.00120941 -0.14717996 0.20200224
v -0.00220486 -0.14418140 0.21063252
v -0.00267833 -0.13688691 0.25330702
v -0.00288280 -0.13687645 0.25334869
v 0.11096803 -0.15285456 0.15989236
v 0.00666061 -0.14805984 0.19542222
v 0.02037810 -0.14961592 0.17979470
v 0.00656248 -0.14698989 0.19515758
v 0.00642713 -0.14690517 0.19503031
v 0.00627540 -0.14687094 0.19489802
v 0.00582678 -0.14707661 0.19455937
v 0.00596464 -0.14695968 0.19465424
v 0.00571349 -0.14723235 0.19449157
v 0.00136795 -0.14706761 0.20207029
v 0.00611767 -0.14688953 0.19476977
v 0.00149827 -0.14691564 0.20211603
v 0.00159145 -0.14673441 0.20213635
v 0.00164118 -0.14653625 0.20212985
v 0.00138541 -0.14584244 0.20187048
v 0.00122973 -0.14575321 0.20176955
v 0.00105524 -0.14571393 0.20166679
v 0.00953781 -0.13432377 0.27662480
v 0.00563245 -0.14741628 0.19445549
v 0.09930831 -0.15372314 0.15769681
v 0.09930813 -0.15391006 0.15777916
v 0.10490421 -0.15390657 0.15779955
v 0.10490438 -0.15371966 0.15771720
v 0.12251356 -0.15065144 0.17908276
v -0.00160308 -0.14523269 0.21092177
v 0.02042640 -0.13101386 0.29041363
v 0.02038819 -0.13120058 0.29048701
v 0.02038598 -0.13140150 0.29052375
v 0.05875349 -0.15405605 0.16171830
v 0.03405847 -0.15222321 0.17190885
v 0.01349998 -0.13339773 0.28204241
v 0.02123475 -0.13208549 0.28971931
v 0.03192699 -0.13058631 0.29937392
v 0.03192699 -0.13058631 0.29937392
v 0.03181713 -0.13055364 0.29954558
v 0.03181713 -0.13055364 0.29954558
v 0.03203354 -0.13056590 0.29919846
v 0.03203354 -0.13056590 0.29919846
v 0.03212955 -0.13049378 0.29903121
v 0.03212955 -0.13049378 0.29903121
v 0.03171146 -0.13047010 0.29970184
v 0.03171146 -0.13047010 0.29970184
v 0.03220846 -0.13037487 0.29888354
v 0.03220846 -0.13037487 0.29888354
v 0.03161720 -0.13034137 0.29983195
v 0.03161720 -0.13034137 0.29983195
v 0.03226489 -0.13021727 0.29876554
v 0.03226489 -0.13021727 0.29876554
v 0.03154076 -0.13017624 0.29992710
v 0.03154076 -0.13017624 0.29992710
v 0.03229501 -0.13003173 0.29868526
v 0.03229501 -0.13003173 0.29868526
v 0.03148733 -0.12998597 0.29998076
v 0.03148733 -0.12998597 0.29998076
v 0.03229674 -0.12983089 0.29864810
v 0.03229674 -0.12983089 0.29864810
v 0.03146058 -0.12978351 0.29998931
v 0.03146058 -0.12978351 0.29998931
v 0.03226999 -0.12962843 0.29865669
v 0.03226999 -0.12962843 0.29865669
v 0.03146231 -0.12958267 0.29995218
v 0.03146231 -0.12958267 0.29995218
v 0.03221657 -0.12943816 0.29871035
v 0.03221657 -0.12943816 0.29871035
v 0.03149243 -0.12939713 0.29987187
v 0.03149243 -0.12939713 0.29987187
v 0.03214012 -0.12927303 0.29880550
v 0.03214012 -0.12927303 0.29880550
v 0.03154886 -0.12923953 0.29975388
v 0.03154886 -0.12923953 0.29975388
v 0.03204585 -0.12914431 0.29893561
v 0.03204585 -0.12914431 0.29893561
v 0.03162777 -0.12912062 0.29960623
v 0.03162777 -0.12912062 0.29960623
v 0.03194019 -0.12906076 0.29909184
v 0.03194019 -0.12906076 0.29909184
v 0.03172377 -0.12904850 0.29943896
v 0.03172377 -0.12904850 0.29943896
v 0.03183033 -0.12902809 0.29926352
v 0.03183033 -0.12902809 0.29926352
f 1 2 3
f 3 4 1
f 5 6 2
f 2 1 5
f 7 6 5
f 5 8 7
f 9 7 8
f 8 10 9
f 11 9 10
f 10 12 11
f 13 14 11
f 11 12 13
f 15 16 14
f 14 13 15
f 17 18 16
f 16 15 17
f 19 20 18
f 18 17 19
f 21 22 20
f 20 19 21
f 23 24 22
f 22 21 23
f 25 24 23
f 23 26 25
f 27 25 26
f 26 28 27
f 29 27 28
f 28 30 29
f 31 32 29
f 29 30 31
f 33 34 32
f 32 31 33
f 35 36 34
f 34 33 35
f 37 36 35
f 35 38 37
f 39 37 38
f 38 40 39
f 41 39 40
f 40 42 41
f 43 44 45
f 45 46 43
f 4 3 43
f 43 46 4
f 47 41 42
f 42 48 47
f 44 47 48
f 48 45 44
f 49 4 46
f 46 52 49
f 30 28 53
f 53 56 30
f 28 26 57
f 57 53 28
f 26 23 60
f 60 57 26
f 62 60 23
f 23 21 62
f 21 63 62
f 19 63 21
f 17 65 19
f 38 68 69
f 40 38 69
f 35 72 68
f 38 35 68
f 75 76 78
f 78 82 75
f 84 86 77
f 77 74 84
f 85 88 92
f 92 87 85
f 89 94 96
f 96 91 89
f 93 98 101
f 101 97 93
f 99 104 106
f 106 102 99
f 105 110 112
f 112 107 105
f 109 115 117
f 117 111 109
f 119 122 116
f 116 113 119
f 125 127 121
f 121 118 125
f 130 132 126
f 126 124 130
f 134 131 128
f 128 137 134
f 139 133 136
f 136 141 139
f 143 138 140
f 140 147 143
f 144 146 150
f 150 152 144
f 151 149 154
f 154 156 151
f 157 153 159
f 159 162 157
f 161 160 165
f 165 167 161
f 166 164 169
f 169 172 166
f 171 168 175
f 175 177 171
f 179 176 173
f 173 180 179
f 183 178 181
f 181 185 183
f 185 181 188
f 191 184 187
f 187 195 191
f 195 187 190
f 80 79 192
f 192 193 80
f 13 197 15
f 13 198 197
f 201 12 10
f 202 31 30
f 30 56 202
f 205 1 4
f 4 49 205
f 42 207 209
f 48 42 209
f 40 69 207
f 42 40 207
f 211 10 8
f 211 201 10
f 8 5 213
f 213 211 8
f 213 5 1
f 1 205 213
f 72 35 33
f 72 33 214
f 214 33 31
f 214 31 202
f 45 216 52
f 52 46 45
f 48 209 216
f 45 48 216
f 18 219 220
f 220 16 18
f 22 223 224
f 224 20 22
f 16 220 227
f 227 14 16
f 2 228 231
f 231 3 2
f 34 232 235
f 235 32 34
f 14 227 237
f 237 11 14
f 24 238 223
f 223 22 24
f 6 240 228
f 228 2 6
f 241 240 6
f 6 7 241
f 235 243 29
f 29 32 235
f 3 231 245
f 245 43 3
f 243 247 27
f 27 29 243
f 36 249 232
f 232 34 36
f 250 253 39
f 39 41 250
f 255 256 47
f 47 44 255
f 258 241 7
f 7 9 258
f 245 255 44
f 44 43 245
f 261 238 24
f 24 25 261
f 253 262 37
f 37 39 253
f 247 261 25
f 25 27 247
f 20 224 219
f 219 18 20
f 256 250 41
f 41 47 256
f 262 249 36
f 36 37 262
f 237 258 9
f 9 11 237
f 206 100 95
f 95 208 206
f 70 103 100
f 100 206 70
f 230 264 265
f 265 244 230
f 266 267 242
f 242 259 266
f 267 268 240
f 240 242 267
f 240 268 269
f 269 229 240
f 229 269 264
f 264 230 229
f 208 95 90
f 90 217 208
f 212 204 81
f 81 194 212
f 204 50 73
f 73 81 204
f 71 215 120
f 120 114 71
f 215 203 123
f 123 120 215
f 203 55 129
f 129 123 203
f 270 271 272
f 272 226 270
f 226 272 236
f 272 266 259
f 259 236 272
f 248 273 274
f 274 233 248
f 233 274 275
f 275 234 233
f 265 276 254
f 254 244 265
f 276 277 257
f 257 254 276
f 278 279 251
f 251 277 278
f 277 251 257
f 222 280 281
f 281 225 222
f 225 281 282
f 282 218 225
f 251 279 283
f 283 252 251
f 252 283 284
f 284 263 252
f 263 284 273
f 273 248 263
f 148 145 59
f 59 61 148
f 155 148 61
f 61 64 155
f 163 158 66
f 66 186 163
f 186 66 287
f 170 163 186
f 186 196 170
f 196 186 287
f 67 108 103
f 103 70 67
f 239 288 280
f 280 222 239
f 234 275 289
f 289 243 234
f 243 289 290
f 290 246 243
f 290 291 260
f 260 246 290
f 291 288 239
f 239 260 291
f 129 55 54
f 54 135 129
f 135 54 58
f 58 142 135
f 174 170 196
f 196 199 174
f 217 90 83
f 83 51 217
f 142 58 59
f 59 145 142
f 174 199 200
f 200 182 174
f 182 200 210
f 210 189 182
f 189 210 212
f 212 194 189
f 282 292 221
f 221 218 282
f 292 270 226
f 226 221 292
f 50 51 83
f 83 73 50
f 71 114 108
f 108 67 71
f 158 155 64
f 64 66 158
f 19 65 63
f 293 294 295
f 295 17 293
f 293 17 15
f 197 286 293
f 293 15 197
f 294 285 65
f 65 17 294
f 294 17 295
f 12 198 13
f 201 198 12
f 297 298 299
f 299 300 297
f 303 304 307
f 307 309 303
f 311 312 314
f 314 317 311
f 319 312 311
f 311 320 319
f 322 319 320
f 320 325 322
f 326 327 328
f 328 329 326
f 330 329 328
f 328 331 330
f 332 333 334
f 334 335 332
f 336 337 338
f 338 339 336
f 338 341 343
f 343 344 338
f 345 346 347
f 347 348 345
f 348 347 349
f 349 350 348
f 350 349 351
f 351 352 350
f 353 354 355
f 355 356 353
f 358 359 361
f 361 362 358
f 363 364 365
f 365 366 363
f 359 308 367
f 367 361 359
f 308 306 368
f 368 367 308
f 369 371 368
f 368 306 369
f 372 373 374
f 374 375 372
f 376 377 378
f 378 379 376
f 375 374 380
f 380 381 375
f 382 383 384
f 384 385 382
f 385 384 386
f 386 387 385
f 386 388 389
f 389 387 386
f 390 391 392
f 392 393 390
f 394 395 396
f 396 397 394
f 398 399 400
f 400 403 398
f 381 380 404
f 404 405 381
f 406 407 408
f 408 409 406
f 410 407 406
f 406 411 410
f 412 414 415
f 415 417 412
f 418 420 414
f 414 412 418
f 422 423 424
f 424 425 422
f 427 376 379
f 379 392 427
f 429 430 433
f 433 434 429
f 436 437 438
f 438 439 436
f 440 441 442
f 442 445 440
f 446 447 354
f 354 353 446
f 442 441 448
f 448 449 442
f 449 448 451
f 451 452 449
f 454 455 456
f 456 457 454
f 452 451 298
f 298 297 452
f 458 459 460
f 460 461 458
f 462 464 466
f 466 467 462
f 468 469 470
f 470 364 468
f 471 472 473
f 473 474 471
f 475 476 477
f 477 478 475
f 475 478 479
f 479 480 475
f 481 475 480
f 480 482 481
f 483 484 485
f 485 388 483
f 484 486 487
f 487 485 484
f 486 488 489
f 489 487 486
f 490 491 492
f 492 493 490
f 490 493 448
f 448 441 490
f 494 495 496
f 496 497 494
f 495 498 499
f 499 496 495
f 500 501 333
f 333 502 500
f 503 504 505
f 505 506 503
f 507 503 506
f 506 508 507
f 510 511 514
f 514 515 510
f 393 471 474
f 474 517 393
f 518 516 519
f 519 521 518
f 467 466 523
f 523 524 467
f 525 397 526
f 526 527 525
f 521 519 464
f 464 462 521
f 304 529 370
f 370 307 304
f 460 530 468
f 468 461 460
f 317 314 370
f 370 529 317
f 527 526 459
f 459 458 527
f 531 534 535
f 535 538 531
f 539 394 437
f 437 436 539
f 540 541 543
f 543 545 540
f 546 539 436
f 436 355 546
f 465 547 549
f 549 522 465
f 455 551 552
f 552 456 455
f 553 322 325
f 325 556 553
f 469 557 558
f 558 470 469
f 553 556 511
f 511 510 553
f 559 560 561
f 561 562 559
f 560 563 564
f 564 561 560
f 562 561 565
f 565 566 562
f 561 564 567
f 567 565 561
f 491 568 569
f 569 492 491
f 570 571 572
f 572 573 570
f 571 574 575
f 575 572 571
f 574 346 345
f 345 575 574
f 576 577 578
f 578 579 576
f 579 578 580
f 580 581 579
f 351 582 583
f 583 584 351
f 584 583 585
f 585 586 584
f 587 588 589
f 589 590 587
f 590 589 591
f 591 592 590
f 593 594 595
f 595 596 593
f 299 593 596
f 596 597 299
f 463 599 547
f 547 465 463
f 557 454 457
f 457 558 557
f 437 394 397
f 397 525 437
f 600 601 446
f 446 594 600
f 558 457 602
f 602 603 558
f 604 605 606
f 606 607 604
f 530 608 469
f 469 468 530
f 609 527 458
f 458 610 609
f 611 480 530
f 530 460 611
f 612 525 527
f 527 609 612
f 601 613 447
f 447 446 601
f 614 518 521
f 521 373 614
f 615 473 616
f 616 617 615
f 373 521 462
f 462 374 373
f 578 618 619
f 619 580 578
f 580 619 620
f 620 621 580
f 581 580 621
f 621 622 581
f 623 622 624
f 624 625 623
f 626 627 628
f 628 629 626
f 397 396 630
f 630 526 397
f 563 631 632
f 632 564 563
f 633 634 632
f 632 631 633
f 635 636 539
f 539 546 635
f 333 501 637
f 637 334 333
f 638 554 509
f 509 639 638
f 640 339 641
f 641 642 640
f 642 641 326
f 326 371 642
f 644 372 375
f 375 646 644
f 479 647 648
f 648 608 479
f 649 650 384
f 384 383 649
f 650 651 386
f 386 384 650
f 651 483 388
f 388 386 651
f 652 654 655
f 655 656 652
f 658 659 660
f 660 661 658
f 661 660 662
f 662 663 661
f 663 662 570
f 570 573 663
f 470 558 603
f 603 664 470
f 407 665 666
f 666 408 407
f 667 665 407
f 407 410 667
f 656 655 668
f 668 669 656
f 515 514 671
f 671 520 515
f 673 675 676
f 676 678 673
f 639 509 516
f 516 518 639
f 679 680 336
f 336 681 679
f 417 415 682
f 682 684 417
f 685 688 690
f 690 691 685
f 535 685 691
f 691 538 535
f 681 640 313
f 313 318 681
f 356 439 693
f 693 694 356
f 435 695 696
f 696 697 435
f 681 336 339
f 339 640 681
f 378 502 698
f 698 472 378
f 607 606 455
f 455 454 607
f 699 700 701
f 701 702 699
f 699 702 703
f 703 605 699
f 704 699 605
f 605 705 704
f 706 707 708
f 708 709 706
f 707 710 711
f 711 708 707
f 712 713 714
f 714 715 712
f 713 649 383
f 383 714 713
f 522 549 690
f 690 688 522
f 716 717 718
f 718 721 716
f 679 681 318
f 318 323 679
f 313 640 642
f 642 315 313
f 638 679 323
f 323 554 638
f 722 723 724
f 724 725 722
f 494 497 723
f 723 722 494
f 606 726 551
f 551 455 606
f 727 495 494
f 494 728 727
f 729 728 494
f 494 635 729
f 635 494 730
f 730 731 635
f 588 366 732
f 732 589 588
f 591 589 732
f 732 540 591
f 733 716 721
f 721 734 733
f 736 737 738
f 738 739 736
f 654 736 739
f 739 655 654
f 740 741 742
f 742 743 740
f 364 470 664
f 664 365 364
f 541 733 734
f 734 543 541
f 620 475 505
f 505 504 620
f 388 485 744
f 744 389 388
f 485 487 745
f 745 744 485
f 487 489 746
f 746 745 487
f 747 748 749
f 749 750 747
f 751 752 747
f 747 750 751
f 753 754 752
f 752 751 753
f 756 591 540
f 540 545 756
f 757 615 617
f 617 758 757
f 668 757 758
f 758 440 668
f 759 760 761
f 761 762 759
f 763 759 762
f 762 675 763
f 764 409 765
f 765 766 764
f 764 766 767
f 767 768 764
f 768 767 377
f 377 376 768
f 391 769 427
f 427 392 391
f 472 698 616
f 616 473 472
f 609 610 588
f 588 587 609
f 379 378 472
f 472 471 379
f 750 749 770
f 770 724 750
f 723 751 750
f 750 724 723
f 377 500 502
f 502 378 377
f 771 772 773
f 773 627 771
f 627 773 774
f 774 628 627
f 708 711 775
f 775 776 708
f 711 777 778
f 778 775 711
f 430 779 781
f 781 433 430
f 738 474 473
f 473 615 738
f 779 783 357
f 357 781 779
f 698 332 568
f 568 616 698
f 783 786 360
f 360 357 783
f 787 788 601
f 601 600 787
f 786 303 309
f 309 360 786
f 789 729 635
f 635 546 789
f 551 726 391
f 391 390 551
f 791 697 534
f 534 531 791
f 782 358 362
f 362 741 782
f 592 591 756
f 756 793 592
f 794 771 795
f 795 796 794
f 795 771 627
f 627 626 795
f 797 410 411
f 411 700 797
f 797 700 699
f 699 798 797
f 374 462 467
f 467 380 374
f 380 467 524
f 524 404 380
f 799 390 393
f 393 517 799
f 404 524 800
f 800 801 404
f 551 390 799
f 799 552 551
f 801 800 802
f 802 803 801
f 804 799 517
f 517 737 804
f 803 802 805
f 805 806 803
f 439 438 807
f 807 693 439
f 806 805 808
f 808 809 806
f 594 446 353
f 353 595 594
f 800 524 523
f 523 687 800
f 810 811 812
f 812 813 810
f 813 812 814
f 814 815 813
f 815 814 816
f 816 817 815
f 818 819 820
f 820 821 818
f 822 823 819
f 819 818 822
f 824 817 825
f 825 826 824
f 826 825 827
f 827 828 826
f 678 676 654
f 654 652 678
f 737 517 474
f 474 738 737
f 829 592 793
f 793 830 829
f 432 782 741
f 741 740 432
f 832 833 835
f 835 836 832
f 617 616 568
f 568 491 617
f 429 434 697
f 697 791 429
f 595 353 356
f 356 694 595
f 498 559 562
f 562 499 498
f 586 585 838
f 838 839 586
f 838 840 841
f 841 839 838
f 840 712 715
f 715 841 840
f 352 351 584
f 584 842 352
f 842 584 586
f 586 843 842
f 843 586 839
f 839 844 843
f 710 845 777
f 777 711 710
f 845 846 847
f 847 777 845
f 846 848 849
f 849 847 846
f 850 829 830
f 830 851 850
f 612 609 587
f 587 853 612
f 435 432 740
f 740 695 435
f 342 340 855
f 855 857 342
f 859 342 857
f 857 860 859
f 862 859 860
f 860 421 862
f 865 862 421
f 421 426 865
f 866 865 426
f 426 643 866
f 869 866 643
f 643 645 869
f 401 869 645
f 645 870 401
f 402 401 870
f 870 873 402
f 683 402 873
f 873 875 683
f 416 683 875
f 875 876 416
f 413 416 876
f 876 419 413
f 411 406 878
f 878 879 411
f 880 879 878
f 878 881 880
f 769 880 881
f 881 427 769
f 882 498 495
f 495 883 882
f 884 883 495
f 495 729 884
f 729 495 727
f 727 728 729
f 885 886 887
f 887 848 885
f 886 888 794
f 794 887 886
f 888 772 771
f 771 794 888
f 889 639 518
f 518 614 889
f 392 379 471
f 471 393 392
f 890 891 892
f 892 893 890
f 890 893 604
f 604 647 890
f 894 890 647
f 647 895 894
f 414 809 896
f 896 415 414
f 420 806 809
f 809 414 420
f 327 858 863
f 863 328 327
f 405 404 801
f 801 897 405
f 595 694 898
f 898 596 595
f 596 898 832
f 832 597 596
f 899 508 900
f 900 901 899
f 902 901 900
f 900 903 902
f 396 902 903
f 903 630 396
f 897 801 803
f 803 904 897
f 904 803 806
f 806 420 904
f 415 896 905
f 905 682 415
f 871 381 405
f 405 872 871
f 906 631 563
f 563 907 906
f 501 907 563
f 563 637 501
f 637 563 908
f 908 909 637
f 568 332 335
f 335 569 568
f 638 910 680
f 680 679 638
f 438 437 525
f 525 612 438
f 911 787 600
f 600 912 911
f 451 911 912
f 912 298 451
f 788 913 613
f 613 601 788
f 914 597 832
f 832 836 914
f 610 363 366
f 366 588 610
f 371 326 329
f 329 368 371
f 461 468 364
f 364 363 461
f 367 368 329
f 329 330 367
f 354 789 546
f 546 355 354
f 361 367 330
f 330 916 361
f 480 479 608
f 608 530 480
f 917 918 919
f 919 920 917
f 920 919 921
f 921 922 920
f 923 566 924
f 924 925 923
f 566 565 926
f 926 924 566
f 565 567 927
f 927 926 565
f 567 821 820
f 820 927 567
f 666 928 823
f 823 822 666
f 665 929 928
f 928 666 665
f 664 603 930
f 930 931 664
f 931 930 716
f 716 733 931
f 399 932 868
f 868 400 399
f 795 626 933
f 933 934 795
f 933 626 629
f 629 935 933
f 817 816 936
f 936 825 817
f 936 937 827
f 827 825 936
f 938 939 940
f 940 941 938
f 941 940 942
f 942 943 941
f 943 942 944
f 944 945 943
f 946 947 483
f 483 651 946
f 947 948 484
f 484 483 947
f 935 629 949
f 949 950 935
f 950 949 951
f 951 952 950
f 952 951 953
f 953 954 952
f 778 955 956
f 956 957 778
f 955 958 959
f 959 956 955
f 958 960 961
f 961 959 958
f 945 944 962
f 962 963 945
f 963 962 824
f 824 964 963
f 948 965 486
f 486 484 948
f 965 966 488
f 488 486 965
f 954 967 968
f 968 966 954
f 967 969 939
f 939 968 967
f 960 970 971
f 971 961 960
f 970 934 972
f 972 971 970
f 964 824 826
f 826 973 964
f 973 826 828
f 828 974 973
f 974 828 975
f 975 976 974
f 497 753 751
f 751 723 497
f 497 496 977
f 977 753 497
f 939 969 978
f 978 940 939
f 940 978 810
f 810 942 940
f 942 810 813
f 813 944 942
f 493 492 787
f 787 911 493
f 493 911 451
f 451 448 493
f 765 979 634
f 634 633 765
f 409 408 979
f 979 765 409
f 961 971 649
f 649 713 961
f 971 972 650
f 650 649 971
f 972 946 651
f 651 650 972
f 944 813 815
f 815 962 944
f 962 815 817
f 817 824 962
f 934 933 946
f 946 972 934
f 933 935 947
f 947 946 933
f 935 950 948
f 948 947 935
f 976 975 980
f 980 582 976
f 582 980 981
f 981 583 582
f 659 938 941
f 941 660 659
f 849 982 960
f 960 958 849
f 982 796 970
f 970 960 982
f 796 795 934
f 934 970 796
f 950 952 965
f 965 948 950
f 952 954 966
f 966 965 952
f 583 981 983
f 983 585 583
f 585 983 957
f 957 838 585
f 957 956 840
f 840 838 957
f 660 941 943
f 943 662 660
f 662 943 945
f 945 570 662
f 570 945 963
f 963 571 570
f 777 847 955
f 955 778 777
f 847 849 958
f 958 955 847
f 346 973 974
f 974 347 346
f 347 974 976
f 976 349 347
f 349 976 582
f 582 351 349
f 981 776 775
f 775 983 981
f 983 775 778
f 778 957 983
f 956 959 712
f 712 840 956
f 959 961 713
f 713 712 959
f 571 963 964
f 964 574 571
f 574 964 973
f 973 346 574
f 984 985 748
f 748 986 984
f 986 748 747
f 747 918 986
f 602 760 759
f 759 987 602
f 987 759 763
f 763 717 987
f 912 600 594
f 594 593 912
f 298 912 593
f 593 299 298
f 985 988 989
f 989 990 985
f 748 985 990
f 990 749 748
f 802 800 687
f 687 686 802
f 438 612 853
f 853 807 438
f 805 802 686
f 686 536 805
f 761 552 799
f 799 804 761
f 533 808 805
f 805 536 533
f 697 696 808
f 808 533 697
f 608 648 557
f 557 469 608
f 648 607 454
f 454 557 648
f 366 365 991
f 991 732 366
f 540 732 991
f 991 541 540
f 423 889 614
f 614 424 423
f 833 850 851
f 851 835 833
f 773 992 576
f 576 774 773
f 774 576 579
f 579 993 774
f 993 579 581
f 581 994 993
f 669 668 440
f 440 445 669
f 853 587 590
f 590 995 853
f 995 590 592
f 592 829 995
f 954 953 996
f 996 967 954
f 967 996 997
f 997 969 967
f 763 675 673
f 673 998 763
f 339 338 344
f 344 641 339
f 878 406 409
f 409 764 878
f 878 764 768
f 768 881 878
f 881 768 376
f 376 427 881
f 680 1000 337
f 337 336 680
f 334 637 1001
f 1001 1002 334
f 910 1003 1000
f 1000 680 910
f 506 505 1004
f 1004 1005 506
f 1006 1005 1004
f 1004 1007 1006
f 1008 1006 1007
f 1007 611 1008
f 365 664 931
f 931 991 365
f 541 991 931
f 931 733 541
f 766 765 633
f 633 1009 766
f 766 1009 1010
f 1010 767 766
f 767 1010 500
f 500 377 767
f 1003 910 889
f 889 423 1003
f 425 424 372
f 372 644 425
f 646 375 381
f 381 871 646
f 508 506 1005
f 1005 900 508
f 903 900 1005
f 1005 1006 903
f 630 903 1006
f 1006 1008 630
f 693 807 1011
f 1011 1012 693
f 1012 1011 850
f 850 833 1012
f 700 411 879
f 879 701 700
f 702 701 879
f 879 880 702
f 703 702 880
f 880 769 703
f 872 405 897
f 897 874 872
f 647 604 607
f 607 648 647
f 877 904 420
f 420 418 877
f 770 507 508
f 508 899 770
f 724 770 899
f 899 725 724
f 682 398 403
f 403 684 682
f 569 335 913
f 913 788 569
f 492 569 788
f 788 787 492
f 356 355 436
f 436 439 356
f 502 333 332
f 332 698 502
f 891 699 704
f 704 705 891
f 891 705 605
f 605 604 891
f 892 891 604
f 604 893 892
f 726 703 769
f 769 391 726
f 476 890 894
f 894 895 476
f 476 895 647
f 647 479 476
f 477 476 479
f 479 478 477
f 1013 929 665
f 665 667 1013
f 1014 1013 667
f 667 1015 1014
f 636 395 394
f 394 539 636
f 1016 560 559
f 559 1017 1016
f 1001 1017 559
f 559 1018 1001
f 1018 559 1019
f 1019 1020 1018
f 1009 633 631
f 631 906 1009
f 1009 906 907
f 907 1010 1009
f 1010 907 501
f 501 500 1010
f 694 693 1012
f 1012 898 694
f 898 1012 833
f 833 832 898
f 1015 667 410
f 410 797 1015
f 1015 797 798
f 798 1021 1015
f 916 330 331
f 331 1022 916
f 331 328 863
f 863 864 331
f 424 614 373
f 373 372 424
f 362 361 916
f 916 1023 362
f 447 1024 789
f 789 354 447
f 741 362 1023
f 1023 742 741
f 1023 916 1022
f 1022 932 1023
f 505 475 481
f 481 482 505
f 505 482 480
f 480 611 505
f 1004 505 611
f 611 1007 1004
f 603 602 987
f 987 930 603
f 930 987 717
f 717 716 930
f 932 1022 867
f 867 868 932
f 874 897 904
f 904 877 874
f 628 774 993
f 993 1025 628
f 1025 993 994
f 994 1026 1025
f 1026 994 623
f 623 1027 1026
f 937 1028 1029
f 1029 827 937
f 1028 709 1030
f 1030 1029 1028
f 709 708 776
f 776 1030 709
f 1002 1001 1018
f 1018 1031 1002
f 625 624 988
f 988 1032 625
f 984 1032 988
f 988 985 984
f 754 1033 1034
f 1034 921 754
f 1033 925 1035
f 1035 1034 1033
f 925 924 1036
f 1036 1035 925
f 927 820 1037
f 1037 1038 927
f 820 819 1039
f 1039 1037 820
f 928 929 886
f 886 885 928
f 929 1013 888
f 888 886 929
f 1013 1014 772
f 772 888 1013
f 772 1014 992
f 992 773 772
f 994 581 622
f 622 623 994
f 1027 623 625
f 625 1040 1027
f 924 926 1041
f 1041 1036 924
f 926 927 1038
f 1038 1041 926
f 1040 625 1032
f 1032 1042 1040
f 1042 1032 984
f 984 1043 1042
f 1043 984 986
f 986 1044 1043
f 1044 986 918
f 918 917 1044
f 1031 1018 884
f 884 1024 1031
f 921 1034 1045
f 1045 922 921
f 1034 1035 1046
f 1046 1045 1034
f 1035 1036 1047
f 1047 1046 1035
f 1038 1037 710
f 710 707 1038
f 1037 1039 845
f 845 710 1037
f 966 968 1048
f 1048 488 966
f 968 939 938
f 938 1048 968
f 459 1008 611
f 611 460 459
f 1014 1015 1021
f 1021 992 1014
f 992 1021 577
f 577 576 992
f 1039 1049 846
f 846 845 1039
f 1049 885 848
f 848 846 1049
f 1024 884 729
f 729 789 1024
f 848 887 982
f 982 849 848
f 887 794 796
f 796 982 887
f 1050 722 725
f 725 1051 1050
f 1050 1051 1052
f 1052 1053 1050
f 1053 1052 395
f 395 636 1053
f 762 761 804
f 804 1054 762
f 675 762 1054
f 1054 676 675
f 1054 804 737
f 737 736 1054
f 676 1054 736
f 736 654 676
f 1036 1041 706
f 706 1047 1036
f 1041 1038 707
f 707 706 1041
f 629 628 1025
f 1025 949 629
f 949 1025 1026
f 1026 951 949
f 951 1026 1027
f 1027 953 951
f 953 1027 1040
f 1040 996 953
f 996 1040 1042
f 1042 997 996
f 814 920 922
f 922 816 814
f 922 1045 936
f 936 816 922
f 1045 1046 937
f 937 936 1045
f 990 989 503
f 503 507 990
f 749 990 507
f 507 770 749
f 823 1049 1039
f 1039 819 823
f 823 928 885
f 885 1049 823
f 997 1042 1043
f 1043 1055 997
f 1055 1043 1044
f 1044 811 1055
f 344 343 858
f 858 327 344
f 496 499 923
f 923 977 496
f 499 562 566
f 566 923 499
f 839 841 1056
f 1056 844 839
f 841 715 1057
f 1057 1056 841
f 715 714 1058
f 1058 1057 715
f 1058 714 383
f 383 382 1058
f 520 671 599
f 599 463 520
f 457 456 760
f 760 602 457
f 300 299 597
f 597 914 300
f 456 552 761
f 761 760 456
f 315 642 371
f 371 369 315
f 610 458 461
f 461 363 610
f 979 822 818
f 818 634 979
f 408 666 822
f 822 979 408
f 861 1003 423
f 423 422 861
f 1021 798 1059
f 1059 577 1021
f 577 1059 618
f 618 578 577
f 622 621 1060
f 1060 624 622
f 988 624 1060
f 1060 989 988
f 809 808 696
f 696 896 809
f 613 1031 1024
f 1024 447 613
f 717 763 998
f 998 718 717
f 1003 861 856
f 856 1000 1003
f 730 494 722
f 722 1050 730
f 730 1050 1053
f 1053 731 730
f 731 1053 636
f 636 635 731
f 725 899 901
f 901 1051 725
f 1052 1051 901
f 901 902 1052
f 395 1052 902
f 902 396 395
f 564 632 821
f 821 567 564
f 634 818 821
f 821 632 634
f 641 344 327
f 327 326 641
f 742 1023 932
f 932 399 742
f 753 977 1033
f 1033 754 753
f 977 923 925
f 925 1033 977
f 908 563 560
f 560 909 908
f 637 909 560
f 560 1001 637
f 1001 560 1016
f 1016 1017 1001
f 605 703 726
f 726 606 605
f 743 742 399
f 399 398 743
f 910 638 639
f 639 889 910
f 807 853 995
f 995 1011 807
f 1011 995 829
f 829 850 1011
f 739 738 615
f 615 757 739
f 655 739 757
f 757 668 655
f 1000 856 854
f 854 337 1000
f 758 617 491
f 491 490 758
f 758 490 441
f 441 440 758
f 335 334 1002
f 1002 913 335
f 1022 331 864
f 864 867 1022
f 695 740 743
f 743 905 695
f 913 1002 1031
f 1031 613 913
f 896 696 695
f 695 905 896
f 918 747 752
f 752 919 918
f 919 752 754
f 754 921 919
f 337 854 341
f 341 338 337
f 905 743 398
f 398 682 905
f 969 997 1055
f 1055 978 969
f 978 1055 811
f 811 810 978
f 811 1044 917
f 917 812 811
f 812 917 920
f 920 814 812
f 526 630 1008
f 1008 459 526
f 1019 559 498
f 498 1020 1019
f 1018 1020 498
f 498 884 1018
f 884 498 882
f 882 883 884
f 618 890 476
f 476 619 618
f 619 476 475
f 475 620 619
f 621 620 504
f 504 1060 621
f 989 1060 504
f 504 503 989
f 1046 1047 1028
f 1028 937 1046
f 1047 706 709
f 709 1028 1047
f 828 827 1029
f 1029 975 828
f 975 1029 1030
f 1030 980 975
f 980 1030 776
f 776 981 980
f 798 699 891
f 891 1059 798
f 1059 891 890
f 890 618 1059
f 489 1061 1062
f 1062 746 489
f 1061 659 658
f 658 1062 1061
f 488 1048 1061
f 1061 489 488
f 1048 938 659
f 659 1061 1048
f 548 719 999
f 550 548 999
f 598 720 719
f 548 598 719
f 672 735 720
f 598 672 720
f 513 542 735
f 672 513 735
f 305 301 915
f 302 301 305
f 915 837 528
f 915 528 305
f 837 834 316
f 837 316 528
f 834 852 310
f 834 310 316
f 831 321 852
f 852 321 310
f 792 324 831
f 831 324 321
f 784 450 453
f 780 450 784
f 785 453 296
f 784 453 785
f 677 689 674
f 677 692 689
f 790 670 444
f 790 444 428
f 431 444 443
f 428 444 431
f 657 670 532
f 670 790 532
f 653 657 537
f 657 532 537
f 512 544 542
f 513 512 542
f 302 296 301
f 785 296 302
f 555 792 755
f 555 324 792
f 780 443 450
f 431 443 780
f 653 692 677
f 653 537 692
f 555 755 544
f 512 555 544
f 674 550 999
f 674 689 550
f 744 745 1064
f 1064 1065 744
f 1066 1063 1068
f 1068 1069 1066
f 1071 1066 1069
f 1069 1074 1071
f 1075 1071 1074
f 1074 1077 1075
f 1080 1075 1077
f 1077 1081 1080
f 1084 1080 1081
f 1081 1086 1084
f 1087 1084 1086
f 1086 1089 1087
f 1092 1087 1089
f 1089 1093 1092
f 1095 1092 1093
f 1093 1097 1095
f 1100 1095 1097
f 1097 1101 1100
f 1104 1100 1101
f 1101 1105 1104
f 1108 1104 1105
f 1105 1110 1108
f 575 345 1098
f 1098 1094 575
f 1106 350 352
f 352 1109 1106
f 1078 661 663
f 663 1082 1078
f 1098 345 348
f 348 1102 1098
f 1082 663 573
f 573 1085 1082
f 1057 1058 1088
f 1088 1091 1057
f 1107 842 843
f 843 1103 1107
f 1102 348 350
f 350 1106 1102
f 1062 658 1073
f 1073 1070 1062
f 1109 352 842
f 842 1107 1109
f 1083 382 385
f 385 1079 1083
f 745 746 1067
f 1067 1064 745
f 1099 844 1056
f 1056 1096 1099
f 572 575 1094
f 1094 1090 572
f 389 744 1065
f 1065 1072 389
f 746 1062 1070
f 1070 1067 746
f 1088 1058 382
f 382 1083 1088
f 387 389 1072
f 1072 1076 387
f 1056 1057 1091
f 1091 1096 1056
f 573 572 1090
f 1090 1085 573
f 658 661 1078
f 1078 1073 658
f 1079 385 387
f 387 1076 1079
f 1103 843 844
f 844 1099 1103

