# https://github.com/mikedh/trimesh
v 0.03644638 -0.11939004 0.59851902
v 0.03644638 -0.11939004 0.59851902
v 0.03583638 -0.11847711 0.59851902
v 0.03583638 -0.11847711 0.59851902
v 0.03583638 -0.11847711 0.65524754
v 0.03583638 -0.11847711 0.65524754
v 0.03644638 -0.11939004 0.65524754
v 0.03644638 -0.11939004 0.65524754
v 0.03666058 -0.12046690 0.59851902
v 0.03666058 -0.12046690 0.59851902
v 0.03666058 -0.12046690 0.65524754
v 0.03666058 -0.12046690 0.65524754
v 0.03384659 -0.12328088 0.59851902
v 0.03384659 -0.12328088 0.59851902
v 0.03384659 -0.12328088 0.65524754
v 0.03384659 -0.12328088 0.65524754
v 0.03276972 -0.12306669 0.65524754
v 0.03276972 -0.12306669 0.65524754
v 0.03276972 -0.12306669 0.59851902
v 0.03276972 -0.12306669 0.59851902
v 0.03185680 -0.11847711 0.59851902
v 0.03185680 -0.11847711 0.59851902
v 0.03124681 -0.11939004 0.59851902
v 0.03124681 -0.11939004 0.59851902
v 0.03124681 -0.11939004 0.65524754
v 0.03124681 -0.11939004 0.65524754
v 0.03185680 -0.11847711 0.65524754
v 0.03185680 -0.11847711 0.65524754
v 0.03492346 -0.11786711 0.59851902
v 0.03492346 -0.11786711 0.59851902
v 0.03492346 -0.11786711 0.65524754
v 0.03492346 -0.11786711 0.65524754
v 0.03492346 -0.12306669 0.59851902
v 0.03492346 -0.12306669 0.59851902
v 0.03492346 -0.12306669 0.65524754
v 0.03492346 -0.12306669 0.65524754
v 0.03276972 -0.11786711 0.65524754
v 0.03276972 -0.11786711 0.65524754
v 0.03276972 -0.11786711 0.59851902
v 0.03276972 -0.11786711 0.59851902
v 0.03103260 -0.12046690 0.59851902
v 0.03103260 -0.12046690 0.59851902
v 0.03124681 -0.12154377 0.59851902
v 0.03124681 -0.12154377 0.59851902
v 0.03124681 -0.12154377 0.65524754
v 0.03124681 -0.12154377 0.65524754
v 0.03103260 -0.12046690 0.65524754
v 0.03103260 -0.12046690 0.65524754
v 0.03644638 -0.12154377 0.59851902
v 0.03644638 -0.12154377 0.59851902
v 0.03644638 -0.12154377 0.65524754
v 0.03644638 -0.12154377 0.65524754
v 0.03583638 -0.12245669 0.59851902
v 0.03583638 -0.12245669 0.59851902
v 0.03583638 -0.12245669 0.65524754
v 0.03583638 -0.12245669 0.65524754
v 0.03384659 -0.11765291 0.59851902
v 0.03384659 -0.11765291 0.59851902
v 0.03384659 -0.11765291 0.65524754
v 0.03384659 -0.11765291 0.65524754
v 0.03185680 -0.12245669 0.59851902
v 0.03185680 -0.12245669 0.59851902
v 0.03185680 -0.12245669 0.65524754
v 0.03185680 -0.12245669 0.65524754
f 1 4 5
f 9 2 7
f 13 15 17
f 21 24 25
f 6 3 29
f 33 35 16
f 37 39 22
f 41 44 45
f 49 10 12
f 53 50 52
f 54 56 36
f 32 30 57
f 43 61 63
f 23 42 47
f 60 58 40
f 20 18 64
f 5 8 1
f 7 11 9
f 17 19 13
f 25 28 21
f 29 31 6
f 16 14 33
f 22 27 37
f 45 48 41
f 12 51 49
f 52 55 53
f 36 34 54
f 57 59 32
f 63 46 43
f 47 26 23
f 40 38 60
f 64 62 20

