# https://github.com/mikedh/trimesh
v -0.45971418 -0.05013283 0.54091106
v -0.45765727 -0.05219334 0.54091106
v -0.45654545 -0.05488416 0.54091106
v -0.45654800 -0.05779562 0.54091106
v -0.46240305 -0.04901631 0.54091106
v -0.45766450 -0.06048449 0.54091106
v -0.46531452 -0.04901377 0.54091106
v -0.46800535 -0.05012559 0.54091106
v -0.45972501 -0.06254141 0.54091106
v -0.46241584 -0.06365323 0.54091106
v -0.47006585 -0.05218251 0.54091106
v -0.46532730 -0.06365069 0.54091106
v -0.47118236 -0.05487138 0.54091106
v -0.46801617 -0.06253417 0.54091106
v -0.47118491 -0.05778285 0.54091106
v -0.47007309 -0.06047366 0.54091106
v -0.45654545 -0.05488416 0.54837604
v -0.45654545 -0.05488416 0.54837604
v -0.45654545 -0.05488416 0.54837604
v -0.45765727 -0.05219334 0.54837604
v -0.45765727 -0.05219334 0.54837604
v -0.45765727 -0.05219334 0.54837604
v -0.45971418 -0.05013283 0.54837604
v -0.45971418 -0.05013283 0.54837604
v -0.45971418 -0.05013283 0.54837604
v -0.46240305 -0.04901631 0.54837604
v -0.46240305 -0.04901631 0.54837604
v -0.46240305 -0.04901631 0.54837604
v -0.45654800 -0.05779562 0.54837604
v -0.45654800 -0.05779562 0.54837604
v -0.45654800 -0.05779562 0.54837604
v -0.45944992 -0.05366661 0.54837604
v -0.46029061 -0.05261473 0.54837604
v -0.46137489 -0.05181628 0.54837604
v -0.46531452 -0.04901377 0.54837604
v -0.46531452 -0.04901377 0.54837604
v -0.46531452 -0.04901377 0.54837604
v -0.46262890 -0.05132567 0.54837604
v -0.46396713 -0.05117633 0.54837604
v -0.46800535 -0.05012559 0.54837604
v -0.46800535 -0.05012559 0.54837604
v -0.46800535 -0.05012559 0.54837604
v -0.46529845 -0.05137845 0.54837604
v -0.46653206 -0.05191825 0.54837604
v -0.46671322 -0.05206303 0.54837604
v -0.47006585 -0.05218251 0.54837604
v -0.47006585 -0.05218251 0.54837604
v -0.47006585 -0.05218251 0.54837604
v -0.46758396 -0.05275894 0.54837604
v -0.46838239 -0.05384323 0.54837604
v -0.46887302 -0.05509722 0.54837604
v -0.47118236 -0.05487138 0.54837604
v -0.47118236 -0.05487138 0.54837604
v -0.47118236 -0.05487138 0.54837604
v -0.46902235 -0.05643547 0.54837604
v -0.46882022 -0.05776677 0.54837604
v -0.46828043 -0.05900039 0.54837604
v -0.46532730 -0.06365069 0.54837604
v -0.46532730 -0.06365069 0.54837604
v -0.46532730 -0.06365069 0.54837604
v -0.46813564 -0.05918155 0.54837604
v -0.46743975 -0.06005227 0.54837604
v -0.46635547 -0.06085072 0.54837604
v -0.46510146 -0.06134133 0.54837604
v -0.46241584 -0.06365323 0.54837604
v -0.46241584 -0.06365323 0.54837604
v -0.46241584 -0.06365323 0.54837604
v -0.46376322 -0.06149067 0.54837604
v -0.46243191 -0.06128855 0.54837604
v -0.46119829 -0.06074875 0.54837604
v -0.45972501 -0.06254141 0.54837604
v -0.45972501 -0.06254141 0.54837604
v -0.45972501 -0.06254141 0.54837604
v -0.46101713 -0.06060397 0.54837604
v -0.46014639 -0.05990807 0.54837604
v -0.45934796 -0.05882378 0.54837604
v -0.45766450 -0.06048449 0.54837604
v -0.45766450 -0.06048449 0.54837604
v -0.45766450 -0.06048449 0.54837604
v -0.45885734 -0.05756978 0.54837604
v -0.45870801 -0.05623153 0.54837604
v -0.45891014 -0.05490023 0.54837604
v -0.47118491 -0.05778285 0.54837604
v -0.47118491 -0.05778285 0.54837604
v -0.47118491 -0.05778285 0.54837604
v -0.46801617 -0.06253417 0.54837604
v -0.46801617 -0.06253417 0.54837604
v -0.46801617 -0.06253417 0.54837604
v -0.47007309 -0.06047366 0.54837604
v -0.47007309 -0.06047366 0.54837604
v -0.47007309 -0.06047366 0.54837604
v -0.45959472 -0.05348545 0.54837604
v -0.46241584 -0.06365323 0.54636908
v -0.46241584 -0.06365323 0.54636908
v -0.45972501 -0.06254141 0.54636908
v -0.45972501 -0.06254141 0.54636908
v -0.45766450 -0.06048449 0.54636908
v -0.45766450 -0.06048449 0.54636908
v -0.45654800 -0.05779562 0.54636908
v -0.45654800 -0.05779562 0.54636908
v -0.45654545 -0.05488416 0.54636908
v -0.45654545 -0.05488416 0.54636908
v -0.45765727 -0.05219334 0.54636908
v -0.45765727 -0.05219334 0.54636908
v -0.45971418 -0.05013283 0.54636908
v -0.45971418 -0.05013283 0.54636908
v -0.46240305 -0.04901631 0.54636908
v -0.46240305 -0.04901631 0.54636908
v -0.46531452 -0.04901377 0.54636908
v -0.46531452 -0.04901377 0.54636908
v -0.46800535 -0.05012559 0.54636908
v -0.46800535 -0.05012559 0.54636908
v -0.47006585 -0.05218251 0.54636908
v -0.47006585 -0.05218251 0.54636908
v -0.47118236 -0.05487138 0.54636908
v -0.47118236 -0.05487138 0.54636908
v -0.47118491 -0.05778285 0.54636908
v -0.47118491 -0.05778285 0.54636908
v -0.47007309 -0.06047366 0.54636908
v -0.47007309 -0.06047366 0.54636908
v -0.46801617 -0.06253417 0.54636908
v -0.46801617 -0.06253417 0.54636908
v -0.46532730 -0.06365069 0.54636908
v -0.46532730 -0.06365069 0.54636908
f 1 2 3
f 3 4 1
f 5 1 4
f 4 6 5
f 7 5 6
f 6 8 7
f 8 6 9
f 9 10 8
f 11 8 10
f 10 12 11
f 13 11 12
f 12 14 13
f 15 13 14
f 14 16 15
f 17 20 23
f 23 28 17
f 29 17 28
f 28 32 29
f 33 32 28
f 28 34 33
f 34 28 35
f 35 38 34
f 39 38 35
f 35 42 39
f 43 39 42
f 42 44 43
f 45 44 42
f 42 48 45
f 49 45 48
f 48 50 49
f 51 50 48
f 48 52 51
f 55 51 52
f 52 56 55
f 57 56 52
f 52 60 57
f 61 57 60
f 60 62 61
f 63 62 60
f 60 64 63
f 64 60 66
f 66 68 64
f 69 68 66
f 66 70 69
f 70 66 71
f 71 74 70
f 75 74 71
f 71 76 75
f 76 71 78
f 78 80 76
f 81 80 78
f 78 82 81
f 82 78 29
f 29 32 82
f 60 52 85
f 85 86 60
f 86 85 91
f 32 33 92
f 94 95 73
f 73 67 94
f 96 97 79
f 79 72 96
f 98 99 31
f 31 77 98
f 101 19 30
f 30 100 101
f 103 22 18
f 18 102 103
f 105 24 21
f 21 104 105
f 107 26 25
f 25 106 107
f 108 109 36
f 36 27 108
f 110 111 40
f 40 37 110
f 112 113 46
f 46 41 112
f 114 115 54
f 54 47 114
f 53 116 117
f 117 83 53
f 84 118 119
f 119 89 84
f 90 120 121
f 121 88 90
f 87 122 123
f 123 58 87
f 124 93 65
f 65 59 124

