# https://github.com/mikedh/trimesh
v 0.03745267 -0.10825540 0.49678376
v 0.03745267 -0.10825540 0.49678376
v 0.03745267 -0.10825540 0.49678376
v 0.03745267 -0.11853261 0.49678376
v 0.03745267 -0.11853261 0.49678376
v 0.03745267 -0.11853261 0.49678376
v 0.04735736 -0.11853261 0.49678376
v 0.04735736 -0.11853261 0.49678376
v 0.04735736 -0.11853261 0.49678376
v 0.04735736 -0.10825541 0.49678376
v 0.04735736 -0.10825541 0.49678376
v 0.04735736 -0.10825541 0.49678376
v 0.03948554 -0.11853277 0.78565235
v 0.03948554 -0.11853277 0.78565235
v 0.03948554 -0.11853277 0.78565235
v 0.03948554 -0.12389178 0.78565235
v 0.03948554 -0.12389178 0.78565235
v 0.03948554 -0.12389178 0.78565235
v 0.03745266 -0.12389178 0.78565235
v 0.03745266 -0.12389178 0.78565235
v 0.03745266 -0.12389178 0.78565235
v 0.03745267 -0.10825556 0.78565235
v 0.03745267 -0.10825556 0.78565235
v 0.03745267 -0.10825556 0.78565235
v 0.04735736 -0.10825557 0.78565235
v 0.04735736 -0.10825557 0.78565235
v 0.04735736 -0.10825557 0.78565235
v 0.04488072 -0.11853277 0.78565235
v 0.04488072 -0.11853277 0.78565235
v 0.04488072 -0.11853277 0.78565235
v 0.04488071 -0.12389179 0.78565235
v 0.04488071 -0.12389179 0.78565235
v 0.04488071 -0.12389179 0.78565235
v 0.04735735 -0.12389179 0.78565235
v 0.04735735 -0.12389179 0.78565235
v 0.04735735 -0.12389179 0.78565235
v 0.04735736 -0.11853268 0.61691445
v 0.04735736 -0.11853268 0.61691445
v 0.04735736 -0.11853268 0.61691445
v 0.04735735 -0.12389169 0.61691445
v 0.04735735 -0.12389169 0.61691445
v 0.04735735 -0.12389169 0.61691445
v 0.04488071 -0.12389169 0.61691445
v 0.04488071 -0.12389169 0.61691445
v 0.04488071 -0.12389169 0.61691445
v 0.03745267 -0.11853267 0.61691445
v 0.03745267 -0.11853267 0.61691445
v 0.03745267 -0.11853267 0.61691445
v 0.03745266 -0.12389169 0.61691445
v 0.03745266 -0.12389169 0.61691445
v 0.03745266 -0.12389169 0.61691445
v 0.03948554 -0.12389169 0.61691445
v 0.03948554 -0.12389169 0.61691445
v 0.03948554 -0.12389169 0.61691445
v 0.03948554 -0.11853267 0.61691445
v 0.03948554 -0.11853267 0.61691445
v 0.03948554 -0.11853267 0.61691445
v 0.04488072 -0.11853268 0.61691445
v 0.04488072 -0.11853268 0.61691445
v 0.04488072 -0.11853268 0.61691445
f 12 8 4
f 24 20 16
f 28 27 24
f 34 27 28
f 22 26 11
f 37 7 10
f 42 37 25
f 33 43 40
f 51 21 23
f 3 6 48
f 19 50 54
f 57 47 5
f 59 57 9
f 14 57 59
f 32 29 60
f 17 53 56
f 52 49 46
f 38 41 45
f 4 1 12
f 16 13 24
f 24 13 28
f 28 31 34
f 11 2 22
f 10 25 37
f 25 36 42
f 40 35 33
f 23 48 51
f 48 23 3
f 54 18 19
f 5 9 57
f 9 39 59
f 59 30 14
f 60 44 32
f 56 15 17
f 46 55 52
f 45 58 38

