# https://github.com/mikedh/trimesh
v 0.03362339 -0.12040854 0.67007895
v 0.03362339 -0.12040854 0.67007895
v 0.03362339 -0.12040854 0.67007895
v 0.03362339 -0.12040854 0.55959191
v 0.03362339 -0.12040854 0.55959191
v 0.03362339 -0.12040854 0.55959191
v 0.03357582 -0.12041659 0.55959191
v 0.03357582 -0.12041659 0.55959191
v 0.03357582 -0.12041659 0.55959191
v 0.03357582 -0.12041659 0.67007895
v 0.03357582 -0.12041659 0.67007895
v 0.03357582 -0.12041659 0.67007895
v 0.03375599 -0.12045784 0.67007895
v 0.03375599 -0.12045784 0.67007895
v 0.03375599 -0.12045784 0.67007895
v 0.03375599 -0.12045784 0.55959191
v 0.03375599 -0.12045784 0.55959191
v 0.03375599 -0.12045784 0.55959191
v 0.03371666 -0.12042989 0.55959191
v 0.03371666 -0.12042989 0.55959191
v 0.03371666 -0.12042989 0.55959191
v 0.03371666 -0.12042989 0.67007895
v 0.03371666 -0.12042989 0.67007895
v 0.03371666 -0.12042989 0.67007895
v 0.03379353 -0.12067974 0.55959191
v 0.03379353 -0.12067974 0.55959191
v 0.03379353 -0.12067974 0.55959191
v 0.03381035 -0.12063451 0.55959191
v 0.03381035 -0.12063451 0.55959191
v 0.03381035 -0.12063451 0.55959191
v 0.03381035 -0.12063451 0.67007895
v 0.03381035 -0.12063451 0.67007895
v 0.03381035 -0.12063451 0.67007895
v 0.03379353 -0.12067974 0.67007895
v 0.03379353 -0.12067974 0.67007895
v 0.03379353 -0.12067974 0.67007895
v 0.03372840 -0.12074983 0.55959191
v 0.03372840 -0.12074983 0.55959191
v 0.03372840 -0.12074983 0.55959191
v 0.03372840 -0.12074983 0.67007895
v 0.03372840 -0.12074983 0.67007895
v 0.03372840 -0.12074983 0.67007895
v 0.03368453 -0.12076992 0.67007895
v 0.03368453 -0.12076992 0.67007895
v 0.03368453 -0.12076992 0.67007895
v 0.03368453 -0.12076992 0.55959191
v 0.03368453 -0.12076992 0.55959191
v 0.03368453 -0.12076992 0.55959191
v 0.03358891 -0.12077343 0.67007895
v 0.03358891 -0.12077343 0.67007895
v 0.03358891 -0.12077343 0.67007895
v 0.03363695 -0.12077797 0.67007895
v 0.03363695 -0.12077797 0.67007895
v 0.03363695 -0.12077797 0.67007895
v 0.03354369 -0.12075661 0.67007895
v 0.03354369 -0.12075661 0.67007895
v 0.03354369 -0.12075661 0.67007895
v 0.03350435 -0.12072866 0.67007895
v 0.03350435 -0.12072866 0.67007895
v 0.03350435 -0.12072866 0.67007895
v 0.03376558 -0.12071907 0.67007895
v 0.03376558 -0.12071907 0.67007895
v 0.03376558 -0.12071907 0.67007895
v 0.03347360 -0.12069148 0.67007895
v 0.03347360 -0.12069148 0.67007895
v 0.03347360 -0.12069148 0.67007895
v 0.03345351 -0.12064761 0.67007895
v 0.03345351 -0.12064761 0.67007895
v 0.03345351 -0.12064761 0.67007895
v 0.03344546 -0.12060003 0.67007895
v 0.03344546 -0.12060003 0.67007895
v 0.03344546 -0.12060003 0.67007895
v 0.03381489 -0.12058647 0.67007895
v 0.03381489 -0.12058647 0.67007895
v 0.03381489 -0.12058647 0.67007895
v 0.03345000 -0.12055200 0.67007895
v 0.03345000 -0.12055200 0.67007895
v 0.03345000 -0.12055200 0.67007895
v 0.03380684 -0.12053890 0.67007895
v 0.03380684 -0.12053890 0.67007895
v 0.03380684 -0.12053890 0.67007895
v 0.03346681 -0.12050677 0.67007895
v 0.03346681 -0.12050677 0.67007895
v 0.03346681 -0.12050677 0.67007895
v 0.03378675 -0.12049502 0.67007895
v 0.03378675 -0.12049502 0.67007895
v 0.03378675 -0.12049502 0.67007895
v 0.03349477 -0.12046743 0.67007895
v 0.03349477 -0.12046743 0.67007895
v 0.03349477 -0.12046743 0.67007895
v 0.03353194 -0.12043668 0.67007895
v 0.03353194 -0.12043668 0.67007895
v 0.03353194 -0.12043668 0.67007895
v 0.03367143 -0.12041308 0.67007895
v 0.03367143 -0.12041308 0.67007895
v 0.03367143 -0.12041308 0.67007895
v 0.03380684 -0.12053890 0.55959191
v 0.03380684 -0.12053890 0.55959191
v 0.03380684 -0.12053890 0.55959191
v 0.03378675 -0.12049502 0.55959191
v 0.03378675 -0.12049502 0.55959191
v 0.03378675 -0.12049502 0.55959191
v 0.03354369 -0.12075661 0.55959191
v 0.03354369 -0.12075661 0.55959191
v 0.03354369 -0.12075661 0.55959191
v 0.03350435 -0.12072866 0.55959191
v 0.03350435 -0.12072866 0.55959191
v 0.03350435 -0.12072866 0.55959191
v 0.03344546 -0.12060003 0.55959191
v 0.03344546 -0.12060003 0.55959191
v 0.03344546 -0.12060003 0.55959191
v 0.03345351 -0.12064761 0.55959191
v 0.03345351 -0.12064761 0.55959191
v 0.03345351 -0.12064761 0.55959191
v 0.03381489 -0.12058647 0.55959191
v 0.03381489 -0.12058647 0.55959191
v 0.03381489 -0.12058647 0.55959191
v 0.03376558 -0.12071907 0.55959191
v 0.03376558 -0.12071907 0.55959191
v 0.03376558 -0.12071907 0.55959191
v 0.03363695 -0.12077797 0.55959191
v 0.03363695 -0.12077797 0.55959191
v 0.03363695 -0.12077797 0.55959191
v 0.03358891 -0.12077343 0.55959191
v 0.03358891 -0.12077343 0.55959191
v 0.03358891 -0.12077343 0.55959191
v 0.03347360 -0.12069148 0.55959191
v 0.03347360 -0.12069148 0.55959191
v 0.03347360 -0.12069148 0.55959191
v 0.03345000 -0.12055200 0.55959191
v 0.03345000 -0.12055200 0.55959191
v 0.03345000 -0.12055200 0.55959191
v 0.03346681 -0.12050677 0.55959191
v 0.03346681 -0.12050677 0.55959191
v 0.03346681 -0.12050677 0.55959191
v 0.03349477 -0.12046743 0.55959191
v 0.03349477 -0.12046743 0.55959191
v 0.03349477 -0.12046743 0.55959191
v 0.03353194 -0.12043668 0.55959191
v 0.03353194 -0.12043668 0.55959191
v 0.03353194 -0.12043668 0.55959191
v 0.03367143 -0.12041308 0.55959191
v 0.03367143 -0.12041308 0.55959191
v 0.03367143 -0.12041308 0.55959191
f 1 4 8
f 15 16 20
f 25 30 31
f 37 42 44
f 49 52 45
f 55 45 41
f 60 41 61
f 66 61 36
f 67 36 33
f 70 33 75
f 77 75 79
f 83 79 86
f 89 86 13
f 93 13 22
f 11 22 96
f 99 100 87
f 103 56 59
f 110 113 68
f 29 116 74
f 119 62 40
f 46 121 124
f 38 46 105
f 120 38 106
f 27 120 127
f 28 27 112
f 115 28 109
f 97 115 131
f 102 97 134
f 18 102 136
f 21 18 140
f 142 21 9
f 117 98 80
f 128 107 58
f 133 130 78
f 88 92 139
f 47 43 53
f 132 111 71
f 2 95 144
f 118 26 35
f 114 129 65
f 10 7 141
f 101 17 14
f 126 50 57
f 137 135 82
f 122 54 51
f 24 19 143
f 8 12 1
f 20 23 15
f 31 34 25
f 44 48 37
f 45 55 49
f 41 60 55
f 61 66 60
f 36 67 66
f 33 70 67
f 75 77 70
f 79 83 77
f 86 89 83
f 13 93 89
f 22 11 93
f 96 3 11
f 87 81 99
f 59 108 103
f 68 72 110
f 74 32 29
f 40 39 119
f 124 105 46
f 105 106 38
f 106 127 120
f 127 112 27
f 112 109 28
f 109 131 115
f 131 134 97
f 134 136 102
f 136 140 18
f 140 9 21
f 9 6 142
f 80 73 117
f 58 64 128
f 78 84 133
f 139 138 88
f 53 123 47
f 71 76 132
f 144 5 2
f 35 63 118
f 65 69 114
f 141 91 10
f 14 85 101
f 57 104 126
f 82 90 137
f 51 125 122
f 143 94 24

