# https://github.com/mikedh/trimesh
v -0.16546037 -0.00590417 0.45739935
v -0.16546037 0.15730779 0.45739935
v -0.16546037 0.16342938 0.45739935
v -0.16546037 0.16342938 0.45739935
v 0.05675645 0.16342938 0.45739935
v 0.32266441 -0.25085344 0.00000000
v -0.16546037 -0.25085344 0.00000000
v -0.16546037 0.16342938 0.00000000
v -0.16546037 0.16342938 0.00000000
v 0.32266441 0.16342938 0.00000000
v 0.32266441 0.16342938 0.00000000
v 0.31397857 0.15730779 0.45087149
v -0.15957593 0.15730779 0.45087149
v -0.15957593 -0.23973673 0.45087149
v -0.16546037 0.15730779 0.45087149
v -0.16546037 0.16342938 0.45087149
v -0.16546037 0.16342938 0.45087149
v 0.31397857 0.16342938 0.45087149
v 0.31397857 -0.23973673 0.45087149
v -0.16546037 -0.25085344 0.45087149
v 0.32266441 -0.25085344 0.45087149
v 0.32266441 -0.23973673 0.45087149
v 0.32266441 0.16342938 0.45087149
v 0.32266441 0.16342938 0.45087149
v 0.05675645 0.16342938 0.54391104
v -0.16546037 -0.00590417 0.48954207
v -0.16546037 0.06989427 0.48954207
v -0.16546037 0.06989427 0.54391104
v -0.16546037 0.16342938 0.54391104
v -0.16546037 0.16342938 0.54391104
v -0.16546037 0.16342938 0.48954207
v -0.16546037 0.16342938 0.48954207
f 11 8 16
f 16 24 11
f 24 16 18
f 7 20 15
f 15 9 7
f 9 15 17
f 19 14 13
f 13 12 19
f 21 6 10
f 10 22 21
f 22 10 23
f 25 5 4
f 4 31 25
f 25 31 30
f 1 26 27
f 27 2 1
f 2 27 32
f 32 3 2
f 32 27 28
f 28 29 32

