# https://github.com/mikedh/trimesh
v 0.03094647 -0.11571786 0.66825241
v 0.03094647 -0.11676752 0.66752303
v 0.03094647 -0.11447971 0.66850857
v 0.03094647 -0.11324155 0.66825241
v 0.03094647 -0.11219190 0.66752303
v 0.03094647 -0.11149055 0.66643139
v 0.03094647 -0.11124426 0.66514368
v 0.03094647 -0.11149055 0.66385598
v 0.03094647 -0.11219190 0.66276434
v 0.03094647 -0.11324155 0.66203496
v 0.03094647 -0.11447971 0.66177879
v 0.03094647 -0.11571786 0.66203496
v 0.03094647 -0.11676752 0.66276434
v 0.03094647 -0.11746887 0.66385598
v 0.03094647 -0.11771516 0.66514368
v 0.03094647 -0.11746887 0.66643139
v 0.03506347 -0.12411022 0.67763457
v 0.03611312 -0.12411022 0.67690519
v 0.03382531 -0.12411022 0.67789074
v 0.03258716 -0.12411022 0.67763457
v 0.03153750 -0.12411022 0.67690519
v 0.03083615 -0.12411022 0.67581355
v 0.03058986 -0.12411022 0.67452584
v 0.03083615 -0.12411022 0.67323814
v 0.03153750 -0.12411022 0.67214650
v 0.03258716 -0.12411022 0.67141712
v 0.03382531 -0.12411022 0.67116095
v 0.03506347 -0.12411022 0.67141712
v 0.03611312 -0.12411022 0.67214650
v 0.03681448 -0.12411022 0.67323814
v 0.03706076 -0.12411022 0.67452584
v 0.03681448 -0.12411022 0.67581355
v 0.04488072 -0.11853267 0.77269660
v 0.03948555 -0.11853267 0.77269660
v 0.03948555 -0.12389169 0.76508228
v 0.03948555 -0.12389169 0.77269660
v 0.03948555 -0.12389169 0.77269660
v 0.04488072 -0.12389169 0.76508228
v 0.04488072 -0.12389169 0.77269660
v 0.04488072 -0.12389169 0.77269660
f 14 15 16
f 13 14 2
f 12 13 1
f 11 12 3
f 10 11 4
f 9 10 5
f 8 5 6
f 30 31 32
f 29 30 18
f 28 29 17
f 27 28 19
f 26 27 20
f 25 26 21
f 24 21 22
f 38 39 36
f 37 40 33
f 16 2 14
f 2 1 13
f 1 3 12
f 3 4 11
f 4 5 10
f 5 8 9
f 6 7 8
f 32 18 30
f 18 17 29
f 17 19 28
f 19 20 27
f 20 21 26
f 21 24 25
f 22 23 24
f 36 35 38
f 33 34 37

