# https://github.com/mikedh/trimesh
v -0.10595752 -0.23973671 0.07712673
v -0.10595752 -0.23973671 0.07712673
v -0.10595752 -0.23973671 0.40152594
v -0.10595752 -0.23973671 0.40152594
v 0.26305457 -0.23973671 0.40152594
v 0.26305457 -0.23973671 0.40152594
v 0.26305457 -0.23973671 0.07712673
v 0.26305457 -0.23973671 0.07712673
v 0.26305457 0.16220104 0.07712673
v 0.26305457 0.16220104 0.07712673
v -0.10595752 0.16220104 0.07712673
v -0.10595752 0.16220104 0.07712673
v -0.10595752 0.16220104 0.40152594
v -0.10595752 0.16220104 0.40152594
v 0.26305457 0.16220104 0.40152594
v 0.26305457 0.16220104 0.40152594
f 12 1 8
f 3 2 11
f 7 6 15
f 5 4 13
f 8 9 12
f 11 14 3
f 15 10 7
f 13 16 5

