# https://github.com/mikedh/trimesh
v 0.00572819 -0.13058631 0.25728798
v 0.00477611 -0.13058631 0.25557121
v 0.01781644 -0.13058631 0.27908577
v 0.14165460 -0.13058631 0.12333773
v 0.16470514 -0.13058631 0.13718180
v 0.08858615 -0.13058631 0.11252490
v 0.06174762 -0.13058631 0.11922204
v 0.03755693 -0.13058631 0.13263731
v 0.03931895 -0.13058631 0.13501756
v 0.06283354 -0.13058631 0.12197723
v 0.20247342 -0.13058631 0.23300749
v 0.19506701 -0.13058631 0.25885571
v 0.16364668 -0.13058631 0.30296854
v 0.18354094 -0.13058631 0.28374938
v 0.19778308 -0.13058631 0.26003610
v 0.20540246 -0.13058631 0.23344465
v 0.20587983 -0.13058631 0.20578728
v 0.14283495 -0.13058631 0.12062166
v 0.11624353 -0.13058631 0.11300228
v 0.13837008 -0.13058631 0.31362863
v 0.11228165 -0.13058631 0.32013858
v 0.16188466 -0.13058631 0.30058831
v 0.03649846 -0.13058631 0.29842407
v 0.18122295 -0.13058631 0.28190626
v 0.19918268 -0.13058631 0.17894874
v 0.18576743 -0.13058631 0.15475806
v 0.11580636 -0.13058631 0.11593131
v 0.19642751 -0.13058631 0.18003466
v 0.20293747 -0.13058631 0.20612309
v 0.07247312 -0.13058631 0.31597133
v 0.05954901 -0.13058631 0.31226812
v 0.07896799 -0.13058631 0.31783233
v 0.08539725 -0.13058631 0.31967457
v 0.00342054 -0.13058631 0.17556977
v -0.00419883 -0.13058631 0.20216120
v -0.00467622 -0.13058631 0.22981859
v 0.08496008 -0.13058631 0.32260357
v 0.11261747 -0.13058631 0.32308095
v 0.18338719 -0.13058631 0.15652006
v 0.16654827 -0.13058631 0.13486377
v 0.05836866 -0.13058631 0.31498420
v 0.07166437 -0.13058631 0.31879390
v 0.03465535 -0.13058631 0.30074208
v 0.01543619 -0.13058631 0.28084780
v 0.00316046 -0.13058631 0.25871196
v 0.00202093 -0.13058631 0.25665712
v 0.01766265 -0.13058631 0.15185647
v -0.00126981 -0.13058631 0.20259836
v 0.00613661 -0.13058631 0.17675013
v -0.00173385 -0.13058631 0.22948276
v 0.13945598 -0.13058631 0.31638383
v 0.00231740 -0.13058631 0.24571799
v 0.08892197 -0.13058631 0.11546727
v 0.01998068 -0.13058631 0.15369958
v 0.00303292 -0.13058631 0.25695836
v 0.00205993 -0.13058631 0.25520384
v 0.01538679 -0.13058631 0.27923511
v 0.14194599 -0.13058631 0.12006488
v 0.16550301 -0.13058631 0.13421314
v 0.08771148 -0.13058631 0.10901447
v 0.06028324 -0.13058631 0.11585876
v 0.03556103 -0.13058631 0.12956879
v 0.03736175 -0.13058631 0.13200134
v 0.06139302 -0.13058631 0.11867449
v 0.16442125 -0.13058631 0.30364260
v 0.18475266 -0.13058631 0.28400116
v 0.19930773 -0.13058631 0.25976680
v 0.20709451 -0.13058631 0.23259112
v 0.20758238 -0.13058631 0.20432602
v 0.14315226 -0.13058631 0.11728913
v 0.11597658 -0.13058631 0.10950234
v 0.20073808 -0.13058631 0.17689779
v 0.18702806 -0.13058631 0.15217559
v 0.11552980 -0.13058631 0.11249572
v 0.07124441 -0.13058631 0.31693112
v 0.05803632 -0.13058631 0.31314653
v 0.07788198 -0.13058631 0.31883303
v 0.08445250 -0.13058631 0.32071567
v 0.00067457 -0.13058631 0.17344459
v -0.00711222 -0.13058631 0.20062029
v -0.00760009 -0.13058631 0.22888536
v 0.08400573 -0.13058631 0.32370907
v 0.11227082 -0.13058631 0.32419694
v 0.16555563 -0.13058631 0.13426763
v 0.16738661 -0.13058631 0.13184417
v 0.05683003 -0.13058631 0.31592227
v 0.07041788 -0.13058631 0.31981569
v 0.03259569 -0.13058631 0.30136720
v 0.01295424 -0.13058631 0.28103582
v 0.00040878 -0.13058631 0.25841360
v -0.00075579 -0.13058631 0.25631362
v 0.01522962 -0.13058631 0.14921025
v -0.00411884 -0.13058631 0.20106705
v 0.00345032 -0.13058631 0.17465088
v -0.00413381 -0.13058631 0.20193423
v 0.13969906 -0.13058631 0.31735263
v 0.08805468 -0.13058631 0.11202148
v 0.01759858 -0.13058631 0.15109386
v -0.00045281 -0.13058631 0.24513413
v -0.00459307 -0.13058631 0.22854217
v 0.18459551 -0.13058631 0.15397631
v 0.11192761 -0.13058631 0.32118992
v 0.19653197 -0.13058631 0.25856054
v 0.18238371 -0.13058631 0.28211756
v 0.20410113 -0.13058631 0.23214434
v 0.13858928 -0.13058631 0.31453693
v 0.20457537 -0.13058631 0.20466923
v 0.03447929 -0.13058631 0.29899828
v 0.19792237 -0.13058631 0.17800758
v 0.16262054 -0.13058631 0.30121008
v 0.07598939 -0.13058631 0.31892968
v 0.07560005 -0.13058631 0.31889027
v 0.07635694 -0.13058631 0.31913347
v 0.07664672 -0.13058631 0.31947072
v 0.07681463 -0.13058631 0.31989002
v 0.07683510 -0.13058631 0.32032750
v 0.07670501 -0.13058631 0.32071666
v 0.07644417 -0.13058631 0.32099815
v 0.07609230 -0.13058631 0.32112915
v 0.07570295 -0.13058631 0.32108978
v 0.07533540 -0.13058631 0.32088595
v 0.07504562 -0.13058631 0.32054871
v 0.07487770 -0.13058631 0.32012944
v 0.07485723 -0.13058631 0.31969193
v 0.07498733 -0.13058631 0.31930280
v 0.07524816 -0.13058631 0.31902130
v 0.09252793 -0.13058631 0.11107932
v 0.09250636 -0.13058631 0.11066960
v 0.09264588 -0.13058631 0.11031208
v 0.09292525 -0.13058631 0.11006121
v 0.09330195 -0.13058631 0.10995517
v 0.09371863 -0.13058631 0.11001011
v 0.09411184 -0.13058631 0.11021766
v 0.09442174 -0.13058631 0.11054623
v 0.09460112 -0.13058631 0.11094579
v 0.09462270 -0.13058631 0.11135552
v 0.09448319 -0.13058631 0.11171303
v 0.09420381 -0.13058631 0.11196391
v 0.09382711 -0.13058631 0.11206994
v 0.09341043 -0.13058631 0.11201501
v 0.09301722 -0.13058631 0.11180745
v 0.09270733 -0.13058631 0.11147889
f 27 53 19
f 19 18 27
f 4 27 18
f 18 40 4
f 5 4 40
f 40 26 5
f 39 5 26
f 26 25 39
f 28 39 25
f 25 17 28
f 29 28 17
f 17 16 29
f 11 29 16
f 16 12 11
f 12 16 15
f 15 24 12
f 24 15 14
f 14 22 24
f 22 14 13
f 13 20 22
f 20 13 51
f 51 21 20
f 21 51 38
f 38 37 21
f 33 21 37
f 37 42 33
f 32 33 42
f 42 30 32
f 30 42 41
f 41 31 30
f 31 41 43
f 43 23 31
f 23 43 44
f 44 3 23
f 3 44 45
f 45 1 3
f 1 45 46
f 46 2 1
f 52 2 46
f 46 36 52
f 50 52 36
f 36 48 50
f 48 36 35
f 35 49 48
f 49 35 34
f 34 54 49
f 54 34 47
f 47 9 54
f 9 47 8
f 8 10 9
f 10 8 7
f 7 53 10
f 53 7 6
f 6 19 53
f 111 112 77
f 77 78 111
f 113 111 78
f 78 114 113
f 115 114 78
f 78 116 115
f 117 116 78
f 78 102 117
f 118 117 102
f 102 119 118
f 119 102 82
f 82 120 119
f 120 82 87
f 87 121 120
f 122 121 87
f 87 123 122
f 124 123 87
f 87 125 124
f 126 125 87
f 87 112 126
f 75 112 87
f 87 86 75
f 76 75 86
f 86 88 76
f 108 76 88
f 88 89 108
f 57 108 89
f 89 90 57
f 55 57 90
f 90 91 55
f 56 55 91
f 91 99 56
f 99 91 81
f 81 100 99
f 95 100 81
f 81 93 95
f 93 81 80
f 80 94 93
f 94 80 79
f 79 98 94
f 98 79 92
f 92 63 98
f 63 92 62
f 62 64 63
f 64 62 61
f 61 97 64
f 127 97 61
f 61 128 127
f 129 128 61
f 61 130 129
f 131 130 61
f 61 60 131
f 131 60 71
f 71 74 131
f 74 71 70
f 70 58 74
f 58 70 85
f 85 59 58
f 59 85 73
f 73 84 59
f 101 84 73
f 73 72 101
f 109 101 72
f 72 69 109
f 107 109 69
f 69 68 107
f 105 107 68
f 68 103 105
f 103 68 67
f 67 104 103
f 104 67 66
f 66 110 104
f 110 66 65
f 65 106 110
f 106 65 96
f 96 102 106
f 102 96 83
f 83 82 102
f 132 131 74
f 74 133 132
f 134 133 74
f 74 135 134
f 136 135 74
f 74 137 136
f 138 137 74
f 74 139 138
f 139 74 97
f 97 140 139
f 141 140 97
f 97 142 141
f 97 127 142
f 112 75 77
f 126 112 111
f 111 113 126
f 125 126 113
f 113 114 125
f 124 125 114
f 114 115 124
f 123 124 115
f 115 116 123
f 122 123 116
f 116 117 122
f 121 122 117
f 117 118 121
f 120 121 118
f 118 119 120
f 130 131 132
f 132 133 130
f 129 130 133
f 133 134 129
f 128 129 134
f 134 135 128
f 127 128 135
f 135 136 127
f 142 127 136
f 136 137 142
f 141 142 137
f 137 138 141
f 140 141 138
f 138 139 140

