# https://github.com/mikedh/trimesh
v -0.06235535 -0.13839855 0.35683285
v -0.06235535 -0.13839855 0.35683285
v -0.06292377 -0.13554092 0.35683285
v -0.06292377 -0.13554092 0.35683285
v -0.06235535 -0.13268329 0.35683285
v -0.06235535 -0.13268329 0.35683285
v -0.06073663 -0.14082113 0.35683285
v -0.06073663 -0.14082113 0.35683285
v -0.06073663 -0.13026071 0.35683285
v -0.06073663 -0.13026071 0.35683285
v -0.05831405 -0.14243986 0.35683285
v -0.05831405 -0.14243986 0.35683285
v -0.05831405 -0.12864198 0.35683285
v -0.05831405 -0.12864198 0.35683285
v -0.05545642 -0.14300828 0.35683285
v -0.05545642 -0.14300828 0.35683285
v -0.05545642 -0.12807356 0.35683285
v -0.05545642 -0.12807356 0.35683285
v -0.05259878 -0.14243986 0.35683285
v -0.05259878 -0.14243986 0.35683285
v -0.05259878 -0.12864198 0.35683285
v -0.05259878 -0.12864198 0.35683285
v -0.05017620 -0.13026071 0.35683285
v -0.05017620 -0.13026071 0.35683285
v -0.05017620 -0.14082113 0.35683285
v -0.05017620 -0.14082113 0.35683285
v -0.04855748 -0.13839855 0.35683285
v -0.04855748 -0.13839855 0.35683285
v -0.04855748 -0.13268329 0.35683285
v -0.04855748 -0.13268329 0.35683285
v -0.04798906 -0.13554092 0.35683285
v -0.04798906 -0.13554092 0.35683285
v -0.06235535 -0.13268329 0.36089483
v -0.06235535 -0.13268329 0.36089483
v -0.06292377 -0.13554092 0.36089483
v -0.06292377 -0.13554092 0.36089483
v -0.06235535 -0.13839855 0.36089483
v -0.06235535 -0.13839855 0.36089483
v -0.06073663 -0.14082113 0.36089483
v -0.06073663 -0.14082113 0.36089483
v -0.06073663 -0.13026071 0.36089483
v -0.06073663 -0.13026071 0.36089483
v -0.05831405 -0.14243986 0.36089483
v -0.05831405 -0.14243986 0.36089483
v -0.05831405 -0.12864198 0.36089483
v -0.05831405 -0.12864198 0.36089483
v -0.05545642 -0.14300828 0.36089483
v -0.05545642 -0.14300828 0.36089483
v -0.05545642 -0.12807356 0.36089483
v -0.05545642 -0.12807356 0.36089483
v -0.05259878 -0.14243986 0.36089483
v -0.05259878 -0.14243986 0.36089483
v -0.05259878 -0.12864198 0.36089483
v -0.05259878 -0.12864198 0.36089483
v -0.05017620 -0.13026071 0.36089483
v -0.05017620 -0.13026071 0.36089483
v -0.05017620 -0.14082113 0.36089483
v -0.05017620 -0.14082113 0.36089483
v -0.04855748 -0.13839855 0.36089483
v -0.04855748 -0.13839855 0.36089483
v -0.04855748 -0.13268329 0.36089483
v -0.04855748 -0.13268329 0.36089483
v -0.04798906 -0.13554092 0.36089483
v -0.04798906 -0.13554092 0.36089483
f 1 4 5
f 8 5 9
f 12 9 13
f 16 13 17
f 20 17 21
f 25 20 24
f 28 24 29
f 34 35 38
f 42 34 39
f 46 42 43
f 50 46 47
f 54 50 51
f 55 51 58
f 62 55 59
f 64 31 30
f 61 30 23
f 23 22 53
f 22 18 49
f 18 14 45
f 14 10 41
f 6 33 41
f 3 36 33
f 2 37 36
f 7 40 37
f 7 11 44
f 11 15 48
f 15 19 52
f 19 26 57
f 57 26 27
f 60 27 31
f 5 8 1
f 9 12 8
f 13 16 12
f 17 20 16
f 21 24 20
f 24 28 25
f 29 32 28
f 38 39 34
f 39 43 42
f 43 47 46
f 47 51 50
f 51 55 54
f 58 59 55
f 59 63 62
f 30 61 64
f 23 56 61
f 53 56 23
f 49 53 22
f 45 49 18
f 41 45 14
f 41 10 6
f 33 6 3
f 36 3 2
f 37 2 7
f 44 40 7
f 48 44 11
f 52 48 15
f 57 52 19
f 27 60 57
f 31 64 60

