# https://github.com/mikedh/trimesh
v -0.16546037 -0.00590417 0.45739935
v -0.16546037 -0.23973673 0.45739935
v 0.32266441 -0.23973673 0.45739935
v 0.31397857 0.16342938 0.45739935
v 0.32266441 0.16342938 0.45739935
v 0.32266441 0.16342938 0.45739935
v 0.06104887 0.16342938 0.45739935
v 0.32266441 -0.25085344 0.45739935
v 0.32266441 -0.25085344 0.48954207
v -0.16546037 -0.25085344 0.45739935
v -0.16546037 -0.25085344 0.48954207
v 0.06104887 0.16342938 0.48954207
v -0.16546037 -0.00590417 0.48954207
v 0.32266441 0.16342938 0.48954207
v 0.32266441 0.16342938 0.48954207
f 9 8 3
f 3 15 9
f 15 3 5
f 10 11 13
f 13 2 10
f 2 13 1
f 4 7 12
f 12 6 4
f 6 12 14

