# https://github.com/mikedh/trimesh
v -0.32063402 0.06818335 0.45360593
v -0.32063402 0.06818335 0.45360593
v -0.32063402 -0.26081401 0.45360593
v -0.32063402 -0.26081401 0.45360593
v -0.30637995 -0.26081401 0.45569293
v -0.30637995 -0.26081401 0.45569293
v -0.30637995 0.06818335 0.45569293
v -0.30637995 0.06818335 0.45569293
v -0.37366898 -0.25085344 0.21789726
v -0.37366898 -0.25085344 0.21789726
v -0.37366898 -0.25085344 0.21789726
v -0.37366898 -0.26081401 0.21789726
v -0.37366898 -0.26081401 0.21789726
v -0.37366898 -0.26081401 0.21789726
v -0.37366898 -0.26081401 0.36111165
v -0.37366898 -0.26081401 0.36111165
v -0.37366898 -0.25085344 0.36111165
v -0.37366898 -0.25085344 0.36111165
v -0.37366898 -0.25085344 0.36111165
v -0.37366898 -0.25085344 0.22617040
v -0.37366898 -0.25085344 0.22617040
v -0.37366898 -0.25085344 0.22617040
v -0.37366898 -0.25085344 0.22130557
v -0.37366898 -0.20342214 0.22617040
v -0.37366898 -0.20342214 0.22617040
v -0.37366898 -0.20342214 0.22617040
v -0.37366898 -0.20342214 0.22130557
v -0.37366898 -0.20342214 0.22130557
v -0.21031260 -0.26081401 0.21789726
v -0.21031260 -0.26081401 0.21789726
v -0.21031260 -0.26081401 0.21789726
v -0.21031260 -0.26081401 0.41124212
v -0.21031260 -0.26081401 0.41124212
v -0.37366898 -0.26081401 0.41124212
v -0.37366898 -0.26081401 0.41124212
v -0.37366898 -0.26081401 0.43194882
v -0.37366898 -0.26081401 0.43194882
v -0.37366898 -0.26081401 0.43194882
v -0.21031260 -0.26081401 0.43194882
v -0.21031260 -0.26081401 0.43194882
v -0.21031260 -0.26081401 0.43194882
v -0.36126175 -0.26081401 0.43926969
v -0.36126175 -0.26081401 0.43926969
v -0.22271983 -0.26081401 0.43926969
v -0.22271983 -0.26081401 0.43926969
v -0.34820432 -0.26081401 0.44535558
v -0.34820432 -0.26081401 0.44535558
v -0.23577727 -0.26081401 0.44535558
v -0.23577727 -0.26081401 0.44535558
v -0.33461922 -0.26081401 0.45014929
v -0.33461922 -0.26081401 0.45014929
v -0.24936237 -0.26081401 0.45014929
v -0.24936237 -0.26081401 0.45014929
v -0.26334758 -0.26081401 0.45360593
v -0.26334758 -0.26081401 0.45360593
v -0.27760165 -0.26081401 0.45569293
v -0.27760165 -0.26081401 0.45569293
v -0.29199078 -0.26081401 0.45639078
v -0.29199078 -0.26081401 0.45639078
v -0.37366898 -0.25085344 0.21426419
v -0.37366898 -0.25085344 0.21426419
v -0.37366898 -0.25085344 0.21426419
v -0.21031260 -0.25085344 0.21426419
v -0.21031260 -0.25085344 0.21426419
v -0.21031260 -0.25085344 0.21426419
v -0.21031260 -0.25085344 0.21454211
v -0.21031260 -0.25085344 0.21454211
v -0.21031260 -0.25085344 0.21454211
v -0.21031260 -0.25085344 0.21789726
v -0.21031260 -0.25085344 0.21789726
v -0.21031260 -0.25085344 0.21789726
v -0.21031260 -0.25085344 0.21789726
v -0.37366898 -0.25085344 0.02872095
v -0.37366898 -0.25085344 0.02872095
v -0.37366898 -0.25085344 0.02455242
v -0.37366898 -0.25085344 0.02455242
v -0.37366898 -0.25085344 0.02455242
v -0.21031260 -0.25085344 0.02455242
v -0.21031260 -0.25085344 0.02455242
v -0.21031260 -0.25085344 0.02872095
v -0.37366898 -0.25085344 0.16738129
v -0.37366898 -0.25085344 0.16738129
v -0.37366898 -0.25085344 0.16738129
v -0.37366898 -0.26081401 0.16738129
v -0.37366898 -0.26081401 0.16738129
v -0.37366898 -0.26081401 0.16738129
v -0.21031260 -0.26081401 0.16738129
v -0.21031260 -0.26081401 0.16738129
v -0.21031260 -0.26081401 0.16738129
v -0.21031260 -0.25085344 0.16738129
v -0.21031260 -0.25085344 0.16738129
v -0.21031260 -0.25085344 0.16738129
v -0.37366898 -0.26081401 0.04486193
v -0.37366898 -0.26081401 0.04486193
v -0.37366898 -0.26081401 0.04486193
v -0.21031260 -0.26081401 0.04486193
v -0.21031260 -0.26081401 0.04486193
v -0.21031260 -0.26081401 0.04486193
v -0.21031260 -0.26081401 0.05741478
v -0.21031260 -0.26081401 0.05741478
v -0.21031260 -0.26081401 0.05741478
v -0.37366898 -0.26081401 0.05741478
v -0.37366898 -0.26081401 0.05741478
v -0.37366898 -0.26081401 0.05741478
v -0.37366898 -0.25085344 0.04486193
v -0.37366898 -0.25085344 0.04486193
v -0.37366898 -0.25085344 0.04486193
v -0.21031260 -0.25085344 0.04486193
v -0.21031260 -0.25085344 0.04486193
v -0.21031260 -0.25085344 0.04486193
v -0.21031260 -0.25085344 0.05741478
v -0.21031260 -0.25085344 0.05741478
v -0.21031260 -0.25085344 0.05741478
v -0.37366898 -0.25085344 0.20025712
v -0.37366898 -0.25085344 0.20025712
v -0.37366898 -0.25085344 0.20025712
v -0.21031260 -0.25085344 0.20025712
v -0.21031260 -0.25085344 0.20025712
v -0.21031260 -0.25085344 0.20025712
v -0.21031260 -0.25085344 0.20389021
v -0.21031260 -0.25085344 0.20389021
v -0.21031260 -0.25085344 0.20389021
v -0.37366898 -0.25085344 0.20389021
v -0.37366898 -0.25085344 0.20389021
v -0.37366898 -0.25085344 0.20389021
v -0.24936237 0.06818335 0.45014929
v -0.24936237 0.06818335 0.45014929
v -0.23577727 0.06818335 0.44535558
v -0.23577727 0.06818335 0.44535558
v -0.29199078 0.06818335 0.45639078
v -0.29199078 0.06818335 0.45639078
v -0.37366898 0.06818335 0.43194882
v -0.37366898 0.06818335 0.43194882
v -0.37366898 0.06818335 0.43194882
v -0.37366898 0.06818335 0.41124212
v -0.37366898 0.06818335 0.41124212
v -0.37366898 0.06818335 0.41124212
v -0.37366898 0.06818335 0.41124212
v -0.26334758 0.06818335 0.45360593
v -0.26334758 0.06818335 0.45360593
v -0.27760165 0.06818335 0.45569293
v -0.27760165 0.06818335 0.45569293
v -0.22271983 0.06818335 0.43926969
v -0.22271983 0.06818335 0.43926969
v -0.21031260 0.06818335 0.43194882
v -0.21031260 0.06818335 0.43194882
v -0.21031260 0.06818335 0.43194882
v -0.37366898 -0.26081401 0.20389021
v -0.37366898 -0.26081401 0.20389021
v -0.37366898 -0.26081401 0.20389021
v -0.37366898 -0.26081401 0.21426419
v -0.37366898 -0.26081401 0.21426419
v -0.37366898 -0.26081401 0.21426419
v -0.48117283 -0.24345711 0.13363352
v -0.48117283 -0.24345711 0.13363352
v -0.48117283 -0.25085344 0.13363352
v -0.48117283 -0.25085344 0.13363352
v -0.48117283 -0.25085344 0.13363352
v -0.39432908 -0.25085344 0.13363352
v -0.39432908 -0.25085344 0.13363352
v -0.39432908 -0.25085344 0.13363352
v -0.39432908 -0.24345711 0.13363352
v -0.39432908 -0.24345711 0.13363352
v -0.36126175 0.06818335 0.43926969
v -0.36126175 0.06818335 0.43926969
v -0.34820432 0.06818335 0.44535558
v -0.34820432 0.06818335 0.44535558
v -0.33461922 0.06818335 0.45014929
v -0.33461922 0.06818335 0.45014929
v -0.48117283 -0.24345711 0.17987905
v -0.48117283 -0.24345711 0.17987905
v -0.48117283 -0.25085344 0.17987905
v -0.48117283 -0.25085344 0.17987905
v -0.48117283 -0.25085344 0.17987905
v -0.48117283 -0.24345711 0.14802018
v -0.39432908 -0.25085344 0.17987905
v -0.39432908 -0.25085344 0.17987905
v -0.39432908 -0.25085344 0.17987905
v -0.39432908 -0.24345711 0.17987905
v -0.39432908 -0.24345711 0.17987905
v -0.39432908 -0.24345711 0.14802018
v -0.38389296 -0.25085344 0.19283203
v -0.38389296 -0.25085344 0.19283203
v -0.38389296 -0.25085344 0.19283203
v -0.38389296 -0.25085344 0.09198292
v -0.38389296 -0.25085344 0.09198292
v -0.38389296 -0.25085344 0.09198292
v -0.38389296 -0.20342214 0.09198292
v -0.38389296 -0.20342214 0.09198292
v -0.38389296 -0.20342214 0.09198292
v -0.38389296 -0.20342214 0.19283203
v -0.38389296 -0.20342214 0.19283203
v -0.38389296 -0.20342214 0.19283203
v -0.37366898 -0.26081401 0.10108285
v -0.37366898 -0.26081401 0.10108285
v -0.37366898 -0.26081401 0.10108285
v -0.21031260 -0.26081401 0.10108285
v -0.21031260 -0.26081401 0.10108285
v -0.21031260 -0.26081401 0.10108285
v -0.21031260 -0.26081401 0.11327996
v -0.21031260 -0.26081401 0.11327996
v -0.21031260 -0.26081401 0.11327996
v -0.37366898 -0.26081401 0.11327996
v -0.37366898 -0.26081401 0.11327996
v -0.37366898 -0.26081401 0.11327996
v -0.37366898 -0.25085344 0.10108285
v -0.37366898 -0.25085344 0.10108285
v -0.37366898 -0.25085344 0.10108285
v -0.21031260 -0.25085344 0.10108285
v -0.21031260 -0.25085344 0.10108285
v -0.21031260 -0.25085344 0.10108285
v -0.21031260 -0.25085344 0.11327996
v -0.21031260 -0.25085344 0.11327996
v -0.21031260 -0.25085344 0.11327996
v -0.37366898 -0.25085344 0.11327996
v -0.37366898 -0.25085344 0.11327996
v -0.37366898 -0.25085344 0.11327996
v -0.37366898 -0.25085344 0.07693573
v -0.37366898 -0.25085344 0.07693573
v -0.37366898 -0.25085344 0.07693573
v -0.37366898 -0.26081401 0.07693573
v -0.37366898 -0.26081401 0.07693573
v -0.37366898 -0.26081401 0.07693573
v -0.21031260 -0.26081401 0.07693573
v -0.21031260 -0.26081401 0.07693573
v -0.21031260 -0.26081401 0.07693573
v -0.21031260 -0.25085344 0.07693573
v -0.21031260 -0.25085344 0.07693573
v -0.21031260 -0.25085344 0.07693573
v -0.37366898 -0.26081401 0.15134521
v -0.37366898 -0.26081401 0.15134521
v -0.37366898 -0.26081401 0.15134521
v -0.21031260 -0.26081401 0.15134521
v -0.21031260 -0.26081401 0.15134521
v -0.21031260 -0.26081401 0.15134521
v -0.37366898 -0.25085344 0.15134521
v -0.37366898 -0.25085344 0.15134521
v -0.37366898 -0.25085344 0.15134521
v -0.21031260 -0.25085344 0.15134521
v -0.21031260 -0.25085344 0.15134521
v -0.21031260 -0.25085344 0.15134521
v -0.48961499 -0.25085344 0.09198292
v -0.48961499 -0.25085344 0.09198292
v -0.48961499 -0.25085344 0.09198292
v -0.48961499 -0.25085344 0.19283203
v -0.48961499 -0.25085344 0.19283203
v -0.48961499 -0.25085344 0.19283203
v -0.21031260 -0.25085344 0.08056881
v -0.21031260 -0.25085344 0.08056881
v -0.21031260 -0.25085344 0.08056881
v -0.37366898 -0.25085344 0.08056881
v -0.37366898 -0.25085344 0.08056881
v -0.37366898 -0.25085344 0.08056881
v -0.37366898 -0.26081401 0.18727443
v -0.37366898 -0.26081401 0.18727443
v -0.37366898 -0.26081401 0.18727443
v -0.21031260 -0.26081401 0.18727443
v -0.21031260 -0.26081401 0.18727443
v -0.21031260 -0.26081401 0.18727443
v -0.21031260 -0.26081401 0.20025712
v -0.21031260 -0.26081401 0.20025712
v -0.21031260 -0.26081401 0.20025712
v -0.37366898 -0.26081401 0.20025712
v -0.37366898 -0.26081401 0.20025712
v -0.37366898 -0.26081401 0.20025712
v -0.37366898 -0.25085344 0.18727443
v -0.37366898 -0.25085344 0.18727443
v -0.37366898 -0.25085344 0.18727443
v -0.21031260 -0.25085344 0.18727443
v -0.21031260 -0.25085344 0.18727443
v -0.21031260 -0.25085344 0.18727443
v -0.37366898 -0.25085344 0.05741478
v -0.37366898 -0.25085344 0.05741478
v -0.37366898 -0.25085344 0.05741478
v -0.21031260 -0.25085344 0.06104786
v -0.21031260 -0.25085344 0.06104786
v -0.21031260 -0.25085344 0.06104786
v -0.37366898 -0.25085344 0.06104786
v -0.37366898 -0.25085344 0.06104786
v -0.37366898 -0.25085344 0.06104786
v -0.37366898 -0.26081401 0.06104786
v -0.37366898 -0.26081401 0.06104786
v -0.37366898 -0.26081401 0.06104786
v -0.21031260 -0.26081401 0.06104786
v -0.21031260 -0.26081401 0.06104786
v -0.21031260 -0.26081401 0.06104786
v -0.37366898 -0.25085344 0.14771213
v -0.37366898 -0.25085344 0.14771213
v -0.37366898 -0.25085344 0.14771213
v -0.21031260 -0.25085344 0.14771213
v -0.21031260 -0.25085344 0.14771213
v -0.21031260 -0.25085344 0.14771213
v -0.37366898 -0.25085344 0.18364135
v -0.37366898 -0.25085344 0.18364135
v -0.37366898 -0.25085344 0.18364135
v -0.21031260 -0.25085344 0.18364135
v -0.21031260 -0.25085344 0.18364135
v -0.21031260 -0.25085344 0.18364135
v -0.48961499 -0.20342214 0.09198292
v -0.48961499 -0.20342214 0.09198292
v -0.48961499 -0.20342214 0.09198292
v -0.48961499 -0.20342214 0.19283203
v -0.48961499 -0.20342214 0.19283203
v -0.48961499 -0.20342214 0.19283203
v -0.21031260 -0.26081401 0.20389021
v -0.21031260 -0.26081401 0.20389021
v -0.21031260 -0.26081401 0.20389021
v -0.21031260 -0.26081401 0.21426419
v -0.21031260 -0.26081401 0.21426419
v -0.21031260 -0.26081401 0.21426419
v -0.21031260 -0.25085344 0.41124212
v -0.21031260 -0.25085344 0.41124212
v -0.21031260 -0.25085344 0.41124212
v -0.37366898 0.06575080 0.36111165
v -0.37366898 0.06575080 0.36111165
v -0.37366898 0.06818335 0.36111165
v -0.37366898 0.06818335 0.36111165
v -0.37366898 0.06818335 0.36111165
v -0.37366898 -0.25085344 0.13093331
v -0.37366898 -0.25085344 0.13093331
v -0.37366898 -0.25085344 0.13093331
v -0.37366898 -0.26081401 0.13093331
v -0.37366898 -0.26081401 0.13093331
v -0.37366898 -0.26081401 0.13093331
v -0.21031260 -0.26081401 0.13093331
v -0.21031260 -0.26081401 0.13093331
v -0.21031260 -0.26081401 0.13093331
v -0.21031260 -0.25085344 0.13093331
v -0.21031260 -0.25085344 0.13093331
v -0.21031260 -0.25085344 0.13093331
v -0.16546037 -0.25085344 0.21789726
v -0.16546037 -0.25085344 0.21789726
v -0.16546037 -0.25085344 0.21789726
v -0.16546037 -0.25085344 0.41124212
v -0.16546037 -0.25085344 0.41124212
v -0.16546037 -0.25085344 0.41124212
v -0.16546037 0.06818335 0.41124212
v -0.16546037 0.06818335 0.41124212
v -0.16546037 -0.24433163 0.21789726
v -0.16546037 -0.24433163 0.21789726
v -0.16546037 -0.24433163 0.21789726
v -0.16546037 -0.18337756 0.02455242
v -0.16546037 -0.18337756 0.02455242
v -0.16546037 -0.18337756 0.02455242
v -0.16546037 -0.18337756 0.00000002
v -0.16546037 -0.18337756 0.00000002
v -0.16546037 -0.18337756 0.00000002
v -0.16546037 0.28246088 0.00000002
v -0.16546037 0.28246088 0.00000002
v -0.16546037 0.28246088 0.00000002
v -0.16546037 0.28246088 0.41124212
v -0.16546037 0.28246088 0.41124212
v -0.16546037 0.28246088 0.41124212
v -0.16546037 -0.24433163 0.21454211
v -0.16546037 -0.24433163 0.21454211
v -0.16546037 -0.24433163 0.21454211
v -0.16546037 -0.25085344 0.02455242
v -0.16546037 -0.25085344 0.02455242
v -0.16546037 -0.25085344 0.02455242
v -0.16546037 -0.25085344 0.21454211
v -0.16546037 -0.25085344 0.21454211
v -0.16546037 -0.25085344 0.21454211
v -0.37366898 -0.26081401 0.11691305
v -0.37366898 -0.26081401 0.11691305
v -0.37366898 -0.26081401 0.11691305
v -0.21031260 -0.26081401 0.11691305
v -0.21031260 -0.26081401 0.11691305
v -0.21031260 -0.26081401 0.11691305
v -0.37366898 -0.25085344 0.11691305
v -0.37366898 -0.25085344 0.11691305
v -0.37366898 -0.25085344 0.11691305
v -0.21031260 -0.25085344 0.11691305
v -0.21031260 -0.25085344 0.11691305
v -0.21031260 -0.25085344 0.11691305
v -0.37366898 -0.26081401 0.08056881
v -0.37366898 -0.26081401 0.08056881
v -0.37366898 -0.26081401 0.08056881
v -0.21031260 -0.26081401 0.08056881
v -0.21031260 -0.26081401 0.08056881
v -0.21031260 -0.26081401 0.08056881
v -0.21031260 -0.26081401 0.09744976
v -0.21031260 -0.26081401 0.09744976
v -0.21031260 -0.26081401 0.09744976
v -0.37366898 -0.26081401 0.09744976
v -0.37366898 -0.26081401 0.09744976
v -0.37366898 -0.26081401 0.09744976
v -0.21031260 -0.25085344 0.09744976
v -0.21031260 -0.25085344 0.09744976
v -0.21031260 -0.25085344 0.09744976
v -0.37366898 -0.25085344 0.09744976
v -0.37366898 -0.25085344 0.09744976
v -0.37366898 -0.25085344 0.09744976
v -0.37366898 -0.26081401 0.03235403
v -0.37366898 -0.26081401 0.03235403
v -0.37366898 -0.26081401 0.03235403
v -0.21031260 -0.26081401 0.03235403
v -0.21031260 -0.26081401 0.03235403
v -0.21031260 -0.26081401 0.03235403
v -0.21031260 -0.26081401 0.04122884
v -0.21031260 -0.26081401 0.04122884
v -0.21031260 -0.26081401 0.04122884
v -0.37366898 -0.26081401 0.04122884
v -0.37366898 -0.26081401 0.04122884
v -0.37366898 -0.26081401 0.04122884
v -0.37366898 -0.25085344 0.03235403
v -0.37366898 -0.25085344 0.03235403
v -0.37366898 -0.25085344 0.03235403
v -0.21031260 -0.25085344 0.03235403
v -0.21031260 -0.25085344 0.03235403
v -0.21031260 -0.25085344 0.03235403
v -0.21031260 -0.25085344 0.04122884
v -0.21031260 -0.25085344 0.04122884
v -0.21031260 -0.25085344 0.04122884
v -0.37366898 -0.26081401 0.17101438
v -0.37366898 -0.26081401 0.17101438
v -0.37366898 -0.26081401 0.17101438
v -0.21031260 -0.26081401 0.17101438
v -0.21031260 -0.26081401 0.17101438
v -0.21031260 -0.26081401 0.17101438
v -0.21031260 -0.26081401 0.18364135
v -0.21031260 -0.26081401 0.18364135
v -0.21031260 -0.26081401 0.18364135
v -0.37366898 -0.26081401 0.18364135
v -0.37366898 -0.26081401 0.18364135
v -0.37366898 -0.26081401 0.18364135
v -0.37366898 -0.25085344 0.17101438
v -0.37366898 -0.25085344 0.17101438
v -0.37366898 -0.25085344 0.17101438
v -0.21031260 -0.25085344 0.17101438
v -0.21031260 -0.25085344 0.17101438
v -0.21031260 -0.25085344 0.17101438
v -0.49598247 0.06818335 0.36111165
v -0.49598247 0.06818335 0.36111165
v -0.49598247 0.06818335 0.36111165
v -0.49598247 -0.25085344 0.36111165
v -0.49598247 -0.25085344 0.36111165
v -0.49598247 -0.25085344 0.36111165
v -0.37366898 -0.25085344 0.04122884
v -0.37366898 -0.25085344 0.04122884
v -0.37366898 -0.25085344 0.04122884
v -0.37366898 -0.26081401 0.13456639
v -0.37366898 -0.26081401 0.13456639
v -0.37366898 -0.26081401 0.13456639
v -0.21031260 -0.26081401 0.13456639
v -0.21031260 -0.26081401 0.13456639
v -0.21031260 -0.26081401 0.13456639
v -0.21031260 -0.26081401 0.14771213
v -0.21031260 -0.26081401 0.14771213
v -0.21031260 -0.26081401 0.14771213
v -0.37366898 -0.26081401 0.14771213
v -0.37366898 -0.26081401 0.14771213
v -0.37366898 -0.26081401 0.14771213
v -0.37366898 -0.25085344 0.13456639
v -0.37366898 -0.25085344 0.13456639
v -0.37366898 -0.25085344 0.13456639
v -0.21031260 -0.25085344 0.13456639
v -0.21031260 -0.25085344 0.13456639
v -0.21031260 -0.25085344 0.13456639
v -0.49598247 -0.20342214 0.22130557
v -0.49598247 -0.20342214 0.22130557
v -0.49598247 -0.20342214 0.22617040
v -0.49598247 -0.20342214 0.22617040
v -0.49598247 -0.20342214 0.22617040
v -0.37366898 -0.20342214 0.02455242
v -0.37366898 -0.20342214 0.02455242
v -0.37366898 -0.20342214 0.02455242
v -0.37366898 -0.20342214 0.19697967
v -0.37366898 -0.20342214 0.19697967
v -0.37366898 -0.20342214 0.19697967
v -0.49598247 -0.20342214 0.19697967
v -0.49598247 -0.20342214 0.19697967
v -0.49598247 -0.20342214 0.19697967
v -0.49598247 -0.20342214 0.02455242
v -0.49598247 -0.20342214 0.02455242
v -0.49598247 -0.20342214 0.02455242
v -0.49598247 -0.25085344 0.22617040
v -0.49598247 -0.25085344 0.22617040
v -0.49598247 -0.25085344 0.22617040
v -0.44524719 -0.25085344 0.19697967
v -0.49598247 -0.25085344 0.19697967
v -0.41424944 -0.25085344 0.19697967
v -0.37366898 -0.25085344 0.19697967
v -0.37366898 -0.25085344 0.19697967
v -0.49598247 -0.18337756 0.02455242
v -0.49598247 -0.18337756 0.02455242
v -0.49598247 -0.18337756 0.02455242
v -0.49598247 -0.18337756 0.00000002
v -0.49598247 -0.18337756 0.00000002
v -0.49598247 -0.18337756 0.00000002
v -0.49598247 0.06818335 0.00000002
v -0.49598247 0.06818335 0.00000002
v -0.21031260 -0.24433163 0.21454211
v -0.21031260 -0.24433163 0.21454211
v -0.21031260 -0.24433163 0.21454211
v -0.21031260 -0.24433163 0.21789726
v -0.21031260 -0.24433163 0.21789726
v -0.21031260 -0.24433163 0.21789726
v -0.37366898 -0.18337756 0.02455242
v -0.37366898 -0.18337756 0.02455242
v -0.21031260 -0.18337756 0.02455242
v -0.21031260 -0.18337756 0.02455242
v -0.37366898 -0.18337756 0.00000002
v -0.37366898 -0.18337756 0.00000002
v -0.49598247 0.28246088 0.00000002
v -0.49598247 0.28246088 0.00000002
v -0.49598247 0.28246088 0.00000002
v -0.21031260 -0.18337756 0.00000002
v -0.21031260 -0.18337756 0.00000002
v -0.45506833 -0.18337756 0.00836753
v -0.45506833 -0.18337756 0.00836753
v -0.45506833 -0.18337756 0.00836753
v -0.45506833 -0.18337756 0.01760210
v -0.45506833 -0.18337756 0.01760210
v -0.45506833 -0.18337756 0.01760210
v -0.48267314 -0.18337756 0.01760210
v -0.48267314 -0.18337756 0.01760210
v -0.48267314 -0.18337756 0.01760210
v -0.48267314 -0.18337756 0.00836753
v -0.48267314 -0.18337756 0.00836753
v -0.48267314 -0.18337756 0.00836753
v -0.48267314 -0.20342214 0.00836753
v -0.48267314 -0.20342214 0.00836753
v -0.48267314 -0.20342214 0.00836753
v -0.45506833 -0.20342214 0.00836753
v -0.45506833 -0.20342214 0.00836753
v -0.45506833 -0.20342214 0.00836753
v -0.45506833 -0.20342214 0.01760210
v -0.45506833 -0.20342214 0.01760210
v -0.45506833 -0.20342214 0.01760210
v -0.48267314 -0.20342214 0.01760210
v -0.48267314 -0.20342214 0.01760210
v -0.48267314 -0.20342214 0.01760210
v -0.49598247 0.28246088 0.41124212
v -0.49598247 0.28246088 0.41124212
v -0.49598247 0.28246088 0.41124212
v -0.21031260 0.06818335 0.41124212
v -0.21031260 0.06818335 0.41124212
v -0.21031260 0.06818335 0.41124212
v -0.49598247 0.06818335 0.41124212
v -0.49598247 0.06818335 0.41124212
v -0.49598247 0.06818335 0.41124212
f 1 4 6
f 6 7 1
f 10 12 16
f 16 18 10
f 10 18 21
f 21 23 10
f 23 21 24
f 24 28 23
f 14 31 32
f 32 15 14
f 34 15 32
f 32 38 34
f 38 32 40
f 40 42 38
f 42 40 44
f 44 46 42
f 46 44 49
f 49 50 46
f 50 49 53
f 53 3 50
f 3 53 55
f 55 5 3
f 5 55 56
f 56 58 5
f 62 63 68
f 68 9 62
f 9 68 70
f 73 77 78
f 78 80 73
f 82 86 89
f 89 90 82
f 95 98 99
f 99 103 95
f 97 94 105
f 105 110 97
f 101 96 108
f 108 112 101
f 114 117 121
f 121 124 114
f 127 52 48
f 48 128 127
f 7 6 59
f 59 131 7
f 35 37 132
f 132 136 35
f 140 54 52
f 52 127 140
f 141 57 54
f 54 140 141
f 144 45 41
f 41 147 144
f 128 48 45
f 45 144 128
f 125 150 153
f 153 60 125
f 154 157 159
f 159 162 154
f 165 43 47
f 47 166 165
f 168 51 4
f 4 1 168
f 171 172 156
f 156 155 171
f 171 155 175
f 165 133 36
f 36 43 165
f 131 59 57
f 57 141 131
f 161 178 179
f 179 163 161
f 163 179 181
f 166 47 51
f 51 168 166
f 173 170 180
f 180 176 173
f 182 187 188
f 188 193 182
f 195 197 202
f 202 204 195
f 199 196 208
f 208 209 199
f 200 198 210
f 210 213 200
f 216 203 201
f 201 214 216
f 218 222 226
f 226 228 218
f 230 234 87
f 87 85 230
f 233 232 238
f 238 240 233
f 88 235 239
f 239 91 88
f 160 243 185
f 185 183 160
f 177 160 183
f 183 174 177
f 174 183 245
f 245 158 174
f 158 245 243
f 243 160 158
f 220 227 250
f 250 253 220
f 255 258 260
f 260 263 255
f 257 256 267
f 267 269 257
f 261 259 271
f 271 119 261
f 115 264 262
f 262 118 115
f 274 113 275
f 275 278 274
f 283 284 224
f 224 223 283
f 286 282 279
f 279 277 286
f 225 285 276
f 276 229 225
f 288 292 241
f 241 237 288
f 294 297 270
f 270 266 294
f 301 244 246
f 246 302 301
f 305 149 123
f 123 120 305
f 310 306 122
f 122 65 310
f 61 152 309
f 309 64 61
f 33 29 72
f 72 313 33
f 148 307 308
f 308 151 148
f 16 35 136
f 136 18 16
f 314 18 136
f 136 318 314
f 186 242 300
f 300 189 186
f 304 247 184
f 184 192 304
f 319 322 327
f 327 328 319
f 30 13 11
f 11 69 30
f 333 334 337
f 337 341 333
f 344 341 337
f 337 345 344
f 348 345 337
f 337 353 348
f 354 341 344
f 344 359 354
f 354 359 360
f 363 367 326
f 326 323 363
f 368 364 369
f 369 374 368
f 325 366 372
f 372 330 325
f 376 380 383
f 383 385 376
f 378 375 252
f 252 248 378
f 382 379 249
f 249 389 382
f 390 384 381
f 381 388 390
f 394 398 400
f 400 403 394
f 397 393 407
f 407 410 397
f 411 399 396
f 396 408 411
f 215 212 373
f 373 370 215
f 416 417 422
f 422 424 416
f 419 414 426
f 426 431 419
f 421 418 430
f 430 296 421
f 295 425 420
f 420 298 295
f 434 436 19
f 19 315 434
f 434 315 316
f 440 412 109
f 109 106 440
f 439 402 401
f 401 413 439
f 391 387 211
f 211 207 391
f 73 80 409
f 409 406 73
f 272 102 100
f 100 111 272
f 81 92 429
f 429 427 81
f 441 445 447
f 447 450 441
f 444 442 455
f 455 457 444
f 449 446 456
f 456 290 449
f 289 451 448
f 448 291 289
f 320 329 458
f 458 454 320
f 460 27 26
f 26 461 460
f 190 465 467
f 467 191 190
f 303 191 467
f 467 472 303
f 299 303 472
f 472 475 299
f 299 475 465
f 465 190 299
f 476 20 17
f 17 437 476
f 22 478 462
f 462 25 22
f 479 480 471
f 471 469 479
f 481 479 469
f 469 483 481
f 268 254 265
f 265 116 268
f 293 268 116
f 116 482 293
f 83 293 482
f 482 287 83
f 321 287 482
f 482 217 321
f 392 217 482
f 482 219 392
f 273 219 482
f 482 438 273
f 438 482 405
f 405 395 438
f 438 395 404
f 405 482 468
f 468 74 405
f 75 74 468
f 468 466 75
f 273 438 107
f 107 104 273
f 104 107 93
f 219 273 280
f 280 221 219
f 221 280 281
f 392 219 251
f 251 386 392
f 386 251 377
f 217 392 206
f 206 205 217
f 205 206 194
f 321 217 371
f 371 324 321
f 324 371 365
f 287 321 453
f 453 452 287
f 452 453 443
f 83 287 236
f 236 84 83
f 84 236 231
f 293 83 428
f 428 423 293
f 423 428 415
f 477 435 432
f 432 463 477
f 459 463 432
f 432 470 459
f 474 470 432
f 432 484 474
f 488 484 432
f 432 491 488
f 80 78 357
f 357 362 80
f 409 80 362
f 362 412 409
f 109 412 362
f 362 113 109
f 275 113 362
f 362 227 275
f 250 227 362
f 362 387 250
f 211 387 362
f 362 212 211
f 373 212 362
f 362 329 373
f 458 329 362
f 362 292 458
f 241 292 362
f 362 92 241
f 429 92 362
f 362 297 429
f 270 297 362
f 362 117 270
f 121 117 362
f 362 63 121
f 63 362 68
f 70 332 335
f 335 311 70
f 493 355 339
f 339 496 493
f 66 71 497
f 497 492 66
f 494 67 361
f 361 356 494
f 331 69 495
f 495 340 331
f 464 473 486
f 486 498 464
f 79 76 464
f 464 498 79
f 79 498 501
f 358 79 501
f 501 343 358
f 503 489 490
f 490 504 503
f 503 504 349
f 349 508 503
f 508 349 346
f 500 507 347
f 347 342 500
f 499 502 507
f 507 500 499
f 511 502 499
f 499 512 511
f 517 512 499
f 499 485 517
f 518 517 485
f 485 487 518
f 518 487 502
f 502 511 518
f 523 526 529
f 529 531 523
f 522 532 516
f 516 520 522
f 521 519 509
f 509 524 521
f 513 527 525
f 525 510 513
f 515 530 528
f 528 514 515
f 350 505 533
f 533 352 350
f 538 135 134
f 134 145 538
f 145 134 164
f 164 143 145
f 143 164 167
f 167 129 143
f 129 167 169
f 169 126 129
f 126 169 2
f 2 139 126
f 139 2 8
f 8 142 139
f 142 8 130
f 39 33 313
f 313 146 39
f 146 313 537
f 338 536 312
f 312 336 338
f 535 539 137
f 137 351 535
f 351 137 536
f 536 338 351
f 541 433 317
f 317 138 541
f 491 432 540
f 540 506 491
f 506 540 534

