# https://github.com/mikedh/trimesh
v -0.40018003 -0.07360050 0.51687411
v -0.40265766 -0.07308873 0.51687411
v -0.40456907 -0.07143130 0.51687411
v -0.40540212 -0.06907234 0.51687411
v -0.39780007 -0.07282949 0.51687411
v -0.40493354 -0.06664391 0.51687411
v -0.39615546 -0.07098230 0.51687411
v -0.40328897 -0.06479671 0.51687411
v -0.39568691 -0.06855386 0.51687411
v -0.40090900 -0.06402571 0.51687411
v -0.39651997 -0.06619490 0.51687411
v -0.39843138 -0.06453748 0.51687411
v -0.40100551 -0.06275820 0.53820937
v -0.40102176 -0.06254461 0.53575165
v -0.40102176 -0.06254461 0.52288801
v -0.40102176 -0.06254461 0.52288801
v -0.39864103 -0.06303637 0.53232806
v -0.39864103 -0.06303637 0.53232806
v -0.40510814 -0.07178201 0.51814011
v -0.40294071 -0.07366145 0.51814011
v -0.40013121 -0.07424177 0.51814011
v -0.40605278 -0.06910706 0.51814011
v -0.39743244 -0.07336749 0.51814011
v -0.39556757 -0.07127286 0.51814011
v -0.40552146 -0.06635334 0.51814011
v -0.39503626 -0.06851914 0.51814011
v -0.40365657 -0.06425871 0.51814011
v -0.39578124 -0.06640947 0.51814011
v -0.39578124 -0.06640947 0.51814011
v -0.40095782 -0.06338443 0.51814011
v -0.40095782 -0.06338443 0.51814011
v -0.39598086 -0.06584419 0.51814011
v -0.39598086 -0.06584419 0.51814011
v -0.39814832 -0.06396476 0.51814011
v -0.39814832 -0.06396476 0.51814011
v -0.39777762 -0.06321472 0.53524648
v -0.39777762 -0.06321472 0.53575165
v -0.39777762 -0.06321472 0.52288801
v -0.39527488 -0.06538490 0.52288801
v -0.39527488 -0.06538490 0.52481156
v -0.39709651 -0.06380531 0.53575165
v -0.40100551 -0.06275820 0.52043029
v -0.39787188 -0.06340548 0.52043029
v -0.39545442 -0.06550172 0.52043029
v -0.39485469 -0.06657473 0.52288801
v -0.39508296 -0.06592834 0.53575165
v -0.39512221 -0.06644253 0.52043029
v -0.21410251 0.06339157 0.51358398
v -0.21652664 0.06266756 0.51358398
v -0.21899536 0.06322071 0.51358398
v -0.22084718 0.06490280 0.51358398
v -0.21237253 0.06519873 0.51358398
v -0.22158592 0.06726311 0.51358398
v -0.21180024 0.06760483 0.51358398
v -0.22101362 0.06966920 0.51358398
v -0.21253898 0.06996514 0.51358398
v -0.21928365 0.07147637 0.51358398
v -0.21439081 0.07164723 0.51358398
v -0.21685953 0.07220037 0.51358398
v -0.21996951 0.07254662 0.53491924
v -0.22008510 0.07272698 0.53246151
v -0.22008510 0.07272698 0.51959788
v -0.22008510 0.07272698 0.51959788
v -0.21775579 0.07342266 0.52903793
v -0.21775579 0.07342266 0.52903793
v -0.21930375 0.06265634 0.51484998
v -0.21650433 0.06202910 0.51484998
v -0.21375552 0.06285009 0.51484998
v -0.22140362 0.06456374 0.51484998
v -0.21179380 0.06489933 0.51484998
v -0.21114485 0.06762772 0.51484998
v -0.22224132 0.06724022 0.51484998
v -0.21198255 0.07030419 0.51484998
v -0.22159236 0.06996861 0.51484998
v -0.21363867 0.07180851 0.51484998
v -0.21363867 0.07180851 0.51484998
v -0.21963066 0.07201785 0.51484998
v -0.21963066 0.07201785 0.51484998
v -0.21408242 0.07221159 0.51484998
v -0.21408242 0.07221159 0.51484998
v -0.21688182 0.07283883 0.51484998
v -0.21688182 0.07283883 0.51484998
v -0.21691101 0.07367497 0.53195636
v -0.21691101 0.07367497 0.53246151
v -0.21691101 0.07367497 0.51959788
v -0.21367855 0.07295069 0.51959788
v -0.21367855 0.07295069 0.52152144
v -0.21603132 0.07347786 0.53246151
v -0.21996951 0.07254662 0.51714015
v -0.21690359 0.07346232 0.51714015
v -0.21378127 0.07276271 0.51714015
v -0.21274452 0.07210227 0.51959788
v -0.21325194 0.07256318 0.53246151
v -0.21304271 0.07209186 0.51714015
v -0.40754848 -0.18927828 0.51313003
v -0.41002610 -0.18876651 0.51313003
v -0.41193752 -0.18710909 0.51313003
v -0.41277057 -0.18475012 0.51313003
v -0.40516852 -0.18850728 0.51313003
v -0.41230199 -0.18232169 0.51313003
v -0.40352392 -0.18666008 0.51313003
v -0.41065742 -0.18047449 0.51313003
v -0.40305537 -0.18423165 0.51313003
v -0.40827746 -0.17970349 0.51313003
v -0.40388842 -0.18187268 0.51313003
v -0.40579983 -0.18021526 0.51313003
v -0.40837396 -0.17843599 0.53446529
v -0.40839021 -0.17822240 0.53200756
v -0.40839021 -0.17822240 0.51914393
v -0.40839021 -0.17822240 0.51914393
v -0.40600948 -0.17871416 0.52858398
v -0.40600948 -0.17871416 0.52858398
v -0.41247660 -0.18745979 0.51439603
v -0.41030917 -0.18933922 0.51439603
v -0.40749966 -0.18991956 0.51439603
v -0.41342123 -0.18478485 0.51439603
v -0.40480089 -0.18904526 0.51439603
v -0.40293602 -0.18695065 0.51439603
v -0.41288991 -0.18203112 0.51439603
v -0.40240471 -0.18419692 0.51439603
v -0.41102502 -0.17993650 0.51439603
v -0.40314969 -0.18208727 0.51439603
v -0.40314969 -0.18208727 0.51439603
v -0.40832628 -0.17906221 0.51439603
v -0.40832628 -0.17906221 0.51439603
v -0.40334931 -0.18152197 0.51439603
v -0.40334931 -0.18152197 0.51439603
v -0.40551677 -0.17964254 0.51439603
v -0.40551677 -0.17964254 0.51439603
v -0.40514607 -0.17889250 0.53150240
v -0.40514607 -0.17889250 0.53200756
v -0.40514607 -0.17889250 0.51914393
v -0.40264333 -0.18106269 0.51914393
v -0.40264333 -0.18106269 0.52106749
v -0.40446496 -0.17948311 0.53200756
v -0.40837396 -0.17843599 0.51668620
v -0.40524034 -0.17908326 0.51668620
v -0.40282287 -0.18117950 0.51668620
v -0.40222315 -0.18225251 0.51914393
v -0.40245141 -0.18160613 0.53200756
v -0.40249066 -0.18212031 0.51668620
v -0.39394167 -0.18020371 0.51313003
v -0.39641930 -0.17969194 0.51313003
v -0.39833071 -0.17803452 0.51313003
v -0.39916376 -0.17567555 0.51313003
v -0.39156171 -0.17943271 0.51313003
v -0.39869518 -0.17324712 0.51313003
v -0.38991711 -0.17758551 0.51313003
v -0.39705061 -0.17139992 0.51313003
v -0.38944856 -0.17515708 0.51313003
v -0.39467065 -0.17062892 0.51313003
v -0.39028161 -0.17279811 0.51313003
v -0.39219302 -0.17114069 0.51313003
v -0.39476715 -0.16936142 0.53446529
v -0.39478340 -0.16914783 0.53200756
v -0.39478340 -0.16914783 0.51914393
v -0.39478340 -0.16914783 0.51914393
v -0.39240267 -0.16963959 0.52858398
v -0.39240267 -0.16963959 0.52858398
v -0.39886979 -0.17838522 0.51439603
v -0.39670236 -0.18026466 0.51439603
v -0.39389285 -0.18084499 0.51439603
v -0.39981442 -0.17571027 0.51439603
v -0.39119408 -0.17997070 0.51439603
v -0.38932921 -0.17787608 0.51439603
v -0.39928311 -0.17295655 0.51439603
v -0.38879790 -0.17512235 0.51439603
v -0.39741821 -0.17086194 0.51439603
v -0.38954288 -0.17301270 0.51439603
v -0.38954288 -0.17301270 0.51439603
v -0.39471947 -0.16998764 0.51439603
v -0.39471947 -0.16998764 0.51439603
v -0.38974250 -0.17244741 0.51439603
v -0.38974250 -0.17244741 0.51439603
v -0.39190996 -0.17056797 0.51439603
v -0.39190996 -0.17056797 0.51439603
v -0.39153926 -0.16981793 0.53150240
v -0.39153926 -0.16981793 0.53200756
v -0.39153926 -0.16981793 0.51914393
v -0.38903652 -0.17198812 0.51914393
v -0.38903652 -0.17198812 0.52106749
v -0.39085815 -0.17040853 0.53200756
v -0.39476715 -0.16936142 0.51668620
v -0.39163353 -0.17000869 0.51668620
v -0.38921606 -0.17210493 0.51668620
v -0.38861633 -0.17317795 0.51914393
v -0.38884460 -0.17253156 0.53200756
v -0.38888385 -0.17304574 0.51668620
v -0.24521819 0.00609985 0.51358398
v -0.24764232 0.00537584 0.51358398
v -0.25011104 0.00592899 0.51358398
v -0.25196286 0.00761107 0.51358398
v -0.24348822 0.00790701 0.51358398
v -0.25270160 0.00997138 0.51358398
v -0.24291592 0.01031311 0.51358398
v -0.25212930 0.01237748 0.51358398
v -0.24365466 0.01267342 0.51358398
v -0.25039933 0.01418464 0.51358398
v -0.24550650 0.01435551 0.51358398
v -0.24797521 0.01490865 0.51358398
v -0.25108519 0.01525490 0.53491924
v -0.25120078 0.01543525 0.53246151
v -0.25120078 0.01543525 0.51959788
v -0.25120078 0.01543525 0.51959788
v -0.24887148 0.01613094 0.52903793
v -0.24887148 0.01613094 0.52903793
v -0.25041943 0.00536462 0.51484998
v -0.24762002 0.00473738 0.51484998
v -0.24487120 0.00555837 0.51484998
v -0.25251931 0.00727202 0.51484998
v -0.24290948 0.00760760 0.51484998
v -0.24226054 0.01033599 0.51484998
v -0.25335700 0.00994850 0.51484998
v -0.24309823 0.01301247 0.51484998
v -0.25270804 0.01267689 0.51484998
v -0.24475435 0.01451679 0.51484998
v -0.24475435 0.01451679 0.51484998
v -0.25074634 0.01472612 0.51484998
v -0.25074634 0.01472612 0.51484998
v -0.24519811 0.01491987 0.51484998
v -0.24519811 0.01491987 0.51484998
v -0.24799751 0.01554711 0.51484998
v -0.24799751 0.01554711 0.51484998
v -0.24802670 0.01638325 0.53195636
v -0.24802670 0.01638325 0.53246151
v -0.24802670 0.01638325 0.51959788
v -0.24479423 0.01565897 0.51959788
v -0.24479423 0.01565897 0.52152144
v -0.24714701 0.01618614 0.53246151
v -0.25108519 0.01525490 0.51714015
v -0.24801928 0.01617059 0.51714015
v -0.24489696 0.01547099 0.51714015
v -0.24386020 0.01481055 0.51959788
v -0.24436762 0.01527146 0.53246151
v -0.24415840 0.01480014 0.51714015
v -0.22978767 0.03512047 0.51358398
v -0.23221180 0.03439646 0.51358398
v -0.23468052 0.03494961 0.51358398
v -0.23653233 0.03663169 0.51358398
v -0.22805769 0.03692763 0.51358398
v -0.23727108 0.03899201 0.51358398
v -0.22748539 0.03933373 0.51358398
v -0.23669878 0.04139810 0.51358398
v -0.22822414 0.04169404 0.51358398
v -0.23496881 0.04320527 0.51358398
v -0.23007597 0.04337613 0.51358398
v -0.23254469 0.04392928 0.51358398
v -0.23565467 0.04427552 0.53491924
v -0.23577026 0.04445588 0.53246151
v -0.23577026 0.04445588 0.51959788
v -0.23577026 0.04445588 0.51959788
v -0.23344095 0.04515156 0.52903793
v -0.23344095 0.04515156 0.52903793
v -0.23498891 0.03438524 0.51484998
v -0.23218949 0.03375800 0.51484998
v -0.22944067 0.03457899 0.51484998
v -0.23708878 0.03629264 0.51484998
v -0.22747895 0.03662823 0.51484998
v -0.22683001 0.03935662 0.51484998
v -0.23792648 0.03896912 0.51484998
v -0.22766771 0.04203309 0.51484998
v -0.23727752 0.04169750 0.51484998
v -0.22932383 0.04353741 0.51484998
v -0.22932383 0.04353741 0.51484998
v -0.23531582 0.04374675 0.51484998
v -0.23531582 0.04374675 0.51484998
v -0.22976758 0.04394049 0.51484998
v -0.22976758 0.04394049 0.51484998
v -0.23256698 0.04456773 0.51484998
v -0.23256698 0.04456773 0.51484998
v -0.23259618 0.04540387 0.53195636
v -0.23259618 0.04540387 0.53246151
v -0.23259618 0.04540387 0.51959788
v -0.22936371 0.04467959 0.51959788
v -0.22936371 0.04467959 0.52152144
v -0.23171649 0.04520676 0.53246151
v -0.23565467 0.04427552 0.51714015
v -0.23258876 0.04519122 0.51714015
v -0.22946643 0.04449161 0.51714015
v -0.22842968 0.04383117 0.51959788
v -0.22893709 0.04429208 0.53246151
v -0.22872787 0.04382076 0.51714015
v -0.23753985 0.02054063 0.51358398
v -0.23996398 0.01981662 0.51358398
v -0.24243270 0.02036976 0.51358398
v -0.24428452 0.02205185 0.51358398
v -0.23580987 0.02234779 0.51358398
v -0.24502326 0.02441216 0.51358398
v -0.23523758 0.02475389 0.51358398
v -0.24445096 0.02681826 0.51358398
v -0.23597632 0.02711420 0.51358398
v -0.24272099 0.02862542 0.51358398
v -0.23782815 0.02879629 0.51358398
v -0.24029687 0.02934943 0.51358398
v -0.24340685 0.02969568 0.53491924
v -0.24352244 0.02987603 0.53246151
v -0.24352244 0.02987603 0.51959788
v -0.24352244 0.02987603 0.51959788
v -0.24119314 0.03057172 0.52903793
v -0.24119314 0.03057172 0.52903793
v -0.24274109 0.01980540 0.51484998
v -0.23994167 0.01917816 0.51484998
v -0.23719286 0.01999915 0.51484998
v -0.24484096 0.02171280 0.51484998
v -0.23523114 0.02204839 0.51484998
v -0.23458219 0.02477677 0.51484998
v -0.24567866 0.02438927 0.51484998
v -0.23541989 0.02745325 0.51484998
v -0.24502970 0.02711767 0.51484998
v -0.23707601 0.02895757 0.51484998
v -0.23707601 0.02895757 0.51484998
v -0.24306800 0.02916690 0.51484998
v -0.24306800 0.02916690 0.51484998
v -0.23751976 0.02936065 0.51484998
v -0.23751976 0.02936065 0.51484998
v -0.24031917 0.02998789 0.51484998
v -0.24031917 0.02998789 0.51484998
v -0.24034835 0.03082403 0.53195636
v -0.24034835 0.03082403 0.53246151
v -0.24034835 0.03082403 0.51959788
v -0.23711589 0.03009975 0.51959788
v -0.23711589 0.03009975 0.52152144
v -0.23946866 0.03062692 0.53246151
v -0.24340685 0.02969568 0.51714015
v -0.24034093 0.03061137 0.51714015
v -0.23721861 0.02991178 0.51714015
v -0.23618186 0.02925133 0.51959788
v -0.23668928 0.02971224 0.53246151
v -0.23648005 0.02924092 0.51714015
v -0.38020390 -0.17104175 0.51313003
v -0.38268152 -0.17052998 0.51313003
v -0.38459293 -0.16887256 0.51313003
v -0.38542595 -0.16651359 0.51313003
v -0.37782394 -0.17027075 0.51313003
v -0.38495741 -0.16408516 0.51313003
v -0.37617933 -0.16842354 0.51313003
v -0.38331283 -0.16223796 0.51313003
v -0.37571078 -0.16599512 0.51313003
v -0.38093287 -0.16146696 0.51313003
v -0.37654383 -0.16363615 0.51313003
v -0.37845524 -0.16197872 0.51313003
v -0.38102937 -0.16019946 0.53446529
v -0.38104562 -0.15998587 0.53200756
v -0.38104562 -0.15998587 0.51914393
v -0.38104562 -0.15998587 0.51914393
v -0.37866490 -0.16047763 0.52858398
v -0.37866490 -0.16047763 0.52858398
v -0.38513201 -0.16922326 0.51439603
v -0.38296458 -0.17110269 0.51439603
v -0.38015508 -0.17168303 0.51439603
v -0.38607665 -0.16654831 0.51439603
v -0.37745630 -0.17080873 0.51439603
v -0.37559144 -0.16871412 0.51439603
v -0.38554533 -0.16379459 0.51439603
v -0.37506012 -0.16596039 0.51439603
v -0.38368043 -0.16169997 0.51439603
v -0.37580510 -0.16385074 0.51439603
v -0.37580510 -0.16385074 0.51439603
v -0.38098169 -0.16082568 0.51439603
v -0.38098169 -0.16082568 0.51439603
v -0.37600473 -0.16328544 0.51439603
v -0.37600473 -0.16328544 0.51439603
v -0.37817219 -0.16140601 0.51439603
v -0.37817219 -0.16140601 0.51439603
v -0.37780149 -0.16065597 0.53150240
v -0.37780149 -0.16065597 0.53200756
v -0.37780149 -0.16065597 0.51914393
v -0.37529875 -0.16282616 0.51914393
v -0.37529875 -0.16282616 0.52106749
v -0.37712038 -0.16124657 0.53200756
v -0.38102937 -0.16019946 0.51668620
v -0.37789578 -0.16084673 0.51668620
v -0.37547829 -0.16294297 0.51668620
v -0.37487856 -0.16401598 0.51914393
v -0.37510682 -0.16336960 0.53200756
v -0.37514607 -0.16388377 0.51668620
v -0.22178079 0.04895079 0.51358398
v -0.22420492 0.04822678 0.51358398
v -0.22667364 0.04877993 0.51358398
v -0.22852546 0.05046202 0.51358398
v -0.22005082 0.05075796 0.51358398
v -0.22926420 0.05282233 0.51358398
v -0.21947852 0.05316405 0.51358398
v -0.22869190 0.05522842 0.51358398
v -0.22021726 0.05552436 0.51358398
v -0.22696193 0.05703558 0.51358398
v -0.22206910 0.05720644 0.51358398
v -0.22453781 0.05775959 0.51358398
v -0.22764779 0.05810584 0.53491924
v -0.22776338 0.05828620 0.53246151
v -0.22776338 0.05828620 0.51959788
v -0.22776338 0.05828620 0.51959788
v -0.22543408 0.05898188 0.52903793
v -0.22543408 0.05898188 0.52903793
v -0.22698203 0.04821556 0.51484998
v -0.22418261 0.04758833 0.51484998
v -0.22143380 0.04840931 0.51484998
v -0.22908190 0.05012296 0.51484998
v -0.21947208 0.05045855 0.51484998
v -0.21882313 0.05318694 0.51484998
v -0.22991960 0.05279944 0.51484998
v -0.21966083 0.05586341 0.51484998
v -0.22927064 0.05552783 0.51484998
v -0.22131695 0.05736773 0.51484998
v -0.22131695 0.05736773 0.51484998
v -0.22730894 0.05757707 0.51484998
v -0.22730894 0.05757707 0.51484998
v -0.22176071 0.05777081 0.51484998
v -0.22176071 0.05777081 0.51484998
v -0.22456010 0.05839805 0.51484998
v -0.22456010 0.05839805 0.51484998
v -0.22458930 0.05923419 0.53195636
v -0.22458930 0.05923419 0.53246151
v -0.22458930 0.05923419 0.51959788
v -0.22135683 0.05850992 0.51959788
v -0.22135683 0.05850992 0.52152144
v -0.22370961 0.05903708 0.53246151
v -0.22764779 0.05810584 0.51714015
v -0.22458188 0.05902154 0.51714015
v -0.22145955 0.05832194 0.51714015
v -0.22042280 0.05766149 0.51959788
v -0.22093021 0.05812240 0.53246151
v -0.22072100 0.05765108 0.51714015
v -0.43127057 -0.06740728 0.51687411
v -0.43374819 -0.06689551 0.51687411
v -0.43565961 -0.06523808 0.51687411
v -0.43649266 -0.06287911 0.51687411
v -0.42889061 -0.06663627 0.51687411
v -0.43602408 -0.06045068 0.51687411
v -0.42724600 -0.06478908 0.51687411
v -0.43437951 -0.05860349 0.51687411
v -0.42677746 -0.06236064 0.51687411
v -0.43199955 -0.05783248 0.51687411
v -0.42761050 -0.06000168 0.51687411
v -0.42952192 -0.05834426 0.51687411
v -0.43209604 -0.05656499 0.53820937
v -0.43211230 -0.05635139 0.53575165
v -0.43211230 -0.05635139 0.52288801
v -0.43211230 -0.05635139 0.52288801
v -0.42973157 -0.05684315 0.53232806
v -0.42973157 -0.05684315 0.53232806
v -0.43619868 -0.06558879 0.51814011
v -0.43403125 -0.06746823 0.51814011
v -0.43122175 -0.06804855 0.51814011
v -0.43714332 -0.06291384 0.51814011
v -0.42852297 -0.06717427 0.51814011
v -0.42665811 -0.06507964 0.51814011
v -0.43661200 -0.06016012 0.51814011
v -0.42612679 -0.06232592 0.51814011
v -0.43474710 -0.05806549 0.51814011
v -0.42687178 -0.06021625 0.51814011
v -0.42687178 -0.06021625 0.51814011
v -0.43204836 -0.05719121 0.51814011
v -0.43204836 -0.05719121 0.51814011
v -0.42707140 -0.05965097 0.51814011
v -0.42707140 -0.05965097 0.51814011
v -0.42923886 -0.05777153 0.51814011
v -0.42923886 -0.05777153 0.51814011
v -0.42886816 -0.05702150 0.53524648
v -0.42886816 -0.05702150 0.53575165
v -0.42886816 -0.05702150 0.52288801
v -0.42636542 -0.05919168 0.52288801
v -0.42636542 -0.05919168 0.52481156
v -0.42818705 -0.05761209 0.53575165
v -0.43209604 -0.05656499 0.52043029
v -0.42896242 -0.05721226 0.52043029
v -0.42654496 -0.05930849 0.52043029
v -0.42594523 -0.06038151 0.52288801
v -0.42617350 -0.05973512 0.53575165
v -0.42621275 -0.06024931 0.52043029
f 1 2 3
f 3 4 1
f 5 1 4
f 4 6 5
f 7 5 6
f 6 8 7
f 9 7 8
f 8 10 9
f 11 9 10
f 10 12 11
f 13 14 15
f 15 17 13
f 19 20 21
f 21 22 19
f 22 21 23
f 23 24 22
f 25 22 24
f 24 26 25
f 27 25 26
f 26 29 27
f 30 27 29
f 29 33 30
f 30 33 35
f 36 37 18
f 18 38 36
f 38 18 16
f 39 40 41
f 41 38 39
f 38 41 36
f 42 43 38
f 38 16 42
f 32 44 43
f 43 34 32
f 34 43 42
f 42 31 34
f 44 39 38
f 38 43 44
f 39 45 46
f 46 40 39
f 47 45 39
f 39 44 47
f 28 47 44
f 44 32 28
f 48 49 50
f 50 51 48
f 52 48 51
f 51 53 52
f 54 52 53
f 53 55 54
f 56 54 55
f 55 57 56
f 58 56 57
f 57 59 58
f 60 61 62
f 62 64 60
f 66 67 68
f 68 69 66
f 69 68 70
f 70 71 69
f 72 69 71
f 71 73 72
f 74 72 73
f 73 76 74
f 77 74 76
f 76 80 77
f 77 80 82
f 83 84 65
f 65 85 83
f 85 65 63
f 86 87 88
f 88 85 86
f 85 88 83
f 89 90 85
f 85 63 89
f 79 91 90
f 90 81 79
f 81 90 89
f 89 78 81
f 91 86 85
f 85 90 91
f 86 92 93
f 93 87 86
f 94 92 86
f 86 91 94
f 75 94 91
f 91 79 75
f 95 96 97
f 97 98 95
f 99 95 98
f 98 100 99
f 101 99 100
f 100 102 101
f 103 101 102
f 102 104 103
f 105 103 104
f 104 106 105
f 107 108 109
f 109 112 107
f 113 114 115
f 115 116 113
f 116 115 117
f 117 118 116
f 119 116 118
f 118 120 119
f 121 119 120
f 120 122 121
f 124 121 122
f 122 127 124
f 124 127 128
f 130 131 111
f 111 132 130
f 132 111 110
f 133 134 135
f 135 132 133
f 132 135 130
f 136 137 132
f 132 110 136
f 126 138 137
f 137 129 126
f 129 137 136
f 136 125 129
f 138 133 132
f 132 137 138
f 133 139 140
f 140 134 133
f 141 139 133
f 133 138 141
f 123 141 138
f 138 126 123
f 142 143 144
f 144 145 142
f 146 142 145
f 145 147 146
f 148 146 147
f 147 149 148
f 150 148 149
f 149 151 150
f 152 150 151
f 151 153 152
f 154 155 157
f 157 159 154
f 160 161 162
f 162 163 160
f 163 162 164
f 164 165 163
f 166 163 165
f 165 167 166
f 168 166 167
f 167 170 168
f 171 168 170
f 170 174 171
f 171 174 175
f 177 178 158
f 158 179 177
f 179 158 156
f 180 181 182
f 182 179 180
f 179 182 177
f 183 184 179
f 179 156 183
f 173 185 184
f 184 176 173
f 176 184 183
f 183 172 176
f 185 180 179
f 179 184 185
f 180 186 187
f 187 181 180
f 188 186 180
f 180 185 188
f 169 188 185
f 185 173 169
f 189 190 191
f 191 192 189
f 193 189 192
f 192 194 193
f 195 193 194
f 194 196 195
f 197 195 196
f 196 198 197
f 199 197 198
f 198 200 199
f 201 202 204
f 204 206 201
f 207 208 209
f 209 210 207
f 210 209 211
f 211 212 210
f 213 210 212
f 212 214 213
f 215 213 214
f 214 216 215
f 219 215 216
f 216 220 219
f 219 220 223
f 224 225 205
f 205 226 224
f 226 205 203
f 227 228 229
f 229 226 227
f 226 229 224
f 230 231 226
f 226 203 230
f 221 232 231
f 231 222 221
f 222 231 230
f 230 218 222
f 232 227 226
f 226 231 232
f 227 233 234
f 234 228 227
f 235 233 227
f 227 232 235
f 217 235 232
f 232 221 217
f 236 237 238
f 238 239 236
f 240 236 239
f 239 241 240
f 242 240 241
f 241 243 242
f 244 242 243
f 243 245 244
f 246 244 245
f 245 247 246
f 248 249 250
f 250 253 248
f 254 255 256
f 256 257 254
f 257 256 258
f 258 259 257
f 260 257 259
f 259 261 260
f 262 260 261
f 261 264 262
f 266 262 264
f 264 267 266
f 266 267 270
f 271 272 252
f 252 273 271
f 273 252 251
f 274 275 276
f 276 273 274
f 273 276 271
f 277 278 273
f 273 251 277
f 268 279 278
f 278 269 268
f 269 278 277
f 277 265 269
f 279 274 273
f 273 278 279
f 274 280 281
f 281 275 274
f 282 280 274
f 274 279 282
f 263 282 279
f 279 268 263
f 283 284 285
f 285 286 283
f 287 283 286
f 286 288 287
f 289 287 288
f 288 290 289
f 291 289 290
f 290 292 291
f 293 291 292
f 292 294 293
f 295 296 298
f 298 300 295
f 301 302 303
f 303 304 301
f 304 303 305
f 305 306 304
f 307 304 306
f 306 308 307
f 309 307 308
f 308 310 309
f 312 309 310
f 310 315 312
f 312 315 317
f 318 319 299
f 299 320 318
f 320 299 297
f 321 322 323
f 323 320 321
f 320 323 318
f 324 325 320
f 320 297 324
f 314 326 325
f 325 316 314
f 316 325 324
f 324 313 316
f 326 321 320
f 320 325 326
f 321 327 328
f 328 322 321
f 329 327 321
f 321 326 329
f 311 329 326
f 326 314 311
f 330 331 332
f 332 333 330
f 334 330 333
f 333 335 334
f 336 334 335
f 335 337 336
f 338 336 337
f 337 339 338
f 340 338 339
f 339 341 340
f 342 343 345
f 345 347 342
f 348 349 350
f 350 351 348
f 351 350 352
f 352 353 351
f 354 351 353
f 353 355 354
f 356 354 355
f 355 358 356
f 360 356 358
f 358 362 360
f 360 362 363
f 365 366 346
f 346 367 365
f 367 346 344
f 368 369 370
f 370 367 368
f 367 370 365
f 371 372 367
f 367 344 371
f 361 373 372
f 372 364 361
f 364 372 371
f 371 359 364
f 373 368 367
f 367 372 373
f 368 374 375
f 375 369 368
f 376 374 368
f 368 373 376
f 357 376 373
f 373 361 357
f 377 378 379
f 379 380 377
f 381 377 380
f 380 382 381
f 383 381 382
f 382 384 383
f 385 383 384
f 384 386 385
f 387 385 386
f 386 388 387
f 389 390 392
f 392 394 389
f 395 396 397
f 397 398 395
f 398 397 399
f 399 400 398
f 401 398 400
f 400 402 401
f 403 401 402
f 402 405 403
f 406 403 405
f 405 409 406
f 406 409 410
f 412 413 393
f 393 414 412
f 414 393 391
f 415 416 417
f 417 414 415
f 414 417 412
f 418 419 414
f 414 391 418
f 408 420 419
f 419 411 408
f 411 419 418
f 418 407 411
f 420 415 414
f 414 419 420
f 415 421 422
f 422 416 415
f 423 421 415
f 415 420 423
f 404 423 420
f 420 408 404
f 424 425 426
f 426 427 424
f 428 424 427
f 427 429 428
f 430 428 429
f 429 431 430
f 432 430 431
f 431 433 432
f 434 432 433
f 433 435 434
f 436 437 438
f 438 441 436
f 442 443 444
f 444 445 442
f 445 444 446
f 446 447 445
f 448 445 447
f 447 449 448
f 450 448 449
f 449 452 450
f 453 450 452
f 452 455 453
f 453 455 457
f 459 460 440
f 440 461 459
f 461 440 439
f 462 463 464
f 464 461 462
f 461 464 459
f 465 466 461
f 461 439 465
f 456 467 466
f 466 458 456
f 458 466 465
f 465 454 458
f 467 462 461
f 461 466 467
f 462 468 469
f 469 463 462
f 470 468 462
f 462 467 470
f 451 470 467
f 467 456 451

