# https://github.com/mikedh/trimesh
v 0.02958485 -0.12423097 0.68329050
v 0.02958485 -0.12423097 0.68690989
v 0.02958485 -0.11696200 0.68690989
v 0.02958485 -0.11696200 0.68690989
v 0.02958485 -0.11696200 0.68329050
v 0.02958485 -0.11696200 0.68329050
v 0.02844555 -0.11696200 0.68329050
v 0.02844555 -0.11696200 0.68690989
v 0.02761185 -0.12051236 0.67987685
v 0.02761185 -0.12051236 0.67987685
v 0.02761185 -0.12051236 0.67987685
v 0.02761185 -0.12485595 0.67987685
v 0.02761185 -0.12485595 0.67987685
v 0.02761185 -0.12485595 0.67987685
v 0.02761185 -0.12485595 0.70896183
v 0.02761185 -0.12485595 0.70896183
v 0.02761185 -0.12485595 0.70896183
v 0.02761185 -0.11616877 0.70896177
v 0.02761185 -0.11616877 0.70896177
v 0.02761185 -0.11616877 0.70896177
v 0.02761185 -0.12051237 0.67215073
v 0.02761185 -0.12051237 0.67215073
v 0.02761185 -0.12051237 0.67215073
v 0.02761185 -0.11616878 0.67215073
v 0.02761185 -0.11616878 0.67215073
v 0.02761185 -0.11616878 0.67215073
v 0.02844556 -0.11616877 0.70896177
v 0.02844556 -0.11616877 0.70896177
v 0.02844556 -0.11616877 0.70896177
v 0.02844556 -0.12485595 0.70896183
v 0.02844556 -0.12485595 0.70896183
v 0.02844556 -0.12485595 0.70896183
v 0.02844556 -0.12051236 0.67987685
v 0.02844556 -0.12051236 0.67987685
v 0.02844556 -0.12051236 0.67987685
v 0.02844556 -0.12485595 0.67987685
v 0.02844556 -0.12485595 0.67987685
v 0.02844556 -0.12485595 0.67987685
v 0.02844556 -0.12051237 0.67215073
v 0.02844556 -0.12051237 0.67215073
v 0.02844556 -0.12051237 0.67215073
v 0.02844556 -0.11616878 0.67215073
v 0.02844556 -0.11616878 0.67215073
v 0.02844556 -0.11616878 0.67215073
v 0.02844556 -0.11696200 0.68329050
v 0.02844556 -0.11696200 0.68690989
v 0.02844556 -0.12423097 0.68690989
v 0.02844556 -0.12423097 0.68329050
v 0.03700765 -0.11007032 0.60487819
v 0.03700765 -0.11007032 0.60487819
v 0.03700765 -0.11007032 0.60487819
v 0.03700764 -0.11007032 0.66889985
v 0.03700764 -0.11007032 0.66889985
v 0.03700764 -0.11007032 0.66889985
v 0.03700764 -0.11149197 0.66889985
v 0.03700764 -0.11149197 0.66889985
v 0.03700764 -0.11149197 0.66889985
v 0.03700765 -0.11149197 0.60487819
v 0.03700765 -0.11149197 0.60487819
v 0.03700765 -0.11149197 0.60487819
v 0.02964799 -0.11149197 0.62950352
v 0.02964799 -0.11149197 0.62950352
v 0.02964799 -0.11149197 0.62950352
v 0.02964800 -0.11149197 0.62409598
v 0.02964800 -0.11149197 0.62409598
v 0.02964800 -0.11149197 0.62409598
v 0.02964799 -0.12154377 0.62409598
v 0.02964799 -0.12154377 0.62409598
v 0.02964799 -0.12154377 0.62409598
v 0.02964799 -0.12154377 0.62950352
v 0.02964799 -0.12154377 0.62950352
v 0.02964799 -0.12154377 0.62950352
v 0.02964799 -0.11149197 0.66889985
v 0.02964799 -0.11149197 0.66889985
v 0.02964799 -0.11149197 0.66889985
v 0.02964800 -0.11149197 0.60487819
v 0.02964800 -0.11149197 0.60487819
v 0.02964800 -0.11149197 0.60487819
v 0.02964799 -0.11007032 0.66889985
v 0.02964799 -0.11007032 0.66889985
v 0.02964799 -0.11007032 0.66889985
v 0.02964800 -0.11007032 0.60487819
v 0.02964800 -0.11007032 0.60487819
v 0.02964800 -0.11007032 0.60487819
v 0.02964799 -0.11149197 0.63191739
v 0.02964799 -0.11149197 0.63191739
v 0.02964799 -0.11149197 0.63191739
v 0.02964799 -0.11149197 0.65895660
v 0.02964799 -0.11149197 0.65895660
v 0.02964799 -0.11149197 0.65895660
v 0.02964799 -0.12316322 0.63191739
v 0.02964799 -0.12316322 0.63191739
v 0.02964799 -0.12316322 0.63191739
v 0.02964799 -0.12316322 0.65895660
v 0.02964799 -0.12316322 0.65895660
v 0.02964799 -0.12316322 0.65895660
v 0.03109723 -0.11149197 0.60487819
v 0.03109723 -0.11149197 0.60487819
v 0.03109723 -0.11149197 0.62409598
v 0.03109723 -0.11149197 0.62409598
v 0.03109723 -0.11149197 0.62409598
v 0.03109723 -0.11149197 0.62950352
v 0.03109723 -0.11149197 0.62950352
v 0.03109723 -0.11149197 0.62950352
v 0.03109723 -0.11149197 0.63191739
v 0.03109723 -0.11149197 0.63191739
v 0.03109723 -0.11149197 0.63191739
v 0.03109723 -0.11149197 0.65895660
v 0.03109723 -0.11149197 0.65895660
v 0.03109723 -0.11149197 0.65895660
v 0.03109723 -0.12316322 0.63191739
v 0.03109723 -0.12316322 0.63191739
v 0.03109723 -0.12316322 0.63191739
v 0.03109722 -0.12316322 0.65895660
v 0.03109722 -0.12316322 0.65895660
v 0.03109722 -0.12316322 0.65895660
v 0.03109723 -0.12154377 0.62409598
v 0.03109723 -0.12154377 0.62409598
v 0.03109723 -0.12154377 0.62409598
v 0.03109723 -0.12154377 0.62950352
v 0.03109723 -0.12154377 0.62950352
v 0.03109723 -0.12154377 0.62950352
f 1 2 3
f 3 5 1
f 6 7 8
f 8 4 6
f 9 12 15
f 15 18 9
f 23 9 18
f 18 24 23
f 27 19 16
f 16 31 27
f 10 33 36
f 36 13 10
f 35 11 22
f 22 39 35
f 26 42 40
f 40 21 26
f 45 41 43
f 43 28 45
f 46 45 28
f 28 32 46
f 47 46 32
f 32 48 47
f 48 32 37
f 37 34 48
f 45 48 34
f 34 41 45
f 25 20 29
f 29 44 25
f 17 14 38
f 38 30 17
f 49 52 55
f 55 60 49
f 61 64 68
f 68 70 61
f 64 61 73
f 73 78 64
f 78 73 81
f 81 83 78
f 73 61 85
f 85 89 73
f 89 85 92
f 92 94 89
f 50 59 98
f 98 84 50
f 84 98 76
f 56 53 79
f 79 74 56
f 51 82 80
f 80 54 51
f 97 58 57
f 57 100 97
f 102 100 57
f 57 107 102
f 108 107 57
f 57 90 108
f 90 57 75
f 63 102 107
f 107 87 63
f 65 77 97
f 97 100 65
f 93 113 114
f 114 96 93
f 105 111 91
f 91 86 105
f 106 109 115
f 115 112 106
f 116 110 88
f 88 95 116
f 69 119 122
f 122 71 69
f 99 117 67
f 67 66 99
f 101 103 120
f 120 118 101
f 121 104 62
f 62 72 121

