# https://github.com/mikedh/trimesh
v 0.03764483 -0.12509352 0.70644677
v 0.03764483 -0.12509352 0.70644677
v 0.03764483 -0.12509352 0.70644677
v 0.04039160 -0.12509352 0.70644677
v 0.04039160 -0.12509352 0.70644677
v 0.04039160 -0.12509352 0.70644677
v 0.04039160 -0.12633077 0.70664596
v 0.04039160 -0.12633077 0.70664596
v 0.04039160 -0.12633077 0.70664596
v 0.03764483 -0.12633077 0.70664596
v 0.03764483 -0.12633077 0.70664596
v 0.03764483 -0.12633077 0.70664596
v 0.03764483 -0.12550585 0.71218781
v 0.03764483 -0.12550585 0.71218781
v 0.03764483 -0.12550585 0.71218781
v 0.03764483 -0.12426859 0.71198862
v 0.03764483 -0.12426859 0.71198862
v 0.03764483 -0.12426859 0.71198862
v 0.04039160 -0.12426859 0.71198862
v 0.04039160 -0.12426859 0.71198862
v 0.04039160 -0.12426859 0.71198862
v 0.04039160 -0.12550585 0.71218781
v 0.04039160 -0.12550585 0.71218781
v 0.04039160 -0.12550585 0.71218781
v 0.04471976 -0.12564284 0.70649559
v 0.04471976 -0.12564284 0.70649559
v 0.04471976 -0.12564284 0.70649559
v 0.04746654 -0.12564284 0.70649559
v 0.04746654 -0.12564284 0.70649559
v 0.04746654 -0.12564284 0.70649559
v 0.04746654 -0.12688009 0.70669478
v 0.04746654 -0.12688009 0.70669478
v 0.04746654 -0.12688009 0.70669478
v 0.04471976 -0.12688009 0.70669478
v 0.04471976 -0.12688009 0.70669478
v 0.04471976 -0.12688009 0.70669478
v 0.04471976 -0.12605516 0.71223663
v 0.04471976 -0.12605516 0.71223663
v 0.04471976 -0.12605516 0.71223663
v 0.04471976 -0.12481790 0.71203744
v 0.04471976 -0.12481790 0.71203744
v 0.04471976 -0.12481790 0.71203744
v 0.04746654 -0.12481790 0.71203744
v 0.04746654 -0.12481790 0.71203744
v 0.04746654 -0.12481790 0.71203744
v 0.04746654 -0.12605516 0.71223663
v 0.04746654 -0.12605516 0.71223663
v 0.04746654 -0.12605516 0.71223663
v 0.04372603 -0.13136532 0.71206792
v 0.04372603 -0.13136532 0.71206792
v 0.04325190 -0.13192520 0.71215801
v 0.04325190 -0.13192520 0.71215801
v 0.04325190 -0.13246331 0.70854303
v 0.04325190 -0.13246331 0.70854303
v 0.04372603 -0.13190343 0.70845287
v 0.04372603 -0.13190343 0.70845287
v 0.04144549 -0.12938051 0.70804664
v 0.04144549 -0.12938051 0.70804664
v 0.04144549 -0.12884240 0.71166168
v 0.04144549 -0.12884240 0.71166168
v 0.04187688 -0.12970790 0.71180108
v 0.04187688 -0.12970790 0.71180108
v 0.04187688 -0.13024601 0.70818603
v 0.04187688 -0.13024601 0.70818603
v 0.04277102 -0.13211270 0.71218825
v 0.04277102 -0.13211270 0.71218825
v 0.04229015 -0.13192520 0.71215801
v 0.04229015 -0.13192520 0.71215801
v 0.04229015 -0.13246331 0.70854303
v 0.04229015 -0.13246331 0.70854303
v 0.04277102 -0.13265082 0.70857320
v 0.04277102 -0.13265082 0.70857320
v 0.04277102 -0.13040765 0.71191374
v 0.04277102 -0.13040765 0.71191374
v 0.04322125 -0.13023210 0.71188547
v 0.04322125 -0.13023210 0.71188547
v 0.04322125 -0.13077021 0.70827042
v 0.04322125 -0.13077021 0.70827042
v 0.04277102 -0.13094577 0.70829869
v 0.04277102 -0.13094577 0.70829869
v 0.04409656 -0.12884240 0.71166168
v 0.04409656 -0.12884240 0.71166168
v 0.04450936 -0.12764773 0.71146936
v 0.04450936 -0.12764773 0.71146936
v 0.04450936 -0.12818585 0.70785431
v 0.04450936 -0.12818585 0.70785431
v 0.04409656 -0.12938051 0.70804664
v 0.04409656 -0.12938051 0.70804664
v 0.04489780 -0.12614065 0.71122674
v 0.04489780 -0.12614065 0.71122674
v 0.04526345 -0.12430703 0.71093151
v 0.04526345 -0.12430703 0.71093151
v 0.04526345 -0.12430703 0.71093151
v 0.04526345 -0.12484515 0.70731646
v 0.04526345 -0.12484515 0.70731646
v 0.04526345 -0.12484515 0.70731646
v 0.04489780 -0.12667875 0.70761170
v 0.04489780 -0.12667875 0.70761170
v 0.04103268 -0.12764773 0.71146936
v 0.04103268 -0.12764773 0.71146936
v 0.04103268 -0.12818585 0.70785431
v 0.04103268 -0.12818585 0.70785431
v 0.04418678 -0.13044091 0.71191907
v 0.04418678 -0.13044091 0.71191907
v 0.04418678 -0.13097902 0.70830403
v 0.04418678 -0.13097902 0.70830403
v 0.04366517 -0.12970790 0.71180108
v 0.04366517 -0.12970790 0.71180108
v 0.04366517 -0.13024601 0.70818603
v 0.04366517 -0.13024601 0.70818603
v 0.04049948 -0.12809336 0.70783941
v 0.04049948 -0.12809336 0.70783941
v 0.04012163 -0.12619855 0.70753436
v 0.04012163 -0.12619855 0.70753436
v 0.04012163 -0.12619855 0.70753436
v 0.04027859 -0.12484515 0.70731646
v 0.04027859 -0.12484515 0.70731646
v 0.04027859 -0.12484515 0.70731646
v 0.04064425 -0.12667875 0.70761170
v 0.04064425 -0.12667875 0.70761170
v 0.04091436 -0.12970303 0.70809858
v 0.04091436 -0.12970303 0.70809858
v 0.04135526 -0.13097902 0.70830403
v 0.04135526 -0.13097902 0.70830403
v 0.04181601 -0.13190343 0.70845287
v 0.04181601 -0.13190343 0.70845287
v 0.04232079 -0.13077021 0.70827042
v 0.04232079 -0.13077021 0.70827042
v 0.04462768 -0.12970303 0.70809858
v 0.04462768 -0.12970303 0.70809858
v 0.04504257 -0.12809336 0.70783941
v 0.04504257 -0.12809336 0.70783941
v 0.04542042 -0.12619855 0.70753436
v 0.04542042 -0.12619855 0.70753436
v 0.04542042 -0.12619855 0.70753436
v 0.04027859 -0.12430703 0.71093151
v 0.04027859 -0.12430703 0.71093151
v 0.04027859 -0.12430703 0.71093151
v 0.04012163 -0.12566044 0.71114941
v 0.04012163 -0.12566044 0.71114941
v 0.04012163 -0.12566044 0.71114941
v 0.04049948 -0.12755525 0.71145446
v 0.04049948 -0.12755525 0.71145446
v 0.04064425 -0.12614065 0.71122674
v 0.04064425 -0.12614065 0.71122674
v 0.04091436 -0.12916493 0.71171363
v 0.04091436 -0.12916493 0.71171363
v 0.04135526 -0.13044090 0.71191907
v 0.04135526 -0.13044090 0.71191907
v 0.04181601 -0.13136532 0.71206792
v 0.04181601 -0.13136532 0.71206792
v 0.04232079 -0.13023210 0.71188547
v 0.04232079 -0.13023210 0.71188547
v 0.04462768 -0.12916493 0.71171363
v 0.04462768 -0.12916493 0.71171363
v 0.04504257 -0.12755525 0.71145446
v 0.04504257 -0.12755525 0.71145446
v 0.04542042 -0.12566044 0.71114941
v 0.04542042 -0.12566044 0.71114941
v 0.04542042 -0.12566044 0.71114941
v 0.03120219 -0.11470540 0.70610143
v 0.03120219 -0.11470540 0.70610143
v 0.03120219 -0.11470540 0.70610143
v 0.03120219 -0.11625373 0.69569975
v 0.03120219 -0.11625373 0.69569975
v 0.03120219 -0.11625373 0.69569975
v 0.03120219 -0.11749098 0.69589894
v 0.03120219 -0.11749098 0.69589894
v 0.03120219 -0.11749098 0.69589894
v 0.03120219 -0.11594264 0.70630062
v 0.03120219 -0.11594264 0.70630062
v 0.03120219 -0.11594264 0.70630062
v 0.03659438 -0.11594264 0.70630062
v 0.03659438 -0.11594264 0.70630062
v 0.03659438 -0.11594264 0.70630062
v 0.03659438 -0.11470540 0.70610143
v 0.03659438 -0.11470540 0.70610143
v 0.03659438 -0.11470540 0.70610143
v 0.03659438 -0.11625373 0.69569975
v 0.03659438 -0.11625373 0.69569975
v 0.03659438 -0.11625373 0.69569975
v 0.03659438 -0.11749098 0.69589894
v 0.03659438 -0.11749098 0.69589894
v 0.03659438 -0.11749098 0.69589894
v 0.03116453 -0.11923699 0.67939720
v 0.03116453 -0.11923699 0.67939720
v 0.03116453 -0.11923699 0.67939720
v 0.03116453 -0.12078533 0.66899552
v 0.03116453 -0.12078533 0.66899552
v 0.03116453 -0.12078533 0.66899552
v 0.03116453 -0.12202258 0.66919472
v 0.03116453 -0.12202258 0.66919472
v 0.03116453 -0.12202258 0.66919472
v 0.03116453 -0.12047424 0.67959640
v 0.03116453 -0.12047424 0.67959640
v 0.03116453 -0.12047424 0.67959640
v 0.03655672 -0.12047424 0.67959640
v 0.03655672 -0.12047424 0.67959640
v 0.03655672 -0.12047424 0.67959640
v 0.03655672 -0.11923699 0.67939720
v 0.03655672 -0.11923699 0.67939720
v 0.03655672 -0.11923699 0.67939720
v 0.03655672 -0.12078533 0.66899552
v 0.03655672 -0.12078533 0.66899552
v 0.03655672 -0.12078533 0.66899552
v 0.03655672 -0.12202258 0.66919472
v 0.03655672 -0.12202258 0.66919472
v 0.03655672 -0.12202258 0.66919472
v 0.03558402 -0.12507545 0.68419042
v 0.03558402 -0.12507545 0.68419042
v 0.03558402 -0.12536806 0.68607602
v 0.03558402 -0.12536806 0.68607602
v 0.03206661 -0.12536806 0.68607602
v 0.03206661 -0.12536806 0.68607602
v 0.03206661 -0.12507544 0.68419042
v 0.03206661 -0.12507544 0.68419042
v 0.03206661 -0.12126701 0.69242035
v 0.03206661 -0.12126701 0.69242035
v 0.03558402 -0.12126701 0.69242035
v 0.03558402 -0.12126701 0.69242035
v 0.03558402 -0.12237567 0.69092609
v 0.03558402 -0.12237567 0.69092609
v 0.03206661 -0.12237567 0.69092609
v 0.03206661 -0.12237567 0.69092609
v 0.03558402 -0.12528451 0.68792721
v 0.03558402 -0.12528451 0.68792721
v 0.03558402 -0.12482594 0.68971805
v 0.03558402 -0.12482594 0.68971805
v 0.03206661 -0.12482593 0.68971805
v 0.03206661 -0.12482593 0.68971805
v 0.03206661 -0.12528451 0.68792721
v 0.03206661 -0.12528451 0.68792721
v 0.03558402 -0.12357945 0.68765270
v 0.03558402 -0.12357945 0.68765270
v 0.03558402 -0.12365769 0.68591951
v 0.03558402 -0.12365769 0.68591951
v 0.03206661 -0.12365768 0.68591951
v 0.03206661 -0.12365768 0.68591951
v 0.03206661 -0.12357945 0.68765270
v 0.03206661 -0.12357945 0.68765270
v 0.03558402 -0.12276139 0.68238112
v 0.03558402 -0.12276139 0.68238112
v 0.03558402 -0.12179942 0.68062554
v 0.03558402 -0.12179942 0.68062554
v 0.03206661 -0.12179941 0.68062554
v 0.03206661 -0.12179941 0.68062554
v 0.03206661 -0.12276139 0.68238112
v 0.03206661 -0.12276139 0.68238112
v 0.03558402 -0.12051128 0.67891191
v 0.03558402 -0.12051128 0.67891191
v 0.03558402 -0.11888379 0.67723201
v 0.03558402 -0.11888379 0.67723201
v 0.03558402 -0.11888379 0.67723201
v 0.03206661 -0.11888379 0.67723201
v 0.03206661 -0.11888379 0.67723201
v 0.03206661 -0.11888379 0.67723201
v 0.03206661 -0.12051128 0.67891191
v 0.03206661 -0.12051128 0.67891191
v 0.03558402 -0.11983965 0.69379122
v 0.03558402 -0.11983965 0.69379122
v 0.03206661 -0.11983965 0.69379122
v 0.03206661 -0.11983965 0.69379122
v 0.03558402 -0.12441076 0.68229680
v 0.03558402 -0.12441076 0.68229680
v 0.03206661 -0.12441076 0.68229680
v 0.03206661 -0.12441076 0.68229680
v 0.03558402 -0.12338373 0.68415405
v 0.03558402 -0.12338373 0.68415405
v 0.03206661 -0.12338372 0.68415405
v 0.03206661 -0.12338372 0.68415405
v 0.03206661 -0.11944660 0.69579548
v 0.03206661 -0.11944660 0.69579548
v 0.03206661 -0.11733879 0.69692135
v 0.03206661 -0.11733879 0.69692135
v 0.03206661 -0.11733879 0.69692135
v 0.03206661 -0.11607387 0.69610899
v 0.03206661 -0.11607387 0.69610899
v 0.03206661 -0.11607387 0.69610899
v 0.03206661 -0.11811360 0.69501956
v 0.03206661 -0.11811360 0.69501956
v 0.03206661 -0.12129014 0.69448355
v 0.03206661 -0.12129014 0.69448355
v 0.03206661 -0.12281466 0.69301934
v 0.03206661 -0.12281466 0.69301934
v 0.03206661 -0.12399879 0.69142340
v 0.03206661 -0.12399879 0.69142340
v 0.03206661 -0.12315011 0.68932941
v 0.03206661 -0.12315011 0.68932941
v 0.03206661 -0.12338330 0.68042169
v 0.03206661 -0.12338330 0.68042169
v 0.03206661 -0.12200749 0.67859147
v 0.03206661 -0.12200749 0.67859147
v 0.03206661 -0.12032567 0.67685546
v 0.03206661 -0.12032567 0.67685546
v 0.03206661 -0.12032567 0.67685546
v 0.03558402 -0.11607387 0.69610899
v 0.03558402 -0.11607387 0.69610899
v 0.03558402 -0.11607387 0.69610899
v 0.03558402 -0.11733880 0.69692135
v 0.03558402 -0.11733880 0.69692135
v 0.03558402 -0.11733880 0.69692135
v 0.03558402 -0.11944660 0.69579548
v 0.03558402 -0.11944660 0.69579548
v 0.03558402 -0.11811360 0.69501956
v 0.03558402 -0.11811360 0.69501956
v 0.03558402 -0.12129014 0.69448355
v 0.03558402 -0.12129014 0.69448355
v 0.03558402 -0.12281466 0.69301934
v 0.03558402 -0.12281466 0.69301934
v 0.03558402 -0.12399879 0.69142340
v 0.03558402 -0.12399879 0.69142340
v 0.03558402 -0.12315011 0.68932941
v 0.03558402 -0.12315011 0.68932941
v 0.03558402 -0.12338330 0.68042169
v 0.03558402 -0.12338330 0.68042169
v 0.03558402 -0.12200750 0.67859147
v 0.03558402 -0.12200750 0.67859147
v 0.03558402 -0.12032567 0.67685546
v 0.03558402 -0.12032567 0.67685546
v 0.03558402 -0.12032567 0.67685546
f 3 6 9
f 2 10 15
f 19 17 14
f 8 5 20
f 21 16 1
f 24 13 12
f 25 28 32
f 26 35 38
f 43 41 37
f 31 29 44
f 45 42 27
f 48 39 34
f 49 52 53
f 57 60 61
f 65 68 69
f 73 76 77
f 82 83 86
f 90 91 96
f 100 60 57
f 104 49 56
f 76 108 109
f 111 115 116
f 121 111 120
f 124 121 102
f 125 124 58
f 70 125 63
f 71 70 128
f 71 79 78
f 54 78 110
f 55 110 88
f 106 88 85
f 130 85 98
f 132 98 94
f 137 141 142
f 145 142 146
f 99 146 148
f 59 148 150
f 62 150 67
f 153 67 66
f 75 74 66
f 107 75 51
f 81 107 50
f 84 81 103
f 89 84 154
f 92 89 156
f 53 52 65
f 155 104 105
f 61 152 127
f 68 151 126
f 152 73 80
f 139 138 117
f 136 144 119
f 157 155 129
f 147 143 112
f 112 143 140
f 126 151 149
f 119 144 100
f 109 108 82
f 134 159 157
f 83 90 97
f 149 147 122
f 133 95 93
f 161 164 168
f 162 172 174
f 179 177 173
f 167 166 180
f 181 178 163
f 184 175 170
f 185 188 192
f 186 196 197
f 204 202 199
f 191 189 203
f 205 201 187
f 206 198 195
f 209 212 213
f 217 220 221
f 226 228 230
f 234 235 238
f 241 243 246
f 250 253 255
f 259 220 217
f 263 209 216
f 235 268 270
f 271 274 278
f 281 271 279
f 283 281 261
f 286 283 218
f 229 286 223
f 232 229 287
f 232 240 237
f 214 237 269
f 215 269 248
f 266 248 245
f 289 245 257
f 292 257 254
f 296 300 303
f 304 303 307
f 260 307 309
f 219 309 310
f 222 310 227
f 313 227 225
f 236 233 225
f 267 236 211
f 242 267 210
f 244 242 264
f 249 244 314
f 252 249 317
f 213 212 226
f 315 263 265
f 221 312 288
f 228 311 285
f 312 234 239
f 301 297 277
f 298 305 280
f 316 315 290
f 306 302 272
f 272 302 299
f 285 311 308
f 280 305 259
f 270 268 241
f 293 320 316
f 243 250 258
f 308 306 282
f 294 256 251
f 9 11 3
f 15 18 2
f 14 23 19
f 20 22 8
f 1 4 21
f 12 7 24
f 32 36 25
f 38 40 26
f 37 46 43
f 44 47 31
f 27 30 45
f 34 33 48
f 53 56 49
f 61 64 57
f 69 72 65
f 77 80 73
f 86 87 82
f 96 97 90
f 57 101 100
f 56 105 104
f 109 77 76
f 116 120 111
f 120 102 121
f 102 58 124
f 58 63 125
f 63 128 70
f 128 79 71
f 78 54 71
f 110 55 54
f 88 106 55
f 85 130 106
f 98 132 130
f 94 135 132
f 142 145 137
f 146 99 145
f 148 59 99
f 150 62 59
f 67 153 62
f 66 74 153
f 66 51 75
f 51 50 107
f 50 103 81
f 103 154 84
f 154 156 89
f 156 158 92
f 65 72 53
f 105 129 155
f 127 64 61
f 126 69 68
f 80 127 152
f 117 114 139
f 119 118 136
f 129 131 157
f 112 122 147
f 140 113 112
f 149 123 126
f 100 101 119
f 82 87 109
f 157 131 134
f 97 86 83
f 122 123 149
f 93 160 133
f 168 171 161
f 174 176 162
f 173 182 179
f 180 183 167
f 163 165 181
f 170 169 184
f 192 194 185
f 197 200 186
f 199 207 204
f 203 208 191
f 187 190 205
f 195 193 206
f 213 216 209
f 221 224 217
f 230 231 226
f 238 239 234
f 246 247 241
f 255 258 250
f 217 262 259
f 216 265 263
f 270 238 235
f 278 279 271
f 279 261 281
f 261 218 283
f 218 223 286
f 223 287 229
f 287 240 232
f 237 214 232
f 269 215 214
f 248 266 215
f 245 289 266
f 257 292 289
f 254 295 292
f 303 304 296
f 307 260 304
f 309 219 260
f 310 222 219
f 227 313 222
f 225 233 313
f 225 211 236
f 211 210 267
f 210 264 242
f 264 314 244
f 314 317 249
f 317 319 252
f 226 231 213
f 265 290 315
f 288 224 221
f 285 230 228
f 239 288 312
f 277 273 301
f 280 276 298
f 290 291 316
f 272 282 306
f 299 275 272
f 308 284 285
f 259 262 280
f 241 247 270
f 316 291 293
f 258 246 243
f 282 284 308
f 251 318 294

