# https://github.com/mikedh/trimesh
v 0.20307395 0.25167404 0.57707533
v 0.20295856 0.25210830 0.57709036
v 0.20222739 0.25167404 0.57730059
v 0.20361043 0.25251294 0.57666762
v 0.20383334 0.25167404 0.57663868
v 0.20413861 0.25286043 0.57606127
v 0.20445385 0.25167404 0.57602030
v 0.20489317 0.25167404 0.57526247
v 0.20450708 0.25312708 0.57531258
v 0.20512139 0.25167404 0.57441670
v 0.20469074 0.25329469 0.57447263
v 0.20512291 0.25167404 0.57354069
v 0.20467708 0.25335185 0.57359858
v 0.20203346 0.25167404 0.54975316
v 0.20158763 0.25335185 0.54981112
v 0.20180820 0.25167404 0.54890665
v 0.20137757 0.25329469 0.54896258
v 0.20137153 0.25167404 0.54814723
v 0.20098544 0.25312708 0.54819739
v 0.20075319 0.25167404 0.54752671
v 0.20043793 0.25286043 0.54756767
v 0.19999531 0.25167404 0.54708741
v 0.19977240 0.25251294 0.54711636
v 0.19914955 0.25167404 0.54685921
v 0.19903416 0.25210830 0.54687417
v 0.19827355 0.25167404 0.54685768
v 0.20264330 0.25242620 0.57713127
v 0.20300141 0.25312708 0.57674674
v 0.20327733 0.25372896 0.57617314
v 0.20345224 0.25419079 0.57544958
v 0.20351422 0.25448109 0.57462546
v 0.20345906 0.25458013 0.57375681
v 0.20036960 0.25458013 0.54996928
v 0.20020105 0.25448109 0.54911535
v 0.19993059 0.25419079 0.54833440
v 0.19957667 0.25372896 0.54767953
v 0.19916338 0.25312708 0.54719547
v 0.19871892 0.25242620 0.54691514
v 0.20221267 0.25254254 0.57718719
v 0.20216950 0.25335185 0.57685480
v 0.20210081 0.25404685 0.57632597
v 0.20201130 0.25458013 0.57563676
v 0.20190706 0.25491535 0.57483416
v 0.20179520 0.25502969 0.57397286
v 0.19870575 0.25502969 0.55018540
v 0.19859388 0.25491535 0.54932411
v 0.19848964 0.25458013 0.54852151
v 0.19840013 0.25404685 0.54783236
v 0.19833146 0.25335185 0.54730353
v 0.19828829 0.25254254 0.54697107
v 0.20178203 0.25242620 0.57724313
v 0.20133757 0.25312708 0.57696279
v 0.20092429 0.25372896 0.57647873
v 0.20057037 0.25419079 0.57582387
v 0.20029991 0.25448109 0.57504292
v 0.20013135 0.25458013 0.57418898
v 0.19704190 0.25458013 0.55040146
v 0.19698672 0.25448109 0.54953287
v 0.19704871 0.25419079 0.54870868
v 0.19722361 0.25372896 0.54798514
v 0.19749953 0.25312708 0.54741153
v 0.19785764 0.25242620 0.54702701
v 0.20146679 0.25210830 0.57728410
v 0.20072855 0.25251294 0.57704191
v 0.20006302 0.25286043 0.57659059
v 0.19951552 0.25312708 0.57596088
v 0.19912338 0.25329469 0.57519569
v 0.19891333 0.25335185 0.57434721
v 0.19582386 0.25335185 0.55055969
v 0.19581020 0.25329469 0.54968564
v 0.19599386 0.25312708 0.54884569
v 0.19636234 0.25286043 0.54809700
v 0.19689051 0.25251294 0.54749064
v 0.19754240 0.25210830 0.54706791
v 0.20135139 0.25167404 0.57729906
v 0.20050564 0.25167404 0.57707085
v 0.19974777 0.25167404 0.57663156
v 0.19912942 0.25167404 0.57601105
v 0.19869274 0.25167404 0.57525162
v 0.19846750 0.25167404 0.57440511
v 0.19537804 0.25167404 0.55061758
v 0.19537957 0.25167404 0.54974157
v 0.19560777 0.25167404 0.54889579
v 0.19604710 0.25167404 0.54813796
v 0.19666760 0.25167404 0.54751959
v 0.19742701 0.25167404 0.54708293
v 0.20146679 0.25123977 0.57728410
v 0.20072855 0.25083513 0.57704191
v 0.20006302 0.25048764 0.57659059
v 0.19951552 0.25022099 0.57596088
v 0.19912338 0.25005338 0.57519569
v 0.19891333 0.24999622 0.57434721
v 0.19582386 0.24999622 0.55055969
v 0.19581020 0.25005338 0.54968564
v 0.19599386 0.25022099 0.54884569
v 0.19636234 0.25048764 0.54809700
v 0.19689051 0.25083513 0.54749064
v 0.19754240 0.25123977 0.54706791
v 0.20178203 0.25092188 0.57724313
v 0.20133757 0.25022099 0.57696279
v 0.20092429 0.24961911 0.57647873
v 0.20057037 0.24915728 0.57582387
v 0.20029991 0.24886699 0.57504292
v 0.20013135 0.24876794 0.57418898
v 0.19704190 0.24876794 0.55040146
v 0.19698672 0.24886699 0.54953287
v 0.19704871 0.24915728 0.54870868
v 0.19722361 0.24961911 0.54798514
v 0.19749953 0.25022099 0.54741153
v 0.19785764 0.25092188 0.54702701
v 0.20221267 0.25080554 0.57718719
v 0.20216950 0.24999622 0.57685480
v 0.20210081 0.24930122 0.57632597
v 0.20201130 0.24876794 0.57563676
v 0.20190706 0.24843272 0.57483416
v 0.20179520 0.24831837 0.57397286
v 0.19870575 0.24831837 0.55018540
v 0.19859388 0.24843272 0.54932411
v 0.19848964 0.24876794 0.54852151
v 0.19840013 0.24930122 0.54783236
v 0.19833146 0.24999622 0.54730353
v 0.19828829 0.25080554 0.54697107
v 0.20264330 0.25092188 0.57713127
v 0.20300141 0.25022099 0.57674674
v 0.20327733 0.24961911 0.57617314
v 0.20345224 0.24915728 0.57544958
v 0.20351422 0.24886699 0.57462546
v 0.20345906 0.24876794 0.57375681
v 0.20036960 0.24876794 0.54996928
v 0.20020105 0.24886699 0.54911535
v 0.19993059 0.24915728 0.54833440
v 0.19957667 0.24961911 0.54767953
v 0.19916338 0.25022099 0.54719547
v 0.19871892 0.25092188 0.54691514
v 0.20295856 0.25123977 0.57709036
v 0.20361043 0.25083513 0.57666762
v 0.20413861 0.25048764 0.57606127
v 0.20450708 0.25022099 0.57531258
v 0.20469074 0.25005338 0.57447263
v 0.20467708 0.24999622 0.57359858
v 0.20158763 0.24999622 0.54981112
v 0.20137757 0.25005338 0.54896258
v 0.20098544 0.25022099 0.54819739
v 0.20043793 0.25048764 0.54756767
v 0.19977240 0.25083513 0.54711636
v 0.19903416 0.25123977 0.54687417
v -0.16244379 0.16397660 0.02705165
v -0.16244379 0.16397660 0.02705165
v -0.16244379 0.16397660 0.02705165
v -0.16244379 0.28246094 0.02705165
v -0.16244379 0.28246094 0.02705165
v -0.16244379 0.28246094 0.02705165
v 0.32640067 0.28246094 0.02705165
v 0.32640067 0.28246094 0.02705165
v 0.32640067 0.28246094 0.02705165
v 0.32514629 0.16397660 0.02705165
v 0.32514629 0.16397660 0.02705165
v 0.32514629 0.16397660 0.02705165
v 0.32514629 -0.24329359 0.02705165
v 0.32514629 -0.24329359 0.02705165
v 0.32640067 -0.24329359 0.02705165
v 0.32640067 -0.24329359 0.02705165
v 0.49627035 -0.26597606 0.41475119
v 0.32514629 -0.26597606 0.41475119
v 0.32514629 -0.26597606 0.41475119
v 0.32514629 -0.24329359 0.39571142
v 0.32514629 -0.24329359 0.39571142
v 0.32640067 -0.24329359 0.39571142
v 0.49940710 -0.24329359 0.39571142
v 0.49940710 -0.24329359 0.39571142
v 0.49940710 -0.26597606 0.41475119
v 0.49940710 -0.26597606 0.41475119
v 0.49940710 0.28246094 0.02705165
v 0.49940710 0.28246094 0.02705165
v 0.49940710 0.28246094 0.55417198
v 0.49940710 0.28246094 0.55417198
v -0.16244379 0.28246094 0.55417198
v -0.16244379 0.28246094 0.55417198
v -0.16244379 0.28246094 0.55417198
v 0.32514629 -0.24329359 0.53598715
v 0.32514629 -0.24329359 0.53598715
v 0.32514629 0.16397660 0.53598715
v 0.32514629 0.16397660 0.53598715
v 0.32514629 0.16397660 0.53598715
v 0.49940710 0.16397660 0.53598715
v 0.49940710 0.16397660 0.53598715
v 0.49940710 0.16397660 0.53598715
v 0.32514629 -0.26597606 0.53598715
v 0.32514629 -0.26597606 0.53598715
v 0.49940710 -0.26597606 0.53598715
v 0.49940710 -0.26597606 0.53598715
v 0.49940710 -0.24329359 0.02705165
v 0.49940710 -0.24329359 0.02705165
v 0.49940710 0.16397660 0.02705165
v 0.49940710 0.16397660 0.02705165
v -0.16244379 0.16397660 0.55417198
v -0.16244379 0.16397660 0.55417198
v -0.16244379 0.16397660 0.55417198
v 0.32514629 0.16397660 0.55417198
v 0.32514629 0.16397660 0.55417198
v 0.49940710 0.16397660 0.55417198
v 0.49940710 0.16397660 0.55417198
v 0.49940710 -0.19036875 0.04917995
v 0.49940710 0.16397660 0.04917995
v 0.49940710 -0.19036875 0.48933503
v 0.49940710 0.16397660 0.48933503
v -0.02998565 0.25309685 0.54838641
v -0.02998565 0.25309685 0.54838641
v -0.03050249 0.25702271 0.54838641
v -0.03050249 0.25702271 0.54838641
v -0.02998565 0.26094863 0.54838641
v -0.02998565 0.26094863 0.54838641
v -0.02847032 0.26460697 0.54838641
v -0.02847032 0.26460697 0.54838641
v -0.02847032 0.24943850 0.54838641
v -0.02847032 0.24943850 0.54838641
v -0.02605976 0.26774844 0.54838641
v -0.02605976 0.26774844 0.54838641
v -0.02605976 0.24629703 0.54838641
v -0.02605976 0.24629703 0.54838641
v -0.02291829 0.27015901 0.54838641
v -0.02291829 0.27015901 0.54838641
v -0.02291829 0.24388650 0.54838641
v -0.02291829 0.24388650 0.54838641
v -0.01925994 0.27167430 0.54838641
v -0.01925994 0.27167430 0.54838641
v -0.01925994 0.24237117 0.54838641
v -0.01925994 0.24237117 0.54838641
v -0.01533409 0.27219118 0.54838641
v -0.01533409 0.27219118 0.54838641
v -0.01533409 0.24185430 0.54838641
v -0.01533409 0.24185430 0.54838641
v -0.01140820 0.27167430 0.54838641
v -0.01140820 0.27167430 0.54838641
v -0.01140820 0.24237117 0.54838641
v -0.01140820 0.24237117 0.54838641
v -0.00774985 0.27015901 0.54838641
v -0.00774985 0.27015901 0.54838641
v -0.00774985 0.24388650 0.54838641
v -0.00774985 0.24388650 0.54838641
v -0.00460838 0.26774844 0.54838641
v -0.00460838 0.26774844 0.54838641
v -0.00460838 0.24629703 0.54838641
v -0.00460838 0.24629703 0.54838641
v -0.00219781 0.26460697 0.54838641
v -0.00219781 0.26460697 0.54838641
v -0.00219781 0.24943850 0.54838641
v -0.00219781 0.24943850 0.54838641
v -0.00068249 0.26094863 0.54838641
v -0.00068249 0.26094863 0.54838641
v -0.00068249 0.25309685 0.54838641
v -0.00068249 0.25309685 0.54838641
v -0.00016565 0.25702271 0.54838641
v -0.00016565 0.25702271 0.54838641
v -0.01533409 0.27219118 0.55417198
v -0.01533409 0.27219118 0.55417198
v -0.01140820 0.27167430 0.55417198
v -0.01140820 0.27167430 0.55417198
v -0.00774985 0.27015901 0.55417198
v -0.00774985 0.27015901 0.55417198
v -0.00460838 0.26774844 0.55417198
v -0.00460838 0.26774844 0.55417198
v -0.00219781 0.26460697 0.55417198
v -0.00219781 0.26460697 0.55417198
v -0.00068249 0.26094863 0.55417198
v -0.00068249 0.26094863 0.55417198
v -0.00016565 0.25702271 0.55417198
v -0.00016565 0.25702271 0.55417198
v -0.00068249 0.25309685 0.55417198
v -0.00068249 0.25309685 0.55417198
v -0.00219781 0.24943850 0.55417198
v -0.00219781 0.24943850 0.55417198
v -0.00460838 0.24629703 0.55417198
v -0.00460838 0.24629703 0.55417198
v -0.00774985 0.24388650 0.55417198
v -0.00774985 0.24388650 0.55417198
v -0.01140820 0.24237117 0.55417198
v -0.01140820 0.24237117 0.55417198
v -0.01533409 0.24185430 0.55417198
v -0.01533409 0.24185430 0.55417198
v -0.01925994 0.24237117 0.55417198
v -0.01925994 0.24237117 0.55417198
v -0.02291829 0.24388650 0.55417198
v -0.02291829 0.24388650 0.55417198
v -0.02605976 0.24629703 0.55417198
v -0.02605976 0.24629703 0.55417198
v -0.02847032 0.24943850 0.55417198
v -0.02847032 0.24943850 0.55417198
v -0.02998565 0.25309685 0.55417198
v -0.02998565 0.25309685 0.55417198
v -0.03050249 0.25702271 0.55417198
v -0.03050249 0.25702271 0.55417198
v -0.02998565 0.26094863 0.55417198
v -0.02998565 0.26094863 0.55417198
v -0.02847032 0.26460697 0.55417198
v -0.02847032 0.26460697 0.55417198
v -0.02605976 0.26774844 0.55417198
v -0.02605976 0.26774844 0.55417198
v -0.02291829 0.27015901 0.55417198
v -0.02291829 0.27015901 0.55417198
v -0.01925994 0.27167430 0.55417198
v -0.01925994 0.27167430 0.55417198
v -0.03032544 0.20200516 0.54838641
v -0.03032544 0.20200516 0.54838641
v -0.03041271 0.20596394 0.54838641
v -0.03041271 0.20596394 0.54838641
v -0.02947236 0.20981042 0.54838641
v -0.02947236 0.20981042 0.54838641
v -0.02921654 0.19820379 0.54838641
v -0.02921654 0.19820379 0.54838641
v -0.02756856 0.21328245 0.54838641
v -0.02756856 0.21328245 0.54838641
v -0.02716158 0.19481903 0.54838641
v -0.02716158 0.19481903 0.54838641
v -0.02483093 0.21614346 0.54838641
v -0.02483093 0.21614346 0.54838641
v -0.02430060 0.19208144 0.54838641
v -0.02430060 0.19208144 0.54838641
v -0.02144617 0.21819839 0.54838641
v -0.02144617 0.21819839 0.54838641
v -0.02082853 0.19017763 0.54838641
v -0.02082853 0.19017763 0.54838641
v -0.01764484 0.21930729 0.54838641
v -0.01764484 0.21930729 0.54838641
v -0.01698207 0.18923728 0.54838641
v -0.01698207 0.18923728 0.54838641
v -0.01368604 0.21939456 0.54838641
v -0.01368604 0.21939456 0.54838641
v -0.01302327 0.18932455 0.54838641
v -0.01302327 0.18932455 0.54838641
v -0.00983958 0.21845421 0.54838641
v -0.00983958 0.21845421 0.54838641
v -0.00922197 0.19043346 0.54838641
v -0.00922197 0.19043346 0.54838641
v -0.00636755 0.21655041 0.54838641
v -0.00636755 0.21655041 0.54838641
v -0.00583718 0.19248838 0.54838641
v -0.00583718 0.19248838 0.54838641
v -0.00350656 0.21381281 0.54838641
v -0.00350656 0.21381281 0.54838641
v -0.00309959 0.19534937 0.54838641
v -0.00309959 0.19534937 0.54838641
v -0.00145157 0.21042799 0.54838641
v -0.00145157 0.21042799 0.54838641
v -0.00119574 0.19882143 0.54838641
v -0.00119574 0.19882143 0.54838641
v -0.00034267 0.20662669 0.54838641
v -0.00034267 0.20662669 0.54838641
v -0.00025543 0.20266790 0.54838641
v -0.00025543 0.20266790 0.54838641
v -0.02716158 0.19481903 0.55417198
v -0.02716158 0.19481903 0.55417198
v -0.02921654 0.19820379 0.55417198
v -0.02921654 0.19820379 0.55417198
v -0.03032544 0.20200516 0.55417198
v -0.03032544 0.20200516 0.55417198
v -0.03041271 0.20596394 0.55417198
v -0.03041271 0.20596394 0.55417198
v -0.02947236 0.20981042 0.55417198
v -0.02947236 0.20981042 0.55417198
v -0.02756856 0.21328245 0.55417198
v -0.02756856 0.21328245 0.55417198
v -0.02483093 0.21614346 0.55417198
v -0.02483093 0.21614346 0.55417198
v -0.02144617 0.21819839 0.55417198
v -0.02144617 0.21819839 0.55417198
v -0.01764484 0.21930729 0.55417198
v -0.01764484 0.21930729 0.55417198
v -0.01368604 0.21939456 0.55417198
v -0.01368604 0.21939456 0.55417198
v -0.00983958 0.21845421 0.55417198
v -0.00983958 0.21845421 0.55417198
v -0.00636755 0.21655041 0.55417198
v -0.00636755 0.21655041 0.55417198
v -0.00350656 0.21381281 0.55417198
v -0.00350656 0.21381281 0.55417198
v -0.00145157 0.21042799 0.55417198
v -0.00145157 0.21042799 0.55417198
v -0.00034267 0.20662669 0.55417198
v -0.00034267 0.20662669 0.55417198
v -0.00025543 0.20266790 0.55417198
v -0.00025543 0.20266790 0.55417198
v -0.00119574 0.19882143 0.55417198
v -0.00119574 0.19882143 0.55417198
v -0.00309959 0.19534937 0.55417198
v -0.00309959 0.19534937 0.55417198
v -0.00583718 0.19248838 0.55417198
v -0.00583718 0.19248838 0.55417198
v -0.00922197 0.19043346 0.55417198
v -0.00922197 0.19043346 0.55417198
v -0.01302327 0.18932455 0.55417198
v -0.01302327 0.18932455 0.55417198
v -0.01698207 0.18923728 0.55417198
v -0.01698207 0.18923728 0.55417198
v -0.02082853 0.19017763 0.55417198
v -0.02082853 0.19017763 0.55417198
v -0.02430060 0.19208144 0.55417198
v -0.02430060 0.19208144 0.55417198
v 0.29438300 0.27236700 0.55417198
v 0.29438300 0.27236700 0.55417198
v 0.30420249 0.27107421 0.55417198
v 0.30420249 0.27107421 0.55417198
v 0.31335281 0.26728407 0.55417198
v 0.31335281 0.26728407 0.55417198
v 0.32121038 0.26125472 0.55417198
v 0.32121038 0.26125472 0.55417198
v 0.32723967 0.25339723 0.55417198
v 0.32723967 0.25339723 0.55417198
v 0.33102987 0.24424689 0.55417198
v 0.33102987 0.24424689 0.55417198
v 0.33232263 0.23442740 0.55417198
v 0.33232263 0.23442740 0.55417198
v 0.33102987 0.22460788 0.55417198
v 0.33102987 0.22460788 0.55417198
v 0.32723967 0.21545757 0.55417198
v 0.32723967 0.21545757 0.55417198
v 0.32121038 0.20760003 0.55417198
v 0.32121038 0.20760003 0.55417198
v 0.31335281 0.20157074 0.55417198
v 0.31335281 0.20157074 0.55417198
v 0.30420249 0.19778054 0.55417198
v 0.30420249 0.19778054 0.55417198
v 0.29438300 0.19648777 0.55417198
v 0.29438300 0.19648777 0.55417198
v 0.28456351 0.19778054 0.55417198
v 0.28456351 0.19778054 0.55417198
v 0.27541320 0.20157074 0.55417198
v 0.27541320 0.20157074 0.55417198
v 0.21388754 0.24390247 0.55417198
v 0.21388754 0.24390247 0.55417198
v 0.21147701 0.24076097 0.55417198
v 0.21147701 0.24076097 0.55417198
v 0.20833552 0.23835044 0.55417198
v 0.20833552 0.23835044 0.55417198
v 0.20467719 0.23683511 0.55417198
v 0.20467719 0.23683511 0.55417198
v 0.20075130 0.23631824 0.55417198
v 0.20075130 0.23631824 0.55417198
v 0.19682543 0.23683511 0.55417198
v 0.19682543 0.23683511 0.55417198
v 0.19316710 0.23835044 0.55417198
v 0.19316710 0.23835044 0.55417198
v 0.19002561 0.24076097 0.55417198
v 0.19002561 0.24076097 0.55417198
v 0.18761506 0.24390247 0.55417198
v 0.18761506 0.24390247 0.55417198
v 0.18609974 0.24756079 0.55417198
v 0.18609974 0.24756079 0.55417198
v 0.18558288 0.25148668 0.55417198
v 0.18558288 0.25148668 0.55417198
v 0.18609974 0.25541254 0.55417198
v 0.18609974 0.25541254 0.55417198
v 0.18761506 0.25907088 0.55417198
v 0.18761506 0.25907088 0.55417198
v 0.19002561 0.26221235 0.55417198
v 0.19002561 0.26221235 0.55417198
v 0.19316710 0.26462292 0.55417198
v 0.19316710 0.26462292 0.55417198
v 0.19682543 0.26613821 0.55417198
v 0.19682543 0.26613821 0.55417198
v 0.20075130 0.26665509 0.55417198
v 0.20075130 0.26665509 0.55417198
v 0.20467719 0.26613821 0.55417198
v 0.20467719 0.26613821 0.55417198
v 0.20833552 0.26462292 0.55417198
v 0.20833552 0.26462292 0.55417198
v 0.21147701 0.26221235 0.55417198
v 0.21147701 0.26221235 0.55417198
v 0.28456351 0.27107421 0.55417198
v 0.28456351 0.27107421 0.55417198
v 0.21388754 0.25907088 0.55417198
v 0.21388754 0.25907088 0.55417198
v 0.21540288 0.25541254 0.55417198
v 0.21540288 0.25541254 0.55417198
v 0.21591974 0.25148668 0.55417198
v 0.21591974 0.25148668 0.55417198
v 0.27541320 0.26728407 0.55417198
v 0.27541320 0.26728407 0.55417198
v 0.26755566 0.26125472 0.55417198
v 0.26755566 0.26125472 0.55417198
v 0.26152634 0.25339723 0.55417198
v 0.26152634 0.25339723 0.55417198
v 0.25773617 0.24424689 0.55417198
v 0.25773617 0.24424689 0.55417198
v 0.25644340 0.23442740 0.55417198
v 0.25644340 0.23442740 0.55417198
v 0.25773617 0.22460788 0.55417198
v 0.25773617 0.22460788 0.55417198
v 0.26152634 0.21545757 0.55417198
v 0.26152634 0.21545757 0.55417198
v 0.26755566 0.20760003 0.55417198
v 0.26755566 0.20760003 0.55417198
v 0.21540288 0.24756079 0.55417198
v 0.21540288 0.24756079 0.55417198
v 0.25773617 0.22460788 0.54459123
v 0.25773617 0.22460788 0.54459123
v 0.25644340 0.23442740 0.54459123
v 0.25644340 0.23442740 0.54459123
v 0.25773617 0.24424689 0.54459123
v 0.25773617 0.24424689 0.54459123
v 0.26152634 0.25339723 0.54459123
v 0.26152634 0.25339723 0.54459123
v 0.26152634 0.21545757 0.54459123
v 0.26152634 0.21545757 0.54459123
v 0.26755566 0.26125472 0.54459123
v 0.26755566 0.26125472 0.54459123
v 0.26755566 0.20760003 0.54459123
v 0.26755566 0.20760003 0.54459123
v 0.27541320 0.26728407 0.54459123
v 0.27541320 0.26728407 0.54459123
v 0.27541320 0.20157074 0.54459123
v 0.27541320 0.20157074 0.54459123
v 0.28456351 0.19778054 0.54459123
v 0.28456351 0.19778054 0.54459123
v 0.28456351 0.27107421 0.54459123
v 0.28456351 0.27107421 0.54459123
v 0.29438300 0.27236700 0.54459123
v 0.29438300 0.27236700 0.54459123
v 0.29438300 0.19648777 0.54459123
v 0.29438300 0.19648777 0.54459123
v 0.30420249 0.27107421 0.54459123
v 0.30420249 0.27107421 0.54459123
v 0.30420249 0.19778054 0.54459123
v 0.30420249 0.19778054 0.54459123
v 0.31335281 0.26728407 0.54459123
v 0.31335281 0.26728407 0.54459123
v 0.31335281 0.20157074 0.54459123
v 0.31335281 0.20157074 0.54459123
v 0.32121038 0.20760003 0.54459123
v 0.32121038 0.20760003 0.54459123
v 0.32121038 0.26125472 0.54459123
v 0.32121038 0.26125472 0.54459123
v 0.32723967 0.25339723 0.54459123
v 0.32723967 0.25339723 0.54459123
v 0.32723967 0.21545757 0.54459123
v 0.32723967 0.21545757 0.54459123
v 0.33102987 0.24424689 0.54459123
v 0.33102987 0.24424689 0.54459123
v 0.33102987 0.22460788 0.54459123
v 0.33102987 0.22460788 0.54459123
v 0.33232263 0.23442740 0.54459123
v 0.33232263 0.23442740 0.54459123
v 0.18609974 0.24756079 0.55141516
v 0.18609974 0.24756079 0.55141516
v 0.18558288 0.25148668 0.55141516
v 0.18558288 0.25148668 0.55141516
v 0.18609974 0.25541254 0.55141516
v 0.18609974 0.25541254 0.55141516
v 0.18761506 0.25907088 0.55141516
v 0.18761506 0.25907088 0.55141516
v 0.18761506 0.24390247 0.55141516
v 0.18761506 0.24390247 0.55141516
v 0.19002561 0.26221235 0.55141516
v 0.19002561 0.26221235 0.55141516
v 0.19002561 0.24076097 0.55141516
v 0.19002561 0.24076097 0.55141516
v 0.19316710 0.26462292 0.55141516
v 0.19316710 0.26462292 0.55141516
v 0.19316710 0.23835044 0.55141516
v 0.19316710 0.23835044 0.55141516
v 0.19682543 0.26613821 0.55141516
v 0.19682543 0.26613821 0.55141516
v 0.19682543 0.23683511 0.55141516
v 0.19682543 0.23683511 0.55141516
v 0.20075130 0.23631824 0.55141516
v 0.20075130 0.23631824 0.55141516
v 0.20075130 0.26665509 0.55141516
v 0.20075130 0.26665509 0.55141516
v 0.20467719 0.26613821 0.55141516
v 0.20467719 0.26613821 0.55141516
v 0.20467719 0.23683511 0.55141516
v 0.20467719 0.23683511 0.55141516
v 0.20833552 0.26462292 0.55141516
v 0.20833552 0.26462292 0.55141516
v 0.20833552 0.23835044 0.55141516
v 0.20833552 0.23835044 0.55141516
v 0.21147701 0.26221235 0.55141516
v 0.21147701 0.26221235 0.55141516
v 0.21147701 0.24076097 0.55141516
v 0.21147701 0.24076097 0.55141516
v 0.21388754 0.25907088 0.55141516
v 0.21388754 0.25907088 0.55141516
v 0.21388754 0.24390247 0.55141516
v 0.21388754 0.24390247 0.55141516
v 0.21540288 0.25541254 0.55141516
v 0.21540288 0.25541254 0.55141516
v 0.21540288 0.24756079 0.55141516
v 0.21540288 0.24756079 0.55141516
v 0.21591974 0.25148668 0.55141516
v 0.21591974 0.25148668 0.55141516
v 0.32640058 0.09258989 0.00000000
v 0.32640058 0.09258989 0.00000000
v 0.32640058 0.09258989 0.02705164
v 0.32640058 0.16593473 0.02705164
v 0.32640058 0.16593473 0.02705164
v 0.32640058 0.16593473 0.00000000
v 0.32640058 0.16593473 0.00000000
v 0.32640058 0.16593473 0.00000000
v 0.49940697 0.16593473 0.00000000
v 0.49940697 0.16593473 0.00000000
v 0.49940697 0.09258989 0.00000000
v 0.49940697 0.16593473 0.02705164
v 0.49940697 -0.15089125 0.00000000
v 0.49940697 -0.15089125 0.00000000
v 0.49940697 -0.15089125 0.00000000
v 0.32514623 -0.15089125 0.00000000
v 0.32514623 -0.15089125 0.00000000
v 0.32514623 -0.15089125 0.00000000
v 0.32514623 -0.15089125 0.02705164
v 0.32514623 -0.15089125 0.02705164
v 0.49940697 -0.15089125 0.02705164
v 0.49940697 -0.15089125 0.02705164
v 0.49940697 -0.22984627 0.02705164
v 0.49940697 -0.22984627 0.02705164
v 0.49940697 -0.22984627 0.00000000
v 0.49940697 -0.22984627 0.00000000
v 0.49940697 -0.22984627 0.00000000
v 0.32514623 -0.22984627 0.00000000
v 0.32514623 -0.22984627 0.00000000
v 0.32514623 -0.22984627 0.00000000
v 0.32514623 -0.22984627 0.02705164
v 0.32514623 -0.22984627 0.02705164
v 0.32640061 0.09258998 0.00000000
v 0.49940703 0.09258998 0.00000000
v 0.49940703 0.09258998 0.00000000
v 0.49940703 0.09258998 0.02705164
v 0.49940703 0.09258998 0.02705164
v 0.32640061 0.09258998 0.02705164
v 0.49940703 0.16593480 0.00000000
v 0.49940703 0.16593480 0.02705164
v -0.48117283 -0.24345711 0.13363352
v -0.39432908 -0.24345711 0.13363352
v -0.48117283 -0.24345711 0.17987905
v -0.48117283 -0.24345711 0.14802018
v -0.39432908 -0.24345711 0.17987905
v -0.39432908 -0.24345711 0.14802018
v -0.43388900 -0.24345711 0.13815752
v -0.42508725 -0.24345711 0.13815752
v -0.42508725 -0.24345711 0.14359729
v -0.43388900 -0.24345711 0.14359729
v -0.47321254 -0.24345711 0.13815752
v -0.46441078 -0.24345711 0.13815752
v -0.46441078 -0.24345711 0.14359729
v -0.47321254 -0.24345711 0.14359729
v -0.45972424 -0.24345711 0.13815752
v -0.45092249 -0.24345711 0.13815752
v -0.45092249 -0.24345711 0.14359729
v -0.45972424 -0.24345711 0.14359729
v -0.40717926 -0.24345711 0.13815752
v -0.39837750 -0.24345711 0.13815752
v -0.39837750 -0.24345711 0.14359729
v -0.40717926 -0.24345711 0.14359729
v -0.44748103 -0.24345711 0.13815752
v -0.43867928 -0.24345711 0.13815752
v -0.43867928 -0.24345711 0.14359729
v -0.44748103 -0.24345711 0.14359729
v -0.40814766 -0.24345711 0.16573486
v -0.40783746 -0.24345711 0.15608164
v -0.40777006 -0.24345711 0.15608344
v -0.41888885 -0.24345711 0.13815752
v -0.41008710 -0.24345711 0.13815752
v -0.41008710 -0.24345711 0.14359729
v -0.41888885 -0.24345711 0.14359729
v -0.40848545 -0.24345711 0.17436924
v -0.47024879 -0.24345711 0.17324354
v -0.46988325 -0.24345711 0.15442636
f 1 2 3
f 4 2 1
f 1 5 4
f 6 4 5
f 5 7 6
f 7 8 9
f 9 6 7
f 8 10 11
f 11 9 8
f 10 12 13
f 13 11 10
f 12 14 15
f 15 13 12
f 14 16 17
f 17 15 14
f 16 18 19
f 19 17 16
f 18 20 21
f 21 19 18
f 22 23 21
f 21 20 22
f 24 25 23
f 23 22 24
f 24 26 25
f 2 27 3
f 28 27 2
f 2 4 28
f 29 28 4
f 4 6 29
f 30 29 6
f 6 9 30
f 30 9 11
f 11 31 30
f 31 11 13
f 13 32 31
f 15 33 32
f 32 13 15
f 17 34 33
f 33 15 17
f 19 35 34
f 34 17 19
f 21 36 35
f 35 19 21
f 23 37 36
f 36 21 23
f 25 38 37
f 37 23 25
f 25 26 38
f 27 39 3
f 28 40 39
f 39 27 28
f 29 41 40
f 40 28 29
f 30 42 41
f 41 29 30
f 31 43 42
f 42 30 31
f 32 44 43
f 43 31 32
f 33 45 44
f 44 32 33
f 34 46 45
f 45 33 34
f 35 47 46
f 46 34 35
f 36 48 47
f 47 35 36
f 49 48 36
f 36 37 49
f 50 49 37
f 37 38 50
f 38 26 50
f 3 39 51
f 40 52 51
f 51 39 40
f 41 53 52
f 52 40 41
f 42 54 53
f 53 41 42
f 43 55 54
f 54 42 43
f 44 56 55
f 55 43 44
f 45 57 56
f 56 44 45
f 46 58 57
f 57 45 46
f 47 59 58
f 58 46 47
f 48 60 59
f 59 47 48
f 61 60 48
f 48 49 61
f 62 61 49
f 49 50 62
f 50 26 62
f 3 51 63
f 52 64 63
f 63 51 52
f 53 65 64
f 64 52 53
f 54 66 65
f 65 53 54
f 67 66 54
f 54 55 67
f 68 67 55
f 55 56 68
f 69 68 56
f 56 57 69
f 58 70 69
f 69 57 58
f 59 71 70
f 70 58 59
f 72 71 59
f 59 60 72
f 73 72 60
f 60 61 73
f 74 73 61
f 61 62 74
f 26 74 62
f 3 63 75
f 64 76 75
f 75 63 64
f 65 77 76
f 76 64 65
f 66 78 77
f 77 65 66
f 67 79 78
f 78 66 67
f 68 80 79
f 79 67 68
f 81 80 68
f 68 69 81
f 82 81 69
f 69 70 82
f 83 82 70
f 70 71 83
f 84 83 71
f 71 72 84
f 85 84 72
f 72 73 85
f 86 85 73
f 73 74 86
f 26 86 74
f 3 75 87
f 75 76 88
f 88 87 75
f 76 77 89
f 89 88 76
f 78 90 89
f 89 77 78
f 79 91 90
f 90 78 79
f 80 92 91
f 91 79 80
f 93 92 80
f 80 81 93
f 94 93 81
f 81 82 94
f 95 94 82
f 82 83 95
f 96 95 83
f 83 84 96
f 96 84 85
f 85 97 96
f 97 85 86
f 86 98 97
f 26 98 86
f 3 87 99
f 87 88 100
f 100 99 87
f 88 89 101
f 101 100 88
f 89 90 102
f 102 101 89
f 91 103 102
f 102 90 91
f 92 104 103
f 103 91 92
f 93 105 104
f 104 92 93
f 94 106 105
f 105 93 94
f 95 107 106
f 106 94 95
f 107 95 96
f 96 108 107
f 108 96 97
f 97 109 108
f 109 97 98
f 98 110 109
f 26 110 98
f 3 99 111
f 99 100 112
f 112 111 99
f 100 101 113
f 113 112 100
f 102 114 113
f 113 101 102
f 103 115 114
f 114 102 103
f 104 116 115
f 115 103 104
f 105 117 116
f 116 104 105
f 106 118 117
f 117 105 106
f 107 119 118
f 118 106 107
f 108 120 119
f 119 107 108
f 120 108 109
f 109 121 120
f 121 109 110
f 110 122 121
f 122 110 26
f 123 3 111
f 123 111 112
f 112 124 123
f 124 112 113
f 113 125 124
f 114 126 125
f 125 113 114
f 115 127 126
f 126 114 115
f 116 128 127
f 127 115 116
f 117 129 128
f 128 116 117
f 118 130 129
f 129 117 118
f 119 131 130
f 130 118 119
f 120 132 131
f 131 119 120
f 120 121 133
f 133 132 120
f 121 122 134
f 134 133 121
f 134 122 26
f 135 3 123
f 135 123 124
f 124 136 135
f 136 124 125
f 125 137 136
f 137 125 126
f 126 138 137
f 126 127 139
f 139 138 126
f 127 128 140
f 140 139 127
f 128 129 141
f 141 140 128
f 141 129 130
f 130 142 141
f 142 130 131
f 131 143 142
f 131 132 144
f 144 143 131
f 132 133 145
f 145 144 132
f 133 134 146
f 146 145 133
f 146 134 26
f 1 3 135
f 1 135 136
f 136 5 1
f 5 136 137
f 137 7 5
f 137 138 8
f 8 7 137
f 138 139 10
f 10 8 138
f 139 140 12
f 12 10 139
f 140 141 14
f 14 12 140
f 14 141 142
f 142 16 14
f 16 142 143
f 143 18 16
f 18 143 144
f 144 20 18
f 144 145 22
f 22 20 144
f 145 146 24
f 24 22 145
f 24 146 26
f 147 151 155
f 155 157 147
f 160 157 155
f 155 162 160
f 163 165 166
f 166 168 163
f 163 168 170
f 170 172 163
f 154 173 175
f 175 150 154
f 150 175 179
f 181 184 187
f 187 188 181
f 188 187 191
f 153 161 193
f 193 174 153
f 174 193 194
f 167 159 156
f 156 180 167
f 180 156 182
f 167 180 189
f 189 164 167
f 198 149 152
f 152 178 198
f 158 148 196
f 196 183 158
f 183 196 200
f 185 183 200
f 200 202 185
f 203 169 192
f 192 195 203
f 203 195 204
f 169 203 205
f 205 190 169
f 169 190 171
f 186 190 205
f 205 206 186
f 208 210 212
f 212 213 208
f 215 208 213
f 213 218 215
f 220 215 218
f 218 221 220
f 224 220 221
f 221 226 224
f 227 224 226
f 226 230 227
f 231 227 230
f 230 233 231
f 236 231 233
f 233 238 236
f 239 236 238
f 238 242 239
f 244 239 242
f 242 245 244
f 247 244 245
f 245 249 247
f 252 247 249
f 249 254 252
f 234 229 255
f 255 258 234
f 237 234 258
f 258 259 237
f 241 237 259
f 259 261 241
f 264 246 241
f 241 261 264
f 266 250 246
f 246 264 266
f 268 253 250
f 250 266 268
f 270 251 253
f 253 268 270
f 272 248 251
f 251 270 272
f 274 243 248
f 248 272 274
f 240 243 274
f 274 275 240
f 235 240 275
f 275 277 235
f 232 235 277
f 277 279 232
f 228 232 279
f 279 281 228
f 223 228 281
f 281 284 223
f 219 223 284
f 284 285 219
f 219 285 288
f 288 216 219
f 216 288 289
f 289 207 216
f 207 289 292
f 292 209 207
f 209 292 293
f 293 211 209
f 211 293 296
f 296 214 211
f 214 296 297
f 297 217 214
f 222 217 297
f 297 299 222
f 225 222 299
f 299 302 225
f 229 225 302
f 302 255 229
f 304 305 308
f 308 309 304
f 309 308 312
f 312 313 309
f 313 312 316
f 316 318 313
f 318 316 320
f 320 321 318
f 321 320 324
f 324 326 321
f 326 324 327
f 327 329 326
f 329 327 331
f 331 334 329
f 334 331 336
f 336 337 334
f 337 336 339
f 339 342 337
f 342 339 343
f 343 345 342
f 345 343 347
f 347 350 345
f 314 351 354
f 354 310 314
f 310 354 355
f 355 303 310
f 303 355 358
f 358 306 303
f 306 358 359
f 359 307 306
f 307 359 362
f 362 311 307
f 311 362 363
f 363 315 311
f 319 315 363
f 363 366 319
f 323 319 366
f 366 367 323
f 328 323 367
f 367 369 328
f 332 328 369
f 369 371 332
f 335 332 371
f 371 374 335
f 376 340 335
f 335 374 376
f 377 344 340
f 340 376 377
f 380 348 344
f 344 377 380
f 382 349 348
f 348 380 382
f 383 346 349
f 349 382 383
f 385 341 346
f 346 383 385
f 388 338 341
f 341 385 388
f 333 338 388
f 388 390 333
f 330 333 390
f 390 392 330
f 325 330 392
f 392 393 325
f 322 325 393
f 393 396 322
f 317 322 396
f 396 398 317
f 317 398 351
f 351 314 317
f 357 291 290
f 290 360 357
f 360 290 287
f 287 361 360
f 361 287 286
f 286 364 361
f 364 286 283
f 283 365 364
f 365 283 282
f 282 368 365
f 368 282 280
f 280 370 368
f 370 280 278
f 278 372 370
f 372 278 276
f 276 373 372
f 373 276 273
f 273 375 373
f 375 273 271
f 271 378 375
f 378 271 269
f 269 379 378
f 379 269 267
f 267 381 379
f 381 267 199
f 199 384 381
f 386 384 199
f 199 387 386
f 389 387 199
f 199 391 389
f 394 391 199
f 199 197 394
f 395 394 197
f 197 397 395
f 352 397 197
f 197 353 352
f 356 353 197
f 197 357 356
f 291 357 197
f 197 294 291
f 295 294 197
f 197 298 295
f 300 298 197
f 197 177 300
f 301 300 177
f 177 256 301
f 256 177 176
f 176 257 256
f 260 257 176
f 176 262 260
f 263 262 176
f 176 265 263
f 400 265 176
f 176 401 400
f 404 401 176
f 176 405 404
f 408 405 176
f 176 409 408
f 412 409 176
f 176 201 412
f 413 412 201
f 201 416 413
f 416 201 199
f 199 417 416
f 420 417 199
f 199 421 420
f 424 421 199
f 199 425 424
f 428 425 199
f 199 429 428
f 432 429 199
f 199 434 432
f 435 434 199
f 199 438 435
f 439 438 199
f 199 442 439
f 442 199 267
f 267 443 442
f 445 443 267
f 267 447 445
f 450 447 267
f 267 452 450
f 453 452 267
f 267 456 453
f 457 456 267
f 267 460 457
f 462 460 267
f 267 400 462
f 265 400 267
f 463 462 400
f 400 466 463
f 467 466 400
f 400 470 467
f 472 467 470
f 470 473 472
f 476 473 470
f 470 478 476
f 476 478 480
f 480 481 476
f 476 481 483
f 483 486 476
f 476 486 487
f 487 490 476
f 476 490 491
f 491 494 476
f 494 491 428
f 428 429 494
f 496 498 499
f 499 502 496
f 504 496 502
f 502 505 504
f 508 504 505
f 505 509 508
f 512 508 509
f 509 514 512
f 514 509 515
f 515 518 514
f 519 514 518
f 518 521 519
f 524 519 521
f 521 525 524
f 527 524 525
f 525 530 527
f 530 525 531
f 531 534 530
f 535 530 534
f 534 538 535
f 539 535 538
f 538 541 539
f 517 516 469
f 469 399 517
f 522 517 399
f 399 402 522
f 526 522 402
f 402 403 526
f 532 526 403
f 403 406 532
f 407 533 532
f 532 406 407
f 410 537 533
f 533 407 410
f 411 542 537
f 537 410 411
f 414 540 542
f 542 411 414
f 415 536 540
f 540 414 415
f 418 529 536
f 536 415 418
f 528 529 418
f 418 419 528
f 523 528 419
f 419 422 523
f 520 523 422
f 422 423 520
f 513 520 423
f 423 426 513
f 511 513 426
f 426 427 511
f 507 511 427
f 427 492 507
f 507 492 489
f 489 503 507
f 503 489 488
f 488 495 503
f 495 488 485
f 485 497 495
f 497 485 484
f 484 500 497
f 500 484 482
f 482 501 500
f 501 482 479
f 479 506 501
f 510 506 479
f 479 477 510
f 516 510 477
f 477 469 516
f 543 546 548
f 548 549 543
f 552 543 549
f 549 553 552
f 556 552 553
f 553 557 556
f 560 556 557
f 557 561 560
f 564 560 561
f 561 565 564
f 565 561 568
f 568 569 565
f 572 565 569
f 569 573 572
f 576 572 573
f 573 578 576
f 579 576 578
f 578 582 579
f 583 579 582
f 582 586 583
f 587 583 586
f 586 590 587
f 571 575 433
f 433 436 571
f 566 571 436
f 436 437 566
f 563 566 437
f 437 440 563
f 559 563 440
f 440 441 559
f 555 559 441
f 441 444 555
f 555 444 446
f 446 551 555
f 551 446 448
f 448 544 551
f 544 448 449
f 449 545 544
f 545 449 451
f 451 547 545
f 547 451 454
f 454 550 547
f 550 454 455
f 455 554 550
f 558 554 455
f 455 458 558
f 562 558 458
f 458 459 562
f 567 562 459
f 459 461 567
f 570 567 461
f 461 464 570
f 574 570 464
f 464 465 574
f 577 574 465
f 465 468 577
f 471 581 577
f 577 468 471
f 474 585 581
f 581 471 474
f 475 589 585
f 585 474 475
f 493 588 589
f 589 475 493
f 430 584 588
f 588 493 430
f 431 580 584
f 584 430 431
f 575 580 431
f 431 433 575
f 592 593 595
f 595 598 592
f 591 597 599
f 599 601 591
f 600 596 594
f 594 602 600
f 603 607 610
f 610 612 603
f 613 616 604
f 604 611 613
f 618 621 609
f 609 606 618
f 619 615 614
f 614 622 619
f 620 608 605
f 605 617 620
f 623 625 627
f 627 628 623
f 626 624 629
f 629 630 626
f 659 634 636
f 636 635 659
f 657 659 635
f 635 664 657
f 664 635 633
f 633 665 664
f 666 665 633
f 633 634 666
f 658 666 634
f 634 659 658
f 650 631 632
f 632 636 650
f 651 650 636
f 636 652 651
f 662 652 636
f 636 663 662
f 639 663 636
f 636 640 639
f 655 640 636
f 636 656 655
f 647 656 636
f 636 648 647
f 643 648 636
f 636 644 643
f 644 636 634
f 634 641 644
f 641 634 631
f 631 650 641
f 641 650 649
f 649 661 641
f 661 649 652
f 652 662 661
f 641 661 660
f 660 638 641
f 638 660 663
f 663 639 638
f 641 638 637
f 637 654 641
f 654 637 640
f 640 655 654
f 641 654 653
f 653 646 641
f 646 653 656
f 656 647 646
f 641 646 645
f 645 642 641
f 642 645 648
f 648 643 642

