
v -0.034957 -0.131873 0.025074
v -0.053957 -0.123597 0.028612
v -0.053957 -0.131873 0.025074
v -0.053957 -0.119000 0.030578
v -0.034957 -0.119000 0.030578
v -0.034957 -0.123597 0.028612
v 0.082043 -0.114862 0.032347
v 0.063043 -0.101989 0.037850
v 0.063043 -0.114862 0.032347
v 0.082043 -0.101989 0.037850
v -0.064957 -0.114862 0.032347
v -0.083957 -0.101989 0.037850
v -0.083957 -0.114862 0.032347
v -0.064957 -0.101989 0.037850
v 0.030043 -0.131873 0.025074
v -0.031957 -0.123597 0.028612
v -0.031957 -0.131873 0.025074
v -0.031957 -0.119000 0.030578
v 0.030043 -0.119000 0.030578
v 0.030043 -0.123597 0.028612
v 0.052043 -0.131873 0.025074
v 0.033043 -0.123597 0.028612
v 0.033043 -0.131873 0.025074
v 0.033043 -0.119000 0.030578
v 0.052043 -0.119000 0.030578
v 0.052043 -0.123597 0.028612
f 1 2 3
f 2 1 4
f 4 1 5
f 5 1 6
f 7 8 9
f 8 7 10
f 11 12 13
f 12 11 14
f 15 16 17
f 16 15 18
f 18 15 19
f 19 15 20
f 21 22 23
f 22 21 24
f 24 21 25
f 25 21 26
