
v 0.010954 -0.103871 0.038389
v 0.010955 -0.101135 0.039559
v 0.010875 -0.102520 0.038967
v 0.011191 -0.105037 0.037890
v 0.011195 -0.099949 0.040066
v 0.011586 -0.106019 0.037471
v 0.011595 -0.098963 0.040487
v 0.012138 -0.106815 0.037130
v 0.012154 -0.098176 0.040824
v 0.012859 -0.107430 0.036867
v 0.012881 -0.097575 0.041081
v 0.013104 -0.102520 0.038967
v 0.013208 -0.104442 0.038145
v 0.013760 -0.107870 0.036679
v 0.013374 -0.105175 0.037831
v 0.013664 -0.105827 0.037552
v 0.014049 -0.106329 0.037338
v 0.014840 -0.108134 0.036566
v 0.014569 -0.106701 0.037179
v 0.015246 -0.106930 0.037081
v 0.016101 -0.108222 0.036529
v 0.016101 -0.107006 0.037048
v 0.017348 -0.108136 0.036566
v 0.016931 -0.106934 0.037080
v 0.017599 -0.106715 0.037173
v 0.018421 -0.107877 0.036676
v 0.018122 -0.106353 0.037328
v 0.018516 -0.105850 0.037543
v 0.019321 -0.107445 0.036861
v 0.018787 -0.105233 0.037807
v 0.018966 -0.104472 0.038132
v 0.019097 -0.102505 0.038973
v 0.013225 -0.100589 0.039792
v 0.013780 -0.097146 0.041264
v 0.013398 -0.099808 0.040126
v 0.013675 -0.099175 0.040397
v 0.014077 -0.098671 0.040612
v 0.014854 -0.096888 0.041374
v 0.014602 -0.098309 0.040767
v 0.015270 -0.098091 0.040860
v 0.016101 -0.096802 0.041411
v 0.016101 -0.098018 0.040891
v 0.016936 -0.098091 0.040860
v 0.017361 -0.096891 0.041373
v 0.017599 -0.098309 0.040767
v 0.018441 -0.097158 0.041259
v 0.018114 -0.098667 0.040614
v 0.018505 -0.099160 0.040403
v 0.019342 -0.097602 0.041069
v 0.018785 -0.099783 0.040137
v 0.018966 -0.100545 0.039811
v 0.020047 -0.106841 0.037119
v 0.020063 -0.098224 0.040803
v 0.020606 -0.106052 0.037457
v 0.020616 -0.099025 0.040461
v 0.021006 -0.105066 0.037878
v 0.021010 -0.100005 0.040042
v 0.021246 -0.103884 0.038384
v 0.021247 -0.101165 0.039546
v 0.021326 -0.102505 0.038973
v 0.023227 -0.103871 0.038389
v 0.023228 -0.101135 0.039559
v 0.023148 -0.102520 0.038967
v 0.023464 -0.105037 0.037890
v 0.023468 -0.099949 0.040066
v 0.023858 -0.106019 0.037471
v 0.023867 -0.098963 0.040487
v 0.024410 -0.106815 0.037130
v 0.024427 -0.098176 0.040824
v 0.025131 -0.107430 0.036867
v 0.025153 -0.097575 0.041081
v 0.025376 -0.102520 0.038967
v 0.025481 -0.104442 0.038145
v 0.026032 -0.107870 0.036679
v 0.025647 -0.105175 0.037831
v 0.025936 -0.105827 0.037552
v 0.026322 -0.106329 0.037338
v 0.027113 -0.108134 0.036566
v 0.026842 -0.106701 0.037179
v 0.027518 -0.106930 0.037081
v 0.028373 -0.108222 0.036529
v 0.028373 -0.107006 0.037048
v 0.029620 -0.108136 0.036566
v 0.029203 -0.106934 0.037080
v 0.029871 -0.106715 0.037173
v 0.030693 -0.107877 0.036676
v 0.030394 -0.106353 0.037328
v 0.030788 -0.105850 0.037543
v 0.031593 -0.107445 0.036861
v 0.031060 -0.105233 0.037807
v 0.031238 -0.104472 0.038132
v 0.031370 -0.102505 0.038973
v 0.025497 -0.100589 0.039792
v 0.026053 -0.097146 0.041264
v 0.025670 -0.099808 0.040126
v 0.025947 -0.099175 0.040397
v 0.026349 -0.098671 0.040612
v 0.027126 -0.096888 0.041374
v 0.026875 -0.098309 0.040767
v 0.027543 -0.098091 0.040860
v 0.028373 -0.096802 0.041411
v 0.028373 -0.098018 0.040891
v 0.029209 -0.098091 0.040860
v 0.029633 -0.096891 0.041373
v 0.029871 -0.098309 0.040767
v 0.030714 -0.097158 0.041259
v 0.030386 -0.098667 0.040614
v 0.030777 -0.099160 0.040403
v 0.031615 -0.097602 0.041069
v 0.031057 -0.099783 0.040137
v 0.031238 -0.100545 0.039811
v 0.032319 -0.106841 0.037119
v 0.032336 -0.098224 0.040803
v 0.032879 -0.106052 0.037457
v 0.032888 -0.099025 0.040461
v 0.033278 -0.105066 0.037878
v 0.033283 -0.100005 0.040042
v 0.033518 -0.103884 0.038384
v 0.033519 -0.101165 0.039546
v 0.033598 -0.102505 0.038973
v -0.001318 -0.103871 0.038389
v -0.001317 -0.101135 0.039559
v -0.001397 -0.102520 0.038967
v -0.001081 -0.105037 0.037890
v -0.001077 -0.099949 0.040066
v -0.000687 -0.106019 0.037471
v -0.000678 -0.098963 0.040487
v -0.000135 -0.106815 0.037130
v -0.000118 -0.098176 0.040824
v 0.000586 -0.107430 0.036867
v 0.000608 -0.097575 0.041081
v 0.000831 -0.102520 0.038967
v 0.000936 -0.104442 0.038145
v 0.001487 -0.107870 0.036679
v 0.001102 -0.105175 0.037831
v 0.001391 -0.105827 0.037552
v 0.001777 -0.106329 0.037338
v 0.002568 -0.108134 0.036566
v 0.002297 -0.106701 0.037179
v 0.002973 -0.106930 0.037081
v 0.003828 -0.108222 0.036529
v 0.003828 -0.107006 0.037048
v 0.005075 -0.108136 0.036566
v 0.004658 -0.106934 0.037080
v 0.005327 -0.106715 0.037173
v 0.006148 -0.107877 0.036676
v 0.005849 -0.106353 0.037328
v 0.006243 -0.105850 0.037543
v 0.007048 -0.107445 0.036861
v 0.006515 -0.105233 0.037807
v 0.006693 -0.104472 0.038132
v 0.006825 -0.102505 0.038973
v 0.000952 -0.100589 0.039792
v 0.001508 -0.097146 0.041264
v 0.001125 -0.099808 0.040126
v 0.001402 -0.099175 0.040397
v 0.001804 -0.098671 0.040612
v 0.002581 -0.096888 0.041374
v 0.002330 -0.098309 0.040767
v 0.002998 -0.098091 0.040860
v 0.003828 -0.096802 0.041411
v 0.003828 -0.098018 0.040891
v 0.004664 -0.098091 0.040860
v 0.005088 -0.096891 0.041373
v 0.005327 -0.098309 0.040767
v 0.006169 -0.097158 0.041259
v 0.005841 -0.098667 0.040614
v 0.006232 -0.099160 0.040403
v 0.007070 -0.097602 0.041069
v 0.006512 -0.099783 0.040137
v 0.006693 -0.100545 0.039811
v 0.007774 -0.106841 0.037119
v 0.007791 -0.098224 0.040803
v 0.008334 -0.106052 0.037457
v 0.008343 -0.099025 0.040461
v 0.008734 -0.105066 0.037878
v 0.008738 -0.100005 0.040042
v 0.008973 -0.103884 0.038384
v 0.008974 -0.101165 0.039546
v 0.009053 -0.102505 0.038973
v -0.013590 -0.103871 0.038389
v -0.013589 -0.101135 0.039559
v -0.013669 -0.102520 0.038967
v -0.013354 -0.105037 0.037890
v -0.013350 -0.099949 0.040066
v -0.012959 -0.106019 0.037471
v -0.012950 -0.098963 0.040487
v -0.012407 -0.106815 0.037130
v -0.012391 -0.098176 0.040824
v -0.011686 -0.107430 0.036867
v -0.011664 -0.097575 0.041081
v -0.011441 -0.102520 0.038967
v -0.011337 -0.104442 0.038145
v -0.010785 -0.107870 0.036679
v -0.011171 -0.105175 0.037831
v -0.010881 -0.105827 0.037552
v -0.010496 -0.106329 0.037338
v -0.009705 -0.108134 0.036566
v -0.009976 -0.106701 0.037179
v -0.009299 -0.106930 0.037081
v -0.008444 -0.108222 0.036529
v -0.008444 -0.107006 0.037048
v -0.007197 -0.108136 0.036566
v -0.007614 -0.106934 0.037080
v -0.006946 -0.106715 0.037173
v -0.006124 -0.107877 0.036676
v -0.006423 -0.106353 0.037328
v -0.006029 -0.105850 0.037543
v -0.005224 -0.107445 0.036861
v -0.005758 -0.105233 0.037807
v -0.005579 -0.104472 0.038132
v -0.005448 -0.102505 0.038973
v -0.011320 -0.100589 0.039792
v -0.010765 -0.097146 0.041264
v -0.011147 -0.099808 0.040126
v -0.010870 -0.099175 0.040397
v -0.010468 -0.098671 0.040612
v -0.009691 -0.096888 0.041374
v -0.009943 -0.098309 0.040767
v -0.009274 -0.098091 0.040860
v -0.008444 -0.096802 0.041411
v -0.008444 -0.098018 0.040891
v -0.007609 -0.098091 0.040860
v -0.007184 -0.096891 0.041373
v -0.006946 -0.098309 0.040767
v -0.006103 -0.097158 0.041259
v -0.006431 -0.098667 0.040614
v -0.006040 -0.099160 0.040403
v -0.005203 -0.097602 0.041069
v -0.005760 -0.099783 0.040137
v -0.005579 -0.100545 0.039811
v -0.004498 -0.106841 0.037119
v -0.004482 -0.098224 0.040803
v -0.003938 -0.106052 0.037457
v -0.003929 -0.099025 0.040461
v -0.003539 -0.105066 0.037878
v -0.003535 -0.100005 0.040042
v -0.003299 -0.103884 0.038384
v -0.003298 -0.101165 0.039546
v -0.003219 -0.102505 0.038973
v -0.016677 -0.107994 0.036626
v -0.019301 -0.105894 0.037524
v -0.019301 -0.107994 0.036626
v -0.016677 -0.105894 0.037524
v -0.032669 -0.103871 0.038389
v -0.032668 -0.101135 0.039559
v -0.032748 -0.102520 0.038967
v -0.032432 -0.105037 0.037890
v -0.032428 -0.099949 0.040066
v -0.032038 -0.106019 0.037471
v -0.032028 -0.098963 0.040487
v -0.031485 -0.106815 0.037130
v -0.031469 -0.098176 0.040824
v -0.030764 -0.107430 0.036867
v -0.030743 -0.097575 0.041081
v -0.030519 -0.102520 0.038967
v -0.030415 -0.104442 0.038145
v -0.029863 -0.107870 0.036679
v -0.030249 -0.105175 0.037831
v -0.029959 -0.105827 0.037552
v -0.029574 -0.106329 0.037338
v -0.028783 -0.108134 0.036566
v -0.029054 -0.106701 0.037179
v -0.028377 -0.106930 0.037081
v -0.027523 -0.108222 0.036529
v -0.027523 -0.107006 0.037048
v -0.026276 -0.108136 0.036566
v -0.026692 -0.106934 0.037080
v -0.026024 -0.106715 0.037173
v -0.025202 -0.107877 0.036676
v -0.025501 -0.106353 0.037328
v -0.025108 -0.105850 0.037543
v -0.024302 -0.107445 0.036861
v -0.024836 -0.105233 0.037807
v -0.024658 -0.104472 0.038132
v -0.024526 -0.102505 0.038973
v -0.030399 -0.100589 0.039792
v -0.029843 -0.097146 0.041264
v -0.030226 -0.099808 0.040126
v -0.029949 -0.099175 0.040397
v -0.029546 -0.098671 0.040612
v -0.028769 -0.096888 0.041374
v -0.029021 -0.098309 0.040767
v -0.028353 -0.098091 0.040860
v -0.027523 -0.096802 0.041411
v -0.027523 -0.098018 0.040891
v -0.026687 -0.098091 0.040860
v -0.026262 -0.096891 0.041373
v -0.026024 -0.098309 0.040767
v -0.025182 -0.097158 0.041259
v -0.025510 -0.098667 0.040614
v -0.025119 -0.099160 0.040403
v -0.024281 -0.097602 0.041069
v -0.024839 -0.099783 0.040137
v -0.024658 -0.100545 0.039811
v -0.023576 -0.106841 0.037119
v -0.023560 -0.098224 0.040803
v -0.023017 -0.106052 0.037457
v -0.023008 -0.099025 0.040461
v -0.022617 -0.105066 0.037878
v -0.022613 -0.100005 0.040042
v -0.022377 -0.103884 0.038384
v -0.022376 -0.101165 0.039546
v -0.022297 -0.102505 0.038973
f 1 2 3
f 2 1 4
f 2 4 5
f 5 4 6
f 5 6 7
f 7 6 8
f 7 8 9
f 9 8 10
f 9 10 11
f 11 10 12
f 12 10 13
f 13 10 14
f 13 14 15
f 15 14 16
f 16 14 17
f 17 14 18
f 17 18 19
f 19 18 20
f 20 18 21
f 20 21 22
f 22 21 23
f 22 23 24
f 24 23 25
f 25 23 26
f 25 26 27
f 27 26 28
f 28 26 29
f 28 29 30
f 30 29 31
f 31 29 32
f 11 33 34
f 33 11 12
f 34 33 35
f 34 35 36
f 34 36 37
f 34 37 38
f 38 37 39
f 38 39 40
f 38 40 41
f 41 40 42
f 41 42 43
f 41 43 44
f 44 43 45
f 44 45 46
f 46 45 47
f 46 47 48
f 46 48 49
f 49 48 50
f 49 50 51
f 49 51 32
f 49 32 29
f 49 29 52
f 49 52 53
f 53 52 54
f 53 54 55
f 55 54 56
f 55 56 57
f 57 56 58
f 57 58 59
f 59 58 60
f 61 62 63
f 62 61 64
f 62 64 65
f 65 64 66
f 65 66 67
f 67 66 68
f 67 68 69
f 69 68 70
f 69 70 71
f 71 70 72
f 72 70 73
f 73 70 74
f 73 74 75
f 75 74 76
f 76 74 77
f 77 74 78
f 77 78 79
f 79 78 80
f 80 78 81
f 80 81 82
f 82 81 83
f 82 83 84
f 84 83 85
f 85 83 86
f 85 86 87
f 87 86 88
f 88 86 89
f 88 89 90
f 90 89 91
f 91 89 92
f 71 93 94
f 93 71 72
f 94 93 95
f 94 95 96
f 94 96 97
f 94 97 98
f 98 97 99
f 98 99 100
f 98 100 101
f 101 100 102
f 101 102 103
f 101 103 104
f 104 103 105
f 104 105 106
f 106 105 107
f 106 107 108
f 106 108 109
f 109 108 110
f 109 110 111
f 109 111 92
f 109 92 89
f 109 89 112
f 109 112 113
f 113 112 114
f 113 114 115
f 115 114 116
f 115 116 117
f 117 116 118
f 117 118 119
f 119 118 120
f 121 122 123
f 122 121 124
f 122 124 125
f 125 124 126
f 125 126 127
f 127 126 128
f 127 128 129
f 129 128 130
f 129 130 131
f 131 130 132
f 132 130 133
f 133 130 134
f 133 134 135
f 135 134 136
f 136 134 137
f 137 134 138
f 137 138 139
f 139 138 140
f 140 138 141
f 140 141 142
f 142 141 143
f 142 143 144
f 144 143 145
f 145 143 146
f 145 146 147
f 147 146 148
f 148 146 149
f 148 149 150
f 150 149 151
f 151 149 152
f 131 153 154
f 153 131 132
f 154 153 155
f 154 155 156
f 154 156 157
f 154 157 158
f 158 157 159
f 158 159 160
f 158 160 161
f 161 160 162
f 161 162 163
f 161 163 164
f 164 163 165
f 164 165 166
f 166 165 167
f 166 167 168
f 166 168 169
f 169 168 170
f 169 170 171
f 169 171 152
f 169 152 149
f 169 149 172
f 169 172 173
f 173 172 174
f 173 174 175
f 175 174 176
f 175 176 177
f 177 176 178
f 177 178 179
f 179 178 180
f 181 182 183
f 182 181 184
f 182 184 185
f 185 184 186
f 185 186 187
f 187 186 188
f 187 188 189
f 189 188 190
f 189 190 191
f 191 190 192
f 192 190 193
f 193 190 194
f 193 194 195
f 195 194 196
f 196 194 197
f 197 194 198
f 197 198 199
f 199 198 200
f 200 198 201
f 200 201 202
f 202 201 203
f 202 203 204
f 204 203 205
f 205 203 206
f 205 206 207
f 207 206 208
f 208 206 209
f 208 209 210
f 210 209 211
f 211 209 212
f 191 213 214
f 213 191 192
f 214 213 215
f 214 215 216
f 214 216 217
f 214 217 218
f 218 217 219
f 218 219 220
f 218 220 221
f 221 220 222
f 221 222 223
f 221 223 224
f 224 223 225
f 224 225 226
f 226 225 227
f 226 227 228
f 226 228 229
f 229 228 230
f 229 230 231
f 229 231 212
f 229 212 209
f 229 209 232
f 229 232 233
f 233 232 234
f 233 234 235
f 235 234 236
f 235 236 237
f 237 236 238
f 237 238 239
f 239 238 240
f 241 242 243
f 242 241 244
f 245 246 247
f 246 245 248
f 246 248 249
f 249 248 250
f 249 250 251
f 251 250 252
f 251 252 253
f 253 252 254
f 253 254 255
f 255 254 256
f 256 254 257
f 257 254 258
f 257 258 259
f 259 258 260
f 260 258 261
f 261 258 262
f 261 262 263
f 263 262 264
f 264 262 265
f 264 265 266
f 266 265 267
f 266 267 268
f 268 267 269
f 269 267 270
f 269 270 271
f 271 270 272
f 272 270 273
f 272 273 274
f 274 273 275
f 275 273 276
f 255 277 278
f 277 255 256
f 278 277 279
f 278 279 280
f 278 280 281
f 278 281 282
f 282 281 283
f 282 283 284
f 282 284 285
f 285 284 286
f 285 286 287
f 285 287 288
f 288 287 289
f 288 289 290
f 290 289 291
f 290 291 292
f 290 292 293
f 293 292 294
f 293 294 295
f 293 295 276
f 293 276 273
f 293 273 296
f 293 296 297
f 297 296 298
f 297 298 299
f 299 298 300
f 299 300 301
f 301 300 302
f 301 302 303
f 303 302 304
