
v -0.054957 -0.113483 0.032936
v -0.030764 -0.106945 0.035732
v -0.054957 -0.091875 0.042174
v -0.029863 -0.107385 0.035544
v -0.028783 -0.107648 0.035431
v 0.053043 -0.113483 0.032936
v -0.031485 -0.106329 0.035995
v -0.032038 -0.105533 0.036335
v -0.032432 -0.104552 0.036755
v -0.032669 -0.103385 0.037253
v -0.032748 -0.102034 0.037831
v -0.027523 -0.107736 0.035393
v -0.026276 -0.107650 0.035430
v -0.025202 -0.107391 0.035541
v -0.019301 -0.107508 0.035491
v -0.024302 -0.106959 0.035725
v -0.023576 -0.106355 0.035984
v -0.023017 -0.105566 0.036321
v -0.022617 -0.104580 0.036742
v -0.022377 -0.103398 0.037248
v -0.022297 -0.102019 0.037837
v -0.016677 -0.107508 0.035491
v -0.009705 -0.107648 0.035431
v -0.010785 -0.107385 0.035544
v -0.016677 -0.105408 0.036389
v -0.011686 -0.106945 0.035732
v -0.012407 -0.106329 0.035995
v -0.012959 -0.105533 0.036335
v -0.013354 -0.104552 0.036755
v -0.013590 -0.103385 0.037253
v -0.013669 -0.102034 0.037831
v -0.008444 -0.107736 0.035393
v -0.007197 -0.107650 0.035430
v -0.006124 -0.107391 0.035541
v -0.005224 -0.106959 0.035725
v 0.002568 -0.107648 0.035431
v -0.004498 -0.106355 0.035984
v 0.001487 -0.107385 0.035544
v -0.003938 -0.105566 0.036321
v 0.000586 -0.106945 0.035732
v -0.003539 -0.104580 0.036742
v -0.000135 -0.106329 0.035995
v -0.003299 -0.103398 0.037248
v -0.003219 -0.102019 0.037837
v -0.000687 -0.105533 0.036335
v -0.001081 -0.104552 0.036755
v -0.001318 -0.103385 0.037253
v -0.001397 -0.102034 0.037831
v 0.003828 -0.107736 0.035393
v 0.005075 -0.107650 0.035430
v 0.006148 -0.107391 0.035541
v 0.007048 -0.106959 0.035725
v 0.014840 -0.107648 0.035431
v 0.007774 -0.106355 0.035984
v 0.013760 -0.107385 0.035544
v 0.008334 -0.105566 0.036321
v 0.012859 -0.106945 0.035732
v 0.008734 -0.104580 0.036742
v 0.012138 -0.106329 0.035995
v 0.008973 -0.103398 0.037248
v 0.009053 -0.102019 0.037837
v 0.011586 -0.105533 0.036335
v 0.011191 -0.104552 0.036755
v 0.010954 -0.103385 0.037253
v 0.010875 -0.102034 0.037831
v 0.016101 -0.107736 0.035393
v 0.017348 -0.107650 0.035430
v 0.018421 -0.107391 0.035541
v 0.019321 -0.106959 0.035725
v 0.020047 -0.106355 0.035984
v 0.027113 -0.107648 0.035431
v 0.026032 -0.107385 0.035544
v 0.020606 -0.105566 0.036321
v 0.025131 -0.106945 0.035732
v 0.021006 -0.104580 0.036742
v 0.024410 -0.106329 0.035995
v 0.021246 -0.103398 0.037248
v 0.021326 -0.102019 0.037837
v 0.023858 -0.105533 0.036335
v 0.023464 -0.104552 0.036755
v 0.023227 -0.103385 0.037253
v 0.023148 -0.102034 0.037831
v 0.028373 -0.107736 0.035393
v 0.029620 -0.107650 0.035430
v 0.030693 -0.107391 0.035541
v 0.031593 -0.106959 0.035725
v 0.032319 -0.106355 0.035984
v 0.032879 -0.105566 0.036321
v 0.033278 -0.104580 0.036742
v 0.033518 -0.103398 0.037248
v 0.033598 -0.102019 0.037837
v -0.027523 -0.096317 0.040275
v 0.053043 -0.091875 0.042174
v -0.028769 -0.096403 0.040239
v -0.029843 -0.096660 0.040129
v -0.030743 -0.097090 0.039945
v -0.031469 -0.097691 0.039688
v -0.032028 -0.098478 0.039352
v -0.032428 -0.099464 0.038930
v -0.032668 -0.100649 0.038423
v -0.026262 -0.096406 0.040237
v -0.025182 -0.096672 0.040123
v -0.024281 -0.097117 0.039933
v -0.009691 -0.096403 0.040239
v -0.023560 -0.097739 0.039667
v -0.023008 -0.098540 0.039325
v -0.010765 -0.096660 0.040129
v -0.022613 -0.099520 0.038906
v -0.022376 -0.100680 0.038410
v -0.011664 -0.097090 0.039945
v -0.012391 -0.097691 0.039688
v -0.019301 -0.105408 0.036389
v -0.012950 -0.098478 0.039352
v -0.013350 -0.099464 0.038930
v -0.013589 -0.100649 0.038423
v -0.008444 -0.096317 0.040275
v -0.007184 -0.096406 0.040237
v -0.006103 -0.096672 0.040123
v 0.002581 -0.096403 0.040239
v -0.005203 -0.097117 0.039933
v -0.004482 -0.097739 0.039667
v 0.001508 -0.096660 0.040129
v -0.003929 -0.098540 0.039325
v 0.000608 -0.097090 0.039945
v -0.003535 -0.099520 0.038906
v -0.000118 -0.097691 0.039688
v -0.003298 -0.100680 0.038410
v -0.000678 -0.098478 0.039352
v -0.001077 -0.099464 0.038930
v -0.001317 -0.100649 0.038423
v 0.003828 -0.096317 0.040275
v 0.005088 -0.096406 0.040237
v 0.006169 -0.096672 0.040123
v 0.007070 -0.097117 0.039933
v 0.014854 -0.096403 0.040239
v 0.007791 -0.097739 0.039667
v 0.013780 -0.096660 0.040129
v 0.008343 -0.098540 0.039325
v 0.012881 -0.097090 0.039945
v 0.008738 -0.099520 0.038906
v 0.012154 -0.097691 0.039688
v 0.008974 -0.100680 0.038410
v 0.011595 -0.098478 0.039352
v 0.011195 -0.099464 0.038930
v 0.010955 -0.100649 0.038423
v 0.016101 -0.096317 0.040275
v 0.017361 -0.096406 0.040237
v 0.018441 -0.096672 0.040123
v 0.019342 -0.097117 0.039933
v 0.027126 -0.096403 0.040239
v 0.020063 -0.097739 0.039667
v 0.026053 -0.096660 0.040129
v 0.020616 -0.098540 0.039325
v 0.025153 -0.097090 0.039945
v 0.021010 -0.099520 0.038906
v 0.024427 -0.097691 0.039688
v 0.021247 -0.100680 0.038410
v 0.023867 -0.098478 0.039352
v 0.023468 -0.099464 0.038930
v 0.023228 -0.100649 0.038423
v 0.028373 -0.096317 0.040275
v 0.029633 -0.096406 0.040237
v 0.030714 -0.096672 0.040123
v 0.031615 -0.097117 0.039933
v 0.032336 -0.097739 0.039667
v 0.032888 -0.098540 0.039325
v 0.033283 -0.099520 0.038906
v 0.033519 -0.100680 0.038410
v 0.023227 -0.103385 0.037253
v 0.023228 -0.100649 0.038423
v 0.023148 -0.102034 0.037831
v 0.023464 -0.104552 0.036755
v 0.023468 -0.099464 0.038930
v 0.023858 -0.105533 0.036335
v 0.023867 -0.098478 0.039352
v 0.024410 -0.106329 0.035995
v 0.024427 -0.097691 0.039688
v 0.025131 -0.106945 0.035732
v 0.025153 -0.097090 0.039945
v 0.025376 -0.102034 0.037831
v 0.025481 -0.103957 0.037009
v 0.026032 -0.107385 0.035544
v 0.025647 -0.104690 0.036696
v 0.025936 -0.105342 0.036417
v 0.026322 -0.105844 0.036202
v 0.027113 -0.107648 0.035431
v 0.026842 -0.106215 0.036044
v 0.027518 -0.106444 0.035946
v 0.028373 -0.107736 0.035393
v 0.028373 -0.106521 0.035913
v 0.029620 -0.107650 0.035430
v 0.029203 -0.106448 0.035944
v 0.029871 -0.106230 0.036037
v 0.030693 -0.107391 0.035541
v 0.030394 -0.105868 0.036192
v 0.030788 -0.105364 0.036407
v 0.031593 -0.106959 0.035725
v 0.031060 -0.104747 0.036671
v 0.031238 -0.103986 0.036996
v 0.031370 -0.102019 0.037837
v 0.025497 -0.100104 0.038656
v 0.026053 -0.096660 0.040129
v 0.025670 -0.099323 0.038990
v 0.025947 -0.098689 0.039261
v 0.026349 -0.098185 0.039477
v 0.027126 -0.096403 0.040239
v 0.026875 -0.097824 0.039631
v 0.027543 -0.097605 0.039725
v 0.028373 -0.096317 0.040275
v 0.028373 -0.097532 0.039756
v 0.029209 -0.097605 0.039725
v 0.029633 -0.096406 0.040237
v 0.029871 -0.097824 0.039631
v 0.030714 -0.096672 0.040123
v 0.030386 -0.098182 0.039478
v 0.030777 -0.098674 0.039267
v 0.031615 -0.097117 0.039933
v 0.031057 -0.099297 0.039001
v 0.031238 -0.100060 0.038675
v 0.032319 -0.106355 0.035984
v 0.032336 -0.097739 0.039667
v 0.032879 -0.105566 0.036321
v 0.032888 -0.098540 0.039325
v 0.033278 -0.104580 0.036742
v 0.033283 -0.099520 0.038906
v 0.033518 -0.103398 0.037248
v 0.033519 -0.100680 0.038410
v 0.033598 -0.102019 0.037837
v 0.010954 -0.103385 0.037253
v 0.010955 -0.100649 0.038423
v 0.010875 -0.102034 0.037831
v 0.011191 -0.104552 0.036755
v 0.011195 -0.099464 0.038930
v 0.011586 -0.105533 0.036335
v 0.011595 -0.098478 0.039352
v 0.012138 -0.106329 0.035995
v 0.012154 -0.097691 0.039688
v 0.012859 -0.106945 0.035732
v 0.012881 -0.097090 0.039945
v 0.013104 -0.102034 0.037831
v 0.013208 -0.103957 0.037009
v 0.013760 -0.107385 0.035544
v 0.013374 -0.104690 0.036696
v 0.013664 -0.105342 0.036417
v 0.014049 -0.105844 0.036202
v 0.014840 -0.107648 0.035431
v 0.014569 -0.106215 0.036044
v 0.015246 -0.106444 0.035946
v 0.016101 -0.107736 0.035393
v 0.016101 -0.106521 0.035913
v 0.017348 -0.107650 0.035430
v 0.016931 -0.106448 0.035944
v 0.017599 -0.106230 0.036037
v 0.018421 -0.107391 0.035541
v 0.018122 -0.105868 0.036192
v 0.018516 -0.105364 0.036407
v 0.019321 -0.106959 0.035725
v 0.018787 -0.104747 0.036671
v 0.018966 -0.103986 0.036996
v 0.019097 -0.102019 0.037837
v 0.013225 -0.100104 0.038656
v 0.013780 -0.096660 0.040129
v 0.013398 -0.099323 0.038990
v 0.013675 -0.098689 0.039261
v 0.014077 -0.098185 0.039477
v 0.014854 -0.096403 0.040239
v 0.014602 -0.097824 0.039631
v 0.015270 -0.097605 0.039725
v 0.016101 -0.096317 0.040275
v 0.016101 -0.097532 0.039756
v 0.016936 -0.097605 0.039725
v 0.017361 -0.096406 0.040237
v 0.017599 -0.097824 0.039631
v 0.018441 -0.096672 0.040123
v 0.018114 -0.098182 0.039478
v 0.018505 -0.098674 0.039267
v 0.019342 -0.097117 0.039933
v 0.018785 -0.099297 0.039001
v 0.018966 -0.100060 0.038675
v 0.020047 -0.106355 0.035984
v 0.020063 -0.097739 0.039667
v 0.020606 -0.105566 0.036321
v 0.020616 -0.098540 0.039325
v 0.021006 -0.104580 0.036742
v 0.021010 -0.099520 0.038906
v 0.021246 -0.103398 0.037248
v 0.021247 -0.100680 0.038410
v 0.021326 -0.102019 0.037837
v -0.001318 -0.103385 0.037253
v -0.001317 -0.100649 0.038423
v -0.001397 -0.102034 0.037831
v -0.001081 -0.104552 0.036755
v -0.001077 -0.099464 0.038930
v -0.000687 -0.105533 0.036335
v -0.000678 -0.098478 0.039352
v -0.000135 -0.106329 0.035995
v -0.000118 -0.097691 0.039688
v 0.000586 -0.106945 0.035732
v 0.000608 -0.097090 0.039945
v 0.000831 -0.102034 0.037831
v 0.000936 -0.103957 0.037009
v 0.001487 -0.107385 0.035544
v 0.001102 -0.104690 0.036696
v 0.001391 -0.105342 0.036417
v 0.001777 -0.105844 0.036202
v 0.002568 -0.107648 0.035431
v 0.002297 -0.106215 0.036044
v 0.002973 -0.106444 0.035946
v 0.003828 -0.107736 0.035393
v 0.003828 -0.106521 0.035913
v 0.005075 -0.107650 0.035430
v 0.004658 -0.106448 0.035944
v 0.005327 -0.106230 0.036037
v 0.006148 -0.107391 0.035541
v 0.005849 -0.105868 0.036192
v 0.006243 -0.105364 0.036407
v 0.007048 -0.106959 0.035725
v 0.006515 -0.104747 0.036671
v 0.006693 -0.103986 0.036996
v 0.006825 -0.102019 0.037837
v 0.000952 -0.100104 0.038656
v 0.001508 -0.096660 0.040129
v 0.001125 -0.099323 0.038990
v 0.001402 -0.098689 0.039261
v 0.001804 -0.098185 0.039477
v 0.002581 -0.096403 0.040239
v 0.002330 -0.097824 0.039631
v 0.002998 -0.097605 0.039725
v 0.003828 -0.096317 0.040275
v 0.003828 -0.097532 0.039756
v 0.004664 -0.097605 0.039725
v 0.005088 -0.096406 0.040237
v 0.005327 -0.097824 0.039631
v 0.006169 -0.096672 0.040123
v 0.005841 -0.098182 0.039478
v 0.006232 -0.098674 0.039267
v 0.007070 -0.097117 0.039933
v 0.006512 -0.099297 0.039001
v 0.006693 -0.100060 0.038675
v 0.007774 -0.106355 0.035984
v 0.007791 -0.097739 0.039667
v 0.008334 -0.105566 0.036321
v 0.008343 -0.098540 0.039325
v 0.008734 -0.104580 0.036742
v 0.008738 -0.099520 0.038906
v 0.008973 -0.103398 0.037248
v 0.008974 -0.100680 0.038410
v 0.009053 -0.102019 0.037837
v -0.013590 -0.103385 0.037253
v -0.013589 -0.100649 0.038423
v -0.013669 -0.102034 0.037831
v -0.013354 -0.104552 0.036755
v -0.013350 -0.099464 0.038930
v -0.012959 -0.105533 0.036335
v -0.012950 -0.098478 0.039352
v -0.012407 -0.106329 0.035995
v -0.012391 -0.097691 0.039688
v -0.011686 -0.106945 0.035732
v -0.011664 -0.097090 0.039945
v -0.011441 -0.102034 0.037831
v -0.011337 -0.103957 0.037009
v -0.010785 -0.107385 0.035544
v -0.011171 -0.104690 0.036696
v -0.010881 -0.105342 0.036417
v -0.010496 -0.105844 0.036202
v -0.009705 -0.107648 0.035431
v -0.009976 -0.106215 0.036044
v -0.009299 -0.106444 0.035946
v -0.008444 -0.107736 0.035393
v -0.008444 -0.106521 0.035913
v -0.007197 -0.107650 0.035430
v -0.007614 -0.106448 0.035944
v -0.006946 -0.106230 0.036037
v -0.006124 -0.107391 0.035541
v -0.006423 -0.105868 0.036192
v -0.006029 -0.105364 0.036407
v -0.005224 -0.106959 0.035725
v -0.005758 -0.104747 0.036671
v -0.005579 -0.103986 0.036996
v -0.005448 -0.102019 0.037837
v -0.011320 -0.100104 0.038656
v -0.010765 -0.096660 0.040129
v -0.011147 -0.099323 0.038990
v -0.010870 -0.098689 0.039261
v -0.010468 -0.098185 0.039477
v -0.009691 -0.096403 0.040239
v -0.009943 -0.097824 0.039631
v -0.009274 -0.097605 0.039725
v -0.008444 -0.096317 0.040275
v -0.008444 -0.097532 0.039756
v -0.007609 -0.097605 0.039725
v -0.007184 -0.096406 0.040237
v -0.006946 -0.097824 0.039631
v -0.006103 -0.096672 0.040123
v -0.006431 -0.098182 0.039478
v -0.006040 -0.098674 0.039267
v -0.005203 -0.097117 0.039933
v -0.005760 -0.099297 0.039001
v -0.005579 -0.100060 0.038675
v -0.004498 -0.106355 0.035984
v -0.004482 -0.097739 0.039667
v -0.003938 -0.105566 0.036321
v -0.003929 -0.098540 0.039325
v -0.003539 -0.104580 0.036742
v -0.003535 -0.099520 0.038906
v -0.003299 -0.103398 0.037248
v -0.003298 -0.100680 0.038410
v -0.003219 -0.102019 0.037837
v -0.016677 -0.107508 0.035491
v -0.019301 -0.105408 0.036389
v -0.019301 -0.107508 0.035491
v -0.016677 -0.105408 0.036389
v -0.032669 -0.103385 0.037253
v -0.032668 -0.100649 0.038423
v -0.032748 -0.102034 0.037831
v -0.032432 -0.104552 0.036755
v -0.032428 -0.099464 0.038930
v -0.032038 -0.105533 0.036335
v -0.032028 -0.098478 0.039352
v -0.031485 -0.106329 0.035995
v -0.031469 -0.097691 0.039688
v -0.030764 -0.106945 0.035732
v -0.030743 -0.097090 0.039945
v -0.030519 -0.102034 0.037831
v -0.030415 -0.103957 0.037009
v -0.029863 -0.107385 0.035544
v -0.030249 -0.104690 0.036696
v -0.029959 -0.105342 0.036417
v -0.029574 -0.105844 0.036202
v -0.028783 -0.107648 0.035431
v -0.029054 -0.106215 0.036044
v -0.028377 -0.106444 0.035946
v -0.027523 -0.107736 0.035393
v -0.027523 -0.106521 0.035913
v -0.026276 -0.107650 0.035430
v -0.026692 -0.106448 0.035944
v -0.026024 -0.106230 0.036037
v -0.025202 -0.107391 0.035541
v -0.025501 -0.105868 0.036192
v -0.025108 -0.105364 0.036407
v -0.024302 -0.106959 0.035725
v -0.024836 -0.104747 0.036671
v -0.024658 -0.103986 0.036996
v -0.024526 -0.102019 0.037837
v -0.030399 -0.100104 0.038656
v -0.029843 -0.096660 0.040129
v -0.030226 -0.099323 0.038990
v -0.029949 -0.098689 0.039261
v -0.029546 -0.098185 0.039477
v -0.028769 -0.096403 0.040239
v -0.029021 -0.097824 0.039631
v -0.028353 -0.097605 0.039725
v -0.027523 -0.096317 0.040275
v -0.027523 -0.097532 0.039756
v -0.026687 -0.097605 0.039725
v -0.026262 -0.096406 0.040237
v -0.026024 -0.097824 0.039631
v -0.025182 -0.096672 0.040123
v -0.025510 -0.098182 0.039478
v -0.025119 -0.098674 0.039267
v -0.024281 -0.097117 0.039933
v -0.024839 -0.099297 0.039001
v -0.024658 -0.100060 0.038675
v -0.023576 -0.106355 0.035984
v -0.023560 -0.097739 0.039667
v -0.023017 -0.105566 0.036321
v -0.023008 -0.098540 0.039325
v -0.022617 -0.104580 0.036742
v -0.022613 -0.099520 0.038906
v -0.022377 -0.103398 0.037248
v -0.022376 -0.100680 0.038410
v -0.022297 -0.102019 0.037837
f 1 2 3
f 2 1 4
f 4 1 5
f 5 1 6
f 3 2 7
f 3 7 8
f 3 8 9
f 3 9 10
f 3 10 11
f 5 6 12
f 12 6 13
f 13 6 14
f 14 6 15
f 14 15 16
f 16 15 17
f 17 15 18
f 18 15 19
f 19 15 20
f 20 15 21
f 15 6 22
f 22 6 23
f 22 23 24
f 22 24 25
f 25 24 26
f 25 26 27
f 25 27 28
f 25 28 29
f 25 29 30
f 25 30 31
f 23 6 32
f 32 6 33
f 33 6 34
f 34 6 35
f 35 6 36
f 35 36 37
f 37 36 38
f 37 38 39
f 39 38 40
f 39 40 41
f 41 40 42
f 41 42 43
f 43 42 44
f 44 42 45
f 44 45 46
f 44 46 47
f 44 47 48
f 36 6 49
f 49 6 50
f 50 6 51
f 51 6 52
f 52 6 53
f 52 53 54
f 54 53 55
f 54 55 56
f 56 55 57
f 56 57 58
f 58 57 59
f 58 59 60
f 60 59 61
f 61 59 62
f 61 62 63
f 61 63 64
f 61 64 65
f 53 6 66
f 66 6 67
f 67 6 68
f 68 6 69
f 69 6 70
f 70 6 71
f 70 71 72
f 70 72 73
f 73 72 74
f 73 74 75
f 75 74 76
f 75 76 77
f 77 76 78
f 78 76 79
f 78 79 80
f 78 80 81
f 78 81 82
f 71 6 83
f 83 6 84
f 84 6 85
f 85 6 86
f 86 6 87
f 87 6 88
f 88 6 89
f 89 6 90
f 90 6 91
f 3 92 93
f 92 3 94
f 94 3 95
f 95 3 96
f 96 3 97
f 97 3 98
f 98 3 99
f 99 3 100
f 100 3 11
f 93 92 101
f 93 101 102
f 93 102 103
f 93 103 104
f 104 103 105
f 104 105 106
f 104 106 107
f 107 106 108
f 107 108 109
f 107 109 21
f 107 21 110
f 110 21 111
f 111 21 112
f 112 21 15
f 111 112 113
f 113 112 25
f 113 25 114
f 114 25 115
f 115 25 31
f 93 104 116
f 93 116 117
f 93 117 118
f 93 118 119
f 119 118 120
f 119 120 121
f 119 121 122
f 122 121 123
f 122 123 124
f 124 123 125
f 124 125 126
f 126 125 127
f 126 127 44
f 126 44 128
f 128 44 129
f 129 44 130
f 130 44 48
f 93 119 131
f 93 131 132
f 93 132 133
f 93 133 134
f 93 134 135
f 135 134 136
f 135 136 137
f 137 136 138
f 137 138 139
f 139 138 140
f 139 140 141
f 141 140 142
f 141 142 61
f 141 61 143
f 143 61 144
f 144 61 145
f 145 61 65
f 93 135 146
f 93 146 147
f 93 147 148
f 93 148 149
f 93 149 150
f 150 149 151
f 150 151 152
f 152 151 153
f 152 153 154
f 154 153 155
f 154 155 156
f 156 155 157
f 156 157 78
f 156 78 158
f 158 78 159
f 159 78 160
f 160 78 82
f 93 150 161
f 93 161 162
f 93 162 163
f 93 163 164
f 93 164 165
f 93 165 166
f 93 166 167
f 93 167 168
f 93 168 91
f 93 91 6
f 169 170 171
f 170 169 172
f 170 172 173
f 173 172 174
f 173 174 175
f 175 174 176
f 175 176 177
f 177 176 178
f 177 178 179
f 179 178 180
f 180 178 181
f 181 178 182
f 181 182 183
f 183 182 184
f 184 182 185
f 185 182 186
f 185 186 187
f 187 186 188
f 188 186 189
f 188 189 190
f 190 189 191
f 190 191 192
f 192 191 193
f 193 191 194
f 193 194 195
f 195 194 196
f 196 194 197
f 196 197 198
f 198 197 199
f 199 197 200
f 179 201 202
f 201 179 180
f 202 201 203
f 202 203 204
f 202 204 205
f 202 205 206
f 206 205 207
f 206 207 208
f 206 208 209
f 209 208 210
f 209 210 211
f 209 211 212
f 212 211 213
f 212 213 214
f 214 213 215
f 214 215 216
f 214 216 217
f 217 216 218
f 217 218 219
f 217 219 200
f 217 200 197
f 217 197 220
f 217 220 221
f 221 220 222
f 221 222 223
f 223 222 224
f 223 224 225
f 225 224 226
f 225 226 227
f 227 226 228
f 229 230 231
f 230 229 232
f 230 232 233
f 233 232 234
f 233 234 235
f 235 234 236
f 235 236 237
f 237 236 238
f 237 238 239
f 239 238 240
f 240 238 241
f 241 238 242
f 241 242 243
f 243 242 244
f 244 242 245
f 245 242 246
f 245 246 247
f 247 246 248
f 248 246 249
f 248 249 250
f 250 249 251
f 250 251 252
f 252 251 253
f 253 251 254
f 253 254 255
f 255 254 256
f 256 254 257
f 256 257 258
f 258 257 259
f 259 257 260
f 239 261 262
f 261 239 240
f 262 261 263
f 262 263 264
f 262 264 265
f 262 265 266
f 266 265 267
f 266 267 268
f 266 268 269
f 269 268 270
f 269 270 271
f 269 271 272
f 272 271 273
f 272 273 274
f 274 273 275
f 274 275 276
f 274 276 277
f 277 276 278
f 277 278 279
f 277 279 260
f 277 260 257
f 277 257 280
f 277 280 281
f 281 280 282
f 281 282 283
f 283 282 284
f 283 284 285
f 285 284 286
f 285 286 287
f 287 286 288
f 289 290 291
f 290 289 292
f 290 292 293
f 293 292 294
f 293 294 295
f 295 294 296
f 295 296 297
f 297 296 298
f 297 298 299
f 299 298 300
f 300 298 301
f 301 298 302
f 301 302 303
f 303 302 304
f 304 302 305
f 305 302 306
f 305 306 307
f 307 306 308
f 308 306 309
f 308 309 310
f 310 309 311
f 310 311 312
f 312 311 313
f 313 311 314
f 313 314 315
f 315 314 316
f 316 314 317
f 316 317 318
f 318 317 319
f 319 317 320
f 299 321 322
f 321 299 300
f 322 321 323
f 322 323 324
f 322 324 325
f 322 325 326
f 326 325 327
f 326 327 328
f 326 328 329
f 329 328 330
f 329 330 331
f 329 331 332
f 332 331 333
f 332 333 334
f 334 333 335
f 334 335 336
f 334 336 337
f 337 336 338
f 337 338 339
f 337 339 320
f 337 320 317
f 337 317 340
f 337 340 341
f 341 340 342
f 341 342 343
f 343 342 344
f 343 344 345
f 345 344 346
f 345 346 347
f 347 346 348
f 349 350 351
f 350 349 352
f 350 352 353
f 353 352 354
f 353 354 355
f 355 354 356
f 355 356 357
f 357 356 358
f 357 358 359
f 359 358 360
f 360 358 361
f 361 358 362
f 361 362 363
f 363 362 364
f 364 362 365
f 365 362 366
f 365 366 367
f 367 366 368
f 368 366 369
f 368 369 370
f 370 369 371
f 370 371 372
f 372 371 373
f 373 371 374
f 373 374 375
f 375 374 376
f 376 374 377
f 376 377 378
f 378 377 379
f 379 377 380
f 359 381 382
f 381 359 360
f 382 381 383
f 382 383 384
f 382 384 385
f 382 385 386
f 386 385 387
f 386 387 388
f 386 388 389
f 389 388 390
f 389 390 391
f 389 391 392
f 392 391 393
f 392 393 394
f 394 393 395
f 394 395 396
f 394 396 397
f 397 396 398
f 397 398 399
f 397 399 380
f 397 380 377
f 397 377 400
f 397 400 401
f 401 400 402
f 401 402 403
f 403 402 404
f 403 404 405
f 405 404 406
f 405 406 407
f 407 406 408
f 409 410 411
f 410 409 412
f 413 414 415
f 414 413 416
f 414 416 417
f 417 416 418
f 417 418 419
f 419 418 420
f 419 420 421
f 421 420 422
f 421 422 423
f 423 422 424
f 424 422 425
f 425 422 426
f 425 426 427
f 427 426 428
f 428 426 429
f 429 426 430
f 429 430 431
f 431 430 432
f 432 430 433
f 432 433 434
f 434 433 435
f 434 435 436
f 436 435 437
f 437 435 438
f 437 438 439
f 439 438 440
f 440 438 441
f 440 441 442
f 442 441 443
f 443 441 444
f 423 445 446
f 445 423 424
f 446 445 447
f 446 447 448
f 446 448 449
f 446 449 450
f 450 449 451
f 450 451 452
f 450 452 453
f 453 452 454
f 453 454 455
f 453 455 456
f 456 455 457
f 456 457 458
f 458 457 459
f 458 459 460
f 458 460 461
f 461 460 462
f 461 462 463
f 461 463 444
f 461 444 441
f 461 441 464
f 461 464 465
f 465 464 466
f 465 466 467
f 467 466 468
f 467 468 469
f 469 468 470
f 469 470 471
f 471 470 472
