
v -0.070873 -0.008289 0.058300
v -0.064707 -0.004184 0.058300
v -0.071164 -0.007766 0.058300
v -0.070564 -0.008836 0.058300
v -0.070251 -0.009379 0.058300
v -0.069934 -0.009921 0.058300
v -0.069613 -0.010459 0.058300
v -0.069287 -0.010996 0.058300
v -0.068957 -0.011529 0.058300
v -0.068865 -0.011676 0.058300
v -0.068623 -0.012060 0.058300
v -0.068285 -0.012589 0.058300
v -0.067942 -0.013115 0.058300
v -0.067596 -0.013638 0.058300
v -0.067245 -0.014158 0.058300
v -0.066891 -0.014675 0.058300
v -0.066532 -0.015190 0.058300
v -0.066169 -0.015702 0.058300
v -0.065802 -0.016211 0.058300
v -0.065431 -0.016717 0.058300
v -0.065057 -0.017220 0.058300
v -0.064678 -0.017721 0.058300
v -0.064678 0.079208 0.058300
v -0.064295 0.079705 0.058300
v -0.064295 -0.018218 0.058300
v -0.063909 0.080199 0.058300
v -0.063909 -0.018712 0.058300
v -0.063519 0.080690 0.058300
v -0.063519 -0.019203 0.058300
v -0.063124 0.081179 0.058300
v -0.063124 -0.019691 0.058300
v -0.062726 0.081663 0.058300
v -0.062726 -0.020176 0.058300
v -0.062325 0.082145 0.058300
v -0.062325 -0.020658 0.058300
v -0.061919 0.082624 0.058300
v -0.061919 -0.021137 0.058300
v -0.061510 0.083100 0.058300
v -0.061510 -0.021612 0.058300
v -0.061097 0.083572 0.058300
v -0.061097 -0.022085 0.058300
v -0.060680 0.084041 0.058300
v -0.060680 -0.022554 0.058300
v -0.060259 0.084506 0.058300
v -0.060259 -0.023019 0.058300
v -0.059835 0.084969 0.058300
v -0.059835 -0.023482 0.058300
v -0.059408 0.085428 0.058300
v -0.059408 -0.023941 0.058300
v -0.058976 0.085884 0.058300
v -0.058976 -0.024396 0.058300
v -0.058542 0.086336 0.058300
v -0.058542 -0.024849 0.058300
v -0.058103 0.086785 0.058300
v -0.058103 -0.025297 0.058300
v -0.057661 0.087230 0.058300
v -0.057661 -0.025743 0.058300
v -0.057216 0.087672 0.058300
v -0.057216 -0.026185 0.058300
v -0.056767 0.088110 0.058300
v -0.056767 -0.026623 0.058300
v -0.056315 0.088545 0.058300
v -0.056315 -0.027058 0.058300
v -0.055859 0.088976 0.058300
v -0.055859 -0.027489 0.058300
v -0.055400 0.089404 0.058300
v -0.055400 -0.027917 0.058300
v -0.054938 0.089828 0.058300
v -0.054938 -0.028341 0.058300
v -0.054472 0.090249 0.058300
v -0.054472 -0.028761 0.058300
v -0.054003 0.090665 0.058300
v -0.054003 -0.029178 0.058300
v -0.053531 0.091078 0.058300
v -0.053531 -0.029591 0.058300
v -0.053055 0.091488 0.058300
v -0.053055 -0.030001 0.058300
v -0.052577 0.091893 0.058300
v -0.052577 -0.030406 0.058300
v -0.052095 0.092295 0.058300
v -0.052095 -0.030808 0.058300
v -0.051610 0.092693 0.058300
v -0.051610 -0.031206 0.058300
v -0.051122 0.093087 0.058300
v -0.051122 -0.031600 0.058300
v -0.050630 0.093478 0.058300
v -0.050630 -0.031991 0.058300
v -0.050136 0.093864 0.058300
v -0.050136 -0.032377 0.058300
v -0.049639 0.094247 0.058300
v -0.049639 -0.032760 0.058300
v -0.049139 0.094626 0.058300
v -0.049139 -0.033138 0.058300
v -0.048635 0.095000 0.058300
v -0.048635 -0.033513 0.058300
v -0.048129 0.095371 0.058300
v -0.048129 -0.033884 0.058300
v -0.047620 0.095738 0.058300
v -0.047620 -0.034251 0.058300
v -0.047108 0.096101 0.058300
v -0.047108 -0.034613 0.058300
v -0.046594 0.096459 0.058300
v -0.046594 -0.034972 0.058300
v -0.046076 0.096814 0.058300
v -0.046076 -0.035327 0.058300
v -0.045556 0.097165 0.058300
v -0.045556 -0.035677 0.058300
v -0.045033 0.097511 0.058300
v -0.045033 -0.036024 0.058300
v -0.044507 0.097854 0.058300
v -0.044507 -0.036366 0.058300
v -0.043979 0.098192 0.058300
v -0.043979 -0.036705 0.058300
v -0.043448 0.098526 0.058300
v -0.043448 -0.037039 0.058300
v -0.042914 0.098856 0.058300
v -0.042914 -0.037369 0.058300
v -0.042378 0.099182 0.058300
v -0.042378 -0.037694 0.058300
v -0.041839 0.099503 0.058300
v -0.041839 -0.038016 0.058300
v -0.041298 0.099820 0.058300
v -0.041298 -0.038333 0.058300
v -0.040754 0.100133 0.058300
v -0.040754 -0.038646 0.058300
v -0.040208 0.100442 0.058300
v -0.040208 -0.038955 0.058300
v -0.039659 0.100746 0.058300
v -0.039659 -0.039259 0.058300
v -0.039108 0.101046 0.058300
v -0.039108 -0.039559 0.058300
v -0.038555 0.101342 0.058300
v -0.038555 -0.039855 0.058300
v -0.037999 0.101634 0.058300
v -0.037999 -0.040146 0.058300
v -0.037441 -0.040433 0.058300
v -0.037441 0.101921 0.058300
v -0.036881 0.102203 0.058300
v -0.036881 -0.040716 0.058300
v -0.036319 0.102482 0.058300
v -0.036319 -0.040994 0.058300
v -0.035754 0.102755 0.058300
v -0.035754 -0.041268 0.058300
v -0.035188 0.103025 0.058300
v -0.035188 -0.041538 0.058300
v -0.034619 0.103290 0.058300
v -0.034619 -0.041802 0.058300
v -0.034048 0.103550 0.058300
v -0.034048 -0.042063 0.058300
v -0.033475 -0.042319 0.058300
v -0.033475 0.103806 0.058300
v -0.032901 0.104057 0.058300
v -0.032901 -0.042570 0.058300
v -0.032324 0.104304 0.058300
v -0.032324 -0.042817 0.058300
v -0.031745 0.104547 0.058300
v -0.031745 -0.043060 0.058300
v -0.031164 0.104784 0.058300
v -0.031164 -0.043297 0.058300
v -0.030582 0.105018 0.058300
v -0.030582 -0.043531 0.058300
v -0.029998 -0.043759 0.058300
v -0.029998 0.105246 0.058300
v -0.029412 0.105470 0.058300
v -0.029412 -0.043983 0.058300
v -0.028824 0.105690 0.058300
v -0.028824 -0.044203 0.058300
v -0.028234 0.105905 0.058300
v -0.028234 -0.044418 0.058300
v -0.027643 0.106115 0.058300
v -0.027643 -0.044628 0.058300
v -0.027051 -0.044833 0.058300
v -0.027051 0.106321 0.058300
v -0.026456 0.106522 0.058300
v -0.026456 -0.045034 0.058300
v -0.025860 0.106718 0.058300
v -0.025860 -0.045231 0.058300
v -0.025263 0.106909 0.058300
v -0.025263 -0.045422 0.058300
v -0.024664 -0.045609 0.058300
v -0.024664 0.107096 0.058300
v -0.024063 0.107278 0.058300
v -0.024063 -0.045791 0.058300
v -0.023462 0.107455 0.058300
v -0.023462 -0.045968 0.058300
v -0.022859 0.107628 0.058300
v -0.022859 -0.046141 0.058300
v -0.022254 0.107796 0.058300
v -0.022254 -0.046309 0.058300
v -0.021648 0.107959 0.058300
v -0.021648 -0.046472 0.058300
v -0.021041 -0.046631 0.058300
v -0.021041 0.108118 0.058300
v -0.020433 0.108271 0.058300
v -0.020433 -0.046784 0.058300
v -0.019823 -0.046933 0.058300
v -0.019823 0.108420 0.058300
v -0.019213 0.108564 0.058300
v -0.019213 -0.047077 0.058300
v -0.018601 0.108704 0.058300
v -0.018601 -0.047216 0.058300
v -0.017988 0.108838 0.058300
v -0.017988 -0.047351 0.058300
v -0.017374 0.108968 0.058300
v -0.017374 -0.047481 0.058300
v -0.016759 -0.047605 0.058300
v -0.016759 0.109092 0.058300
v -0.016144 -0.047725 0.058300
v -0.016144 0.109213 0.058300
v -0.015527 0.109328 0.058300
v -0.015527 -0.047841 0.058300
v -0.014909 -0.047951 0.058300
v -0.014909 0.109438 0.058300
v -0.014291 -0.048056 0.058300
v -0.014291 0.109543 0.058300
v -0.013671 -0.048157 0.058300
v -0.013671 0.109644 0.058300
v -0.013051 -0.048253 0.058300
v -0.013051 0.109740 0.058300
v -0.012431 -0.048343 0.058300
v -0.012431 0.109831 0.058300
v -0.011809 0.109916 0.058300
v -0.011809 -0.048429 0.058300
v -0.011187 0.109997 0.058300
v -0.011187 -0.048510 0.058300
v -0.010564 -0.048587 0.058300
v -0.010564 0.110074 0.058300
v -0.009941 -0.048658 0.058300
v -0.009941 0.110145 0.058300
v -0.009317 0.110211 0.058300
v -0.009317 -0.048724 0.058300
v -0.008693 0.110273 0.058300
v -0.008693 -0.048786 0.058300
v -0.008068 -0.048842 0.058300
v -0.008068 0.110329 0.058300
v -0.007442 -0.048894 0.058300
v -0.007442 0.110381 0.058300
v -0.006817 0.110428 0.058300
v -0.006817 -0.048941 0.058300
v -0.006191 -0.048983 0.058300
v -0.006191 0.110470 0.058300
v -0.005564 -0.049020 0.058300
v -0.005564 0.110507 0.058300
v -0.004938 -0.049052 0.058300
v -0.004938 0.110539 0.058300
v -0.004311 0.110566 0.058300
v -0.004311 -0.049079 0.058300
v -0.003684 0.110588 0.058300
v -0.003684 -0.049101 0.058300
v -0.003057 -0.049118 0.058300
v -0.003057 0.110605 0.058300
v -0.002430 0.110618 0.058300
v -0.002430 -0.049130 0.058300
v -0.001802 -0.049138 0.058300
v -0.001802 0.110625 0.058300
v -0.001175 0.110627 0.058300
v -0.001175 -0.049140 0.058300
v -0.000547 -0.049138 0.058300
v -0.000547 0.110625 0.058300
v 0.000080 -0.049130 0.058300
v 0.000080 0.110618 0.058300
v 0.000707 0.110605 0.058300
v 0.000707 -0.049118 0.058300
v 0.001334 0.110588 0.058300
v 0.001334 -0.049101 0.058300
v 0.001961 0.110566 0.058300
v 0.001961 -0.049079 0.058300
v 0.002588 -0.049052 0.058300
v 0.002588 0.110539 0.058300
v 0.003215 -0.049020 0.058300
v 0.003215 0.110507 0.058300
v 0.003841 0.110470 0.058300
v 0.003841 -0.048983 0.058300
v 0.004467 -0.048941 0.058300
v 0.004467 0.110428 0.058300
v 0.005093 -0.048894 0.058300
v 0.005093 0.110381 0.058300
v 0.005718 -0.048842 0.058300
v 0.005718 0.110329 0.058300
v 0.006343 -0.048786 0.058300
v 0.006343 0.110273 0.058300
v 0.006967 -0.048724 0.058300
v 0.006967 0.110211 0.058300
v 0.007591 -0.048658 0.058300
v 0.007591 0.110145 0.058300
v 0.008215 -0.048587 0.058300
v 0.008215 0.110074 0.058300
v 0.008837 0.109997 0.058300
v 0.008837 -0.048510 0.058300
v 0.009459 0.109916 0.058300
v 0.009459 -0.048429 0.058300
v 0.010081 -0.048343 0.058300
v 0.010081 0.109831 0.058300
v 0.010702 -0.048253 0.058300
v 0.010702 0.109740 0.058300
v 0.011322 -0.048157 0.058300
v 0.011322 0.109644 0.058300
v 0.011941 -0.048056 0.058300
v 0.011941 0.109543 0.058300
v 0.012560 0.109438 0.058300
v 0.012560 -0.047951 0.058300
v 0.013177 -0.047841 0.058300
v 0.013177 0.109328 0.058300
v 0.013794 -0.047725 0.058300
v 0.013794 0.109213 0.058300
v 0.014410 -0.047605 0.058300
v 0.014410 0.109092 0.058300
v 0.015025 -0.047481 0.058300
v 0.015025 0.108968 0.058300
v 0.015639 0.108838 0.058300
v 0.015639 -0.047351 0.058300
v 0.016251 -0.047216 0.058300
v 0.016251 0.108704 0.058300
v 0.016863 -0.047077 0.058300
v 0.016863 0.108564 0.058300
v 0.017474 -0.046933 0.058300
v 0.017474 0.108420 0.058300
v 0.018083 -0.046784 0.058300
v 0.018083 0.108271 0.058300
v 0.018692 0.108118 0.058300
v 0.018692 -0.046631 0.058300
v 0.019299 -0.046472 0.058300
v 0.019299 0.107959 0.058300
v 0.019904 -0.046309 0.058300
v 0.019904 0.107796 0.058300
v 0.020509 -0.046141 0.058300
v 0.020509 0.107628 0.058300
v 0.021112 -0.045968 0.058300
v 0.021112 0.107455 0.058300
v 0.021714 -0.045791 0.058300
v 0.021714 0.107278 0.058300
v 0.022314 -0.045609 0.058300
v 0.022314 0.107096 0.058300
v 0.022913 -0.045422 0.058300
v 0.022913 0.106909 0.058300
v 0.023511 -0.045231 0.058300
v 0.023511 0.106718 0.058300
v 0.024107 -0.045034 0.058300
v 0.024107 0.106522 0.058300
v 0.024701 -0.044833 0.058300
v 0.024701 0.106321 0.058300
v 0.025294 -0.044628 0.058300
v 0.025294 0.106115 0.058300
v 0.025885 0.105905 0.058300
v 0.025885 -0.044418 0.058300
v 0.026474 -0.044203 0.058300
v 0.026474 0.105690 0.058300
v 0.027062 -0.043983 0.058300
v 0.027062 0.105470 0.058300
v 0.027648 -0.043759 0.058300
v 0.027648 0.105246 0.058300
v 0.028232 -0.043531 0.058300
v 0.028232 0.105018 0.058300
v 0.028815 0.104784 0.058300
v 0.028815 -0.043297 0.058300
v 0.029395 -0.043060 0.058300
v 0.029395 0.104547 0.058300
v 0.029974 -0.042817 0.058300
v 0.029974 0.104304 0.058300
v 0.030551 -0.042570 0.058300
v 0.030551 0.104057 0.058300
v 0.031126 -0.042319 0.058300
v 0.031126 0.103806 0.058300
v 0.031699 -0.042063 0.058300
v 0.031699 0.103550 0.058300
v 0.032269 -0.041802 0.058300
v 0.032269 0.103290 0.058300
v 0.032838 -0.041538 0.058300
v 0.032838 0.103025 0.058300
v 0.033405 -0.041268 0.058300
v 0.033405 0.102755 0.058300
v 0.033969 -0.040994 0.058300
v 0.033969 0.102482 0.058300
v 0.034532 -0.040716 0.058300
v 0.034532 0.102203 0.058300
v 0.035092 -0.040433 0.058300
v 0.035092 0.101921 0.058300
v 0.035650 -0.040146 0.058300
v 0.035650 0.101634 0.058300
v 0.036205 -0.039855 0.058300
v 0.036205 0.101342 0.058300
v 0.036759 -0.039559 0.058300
v 0.036759 0.101046 0.058300
v 0.037310 -0.039259 0.058300
v 0.037310 0.100746 0.058300
v 0.037858 -0.038955 0.058300
v 0.037858 0.100442 0.058300
v 0.038404 -0.038646 0.058300
v 0.038404 0.100133 0.058300
v 0.038948 -0.038333 0.058300
v 0.038948 0.099820 0.058300
v 0.039489 -0.038016 0.058300
v 0.039489 0.099503 0.058300
v 0.040028 -0.037694 0.058300
v 0.040028 0.099182 0.058300
v 0.040564 -0.037369 0.058300
v 0.040564 0.098856 0.058300
v 0.041098 -0.037039 0.058300
v 0.041098 0.098526 0.058300
v 0.041629 -0.036705 0.058300
v 0.041629 0.098192 0.058300
v 0.042158 -0.036366 0.058300
v 0.042158 0.097854 0.058300
v 0.042683 -0.036024 0.058300
v 0.042683 0.097511 0.058300
v 0.043206 -0.035677 0.058300
v 0.043206 0.097165 0.058300
v 0.043727 -0.035327 0.058300
v 0.043727 0.096814 0.058300
v 0.044244 -0.034972 0.058300
v 0.044244 0.096459 0.058300
v 0.044759 -0.034613 0.058300
v 0.044759 0.096101 0.058300
v 0.045271 -0.034251 0.058300
v 0.045271 0.095738 0.058300
v 0.045780 -0.033884 0.058300
v 0.045780 0.095371 0.058300
v 0.046286 -0.033513 0.058300
v 0.046286 0.095000 0.058300
v 0.046789 -0.033138 0.058300
v 0.046789 0.094626 0.058300
v 0.047289 -0.032760 0.058300
v 0.047289 0.094247 0.058300
v 0.047787 -0.032377 0.058300
v 0.047787 0.093864 0.058300
v 0.048281 -0.031991 0.058300
v 0.048281 0.093478 0.058300
v 0.048772 -0.031600 0.058300
v 0.048772 0.093087 0.058300
v 0.049260 -0.031206 0.058300
v 0.049260 0.092693 0.058300
v 0.049745 -0.030808 0.058300
v 0.049745 0.092295 0.058300
v 0.050227 -0.030406 0.058300
v 0.050227 0.091893 0.058300
v 0.050706 -0.030001 0.058300
v 0.050706 0.091488 0.058300
v 0.051181 -0.029591 0.058300
v 0.051181 0.091078 0.058300
v 0.051653 -0.029178 0.058300
v 0.051653 0.090665 0.058300
v 0.052122 -0.028761 0.058300
v 0.052122 0.090249 0.058300
v 0.052588 -0.028341 0.058300
v 0.052588 0.089828 0.058300
v 0.053050 -0.027917 0.058300
v 0.053050 0.089404 0.058300
v 0.053510 -0.027489 0.058300
v 0.053510 0.088976 0.058300
v 0.053965 -0.027058 0.058300
v 0.053965 0.088545 0.058300
v 0.054417 -0.026623 0.058300
v 0.054417 0.088110 0.058300
v 0.054866 -0.026185 0.058300
v 0.054866 0.087672 0.058300
v 0.055312 -0.025743 0.058300
v 0.055312 0.087230 0.058300
v 0.055754 -0.025297 0.058300
v 0.055754 0.086785 0.058300
v 0.056192 -0.024849 0.058300
v 0.056192 0.086336 0.058300
v 0.056627 -0.024396 0.058300
v 0.056627 0.085884 0.058300
v 0.057058 -0.023941 0.058300
v 0.057058 0.085428 0.058300
v 0.057486 -0.023482 0.058300
v 0.057486 0.084969 0.058300
v 0.057910 -0.023019 0.058300
v 0.057910 0.084506 0.058300
v 0.058330 -0.022554 0.058300
v 0.058330 0.084041 0.058300
v 0.058747 -0.022085 0.058300
v 0.058747 0.083572 0.058300
v 0.059160 -0.021612 0.058300
v 0.059160 0.083100 0.058300
v 0.059569 -0.021137 0.058300
v 0.059569 0.082624 0.058300
v 0.059975 -0.020658 0.058300
v 0.059975 0.082145 0.058300
v 0.060377 -0.020176 0.058300
v 0.060377 0.081663 0.058300
v 0.060775 -0.019691 0.058300
v 0.060775 0.081179 0.058300
v 0.061169 -0.019203 0.058300
v 0.061169 0.080690 0.058300
v 0.061559 -0.018712 0.058300
v 0.061559 0.080199 0.058300
v 0.061946 -0.018218 0.058300
v 0.061946 0.079705 0.058300
v 0.062328 -0.017721 0.058300
v 0.062328 0.079208 0.058300
v 0.062707 -0.017220 0.058300
v 0.062707 0.078707 0.058300
v 0.063082 -0.016717 0.058300
v 0.063082 0.078204 0.058300
v 0.063453 -0.016211 0.058300
v 0.063453 0.077698 0.058300
v 0.063819 -0.015702 0.058300
v 0.063819 0.077189 0.058300
v 0.064182 -0.015190 0.058300
v 0.064182 0.076677 0.058300
v 0.064541 -0.014675 0.058300
v 0.064541 0.076163 0.058300
v 0.064896 -0.014158 0.058300
v 0.064896 0.075645 0.058300
v 0.065246 -0.013638 0.058300
v 0.065246 0.075125 0.058300
v 0.065593 -0.013115 0.058300
v 0.065593 0.074602 0.058300
v 0.065935 -0.012589 0.058300
v 0.065935 0.074076 0.058300
v 0.066273 -0.012060 0.058300
v 0.066273 0.073548 0.058300
v 0.066608 -0.011529 0.058300
v 0.066608 0.073016 0.058300
v 0.066937 -0.010996 0.058300
v 0.066937 0.072483 0.058300
v 0.067263 -0.010459 0.058300
v 0.067263 0.071947 0.058300
v 0.067585 -0.009921 0.058300
v 0.067585 0.071408 0.058300
v 0.067902 -0.009379 0.058300
v 0.067902 0.070867 0.058300
v 0.068215 -0.008836 0.058300
v 0.068215 0.070323 0.058300
v 0.068524 -0.008289 0.058300
v 0.068524 0.069777 0.058300
v 0.068828 -0.007741 0.058300
v 0.068828 0.069228 0.058300
v 0.069128 -0.007190 0.058300
v 0.069128 0.068677 0.058300
v 0.069424 -0.006636 0.058300
v 0.069424 0.068124 0.058300
v 0.069715 -0.006081 0.058300
v 0.069715 0.067568 0.058300
v 0.070002 -0.005523 0.058300
v 0.070002 0.067010 0.058300
v 0.070285 -0.004963 0.058300
v 0.070285 0.066450 0.058300
v 0.070563 -0.004400 0.058300
v 0.070563 0.065888 0.058300
v 0.070837 -0.003836 0.058300
v 0.070837 0.065323 0.058300
v 0.071106 -0.003269 0.058300
v 0.071106 0.064756 0.058300
v 0.071371 -0.002701 0.058300
v 0.071371 0.064188 0.058300
v 0.071632 -0.002130 0.058300
v 0.071632 0.063617 0.058300
v 0.071888 -0.001557 0.058300
v 0.071888 0.063044 0.058300
v 0.072139 -0.000982 0.058300
v 0.072139 0.062469 0.058300
v 0.072386 -0.000405 0.058300
v 0.072386 0.061893 0.058300
v 0.072628 0.000173 0.058300
v 0.072628 0.061314 0.058300
v 0.072866 0.000754 0.058300
v 0.072866 0.060733 0.058300
v 0.073099 0.001336 0.058300
v 0.073099 0.060151 0.058300
v 0.073328 0.001921 0.058300
v 0.073328 0.059567 0.058300
v 0.073552 0.002507 0.058300
v 0.073552 0.058981 0.058300
v 0.073772 0.003094 0.058300
v 0.073772 0.058393 0.058300
v 0.073986 0.003684 0.058300
v 0.073986 0.057803 0.058300
v 0.074197 0.004275 0.058300
v 0.074197 0.057212 0.058300
v 0.074402 0.004868 0.058300
v 0.074402 0.056619 0.058300
v 0.074603 0.005462 0.058300
v 0.074603 0.056025 0.058300
v 0.074799 0.006058 0.058300
v 0.074799 0.055429 0.058300
v 0.074991 0.006656 0.058300
v 0.074991 0.054832 0.058300
v 0.075178 0.007254 0.058300
v 0.075178 0.054233 0.058300
v 0.075360 0.007855 0.058300
v 0.075360 0.053632 0.058300
v 0.075537 0.008457 0.058300
v 0.075537 0.053030 0.058300
v 0.075710 0.009060 0.058300
v 0.075710 0.052427 0.058300
v 0.075878 0.009664 0.058300
v 0.075878 0.051823 0.058300
v 0.076041 0.010270 0.058300
v 0.076041 0.051217 0.058300
v 0.076199 0.010877 0.058300
v 0.076199 0.050610 0.058300
v 0.076353 0.011486 0.058300
v 0.076353 0.050002 0.058300
v 0.076502 0.012095 0.058300
v 0.076502 0.049392 0.058300
v 0.076646 0.012706 0.058300
v 0.076646 0.048781 0.058300
v 0.076785 0.013317 0.058300
v 0.076785 0.048170 0.058300
v 0.076920 0.013930 0.058300
v 0.076920 0.047557 0.058300
v 0.077049 0.014544 0.058300
v 0.077049 0.046943 0.058300
v 0.077174 0.015159 0.058300
v 0.077174 0.046328 0.058300
v 0.077294 0.015775 0.058300
v 0.077294 0.045712 0.058300
v 0.077409 0.016392 0.058300
v 0.077409 0.045096 0.058300
v 0.077520 0.017009 0.058300
v 0.077520 0.044478 0.058300
v 0.077625 0.017628 0.058300
v 0.077625 0.043859 0.058300
v 0.077726 0.018247 0.058300
v 0.077726 0.043240 0.058300
v 0.077821 0.018867 0.058300
v 0.077821 0.042620 0.058300
v 0.077912 0.019488 0.058300
v 0.077912 0.041999 0.058300
v 0.077998 0.020109 0.058300
v 0.077998 0.041378 0.058300
v 0.078079 0.020731 0.058300
v 0.078079 0.040756 0.058300
v 0.078155 0.021354 0.058300
v 0.078155 0.040133 0.058300
v 0.078227 0.021978 0.058300
v 0.078227 0.039510 0.058300
v 0.078293 0.022601 0.058300
v 0.078293 0.038886 0.058300
v 0.078355 0.023226 0.058300
v 0.078355 0.038261 0.058300
v 0.078411 0.023851 0.058300
v 0.078411 0.037636 0.058300
v 0.078463 0.024476 0.058300
v 0.078463 0.037011 0.058300
v 0.078510 0.025102 0.058300
v 0.078510 0.036386 0.058300
v 0.078551 0.025728 0.058300
v 0.078551 0.035760 0.058300
v 0.078588 0.026354 0.058300
v 0.078588 0.035133 0.058300
v 0.078620 0.026981 0.058300
v 0.078620 0.034507 0.058300
v 0.078648 0.027607 0.058300
v 0.078648 0.033880 0.058300
v 0.078670 0.028234 0.058300
v 0.078670 0.033253 0.058300
v 0.078687 0.028862 0.058300
v 0.078687 0.032626 0.058300
v 0.078699 0.029489 0.058300
v 0.078699 0.031998 0.058300
v 0.078707 0.030116 0.058300
v 0.078707 0.031371 0.058300
v 0.078709 0.030744 0.058300
v -0.081056 0.030116 0.058300
v -0.081056 0.031371 0.058300
v -0.081059 0.030744 0.058300
v -0.081049 0.029489 0.058300
v -0.081049 0.031998 0.058300
v -0.081037 0.028862 0.058300
v -0.081037 0.032626 0.058300
v -0.081019 0.033253 0.058300
v -0.081019 0.028234 0.058300
v -0.080997 0.033880 0.058300
v -0.080997 0.027607 0.058300
v -0.080970 0.034507 0.058300
v -0.080970 0.026981 0.058300
v -0.080938 0.035133 0.058300
v -0.080938 0.026354 0.058300
v -0.080901 0.035760 0.058300
v -0.080901 0.025728 0.058300
v -0.080859 0.036386 0.058300
v -0.080859 0.025102 0.058300
v -0.080812 0.037011 0.058300
v -0.080812 0.024476 0.058300
v -0.080761 0.037636 0.058300
v -0.080761 0.023851 0.058300
v -0.080704 0.038261 0.058300
v -0.080704 0.023226 0.058300
v -0.080643 0.038886 0.058300
v -0.080643 0.022601 0.058300
v -0.080576 0.039510 0.058300
v -0.080576 0.021978 0.058300
v -0.080505 0.040133 0.058300
v -0.080505 0.021354 0.058300
v -0.080429 0.040756 0.058300
v -0.080429 0.020731 0.058300
v -0.080348 0.041378 0.058300
v -0.080348 0.020109 0.058300
v -0.080262 0.041999 0.058300
v -0.080262 0.019488 0.058300
v -0.080171 0.042620 0.058300
v -0.080171 0.018867 0.058300
v -0.080075 0.043240 0.058300
v -0.080075 0.018247 0.058300
v -0.079975 0.043859 0.058300
v -0.079975 0.017628 0.058300
v -0.079869 0.044478 0.058300
v -0.079869 0.017009 0.058300
v -0.079759 0.045096 0.058300
v -0.079759 0.016392 0.058300
v -0.079644 0.045712 0.058300
v -0.079644 0.015775 0.058300
v -0.079524 0.046328 0.058300
v -0.079524 0.015159 0.058300
v -0.079399 0.046943 0.058300
v -0.079399 0.014544 0.058300
v -0.079269 0.047557 0.058300
v -0.079269 0.013930 0.058300
v -0.079135 0.048170 0.058300
v -0.079135 0.013317 0.058300
v -0.078996 0.048781 0.058300
v -0.078996 0.012706 0.058300
v -0.078852 0.049392 0.058300
v -0.078852 0.012095 0.058300
v -0.078703 0.050002 0.058300
v -0.078703 0.011486 0.058300
v -0.078549 0.050610 0.058300
v -0.078549 0.010877 0.058300
v -0.078391 0.051217 0.058300
v -0.078391 0.010270 0.058300
v -0.078227 0.051823 0.058300
v -0.078227 0.009664 0.058300
v -0.078059 0.052427 0.058300
v -0.078059 0.009060 0.058300
v -0.077887 0.053030 0.058300
v -0.077887 0.008457 0.058300
v -0.077709 0.053632 0.058300
v -0.077709 0.007855 0.058300
v -0.077527 0.054233 0.058300
v -0.077527 0.007254 0.058300
v -0.077340 0.054832 0.058300
v -0.077340 0.006656 0.058300
v -0.077149 0.055429 0.058300
v -0.077149 0.006058 0.058300
v -0.076953 0.056025 0.058300
v -0.076953 0.005462 0.058300
v -0.076752 0.056619 0.058300
v -0.076752 0.004868 0.058300
v -0.076546 0.057212 0.058300
v -0.076546 0.004275 0.058300
v -0.076336 0.057803 0.058300
v -0.076336 0.003684 0.058300
v -0.076121 0.058393 0.058300
v -0.076121 0.003094 0.058300
v -0.075902 0.058981 0.058300
v -0.075902 0.002507 0.058300
v -0.075678 0.059567 0.058300
v -0.075678 0.001921 0.058300
v -0.075449 0.060151 0.058300
v -0.075449 0.001336 0.058300
v -0.075216 0.060733 0.058300
v -0.075216 0.000754 0.058300
v -0.074978 0.061314 0.058300
v -0.074978 0.000173 0.058300
v -0.074736 0.061893 0.058300
v -0.074736 -0.000405 0.058300
v -0.074489 0.062469 0.058300
v -0.074489 -0.000982 0.058300
v -0.074237 0.063044 0.058300
v -0.074237 -0.001557 0.058300
v -0.073981 0.063617 0.058300
v -0.073981 -0.002130 0.058300
v -0.073721 0.064188 0.058300
v -0.073721 -0.002701 0.058300
v -0.073456 0.064756 0.058300
v -0.073456 -0.003269 0.058300
v -0.073187 0.065323 0.058300
v -0.073187 -0.003836 0.058300
v -0.072913 0.065888 0.058300
v -0.072913 -0.004400 0.058300
v -0.072635 -0.004963 0.058300
v -0.072635 0.066450 0.058300
v -0.072352 -0.005523 0.058300
v -0.072352 0.067010 0.058300
v -0.072065 -0.006081 0.058300
v -0.072065 0.067568 0.058300
v -0.071773 0.068124 0.058300
v -0.071773 -0.006636 0.058300
v -0.071478 -0.007190 0.058300
v -0.071478 0.068677 0.058300
v -0.071178 -0.007741 0.058300
v -0.071178 0.069228 0.058300
v -0.070873 0.069777 0.058300
v -0.070564 0.070323 0.058300
v -0.070251 0.070867 0.058300
v -0.069934 0.071408 0.058300
v -0.069613 0.071947 0.058300
v -0.069287 0.072483 0.058300
v -0.068957 0.073016 0.058300
v -0.068623 0.073548 0.058300
v -0.068285 0.074076 0.058300
v -0.067942 0.074602 0.058300
v -0.067596 0.075125 0.058300
v -0.067245 0.075645 0.058300
v -0.066891 0.076163 0.058300
v -0.066532 0.076677 0.058300
v -0.066169 0.077189 0.058300
v -0.065802 0.077698 0.058300
v -0.065431 0.078204 0.058300
v -0.065057 0.078707 0.058300
f 1 2 3
f 2 1 4
f 2 4 5
f 2 5 6
f 2 6 7
f 2 7 8
f 2 8 9
f 2 9 10
f 2 10 11
f 2 11 12
f 2 12 13
f 2 13 14
f 2 14 15
f 2 15 16
f 2 16 17
f 2 17 18
f 2 18 19
f 2 19 20
f 2 20 21
f 2 21 22
f 2 22 23
f 23 22 24
f 24 22 25
f 24 25 26
f 26 25 27
f 26 27 28
f 28 27 29
f 28 29 30
f 30 29 31
f 30 31 32
f 32 31 33
f 32 33 34
f 34 33 35
f 34 35 36
f 36 35 37
f 36 37 38
f 38 37 39
f 38 39 40
f 40 39 41
f 40 41 42
f 42 41 43
f 42 43 44
f 44 43 45
f 44 45 46
f 46 45 47
f 46 47 48
f 48 47 49
f 48 49 50
f 50 49 51
f 50 51 52
f 52 51 53
f 52 53 54
f 54 53 55
f 54 55 56
f 56 55 57
f 56 57 58
f 58 57 59
f 58 59 60
f 60 59 61
f 60 61 62
f 62 61 63
f 62 63 64
f 64 63 65
f 64 65 66
f 66 65 67
f 66 67 68
f 68 67 69
f 68 69 70
f 70 69 71
f 70 71 72
f 72 71 73
f 72 73 74
f 74 73 75
f 74 75 76
f 76 75 77
f 76 77 78
f 78 77 79
f 78 79 80
f 80 79 81
f 80 81 82
f 82 81 83
f 82 83 84
f 84 83 85
f 84 85 86
f 86 85 87
f 86 87 88
f 88 87 89
f 88 89 90
f 90 89 91
f 90 91 92
f 92 91 93
f 92 93 94
f 94 93 95
f 94 95 96
f 96 95 97
f 96 97 98
f 98 97 99
f 98 99 100
f 100 99 101
f 100 101 102
f 102 101 103
f 102 103 104
f 104 103 105
f 104 105 106
f 106 105 107
f 106 107 108
f 108 107 109
f 108 109 110
f 110 109 111
f 110 111 112
f 112 111 113
f 112 113 114
f 114 113 115
f 114 115 116
f 116 115 117
f 116 117 118
f 118 117 119
f 118 119 120
f 120 119 121
f 120 121 122
f 122 121 123
f 122 123 124
f 124 123 125
f 124 125 126
f 126 125 127
f 126 127 128
f 128 127 129
f 128 129 130
f 130 129 131
f 130 131 132
f 132 131 133
f 132 133 134
f 134 133 135
f 134 135 136
f 134 136 137
f 137 136 138
f 138 136 139
f 138 139 140
f 140 139 141
f 140 141 142
f 142 141 143
f 142 143 144
f 144 143 145
f 144 145 146
f 146 145 147
f 146 147 148
f 148 147 149
f 148 149 150
f 148 150 151
f 151 150 152
f 152 150 153
f 152 153 154
f 154 153 155
f 154 155 156
f 156 155 157
f 156 157 158
f 158 157 159
f 158 159 160
f 160 159 161
f 160 161 162
f 160 162 163
f 163 162 164
f 164 162 165
f 164 165 166
f 166 165 167
f 166 167 168
f 168 167 169
f 168 169 170
f 170 169 171
f 170 171 172
f 170 172 173
f 173 172 174
f 174 172 175
f 174 175 176
f 176 175 177
f 176 177 178
f 178 177 179
f 178 179 180
f 178 180 181
f 181 180 182
f 182 180 183
f 182 183 184
f 184 183 185
f 184 185 186
f 186 185 187
f 186 187 188
f 188 187 189
f 188 189 190
f 190 189 191
f 190 191 192
f 190 192 193
f 193 192 194
f 194 192 195
f 194 195 196
f 194 196 197
f 197 196 198
f 198 196 199
f 198 199 200
f 200 199 201
f 200 201 202
f 202 201 203
f 202 203 204
f 204 203 205
f 204 205 206
f 204 206 207
f 207 206 208
f 207 208 209
f 209 208 210
f 210 208 211
f 210 211 212
f 210 212 213
f 213 212 214
f 213 214 215
f 215 214 216
f 215 216 217
f 217 216 218
f 217 218 219
f 219 218 220
f 219 220 221
f 221 220 222
f 222 220 223
f 222 223 224
f 224 223 225
f 224 225 226
f 224 226 227
f 227 226 228
f 227 228 229
f 229 228 230
f 230 228 231
f 230 231 232
f 232 231 233
f 232 233 234
f 232 234 235
f 235 234 236
f 235 236 237
f 237 236 238
f 238 236 239
f 238 239 240
f 238 240 241
f 241 240 242
f 241 242 243
f 243 242 244
f 243 244 245
f 245 244 246
f 246 244 247
f 246 247 248
f 248 247 249
f 248 249 250
f 248 250 251
f 251 250 252
f 252 250 253
f 252 253 254
f 252 254 255
f 255 254 256
f 256 254 257
f 256 257 258
f 256 258 259
f 259 258 260
f 259 260 261
f 261 260 262
f 262 260 263
f 262 263 264
f 264 263 265
f 264 265 266
f 266 265 267
f 266 267 268
f 266 268 269
f 269 268 270
f 269 270 271
f 271 270 272
f 272 270 273
f 272 273 274
f 272 274 275
f 275 274 276
f 275 276 277
f 277 276 278
f 277 278 279
f 279 278 280
f 279 280 281
f 281 280 282
f 281 282 283
f 283 282 284
f 283 284 285
f 285 284 286
f 285 286 287
f 287 286 288
f 288 286 289
f 288 289 290
f 290 289 291
f 290 291 292
f 290 292 293
f 293 292 294
f 293 294 295
f 295 294 296
f 295 296 297
f 297 296 298
f 297 298 299
f 299 298 300
f 300 298 301
f 300 301 302
f 300 302 303
f 303 302 304
f 303 304 305
f 305 304 306
f 305 306 307
f 307 306 308
f 307 308 309
f 309 308 310
f 310 308 311
f 310 311 312
f 310 312 313
f 313 312 314
f 313 314 315
f 315 314 316
f 315 316 317
f 317 316 318
f 317 318 319
f 319 318 320
f 320 318 321
f 320 321 322
f 320 322 323
f 323 322 324
f 323 324 325
f 325 324 326
f 325 326 327
f 327 326 328
f 327 328 329
f 329 328 330
f 329 330 331
f 331 330 332
f 331 332 333
f 333 332 334
f 333 334 335
f 335 334 336
f 335 336 337
f 337 336 338
f 337 338 339
f 339 338 340
f 339 340 341
f 341 340 342
f 341 342 343
f 343 342 344
f 344 342 345
f 344 345 346
f 344 346 347
f 347 346 348
f 347 348 349
f 349 348 350
f 349 350 351
f 351 350 352
f 351 352 353
f 353 352 354
f 354 352 355
f 354 355 356
f 354 356 357
f 357 356 358
f 357 358 359
f 359 358 360
f 359 360 361
f 361 360 362
f 361 362 363
f 363 362 364
f 363 364 365
f 365 364 366
f 365 366 367
f 367 366 368
f 367 368 369
f 369 368 370
f 369 370 371
f 371 370 372
f 371 372 373
f 373 372 374
f 373 374 375
f 375 374 376
f 375 376 377
f 377 376 378
f 377 378 379
f 379 378 380
f 379 380 381
f 381 380 382
f 381 382 383
f 383 382 384
f 383 384 385
f 385 384 386
f 385 386 387
f 387 386 388
f 387 388 389
f 389 388 390
f 389 390 391
f 391 390 392
f 391 392 393
f 393 392 394
f 393 394 395
f 395 394 396
f 395 396 397
f 397 396 398
f 397 398 399
f 399 398 400
f 399 400 401
f 401 400 402
f 401 402 403
f 403 402 404
f 403 404 405
f 405 404 406
f 405 406 407
f 407 406 408
f 407 408 409
f 409 408 410
f 409 410 411
f 411 410 412
f 411 412 413
f 413 412 414
f 413 414 415
f 415 414 416
f 415 416 417
f 417 416 418
f 417 418 419
f 419 418 420
f 419 420 421
f 421 420 422
f 421 422 423
f 423 422 424
f 423 424 425
f 425 424 426
f 425 426 427
f 427 426 428
f 427 428 429
f 429 428 430
f 429 430 431
f 431 430 432
f 431 432 433
f 433 432 434
f 433 434 435
f 435 434 436
f 435 436 437
f 437 436 438
f 437 438 439
f 439 438 440
f 439 440 441
f 441 440 442
f 441 442 443
f 443 442 444
f 443 444 445
f 445 444 446
f 445 446 447
f 447 446 448
f 447 448 449
f 449 448 450
f 449 450 451
f 451 450 452
f 451 452 453
f 453 452 454
f 453 454 455
f 455 454 456
f 455 456 457
f 457 456 458
f 457 458 459
f 459 458 460
f 459 460 461
f 461 460 462
f 461 462 463
f 463 462 464
f 463 464 465
f 465 464 466
f 465 466 467
f 467 466 468
f 467 468 469
f 469 468 470
f 469 470 471
f 471 470 472
f 471 472 473
f 473 472 474
f 473 474 475
f 475 474 476
f 475 476 477
f 477 476 478
f 477 478 479
f 479 478 480
f 479 480 481
f 481 480 482
f 481 482 483
f 483 482 484
f 483 484 485
f 485 484 486
f 485 486 487
f 487 486 488
f 487 488 489
f 489 488 490
f 489 490 491
f 491 490 492
f 491 492 493
f 493 492 494
f 493 494 495
f 495 494 496
f 495 496 497
f 497 496 498
f 497 498 499
f 499 498 500
f 499 500 501
f 501 500 502
f 501 502 503
f 503 502 504
f 503 504 505
f 505 504 506
f 505 506 507
f 507 506 508
f 507 508 509
f 509 508 510
f 509 510 511
f 511 510 512
f 511 512 513
f 513 512 514
f 513 514 515
f 515 514 516
f 515 516 517
f 517 516 518
f 517 518 519
f 519 518 520
f 519 520 521
f 521 520 522
f 521 522 523
f 523 522 524
f 523 524 525
f 525 524 526
f 525 526 527
f 527 526 528
f 527 528 529
f 529 528 530
f 529 530 531
f 531 530 532
f 531 532 533
f 533 532 534
f 533 534 535
f 535 534 536
f 535 536 537
f 537 536 538
f 537 538 539
f 539 538 540
f 539 540 541
f 541 540 542
f 541 542 543
f 543 542 544
f 543 544 545
f 545 544 546
f 545 546 547
f 547 546 548
f 547 548 549
f 549 548 550
f 549 550 551
f 551 550 552
f 551 552 553
f 553 552 554
f 553 554 555
f 555 554 556
f 555 556 557
f 557 556 558
f 557 558 559
f 559 558 560
f 559 560 561
f 561 560 562
f 561 562 563
f 563 562 564
f 563 564 565
f 565 564 566
f 565 566 567
f 567 566 568
f 567 568 569
f 569 568 570
f 569 570 571
f 571 570 572
f 571 572 573
f 573 572 574
f 573 574 575
f 575 574 576
f 575 576 577
f 577 576 578
f 577 578 579
f 579 578 580
f 579 580 581
f 581 580 582
f 581 582 583
f 583 582 584
f 583 584 585
f 585 584 586
f 585 586 587
f 587 586 588
f 587 588 589
f 589 588 590
f 589 590 591
f 591 590 592
f 591 592 593
f 593 592 594
f 593 594 595
f 595 594 596
f 595 596 597
f 597 596 598
f 597 598 599
f 599 598 600
f 599 600 601
f 601 600 602
f 601 602 603
f 603 602 604
f 603 604 605
f 605 604 606
f 605 606 607
f 607 606 608
f 607 608 609
f 609 608 610
f 609 610 611
f 611 610 612
f 611 612 613
f 613 612 614
f 613 614 615
f 615 614 616
f 615 616 617
f 617 616 618
f 617 618 619
f 619 618 620
f 619 620 621
f 621 620 622
f 621 622 623
f 623 622 624
f 623 624 625
f 625 624 626
f 625 626 627
f 627 626 628
f 627 628 629
f 629 628 630
f 629 630 631
f 631 630 632
f 631 632 633
f 633 632 634
f 633 634 635
f 635 634 636
f 635 636 637
f 637 636 638
f 637 638 639
f 639 638 640
f 639 640 641
f 641 640 642
f 641 642 643
f 643 642 644
f 643 644 645
f 645 644 646
f 645 646 647
f 647 646 648
f 647 648 649
f 649 648 650
f 649 650 651
f 651 650 652
f 651 652 653
f 653 652 654
f 653 654 655
f 655 654 656
f 657 658 659
f 658 657 660
f 658 660 661
f 661 660 662
f 661 662 663
f 663 662 664
f 664 662 665
f 664 665 666
f 666 665 667
f 666 667 668
f 668 667 669
f 668 669 670
f 670 669 671
f 670 671 672
f 672 671 673
f 672 673 674
f 674 673 675
f 674 675 676
f 676 675 677
f 676 677 678
f 678 677 679
f 678 679 680
f 680 679 681
f 680 681 682
f 682 681 683
f 682 683 684
f 684 683 685
f 684 685 686
f 686 685 687
f 686 687 688
f 688 687 689
f 688 689 690
f 690 689 691
f 690 691 692
f 692 691 693
f 692 693 694
f 694 693 695
f 694 695 696
f 696 695 697
f 696 697 698
f 698 697 699
f 698 699 700
f 700 699 701
f 700 701 702
f 702 701 703
f 702 703 704
f 704 703 705
f 704 705 706
f 706 705 707
f 706 707 708
f 708 707 709
f 708 709 710
f 710 709 711
f 710 711 712
f 712 711 713
f 712 713 714
f 714 713 715
f 714 715 716
f 716 715 717
f 716 717 718
f 718 717 719
f 718 719 720
f 720 719 721
f 720 721 722
f 722 721 723
f 722 723 724
f 724 723 725
f 724 725 726
f 726 725 727
f 726 727 728
f 728 727 729
f 728 729 730
f 730 729 731
f 730 731 732
f 732 731 733
f 732 733 734
f 734 733 735
f 734 735 736
f 736 735 737
f 736 737 738
f 738 737 739
f 738 739 740
f 740 739 741
f 740 741 742
f 742 741 743
f 742 743 744
f 744 743 745
f 744 745 746
f 746 745 747
f 746 747 748
f 748 747 749
f 748 749 750
f 750 749 751
f 750 751 752
f 752 751 753
f 752 753 754
f 754 753 755
f 754 755 756
f 756 755 757
f 756 757 758
f 758 757 759
f 758 759 760
f 760 759 761
f 760 761 762
f 762 761 763
f 762 763 764
f 764 763 765
f 764 765 766
f 766 765 767
f 766 767 768
f 768 767 769
f 768 769 770
f 770 769 771
f 770 771 772
f 772 771 773
f 772 773 774
f 772 774 775
f 775 774 776
f 775 776 777
f 777 776 778
f 777 778 779
f 779 778 780
f 780 778 781
f 780 781 782
f 780 782 783
f 783 782 784
f 783 784 785
f 785 784 2
f 785 2 786
f 786 2 787
f 787 2 788
f 788 2 789
f 789 2 790
f 790 2 791
f 791 2 792
f 792 2 793
f 793 2 794
f 794 2 795
f 795 2 796
f 796 2 797
f 797 2 798
f 798 2 799
f 799 2 800
f 800 2 801
f 801 2 802
f 802 2 803
f 803 2 23
