v 0.00000 0.00000 0.00000
v 0.03500 0.00000 0.00000
v 0.03329 0.01082 0.00000
v 0.02832 0.02057 0.00000
v 0.02057 0.02832 0.00000
v 0.01082 0.03329 0.00000
v 0.00000 0.03500 0.00000
v -0.01082 0.03329 0.00000
v -0.02057 0.02832 0.00000
v -0.02832 0.02057 0.00000
v -0.03329 0.01082 0.00000
v -0.03500 0.00000 0.00000
v -0.03329 -0.01082 0.00000
v -0.02832 -0.02057 0.00000
v -0.02057 -0.02832 0.00000
v -0.01082 -0.03329 0.00000
v -0.00000 -0.03500 0.00000
v 0.01082 -0.03329 0.00000
v 0.02057 -0.02832 0.00000
v 0.02832 -0.02057 0.00000
v 0.03329 -0.01082 0.00000
v 0.03500 0.00000 0.09500
v 0.03329 0.01082 0.09500
v 0.02832 0.02057 0.09500
v 0.02057 0.02832 0.09500
v 0.01082 0.03329 0.09500
v 0.00000 0.03500 0.09500
v -0.01082 0.03329 0.09500
v -0.02057 0.02832 0.09500
v -0.02832 0.02057 0.09500
v -0.03329 0.01082 0.09500
v -0.03500 0.00000 0.09500
v -0.03329 -0.01082 0.09500
v -0.02832 -0.02057 0.09500
v -0.02057 -0.02832 0.09500
v -0.01082 -0.03329 0.09500
v -0.00000 -0.03500 0.09500
v 0.01082 -0.03329 0.09500
v 0.02057 -0.02832 0.09500
v 0.02832 -0.02057 0.09500
v 0.03329 -0.01082 0.09500
v 0.03800 0.00000 0.10000
v 0.03614 0.01174 0.10000
v 0.03074 0.02234 0.10000
v 0.02234 0.03074 0.10000
v 0.01174 0.03614 0.10000
v 0.00000 0.03800 0.10000
v -0.01174 0.03614 0.10000
v -0.02234 0.03074 0.10000
v -0.03074 0.02234 0.10000
v -0.03614 0.01174 0.10000
v -0.03800 0.00000 0.10000
v -0.03614 -0.01174 0.10000
v -0.03074 -0.02234 0.10000
v -0.02234 -0.03074 0.10000
v -0.01174 -0.03614 0.10000
v -0.00000 -0.03800 0.10000
v 0.01174 -0.03614 0.10000
v 0.02234 -0.03074 0.10000
v 0.03074 -0.02234 0.10000
v 0.03614 -0.01174 0.10000
v 0.03300 0.00000 0.10000
v 0.03138 0.01020 0.10000
v 0.02670 0.01940 0.10000
v 0.01940 0.02670 0.10000
v 0.01020 0.03138 0.10000
v 0.00000 0.03300 0.10000
v -0.01020 0.03138 0.10000
v -0.01940 0.02670 0.10000
v -0.02670 0.01940 0.10000
v -0.03138 0.01020 0.10000
v -0.03300 0.00000 0.10000
v -0.03138 -0.01020 0.10000
v -0.02670 -0.01940 0.10000
v -0.01940 -0.02670 0.10000
v -0.01020 -0.03138 0.10000
v -0.00000 -0.03300 0.10000
v 0.01020 -0.03138 0.10000
v 0.01940 -0.02670 0.10000
v 0.02670 -0.01940 0.10000
v 0.03138 -0.01020 0.10000
v 0.03300 0.00000 0.00300
v 0.03138 0.01020 0.00300
v 0.02670 0.01940 0.00300
v 0.01940 0.02670 0.00300
v 0.01020 0.03138 0.00300
v 0.00000 0.03300 0.00300
v -0.01020 0.03138 0.00300
v -0.01940 0.02670 0.00300
v -0.02670 0.01940 0.00300
v -0.03138 0.01020 0.00300
v -0.03300 0.00000 0.00300
v -0.03138 -0.01020 0.00300
v -0.02670 -0.01940 0.00300
v -0.01940 -0.02670 0.00300
v -0.01020 -0.03138 0.00300
v -0.00000 -0.03300 0.00300
v 0.01020 -0.03138 0.00300
v 0.01940 -0.02670 0.00300
v 0.02670 -0.01940 0.00300
v 0.03138 -0.01020 0.00300
v 0.00000 0.00000 0.00300
f 1 3 2
f 1 4 3
f 1 5 4
f 1 6 5
f 1 7 6
f 1 8 7
f 1 9 8
f 1 10 9
f 1 11 10
f 1 12 11
f 1 13 12
f 1 14 13
f 1 15 14
f 1 16 15
f 1 17 16
f 1 18 17
f 1 19 18
f 1 20 19
f 1 21 20
f 1 2 21
f 2 3 23
f 2 23 22
f 3 4 24
f 3 24 23
f 4 5 25
f 4 25 24
f 5 6 26
f 5 26 25
f 6 7 27
f 6 27 26
f 7 8 28
f 7 28 27
f 8 9 29
f 8 29 28
f 9 10 30
f 9 30 29
f 10 11 31
f 10 31 30
f 11 12 32
f 11 32 31
f 12 13 33
f 12 33 32
f 13 14 34
f 13 34 33
f 14 15 35
f 14 35 34
f 15 16 36
f 15 36 35
f 16 17 37
f 16 37 36
f 17 18 38
f 17 38 37
f 18 19 39
f 18 39 38
f 19 20 40
f 19 40 39
f 20 21 41
f 20 41 40
f 21 2 22
f 21 22 41
f 22 23 43
f 22 43 42
f 23 24 44
f 23 44 43
f 24 25 45
f 24 45 44
f 25 26 46
f 25 46 45
f 26 27 47
f 26 47 46
f 27 28 48
f 27 48 47
f 28 29 49
f 28 49 48
f 29 30 50
f 29 50 49
f 30 31 51
f 30 51 50
f 31 32 52
f 31 52 51
f 32 33 53
f 32 53 52
f 33 34 54
f 33 54 53
f 34 35 55
f 34 55 54
f 35 36 56
f 35 56 55
f 36 37 57
f 36 57 56
f 37 38 58
f 37 58 57
f 38 39 59
f 38 59 58
f 39 40 60
f 39 60 59
f 40 41 61
f 40 61 60
f 41 22 42
f 41 42 61
f 42 43 63
f 42 63 62
f 43 44 64
f 43 64 63
f 44 45 65
f 44 65 64
f 45 46 66
f 45 66 65
f 46 47 67
f 46 67 66
f 47 48 68
f 47 68 67
f 48 49 69
f 48 69 68
f 49 50 70
f 49 70 69
f 50 51 71
f 50 71 70
f 51 52 72
f 51 72 71
f 52 53 73
f 52 73 72
f 53 54 74
f 53 74 73
f 54 55 75
f 54 75 74
f 55 56 76
f 55 76 75
f 56 57 77
f 56 77 76
f 57 58 78
f 57 78 77
f 58 59 79
f 58 79 78
f 59 60 80
f 59 80 79
f 60 61 81
f 60 81 80
f 61 42 62
f 61 62 81
f 62 63 83
f 62 83 82
f 63 64 84
f 63 84 83
f 64 65 85
f 64 85 84
f 65 66 86
f 65 86 85
f 66 67 87
f 66 87 86
f 67 68 88
f 67 88 87
f 68 69 89
f 68 89 88
f 69 70 90
f 69 90 89
f 70 71 91
f 70 91 90
f 71 72 92
f 71 92 91
f 72 73 93
f 72 93 92
f 73 74 94
f 73 94 93
f 74 75 95
f 74 95 94
f 75 76 96
f 75 96 95
f 76 77 97
f 76 97 96
f 77 78 98
f 77 98 97
f 78 79 99
f 78 99 98
f 79 80 100
f 79 100 99
f 80 81 101
f 80 101 100
f 81 62 82
f 81 82 101
f 82 83 102
f 83 84 102
f 84 85 102
f 85 86 102
f 86 87 102
f 87 88 102
f 88 89 102
f 89 90 102
f 90 91 102
f 91 92 102
f 92 93 102
f 93 94 102
f 94 95 102
f 95 96 102
f 96 97 102
f 97 98 102
f 98 99 102
f 99 100 102
f 100 101 102
f 101 82 102
