v 0.00000 0.00000 0.00000
v 0.17000 0.00000 0.00000
v 0.16421 0.04400 0.00000
v 0.14722 0.08500 0.00000
v 0.12021 0.12021 0.00000
v 0.08500 0.14722 0.00000
v 0.04400 0.16421 0.00000
v 0.00000 0.17000 0.00000
v -0.04400 0.16421 0.00000
v -0.08500 0.14722 0.00000
v -0.12021 0.12021 0.00000
v -0.14722 0.08500 0.00000
v -0.16421 0.04400 0.00000
v -0.17000 0.00000 0.00000
v -0.16421 -0.04400 0.00000
v -0.14722 -0.08500 0.00000
v -0.12021 -0.12021 0.00000
v -0.08500 -0.14722 0.00000
v -0.04400 -0.16421 0.00000
v -0.00000 -0.17000 0.00000
v 0.04400 -0.16421 0.00000
v 0.08500 -0.14722 0.00000
v 0.12021 -0.12021 0.00000
v 0.14722 -0.08500 0.00000
v 0.16421 -0.04400 0.00000
v 0.20000 0.00000 0.62000
v 0.19319 0.05176 0.62000
v 0.17321 0.10000 0.62000
v 0.14142 0.14142 0.62000
v 0.10000 0.17321 0.62000
v 0.05176 0.19319 0.62000
v 0.00000 0.20000 0.62000
v -0.05176 0.19319 0.62000
v -0.10000 0.17321 0.62000
v -0.14142 0.14142 0.62000
v -0.17321 0.10000 0.62000
v -0.19319 0.05176 0.62000
v -0.20000 0.00000 0.62000
v -0.19319 -0.05176 0.62000
v -0.17321 -0.10000 0.62000
v -0.14142 -0.14142 0.62000
v -0.10000 -0.17321 0.62000
v -0.05176 -0.19319 0.62000
v -0.00000 -0.20000 0.62000
v 0.05176 -0.19319 0.62000
v 0.10000 -0.17321 0.62000
v 0.14142 -0.14142 0.62000
v 0.17321 -0.10000 0.62000
v 0.19319 -0.05176 0.62000
v 0.00000 0.00000 0.62000
f 1 3 2
f 1 4 3
f 1 5 4
f 1 6 5
f 1 7 6
f 1 8 7
f 1 9 8
f 1 10 9
f 1 11 10
f 1 12 11
f 1 13 12
f 1 14 13
f 1 15 14
f 1 16 15
f 1 17 16
f 1 18 17
f 1 19 18
f 1 20 19
f 1 21 20
f 1 22 21
f 1 23 22
f 1 24 23
f 1 25 24
f 1 2 25
f 2 3 27
f 2 27 26
f 3 4 28
f 3 28 27
f 4 5 29
f 4 29 28
f 5 6 30
f 5 30 29
f 6 7 31
f 6 31 30
f 7 8 32
f 7 32 31
f 8 9 33
f 8 33 32
f 9 10 34
f 9 34 33
f 10 11 35
f 10 35 34
f 11 12 36
f 11 36 35
f 12 13 37
f 12 37 36
f 13 14 38
f 13 38 37
f 14 15 39
f 14 39 38
f 15 16 40
f 15 40 39
f 16 17 41
f 16 41 40
f 17 18 42
f 17 42 41
f 18 19 43
f 18 43 42
f 19 20 44
f 19 44 43
f 20 21 45
f 20 45 44
f 21 22 46
f 21 46 45
f 22 23 47
f 22 47 46
f 23 24 48
f 23 48 47
f 24 25 49
f 24 49 48
f 25 2 26
f 25 26 49
f 26 27 50
f 27 28 50
f 28 29 50
f 29 30 50
f 30 31 50
f 31 32 50
f 32 33 50
f 33 34 50
f 34 35 50
f 35 36 50
f 36 37 50
f 37 38 50
f 38 39 50
f 39 40 50
f 40 41 50
f 41 42 50
f 42 43 50
f 43 44 50
f 44 45 50
f 45 46 50
f 46 47 50
f 47 48 50
f 48 49 50
f 49 26 50
