v 0.00000 0.00000 0.00000
v 0.21000 0.00000 0.00000
v 0.20284 0.05435 0.00000
v 0.18187 0.10500 0.00000
v 0.14849 0.14849 0.00000
v 0.10500 0.18187 0.00000
v 0.05435 0.20284 0.00000
v 0.00000 0.21000 0.00000
v -0.05435 0.20284 0.00000
v -0.10500 0.18187 0.00000
v -0.14849 0.14849 0.00000
v -0.18187 0.10500 0.00000
v -0.20284 0.05435 0.00000
v -0.21000 0.00000 0.00000
v -0.20284 -0.05435 0.00000
v -0.18187 -0.10500 0.00000
v -0.14849 -0.14849 0.00000
v -0.10500 -0.18187 0.00000
v -0.05435 -0.20284 0.00000
v -0.00000 -0.21000 0.00000
v 0.05435 -0.20284 0.00000
v 0.10500 -0.18187 0.00000
v 0.14849 -0.14849 0.00000
v 0.18187 -0.10500 0.00000
v 0.20284 -0.05435 0.00000
v 0.21000 0.00000 0.01000
v 0.20284 0.05435 0.01000
v 0.18187 0.10500 0.01000
v 0.14849 0.14849 0.01000
v 0.10500 0.18187 0.01000
v 0.05435 0.20284 0.01000
v 0.00000 0.21000 0.01000
v -0.05435 0.20284 0.01000
v -0.10500 0.18187 0.01000
v -0.14849 0.14849 0.01000
v -0.18187 0.10500 0.01000
v -0.20284 0.05435 0.01000
v -0.21000 0.00000 0.01000
v -0.20284 -0.05435 0.01000
v -0.18187 -0.10500 0.01000
v -0.14849 -0.14849 0.01000
v -0.10500 -0.18187 0.01000
v -0.05435 -0.20284 0.01000
v -0.00000 -0.21000 0.01000
v 0.05435 -0.20284 0.01000
v 0.10500 -0.18187 0.01000
v 0.14849 -0.14849 0.01000
v 0.18187 -0.10500 0.01000
v 0.20284 -0.05435 0.01000
v 0.08000 0.00000 0.04500
v 0.07727 0.02071 0.04500
v 0.06928 0.04000 0.04500
v 0.05657 0.05657 0.04500
v 0.04000 0.06928 0.04500
v 0.02071 0.07727 0.04500
v 0.00000 0.08000 0.04500
v -0.02071 0.07727 0.04500
v -0.04000 0.06928 0.04500
v -0.05657 0.05657 0.04500
v -0.06928 0.04000 0.04500
v -0.07727 0.02071 0.04500
v -0.08000 0.00000 0.04500
v -0.07727 -0.02071 0.04500
v -0.06928 -0.04000 0.04500
v -0.05657 -0.05657 0.04500
v -0.04000 -0.06928 0.04500
v -0.02071 -0.07727 0.04500
v -0.00000 -0.08000 0.04500
v 0.02071 -0.07727 0.04500
v 0.04000 -0.06928 0.04500
v 0.05657 -0.05657 0.04500
v 0.06928 -0.04000 0.04500
v 0.07727 -0.02071 0.04500
v 0.00000 0.00000 0.05000
f 1 3 2
f 1 4 3
f 1 5 4
f 1 6 5
f 1 7 6
f 1 8 7
f 1 9 8
f 1 10 9
f 1 11 10
f 1 12 11
f 1 13 12
f 1 14 13
f 1 15 14
f 1 16 15
f 1 17 16
f 1 18 17
f 1 19 18
f 1 20 19
f 1 21 20
f 1 22 21
f 1 23 22
f 1 24 23
f 1 25 24
f 1 2 25
f 2 3 27
f 2 27 26
f 3 4 28
f 3 28 27
f 4 5 29
f 4 29 28
f 5 6 30
f 5 30 29
f 6 7 31
f 6 31 30
f 7 8 32
f 7 32 31
f 8 9 33
f 8 33 32
f 9 10 34
f 9 34 33
f 10 11 35
f 10 35 34
f 11 12 36
f 11 36 35
f 12 13 37
f 12 37 36
f 13 14 38
f 13 38 37
f 14 15 39
f 14 39 38
f 15 16 40
f 15 40 39
f 16 17 41
f 16 41 40
f 17 18 42
f 17 42 41
f 18 19 43
f 18 43 42
f 19 20 44
f 19 44 43
f 20 21 45
f 20 45 44
f 21 22 46
f 21 46 45
f 22 23 47
f 22 47 46
f 23 24 48
f 23 48 47
f 24 25 49
f 24 49 48
f 25 2 26
f 25 26 49
f 26 27 51
f 26 51 50
f 27 28 52
f 27 52 51
f 28 29 53
f 28 53 52
f 29 30 54
f 29 54 53
f 30 31 55
f 30 55 54
f 31 32 56
f 31 56 55
f 32 33 57
f 32 57 56
f 33 34 58
f 33 58 57
f 34 35 59
f 34 59 58
f 35 36 60
f 35 60 59
f 36 37 61
f 36 61 60
f 37 38 62
f 37 62 61
f 38 39 63
f 38 63 62
f 39 40 64
f 39 64 63
f 40 41 65
f 40 65 64
f 41 42 66
f 41 66 65
f 42 43 67
f 42 67 66
f 43 44 68
f 43 68 67
f 44 45 69
f 44 69 68
f 45 46 70
f 45 70 69
f 46 47 71
f 46 71 70
f 47 48 72
f 47 72 71
f 48 49 73
f 48 73 72
f 49 26 50
f 49 50 73
f 50 51 74
f 51 52 74
f 52 53 74
f 53 54 74
f 54 55 74
f 55 56 74
f 56 57 74
f 57 58 74
f 58 59 74
f 59 60 74
f 60 61 74
f 61 62 74
f 62 63 74
f 63 64 74
f 64 65 74
f 65 66 74
f 66 67 74
f 67 68 74
f 68 69 74
f 69 70 74
f 70 71 74
f 71 72 74
f 72 73 74
f 73 50 74
