v 0.00000 0.00000 0.00000
v 0.22000 0.00000 0.00000
v 0.21448 0.04895 0.00000
v 0.19821 0.09545 0.00000
v 0.17200 0.13717 0.00000
v 0.13717 0.17200 0.00000
v 0.09545 0.19821 0.00000
v 0.04895 0.21448 0.00000
v 0.00000 0.22000 0.00000
v -0.04895 0.21448 0.00000
v -0.09545 0.19821 0.00000
v -0.13717 0.17200 0.00000
v -0.17200 0.13717 0.00000
v -0.19821 0.09545 0.00000
v -0.21448 0.04895 0.00000
v -0.22000 0.00000 0.00000
v -0.21448 -0.04895 0.00000
v -0.19821 -0.09545 0.00000
v -0.17200 -0.13717 0.00000
v -0.13717 -0.17200 0.00000
v -0.09545 -0.19821 0.00000
v -0.04895 -0.21448 0.00000
v -0.00000 -0.22000 0.00000
v 0.04895 -0.21448 0.00000
v 0.09545 -0.19821 0.00000
v 0.13717 -0.17200 0.00000
v 0.17200 -0.13717 0.00000
v 0.19821 -0.09545 0.00000
v 0.21448 -0.04895 0.00000
v 0.22000 0.00000 0.62000
v 0.21448 0.04895 0.62000
v 0.19821 0.09545 0.62000
v 0.17200 0.13717 0.62000
v 0.13717 0.17200 0.62000
v 0.09545 0.19821 0.62000
v 0.04895 0.21448 0.62000
v 0.00000 0.22000 0.62000
v -0.04895 0.21448 0.62000
v -0.09545 0.19821 0.62000
v -0.13717 0.17200 0.62000
v -0.17200 0.13717 0.62000
v -0.19821 0.09545 0.62000
v -0.21448 0.04895 0.62000
v -0.22000 0.00000 0.62000
v -0.21448 -0.04895 0.62000
v -0.19821 -0.09545 0.62000
v -0.17200 -0.13717 0.62000
v -0.13717 -0.17200 0.62000
v -0.09545 -0.19821 0.62000
v -0.04895 -0.21448 0.62000
v -0.00000 -0.22000 0.62000
v 0.04895 -0.21448 0.62000
v 0.09545 -0.19821 0.62000
v 0.13717 -0.17200 0.62000
v 0.17200 -0.13717 0.62000
v 0.19821 -0.09545 0.62000
v 0.21448 -0.04895 0.62000
v 0.00000 0.00000 0.62000
f 1 3 2
f 1 4 3
f 1 5 4
f 1 6 5
f 1 7 6
f 1 8 7
f 1 9 8
f 1 10 9
f 1 11 10
f 1 12 11
f 1 13 12
f 1 14 13
f 1 15 14
f 1 16 15
f 1 17 16
f 1 18 17
f 1 19 18
f 1 20 19
f 1 21 20
f 1 22 21
f 1 23 22
f 1 24 23
f 1 25 24
f 1 26 25
f 1 27 26
f 1 28 27
f 1 29 28
f 1 2 29
f 2 3 31
f 2 31 30
f 3 4 32
f 3 32 31
f 4 5 33
f 4 33 32
f 5 6 34
f 5 34 33
f 6 7 35
f 6 35 34
f 7 8 36
f 7 36 35
f 8 9 37
f 8 37 36
f 9 10 38
f 9 38 37
f 10 11 39
f 10 39 38
f 11 12 40
f 11 40 39
f 12 13 41
f 12 41 40
f 13 14 42
f 13 42 41
f 14 15 43
f 14 43 42
f 15 16 44
f 15 44 43
f 16 17 45
f 16 45 44
f 17 18 46
f 17 46 45
f 18 19 47
f 18 47 46
f 19 20 48
f 19 48 47
f 20 21 49
f 20 49 48
f 21 22 50
f 21 50 49
f 22 23 51
f 22 51 50
f 23 24 52
f 23 52 51
f 24 25 53
f 24 53 52
f 25 26 54
f 25 54 53
f 26 27 55
f 26 55 54
f 27 28 56
f 27 56 55
f 28 29 57
f 28 57 56
f 29 2 30
f 29 30 57
f 30 31 58
f 31 32 58
f 32 33 58
f 33 34 58
f 34 35 58
f 35 36 58
f 36 37 58
f 37 38 58
f 38 39 58
f 39 40 58
f 40 41 58
f 41 42 58
f 42 43 58
f 43 44 58
f 44 45 58
f 45 46 58
f 46 47 58
f 47 48 58
f 48 49 58
f 49 50 58
f 50 51 58
f 51 52 58
f 52 53 58
f 53 54 58
f 54 55 58
f 55 56 58
f 56 57 58
f 57 30 58
