v -0.41100 -0.25370 0.03000
v -0.36300 -0.25370 0.03000
v -0.41100 -0.25250 0.03000
v -0.36300 -0.25250 0.03000
v -0.41100 -0.25370 0.09400
v -0.36300 -0.25370 0.09400
v -0.41100 -0.25250 0.09400
v -0.36300 -0.25250 0.09400
v -0.32500 -0.25370 0.03000
v -0.27700 -0.25370 0.03000
v -0.32500 -0.25250 0.03000
v -0.27700 -0.25250 0.03000
v -0.32500 -0.25370 0.09400
v -0.27700 -0.25370 0.09400
v -0.32500 -0.25250 0.09400
v -0.27700 -0.25250 0.09400
v -0.23900 -0.25370 0.03000
v -0.19100 -0.25370 0.03000
v -0.23900 -0.25250 0.03000
v -0.19100 -0.25250 0.03000
v -0.23900 -0.25370 0.09400
v -0.19100 -0.25370 0.09400
v -0.23900 -0.25250 0.09400
v -0.19100 -0.25250 0.09400
v -0.15300 -0.25370 0.03000
v -0.10500 -0.25370 0.03000
v -0.15300 -0.25250 0.03000
v -0.10500 -0.25250 0.03000
v -0.15300 -0.25370 0.09400
v -0.10500 -0.25370 0.09400
v -0.15300 -0.25250 0.09400
v -0.10500 -0.25250 0.09400
v -0.06700 -0.25370 0.03000
v -0.01900 -0.25370 0.03000
v -0.06700 -0.25250 0.03000
v -0.01900 -0.25250 0.03000
v -0.06700 -0.25370 0.09400
v -0.01900 -0.25370 0.09400
v -0.06700 -0.25250 0.09400
v -0.01900 -0.25250 0.09400
v 0.01900 -0.25370 0.03000
v 0.06700 -0.25370 0.03000
v 0.01900 -0.25250 0.03000
v 0.06700 -0.25250 0.03000
v 0.01900 -0.25370 0.09400
v 0.06700 -0.25370 0.09400
v 0.01900 -0.25250 0.09400
v 0.06700 -0.25250 0.09400
v 0.10500 -0.25370 0.03000
v 0.15300 -0.25370 0.03000
v 0.10500 -0.25250 0.03000
v 0.15300 -0.25250 0.03000
v 0.10500 -0.25370 0.09400
v 0.15300 -0.25370 0.09400
v 0.10500 -0.25250 0.09400
v 0.15300 -0.25250 0.09400
v 0.19100 -0.25370 0.03000
v 0.23900 -0.25370 0.03000
v 0.19100 -0.25250 0.03000
v 0.23900 -0.25250 0.03000
v 0.19100 -0.25370 0.09400
v 0.23900 -0.25370 0.09400
v 0.19100 -0.25250 0.09400
v 0.23900 -0.25250 0.09400
v 0.27700 -0.25370 0.03000
v 0.32500 -0.25370 0.03000
v 0.27700 -0.25250 0.03000
v 0.32500 -0.25250 0.03000
v 0.27700 -0.25370 0.09400
v 0.32500 -0.25370 0.09400
v 0.27700 -0.25250 0.09400
v 0.32500 -0.25250 0.09400
v 0.36300 -0.25370 0.03000
v 0.41100 -0.25370 0.03000
v 0.36300 -0.25250 0.03000
v 0.41100 -0.25250 0.03000
v 0.36300 -0.25370 0.09400
v 0.41100 -0.25370 0.09400
v 0.36300 -0.25250 0.09400
v 0.41100 -0.25250 0.09400
f 1 3 2
f 2 3 4
f 5 6 7
f 6 8 7
f 1 2 5
f 2 6 5
f 3 7 4
f 4 7 8
f 1 5 3
f 3 5 7
f 2 4 6
f 4 8 6
f 9 11 10
f 10 11 12
f 13 14 15
f 14 16 15
f 9 10 13
f 10 14 13
f 11 15 12
f 12 15 16
f 9 13 11
f 11 13 15
f 10 12 14
f 12 16 14
f 17 19 18
f 18 19 20
f 21 22 23
f 22 24 23
f 17 18 21
f 18 22 21
f 19 23 20
f 20 23 24
f 17 21 19
f 19 21 23
f 18 20 22
f 20 24 22
f 25 27 26
f 26 27 28
f 29 30 31
f 30 32 31
f 25 26 29
f 26 30 29
f 27 31 28
f 28 31 32
f 25 29 27
f 27 29 31
f 26 28 30
f 28 32 30
f 33 35 34
f 34 35 36
f 37 38 39
f 38 40 39
f 33 34 37
f 34 38 37
f 35 39 36
f 36 39 40
f 33 37 35
f 35 37 39
f 34 36 38
f 36 40 38
f 41 43 42
f 42 43 44
f 45 46 47
f 46 48 47
f 41 42 45
f 42 46 45
f 43 47 44
f 44 47 48
f 41 45 43
f 43 45 47
f 42 44 46
f 44 48 46
f 49 51 50
f 50 51 52
f 53 54 55
f 54 56 55
f 49 50 53
f 50 54 53
f 51 55 52
f 52 55 56
f 49 53 51
f 51 53 55
f 50 52 54
f 52 56 54
f 57 59 58
f 58 59 60
f 61 62 63
f 62 64 63
f 57 58 61
f 58 62 61
f 59 63 60
f 60 63 64
f 57 61 59
f 59 61 63
f 58 60 62
f 60 64 62
f 65 67 66
f 66 67 68
f 69 70 71
f 70 72 71
f 65 66 69
f 66 70 69
f 67 71 68
f 68 71 72
f 65 69 67
f 67 69 71
f 66 68 70
f 68 72 70
f 73 75 74
f 74 75 76
f 77 78 79
f 78 80 79
f 73 74 77
f 74 78 77
f 75 79 76
f 76 79 80
f 73 77 75
f 75 77 79
f 74 76 78
f 76 80 78
