v -0.47300 -0.21500 0.15700
v -0.45550 -0.21500 0.15700
v -0.45884 -0.20471 0.15700
v -0.46759 -0.19836 0.15700
v -0.47841 -0.19836 0.15700
v -0.48716 -0.20471 0.15700
v -0.49050 -0.21500 0.15700
v -0.48716 -0.22529 0.15700
v -0.47841 -0.23164 0.15700
v -0.46759 -0.23164 0.15700
v -0.45884 -0.22529 0.15700
v -0.45550 -0.21500 0.18200
v -0.45884 -0.20471 0.18200
v -0.46759 -0.19836 0.18200
v -0.47841 -0.19836 0.18200
v -0.48716 -0.20471 0.18200
v -0.49050 -0.21500 0.18200
v -0.48716 -0.22529 0.18200
v -0.47841 -0.23164 0.18200
v -0.46759 -0.23164 0.18200
v -0.45884 -0.22529 0.18200
v -0.47300 -0.21500 0.18200
v -0.38700 -0.21500 0.15700
v -0.36950 -0.21500 0.15700
v -0.37284 -0.20471 0.15700
v -0.38159 -0.19836 0.15700
v -0.39241 -0.19836 0.15700
v -0.40116 -0.20471 0.15700
v -0.40450 -0.21500 0.15700
v -0.40116 -0.22529 0.15700
v -0.39241 -0.23164 0.15700
v -0.38159 -0.23164 0.15700
v -0.37284 -0.22529 0.15700
v -0.36950 -0.21500 0.18200
v -0.37284 -0.20471 0.18200
v -0.38159 -0.19836 0.18200
v -0.39241 -0.19836 0.18200
v -0.40116 -0.20471 0.18200
v -0.40450 -0.21500 0.18200
v -0.40116 -0.22529 0.18200
v -0.39241 -0.23164 0.18200
v -0.38159 -0.23164 0.18200
v -0.37284 -0.22529 0.18200
v -0.38700 -0.21500 0.18200
v -0.30100 -0.21500 0.15700
v -0.28350 -0.21500 0.15700
v -0.28684 -0.20471 0.15700
v -0.29559 -0.19836 0.15700
v -0.30641 -0.19836 0.15700
v -0.31516 -0.20471 0.15700
v -0.31850 -0.21500 0.15700
v -0.31516 -0.22529 0.15700
v -0.30641 -0.23164 0.15700
v -0.29559 -0.23164 0.15700
v -0.28684 -0.22529 0.15700
v -0.28350 -0.21500 0.18200
v -0.28684 -0.20471 0.18200
v -0.29559 -0.19836 0.18200
v -0.30641 -0.19836 0.18200
v -0.31516 -0.20471 0.18200
v -0.31850 -0.21500 0.18200
v -0.31516 -0.22529 0.18200
v -0.30641 -0.23164 0.18200
v -0.29559 -0.23164 0.18200
v -0.28684 -0.22529 0.18200
v -0.30100 -0.21500 0.18200
v -0.12900 -0.21500 0.15700
v -0.11150 -0.21500 0.15700
v -0.11484 -0.20471 0.15700
v -0.12359 -0.19836 0.15700
v -0.13441 -0.19836 0.15700
v -0.14316 -0.20471 0.15700
v -0.14650 -0.21500 0.15700
v -0.14316 -0.22529 0.15700
v -0.13441 -0.23164 0.15700
v -0.12359 -0.23164 0.15700
v -0.11484 -0.22529 0.15700
v -0.11150 -0.21500 0.18200
v -0.11484 -0.20471 0.18200
v -0.12359 -0.19836 0.18200
v -0.13441 -0.19836 0.18200
v -0.14316 -0.20471 0.18200
v -0.14650 -0.21500 0.18200
v -0.14316 -0.22529 0.18200
v -0.13441 -0.23164 0.18200
v -0.12359 -0.23164 0.18200
v -0.11484 -0.22529 0.18200
v -0.12900 -0.21500 0.18200
v -0.04300 -0.21500 0.15700
v -0.02550 -0.21500 0.15700
v -0.02884 -0.20471 0.15700
v -0.03759 -0.19836 0.15700
v -0.04841 -0.19836 0.15700
v -0.05716 -0.20471 0.15700
v -0.06050 -0.21500 0.15700
v -0.05716 -0.22529 0.15700
v -0.04841 -0.23164 0.15700
v -0.03759 -0.23164 0.15700
v -0.02884 -0.22529 0.15700
v -0.02550 -0.21500 0.18200
v -0.02884 -0.20471 0.18200
v -0.03759 -0.19836 0.18200
v -0.04841 -0.19836 0.18200
v -0.05716 -0.20471 0.18200
v -0.06050 -0.21500 0.18200
v -0.05716 -0.22529 0.18200
v -0.04841 -0.23164 0.18200
v -0.03759 -0.23164 0.18200
v -0.02884 -0.22529 0.18200
v -0.04300 -0.21500 0.18200
v 0.04300 -0.21500 0.15700
v 0.06050 -0.21500 0.15700
v 0.05716 -0.20471 0.15700
v 0.04841 -0.19836 0.15700
v 0.03759 -0.19836 0.15700
v 0.02884 -0.20471 0.15700
v 0.02550 -0.21500 0.15700
v 0.02884 -0.22529 0.15700
v 0.03759 -0.23164 0.15700
v 0.04841 -0.23164 0.15700
v 0.05716 -0.22529 0.15700
v 0.06050 -0.21500 0.18200
v 0.05716 -0.20471 0.18200
v 0.04841 -0.19836 0.18200
v 0.03759 -0.19836 0.18200
v 0.02884 -0.20471 0.18200
v 0.02550 -0.21500 0.18200
v 0.02884 -0.22529 0.18200
v 0.03759 -0.23164 0.18200
v 0.04841 -0.23164 0.18200
v 0.05716 -0.22529 0.18200
v 0.04300 -0.21500 0.18200
v 0.12900 -0.21500 0.15700
v 0.14650 -0.21500 0.15700
v 0.14316 -0.20471 0.15700
v 0.13441 -0.19836 0.15700
v 0.12359 -0.19836 0.15700
v 0.11484 -0.20471 0.15700
v 0.11150 -0.21500 0.15700
v 0.11484 -0.22529 0.15700
v 0.12359 -0.23164 0.15700
v 0.13441 -0.23164 0.15700
v 0.14316 -0.22529 0.15700
v 0.14650 -0.21500 0.18200
v 0.14316 -0.20471 0.18200
v 0.13441 -0.19836 0.18200
v 0.12359 -0.19836 0.18200
v 0.11484 -0.20471 0.18200
v 0.11150 -0.21500 0.18200
v 0.11484 -0.22529 0.18200
v 0.12359 -0.23164 0.18200
v 0.13441 -0.23164 0.18200
v 0.14316 -0.22529 0.18200
v 0.12900 -0.21500 0.18200
v 0.21500 -0.21500 0.15700
v 0.23250 -0.21500 0.15700
v 0.22916 -0.20471 0.15700
v 0.22041 -0.19836 0.15700
v 0.20959 -0.19836 0.15700
v 0.20084 -0.20471 0.15700
v 0.19750 -0.21500 0.15700
v 0.20084 -0.22529 0.15700
v 0.20959 -0.23164 0.15700
v 0.22041 -0.23164 0.15700
v 0.22916 -0.22529 0.15700
v 0.23250 -0.21500 0.18200
v 0.22916 -0.20471 0.18200
v 0.22041 -0.19836 0.18200
v 0.20959 -0.19836 0.18200
v 0.20084 -0.20471 0.18200
v 0.19750 -0.21500 0.18200
v 0.20084 -0.22529 0.18200
v 0.20959 -0.23164 0.18200
v 0.22041 -0.23164 0.18200
v 0.22916 -0.22529 0.18200
v 0.21500 -0.21500 0.18200
v 0.30100 -0.21500 0.15700
v 0.31850 -0.21500 0.15700
v 0.31516 -0.20471 0.15700
v 0.30641 -0.19836 0.15700
v 0.29559 -0.19836 0.15700
v 0.28684 -0.20471 0.15700
v 0.28350 -0.21500 0.15700
v 0.28684 -0.22529 0.15700
v 0.29559 -0.23164 0.15700
v 0.30641 -0.23164 0.15700
v 0.31516 -0.22529 0.15700
v 0.31850 -0.21500 0.18200
v 0.31516 -0.20471 0.18200
v 0.30641 -0.19836 0.18200
v 0.29559 -0.19836 0.18200
v 0.28684 -0.20471 0.18200
v 0.28350 -0.21500 0.18200
v 0.28684 -0.22529 0.18200
v 0.29559 -0.23164 0.18200
v 0.30641 -0.23164 0.18200
v 0.31516 -0.22529 0.18200
v 0.30100 -0.21500 0.18200
v 0.38700 -0.21500 0.15700
v 0.40450 -0.21500 0.15700
v 0.40116 -0.20471 0.15700
v 0.39241 -0.19836 0.15700
v 0.38159 -0.19836 0.15700
v 0.37284 -0.20471 0.15700
v 0.36950 -0.21500 0.15700
v 0.37284 -0.22529 0.15700
v 0.38159 -0.23164 0.15700
v 0.39241 -0.23164 0.15700
v 0.40116 -0.22529 0.15700
v 0.40450 -0.21500 0.18200
v 0.40116 -0.20471 0.18200
v 0.39241 -0.19836 0.18200
v 0.38159 -0.19836 0.18200
v 0.37284 -0.20471 0.18200
v 0.36950 -0.21500 0.18200
v 0.37284 -0.22529 0.18200
v 0.38159 -0.23164 0.18200
v 0.39241 -0.23164 0.18200
v 0.40116 -0.22529 0.18200
v 0.38700 -0.21500 0.18200
v 0.47300 -0.21500 0.15700
v 0.49050 -0.21500 0.15700
v 0.48716 -0.20471 0.15700
v 0.47841 -0.19836 0.15700
v 0.46759 -0.19836 0.15700
v 0.45884 -0.20471 0.15700
v 0.45550 -0.21500 0.15700
v 0.45884 -0.22529 0.15700
v 0.46759 -0.23164 0.15700
v 0.47841 -0.23164 0.15700
v 0.48716 -0.22529 0.15700
v 0.49050 -0.21500 0.18200
v 0.48716 -0.20471 0.18200
v 0.47841 -0.19836 0.18200
v 0.46759 -0.19836 0.18200
v 0.45884 -0.20471 0.18200
v 0.45550 -0.21500 0.18200
v 0.45884 -0.22529 0.18200
v 0.46759 -0.23164 0.18200
v 0.47841 -0.23164 0.18200
v 0.48716 -0.22529 0.18200
v 0.47300 -0.21500 0.18200
v -0.43000 -0.12500 0.15700
v -0.41250 -0.12500 0.15700
v -0.41584 -0.11471 0.15700
v -0.42459 -0.10836 0.15700
v -0.43541 -0.10836 0.15700
v -0.44416 -0.11471 0.15700
v -0.44750 -0.12500 0.15700
v -0.44416 -0.13529 0.15700
v -0.43541 -0.14164 0.15700
v -0.42459 -0.14164 0.15700
v -0.41584 -0.13529 0.15700
v -0.41250 -0.12500 0.18200
v -0.41584 -0.11471 0.18200
v -0.42459 -0.10836 0.18200
v -0.43541 -0.10836 0.18200
v -0.44416 -0.11471 0.18200
v -0.44750 -0.12500 0.18200
v -0.44416 -0.13529 0.18200
v -0.43541 -0.14164 0.18200
v -0.42459 -0.14164 0.18200
v -0.41584 -0.13529 0.18200
v -0.43000 -0.12500 0.18200
v -0.34400 -0.12500 0.15700
v -0.32650 -0.12500 0.15700
v -0.32984 -0.11471 0.15700
v -0.33859 -0.10836 0.15700
v -0.34941 -0.10836 0.15700
v -0.35816 -0.11471 0.15700
v -0.36150 -0.12500 0.15700
v -0.35816 -0.13529 0.15700
v -0.34941 -0.14164 0.15700
v -0.33859 -0.14164 0.15700
v -0.32984 -0.13529 0.15700
v -0.32650 -0.12500 0.18200
v -0.32984 -0.11471 0.18200
v -0.33859 -0.10836 0.18200
v -0.34941 -0.10836 0.18200
v -0.35816 -0.11471 0.18200
v -0.36150 -0.12500 0.18200
v -0.35816 -0.13529 0.18200
v -0.34941 -0.14164 0.18200
v -0.33859 -0.14164 0.18200
v -0.32984 -0.13529 0.18200
v -0.34400 -0.12500 0.18200
v -0.25800 -0.12500 0.15700
v -0.24050 -0.12500 0.15700
v -0.24384 -0.11471 0.15700
v -0.25259 -0.10836 0.15700
v -0.26341 -0.10836 0.15700
v -0.27216 -0.11471 0.15700
v -0.27550 -0.12500 0.15700
v -0.27216 -0.13529 0.15700
v -0.26341 -0.14164 0.15700
v -0.25259 -0.14164 0.15700
v -0.24384 -0.13529 0.15700
v -0.24050 -0.12500 0.18200
v -0.24384 -0.11471 0.18200
v -0.25259 -0.10836 0.18200
v -0.26341 -0.10836 0.18200
v -0.27216 -0.11471 0.18200
v -0.27550 -0.12500 0.18200
v -0.27216 -0.13529 0.18200
v -0.26341 -0.14164 0.18200
v -0.25259 -0.14164 0.18200
v -0.24384 -0.13529 0.18200
v -0.25800 -0.12500 0.18200
v -0.17200 -0.12500 0.15700
v -0.15450 -0.12500 0.15700
v -0.15784 -0.11471 0.15700
v -0.16659 -0.10836 0.15700
v -0.17741 -0.10836 0.15700
v -0.18616 -0.11471 0.15700
v -0.18950 -0.12500 0.15700
v -0.18616 -0.13529 0.15700
v -0.17741 -0.14164 0.15700
v -0.16659 -0.14164 0.15700
v -0.15784 -0.13529 0.15700
v -0.15450 -0.12500 0.18200
v -0.15784 -0.11471 0.18200
v -0.16659 -0.10836 0.18200
v -0.17741 -0.10836 0.18200
v -0.18616 -0.11471 0.18200
v -0.18950 -0.12500 0.18200
v -0.18616 -0.13529 0.18200
v -0.17741 -0.14164 0.18200
v -0.16659 -0.14164 0.18200
v -0.15784 -0.13529 0.18200
v -0.17200 -0.12500 0.18200
v -0.08600 -0.12500 0.15700
v -0.06850 -0.12500 0.15700
v -0.07184 -0.11471 0.15700
v -0.08059 -0.10836 0.15700
v -0.09141 -0.10836 0.15700
v -0.10016 -0.11471 0.15700
v -0.10350 -0.12500 0.15700
v -0.10016 -0.13529 0.15700
v -0.09141 -0.14164 0.15700
v -0.08059 -0.14164 0.15700
v -0.07184 -0.13529 0.15700
v -0.06850 -0.12500 0.18200
v -0.07184 -0.11471 0.18200
v -0.08059 -0.10836 0.18200
v -0.09141 -0.10836 0.18200
v -0.10016 -0.11471 0.18200
v -0.10350 -0.12500 0.18200
v -0.10016 -0.13529 0.18200
v -0.09141 -0.14164 0.18200
v -0.08059 -0.14164 0.18200
v -0.07184 -0.13529 0.18200
v -0.08600 -0.12500 0.18200
v -0.00000 -0.12500 0.15700
v 0.01750 -0.12500 0.15700
v 0.01416 -0.11471 0.15700
v 0.00541 -0.10836 0.15700
v -0.00541 -0.10836 0.15700
v -0.01416 -0.11471 0.15700
v -0.01750 -0.12500 0.15700
v -0.01416 -0.13529 0.15700
v -0.00541 -0.14164 0.15700
v 0.00541 -0.14164 0.15700
v 0.01416 -0.13529 0.15700
v 0.01750 -0.12500 0.18200
v 0.01416 -0.11471 0.18200
v 0.00541 -0.10836 0.18200
v -0.00541 -0.10836 0.18200
v -0.01416 -0.11471 0.18200
v -0.01750 -0.12500 0.18200
v -0.01416 -0.13529 0.18200
v -0.00541 -0.14164 0.18200
v 0.00541 -0.14164 0.18200
v 0.01416 -0.13529 0.18200
v -0.00000 -0.12500 0.18200
v 0.08600 -0.12500 0.15700
v 0.10350 -0.12500 0.15700
v 0.10016 -0.11471 0.15700
v 0.09141 -0.10836 0.15700
v 0.08059 -0.10836 0.15700
v 0.07184 -0.11471 0.15700
v 0.06850 -0.12500 0.15700
v 0.07184 -0.13529 0.15700
v 0.08059 -0.14164 0.15700
v 0.09141 -0.14164 0.15700
v 0.10016 -0.13529 0.15700
v 0.10350 -0.12500 0.18200
v 0.10016 -0.11471 0.18200
v 0.09141 -0.10836 0.18200
v 0.08059 -0.10836 0.18200
v 0.07184 -0.11471 0.18200
v 0.06850 -0.12500 0.18200
v 0.07184 -0.13529 0.18200
v 0.08059 -0.14164 0.18200
v 0.09141 -0.14164 0.18200
v 0.10016 -0.13529 0.18200
v 0.08600 -0.12500 0.18200
v 0.25800 -0.12500 0.15700
v 0.27550 -0.12500 0.15700
v 0.27216 -0.11471 0.15700
v 0.26341 -0.10836 0.15700
v 0.25259 -0.10836 0.15700
v 0.24384 -0.11471 0.15700
v 0.24050 -0.12500 0.15700
v 0.24384 -0.13529 0.15700
v 0.25259 -0.14164 0.15700
v 0.26341 -0.14164 0.15700
v 0.27216 -0.13529 0.15700
v 0.27550 -0.12500 0.18200
v 0.27216 -0.11471 0.18200
v 0.26341 -0.10836 0.18200
v 0.25259 -0.10836 0.18200
v 0.24384 -0.11471 0.18200
v 0.24050 -0.12500 0.18200
v 0.24384 -0.13529 0.18200
v 0.25259 -0.14164 0.18200
v 0.26341 -0.14164 0.18200
v 0.27216 -0.13529 0.18200
v 0.25800 -0.12500 0.18200
v 0.34400 -0.12500 0.15700
v 0.36150 -0.12500 0.15700
v 0.35816 -0.11471 0.15700
v 0.34941 -0.10836 0.15700
v 0.33859 -0.10836 0.15700
v 0.32984 -0.11471 0.15700
v 0.32650 -0.12500 0.15700
v 0.32984 -0.13529 0.15700
v 0.33859 -0.14164 0.15700
v 0.34941 -0.14164 0.15700
v 0.35816 -0.13529 0.15700
v 0.36150 -0.12500 0.18200
v 0.35816 -0.11471 0.18200
v 0.34941 -0.10836 0.18200
v 0.33859 -0.10836 0.18200
v 0.32984 -0.11471 0.18200
v 0.32650 -0.12500 0.18200
v 0.32984 -0.13529 0.18200
v 0.33859 -0.14164 0.18200
v 0.34941 -0.14164 0.18200
v 0.35816 -0.13529 0.18200
v 0.34400 -0.12500 0.18200
v 0.43000 -0.12500 0.15700
v 0.44750 -0.12500 0.15700
v 0.44416 -0.11471 0.15700
v 0.43541 -0.10836 0.15700
v 0.42459 -0.10836 0.15700
v 0.41584 -0.11471 0.15700
v 0.41250 -0.12500 0.15700
v 0.41584 -0.13529 0.15700
v 0.42459 -0.14164 0.15700
v 0.43541 -0.14164 0.15700
v 0.44416 -0.13529 0.15700
v 0.44750 -0.12500 0.18200
v 0.44416 -0.11471 0.18200
v 0.43541 -0.10836 0.18200
v 0.42459 -0.10836 0.18200
v 0.41584 -0.11471 0.18200
v 0.41250 -0.12500 0.18200
v 0.41584 -0.13529 0.18200
v 0.42459 -0.14164 0.18200
v 0.43541 -0.14164 0.18200
v 0.44416 -0.13529 0.18200
v 0.43000 -0.12500 0.18200
f 1 3 2
f 1 4 3
f 1 5 4
f 1 6 5
f 1 7 6
f 1 8 7
f 1 9 8
f 1 10 9
f 1 11 10
f 1 2 11
f 2 3 13
f 2 13 12
f 3 4 14
f 3 14 13
f 4 5 15
f 4 15 14
f 5 6 16
f 5 16 15
f 6 7 17
f 6 17 16
f 7 8 18
f 7 18 17
f 8 9 19
f 8 19 18
f 9 10 20
f 9 20 19
f 10 11 21
f 10 21 20
f 11 2 12
f 11 12 21
f 12 13 22
f 13 14 22
f 14 15 22
f 15 16 22
f 16 17 22
f 17 18 22
f 18 19 22
f 19 20 22
f 20 21 22
f 21 12 22
f 23 25 24
f 23 26 25
f 23 27 26
f 23 28 27
f 23 29 28
f 23 30 29
f 23 31 30
f 23 32 31
f 23 33 32
f 23 24 33
f 24 25 35
f 24 35 34
f 25 26 36
f 25 36 35
f 26 27 37
f 26 37 36
f 27 28 38
f 27 38 37
f 28 29 39
f 28 39 38
f 29 30 40
f 29 40 39
f 30 31 41
f 30 41 40
f 31 32 42
f 31 42 41
f 32 33 43
f 32 43 42
f 33 24 34
f 33 34 43
f 34 35 44
f 35 36 44
f 36 37 44
f 37 38 44
f 38 39 44
f 39 40 44
f 40 41 44
f 41 42 44
f 42 43 44
f 43 34 44
f 45 47 46
f 45 48 47
f 45 49 48
f 45 50 49
f 45 51 50
f 45 52 51
f 45 53 52
f 45 54 53
f 45 55 54
f 45 46 55
f 46 47 57
f 46 57 56
f 47 48 58
f 47 58 57
f 48 49 59
f 48 59 58
f 49 50 60
f 49 60 59
f 50 51 61
f 50 61 60
f 51 52 62
f 51 62 61
f 52 53 63
f 52 63 62
f 53 54 64
f 53 64 63
f 54 55 65
f 54 65 64
f 55 46 56
f 55 56 65
f 56 57 66
f 57 58 66
f 58 59 66
f 59 60 66
f 60 61 66
f 61 62 66
f 62 63 66
f 63 64 66
f 64 65 66
f 65 56 66
f 67 69 68
f 67 70 69
f 67 71 70
f 67 72 71
f 67 73 72
f 67 74 73
f 67 75 74
f 67 76 75
f 67 77 76
f 67 68 77
f 68 69 79
f 68 79 78
f 69 70 80
f 69 80 79
f 70 71 81
f 70 81 80
f 71 72 82
f 71 82 81
f 72 73 83
f 72 83 82
f 73 74 84
f 73 84 83
f 74 75 85
f 74 85 84
f 75 76 86
f 75 86 85
f 76 77 87
f 76 87 86
f 77 68 78
f 77 78 87
f 78 79 88
f 79 80 88
f 80 81 88
f 81 82 88
f 82 83 88
f 83 84 88
f 84 85 88
f 85 86 88
f 86 87 88
f 87 78 88
f 89 91 90
f 89 92 91
f 89 93 92
f 89 94 93
f 89 95 94
f 89 96 95
f 89 97 96
f 89 98 97
f 89 99 98
f 89 90 99
f 90 91 101
f 90 101 100
f 91 92 102
f 91 102 101
f 92 93 103
f 92 103 102
f 93 94 104
f 93 104 103
f 94 95 105
f 94 105 104
f 95 96 106
f 95 106 105
f 96 97 107
f 96 107 106
f 97 98 108
f 97 108 107
f 98 99 109
f 98 109 108
f 99 90 100
f 99 100 109
f 100 101 110
f 101 102 110
f 102 103 110
f 103 104 110
f 104 105 110
f 105 106 110
f 106 107 110
f 107 108 110
f 108 109 110
f 109 100 110
f 111 113 112
f 111 114 113
f 111 115 114
f 111 116 115
f 111 117 116
f 111 118 117
f 111 119 118
f 111 120 119
f 111 121 120
f 111 112 121
f 112 113 123
f 112 123 122
f 113 114 124
f 113 124 123
f 114 115 125
f 114 125 124
f 115 116 126
f 115 126 125
f 116 117 127
f 116 127 126
f 117 118 128
f 117 128 127
f 118 119 129
f 118 129 128
f 119 120 130
f 119 130 129
f 120 121 131
f 120 131 130
f 121 112 122
f 121 122 131
f 122 123 132
f 123 124 132
f 124 125 132
f 125 126 132
f 126 127 132
f 127 128 132
f 128 129 132
f 129 130 132
f 130 131 132
f 131 122 132
f 133 135 134
f 133 136 135
f 133 137 136
f 133 138 137
f 133 139 138
f 133 140 139
f 133 141 140
f 133 142 141
f 133 143 142
f 133 134 143
f 134 135 145
f 134 145 144
f 135 136 146
f 135 146 145
f 136 137 147
f 136 147 146
f 137 138 148
f 137 148 147
f 138 139 149
f 138 149 148
f 139 140 150
f 139 150 149
f 140 141 151
f 140 151 150
f 141 142 152
f 141 152 151
f 142 143 153
f 142 153 152
f 143 134 144
f 143 144 153
f 144 145 154
f 145 146 154
f 146 147 154
f 147 148 154
f 148 149 154
f 149 150 154
f 150 151 154
f 151 152 154
f 152 153 154
f 153 144 154
f 155 157 156
f 155 158 157
f 155 159 158
f 155 160 159
f 155 161 160
f 155 162 161
f 155 163 162
f 155 164 163
f 155 165 164
f 155 156 165
f 156 157 167
f 156 167 166
f 157 158 168
f 157 168 167
f 158 159 169
f 158 169 168
f 159 160 170
f 159 170 169
f 160 161 171
f 160 171 170
f 161 162 172
f 161 172 171
f 162 163 173
f 162 173 172
f 163 164 174
f 163 174 173
f 164 165 175
f 164 175 174
f 165 156 166
f 165 166 175
f 166 167 176
f 167 168 176
f 168 169 176
f 169 170 176
f 170 171 176
f 171 172 176
f 172 173 176
f 173 174 176
f 174 175 176
f 175 166 176
f 177 179 178
f 177 180 179
f 177 181 180
f 177 182 181
f 177 183 182
f 177 184 183
f 177 185 184
f 177 186 185
f 177 187 186
f 177 178 187
f 178 179 189
f 178 189 188
f 179 180 190
f 179 190 189
f 180 181 191
f 180 191 190
f 181 182 192
f 181 192 191
f 182 183 193
f 182 193 192
f 183 184 194
f 183 194 193
f 184 185 195
f 184 195 194
f 185 186 196
f 185 196 195
f 186 187 197
f 186 197 196
f 187 178 188
f 187 188 197
f 188 189 198
f 189 190 198
f 190 191 198
f 191 192 198
f 192 193 198
f 193 194 198
f 194 195 198
f 195 196 198
f 196 197 198
f 197 188 198
f 199 201 200
f 199 202 201
f 199 203 202
f 199 204 203
f 199 205 204
f 199 206 205
f 199 207 206
f 199 208 207
f 199 209 208
f 199 200 209
f 200 201 211
f 200 211 210
f 201 202 212
f 201 212 211
f 202 203 213
f 202 213 212
f 203 204 214
f 203 214 213
f 204 205 215
f 204 215 214
f 205 206 216
f 205 216 215
f 206 207 217
f 206 217 216
f 207 208 218
f 207 218 217
f 208 209 219
f 208 219 218
f 209 200 210
f 209 210 219
f 210 211 220
f 211 212 220
f 212 213 220
f 213 214 220
f 214 215 220
f 215 216 220
f 216 217 220
f 217 218 220
f 218 219 220
f 219 210 220
f 221 223 222
f 221 224 223
f 221 225 224
f 221 226 225
f 221 227 226
f 221 228 227
f 221 229 228
f 221 230 229
f 221 231 230
f 221 222 231
f 222 223 233
f 222 233 232
f 223 224 234
f 223 234 233
f 224 225 235
f 224 235 234
f 225 226 236
f 225 236 235
f 226 227 237
f 226 237 236
f 227 228 238
f 227 238 237
f 228 229 239
f 228 239 238
f 229 230 240
f 229 240 239
f 230 231 241
f 230 241 240
f 231 222 232
f 231 232 241
f 232 233 242
f 233 234 242
f 234 235 242
f 235 236 242
f 236 237 242
f 237 238 242
f 238 239 242
f 239 240 242
f 240 241 242
f 241 232 242
f 243 245 244
f 243 246 245
f 243 247 246
f 243 248 247
f 243 249 248
f 243 250 249
f 243 251 250
f 243 252 251
f 243 253 252
f 243 244 253
f 244 245 255
f 244 255 254
f 245 246 256
f 245 256 255
f 246 247 257
f 246 257 256
f 247 248 258
f 247 258 257
f 248 249 259
f 248 259 258
f 249 250 260
f 249 260 259
f 250 251 261
f 250 261 260
f 251 252 262
f 251 262 261
f 252 253 263
f 252 263 262
f 253 244 254
f 253 254 263
f 254 255 264
f 255 256 264
f 256 257 264
f 257 258 264
f 258 259 264
f 259 260 264
f 260 261 264
f 261 262 264
f 262 263 264
f 263 254 264
f 265 267 266
f 265 268 267
f 265 269 268
f 265 270 269
f 265 271 270
f 265 272 271
f 265 273 272
f 265 274 273
f 265 275 274
f 265 266 275
f 266 267 277
f 266 277 276
f 267 268 278
f 267 278 277
f 268 269 279
f 268 279 278
f 269 270 280
f 269 280 279
f 270 271 281
f 270 281 280
f 271 272 282
f 271 282 281
f 272 273 283
f 272 283 282
f 273 274 284
f 273 284 283
f 274 275 285
f 274 285 284
f 275 266 276
f 275 276 285
f 276 277 286
f 277 278 286
f 278 279 286
f 279 280 286
f 280 281 286
f 281 282 286
f 282 283 286
f 283 284 286
f 284 285 286
f 285 276 286
f 287 289 288
f 287 290 289
f 287 291 290
f 287 292 291
f 287 293 292
f 287 294 293
f 287 295 294
f 287 296 295
f 287 297 296
f 287 288 297
f 288 289 299
f 288 299 298
f 289 290 300
f 289 300 299
f 290 291 301
f 290 301 300
f 291 292 302
f 291 302 301
f 292 293 303
f 292 303 302
f 293 294 304
f 293 304 303
f 294 295 305
f 294 305 304
f 295 296 306
f 295 306 305
f 296 297 307
f 296 307 306
f 297 288 298
f 297 298 307
f 298 299 308
f 299 300 308
f 300 301 308
f 301 302 308
f 302 303 308
f 303 304 308
f 304 305 308
f 305 306 308
f 306 307 308
f 307 298 308
f 309 311 310
f 309 312 311
f 309 313 312
f 309 314 313
f 309 315 314
f 309 316 315
f 309 317 316
f 309 318 317
f 309 319 318
f 309 310 319
f 310 311 321
f 310 321 320
f 311 312 322
f 311 322 321
f 312 313 323
f 312 323 322
f 313 314 324
f 313 324 323
f 314 315 325
f 314 325 324
f 315 316 326
f 315 326 325
f 316 317 327
f 316 327 326
f 317 318 328
f 317 328 327
f 318 319 329
f 318 329 328
f 319 310 320
f 319 320 329
f 320 321 330
f 321 322 330
f 322 323 330
f 323 324 330
f 324 325 330
f 325 326 330
f 326 327 330
f 327 328 330
f 328 329 330
f 329 320 330
f 331 333 332
f 331 334 333
f 331 335 334
f 331 336 335
f 331 337 336
f 331 338 337
f 331 339 338
f 331 340 339
f 331 341 340
f 331 332 341
f 332 333 343
f 332 343 342
f 333 334 344
f 333 344 343
f 334 335 345
f 334 345 344
f 335 336 346
f 335 346 345
f 336 337 347
f 336 347 346
f 337 338 348
f 337 348 347
f 338 339 349
f 338 349 348
f 339 340 350
f 339 350 349
f 340 341 351
f 340 351 350
f 341 332 342
f 341 342 351
f 342 343 352
f 343 344 352
f 344 345 352
f 345 346 352
f 346 347 352
f 347 348 352
f 348 349 352
f 349 350 352
f 350 351 352
f 351 342 352
f 353 355 354
f 353 356 355
f 353 357 356
f 353 358 357
f 353 359 358
f 353 360 359
f 353 361 360
f 353 362 361
f 353 363 362
f 353 354 363
f 354 355 365
f 354 365 364
f 355 356 366
f 355 366 365
f 356 357 367
f 356 367 366
f 357 358 368
f 357 368 367
f 358 359 369
f 358 369 368
f 359 360 370
f 359 370 369
f 360 361 371
f 360 371 370
f 361 362 372
f 361 372 371
f 362 363 373
f 362 373 372
f 363 354 364
f 363 364 373
f 364 365 374
f 365 366 374
f 366 367 374
f 367 368 374
f 368 369 374
f 369 370 374
f 370 371 374
f 371 372 374
f 372 373 374
f 373 364 374
f 375 377 376
f 375 378 377
f 375 379 378
f 375 380 379
f 375 381 380
f 375 382 381
f 375 383 382
f 375 384 383
f 375 385 384
f 375 376 385
f 376 377 387
f 376 387 386
f 377 378 388
f 377 388 387
f 378 379 389
f 378 389 388
f 379 380 390
f 379 390 389
f 380 381 391
f 380 391 390
f 381 382 392
f 381 392 391
f 382 383 393
f 382 393 392
f 383 384 394
f 383 394 393
f 384 385 395
f 384 395 394
f 385 376 386
f 385 386 395
f 386 387 396
f 387 388 396
f 388 389 396
f 389 390 396
f 390 391 396
f 391 392 396
f 392 393 396
f 393 394 396
f 394 395 396
f 395 386 396
f 397 399 398
f 397 400 399
f 397 401 400
f 397 402 401
f 397 403 402
f 397 404 403
f 397 405 404
f 397 406 405
f 397 407 406
f 397 398 407
f 398 399 409
f 398 409 408
f 399 400 410
f 399 410 409
f 400 401 411
f 400 411 410
f 401 402 412
f 401 412 411
f 402 403 413
f 402 413 412
f 403 404 414
f 403 414 413
f 404 405 415
f 404 415 414
f 405 406 416
f 405 416 415
f 406 407 417
f 406 417 416
f 407 398 408
f 407 408 417
f 408 409 418
f 409 410 418
f 410 411 418
f 411 412 418
f 412 413 418
f 413 414 418
f 414 415 418
f 415 416 418
f 416 417 418
f 417 408 418
f 419 421 420
f 419 422 421
f 419 423 422
f 419 424 423
f 419 425 424
f 419 426 425
f 419 427 426
f 419 428 427
f 419 429 428
f 419 420 429
f 420 421 431
f 420 431 430
f 421 422 432
f 421 432 431
f 422 423 433
f 422 433 432
f 423 424 434
f 423 434 433
f 424 425 435
f 424 435 434
f 425 426 436
f 425 436 435
f 426 427 437
f 426 437 436
f 427 428 438
f 427 438 437
f 428 429 439
f 428 439 438
f 429 420 430
f 429 430 439
f 430 431 440
f 431 432 440
f 432 433 440
f 433 434 440
f 434 435 440
f 435 436 440
f 436 437 440
f 437 438 440
f 438 439 440
f 439 430 440
f 441 443 442
f 441 444 443
f 441 445 444
f 441 446 445
f 441 447 446
f 441 448 447
f 441 449 448
f 441 450 449
f 441 451 450
f 441 442 451
f 442 443 453
f 442 453 452
f 443 444 454
f 443 454 453
f 444 445 455
f 444 455 454
f 445 446 456
f 445 456 455
f 446 447 457
f 446 457 456
f 447 448 458
f 447 458 457
f 448 449 459
f 448 459 458
f 449 450 460
f 449 460 459
f 450 451 461
f 450 461 460
f 451 442 452
f 451 452 461
f 452 453 462
f 453 454 462
f 454 455 462
f 455 456 462
f 456 457 462
f 457 458 462
f 458 459 462
f 459 460 462
f 460 461 462
f 461 452 462
