v 0.00000 0.00000 0.00100
v 0.10800 0.00000 0.00000
v 0.10529 0.02403 0.00000
v 0.09730 0.04686 0.00000
v 0.08444 0.06734 0.00000
v 0.06734 0.08444 0.00000
v 0.04686 0.09730 0.00000
v 0.02403 0.10529 0.00000
v 0.00000 0.10800 0.00000
v -0.02403 0.10529 0.00000
v -0.04686 0.09730 0.00000
v -0.06734 0.08444 0.00000
v -0.08444 0.06734 0.00000
v -0.09730 0.04686 0.00000
v -0.10529 0.02403 0.00000
v -0.10800 0.00000 0.00000
v -0.10529 -0.02403 0.00000
v -0.09730 -0.04686 0.00000
v -0.08444 -0.06734 0.00000
v -0.06734 -0.08444 0.00000
v -0.04686 -0.09730 0.00000
v -0.02403 -0.10529 0.00000
v -0.00000 -0.10800 0.00000
v 0.02403 -0.10529 0.00000
v 0.04686 -0.09730 0.00000
v 0.06734 -0.08444 0.00000
v 0.08444 -0.06734 0.00000
v 0.09730 -0.04686 0.00000
v 0.10529 -0.02403 0.00000
v 0.10500 0.00000 0.01200
v 0.10237 0.02336 0.01200
v 0.09460 0.04556 0.01200
v 0.08209 0.06547 0.01200
v 0.06547 0.08209 0.01200
v 0.04556 0.09460 0.01200
v 0.02336 0.10237 0.01200
v 0.00000 0.10500 0.01200
v -0.02336 0.10237 0.01200
v -0.04556 0.09460 0.01200
v -0.06547 0.08209 0.01200
v -0.08209 0.06547 0.01200
v -0.09460 0.04556 0.01200
v -0.10237 0.02336 0.01200
v -0.10500 0.00000 0.01200
v -0.10237 -0.02336 0.01200
v -0.09460 -0.04556 0.01200
v -0.08209 -0.06547 0.01200
v -0.06547 -0.08209 0.01200
v -0.04556 -0.09460 0.01200
v -0.02336 -0.10237 0.01200
v -0.00000 -0.10500 0.01200
v 0.02336 -0.10237 0.01200
v 0.04556 -0.09460 0.01200
v 0.06547 -0.08209 0.01200
v 0.08209 -0.06547 0.01200
v 0.09460 -0.04556 0.01200
v 0.10237 -0.02336 0.01200
v 0.03000 0.00000 0.03000
v 0.02925 0.00668 0.03000
v 0.02703 0.01302 0.03000
v 0.02345 0.01870 0.03000
v 0.01870 0.02345 0.03000
v 0.01302 0.02703 0.03000
v 0.00668 0.02925 0.03000
v 0.00000 0.03000 0.03000
v -0.00668 0.02925 0.03000
v -0.01302 0.02703 0.03000
v -0.01870 0.02345 0.03000
v -0.02345 0.01870 0.03000
v -0.02703 0.01302 0.03000
v -0.02925 0.00668 0.03000
v -0.03000 0.00000 0.03000
v -0.02925 -0.00668 0.03000
v -0.02703 -0.01302 0.03000
v -0.02345 -0.01870 0.03000
v -0.01870 -0.02345 0.03000
v -0.01302 -0.02703 0.03000
v -0.00668 -0.02925 0.03000
v -0.00000 -0.03000 0.03000
v 0.00668 -0.02925 0.03000
v 0.01302 -0.02703 0.03000
v 0.01870 -0.02345 0.03000
v 0.02345 -0.01870 0.03000
v 0.02703 -0.01302 0.03000
v 0.02925 -0.00668 0.03000
v 0.00000 0.00000 0.03500
f 1 3 2
f 1 4 3
f 1 5 4
f 1 6 5
f 1 7 6
f 1 8 7
f 1 9 8
f 1 10 9
f 1 11 10
f 1 12 11
f 1 13 12
f 1 14 13
f 1 15 14
f 1 16 15
f 1 17 16
f 1 18 17
f 1 19 18
f 1 20 19
f 1 21 20
f 1 22 21
f 1 23 22
f 1 24 23
f 1 25 24
f 1 26 25
f 1 27 26
f 1 28 27
f 1 29 28
f 1 2 29
f 2 3 31
f 2 31 30
f 3 4 32
f 3 32 31
f 4 5 33
f 4 33 32
f 5 6 34
f 5 34 33
f 6 7 35
f 6 35 34
f 7 8 36
f 7 36 35
f 8 9 37
f 8 37 36
f 9 10 38
f 9 38 37
f 10 11 39
f 10 39 38
f 11 12 40
f 11 40 39
f 12 13 41
f 12 41 40
f 13 14 42
f 13 42 41
f 14 15 43
f 14 43 42
f 15 16 44
f 15 44 43
f 16 17 45
f 16 45 44
f 17 18 46
f 17 46 45
f 18 19 47
f 18 47 46
f 19 20 48
f 19 48 47
f 20 21 49
f 20 49 48
f 21 22 50
f 21 50 49
f 22 23 51
f 22 51 50
f 23 24 52
f 23 52 51
f 24 25 53
f 24 53 52
f 25 26 54
f 25 54 53
f 26 27 55
f 26 55 54
f 27 28 56
f 27 56 55
f 28 29 57
f 28 57 56
f 29 2 30
f 29 30 57
f 30 31 59
f 30 59 58
f 31 32 60
f 31 60 59
f 32 33 61
f 32 61 60
f 33 34 62
f 33 62 61
f 34 35 63
f 34 63 62
f 35 36 64
f 35 64 63
f 36 37 65
f 36 65 64
f 37 38 66
f 37 66 65
f 38 39 67
f 38 67 66
f 39 40 68
f 39 68 67
f 40 41 69
f 40 69 68
f 41 42 70
f 41 70 69
f 42 43 71
f 42 71 70
f 43 44 72
f 43 72 71
f 44 45 73
f 44 73 72
f 45 46 74
f 45 74 73
f 46 47 75
f 46 75 74
f 47 48 76
f 47 76 75
f 48 49 77
f 48 77 76
f 49 50 78
f 49 78 77
f 50 51 79
f 50 79 78
f 51 52 80
f 51 80 79
f 52 53 81
f 52 81 80
f 53 54 82
f 53 82 81
f 54 55 83
f 54 83 82
f 55 56 84
f 55 84 83
f 56 57 85
f 56 85 84
f 57 30 58
f 57 58 85
f 58 59 86
f 59 60 86
f 60 61 86
f 61 62 86
f 62 63 86
f 63 64 86
f 64 65 86
f 65 66 86
f 66 67 86
f 67 68 86
f 68 69 86
f 69 70 86
f 70 71 86
f 71 72 86
f 72 73 86
f 73 74 86
f 74 75 86
f 75 76 86
f 76 77 86
f 77 78 86
f 78 79 86
f 79 80 86
f 80 81 86
f 81 82 86
f 82 83 86
f 83 84 86
f 84 85 86
f 85 58 86
