v 0.00000 0.00000 0.00000
v 0.10000 0.00000 0.00000
v 0.09749 0.02225 0.00000
v 0.09010 0.04339 0.00000
v 0.07818 0.06235 0.00000
v 0.06235 0.07818 0.00000
v 0.04339 0.09010 0.00000
v 0.02225 0.09749 0.00000
v 0.00000 0.10000 0.00000
v -0.02225 0.09749 0.00000
v -0.04339 0.09010 0.00000
v -0.06235 0.07818 0.00000
v -0.07818 0.06235 0.00000
v -0.09010 0.04339 0.00000
v -0.09749 0.02225 0.00000
v -0.10000 0.00000 0.00000
v -0.09749 -0.02225 0.00000
v -0.09010 -0.04339 0.00000
v -0.07818 -0.06235 0.00000
v -0.06235 -0.07818 0.00000
v -0.04339 -0.09010 0.00000
v -0.02225 -0.09749 0.00000
v -0.00000 -0.10000 0.00000
v 0.02225 -0.09749 0.00000
v 0.04339 -0.09010 0.00000
v 0.06235 -0.07818 0.00000
v 0.07818 -0.06235 0.00000
v 0.09010 -0.04339 0.00000
v 0.09749 -0.02225 0.00000
v 0.10400 0.00000 0.00400
v 0.10139 0.02314 0.00400
v 0.09370 0.04512 0.00400
v 0.08131 0.06484 0.00400
v 0.06484 0.08131 0.00400
v 0.04512 0.09370 0.00400
v 0.02314 0.10139 0.00400
v 0.00000 0.10400 0.00400
v -0.02314 0.10139 0.00400
v -0.04512 0.09370 0.00400
v -0.06484 0.08131 0.00400
v -0.08131 0.06484 0.00400
v -0.09370 0.04512 0.00400
v -0.10139 0.02314 0.00400
v -0.10400 0.00000 0.00400
v -0.10139 -0.02314 0.00400
v -0.09370 -0.04512 0.00400
v -0.08131 -0.06484 0.00400
v -0.06484 -0.08131 0.00400
v -0.04512 -0.09370 0.00400
v -0.02314 -0.10139 0.00400
v -0.00000 -0.10400 0.00400
v 0.02314 -0.10139 0.00400
v 0.04512 -0.09370 0.00400
v 0.06484 -0.08131 0.00400
v 0.08131 -0.06484 0.00400
v 0.09370 -0.04512 0.00400
v 0.10139 -0.02314 0.00400
v 0.10400 0.00000 0.12000
v 0.10139 0.02314 0.12000
v 0.09370 0.04512 0.12000
v 0.08131 0.06484 0.12000
v 0.06484 0.08131 0.12000
v 0.04512 0.09370 0.12000
v 0.02314 0.10139 0.12000
v 0.00000 0.10400 0.12000
v -0.02314 0.10139 0.12000
v -0.04512 0.09370 0.12000
v -0.06484 0.08131 0.12000
v -0.08131 0.06484 0.12000
v -0.09370 0.04512 0.12000
v -0.10139 0.02314 0.12000
v -0.10400 0.00000 0.12000
v -0.10139 -0.02314 0.12000
v -0.09370 -0.04512 0.12000
v -0.08131 -0.06484 0.12000
v -0.06484 -0.08131 0.12000
v -0.04512 -0.09370 0.12000
v -0.02314 -0.10139 0.12000
v -0.00000 -0.10400 0.12000
v 0.02314 -0.10139 0.12000
v 0.04512 -0.09370 0.12000
v 0.06484 -0.08131 0.12000
v 0.08131 -0.06484 0.12000
v 0.09370 -0.04512 0.12000
v 0.10139 -0.02314 0.12000
v 0.10800 0.00000 0.12500
v 0.10529 0.02403 0.12500
v 0.09730 0.04686 0.12500
v 0.08444 0.06734 0.12500
v 0.06734 0.08444 0.12500
v 0.04686 0.09730 0.12500
v 0.02403 0.10529 0.12500
v 0.00000 0.10800 0.12500
v -0.02403 0.10529 0.12500
v -0.04686 0.09730 0.12500
v -0.06734 0.08444 0.12500
v -0.08444 0.06734 0.12500
v -0.09730 0.04686 0.12500
v -0.10529 0.02403 0.12500
v -0.10800 0.00000 0.12500
v -0.10529 -0.02403 0.12500
v -0.09730 -0.04686 0.12500
v -0.08444 -0.06734 0.12500
v -0.06734 -0.08444 0.12500
v -0.04686 -0.09730 0.12500
v -0.02403 -0.10529 0.12500
v -0.00000 -0.10800 0.12500
v 0.02403 -0.10529 0.12500
v 0.04686 -0.09730 0.12500
v 0.06734 -0.08444 0.12500
v 0.08444 -0.06734 0.12500
v 0.09730 -0.04686 0.12500
v 0.10529 -0.02403 0.12500
v 0.09700 0.00000 0.12500
v 0.09457 0.02158 0.12500
v 0.08739 0.04209 0.12500
v 0.07584 0.06048 0.12500
v 0.06048 0.07584 0.12500
v 0.04209 0.08739 0.12500
v 0.02158 0.09457 0.12500
v 0.00000 0.09700 0.12500
v -0.02158 0.09457 0.12500
v -0.04209 0.08739 0.12500
v -0.06048 0.07584 0.12500
v -0.07584 0.06048 0.12500
v -0.08739 0.04209 0.12500
v -0.09457 0.02158 0.12500
v -0.09700 0.00000 0.12500
v -0.09457 -0.02158 0.12500
v -0.08739 -0.04209 0.12500
v -0.07584 -0.06048 0.12500
v -0.06048 -0.07584 0.12500
v -0.04209 -0.08739 0.12500
v -0.02158 -0.09457 0.12500
v -0.00000 -0.09700 0.12500
v 0.02158 -0.09457 0.12500
v 0.04209 -0.08739 0.12500
v 0.06048 -0.07584 0.12500
v 0.07584 -0.06048 0.12500
v 0.08739 -0.04209 0.12500
v 0.09457 -0.02158 0.12500
v 0.09700 0.00000 0.00600
v 0.09457 0.02158 0.00600
v 0.08739 0.04209 0.00600
v 0.07584 0.06048 0.00600
v 0.06048 0.07584 0.00600
v 0.04209 0.08739 0.00600
v 0.02158 0.09457 0.00600
v 0.00000 0.09700 0.00600
v -0.02158 0.09457 0.00600
v -0.04209 0.08739 0.00600
v -0.06048 0.07584 0.00600
v -0.07584 0.06048 0.00600
v -0.08739 0.04209 0.00600
v -0.09457 0.02158 0.00600
v -0.09700 0.00000 0.00600
v -0.09457 -0.02158 0.00600
v -0.08739 -0.04209 0.00600
v -0.07584 -0.06048 0.00600
v -0.06048 -0.07584 0.00600
v -0.04209 -0.08739 0.00600
v -0.02158 -0.09457 0.00600
v -0.00000 -0.09700 0.00600
v 0.02158 -0.09457 0.00600
v 0.04209 -0.08739 0.00600
v 0.06048 -0.07584 0.00600
v 0.07584 -0.06048 0.00600
v 0.08739 -0.04209 0.00600
v 0.09457 -0.02158 0.00600
v 0.00000 0.00000 0.00600
f 1 3 2
f 1 4 3
f 1 5 4
f 1 6 5
f 1 7 6
f 1 8 7
f 1 9 8
f 1 10 9
f 1 11 10
f 1 12 11
f 1 13 12
f 1 14 13
f 1 15 14
f 1 16 15
f 1 17 16
f 1 18 17
f 1 19 18
f 1 20 19
f 1 21 20
f 1 22 21
f 1 23 22
f 1 24 23
f 1 25 24
f 1 26 25
f 1 27 26
f 1 28 27
f 1 29 28
f 1 2 29
f 2 3 31
f 2 31 30
f 3 4 32
f 3 32 31
f 4 5 33
f 4 33 32
f 5 6 34
f 5 34 33
f 6 7 35
f 6 35 34
f 7 8 36
f 7 36 35
f 8 9 37
f 8 37 36
f 9 10 38
f 9 38 37
f 10 11 39
f 10 39 38
f 11 12 40
f 11 40 39
f 12 13 41
f 12 41 40
f 13 14 42
f 13 42 41
f 14 15 43
f 14 43 42
f 15 16 44
f 15 44 43
f 16 17 45
f 16 45 44
f 17 18 46
f 17 46 45
f 18 19 47
f 18 47 46
f 19 20 48
f 19 48 47
f 20 21 49
f 20 49 48
f 21 22 50
f 21 50 49
f 22 23 51
f 22 51 50
f 23 24 52
f 23 52 51
f 24 25 53
f 24 53 52
f 25 26 54
f 25 54 53
f 26 27 55
f 26 55 54
f 27 28 56
f 27 56 55
f 28 29 57
f 28 57 56
f 29 2 30
f 29 30 57
f 30 31 59
f 30 59 58
f 31 32 60
f 31 60 59
f 32 33 61
f 32 61 60
f 33 34 62
f 33 62 61
f 34 35 63
f 34 63 62
f 35 36 64
f 35 64 63
f 36 37 65
f 36 65 64
f 37 38 66
f 37 66 65
f 38 39 67
f 38 67 66
f 39 40 68
f 39 68 67
f 40 41 69
f 40 69 68
f 41 42 70
f 41 70 69
f 42 43 71
f 42 71 70
f 43 44 72
f 43 72 71
f 44 45 73
f 44 73 72
f 45 46 74
f 45 74 73
f 46 47 75
f 46 75 74
f 47 48 76
f 47 76 75
f 48 49 77
f 48 77 76
f 49 50 78
f 49 78 77
f 50 51 79
f 50 79 78
f 51 52 80
f 51 80 79
f 52 53 81
f 52 81 80
f 53 54 82
f 53 82 81
f 54 55 83
f 54 83 82
f 55 56 84
f 55 84 83
f 56 57 85
f 56 85 84
f 57 30 58
f 57 58 85
f 58 59 87
f 58 87 86
f 59 60 88
f 59 88 87
f 60 61 89
f 60 89 88
f 61 62 90
f 61 90 89
f 62 63 91
f 62 91 90
f 63 64 92
f 63 92 91
f 64 65 93
f 64 93 92
f 65 66 94
f 65 94 93
f 66 67 95
f 66 95 94
f 67 68 96
f 67 96 95
f 68 69 97
f 68 97 96
f 69 70 98
f 69 98 97
f 70 71 99
f 70 99 98
f 71 72 100
f 71 100 99
f 72 73 101
f 72 101 100
f 73 74 102
f 73 102 101
f 74 75 103
f 74 103 102
f 75 76 104
f 75 104 103
f 76 77 105
f 76 105 104
f 77 78 106
f 77 106 105
f 78 79 107
f 78 107 106
f 79 80 108
f 79 108 107
f 80 81 109
f 80 109 108
f 81 82 110
f 81 110 109
f 82 83 111
f 82 111 110
f 83 84 112
f 83 112 111
f 84 85 113
f 84 113 112
f 85 58 86
f 85 86 113
f 86 87 115
f 86 115 114
f 87 88 116
f 87 116 115
f 88 89 117
f 88 117 116
f 89 90 118
f 89 118 117
f 90 91 119
f 90 119 118
f 91 92 120
f 91 120 119
f 92 93 121
f 92 121 120
f 93 94 122
f 93 122 121
f 94 95 123
f 94 123 122
f 95 96 124
f 95 124 123
f 96 97 125
f 96 125 124
f 97 98 126
f 97 126 125
f 98 99 127
f 98 127 126
f 99 100 128
f 99 128 127
f 100 101 129
f 100 129 128
f 101 102 130
f 101 130 129
f 102 103 131
f 102 131 130
f 103 104 132
f 103 132 131
f 104 105 133
f 104 133 132
f 105 106 134
f 105 134 133
f 106 107 135
f 106 135 134
f 107 108 136
f 107 136 135
f 108 109 137
f 108 137 136
f 109 110 138
f 109 138 137
f 110 111 139
f 110 139 138
f 111 112 140
f 111 140 139
f 112 113 141
f 112 141 140
f 113 86 114
f 113 114 141
f 114 115 143
f 114 143 142
f 115 116 144
f 115 144 143
f 116 117 145
f 116 145 144
f 117 118 146
f 117 146 145
f 118 119 147
f 118 147 146
f 119 120 148
f 119 148 147
f 120 121 149
f 120 149 148
f 121 122 150
f 121 150 149
f 122 123 151
f 122 151 150
f 123 124 152
f 123 152 151
f 124 125 153
f 124 153 152
f 125 126 154
f 125 154 153
f 126 127 155
f 126 155 154
f 127 128 156
f 127 156 155
f 128 129 157
f 128 157 156
f 129 130 158
f 129 158 157
f 130 131 159
f 130 159 158
f 131 132 160
f 131 160 159
f 132 133 161
f 132 161 160
f 133 134 162
f 133 162 161
f 134 135 163
f 134 163 162
f 135 136 164
f 135 164 163
f 136 137 165
f 136 165 164
f 137 138 166
f 137 166 165
f 138 139 167
f 138 167 166
f 139 140 168
f 139 168 167
f 140 141 169
f 140 169 168
f 141 114 142
f 141 142 169
f 142 143 170
f 143 144 170
f 144 145 170
f 145 146 170
f 146 147 170
f 147 148 170
f 148 149 170
f 149 150 170
f 150 151 170
f 151 152 170
f 152 153 170
f 153 154 170
f 154 155 170
f 155 156 170
f 156 157 170
f 157 158 170
f 158 159 170
f 159 160 170
f 160 161 170
f 161 162 170
f 162 163 170
f 163 164 170
f 164 165 170
f 165 166 170
f 166 167 170
f 167 168 170
f 168 169 170
f 169 142 170
