v 0.00000 0.00000 0.00000
v 0.03500 0.00000 0.00000
v 0.03234 0.01339 0.00000
v 0.02475 0.02475 0.00000
v 0.01339 0.03234 0.00000
v 0.00000 0.03500 0.00000
v -0.01339 0.03234 0.00000
v -0.02475 0.02475 0.00000
v -0.03234 0.01339 0.00000
v -0.03500 0.00000 0.00000
v -0.03234 -0.01339 0.00000
v -0.02475 -0.02475 0.00000
v -0.01339 -0.03234 0.00000
v -0.00000 -0.03500 0.00000
v 0.01339 -0.03234 0.00000
v 0.02475 -0.02475 0.00000
v 0.03234 -0.01339 0.00000
v 0.03700 0.00000 0.01000
v 0.03418 0.01416 0.01000
v 0.02616 0.02616 0.01000
v 0.01416 0.03418 0.01000
v 0.00000 0.03700 0.01000
v -0.01416 0.03418 0.01000
v -0.02616 0.02616 0.01000
v -0.03418 0.01416 0.01000
v -0.03700 0.00000 0.01000
v -0.03418 -0.01416 0.01000
v -0.02616 -0.02616 0.01000
v -0.01416 -0.03418 0.01000
v -0.00000 -0.03700 0.01000
v 0.01416 -0.03418 0.01000
v 0.02616 -0.02616 0.01000
v 0.03418 -0.01416 0.01000
v 0.03700 0.00000 0.15000
v 0.03418 0.01416 0.15000
v 0.02616 0.02616 0.15000
v 0.01416 0.03418 0.15000
v 0.00000 0.03700 0.15000
v -0.01416 0.03418 0.15000
v -0.02616 0.02616 0.15000
v -0.03418 0.01416 0.15000
v -0.03700 0.00000 0.15000
v -0.03418 -0.01416 0.15000
v -0.02616 -0.02616 0.15000
v -0.01416 -0.03418 0.15000
v -0.00000 -0.03700 0.15000
v 0.01416 -0.03418 0.15000
v 0.02616 -0.02616 0.15000
v 0.03418 -0.01416 0.15000
v 0.02000 0.00000 0.18000
v 0.01848 0.00765 0.18000
v 0.01414 0.01414 0.18000
v 0.00765 0.01848 0.18000
v 0.00000 0.02000 0.18000
v -0.00765 0.01848 0.18000
v -0.01414 0.01414 0.18000
v -0.01848 0.00765 0.18000
v -0.02000 0.00000 0.18000
v -0.01848 -0.00765 0.18000
v -0.01414 -0.01414 0.18000
v -0.00765 -0.01848 0.18000
v -0.00000 -0.02000 0.18000
v 0.00765 -0.01848 0.18000
v 0.01414 -0.01414 0.18000
v 0.01848 -0.00765 0.18000
v 0.01400 0.00000 0.19000
v 0.01293 0.00536 0.19000
v 0.00990 0.00990 0.19000
v 0.00536 0.01293 0.19000
v 0.00000 0.01400 0.19000
v -0.00536 0.01293 0.19000
v -0.00990 0.00990 0.19000
v -0.01293 0.00536 0.19000
v -0.01400 0.00000 0.19000
v -0.01293 -0.00536 0.19000
v -0.00990 -0.00990 0.19000
v -0.00536 -0.01293 0.19000
v -0.00000 -0.01400 0.19000
v 0.00536 -0.01293 0.19000
v 0.00990 -0.00990 0.19000
v 0.01293 -0.00536 0.19000
v 0.00000 0.00000 0.19000
f 1 3 2
f 1 4 3
f 1 5 4
f 1 6 5
f 1 7 6
f 1 8 7
f 1 9 8
f 1 10 9
f 1 11 10
f 1 12 11
f 1 13 12
f 1 14 13
f 1 15 14
f 1 16 15
f 1 17 16
f 1 2 17
f 2 3 19
f 2 19 18
f 3 4 20
f 3 20 19
f 4 5 21
f 4 21 20
f 5 6 22
f 5 22 21
f 6 7 23
f 6 23 22
f 7 8 24
f 7 24 23
f 8 9 25
f 8 25 24
f 9 10 26
f 9 26 25
f 10 11 27
f 10 27 26
f 11 12 28
f 11 28 27
f 12 13 29
f 12 29 28
f 13 14 30
f 13 30 29
f 14 15 31
f 14 31 30
f 15 16 32
f 15 32 31
f 16 17 33
f 16 33 32
f 17 2 18
f 17 18 33
f 18 19 35
f 18 35 34
f 19 20 36
f 19 36 35
f 20 21 37
f 20 37 36
f 21 22 38
f 21 38 37
f 22 23 39
f 22 39 38
f 23 24 40
f 23 40 39
f 24 25 41
f 24 41 40
f 25 26 42
f 25 42 41
f 26 27 43
f 26 43 42
f 27 28 44
f 27 44 43
f 28 29 45
f 28 45 44
f 29 30 46
f 29 46 45
f 30 31 47
f 30 47 46
f 31 32 48
f 31 48 47
f 32 33 49
f 32 49 48
f 33 18 34
f 33 34 49
f 34 35 51
f 34 51 50
f 35 36 52
f 35 52 51
f 36 37 53
f 36 53 52
f 37 38 54
f 37 54 53
f 38 39 55
f 38 55 54
f 39 40 56
f 39 56 55
f 40 41 57
f 40 57 56
f 41 42 58
f 41 58 57
f 42 43 59
f 42 59 58
f 43 44 60
f 43 60 59
f 44 45 61
f 44 61 60
f 45 46 62
f 45 62 61
f 46 47 63
f 46 63 62
f 47 48 64
f 47 64 63
f 48 49 65
f 48 65 64
f 49 34 50
f 49 50 65
f 50 51 67
f 50 67 66
f 51 52 68
f 51 68 67
f 52 53 69
f 52 69 68
f 53 54 70
f 53 70 69
f 54 55 71
f 54 71 70
f 55 56 72
f 55 72 71
f 56 57 73
f 56 73 72
f 57 58 74
f 57 74 73
f 58 59 75
f 58 75 74
f 59 60 76
f 59 76 75
f 60 61 77
f 60 77 76
f 61 62 78
f 61 78 77
f 62 63 79
f 62 79 78
f 63 64 80
f 63 80 79
f 64 65 81
f 64 81 80
f 65 50 66
f 65 66 81
f 66 67 82
f 67 68 82
f 68 69 82
f 69 70 82
f 70 71 82
f 71 72 82
f 72 73 82
f 73 74 82
f 74 75 82
f 75 76 82
f 76 77 82
f 77 78 82
f 78 79 82
f 79 80 82
f 80 81 82
f 81 66 82
