v -0.426930 -0.150279 0.518040
v -0.424604 -0.149455 0.518040
v -0.426932 -0.150280 0.518040
v -0.424604 -0.149454 0.518040
v -0.422171 -0.149871 0.518040
v -0.422170 -0.149872 0.518040
v -0.415285 -0.141444 0.518098
v -0.412959 -0.140620 0.518098
v -0.415287 -0.141446 0.518098
v -0.412959 -0.140619 0.518098
v -0.410526 -0.141036 0.518098
v -0.410525 -0.141037 0.518098
v -0.389285 -0.121655 0.518098
v -0.386958 -0.120831 0.518098
v -0.389286 -0.121656 0.518098
v -0.386958 -0.120830 0.518098
v -0.384526 -0.121247 0.518098
v -0.384524 -0.121248 0.518098
v -0.377773 -0.113409 0.518098
v -0.375447 -0.112585 0.518098
v -0.377775 -0.113411 0.518098
v -0.375447 -0.112584 0.518098
v -0.373014 -0.113001 0.518098
v -0.373013 -0.113003 0.518098
v -0.402841 -0.131484 0.518098
v -0.400515 -0.130660 0.518098
v -0.402843 -0.131486 0.518098
v -0.400515 -0.130659 0.518098
v -0.398082 -0.131076 0.518098
v -0.398081 -0.131077 0.518098
v -0.266929 0.019521 0.514270
v -0.266009 0.021811 0.514270
v -0.266929 0.019519 0.514270
v -0.266010 0.021811 0.514270
v -0.264088 0.023360 0.514270
v -0.264086 0.023361 0.514270
v -0.265856 0.034098 0.514328
v -0.264935 0.036388 0.514328
v -0.265856 0.034096 0.514328
v -0.264936 0.036389 0.514328
v -0.263015 0.037938 0.514328
v -0.263013 0.037938 0.514328
v -0.263505 0.066689 0.514328
v -0.262585 0.068979 0.514328
v -0.263505 0.066687 0.514328
v -0.262586 0.068979 0.514328
v -0.260664 0.070528 0.514328
v -0.260662 0.070529 0.514328
v -0.262078 0.080776 0.514328
v -0.261157 0.083066 0.514328
v -0.262077 0.080774 0.514328
v -0.261158 0.083067 0.514328
v -0.259236 0.084616 0.514328
v -0.259234 0.084616 0.514328
v -0.265097 0.050020 0.514328
v -0.264177 0.052310 0.514328
v -0.265097 0.050017 0.514328
v -0.264178 0.052310 0.514328
v -0.262256 0.053859 0.514328
v -0.262254 0.053860 0.514328
v -0.444971 -0.101592 0.518040
v -0.442521 -0.101888 0.518040
v -0.444973 -0.101593 0.518040
v -0.442521 -0.101887 0.518040
v -0.440527 -0.103343 0.518040
v -0.440526 -0.103345 0.518040
v -0.430612 -0.098856 0.518098
v -0.428162 -0.099153 0.518098
v -0.430615 -0.098857 0.518098
v -0.428162 -0.099151 0.518098
v -0.426168 -0.100607 0.518098
v -0.426167 -0.100609 0.518098
v -0.398524 -0.092691 0.518098
v -0.396074 -0.092988 0.518098
v -0.398526 -0.092692 0.518098
v -0.396074 -0.092987 0.518098
v -0.394080 -0.094442 0.518098
v -0.394079 -0.094444 0.518098
v -0.384547 -0.090424 0.518098
v -0.382097 -0.090721 0.518098
v -0.384549 -0.090425 0.518098
v -0.382097 -0.090720 0.518098
v -0.380103 -0.092175 0.518098
v -0.380102 -0.092177 0.518098
v -0.415037 -0.095468 0.518098
v -0.412587 -0.095764 0.518098
v -0.415039 -0.095469 0.518098
v -0.412587 -0.095763 0.518098
v -0.410593 -0.097219 0.518098
v -0.410592 -0.097221 0.518098
v -0.219664 0.000471 0.514270
v -0.217307 0.001201 0.514270
v -0.219666 0.000470 0.514270
v -0.217307 0.001202 0.514270
v -0.214893 0.000688 0.514270
v -0.214891 0.000687 0.514270
v -0.207674 0.008832 0.514328
v -0.205317 0.009562 0.514328
v -0.207676 0.008830 0.514328
v -0.205317 0.009563 0.514328
v -0.202903 0.009048 0.514328
v -0.202901 0.009047 0.514328
v -0.180900 0.027562 0.514328
v -0.178543 0.028292 0.514328
v -0.180902 0.027560 0.514328
v -0.178543 0.028293 0.514328
v -0.176129 0.027778 0.514328
v -0.176127 0.027777 0.514328
v -0.169067 0.035338 0.514328
v -0.166710 0.036068 0.514328
v -0.169069 0.035337 0.514328
v -0.166710 0.036069 0.514328
v -0.164296 0.035555 0.514328
v -0.164294 0.035553 0.514328
v -0.194840 0.018284 0.514328
v -0.192483 0.019014 0.514328
v -0.194842 0.018283 0.514328
v -0.192483 0.019016 0.514328
v -0.190069 0.018501 0.514328
v -0.190067 0.018500 0.514328
v -0.397939 -0.057876 0.517413
v -0.395489 -0.058172 0.517413
v -0.397941 -0.057877 0.517413
v -0.395488 -0.058171 0.517413
v -0.393495 -0.059626 0.517413
v -0.393494 -0.059628 0.517413
f 1 2 3
f 2 1 4
f 2 5 6
f 5 2 4
f 7 8 9
f 8 7 10
f 8 11 12
f 11 8 10
f 13 14 15
f 14 13 16
f 14 17 18
f 17 14 16
f 19 20 21
f 20 19 22
f 20 23 24
f 23 20 22
f 25 26 27
f 26 25 28
f 26 29 30
f 29 26 28
f 31 32 33
f 32 31 34
f 32 35 36
f 35 32 34
f 37 38 39
f 38 37 40
f 38 41 42
f 41 38 40
f 43 44 45
f 44 43 46
f 44 47 48
f 47 44 46
f 49 50 51
f 50 49 52
f 50 53 54
f 53 50 52
f 55 56 57
f 56 55 58
f 56 59 60
f 59 56 58
f 61 62 63
f 62 61 64
f 62 65 66
f 65 62 64
f 67 68 69
f 68 67 70
f 68 71 72
f 71 68 70
f 73 74 75
f 74 73 76
f 74 77 78
f 77 74 76
f 79 80 81
f 80 79 82
f 80 83 84
f 83 80 82
f 85 86 87
f 86 85 88
f 86 89 90
f 89 86 88
f 91 92 93
f 92 91 94
f 92 95 96
f 95 92 94
f 97 98 99
f 98 97 100
f 98 101 102
f 101 98 100
f 103 104 105
f 104 103 106
f 104 107 108
f 107 104 106
f 109 110 111
f 110 109 112
f 110 113 114
f 113 110 112
f 115 116 117
f 116 115 118
f 116 119 120
f 119 116 118
f 121 122 123
f 122 121 124
f 122 125 126
f 125 122 124
