v 0.028266 -0.111747 0.656283
v 0.028266 -0.118692 0.652825
v 0.028266 -0.118692 0.656283
v 0.028266 -0.111747 0.652825
v 0.027177 -0.111747 0.656283
v 0.027177 -0.111747 0.652825
v 0.026381 -0.119289 0.677352
v 0.026381 -0.115139 0.649564
v 0.026381 -0.119289 0.649564
v 0.026381 -0.110989 0.677352
v 0.026381 -0.115139 0.642182
v 0.026381 -0.110989 0.642182
v 0.027177 -0.110989 0.677352
v 0.027177 -0.119289 0.677352
v 0.027177 -0.119289 0.649564
v 0.027177 -0.115139 0.649564
v 0.027177 -0.115139 0.642182
v 0.027177 -0.110989 0.642182
v 0.027177 -0.111747 0.652825
v 0.027177 -0.118692 0.652825
v 0.027177 -0.111747 0.656283
v 0.027177 -0.118692 0.656283
v 0.035358 -0.106521 0.639076
v 0.035358 -0.105163 0.577909
v 0.035358 -0.105163 0.639076
v 0.035358 -0.106521 0.577909
v 0.028326 -0.116125 0.596270
v 0.028326 -0.106521 0.601436
v 0.028326 -0.106521 0.596270
v 0.028326 -0.116125 0.601436
v 0.028326 -0.117672 0.603743
v 0.028326 -0.106521 0.629576
v 0.028326 -0.106521 0.603743
v 0.028326 -0.117672 0.629576
v 0.028326 -0.106521 0.577909
v 0.028326 -0.105163 0.639076
v 0.028326 -0.105163 0.577909
v 0.028326 -0.106521 0.639076
v 0.029711 -0.106521 0.577909
v 0.029711 -0.106521 0.596270
v 0.029711 -0.106521 0.601436
v 0.029711 -0.106521 0.603743
v 0.029711 -0.106521 0.629576
v 0.029711 -0.117672 0.629576
v 0.029711 -0.117672 0.603743
v 0.029711 -0.116125 0.601436
v 0.029711 -0.116125 0.596270
f 1 2 3
f 2 1 4
f 5 4 6
f 4 5 1
f 7 8 9
f 8 7 10
f 11 10 12
f 10 11 8
f 7 13 10
f 13 7 14
f 15 8 16
f 8 15 9
f 11 16 8
f 16 11 17
f 17 12 18
f 12 17 11
f 18 19 17
f 19 18 13
f 17 19 16
f 16 19 20
f 19 13 21
f 15 20 14
f 20 15 16
f 14 20 22
f 14 22 21
f 14 21 13
f 13 12 10
f 12 13 18
f 15 7 9
f 7 15 14
f 23 24 25
f 24 23 26
f 27 28 29
f 28 27 30
f 31 32 33
f 32 31 34
f 35 36 37
f 36 35 38
f 38 35 29
f 38 29 28
f 38 28 33
f 38 33 32
f 39 24 26
f 24 39 37
f 37 39 35
f 36 23 25
f 23 36 38
f 36 24 37
f 24 36 25
f 23 39 26
f 39 23 40
f 40 23 41
f 41 23 42
f 42 23 43
f 43 23 32
f 32 23 38
f 42 28 41
f 28 42 33
f 39 29 35
f 29 39 40
f 44 31 45
f 31 44 34
f 31 42 45
f 42 31 33
f 44 42 43
f 42 44 45
f 32 44 43
f 44 32 34
f 46 27 47
f 27 46 30
f 27 40 47
f 40 27 29
f 46 40 41
f 40 46 47
f 28 46 41
f 46 28 30
