v 0.194020 0.240453 0.551346
v 0.193909 0.240868 0.551360
v 0.193211 0.240453 0.551561
v 0.194532 0.241254 0.550956
v 0.194745 0.240453 0.550929
v 0.195037 0.241586 0.550377
v 0.195338 0.240453 0.550338
v 0.195389 0.241841 0.549662
v 0.195758 0.240453 0.549614
v 0.195564 0.242001 0.548859
v 0.195976 0.240453 0.548806
v 0.195551 0.242056 0.548024
v 0.195977 0.240453 0.547969
v 0.192600 0.242056 0.525297
v 0.193026 0.240453 0.525242
v 0.192399 0.242001 0.524487
v 0.192810 0.240453 0.524433
v 0.192024 0.241841 0.523755
v 0.192393 0.240453 0.523708
v 0.191501 0.241586 0.523154
v 0.191802 0.240453 0.523115
v 0.191078 0.240453 0.522695
v 0.190865 0.241254 0.522723
v 0.190270 0.240453 0.522477
v 0.190160 0.240868 0.522491
v 0.189433 0.240453 0.522475
v 0.193608 0.241172 0.551399
v 0.193950 0.241841 0.551032
v 0.194214 0.242416 0.550484
v 0.194381 0.242857 0.549793
v 0.194440 0.243135 0.549005
v 0.194388 0.243229 0.548175
v 0.191436 0.243229 0.525448
v 0.191275 0.243135 0.524633
v 0.191017 0.242857 0.523886
v 0.190678 0.242416 0.523261
v 0.190283 0.241841 0.522798
v 0.189859 0.241172 0.522530
v 0.193197 0.241283 0.551453
v 0.193156 0.242056 0.551135
v 0.193090 0.242720 0.550630
v 0.193004 0.243229 0.549971
v 0.192905 0.243550 0.549205
v 0.192798 0.243659 0.548382
v 0.189846 0.243659 0.525655
v 0.189739 0.243550 0.524832
v 0.189640 0.243229 0.524065
v 0.189554 0.242720 0.523407
v 0.189489 0.242056 0.522901
v 0.189447 0.241283 0.522584
v 0.192785 0.241172 0.551506
v 0.192361 0.241841 0.551238
v 0.191966 0.242416 0.550776
v 0.191628 0.242857 0.550150
v 0.191369 0.243135 0.549404
v 0.191208 0.243229 0.548588
v 0.188257 0.243229 0.525861
v 0.188204 0.243135 0.525031
v 0.188263 0.242857 0.524244
v 0.188430 0.242416 0.523553
v 0.188694 0.241841 0.523005
v 0.189036 0.241172 0.522637
v 0.192484 0.240868 0.551545
v 0.191779 0.241254 0.551314
v 0.191143 0.241586 0.550883
v 0.190620 0.241841 0.550281
v 0.190245 0.242001 0.549550
v 0.190045 0.242056 0.548739
v 0.187093 0.242056 0.526012
v 0.187080 0.242001 0.525177
v 0.187255 0.241841 0.524375
v 0.187607 0.241586 0.523660
v 0.188112 0.241254 0.523080
v 0.188735 0.240868 0.522676
v 0.192374 0.240453 0.551560
v 0.191566 0.240453 0.551342
v 0.190842 0.240453 0.550922
v 0.190251 0.240453 0.550329
v 0.189834 0.240453 0.549603
v 0.189619 0.240453 0.548795
v 0.186667 0.240453 0.526068
v 0.186668 0.240453 0.525231
v 0.186886 0.240453 0.524423
v 0.187306 0.240453 0.523699
v 0.187899 0.240453 0.523108
v 0.188625 0.240453 0.522691
v 0.192484 0.240038 0.551545
v 0.191779 0.239651 0.551314
v 0.191143 0.239319 0.550883
v 0.190620 0.239065 0.550281
v 0.190245 0.238905 0.549550
v 0.190045 0.238850 0.548739
v 0.187093 0.238850 0.526012
v 0.187080 0.238905 0.525177
v 0.187255 0.239065 0.524375
v 0.187607 0.239319 0.523660
v 0.188112 0.239651 0.523080
v 0.188735 0.240038 0.522676
v 0.192785 0.239734 0.551506
v 0.192361 0.239065 0.551238
v 0.191966 0.238490 0.550776
v 0.191628 0.238048 0.550150
v 0.191369 0.237771 0.549404
v 0.191208 0.237676 0.548588
v 0.188257 0.237676 0.525861
v 0.188204 0.237771 0.525031
v 0.188263 0.238048 0.524244
v 0.188430 0.238490 0.523553
v 0.188694 0.239065 0.523005
v 0.189036 0.239734 0.522637
v 0.193197 0.239623 0.551453
v 0.193156 0.238850 0.551135
v 0.193090 0.238186 0.550630
v 0.193004 0.237676 0.549971
v 0.192905 0.237356 0.549205
v 0.192798 0.237247 0.548382
v 0.189846 0.237247 0.525655
v 0.189739 0.237356 0.524832
v 0.189640 0.237676 0.524065
v 0.189554 0.238186 0.523407
v 0.189489 0.238850 0.522901
v 0.189447 0.239623 0.522584
v 0.193608 0.239734 0.551399
v 0.193950 0.239065 0.551032
v 0.194214 0.238490 0.550484
v 0.194381 0.238048 0.549793
v 0.194440 0.237771 0.549005
v 0.194388 0.237676 0.548175
v 0.191436 0.237676 0.525448
v 0.191275 0.237771 0.524633
v 0.191017 0.238048 0.523886
v 0.190678 0.238490 0.523261
v 0.190283 0.239065 0.522798
v 0.189859 0.239734 0.522530
v 0.193909 0.240038 0.551360
v 0.194532 0.239651 0.550956
v 0.195037 0.239319 0.550377
v 0.195389 0.239065 0.549662
v 0.195564 0.238905 0.548859
v 0.195551 0.238850 0.548024
v 0.192600 0.238850 0.525297
v 0.192399 0.238905 0.524487
v 0.192024 0.239065 0.523755
v 0.191501 0.239319 0.523154
v 0.190865 0.239651 0.522723
v 0.190160 0.240038 0.522491
v 0.311848 0.269867 0.025846
v -0.155201 0.156666 0.025846
v -0.155201 0.269867 0.025846
v 0.310649 0.156666 0.025846
v 0.310649 -0.232446 0.025846
v 0.311848 -0.232446 0.025846
v 0.310649 -0.232446 0.378068
v 0.474144 -0.254117 0.396259
v 0.310649 -0.254117 0.396259
v 0.311848 -0.232446 0.378068
v 0.477141 -0.232446 0.378068
v 0.477141 -0.254117 0.396259
v 0.477141 0.269867 0.529464
v 0.477141 0.269867 0.025846
v -0.155201 0.269867 0.529464
v 0.477141 0.156666 0.512090
v 0.310649 -0.232446 0.512090
v 0.310649 0.156666 0.512090
v 0.310649 -0.254117 0.512090
v 0.477141 -0.254117 0.512090
v 0.477141 -0.232446 0.025846
v 0.477141 0.156666 0.025846
v -0.155201 0.156666 0.529464
v 0.310649 0.156666 0.529464
v 0.477141 0.156666 0.529464
v 0.477141 -0.181881 0.046987
v 0.477141 0.156666 0.046987
v 0.477141 -0.181881 0.467518
v 0.477141 0.156666 0.467518
v -0.028649 0.249314 0.523936
v -0.028649 0.241812 0.523936
v -0.029142 0.245563 0.523936
v -0.027201 0.252809 0.523936
v -0.027201 0.238317 0.523936
v -0.024898 0.255811 0.523936
v -0.024898 0.235316 0.523936
v -0.021896 0.258114 0.523936
v -0.021896 0.233013 0.523936
v -0.018401 0.259561 0.523936
v -0.018401 0.231565 0.523936
v -0.014650 0.260055 0.523936
v -0.014650 0.231071 0.523936
v -0.010900 0.259561 0.523936
v -0.010900 0.231565 0.523936
v -0.007404 0.258114 0.523936
v -0.007404 0.233013 0.523936
v -0.004403 0.255811 0.523936
v -0.004403 0.235316 0.523936
v -0.002100 0.252809 0.523936
v -0.002100 0.238317 0.523936
v -0.000652 0.249314 0.523936
v -0.000652 0.241812 0.523936
v -0.000158 0.245563 0.523936
v -0.014650 0.260055 0.529464
v -0.010900 0.259561 0.529464
v -0.007404 0.258114 0.529464
v -0.004403 0.255811 0.529464
v -0.002100 0.252809 0.529464
v -0.000652 0.249314 0.529464
v -0.000158 0.245563 0.529464
v -0.000652 0.241812 0.529464
v -0.002100 0.238317 0.529464
v -0.004403 0.235316 0.529464
v -0.007404 0.233013 0.529464
v -0.010900 0.231565 0.529464
v -0.014650 0.231071 0.529464
v -0.018401 0.231565 0.529464
v -0.021896 0.233013 0.529464
v -0.024898 0.235316 0.529464
v -0.027201 0.238317 0.529464
v -0.028649 0.241812 0.529464
v -0.029142 0.245563 0.529464
v -0.028649 0.249314 0.529464
v -0.027201 0.252809 0.529464
v -0.024898 0.255811 0.529464
v -0.021896 0.258114 0.529464
v -0.018401 0.259561 0.529464
v -0.028158 0.200456 0.523936
v -0.028973 0.192999 0.523936
v -0.029057 0.196781 0.523936
v -0.027914 0.189367 0.523936
v -0.026339 0.203773 0.523936
v -0.025951 0.186133 0.523936
v -0.023724 0.206507 0.523936
v -0.023217 0.183517 0.523936
v -0.020490 0.208470 0.523936
v -0.019900 0.181698 0.523936
v -0.016858 0.209529 0.523936
v -0.016225 0.180800 0.523936
v -0.013076 0.209613 0.523936
v -0.012443 0.180883 0.523936
v -0.009401 0.208714 0.523936
v -0.008811 0.181943 0.523936
v -0.006084 0.206895 0.523936
v -0.005577 0.183906 0.523936
v -0.003350 0.204280 0.523936
v -0.002961 0.186640 0.523936
v -0.001387 0.201046 0.523936
v -0.001142 0.189957 0.523936
v -0.000327 0.197414 0.523936
v -0.000244 0.193632 0.523936
v -0.027914 0.189367 0.529464
v -0.025951 0.186133 0.529464
v -0.028973 0.192999 0.529464
v -0.029057 0.196781 0.529464
v -0.028158 0.200456 0.529464
v -0.026339 0.203773 0.529464
v -0.023724 0.206507 0.529464
v -0.020490 0.208470 0.529464
v -0.016858 0.209529 0.529464
v -0.013076 0.209613 0.529464
v -0.009401 0.208714 0.529464
v -0.006084 0.206895 0.529464
v -0.003350 0.204280 0.529464
v -0.001387 0.201046 0.529464
v -0.000327 0.197414 0.529464
v -0.000244 0.193632 0.529464
v -0.001142 0.189957 0.529464
v -0.002961 0.186640 0.529464
v -0.005577 0.183906 0.529464
v -0.008811 0.181943 0.529464
v -0.012443 0.180883 0.529464
v -0.016225 0.180800 0.529464
v -0.019900 0.181698 0.529464
v -0.023217 0.183517 0.529464
v 0.281258 0.260223 0.529464
v 0.191801 0.254766 0.529464
v 0.188050 0.254272 0.529464
v 0.184555 0.252824 0.529464
v 0.181553 0.250521 0.529464
v 0.179250 0.247520 0.529464
v 0.177802 0.244025 0.529464
v 0.177308 0.240274 0.529464
v 0.195551 0.254272 0.529464
v 0.199047 0.252824 0.529464
v 0.202048 0.250521 0.529464
v 0.271876 0.258988 0.529464
v 0.204351 0.247520 0.529464
v 0.205799 0.244025 0.529464
v 0.206293 0.240274 0.529464
v 0.263134 0.255367 0.529464
v 0.255626 0.249606 0.529464
v 0.249866 0.242099 0.529464
v 0.246245 0.233357 0.529464
v 0.245010 0.223975 0.529464
v 0.290639 0.258988 0.529464
v 0.299382 0.255367 0.529464
v 0.306889 0.249606 0.529464
v 0.312649 0.242099 0.529464
v 0.316271 0.233357 0.529464
v 0.317506 0.223975 0.529464
v 0.184555 0.227723 0.529464
v 0.181553 0.230026 0.529464
v 0.179250 0.233028 0.529464
v 0.177802 0.236523 0.529464
v 0.188050 0.226276 0.529464
v 0.191801 0.225782 0.529464
v 0.195551 0.226276 0.529464
v 0.199047 0.227723 0.529464
v 0.202048 0.230026 0.529464
v 0.204351 0.233028 0.529464
v 0.263134 0.192584 0.529464
v 0.205799 0.236523 0.529464
v 0.255626 0.198344 0.529464
v 0.249866 0.205851 0.529464
v 0.246245 0.214594 0.529464
v 0.271876 0.188962 0.529464
v 0.281258 0.187727 0.529464
v 0.290639 0.188962 0.529464
v 0.299382 0.192584 0.529464
v 0.306889 0.198344 0.529464
v 0.312649 0.205851 0.529464
v 0.316271 0.214594 0.529464
v 0.246245 0.233357 0.520310
v 0.246245 0.214594 0.520310
v 0.245010 0.223975 0.520310
v 0.249866 0.242099 0.520310
v 0.249866 0.205851 0.520310
v 0.255626 0.249606 0.520310
v 0.255626 0.198344 0.520310
v 0.263134 0.255367 0.520310
v 0.263134 0.192584 0.520310
v 0.271876 0.188962 0.520310
v 0.271876 0.258988 0.520310
v 0.281258 0.260223 0.520310
v 0.281258 0.187727 0.520310
v 0.290639 0.258988 0.520310
v 0.290639 0.188962 0.520310
v 0.299382 0.255367 0.520310
v 0.299382 0.192584 0.520310
v 0.306889 0.198344 0.520310
v 0.306889 0.249606 0.520310
v 0.312649 0.242099 0.520310
v 0.312649 0.205851 0.520310
v 0.316271 0.233357 0.520310
v 0.316271 0.214594 0.520310
v 0.317506 0.223975 0.520310
v 0.177802 0.244025 0.526830
v 0.177802 0.236523 0.526830
v 0.177308 0.240274 0.526830
v 0.179250 0.247520 0.526830
v 0.179250 0.233028 0.526830
v 0.181553 0.250521 0.526830
v 0.181553 0.230026 0.526830
v 0.184555 0.252824 0.526830
v 0.184555 0.227723 0.526830
v 0.188050 0.254272 0.526830
v 0.188050 0.226276 0.526830
v 0.191801 0.225782 0.526830
v 0.191801 0.254766 0.526830
v 0.195551 0.254272 0.526830
v 0.195551 0.226276 0.526830
v 0.199047 0.252824 0.526830
v 0.199047 0.227723 0.526830
v 0.202048 0.250521 0.526830
v 0.202048 0.230026 0.526830
v 0.204351 0.247520 0.526830
v 0.204351 0.233028 0.526830
v 0.205799 0.244025 0.526830
v 0.205799 0.236523 0.526830
v 0.206293 0.240274 0.526830
v 0.311848 0.158536 0.025846
v 0.311848 0.088462 0.000000
v 0.311848 0.088462 0.025846
v 0.311848 0.158536 0.000000
v 0.477140 0.158536 0.000000
v 0.477140 0.088462 0.000000
v 0.477140 0.158536 0.025846
v 0.310649 -0.144164 0.025846
v 0.477140 -0.144164 0.000000
v 0.310649 -0.144164 0.000000
v 0.477140 -0.144164 0.025846
v 0.477140 -0.219598 0.025846
v 0.477140 -0.219598 0.000000
v 0.310649 -0.219598 0.000000
v 0.310649 -0.219598 0.025846
v 0.477140 0.088462 0.025846
v 0.311848 0.088462 0.000000
v 0.477140 0.088462 0.000000
v 0.311848 0.088462 0.025846
v 0.477140 0.158536 0.000000
v 0.477140 0.158536 0.025846
v -0.376748 -0.232602 0.141421
v -0.389589 -0.232602 0.149124
v -0.459719 -0.232602 0.141421
v -0.376748 -0.232602 0.171859
v -0.389654 -0.232602 0.149123
v -0.448933 -0.232602 0.147541
v -0.389950 -0.232602 0.158345
v -0.390273 -0.232602 0.166595
v -0.459719 -0.232602 0.171859
v -0.449282 -0.232602 0.165519
v -0.376748 -0.232602 0.127675
v -0.380615 -0.232602 0.131998
v -0.459719 -0.232602 0.127675
v -0.380615 -0.232602 0.137195
v -0.389025 -0.232602 0.137195
v -0.391803 -0.232602 0.137195
v -0.400212 -0.232602 0.137195
v -0.406134 -0.232602 0.137195
v -0.414544 -0.232602 0.137195
v -0.419120 -0.232602 0.137195
v -0.427530 -0.232602 0.137195
v -0.430818 -0.232602 0.137195
v -0.439227 -0.232602 0.137195
v -0.443705 -0.232602 0.137195
v -0.452114 -0.232602 0.137195
v -0.452114 -0.232602 0.131998
v -0.389025 -0.232602 0.131998
v -0.391803 -0.232602 0.131998
v -0.400212 -0.232602 0.131998
v -0.406134 -0.232602 0.131998
v -0.414544 -0.232602 0.131998
v -0.419120 -0.232602 0.131998
v -0.427530 -0.232602 0.131998
v -0.430818 -0.232602 0.131998
v -0.439227 -0.232602 0.131998
v -0.443705 -0.232602 0.131998
f 1 2 3
f 1 4 2
f 4 1 5
f 5 6 4
f 6 5 7
f 8 7 9
f 7 8 6
f 10 9 11
f 9 10 8
f 12 11 13
f 11 12 10
f 14 13 15
f 13 14 12
f 16 15 17
f 15 16 14
f 18 17 19
f 17 18 16
f 20 19 21
f 19 20 18
f 20 22 23
f 22 20 21
f 23 24 25
f 24 23 22
f 24 26 25
f 2 27 3
f 2 28 27
f 28 2 4
f 4 29 28
f 29 4 6
f 6 30 29
f 30 6 8
f 10 30 8
f 30 10 31
f 12 31 10
f 31 12 32
f 32 14 33
f 14 32 12
f 33 16 34
f 16 33 14
f 34 18 35
f 18 34 16
f 35 20 36
f 20 35 18
f 36 23 37
f 23 36 20
f 37 25 38
f 25 37 23
f 25 26 38
f 27 39 3
f 39 28 40
f 28 39 27
f 40 29 41
f 29 40 28
f 41 30 42
f 30 41 29
f 42 31 43
f 31 42 30
f 43 32 44
f 32 43 31
f 44 33 45
f 33 44 32
f 45 34 46
f 34 45 33
f 46 35 47
f 35 46 34
f 47 36 48
f 36 47 35
f 36 49 48
f 49 36 37
f 37 50 49
f 50 37 38
f 38 26 50
f 3 39 51
f 51 40 52
f 40 51 39
f 52 41 53
f 41 52 40
f 53 42 54
f 42 53 41
f 54 43 55
f 43 54 42
f 55 44 56
f 44 55 43
f 56 45 57
f 45 56 44
f 57 46 58
f 46 57 45
f 58 47 59
f 47 58 46
f 59 48 60
f 48 59 47
f 48 61 60
f 61 48 49
f 49 62 61
f 62 49 50
f 50 26 62
f 3 51 63
f 63 52 64
f 52 63 51
f 64 53 65
f 53 64 52
f 65 54 66
f 54 65 53
f 54 67 66
f 67 54 55
f 55 68 67
f 68 55 56
f 56 69 68
f 69 56 57
f 69 58 70
f 58 69 57
f 70 59 71
f 59 70 58
f 59 72 71
f 72 59 60
f 60 73 72
f 73 60 61
f 61 74 73
f 74 61 62
f 26 74 62
f 3 63 75
f 75 64 76
f 64 75 63
f 76 65 77
f 65 76 64
f 77 66 78
f 66 77 65
f 78 67 79
f 67 78 66
f 79 68 80
f 68 79 67
f 68 81 80
f 81 68 69
f 69 82 81
f 82 69 70
f 70 83 82
f 83 70 71
f 71 84 83
f 84 71 72
f 72 85 84
f 85 72 73
f 73 86 85
f 86 73 74
f 26 86 74
f 3 75 87
f 88 75 76
f 75 88 87
f 89 76 77
f 76 89 88
f 89 78 90
f 78 89 77
f 90 79 91
f 79 90 78
f 91 80 92
f 80 91 79
f 80 93 92
f 93 80 81
f 81 94 93
f 94 81 82
f 82 95 94
f 95 82 83
f 83 96 95
f 96 83 84
f 85 96 84
f 96 85 97
f 86 97 85
f 97 86 98
f 26 98 86
f 3 87 99
f 100 87 88
f 87 100 99
f 101 88 89
f 88 101 100
f 102 89 90
f 89 102 101
f 102 91 103
f 91 102 90
f 103 92 104
f 92 103 91
f 104 93 105
f 93 104 92
f 105 94 106
f 94 105 93
f 106 95 107
f 95 106 94
f 96 107 95
f 107 96 108
f 97 108 96
f 108 97 109
f 98 109 97
f 109 98 110
f 26 110 98
f 3 99 111
f 112 99 100
f 99 112 111
f 113 100 101
f 100 113 112
f 113 102 114
f 102 113 101
f 114 103 115
f 103 114 102
f 115 104 116
f 104 115 103
f 116 105 117
f 105 116 104
f 117 106 118
f 106 117 105
f 118 107 119
f 107 118 106
f 119 108 120
f 108 119 107
f 109 120 108
f 120 109 121
f 110 121 109
f 121 110 122
f 122 110 26
f 123 3 111
f 112 123 111
f 123 112 124
f 113 124 112
f 124 113 125
f 125 114 126
f 114 125 113
f 126 115 127
f 115 126 114
f 127 116 128
f 116 127 115
f 128 117 129
f 117 128 116
f 129 118 130
f 118 129 117
f 130 119 131
f 119 130 118
f 131 120 132
f 120 131 119
f 133 120 121
f 120 133 132
f 134 121 122
f 121 134 133
f 134 122 26
f 135 3 123
f 124 135 123
f 135 124 136
f 125 136 124
f 136 125 137
f 126 137 125
f 137 126 138
f 139 126 127
f 126 139 138
f 140 127 128
f 127 140 139
f 141 128 129
f 128 141 140
f 130 141 129
f 141 130 142
f 131 142 130
f 142 131 143
f 144 131 132
f 131 144 143
f 145 132 133
f 132 145 144
f 146 133 134
f 133 146 145
f 146 134 26
f 1 3 135
f 136 1 135
f 1 136 5
f 137 5 136
f 5 137 7
f 9 137 138
f 137 9 7
f 11 138 139
f 138 11 9
f 13 139 140
f 139 13 11
f 15 140 141
f 140 15 13
f 142 15 141
f 15 142 17
f 143 17 142
f 17 143 19
f 144 19 143
f 19 144 21
f 22 144 145
f 144 22 21
f 24 145 146
f 145 24 22
f 24 146 26
f 147 148 149
f 148 147 150
f 150 147 151
f 151 147 152
f 153 154 155
f 154 153 156
f 154 156 157
f 154 157 158
f 159 147 160
f 147 159 149
f 149 159 161
f 162 163 164
f 163 162 165
f 165 162 166
f 167 147 152
f 147 167 160
f 160 167 168
f 150 153 151
f 153 150 163
f 163 150 164
f 153 165 155
f 165 153 163
f 149 169 148
f 169 149 161
f 169 150 148
f 150 169 164
f 164 169 170
f 170 162 164
f 162 170 171
f 167 172 157
f 172 167 168
f 172 168 173
f 157 166 158
f 166 157 174
f 166 174 162
f 174 157 172
f 162 174 175
f 176 177 178
f 177 176 179
f 177 179 180
f 180 179 181
f 180 181 182
f 182 181 183
f 182 183 184
f 184 183 185
f 184 185 186
f 186 185 187
f 186 187 188
f 188 187 189
f 188 189 190
f 190 189 191
f 190 191 192
f 192 191 193
f 192 193 194
f 194 193 195
f 194 195 196
f 196 195 197
f 196 197 198
f 198 197 199
f 200 189 187
f 189 200 201
f 201 191 189
f 191 201 202
f 202 193 191
f 193 202 203
f 193 204 195
f 204 193 203
f 195 205 197
f 205 195 204
f 197 206 199
f 206 197 205
f 199 207 198
f 207 199 206
f 198 208 196
f 208 198 207
f 196 209 194
f 209 196 208
f 209 192 194
f 192 209 210
f 210 190 192
f 190 210 211
f 211 188 190
f 188 211 212
f 212 186 188
f 186 212 213
f 213 184 186
f 184 213 214
f 214 182 184
f 182 214 215
f 216 182 215
f 182 216 180
f 217 180 216
f 180 217 177
f 218 177 217
f 177 218 178
f 219 178 218
f 178 219 176
f 220 176 219
f 176 220 179
f 221 179 220
f 179 221 181
f 221 183 181
f 183 221 222
f 222 185 183
f 185 222 223
f 223 187 185
f 187 223 200
f 224 225 226
f 225 224 227
f 227 224 228
f 227 228 229
f 229 228 230
f 229 230 231
f 231 230 232
f 231 232 233
f 233 232 234
f 233 234 235
f 235 234 236
f 235 236 237
f 237 236 238
f 237 238 239
f 239 238 240
f 239 240 241
f 241 240 242
f 241 242 243
f 243 242 244
f 243 244 245
f 245 244 246
f 245 246 247
f 248 229 249
f 229 248 227
f 250 227 248
f 227 250 225
f 251 225 250
f 225 251 226
f 252 226 251
f 226 252 224
f 253 224 252
f 224 253 228
f 254 228 253
f 228 254 230
f 254 232 230
f 232 254 255
f 255 234 232
f 234 255 256
f 256 236 234
f 236 256 257
f 257 238 236
f 238 257 258
f 258 240 238
f 240 258 259
f 240 260 242
f 260 240 259
f 242 261 244
f 261 242 260
f 244 262 246
f 262 244 261
f 246 263 247
f 263 246 262
f 247 264 245
f 264 247 263
f 245 265 243
f 265 245 264
f 243 266 241
f 266 243 265
f 266 239 241
f 239 266 267
f 267 237 239
f 237 267 268
f 268 235 237
f 235 268 269
f 269 233 235
f 233 269 270
f 270 231 233
f 231 270 271
f 249 231 271
f 231 249 229
f 217 251 218
f 251 217 252
f 252 217 216
f 252 216 253
f 253 216 215
f 253 215 254
f 254 215 214
f 254 214 255
f 255 214 213
f 255 213 256
f 256 213 212
f 256 212 257
f 257 212 211
f 257 211 258
f 258 211 210
f 258 210 259
f 259 210 209
f 259 209 260
f 260 209 208
f 260 208 261
f 261 208 207
f 261 207 262
f 262 207 206
f 262 206 263
f 161 222 169
f 222 161 223
f 223 161 200
f 200 161 159
f 169 222 221
f 169 221 220
f 169 220 219
f 169 219 218
f 200 159 201
f 201 159 202
f 202 159 203
f 203 159 204
f 204 159 205
f 205 159 272
f 205 272 206
f 206 272 273
f 206 273 274
f 206 274 275
f 206 275 276
f 206 276 277
f 206 277 278
f 206 278 279
f 273 272 280
f 280 272 281
f 281 272 282
f 282 272 283
f 282 283 284
f 284 283 285
f 285 283 286
f 286 283 287
f 286 287 288
f 286 288 289
f 286 289 290
f 286 290 291
f 272 159 292
f 292 159 293
f 293 159 294
f 294 159 295
f 295 159 296
f 296 159 297
f 169 269 170
f 269 169 270
f 270 169 271
f 271 169 249
f 249 169 248
f 248 169 250
f 250 169 251
f 251 169 218
f 170 269 268
f 170 268 267
f 170 267 266
f 170 266 265
f 170 265 264
f 170 264 263
f 170 263 206
f 170 206 298
f 298 206 299
f 299 206 300
f 300 206 301
f 301 206 279
f 170 298 302
f 170 302 303
f 170 303 304
f 170 304 305
f 170 305 306
f 170 306 307
f 170 307 308
f 308 307 309
f 308 309 310
f 310 309 286
f 310 286 311
f 311 286 312
f 312 286 291
f 170 308 313
f 170 313 314
f 170 314 315
f 170 315 316
f 170 316 317
f 170 317 318
f 170 318 171
f 171 318 319
f 171 319 297
f 171 297 159
f 320 321 322
f 321 320 323
f 321 323 324
f 324 323 325
f 324 325 326
f 326 325 327
f 326 327 328
f 328 327 329
f 329 327 330
f 329 330 331
f 329 331 332
f 332 331 333
f 332 333 334
f 334 333 335
f 334 335 336
f 336 335 337
f 337 335 338
f 337 338 339
f 337 339 340
f 340 339 341
f 340 341 342
f 342 341 343
f 283 331 330
f 331 283 272
f 272 333 331
f 333 272 292
f 292 335 333
f 335 292 293
f 293 338 335
f 338 293 294
f 338 295 339
f 295 338 294
f 339 296 341
f 296 339 295
f 341 297 343
f 297 341 296
f 343 319 342
f 319 343 297
f 342 318 340
f 318 342 319
f 340 317 337
f 317 340 318
f 317 336 337
f 336 317 316
f 316 334 336
f 334 316 315
f 315 332 334
f 332 315 314
f 314 329 332
f 329 314 313
f 313 328 329
f 328 313 308
f 308 326 328
f 326 308 310
f 311 326 310
f 326 311 324
f 312 324 311
f 324 312 321
f 291 321 312
f 321 291 322
f 290 322 291
f 322 290 320
f 289 320 290
f 320 289 323
f 288 323 289
f 323 288 325
f 288 327 325
f 327 288 287
f 287 330 327
f 330 287 283
f 344 345 346
f 345 344 347
f 345 347 348
f 348 347 349
f 348 349 350
f 350 349 351
f 350 351 352
f 352 351 353
f 352 353 354
f 354 353 355
f 355 353 356
f 355 356 357
f 355 357 358
f 358 357 359
f 358 359 360
f 360 359 361
f 360 361 362
f 362 361 363
f 362 363 364
f 364 363 365
f 364 365 366
f 366 365 367
f 305 358 360
f 358 305 304
f 304 355 358
f 355 304 303
f 303 354 355
f 354 303 302
f 302 352 354
f 352 302 298
f 298 350 352
f 350 298 299
f 300 350 299
f 350 300 348
f 301 348 300
f 348 301 345
f 279 345 301
f 345 279 346
f 278 346 279
f 346 278 344
f 277 344 278
f 344 277 347
f 276 347 277
f 347 276 349
f 276 351 349
f 351 276 275
f 275 353 351
f 353 275 274
f 274 356 353
f 356 274 273
f 273 357 356
f 357 273 280
f 280 359 357
f 359 280 281
f 281 361 359
f 361 281 282
f 361 284 363
f 284 361 282
f 363 285 365
f 285 363 284
f 365 286 367
f 286 365 285
f 367 309 366
f 309 367 286
f 366 307 364
f 307 366 309
f 364 306 362
f 306 364 307
f 306 360 362
f 360 306 305
f 368 369 370
f 369 368 371
f 372 369 371
f 369 372 373
f 368 372 371
f 372 368 374
f 375 376 377
f 376 375 378
f 376 379 380
f 379 376 378
f 375 381 382
f 381 375 377
f 379 381 380
f 381 379 382
f 376 381 377
f 381 376 380
f 383 384 385
f 384 383 386
f 387 383 385
f 383 387 388
f 389 390 391
f 390 389 392
f 391 390 393
f 391 393 394
f 390 392 395
f 395 392 396
f 394 397 391
f 397 394 398
f 397 398 396
f 397 396 392
f 399 400 401
f 400 399 389
f 400 389 402
f 402 389 403
f 403 389 404
f 404 389 405
f 405 389 406
f 406 389 407
f 407 389 408
f 408 389 409
f 409 389 410
f 410 389 411
f 411 389 412
f 412 389 413
f 401 414 391
f 414 401 400
f 414 400 415
f 414 415 416
f 414 416 417
f 414 417 418
f 414 418 419
f 414 419 420
f 414 420 421
f 414 421 422
f 414 422 423
f 414 423 424
f 391 414 413
f 391 413 389
f 411 424 423
f 424 411 412
f 409 422 421
f 422 409 410
f 407 420 419
f 420 407 408
f 405 418 417
f 418 405 406
f 403 416 415
f 416 403 404
