v -0.059575 -0.126767 0.340923
v -0.059575 -0.132228 0.340923
v -0.060118 -0.129498 0.340923
v -0.058029 -0.134542 0.340923
v -0.058029 -0.124453 0.340923
v -0.055714 -0.136089 0.340923
v -0.055714 -0.122906 0.340923
v -0.052984 -0.136632 0.340923
v -0.052984 -0.122363 0.340923
v -0.050254 -0.136089 0.340923
v -0.050254 -0.122906 0.340923
v -0.047939 -0.124453 0.340923
v -0.047939 -0.134542 0.340923
v -0.046392 -0.132228 0.340923
v -0.046392 -0.126767 0.340923
v -0.045849 -0.129498 0.340923
v -0.059575 -0.132228 0.344804
v -0.059575 -0.126767 0.344804
v -0.060118 -0.129498 0.344804
v -0.058029 -0.134542 0.344804
v -0.058029 -0.124453 0.344804
v -0.055714 -0.136089 0.344804
v -0.055714 -0.122906 0.344804
v -0.052984 -0.136632 0.344804
v -0.052984 -0.122363 0.344804
v -0.050254 -0.136089 0.344804
v -0.050254 -0.122906 0.344804
v -0.047939 -0.124453 0.344804
v -0.047939 -0.134542 0.344804
v -0.046392 -0.132228 0.344804
v -0.046392 -0.126767 0.344804
v -0.045849 -0.129498 0.344804
f 1 2 3
f 2 1 4
f 4 1 5
f 4 5 6
f 6 5 7
f 6 7 8
f 8 7 9
f 8 9 10
f 10 9 11
f 10 11 12
f 10 12 13
f 13 12 14
f 14 12 15
f 14 15 16
f 17 18 19
f 18 17 20
f 18 20 21
f 21 20 22
f 21 22 23
f 23 22 24
f 23 24 25
f 25 24 26
f 25 26 27
f 27 26 28
f 28 26 29
f 28 29 30
f 28 30 31
f 31 30 32
f 15 32 16
f 32 15 31
f 12 31 15
f 31 12 28
f 27 12 11
f 12 27 28
f 25 11 9
f 11 25 27
f 23 9 7
f 9 23 25
f 21 7 5
f 7 21 23
f 21 1 18
f 1 21 5
f 18 3 19
f 3 18 1
f 19 2 17
f 2 19 3
f 17 4 20
f 4 17 2
f 22 4 6
f 4 22 20
f 24 6 8
f 6 24 22
f 26 8 10
f 8 26 24
f 29 10 13
f 10 29 26
f 14 29 13
f 29 14 30
f 16 30 14
f 30 16 32
