v 0.033366 -0.117580 0.571833
v 0.034239 -0.116997 0.567507
v 0.034239 -0.116997 0.571833
v 0.034212 -0.117014 0.567545
v 0.033366 -0.117580 0.567566
v 0.029878 -0.116161 0.567322
v 0.029854 -0.116125 0.571833
v 0.029854 -0.116125 0.567155
v 0.030436 -0.116997 0.567385
v 0.030436 -0.116997 0.571833
v 0.034821 -0.114067 0.571833
v 0.034825 -0.114084 0.567245
v 0.034821 -0.114067 0.567182
v 0.035026 -0.115096 0.571833
v 0.035026 -0.115096 0.567218
v 0.033366 -0.112612 0.626033
v 0.034239 -0.113195 0.631093
v 0.034239 -0.113195 0.626033
v 0.033366 -0.112612 0.631093
v 0.029649 -0.115096 0.571833
v 0.029852 -0.114076 0.567047
v 0.029649 -0.115096 0.567020
v 0.029854 -0.114067 0.571833
v 0.029854 -0.114067 0.567014
v 0.029854 -0.116125 0.631093
v 0.029649 -0.115096 0.626033
v 0.029854 -0.116125 0.626033
v 0.029649 -0.115096 0.631093
v 0.034821 -0.116125 0.567355
v 0.034821 -0.116125 0.567353
v 0.034821 -0.116125 0.567355
v 0.029655 -0.115124 0.567129
v 0.030441 -0.113191 0.567103
v 0.031309 -0.112612 0.571833
v 0.031309 -0.112612 0.567168
v 0.030436 -0.113195 0.571833
v 0.030436 -0.113195 0.567079
v 0.035026 -0.115096 0.631093
v 0.034821 -0.116125 0.626033
v 0.035026 -0.115096 0.626033
v 0.034821 -0.116125 0.631093
v 0.032348 -0.112409 0.567279
v 0.033366 -0.112612 0.571833
v 0.033366 -0.112612 0.567253
v 0.032338 -0.112407 0.571833
v 0.032338 -0.112407 0.567240
v 0.031309 -0.117580 0.571833
v 0.032338 -0.117784 0.567579
v 0.032338 -0.117784 0.571833
v 0.031342 -0.117586 0.567571
v 0.031309 -0.117580 0.567530
v 0.034821 -0.114067 0.631093
v 0.034821 -0.114067 0.626033
v 0.035020 -0.115124 0.567327
v 0.034821 -0.116125 0.571833
v 0.034802 -0.116153 0.567486
v 0.034802 -0.116154 0.567487
v 0.034239 -0.113195 0.571833
v 0.034243 -0.113202 0.567247
v 0.034239 -0.113195 0.567214
v 0.033372 -0.112616 0.567279
v 0.031320 -0.112610 0.567214
v 0.031309 -0.112612 0.626033
v 0.032338 -0.112407 0.631093
v 0.032338 -0.112407 0.626033
v 0.031309 -0.112612 0.631093
v 0.031309 -0.117580 0.631093
v 0.032338 -0.117784 0.626033
v 0.032338 -0.117784 0.631093
v 0.031309 -0.117580 0.626033
v 0.030436 -0.116997 0.631093
v 0.030436 -0.116997 0.626033
v 0.029854 -0.114067 0.631093
v 0.030436 -0.113195 0.626033
v 0.029854 -0.114067 0.626033
v 0.030436 -0.113195 0.631093
v 0.033352 -0.117582 0.567583
v 0.032348 -0.117782 0.567592
v 0.030475 -0.117022 0.567510
v 0.030458 -0.117011 0.567486
v 0.033366 -0.117580 0.626033
v 0.033366 -0.117580 0.631093
v 0.034239 -0.116997 0.626033
v 0.034239 -0.116997 0.631093
f 1 2 3
f 2 1 4
f 4 1 5
f 6 7 8
f 7 6 9
f 7 9 10
f 11 12 13
f 12 14 15
f 14 12 11
f 16 17 18
f 17 16 19
f 20 21 22
f 21 23 24
f 23 21 20
f 25 26 27
f 26 25 28
f 29 30 31
f 32 20 22
f 20 32 8
f 20 8 7
f 33 34 35
f 34 33 36
f 36 33 37
f 38 39 40
f 39 38 41
f 42 43 44
f 43 42 45
f 45 42 46
f 47 48 49
f 48 47 50
f 50 47 51
f 52 40 53
f 40 52 38
f 14 54 15
f 54 14 30
f 30 14 31
f 31 14 55
f 55 29 31
f 29 55 56
f 56 55 57
f 57 55 2
f 2 55 3
f 58 59 60
f 59 11 13
f 11 59 58
f 60 43 58
f 43 60 61
f 43 61 44
f 62 45 46
f 45 62 34
f 34 62 35
f 63 64 65
f 64 63 66
f 67 68 69
f 68 67 70
f 71 70 67
f 70 71 72
f 71 27 72
f 27 71 25
f 73 74 75
f 74 73 76
f 17 53 18
f 53 17 52
f 49 5 1
f 5 49 77
f 77 49 78
f 78 49 48
f 65 19 16
f 19 65 64
f 23 37 24
f 37 23 36
f 28 75 26
f 75 28 73
f 10 51 47
f 51 10 79
f 79 10 80
f 80 10 9
f 69 81 82
f 81 69 68
f 41 83 39
f 83 41 84
f 74 66 63
f 66 74 76
f 82 83 84
f 83 82 81
