v 0.041339 -0.120602 0.610633
v 0.039587 -0.120602 0.610633
v 0.040463 -0.120777 0.610633
v 0.038844 -0.120106 0.610633
v 0.042082 -0.120106 0.610633
v 0.038348 -0.119363 0.610633
v 0.042578 -0.119363 0.610633
v 0.038173 -0.118487 0.610633
v 0.042753 -0.118487 0.610633
v 0.038348 -0.117611 0.610633
v 0.042578 -0.117611 0.610633
v 0.042082 -0.116868 0.610633
v 0.038844 -0.116868 0.610633
v 0.039587 -0.116372 0.610633
v 0.041339 -0.116372 0.610633
v 0.040463 -0.116197 0.610633
v 0.039587 -0.120602 0.609087
v 0.041339 -0.120602 0.609087
v 0.040463 -0.120777 0.609087
v 0.038844 -0.120106 0.609087
v 0.042082 -0.120106 0.609087
v 0.038348 -0.119363 0.609087
v 0.042578 -0.119363 0.609087
v 0.038173 -0.118487 0.609087
v 0.042753 -0.118487 0.609087
v 0.038348 -0.117611 0.609087
v 0.042578 -0.117611 0.609087
v 0.042082 -0.116868 0.609087
v 0.038844 -0.116868 0.609087
v 0.039587 -0.116372 0.609087
v 0.041339 -0.116372 0.609087
v 0.040463 -0.116197 0.609087
v 0.041339 -0.116372 0.610633
v 0.040463 -0.116197 0.609087
v 0.040463 -0.116197 0.610633
v 0.040463 -0.116197 0.609087
v 0.041339 -0.116372 0.610633
v 0.041339 -0.116372 0.609087
v 0.042082 -0.116868 0.610633
v 0.041339 -0.116372 0.609087
v 0.041339 -0.116372 0.610633
v 0.041339 -0.116372 0.609087
v 0.042082 -0.116868 0.610633
v 0.042082 -0.116868 0.609087
v 0.042578 -0.117611 0.609087
v 0.042082 -0.116868 0.610633
v 0.042578 -0.117611 0.610633
v 0.042082 -0.116868 0.610633
v 0.042578 -0.117611 0.609087
v 0.042082 -0.116868 0.609087
v 0.042753 -0.118487 0.609087
v 0.042578 -0.117611 0.610633
v 0.042753 -0.118487 0.610633
v 0.042578 -0.117611 0.610633
v 0.042753 -0.118487 0.609087
v 0.042578 -0.117611 0.609087
v 0.042578 -0.119363 0.609087
v 0.042753 -0.118487 0.610633
v 0.042578 -0.119363 0.610633
v 0.042753 -0.118487 0.610633
v 0.042578 -0.119363 0.609087
v 0.042753 -0.118487 0.609087
v 0.042082 -0.120106 0.609087
v 0.042578 -0.119363 0.610633
v 0.042082 -0.120106 0.610633
v 0.042578 -0.119363 0.610633
v 0.042082 -0.120106 0.609087
v 0.042578 -0.119363 0.609087
v 0.042082 -0.120106 0.609087
v 0.041339 -0.120602 0.610633
v 0.041339 -0.120602 0.609087
v 0.041339 -0.120602 0.610633
v 0.042082 -0.120106 0.609087
v 0.042082 -0.120106 0.610633
v 0.041339 -0.120602 0.609087
v 0.040463 -0.120777 0.610633
v 0.040463 -0.120777 0.609087
v 0.040463 -0.120777 0.610633
v 0.041339 -0.120602 0.609087
v 0.041339 -0.120602 0.610633
v 0.040463 -0.120777 0.609087
v 0.039587 -0.120602 0.610633
v 0.039587 -0.120602 0.609087
v 0.039587 -0.120602 0.610633
v 0.040463 -0.120777 0.609087
v 0.040463 -0.120777 0.610633
v 0.039587 -0.120602 0.609087
v 0.038844 -0.120106 0.610633
v 0.038844 -0.120106 0.609087
v 0.038844 -0.120106 0.610633
v 0.039587 -0.120602 0.609087
v 0.039587 -0.120602 0.610633
v 0.038348 -0.119363 0.609087
v 0.038844 -0.120106 0.610633
v 0.038348 -0.119363 0.610633
v 0.038844 -0.120106 0.610633
v 0.038348 -0.119363 0.609087
v 0.038844 -0.120106 0.609087
v 0.038173 -0.118487 0.609087
v 0.038348 -0.119363 0.610633
v 0.038173 -0.118487 0.610633
v 0.038348 -0.119363 0.610633
v 0.038173 -0.118487 0.609087
v 0.038348 -0.119363 0.609087
v 0.038348 -0.117611 0.609087
v 0.038173 -0.118487 0.610633
v 0.038348 -0.117611 0.610633
v 0.038173 -0.118487 0.610633
v 0.038348 -0.117611 0.609087
v 0.038173 -0.118487 0.609087
v 0.038844 -0.116868 0.609087
v 0.038348 -0.117611 0.610633
v 0.038844 -0.116868 0.610633
v 0.038348 -0.117611 0.610633
v 0.038844 -0.116868 0.609087
v 0.038348 -0.117611 0.609087
v 0.039587 -0.116372 0.610633
v 0.038844 -0.116868 0.609087
v 0.038844 -0.116868 0.610633
v 0.038844 -0.116868 0.609087
v 0.039587 -0.116372 0.610633
v 0.039587 -0.116372 0.609087
v 0.040463 -0.116197 0.610633
v 0.039587 -0.116372 0.609087
v 0.039587 -0.116372 0.610633
v 0.039587 -0.116372 0.609087
v 0.040463 -0.116197 0.610633
v 0.040463 -0.116197 0.609087
v 0.039792 -0.119975 0.610633
v 0.039210 -0.119586 0.613460
v 0.039210 -0.119586 0.610633
v 0.039792 -0.119975 0.613460
v 0.041298 -0.116339 0.614296
v 0.040479 -0.116176 0.613460
v 0.040479 -0.116176 0.614296
v 0.041298 -0.116339 0.613460
v 0.041748 -0.119586 0.610633
v 0.041166 -0.119975 0.613460
v 0.041166 -0.119975 0.610633
v 0.041748 -0.119586 0.613460
v 0.038821 -0.119004 0.610633
v 0.038821 -0.119004 0.613460
v 0.041298 -0.120296 0.614296
v 0.039659 -0.120296 0.614296
v 0.040479 -0.120459 0.614296
v 0.041993 -0.119832 0.614296
v 0.038964 -0.119832 0.614296
v 0.042458 -0.119137 0.614296
v 0.038500 -0.119137 0.614296
v 0.038337 -0.118318 0.614296
v 0.042621 -0.118318 0.614296
v 0.042458 -0.117498 0.614296
v 0.038500 -0.117498 0.614296
v 0.041993 -0.116803 0.614296
v 0.038964 -0.116803 0.614296
v 0.039659 -0.116339 0.614296
v 0.042137 -0.117631 0.610633
v 0.041748 -0.117049 0.613460
v 0.042137 -0.117631 0.613460
v 0.041748 -0.117049 0.610633
v 0.040479 -0.120112 0.613460
v 0.040479 -0.120112 0.610633
v 0.038964 -0.116803 0.613460
v 0.039659 -0.116339 0.613460
v 0.042621 -0.118318 0.613460
v 0.042458 -0.117498 0.613460
v 0.041993 -0.116803 0.613460
v 0.038500 -0.117498 0.613460
v 0.038821 -0.117631 0.610633
v 0.038684 -0.118318 0.613460
v 0.038821 -0.117631 0.613460
v 0.038684 -0.118318 0.610633
v 0.042137 -0.119004 0.610633
v 0.042273 -0.118318 0.610633
v 0.039210 -0.117049 0.610633
v 0.039792 -0.116660 0.610633
v 0.041166 -0.116660 0.610633
v 0.040479 -0.116523 0.610633
v 0.039659 -0.120296 0.613460
v 0.038964 -0.119832 0.613460
v 0.038500 -0.119137 0.613460
v 0.039210 -0.117049 0.613460
v 0.038337 -0.118318 0.613460
v 0.040479 -0.120459 0.613460
v 0.042458 -0.119137 0.613460
v 0.041166 -0.116660 0.613460
v 0.039792 -0.116660 0.613460
v 0.041298 -0.120296 0.613460
v 0.041993 -0.119832 0.613460
v 0.042273 -0.118318 0.613460
v 0.040479 -0.116523 0.613460
v 0.042137 -0.119004 0.613460
v 0.039210 -0.119586 0.613460
v 0.039210 -0.119586 0.613460
v 0.039210 -0.119586 0.610633
v 0.041298 -0.116339 0.614296
v 0.041298 -0.116339 0.614296
v 0.041298 -0.116339 0.614296
v 0.040479 -0.116176 0.614296
v 0.041166 -0.119975 0.610633
v 0.041166 -0.119975 0.610633
v 0.041166 -0.119975 0.613460
v 0.039659 -0.116339 0.614296
v 0.038964 -0.116803 0.614296
v 0.039659 -0.116339 0.614296
v 0.042458 -0.117498 0.614296
v 0.042621 -0.118318 0.614296
v 0.042458 -0.117498 0.614296
v 0.042458 -0.117498 0.613460
v 0.041993 -0.116803 0.614296
v 0.042458 -0.117498 0.614296
v 0.041993 -0.116803 0.614296
v 0.042458 -0.117498 0.613460
v 0.038964 -0.116803 0.613460
v 0.038500 -0.117498 0.614296
v 0.038964 -0.116803 0.614296
v 0.038500 -0.117498 0.614296
v 0.038964 -0.116803 0.613460
v 0.039792 -0.119975 0.610633
v 0.041166 -0.119975 0.610633
v 0.040479 -0.120112 0.610633
v 0.041166 -0.119975 0.610633
v 0.039792 -0.119975 0.610633
v 0.039210 -0.119586 0.610633
v 0.041166 -0.119975 0.610633
v 0.039210 -0.119586 0.610633
v 0.041748 -0.119586 0.610633
v 0.041748 -0.119586 0.610633
v 0.039210 -0.119586 0.610633
v 0.038821 -0.119004 0.610633
v 0.041748 -0.119586 0.610633
v 0.038821 -0.119004 0.610633
v 0.038821 -0.119004 0.610633
v 0.038684 -0.118318 0.610633
v 0.038684 -0.118318 0.610633
v 0.038684 -0.118318 0.610633
v 0.038821 -0.117631 0.610633
v 0.038821 -0.117631 0.610633
v 0.042137 -0.117631 0.610633
v 0.042137 -0.117631 0.610633
v 0.038821 -0.117631 0.610633
v 0.042137 -0.117631 0.610633
v 0.041748 -0.117049 0.610633
v 0.041748 -0.117049 0.610633
v 0.041748 -0.117049 0.610633
v 0.038964 -0.119832 0.614296
v 0.038964 -0.119832 0.614296
v 0.039659 -0.120296 0.614296
v 0.041993 -0.116803 0.614296
v 0.041298 -0.116339 0.613460
v 0.041298 -0.116339 0.614296
v 0.041298 -0.116339 0.613460
v 0.041993 -0.116803 0.614296
v 0.041993 -0.116803 0.613460
v 0.038964 -0.119832 0.614296
v 0.038500 -0.119137 0.614296
v 0.038964 -0.119832 0.614296
v 0.038964 -0.119832 0.613460
v 0.039210 -0.117049 0.610633
v 0.038821 -0.117631 0.613460
v 0.038821 -0.117631 0.613460
v 0.039210 -0.117049 0.610633
v 0.038821 -0.117631 0.610633
v 0.038500 -0.119137 0.614296
v 0.038337 -0.118318 0.614296
v 0.038500 -0.119137 0.614296
v 0.038500 -0.119137 0.613460
v 0.039659 -0.120296 0.614296
v 0.039659 -0.120296 0.613460
v 0.039659 -0.120296 0.614296
v 0.040479 -0.120459 0.614296
v 0.038500 -0.117498 0.613460
v 0.038337 -0.118318 0.614296
v 0.038500 -0.117498 0.614296
v 0.038337 -0.118318 0.614296
v 0.038500 -0.117498 0.613460
v 0.038337 -0.118318 0.613460
v 0.038684 -0.118318 0.610633
v 0.038821 -0.119004 0.613460
v 0.038684 -0.118318 0.613460
v 0.038821 -0.119004 0.613460
v 0.038684 -0.118318 0.610633
v 0.038821 -0.119004 0.610633
v 0.042621 -0.118318 0.614296
v 0.042458 -0.119137 0.614296
v 0.042621 -0.118318 0.614296
v 0.042621 -0.118318 0.613460
v 0.041748 -0.117049 0.613460
v 0.041166 -0.116660 0.610633
v 0.041166 -0.116660 0.610633
v 0.041748 -0.117049 0.613460
v 0.041748 -0.117049 0.610633
v 0.039210 -0.117049 0.610633
v 0.039210 -0.117049 0.613460
v 0.039210 -0.117049 0.610633
v 0.039792 -0.116660 0.610633
v 0.040479 -0.116176 0.614296
v 0.039659 -0.116339 0.613460
v 0.039659 -0.116339 0.614296
v 0.039659 -0.116339 0.613460
v 0.040479 -0.116176 0.614296
v 0.040479 -0.116176 0.613460
v 0.040479 -0.120459 0.614296
v 0.040479 -0.120459 0.613460
v 0.040479 -0.120459 0.614296
v 0.041298 -0.120296 0.614296
v 0.040479 -0.120112 0.610633
v 0.039792 -0.119975 0.613460
v 0.039792 -0.119975 0.610633
v 0.039792 -0.119975 0.613460
v 0.040479 -0.120112 0.610633
v 0.040479 -0.120112 0.613460
v 0.042458 -0.119137 0.614296
v 0.041993 -0.119832 0.614296
v 0.042458 -0.119137 0.614296
v 0.042458 -0.119137 0.613460
v 0.042273 -0.118318 0.610633
v 0.042137 -0.117631 0.613460
v 0.042137 -0.117631 0.613460
v 0.042273 -0.118318 0.610633
v 0.042137 -0.117631 0.610633
v 0.041166 -0.116660 0.613460
v 0.040479 -0.116523 0.610633
v 0.040479 -0.116523 0.610633
v 0.041166 -0.116660 0.613460
v 0.041166 -0.116660 0.610633
v 0.040479 -0.116523 0.613460
v 0.039792 -0.116660 0.610633
v 0.039792 -0.116660 0.613460
v 0.039792 -0.116660 0.610633
v 0.040479 -0.116523 0.613460
v 0.040479 -0.116523 0.610633
v 0.039659 -0.120296 0.613460
v 0.041298 -0.120296 0.613460
v 0.040479 -0.120459 0.613460
v 0.041298 -0.120296 0.613460
v 0.039659 -0.120296 0.613460
v 0.038964 -0.119832 0.613460
v 0.041298 -0.120296 0.613460
v 0.038964 -0.119832 0.613460
v 0.040479 -0.120112 0.613460
v 0.040479 -0.120112 0.613460
v 0.038964 -0.119832 0.613460
v 0.039792 -0.119975 0.613460
v 0.039792 -0.119975 0.613460
v 0.038964 -0.119832 0.613460
v 0.039210 -0.119586 0.613460
v 0.039210 -0.119586 0.613460
v 0.038964 -0.119832 0.613460
v 0.038500 -0.119137 0.613460
v 0.039210 -0.119586 0.613460
v 0.038500 -0.119137 0.613460
v 0.038821 -0.119004 0.613460
v 0.038821 -0.119004 0.613460
v 0.038500 -0.119137 0.613460
v 0.038337 -0.118318 0.613460
v 0.038821 -0.119004 0.613460
v 0.038337 -0.118318 0.613460
v 0.038684 -0.118318 0.613460
v 0.038684 -0.118318 0.613460
v 0.038337 -0.118318 0.613460
v 0.038500 -0.117498 0.613460
v 0.038684 -0.118318 0.613460
v 0.038500 -0.117498 0.613460
v 0.038821 -0.117631 0.613460
v 0.038821 -0.117631 0.613460
v 0.038500 -0.117498 0.613460
v 0.039210 -0.117049 0.613460
v 0.039210 -0.117049 0.613460
v 0.038500 -0.117498 0.613460
v 0.038964 -0.116803 0.613460
v 0.039210 -0.117049 0.613460
v 0.038964 -0.116803 0.613460
v 0.039792 -0.116660 0.613460
v 0.039792 -0.116660 0.613460
v 0.038964 -0.116803 0.613460
v 0.039659 -0.116339 0.613460
v 0.039792 -0.116660 0.613460
v 0.039659 -0.116339 0.613460
v 0.040479 -0.116523 0.613460
v 0.040479 -0.120112 0.613460
v 0.041993 -0.119832 0.613460
v 0.041298 -0.120296 0.613460
v 0.041993 -0.119832 0.613460
v 0.040479 -0.120112 0.613460
v 0.041166 -0.119975 0.613460
v 0.041993 -0.119832 0.613460
v 0.041166 -0.119975 0.613460
v 0.041748 -0.119586 0.613460
v 0.041993 -0.119832 0.613460
v 0.041748 -0.119586 0.613460
v 0.042458 -0.119137 0.613460
v 0.042458 -0.119137 0.613460
v 0.041748 -0.119586 0.613460
v 0.042458 -0.119137 0.613460
v 0.042621 -0.118318 0.613460
v 0.042621 -0.118318 0.613460
v 0.042273 -0.118318 0.613460
v 0.042621 -0.118318 0.613460
v 0.042273 -0.118318 0.613460
v 0.042137 -0.117631 0.613460
v 0.042621 -0.118318 0.613460
v 0.042137 -0.117631 0.613460
v 0.042458 -0.117498 0.613460
v 0.042458 -0.117498 0.613460
v 0.042137 -0.117631 0.613460
v 0.041748 -0.117049 0.613460
v 0.042458 -0.117498 0.613460
v 0.041748 -0.117049 0.613460
v 0.041993 -0.116803 0.613460
v 0.041993 -0.116803 0.613460
v 0.041748 -0.117049 0.613460
v 0.041166 -0.116660 0.613460
v 0.041993 -0.116803 0.613460
v 0.041166 -0.116660 0.613460
v 0.041298 -0.116339 0.613460
v 0.041298 -0.116339 0.613460
v 0.041166 -0.116660 0.613460
v 0.040479 -0.116523 0.613460
v 0.041298 -0.116339 0.613460
v 0.040479 -0.116523 0.613460
v 0.039659 -0.116339 0.613460
v 0.041298 -0.116339 0.613460
v 0.039659 -0.116339 0.613460
v 0.040479 -0.116176 0.613460
v 0.042137 -0.119004 0.610633
v 0.042273 -0.118318 0.613460
v 0.042137 -0.119004 0.613460
v 0.042273 -0.118318 0.613460
v 0.042137 -0.119004 0.610633
v 0.042273 -0.118318 0.610633
v 0.041748 -0.119586 0.610633
v 0.042137 -0.119004 0.613460
v 0.041748 -0.119586 0.613460
v 0.042137 -0.119004 0.613460
v 0.041748 -0.119586 0.610633
v 0.042137 -0.119004 0.610633
v 0.041993 -0.119832 0.613460
v 0.041298 -0.120296 0.614296
v 0.041298 -0.120296 0.613460
v 0.041298 -0.120296 0.614296
v 0.041993 -0.119832 0.613460
v 0.041993 -0.119832 0.614296
v 0.039846 -0.119915 0.604039
v 0.041107 -0.119915 0.604039
v 0.040476 -0.120040 0.604039
v 0.041642 -0.119558 0.604039
v 0.039311 -0.119558 0.604039
v 0.041999 -0.119023 0.604039
v 0.038954 -0.119023 0.604039
v 0.042124 -0.118393 0.604039
v 0.038829 -0.118393 0.604039
v 0.041999 -0.117762 0.604039
v 0.038954 -0.117762 0.604039
v 0.039311 -0.117227 0.604039
v 0.041642 -0.117227 0.604039
v 0.041107 -0.116870 0.604039
v 0.039846 -0.116870 0.604039
v 0.040476 -0.116745 0.604039
v 0.041107 -0.119915 0.609087
v 0.039846 -0.119915 0.609087
v 0.040476 -0.120040 0.609087
v 0.041642 -0.119558 0.609087
v 0.039311 -0.119558 0.609087
v 0.041999 -0.119023 0.609087
v 0.038954 -0.119023 0.609087
v 0.042124 -0.118393 0.609087
v 0.038829 -0.118393 0.609087
v 0.041999 -0.117762 0.609087
v 0.038954 -0.117762 0.609087
v 0.039311 -0.117227 0.609087
v 0.041642 -0.117227 0.609087
v 0.041107 -0.116870 0.609087
v 0.039846 -0.116870 0.609087
v 0.040476 -0.116745 0.609087
v 0.039846 -0.116870 0.604039
v 0.040476 -0.116745 0.609087
v 0.040476 -0.116745 0.604039
v 0.040476 -0.116745 0.609087
v 0.039846 -0.116870 0.604039
v 0.039846 -0.116870 0.609087
v 0.039311 -0.117227 0.604039
v 0.039846 -0.116870 0.609087
v 0.039846 -0.116870 0.604039
v 0.039846 -0.116870 0.609087
v 0.039311 -0.117227 0.604039
v 0.039311 -0.117227 0.609087
v 0.038954 -0.117762 0.609087
v 0.039311 -0.117227 0.604039
v 0.038954 -0.117762 0.604039
v 0.039311 -0.117227 0.604039
v 0.038954 -0.117762 0.609087
v 0.039311 -0.117227 0.609087
v 0.038829 -0.118393 0.609087
v 0.038954 -0.117762 0.604039
v 0.038829 -0.118393 0.604039
v 0.038954 -0.117762 0.604039
v 0.038829 -0.118393 0.609087
v 0.038954 -0.117762 0.609087
v 0.038954 -0.119023 0.609087
v 0.038829 -0.118393 0.604039
v 0.038954 -0.119023 0.604039
v 0.038829 -0.118393 0.604039
v 0.038954 -0.119023 0.609087
v 0.038829 -0.118393 0.609087
v 0.039311 -0.119558 0.609087
v 0.038954 -0.119023 0.604039
v 0.039311 -0.119558 0.604039
v 0.038954 -0.119023 0.604039
v 0.039311 -0.119558 0.609087
v 0.038954 -0.119023 0.609087
v 0.039311 -0.119558 0.609087
v 0.039846 -0.119915 0.604039
v 0.039846 -0.119915 0.609087
v 0.039846 -0.119915 0.604039
v 0.039311 -0.119558 0.609087
v 0.039311 -0.119558 0.604039
v 0.039846 -0.119915 0.609087
v 0.040476 -0.120040 0.604039
v 0.040476 -0.120040 0.609087
v 0.040476 -0.120040 0.604039
v 0.039846 -0.119915 0.609087
v 0.039846 -0.119915 0.604039
v 0.040476 -0.120040 0.609087
v 0.041107 -0.119915 0.604039
v 0.041107 -0.119915 0.609087
v 0.041107 -0.119915 0.604039
v 0.040476 -0.120040 0.609087
v 0.040476 -0.120040 0.604039
v 0.041107 -0.119915 0.609087
v 0.041642 -0.119558 0.604039
v 0.041642 -0.119558 0.609087
v 0.041642 -0.119558 0.604039
v 0.041107 -0.119915 0.609087
v 0.041107 -0.119915 0.604039
v 0.041999 -0.119023 0.609087
v 0.041642 -0.119558 0.604039
v 0.041999 -0.119023 0.604039
v 0.041642 -0.119558 0.604039
v 0.041999 -0.119023 0.609087
v 0.041642 -0.119558 0.609087
v 0.042124 -0.118393 0.609087
v 0.041999 -0.119023 0.604039
v 0.042124 -0.118393 0.604039
v 0.041999 -0.119023 0.604039
v 0.042124 -0.118393 0.609087
v 0.041999 -0.119023 0.609087
v 0.041999 -0.117762 0.609087
v 0.042124 -0.118393 0.604039
v 0.041999 -0.117762 0.604039
v 0.042124 -0.118393 0.604039
v 0.041999 -0.117762 0.609087
v 0.042124 -0.118393 0.609087
v 0.041642 -0.117227 0.609087
v 0.041999 -0.117762 0.604039
v 0.041642 -0.117227 0.604039
v 0.041999 -0.117762 0.604039
v 0.041642 -0.117227 0.609087
v 0.041999 -0.117762 0.609087
v 0.041107 -0.116870 0.604039
v 0.041642 -0.117227 0.609087
v 0.041642 -0.117227 0.604039
v 0.041642 -0.117227 0.609087
v 0.041107 -0.116870 0.604039
v 0.041107 -0.116870 0.609087
v 0.040476 -0.116745 0.604039
v 0.041107 -0.116870 0.609087
v 0.041107 -0.116870 0.604039
v 0.041107 -0.116870 0.609087
v 0.040476 -0.116745 0.604039
v 0.040476 -0.116745 0.609087
v 0.039635 -0.120522 0.602492
v 0.041388 -0.120522 0.602492
v 0.040511 -0.120697 0.602492
v 0.042130 -0.120026 0.602492
v 0.038892 -0.120026 0.602492
v 0.042627 -0.119283 0.602492
v 0.038396 -0.119283 0.602492
v 0.042801 -0.118407 0.602492
v 0.038222 -0.118407 0.602492
v 0.042627 -0.117531 0.602492
v 0.038396 -0.117531 0.602492
v 0.038892 -0.116788 0.602492
v 0.042130 -0.116788 0.602492
v 0.041388 -0.116292 0.602492
v 0.039635 -0.116292 0.602492
v 0.040511 -0.116117 0.602492
v 0.041388 -0.120522 0.604039
v 0.039635 -0.120522 0.604039
v 0.040511 -0.120697 0.604039
v 0.042130 -0.120026 0.604039
v 0.038892 -0.120026 0.604039
v 0.042627 -0.119283 0.604039
v 0.038396 -0.119283 0.604039
v 0.042801 -0.118407 0.604039
v 0.038222 -0.118407 0.604039
v 0.042627 -0.117531 0.604039
v 0.038396 -0.117531 0.604039
v 0.038892 -0.116788 0.604039
v 0.042130 -0.116788 0.604039
v 0.041388 -0.116292 0.604039
v 0.039635 -0.116292 0.604039
v 0.040511 -0.116117 0.604039
v 0.039635 -0.116292 0.602492
v 0.040511 -0.116117 0.604039
v 0.040511 -0.116117 0.602492
v 0.040511 -0.116117 0.604039
v 0.039635 -0.116292 0.602492
v 0.039635 -0.116292 0.604039
v 0.038892 -0.116788 0.602492
v 0.039635 -0.116292 0.604039
v 0.039635 -0.116292 0.602492
v 0.039635 -0.116292 0.604039
v 0.038892 -0.116788 0.602492
v 0.038892 -0.116788 0.604039
v 0.038396 -0.117531 0.604039
v 0.038892 -0.116788 0.602492
v 0.038396 -0.117531 0.602492
v 0.038892 -0.116788 0.602492
v 0.038396 -0.117531 0.604039
v 0.038892 -0.116788 0.604039
v 0.038222 -0.118407 0.604039
v 0.038396 -0.117531 0.602492
v 0.038222 -0.118407 0.602492
v 0.038396 -0.117531 0.602492
v 0.038222 -0.118407 0.604039
v 0.038396 -0.117531 0.604039
v 0.038396 -0.119283 0.604039
v 0.038222 -0.118407 0.602492
v 0.038396 -0.119283 0.602492
v 0.038222 -0.118407 0.602492
v 0.038396 -0.119283 0.604039
v 0.038222 -0.118407 0.604039
v 0.038892 -0.120026 0.604039
v 0.038396 -0.119283 0.602492
v 0.038892 -0.120026 0.602492
v 0.038396 -0.119283 0.602492
v 0.038892 -0.120026 0.604039
v 0.038396 -0.119283 0.604039
v 0.038892 -0.120026 0.604039
v 0.039635 -0.120522 0.602492
v 0.039635 -0.120522 0.604039
v 0.039635 -0.120522 0.602492
v 0.038892 -0.120026 0.604039
v 0.038892 -0.120026 0.602492
v 0.039635 -0.120522 0.604039
v 0.040511 -0.120697 0.602492
v 0.040511 -0.120697 0.604039
v 0.040511 -0.120697 0.602492
v 0.039635 -0.120522 0.604039
v 0.039635 -0.120522 0.602492
v 0.040511 -0.120697 0.604039
v 0.041388 -0.120522 0.602492
v 0.041388 -0.120522 0.604039
v 0.041388 -0.120522 0.602492
v 0.040511 -0.120697 0.604039
v 0.040511 -0.120697 0.602492
v 0.041388 -0.120522 0.604039
v 0.042130 -0.120026 0.602492
v 0.042130 -0.120026 0.604039
v 0.042130 -0.120026 0.602492
v 0.041388 -0.120522 0.604039
v 0.041388 -0.120522 0.602492
v 0.042627 -0.119283 0.604039
v 0.042130 -0.120026 0.602492
v 0.042627 -0.119283 0.602492
v 0.042130 -0.120026 0.602492
v 0.042627 -0.119283 0.604039
v 0.042130 -0.120026 0.604039
v 0.042801 -0.118407 0.604039
v 0.042627 -0.119283 0.602492
v 0.042801 -0.118407 0.602492
v 0.042627 -0.119283 0.602492
v 0.042801 -0.118407 0.604039
v 0.042627 -0.119283 0.604039
v 0.042627 -0.117531 0.604039
v 0.042801 -0.118407 0.602492
v 0.042627 -0.117531 0.602492
v 0.042801 -0.118407 0.602492
v 0.042627 -0.117531 0.604039
v 0.042801 -0.118407 0.604039
v 0.042130 -0.116788 0.604039
v 0.042627 -0.117531 0.602492
v 0.042130 -0.116788 0.602492
v 0.042627 -0.117531 0.602492
v 0.042130 -0.116788 0.604039
v 0.042627 -0.117531 0.604039
v 0.041388 -0.116292 0.602492
v 0.042130 -0.116788 0.604039
v 0.042130 -0.116788 0.602492
v 0.042130 -0.116788 0.604039
v 0.041388 -0.116292 0.602492
v 0.041388 -0.116292 0.604039
v 0.040511 -0.116117 0.602492
v 0.041388 -0.116292 0.604039
v 0.041388 -0.116292 0.602492
v 0.041388 -0.116292 0.604039
v 0.040511 -0.116117 0.602492
v 0.040511 -0.116117 0.604039
v 0.039676 -0.120216 0.598830
v 0.041315 -0.120216 0.598830
v 0.040496 -0.120379 0.598830
v 0.038981 -0.119752 0.598830
v 0.042010 -0.119752 0.598830
v 0.038517 -0.119057 0.598830
v 0.042474 -0.119057 0.598830
v 0.042637 -0.118237 0.598830
v 0.038354 -0.118237 0.598830
v 0.038517 -0.117418 0.598830
v 0.042474 -0.117418 0.598830
v 0.038981 -0.116723 0.598830
v 0.042010 -0.116723 0.598830
v 0.039676 -0.116259 0.598830
v 0.041315 -0.116259 0.598830
v 0.040496 -0.116096 0.598830
v 0.041315 -0.120216 0.599666
v 0.039676 -0.120216 0.599666
v 0.040496 -0.120379 0.599666
v 0.042010 -0.119752 0.599666
v 0.040496 -0.120032 0.599666
v 0.041182 -0.119895 0.599666
v 0.041765 -0.119506 0.599666
v 0.042474 -0.119057 0.599666
v 0.042154 -0.118924 0.599666
v 0.042637 -0.118237 0.599666
v 0.042290 -0.118237 0.599666
v 0.042474 -0.117418 0.599666
v 0.042154 -0.117551 0.599666
v 0.041765 -0.116968 0.599666
v 0.042010 -0.116723 0.599666
v 0.041182 -0.116579 0.599666
v 0.041315 -0.116259 0.599666
v 0.040496 -0.116443 0.599666
v 0.038981 -0.119752 0.599666
v 0.039809 -0.119895 0.599666
v 0.039227 -0.119506 0.599666
v 0.038517 -0.119057 0.599666
v 0.038838 -0.118924 0.599666
v 0.038354 -0.118237 0.599666
v 0.038701 -0.118237 0.599666
v 0.038838 -0.117551 0.599666
v 0.038517 -0.117418 0.599666
v 0.039227 -0.116968 0.599666
v 0.038981 -0.116723 0.599666
v 0.039809 -0.116579 0.599666
v 0.039676 -0.116259 0.599666
v 0.040496 -0.116096 0.599666
v 0.041182 -0.119895 0.602492
v 0.039809 -0.119895 0.602492
v 0.040496 -0.120032 0.602492
v 0.041765 -0.119506 0.602492
v 0.039227 -0.119506 0.602492
v 0.042154 -0.118924 0.602492
v 0.038838 -0.118924 0.602492
v 0.042290 -0.118237 0.602492
v 0.038701 -0.118237 0.602492
v 0.042154 -0.117551 0.602492
v 0.038838 -0.117551 0.602492
v 0.041765 -0.116968 0.602492
v 0.039227 -0.116968 0.602492
v 0.041182 -0.116579 0.602492
v 0.039809 -0.116579 0.602492
v 0.040496 -0.116443 0.602492
v 0.039676 -0.116259 0.598830
v 0.040496 -0.116096 0.599666
v 0.040496 -0.116096 0.598830
v 0.040496 -0.116096 0.599666
v 0.039676 -0.116259 0.598830
v 0.039676 -0.116259 0.599666
v 0.038981 -0.116723 0.598830
v 0.039676 -0.116259 0.599666
v 0.039676 -0.116259 0.598830
v 0.039676 -0.116259 0.599666
v 0.038981 -0.116723 0.598830
v 0.038981 -0.116723 0.599666
v 0.038517 -0.117418 0.599666
v 0.038981 -0.116723 0.598830
v 0.038517 -0.117418 0.598830
v 0.038981 -0.116723 0.598830
v 0.038517 -0.117418 0.599666
v 0.038981 -0.116723 0.599666
v 0.038354 -0.118237 0.599666
v 0.038517 -0.117418 0.598830
v 0.038354 -0.118237 0.598830
v 0.038517 -0.117418 0.598830
v 0.038354 -0.118237 0.599666
v 0.038517 -0.117418 0.599666
v 0.038517 -0.119057 0.599666
v 0.038354 -0.118237 0.598830
v 0.038517 -0.119057 0.598830
v 0.038354 -0.118237 0.598830
v 0.038517 -0.119057 0.599666
v 0.038354 -0.118237 0.599666
v 0.038981 -0.119752 0.599666
v 0.038517 -0.119057 0.598830
v 0.038981 -0.119752 0.598830
v 0.038517 -0.119057 0.598830
v 0.038981 -0.119752 0.599666
v 0.038517 -0.119057 0.599666
v 0.038981 -0.119752 0.599666
v 0.039676 -0.120216 0.598830
v 0.039676 -0.120216 0.599666
v 0.039676 -0.120216 0.598830
v 0.038981 -0.119752 0.599666
v 0.038981 -0.119752 0.598830
v 0.039676 -0.120216 0.599666
v 0.040496 -0.120379 0.598830
v 0.040496 -0.120379 0.599666
v 0.040496 -0.120379 0.598830
v 0.039676 -0.120216 0.599666
v 0.039676 -0.120216 0.598830
v 0.040496 -0.120379 0.599666
v 0.041315 -0.120216 0.598830
v 0.041315 -0.120216 0.599666
v 0.041315 -0.120216 0.598830
v 0.040496 -0.120379 0.599666
v 0.040496 -0.120379 0.598830
v 0.041315 -0.120216 0.599666
v 0.042010 -0.119752 0.598830
v 0.042010 -0.119752 0.599666
v 0.042010 -0.119752 0.598830
v 0.041315 -0.120216 0.599666
v 0.041315 -0.120216 0.598830
v 0.042474 -0.119057 0.599666
v 0.042010 -0.119752 0.598830
v 0.042474 -0.119057 0.598830
v 0.042010 -0.119752 0.598830
v 0.042474 -0.119057 0.599666
v 0.042010 -0.119752 0.599666
v 0.042637 -0.118237 0.599666
v 0.042474 -0.119057 0.598830
v 0.042637 -0.118237 0.598830
v 0.042474 -0.119057 0.598830
v 0.042637 -0.118237 0.599666
v 0.042474 -0.119057 0.599666
v 0.042474 -0.117418 0.599666
v 0.042637 -0.118237 0.598830
v 0.042474 -0.117418 0.598830
v 0.042637 -0.118237 0.598830
v 0.042474 -0.117418 0.599666
v 0.042637 -0.118237 0.599666
v 0.042010 -0.116723 0.599666
v 0.042474 -0.117418 0.598830
v 0.042010 -0.116723 0.598830
v 0.042474 -0.117418 0.598830
v 0.042010 -0.116723 0.599666
v 0.042474 -0.117418 0.599666
v 0.041315 -0.116259 0.598830
v 0.042010 -0.116723 0.599666
v 0.042010 -0.116723 0.598830
v 0.042010 -0.116723 0.599666
v 0.041315 -0.116259 0.598830
v 0.041315 -0.116259 0.599666
v 0.040496 -0.116096 0.598830
v 0.041315 -0.116259 0.599666
v 0.041315 -0.116259 0.598830
v 0.041315 -0.116259 0.599666
v 0.040496 -0.116096 0.598830
v 0.040496 -0.116096 0.599666
v 0.042154 -0.118924 0.602492
v 0.041765 -0.119506 0.599666
v 0.042154 -0.118924 0.599666
v 0.041765 -0.119506 0.599666
v 0.042154 -0.118924 0.602492
v 0.041765 -0.119506 0.602492
v 0.042290 -0.118237 0.602492
v 0.042154 -0.118924 0.599666
v 0.042290 -0.118237 0.599666
v 0.042154 -0.118924 0.599666
v 0.042290 -0.118237 0.602492
v 0.042154 -0.118924 0.602492
v 0.042154 -0.117551 0.602492
v 0.042290 -0.118237 0.599666
v 0.042154 -0.117551 0.599666
v 0.042290 -0.118237 0.599666
v 0.042154 -0.117551 0.602492
v 0.042290 -0.118237 0.602492
v 0.041765 -0.116968 0.602492
v 0.042154 -0.117551 0.599666
v 0.041765 -0.116968 0.599666
v 0.042154 -0.117551 0.599666
v 0.041765 -0.116968 0.602492
v 0.042154 -0.117551 0.602492
v 0.041182 -0.116579 0.599666
v 0.041765 -0.116968 0.602492
v 0.041765 -0.116968 0.599666
v 0.041765 -0.116968 0.602492
v 0.041182 -0.116579 0.599666
v 0.041182 -0.116579 0.602492
v 0.040496 -0.116443 0.599666
v 0.041182 -0.116579 0.602492
v 0.041182 -0.116579 0.599666
v 0.041182 -0.116579 0.602492
v 0.040496 -0.116443 0.599666
v 0.040496 -0.116443 0.602492
v 0.039809 -0.116579 0.599666
v 0.040496 -0.116443 0.602492
v 0.040496 -0.116443 0.599666
v 0.040496 -0.116443 0.602492
v 0.039809 -0.116579 0.599666
v 0.039809 -0.116579 0.602492
v 0.039227 -0.116968 0.599666
v 0.039809 -0.116579 0.602492
v 0.039809 -0.116579 0.599666
v 0.039809 -0.116579 0.602492
v 0.039227 -0.116968 0.599666
v 0.039227 -0.116968 0.602492
v 0.038838 -0.117551 0.602492
v 0.039227 -0.116968 0.599666
v 0.038838 -0.117551 0.599666
v 0.039227 -0.116968 0.599666
v 0.038838 -0.117551 0.602492
v 0.039227 -0.116968 0.602492
v 0.038701 -0.118237 0.602492
v 0.038838 -0.117551 0.599666
v 0.038701 -0.118237 0.599666
v 0.038838 -0.117551 0.599666
v 0.038701 -0.118237 0.602492
v 0.038838 -0.117551 0.602492
v 0.038838 -0.118924 0.602492
v 0.038701 -0.118237 0.599666
v 0.038838 -0.118924 0.599666
v 0.038701 -0.118237 0.599666
v 0.038838 -0.118924 0.602492
v 0.038701 -0.118237 0.602492
v 0.039227 -0.119506 0.602492
v 0.038838 -0.118924 0.599666
v 0.039227 -0.119506 0.599666
v 0.038838 -0.118924 0.599666
v 0.039227 -0.119506 0.602492
v 0.038838 -0.118924 0.602492
v 0.039227 -0.119506 0.602492
v 0.039809 -0.119895 0.599666
v 0.039809 -0.119895 0.602492
v 0.039809 -0.119895 0.599666
v 0.039227 -0.119506 0.602492
v 0.039227 -0.119506 0.599666
v 0.039809 -0.119895 0.602492
v 0.040496 -0.120032 0.599666
v 0.040496 -0.120032 0.602492
v 0.040496 -0.120032 0.599666
v 0.039809 -0.119895 0.602492
v 0.039809 -0.119895 0.599666
v 0.040496 -0.120032 0.602492
v 0.041182 -0.119895 0.599666
v 0.041182 -0.119895 0.602492
v 0.041182 -0.119895 0.599666
v 0.040496 -0.120032 0.602492
v 0.040496 -0.120032 0.599666
v 0.041182 -0.119895 0.602492
v 0.041765 -0.119506 0.599666
v 0.041765 -0.119506 0.602492
v 0.041765 -0.119506 0.599666
v 0.041182 -0.119895 0.602492
v 0.041182 -0.119895 0.599666
f 1 2 3
f 2 1 4
f 4 1 5
f 4 5 6
f 6 5 7
f 6 7 8
f 8 7 9
f 8 9 10
f 10 9 11
f 10 11 12
f 10 12 13
f 13 12 14
f 14 12 15
f 14 15 16
f 17 18 19
f 18 17 20
f 18 20 21
f 21 20 22
f 21 22 23
f 23 22 24
f 23 24 25
f 25 24 26
f 25 26 27
f 27 26 28
f 28 26 29
f 28 29 30
f 28 30 31
f 31 30 32
f 33 34 35
f 36 37 38
f 39 40 41
f 42 43 44
f 45 46 47
f 48 49 50
f 51 52 53
f 54 55 56
f 57 58 59
f 60 61 62
f 63 64 65
f 66 67 68
f 69 70 71
f 72 73 74
f 75 76 77
f 78 79 80
f 81 82 83
f 84 85 86
f 87 88 89
f 90 91 92
f 93 94 95
f 96 97 98
f 99 100 101
f 102 103 104
f 105 106 107
f 108 109 110
f 111 112 113
f 114 115 116
f 117 118 119
f 120 121 122
f 123 124 125
f 126 127 128
f 129 130 131
f 130 129 132
f 133 134 135
f 134 133 136
f 137 138 139
f 138 137 140
f 141 193 142
f 194 141 195
f 143 144 145
f 144 143 146
f 144 146 147
f 147 146 148
f 147 148 149
f 149 148 150
f 150 148 151
f 150 151 152
f 150 152 153
f 153 152 154
f 153 154 155
f 155 154 196
f 155 197 156
f 156 198 199
f 157 158 159
f 158 157 160
f 200 161 162
f 161 201 202
f 203 163 204
f 163 205 164
f 165 206 207
f 208 165 166
f 209 210 211
f 212 213 167
f 214 215 216
f 217 218 168
f 169 170 171
f 170 169 172
f 219 220 221
f 222 223 224
f 225 226 227
f 228 229 230
f 231 232 173
f 173 233 234
f 173 235 174
f 174 236 237
f 174 238 239
f 240 241 175
f 242 175 243
f 244 175 176
f 245 176 177
f 177 176 178
f 179 246 180
f 247 179 248
f 249 250 251
f 252 253 254
f 181 255 256
f 257 181 258
f 259 260 182
f 261 262 263
f 183 264 265
f 266 183 267
f 184 268 269
f 270 184 271
f 272 273 274
f 275 276 277
f 278 279 280
f 281 282 283
f 185 284 285
f 286 185 287
f 288 289 186
f 290 291 292
f 187 293 294
f 295 187 296
f 297 298 299
f 300 301 302
f 188 303 304
f 305 188 306
f 307 308 309
f 310 311 312
f 189 313 314
f 315 189 316
f 317 318 190
f 319 320 321
f 322 323 191
f 324 325 326
f 327 328 329
f 330 331 332
f 333 334 335
f 336 337 338
f 339 340 341
f 342 343 344
f 345 346 347
f 348 349 350
f 351 352 353
f 354 355 356
f 357 358 359
f 360 361 362
f 363 364 365
f 366 367 368
f 369 370 371
f 372 373 374
f 375 376 377
f 378 379 380
f 381 382 383
f 384 385 386
f 387 388 389
f 390 391 392
f 393 394 192
f 395 192 396
f 397 192 398
f 399 400 401
f 402 403 404
f 405 406 407
f 408 409 410
f 411 412 413
f 414 415 416
f 417 418 419
f 420 421 422
f 423 424 425
f 426 427 428
f 429 430 431
f 432 433 434
f 435 436 437
f 438 439 440
f 441 442 443
f 444 445 446
f 445 444 447
f 447 444 448
f 447 448 449
f 449 448 450
f 449 450 451
f 451 450 452
f 451 452 453
f 453 452 454
f 453 454 455
f 453 455 456
f 456 455 457
f 457 455 458
f 457 458 459
f 460 461 462
f 461 460 463
f 461 463 464
f 464 463 465
f 464 465 466
f 466 465 467
f 466 467 468
f 468 467 469
f 468 469 470
f 470 469 471
f 471 469 472
f 471 472 473
f 471 473 474
f 474 473 475
f 476 477 478
f 479 480 481
f 482 483 484
f 485 486 487
f 488 489 490
f 491 492 493
f 494 495 496
f 497 498 499
f 500 501 502
f 503 504 505
f 506 507 508
f 509 510 511
f 512 513 514
f 515 516 517
f 518 519 520
f 521 522 523
f 524 525 526
f 527 528 529
f 530 531 532
f 533 534 535
f 536 537 538
f 539 540 541
f 542 543 544
f 545 546 547
f 548 549 550
f 551 552 553
f 554 555 556
f 557 558 559
f 560 561 562
f 563 564 565
f 566 567 568
f 569 570 571
f 572 573 574
f 573 572 575
f 575 572 576
f 575 576 577
f 577 576 578
f 577 578 579
f 579 578 580
f 579 580 581
f 581 580 582
f 581 582 583
f 581 583 584
f 584 583 585
f 585 583 586
f 585 586 587
f 588 589 590
f 589 588 591
f 589 591 592
f 592 591 593
f 592 593 594
f 594 593 595
f 594 595 596
f 596 595 597
f 596 597 598
f 598 597 599
f 599 597 600
f 599 600 601
f 599 601 602
f 602 601 603
f 604 605 606
f 607 608 609
f 610 611 612
f 613 614 615
f 616 617 618
f 619 620 621
f 622 623 624
f 625 626 627
f 628 629 630
f 631 632 633
f 634 635 636
f 637 638 639
f 640 641 642
f 643 644 645
f 646 647 648
f 649 650 651
f 652 653 654
f 655 656 657
f 658 659 660
f 661 662 663
f 664 665 666
f 667 668 669
f 670 671 672
f 673 674 675
f 676 677 678
f 679 680 681
f 682 683 684
f 685 686 687
f 688 689 690
f 691 692 693
f 694 695 696
f 697 698 699
f 700 701 702
f 701 700 703
f 701 703 704
f 704 703 705
f 704 705 706
f 706 705 707
f 707 705 708
f 707 708 709
f 707 709 710
f 710 709 711
f 710 711 712
f 712 711 713
f 712 713 714
f 714 713 715
f 716 717 718
f 717 716 719
f 717 719 720
f 720 719 721
f 721 719 722
f 722 719 723
f 722 723 724
f 724 723 725
f 724 725 726
f 726 725 727
f 726 727 728
f 728 727 729
f 729 727 730
f 729 730 731
f 731 730 732
f 731 732 733
f 720 734 717
f 734 720 735
f 734 735 736
f 734 736 737
f 737 736 738
f 737 738 739
f 739 738 740
f 739 740 741
f 739 741 742
f 742 741 743
f 742 743 744
f 744 743 745
f 744 745 746
f 746 745 733
f 746 733 732
f 746 732 747
f 764 765 766
f 767 768 769
f 770 771 772
f 773 774 775
f 776 777 778
f 779 780 781
f 782 783 784
f 785 786 787
f 788 789 790
f 791 792 793
f 794 795 796
f 797 798 799
f 800 801 802
f 803 804 805
f 806 807 808
f 809 810 811
f 812 813 814
f 815 816 817
f 818 819 820
f 821 822 823
f 824 825 826
f 827 828 829
f 830 831 832
f 833 834 835
f 836 837 838
f 839 840 841
f 842 843 844
f 845 846 847
f 848 849 850
f 851 852 853
f 854 855 856
f 857 858 859
f 748 749 750
f 749 748 751
f 749 751 752
f 752 751 753
f 752 753 754
f 754 753 755
f 754 755 756
f 756 755 757
f 756 757 758
f 758 757 759
f 758 759 760
f 760 759 761
f 760 761 762
f 762 761 763
f 860 861 862
f 863 864 865
f 866 867 868
f 869 870 871
f 872 873 874
f 875 876 877
f 878 879 880
f 881 882 883
f 884 885 886
f 887 888 889
f 890 891 892
f 893 894 895
f 896 897 898
f 899 900 901
f 902 903 904
f 905 906 907
f 908 909 910
f 911 912 913
f 914 915 916
f 917 918 919
f 920 921 922
f 923 924 925
f 926 927 928
f 929 930 931
f 932 933 934
f 935 936 937
f 938 939 940
f 941 942 943
f 944 945 946
f 947 948 949
f 950 951 952
f 953 954 955
