v 0.477141 -0.181881 0.046987
v 0.477141 -0.146163 0.076862
v 0.477141 -0.181881 0.467518
v 0.477141 0.156666 0.046987
v 0.477141 -0.133540 0.076862
v 0.477141 -0.120918 0.076862
v 0.477141 -0.133540 0.129503
v 0.477141 -0.132990 0.381741
v 0.477141 -0.132990 0.434383
v 0.477141 -0.108296 0.076862
v 0.477141 -0.095674 0.076862
v 0.477141 -0.108296 0.129503
v 0.477141 -0.107746 0.381741
v 0.477141 -0.107746 0.434383
v 0.477141 -0.083052 0.076862
v 0.477141 -0.070429 0.076862
v 0.477141 -0.083052 0.129503
v 0.477141 -0.082501 0.381741
v 0.477141 -0.082501 0.434383
v 0.477141 -0.057807 0.076862
v 0.477141 -0.045185 0.076862
v 0.477141 -0.057807 0.129503
v 0.477141 -0.057257 0.381741
v 0.477141 -0.057257 0.434383
v 0.477141 -0.032563 0.076862
v 0.477141 -0.019941 0.076862
v 0.477141 -0.032563 0.129503
v 0.477141 -0.032012 0.381741
v 0.477141 -0.032012 0.434383
v 0.477141 -0.007318 0.076862
v 0.477141 0.005304 0.076862
v 0.477141 -0.007318 0.129503
v 0.477141 -0.006768 0.381741
v 0.477141 -0.006768 0.434383
v 0.477141 0.017926 0.076862
v 0.477141 0.030548 0.076862
v 0.477141 0.017926 0.129503
v 0.477141 0.018476 0.381741
v 0.477141 0.018476 0.434383
v 0.477141 0.043170 0.076862
v 0.477141 0.055793 0.076862
v 0.477141 0.043170 0.129503
v 0.477141 0.043721 0.381741
v 0.477141 0.043721 0.434383
v 0.477141 0.068415 0.076862
v 0.477141 0.081037 0.076862
v 0.477141 0.068415 0.129503
v 0.477141 0.068965 0.381741
v 0.477141 0.093659 0.076862
v 0.477141 0.106281 0.076862
v 0.477141 0.093659 0.129503
v 0.477141 0.094210 0.381741
v 0.477141 0.094210 0.434383
v 0.477141 0.118904 0.076862
v 0.477141 0.131526 0.076862
v 0.477141 0.118904 0.129503
v 0.477141 0.119454 0.381741
v 0.477141 0.119454 0.434383
v 0.477141 0.144148 0.076862
v 0.477141 0.144148 0.129503
v 0.477141 0.144698 0.381741
v 0.477141 0.144698 0.434383
v 0.477141 -0.145612 0.434383
v 0.477141 0.156666 0.467518
v 0.477141 -0.146163 0.129503
v 0.477141 -0.145612 0.381741
v 0.477141 -0.120368 0.434383
v 0.477141 -0.120918 0.129503
v 0.477141 -0.120368 0.381741
v 0.477141 -0.095124 0.434383
v 0.477141 -0.095674 0.129503
v 0.477141 -0.095124 0.381741
v 0.477141 -0.069879 0.434383
v 0.477141 -0.070429 0.129503
v 0.477141 -0.069879 0.381741
v 0.477141 -0.044635 0.434383
v 0.477141 -0.045185 0.129503
v 0.477141 -0.044635 0.381741
v 0.477141 -0.019390 0.434383
v 0.477141 -0.019941 0.129503
v 0.477141 -0.019390 0.381741
v 0.477141 0.005854 0.434383
v 0.477141 0.005304 0.129503
v 0.477141 0.005854 0.381741
v 0.477141 0.031099 0.434383
v 0.477141 0.030548 0.129503
v 0.477141 0.031099 0.381741
v 0.477141 0.056343 0.434383
v 0.477141 0.055793 0.129503
v 0.477141 0.056343 0.381741
v 0.477141 0.068965 0.434383
v 0.477141 0.081587 0.434383
v 0.477141 0.081037 0.129503
v 0.477141 0.081587 0.381741
v 0.477141 0.106832 0.434383
v 0.477141 0.106281 0.129503
v 0.477141 0.106832 0.381741
v 0.477141 0.132076 0.434383
v 0.477141 0.131526 0.129503
v 0.477141 0.132076 0.381741
v 0.477141 0.269867 0.025846
v 0.477141 0.156666 0.025846
v 0.477141 0.156770 0.076862
v 0.477141 0.156666 0.512090
v 0.477141 0.156666 0.529464
v 0.477141 0.169392 0.076862
v 0.477141 0.169392 0.129503
v 0.477141 0.169943 0.381741
v 0.477141 0.169943 0.434383
v 0.477141 0.157321 0.434383
v 0.477141 0.269867 0.529464
v 0.477141 0.156770 0.129503
v 0.477141 0.157321 0.381741
f 1 2 3
f 2 1 4
f 2 4 5
f 5 4 6
f 5 6 7
f 7 6 8
f 8 6 9
f 6 4 10
f 10 4 11
f 10 11 12
f 12 11 13
f 13 11 14
f 11 4 15
f 15 4 16
f 15 16 17
f 17 16 18
f 18 16 19
f 16 4 20
f 20 4 21
f 20 21 22
f 22 21 23
f 23 21 24
f 21 4 25
f 25 4 26
f 25 26 27
f 27 26 28
f 28 26 29
f 26 4 30
f 30 4 31
f 30 31 32
f 32 31 33
f 33 31 34
f 31 4 35
f 35 4 36
f 35 36 37
f 37 36 38
f 38 36 39
f 36 4 40
f 40 4 41
f 40 41 42
f 42 41 43
f 43 41 44
f 41 4 45
f 45 4 46
f 45 46 47
f 47 46 48
f 46 4 49
f 49 4 50
f 49 50 51
f 51 50 52
f 52 50 53
f 50 4 54
f 54 4 55
f 54 55 56
f 56 55 57
f 57 55 58
f 55 4 59
f 59 4 60
f 60 4 61
f 61 4 62
f 3 63 64
f 63 3 65
f 65 3 2
f 63 65 66
f 64 63 9
f 64 9 67
f 67 9 68
f 68 9 6
f 67 68 69
f 64 67 14
f 64 14 70
f 70 14 71
f 71 14 11
f 70 71 72
f 64 70 19
f 64 19 73
f 73 19 74
f 74 19 16
f 73 74 75
f 64 73 24
f 64 24 76
f 76 24 77
f 77 24 21
f 76 77 78
f 64 76 29
f 64 29 79
f 79 29 80
f 80 29 26
f 79 80 81
f 64 79 34
f 64 34 82
f 82 34 83
f 83 34 31
f 82 83 84
f 64 82 39
f 64 39 85
f 85 39 86
f 86 39 36
f 85 86 87
f 64 85 44
f 64 44 88
f 88 44 89
f 89 44 41
f 88 89 90
f 64 88 91
f 64 91 92
f 92 91 48
f 92 48 93
f 93 48 46
f 92 93 94
f 64 92 53
f 64 53 95
f 95 53 96
f 96 53 50
f 95 96 97
f 64 95 58
f 64 58 98
f 98 58 99
f 99 58 55
f 98 99 100
f 64 98 62
f 64 62 4
f 60 100 99
f 100 60 61
f 56 97 96
f 97 56 57
f 51 94 93
f 94 51 52
f 47 90 89
f 90 47 48
f 42 87 86
f 87 42 43
f 37 84 83
f 84 37 38
f 32 81 80
f 81 32 33
f 27 78 77
f 78 27 28
f 22 75 74
f 75 22 23
f 17 72 71
f 72 17 18
f 12 69 68
f 69 12 13
f 7 66 65
f 66 7 8
f 101 4 102
f 4 101 103
f 4 103 64
f 64 103 104
f 104 103 105
f 103 101 106
f 106 101 107
f 107 101 108
f 108 101 109
f 105 110 111
f 110 105 112
f 112 105 103
f 110 112 113
f 111 110 109
f 111 109 101
f 107 113 112
f 113 107 108
