v 0.034239 -0.113195 0.626033
v 0.034821 -0.114067 0.571833
v 0.034239 -0.113195 0.571833
v 0.034821 -0.114067 0.626033
v 0.035026 -0.115096 0.571833
v 0.035026 -0.115096 0.626033
v 0.031309 -0.117580 0.626033
v 0.032338 -0.117784 0.571833
v 0.032338 -0.117784 0.626033
v 0.031309 -0.117580 0.571833
v 0.029854 -0.114067 0.626033
v 0.030436 -0.113195 0.571833
v 0.029854 -0.114067 0.571833
v 0.030436 -0.113195 0.626033
v 0.033366 -0.112612 0.571833
v 0.033366 -0.112612 0.626033
v 0.033366 -0.117580 0.571833
v 0.033366 -0.117580 0.626033
v 0.031309 -0.112612 0.626033
v 0.031309 -0.112612 0.571833
v 0.029854 -0.116125 0.626033
v 0.029649 -0.115096 0.571833
v 0.029854 -0.116125 0.571833
v 0.029649 -0.115096 0.626033
v 0.034821 -0.116125 0.571833
v 0.034821 -0.116125 0.626033
v 0.034239 -0.116997 0.571833
v 0.034239 -0.116997 0.626033
v 0.032338 -0.112407 0.571833
v 0.032338 -0.112407 0.626033
v 0.030436 -0.116997 0.626033
v 0.030436 -0.116997 0.571833
v 0.034821 -0.114067 0.626033
v 0.034821 -0.114067 0.571833
v 0.034821 -0.114067 0.626033
v 0.034239 -0.113195 0.626033
v 0.034239 -0.113195 0.571833
v 0.034239 -0.113195 0.626033
v 0.032338 -0.117784 0.626033
v 0.032338 -0.117784 0.626033
v 0.032338 -0.117784 0.571833
v 0.030436 -0.113195 0.571833
v 0.030436 -0.113195 0.571833
v 0.030436 -0.113195 0.626033
v 0.035026 -0.115096 0.626033
v 0.035026 -0.115096 0.571833
v 0.035026 -0.115096 0.626033
v 0.034821 -0.116125 0.626033
v 0.034821 -0.116125 0.571833
v 0.034821 -0.116125 0.626033
v 0.033366 -0.117580 0.626033
v 0.034239 -0.116997 0.571833
v 0.034239 -0.116997 0.626033
v 0.034239 -0.116997 0.571833
v 0.033366 -0.117580 0.626033
v 0.033366 -0.117580 0.571833
v 0.033366 -0.112612 0.626033
v 0.033366 -0.112612 0.571833
v 0.033366 -0.112612 0.626033
v 0.029854 -0.116125 0.571833
v 0.029854 -0.116125 0.571833
v 0.029854 -0.116125 0.626033
v 0.029649 -0.115096 0.626033
v 0.029854 -0.114067 0.571833
v 0.029649 -0.115096 0.571833
v 0.029854 -0.114067 0.571833
v 0.029649 -0.115096 0.626033
v 0.029854 -0.114067 0.626033
v 0.031309 -0.112612 0.571833
v 0.032338 -0.112407 0.626033
v 0.032338 -0.112407 0.571833
v 0.032338 -0.112407 0.626033
v 0.031309 -0.112612 0.571833
v 0.031309 -0.112612 0.626033
v 0.030436 -0.116997 0.626033
v 0.031309 -0.117580 0.571833
v 0.031309 -0.117580 0.626033
v 0.031309 -0.117580 0.571833
v 0.030436 -0.116997 0.626033
v 0.030436 -0.116997 0.571833
f 1 2 3
f 2 1 4
f 33 5 34
f 5 35 6
f 7 8 9
f 8 7 10
f 11 12 13
f 12 11 14
f 15 36 37
f 38 15 16
f 39 17 18
f 17 40 41
f 42 19 20
f 19 43 44
f 21 22 23
f 22 21 24
f 45 25 46
f 25 47 26
f 48 27 49
f 27 50 28
f 51 52 53
f 54 55 56
f 29 57 58
f 59 29 30
f 31 60 32
f 61 31 62
f 63 64 65
f 66 67 68
f 69 70 71
f 72 73 74
f 75 76 77
f 78 79 80
