v 0.033005 -0.114848 0.563152
v 0.033059 -0.115124 0.563152
v 0.032348 -0.115124 0.563031
v 0.029807 -0.114057 0.566570
v 0.029854 -0.114067 0.567014
v 0.030403 -0.113152 0.566570
v 0.029852 -0.114076 0.567047
v 0.030436 -0.113195 0.567079
v 0.030441 -0.113191 0.567103
v 0.034802 -0.116154 0.567486
v 0.034292 -0.117095 0.566570
v 0.034889 -0.116191 0.566570
v 0.034226 -0.117028 0.567486
v 0.033259 -0.112893 0.564801
v 0.032348 -0.112431 0.565654
v 0.033364 -0.112636 0.565654
v 0.032348 -0.112709 0.564801
v 0.032348 -0.113730 0.563505
v 0.033092 -0.113302 0.564068
v 0.032874 -0.113836 0.563505
v 0.032348 -0.113152 0.564068
v 0.033320 -0.114138 0.563505
v 0.034144 -0.114369 0.564068
v 0.033618 -0.114590 0.563505
v 0.033723 -0.113730 0.564068
v 0.030551 -0.115878 0.564068
v 0.031375 -0.116110 0.563505
v 0.030973 -0.116518 0.564068
v 0.031077 -0.115657 0.563505
v 0.034802 -0.116154 0.565654
v 0.034032 -0.116831 0.564801
v 0.034548 -0.116048 0.564801
v 0.034226 -0.117028 0.565654
v 0.033352 -0.117582 0.567583
v 0.032348 -0.117817 0.567486
v 0.033364 -0.117612 0.567486
v 0.032348 -0.117782 0.567592
v 0.029966 -0.115124 0.564801
v 0.030551 -0.114369 0.564068
v 0.030403 -0.115124 0.564068
v 0.030147 -0.114200 0.564801
v 0.031844 -0.114614 0.563152
v 0.031690 -0.114848 0.563152
v 0.032620 -0.115790 0.563152
v 0.032348 -0.115845 0.563152
v 0.032874 -0.116412 0.563505
v 0.032348 -0.116518 0.563505
v 0.029597 -0.115124 0.566570
v 0.029649 -0.115096 0.567020
v 0.029655 -0.115124 0.567129
v 0.029691 -0.115124 0.565654
v 0.032348 -0.114402 0.563152
v 0.032620 -0.114457 0.563152
v 0.031331 -0.117612 0.565654
v 0.032348 -0.117538 0.564801
v 0.032348 -0.117817 0.565654
v 0.031436 -0.117355 0.564801
v 0.033320 -0.116110 0.563505
v 0.034144 -0.115878 0.564068
v 0.033723 -0.116518 0.564068
v 0.033618 -0.115657 0.563505
v 0.031603 -0.116945 0.564068
v 0.030663 -0.116831 0.564801
v 0.032348 -0.117095 0.564068
v 0.032851 -0.114614 0.563152
v 0.030973 -0.113730 0.564068
v 0.031821 -0.113836 0.563505
v 0.031375 -0.114138 0.563505
v 0.031603 -0.113302 0.564068
v 0.033092 -0.116945 0.564068
v 0.031636 -0.115124 0.563152
v 0.032348 -0.117912 0.566570
v 0.033364 -0.117612 0.565654
v 0.033400 -0.117700 0.566570
v 0.030973 -0.115124 0.563505
v 0.034226 -0.113219 0.565654
v 0.033400 -0.112548 0.566570
v 0.034292 -0.113152 0.566570
v 0.034032 -0.113416 0.564801
v 0.034889 -0.114057 0.566570
v 0.035004 -0.115124 0.565654
v 0.034802 -0.114093 0.565654
v 0.035098 -0.115124 0.566570
v 0.031077 -0.114590 0.563505
v 0.031690 -0.115400 0.563152
v 0.034239 -0.113195 0.567214
v 0.034243 -0.113202 0.567247
v 0.033372 -0.112616 0.567279
v 0.029893 -0.116154 0.565654
v 0.030147 -0.116048 0.564801
v 0.034729 -0.115124 0.564801
v 0.034548 -0.114200 0.564801
v 0.030469 -0.117028 0.565654
v 0.030403 -0.117095 0.566570
v 0.030436 -0.116997 0.567385
v 0.029807 -0.116191 0.566570
v 0.030469 -0.117028 0.567486
v 0.029878 -0.116161 0.567322
v 0.030458 -0.117011 0.567486
v 0.030469 -0.113219 0.565654
v 0.029893 -0.114093 0.565654
v 0.032075 -0.114457 0.563152
v 0.032348 -0.112336 0.566570
v 0.032851 -0.115634 0.563152
v 0.030663 -0.113416 0.564801
v 0.033723 -0.115124 0.563505
v 0.032075 -0.115790 0.563152
v 0.031331 -0.112636 0.565654
v 0.031295 -0.112548 0.566570
v 0.031309 -0.117580 0.567530
v 0.031331 -0.117612 0.567486
v 0.031342 -0.117586 0.567571
v 0.030475 -0.117022 0.567510
v 0.034292 -0.115124 0.564068
v 0.031844 -0.115634 0.563152
v 0.031821 -0.116412 0.563505
v 0.031295 -0.117700 0.566570
v 0.034212 -0.117014 0.567545
v 0.033366 -0.117580 0.567566
v 0.033366 -0.112612 0.567253
v 0.032348 -0.112409 0.567279
v 0.031436 -0.112893 0.564801
v 0.034802 -0.116154 0.567487
v 0.034802 -0.116153 0.567486
v 0.032338 -0.112407 0.567240
v 0.031320 -0.112610 0.567214
v 0.034821 -0.114067 0.567182
v 0.034825 -0.114084 0.567245
v 0.033005 -0.115400 0.563152
v 0.035026 -0.115096 0.567218
v 0.035020 -0.115124 0.567327
v 0.034821 -0.116125 0.567353
v 0.034821 -0.116125 0.567355
v 0.033259 -0.117355 0.564801
v 0.029854 -0.116125 0.567155
v 0.032338 -0.117784 0.567579
v 0.034239 -0.116997 0.567507
v 0.031309 -0.112612 0.567168
v 0.032348 -0.115124 0.563031
v 0.032348 -0.115124 0.563031
v 0.032348 -0.115845 0.563152
v 0.032348 -0.115845 0.563152
v 0.032620 -0.115790 0.563152
v 0.029807 -0.114057 0.566570
v 0.029852 -0.114076 0.567047
v 0.029807 -0.114057 0.566570
v 0.029807 -0.114057 0.566570
v 0.029597 -0.115124 0.566570
v 0.032874 -0.113836 0.563505
v 0.032874 -0.113836 0.563505
v 0.032348 -0.113730 0.563505
v 0.031436 -0.117355 0.564801
v 0.030973 -0.116518 0.564068
v 0.030973 -0.116518 0.564068
v 0.031436 -0.117355 0.564801
v 0.031436 -0.117355 0.564801
v 0.032348 -0.117538 0.564801
v 0.031436 -0.117355 0.564801
v 0.031603 -0.116945 0.564068
v 0.033005 -0.114848 0.563152
v 0.032348 -0.115124 0.563031
v 0.032874 -0.116412 0.563505
v 0.033723 -0.116518 0.564068
v 0.033723 -0.116518 0.564068
v 0.032874 -0.116412 0.563505
v 0.033320 -0.116110 0.563505
v 0.031690 -0.114848 0.563152
v 0.032348 -0.115124 0.563031
v 0.032348 -0.117817 0.565654
v 0.032851 -0.114614 0.563152
v 0.033618 -0.114590 0.563505
v 0.033005 -0.114848 0.563152
v 0.033618 -0.114590 0.563505
v 0.032851 -0.114614 0.563152
v 0.033320 -0.114138 0.563505
v 0.030403 -0.115124 0.564068
v 0.031077 -0.115657 0.563505
v 0.030551 -0.115878 0.564068
v 0.031077 -0.115657 0.563505
v 0.030403 -0.115124 0.564068
v 0.033364 -0.112636 0.565654
v 0.033364 -0.112636 0.565654
v 0.034226 -0.113219 0.565654
v 0.033364 -0.112636 0.565654
v 0.033259 -0.112893 0.564801
v 0.034889 -0.116191 0.566570
v 0.034226 -0.117028 0.565654
v 0.034802 -0.116154 0.565654
v 0.034226 -0.117028 0.565654
v 0.034889 -0.116191 0.566570
v 0.034292 -0.117095 0.566570
v 0.030551 -0.114369 0.564068
v 0.031375 -0.114138 0.563505
v 0.031375 -0.114138 0.563505
v 0.030551 -0.114369 0.564068
v 0.030973 -0.113730 0.564068
v 0.034292 -0.113152 0.566570
v 0.034802 -0.114093 0.565654
v 0.034226 -0.113219 0.565654
v 0.034802 -0.114093 0.565654
v 0.034292 -0.113152 0.566570
v 0.034889 -0.114057 0.566570
v 0.032348 -0.115124 0.563031
v 0.031636 -0.115124 0.563152
v 0.034292 -0.113152 0.566570
v 0.034292 -0.113152 0.566570
v 0.033400 -0.112548 0.566570
v 0.033400 -0.112548 0.566570
v 0.030973 -0.115124 0.563505
v 0.031690 -0.115400 0.563152
v 0.031077 -0.115657 0.563505
v 0.031690 -0.115400 0.563152
v 0.030973 -0.115124 0.563505
v 0.031636 -0.115124 0.563152
v 0.029966 -0.115124 0.564801
v 0.029966 -0.115124 0.564801
v 0.029691 -0.115124 0.565654
v 0.030147 -0.116048 0.564801
v 0.030403 -0.115124 0.564068
v 0.030551 -0.115878 0.564068
v 0.030403 -0.115124 0.564068
v 0.030147 -0.116048 0.564801
v 0.029966 -0.115124 0.564801
v 0.032348 -0.116518 0.563505
v 0.033092 -0.116945 0.564068
v 0.032348 -0.117095 0.564068
v 0.033092 -0.116945 0.564068
v 0.032348 -0.116518 0.563505
v 0.032874 -0.116412 0.563505
v 0.034802 -0.114093 0.565654
v 0.034802 -0.114093 0.565654
v 0.035004 -0.115124 0.565654
v 0.030147 -0.116048 0.564801
v 0.030663 -0.116831 0.564801
v 0.030147 -0.116048 0.564801
v 0.029893 -0.116154 0.565654
v 0.029807 -0.114057 0.566570
v 0.029807 -0.114057 0.566570
v 0.030403 -0.113152 0.566570
v 0.032348 -0.114402 0.563152
v 0.032348 -0.115124 0.563031
v 0.033364 -0.112636 0.565654
v 0.033400 -0.112548 0.566570
v 0.033364 -0.112636 0.565654
v 0.032348 -0.112431 0.565654
v 0.032348 -0.115124 0.563031
v 0.032620 -0.115790 0.563152
v 0.031821 -0.113836 0.563505
v 0.032348 -0.114402 0.563152
v 0.032075 -0.114457 0.563152
v 0.032348 -0.114402 0.563152
v 0.031821 -0.113836 0.563505
v 0.032348 -0.113730 0.563505
v 0.031375 -0.114138 0.563505
v 0.032075 -0.114457 0.563152
v 0.031844 -0.114614 0.563152
v 0.032075 -0.114457 0.563152
v 0.031375 -0.114138 0.563505
v 0.031821 -0.113836 0.563505
v 0.029893 -0.114093 0.565654
v 0.030147 -0.114200 0.564801
v 0.029893 -0.114093 0.565654
v 0.030469 -0.113219 0.565654
v 0.032348 -0.114402 0.563152
v 0.032620 -0.114457 0.563152
v 0.032348 -0.115124 0.563031
v 0.033005 -0.114848 0.563152
v 0.033059 -0.115124 0.563152
v 0.033005 -0.114848 0.563152
v 0.033618 -0.114590 0.563505
v 0.033723 -0.113730 0.564068
v 0.033259 -0.112893 0.564801
v 0.034032 -0.113416 0.564801
v 0.033259 -0.112893 0.564801
v 0.033723 -0.113730 0.564068
v 0.033092 -0.113302 0.564068
v 0.032348 -0.115124 0.563031
v 0.032348 -0.115845 0.563152
v 0.032348 -0.112336 0.566570
v 0.032348 -0.112431 0.565654
v 0.032348 -0.112336 0.566570
v 0.030469 -0.117028 0.567486
v 0.030469 -0.117028 0.567486
v 0.033618 -0.115657 0.563505
v 0.034144 -0.115878 0.564068
v 0.033618 -0.115657 0.563505
v 0.033723 -0.115124 0.563505
v 0.032620 -0.114457 0.563152
v 0.032851 -0.114614 0.563152
v 0.032348 -0.115124 0.563031
v 0.031077 -0.115657 0.563505
v 0.031375 -0.116110 0.563505
v 0.031077 -0.115657 0.563505
v 0.031690 -0.115400 0.563152
v 0.032620 -0.114457 0.563152
v 0.033320 -0.114138 0.563505
v 0.032851 -0.114614 0.563152
v 0.033320 -0.114138 0.563505
v 0.032620 -0.114457 0.563152
v 0.032874 -0.113836 0.563505
v 0.031375 -0.116110 0.563505
v 0.032075 -0.115790 0.563152
v 0.032075 -0.115790 0.563152
v 0.031375 -0.116110 0.563505
v 0.031844 -0.115634 0.563152
v 0.030469 -0.117028 0.565654
v 0.031331 -0.117612 0.565654
v 0.030469 -0.117028 0.565654
v 0.030403 -0.117095 0.566570
v 0.031331 -0.117612 0.565654
v 0.030663 -0.116831 0.564801
v 0.031436 -0.117355 0.564801
v 0.030663 -0.116831 0.564801
v 0.031331 -0.117612 0.565654
v 0.030469 -0.117028 0.565654
v 0.035098 -0.115124 0.566570
v 0.034802 -0.116154 0.565654
v 0.035004 -0.115124 0.565654
v 0.034802 -0.116154 0.565654
v 0.035098 -0.115124 0.566570
v 0.034889 -0.116191 0.566570
v 0.032348 -0.115124 0.563031
v 0.032075 -0.115790 0.563152
v 0.031844 -0.115634 0.563152
v 0.030469 -0.113219 0.565654
v 0.031295 -0.112548 0.566570
v 0.031331 -0.112636 0.565654
v 0.031295 -0.112548 0.566570
v 0.030469 -0.113219 0.565654
v 0.030403 -0.113152 0.566570
v 0.033364 -0.117612 0.567486
v 0.034226 -0.117028 0.567486
v 0.033364 -0.117612 0.567486
v 0.033364 -0.117612 0.567486
v 0.033352 -0.117582 0.567583
v 0.030973 -0.116518 0.564068
v 0.031821 -0.116412 0.563505
v 0.031603 -0.116945 0.564068
v 0.031821 -0.116412 0.563505
v 0.030973 -0.116518 0.564068
v 0.031375 -0.116110 0.563505
v 0.032348 -0.115124 0.563031
v 0.031844 -0.115634 0.563152
v 0.031690 -0.115400 0.563152
v 0.033400 -0.112548 0.566570
v 0.033372 -0.112616 0.567279
v 0.033400 -0.112548 0.566570
v 0.032348 -0.112336 0.566570
v 0.032348 -0.112336 0.566570
v 0.029691 -0.115124 0.565654
v 0.030147 -0.114200 0.564801
v 0.029966 -0.115124 0.564801
v 0.030147 -0.114200 0.564801
v 0.029691 -0.115124 0.565654
v 0.029893 -0.114093 0.565654
v 0.032348 -0.112431 0.565654
v 0.032348 -0.112709 0.564801
v 0.032348 -0.112431 0.565654
v 0.031331 -0.112636 0.565654
v 0.031603 -0.116945 0.564068
v 0.032348 -0.116518 0.563505
v 0.032348 -0.117095 0.564068
v 0.032348 -0.116518 0.563505
v 0.031603 -0.116945 0.564068
v 0.031821 -0.116412 0.563505
v 0.033618 -0.114590 0.563505
v 0.034292 -0.115124 0.564068
v 0.033723 -0.115124 0.563505
v 0.034292 -0.115124 0.564068
v 0.033618 -0.114590 0.563505
v 0.034144 -0.114369 0.564068
v 0.030403 -0.117095 0.566570
v 0.029893 -0.116154 0.565654
v 0.030469 -0.117028 0.565654
v 0.029893 -0.116154 0.565654
v 0.030403 -0.117095 0.566570
v 0.029807 -0.116191 0.566570
v 0.034802 -0.116154 0.567486
v 0.030663 -0.116831 0.564801
v 0.030551 -0.115878 0.564068
v 0.030973 -0.116518 0.564068
v 0.030551 -0.115878 0.564068
v 0.030663 -0.116831 0.564801
v 0.030147 -0.116048 0.564801
v 0.032348 -0.112336 0.566570
v 0.032348 -0.112409 0.567279
v 0.032348 -0.112336 0.566570
v 0.031295 -0.112548 0.566570
v 0.031295 -0.112548 0.566570
v 0.034243 -0.113202 0.567247
v 0.034889 -0.114057 0.566570
v 0.034292 -0.113152 0.566570
v 0.034889 -0.114057 0.566570
v 0.034243 -0.113202 0.567247
v 0.034889 -0.114057 0.566570
v 0.029807 -0.114057 0.566570
v 0.029893 -0.114093 0.565654
v 0.033400 -0.117700 0.566570
v 0.034226 -0.117028 0.565654
v 0.034292 -0.117095 0.566570
v 0.034226 -0.117028 0.565654
v 0.033400 -0.117700 0.566570
v 0.033364 -0.117612 0.565654
v 0.035004 -0.115124 0.565654
v 0.034548 -0.116048 0.564801
v 0.034729 -0.115124 0.564801
v 0.034548 -0.116048 0.564801
v 0.035004 -0.115124 0.565654
v 0.034802 -0.116154 0.565654
v 0.033723 -0.115124 0.563505
v 0.033618 -0.115657 0.563505
v 0.033723 -0.115124 0.563505
v 0.033059 -0.115124 0.563152
v 0.034825 -0.114084 0.567245
v 0.035098 -0.115124 0.566570
v 0.034889 -0.114057 0.566570
v 0.035098 -0.115124 0.566570
v 0.034825 -0.114084 0.567245
v 0.035098 -0.115124 0.566570
v 0.030973 -0.113730 0.564068
v 0.031436 -0.112893 0.564801
v 0.031603 -0.113302 0.564068
v 0.031436 -0.112893 0.564801
v 0.030973 -0.113730 0.564068
v 0.030663 -0.113416 0.564801
v 0.033092 -0.113302 0.564068
v 0.032348 -0.112709 0.564801
v 0.033259 -0.112893 0.564801
v 0.032348 -0.112709 0.564801
v 0.033092 -0.113302 0.564068
v 0.032348 -0.113152 0.564068
v 0.031821 -0.116412 0.563505
v 0.032348 -0.115845 0.563152
v 0.032348 -0.116518 0.563505
v 0.032348 -0.115845 0.563152
v 0.031821 -0.116412 0.563505
v 0.032075 -0.115790 0.563152
v 0.031295 -0.117700 0.566570
v 0.032348 -0.117817 0.565654
v 0.032348 -0.117912 0.566570
v 0.032348 -0.117817 0.565654
v 0.031295 -0.117700 0.566570
v 0.031331 -0.117612 0.565654
v 0.034032 -0.113416 0.564801
v 0.034144 -0.114369 0.564068
v 0.033723 -0.113730 0.564068
v 0.034144 -0.114369 0.564068
v 0.034032 -0.113416 0.564801
v 0.034548 -0.114200 0.564801
v 0.035020 -0.115124 0.567327
v 0.034889 -0.116191 0.566570
v 0.035098 -0.115124 0.566570
v 0.034889 -0.116191 0.566570
v 0.035020 -0.115124 0.567327
v 0.034889 -0.116191 0.566570
v 0.034802 -0.116154 0.567486
v 0.034802 -0.116154 0.567486
v 0.034802 -0.116154 0.567486
v 0.034802 -0.116153 0.567486
v 0.031331 -0.117612 0.567486
v 0.032348 -0.117912 0.566570
v 0.032348 -0.117817 0.567486
v 0.032348 -0.117912 0.566570
v 0.031331 -0.117612 0.567486
v 0.031295 -0.117700 0.566570
v 0.033364 -0.117612 0.565654
v 0.034032 -0.116831 0.564801
v 0.034226 -0.117028 0.565654
v 0.034032 -0.116831 0.564801
v 0.033364 -0.117612 0.565654
v 0.032348 -0.117538 0.564801
v 0.033092 -0.116945 0.564068
v 0.033259 -0.117355 0.564801
v 0.033092 -0.116945 0.564068
v 0.032348 -0.117538 0.564801
v 0.032348 -0.117095 0.564068
v 0.032348 -0.117817 0.565654
v 0.033259 -0.117355 0.564801
v 0.033364 -0.117612 0.565654
v 0.033259 -0.117355 0.564801
v 0.032348 -0.117817 0.565654
v 0.032348 -0.117538 0.564801
v 0.029807 -0.116191 0.566570
v 0.029691 -0.115124 0.565654
v 0.029893 -0.116154 0.565654
v 0.029691 -0.115124 0.565654
v 0.029807 -0.116191 0.566570
v 0.029597 -0.115124 0.566570
v 0.034226 -0.113219 0.565654
v 0.034548 -0.114200 0.564801
v 0.034032 -0.113416 0.564801
v 0.034548 -0.114200 0.564801
v 0.034226 -0.113219 0.565654
v 0.034802 -0.114093 0.565654
v 0.029807 -0.116191 0.566570
v 0.029597 -0.115124 0.566570
v 0.029807 -0.116191 0.566570
v 0.029878 -0.116161 0.567322
v 0.029597 -0.115124 0.566570
v 0.029655 -0.115124 0.567129
v 0.032348 -0.117817 0.567486
v 0.032348 -0.117782 0.567592
v 0.032348 -0.117817 0.567486
v 0.031331 -0.117612 0.567486
v 0.031331 -0.117612 0.567486
v 0.031342 -0.117586 0.567571
v 0.033059 -0.115124 0.563152
v 0.033005 -0.115400 0.563152
v 0.032348 -0.115124 0.563031
v 0.034729 -0.115124 0.564801
v 0.034144 -0.115878 0.564068
v 0.034292 -0.115124 0.564068
v 0.034144 -0.115878 0.564068
v 0.034729 -0.115124 0.564801
v 0.034548 -0.116048 0.564801
v 0.032348 -0.115124 0.563031
v 0.033005 -0.115400 0.563152
v 0.032851 -0.115634 0.563152
v 0.032851 -0.115634 0.563152
v 0.033618 -0.115657 0.563505
v 0.033320 -0.116110 0.563505
v 0.033618 -0.115657 0.563505
v 0.032851 -0.115634 0.563152
v 0.033005 -0.115400 0.563152
v 0.034548 -0.114200 0.564801
v 0.034292 -0.115124 0.564068
v 0.034144 -0.114369 0.564068
v 0.034292 -0.115124 0.564068
v 0.034548 -0.114200 0.564801
v 0.034729 -0.115124 0.564801
v 0.034548 -0.116048 0.564801
v 0.033723 -0.116518 0.564068
v 0.034144 -0.115878 0.564068
v 0.033723 -0.116518 0.564068
v 0.034548 -0.116048 0.564801
v 0.034032 -0.116831 0.564801
v 0.033364 -0.117612 0.567486
v 0.032348 -0.117912 0.566570
v 0.033400 -0.117700 0.566570
v 0.032348 -0.117912 0.566570
v 0.033364 -0.117612 0.567486
v 0.032348 -0.117817 0.567486
v 0.034802 -0.116154 0.567487
v 0.034226 -0.117028 0.567486
v 0.034802 -0.116154 0.567486
v 0.034226 -0.117028 0.567486
v 0.034802 -0.116154 0.567487
v 0.034226 -0.117028 0.567486
v 0.034212 -0.117014 0.567545
v 0.031295 -0.112548 0.566570
v 0.031320 -0.112610 0.567214
v 0.031295 -0.112548 0.566570
v 0.030441 -0.113191 0.567103
v 0.030441 -0.113191 0.567103
v 0.031295 -0.112548 0.566570
v 0.030403 -0.113152 0.566570
v 0.033259 -0.117355 0.564801
v 0.033723 -0.116518 0.564068
v 0.034032 -0.116831 0.564801
v 0.033723 -0.116518 0.564068
v 0.033259 -0.117355 0.564801
v 0.033092 -0.116945 0.564068
v 0.031603 -0.113302 0.564068
v 0.032348 -0.113730 0.563505
v 0.031821 -0.113836 0.563505
v 0.032348 -0.113730 0.563505
v 0.031603 -0.113302 0.564068
v 0.032348 -0.113152 0.564068
v 0.032620 -0.115790 0.563152
v 0.033320 -0.116110 0.563505
v 0.032874 -0.116412 0.563505
v 0.033320 -0.116110 0.563505
v 0.032620 -0.115790 0.563152
v 0.032851 -0.115634 0.563152
v 0.034226 -0.117028 0.567486
v 0.033400 -0.117700 0.566570
v 0.034292 -0.117095 0.566570
v 0.033400 -0.117700 0.566570
v 0.034226 -0.117028 0.567486
v 0.033364 -0.117612 0.567486
v 0.032075 -0.114457 0.563152
v 0.032348 -0.115124 0.563031
v 0.031844 -0.114614 0.563152
v 0.030551 -0.114369 0.564068
v 0.030973 -0.115124 0.563505
v 0.030403 -0.115124 0.564068
v 0.030973 -0.115124 0.563505
v 0.030551 -0.114369 0.564068
v 0.031077 -0.114590 0.563505
v 0.030469 -0.117028 0.567486
v 0.031295 -0.117700 0.566570
v 0.031331 -0.117612 0.567486
v 0.031295 -0.117700 0.566570
v 0.030469 -0.117028 0.567486
v 0.030403 -0.117095 0.566570
v 0.031077 -0.114590 0.563505
v 0.031636 -0.115124 0.563152
v 0.030973 -0.115124 0.563505
v 0.031636 -0.115124 0.563152
v 0.031077 -0.114590 0.563505
v 0.031690 -0.114848 0.563152
v 0.030663 -0.113416 0.564801
v 0.031331 -0.112636 0.565654
v 0.031436 -0.112893 0.564801
v 0.031331 -0.112636 0.565654
v 0.030663 -0.113416 0.564801
v 0.030469 -0.113219 0.565654
v 0.031603 -0.113302 0.564068
v 0.032348 -0.112709 0.564801
v 0.032348 -0.113152 0.564068
v 0.032348 -0.112709 0.564801
v 0.031603 -0.113302 0.564068
v 0.031436 -0.112893 0.564801
v 0.032874 -0.113836 0.563505
v 0.033723 -0.113730 0.564068
v 0.033320 -0.114138 0.563505
v 0.033723 -0.113730 0.564068
v 0.032874 -0.113836 0.563505
v 0.033092 -0.113302 0.564068
v 0.031077 -0.114590 0.563505
v 0.031844 -0.114614 0.563152
v 0.031690 -0.114848 0.563152
v 0.031844 -0.114614 0.563152
v 0.031077 -0.114590 0.563505
v 0.031375 -0.114138 0.563505
v 0.030475 -0.117022 0.567510
v 0.030458 -0.117011 0.567486
v 0.030469 -0.117028 0.567486
v 0.030147 -0.114200 0.564801
v 0.030973 -0.113730 0.564068
v 0.030551 -0.114369 0.564068
v 0.030973 -0.113730 0.564068
v 0.030147 -0.114200 0.564801
v 0.030663 -0.113416 0.564801
f 1 2 3
f 4 5 6
f 5 4 7
f 6 8 9
f 8 6 5
f 10 11 12
f 11 10 13
f 14 15 16
f 15 14 17
f 18 19 20
f 19 18 21
f 22 23 24
f 23 22 25
f 26 27 28
f 27 26 29
f 30 31 32
f 31 30 33
f 34 35 36
f 35 34 37
f 38 39 40
f 39 38 41
f 42 139 43
f 140 44 45
f 141 46 47
f 46 142 143
f 48 49 144
f 49 48 50
f 145 146 49
f 147 51 148
f 52 149 53
f 150 52 151
f 54 55 56
f 55 54 57
f 58 59 60
f 59 58 61
f 152 153 62
f 154 155 63
f 156 64 157
f 64 158 159
f 65 160 161
f 66 67 68
f 67 66 69
f 162 163 70
f 164 165 166
f 167 168 71
f 72 73 74
f 73 72 169
f 170 171 172
f 173 174 175
f 176 177 178
f 179 180 75
f 76 77 78
f 77 76 181
f 79 182 183
f 184 79 185
f 80 81 82
f 81 80 83
f 186 187 188
f 189 190 191
f 192 193 84
f 194 195 196
f 197 198 199
f 200 201 202
f 203 85 204
f 205 86 87
f 86 206 207
f 86 208 88
f 209 210 211
f 212 213 214
f 89 215 90
f 216 89 217
f 218 219 220
f 221 222 223
f 224 225 226
f 227 228 229
f 230 91 92
f 91 231 232
f 93 233 234
f 235 93 236
f 94 95 96
f 95 94 97
f 96 95 98
f 95 97 99
f 237 100 101
f 100 238 239
f 240 241 102
f 242 103 243
f 103 244 245
f 246 104 247
f 248 249 250
f 251 252 253
f 254 255 256
f 257 258 259
f 260 105 261
f 105 262 263
f 264 265 266
f 267 106 268
f 106 269 270
f 271 272 273
f 274 275 276
f 277 278 107
f 108 279 280
f 281 108 109
f 110 111 112
f 111 110 282
f 283 110 113
f 284 114 285
f 114 286 287
f 288 289 290
f 291 115 292
f 115 293 294
f 295 296 297
f 298 299 300
f 301 302 116
f 303 304 305
f 117 306 307
f 308 117 309
f 310 311 312
f 313 314 315
f 316 317 318
f 319 320 321
f 322 323 324
f 325 326 327
f 328 329 330
f 118 331 332
f 333 118 119
f 334 119 335
f 336 337 338
f 339 340 341
f 342 343 344
f 345 120 346
f 120 347 348
f 120 349 121
f 350 351 352
f 353 354 355
f 122 356 357
f 358 122 359
f 360 361 362
f 363 364 365
f 366 367 368
f 369 370 371
f 372 373 374
f 375 376 377
f 123 378 124
f 379 380 381
f 382 383 384
f 385 125 386
f 125 387 388
f 125 389 126
f 390 391 392
f 393 394 127
f 128 395 127
f 396 397 51
f 398 399 400
f 401 402 403
f 404 405 406
f 407 408 409
f 129 410 411
f 412 129 413
f 414 415 416
f 417 418 130
f 131 419 130
f 420 421 422
f 423 424 425
f 426 427 428
f 429 430 431
f 432 433 434
f 435 436 437
f 438 439 440
f 441 442 443
f 444 445 446
f 447 448 449
f 450 451 452
f 453 454 132
f 455 132 456
f 457 132 133
f 458 133 459
f 460 461 462
f 463 464 465
f 466 467 468
f 469 470 134
f 471 472 473
f 474 475 476
f 477 478 479
f 480 481 482
f 483 484 485
f 486 487 488
f 489 490 491
f 492 493 494
f 495 135 496
f 135 497 498
f 499 135 500
f 136 501 502
f 503 136 504
f 505 136 506
f 507 508 509
f 510 511 512
f 513 514 515
f 516 517 518
f 519 520 521
f 522 523 524
f 525 526 527
f 528 529 530
f 531 532 533
f 534 535 536
f 537 538 539
f 540 541 542
f 543 544 545
f 546 547 137
f 548 137 549
f 550 138 551
f 138 552 553
f 554 555 556
f 557 558 559
f 560 561 562
f 563 564 565
f 566 567 568
f 569 570 571
f 572 573 574
f 575 576 577
f 578 579 580
f 581 582 583
f 584 585 586
f 587 588 589
f 590 591 592
f 593 594 595
f 596 597 598
f 599 600 601
f 602 603 604
f 605 606 607
f 608 609 610
f 611 612 613
f 614 615 616
f 617 618 619
f 620 621 622
f 623 624 625
f 626 627 628
f 629 630 631
f 632 633 634
