v -0.422247 -0.054269 0.517785
v -0.426375 -0.050643 0.517785
v -0.423950 -0.052046 0.517785
v -0.421525 -0.056976 0.517785
v -0.429151 -0.050275 0.517785
v -0.421893 -0.059752 0.517785
v -0.431857 -0.050998 0.517785
v -0.434081 -0.052701 0.517785
v -0.423295 -0.062176 0.517785
v -0.425519 -0.063880 0.517785
v -0.435484 -0.055125 0.517785
v -0.428225 -0.064602 0.517785
v -0.435852 -0.057902 0.517785
v -0.431001 -0.064234 0.517785
v -0.435129 -0.060608 0.517785
v -0.433426 -0.062832 0.517785
v -0.433426 -0.062832 0.525523
v -0.431001 -0.064234 0.525523
v -0.428225 -0.064602 0.525523
v -0.425519 -0.063880 0.525523
v -0.423295 -0.062176 0.525523
v -0.421893 -0.059752 0.525523
v -0.421525 -0.056976 0.525523
v -0.422247 -0.054269 0.525523
v -0.423950 -0.052046 0.525523
v -0.426375 -0.050643 0.525523
v -0.429151 -0.050275 0.525523
v -0.431857 -0.050998 0.525523
v -0.434081 -0.052701 0.525523
v -0.435484 -0.055125 0.525523
v -0.435852 -0.057902 0.525523
v -0.435129 -0.060608 0.525523
v -0.425249 -0.053861 0.525523
v -0.426292 -0.053093 0.525523
v -0.427499 -0.052621 0.525523
v -0.425429 -0.053729 0.525523
v -0.428786 -0.052477 0.525523
v -0.430067 -0.052672 0.525523
v -0.431254 -0.053191 0.525523
v -0.432266 -0.054000 0.525523
v -0.432398 -0.054180 0.525523
v -0.433034 -0.055043 0.525523
v -0.433506 -0.056249 0.525523
v -0.433649 -0.057537 0.525523
v -0.433455 -0.058818 0.525523
v -0.432936 -0.060004 0.525523
v -0.432127 -0.061016 0.525523
v -0.424441 -0.054873 0.525523
v -0.423921 -0.056060 0.525523
v -0.423727 -0.057341 0.525523
v -0.423871 -0.058628 0.525523
v -0.424342 -0.059834 0.525523
v -0.424978 -0.060698 0.525523
v -0.425111 -0.060878 0.525523
v -0.426123 -0.061686 0.525523
v -0.427309 -0.062206 0.525523
v -0.428590 -0.062400 0.525523
v -0.429877 -0.062256 0.525523
v -0.431084 -0.061784 0.525523
v -0.431947 -0.061149 0.525523
v -0.424342 -0.059834 0.525540
v -0.424978 -0.060698 0.525540
v -0.425111 -0.060878 0.525540
v -0.426123 -0.061686 0.525540
v -0.427309 -0.062206 0.525540
v -0.428590 -0.062400 0.525540
v -0.429877 -0.062256 0.525540
v -0.431084 -0.061784 0.525540
v -0.431947 -0.061149 0.525540
v -0.432127 -0.061016 0.525540
v -0.432936 -0.060004 0.525540
v -0.433455 -0.058818 0.525540
v -0.433649 -0.057537 0.525540
v -0.433506 -0.056249 0.525540
v -0.433034 -0.055043 0.525540
v -0.432398 -0.054180 0.525540
v -0.432266 -0.054000 0.525540
v -0.431254 -0.053191 0.525540
v -0.430067 -0.052672 0.525540
v -0.428786 -0.052477 0.525540
v -0.427499 -0.052621 0.525540
v -0.426292 -0.053093 0.525540
v -0.425429 -0.053729 0.525540
v -0.425249 -0.053861 0.525540
v -0.424441 -0.054873 0.525540
v -0.423921 -0.056060 0.525540
v -0.423727 -0.057341 0.525540
v -0.423871 -0.058628 0.525540
v -0.424106 -0.055905 0.517785
v -0.427792 -0.052667 0.517785
v -0.425526 -0.053805 0.517785
v -0.428982 -0.052728 0.517785
v -0.424014 -0.057093 0.517785
v -0.430295 -0.052796 0.517785
v -0.423912 -0.058404 0.517785
v -0.424995 -0.060633 0.517785
v -0.432366 -0.054157 0.517785
v -0.427066 -0.061994 0.517785
v -0.433449 -0.056386 0.517785
v -0.428379 -0.062062 0.517785
v -0.433347 -0.057697 0.517785
v -0.429569 -0.062123 0.517785
v -0.433255 -0.058885 0.517785
v -0.431835 -0.060985 0.517785
v -0.429591 -0.062227 0.515338
v -0.431904 -0.061064 0.515338
v -0.429589 -0.062226 0.515338
v -0.431904 -0.061065 0.515338
v -0.433354 -0.058920 0.515338
v -0.433355 -0.058918 0.515338
f 1 2 3
f 2 1 4
f 2 4 5
f 5 4 6
f 5 6 7
f 7 6 8
f 8 6 9
f 8 9 10
f 8 10 11
f 11 10 12
f 11 12 13
f 13 12 14
f 13 14 15
f 15 14 16
f 14 17 16
f 17 14 18
f 12 18 14
f 18 12 19
f 20 12 10
f 12 20 19
f 21 10 9
f 10 21 20
f 22 9 6
f 9 22 21
f 23 6 4
f 6 23 22
f 23 1 24
f 1 23 4
f 24 3 25
f 3 24 1
f 25 2 26
f 2 25 3
f 26 5 27
f 5 26 2
f 28 5 7
f 5 28 27
f 29 7 8
f 7 29 28
f 30 8 11
f 8 30 29
f 31 11 13
f 11 31 30
f 15 31 13
f 31 15 32
f 16 32 15
f 32 16 17
f 26 24 25
f 24 26 27
f 24 27 23
f 23 27 33
f 33 27 34
f 34 27 35
f 35 27 28
f 33 34 36
f 35 28 37
f 37 28 38
f 38 28 29
f 38 29 39
f 39 29 40
f 40 29 41
f 41 29 30
f 41 30 42
f 42 30 43
f 43 30 44
f 44 30 31
f 44 31 45
f 45 31 46
f 46 31 47
f 23 48 22
f 48 23 33
f 22 48 49
f 22 49 50
f 22 50 51
f 22 51 21
f 21 51 52
f 21 52 53
f 21 53 54
f 21 54 20
f 20 54 55
f 20 55 56
f 20 56 57
f 20 57 19
f 19 57 58
f 19 58 59
f 19 59 60
f 19 60 47
f 19 47 31
f 19 31 32
f 19 32 18
f 18 32 17
f 61 53 52
f 53 61 62
f 62 54 53
f 54 62 63
f 63 55 54
f 55 63 64
f 64 56 55
f 56 64 65
f 65 57 56
f 57 65 66
f 57 67 58
f 67 57 66
f 58 68 59
f 68 58 67
f 59 69 60
f 69 59 68
f 60 70 47
f 70 60 69
f 47 71 46
f 71 47 70
f 46 72 45
f 72 46 71
f 45 73 44
f 73 45 72
f 73 43 44
f 43 73 74
f 74 42 43
f 42 74 75
f 75 41 42
f 41 75 76
f 76 40 41
f 40 76 77
f 77 39 40
f 39 77 78
f 78 38 39
f 38 78 79
f 79 37 38
f 37 79 80
f 81 37 80
f 37 81 35
f 82 35 81
f 35 82 34
f 83 34 82
f 34 83 36
f 84 36 83
f 36 84 33
f 85 33 84
f 33 85 48
f 86 48 85
f 48 86 49
f 87 49 86
f 49 87 50
f 87 51 50
f 51 87 88
f 88 52 51
f 52 88 61
f 89 90 91
f 90 89 92
f 92 89 93
f 92 93 94
f 94 93 95
f 94 95 96
f 94 96 97
f 97 96 98
f 97 98 99
f 99 98 100
f 99 100 101
f 101 100 102
f 101 102 103
f 103 102 104
f 105 106 107
f 106 105 108
f 106 109 110
f 109 106 108
