v -0.194573 -0.127908 0.551472
v -0.197819 -0.122431 0.551472
v -0.199354 -0.125566 0.551472
v -0.193038 -0.124773 0.551472
v -0.193038 -0.124773 0.546557
v -0.194573 -0.127908 0.546557
v -0.197819 -0.122431 0.546557
v -0.199354 -0.125566 0.546557
v -0.194573 -0.127908 0.551472
v -0.194573 -0.127908 0.551472
v -0.193038 -0.124773 0.551472
v -0.197819 -0.122431 0.551472
v -0.193038 -0.124773 0.546557
v -0.193038 -0.124773 0.546557
v -0.197819 -0.122431 0.551472
v -0.193038 -0.124773 0.551472
v -0.197819 -0.122431 0.551472
v -0.199354 -0.125566 0.551472
v -0.197819 -0.122431 0.551472
v -0.197819 -0.122431 0.546557
v -0.194573 -0.127908 0.551472
v -0.199354 -0.125566 0.546557
v -0.194573 -0.127908 0.546557
v -0.199354 -0.125566 0.546557
v -0.194573 -0.127908 0.551472
v -0.199354 -0.125566 0.551472
f 1 2 3
f 2 1 4
f 5 9 6
f 10 5 11
f 12 13 7
f 14 15 16
f 17 8 18
f 8 19 20
f 21 22 23
f 24 25 26
