v -0.473869 -0.194352 0.211438
v -0.473869 -0.239669 0.188197
v -0.473869 -0.239669 0.211438
v -0.473869 -0.194352 0.188197
v -0.425395 -0.239669 0.211438
v -0.425395 -0.239669 0.188197
v -0.429890 -0.231569 0.211438
v -0.431469 -0.226547 0.211438
v -0.425395 -0.235826 0.211438
v -0.395780 -0.239669 0.211438
v -0.391577 -0.231569 0.211438
v -0.396072 -0.235826 0.211438
v -0.357009 -0.239669 0.211438
v -0.389998 -0.226547 0.211438
v -0.418668 -0.214424 0.211438
v -0.357009 -0.194352 0.211438
v -0.425395 -0.217269 0.211438
v -0.429890 -0.221526 0.211438
v -0.410733 -0.213425 0.211438
v -0.402798 -0.214424 0.211438
v -0.396072 -0.217269 0.211438
v -0.391577 -0.221526 0.211438
v -0.357009 -0.239669 0.191328
v -0.395780 -0.239669 0.188197
v -0.357009 -0.239669 0.188197
v -0.357009 -0.239669 0.194800
v -0.357009 -0.239669 0.204711
v -0.357009 -0.239669 0.208182
v -0.389998 -0.226547 0.189747
v -0.391577 -0.221526 0.189747
v -0.391577 -0.231569 0.189747
v -0.396072 -0.217269 0.189747
v -0.402798 -0.214424 0.189747
v -0.410733 -0.213425 0.189747
v -0.396072 -0.235826 0.189747
v -0.418668 -0.214424 0.189747
v -0.425395 -0.217269 0.189747
v -0.429890 -0.221526 0.189747
v -0.431469 -0.226547 0.189747
v -0.429890 -0.231569 0.189747
v -0.425395 -0.235826 0.189747
f 1 2 3
f 2 1 4
f 5 2 6
f 2 5 3
f 5 1 3
f 1 5 7
f 1 7 8
f 7 5 9
f 10 11 12
f 11 10 13
f 11 13 14
f 1 15 16
f 15 1 17
f 17 1 18
f 18 1 8
f 16 15 19
f 16 19 20
f 16 20 21
f 16 21 22
f 16 22 14
f 16 14 13
f 23 24 25
f 24 23 10
f 10 23 26
f 10 26 27
f 10 27 28
f 10 28 13
f 29 22 14
f 22 29 30
f 29 11 31
f 11 29 14
f 21 30 32
f 30 21 22
f 20 32 33
f 32 20 21
f 19 33 34
f 33 19 20
f 11 35 31
f 35 11 12
f 17 36 37
f 36 17 15
f 18 37 38
f 37 18 17
f 18 39 8
f 39 18 38
f 8 40 7
f 40 8 39
f 15 34 36
f 34 15 19
f 9 40 41
f 40 9 7
