v -0.212169 0.244931 0.425848
v -0.221779 0.244931 0.423973
v -0.214431 0.244931 0.423295
v -0.221157 0.244931 0.424533
v -0.219106 0.244931 0.426848
v -0.210394 0.244931 0.428471
v -0.217496 0.244931 0.429227
v -0.209118 0.244931 0.431147
v -0.216339 0.244931 0.431654
v -0.208349 0.244931 0.433858
v -0.215642 0.244931 0.434113
v -0.208092 0.244931 0.436588
v -0.215409 0.244931 0.436588
v -0.215642 0.244931 0.439063
v -0.208349 0.244931 0.439317
v -0.216339 0.244931 0.441522
v -0.209118 0.244931 0.442029
v -0.217496 0.244931 0.443949
v -0.210394 0.244931 0.444705
v -0.219106 0.244931 0.446328
v -0.212169 0.244931 0.447328
v -0.221157 0.244931 0.448643
v -0.214431 0.244931 0.449881
v -0.221779 0.244931 0.449203
v -0.289874 0.244931 0.449203
v -0.294099 0.244931 0.420829
v -0.217166 0.244931 0.420829
v -0.297319 0.244931 0.423232
v -0.289874 0.244931 0.423973
v -0.299994 0.244931 0.425756
v -0.290811 0.244931 0.424672
v -0.293198 0.244931 0.426924
v -0.302101 0.244931 0.428377
v -0.295077 0.244931 0.429262
v -0.303619 0.244931 0.431072
v -0.296431 0.244931 0.431667
v -0.304535 0.244931 0.433818
v -0.297249 0.244931 0.434116
v -0.304841 0.244931 0.436588
v -0.297522 0.244931 0.436588
v -0.304535 0.244931 0.439358
v -0.297249 0.244931 0.439059
v -0.296431 0.244931 0.441509
v -0.303619 0.244931 0.442103
v -0.295077 0.244931 0.443914
v -0.302101 0.244931 0.444799
v -0.293198 0.244931 0.446252
v -0.299994 0.244931 0.447420
v -0.290811 0.244931 0.448504
v -0.297319 0.244931 0.449944
v -0.217166 0.244931 0.452347
v -0.294099 0.244931 0.452347
v -0.212169 0.132869 0.425848
v -0.221132 0.132869 0.423532
v -0.214431 0.132869 0.423295
v -0.220215 0.132869 0.424360
v -0.218134 0.132869 0.426708
v -0.210394 0.132869 0.428471
v -0.216501 0.132869 0.429121
v -0.209118 0.132869 0.431147
v -0.215327 0.132869 0.431583
v -0.208349 0.132869 0.433858
v -0.214620 0.132869 0.434077
v -0.208092 0.132869 0.436588
v -0.214383 0.132869 0.436588
v -0.208349 0.132869 0.439317
v -0.214620 0.132869 0.439099
v -0.215327 0.132869 0.441593
v -0.209118 0.132869 0.442029
v -0.216501 0.132869 0.444055
v -0.210394 0.132869 0.444705
v -0.218134 0.132869 0.446468
v -0.212169 0.132869 0.447328
v -0.220215 0.132869 0.448816
v -0.214431 0.132869 0.449881
v -0.221132 0.132869 0.449644
v -0.290467 0.132869 0.449644
v -0.294100 0.132869 0.420829
v -0.217166 0.132869 0.420829
v -0.297319 0.132869 0.423232
v -0.290467 0.132869 0.423532
v -0.299995 0.132869 0.425756
v -0.291723 0.132869 0.424470
v -0.294151 0.132869 0.426760
v -0.302101 0.132869 0.428377
v -0.296061 0.132869 0.429138
v -0.303619 0.132869 0.431072
v -0.297439 0.132869 0.431584
v -0.304535 0.132869 0.433818
v -0.298270 0.132869 0.434075
v -0.304841 0.132869 0.436588
v -0.298548 0.132869 0.436588
v -0.298270 0.132869 0.439101
v -0.304535 0.132869 0.439358
v -0.297439 0.132869 0.441592
v -0.303619 0.132869 0.442103
v -0.296061 0.132869 0.444038
v -0.302101 0.132869 0.444799
v -0.294151 0.132869 0.446416
v -0.299995 0.132869 0.447420
v -0.291723 0.132869 0.448706
v -0.297319 0.132869 0.449944
v -0.217166 0.132869 0.452347
v -0.294100 0.132869 0.452347
v -0.176329 0.235062 0.392906
v -0.340294 0.123262 0.392906
v -0.340294 0.235062 0.392906
v -0.176329 0.123262 0.392906
v -0.176329 0.123262 0.420829
v -0.176329 0.235062 0.420829
v -0.022575 -0.109962 0.460144
v -0.234894 -0.109962 0.480293
v -0.234894 -0.109962 0.460144
v -0.090888 -0.109962 0.480293
v -0.022575 -0.207980 0.460144
v -0.234894 -0.207980 0.480293
v -0.234894 -0.207980 0.460144
v -0.090888 -0.207980 0.480293
v 0.477140 -0.219598 0.025846
v 0.310649 -0.144164 0.025846
v 0.310649 -0.219598 0.025846
v 0.477140 -0.144164 0.025846
v 0.477140 0.088462 0.025846
v 0.311848 0.158536 0.025846
v 0.311848 0.088462 0.025846
v 0.477140 0.158536 0.025846
v 0.308278 -0.239669 0.467715
v 0.058327 0.156143 0.467715
v 0.308278 0.156143 0.467715
v 0.058327 -0.239669 0.467715
v 0.067404 -0.230591 0.519114
v 0.299201 0.147065 0.519114
v 0.067404 0.147065 0.519114
v 0.299201 -0.230591 0.519114
v 0.058327 0.156143 0.512090
v 0.058327 -0.239669 0.512090
v 0.308278 -0.239669 0.512090
v 0.308278 0.156143 0.512090
v -0.152461 -0.229048 0.437006
v -0.158083 -0.005641 0.437006
v -0.158083 -0.229048 0.437006
v -0.158083 0.150294 0.437006
v -0.152461 0.150294 0.437006
v 0.308278 -0.229048 0.437006
v 0.299980 0.150294 0.437006
v 0.299980 -0.229048 0.437006
v 0.299980 0.156143 0.437006
v 0.308278 0.156143 0.437006
v -0.158083 0.156143 0.437006
v 0.054226 0.156143 0.437006
v 0.058327 0.156143 0.437006
v -0.158083 0.156143 0.000000
v 0.308278 -0.239669 0.000000
v -0.158083 -0.239669 0.000000
v 0.308278 0.156143 0.000000
v 0.299980 0.150294 0.430769
v -0.152461 0.150294 0.430769
v -0.137308 -0.229048 0.023904
v 0.287508 -0.239669 0.023904
v -0.137308 -0.239669 0.023904
v 0.287508 -0.229048 0.023904
v -0.152461 -0.229048 0.430769
v 0.299980 0.156143 0.430769
v -0.158083 0.150294 0.430769
v -0.158083 0.156143 0.430769
v 0.299980 -0.229048 0.430769
v -0.137308 -0.239669 0.425446
v -0.137308 -0.229048 0.425446
v -0.158083 -0.239669 0.430769
v 0.308278 -0.239669 0.430769
v 0.308278 -0.229048 0.430769
v 0.287508 -0.239669 0.425446
v 0.308278 0.156143 0.430769
v 0.058327 -0.239669 0.467715
v 0.308278 -0.239669 0.437006
v 0.058327 -0.239669 0.437006
v 0.308278 -0.239669 0.467715
v -0.158083 -0.239669 0.467715
v 0.054226 -0.239669 0.437006
v -0.158083 -0.239669 0.437006
v 0.054226 -0.239669 0.467715
v 0.054226 -0.005641 0.467715
v 0.054226 0.066778 0.467715
v 0.054226 0.066778 0.519660
v 0.054226 0.156143 0.519660
v 0.058327 0.156143 0.467715
v -0.158083 0.066778 0.467715
v -0.158083 -0.005641 0.467715
v -0.158083 0.156143 0.519660
v -0.158083 0.066778 0.519660
f 1 2 3
f 2 1 4
f 4 1 5
f 5 1 6
f 5 6 7
f 7 6 8
f 7 8 9
f 9 8 10
f 9 10 11
f 11 10 12
f 11 12 13
f 13 12 14
f 14 12 15
f 14 15 16
f 16 15 17
f 16 17 18
f 18 17 19
f 18 19 20
f 20 19 21
f 20 21 22
f 22 21 23
f 22 23 24
f 24 23 25
f 3 26 27
f 26 3 28
f 28 3 29
f 28 29 30
f 29 3 2
f 30 29 31
f 30 31 32
f 30 32 33
f 33 32 34
f 33 34 35
f 35 34 36
f 35 36 37
f 37 36 38
f 37 38 39
f 39 38 40
f 39 40 41
f 41 40 42
f 41 42 43
f 41 43 44
f 44 43 45
f 44 45 46
f 46 45 47
f 46 47 48
f 48 47 49
f 48 49 50
f 50 49 25
f 50 25 23
f 50 23 51
f 50 51 52
f 53 54 55
f 54 53 56
f 56 53 57
f 57 53 58
f 57 58 59
f 59 58 60
f 59 60 61
f 61 60 62
f 61 62 63
f 63 62 64
f 63 64 65
f 65 64 66
f 65 66 67
f 67 66 68
f 68 66 69
f 68 69 70
f 70 69 71
f 70 71 72
f 72 71 73
f 72 73 74
f 74 73 75
f 74 75 76
f 76 75 77
f 55 78 79
f 78 55 80
f 80 55 81
f 80 81 82
f 81 55 54
f 82 81 83
f 82 83 84
f 82 84 85
f 85 84 86
f 85 86 87
f 87 86 88
f 87 88 89
f 89 88 90
f 89 90 91
f 91 90 92
f 91 92 93
f 91 93 94
f 94 93 95
f 94 95 96
f 96 95 97
f 96 97 98
f 98 97 99
f 98 99 100
f 100 99 101
f 100 101 102
f 102 101 77
f 102 77 75
f 102 75 103
f 102 103 104
f 78 27 79
f 27 78 26
f 26 80 28
f 80 26 78
f 80 30 28
f 30 80 82
f 82 33 30
f 33 82 85
f 85 35 33
f 35 85 87
f 87 37 35
f 37 87 89
f 89 39 37
f 39 89 91
f 91 41 39
f 41 91 94
f 94 44 41
f 44 94 96
f 96 46 44
f 46 96 98
f 98 48 46
f 48 98 100
f 100 50 48
f 50 100 102
f 102 52 50
f 52 102 104
f 52 103 51
f 103 52 104
f 103 23 51
f 23 103 75
f 75 21 23
f 21 75 73
f 73 19 21
f 19 73 71
f 71 17 19
f 17 71 69
f 69 15 17
f 15 69 66
f 66 12 15
f 12 66 64
f 64 10 12
f 10 64 62
f 62 8 10
f 8 62 60
f 60 6 8
f 6 60 58
f 58 1 6
f 1 58 53
f 53 3 1
f 3 53 55
f 55 27 3
f 27 55 79
f 56 81 54
f 81 56 83
f 83 56 57
f 83 57 84
f 84 57 59
f 84 59 86
f 86 59 61
f 86 61 88
f 88 61 63
f 88 63 90
f 90 63 92
f 92 63 65
f 92 65 93
f 93 65 67
f 93 67 68
f 93 68 95
f 95 68 97
f 97 68 70
f 97 70 99
f 99 70 72
f 99 72 101
f 101 72 74
f 101 74 77
f 77 74 76
f 4 29 2
f 29 4 31
f 31 4 5
f 31 5 32
f 32 5 7
f 32 7 34
f 34 7 9
f 34 9 36
f 36 9 11
f 36 11 38
f 38 11 13
f 38 13 40
f 40 13 14
f 40 14 42
f 42 14 43
f 43 14 16
f 43 16 45
f 45 16 18
f 45 18 47
f 47 18 20
f 47 20 49
f 49 20 22
f 49 22 25
f 25 22 24
f 105 106 107
f 106 105 108
f 105 109 108
f 109 105 110
f 111 112 113
f 112 111 114
f 115 116 117
f 116 115 118
f 116 114 112
f 114 116 118
f 114 115 111
f 115 114 118
f 115 113 111
f 113 115 117
f 116 113 117
f 113 116 112
f 119 120 121
f 120 119 122
f 123 124 125
f 124 123 126
f 127 128 129
f 128 127 130
f 131 132 133
f 132 131 134
f 130 135 128
f 135 130 136
f 127 136 130
f 136 127 137
f 132 137 138
f 137 132 134
f 138 128 135
f 128 138 129
f 136 134 131
f 134 136 137
f 136 133 135
f 133 136 131
f 135 132 138
f 132 135 133
f 138 127 129
f 127 138 137
f 135 137 138
f 137 135 136
f 139 140 141
f 140 139 142
f 142 139 143
f 144 145 146
f 145 144 147
f 147 144 148
f 143 149 142
f 149 143 150
f 150 143 145
f 150 145 151
f 151 145 147
f 152 153 154
f 153 152 155
f 143 156 157
f 156 143 145
f 158 159 160
f 159 158 161
f 143 162 139
f 162 143 157
f 163 164 165
f 164 163 157
f 157 163 156
f 156 146 166
f 146 156 145
f 167 158 160
f 158 167 168
f 157 162 164
f 169 162 170
f 162 169 164
f 170 162 166
f 170 166 171
f 154 160 153
f 160 154 169
f 160 169 167
f 167 169 172
f 153 159 170
f 159 153 160
f 170 159 172
f 170 172 169
f 173 156 163
f 156 173 171
f 171 166 156
f 174 175 176
f 175 174 177
f 178 179 180
f 179 178 181
f 151 179 150
f 179 151 176
f 181 150 179
f 150 181 182
f 150 182 183
f 150 183 184
f 150 184 185
f 151 174 176
f 174 151 186
f 187 182 188
f 182 187 183
f 188 181 178
f 181 188 182
f 189 184 190
f 184 189 185
f 190 183 187
f 183 190 184
f 139 166 162
f 166 139 146
