v 0.027586 -0.099905 0.518906
v -0.034465 -0.068502 0.518906
v 0.016257 -0.097786 0.518906
v -0.029451 -0.059817 0.518906
v 0.029677 -0.096283 0.518906
v 0.021271 -0.089101 0.518906
v 0.012097 -0.083805 0.518906
v 0.006499 -0.080573 0.518906
v -0.029451 -0.059817 0.516268
v 0.015363 -0.099334 0.516268
v -0.035359 -0.070049 0.516268
v 0.016257 -0.097786 0.516268
v 0.027586 -0.099905 0.516268
v 0.029677 -0.096283 0.516268
v 0.021271 -0.089101 0.516268
v -0.035359 -0.070049 0.520914
v -0.034465 -0.068502 0.520914
v 0.016257 -0.097786 0.520914
v 0.015363 -0.099334 0.520914
v 0.009829 -0.074805 0.517448
v 0.012097 -0.083805 0.517448
v 0.006499 -0.080573 0.517448
v 0.015427 -0.078037 0.517448
v 0.010192 -0.074396 0.517448
v 0.015600 -0.077518 0.517448
v 0.010722 -0.074125 0.517448
v 0.015570 -0.076924 0.517448
v 0.011381 -0.074010 0.517448
v 0.015340 -0.076296 0.517448
v 0.012125 -0.074060 0.517448
v 0.014925 -0.075676 0.517448
v 0.012904 -0.074270 0.517448
v 0.014353 -0.075107 0.517448
v 0.013664 -0.074628 0.517448
v 0.009829 -0.074805 0.518906
v 0.015427 -0.078037 0.518906
v 0.015600 -0.077518 0.518906
v 0.014925 -0.075676 0.518906
v 0.014353 -0.075107 0.518906
v 0.015340 -0.076296 0.518906
v 0.015570 -0.076924 0.518906
v 0.012125 -0.074060 0.518906
v 0.011381 -0.074010 0.518906
v 0.010722 -0.074125 0.518906
v 0.012904 -0.074270 0.518906
v 0.013664 -0.074628 0.518906
v 0.010192 -0.074396 0.518906
v 0.029677 -0.096283 0.518906
v 0.027586 -0.099905 0.516268
v 0.029677 -0.096283 0.516268
v 0.027586 -0.099905 0.516268
v 0.029677 -0.096283 0.518906
v 0.027586 -0.099905 0.518906
v -0.035359 -0.070049 0.516268
v -0.034465 -0.068502 0.518906
v -0.029451 -0.059817 0.516268
v -0.034465 -0.068502 0.518906
v -0.035359 -0.070049 0.516268
v -0.034465 -0.068502 0.518906
v -0.029451 -0.059817 0.518906
v -0.029451 -0.059817 0.516268
v -0.034465 -0.068502 0.518906
v -0.035359 -0.070049 0.520914
v -0.035359 -0.070049 0.520914
v -0.034465 -0.068502 0.520914
v 0.016257 -0.097786 0.518906
v 0.015363 -0.099334 0.516268
v 0.016257 -0.097786 0.516268
v 0.015363 -0.099334 0.516268
v 0.016257 -0.097786 0.518906
v 0.015363 -0.099334 0.520914
v 0.015363 -0.099334 0.520914
v 0.016257 -0.097786 0.518906
v 0.016257 -0.097786 0.520914
v -0.035359 -0.070049 0.520914
v 0.015363 -0.099334 0.516268
v 0.015363 -0.099334 0.520914
v 0.015363 -0.099334 0.516268
v -0.035359 -0.070049 0.520914
v -0.035359 -0.070049 0.516268
v 0.021271 -0.089101 0.516268
v 0.029677 -0.096283 0.518906
v 0.029677 -0.096283 0.516268
v 0.029677 -0.096283 0.518906
v 0.021271 -0.089101 0.516268
v 0.021271 -0.089101 0.518906
v 0.006499 -0.080573 0.518906
v 0.009829 -0.074805 0.517448
v 0.006499 -0.080573 0.517448
v 0.009829 -0.074805 0.517448
v 0.006499 -0.080573 0.518906
v 0.006499 -0.080573 0.517448
v 0.012097 -0.083805 0.518906
v 0.012097 -0.083805 0.517448
v 0.012097 -0.083805 0.518906
v 0.006499 -0.080573 0.517448
v 0.006499 -0.080573 0.518906
v 0.012097 -0.083805 0.517448
v 0.015427 -0.078037 0.517448
v 0.012097 -0.083805 0.517448
v 0.012097 -0.083805 0.518906
v 0.015427 -0.078037 0.517448
v 0.015600 -0.077518 0.517448
v 0.015427 -0.078037 0.517448
v 0.015427 -0.078037 0.518906
v 0.014353 -0.075107 0.517448
v 0.014925 -0.075676 0.517448
v 0.014353 -0.075107 0.517448
v 0.014925 -0.075676 0.517448
v 0.015340 -0.076296 0.517448
v 0.014925 -0.075676 0.517448
v 0.014925 -0.075676 0.518906
v 0.015340 -0.076296 0.518906
v 0.015570 -0.076924 0.517448
v 0.015340 -0.076296 0.517448
v 0.015570 -0.076924 0.517448
v 0.015340 -0.076296 0.518906
v 0.015570 -0.076924 0.518906
v 0.015600 -0.077518 0.517448
v 0.015570 -0.076924 0.517448
v 0.015600 -0.077518 0.517448
v 0.015570 -0.076924 0.518906
v 0.015600 -0.077518 0.518906
v 0.011381 -0.074010 0.517448
v 0.012125 -0.074060 0.517448
v 0.011381 -0.074010 0.517448
v 0.011381 -0.074010 0.517448
v 0.010722 -0.074125 0.517448
v 0.011381 -0.074010 0.517448
v 0.011381 -0.074010 0.518906
v 0.012125 -0.074060 0.517448
v 0.012904 -0.074270 0.517448
v 0.012125 -0.074060 0.517448
v 0.012125 -0.074060 0.518906
v 0.013664 -0.074628 0.517448
v 0.014353 -0.075107 0.518906
v 0.014353 -0.075107 0.517448
v 0.014353 -0.075107 0.518906
v 0.013664 -0.074628 0.517448
v 0.012904 -0.074270 0.517448
v 0.013664 -0.074628 0.518906
v 0.013664 -0.074628 0.517448
v 0.013664 -0.074628 0.518906
v 0.012904 -0.074270 0.517448
v 0.012904 -0.074270 0.518906
v 0.009829 -0.074805 0.518906
v 0.010192 -0.074396 0.517448
v 0.009829 -0.074805 0.517448
v 0.010192 -0.074396 0.517448
v 0.009829 -0.074805 0.518906
v 0.010192 -0.074396 0.518906
v 0.010722 -0.074125 0.517448
v 0.010192 -0.074396 0.517448
v 0.010722 -0.074125 0.517448
v 0.010192 -0.074396 0.518906
v 0.010722 -0.074125 0.518906
v 0.021271 -0.089101 0.516268
v 0.012097 -0.083805 0.517448
v 0.021271 -0.089101 0.518906
v 0.012097 -0.083805 0.517448
v 0.021271 -0.089101 0.516268
v -0.029451 -0.059817 0.516268
v 0.012097 -0.083805 0.517448
v -0.029451 -0.059817 0.516268
v 0.006499 -0.080573 0.517448
v 0.006499 -0.080573 0.517448
v -0.029451 -0.059817 0.516268
v 0.006499 -0.080573 0.518906
v 0.006499 -0.080573 0.518906
v -0.029451 -0.059817 0.516268
v -0.029451 -0.059817 0.518906
v 0.012097 -0.083805 0.518906
v 0.021271 -0.089101 0.518906
v 0.012097 -0.083805 0.517448
v -0.034465 -0.068502 0.518906
v 0.016257 -0.097786 0.520914
v 0.016257 -0.097786 0.518906
v 0.016257 -0.097786 0.520914
v -0.034465 -0.068502 0.518906
v -0.034465 -0.068502 0.520914
v 0.015427 -0.078037 0.518906
v 0.015427 -0.078037 0.518906
v 0.009829 -0.074805 0.518906
v 0.009829 -0.074805 0.518906
v 0.015427 -0.078037 0.518906
v 0.015600 -0.077518 0.518906
v 0.009829 -0.074805 0.518906
v 0.015600 -0.077518 0.518906
v 0.010192 -0.074396 0.518906
v 0.010192 -0.074396 0.518906
v 0.015600 -0.077518 0.518906
v 0.015570 -0.076924 0.518906
v 0.010192 -0.074396 0.518906
v 0.015570 -0.076924 0.518906
v 0.010722 -0.074125 0.518906
v 0.010722 -0.074125 0.518906
v 0.015570 -0.076924 0.518906
v 0.015340 -0.076296 0.518906
v 0.010722 -0.074125 0.518906
v 0.015340 -0.076296 0.518906
v 0.011381 -0.074010 0.518906
v 0.011381 -0.074010 0.518906
v 0.015340 -0.076296 0.518906
v 0.014925 -0.075676 0.518906
v 0.011381 -0.074010 0.518906
v 0.014925 -0.075676 0.518906
v 0.012125 -0.074060 0.518906
v 0.012125 -0.074060 0.518906
v 0.014925 -0.075676 0.518906
v 0.014353 -0.075107 0.518906
v 0.012125 -0.074060 0.518906
v 0.014353 -0.075107 0.518906
v 0.012904 -0.074270 0.518906
v 0.012904 -0.074270 0.518906
v 0.014353 -0.075107 0.518906
v 0.013664 -0.074628 0.518906
v 0.016257 -0.097786 0.518906
v 0.027586 -0.099905 0.516268
v 0.027586 -0.099905 0.518906
v 0.027586 -0.099905 0.516268
v 0.016257 -0.097786 0.518906
v 0.016257 -0.097786 0.516268
f 1 2 3
f 2 1 4
f 4 1 5
f 4 5 6
f 4 6 7
f 4 7 8
f 9 10 11
f 10 9 12
f 12 9 13
f 13 9 14
f 14 9 15
f 48 49 50
f 51 52 53
f 54 55 56
f 57 58 16
f 59 16 17
f 60 61 62
f 18 63 19
f 64 18 65
f 66 67 68
f 69 70 71
f 72 73 74
f 75 76 77
f 78 79 80
f 81 82 83
f 84 85 86
f 20 21 22
f 21 20 23
f 23 20 24
f 23 24 25
f 25 24 26
f 25 26 27
f 27 26 28
f 27 28 29
f 29 28 30
f 29 30 31
f 31 30 32
f 31 32 33
f 33 32 34
f 87 88 89
f 90 91 35
f 92 93 94
f 95 96 97
f 36 98 99
f 100 36 101
f 37 102 103
f 104 37 105
f 106 38 107
f 38 108 39
f 109 40 110
f 40 111 112
f 113 114 115
f 116 117 41
f 118 119 120
f 121 122 123
f 124 42 125
f 42 126 43
f 44 127 128
f 129 44 130
f 131 45 132
f 45 133 134
f 135 136 137
f 138 139 46
f 140 141 142
f 143 144 145
f 146 147 148
f 149 150 47
f 151 152 153
f 154 155 156
f 157 158 159
f 160 161 162
f 163 164 165
f 166 167 168
f 169 170 171
f 172 173 174
f 175 176 177
f 178 179 180
f 181 8 7
f 8 182 183
f 184 185 186
f 187 188 189
f 190 191 192
f 193 194 195
f 196 197 198
f 199 200 201
f 202 203 204
f 205 206 207
f 208 209 210
f 211 212 213
f 214 215 216
f 217 218 219
f 220 221 222
