v 0.033319 -0.111431 0.744826
v 0.033288 -0.111693 0.632356
v 0.033319 -0.111431 0.632356
v 0.033288 -0.111693 0.744826
v 0.032393 -0.112443 0.744826
v 0.032633 -0.112408 0.632356
v 0.032633 -0.112408 0.744826
v 0.032393 -0.112443 0.632356
v 0.032856 -0.112307 0.632356
v 0.032856 -0.112307 0.744826
v 0.033195 -0.110925 0.744826
v 0.033288 -0.111169 0.632356
v 0.033195 -0.110925 0.632356
v 0.033288 -0.111169 0.744826
v 0.033195 -0.111937 0.744826
v 0.033048 -0.112146 0.632356
v 0.033195 -0.111937 0.632356
v 0.033048 -0.112146 0.744826
v 0.031739 -0.112146 0.744826
v 0.031930 -0.112307 0.632356
v 0.031930 -0.112307 0.744826
v 0.031739 -0.112146 0.632356
v 0.031499 -0.111169 0.744826
v 0.031592 -0.110925 0.632356
v 0.031499 -0.111169 0.632356
v 0.031592 -0.110925 0.744826
v 0.032393 -0.110420 0.632356
v 0.032633 -0.110454 0.744826
v 0.032633 -0.110454 0.632356
v 0.032393 -0.110420 0.744826
v 0.031930 -0.110555 0.632356
v 0.032154 -0.110454 0.744826
v 0.032154 -0.110454 0.632356
v 0.031930 -0.110555 0.744826
v 0.031468 -0.111431 0.744826
v 0.031468 -0.111431 0.632356
v 0.032154 -0.112408 0.632356
v 0.031592 -0.111937 0.632356
v 0.031499 -0.111693 0.632356
v 0.031739 -0.110716 0.632356
v 0.033048 -0.110716 0.632356
v 0.032856 -0.110555 0.632356
v 0.031592 -0.111937 0.744826
v 0.031499 -0.111693 0.744826
v 0.032154 -0.112408 0.744826
v 0.033048 -0.110716 0.744826
v 0.032856 -0.110555 0.744826
v 0.031739 -0.110716 0.744826
v 0.032633 -0.112408 0.744826
v 0.032633 -0.112408 0.744826
v 0.032633 -0.112408 0.632356
v 0.033288 -0.111693 0.744826
v 0.033195 -0.111937 0.632356
v 0.033288 -0.111693 0.632356
v 0.033195 -0.111937 0.632356
v 0.033288 -0.111693 0.744826
v 0.033195 -0.111937 0.744826
v 0.032856 -0.112307 0.744826
v 0.033048 -0.112146 0.632356
v 0.033048 -0.112146 0.744826
v 0.033048 -0.112146 0.632356
v 0.032856 -0.112307 0.744826
v 0.032856 -0.112307 0.632356
v 0.031499 -0.111169 0.632356
v 0.031499 -0.111169 0.632356
v 0.031499 -0.111169 0.744826
v 0.032633 -0.112408 0.632356
v 0.032393 -0.112443 0.632356
v 0.032633 -0.112408 0.632356
v 0.031930 -0.112307 0.632356
v 0.032633 -0.112408 0.632356
v 0.031930 -0.112307 0.632356
v 0.032856 -0.112307 0.632356
v 0.032856 -0.112307 0.632356
v 0.031930 -0.112307 0.632356
v 0.031739 -0.112146 0.632356
v 0.032856 -0.112307 0.632356
v 0.031739 -0.112146 0.632356
v 0.033048 -0.112146 0.632356
v 0.033048 -0.112146 0.632356
v 0.031739 -0.112146 0.632356
v 0.033048 -0.112146 0.632356
v 0.033195 -0.111937 0.632356
v 0.033195 -0.111937 0.632356
v 0.033195 -0.111937 0.632356
v 0.033288 -0.111693 0.632356
v 0.033288 -0.111693 0.632356
v 0.031468 -0.111431 0.632356
v 0.033288 -0.111693 0.632356
v 0.031468 -0.111431 0.632356
v 0.033319 -0.111431 0.632356
v 0.033319 -0.111431 0.632356
v 0.031468 -0.111431 0.632356
v 0.031499 -0.111169 0.632356
v 0.033319 -0.111431 0.632356
v 0.031499 -0.111169 0.632356
v 0.033288 -0.111169 0.632356
v 0.033288 -0.111169 0.632356
v 0.031499 -0.111169 0.632356
v 0.031592 -0.110925 0.632356
v 0.033288 -0.111169 0.632356
v 0.031592 -0.110925 0.632356
v 0.033195 -0.110925 0.632356
v 0.033195 -0.110925 0.632356
v 0.031592 -0.110925 0.632356
v 0.033195 -0.110925 0.632356
v 0.031930 -0.110555 0.632356
v 0.031930 -0.110555 0.632356
v 0.031930 -0.110555 0.632356
v 0.032154 -0.110454 0.632356
v 0.032154 -0.110454 0.632356
v 0.032633 -0.110454 0.632356
v 0.032633 -0.110454 0.632356
v 0.032154 -0.110454 0.632356
v 0.032393 -0.110420 0.632356
v 0.031499 -0.111693 0.632356
v 0.031592 -0.111937 0.632356
v 0.031499 -0.111693 0.632356
v 0.032154 -0.112408 0.632356
v 0.032856 -0.110555 0.632356
v 0.033048 -0.110716 0.632356
v 0.032856 -0.110555 0.632356
v 0.031930 -0.112307 0.744826
v 0.032154 -0.112408 0.632356
v 0.032154 -0.112408 0.744826
v 0.032154 -0.112408 0.632356
v 0.031930 -0.112307 0.744826
v 0.031930 -0.112307 0.632356
v 0.033288 -0.111169 0.744826
v 0.033288 -0.111169 0.632356
v 0.033288 -0.111169 0.744826
v 0.031739 -0.110716 0.632356
v 0.031930 -0.110555 0.744826
v 0.031930 -0.110555 0.632356
v 0.031930 -0.110555 0.744826
v 0.031739 -0.110716 0.632356
v 0.033048 -0.110716 0.744826
v 0.033195 -0.110925 0.632356
v 0.033048 -0.110716 0.632356
v 0.033195 -0.110925 0.632356
v 0.033048 -0.110716 0.744826
v 0.033195 -0.110925 0.744826
v 0.032633 -0.110454 0.632356
v 0.032856 -0.110555 0.744826
v 0.032856 -0.110555 0.632356
v 0.032856 -0.110555 0.744826
v 0.032633 -0.110454 0.632356
v 0.032633 -0.110454 0.744826
v 0.032154 -0.110454 0.632356
v 0.032393 -0.110420 0.744826
v 0.032393 -0.110420 0.632356
v 0.032393 -0.110420 0.744826
v 0.032154 -0.110454 0.632356
v 0.032154 -0.110454 0.744826
v 0.031499 -0.111693 0.744826
v 0.031468 -0.111431 0.632356
v 0.031499 -0.111693 0.632356
v 0.031468 -0.111431 0.632356
v 0.031499 -0.111693 0.744826
v 0.031468 -0.111431 0.744826
v 0.032633 -0.112408 0.744826
v 0.032154 -0.112408 0.744826
v 0.032393 -0.112443 0.744826
v 0.032154 -0.112408 0.744826
v 0.032633 -0.112408 0.744826
v 0.032856 -0.112307 0.744826
v 0.032154 -0.112408 0.744826
v 0.032856 -0.112307 0.744826
v 0.031930 -0.112307 0.744826
v 0.031930 -0.112307 0.744826
v 0.032856 -0.112307 0.744826
v 0.033048 -0.112146 0.744826
v 0.031930 -0.112307 0.744826
v 0.033048 -0.112146 0.744826
v 0.031739 -0.112146 0.744826
v 0.031739 -0.112146 0.744826
v 0.033048 -0.112146 0.744826
v 0.033195 -0.111937 0.744826
v 0.031739 -0.112146 0.744826
v 0.033195 -0.111937 0.744826
v 0.031592 -0.111937 0.744826
v 0.031592 -0.111937 0.744826
v 0.033195 -0.111937 0.744826
v 0.033288 -0.111693 0.744826
v 0.031592 -0.111937 0.744826
v 0.033288 -0.111693 0.744826
v 0.031499 -0.111693 0.744826
v 0.031499 -0.111693 0.744826
v 0.033288 -0.111693 0.744826
v 0.033319 -0.111431 0.744826
v 0.031499 -0.111693 0.744826
v 0.033319 -0.111431 0.744826
v 0.031468 -0.111431 0.744826
v 0.031468 -0.111431 0.744826
v 0.033319 -0.111431 0.744826
v 0.033288 -0.111169 0.744826
v 0.031468 -0.111431 0.744826
v 0.033288 -0.111169 0.744826
v 0.031499 -0.111169 0.744826
v 0.031499 -0.111169 0.744826
v 0.033288 -0.111169 0.744826
v 0.033195 -0.110925 0.744826
v 0.031499 -0.111169 0.744826
v 0.033195 -0.110925 0.744826
v 0.031592 -0.110925 0.744826
v 0.031592 -0.110925 0.744826
v 0.033195 -0.110925 0.744826
v 0.033048 -0.110716 0.744826
v 0.031592 -0.110925 0.744826
v 0.033048 -0.110716 0.744826
v 0.031739 -0.110716 0.744826
v 0.031739 -0.110716 0.744826
v 0.033048 -0.110716 0.744826
v 0.032856 -0.110555 0.744826
v 0.031739 -0.110716 0.744826
v 0.032856 -0.110555 0.744826
v 0.031930 -0.110555 0.744826
v 0.031930 -0.110555 0.744826
v 0.032856 -0.110555 0.744826
v 0.032633 -0.110454 0.744826
v 0.031930 -0.110555 0.744826
v 0.032633 -0.110454 0.744826
v 0.032154 -0.110454 0.744826
v 0.032154 -0.110454 0.744826
v 0.032633 -0.110454 0.744826
v 0.032393 -0.110420 0.744826
v 0.031592 -0.110925 0.744826
v 0.031739 -0.110716 0.632356
v 0.031592 -0.110925 0.632356
v 0.031739 -0.110716 0.632356
v 0.031592 -0.110925 0.744826
v 0.031739 -0.110716 0.744826
v 0.031739 -0.112146 0.744826
v 0.031592 -0.111937 0.632356
v 0.031739 -0.112146 0.632356
v 0.031592 -0.111937 0.632356
v 0.031739 -0.112146 0.744826
v 0.031592 -0.111937 0.744826
f 1 2 3
f 2 1 4
f 5 6 7
f 6 5 8
f 49 9 10
f 9 50 51
f 11 12 13
f 12 11 14
f 15 16 17
f 16 15 18
f 19 20 21
f 20 19 22
f 23 24 25
f 24 23 26
f 27 28 29
f 28 27 30
f 52 53 54
f 55 56 57
f 58 59 60
f 61 62 63
f 31 32 33
f 32 31 34
f 35 64 36
f 65 35 66
f 37 67 68
f 69 37 70
f 71 72 73
f 74 75 76
f 77 78 79
f 80 81 38
f 82 38 83
f 84 38 39
f 85 39 86
f 87 39 88
f 89 90 91
f 92 93 94
f 95 96 97
f 98 99 100
f 101 102 103
f 104 105 40
f 106 40 41
f 41 40 107
f 41 108 42
f 42 109 110
f 42 111 112
f 113 114 115
f 43 116 117
f 118 43 44
f 45 8 5
f 8 45 119
f 120 46 121
f 46 122 47
f 123 124 125
f 126 127 128
f 129 3 130
f 3 131 1
f 132 133 134
f 135 136 48
f 137 138 139
f 140 141 142
f 143 144 145
f 146 147 148
f 149 150 151
f 152 153 154
f 155 156 157
f 158 159 160
f 161 162 163
f 164 165 166
f 167 168 169
f 170 171 172
f 173 174 175
f 176 177 178
f 179 180 181
f 182 183 184
f 185 186 187
f 188 189 190
f 191 192 193
f 194 195 196
f 197 198 199
f 200 201 202
f 203 204 205
f 206 207 208
f 209 210 211
f 212 213 214
f 215 216 217
f 218 219 220
f 221 222 223
f 224 225 226
f 227 228 229
f 230 231 232
f 233 234 235
f 236 237 238
