v -0.292720 -0.249185 0.435375
v -0.306338 0.065143 0.433381
v -0.306338 -0.249185 0.433381
v -0.292720 0.065143 0.435375
v -0.357009 -0.249185 0.345011
v -0.357009 -0.239669 0.208182
v -0.357009 -0.249185 0.208182
v -0.357009 -0.239669 0.345011
v -0.357009 -0.239669 0.216086
v -0.357009 -0.239669 0.211438
v -0.357009 -0.194352 0.216086
v -0.357009 -0.194352 0.211438
v -0.200936 -0.249185 0.392906
v -0.200936 -0.249185 0.208182
v -0.357009 -0.249185 0.392906
v -0.357009 -0.249185 0.412690
v -0.200936 -0.249185 0.412690
v -0.345155 -0.249185 0.419684
v -0.212790 -0.249185 0.419684
v -0.332679 -0.249185 0.425499
v -0.225265 -0.249185 0.425499
v -0.319700 -0.249185 0.430079
v -0.238244 -0.249185 0.430079
v -0.251606 -0.249185 0.433381
v -0.265224 -0.249185 0.435375
v -0.278972 -0.249185 0.436042
v -0.200936 -0.239669 0.204977
v -0.357009 -0.239669 0.204711
v -0.200936 -0.239669 0.204711
v -0.200936 -0.239669 0.208182
v -0.200936 -0.239669 0.023458
v -0.357009 -0.239669 0.027440
v -0.357009 -0.239669 0.023458
v -0.200936 -0.239669 0.027440
v -0.200936 -0.249185 0.159918
v -0.357009 -0.239669 0.159918
v -0.357009 -0.249185 0.159918
v -0.200936 -0.239669 0.159918
v -0.200936 -0.249185 0.054855
v -0.357009 -0.249185 0.042862
v -0.200936 -0.249185 0.042862
v -0.357009 -0.249185 0.054855
v -0.357009 -0.239669 0.042862
v -0.200936 -0.239669 0.042862
v -0.200936 -0.239669 0.054855
v -0.200936 -0.239669 0.194800
v -0.357009 -0.239669 0.191328
v -0.200936 -0.239669 0.191328
v -0.357009 -0.239669 0.194800
v -0.238244 0.065143 0.430079
v -0.225265 0.065143 0.425499
v -0.278972 0.065143 0.436042
v -0.357009 0.065143 0.412690
v -0.357009 0.065143 0.392906
v -0.251606 0.065143 0.433381
v -0.265224 0.065143 0.435375
v -0.212790 0.065143 0.419684
v -0.200936 0.065143 0.412690
v -0.357009 -0.249185 0.204711
v -0.357009 -0.249185 0.194800
v -0.376748 -0.239669 0.127675
v -0.459719 -0.232602 0.127675
v -0.459719 -0.239669 0.127675
v -0.376748 -0.232602 0.127675
v -0.345155 0.065143 0.419684
v -0.332679 0.065143 0.425499
v -0.319700 0.065143 0.430079
v -0.459719 -0.232602 0.171859
v -0.459719 -0.239669 0.171859
v -0.459719 -0.232602 0.141421
v -0.376748 -0.232602 0.171859
v -0.376748 -0.239669 0.171859
v -0.376748 -0.232602 0.141421
v -0.366777 -0.194352 0.087882
v -0.366777 -0.239669 0.184234
v -0.366777 -0.239669 0.087882
v -0.366777 -0.194352 0.184234
v -0.200936 -0.249185 0.108229
v -0.357009 -0.249185 0.096576
v -0.200936 -0.249185 0.096576
v -0.357009 -0.249185 0.108229
v -0.357009 -0.239669 0.096576
v -0.200936 -0.239669 0.096576
v -0.200936 -0.239669 0.108229
v -0.357009 -0.239669 0.108229
v -0.200936 -0.249185 0.073505
v -0.357009 -0.239669 0.073505
v -0.357009 -0.249185 0.073505
v -0.200936 -0.239669 0.073505
v -0.357009 -0.249185 0.144597
v -0.200936 -0.249185 0.144597
v -0.357009 -0.239669 0.144597
v -0.200936 -0.239669 0.144597
v -0.467785 -0.239669 0.087882
v -0.467785 -0.239669 0.184234
v -0.200936 -0.239669 0.076977
v -0.357009 -0.239669 0.076977
v -0.200936 -0.249185 0.191328
v -0.357009 -0.249185 0.178925
v -0.200936 -0.249185 0.178925
v -0.357009 -0.249185 0.191328
v -0.357009 -0.239669 0.178925
v -0.200936 -0.239669 0.178925
v -0.200936 -0.239669 0.058326
v -0.357009 -0.239669 0.054855
v -0.357009 -0.239669 0.058326
v -0.357009 -0.249185 0.058326
v -0.200936 -0.249185 0.058326
v -0.357009 -0.239669 0.141126
v -0.200936 -0.239669 0.141126
v -0.357009 -0.239669 0.175454
v -0.200936 -0.239669 0.175454
v -0.467785 -0.194352 0.087882
v -0.467785 -0.194352 0.184234
v -0.200936 -0.249185 0.194800
v -0.200936 -0.249185 0.204711
v -0.200936 -0.239669 0.392906
v -0.357009 0.062819 0.345011
v -0.357009 0.065143 0.345011
v -0.200936 -0.249185 0.125096
v -0.357009 -0.239669 0.125096
v -0.357009 -0.249185 0.125096
v -0.200936 -0.239669 0.125096
v -0.158083 0.065143 0.392906
v -0.158083 -0.239669 0.208182
v -0.158083 -0.239669 0.392906
v -0.158083 -0.233438 0.208182
v -0.158083 -0.175202 0.023458
v -0.158083 -0.175202 0.000000
v -0.158083 0.269867 0.000000
v -0.158083 0.269867 0.392906
v -0.158083 -0.233438 0.204977
v -0.158083 -0.239669 0.023458
v -0.158083 -0.239669 0.204977
v -0.357009 -0.249185 0.111700
v -0.200936 -0.249185 0.111700
v -0.357009 -0.239669 0.111700
v -0.200936 -0.239669 0.111700
v -0.200936 -0.249185 0.093105
v -0.357009 -0.249185 0.076977
v -0.200936 -0.249185 0.076977
v -0.357009 -0.249185 0.093105
v -0.200936 -0.239669 0.093105
v -0.357009 -0.239669 0.093105
v -0.200936 -0.249185 0.039391
v -0.357009 -0.249185 0.030911
v -0.200936 -0.249185 0.030911
v -0.357009 -0.249185 0.039391
v -0.357009 -0.239669 0.030911
v -0.200936 -0.239669 0.030911
v -0.200936 -0.239669 0.039391
v -0.200936 -0.249185 0.175454
v -0.357009 -0.249185 0.163390
v -0.200936 -0.249185 0.163390
v -0.357009 -0.249185 0.175454
v -0.357009 -0.239669 0.163390
v -0.200936 -0.239669 0.163390
v -0.473869 0.065143 0.345011
v -0.473869 -0.239669 0.345011
v -0.357009 -0.239669 0.039391
v -0.200936 -0.249185 0.141126
v -0.357009 -0.249185 0.128567
v -0.200936 -0.249185 0.128567
v -0.357009 -0.249185 0.141126
v -0.357009 -0.239669 0.128567
v -0.200936 -0.239669 0.128567
v -0.473869 -0.194352 0.211438
v -0.473869 -0.194352 0.216086
v -0.357009 -0.194352 0.188197
v -0.357009 -0.194352 0.023458
v -0.473869 -0.194352 0.023458
v -0.473869 -0.194352 0.188197
v -0.473869 -0.239669 0.216086
v -0.425395 -0.239669 0.188197
v -0.473869 -0.239669 0.188197
v -0.395780 -0.239669 0.188197
v -0.357009 -0.239669 0.188197
v -0.473869 -0.175202 0.023458
v -0.473869 -0.175202 0.000000
v -0.473869 0.065143 0.000000
v -0.200936 -0.233438 0.204977
v -0.200936 -0.233438 0.208182
v -0.357009 -0.175202 0.023458
v -0.200936 -0.175202 0.023458
v -0.357009 -0.175202 0.000000
v -0.473869 0.269867 0.000000
v -0.200936 -0.175202 0.000000
v -0.434779 -0.175202 0.007994
v -0.434779 -0.175202 0.016817
v -0.461153 -0.175202 0.016817
v -0.461153 -0.175202 0.007994
v -0.434779 -0.194352 0.016817
v -0.461153 -0.194352 0.007994
v -0.434779 -0.194352 0.007994
v -0.461153 -0.194352 0.016817
v -0.473869 0.269867 0.392906
v -0.200936 0.065143 0.392906
v -0.473869 0.065143 0.392906
f 1 2 3
f 2 1 4
f 5 6 7
f 6 5 8
f 6 8 9
f 6 9 10
f 10 9 11
f 10 11 12
f 13 7 14
f 7 13 5
f 5 13 15
f 15 13 16
f 16 13 17
f 16 17 18
f 18 17 19
f 18 19 20
f 20 19 21
f 20 21 22
f 22 21 23
f 22 23 3
f 3 23 24
f 3 24 1
f 1 24 25
f 1 25 26
f 27 28 29
f 28 27 6
f 6 27 30
f 31 32 33
f 32 31 34
f 35 36 37
f 36 35 38
f 39 40 41
f 40 39 42
f 43 41 40
f 41 43 44
f 44 39 41
f 39 44 45
f 46 47 48
f 47 46 49
f 21 50 23
f 50 21 51
f 26 4 1
f 4 26 52
f 53 15 16
f 15 53 54
f 23 55 24
f 55 23 50
f 24 56 25
f 56 24 55
f 17 57 19
f 57 17 58
f 19 51 21
f 51 19 57
f 59 49 60
f 49 59 28
f 61 62 63
f 62 61 64
f 20 65 18
f 65 20 66
f 3 67 22
f 67 3 2
f 63 68 69
f 68 63 62
f 68 62 70
f 16 65 53
f 65 16 18
f 25 52 26
f 52 25 56
f 71 61 72
f 61 71 64
f 64 71 73
f 22 66 20
f 66 22 67
f 71 69 68
f 69 71 72
f 74 75 76
f 75 74 77
f 78 79 80
f 79 78 81
f 82 80 79
f 80 82 83
f 83 78 80
f 78 83 84
f 78 85 81
f 85 78 84
f 86 87 88
f 87 86 89
f 35 90 91
f 90 35 37
f 92 91 90
f 91 92 93
f 93 35 91
f 35 93 38
f 76 61 94
f 61 76 75
f 61 75 72
f 72 75 69
f 94 63 95
f 63 94 61
f 95 63 69
f 95 69 75
f 96 87 89
f 87 96 97
f 98 99 100
f 99 98 101
f 102 100 99
f 100 102 103
f 103 98 100
f 98 103 48
f 98 47 101
f 47 98 48
f 104 105 45
f 105 104 106
f 86 107 108
f 107 86 88
f 106 108 107
f 108 106 104
f 104 86 108
f 86 104 89
f 93 109 110
f 109 93 92
f 103 111 112
f 111 103 102
f 95 113 94
f 113 95 114
f 49 115 60
f 115 49 46
f 46 116 115
f 116 46 29
f 116 28 59
f 28 116 29
f 30 13 14
f 13 30 117
f 116 60 115
f 60 116 59
f 54 5 15
f 5 54 8
f 8 54 118
f 118 54 119
f 113 76 94
f 76 113 74
f 75 114 95
f 114 75 77
f 120 121 122
f 121 120 123
f 6 14 7
f 14 6 30
f 124 125 126
f 125 124 127
f 127 124 128
f 128 124 129
f 129 124 130
f 130 124 131
f 132 133 134
f 133 132 128
f 128 132 127
f 120 135 136
f 135 120 122
f 137 136 135
f 136 137 138
f 138 120 136
f 120 138 123
f 139 140 141
f 140 139 142
f 97 141 140
f 141 97 96
f 96 139 141
f 139 96 143
f 139 144 142
f 144 139 143
f 145 146 147
f 146 145 148
f 149 147 146
f 147 149 150
f 147 151 145
f 151 147 150
f 138 85 84
f 85 138 137
f 152 153 154
f 153 152 155
f 156 154 153
f 154 156 157
f 157 152 154
f 152 157 112
f 152 111 155
f 111 152 112
f 8 158 159
f 158 8 118
f 158 118 119
f 44 160 151
f 160 44 43
f 145 160 148
f 160 145 151
f 83 144 143
f 144 83 82
f 150 32 34
f 32 150 149
f 39 105 42
f 105 39 45
f 157 36 38
f 36 157 156
f 161 162 163
f 162 161 164
f 165 163 162
f 163 165 166
f 166 161 163
f 161 166 110
f 161 109 164
f 109 161 110
f 166 121 123
f 121 166 165
f 11 167 12
f 167 11 168
f 169 74 170
f 74 169 77
f 77 169 114
f 171 113 172
f 113 171 170
f 113 170 74
f 172 113 114
f 172 114 169
f 8 173 9
f 173 8 159
f 168 9 173
f 9 168 11
f 172 174 175
f 174 172 169
f 174 169 176
f 176 169 177
f 101 102 99
f 102 101 47
f 102 47 111
f 111 47 177
f 111 177 36
f 36 177 109
f 109 177 121
f 121 177 85
f 85 177 144
f 144 177 87
f 87 177 105
f 105 177 160
f 160 146 148
f 146 160 149
f 149 160 177
f 149 177 169
f 149 169 32
f 32 169 33
f 33 169 170
f 42 43 40
f 43 42 105
f 43 105 160
f 88 106 107
f 106 88 87
f 106 87 105
f 142 97 140
f 97 142 144
f 97 144 87
f 81 82 79
f 82 81 85
f 82 85 144
f 122 137 135
f 137 122 121
f 137 121 85
f 164 165 162
f 165 164 109
f 165 109 121
f 37 92 90
f 92 37 36
f 92 36 109
f 155 156 153
f 156 155 111
f 156 111 36
f 158 173 159
f 173 158 168
f 168 158 167
f 167 158 172
f 172 158 171
f 171 158 178
f 178 158 179
f 179 158 180
f 133 34 31
f 34 133 134
f 34 134 150
f 150 134 151
f 151 134 44
f 44 134 45
f 45 134 104
f 104 134 89
f 89 134 96
f 96 134 143
f 143 134 83
f 83 134 84
f 84 134 138
f 138 134 123
f 123 134 166
f 166 134 110
f 110 134 93
f 93 134 38
f 38 134 157
f 157 134 112
f 112 134 103
f 103 134 48
f 48 134 46
f 46 134 29
f 29 134 27
f 126 30 125
f 30 126 117
f 127 181 132
f 181 127 182
f 182 27 30
f 27 182 181
f 134 181 27
f 181 134 132
f 182 125 30
f 125 182 127
f 178 170 171
f 170 178 183
f 170 31 33
f 31 170 183
f 31 183 184
f 184 133 31
f 133 184 128
f 180 185 179
f 185 180 186
f 185 186 130
f 185 130 187
f 187 130 129
f 129 184 187
f 184 129 128
f 187 183 185
f 183 187 184
f 183 188 185
f 188 183 189
f 189 183 190
f 190 183 178
f 179 191 178
f 191 179 185
f 191 185 188
f 178 191 190
f 192 193 194
f 193 192 195
f 190 193 195
f 193 190 191
f 188 193 191
f 193 188 194
f 194 189 192
f 189 194 188
f 192 190 195
f 190 192 189
f 196 130 186
f 130 196 131
f 53 197 54
f 197 53 58
f 58 53 65
f 58 65 57
f 57 65 66
f 57 66 51
f 51 66 67
f 51 67 50
f 50 67 2
f 50 2 55
f 55 2 4
f 55 4 56
f 56 4 52
f 117 17 13
f 17 117 58
f 58 117 197
f 117 124 197
f 124 117 126
f 54 196 198
f 196 54 131
f 131 54 197
f 131 197 124
f 119 198 158
f 198 119 54
f 198 180 158
f 180 198 186
f 186 198 196
