v 0.251326 -0.229048 0.073688
v -0.101233 0.154969 0.073688
v -0.101233 -0.229048 0.073688
v 0.251326 0.154969 0.073688
v -0.101233 -0.229048 0.383624
v -0.101233 0.154969 0.383624
v 0.251326 0.154969 0.383624
v 0.251326 -0.229048 0.383624
v -0.101233 0.154969 0.073688
v -0.101233 -0.229048 0.073688
v -0.101233 0.154969 0.073688
v 0.251326 -0.229048 0.073688
v 0.251326 -0.229048 0.073688
v 0.251326 0.154969 0.073688
v -0.101233 0.154969 0.383624
v 0.251326 -0.229048 0.383624
v -0.101233 -0.229048 0.383624
v 0.251326 -0.229048 0.383624
v -0.101233 0.154969 0.383624
v 0.251326 0.154969 0.383624
f 1 2 3
f 2 1 4
f 9 5 10
f 5 11 6
f 7 12 8
f 13 7 14
f 15 16 17
f 18 19 20
