v 0.111061 -0.076779 0.107964
v 0.110643 -0.076779 0.110762
v 0.084957 -0.076779 0.110319
v 0.136467 -0.076779 0.115244
v 0.135339 -0.076779 0.117839
v 0.159123 -0.076779 0.128851
v 0.157362 -0.076779 0.131065
v 0.177485 -0.076779 0.147858
v 0.175211 -0.076779 0.149541
v 0.190302 -0.076779 0.170970
v 0.187670 -0.076779 0.172008
v 0.196700 -0.076779 0.196612
v 0.193889 -0.076779 0.196933
v 0.196244 -0.076779 0.223036
v 0.193446 -0.076779 0.222619
v 0.186370 -0.076779 0.247314
v 0.188965 -0.076779 0.248442
v 0.173143 -0.076779 0.269337
v 0.175358 -0.076779 0.271098
v 0.154667 -0.076779 0.287186
v 0.156350 -0.076779 0.289460
v 0.132201 -0.076779 0.299645
v 0.133238 -0.076779 0.302278
v 0.107275 -0.076779 0.305865
v 0.107596 -0.076779 0.308676
v 0.081172 -0.076779 0.308220
v 0.081590 -0.076779 0.305422
v 0.068469 -0.076779 0.304580
v 0.075447 -0.076779 0.303661
v 0.084636 -0.076779 0.107508
v 0.058995 -0.076779 0.113906
v 0.060032 -0.076779 0.116539
v 0.035882 -0.076779 0.126724
v 0.037566 -0.076779 0.128998
v 0.016875 -0.076779 0.145086
v 0.019090 -0.076779 0.146847
v 0.003268 -0.076779 0.167742
v 0.005863 -0.076779 0.168870
v -0.004012 -0.076779 0.193148
v -0.001213 -0.076779 0.193565
v -0.004468 -0.076779 0.219572
v -0.001657 -0.076779 0.219251
v 0.002214 -0.076779 0.234762
v 0.001800 -0.076779 0.237911
v 0.001931 -0.076779 0.245214
v 0.003020 -0.076779 0.247177
v 0.004563 -0.076779 0.244176
v 0.005473 -0.124764 0.245817
v 0.004563 -0.124764 0.244176
v 0.017022 -0.124764 0.266642
v 0.017022 -0.076779 0.266642
v 0.157362 -0.124764 0.131065
v 0.135339 -0.124764 0.117839
v 0.084636 -0.124764 0.107508
v 0.058995 -0.124764 0.113906
v 0.035882 -0.124764 0.126724
v 0.060032 -0.124764 0.116539
v 0.037566 -0.124764 0.128998
v 0.193446 -0.124764 0.222619
v 0.186370 -0.124764 0.247314
v 0.175358 -0.124764 0.271098
v 0.156350 -0.124764 0.289460
v 0.188965 -0.124764 0.248442
v 0.196244 -0.124764 0.223036
v 0.196700 -0.124764 0.196612
v 0.136467 -0.124764 0.115244
v 0.111061 -0.124764 0.107964
v 0.132201 -0.124764 0.299645
v 0.107275 -0.124764 0.305865
v 0.154667 -0.124764 0.287186
v 0.034871 -0.124764 0.285119
v 0.034871 -0.076779 0.285119
v 0.173143 -0.124764 0.269337
v 0.190302 -0.124764 0.170970
v 0.177485 -0.124764 0.147858
v 0.110643 -0.124764 0.110762
v 0.187670 -0.124764 0.172008
v 0.193889 -0.124764 0.196933
v 0.056894 -0.076779 0.298345
v 0.069242 -0.124764 0.301883
v 0.056894 -0.124764 0.298345
v 0.075447 -0.124764 0.303661
v 0.081590 -0.124764 0.305422
v -0.004012 -0.124764 0.193148
v 0.003268 -0.124764 0.167742
v -0.004468 -0.124764 0.219572
v 0.107596 -0.124764 0.308676
v 0.081172 -0.124764 0.308220
v 0.175211 -0.124764 0.149541
v 0.159123 -0.124764 0.128851
v 0.068469 -0.124764 0.304580
v 0.055766 -0.076779 0.300940
v 0.055766 -0.124764 0.300940
v 0.033110 -0.076779 0.287333
v 0.033110 -0.124764 0.287333
v 0.014748 -0.124764 0.268326
v 0.014748 -0.076779 0.268326
v 0.003020 -0.124764 0.247177
v 0.001931 -0.124764 0.245214
v 0.016875 -0.124764 0.145086
v -0.001213 -0.124764 0.193565
v 0.005863 -0.124764 0.168870
v -0.001657 -0.124764 0.219251
v 0.133238 -0.124764 0.302278
v 0.002214 -0.124764 0.234762
v 0.084957 -0.124764 0.110319
v 0.019090 -0.124764 0.146847
v 0.135339 -0.076779 0.117839
v 0.135339 -0.076779 0.117839
v 0.157362 -0.076779 0.131065
v 0.058995 -0.076779 0.113906
v 0.058995 -0.076779 0.113906
v 0.084636 -0.076779 0.107508
v 0.035882 -0.076779 0.126724
v 0.058995 -0.124764 0.113906
v 0.058995 -0.124764 0.113906
v 0.035882 -0.076779 0.126724
v 0.058995 -0.076779 0.113906
v 0.037566 -0.076779 0.128998
v 0.037566 -0.076779 0.128998
v 0.060032 -0.076779 0.116539
v 0.186370 -0.076779 0.247314
v 0.186370 -0.076779 0.247314
v 0.193446 -0.076779 0.222619
v 0.156350 -0.076779 0.289460
v 0.156350 -0.076779 0.289460
v 0.175358 -0.076779 0.271098
v 0.188965 -0.076779 0.248442
v 0.175358 -0.124764 0.271098
v 0.175358 -0.124764 0.271098
v 0.188965 -0.076779 0.248442
v 0.175358 -0.076779 0.271098
v 0.196244 -0.076779 0.223036
v 0.188965 -0.124764 0.248442
v 0.188965 -0.124764 0.248442
v 0.196244 -0.076779 0.223036
v 0.188965 -0.076779 0.248442
v 0.196700 -0.076779 0.196612
v 0.196244 -0.124764 0.223036
v 0.196244 -0.124764 0.223036
v 0.196700 -0.076779 0.196612
v 0.196244 -0.076779 0.223036
v 0.111061 -0.076779 0.107964
v 0.111061 -0.076779 0.107964
v 0.136467 -0.076779 0.115244
v 0.107275 -0.076779 0.305865
v 0.107275 -0.076779 0.305865
v 0.132201 -0.076779 0.299645
v 0.132201 -0.076779 0.299645
v 0.132201 -0.124764 0.299645
v 0.132201 -0.076779 0.299645
v 0.154667 -0.076779 0.287186
v 0.017022 -0.076779 0.266642
v 0.017022 -0.124764 0.266642
v 0.017022 -0.076779 0.266642
v 0.154667 -0.076779 0.287186
v 0.154667 -0.124764 0.287186
v 0.154667 -0.076779 0.287186
v 0.173143 -0.076779 0.269337
v 0.177485 -0.076779 0.147858
v 0.177485 -0.076779 0.147858
v 0.190302 -0.076779 0.170970
v 0.135339 -0.124764 0.117839
v 0.110643 -0.076779 0.110762
v 0.110643 -0.076779 0.110762
v 0.135339 -0.124764 0.117839
v 0.135339 -0.076779 0.117839
v 0.193889 -0.076779 0.196933
v 0.193889 -0.076779 0.196933
v 0.187670 -0.076779 0.172008
v 0.193446 -0.076779 0.222619
v 0.193889 -0.124764 0.196933
v 0.193446 -0.124764 0.222619
v 0.193889 -0.124764 0.196933
v 0.193446 -0.076779 0.222619
v 0.193889 -0.076779 0.196933
v 0.075447 -0.076779 0.303661
v 0.075447 -0.076779 0.303661
v 0.075447 -0.076779 0.303661
v 0.081590 -0.076779 0.305422
v 0.081590 -0.076779 0.305422
v 0.003268 -0.076779 0.167742
v 0.003268 -0.076779 0.167742
v -0.004012 -0.076779 0.193148
v -0.004468 -0.076779 0.219572
v -0.004012 -0.124764 0.193148
v -0.004012 -0.124764 0.193148
v -0.004468 -0.076779 0.219572
v -0.004012 -0.076779 0.193148
v 0.081172 -0.076779 0.308220
v 0.081172 -0.076779 0.308220
v 0.107596 -0.076779 0.308676
v 0.081590 -0.076779 0.305422
v 0.107275 -0.124764 0.305865
v 0.081590 -0.124764 0.305422
v 0.107275 -0.124764 0.305865
v 0.081590 -0.076779 0.305422
v 0.107275 -0.076779 0.305865
v 0.175211 -0.076779 0.149541
v 0.157362 -0.124764 0.131065
v 0.157362 -0.124764 0.131065
v 0.175211 -0.076779 0.149541
v 0.157362 -0.076779 0.131065
v 0.177485 -0.076779 0.147858
v 0.177485 -0.124764 0.147858
v 0.177485 -0.076779 0.147858
v 0.159123 -0.076779 0.128851
v 0.068469 -0.076779 0.304580
v 0.068469 -0.076779 0.304580
v 0.081172 -0.124764 0.308220
v 0.068469 -0.076779 0.304580
v 0.081172 -0.124764 0.308220
v 0.081172 -0.076779 0.308220
v 0.055766 -0.124764 0.300940
v 0.055766 -0.124764 0.300940
v 0.055766 -0.076779 0.300940
v 0.033110 -0.076779 0.287333
v 0.033110 -0.124764 0.287333
v 0.033110 -0.076779 0.287333
v 0.014748 -0.076779 0.268326
v 0.014748 -0.124764 0.268326
v 0.014748 -0.076779 0.268326
v 0.014748 -0.076779 0.268326
v 0.001931 -0.076779 0.245214
v 0.001931 -0.076779 0.245214
v 0.014748 -0.076779 0.268326
v 0.003020 -0.076779 0.247177
v 0.187670 -0.076779 0.172008
v 0.175211 -0.124764 0.149541
v 0.187670 -0.124764 0.172008
v 0.175211 -0.124764 0.149541
v 0.187670 -0.076779 0.172008
v 0.175211 -0.076779 0.149541
v 0.004563 -0.076779 0.244176
v 0.004563 -0.076779 0.244176
v 0.004563 -0.076779 0.244176
v 0.017022 -0.076779 0.266642
v 0.017022 -0.076779 0.266642
v 0.014748 -0.076779 0.268326
v 0.014748 -0.076779 0.268326
v 0.017022 -0.076779 0.266642
v 0.034871 -0.076779 0.285119
v 0.014748 -0.076779 0.268326
v 0.034871 -0.076779 0.285119
v 0.033110 -0.076779 0.287333
v 0.033110 -0.076779 0.287333
v 0.034871 -0.076779 0.285119
v 0.056894 -0.076779 0.298345
v 0.033110 -0.076779 0.287333
v 0.056894 -0.076779 0.298345
v 0.055766 -0.076779 0.300940
v 0.055766 -0.076779 0.300940
v 0.056894 -0.076779 0.298345
v 0.055766 -0.076779 0.300940
v 0.016875 -0.076779 0.145086
v 0.035882 -0.124764 0.126724
v 0.035882 -0.124764 0.126724
v 0.016875 -0.076779 0.145086
v 0.035882 -0.076779 0.126724
v 0.005863 -0.076779 0.168870
v 0.005863 -0.076779 0.168870
v -0.001213 -0.076779 0.193565
v -0.001213 -0.076779 0.193565
v -0.001213 -0.124764 0.193565
v -0.001213 -0.076779 0.193565
v -0.001657 -0.076779 0.219251
v 0.003268 -0.076779 0.167742
v 0.016875 -0.124764 0.145086
v 0.003268 -0.124764 0.167742
v 0.016875 -0.124764 0.145086
v 0.003268 -0.076779 0.167742
v 0.016875 -0.076779 0.145086
v 0.034871 -0.076779 0.285119
v 0.056894 -0.124764 0.298345
v 0.034871 -0.124764 0.285119
v 0.056894 -0.124764 0.298345
v 0.034871 -0.076779 0.285119
v 0.056894 -0.076779 0.298345
v 0.084636 -0.076779 0.107508
v 0.111061 -0.124764 0.107964
v 0.084636 -0.124764 0.107508
v 0.111061 -0.124764 0.107964
v 0.084636 -0.076779 0.107508
v 0.111061 -0.076779 0.107964
v 0.156350 -0.124764 0.289460
v 0.133238 -0.076779 0.302278
v 0.133238 -0.076779 0.302278
v 0.156350 -0.124764 0.289460
v 0.156350 -0.076779 0.289460
v 0.133238 -0.124764 0.302278
v 0.107596 -0.076779 0.308676
v 0.107596 -0.124764 0.308676
v 0.107596 -0.076779 0.308676
v 0.133238 -0.124764 0.302278
v 0.133238 -0.076779 0.302278
v 0.136467 -0.076779 0.115244
v 0.159123 -0.124764 0.128851
v 0.136467 -0.124764 0.115244
v 0.159123 -0.124764 0.128851
v 0.136467 -0.076779 0.115244
v 0.159123 -0.076779 0.128851
v -0.001657 -0.124764 0.219251
v 0.004563 -0.124764 0.244176
v 0.004563 -0.124764 0.244176
v -0.001657 -0.124764 0.219251
v 0.004563 -0.076779 0.244176
v 0.004563 -0.076779 0.244176
v -0.001657 -0.124764 0.219251
v -0.001657 -0.076779 0.219251
v 0.004563 -0.076779 0.244176
v -0.001657 -0.076779 0.219251
v 0.002214 -0.076779 0.234762
v 0.060032 -0.076779 0.116539
v 0.060032 -0.124764 0.116539
v 0.060032 -0.076779 0.116539
v 0.084957 -0.076779 0.110319
v 0.190302 -0.076779 0.170970
v 0.196700 -0.124764 0.196612
v 0.190302 -0.124764 0.170970
v 0.196700 -0.124764 0.196612
v 0.190302 -0.076779 0.170970
v 0.196700 -0.076779 0.196612
v 0.110643 -0.124764 0.110762
v 0.084957 -0.076779 0.110319
v 0.084957 -0.124764 0.110319
v 0.084957 -0.076779 0.110319
v 0.110643 -0.124764 0.110762
v 0.110643 -0.076779 0.110762
v 0.173143 -0.076779 0.269337
v 0.186370 -0.124764 0.247314
v 0.173143 -0.124764 0.269337
v 0.186370 -0.124764 0.247314
v 0.173143 -0.076779 0.269337
v 0.186370 -0.076779 0.247314
v 0.001931 -0.076779 0.245214
v -0.004468 -0.124764 0.219572
v 0.001931 -0.124764 0.245214
v -0.004468 -0.124764 0.219572
v 0.001931 -0.076779 0.245214
v -0.004468 -0.076779 0.219572
v 0.037566 -0.124764 0.128998
v 0.019090 -0.076779 0.146847
v 0.019090 -0.076779 0.146847
v 0.037566 -0.124764 0.128998
v 0.037566 -0.076779 0.128998
v 0.019090 -0.076779 0.146847
v 0.005863 -0.124764 0.168870
v 0.019090 -0.124764 0.146847
v 0.005863 -0.124764 0.168870
v 0.019090 -0.076779 0.146847
v 0.005863 -0.076779 0.168870
v 0.110806 -0.075724 0.104620
v 0.110379 -0.075724 0.107480
v 0.084129 -0.075724 0.107027
v 0.136770 -0.075724 0.112060
v 0.135617 -0.075724 0.114712
v 0.159924 -0.075724 0.125966
v 0.158124 -0.075724 0.128229
v 0.178689 -0.075724 0.145391
v 0.176365 -0.075724 0.147111
v 0.191788 -0.075724 0.169011
v 0.189098 -0.075724 0.170071
v 0.198327 -0.075724 0.195216
v 0.195454 -0.075724 0.195544
v 0.197861 -0.075724 0.222221
v 0.195001 -0.075724 0.221794
v 0.187769 -0.075724 0.247032
v 0.190421 -0.075724 0.248185
v 0.174252 -0.075724 0.269539
v 0.176515 -0.075724 0.271339
v 0.155370 -0.075724 0.287780
v 0.157090 -0.075724 0.290104
v 0.132410 -0.075724 0.300513
v 0.133470 -0.075724 0.303203
v 0.106937 -0.075724 0.306869
v 0.107265 -0.075724 0.309742
v 0.073657 -0.075724 0.306898
v 0.073331 -0.075724 0.307037
v 0.073079 -0.075724 0.307046
v 0.080260 -0.075724 0.309276
v 0.072105 -0.075724 0.306481
v 0.067278 -0.075724 0.305556
v 0.071118 -0.075724 0.305051
v 0.072366 -0.075724 0.306761
v 0.072698 -0.075724 0.306953
v 0.080687 -0.075724 0.306416
v 0.073436 -0.075724 0.304746
v 0.074410 -0.075724 0.304618
v 0.073761 -0.075724 0.305217
v 0.073933 -0.075724 0.305564
v 0.074004 -0.075724 0.305956
v 0.073970 -0.075724 0.306365
v 0.073883 -0.075724 0.306616
v 0.083801 -0.075724 0.104154
v 0.057595 -0.075724 0.110693
v 0.058656 -0.075724 0.113383
v 0.033976 -0.075724 0.123792
v 0.035696 -0.075724 0.126116
v 0.014551 -0.075724 0.142558
v 0.016814 -0.075724 0.144357
v 0.000645 -0.075724 0.165711
v 0.003297 -0.075724 0.166864
v -0.006795 -0.075724 0.191675
v -0.002605 -0.075724 0.184939
v -0.001777 -0.075724 0.184571
v -0.001993 -0.075724 0.185325
v -0.003935 -0.075724 0.192102
v -0.007261 -0.075724 0.218680
v -0.004388 -0.075724 0.218352
v -0.000433 -0.075724 0.234205
v -0.000856 -0.075724 0.237422
v -0.000722 -0.075724 0.244886
v 0.000391 -0.075724 0.246892
v 0.001968 -0.076779 0.243825
v 0.002898 -0.124764 0.245502
v 0.001968 -0.124764 0.243825
v 0.014701 -0.124764 0.266785
v 0.014701 -0.076779 0.266785
v 0.002768 -0.076779 0.245268
v 0.158124 -0.124764 0.128229
v 0.135617 -0.124764 0.114712
v 0.083801 -0.124764 0.104154
v 0.057595 -0.124764 0.110693
v 0.033976 -0.124764 0.123792
v 0.058656 -0.124764 0.113383
v 0.035696 -0.124764 0.126116
v 0.195001 -0.076779 0.221794
v 0.187769 -0.076779 0.247032
v 0.176515 -0.124764 0.271339
v 0.157090 -0.124764 0.290104
v 0.190421 -0.124764 0.248185
v 0.197861 -0.124764 0.222221
v 0.198327 -0.124764 0.195216
v 0.136770 -0.124764 0.112060
v 0.110806 -0.124764 0.104620
v 0.132410 -0.076779 0.300513
v 0.106937 -0.076779 0.306869
v 0.155370 -0.076779 0.287780
v 0.024174 -0.075724 0.276591
v 0.032942 -0.076779 0.285667
v 0.024147 -0.076779 0.276563
v 0.032942 -0.076146 0.285667
v 0.032851 -0.075724 0.285573
v 0.174252 -0.076779 0.269539
v 0.191788 -0.124764 0.169011
v 0.178689 -0.124764 0.145391
v 0.110379 -0.124764 0.107480
v 0.189098 -0.076779 0.170071
v 0.195454 -0.076779 0.195544
v 0.056807 -0.076779 0.299574
v 0.056089 -0.078929 0.299368
v 0.055449 -0.076779 0.299185
v 0.068068 -0.124764 0.302800
v 0.055449 -0.124764 0.299185
v 0.066957 -0.079545 0.302482
v 0.067052 -0.076779 0.302509
v 0.069734 -0.076779 0.303278
v 0.074410 -0.124764 0.304618
v 0.069933 -0.077507 0.303335
v 0.070599 -0.078160 0.303526
v 0.071509 -0.078398 0.303787
v 0.072420 -0.078160 0.304047
v 0.073086 -0.077507 0.304238
v 0.073285 -0.076779 0.304295
v 0.080687 -0.076779 0.306416
v 0.080687 -0.124764 0.306416
v -0.006795 -0.124764 0.191675
v 0.000645 -0.124764 0.165711
v -0.007261 -0.124764 0.218680
v 0.107265 -0.124764 0.309742
v 0.080260 -0.124764 0.309276
v 0.158174 -0.076779 0.128281
v 0.176365 -0.076779 0.147111
v 0.158174 -0.124764 0.128281
v 0.159924 -0.124764 0.125966
v 0.067278 -0.124764 0.305556
v 0.054296 -0.075724 0.301837
v 0.054296 -0.124764 0.301837
v 0.072461 -0.076616 0.307041
v 0.072549 -0.076800 0.307067
v 0.072914 -0.077077 0.307171
v 0.073194 -0.076723 0.307252
v 0.073214 -0.076616 0.307257
v 0.072914 -0.076155 0.307171
v 0.072549 -0.076431 0.307067
v 0.073194 -0.076509 0.307252
v 0.031142 -0.075724 0.287930
v 0.031142 -0.124764 0.287930
v 0.012377 -0.124764 0.268506
v 0.024198 -0.077651 0.280742
v 0.023783 -0.075724 0.280312
v 0.022624 -0.077628 0.279113
v 0.012377 -0.075724 0.268506
v 0.022672 -0.075724 0.279162
v 0.000391 -0.124764 0.246892
v -0.000722 -0.124764 0.244886
v 0.014551 -0.124764 0.142558
v -0.003935 -0.124764 0.192102
v 0.003297 -0.124764 0.166864
v -0.001804 -0.076023 0.184664
v -0.003949 -0.124764 0.192931
v -0.003949 -0.076779 0.192931
v -0.004388 -0.076779 0.218352
v 0.035974 -0.076779 0.287488
v 0.133470 -0.124764 0.303203
v 0.001968 -0.075724 0.243825
v 0.084129 -0.124764 0.107027
v 0.088728 -0.078450 0.107106
v 0.088431 -0.077559 0.107101
v 0.089537 -0.079103 0.107120
v 0.090644 -0.079342 0.107139
v 0.091750 -0.079103 0.107158
v 0.092559 -0.078450 0.107172
v 0.092856 -0.077559 0.107178
v 0.090644 -0.075776 0.107139
v 0.089537 -0.076015 0.107120
v 0.088728 -0.076668 0.107106
v 0.091750 -0.076015 0.107158
v 0.092559 -0.076668 0.107172
v 0.016814 -0.124764 0.144357
v 0.069933 -0.075724 0.303335
v 0.069689 -0.076616 0.303265
v 0.072450 -0.076779 0.304056
v 0.073086 -0.075724 0.304238
v 0.073330 -0.076616 0.304308
v -0.004388 -0.124764 0.218352
v -0.000433 -0.124764 0.234205
v 0.176365 -0.124764 0.147111
v 0.024120 -0.077880 0.276535
v 0.032942 -0.078011 0.285667
v 0.032942 -0.075724 0.285667
v 0.057159 -0.075724 0.299675
v 0.067088 -0.075724 0.302520
v 0.043936 -0.078442 0.292270
v 0.055449 -0.075724 0.299185
v 0.065817 -0.075724 0.304697
v 0.106937 -0.124764 0.306869
v 0.014701 -0.075724 0.266785
v 0.187769 -0.124764 0.247032
v 0.174252 -0.124764 0.269539
v 0.195001 -0.124764 0.221794
v 0.132410 -0.124764 0.300513
v 0.195454 -0.124764 0.195544
v 0.032942 -0.124764 0.285667
v 0.189098 -0.124764 0.170071
v 0.155370 -0.124764 0.287780
v 0.135617 -0.075724 0.114712
v 0.135617 -0.075724 0.114712
v 0.158124 -0.075724 0.128229
v 0.057595 -0.075724 0.110693
v 0.057595 -0.075724 0.110693
v 0.083801 -0.075724 0.104154
v 0.033976 -0.075724 0.123792
v 0.057595 -0.124764 0.110693
v 0.057595 -0.124764 0.110693
v 0.033976 -0.075724 0.123792
v 0.057595 -0.075724 0.110693
v 0.035696 -0.075724 0.126116
v 0.035696 -0.075724 0.126116
v 0.058656 -0.075724 0.113383
v 0.187769 -0.075724 0.247032
v 0.187769 -0.075724 0.247032
v 0.195001 -0.075724 0.221794
v 0.157090 -0.075724 0.290104
v 0.157090 -0.075724 0.290104
v 0.176515 -0.075724 0.271339
v 0.190421 -0.075724 0.248185
v 0.176515 -0.124764 0.271339
v 0.176515 -0.124764 0.271339
v 0.190421 -0.075724 0.248185
v 0.176515 -0.075724 0.271339
v 0.197861 -0.075724 0.222221
v 0.190421 -0.124764 0.248185
v 0.190421 -0.124764 0.248185
v 0.197861 -0.075724 0.222221
v 0.190421 -0.075724 0.248185
v 0.198327 -0.075724 0.195216
v 0.197861 -0.124764 0.222221
v 0.197861 -0.124764 0.222221
v 0.198327 -0.075724 0.195216
v 0.197861 -0.075724 0.222221
v 0.110806 -0.075724 0.104620
v 0.110806 -0.075724 0.104620
v 0.136770 -0.075724 0.112060
v 0.106937 -0.075724 0.306869
v 0.106937 -0.075724 0.306869
v 0.132410 -0.075724 0.300513
v 0.155370 -0.075724 0.287780
v 0.132410 -0.076779 0.300513
v 0.132410 -0.075724 0.300513
v 0.132410 -0.076779 0.300513
v 0.155370 -0.075724 0.287780
v 0.174252 -0.075724 0.269539
v 0.155370 -0.076779 0.287780
v 0.155370 -0.075724 0.287780
v 0.155370 -0.076779 0.287780
v 0.174252 -0.075724 0.269539
v 0.178689 -0.075724 0.145391
v 0.178689 -0.075724 0.145391
v 0.191788 -0.075724 0.169011
v 0.135617 -0.124764 0.114712
v 0.110379 -0.075724 0.107480
v 0.110379 -0.075724 0.107480
v 0.135617 -0.124764 0.114712
v 0.135617 -0.075724 0.114712
v 0.195454 -0.075724 0.195544
v 0.195454 -0.075724 0.195544
v 0.189098 -0.075724 0.170071
v 0.195001 -0.075724 0.221794
v 0.195454 -0.076779 0.195544
v 0.195001 -0.076779 0.221794
v 0.195454 -0.076779 0.195544
v 0.195001 -0.075724 0.221794
v 0.195454 -0.075724 0.195544
v 0.000645 -0.075724 0.165711
v 0.000645 -0.075724 0.165711
v -0.006795 -0.075724 0.191675
v -0.007261 -0.075724 0.218680
v -0.006795 -0.124764 0.191675
v -0.006795 -0.124764 0.191675
v -0.007261 -0.075724 0.218680
v -0.006795 -0.075724 0.191675
v 0.080260 -0.075724 0.309276
v 0.080260 -0.075724 0.309276
v 0.107265 -0.075724 0.309742
v 0.106937 -0.075724 0.306869
v 0.080687 -0.076779 0.306416
v 0.080687 -0.075724 0.306416
v 0.080687 -0.076779 0.306416
v 0.106937 -0.075724 0.306869
v 0.106937 -0.076779 0.306869
v 0.176365 -0.075724 0.147111
v 0.158124 -0.124764 0.128229
v 0.158124 -0.124764 0.128229
v 0.158124 -0.075724 0.128229
v 0.158124 -0.075724 0.128229
v 0.176365 -0.075724 0.147111
v 0.178689 -0.075724 0.145391
v 0.178689 -0.124764 0.145391
v 0.178689 -0.075724 0.145391
v 0.159924 -0.075724 0.125966
v 0.067278 -0.075724 0.305556
v 0.067278 -0.075724 0.305556
v 0.080260 -0.124764 0.309276
v 0.067278 -0.075724 0.305556
v 0.080260 -0.124764 0.309276
v 0.080260 -0.124764 0.309276
v 0.080260 -0.124764 0.309276
v 0.080260 -0.124764 0.309276
v 0.080260 -0.124764 0.309276
v 0.067278 -0.075724 0.305556
v 0.080260 -0.075724 0.309276
v 0.067278 -0.075724 0.305556
v 0.067278 -0.075724 0.305556
v 0.080260 -0.075724 0.309276
v 0.080260 -0.075724 0.309276
v 0.080260 -0.075724 0.309276
v 0.080260 -0.124764 0.309276
v 0.054296 -0.124764 0.301837
v 0.054296 -0.124764 0.301837
v 0.054296 -0.075724 0.301837
v 0.031142 -0.075724 0.287930
v 0.031142 -0.124764 0.287930
v 0.031142 -0.075724 0.287930
v 0.031142 -0.075724 0.287930
v 0.012377 -0.075724 0.268506
v 0.012377 -0.124764 0.268506
v 0.012377 -0.075724 0.268506
v 0.012377 -0.075724 0.268506
v -0.000722 -0.075724 0.244886
v -0.000722 -0.075724 0.244886
v 0.012377 -0.075724 0.268506
v 0.000391 -0.075724 0.246892
v 0.189098 -0.076779 0.170071
v 0.176365 -0.075724 0.147111
v 0.176365 -0.076779 0.147111
v 0.176365 -0.075724 0.147111
v 0.189098 -0.076779 0.170071
v 0.189098 -0.075724 0.170071
v 0.032851 -0.075724 0.285573
v 0.022672 -0.075724 0.279162
v 0.024174 -0.075724 0.276591
v 0.022672 -0.075724 0.279162
v 0.032851 -0.075724 0.285573
v 0.023783 -0.075724 0.280312
v 0.014551 -0.075724 0.142558
v 0.033976 -0.124764 0.123792
v 0.033976 -0.124764 0.123792
v 0.014551 -0.075724 0.142558
v 0.033976 -0.075724 0.123792
v 0.003297 -0.075724 0.166864
v 0.003297 -0.075724 0.166864
v 0.003297 -0.075724 0.166864
v -0.001777 -0.075724 0.184571
v -0.003935 -0.075724 0.192102
v -0.003935 -0.075724 0.192102
v -0.001993 -0.075724 0.185325
v -0.003935 -0.075724 0.192102
v -0.003935 -0.124764 0.192102
v -0.003935 -0.075724 0.192102
v -0.003935 -0.075724 0.192102
v -0.003935 -0.075724 0.192102
v -0.004388 -0.075724 0.218352
v 0.000645 -0.075724 0.165711
v 0.014551 -0.124764 0.142558
v 0.000645 -0.124764 0.165711
v 0.014551 -0.124764 0.142558
v 0.000645 -0.075724 0.165711
v 0.014551 -0.075724 0.142558
v 0.032942 -0.076779 0.285667
v 0.032942 -0.076146 0.285667
v 0.083801 -0.075724 0.104154
v 0.110806 -0.124764 0.104620
v 0.083801 -0.124764 0.104154
v 0.110806 -0.124764 0.104620
v 0.083801 -0.075724 0.104154
v 0.110806 -0.075724 0.104620
v 0.157090 -0.124764 0.290104
v 0.133470 -0.075724 0.303203
v 0.133470 -0.075724 0.303203
v 0.157090 -0.124764 0.290104
v 0.157090 -0.075724 0.290104
v 0.133470 -0.124764 0.303203
v 0.107265 -0.075724 0.309742
v 0.107265 -0.124764 0.309742
v 0.107265 -0.075724 0.309742
v 0.133470 -0.124764 0.303203
v 0.133470 -0.075724 0.303203
v 0.136770 -0.075724 0.112060
v 0.159924 -0.124764 0.125966
v 0.136770 -0.124764 0.112060
v 0.159924 -0.124764 0.125966
v 0.136770 -0.075724 0.112060
v 0.159924 -0.075724 0.125966
v -0.004388 -0.075724 0.218352
v 0.001968 -0.076779 0.243825
v -0.004388 -0.076779 0.218352
v 0.001968 -0.076779 0.243825
v -0.004388 -0.075724 0.218352
v -0.004388 -0.075724 0.218352
v -0.000433 -0.075724 0.234205
v 0.058656 -0.075724 0.113383
v 0.058656 -0.124764 0.113383
v 0.058656 -0.075724 0.113383
v 0.084129 -0.075724 0.107027
v 0.191788 -0.075724 0.169011
v 0.198327 -0.124764 0.195216
v 0.191788 -0.124764 0.169011
v 0.198327 -0.124764 0.195216
v 0.191788 -0.075724 0.169011
v 0.198327 -0.075724 0.195216
v 0.110379 -0.124764 0.107480
v 0.084129 -0.075724 0.107027
v 0.084129 -0.124764 0.107027
v 0.084129 -0.075724 0.107027
v 0.110379 -0.124764 0.107480
v 0.084129 -0.075724 0.107027
v 0.110379 -0.124764 0.107480
v 0.110379 -0.124764 0.107480
v 0.110379 -0.124764 0.107480
v 0.110379 -0.124764 0.107480
v 0.110379 -0.124764 0.107480
v 0.084129 -0.075724 0.107027
v 0.110379 -0.075724 0.107480
v 0.084129 -0.075724 0.107027
v 0.084129 -0.075724 0.107027
v 0.084129 -0.075724 0.107027
v 0.110379 -0.075724 0.107480
v 0.110379 -0.075724 0.107480
v 0.110379 -0.075724 0.107480
v 0.110379 -0.075724 0.107480
v 0.110379 -0.124764 0.107480
v 0.174252 -0.075724 0.269539
v 0.187769 -0.076779 0.247032
v 0.174252 -0.076779 0.269539
v 0.187769 -0.076779 0.247032
v 0.174252 -0.075724 0.269539
v 0.187769 -0.075724 0.247032
v -0.000722 -0.075724 0.244886
v -0.007261 -0.124764 0.218680
v -0.000722 -0.124764 0.244886
v -0.007261 -0.124764 0.218680
v -0.000722 -0.075724 0.244886
v -0.007261 -0.075724 0.218680
v 0.035696 -0.124764 0.126116
v 0.016814 -0.075724 0.144357
v 0.016814 -0.075724 0.144357
v 0.035696 -0.124764 0.126116
v 0.035696 -0.075724 0.126116
v 0.016814 -0.075724 0.144357
v 0.003297 -0.124764 0.166864
v 0.016814 -0.124764 0.144357
v 0.003297 -0.124764 0.166864
v 0.016814 -0.075724 0.144357
v 0.003297 -0.075724 0.166864
v 0.001968 -0.124764 0.243825
v 0.001968 -0.124764 0.243825
v 0.001968 -0.076779 0.243825
v 0.001968 -0.076779 0.243825
v -0.004388 -0.076779 0.218352
v -0.001993 -0.075724 0.185325
v -0.001777 -0.075724 0.184571
v 0.073086 -0.075724 0.304238
v 0.032942 -0.078011 0.285667
v 0.032942 -0.076779 0.285667
v 0.032942 -0.078011 0.285667
v 0.032942 -0.076146 0.285667
v 0.032942 -0.075724 0.285667
v 0.032942 -0.076146 0.285667
v 0.055449 -0.076779 0.299185
v 0.073086 -0.075724 0.304238
v 0.069933 -0.075724 0.303335
v 0.073086 -0.075724 0.304238
v 0.069933 -0.075724 0.303335
v 0.067088 -0.075724 0.302520
v 0.069933 -0.075724 0.303335
v 0.032851 -0.075724 0.285573
v 0.031142 -0.075724 0.287930
v 0.023783 -0.075724 0.280312
v 0.031142 -0.075724 0.287930
v 0.032851 -0.075724 0.285573
v 0.032942 -0.075724 0.285667
v 0.031142 -0.075724 0.287930
v 0.032942 -0.075724 0.285667
v 0.055449 -0.075724 0.299185
v 0.031142 -0.075724 0.287930
v 0.055449 -0.075724 0.299185
v 0.054296 -0.075724 0.301837
v 0.054296 -0.075724 0.301837
v 0.055449 -0.075724 0.299185
v 0.057159 -0.075724 0.299675
v 0.054296 -0.075724 0.301837
v 0.057159 -0.075724 0.299675
v 0.054296 -0.075724 0.301837
v 0.074410 -0.075724 0.304618
v 0.074410 -0.075724 0.304618
v 0.074410 -0.075724 0.304618
v 0.080687 -0.075724 0.306416
v 0.080687 -0.076779 0.306416
v 0.080687 -0.124764 0.306416
v 0.080687 -0.076779 0.306416
v 0.106937 -0.076779 0.306869
v 0.001968 -0.075724 0.243825
v 0.001968 -0.075724 0.243825
v 0.001968 -0.075724 0.243825
v 0.012377 -0.075724 0.268506
v 0.012377 -0.075724 0.268506
v 0.024174 -0.075724 0.276591
v 0.012377 -0.075724 0.268506
v 0.024174 -0.075724 0.276591
v 0.022672 -0.075724 0.279162
v 0.014701 -0.075724 0.266785
v 0.014701 -0.076779 0.266785
v 0.014701 -0.075724 0.266785
v 0.057159 -0.075724 0.299675
v 0.067088 -0.075724 0.302520
v 0.055449 -0.075724 0.299185
v 0.174252 -0.076779 0.269539
v 0.174252 -0.076779 0.269539
v 0.187769 -0.076779 0.247032
v 0.187769 -0.124764 0.247032
v 0.001968 -0.075724 0.243825
v 0.014701 -0.075724 0.266785
v 0.014701 -0.075724 0.266785
v 0.001968 -0.075724 0.243825
v 0.106937 -0.124764 0.306869
v 0.106937 -0.124764 0.306869
v 0.195001 -0.076779 0.221794
v 0.195001 -0.124764 0.221794
v 0.195001 -0.076779 0.221794
v 0.195454 -0.076779 0.195544
v 0.014701 -0.076779 0.266785
v 0.014701 -0.124764 0.266785
v 0.014701 -0.076779 0.266785
v 0.014701 -0.076779 0.266785
v 0.055449 -0.076779 0.299185
v 0.055449 -0.076779 0.299185
v 0.055449 -0.124764 0.299185
v 0.032942 -0.124764 0.285667
v 0.032942 -0.078011 0.285667
v 0.032942 -0.124764 0.285667
v 0.055449 -0.124764 0.299185
v 0.189098 -0.076779 0.170071
v 0.176365 -0.124764 0.147111
v 0.176365 -0.124764 0.147111
v 0.189098 -0.076779 0.170071
v 0.176365 -0.076779 0.147111
v 0.155370 -0.076779 0.287780
v 0.174252 -0.124764 0.269539
v 0.174252 -0.124764 0.269539
v 0.155370 -0.076779 0.287780
v 0.189098 -0.124764 0.170071
v 0.195454 -0.124764 0.195544
v 0.189098 -0.124764 0.170071
v 0.132410 -0.076779 0.300513
v 0.155370 -0.124764 0.287780
v 0.132410 -0.124764 0.300513
v 0.155370 -0.124764 0.287780
v 0.132410 -0.076779 0.300513
v -0.004388 -0.124764 0.218352
f 1 2 3
f 2 1 4
f 2 4 5
f 5 4 6
f 5 6 7
f 7 6 8
f 7 8 9
f 9 8 10
f 9 10 11
f 11 10 12
f 11 12 13
f 13 12 14
f 13 14 15
f 15 14 16
f 16 14 17
f 16 17 18
f 18 17 19
f 18 19 20
f 20 19 21
f 20 21 22
f 22 21 23
f 22 23 24
f 24 23 25
f 24 25 26
f 27 28 29
f 28 27 26
f 26 27 24
f 30 3 31
f 3 30 1
f 31 3 32
f 31 32 33
f 33 32 34
f 33 34 35
f 35 34 36
f 35 36 37
f 37 36 38
f 37 38 39
f 39 38 40
f 39 40 41
f 41 40 42
f 41 42 43
f 41 43 44
f 41 44 45
f 45 44 46
f 47 48 49
f 48 47 50
f 50 47 51
f 52 108 53
f 109 52 110
f 111 54 55
f 54 112 113
f 114 115 56
f 116 117 118
f 57 119 58
f 120 57 121
f 122 59 60
f 59 123 124
f 61 125 62
f 126 61 127
f 128 129 63
f 130 131 132
f 133 134 64
f 135 136 137
f 138 139 65
f 140 141 142
f 143 66 67
f 66 144 145
f 146 68 69
f 68 147 148
f 149 70 150
f 70 151 152
f 153 71 154
f 71 155 72
f 156 73 157
f 73 158 159
f 160 74 75
f 74 161 162
f 163 164 76
f 165 166 167
f 168 77 78
f 77 169 170
f 171 172 173
f 174 175 176
f 79 80 81
f 80 79 177
f 80 178 82
f 82 179 180
f 82 181 83
f 84 182 85
f 183 84 184
f 185 186 86
f 187 188 189
f 87 190 88
f 191 87 192
f 193 194 195
f 196 197 198
f 199 200 89
f 201 202 203
f 90 204 205
f 206 90 207
f 91 92 93
f 92 91 208
f 209 91 210
f 211 212 213
f 214 94 95
f 94 215 216
f 217 96 218
f 96 219 97
f 220 98 221
f 98 222 99
f 99 223 224
f 225 226 227
f 228 229 230
f 231 232 233
f 234 44 43
f 44 235 46
f 46 236 237
f 46 238 239
f 240 241 242
f 243 244 245
f 246 247 248
f 249 250 251
f 252 253 29
f 254 29 28
f 255 256 100
f 257 258 259
f 260 101 102
f 101 261 262
f 263 103 264
f 103 265 266
f 267 268 269
f 270 271 272
f 273 274 275
f 276 277 278
f 279 280 281
f 282 283 284
f 285 286 104
f 287 288 289
f 290 291 292
f 293 294 295
f 296 297 298
f 299 300 301
f 302 303 105
f 304 305 306
f 307 308 309
f 310 311 312
f 106 313 314
f 315 106 316
f 317 318 319
f 320 321 322
f 323 324 325
f 326 327 328
f 329 330 331
f 332 333 334
f 335 336 337
f 338 339 340
f 341 342 107
f 343 344 345
f 346 347 348
f 349 350 351
f 352 353 354
f 353 352 355
f 353 355 356
f 356 355 357
f 356 357 358
f 358 357 359
f 358 359 360
f 360 359 361
f 360 361 362
f 362 361 363
f 362 363 364
f 364 363 365
f 364 365 366
f 366 365 367
f 367 365 368
f 367 368 369
f 369 368 370
f 369 370 371
f 371 370 372
f 371 372 373
f 373 372 374
f 373 374 375
f 375 374 376
f 375 376 377
f 377 376 378
f 378 376 379
f 379 376 380
f 381 382 383
f 382 381 384
f 382 384 385
f 382 385 380
f 380 385 379
f 386 387 388
f 387 386 389
f 389 386 390
f 390 386 391
f 391 386 392
f 392 386 393
f 393 386 375
f 393 375 377
f 394 354 395
f 354 394 352
f 395 354 396
f 395 396 397
f 397 396 398
f 397 398 399
f 399 398 400
f 399 400 401
f 401 400 402
f 401 402 403
f 403 402 404
f 404 402 405
f 403 404 406
f 403 406 407
f 403 407 408
f 408 407 409
f 408 409 410
f 408 410 411
f 408 411 412
f 412 411 413
f 414 415 416
f 415 414 417
f 417 414 418
f 418 414 419
f 420 547 421
f 548 420 549
f 550 422 423
f 422 551 552
f 553 554 424
f 555 556 557
f 425 558 426
f 559 425 560
f 561 427 428
f 427 562 563
f 429 564 430
f 565 429 566
f 567 568 431
f 569 570 571
f 572 573 432
f 574 575 576
f 577 578 433
f 579 580 581
f 582 434 435
f 434 583 584
f 585 436 437
f 436 586 587
f 588 589 590
f 591 592 438
f 439 440 441
f 440 439 442
f 442 439 443
f 593 594 595
f 596 597 444
f 598 445 446
f 445 599 600
f 601 602 447
f 603 604 605
f 606 448 449
f 448 607 608
f 609 610 611
f 612 613 614
f 450 451 452
f 452 453 454
f 453 452 451
f 453 451 455
f 453 455 456
f 453 456 457
f 453 457 458
f 458 457 459
f 458 459 460
f 458 460 461
f 458 461 462
f 458 462 463
f 458 463 464
f 458 464 465
f 458 465 466
f 467 615 468
f 616 467 617
f 618 619 469
f 620 621 622
f 470 623 471
f 624 470 625
f 626 627 628
f 629 630 631
f 632 472 473
f 472 633 474
f 634 472 635
f 636 472 637
f 475 638 639
f 640 475 641
f 476 477 478
f 477 476 642
f 643 476 644
f 645 646 479
f 479 647 480
f 480 648 481
f 481 649 482
f 482 650 483
f 651 484 652
f 484 653 485
f 485 654 479
f 655 484 486
f 656 486 483
f 657 483 658
f 659 487 488
f 487 660 661
f 662 489 663
f 489 664 490
f 490 665 491
f 489 492 493
f 492 489 490
f 493 492 494
f 666 495 667
f 495 668 496
f 496 669 670
f 671 672 673
f 674 675 676
f 677 678 679
f 680 681 682
f 683 684 685
f 686 687 497
f 688 689 690
f 691 498 499
f 498 692 500
f 500 693 694
f 500 695 498
f 696 500 697
f 698 501 699
f 501 700 502
f 502 701 503
f 503 702 703
f 704 705 706
f 707 708 709
f 504 710 711
f 712 713 714
f 715 716 717
f 718 719 505
f 720 721 722
f 723 724 725
f 726 727 728
f 729 730 731
f 732 733 734
f 735 736 737
f 738 739 506
f 506 740 741
f 507 742 743
f 744 507 745
f 746 747 748
f 749 750 751
f 752 753 754
f 755 756 508
f 757 508 509
f 508 758 510
f 510 759 511
f 511 760 512
f 512 761 513
f 513 762 514
f 763 515 764
f 515 765 516
f 516 766 517
f 517 767 509
f 768 515 518
f 769 518 519
f 770 519 514
f 771 514 772
f 773 774 775
f 776 777 778
f 779 780 781
f 782 783 784
f 785 786 520
f 787 788 789
f 790 791 792
f 793 794 795
f 521 457 522
f 457 521 523
f 523 521 524
f 523 524 464
f 464 524 525
f 526 796 527
f 797 526 798
f 799 526 800
f 473 474 528
f 474 473 472
f 480 485 479
f 485 480 484
f 484 480 481
f 484 481 486
f 486 481 482
f 486 482 483
f 389 383 387
f 383 389 381
f 381 389 390
f 381 390 391
f 381 391 392
f 381 392 393
f 381 393 384
f 384 393 377
f 384 377 385
f 385 377 378
f 385 378 379
f 529 440 530
f 440 529 441
f 531 442 443
f 406 404 405
f 801 500 802
f 387 803 388
f 532 456 450
f 456 532 533
f 504 804 805
f 806 504 534
f 535 807 808
f 809 535 504
f 504 535 810
f 811 383 812
f 383 813 387
f 814 536 815
f 536 816 383
f 817 818 819
f 820 821 822
f 823 824 825
f 826 827 828
f 829 830 831
f 832 833 536
f 834 536 382
f 382 536 383
f 521 522 533
f 835 525 524
f 525 465 464
f 465 525 836
f 465 837 838
f 523 459 457
f 459 523 460
f 460 523 461
f 461 523 462
f 462 523 463
f 463 523 464
f 533 457 456
f 457 533 522
f 839 537 840
f 537 841 842
f 843 411 410
f 411 844 413
f 413 845 538
f 413 538 846
f 847 538 848
f 849 850 851
f 491 492 490
f 492 491 494
f 508 517 509
f 517 508 510
f 517 510 516
f 516 510 511
f 516 511 515
f 515 511 512
f 515 512 518
f 518 512 513
f 518 513 519
f 519 513 514
f 852 441 853
f 441 854 439
f 536 855 856
f 532 452 857
f 452 532 450
f 450 455 451
f 455 450 456
f 858 539 540
f 539 859 860
f 428 541 861
f 541 428 427
f 862 419 414
f 419 863 418
f 864 419 865
f 436 866 437
f 867 436 542
f 868 543 869
f 543 870 871
f 872 544 873
f 544 874 529
f 544 529 530
f 529 875 441
f 876 534 504
f 534 877 878
f 534 879 880
f 881 534 882
f 883 884 545
f 885 886 887
f 888 889 546
f 890 891 444
f 449 892 893
f 894 449 448
f 895 896 897
f 898 899 438
f 501 503 900
f 503 501 502
