v 0.015181 -0.155512 0.734395
v 0.018544 -0.155512 0.730898
v 0.018544 -0.155512 0.734395
v 0.015181 -0.155512 0.730898
v 0.015297 -0.155512 0.724718
v 0.018806 -0.155512 0.721069
v 0.018806 -0.155512 0.724718
v 0.015297 -0.155512 0.721069
v 0.014894 -0.155512 0.714611
v 0.018832 -0.155512 0.710515
v 0.018832 -0.155512 0.714611
v 0.014894 -0.155512 0.710515
v 0.015181 -0.154048 0.730898
v 0.018544 -0.154048 0.730898
v 0.015181 -0.154048 0.734395
v 0.018544 -0.154048 0.734395
v 0.018806 -0.153906 0.724718
v 0.015297 -0.153906 0.724718
v 0.018806 -0.153906 0.721069
v 0.015297 -0.153906 0.721069
v 0.014894 -0.153906 0.714611
v 0.018832 -0.153906 0.714611
v 0.018832 -0.153906 0.710515
v 0.014894 -0.153906 0.710515
f 1 2 3
f 2 1 4
f 5 6 7
f 6 5 8
f 9 10 11
f 10 9 12
f 13 2 4
f 2 13 14
f 1 13 4
f 13 1 15
f 16 1 3
f 1 16 15
f 17 5 7
f 5 17 18
f 17 6 19
f 6 17 7
f 20 6 8
f 6 20 19
f 5 20 8
f 20 5 18
f 11 21 9
f 21 11 22
f 22 10 23
f 10 22 11
f 24 10 12
f 10 24 23
f 9 24 12
f 24 9 21
