v 0.006984 -0.102499 0.520667
v 0.006836 -0.106828 0.522940
v 0.006836 -0.106828 0.520667
v 0.006984 -0.102499 0.522940
v -0.013404 -0.110142 0.522940
v -0.010448 -0.113307 0.520667
v -0.010448 -0.113307 0.522940
v -0.013404 -0.110142 0.520667
v -0.014924 -0.106087 0.522940
v -0.014924 -0.106087 0.520667
v 0.005044 -0.110770 0.522940
v 0.001879 -0.113727 0.520667
v 0.005044 -0.110770 0.520667
v 0.001879 -0.113727 0.522940
v -0.002176 -0.115247 0.520667
v -0.002176 -0.115247 0.522940
v -0.006505 -0.115100 0.522940
v -0.006505 -0.115100 0.520667
v -0.012984 -0.097816 0.522940
v -0.009819 -0.094859 0.520667
v -0.012984 -0.097816 0.520667
v -0.009819 -0.094859 0.522940
v -0.005764 -0.093339 0.520667
v -0.005764 -0.093339 0.522940
v -0.001436 -0.093486 0.522940
v 0.002507 -0.095279 0.520667
v -0.001436 -0.093486 0.520667
v 0.002507 -0.095279 0.522940
v -0.000858 -0.097686 0.522940
v 0.000687 -0.098807 0.520010
v 0.000687 -0.098807 0.522940
v -0.000858 -0.097686 0.520010
v -0.014777 -0.101758 0.522940
v -0.014777 -0.101758 0.520667
v 0.005464 -0.098444 0.520667
v 0.005464 -0.098444 0.522940
v -0.011357 -0.106199 0.522940
v -0.010580 -0.107943 0.522940
v -0.009377 -0.109426 0.522940
v -0.007831 -0.110548 0.522940
v -0.006048 -0.111231 0.522940
v -0.004149 -0.111429 0.522940
v -0.002263 -0.111129 0.522940
v -0.000519 -0.110351 0.522940
v 0.000965 -0.109149 0.522940
v 0.002086 -0.107603 0.522940
v 0.002769 -0.105820 0.522940
v 0.002968 -0.103920 0.522940
v 0.002668 -0.102034 0.522940
v -0.011459 -0.102413 0.522940
v -0.011657 -0.104313 0.522940
v -0.010776 -0.100630 0.522940
v -0.009654 -0.099084 0.522940
v -0.008171 -0.097882 0.522940
v -0.006427 -0.097104 0.522940
v -0.004541 -0.096804 0.522940
v -0.002642 -0.097002 0.522940
v 0.001890 -0.100290 0.522940
v -0.002642 -0.097002 0.518989
v -0.000858 -0.097686 0.518989
v -0.002642 -0.097002 0.520010
v -0.007831 -0.110548 0.520010
v -0.006048 -0.111231 0.518989
v -0.007831 -0.110548 0.518989
v -0.006048 -0.111231 0.520010
v -0.004541 -0.096804 0.518989
v -0.004541 -0.096804 0.520010
v -0.006427 -0.097104 0.520010
v -0.008171 -0.097882 0.518989
v -0.006427 -0.097104 0.518989
v -0.008171 -0.097882 0.520010
v 0.002668 -0.102034 0.520010
v 0.001890 -0.100290 0.520010
v -0.004149 -0.111429 0.520010
v 0.002769 -0.105820 0.520010
v 0.002968 -0.103920 0.520010
v -0.004149 -0.111429 0.518989
v -0.009377 -0.109426 0.520010
v -0.010580 -0.107943 0.520010
v -0.011357 -0.106199 0.520010
v -0.011657 -0.104313 0.520010
v -0.011657 -0.104313 0.518989
v -0.010580 -0.107943 0.518989
v -0.011357 -0.106199 0.518989
v -0.011459 -0.102413 0.518989
v -0.009377 -0.109426 0.518989
v -0.010776 -0.100630 0.518989
v -0.009654 -0.099084 0.518989
v -0.002263 -0.111129 0.518989
v -0.000519 -0.110351 0.518989
v 0.000965 -0.109149 0.518989
v 0.002086 -0.107603 0.518989
v 0.000687 -0.098807 0.518989
v 0.002769 -0.105820 0.518989
v 0.001890 -0.100290 0.518989
v 0.002968 -0.103920 0.518989
v 0.002668 -0.102034 0.518989
v -0.000519 -0.110351 0.520010
v 0.000965 -0.109149 0.520010
v -0.002263 -0.111129 0.520010
v -0.011459 -0.102413 0.520010
v -0.010776 -0.100630 0.520010
v -0.009654 -0.099084 0.520010
v 0.002086 -0.107603 0.520010
v -0.013404 -0.110142 0.520667
v -0.013404 -0.110142 0.522940
v -0.013404 -0.110142 0.520667
v 0.001879 -0.113727 0.522940
v 0.001879 -0.113727 0.520667
v 0.001879 -0.113727 0.522940
v -0.010448 -0.113307 0.520667
v -0.010448 -0.113307 0.520667
v -0.010448 -0.113307 0.522940
v -0.006505 -0.115100 0.520667
v -0.006505 -0.115100 0.520667
v -0.006505 -0.115100 0.522940
v 0.006836 -0.106828 0.520667
v 0.005044 -0.110770 0.522940
v 0.005044 -0.110770 0.520667
v 0.005044 -0.110770 0.522940
v 0.006836 -0.106828 0.520667
v 0.006836 -0.106828 0.522940
v -0.009819 -0.094859 0.522940
v -0.009819 -0.094859 0.520667
v -0.009819 -0.094859 0.522940
v -0.005764 -0.093339 0.522940
v -0.001436 -0.093486 0.520667
v -0.005764 -0.093339 0.520667
v -0.001436 -0.093486 0.520667
v -0.005764 -0.093339 0.522940
v -0.001436 -0.093486 0.522940
v -0.012984 -0.097816 0.522940
v -0.014777 -0.101758 0.520667
v -0.014777 -0.101758 0.522940
v -0.014777 -0.101758 0.520667
v -0.012984 -0.097816 0.522940
v -0.012984 -0.097816 0.520667
v 0.006984 -0.102499 0.522940
v 0.006984 -0.102499 0.520667
v 0.006984 -0.102499 0.522940
v 0.002507 -0.095279 0.520667
v 0.005464 -0.098444 0.522940
v 0.005464 -0.098444 0.520667
v 0.005464 -0.098444 0.522940
v 0.002507 -0.095279 0.520667
v 0.002507 -0.095279 0.522940
v -0.013404 -0.110142 0.522940
v -0.014777 -0.101758 0.522940
v -0.014924 -0.106087 0.522940
v -0.014777 -0.101758 0.522940
v -0.013404 -0.110142 0.522940
v -0.010448 -0.113307 0.522940
v -0.014777 -0.101758 0.522940
v -0.010448 -0.113307 0.522940
v -0.012984 -0.097816 0.522940
v -0.012984 -0.097816 0.522940
v -0.010448 -0.113307 0.522940
v -0.010448 -0.113307 0.522940
v -0.010448 -0.113307 0.522940
v -0.006505 -0.115100 0.522940
v -0.006505 -0.115100 0.522940
v -0.006505 -0.115100 0.522940
v -0.006505 -0.115100 0.522940
v -0.006505 -0.115100 0.522940
v -0.002176 -0.115247 0.522940
v -0.002176 -0.115247 0.522940
v -0.002176 -0.115247 0.522940
v -0.002176 -0.115247 0.522940
v 0.001879 -0.113727 0.522940
v 0.001879 -0.113727 0.522940
v 0.001879 -0.113727 0.522940
v 0.001879 -0.113727 0.522940
v 0.001879 -0.113727 0.522940
v 0.005044 -0.110770 0.522940
v 0.005044 -0.110770 0.522940
v 0.005044 -0.110770 0.522940
v 0.005044 -0.110770 0.522940
v -0.012984 -0.097816 0.522940
v -0.009819 -0.094859 0.522940
v -0.012984 -0.097816 0.522940
v -0.012984 -0.097816 0.522940
v -0.009819 -0.094859 0.522940
v -0.009819 -0.094859 0.522940
v -0.009819 -0.094859 0.522940
v -0.009819 -0.094859 0.522940
v -0.005764 -0.093339 0.522940
v -0.005764 -0.093339 0.522940
v -0.005764 -0.093339 0.522940
v -0.005764 -0.093339 0.522940
v -0.001436 -0.093486 0.522940
v -0.001436 -0.093486 0.522940
v -0.001436 -0.093486 0.522940
v -0.000858 -0.097686 0.522940
v -0.001436 -0.093486 0.522940
v -0.000858 -0.097686 0.522940
v 0.000687 -0.098807 0.522940
v -0.001436 -0.093486 0.522940
v 0.000687 -0.098807 0.522940
v 0.002507 -0.095279 0.522940
v 0.002507 -0.095279 0.522940
v 0.000687 -0.098807 0.522940
v 0.002507 -0.095279 0.522940
v 0.002507 -0.095279 0.522940
v 0.005044 -0.110770 0.522940
v 0.002507 -0.095279 0.522940
v 0.005044 -0.110770 0.522940
v 0.006836 -0.106828 0.522940
v 0.002507 -0.095279 0.522940
v 0.006836 -0.106828 0.522940
v 0.005464 -0.098444 0.522940
v 0.005464 -0.098444 0.522940
v 0.006836 -0.106828 0.522940
v 0.006984 -0.102499 0.522940
v -0.000858 -0.097686 0.520010
v -0.000858 -0.097686 0.520010
v -0.002642 -0.097002 0.520010
v -0.002642 -0.097002 0.518989
v -0.002642 -0.097002 0.520010
v -0.004541 -0.096804 0.520010
v -0.006427 -0.097104 0.518989
v -0.004541 -0.096804 0.518989
v -0.006427 -0.097104 0.518989
v -0.004541 -0.096804 0.520010
v -0.006427 -0.097104 0.520010
v 0.001890 -0.100290 0.522940
v 0.002668 -0.102034 0.522940
v 0.001890 -0.100290 0.522940
v 0.000687 -0.098807 0.522940
v 0.001890 -0.100290 0.520010
v 0.001890 -0.100290 0.522940
v 0.001890 -0.100290 0.520010
v 0.000687 -0.098807 0.522940
v 0.000687 -0.098807 0.520010
v -0.006048 -0.111231 0.522940
v -0.006048 -0.111231 0.520010
v -0.006048 -0.111231 0.522940
v -0.004149 -0.111429 0.522940
v 0.002968 -0.103920 0.522940
v 0.002769 -0.105820 0.522940
v 0.002968 -0.103920 0.522940
v -0.006048 -0.111231 0.520010
v -0.006048 -0.111231 0.518989
v -0.006048 -0.111231 0.520010
v -0.007831 -0.110548 0.522940
v -0.007831 -0.110548 0.520010
v -0.007831 -0.110548 0.522940
v -0.009377 -0.109426 0.522940
v -0.009377 -0.109426 0.522940
v -0.009377 -0.109426 0.520010
v -0.009377 -0.109426 0.522940
v -0.010580 -0.107943 0.522940
v -0.010580 -0.107943 0.522940
v -0.010580 -0.107943 0.520010
v -0.010580 -0.107943 0.522940
v -0.011357 -0.106199 0.522940
v -0.011357 -0.106199 0.522940
v -0.011357 -0.106199 0.520010
v -0.011357 -0.106199 0.522940
v -0.011657 -0.104313 0.522940
v -0.007831 -0.110548 0.518989
v -0.007831 -0.110548 0.518989
v -0.007831 -0.110548 0.518989
v -0.006048 -0.111231 0.518989
v -0.006048 -0.111231 0.518989
v -0.008171 -0.097882 0.518989
v -0.006048 -0.111231 0.518989
v -0.008171 -0.097882 0.518989
v -0.004149 -0.111429 0.518989
v -0.004149 -0.111429 0.518989
v -0.008171 -0.097882 0.518989
v -0.006427 -0.097104 0.518989
v -0.004149 -0.111429 0.518989
v -0.006427 -0.097104 0.518989
v -0.006427 -0.097104 0.518989
v -0.004541 -0.096804 0.518989
v -0.004541 -0.096804 0.518989
v -0.004541 -0.096804 0.518989
v -0.002642 -0.097002 0.518989
v -0.002642 -0.097002 0.518989
v -0.002642 -0.097002 0.518989
v -0.000858 -0.097686 0.518989
v -0.000858 -0.097686 0.518989
v -0.000858 -0.097686 0.518989
v 0.000965 -0.109149 0.518989
v -0.000519 -0.110351 0.518989
v 0.000965 -0.109149 0.518989
v -0.004149 -0.111429 0.520010
v -0.002263 -0.111129 0.518989
v -0.004149 -0.111429 0.518989
v -0.002263 -0.111129 0.518989
v -0.004149 -0.111429 0.520010
v -0.011657 -0.104313 0.520010
v -0.010580 -0.107943 0.520010
v -0.011357 -0.106199 0.520010
v -0.010580 -0.107943 0.520010
v -0.011657 -0.104313 0.520010
v -0.010580 -0.107943 0.520010
v -0.009377 -0.109426 0.520010
v -0.009377 -0.109426 0.520010
v -0.009377 -0.109426 0.520010
v -0.007831 -0.110548 0.520010
v -0.007831 -0.110548 0.520010
v -0.007831 -0.110548 0.520010
v -0.006048 -0.111231 0.520010
v -0.006048 -0.111231 0.520010
v -0.008171 -0.097882 0.520010
v -0.006048 -0.111231 0.520010
v -0.008171 -0.097882 0.520010
v -0.004149 -0.111429 0.520010
v -0.004149 -0.111429 0.520010
v -0.008171 -0.097882 0.520010
v -0.006427 -0.097104 0.520010
v -0.004149 -0.111429 0.520010
v -0.006427 -0.097104 0.520010
v -0.002263 -0.111129 0.520010
v -0.002263 -0.111129 0.520010
v -0.006427 -0.097104 0.520010
v -0.004541 -0.096804 0.520010
v -0.002263 -0.111129 0.520010
v -0.004541 -0.096804 0.520010
v -0.000519 -0.110351 0.520010
v -0.000519 -0.110351 0.520010
v -0.004541 -0.096804 0.520010
v -0.002642 -0.097002 0.520010
v -0.000519 -0.110351 0.520010
v -0.002642 -0.097002 0.520010
v 0.000965 -0.109149 0.520010
v 0.000965 -0.109149 0.520010
v -0.002642 -0.097002 0.520010
v -0.000858 -0.097686 0.520010
v 0.000965 -0.109149 0.520010
v -0.000858 -0.097686 0.520010
v -0.000858 -0.097686 0.520010
v 0.000687 -0.098807 0.520010
v 0.000687 -0.098807 0.520010
v 0.002769 -0.105820 0.520010
v 0.002769 -0.105820 0.520010
v 0.000687 -0.098807 0.520010
v 0.001890 -0.100290 0.520010
v 0.002769 -0.105820 0.520010
v 0.001890 -0.100290 0.520010
v 0.002968 -0.103920 0.520010
v 0.002968 -0.103920 0.520010
v 0.001890 -0.100290 0.520010
v 0.002668 -0.102034 0.520010
v 0.000687 -0.098807 0.518989
v 0.000687 -0.098807 0.518989
v -0.000858 -0.097686 0.518989
v 0.000687 -0.098807 0.520010
v 0.001890 -0.100290 0.518989
v 0.001890 -0.100290 0.520010
v 0.001890 -0.100290 0.518989
v 0.000687 -0.098807 0.520010
v 0.000687 -0.098807 0.518989
v 0.002668 -0.102034 0.518989
v 0.002668 -0.102034 0.518989
v 0.001890 -0.100290 0.518989
v 0.002668 -0.102034 0.520010
v 0.002968 -0.103920 0.518989
v 0.002968 -0.103920 0.520010
v 0.002968 -0.103920 0.518989
v 0.002668 -0.102034 0.520010
v 0.002668 -0.102034 0.518989
v 0.002769 -0.105820 0.518989
v 0.002769 -0.105820 0.518989
v 0.002968 -0.103920 0.518989
v 0.002769 -0.105820 0.520010
v 0.002086 -0.107603 0.518989
v 0.002086 -0.107603 0.520010
v 0.002086 -0.107603 0.518989
v 0.002769 -0.105820 0.520010
v 0.002769 -0.105820 0.518989
v 0.000965 -0.109149 0.520010
v 0.002086 -0.107603 0.518989
v 0.000965 -0.109149 0.518989
v 0.002086 -0.107603 0.518989
v 0.000965 -0.109149 0.520010
v 0.002086 -0.107603 0.520010
v 0.002769 -0.105820 0.522940
v 0.002086 -0.107603 0.520010
v 0.002086 -0.107603 0.522940
v 0.002086 -0.107603 0.520010
v 0.002769 -0.105820 0.522940
v 0.002769 -0.105820 0.520010
v -0.002263 -0.111129 0.520010
v -0.000519 -0.110351 0.518989
v -0.002263 -0.111129 0.518989
v -0.000519 -0.110351 0.518989
v -0.002263 -0.111129 0.520010
v -0.000519 -0.110351 0.520010
v -0.007831 -0.110548 0.522940
v -0.007831 -0.110548 0.522940
v -0.006048 -0.111231 0.522940
v -0.008171 -0.097882 0.520010
v -0.009654 -0.099084 0.518989
v -0.008171 -0.097882 0.518989
v -0.009654 -0.099084 0.518989
v -0.008171 -0.097882 0.520010
v -0.009654 -0.099084 0.520010
v -0.000519 -0.110351 0.522940
v -0.000519 -0.110351 0.522940
v 0.000965 -0.109149 0.522940
v -0.002263 -0.111129 0.522940
v -0.000519 -0.110351 0.520010
v -0.002263 -0.111129 0.520010
v -0.000519 -0.110351 0.520010
v -0.002263 -0.111129 0.522940
v -0.000519 -0.110351 0.522940
v -0.014777 -0.101758 0.520667
v -0.013404 -0.110142 0.520667
v -0.014924 -0.106087 0.520667
v -0.013404 -0.110142 0.520667
v -0.014777 -0.101758 0.520667
v -0.012984 -0.097816 0.520667
v -0.013404 -0.110142 0.520667
v -0.012984 -0.097816 0.520667
v -0.010448 -0.113307 0.520667
v -0.010448 -0.113307 0.520667
v -0.012984 -0.097816 0.520667
v -0.009819 -0.094859 0.520667
v -0.010448 -0.113307 0.520667
v -0.009819 -0.094859 0.520667
v -0.006505 -0.115100 0.520667
v -0.006505 -0.115100 0.520667
v -0.009819 -0.094859 0.520667
v -0.005764 -0.093339 0.520667
v -0.006505 -0.115100 0.520667
v -0.005764 -0.093339 0.520667
v -0.002176 -0.115247 0.520667
v -0.002176 -0.115247 0.520667
v -0.005764 -0.093339 0.520667
v -0.001436 -0.093486 0.520667
v -0.002176 -0.115247 0.520667
v -0.001436 -0.093486 0.520667
v 0.001879 -0.113727 0.520667
v 0.001879 -0.113727 0.520667
v -0.001436 -0.093486 0.520667
v 0.002507 -0.095279 0.520667
v 0.001879 -0.113727 0.520667
v 0.002507 -0.095279 0.520667
v 0.005044 -0.110770 0.520667
v 0.005044 -0.110770 0.520667
v 0.002507 -0.095279 0.520667
v 0.005464 -0.098444 0.520667
v 0.005044 -0.110770 0.520667
v 0.005464 -0.098444 0.520667
v 0.006836 -0.106828 0.520667
v 0.006836 -0.106828 0.520667
v 0.005464 -0.098444 0.520667
v 0.006984 -0.102499 0.520667
v -0.006427 -0.097104 0.522940
v -0.006427 -0.097104 0.522940
v -0.008171 -0.097882 0.522940
v -0.008171 -0.097882 0.522940
v -0.009654 -0.099084 0.520010
v -0.008171 -0.097882 0.520010
v -0.009654 -0.099084 0.520010
v -0.008171 -0.097882 0.522940
v -0.009654 -0.099084 0.522940
v -0.010776 -0.100630 0.520010
v -0.011459 -0.102413 0.522940
v -0.011459 -0.102413 0.520010
v -0.011459 -0.102413 0.522940
v -0.010776 -0.100630 0.520010
v -0.010776 -0.100630 0.522940
v -0.011459 -0.102413 0.520010
v -0.011657 -0.104313 0.522940
v -0.011657 -0.104313 0.520010
v -0.011657 -0.104313 0.522940
v -0.011459 -0.102413 0.520010
v -0.011459 -0.102413 0.522940
v -0.009654 -0.099084 0.522940
v -0.010776 -0.100630 0.520010
v -0.009654 -0.099084 0.520010
v -0.010776 -0.100630 0.520010
v -0.009654 -0.099084 0.522940
v -0.010776 -0.100630 0.522940
v 0.002668 -0.102034 0.522940
v 0.002968 -0.103920 0.520010
v 0.002968 -0.103920 0.522940
v 0.002968 -0.103920 0.520010
v 0.002668 -0.102034 0.522940
v 0.002668 -0.102034 0.520010
v -0.004149 -0.111429 0.522940
v -0.004149 -0.111429 0.520010
v -0.004149 -0.111429 0.522940
v -0.002263 -0.111129 0.522940
v -0.009654 -0.099084 0.520010
v -0.010776 -0.100630 0.518989
v -0.009654 -0.099084 0.518989
v -0.010776 -0.100630 0.518989
v -0.009654 -0.099084 0.520010
v -0.010776 -0.100630 0.520010
v -0.004541 -0.096804 0.522940
v -0.006427 -0.097104 0.520010
v -0.004541 -0.096804 0.520010
v -0.006427 -0.097104 0.520010
v -0.004541 -0.096804 0.522940
v -0.006427 -0.097104 0.522940
v -0.002642 -0.097002 0.522940
v -0.002642 -0.097002 0.520010
v -0.002642 -0.097002 0.522940
v -0.004541 -0.096804 0.522940
v -0.000858 -0.097686 0.522940
v -0.000858 -0.097686 0.520010
v -0.000858 -0.097686 0.522940
v -0.002642 -0.097002 0.522940
v -0.011459 -0.102413 0.518989
v -0.011657 -0.104313 0.520010
v -0.011657 -0.104313 0.518989
v -0.011657 -0.104313 0.520010
v -0.011459 -0.102413 0.518989
v -0.011459 -0.102413 0.520010
v -0.010776 -0.100630 0.518989
v -0.011459 -0.102413 0.520010
v -0.011459 -0.102413 0.518989
v -0.011459 -0.102413 0.520010
v -0.010776 -0.100630 0.518989
v -0.010776 -0.100630 0.520010
v -0.011357 -0.106199 0.518989
v -0.010580 -0.107943 0.520010
v -0.010580 -0.107943 0.518989
v -0.010580 -0.107943 0.520010
v -0.011357 -0.106199 0.518989
v -0.011657 -0.104313 0.518989
v -0.011357 -0.106199 0.520010
v -0.011357 -0.106199 0.518989
v -0.011357 -0.106199 0.520010
v -0.011657 -0.104313 0.518989
v -0.010580 -0.107943 0.518989
v -0.009377 -0.109426 0.520010
v -0.009377 -0.109426 0.518989
v -0.009377 -0.109426 0.520010
v -0.010580 -0.107943 0.518989
v -0.009377 -0.109426 0.518989
v -0.007831 -0.110548 0.520010
v -0.007831 -0.110548 0.518989
v -0.007831 -0.110548 0.520010
v -0.009377 -0.109426 0.518989
v 0.000965 -0.109149 0.522940
v 0.002086 -0.107603 0.520010
v 0.000965 -0.109149 0.520010
v 0.002086 -0.107603 0.520010
v 0.000965 -0.109149 0.522940
v 0.002086 -0.107603 0.522940
v -0.016810 -0.101691 0.512945
v -0.015235 -0.111310 0.512945
v -0.016979 -0.106657 0.512945
v -0.011843 -0.114941 0.512945
v -0.014754 -0.097167 0.512945
v -0.007319 -0.116998 0.512945
v -0.011122 -0.093775 0.512945
v -0.002353 -0.117167 0.512945
v -0.006469 -0.092031 0.512945
v 0.002300 -0.115423 0.512945
v -0.001503 -0.092200 0.512945
v 0.003020 -0.094257 0.512945
v 0.005931 -0.112031 0.512945
v 0.007988 -0.107507 0.512945
v 0.006413 -0.097888 0.512945
v 0.008157 -0.102541 0.512945
v -0.015235 -0.111310 0.520802
v -0.016810 -0.101691 0.520802
v -0.016979 -0.106657 0.520802
v -0.011843 -0.114941 0.520802
v -0.014754 -0.097167 0.520802
v -0.007319 -0.116998 0.520802
v -0.011122 -0.093775 0.520802
v -0.002353 -0.117167 0.520802
v -0.006469 -0.092031 0.520802
v 0.002300 -0.115423 0.520802
v -0.001503 -0.092200 0.520802
v 0.003020 -0.094257 0.520802
v 0.005931 -0.112031 0.520802
v 0.007988 -0.107507 0.520802
v 0.006413 -0.097888 0.520802
v 0.008157 -0.102541 0.520802
v 0.006413 -0.097888 0.512945
v 0.008157 -0.102541 0.520802
v 0.008157 -0.102541 0.512945
v 0.008157 -0.102541 0.520802
v 0.006413 -0.097888 0.512945
v 0.006413 -0.097888 0.520802
v 0.003020 -0.094257 0.512945
v 0.006413 -0.097888 0.520802
v 0.006413 -0.097888 0.512945
v 0.006413 -0.097888 0.520802
v 0.003020 -0.094257 0.512945
v 0.003020 -0.094257 0.520802
v -0.001503 -0.092200 0.520802
v 0.003020 -0.094257 0.512945
v -0.001503 -0.092200 0.512945
v 0.003020 -0.094257 0.512945
v -0.001503 -0.092200 0.520802
v 0.003020 -0.094257 0.520802
v -0.006469 -0.092031 0.520802
v -0.001503 -0.092200 0.512945
v -0.006469 -0.092031 0.512945
v -0.001503 -0.092200 0.512945
v -0.006469 -0.092031 0.520802
v -0.001503 -0.092200 0.520802
v -0.011122 -0.093775 0.520802
v -0.006469 -0.092031 0.512945
v -0.011122 -0.093775 0.512945
v -0.006469 -0.092031 0.512945
v -0.011122 -0.093775 0.520802
v -0.006469 -0.092031 0.520802
v -0.014754 -0.097167 0.520802
v -0.011122 -0.093775 0.512945
v -0.014754 -0.097167 0.512945
v -0.011122 -0.093775 0.512945
v -0.014754 -0.097167 0.520802
v -0.011122 -0.093775 0.520802
v -0.014754 -0.097167 0.520802
v -0.016810 -0.101691 0.512945
v -0.016810 -0.101691 0.520802
v -0.016810 -0.101691 0.512945
v -0.014754 -0.097167 0.520802
v -0.014754 -0.097167 0.512945
v -0.016810 -0.101691 0.520802
v -0.016979 -0.106657 0.512945
v -0.016979 -0.106657 0.520802
v -0.016979 -0.106657 0.512945
v -0.016810 -0.101691 0.520802
v -0.016810 -0.101691 0.512945
v -0.016979 -0.106657 0.520802
v -0.015235 -0.111310 0.512945
v -0.015235 -0.111310 0.520802
v -0.015235 -0.111310 0.512945
v -0.016979 -0.106657 0.520802
v -0.016979 -0.106657 0.512945
v -0.015235 -0.111310 0.520802
v -0.011843 -0.114941 0.512945
v -0.011843 -0.114941 0.520802
v -0.011843 -0.114941 0.512945
v -0.015235 -0.111310 0.520802
v -0.015235 -0.111310 0.512945
v -0.007319 -0.116998 0.520802
v -0.011843 -0.114941 0.512945
v -0.007319 -0.116998 0.512945
v -0.011843 -0.114941 0.512945
v -0.007319 -0.116998 0.520802
v -0.011843 -0.114941 0.520802
v -0.002353 -0.117167 0.520802
v -0.007319 -0.116998 0.512945
v -0.002353 -0.117167 0.512945
v -0.007319 -0.116998 0.512945
v -0.002353 -0.117167 0.520802
v -0.007319 -0.116998 0.520802
v 0.002300 -0.115423 0.520802
v -0.002353 -0.117167 0.512945
v 0.002300 -0.115423 0.512945
v -0.002353 -0.117167 0.512945
v 0.002300 -0.115423 0.520802
v -0.002353 -0.117167 0.520802
v 0.005931 -0.112031 0.520802
v 0.002300 -0.115423 0.512945
v 0.005931 -0.112031 0.512945
v 0.002300 -0.115423 0.512945
v 0.005931 -0.112031 0.520802
v 0.002300 -0.115423 0.520802
v 0.007988 -0.107507 0.512945
v 0.005931 -0.112031 0.520802
v 0.005931 -0.112031 0.512945
v 0.005931 -0.112031 0.520802
v 0.007988 -0.107507 0.512945
v 0.007988 -0.107507 0.520802
v 0.008157 -0.102541 0.512945
v 0.007988 -0.107507 0.520802
v 0.007988 -0.107507 0.512945
v 0.007988 -0.107507 0.520802
v 0.008157 -0.102541 0.512945
v 0.008157 -0.102541 0.520802
f 1 2 3
f 2 1 4
f 5 6 7
f 6 5 8
f 9 105 106
f 107 9 10
f 11 12 13
f 12 11 14
f 108 15 109
f 15 110 16
f 17 111 18
f 112 17 113
f 16 114 15
f 115 16 116
f 117 118 119
f 120 121 122
f 19 20 21
f 20 19 22
f 123 23 124
f 23 125 24
f 25 26 27
f 26 25 28
f 126 127 128
f 129 130 131
f 29 30 31
f 30 29 32
f 33 10 9
f 10 33 34
f 132 133 134
f 135 136 137
f 35 138 139
f 140 35 36
f 141 142 143
f 144 145 146
f 147 148 149
f 150 151 152
f 153 154 155
f 156 157 37
f 37 158 38
f 38 159 160
f 38 161 39
f 39 162 40
f 40 163 41
f 41 164 165
f 41 166 42
f 42 167 43
f 43 168 169
f 43 170 44
f 44 171 45
f 45 172 46
f 46 173 174
f 46 175 47
f 47 176 48
f 48 177 49
f 178 50 179
f 50 180 51
f 51 181 37
f 182 50 52
f 183 52 53
f 184 53 54
f 185 54 186
f 187 54 55
f 188 55 56
f 189 56 190
f 191 56 57
f 192 57 193
f 194 195 196
f 197 198 199
f 200 201 58
f 202 58 49
f 203 49 204
f 205 206 207
f 208 209 210
f 211 212 213
f 214 59 60
f 59 215 61
f 62 63 64
f 63 62 65
f 216 66 217
f 66 218 67
f 68 69 70
f 69 68 71
f 219 220 221
f 222 223 224
f 225 72 226
f 72 227 73
f 228 229 230
f 231 232 233
f 234 74 235
f 74 236 237
f 238 75 239
f 75 240 76
f 241 77 242
f 77 243 74
f 78 244 245
f 246 78 247
f 79 248 249
f 250 79 251
f 80 252 253
f 254 80 255
f 81 256 257
f 258 81 259
f 82 83 84
f 83 82 85
f 83 85 86
f 86 85 87
f 86 87 260
f 261 87 88
f 262 88 263
f 264 88 265
f 266 267 268
f 269 270 271
f 272 273 89
f 89 274 275
f 89 276 90
f 90 277 278
f 90 279 91
f 91 280 281
f 91 282 92
f 92 283 93
f 92 93 94
f 94 93 95
f 94 95 96
f 96 95 97
f 98 284 285
f 286 98 99
f 287 288 289
f 290 291 100
f 292 293 294
f 295 296 101
f 297 101 298
f 299 101 102
f 300 102 301
f 302 102 103
f 303 103 304
f 305 103 306
f 307 308 309
f 310 311 312
f 313 314 315
f 316 317 318
f 319 320 321
f 322 323 324
f 325 326 327
f 328 329 330
f 331 332 104
f 104 333 334
f 104 335 336
f 337 338 339
f 340 341 342
f 343 344 345
f 32 346 30
f 347 32 348
f 349 350 351
f 352 353 354
f 73 355 72
f 356 73 357
f 358 359 360
f 361 362 363
f 76 364 75
f 365 76 366
f 367 368 369
f 370 371 372
f 373 374 375
f 376 377 378
f 379 380 381
f 382 383 384
f 385 386 387
f 388 389 390
f 391 65 62
f 65 392 393
f 394 395 396
f 397 398 399
f 400 99 98
f 99 401 402
f 403 404 405
f 406 407 408
f 409 410 411
f 412 413 414
f 415 416 417
f 418 419 420
f 421 422 423
f 424 425 426
f 427 428 429
f 430 431 432
f 433 434 435
f 436 437 438
f 439 440 441
f 442 443 444
f 445 446 447
f 448 449 450
f 451 71 68
f 71 452 453
f 454 455 456
f 457 458 459
f 460 461 462
f 463 464 465
f 466 467 468
f 469 470 471
f 472 473 474
f 475 476 477
f 478 479 480
f 481 482 483
f 484 100 485
f 100 486 487
f 488 489 490
f 491 492 493
f 494 495 496
f 497 498 499
f 500 67 501
f 67 502 503
f 504 61 505
f 61 506 507
f 508 509 510
f 511 512 513
f 514 515 516
f 517 518 519
f 520 521 522
f 523 524 80
f 525 526 527
f 528 529 81
f 530 531 532
f 533 534 79
f 535 536 537
f 538 539 78
f 540 541 542
f 543 544 545
f 546 547 548
f 547 546 549
f 549 546 550
f 549 550 551
f 551 550 552
f 551 552 553
f 553 552 554
f 553 554 555
f 555 554 556
f 555 556 557
f 555 557 558
f 558 557 559
f 559 557 560
f 559 560 561
f 562 563 564
f 563 562 565
f 563 565 566
f 566 565 567
f 566 567 568
f 568 567 569
f 568 569 570
f 570 569 571
f 570 571 572
f 572 571 573
f 573 571 574
f 573 574 575
f 573 575 576
f 576 575 577
f 578 579 580
f 581 582 583
f 584 585 586
f 587 588 589
f 590 591 592
f 593 594 595
f 596 597 598
f 599 600 601
f 602 603 604
f 605 606 607
f 608 609 610
f 611 612 613
f 614 615 616
f 617 618 619
f 620 621 622
f 623 624 625
f 626 627 628
f 629 630 631
f 632 633 634
f 635 636 637
f 638 639 640
f 641 642 643
f 644 645 646
f 647 648 649
f 650 651 652
f 653 654 655
f 656 657 658
f 659 660 661
f 662 663 664
f 665 666 667
f 668 669 670
f 671 672 673
