v 0.217455 -0.017224 0.071732
v 0.197121 -0.075724 0.071732
v 0.197121 -0.017224 0.071732
v 0.217455 -0.075724 0.071732
v 0.217455 -0.075724 0.101153
v 0.197121 -0.017224 0.101153
v 0.197121 -0.075724 0.101153
v 0.217455 -0.017224 0.101153
v 0.217455 -0.075724 0.101153
v 0.197121 -0.075724 0.071732
v 0.217455 -0.075724 0.071732
v 0.197121 -0.075724 0.071732
v 0.217455 -0.075724 0.101153
v 0.197121 -0.075724 0.101153
v 0.217455 -0.017224 0.071732
v 0.217455 -0.075724 0.101153
v 0.217455 -0.075724 0.071732
v 0.217455 -0.075724 0.101153
v 0.217455 -0.017224 0.071732
v 0.217455 -0.017224 0.101153
v 0.197121 -0.017224 0.101153
v 0.217455 -0.017224 0.071732
v 0.197121 -0.017224 0.071732
v 0.217455 -0.017224 0.071732
v 0.197121 -0.017224 0.101153
v 0.217455 -0.017224 0.101153
v 0.197121 -0.017224 0.101153
v 0.197121 -0.075724 0.071732
v 0.197121 -0.075724 0.101153
v 0.197121 -0.075724 0.071732
v 0.197121 -0.017224 0.101153
v 0.197121 -0.017224 0.071732
v -0.059030 -0.017224 0.071732
v -0.079364 -0.075724 0.071732
v -0.079364 -0.017224 0.071732
v -0.059030 -0.075724 0.071732
v -0.059030 -0.075724 0.101153
v -0.079364 -0.017224 0.101153
v -0.079364 -0.075724 0.101153
v -0.059030 -0.017224 0.101153
v -0.059030 -0.075724 0.101153
v -0.079364 -0.075724 0.071732
v -0.059030 -0.075724 0.071732
v -0.079364 -0.075724 0.071732
v -0.059030 -0.075724 0.101153
v -0.079364 -0.075724 0.101153
v -0.059030 -0.017224 0.071732
v -0.059030 -0.075724 0.101153
v -0.059030 -0.075724 0.071732
v -0.059030 -0.075724 0.101153
v -0.059030 -0.017224 0.071732
v -0.059030 -0.017224 0.101153
v -0.079364 -0.017224 0.101153
v -0.059030 -0.017224 0.071732
v -0.079364 -0.017224 0.071732
v -0.059030 -0.017224 0.071732
v -0.079364 -0.017224 0.101153
v -0.059030 -0.017224 0.101153
v -0.079364 -0.017224 0.101153
v -0.079364 -0.075724 0.071732
v -0.079364 -0.075724 0.101153
v -0.079364 -0.075724 0.071732
v -0.079364 -0.017224 0.101153
v -0.079364 -0.017224 0.071732
v 0.176365 -0.075724 0.147111
v 0.081498 -0.075724 0.140671
v 0.158124 -0.075724 0.128229
v 0.102835 -0.075724 0.143480
v 0.122719 -0.075724 0.151716
v 0.189098 -0.075724 0.170071
v 0.139793 -0.075724 0.164818
v 0.152895 -0.075724 0.181892
v 0.195454 -0.075724 0.195544
v 0.161131 -0.075724 0.201776
v 0.195001 -0.075724 0.221794
v 0.163940 -0.075724 0.223114
v 0.187769 -0.075724 0.247032
v 0.161131 -0.075724 0.244451
v 0.152895 -0.075724 0.264335
v 0.174252 -0.075724 0.269539
v 0.139793 -0.075724 0.281409
v 0.155370 -0.075724 0.287780
v 0.122719 -0.075724 0.294511
v 0.132410 -0.075724 0.300513
v 0.102835 -0.075724 0.302747
v 0.106937 -0.075724 0.306869
v 0.090126 -0.075724 0.304420
v 0.082880 -0.075724 0.305953
v 0.084743 -0.075724 0.306486
v 0.110379 -0.075724 0.107480
v 0.058656 -0.075724 0.113383
v 0.084129 -0.075724 0.107027
v 0.135617 -0.075724 0.114712
v 0.035696 -0.075724 0.126116
v 0.016814 -0.075724 0.144357
v 0.060160 -0.075724 0.143480
v 0.040276 -0.075724 0.151716
v 0.003297 -0.075724 0.166864
v 0.023202 -0.075724 0.164818
v 0.010100 -0.075724 0.181892
v -0.003935 -0.075724 0.192102
v 0.001864 -0.075724 0.201776
v -0.004378 -0.075724 0.217739
v -0.000433 -0.075724 0.219221
v -0.004215 -0.075724 0.218390
v 0.080687 -0.075724 0.306416
v -0.004388 -0.075724 0.218352
v 0.234499 -0.075724 0.101153
v -0.064098 -0.075724 0.101153
v 0.234499 -0.075724 0.373691
v -0.083795 -0.075724 0.101153
v -0.083795 -0.075724 0.373691
v -0.000783 -0.075724 0.232145
v 0.000563 -0.075724 0.234572
v 0.001864 -0.075724 0.244451
v 0.010100 -0.075724 0.264335
v 0.023202 -0.075724 0.281409
v 0.040276 -0.075724 0.294511
v 0.060160 -0.075724 0.302747
v 0.081498 -0.075724 0.305556
f 1 2 3
f 2 1 4
f 5 6 7
f 6 5 8
f 9 10 11
f 12 13 14
f 15 16 17
f 18 19 20
f 21 22 23
f 24 25 26
f 27 28 29
f 30 31 32
f 33 34 35
f 34 33 36
f 37 38 39
f 38 37 40
f 41 42 43
f 44 45 46
f 47 48 49
f 50 51 52
f 53 54 55
f 56 57 58
f 59 60 61
f 62 63 64
f 65 66 67
f 66 65 68
f 68 65 69
f 69 65 70
f 69 70 71
f 71 70 72
f 72 70 73
f 72 73 74
f 74 73 75
f 74 75 76
f 76 75 77
f 76 77 78
f 78 77 79
f 79 77 80
f 79 80 81
f 81 80 82
f 81 82 83
f 83 82 84
f 83 84 85
f 85 84 86
f 85 86 87
f 87 86 88
f 88 86 89
f 90 91 92
f 91 90 93
f 91 93 94
f 94 93 67
f 94 67 95
f 95 67 66
f 95 66 96
f 95 96 97
f 95 97 98
f 98 97 99
f 98 99 100
f 98 100 101
f 101 100 102
f 101 102 103
f 103 102 104
f 103 104 105
f 89 106 88
f 105 107 103
f 108 90 109
f 90 108 93
f 93 108 67
f 67 108 65
f 65 108 70
f 70 108 73
f 73 108 110
f 109 90 111
f 111 90 92
f 73 110 75
f 75 110 77
f 77 110 80
f 80 110 82
f 82 110 84
f 84 110 86
f 111 98 112
f 98 111 95
f 95 111 94
f 94 111 91
f 91 111 92
f 112 98 101
f 112 101 103
f 112 103 107
f 112 107 105
f 112 105 113
f 112 113 114
f 112 114 115
f 112 115 116
f 112 116 117
f 112 117 118
f 112 118 119
f 112 119 120
f 112 120 106
f 106 120 88
f 112 106 89
f 112 89 86
f 112 86 110
