v 0.032079 -0.115048 0.534642
v 0.032124 -0.115040 0.640203
v 0.032124 -0.115040 0.534642
v 0.032079 -0.115048 0.640203
v 0.032213 -0.115060 0.534642
v 0.032251 -0.115087 0.640203
v 0.032251 -0.115087 0.534642
v 0.032213 -0.115060 0.640203
v 0.032303 -0.115256 0.640203
v 0.032287 -0.115299 0.534642
v 0.032303 -0.115256 0.534642
v 0.032287 -0.115299 0.640203
v 0.032183 -0.115385 0.640203
v 0.032225 -0.115366 0.534642
v 0.032225 -0.115366 0.640203
v 0.032183 -0.115385 0.534642
v 0.032091 -0.115389 0.640203
v 0.032137 -0.115393 0.640203
v 0.032048 -0.115373 0.640203
v 0.032011 -0.115346 0.640203
v 0.032260 -0.115337 0.640203
v 0.031981 -0.115310 0.640203
v 0.031962 -0.115268 0.640203
v 0.031954 -0.115223 0.640203
v 0.032307 -0.115210 0.640203
v 0.031959 -0.115177 0.640203
v 0.032300 -0.115165 0.640203
v 0.031975 -0.115134 0.640203
v 0.032280 -0.115123 0.640203
v 0.032001 -0.115096 0.640203
v 0.032037 -0.115067 0.640203
v 0.032170 -0.115044 0.640203
v 0.032300 -0.115165 0.534642
v 0.032280 -0.115123 0.534642
v 0.032048 -0.115373 0.534642
v 0.032011 -0.115346 0.534642
v 0.031954 -0.115223 0.534642
v 0.031962 -0.115268 0.534642
v 0.032307 -0.115210 0.534642
v 0.032260 -0.115337 0.534642
v 0.032091 -0.115389 0.534642
v 0.032137 -0.115393 0.534642
v 0.031981 -0.115310 0.534642
v 0.031959 -0.115177 0.534642
v 0.031975 -0.115134 0.534642
v 0.032001 -0.115096 0.534642
v 0.032037 -0.115067 0.534642
v 0.032170 -0.115044 0.534642
v 0.032183 -0.115385 0.640203
v 0.032183 -0.115385 0.640203
v 0.032183 -0.115385 0.640203
v 0.032225 -0.115366 0.640203
v 0.032225 -0.115366 0.640203
v 0.032225 -0.115366 0.640203
v 0.032287 -0.115299 0.640203
v 0.032287 -0.115299 0.640203
v 0.032287 -0.115299 0.640203
v 0.032303 -0.115256 0.640203
v 0.032303 -0.115256 0.640203
v 0.032303 -0.115256 0.640203
v 0.032251 -0.115087 0.640203
v 0.032251 -0.115087 0.640203
v 0.032251 -0.115087 0.640203
v 0.032213 -0.115060 0.640203
v 0.032213 -0.115060 0.640203
v 0.032079 -0.115048 0.640203
v 0.032079 -0.115048 0.640203
v 0.032213 -0.115060 0.640203
v 0.032079 -0.115048 0.640203
v 0.032124 -0.115040 0.640203
v 0.032280 -0.115123 0.640203
v 0.032280 -0.115123 0.640203
v 0.032300 -0.115165 0.640203
v 0.032011 -0.115346 0.640203
v 0.032048 -0.115373 0.640203
v 0.032011 -0.115346 0.640203
v 0.031962 -0.115268 0.640203
v 0.031962 -0.115268 0.640203
v 0.031954 -0.115223 0.640203
v 0.032307 -0.115210 0.640203
v 0.032303 -0.115256 0.534642
v 0.032303 -0.115256 0.534642
v 0.032307 -0.115210 0.640203
v 0.032303 -0.115256 0.640203
v 0.032225 -0.115366 0.640203
v 0.032260 -0.115337 0.640203
v 0.032225 -0.115366 0.640203
v 0.032225 -0.115366 0.534642
v 0.032183 -0.115385 0.534642
v 0.032183 -0.115385 0.534642
v 0.032048 -0.115373 0.534642
v 0.032183 -0.115385 0.534642
v 0.032048 -0.115373 0.534642
v 0.032225 -0.115366 0.534642
v 0.032225 -0.115366 0.534642
v 0.032048 -0.115373 0.534642
v 0.032011 -0.115346 0.534642
v 0.032225 -0.115366 0.534642
v 0.032011 -0.115346 0.534642
v 0.032260 -0.115337 0.534642
v 0.032260 -0.115337 0.534642
v 0.032011 -0.115346 0.534642
v 0.032260 -0.115337 0.534642
v 0.032287 -0.115299 0.534642
v 0.032287 -0.115299 0.534642
v 0.031962 -0.115268 0.534642
v 0.032287 -0.115299 0.534642
v 0.031962 -0.115268 0.534642
v 0.032303 -0.115256 0.534642
v 0.032303 -0.115256 0.534642
v 0.031962 -0.115268 0.534642
v 0.031954 -0.115223 0.534642
v 0.032303 -0.115256 0.534642
v 0.031954 -0.115223 0.534642
v 0.032307 -0.115210 0.534642
v 0.032307 -0.115210 0.534642
v 0.031954 -0.115223 0.534642
v 0.032307 -0.115210 0.534642
v 0.032300 -0.115165 0.534642
v 0.032300 -0.115165 0.534642
v 0.032300 -0.115165 0.534642
v 0.032280 -0.115123 0.534642
v 0.032280 -0.115123 0.534642
v 0.032280 -0.115123 0.534642
v 0.032251 -0.115087 0.534642
v 0.032251 -0.115087 0.534642
v 0.032251 -0.115087 0.534642
v 0.032213 -0.115060 0.534642
v 0.032213 -0.115060 0.534642
v 0.032079 -0.115048 0.534642
v 0.032213 -0.115060 0.534642
v 0.032079 -0.115048 0.534642
v 0.032079 -0.115048 0.534642
v 0.032124 -0.115040 0.534642
v 0.032300 -0.115165 0.640203
v 0.032307 -0.115210 0.534642
v 0.032300 -0.115165 0.534642
v 0.032307 -0.115210 0.534642
v 0.032300 -0.115165 0.640203
v 0.032307 -0.115210 0.640203
v 0.032011 -0.115346 0.640203
v 0.031981 -0.115310 0.534642
v 0.032011 -0.115346 0.534642
v 0.031981 -0.115310 0.534642
v 0.032011 -0.115346 0.640203
v 0.031981 -0.115310 0.640203
v 0.031959 -0.115177 0.640203
v 0.031975 -0.115134 0.534642
v 0.031959 -0.115177 0.534642
v 0.031975 -0.115134 0.534642
v 0.031959 -0.115177 0.640203
v 0.031975 -0.115134 0.640203
v 0.032037 -0.115067 0.534642
v 0.032001 -0.115096 0.640203
v 0.032037 -0.115067 0.640203
v 0.032001 -0.115096 0.640203
v 0.032037 -0.115067 0.534642
v 0.032001 -0.115096 0.534642
v 0.032137 -0.115393 0.640203
v 0.032183 -0.115385 0.534642
v 0.032183 -0.115385 0.640203
v 0.032183 -0.115385 0.534642
v 0.032137 -0.115393 0.640203
v 0.032137 -0.115393 0.534642
v 0.031954 -0.115223 0.640203
v 0.031959 -0.115177 0.534642
v 0.031954 -0.115223 0.534642
v 0.031959 -0.115177 0.534642
v 0.031954 -0.115223 0.640203
v 0.031959 -0.115177 0.640203
v 0.032170 -0.115044 0.534642
v 0.032124 -0.115040 0.640203
v 0.032170 -0.115044 0.640203
v 0.032124 -0.115040 0.640203
v 0.032170 -0.115044 0.534642
v 0.032124 -0.115040 0.534642
v 0.032287 -0.115299 0.640203
v 0.032260 -0.115337 0.534642
v 0.032287 -0.115299 0.534642
v 0.032260 -0.115337 0.534642
v 0.032287 -0.115299 0.640203
v 0.032260 -0.115337 0.640203
v 0.031981 -0.115310 0.640203
v 0.031962 -0.115268 0.534642
v 0.031981 -0.115310 0.534642
v 0.031962 -0.115268 0.534642
v 0.031981 -0.115310 0.640203
v 0.031962 -0.115268 0.640203
v 0.032037 -0.115067 0.534642
v 0.032079 -0.115048 0.640203
v 0.032079 -0.115048 0.534642
v 0.032079 -0.115048 0.640203
v 0.032037 -0.115067 0.534642
v 0.032037 -0.115067 0.640203
v 0.032251 -0.115087 0.640203
v 0.032280 -0.115123 0.534642
v 0.032251 -0.115087 0.534642
v 0.032280 -0.115123 0.534642
v 0.032251 -0.115087 0.640203
v 0.032280 -0.115123 0.640203
v 0.032048 -0.115373 0.640203
v 0.032091 -0.115389 0.534642
v 0.032091 -0.115389 0.640203
v 0.032091 -0.115389 0.534642
v 0.032048 -0.115373 0.640203
v 0.032048 -0.115373 0.534642
v 0.031975 -0.115134 0.640203
v 0.032001 -0.115096 0.534642
v 0.031975 -0.115134 0.534642
v 0.032001 -0.115096 0.534642
v 0.031975 -0.115134 0.640203
v 0.032001 -0.115096 0.640203
v 0.032091 -0.115389 0.640203
v 0.032137 -0.115393 0.534642
v 0.032137 -0.115393 0.640203
v 0.032137 -0.115393 0.534642
v 0.032091 -0.115389 0.640203
v 0.032091 -0.115389 0.534642
v 0.032170 -0.115044 0.534642
v 0.032213 -0.115060 0.640203
v 0.032213 -0.115060 0.534642
v 0.032213 -0.115060 0.640203
v 0.032170 -0.115044 0.534642
v 0.032170 -0.115044 0.640203
f 1 2 3
f 2 1 4
f 5 6 7
f 6 5 8
f 9 10 11
f 10 9 12
f 13 14 15
f 14 13 16
f 49 17 18
f 17 50 19
f 19 51 52
f 19 53 20
f 20 54 21
f 20 21 22
f 22 21 55
f 22 56 23
f 23 57 58
f 23 59 24
f 24 60 25
f 24 25 26
f 26 25 27
f 26 27 28
f 28 27 29
f 28 29 30
f 30 29 61
f 30 62 31
f 31 63 64
f 31 65 66
f 67 68 32
f 69 32 70
f 71 33 34
f 33 72 73
f 74 35 75
f 35 76 36
f 77 37 38
f 37 78 79
f 80 81 39
f 82 83 84
f 85 40 86
f 40 87 88
f 41 89 42
f 90 41 91
f 92 93 94
f 95 96 97
f 98 99 100
f 101 102 43
f 103 43 104
f 105 43 106
f 107 108 109
f 110 111 112
f 113 114 115
f 116 117 44
f 118 44 119
f 120 44 45
f 121 45 122
f 123 45 46
f 124 46 125
f 126 46 47
f 127 47 128
f 129 47 130
f 131 132 48
f 48 133 134
f 135 136 137
f 138 139 140
f 141 142 143
f 144 145 146
f 147 148 149
f 150 151 152
f 153 154 155
f 156 157 158
f 159 160 161
f 162 163 164
f 165 166 167
f 168 169 170
f 171 172 173
f 174 175 176
f 177 178 179
f 180 181 182
f 183 184 185
f 186 187 188
f 189 190 191
f 192 193 194
f 195 196 197
f 198 199 200
f 201 202 203
f 204 205 206
f 207 208 209
f 210 211 212
f 213 214 215
f 216 217 218
f 219 220 221
f 222 223 224
