v -0.054806 -0.107713 0.324620
v -0.021224 -0.107533 0.333027
v -0.054828 -0.107533 0.324691
v -0.021217 -0.107713 0.332952
v -0.021227 -0.107339 0.333052
v -0.054835 -0.107339 0.324715
v -0.054828 -0.107146 0.324691
v -0.021224 -0.107146 0.333027
v -0.054806 -0.106965 0.324620
v -0.021217 -0.106965 0.332952
v -0.054771 -0.106811 0.324506
v -0.021205 -0.106811 0.332832
v -0.021189 -0.106692 0.332677
v -0.054726 -0.106692 0.324358
v -0.021171 -0.106617 0.332496
v -0.054673 -0.106617 0.324185
v -0.021152 -0.106592 0.332301
v -0.054616 -0.106592 0.324000
v -0.021132 -0.106617 0.332107
v -0.054559 -0.106617 0.323815
v -0.021114 -0.106692 0.331926
v -0.054506 -0.106692 0.323643
v -0.021099 -0.106811 0.331770
v -0.054461 -0.106811 0.323495
v -0.054426 -0.106965 0.323381
v -0.021087 -0.106965 0.331651
v -0.054404 -0.107146 0.323310
v -0.021080 -0.107146 0.331576
v -0.054396 -0.107339 0.323285
v -0.021077 -0.107339 0.331550
v -0.021080 -0.107533 0.331576
v -0.054404 -0.107533 0.323310
v -0.021087 -0.107713 0.331651
v -0.054426 -0.107713 0.323381
v -0.021099 -0.107868 0.331770
v -0.054461 -0.107868 0.323495
v -0.054506 -0.107987 0.323643
v -0.021114 -0.107987 0.331926
v -0.054559 -0.108061 0.323815
v -0.021132 -0.108061 0.332107
v -0.054616 -0.108087 0.324000
v -0.021152 -0.108087 0.332301
v -0.021189 -0.107987 0.332677
v -0.054771 -0.107868 0.324506
v -0.054726 -0.107987 0.324358
v -0.021205 -0.107868 0.332832
v -0.054673 -0.108061 0.324185
v -0.021171 -0.108061 0.332496
v 0.025533 -0.108421 0.330061
v 0.025518 -0.108576 0.329943
v 0.025330 -0.107854 0.328700
v 0.025328 -0.108047 0.328675
v 0.025339 -0.107673 0.328774
v 0.025355 -0.107519 0.328893
v 0.025376 -0.107400 0.329046
v 0.025401 -0.107325 0.329226
v 0.025429 -0.107300 0.329418
v 0.025388 -0.108695 0.329046
v 0.025415 -0.108769 0.329225
v 0.025365 -0.108576 0.328892
v 0.114781 -0.105538 0.307264
v 0.118479 -0.106602 0.306868
v 0.114781 -0.105546 0.307261
v 0.118493 -0.106422 0.306940
v 0.118453 -0.106757 0.306752
v 0.114780 -0.105553 0.307256
v 0.114778 -0.105558 0.307250
v 0.118418 -0.106876 0.306602
v 0.114776 -0.105561 0.307242
v 0.118375 -0.106951 0.306427
v 0.114774 -0.105562 0.307234
v 0.118329 -0.106977 0.306239
v 0.114772 -0.105561 0.307226
v 0.118282 -0.106952 0.306052
v 0.114770 -0.105558 0.307219
v 0.118237 -0.106878 0.305877
v 0.114769 -0.105553 0.307213
v 0.118197 -0.106759 0.305727
v 0.118165 -0.106605 0.305612
v 0.114767 -0.105546 0.307208
v 0.118144 -0.106425 0.305541
v 0.114767 -0.105538 0.307205
v 0.118134 -0.106231 0.305516
v 0.114766 -0.105530 0.307204
v 0.114766 -0.105522 0.307205
v 0.118137 -0.106038 0.305542
v 0.114767 -0.105514 0.307208
v 0.118151 -0.105857 0.305615
v 0.114768 -0.105508 0.307213
v 0.118177 -0.105702 0.305730
v 0.118212 -0.105583 0.305880
v 0.114769 -0.105502 0.307219
v 0.118255 -0.105508 0.306055
v 0.114771 -0.105499 0.307227
v 0.118301 -0.105482 0.306243
v 0.114773 -0.105498 0.307235
v 0.118348 -0.105508 0.306431
v 0.114775 -0.105499 0.307243
v 0.118393 -0.105582 0.306605
v 0.114777 -0.105502 0.307250
v 0.118433 -0.105700 0.306755
v 0.114779 -0.105507 0.307256
v 0.114780 -0.105514 0.307261
v 0.118465 -0.105855 0.306870
v 0.114781 -0.105522 0.307264
v 0.115131 -0.105570 0.307234
v 0.118486 -0.106035 0.306942
v 0.114782 -0.105530 0.307265
v 0.118496 -0.106228 0.306966
v 0.025484 -0.107400 0.329789
v 0.025508 -0.107519 0.329943
v 0.025526 -0.107673 0.330061
v 0.025334 -0.108241 0.328700
v 0.025542 -0.108241 0.330135
v 0.025443 -0.108795 0.329417
v 0.025471 -0.108769 0.329609
v 0.025539 -0.107854 0.330135
v 0.025544 -0.108047 0.330160
v 0.025346 -0.108421 0.328774
v 0.025496 -0.108695 0.329789
v -0.055775 -0.106617 0.323779
v -0.055775 -0.106592 0.323573
v -0.055775 -0.106617 0.323367
v -0.055775 -0.106692 0.323176
v -0.055775 -0.106692 0.323971
v -0.055775 -0.107713 0.324263
v -0.055775 -0.107533 0.324342
v -0.055775 -0.107533 0.322805
v -0.055775 -0.107713 0.322884
v -0.055775 -0.106811 0.324136
v -0.055775 -0.106811 0.323011
v -0.055775 -0.107339 0.324369
v -0.055775 -0.107146 0.324342
v -0.055775 -0.107339 0.322778
v -0.055775 -0.107868 0.324136
v -0.055775 -0.107146 0.322805
v -0.055775 -0.107868 0.323011
v -0.055775 -0.108087 0.323573
v -0.055775 -0.108061 0.323367
v -0.055775 -0.107987 0.323971
v -0.055775 -0.108061 0.323779
v -0.055775 -0.106965 0.324263
v -0.055775 -0.106965 0.322884
v -0.055775 -0.107987 0.323176
v -0.072222 -0.107868 0.318083
v -0.072222 -0.107713 0.318209
v -0.072222 -0.106965 0.318209
v -0.072222 -0.107146 0.318289
v -0.072222 -0.107339 0.318316
v -0.072222 -0.107533 0.318289
v -0.072222 -0.106811 0.318083
v -0.072122 -0.106692 0.317955
v -0.072222 -0.106715 0.317950
v -0.069720 -0.107713 0.317752
v -0.070147 -0.107868 0.317721
v -0.069406 -0.107533 0.317787
v -0.072222 -0.107987 0.317918
v -0.072222 -0.108061 0.317726
v -0.072222 -0.108067 0.317681
v -0.071794 -0.108087 0.317677
v -0.070440 -0.106617 0.317969
v -0.069959 -0.106692 0.317955
v -0.070986 -0.106592 0.317975
v -0.071221 -0.108061 0.317682
v -0.070659 -0.107987 0.317697
v 0.025457 -0.107325 0.329610
v -0.069576 -0.106811 0.317931
v -0.069228 -0.107339 0.317826
v -0.069197 -0.107146 0.317864
v -0.069316 -0.106965 0.317900
v -0.071560 -0.106617 0.317969
v 0.024923 -0.107317 0.329641
v 0.024915 -0.107317 0.329644
v 0.024929 -0.107317 0.329641
v 0.116158 -0.141962 0.176937
v 0.117142 -0.141374 0.180059
v 0.116345 -0.141913 0.176904
v 0.116935 -0.141435 0.180017
v -0.044163 -0.128199 0.323139
v -0.008753 -0.124911 0.295645
v -0.008861 -0.125030 0.295532
v -0.044072 -0.128082 0.323266
v -0.044272 -0.128532 0.322975
v -0.009021 -0.125559 0.295373
v -0.044283 -0.128725 0.322949
v -0.009000 -0.125365 0.295391
v -0.044264 -0.128919 0.322963
v -0.009008 -0.125754 0.295392
v -0.044215 -0.129100 0.323017
v -0.008960 -0.125935 0.295447
v -0.057108 -0.128199 0.349998
v -0.052383 -0.128353 0.332513
v -0.057230 -0.128353 0.349984
v -0.052268 -0.128199 0.332547
v -0.052119 -0.128082 0.332593
v -0.056951 -0.128082 0.350015
v 0.106218 -0.146139 0.152443
v 0.111223 -0.145904 0.154379
v 0.106306 -0.146258 0.152313
v 0.111132 -0.145786 0.154507
v -0.057334 -0.128725 0.349973
v -0.052461 -0.128919 0.332489
v -0.057311 -0.128919 0.349975
v -0.052483 -0.128725 0.332482
v -0.056552 -0.128532 0.365209
v -0.056580 -0.128725 0.365210
v -0.057307 -0.128532 0.349976
v 0.012784 -0.126166 0.269346
v 0.020301 -0.125030 0.276589
v 0.012912 -0.126283 0.269255
v 0.020187 -0.124910 0.276692
v 0.012641 -0.126093 0.269456
v 0.020058 -0.124834 0.276818
v 0.012492 -0.126068 0.269580
v 0.019925 -0.124807 0.276958
v 0.110666 -0.145906 0.155291
v 0.114117 -0.145301 0.157993
v 0.110738 -0.145787 0.155152
v 0.114001 -0.145426 0.158095
v -0.050477 -0.128010 0.328155
v -0.043849 -0.127986 0.323567
v -0.043965 -0.128010 0.323412
v -0.050313 -0.127986 0.328274
v 0.115950 -0.145744 0.163006
v 0.114134 -0.146472 0.158182
v 0.114280 -0.146582 0.158101
v 0.115780 -0.145646 0.163019
v -0.050631 -0.128082 0.328043
v -0.050764 -0.128199 0.327946
v -0.044231 -0.128353 0.323040
v -0.050866 -0.128353 0.327872
v -0.051591 -0.129458 0.332752
v -0.056591 -0.129481 0.350055
v -0.051776 -0.129481 0.332696
v -0.056397 -0.129458 0.350077
v 0.106429 -0.146592 0.152159
v 0.102811 -0.147269 0.149310
v 0.102792 -0.147075 0.149331
v 0.106457 -0.146784 0.152144
v -0.051418 -0.129385 0.332804
v -0.056214 -0.129385 0.350097
v 0.012099 -0.127183 0.270109
v 0.019510 -0.125735 0.277568
v 0.012026 -0.127005 0.270141
v 0.019574 -0.125915 0.277529
v 0.012203 -0.127336 0.270046
v 0.019667 -0.126070 0.277454
v 0.019781 -0.126189 0.277351
v 0.012331 -0.127453 0.269956
v 0.106458 -0.146977 0.152175
v 0.111355 -0.146803 0.154315
v 0.106434 -0.147157 0.152247
v 0.111381 -0.146624 0.154243
v 0.102296 -0.147236 0.150801
v 0.105695 -0.146591 0.153415
v 0.102295 -0.147043 0.150771
v 0.105696 -0.146784 0.153445
v -0.055633 -0.128014 0.365163
v -0.056200 -0.128091 0.350099
v -0.056380 -0.128014 0.350079
v -0.055454 -0.128091 0.365154
v -0.051268 -0.129268 0.332849
v -0.056057 -0.129268 0.350114
v 0.056008 -0.146475 0.153955
v 0.078747 -0.147477 0.149252
v 0.056007 -0.146668 0.153985
v 0.078747 -0.147284 0.149222
v 0.056021 -0.146847 0.154062
v 0.078752 -0.147655 0.149331
v -0.055928 -0.128367 0.350129
v -0.055112 -0.128548 0.365137
v -0.055855 -0.128548 0.350137
v -0.055184 -0.128367 0.365141
v -0.055089 -0.128742 0.365136
v -0.055831 -0.128742 0.350139
v -0.056786 -0.129454 0.350033
v -0.056214 -0.129377 0.365192
v -0.056966 -0.129377 0.350013
v -0.056035 -0.129454 0.365183
v 0.102812 -0.147462 0.149340
v -0.043622 -0.128091 0.323862
v -0.008140 -0.125034 0.296308
v -0.008243 -0.124914 0.296194
v -0.043526 -0.128211 0.323982
v 0.113878 -0.145767 0.158237
v 0.110616 -0.146060 0.155400
v 0.110590 -0.146240 0.155472
v 0.113919 -0.145585 0.158178
v 0.117750 -0.141486 0.180230
v 0.117038 -0.142199 0.176861
v 0.116898 -0.142062 0.176856
v 0.117903 -0.141613 0.180289
v 0.114261 -0.145219 0.157881
v 0.110828 -0.145713 0.154993
v 0.116728 -0.141965 0.176862
v 0.117563 -0.141400 0.180169
v 0.116539 -0.141914 0.176879
v 0.117356 -0.141362 0.180111
v 0.114915 -0.146547 0.157659
v 0.111144 -0.147151 0.154722
v 0.111233 -0.147076 0.154563
v 0.114771 -0.146629 0.157772
v 0.105848 -0.147311 0.153276
v 0.110674 -0.146805 0.155432
v 0.105775 -0.147157 0.153373
v 0.110748 -0.146959 0.155336
v -0.043594 -0.129385 0.323823
v -0.050163 -0.129458 0.328383
v -0.043701 -0.129458 0.323677
v -0.050009 -0.129385 0.328495
v 0.114443 -0.146648 0.158001
v 0.110839 -0.147077 0.155208
v 0.110940 -0.147151 0.155055
v 0.115105 -0.145698 0.157384
v 0.111379 -0.146431 0.154213
v 0.111351 -0.146238 0.154227
v 0.115151 -0.145889 0.157385
v 0.094883 -0.147975 0.150237
v 0.078851 -0.147906 0.150357
v 0.078832 -0.147985 0.150179
v 0.100229 -0.147971 0.150257
v 0.102523 -0.147970 0.150265
v 0.102457 -0.147891 0.150443
v 0.094882 -0.147896 0.150416
v 0.100229 -0.147893 0.150435
v 0.012474 -0.127527 0.269845
v 0.008482 -0.128353 0.264694
v 0.008642 -0.128422 0.264605
v 0.012623 -0.127551 0.269721
v 0.008807 -0.128443 0.264503
v 0.012768 -0.127525 0.269592
v 0.008968 -0.128413 0.264396
v 0.116498 -0.144389 0.162679
v 0.116802 -0.143071 0.170955
v 0.116668 -0.144488 0.162667
v 0.116632 -0.142977 0.170941
v 0.056351 -0.145811 0.155015
v 0.078884 -0.146727 0.150485
v 0.078870 -0.146612 0.150328
v 0.056389 -0.145927 0.155167
v 0.056303 -0.145739 0.154839
v 0.078853 -0.146541 0.150146
v 0.102757 -0.146893 0.149401
v 0.102708 -0.146736 0.149516
v 0.106378 -0.146412 0.152216
v 0.078868 -0.147784 0.150509
v 0.056385 -0.146826 0.155307
v 0.056345 -0.146983 0.155197
v 0.078883 -0.147627 0.150624
v 0.056414 -0.146645 0.155373
v 0.078893 -0.147445 0.150695
v -0.008658 -0.126286 0.295782
v -0.044044 -0.129377 0.323227
v -0.008779 -0.126211 0.295649
v -0.043934 -0.129454 0.323369
v 0.115154 -0.146081 0.157416
v -0.043817 -0.129481 0.323522
v -0.050491 -0.129454 0.328144
v -0.050327 -0.129481 0.328264
v -0.043503 -0.129268 0.323950
v -0.049876 -0.129268 0.328591
v 0.105724 -0.146977 0.153431
v 0.110592 -0.146433 0.155502
v 0.110621 -0.146625 0.155488
v -0.008945 -0.125185 0.295445
v 0.105935 -0.147429 0.153147
v -0.043383 -0.128742 0.324140
v -0.008014 -0.125371 0.296451
v -0.043403 -0.128548 0.324126
v -0.008001 -0.125566 0.296471
v 0.105719 -0.146412 0.153342
v 0.116955 -0.142799 0.180237
v 0.116009 -0.143226 0.177173
v 0.116179 -0.143323 0.177167
v 0.116768 -0.142713 0.180176
v 0.105768 -0.146258 0.153232
v -0.008161 -0.126095 0.296311
v -0.008269 -0.126214 0.296198
v 0.115032 -0.146422 0.157558
v 0.111305 -0.146958 0.154424
v -0.044140 -0.129256 0.323107
v -0.008882 -0.126091 0.295535
v 0.114610 -0.146664 0.157888
v 0.111044 -0.147176 0.154890
v 0.056194 -0.145745 0.154467
v 0.078834 -0.146520 0.149952
v 0.078814 -0.146550 0.149760
v 0.056250 -0.145716 0.154652
v 0.056140 -0.145822 0.154296
v 0.078795 -0.146628 0.149581
v 0.032306 -0.144193 0.163546
v 0.032392 -0.144167 0.163720
v 0.032223 -0.144269 0.163386
v 0.114753 -0.145266 0.157552
v 0.114899 -0.145376 0.157470
v 0.020458 -0.125364 0.276475
v 0.013125 -0.126806 0.269162
v 0.013089 -0.126615 0.269160
v 0.020491 -0.125557 0.276473
v 0.020393 -0.125185 0.276514
v 0.013016 -0.126436 0.269192
v 0.032296 -0.145658 0.163775
v 0.018978 -0.144298 0.171409
v 0.032214 -0.145633 0.163599
v 0.019099 -0.144327 0.171562
v 0.032382 -0.145631 0.163949
v 0.019225 -0.144304 0.171712
v 0.008501 -0.126993 0.264450
v 0.008661 -0.126964 0.264343
v 0.012347 -0.126094 0.269709
v 0.008356 -0.127072 0.264555
v 0.012217 -0.126169 0.269834
v 0.115772 -0.144118 0.171150
v 0.115540 -0.145340 0.163008
v 0.115640 -0.145508 0.163020
v 0.115672 -0.143953 0.171124
v 0.115870 -0.143089 0.177168
v 0.115770 -0.142922 0.177153
v 0.115761 -0.144476 0.162822
v 0.116060 -0.142985 0.170952
v 0.115928 -0.144382 0.162777
v 0.115893 -0.143083 0.170971
v 0.115991 -0.142057 0.176976
v -0.008394 -0.126288 0.296066
v 0.116115 -0.144335 0.162737
v 0.114422 -0.145185 0.157764
v 0.116519 -0.145751 0.162908
v 0.116333 -0.145799 0.162949
v 0.106315 -0.147429 0.152497
v 0.102657 -0.147979 0.149879
v 0.102715 -0.147908 0.149698
v 0.106229 -0.147504 0.152657
v 0.106032 -0.147504 0.152993
v 0.113927 -0.146150 0.158269
v 0.114013 -0.146325 0.158240
v 0.102398 -0.147769 0.150595
v 0.113881 -0.145960 0.158268
v 0.110927 -0.145687 0.154825
v -0.051961 -0.129454 0.332640
v 0.115019 -0.145524 0.157413
v 0.116907 -0.144794 0.162677
v 0.116807 -0.144626 0.162666
v 0.056243 -0.147181 0.154880
v 0.056187 -0.147210 0.154695
v 0.056297 -0.147104 0.155051
v 0.032465 -0.145556 0.164109
v 0.019347 -0.144232 0.171849
v 0.019457 -0.144117 0.171964
v 0.006124 -0.141719 0.186554
v 0.006255 -0.141607 0.186644
v 0.000647 -0.140655 0.192722
v -0.002678 -0.139076 0.201363
v 0.000499 -0.140570 0.192626
v -0.002512 -0.139170 0.201410
v 0.102314 -0.147430 0.150780
v 0.056092 -0.145944 0.154150
v 0.078777 -0.146751 0.149429
v 0.078763 -0.146908 0.149314
v 0.056052 -0.146100 0.154041
v 0.102344 -0.146712 0.150571
v 0.102311 -0.146865 0.150693
v 0.102649 -0.146613 0.149668
v -0.050774 -0.129256 0.327939
v -0.050644 -0.129377 0.328034
v -0.052457 -0.128532 0.332490
v -0.050955 -0.128725 0.327808
v -0.050931 -0.128532 0.327825
v -0.055843 -0.129481 0.365174
v -0.055649 -0.129458 0.365164
v 0.106133 -0.147529 0.152826
v 0.102591 -0.148000 0.150073
v 0.008144 -0.127912 0.264833
v 0.008225 -0.128089 0.264812
v 0.008340 -0.128239 0.264765
v 0.117191 -0.142553 0.176901
v 0.118074 -0.142150 0.180416
v 0.117194 -0.142745 0.176934
v 0.118071 -0.141957 0.180385
v 0.013082 -0.127177 0.269263
v 0.020384 -0.126080 0.276678
v 0.013005 -0.127332 0.269355
v 0.020452 -0.125927 0.276578
v 0.013123 -0.126998 0.269197
v 0.020489 -0.125749 0.276508
v 0.116138 -0.145796 0.162982
v 0.032019 -0.144916 0.163072
v 0.032018 -0.145109 0.163102
v 0.032039 -0.145289 0.163176
v 0.117137 -0.142366 0.176877
v 0.118013 -0.141774 0.180342
v -0.008526 -0.126313 0.295924
v 0.117146 -0.142931 0.176972
v 0.117916 -0.142512 0.180434
v 0.117052 -0.143097 0.177013
v 0.118021 -0.142339 0.180433
v -0.050873 -0.129100 0.327867
v -0.052391 -0.129100 0.332510
v -0.050935 -0.128919 0.327822
v -0.056045 -0.128211 0.350116
v -0.055301 -0.128211 0.365147
v -0.008077 -0.125940 0.296398
v -0.043394 -0.128935 0.324114
v -0.043435 -0.129115 0.324049
v -0.008022 -0.125760 0.296453
v 0.115531 -0.144776 0.162914
v 0.115626 -0.144610 0.162869
v -0.049767 -0.128367 0.328671
v -0.049866 -0.128211 0.328599
v -0.043451 -0.128367 0.324072
v 0.111297 -0.146059 0.154283
v 0.094885 -0.147797 0.149512
v 0.078775 -0.147923 0.149610
v 0.078761 -0.147807 0.149453
v 0.100232 -0.147794 0.149531
v 0.102762 -0.147792 0.149541
v 0.094885 -0.147913 0.149669
v 0.100231 -0.147909 0.149689
v -0.002490 -0.137808 0.201181
v 0.000835 -0.139230 0.192582
v 0.000667 -0.139292 0.192500
v -0.002301 -0.137756 0.201206
v -0.002660 -0.137907 0.201167
v 0.000515 -0.139399 0.192435
v 0.011990 -0.126813 0.270139
v 0.008107 -0.127529 0.264791
v 0.008104 -0.127721 0.264826
v 0.011992 -0.126621 0.270105
v 0.117583 -0.142763 0.180390
v 0.116563 -0.143376 0.177125
v 0.116750 -0.143327 0.177092
v 0.117376 -0.142825 0.180347
v 0.056430 -0.146258 0.155362
v 0.078894 -0.146879 0.150607
v 0.056416 -0.146080 0.155285
v 0.078899 -0.147058 0.150686
v 0.106385 -0.147311 0.152357
v 0.094881 -0.146602 0.150386
v 0.100228 -0.146598 0.150406
v 0.102392 -0.146597 0.150414
v 0.094881 -0.146717 0.150544
v 0.100227 -0.146714 0.150563
v 0.115912 -0.144252 0.171171
v 0.116368 -0.143374 0.177151
v 0.117162 -0.142837 0.180295
v 0.116960 -0.144980 0.162700
v 0.117099 -0.143748 0.171066
v 0.116963 -0.145172 0.162732
v 0.117096 -0.143556 0.171033
v -0.051575 -0.128014 0.332757
v -0.049997 -0.128091 0.328504
v -0.050149 -0.128014 0.328393
v -0.051404 -0.128091 0.332808
v 0.019909 -0.126265 0.277225
v 0.020042 -0.126292 0.277085
v 0.020172 -0.126269 0.276941
v 0.032669 -0.144908 0.164422
v 0.019649 -0.143402 0.172076
v 0.019647 -0.143594 0.172106
v 0.032670 -0.144715 0.164392
v 0.032650 -0.144536 0.164318
v 0.019618 -0.143221 0.172008
v 0.032608 -0.144382 0.164205
v 0.019557 -0.143066 0.171906
v 0.116615 -0.142585 0.180118
v 0.117042 -0.143371 0.171002
v 0.116942 -0.143205 0.170975
v 0.116822 -0.145523 0.162817
v 0.116821 -0.144240 0.171154
v 0.116686 -0.145657 0.162863
v 0.116956 -0.144102 0.171128
v 0.116917 -0.143232 0.177054
v 0.078753 -0.147090 0.149243
v 0.094886 -0.147274 0.149281
v 0.094886 -0.147080 0.149302
v 0.100232 -0.147076 0.149322
v 0.100232 -0.147270 0.149301
v 0.102795 -0.147640 0.149419
v 0.056429 -0.146451 0.155392
v 0.005553 -0.141690 0.186073
v 0.000378 -0.140443 0.192538
v 0.005448 -0.141566 0.185964
v 0.005682 -0.141771 0.186194
v -0.003114 -0.130901 0.242151
v -0.002944 -0.130814 0.242100
v -0.003255 -0.131030 0.242203
v -0.002799 -0.138045 0.201165
v -0.043732 -0.128014 0.323720
v -0.008364 -0.124839 0.296062
v -0.008496 -0.124812 0.295919
v -0.008628 -0.124837 0.295777
v 0.116309 -0.144337 0.162703
v 0.114590 -0.145201 0.157652
v 0.105838 -0.146139 0.153093
v -0.008062 -0.125190 0.296396
v 0.116505 -0.142424 0.180065
v -0.002814 -0.138942 0.201316
v 0.000294 -0.140282 0.192464
v -0.002908 -0.138777 0.201270
v 0.056048 -0.146999 0.154180
v 0.056086 -0.147116 0.154332
v 0.115113 -0.146263 0.157475
v -0.049774 -0.129115 0.328666
v -0.051153 -0.129115 0.332884
v -0.049709 -0.128935 0.328713
v -0.051080 -0.128935 0.332906
v 0.116916 -0.145358 0.162772
v -0.049686 -0.128742 0.328730
v -0.051053 -0.128742 0.332914
v 0.115484 -0.144961 0.162953
v -0.049705 -0.128548 0.328716
v -0.051076 -0.128548 0.332908
v -0.001475 -0.138378 0.201463
v -0.001928 -0.131643 0.242026
v -0.001478 -0.138571 0.201495
v -0.001925 -0.131451 0.241992
v -0.001523 -0.138193 0.201423
v -0.001972 -0.131262 0.241970
v -0.001617 -0.138028 0.201377
v -0.002067 -0.131091 0.241961
v 0.018882 -0.143050 0.171078
v 0.032087 -0.144543 0.163149
v 0.018792 -0.143202 0.170994
v 0.032148 -0.144388 0.163250
v 0.032043 -0.144723 0.163088
v 0.018727 -0.143380 0.170945
v -0.002203 -0.130948 0.241966
v 0.001658 -0.129700 0.250097
v 0.001536 -0.129552 0.250132
v -0.002371 -0.130843 0.241983
v 0.001386 -0.129441 0.250189
v 0.115716 -0.142736 0.177128
v 0.116447 -0.142241 0.180021
v 0.116497 -0.141860 0.179973
v 0.115855 -0.142192 0.177017
v 0.115761 -0.142358 0.177058
v 0.116602 -0.141687 0.179972
v 0.008237 -0.127193 0.264651
v 0.012110 -0.126288 0.269947
v 0.012033 -0.126442 0.270039
v 0.008152 -0.127349 0.264732
v 0.019796 -0.124831 0.277102
v 0.019680 -0.124903 0.277241
v 0.019584 -0.125020 0.277365
v 0.000391 -0.139545 0.192391
v -0.002899 -0.138213 0.201176
v 0.000302 -0.139718 0.192372
v -0.002953 -0.138400 0.201198
v 0.000254 -0.139907 0.192378
v 0.115713 -0.142544 0.177096
v 0.116444 -0.142049 0.179990
v 0.115487 -0.145153 0.162986
v -0.056557 -0.128919 0.365209
v -0.056484 -0.129100 0.365205
v -0.056476 -0.128353 0.365205
v -0.056368 -0.129256 0.365200
v -0.056356 -0.128199 0.365199
v -0.056200 -0.128082 0.365191
v -0.056019 -0.128010 0.365182
v -0.055826 -0.127986 0.365173
v -0.055469 -0.129385 0.365155
v -0.055313 -0.129268 0.365147
v -0.055193 -0.129115 0.365141
v -0.055116 -0.128935 0.365138
v 0.094886 -0.147467 0.149311
v 0.094886 -0.147645 0.149390
v 0.100232 -0.147642 0.149409
v 0.100232 -0.147463 0.149331
v 0.094882 -0.146531 0.150205
v 0.100229 -0.146528 0.150224
v 0.102450 -0.146526 0.150232
v 0.000251 -0.140100 0.192410
v 0.005340 -0.141034 0.185784
v 0.005338 -0.141227 0.185815
v 0.005374 -0.141408 0.185876
v -0.052133 -0.129377 0.332588
v 0.094884 -0.147983 0.149851
v 0.078812 -0.148015 0.149986
v 0.078792 -0.147993 0.149792
v 0.100231 -0.147980 0.149870
v 0.094884 -0.148005 0.150045
v 0.100230 -0.148001 0.150064
v -0.051145 -0.128367 0.332887
v -0.055936 -0.129115 0.350128
v 0.115758 -0.143221 0.170997
v 0.094881 -0.147435 0.150753
v 0.078899 -0.147251 0.150716
v 0.094880 -0.147241 0.150774
v 0.100227 -0.147237 0.150794
v 0.100227 -0.147431 0.150773
v -0.055859 -0.128935 0.350136
v -0.051257 -0.128211 0.332853
v 0.094885 -0.146740 0.149488
v 0.100231 -0.146737 0.149507
v 0.094884 -0.146618 0.149640
v 0.100231 -0.146615 0.149659
v -0.052279 -0.129256 0.332544
v 0.116443 -0.142930 0.170936
v 0.116248 -0.142932 0.170940
v 0.111031 -0.145712 0.154660
v 0.116751 -0.141542 0.179987
v -0.051945 -0.128010 0.332645
v 0.006448 -0.140718 0.186653
v 0.001571 -0.139810 0.193086
v 0.006485 -0.140899 0.186714
v 0.001529 -0.139627 0.193032
v 0.006375 -0.140560 0.186565
v 0.001444 -0.139467 0.192958
v 0.019240 -0.142840 0.171480
v 0.032475 -0.144191 0.163895
v 0.019362 -0.142868 0.171633
v 0.019115 -0.142863 0.171330
v 0.018992 -0.142934 0.171193
v 0.018693 -0.143572 0.170936
v 0.018691 -0.143765 0.170966
v 0.116466 -0.144391 0.171186
v 0.116271 -0.144393 0.171189
v -0.056574 -0.127986 0.350057
v -0.003133 -0.132070 0.242355
v -0.003269 -0.131927 0.242359
v -0.002966 -0.132174 0.242337
v -0.001753 -0.137894 0.201330
v -0.001919 -0.137800 0.201283
v 0.001735 -0.130439 0.250185
v 0.009232 -0.128214 0.264195
v 0.001645 -0.130596 0.250257
v 0.009317 -0.128057 0.264114
v 0.001783 -0.130258 0.250130
v 0.009362 -0.127877 0.264055
v 0.001786 -0.130065 0.250096
v 0.009365 -0.127685 0.264020
v 0.000704 -0.130637 0.250735
v 0.000854 -0.130749 0.250679
v 0.001022 -0.130815 0.250606
v -0.002324 -0.139217 0.201452
v -0.002778 -0.132234 0.242307
v -0.002130 -0.139215 0.201487
v -0.002582 -0.132244 0.242268
v -0.001941 -0.139162 0.201512
v -0.002393 -0.132204 0.242220
v 0.000505 -0.129751 0.250682
v -0.003355 -0.131192 0.242252
v 0.000595 -0.129593 0.250611
v 0.000457 -0.129932 0.250737
v -0.003409 -0.131375 0.242295
v 0.000455 -0.130124 0.250772
v -0.003412 -0.131567 0.242328
v 0.001743 -0.129875 0.250084
v 0.009324 -0.127494 0.264013
v 0.009244 -0.127318 0.264034
v 0.001197 -0.130833 0.250521
v 0.001367 -0.130800 0.250431
v 0.001520 -0.130719 0.250341
v -0.002222 -0.132116 0.242169
v -0.002082 -0.131987 0.242117
v 0.000497 -0.130314 0.250783
v -0.003364 -0.131755 0.242350
v 0.000582 -0.130489 0.250770
v 0.009129 -0.127167 0.264082
v 0.008986 -0.127054 0.264152
v 0.001218 -0.129374 0.250261
v 0.008827 -0.126984 0.264241
v 0.032548 -0.144264 0.164061
v -0.001981 -0.131826 0.242068
v 0.056023 -0.146281 0.153974
v 0.001043 -0.129356 0.250346
v 0.000874 -0.129389 0.250436
v -0.002956 -0.138592 0.201230
v 0.000721 -0.129470 0.250527
v 0.006441 -0.141283 0.186744
v 0.019613 -0.143786 0.172097
v 0.006482 -0.141092 0.186745
v 0.116654 -0.144339 0.171174
v 0.032602 -0.145281 0.164346
v 0.019548 -0.143964 0.172048
v 0.032646 -0.145101 0.164407
v 0.116082 -0.144346 0.171184
v 0.018870 -0.144221 0.171264
v 0.005827 -0.141804 0.186321
v 0.005978 -0.141786 0.186443
v 0.115618 -0.143768 0.171093
v -0.001771 -0.139063 0.201526
v -0.001632 -0.138925 0.201528
v 0.117767 -0.142657 0.180419
v -0.057238 -0.129100 0.349983
v 0.102583 -0.146535 0.149846
v 0.106121 -0.146065 0.152596
v -0.057120 -0.129256 0.349996
v 0.094881 -0.147774 0.150568
v 0.094881 -0.147617 0.150683
v 0.100228 -0.147613 0.150702
v 0.100228 -0.147771 0.150587
v 0.102349 -0.147612 0.150710
v 0.094885 -0.146898 0.149373
v 0.100232 -0.146895 0.149392
v 0.115615 -0.143575 0.171060
v 0.115663 -0.143389 0.171027
v 0.018721 -0.143945 0.171034
v 0.018783 -0.144101 0.171136
v 0.032080 -0.145442 0.163289
v 0.094883 -0.146540 0.149818
v 0.100230 -0.146536 0.149838
v 0.102515 -0.146505 0.150039
v 0.094883 -0.146510 0.150011
v 0.100229 -0.146507 0.150030
v 0.032140 -0.145560 0.163433
v -0.056769 -0.128010 0.350035
v -0.051760 -0.127986 0.332701
v 0.105924 -0.146065 0.152933
v 0.000814 -0.140693 0.192821
v 0.000987 -0.140680 0.192914
v 0.001156 -0.140618 0.192996
v -0.002559 -0.130784 0.242013
v -0.002107 -0.137753 0.201241
v -0.002754 -0.130774 0.242053
v 0.106020 -0.146039 0.152763
v 0.006364 -0.141458 0.186709
v 0.006270 -0.140436 0.186456
v 0.019470 -0.142945 0.171778
v 0.006141 -0.140355 0.186335
v 0.005996 -0.140323 0.186208
v 0.005567 -0.140519 0.185885
v 0.005699 -0.140407 0.185975
v 0.005459 -0.140668 0.185820
v 0.001307 -0.140510 0.193061
v 0.005845 -0.140340 0.186086
v 0.001431 -0.140365 0.193104
v 0.001521 -0.140192 0.193124
v 0.001568 -0.140003 0.193118
v 0.001324 -0.139340 0.192870
v 0.001175 -0.139255 0.192773
v 0.001008 -0.139217 0.192675
v 0.009113 -0.128335 0.264291
v 0.005381 -0.140844 0.185785
v 0.094881 -0.146869 0.150666
v 0.094880 -0.147048 0.150744
v 0.100227 -0.147044 0.150764
v 0.100227 -0.146866 0.150685
v 0.117051 -0.143935 0.171098
v -0.001532 -0.138757 0.201518
v 0.019516 -0.125172 0.277465
v 0.019479 -0.125351 0.277535
v 0.019477 -0.125543 0.277570
v 0.056134 -0.147187 0.154508
v 0.032540 -0.145436 0.164244
v 0.020288 -0.126196 0.276802
v 0.012898 -0.127450 0.269467
v 0.030504 -0.124764 0.286026
v 0.030399 -0.124733 0.286190
v 0.030605 -0.124744 0.285858
v 0.030697 -0.124676 0.285699
v 0.030298 -0.124653 0.286339
v 0.030772 -0.124562 0.285558
v 0.030208 -0.124530 0.286464
v 0.030826 -0.124411 0.285445
v 0.030134 -0.124372 0.286555
v 0.030855 -0.124234 0.285368
v 0.030083 -0.124190 0.286606
v 0.030857 -0.124042 0.285333
v 0.030058 -0.123997 0.286614
v 0.030831 -0.123849 0.285341
v 0.030060 -0.123805 0.286579
v 0.030780 -0.123667 0.285392
v 0.030088 -0.123628 0.286502
v 0.030707 -0.123509 0.285483
v 0.030142 -0.123477 0.286389
v 0.030617 -0.123386 0.285607
v 0.030218 -0.123364 0.286248
v 0.030516 -0.123306 0.285757
v 0.030309 -0.123295 0.286088
v 0.030411 -0.123275 0.285921
f 1 2 3
f 2 1 4
f 3 5 6
f 5 3 2
f 5 7 6
f 7 5 8
f 8 9 7
f 9 8 10
f 10 11 9
f 11 10 12
f 11 13 14
f 13 11 12
f 14 15 16
f 15 14 13
f 16 17 18
f 17 16 15
f 18 19 20
f 19 18 17
f 20 21 22
f 21 20 19
f 22 23 24
f 23 22 21
f 23 25 24
f 25 23 26
f 26 27 25
f 27 26 28
f 28 29 27
f 29 28 30
f 29 31 32
f 31 29 30
f 32 33 34
f 33 32 31
f 34 35 36
f 35 34 33
f 35 37 36
f 37 35 38
f 38 39 37
f 39 38 40
f 40 41 39
f 41 40 42
f 43 44 45
f 44 43 46
f 44 4 1
f 4 44 46
f 42 47 41
f 47 42 48
f 48 45 47
f 45 48 43
f 46 49 4
f 49 46 50
f 51 30 28
f 30 51 52
f 53 28 26
f 28 53 51
f 54 26 23
f 26 54 53
f 23 55 54
f 55 23 21
f 21 56 55
f 19 56 21
f 17 57 19
f 38 58 59
f 40 38 59
f 35 60 58
f 38 35 58
f 61 62 63
f 62 61 64
f 63 65 66
f 65 63 62
f 67 65 68
f 65 67 66
f 69 68 70
f 68 69 67
f 71 70 72
f 70 71 69
f 73 72 74
f 72 73 71
f 75 74 76
f 74 75 73
f 77 76 78
f 76 77 75
f 77 79 80
f 79 77 78
f 80 81 82
f 81 80 79
f 82 83 84
f 83 82 81
f 83 85 84
f 85 83 86
f 86 87 85
f 87 86 88
f 88 89 87
f 89 88 90
f 91 89 90
f 89 91 92
f 93 92 91
f 92 93 94
f 95 94 93
f 94 95 96
f 97 96 95
f 96 97 98
f 99 98 97
f 98 99 100
f 101 100 99
f 100 101 102
f 101 103 102
f 103 101 104
f 104 105 103
f 105 104 106
f 106 104 107
f 106 108 105
f 108 106 109
f 109 106 107
f 108 64 61
f 64 108 109
f 13 110 15
f 13 111 110
f 112 12 10
f 30 113 31
f 113 30 52
f 4 114 2
f 114 4 49
f 42 115 116
f 48 42 116
f 40 59 115
f 42 40 115
f 117 10 8
f 117 112 10
f 118 8 5
f 8 118 117
f 2 118 5
f 118 2 114
f 60 35 33
f 60 33 119
f 119 33 31
f 119 31 113
f 50 43 120
f 43 50 46
f 48 116 120
f 43 48 120
f 121 18 122
f 18 121 16
f 123 22 124
f 22 123 20
f 125 16 121
f 16 125 14
f 126 3 127
f 3 126 1
f 128 34 129
f 34 128 32
f 130 14 125
f 14 130 11
f 124 24 131
f 24 124 22
f 127 6 132
f 6 127 3
f 6 133 132
f 133 6 7
f 29 128 134
f 128 29 32
f 135 1 126
f 1 135 44
f 27 134 136
f 134 27 29
f 129 36 137
f 36 129 34
f 39 138 139
f 138 39 41
f 47 140 141
f 140 47 45
f 7 142 133
f 142 7 9
f 45 135 140
f 135 45 44
f 24 143 131
f 143 24 25
f 37 139 144
f 139 37 39
f 25 136 143
f 136 25 27
f 122 20 123
f 20 122 18
f 41 141 138
f 141 41 47
f 36 144 137
f 144 36 37
f 9 130 142
f 130 9 11
f 70 115 72
f 115 70 116
f 72 59 74
f 59 72 115
f 145 126 146
f 126 145 135
f 133 147 148
f 147 133 142
f 132 148 149
f 148 132 133
f 150 132 149
f 132 150 127
f 146 127 150
f 127 146 126
f 68 116 70
f 116 68 120
f 64 118 114
f 118 64 109
f 62 114 49
f 114 62 64
f 79 60 119
f 60 79 78
f 81 119 113
f 119 81 79
f 83 113 52
f 113 83 81
f 151 152 153
f 152 151 125
f 125 151 130
f 142 151 147
f 151 142 130
f 154 137 155
f 137 154 129
f 156 129 154
f 129 156 128
f 140 145 157
f 145 140 135
f 141 157 158
f 157 141 140
f 138 159 160
f 159 138 158
f 158 138 141
f 161 124 162
f 124 161 123
f 163 123 161
f 123 163 122
f 164 138 160
f 138 164 139
f 165 139 164
f 139 165 144
f 155 144 165
f 144 155 137
f 54 91 90
f 91 54 55
f 55 93 91
f 93 55 56
f 57 97 95
f 97 57 106
f 106 57 166
f 106 99 97
f 99 106 110
f 110 106 166
f 74 58 76
f 58 74 59
f 162 131 167
f 131 162 124
f 168 128 156
f 128 168 134
f 169 134 168
f 134 169 136
f 143 169 170
f 169 143 136
f 131 170 167
f 170 131 143
f 51 83 52
f 83 51 86
f 53 86 51
f 86 53 88
f 110 101 99
f 101 110 111
f 65 120 68
f 120 65 50
f 54 88 53
f 88 54 90
f 112 101 111
f 101 112 104
f 117 104 112
f 104 117 107
f 118 107 117
f 107 118 109
f 121 163 171
f 163 121 122
f 125 171 152
f 171 125 121
f 65 49 50
f 49 65 62
f 76 60 78
f 60 76 58
f 56 95 93
f 95 56 57
f 19 57 56
f 172 173 174
f 173 172 17
f 173 17 15
f 173 110 166
f 110 173 15
f 57 174 166
f 174 57 17
f 174 17 172
f 12 111 13
f 112 111 12
f 175 176 177
f 176 175 178
f 179 180 181
f 180 179 182
f 183 184 185
f 184 183 186
f 184 187 185
f 187 184 188
f 188 189 187
f 189 188 190
f 191 192 193
f 192 191 194
f 191 195 194
f 195 191 196
f 197 198 199
f 198 197 200
f 201 202 203
f 202 201 204
f 205 201 206
f 201 205 207
f 208 209 210
f 209 208 211
f 212 211 208
f 211 212 213
f 214 213 212
f 213 214 215
f 216 217 218
f 217 216 219
f 220 221 222
f 221 220 223
f 224 225 226
f 225 224 227
f 228 222 182
f 222 228 220
f 229 182 179
f 182 229 228
f 229 230 231
f 230 229 179
f 232 233 234
f 233 232 235
f 236 237 238
f 237 236 239
f 240 235 232
f 235 240 241
f 242 243 244
f 243 242 245
f 246 245 242
f 245 246 247
f 248 246 249
f 246 248 247
f 250 251 252
f 251 250 253
f 254 255 256
f 255 254 257
f 258 259 260
f 259 258 261
f 262 241 240
f 241 262 263
f 264 265 266
f 265 264 267
f 265 268 266
f 268 265 269
f 270 271 272
f 271 270 273
f 272 274 275
f 274 272 271
f 276 277 278
f 277 276 279
f 239 280 237
f 280 239 250
f 281 282 283
f 282 281 284
f 285 286 287
f 286 285 288
f 289 290 291
f 290 289 292
f 218 293 294
f 293 218 217
f 295 289 291
f 289 295 296
f 297 296 295
f 296 297 298
f 299 300 301
f 300 299 302
f 177 298 297
f 298 177 176
f 303 304 305
f 304 303 306
f 307 308 309
f 308 307 310
f 311 312 313
f 312 311 226
f 314 315 316
f 315 314 317
f 318 319 320
f 319 318 321
f 319 321 322
f 319 322 323
f 319 323 324
f 324 323 325
f 326 327 328
f 327 326 249
f 329 328 330
f 328 329 326
f 331 330 332
f 330 331 329
f 333 334 335
f 334 333 336
f 334 336 295
f 334 295 291
f 337 338 339
f 338 337 340
f 341 339 342
f 339 341 337
f 199 343 344
f 343 199 345
f 346 347 348
f 347 346 349
f 349 350 347
f 350 349 351
f 352 353 354
f 353 352 355
f 317 253 315
f 253 317 356
f 357 358 355
f 358 357 359
f 360 310 307
f 310 360 361
f 362 363 257
f 363 362 364
f 309 359 357
f 359 309 308
f 230 181 365
f 181 230 179
f 312 303 366
f 303 312 306
f 230 186 183
f 186 230 365
f 305 364 362
f 364 305 304
f 367 368 369
f 368 367 370
f 287 371 255
f 371 287 286
f 372 373 374
f 373 372 375
f 286 376 371
f 376 286 216
f 377 307 378
f 307 377 360
f 379 301 380
f 301 379 299
f 190 381 189
f 381 190 382
f 383 313 384
f 313 383 311
f 354 381 382
f 381 354 353
f 385 386 387
f 386 385 388
f 389 387 390
f 387 389 385
f 391 388 385
f 388 391 392
f 393 385 389
f 385 393 391
f 394 335 395
f 335 394 333
f 396 397 398
f 397 396 399
f 400 398 401
f 398 400 396
f 209 401 210
f 401 209 400
f 402 403 404
f 403 402 405
f 406 405 402
f 405 406 407
f 408 214 409
f 214 408 410
f 411 410 408
f 410 411 412
f 413 414 415
f 414 413 416
f 416 413 417
f 416 417 418
f 419 420 421
f 420 419 422
f 420 422 175
f 175 422 423
f 378 309 424
f 309 378 307
f 302 384 300
f 384 302 383
f 257 287 255
f 287 257 363
f 293 425 426
f 425 293 421
f 427 383 302
f 383 427 428
f 429 430 431
f 430 429 432
f 313 366 433
f 366 313 312
f 304 434 364
f 434 304 435
f 366 436 323
f 436 366 303
f 364 437 363
f 437 364 434
f 294 426 438
f 426 294 293
f 359 439 358
f 439 359 234
f 440 441 314
f 441 440 442
f 308 234 359
f 234 308 232
f 443 402 444
f 402 443 406
f 445 406 443
f 406 445 446
f 446 407 406
f 407 446 447
f 448 449 447
f 449 448 450
f 451 452 453
f 452 451 454
f 455 257 254
f 257 455 362
f 456 390 457
f 390 456 389
f 456 458 459
f 458 456 457
f 371 460 461
f 460 371 376
f 462 199 344
f 199 462 197
f 353 463 381
f 463 353 464
f 465 466 204
f 466 465 467
f 192 467 465
f 467 192 231
f 235 468 233
f 468 235 469
f 470 322 471
f 322 470 433
f 242 472 473
f 472 242 244
f 246 473 474
f 473 246 242
f 249 474 327
f 474 249 246
f 475 476 477
f 476 475 478
f 479 480 481
f 480 479 482
f 483 482 479
f 482 483 484
f 397 484 483
f 484 397 399
f 428 311 383
f 311 428 485
f 486 266 487
f 266 486 264
f 266 488 487
f 488 266 268
f 489 478 475
f 478 489 490
f 491 355 352
f 355 491 357
f 492 493 494
f 493 492 495
f 355 464 353
f 464 355 358
f 202 496 497
f 496 202 498
f 499 273 270
f 273 499 500
f 501 502 503
f 502 501 504
f 504 367 502
f 367 504 370
f 185 498 466
f 498 185 187
f 505 219 288
f 219 505 506
f 507 284 508
f 284 507 509
f 204 498 202
f 498 204 466
f 510 236 345
f 236 510 316
f 301 432 429
f 432 301 300
f 511 512 513
f 512 511 514
f 512 514 515
f 512 515 431
f 512 431 516
f 516 431 517
f 518 519 520
f 519 518 521
f 522 520 523
f 520 522 518
f 524 525 526
f 525 524 527
f 244 526 472
f 526 244 524
f 501 360 377
f 360 501 503
f 528 529 530
f 529 528 531
f 187 496 498
f 496 187 189
f 467 185 466
f 185 467 183
f 189 463 496
f 463 189 381
f 532 533 534
f 533 532 535
f 534 338 340
f 338 534 533
f 380 429 536
f 429 380 301
f 338 537 339
f 537 338 538
f 538 338 539
f 539 338 460
f 460 338 540
f 460 540 541
f 542 415 227
f 415 542 413
f 413 542 417
f 417 542 373
f 531 543 529
f 543 531 544
f 545 546 547
f 546 545 548
f 546 548 477
f 477 548 475
f 549 550 551
f 550 549 552
f 485 226 311
f 226 485 224
f 544 374 543
f 374 544 372
f 346 445 319
f 445 346 348
f 553 249 326
f 249 553 248
f 554 326 329
f 326 554 553
f 555 329 331
f 329 555 554
f 556 557 558
f 557 556 559
f 557 560 561
f 560 557 559
f 561 562 563
f 562 561 560
f 373 564 417
f 564 373 375
f 442 565 441
f 565 442 566
f 565 566 489
f 489 566 290
f 567 568 569
f 568 567 570
f 568 570 571
f 571 570 494
f 572 573 267
f 573 572 574
f 573 574 575
f 573 575 576
f 576 575 238
f 576 238 237
f 280 252 577
f 252 280 250
f 440 316 510
f 316 440 314
f 415 434 435
f 434 415 414
f 316 239 236
f 239 316 315
f 578 559 556
f 559 578 532
f 559 534 560
f 534 559 532
f 345 238 343
f 238 345 236
f 579 580 581
f 580 579 453
f 582 453 579
f 453 582 451
f 583 518 522
f 518 583 584
f 585 522 586
f 522 585 583
f 587 283 588
f 283 587 281
f 314 545 317
f 545 314 441
f 221 588 589
f 588 221 587
f 395 510 198
f 510 395 440
f 222 589 590
f 589 222 221
f 426 591 592
f 591 426 425
f 182 590 180
f 590 182 222
f 460 593 539
f 593 460 376
f 252 380 536
f 380 252 251
f 369 594 509
f 594 369 368
f 223 587 221
f 587 223 551
f 564 418 417
f 418 564 595
f 596 597 580
f 597 596 598
f 453 596 580
f 596 453 452
f 269 599 268
f 599 269 513
f 512 599 513
f 599 512 600
f 310 232 308
f 232 310 240
f 361 240 310
f 240 361 262
f 253 601 251
f 601 253 356
f 602 262 361
f 262 602 603
f 601 380 251
f 380 601 379
f 604 603 602
f 603 604 605
f 356 606 601
f 606 356 547
f 607 605 604
f 605 607 608
f 609 288 285
f 288 609 505
f 610 608 607
f 608 610 611
f 217 421 293
f 421 217 419
f 360 602 361
f 602 360 503
f 612 613 614
f 613 612 615
f 616 615 612
f 615 616 617
f 618 617 616
f 617 618 619
f 620 621 622
f 621 620 623
f 622 624 625
f 624 622 621
f 626 627 619
f 627 626 628
f 629 628 626
f 628 629 630
f 477 495 492
f 495 477 476
f 317 547 356
f 547 317 545
f 595 631 418
f 631 595 632
f 551 281 587
f 281 551 550
f 633 634 635
f 634 633 636
f 395 442 440
f 442 395 335
f 509 282 284
f 282 509 594
f 219 419 217
f 419 219 506
f 388 342 386
f 342 388 341
f 637 412 411
f 412 637 638
f 639 637 640
f 637 639 638
f 527 640 525
f 640 527 639
f 410 215 214
f 215 410 641
f 412 641 410
f 641 412 642
f 638 642 412
f 642 638 643
f 586 523 644
f 523 586 522
f 645 644 646
f 644 645 586
f 647 646 648
f 646 647 645
f 632 649 631
f 649 632 650
f 414 437 434
f 437 414 651
f 550 284 281
f 284 550 508
f 652 205 206
f 205 652 653
f 205 653 654
f 654 653 655
f 654 655 656
f 656 655 277
f 656 277 657
f 657 277 279
f 657 279 658
f 658 279 468
f 658 468 659
f 659 468 469
f 659 469 258
f 258 469 660
f 258 660 261
f 261 660 661
f 261 661 500
f 500 661 662
f 500 662 273
f 273 662 663
f 273 663 271
f 271 663 274
f 664 269 265
f 269 664 665
f 665 664 666
f 666 664 667
f 666 667 577
f 577 667 280
f 339 668 342
f 668 339 669
f 669 339 670
f 670 339 539
f 539 339 537
f 539 537 538
f 671 672 673
f 672 671 648
f 597 673 674
f 673 597 671
f 580 674 581
f 674 580 597
f 358 675 464
f 675 358 439
f 315 250 239
f 250 315 253
f 676 677 678
f 677 676 679
f 677 679 430
f 677 430 471
f 677 471 680
f 680 471 681
f 682 272 611
f 272 682 270
f 611 275 608
f 275 611 272
f 656 193 654
f 193 656 191
f 603 263 262
f 263 603 683
f 684 419 506
f 419 684 422
f 422 684 634
f 422 634 423
f 685 686 351
f 686 685 687
f 687 685 688
f 688 685 689
f 688 689 254
f 254 689 455
f 605 683 603
f 683 605 690
f 608 690 605
f 690 608 275
f 691 270 682
f 270 691 499
f 263 660 241
f 660 263 661
f 390 692 457
f 692 390 693
f 693 390 344
f 344 390 462
f 462 390 694
f 462 694 695
f 200 395 198
f 395 200 394
f 497 463 696
f 463 497 496
f 363 285 287
f 285 363 437
f 425 697 591
f 697 425 698
f 697 698 297
f 297 698 177
f 438 592 699
f 592 438 426
f 634 700 423
f 700 634 636
f 227 435 225
f 435 227 415
f 194 231 192
f 231 194 229
f 226 306 312
f 306 226 225
f 194 228 229
f 228 194 195
f 376 218 593
f 218 376 216
f 195 220 228
f 220 195 701
f 433 323 322
f 323 433 366
f 702 703 704
f 703 702 705
f 706 705 702
f 705 706 707
f 708 709 392
f 709 708 710
f 711 392 391
f 392 711 708
f 712 391 393
f 391 712 711
f 620 393 623
f 393 620 712
f 625 486 713
f 486 625 624
f 713 487 714
f 487 713 486
f 715 485 428
f 485 715 716
f 716 715 529
f 716 529 543
f 659 260 717
f 260 659 258
f 718 596 452
f 596 718 719
f 454 718 452
f 718 454 720
f 721 619 618
f 619 721 626
f 629 721 722
f 721 629 626
f 723 724 725
f 724 723 726
f 727 726 723
f 726 727 728
f 729 728 727
f 728 729 730
f 327 731 732
f 731 327 474
f 328 732 733
f 732 328 327
f 734 720 454
f 720 734 735
f 736 735 734
f 735 736 737
f 738 737 736
f 737 738 739
f 740 585 741
f 585 740 742
f 743 741 744
f 741 743 740
f 745 744 746
f 744 745 743
f 747 730 729
f 730 747 748
f 627 748 747
f 748 627 749
f 330 733 750
f 733 330 328
f 332 750 751
f 750 332 330
f 752 739 753
f 739 752 751
f 725 753 754
f 753 725 752
f 755 746 756
f 746 755 745
f 757 756 719
f 756 757 755
f 628 749 627
f 749 628 758
f 630 758 628
f 758 630 759
f 760 759 630
f 759 760 761
f 560 340 562
f 340 560 534
f 762 340 337
f 340 762 562
f 763 725 754
f 725 763 723
f 613 723 763
f 723 613 727
f 615 727 613
f 727 615 729
f 591 336 333
f 336 591 697
f 336 697 297
f 336 297 295
f 459 572 764
f 572 459 458
f 764 267 264
f 267 764 572
f 472 745 755
f 745 472 526
f 473 755 757
f 755 473 472
f 474 757 731
f 757 474 473
f 617 729 615
f 729 617 747
f 619 747 617
f 747 619 627
f 731 719 718
f 719 731 757
f 732 718 720
f 718 732 731
f 733 720 735
f 720 733 732
f 765 761 760
f 761 765 409
f 766 409 765
f 409 766 408
f 726 481 724
f 481 726 479
f 746 647 767
f 647 746 744
f 756 767 598
f 767 756 746
f 719 598 596
f 598 719 756
f 750 735 737
f 735 750 733
f 751 737 739
f 737 751 750
f 768 408 766
f 408 768 411
f 742 411 768
f 411 742 637
f 640 742 740
f 742 640 637
f 728 479 726
f 479 728 483
f 730 483 728
f 483 730 397
f 748 397 730
f 397 748 398
f 741 586 645
f 586 741 585
f 744 645 647
f 645 744 741
f 759 210 758
f 210 759 208
f 761 208 759
f 208 761 212
f 409 212 761
f 212 409 214
f 583 766 584
f 766 583 768
f 585 768 583
f 768 585 742
f 525 740 743
f 740 525 640
f 526 743 745
f 743 526 525
f 749 398 748
f 398 749 401
f 758 401 749
f 401 758 210
f 558 769 770
f 769 558 771
f 557 771 558
f 771 557 704
f 568 427 569
f 427 568 772
f 772 568 571
f 772 571 530
f 421 698 425
f 698 421 420
f 698 420 177
f 177 420 175
f 773 770 774
f 770 773 775
f 775 558 770
f 558 775 556
f 503 604 602
f 604 503 502
f 651 285 437
f 285 651 609
f 502 607 604
f 607 502 367
f 601 567 379
f 567 601 606
f 607 369 610
f 369 607 367
f 610 509 507
f 509 610 369
f 384 433 470
f 433 384 313
f 300 470 432
f 470 300 384
f 776 227 224
f 227 776 542
f 542 776 373
f 373 776 374
f 439 278 675
f 278 439 276
f 650 635 649
f 635 650 633
f 403 579 777
f 579 403 582
f 405 582 403
f 582 405 778
f 407 778 405
f 778 407 779
f 290 490 489
f 490 290 292
f 416 651 414
f 651 416 780
f 780 416 418
f 780 418 631
f 781 739 738
f 739 781 753
f 782 753 781
f 753 782 754
f 493 571 494
f 571 493 783
f 207 204 201
f 204 207 465
f 267 664 265
f 664 267 573
f 664 573 576
f 664 576 667
f 667 576 237
f 667 237 280
f 203 497 784
f 497 203 202
f 785 197 462
f 197 785 786
f 784 696 787
f 696 784 497
f 788 349 346
f 349 788 789
f 789 788 790
f 790 788 791
f 790 791 792
f 792 791 436
f 716 224 485
f 224 716 776
f 776 716 374
f 374 716 543
f 458 574 572
f 574 458 793
f 574 793 794
f 574 794 575
f 575 794 343
f 575 343 238
f 675 787 696
f 787 675 278
f 233 279 276
f 279 233 468
f 241 469 235
f 469 241 660
f 789 351 349
f 351 789 685
f 685 789 689
f 689 789 790
f 689 790 455
f 455 790 792
f 795 505 609
f 505 795 796
f 796 795 649
f 796 649 635
f 665 513 269
f 513 665 511
f 511 665 514
f 514 665 666
f 514 666 515
f 515 666 577
f 683 661 263
f 661 683 662
f 432 471 430
f 471 432 470
f 275 663 690
f 663 275 274
f 351 578 350
f 578 351 686
f 686 532 578
f 532 686 535
f 261 499 259
f 499 261 500
f 699 394 200
f 394 699 592
f 592 333 394
f 333 592 591
f 286 219 216
f 219 286 288
f 198 345 199
f 345 198 510
f 516 678 512
f 678 516 517
f 678 517 431
f 678 431 430
f 678 430 676
f 676 430 679
f 577 536 515
f 536 577 252
f 680 320 677
f 320 680 681
f 320 681 471
f 320 471 322
f 320 322 318
f 318 322 321
f 487 797 714
f 797 487 488
f 488 798 797
f 798 488 799
f 255 461 256
f 461 255 371
f 386 800 387
f 800 386 801
f 801 386 785
f 785 386 802
f 802 386 803
f 802 803 804
f 457 793 458
f 793 457 692
f 793 692 693
f 793 693 794
f 794 693 344
f 794 344 343
f 796 506 505
f 506 796 684
f 684 796 635
f 684 635 634
f 268 799 488
f 799 268 599
f 600 799 599
f 799 600 805
f 196 701 195
f 701 196 806
f 656 196 191
f 196 656 657
f 234 276 439
f 276 234 233
f 701 223 220
f 223 701 807
f 593 294 808
f 294 593 218
f 807 551 223
f 551 807 549
f 806 807 701
f 807 806 717
f 324 346 319
f 346 324 325
f 346 325 323
f 346 323 436
f 346 436 788
f 788 436 791
f 772 428 427
f 428 772 715
f 715 772 530
f 715 530 529
f 658 717 806
f 717 658 659
f 690 662 683
f 662 690 663
f 778 451 582
f 451 778 809
f 779 809 778
f 809 779 810
f 449 810 779
f 810 449 811
f 812 722 813
f 722 812 629
f 814 813 521
f 813 814 812
f 584 521 518
f 521 584 814
f 802 786 785
f 786 802 815
f 774 450 448
f 450 774 816
f 774 769 816
f 769 774 770
f 817 563 818
f 563 817 706
f 819 818 710
f 818 819 817
f 820 710 708
f 710 820 819
f 821 712 620
f 712 821 822
f 823 620 622
f 620 823 821
f 673 713 714
f 713 673 672
f 674 714 797
f 714 674 673
f 581 797 798
f 797 581 674
f 777 581 798
f 581 777 579
f 447 779 407
f 779 447 449
f 450 811 449
f 811 450 824
f 825 708 711
f 708 825 820
f 822 711 712
f 711 822 825
f 816 824 450
f 824 816 826
f 769 826 816
f 826 769 827
f 771 827 769
f 827 771 828
f 704 828 771
f 828 704 703
f 670 815 802
f 815 670 808
f 829 706 817
f 706 829 707
f 830 817 819
f 817 830 829
f 831 819 820
f 819 831 830
f 523 822 821
f 822 523 520
f 644 821 823
f 821 644 523
f 832 751 752
f 751 832 332
f 724 752 725
f 752 724 832
f 436 305 792
f 305 436 303
f 805 798 799
f 798 805 777
f 404 777 805
f 777 404 403
f 646 823 833
f 823 646 644
f 648 833 672
f 833 648 646
f 539 808 670
f 808 539 593
f 767 648 671
f 648 767 647
f 598 671 597
f 671 598 767
f 535 834 533
f 834 535 835
f 834 835 836
f 834 836 837
f 837 836 256
f 837 256 461
f 606 570 567
f 570 606 838
f 570 838 494
f 494 838 492
f 547 838 606
f 838 547 546
f 838 546 492
f 492 546 477
f 519 820 825
f 820 519 831
f 520 825 822
f 825 520 519
f 809 454 451
f 454 809 734
f 810 734 809
f 734 810 736
f 811 736 810
f 736 811 738
f 824 738 811
f 738 824 781
f 826 781 824
f 781 826 782
f 707 616 705
f 616 707 618
f 721 707 829
f 707 721 618
f 722 829 830
f 829 722 721
f 347 775 773
f 775 347 350
f 350 556 775
f 556 350 578
f 823 625 833
f 625 823 622
f 672 625 713
f 625 672 833
f 827 782 826
f 782 827 839
f 828 839 827
f 839 828 614
f 654 207 205
f 207 654 193
f 709 337 341
f 337 709 762
f 392 341 388
f 341 392 709
f 840 638 639
f 638 840 643
f 841 639 527
f 639 841 840
f 842 527 524
f 527 842 841
f 244 842 524
f 842 244 243
f 424 357 491
f 357 424 309
f 569 302 299
f 302 569 427
f 423 178 175
f 178 423 700
f 567 299 379
f 299 567 569
f 231 183 467
f 183 231 230
f 306 435 304
f 435 306 225
f 621 764 624
f 764 621 459
f 624 264 486
f 264 624 764
f 278 655 787
f 655 278 277
f 843 805 600
f 805 843 404
f 444 404 843
f 404 444 402
f 844 447 446
f 447 844 448
f 844 774 448
f 774 844 773
f 507 611 610
f 611 507 682
f 808 438 815
f 438 808 294
f 783 530 571
f 530 783 528
f 653 787 655
f 787 653 784
f 533 540 338
f 540 533 834
f 540 834 837
f 540 837 541
f 541 837 461
f 541 461 460
f 687 535 686
f 535 687 835
f 835 687 836
f 836 687 688
f 836 688 256
f 256 688 254
f 623 389 456
f 389 623 393
f 623 459 621
f 459 623 456
f 193 465 207
f 465 193 192
f 717 549 807
f 549 717 260
f 818 562 762
f 562 818 563
f 710 762 709
f 762 710 818
f 387 694 390
f 694 387 695
f 695 387 462
f 462 387 785
f 785 387 800
f 785 800 801
f 536 431 515
f 431 536 429
f 260 552 549
f 552 260 259
f 464 696 463
f 696 464 675
f 780 609 651
f 609 780 795
f 795 780 631
f 795 631 649
f 441 548 545
f 548 441 565
f 548 565 475
f 475 565 489
f 652 784 653
f 784 652 203
f 335 566 442
f 566 335 334
f 566 334 291
f 566 291 290
f 786 200 197
f 200 786 699
f 657 806 196
f 806 657 658
f 552 508 550
f 508 552 691
f 815 699 786
f 699 815 438
f 508 682 507
f 682 508 691
f 561 704 557
f 704 561 702
f 563 702 561
f 702 563 706
f 206 203 652
f 203 206 201
f 259 691 552
f 691 259 499
f 839 754 782
f 754 839 763
f 614 763 839
f 763 614 613
f 703 614 828
f 614 703 612
f 705 612 703
f 612 705 616
f 792 362 455
f 362 792 305
f 342 803 386
f 803 342 804
f 804 342 802
f 802 342 670
f 670 342 668
f 670 668 669
f 320 444 677
f 444 320 443
f 319 443 320
f 443 319 445
f 348 446 445
f 446 348 844
f 348 773 844
f 773 348 347
f 813 830 831
f 830 813 722
f 521 831 519
f 831 521 813
f 812 630 629
f 630 812 760
f 814 760 812
f 760 814 765
f 584 765 814
f 765 584 766
f 678 600 512
f 600 678 843
f 677 843 678
f 843 677 444
f 845 331 846
f 331 845 555
f 480 846 481
f 846 480 845
f 846 332 832
f 332 846 331
f 481 832 724
f 832 481 846
f 378 528 783
f 377 378 783
f 424 531 528
f 378 424 528
f 491 544 531
f 424 491 531
f 352 372 544
f 491 352 544
f 181 178 700
f 180 178 181
f 700 636 365
f 700 365 181
f 636 633 186
f 636 186 365
f 633 650 184
f 633 184 186
f 632 188 650
f 650 188 184
f 595 190 632
f 632 190 188
f 589 296 298
f 588 296 589
f 590 298 176
f 589 298 590
f 495 501 493
f 495 504 501
f 594 490 292
f 594 292 282
f 283 292 289
f 282 292 283
f 478 490 368
f 490 594 368
f 476 478 370
f 478 368 370
f 354 375 372
f 352 354 372
f 180 176 178
f 590 176 180
f 382 595 564
f 382 190 595
f 588 289 296
f 283 289 588
f 476 504 495
f 476 370 504
f 382 564 375
f 354 382 375
f 493 377 783
f 493 501 377
f 847 553 554
f 553 847 848
f 849 848 847
f 848 849 850
f 848 850 851
f 851 850 852
f 851 852 853
f 853 852 854
f 853 854 855
f 855 854 856
f 855 856 857
f 857 856 858
f 857 858 859
f 859 858 860
f 859 860 861
f 861 860 862
f 861 862 863
f 863 862 864
f 863 864 865
f 865 864 866
f 865 866 867
f 867 866 868
f 867 868 869
f 869 868 870
f 864 400 209
f 400 864 862
f 215 868 213
f 868 215 870
f 484 854 482
f 854 484 856
f 211 864 209
f 864 211 866
f 399 856 484
f 856 399 858
f 859 841 842
f 841 859 861
f 642 869 641
f 869 642 867
f 213 866 211
f 866 213 868
f 852 845 480
f 845 852 850
f 641 870 215
f 870 641 869
f 245 857 243
f 857 245 855
f 849 554 555
f 554 849 847
f 840 865 643
f 865 840 863
f 862 396 400
f 396 862 860
f 848 248 553
f 248 848 851
f 850 555 845
f 555 850 849
f 243 859 842
f 859 243 857
f 851 247 248
f 247 851 853
f 861 840 841
f 840 861 863
f 860 399 396
f 399 860 858
f 854 480 482
f 480 854 852
f 247 855 245
f 855 247 853
f 643 867 642
f 867 643 865
