v -0.436190 -0.052437 0.516794
v -0.439217 -0.047898 0.516794
v -0.437252 -0.049866 0.516794
v -0.436192 -0.055219 0.516794
v -0.441786 -0.046831 0.516794
v -0.437259 -0.057788 0.516794
v -0.444568 -0.046828 0.516794
v -0.447139 -0.047891 0.516794
v -0.439228 -0.059753 0.516794
v -0.441799 -0.060815 0.516794
v -0.449107 -0.049856 0.516794
v -0.444580 -0.060813 0.516794
v -0.450174 -0.052425 0.516794
v -0.447149 -0.059746 0.516794
v -0.450177 -0.055207 0.516794
v -0.449114 -0.057777 0.516794
v -0.439217 -0.047898 0.523926
v -0.436190 -0.052437 0.523926
v -0.437252 -0.049866 0.523926
v -0.441786 -0.046831 0.523926
v -0.436192 -0.055219 0.523926
v -0.438965 -0.051274 0.523926
v -0.439768 -0.050269 0.523926
v -0.440804 -0.049506 0.523926
v -0.444568 -0.046828 0.523926
v -0.439103 -0.051101 0.523926
v -0.442002 -0.049037 0.523926
v -0.443281 -0.048895 0.523926
v -0.447139 -0.047891 0.523926
v -0.444553 -0.049088 0.523926
v -0.445731 -0.049603 0.523926
v -0.445904 -0.049742 0.523926
v -0.449107 -0.049856 0.523926
v -0.446736 -0.050407 0.523926
v -0.447499 -0.051443 0.523926
v -0.447968 -0.052641 0.523926
v -0.450174 -0.052425 0.523926
v -0.448111 -0.053919 0.523926
v -0.447917 -0.055191 0.523926
v -0.447402 -0.056370 0.523926
v -0.438449 -0.052452 0.523926
v -0.437259 -0.057788 0.523926
v -0.438256 -0.053724 0.523926
v -0.438399 -0.055003 0.523926
v -0.438867 -0.056201 0.523926
v -0.439228 -0.059753 0.523926
v -0.439630 -0.057237 0.523926
v -0.440462 -0.057902 0.523926
v -0.440635 -0.058040 0.523926
v -0.441799 -0.060815 0.523926
v -0.441814 -0.058556 0.523926
v -0.443086 -0.058749 0.523926
v -0.444364 -0.058606 0.523926
v -0.444580 -0.060813 0.523926
v -0.445563 -0.058138 0.523926
v -0.446598 -0.057375 0.523926
v -0.447263 -0.056543 0.523926
v -0.450177 -0.055207 0.523926
v -0.447149 -0.059746 0.523926
v -0.449114 -0.057777 0.523926
v -0.441799 -0.060815 0.522009
v -0.439228 -0.059753 0.522009
v -0.437259 -0.057788 0.522009
v -0.436192 -0.055219 0.522009
v -0.436190 -0.052437 0.522009
v -0.437252 -0.049866 0.522009
v -0.439217 -0.047898 0.522009
v -0.441786 -0.046831 0.522009
v -0.444568 -0.046828 0.522009
v -0.447139 -0.047891 0.522009
v -0.449107 -0.049856 0.522009
v -0.450174 -0.052425 0.522009
v -0.450177 -0.055207 0.522009
v -0.449114 -0.057777 0.522009
v -0.447149 -0.059746 0.522009
v -0.444580 -0.060813 0.522009
f 1 2 3
f 2 1 4
f 2 4 5
f 5 4 6
f 5 6 7
f 7 6 8
f 8 6 9
f 8 9 10
f 8 10 11
f 11 10 12
f 11 12 13
f 13 12 14
f 13 14 15
f 15 14 16
f 17 18 19
f 18 17 20
f 18 20 21
f 21 20 22
f 22 20 23
f 23 20 24
f 24 20 25
f 22 23 26
f 24 25 27
f 27 25 28
f 28 25 29
f 28 29 30
f 30 29 31
f 31 29 32
f 32 29 33
f 32 33 34
f 34 33 35
f 35 33 36
f 36 33 37
f 36 37 38
f 38 37 39
f 39 37 40
f 21 41 42
f 41 21 22
f 42 41 43
f 42 43 44
f 42 44 45
f 42 45 46
f 46 45 47
f 46 47 48
f 46 48 49
f 46 49 50
f 50 49 51
f 50 51 52
f 50 52 53
f 50 53 54
f 54 53 55
f 54 55 56
f 54 56 57
f 54 57 40
f 54 40 37
f 54 37 58
f 54 58 59
f 59 58 60
f 46 61 62
f 61 46 50
f 42 62 63
f 62 42 46
f 21 63 64
f 63 21 42
f 21 65 18
f 65 21 64
f 18 66 19
f 66 18 65
f 19 67 17
f 67 19 66
f 17 68 20
f 68 17 67
f 25 68 69
f 68 25 20
f 29 69 70
f 69 29 25
f 33 70 71
f 70 33 29
f 37 71 72
f 71 37 33
f 73 37 72
f 37 73 58
f 74 58 73
f 58 74 60
f 75 60 74
f 60 75 59
f 76 59 75
f 59 76 54
f 50 76 61
f 76 50 54
