v 0.039912 -0.119631 0.614296
v 0.041208 -0.119631 0.614296
v 0.040560 -0.119760 0.614296
v 0.041757 -0.119264 0.614296
v 0.039363 -0.119264 0.614296
v 0.042124 -0.118715 0.614296
v 0.038996 -0.118715 0.614296
v 0.042253 -0.118067 0.614296
v 0.038867 -0.118067 0.614296
v 0.042124 -0.117419 0.614296
v 0.038996 -0.117419 0.614296
v 0.039363 -0.116869 0.614296
v 0.041757 -0.116869 0.614296
v 0.041208 -0.116502 0.614296
v 0.039912 -0.116502 0.614296
v 0.040560 -0.116373 0.614296
v 0.041208 -0.119631 0.730591
v 0.039912 -0.119631 0.730591
v 0.040560 -0.119760 0.730591
v 0.041757 -0.119264 0.730591
v 0.039363 -0.119264 0.730591
v 0.042124 -0.118715 0.730591
v 0.038996 -0.118715 0.730591
v 0.042253 -0.118067 0.730591
v 0.038867 -0.118067 0.730591
v 0.042124 -0.117419 0.730591
v 0.038996 -0.117419 0.730591
v 0.039363 -0.116869 0.730591
v 0.041757 -0.116869 0.730591
v 0.041208 -0.116502 0.730591
v 0.039912 -0.116502 0.730591
v 0.040560 -0.116373 0.730591
v 0.039912 -0.116502 0.614296
v 0.040560 -0.116373 0.730591
v 0.040560 -0.116373 0.614296
v 0.040560 -0.116373 0.730591
v 0.039912 -0.116502 0.614296
v 0.039912 -0.116502 0.730591
v 0.039363 -0.116869 0.614296
v 0.039912 -0.116502 0.730591
v 0.039912 -0.116502 0.614296
v 0.039912 -0.116502 0.730591
v 0.039363 -0.116869 0.614296
v 0.039363 -0.116869 0.730591
v 0.038996 -0.117419 0.730591
v 0.039363 -0.116869 0.614296
v 0.038996 -0.117419 0.614296
v 0.039363 -0.116869 0.614296
v 0.038996 -0.117419 0.730591
v 0.039363 -0.116869 0.730591
v 0.038867 -0.118067 0.730591
v 0.038996 -0.117419 0.614296
v 0.038867 -0.118067 0.614296
v 0.038996 -0.117419 0.614296
v 0.038867 -0.118067 0.730591
v 0.038996 -0.117419 0.730591
v 0.038996 -0.118715 0.730591
v 0.038867 -0.118067 0.614296
v 0.038996 -0.118715 0.614296
v 0.038867 -0.118067 0.614296
v 0.038996 -0.118715 0.730591
v 0.038867 -0.118067 0.730591
v 0.039363 -0.119264 0.730591
v 0.038996 -0.118715 0.614296
v 0.039363 -0.119264 0.614296
v 0.038996 -0.118715 0.614296
v 0.039363 -0.119264 0.730591
v 0.038996 -0.118715 0.730591
v 0.039363 -0.119264 0.730591
v 0.039912 -0.119631 0.614296
v 0.039912 -0.119631 0.730591
v 0.039912 -0.119631 0.614296
v 0.039363 -0.119264 0.730591
v 0.039363 -0.119264 0.614296
v 0.039912 -0.119631 0.730591
v 0.040560 -0.119760 0.614296
v 0.040560 -0.119760 0.730591
v 0.040560 -0.119760 0.614296
v 0.039912 -0.119631 0.730591
v 0.039912 -0.119631 0.614296
v 0.040560 -0.119760 0.730591
v 0.041208 -0.119631 0.614296
v 0.041208 -0.119631 0.730591
v 0.041208 -0.119631 0.614296
v 0.040560 -0.119760 0.730591
v 0.040560 -0.119760 0.614296
v 0.041208 -0.119631 0.730591
v 0.041757 -0.119264 0.614296
v 0.041757 -0.119264 0.730591
v 0.041757 -0.119264 0.614296
v 0.041208 -0.119631 0.730591
v 0.041208 -0.119631 0.614296
v 0.042124 -0.118715 0.730591
v 0.041757 -0.119264 0.614296
v 0.042124 -0.118715 0.614296
v 0.041757 -0.119264 0.614296
v 0.042124 -0.118715 0.730591
v 0.041757 -0.119264 0.730591
v 0.042253 -0.118067 0.730591
v 0.042124 -0.118715 0.614296
v 0.042253 -0.118067 0.614296
v 0.042124 -0.118715 0.614296
v 0.042253 -0.118067 0.730591
v 0.042124 -0.118715 0.730591
v 0.042124 -0.117419 0.730591
v 0.042253 -0.118067 0.614296
v 0.042124 -0.117419 0.614296
v 0.042253 -0.118067 0.614296
v 0.042124 -0.117419 0.730591
v 0.042253 -0.118067 0.730591
v 0.041757 -0.116869 0.730591
v 0.042124 -0.117419 0.614296
v 0.041757 -0.116869 0.614296
v 0.042124 -0.117419 0.614296
v 0.041757 -0.116869 0.730591
v 0.042124 -0.117419 0.730591
v 0.041208 -0.116502 0.614296
v 0.041757 -0.116869 0.730591
v 0.041757 -0.116869 0.614296
v 0.041757 -0.116869 0.730591
v 0.041208 -0.116502 0.614296
v 0.041208 -0.116502 0.730591
v 0.040560 -0.116373 0.614296
v 0.041208 -0.116502 0.730591
v 0.041208 -0.116502 0.614296
v 0.041208 -0.116502 0.730591
v 0.040560 -0.116373 0.614296
v 0.040560 -0.116373 0.730591
v 0.040998 -0.117660 0.532469
v 0.041582 -0.117660 0.532469
v 0.041290 -0.117602 0.532469
v 0.041829 -0.117825 0.532469
v 0.040750 -0.117825 0.532469
v 0.041995 -0.118073 0.532469
v 0.040585 -0.118073 0.532469
v 0.042053 -0.118365 0.532469
v 0.040527 -0.118365 0.532469
v 0.041995 -0.118657 0.532469
v 0.040585 -0.118657 0.532469
v 0.040750 -0.118904 0.532469
v 0.041829 -0.118904 0.532469
v 0.041582 -0.119069 0.532469
v 0.040998 -0.119069 0.532469
v 0.041290 -0.119128 0.532469
v 0.041582 -0.117660 0.474634
v 0.040998 -0.117660 0.474634
v 0.041290 -0.117602 0.474634
v 0.041829 -0.117825 0.474634
v 0.040750 -0.117825 0.474634
v 0.041995 -0.118073 0.474634
v 0.040585 -0.118073 0.474634
v 0.042053 -0.118365 0.474634
v 0.040527 -0.118365 0.474634
v 0.041995 -0.118657 0.474634
v 0.040585 -0.118657 0.474634
v 0.040750 -0.118904 0.474634
v 0.041829 -0.118904 0.474634
v 0.041582 -0.119069 0.474634
v 0.040998 -0.119069 0.474634
v 0.041290 -0.119128 0.474634
v 0.040998 -0.119069 0.532469
v 0.041290 -0.119128 0.474634
v 0.041290 -0.119128 0.532469
v 0.041290 -0.119128 0.474634
v 0.040998 -0.119069 0.532469
v 0.040998 -0.119069 0.474634
v 0.040750 -0.118904 0.532469
v 0.040998 -0.119069 0.474634
v 0.040998 -0.119069 0.532469
v 0.040998 -0.119069 0.474634
v 0.040750 -0.118904 0.532469
v 0.040750 -0.118904 0.474634
v 0.040585 -0.118657 0.474634
v 0.040750 -0.118904 0.532469
v 0.040585 -0.118657 0.532469
v 0.040750 -0.118904 0.532469
v 0.040585 -0.118657 0.474634
v 0.040750 -0.118904 0.474634
v 0.040527 -0.118365 0.474634
v 0.040585 -0.118657 0.532469
v 0.040527 -0.118365 0.532469
v 0.040585 -0.118657 0.532469
v 0.040527 -0.118365 0.474634
v 0.040585 -0.118657 0.474634
v 0.040585 -0.118073 0.474634
v 0.040527 -0.118365 0.532469
v 0.040585 -0.118073 0.532469
v 0.040527 -0.118365 0.532469
v 0.040585 -0.118073 0.474634
v 0.040527 -0.118365 0.474634
v 0.040750 -0.117825 0.474634
v 0.040585 -0.118073 0.532469
v 0.040750 -0.117825 0.532469
v 0.040585 -0.118073 0.532469
v 0.040750 -0.117825 0.474634
v 0.040585 -0.118073 0.474634
v 0.040750 -0.117825 0.474634
v 0.040998 -0.117660 0.532469
v 0.040998 -0.117660 0.474634
v 0.040998 -0.117660 0.532469
v 0.040750 -0.117825 0.474634
v 0.040750 -0.117825 0.532469
v 0.040998 -0.117660 0.474634
v 0.041290 -0.117602 0.532469
v 0.041290 -0.117602 0.474634
v 0.041290 -0.117602 0.532469
v 0.040998 -0.117660 0.474634
v 0.040998 -0.117660 0.532469
v 0.041290 -0.117602 0.474634
v 0.041582 -0.117660 0.532469
v 0.041582 -0.117660 0.474634
v 0.041582 -0.117660 0.532469
v 0.041290 -0.117602 0.474634
v 0.041290 -0.117602 0.532469
v 0.041582 -0.117660 0.474634
v 0.041829 -0.117825 0.532469
v 0.041829 -0.117825 0.474634
v 0.041829 -0.117825 0.532469
v 0.041582 -0.117660 0.474634
v 0.041582 -0.117660 0.532469
v 0.041995 -0.118073 0.474634
v 0.041829 -0.117825 0.532469
v 0.041995 -0.118073 0.532469
v 0.041829 -0.117825 0.532469
v 0.041995 -0.118073 0.474634
v 0.041829 -0.117825 0.474634
v 0.042053 -0.118365 0.474634
v 0.041995 -0.118073 0.532469
v 0.042053 -0.118365 0.532469
v 0.041995 -0.118073 0.532469
v 0.042053 -0.118365 0.474634
v 0.041995 -0.118073 0.474634
v 0.041995 -0.118657 0.474634
v 0.042053 -0.118365 0.532469
v 0.041995 -0.118657 0.532469
v 0.042053 -0.118365 0.532469
v 0.041995 -0.118657 0.474634
v 0.042053 -0.118365 0.474634
v 0.041829 -0.118904 0.474634
v 0.041995 -0.118657 0.532469
v 0.041829 -0.118904 0.532469
v 0.041995 -0.118657 0.532469
v 0.041829 -0.118904 0.474634
v 0.041995 -0.118657 0.474634
v 0.041582 -0.119069 0.532469
v 0.041829 -0.118904 0.474634
v 0.041829 -0.118904 0.532469
v 0.041829 -0.118904 0.474634
v 0.041582 -0.119069 0.532469
v 0.041582 -0.119069 0.474634
v 0.041290 -0.119128 0.532469
v 0.041582 -0.119069 0.474634
v 0.041582 -0.119069 0.532469
v 0.041582 -0.119069 0.474634
v 0.041290 -0.119128 0.532469
v 0.041290 -0.119128 0.474634
f 1 2 3
f 2 1 4
f 4 1 5
f 4 5 6
f 6 5 7
f 6 7 8
f 8 7 9
f 8 9 10
f 10 9 11
f 10 11 12
f 10 12 13
f 13 12 14
f 14 12 15
f 14 15 16
f 17 18 19
f 18 17 20
f 18 20 21
f 21 20 22
f 21 22 23
f 23 22 24
f 23 24 25
f 25 24 26
f 25 26 27
f 27 26 28
f 28 26 29
f 28 29 30
f 28 30 31
f 31 30 32
f 33 34 35
f 36 37 38
f 39 40 41
f 42 43 44
f 45 46 47
f 48 49 50
f 51 52 53
f 54 55 56
f 57 58 59
f 60 61 62
f 63 64 65
f 66 67 68
f 69 70 71
f 72 73 74
f 75 76 77
f 78 79 80
f 81 82 83
f 84 85 86
f 87 88 89
f 90 91 92
f 93 94 95
f 96 97 98
f 99 100 101
f 102 103 104
f 105 106 107
f 108 109 110
f 111 112 113
f 114 115 116
f 117 118 119
f 120 121 122
f 123 124 125
f 126 127 128
f 129 130 131
f 130 129 132
f 132 129 133
f 132 133 134
f 134 133 135
f 134 135 136
f 136 135 137
f 136 137 138
f 138 137 139
f 138 139 140
f 138 140 141
f 141 140 142
f 142 140 143
f 142 143 144
f 145 146 147
f 146 145 148
f 146 148 149
f 149 148 150
f 149 150 151
f 151 150 152
f 151 152 153
f 153 152 154
f 153 154 155
f 155 154 156
f 156 154 157
f 156 157 158
f 156 158 159
f 159 158 160
f 161 162 163
f 164 165 166
f 167 168 169
f 170 171 172
f 173 174 175
f 176 177 178
f 179 180 181
f 182 183 184
f 185 186 187
f 188 189 190
f 191 192 193
f 194 195 196
f 197 198 199
f 200 201 202
f 203 204 205
f 206 207 208
f 209 210 211
f 212 213 214
f 215 216 217
f 218 219 220
f 221 222 223
f 224 225 226
f 227 228 229
f 230 231 232
f 233 234 235
f 236 237 238
f 239 240 241
f 242 243 244
f 245 246 247
f 248 249 250
f 251 252 253
f 254 255 256
