v -0.436918 -0.053449 0.497112
v -0.437995 -0.050334 0.505442
v -0.437995 -0.050334 0.497112
v -0.436918 -0.053449 0.505442
v -0.443629 -0.047677 0.494833
v -0.440457 -0.048142 0.497112
v -0.443645 -0.047462 0.497112
v -0.440549 -0.048334 0.494833
v -0.439625 -0.059089 0.505442
v -0.437514 -0.056654 0.497112
v -0.439625 -0.059089 0.497112
v -0.437514 -0.056654 0.505442
v -0.438271 -0.056269 0.492710
v -0.437130 -0.053461 0.494833
v -0.437754 -0.053494 0.492710
v -0.437707 -0.056556 0.494833
v -0.438394 -0.053528 0.491536
v -0.441097 -0.049475 0.491536
v -0.439216 -0.051149 0.491536
v -0.443532 -0.048955 0.491536
v -0.438849 -0.055976 0.491536
v -0.440462 -0.057835 0.491536
v -0.445868 -0.049729 0.491536
v -0.442798 -0.058609 0.491536
v -0.447480 -0.051588 0.491536
v -0.445233 -0.058089 0.491536
v -0.447936 -0.054036 0.491536
v -0.447113 -0.056415 0.491536
v -0.445510 -0.058666 0.492710
v -0.447642 -0.056768 0.492710
v -0.448575 -0.054070 0.492710
v -0.448159 -0.057113 0.494833
v -0.449199 -0.054103 0.494833
v -0.438394 -0.053528 0.516794
v -0.441097 -0.049475 0.516794
v -0.439216 -0.051149 0.516794
v -0.442255 -0.049228 0.516794
v -0.438610 -0.054692 0.516794
v -0.443532 -0.048955 0.516794
v -0.438849 -0.055976 0.516794
v -0.440462 -0.057835 0.516794
v -0.445868 -0.049729 0.516794
v -0.442798 -0.058609 0.516794
v -0.447480 -0.051588 0.516794
v -0.444075 -0.058336 0.516794
v -0.447719 -0.052872 0.516794
v -0.445233 -0.058089 0.516794
v -0.447936 -0.054036 0.516794
v -0.447113 -0.056415 0.516794
v -0.448815 -0.050910 0.505442
v -0.449412 -0.054114 0.497112
v -0.448815 -0.050910 0.497112
v -0.449412 -0.054114 0.505442
v -0.446584 -0.048655 0.494833
v -0.448058 -0.051295 0.492710
v -0.446230 -0.049186 0.492710
v -0.448623 -0.051008 0.494833
v -0.446704 -0.048475 0.497112
v -0.438171 -0.050451 0.494833
v -0.442701 -0.059887 0.494833
v -0.440099 -0.058378 0.492710
v -0.442749 -0.059255 0.492710
v -0.439746 -0.058908 0.494833
v -0.448335 -0.057230 0.497112
v -0.448335 -0.057230 0.505442
v -0.445280 -0.058183 0.514426
v -0.447200 -0.056473 0.514426
v -0.445278 -0.058183 0.514426
v -0.447201 -0.056473 0.514426
v -0.448041 -0.054044 0.514426
v -0.448040 -0.054041 0.514426
v -0.443581 -0.048308 0.492710
v -0.440820 -0.048898 0.492710
v -0.438687 -0.050796 0.492710
v -0.445780 -0.059230 0.494833
v -0.445873 -0.059422 0.497112
v -0.445873 -0.059422 0.505442
v -0.442685 -0.060102 0.497112
v -0.442685 -0.060102 0.505442
v -0.446704 -0.048475 0.505442
v -0.443645 -0.047462 0.505442
v -0.440457 -0.048142 0.505442
v -0.447113 -0.056415 0.491536
v -0.447113 -0.056415 0.491536
v -0.445233 -0.058089 0.491536
v -0.447642 -0.056768 0.492710
v -0.447936 -0.054036 0.491536
v -0.447936 -0.054036 0.491536
v -0.447642 -0.056768 0.492710
v -0.447113 -0.056415 0.491536
v -0.448575 -0.054070 0.492710
v -0.448575 -0.054070 0.492710
v -0.447642 -0.056768 0.492710
v -0.448623 -0.051008 0.494833
v -0.446584 -0.048655 0.494833
v -0.448623 -0.051008 0.494833
v -0.448815 -0.050910 0.497112
v -0.449199 -0.054103 0.494833
v -0.448058 -0.051295 0.492710
v -0.448623 -0.051008 0.494833
v -0.448058 -0.051295 0.492710
v -0.449199 -0.054103 0.494833
v -0.448575 -0.054070 0.492710
v -0.449412 -0.054114 0.497112
v -0.448623 -0.051008 0.494833
v -0.448815 -0.050910 0.497112
v -0.448623 -0.051008 0.494833
v -0.449412 -0.054114 0.497112
v -0.449199 -0.054103 0.494833
v -0.437130 -0.053461 0.494833
v -0.437995 -0.050334 0.497112
v -0.437995 -0.050334 0.497112
v -0.437130 -0.053461 0.494833
v -0.436918 -0.053449 0.497112
v -0.449199 -0.054103 0.494833
v -0.449412 -0.054114 0.497112
v -0.449199 -0.054103 0.494833
v -0.448159 -0.057113 0.494833
v -0.449412 -0.054114 0.497112
v -0.449412 -0.054114 0.505442
v -0.449412 -0.054114 0.497112
v -0.448335 -0.057230 0.497112
v -0.438849 -0.055976 0.491536
v -0.437754 -0.053494 0.492710
v -0.438394 -0.053528 0.491536
v -0.437754 -0.053494 0.492710
v -0.438849 -0.055976 0.491536
v -0.438271 -0.056269 0.492710
v -0.446230 -0.049186 0.492710
v -0.447480 -0.051588 0.491536
v -0.445868 -0.049729 0.491536
v -0.447480 -0.051588 0.491536
v -0.446230 -0.049186 0.492710
v -0.448058 -0.051295 0.492710
v -0.448575 -0.054070 0.492710
v -0.447480 -0.051588 0.491536
v -0.448058 -0.051295 0.492710
v -0.447480 -0.051588 0.491536
v -0.448575 -0.054070 0.492710
v -0.447936 -0.054036 0.491536
v -0.445868 -0.049729 0.491536
v -0.443532 -0.048955 0.491536
v -0.445868 -0.049729 0.491536
v -0.446230 -0.049186 0.492710
v -0.443532 -0.048955 0.491536
v -0.443581 -0.048308 0.492710
v -0.443532 -0.048955 0.491536
v -0.441097 -0.049475 0.491536
v -0.440099 -0.058378 0.492710
v -0.438849 -0.055976 0.491536
v -0.440462 -0.057835 0.491536
v -0.438849 -0.055976 0.491536
v -0.440099 -0.058378 0.492710
v -0.438271 -0.056269 0.492710
v -0.438394 -0.053528 0.491536
v -0.439216 -0.051149 0.491536
v -0.438394 -0.053528 0.491536
v -0.437754 -0.053494 0.492710
v -0.437514 -0.056654 0.497112
v -0.436918 -0.053449 0.505442
v -0.436918 -0.053449 0.497112
v -0.436918 -0.053449 0.505442
v -0.437514 -0.056654 0.497112
v -0.437514 -0.056654 0.505442
v -0.447642 -0.056768 0.492710
v -0.448159 -0.057113 0.494833
v -0.447642 -0.056768 0.492710
v -0.445510 -0.058666 0.492710
v -0.448335 -0.057230 0.505442
v -0.448335 -0.057230 0.497112
v -0.448335 -0.057230 0.505442
v -0.443581 -0.048308 0.492710
v -0.440549 -0.048334 0.494833
v -0.443629 -0.047677 0.494833
v -0.440549 -0.048334 0.494833
v -0.443581 -0.048308 0.492710
v -0.440820 -0.048898 0.492710
v -0.445873 -0.059422 0.505442
v -0.445873 -0.059422 0.497112
v -0.445873 -0.059422 0.505442
v -0.445873 -0.059422 0.497112
v -0.442701 -0.059887 0.494833
v -0.445780 -0.059230 0.494833
v -0.442701 -0.059887 0.494833
v -0.445873 -0.059422 0.497112
v -0.442685 -0.060102 0.497112
v -0.445780 -0.059230 0.494833
v -0.442749 -0.059255 0.492710
v -0.445510 -0.058666 0.492710
v -0.442749 -0.059255 0.492710
v -0.445780 -0.059230 0.494833
v -0.442701 -0.059887 0.494833
v -0.445873 -0.059422 0.497112
v -0.448159 -0.057113 0.494833
v -0.448335 -0.057230 0.497112
v -0.448159 -0.057113 0.494833
v -0.445873 -0.059422 0.497112
v -0.445780 -0.059230 0.494833
v -0.448815 -0.050910 0.497112
v -0.446704 -0.048475 0.497112
v -0.448815 -0.050910 0.497112
v -0.448815 -0.050910 0.505442
v -0.443629 -0.047677 0.494833
v -0.446230 -0.049186 0.492710
v -0.443581 -0.048308 0.492710
v -0.446230 -0.049186 0.492710
v -0.443629 -0.047677 0.494833
v -0.446584 -0.048655 0.494833
v -0.443645 -0.047462 0.497112
v -0.446584 -0.048655 0.494833
v -0.443629 -0.047677 0.494833
v -0.446584 -0.048655 0.494833
v -0.443645 -0.047462 0.497112
v -0.446704 -0.048475 0.497112
v -0.446704 -0.048475 0.497112
v -0.443645 -0.047462 0.497112
v -0.446704 -0.048475 0.497112
v -0.446704 -0.048475 0.505442
v -0.440457 -0.048142 0.497112
v -0.443645 -0.047462 0.505442
v -0.443645 -0.047462 0.497112
v -0.443645 -0.047462 0.505442
v -0.440457 -0.048142 0.497112
v -0.439625 -0.059089 0.497112
v -0.437707 -0.056556 0.494833
v -0.439746 -0.058908 0.494833
v -0.437707 -0.056556 0.494833
v -0.439625 -0.059089 0.497112
v -0.437514 -0.056654 0.497112
v -0.441097 -0.049475 0.491536
v -0.438687 -0.050796 0.492710
v -0.440820 -0.048898 0.492710
v -0.438687 -0.050796 0.492710
v -0.441097 -0.049475 0.491536
v -0.439216 -0.051149 0.491536
v -0.442749 -0.059255 0.492710
v -0.440462 -0.057835 0.491536
v -0.442798 -0.058609 0.491536
v -0.440462 -0.057835 0.491536
v -0.442749 -0.059255 0.492710
v -0.440099 -0.058378 0.492710
v -0.437754 -0.053494 0.492710
v -0.438171 -0.050451 0.494833
v -0.438687 -0.050796 0.492710
v -0.438171 -0.050451 0.494833
v -0.437754 -0.053494 0.492710
v -0.437130 -0.053461 0.494833
v -0.439746 -0.058908 0.494833
v -0.438271 -0.056269 0.492710
v -0.440099 -0.058378 0.492710
v -0.438271 -0.056269 0.492710
v -0.439746 -0.058908 0.494833
v -0.437707 -0.056556 0.494833
v -0.437707 -0.056556 0.494833
v -0.436918 -0.053449 0.497112
v -0.437130 -0.053461 0.494833
v -0.436918 -0.053449 0.497112
v -0.437707 -0.056556 0.494833
v -0.437514 -0.056654 0.497112
v -0.442685 -0.060102 0.497112
v -0.439746 -0.058908 0.494833
v -0.442701 -0.059887 0.494833
v -0.439746 -0.058908 0.494833
v -0.442685 -0.060102 0.497112
v -0.439625 -0.059089 0.497112
v -0.442685 -0.060102 0.505442
v -0.439625 -0.059089 0.497112
v -0.442685 -0.060102 0.497112
v -0.439625 -0.059089 0.497112
v -0.442685 -0.060102 0.505442
v -0.439625 -0.059089 0.505442
v -0.440820 -0.048898 0.492710
v -0.438171 -0.050451 0.494833
v -0.440549 -0.048334 0.494833
v -0.438171 -0.050451 0.494833
v -0.440820 -0.048898 0.492710
v -0.438687 -0.050796 0.492710
v -0.440549 -0.048334 0.494833
v -0.437995 -0.050334 0.497112
v -0.440457 -0.048142 0.497112
v -0.437995 -0.050334 0.497112
v -0.440549 -0.048334 0.494833
v -0.438171 -0.050451 0.494833
v -0.440457 -0.048142 0.497112
v -0.437995 -0.050334 0.505442
v -0.440457 -0.048142 0.505442
v -0.437995 -0.050334 0.505442
v -0.440457 -0.048142 0.497112
v -0.437995 -0.050334 0.497112
v -0.445510 -0.058666 0.492710
v -0.442798 -0.058609 0.491536
v -0.445233 -0.058089 0.491536
v -0.442798 -0.058609 0.491536
v -0.445510 -0.058666 0.492710
v -0.442749 -0.059255 0.492710
v -0.436918 -0.053449 0.505442
v -0.440457 -0.048142 0.505442
v -0.437995 -0.050334 0.505442
v -0.440457 -0.048142 0.505442
v -0.436918 -0.053449 0.505442
v -0.443645 -0.047462 0.505442
v -0.443645 -0.047462 0.505442
v -0.436918 -0.053449 0.505442
v -0.437514 -0.056654 0.505442
v -0.443645 -0.047462 0.505442
v -0.437514 -0.056654 0.505442
v -0.446704 -0.048475 0.505442
v -0.446704 -0.048475 0.505442
v -0.437514 -0.056654 0.505442
v -0.439625 -0.059089 0.505442
v -0.446704 -0.048475 0.505442
v -0.439625 -0.059089 0.505442
v -0.442685 -0.060102 0.505442
v -0.446704 -0.048475 0.505442
v -0.442685 -0.060102 0.505442
v -0.448815 -0.050910 0.505442
v -0.448815 -0.050910 0.505442
v -0.442685 -0.060102 0.505442
v -0.445873 -0.059422 0.505442
v -0.448815 -0.050910 0.505442
v -0.445873 -0.059422 0.505442
v -0.449412 -0.054114 0.505442
v -0.449412 -0.054114 0.505442
v -0.445873 -0.059422 0.505442
v -0.448335 -0.057230 0.505442
f 1 2 3
f 2 1 4
f 5 6 7
f 6 5 8
f 9 10 11
f 10 9 12
f 13 14 15
f 14 13 16
f 17 18 19
f 18 17 20
f 20 17 21
f 20 21 22
f 20 22 23
f 23 22 24
f 23 24 25
f 25 24 26
f 25 26 27
f 27 26 28
f 29 83 30
f 84 29 85
f 86 87 31
f 88 89 90
f 32 91 33
f 92 32 93
f 34 35 36
f 35 34 37
f 37 34 38
f 37 38 39
f 39 38 40
f 39 40 41
f 39 41 42
f 42 41 43
f 42 43 44
f 44 43 45
f 44 45 46
f 46 45 47
f 46 47 48
f 48 47 49
f 50 51 52
f 51 50 53
f 54 55 56
f 55 54 57
f 58 94 95
f 96 58 97
f 98 99 100
f 101 102 103
f 104 105 106
f 107 108 109
f 110 111 59
f 112 113 114
f 60 61 62
f 61 60 63
f 64 115 116
f 117 64 118
f 65 119 120
f 121 65 122
f 123 124 125
f 126 127 128
f 66 67 68
f 67 66 69
f 67 70 71
f 70 67 69
f 129 130 131
f 132 133 134
f 135 136 137
f 138 139 140
f 72 141 142
f 143 72 144
f 145 73 146
f 73 147 148
f 149 150 151
f 152 153 154
f 155 74 156
f 74 157 158
f 159 160 161
f 162 163 164
f 75 165 166
f 167 75 168
f 169 76 170
f 76 171 77
f 172 173 174
f 175 176 177
f 178 78 179
f 78 180 79
f 181 182 183
f 184 185 186
f 187 188 189
f 190 191 192
f 193 194 195
f 196 197 198
f 80 199 200
f 201 80 202
f 203 204 205
f 206 207 208
f 209 210 211
f 212 213 214
f 81 215 216
f 217 81 218
f 219 220 221
f 222 223 82
f 224 225 226
f 227 228 229
f 230 231 232
f 233 234 235
f 236 237 238
f 239 240 241
f 242 243 244
f 245 246 247
f 248 249 250
f 251 252 253
f 254 255 256
f 257 258 259
f 260 261 262
f 263 264 265
f 266 267 268
f 269 270 271
f 272 273 274
f 275 276 277
f 278 279 280
f 281 282 283
f 284 285 286
f 287 288 289
f 290 291 292
f 293 294 295
f 296 297 298
f 299 300 301
f 302 303 304
f 305 306 307
f 308 309 310
f 311 312 313
f 314 315 316
f 317 318 319
f 320 321 322
f 323 324 325
