v 0.029567 -0.112231 0.636718
v 0.029567 -0.112231 0.634257
v 0.029567 -0.112467 0.635488
v 0.029567 -0.111561 0.637761
v 0.029567 -0.111561 0.633214
v 0.029567 -0.110558 0.638458
v 0.029567 -0.110558 0.632517
v 0.029567 -0.109376 0.638702
v 0.029567 -0.109376 0.632273
v 0.029567 -0.108193 0.638458
v 0.029567 -0.108193 0.632517
v 0.029567 -0.107190 0.637761
v 0.029567 -0.107190 0.633214
v 0.029567 -0.106520 0.634257
v 0.029567 -0.106520 0.636718
v 0.029567 -0.106284 0.635488
v 0.035173 -0.118577 0.645682
v 0.035173 -0.118577 0.643221
v 0.035408 -0.118577 0.644451
v 0.034503 -0.118577 0.646725
v 0.034503 -0.118577 0.642178
v 0.033500 -0.118577 0.647422
v 0.033500 -0.118577 0.641481
v 0.032317 -0.118577 0.647666
v 0.032317 -0.118577 0.641237
v 0.031134 -0.118577 0.647422
v 0.031134 -0.118577 0.641481
v 0.030131 -0.118577 0.646725
v 0.030131 -0.118577 0.642178
v 0.029461 -0.118577 0.643221
v 0.029461 -0.118577 0.645682
v 0.029226 -0.118577 0.644451
v 0.037725 -0.118368 0.738245
v 0.042880 -0.118368 0.730970
v 0.042880 -0.118368 0.738245
v 0.037725 -0.118368 0.730970
v 0.042880 -0.113248 0.738245
v 0.037725 -0.113248 0.738245
v 0.037725 -0.118368 0.738245
v 0.042880 -0.118368 0.738245
v 0.037725 -0.118368 0.738245
f 1 2 3
f 2 1 4
f 2 4 5
f 5 4 6
f 5 6 7
f 7 6 8
f 7 8 9
f 9 8 10
f 9 10 11
f 11 10 12
f 11 12 13
f 13 12 14
f 14 12 15
f 14 15 16
f 17 18 19
f 18 17 20
f 18 20 21
f 21 20 22
f 21 22 23
f 23 22 24
f 23 24 25
f 25 24 26
f 25 26 27
f 27 26 28
f 27 28 29
f 29 28 30
f 30 28 31
f 30 31 32
f 33 34 35
f 34 33 36
f 37 39 40
f 41 37 38
