v -0.191325 -0.122949 0.550778
v -0.201825 -0.117759 0.546557
v -0.191325 -0.122949 0.546557
v -0.201825 -0.117759 0.550778
v -0.206348 -0.126910 0.569796
v -0.195848 -0.132099 0.546557
v -0.206348 -0.126910 0.546557
v -0.195848 -0.132099 0.569796
v -0.206348 -0.126910 0.619181
v -0.195848 -0.132099 0.594363
v -0.195848 -0.132099 0.619181
v -0.190512 -0.121305 0.590067
v -0.201013 -0.116115 0.550778
v -0.190512 -0.121305 0.550778
v -0.201013 -0.116115 0.619181
v -0.190512 -0.121305 0.619181
v -0.204153 -0.122469 0.546557
v 0.034978 -0.119548 0.610777
v 0.034611 -0.117484 0.611170
v 0.034696 -0.119570 0.611099
v 0.034892 -0.117462 0.610848
v 0.026985 -0.119794 0.608387
v 0.027155 -0.117703 0.608641
v 0.026899 -0.117707 0.608458
v 0.027241 -0.119789 0.608570
v 0.026795 -0.119792 0.608111
v 0.026709 -0.117706 0.608182
v 0.033313 -0.117549 0.611506
v 0.033399 -0.119635 0.611435
v 0.033618 -0.117539 0.611584
v 0.033704 -0.119625 0.611513
v 0.027613 -0.117582 0.605646
v 0.027378 -0.119689 0.605815
v 0.027292 -0.117603 0.605886
v 0.027698 -0.119668 0.605575
v 0.026640 -0.117668 0.607009
v 0.026661 -0.119772 0.607360
v 0.026575 -0.117686 0.607432
v 0.026725 -0.119755 0.606937
v 0.026684 -0.119784 0.607760
v 0.026599 -0.117698 0.607832
v 0.035349 -0.119505 0.609977
v 0.035115 -0.117439 0.610465
v 0.035200 -0.119526 0.610394
v 0.035263 -0.117419 0.610048
v 0.035279 -0.119468 0.608803
v 0.035004 -0.117380 0.608598
v 0.035193 -0.117382 0.608874
v 0.035089 -0.119466 0.608527
v 0.027096 -0.119712 0.606137
v 0.027011 -0.117626 0.606208
v 0.035390 -0.119475 0.609153
v 0.035304 -0.117389 0.609225
v 0.028370 -0.119634 0.605401
v 0.027951 -0.117563 0.605505
v 0.028285 -0.117548 0.605472
v 0.028037 -0.119649 0.605433
v 0.026788 -0.117648 0.606591
v 0.026874 -0.119734 0.606520
v 0.033951 -0.117524 0.611552
v 0.034037 -0.119610 0.611480
v 0.035328 -0.117402 0.609625
v 0.035413 -0.119488 0.609553
v 0.034290 -0.117506 0.611410
v 0.034747 -0.117384 0.608415
v 0.028590 -0.117539 0.605550
v 0.034833 -0.119470 0.608344
v 0.034376 -0.119592 0.611339
v 0.028675 -0.119625 0.605479
f 1 2 3
f 2 1 4
f 5 6 7
f 6 5 8
f 9 8 5
f 8 9 10
f 10 9 11
f 12 13 14
f 13 12 15
f 15 12 16
f 17 5 7
f 5 15 9
f 15 5 17
f 15 17 4
f 4 17 2
f 15 4 13
f 1 13 4
f 13 1 14
f 18 19 20
f 19 18 21
f 22 23 24
f 23 22 25
f 26 24 27
f 24 26 22
f 25 28 23
f 28 25 29
f 29 30 28
f 30 29 31
f 32 33 34
f 33 32 35
f 36 37 38
f 37 36 39
f 38 40 41
f 40 38 37
f 42 43 44
f 43 42 45
f 46 47 48
f 47 46 49
f 34 50 51
f 50 34 33
f 52 48 53
f 48 52 46
f 54 55 56
f 55 54 57
f 58 39 36
f 39 58 59
f 57 32 55
f 32 57 35
f 31 60 30
f 60 31 61
f 52 62 63
f 62 52 53
f 21 45 43
f 45 21 19
f 45 19 62
f 62 19 64
f 62 64 53
f 53 64 60
f 53 60 48
f 48 60 30
f 48 30 47
f 47 30 28
f 47 28 65
f 65 28 23
f 65 23 66
f 66 23 24
f 66 24 56
f 56 24 27
f 56 27 55
f 55 27 41
f 55 41 32
f 32 41 38
f 32 38 34
f 34 38 36
f 34 36 51
f 51 36 58
f 51 59 58
f 59 51 50
f 49 65 47
f 65 49 67
f 44 21 18
f 21 44 43
f 18 42 44
f 42 18 20
f 42 20 63
f 63 20 68
f 63 68 52
f 52 68 61
f 52 61 46
f 46 61 31
f 46 31 49
f 49 31 29
f 49 29 67
f 67 29 25
f 67 25 69
f 69 25 22
f 69 22 54
f 54 22 26
f 54 26 57
f 57 26 40
f 57 40 35
f 35 40 37
f 35 37 33
f 33 37 39
f 33 39 50
f 50 39 59
f 20 64 68
f 64 20 19
f 63 45 42
f 45 63 62
f 67 66 65
f 66 67 69
f 69 56 66
f 56 69 54
f 40 27 41
f 27 40 26
f 61 64 60
f 64 61 68
