v 0.111061 -0.124764 0.107964
v 0.110643 -0.124764 0.110762
v 0.084957 -0.124764 0.110319
v 0.136467 -0.124764 0.115244
v 0.135339 -0.124764 0.117839
v 0.159123 -0.124764 0.128851
v 0.157362 -0.124764 0.131065
v 0.177485 -0.124764 0.147858
v 0.175211 -0.124764 0.149541
v 0.190302 -0.124764 0.170970
v 0.187670 -0.124764 0.172008
v 0.196700 -0.124764 0.196612
v 0.193889 -0.124764 0.196933
v 0.196244 -0.124764 0.223036
v 0.193446 -0.124764 0.222619
v 0.186370 -0.124764 0.247314
v 0.188965 -0.124764 0.248442
v 0.173143 -0.124764 0.269337
v 0.175358 -0.124764 0.271098
v 0.154667 -0.124764 0.287186
v 0.156350 -0.124764 0.289460
v 0.132201 -0.124764 0.299645
v 0.133238 -0.124764 0.302278
v 0.107275 -0.124764 0.305865
v 0.107596 -0.124764 0.308676
v 0.081172 -0.124764 0.308220
v 0.084636 -0.124764 0.107508
v 0.058995 -0.124764 0.113906
v 0.060032 -0.124764 0.116539
v 0.035882 -0.124764 0.126724
v 0.037566 -0.124764 0.128998
v 0.016875 -0.124764 0.145086
v 0.019090 -0.124764 0.146847
v 0.003268 -0.124764 0.167742
v 0.005863 -0.124764 0.168870
v -0.004012 -0.124764 0.193148
v -0.001213 -0.124764 0.193565
v -0.004468 -0.124764 0.219572
v -0.001657 -0.124764 0.219251
v 0.002214 -0.124764 0.234762
v 0.001931 -0.124764 0.245214
v 0.004563 -0.124764 0.244176
v 0.005473 -0.124764 0.245817
v 0.003020 -0.124764 0.247177
v 0.017022 -0.124764 0.266642
v 0.014748 -0.124764 0.268326
v 0.034871 -0.124764 0.285119
v 0.033110 -0.124764 0.287333
v 0.056894 -0.124764 0.298345
v 0.055766 -0.124764 0.300940
v 0.069242 -0.124764 0.301883
v 0.068469 -0.124764 0.304580
v 0.075447 -0.124764 0.303661
v 0.081590 -0.124764 0.305422
v 0.074410 -0.124764 0.304618
v 0.072601 -0.124764 0.304710
v 0.072229 -0.124764 0.304672
v 0.080687 -0.124764 0.306416
v 0.072953 -0.124764 0.304905
v 0.073229 -0.124764 0.305227
v 0.073390 -0.124764 0.305627
v 0.073409 -0.124764 0.306045
v 0.073285 -0.124764 0.306417
v 0.106937 -0.124764 0.306869
v 0.073036 -0.124764 0.306686
v 0.072700 -0.124764 0.306811
v 0.110806 -0.124764 0.104620
v 0.110379 -0.124764 0.107480
v 0.089142 -0.124764 0.105053
v 0.136770 -0.124764 0.112060
v 0.089540 -0.124764 0.105105
v 0.089916 -0.124764 0.105304
v 0.090212 -0.124764 0.105617
v 0.090383 -0.124764 0.105999
v 0.090404 -0.124764 0.106391
v 0.090271 -0.124764 0.106732
v 0.090004 -0.124764 0.106972
v 0.089644 -0.124764 0.107073
v 0.135617 -0.124764 0.114712
v 0.159924 -0.124764 0.125966
v 0.158124 -0.124764 0.128229
v 0.178689 -0.124764 0.145391
v 0.158174 -0.124764 0.128281
v 0.176365 -0.124764 0.147111
v 0.191788 -0.124764 0.169011
v 0.189098 -0.124764 0.170071
v 0.198327 -0.124764 0.195216
v 0.195454 -0.124764 0.195544
v 0.197861 -0.124764 0.222221
v 0.195001 -0.124764 0.221794
v 0.187769 -0.124764 0.247032
v 0.190421 -0.124764 0.248185
v 0.174252 -0.124764 0.269539
v 0.176515 -0.124764 0.271339
v 0.155370 -0.124764 0.287780
v 0.157090 -0.124764 0.290104
v 0.132410 -0.124764 0.300513
v 0.133470 -0.124764 0.303203
v 0.107265 -0.124764 0.309742
v 0.080260 -0.124764 0.309276
v 0.083801 -0.124764 0.104154
v 0.057595 -0.124764 0.110693
v 0.088782 -0.124764 0.105154
v 0.088515 -0.124764 0.105394
v 0.088382 -0.124764 0.105735
v 0.088403 -0.124764 0.106127
v 0.084129 -0.124764 0.107027
v 0.088574 -0.124764 0.106508
v 0.088870 -0.124764 0.106822
v 0.089246 -0.124764 0.107021
v 0.058656 -0.124764 0.113383
v 0.033976 -0.124764 0.123792
v 0.035696 -0.124764 0.126116
v 0.014551 -0.124764 0.142558
v 0.016814 -0.124764 0.144357
v 0.000645 -0.124764 0.165711
v 0.003297 -0.124764 0.166864
v -0.006795 -0.124764 0.191675
v -0.003935 -0.124764 0.192102
v -0.007261 -0.124764 0.218680
v -0.003949 -0.124764 0.192931
v -0.004388 -0.124764 0.218352
v -0.000433 -0.124764 0.234205
v -0.000722 -0.124764 0.244886
v 0.001968 -0.124764 0.243825
v 0.002898 -0.124764 0.245502
v 0.000391 -0.124764 0.246892
v 0.014701 -0.124764 0.266785
v 0.012377 -0.124764 0.268506
v 0.032942 -0.124764 0.285667
v 0.031142 -0.124764 0.287930
v 0.055449 -0.124764 0.299185
v 0.054296 -0.124764 0.301837
v 0.068068 -0.124764 0.302800
v 0.067278 -0.124764 0.305556
v 0.071893 -0.124764 0.304797
v 0.071644 -0.124764 0.305066
v 0.071520 -0.124764 0.305438
v 0.071539 -0.124764 0.305856
v 0.071700 -0.124764 0.306257
v 0.071977 -0.124764 0.306579
v 0.072328 -0.124764 0.306774
f 1 2 3
f 2 1 4
f 2 4 5
f 5 4 6
f 5 6 7
f 7 6 8
f 7 8 9
f 9 8 10
f 9 10 11
f 11 10 12
f 11 12 13
f 13 12 14
f 13 14 15
f 15 14 16
f 16 14 17
f 16 17 18
f 18 17 19
f 18 19 20
f 20 19 21
f 20 21 22
f 22 21 23
f 22 23 24
f 24 23 25
f 24 25 26
f 27 3 28
f 3 27 1
f 28 3 29
f 28 29 30
f 30 29 31
f 30 31 32
f 32 31 33
f 32 33 34
f 34 33 35
f 34 35 36
f 36 35 37
f 36 37 38
f 38 37 39
f 38 39 40
f 38 40 41
f 41 40 42
f 41 42 43
f 41 43 44
f 44 43 45
f 44 45 46
f 46 45 47
f 46 47 48
f 48 47 49
f 48 49 50
f 50 49 51
f 50 51 52
f 52 51 53
f 52 53 54
f 52 54 26
f 26 54 24
f 55 56 57
f 56 55 58
f 56 58 59
f 59 58 60
f 60 58 61
f 61 58 62
f 62 58 63
f 63 58 64
f 63 64 65
f 65 64 66
f 67 68 69
f 68 67 70
f 69 68 71
f 71 68 72
f 72 68 73
f 73 68 74
f 74 68 75
f 75 68 76
f 76 68 77
f 77 68 78
f 68 70 79
f 79 70 80
f 79 80 81
f 81 80 82
f 81 82 83
f 83 82 84
f 84 82 85
f 84 85 86
f 86 85 87
f 86 87 88
f 88 87 89
f 88 89 90
f 90 89 91
f 91 89 92
f 91 92 93
f 93 92 94
f 93 94 95
f 95 94 96
f 95 96 97
f 97 96 98
f 97 98 64
f 64 98 99
f 64 99 100
f 101 69 102
f 69 101 67
f 102 69 103
f 102 103 104
f 102 104 105
f 102 105 106
f 102 106 107
f 107 106 108
f 107 108 109
f 107 109 110
f 102 107 111
f 102 111 112
f 112 111 113
f 112 113 114
f 114 113 115
f 114 115 116
f 116 115 117
f 116 117 118
f 118 117 119
f 118 119 120
f 120 119 121
f 120 121 122
f 120 122 123
f 120 123 124
f 124 123 125
f 124 125 126
f 124 126 127
f 127 126 128
f 127 128 129
f 129 128 130
f 129 130 131
f 131 130 132
f 131 132 133
f 133 132 134
f 133 134 135
f 135 134 57
f 57 134 55
f 135 57 136
f 135 136 137
f 135 137 138
f 135 138 139
f 135 139 140
f 135 140 141
f 135 141 142
f 135 142 100
f 100 142 66
f 100 66 64
f 78 107 110
f 107 78 68
f 56 136 57
f 136 56 59
f 136 59 137
f 137 59 60
f 137 60 138
f 138 60 61
f 138 61 139
f 139 61 62
f 139 62 140
f 140 62 63
f 140 63 141
f 141 63 65
f 141 65 142
f 142 65 66
f 71 103 69
f 103 71 72
f 103 72 104
f 104 72 73
f 104 73 105
f 105 73 74
f 105 74 106
f 106 74 75
f 106 75 108
f 108 75 76
f 108 76 109
f 109 76 77
f 109 77 110
f 110 77 78
