v 0.016340 -0.155396 0.737751
v 0.016114 -0.155283 0.738022
v 0.016376 -0.155283 0.737840
v 0.016048 -0.155396 0.737954
v 0.016026 -0.155187 0.738615
v 0.016254 -0.155113 0.738430
v 0.016076 -0.155187 0.738353
v 0.016218 -0.155113 0.738615
v 0.016328 -0.155516 0.737720
v 0.016684 -0.155396 0.737680
v 0.016684 -0.155516 0.737647
v 0.016684 -0.155283 0.737776
v 0.016684 -0.155050 0.738615
v 0.016855 -0.155066 0.738438
v 0.016777 -0.155066 0.738384
v 0.016355 -0.155113 0.738273
v 0.016218 -0.155187 0.738131
v 0.017516 -0.155637 0.738257
v 0.017343 -0.155516 0.737930
v 0.017545 -0.155516 0.738245
v 0.017321 -0.155637 0.737954
v 0.016114 -0.155749 0.738022
v 0.015853 -0.155637 0.738257
v 0.016048 -0.155637 0.737954
v 0.015939 -0.155749 0.738294
v 0.016684 -0.155066 0.738866
v 0.016777 -0.155066 0.738847
v 0.015824 -0.155516 0.738986
v 0.016048 -0.155396 0.739277
v 0.015853 -0.155396 0.738974
v 0.016026 -0.155516 0.739300
v 0.016862 -0.155113 0.739063
v 0.016684 -0.155113 0.739100
v 0.017321 -0.155396 0.739277
v 0.017041 -0.155516 0.739510
v 0.017343 -0.155516 0.739300
v 0.017029 -0.155396 0.739480
v 0.016907 -0.155066 0.738711
v 0.016925 -0.155066 0.738615
v 0.016506 -0.155113 0.739063
v 0.016592 -0.155066 0.738847
v 0.017516 -0.155637 0.738974
v 0.017616 -0.155516 0.738615
v 0.017545 -0.155516 0.738986
v 0.017584 -0.155637 0.738615
v 0.016076 -0.155187 0.738878
v 0.016355 -0.155113 0.738958
v 0.016254 -0.155113 0.738801
v 0.016218 -0.155187 0.739100
v 0.015753 -0.155516 0.738615
v 0.015784 -0.155396 0.738615
v 0.015824 -0.155516 0.738245
v 0.015853 -0.155396 0.738257
v 0.015878 -0.155749 0.738615
v 0.015853 -0.155637 0.738974
v 0.015784 -0.155637 0.738615
v 0.015939 -0.155749 0.738937
v 0.016026 -0.155516 0.737930
v 0.015878 -0.155283 0.738615
v 0.015939 -0.155283 0.738294
v 0.016684 -0.155187 0.737930
v 0.016432 -0.155187 0.737983
v 0.016462 -0.155066 0.738519
v 0.016443 -0.155066 0.738615
v 0.015939 -0.155283 0.738937
v 0.016907 -0.155066 0.738519
v 0.016376 -0.155749 0.737840
v 0.016684 -0.155637 0.737680
v 0.016684 -0.155749 0.737776
v 0.016340 -0.155637 0.737751
v 0.017029 -0.155396 0.737751
v 0.017041 -0.155516 0.737720
v 0.017255 -0.155283 0.739209
v 0.016993 -0.155283 0.739391
v 0.017014 -0.155113 0.738273
v 0.017293 -0.155187 0.738353
v 0.017150 -0.155187 0.738131
v 0.017115 -0.155113 0.738430
v 0.017430 -0.155283 0.738294
v 0.017255 -0.155283 0.738022
v 0.017516 -0.155396 0.738974
v 0.017491 -0.155283 0.738615
v 0.017430 -0.155283 0.738937
v 0.017584 -0.155396 0.738615
v 0.016684 -0.155066 0.738365
v 0.016328 -0.155516 0.739510
v 0.016048 -0.155637 0.739277
v 0.016340 -0.155637 0.739480
v 0.017321 -0.155637 0.739277
v 0.016684 -0.155396 0.739551
v 0.016684 -0.155283 0.739454
v 0.016862 -0.155113 0.738168
v 0.016114 -0.155283 0.739209
v 0.016340 -0.155396 0.739480
v 0.016376 -0.155283 0.739391
v 0.016114 -0.155749 0.739209
v 0.017150 -0.155187 0.739100
v 0.017014 -0.155113 0.738958
v 0.016936 -0.155187 0.739248
v 0.016855 -0.155066 0.738793
v 0.016514 -0.155066 0.738793
v 0.016462 -0.155066 0.738711
v 0.017343 -0.155187 0.738615
v 0.016936 -0.155187 0.737983
v 0.016684 -0.155113 0.738131
v 0.016506 -0.155113 0.738168
v 0.017029 -0.155637 0.739480
v 0.016432 -0.155187 0.739248
v 0.017516 -0.155396 0.738257
v 0.016684 -0.155749 0.739454
v 0.016684 -0.155637 0.739551
v 0.016376 -0.155749 0.739391
v 0.016514 -0.155066 0.738438
v 0.017150 -0.155113 0.738615
v 0.017321 -0.155396 0.737954
v 0.016993 -0.155283 0.737840
v 0.017115 -0.155113 0.738801
v 0.016592 -0.155066 0.738384
v 0.016993 -0.155749 0.739391
v 0.017293 -0.155187 0.738878
v 0.017491 -0.155749 0.738615
v 0.017301 -0.155749 0.738510
v 0.017430 -0.155749 0.738294
v 0.017301 -0.155749 0.738814
v 0.017430 -0.155749 0.738937
v 0.016837 -0.155749 0.738814
v 0.016837 -0.155749 0.739278
v 0.017255 -0.155749 0.739209
v 0.016554 -0.155749 0.739278
v 0.016116 -0.155749 0.738814
v 0.016554 -0.155749 0.738814
v 0.016554 -0.155749 0.738001
v 0.016837 -0.155749 0.738001
v 0.016554 -0.155749 0.738510
v 0.016116 -0.155749 0.738510
v 0.016993 -0.155749 0.737840
v 0.017255 -0.155749 0.738022
v 0.016837 -0.155749 0.738510
v 0.016684 -0.155516 0.739584
v 0.016684 -0.155187 0.739300
v 0.017029 -0.155637 0.737751
v 0.016837 -0.155617 0.739278
v 0.016554 -0.155617 0.738814
v 0.016837 -0.155617 0.738814
v 0.016554 -0.155617 0.739278
v 0.017301 -0.155617 0.738814
v 0.016837 -0.155617 0.738510
v 0.017301 -0.155617 0.738510
v 0.016554 -0.155617 0.738510
v 0.016116 -0.155617 0.738510
v 0.016116 -0.155617 0.738814
v 0.016554 -0.155617 0.738001
v 0.016837 -0.155617 0.738001
v 0.016340 -0.155396 0.737751
v 0.016340 -0.155396 0.737751
v 0.016684 -0.155396 0.737680
v 0.016340 -0.155396 0.737751
v 0.016376 -0.155283 0.737840
v 0.016076 -0.155187 0.738353
v 0.016076 -0.155187 0.738353
v 0.016254 -0.155113 0.738430
v 0.016684 -0.155050 0.738615
v 0.016684 -0.155066 0.738866
v 0.016777 -0.155066 0.738847
v 0.016684 -0.155066 0.738866
v 0.016684 -0.155050 0.738615
v 0.016684 -0.155066 0.738866
v 0.016684 -0.155066 0.738866
v 0.016684 -0.155113 0.739100
v 0.015853 -0.155396 0.738974
v 0.015853 -0.155396 0.738974
v 0.015824 -0.155516 0.738986
v 0.015784 -0.155396 0.738615
v 0.015784 -0.155396 0.738615
v 0.015753 -0.155516 0.738615
v 0.016048 -0.155637 0.737954
v 0.015824 -0.155516 0.738245
v 0.015824 -0.155516 0.738245
v 0.016048 -0.155637 0.737954
v 0.015853 -0.155637 0.738257
v 0.016026 -0.155516 0.737930
v 0.015853 -0.155396 0.738257
v 0.016048 -0.155396 0.737954
v 0.015853 -0.155396 0.738257
v 0.016026 -0.155516 0.737930
v 0.015824 -0.155516 0.738245
v 0.016076 -0.155187 0.738353
v 0.016076 -0.155187 0.738353
v 0.016026 -0.155187 0.738615
v 0.016376 -0.155283 0.737840
v 0.016684 -0.155283 0.737776
v 0.016376 -0.155283 0.737840
v 0.016218 -0.155113 0.738615
v 0.016254 -0.155113 0.738430
v 0.016218 -0.155113 0.738615
v 0.015784 -0.155396 0.738615
v 0.015878 -0.155283 0.738615
v 0.015784 -0.155396 0.738615
v 0.015853 -0.155396 0.738974
v 0.016684 -0.155050 0.738615
v 0.016855 -0.155066 0.738438
v 0.016684 -0.155516 0.737647
v 0.016684 -0.155516 0.737647
v 0.016684 -0.155396 0.737680
v 0.016684 -0.155066 0.738866
v 0.016684 -0.155050 0.738615
v 0.016592 -0.155066 0.738847
v 0.017029 -0.155396 0.739480
v 0.017321 -0.155396 0.739277
v 0.017029 -0.155396 0.739480
v 0.017150 -0.155187 0.738131
v 0.017150 -0.155187 0.738131
v 0.017293 -0.155187 0.738353
v 0.016684 -0.155050 0.738615
v 0.016777 -0.155066 0.738384
v 0.017343 -0.155516 0.739300
v 0.017516 -0.155396 0.738974
v 0.017321 -0.155396 0.739277
v 0.017516 -0.155396 0.738974
v 0.017343 -0.155516 0.739300
v 0.017545 -0.155516 0.738986
v 0.016026 -0.155516 0.739300
v 0.017545 -0.155516 0.738986
v 0.017343 -0.155516 0.739300
v 0.017545 -0.155516 0.738986
v 0.017516 -0.155637 0.738974
v 0.016993 -0.155283 0.739391
v 0.017029 -0.155396 0.739480
v 0.016993 -0.155283 0.739391
v 0.016777 -0.155066 0.738384
v 0.017014 -0.155113 0.738273
v 0.017014 -0.155113 0.738273
v 0.016777 -0.155066 0.738384
v 0.016855 -0.155066 0.738438
v 0.016048 -0.155396 0.739277
v 0.016340 -0.155637 0.737751
v 0.016684 -0.155516 0.737647
v 0.016684 -0.155637 0.737680
v 0.016684 -0.155516 0.737647
v 0.016340 -0.155637 0.737751
v 0.016328 -0.155516 0.737720
v 0.015939 -0.155749 0.738937
v 0.016048 -0.155637 0.739277
v 0.015853 -0.155637 0.738974
v 0.016048 -0.155637 0.739277
v 0.015939 -0.155749 0.738937
v 0.016862 -0.155113 0.739063
v 0.016862 -0.155113 0.739063
v 0.016777 -0.155066 0.738847
v 0.017014 -0.155113 0.738958
v 0.017014 -0.155113 0.738958
v 0.016777 -0.155066 0.738847
v 0.016862 -0.155113 0.739063
v 0.016777 -0.155066 0.738847
v 0.016855 -0.155066 0.738793
v 0.016684 -0.155050 0.738615
v 0.016254 -0.155113 0.738801
v 0.016254 -0.155113 0.738801
v 0.016355 -0.155113 0.738958
v 0.015939 -0.155283 0.738937
v 0.016218 -0.155187 0.739100
v 0.016076 -0.155187 0.738878
v 0.016218 -0.155187 0.739100
v 0.015939 -0.155283 0.738937
v 0.016114 -0.155283 0.739209
v 0.016076 -0.155187 0.738878
v 0.016218 -0.155113 0.738615
v 0.016026 -0.155187 0.738615
v 0.016218 -0.155113 0.738615
v 0.016076 -0.155187 0.738878
v 0.016254 -0.155113 0.738801
v 0.017293 -0.155187 0.738353
v 0.017491 -0.155283 0.738615
v 0.017430 -0.155283 0.738294
v 0.017491 -0.155283 0.738615
v 0.017293 -0.155187 0.738353
v 0.016862 -0.155113 0.738168
v 0.017150 -0.155187 0.738131
v 0.017150 -0.155187 0.738131
v 0.016862 -0.155113 0.738168
v 0.017014 -0.155113 0.738273
v 0.016432 -0.155187 0.737983
v 0.016684 -0.155187 0.737930
v 0.016432 -0.155187 0.737983
v 0.017041 -0.155516 0.739510
v 0.017321 -0.155637 0.739277
v 0.017343 -0.155516 0.739300
v 0.017321 -0.155637 0.739277
v 0.017041 -0.155516 0.739510
v 0.016048 -0.155637 0.737954
v 0.016328 -0.155516 0.737720
v 0.016340 -0.155637 0.737751
v 0.016328 -0.155516 0.737720
v 0.016048 -0.155637 0.737954
v 0.016026 -0.155516 0.737930
v 0.016114 -0.155283 0.739209
v 0.016218 -0.155187 0.739100
v 0.016114 -0.155283 0.739209
v 0.016376 -0.155283 0.739391
v 0.017584 -0.155396 0.738615
v 0.017430 -0.155283 0.738294
v 0.017491 -0.155283 0.738615
v 0.017430 -0.155283 0.738294
v 0.017584 -0.155396 0.738615
v 0.016684 -0.155113 0.738131
v 0.016936 -0.155187 0.737983
v 0.016684 -0.155187 0.737930
v 0.016936 -0.155187 0.737983
v 0.016684 -0.155113 0.738131
v 0.016862 -0.155113 0.738168
v 0.016925 -0.155066 0.738615
v 0.016907 -0.155066 0.738519
v 0.016684 -0.155050 0.738615
v 0.016340 -0.155637 0.739480
v 0.016340 -0.155637 0.739480
v 0.015853 -0.155396 0.738257
v 0.015878 -0.155283 0.738615
v 0.015939 -0.155283 0.738294
v 0.015878 -0.155283 0.738615
v 0.015853 -0.155396 0.738257
v 0.015784 -0.155396 0.738615
v 0.016684 -0.155050 0.738615
v 0.016462 -0.155066 0.738519
v 0.016907 -0.155066 0.738519
v 0.017115 -0.155113 0.738430
v 0.016907 -0.155066 0.738519
v 0.016925 -0.155066 0.738615
v 0.017029 -0.155396 0.737751
v 0.017255 -0.155283 0.738022
v 0.017255 -0.155283 0.738022
v 0.017029 -0.155396 0.737751
v 0.017115 -0.155113 0.738430
v 0.017343 -0.155187 0.738615
v 0.017293 -0.155187 0.738353
v 0.017343 -0.155187 0.738615
v 0.017115 -0.155113 0.738430
v 0.017150 -0.155113 0.738615
v 0.016376 -0.155283 0.739391
v 0.016684 -0.155396 0.739551
v 0.016684 -0.155283 0.739454
v 0.016684 -0.155396 0.739551
v 0.016376 -0.155283 0.739391
v 0.016340 -0.155396 0.739480
v 0.016855 -0.155066 0.738793
v 0.016907 -0.155066 0.738711
v 0.016855 -0.155066 0.738793
v 0.017014 -0.155113 0.738958
v 0.016684 -0.155050 0.738615
v 0.016514 -0.155066 0.738438
v 0.016855 -0.155066 0.738793
v 0.016907 -0.155066 0.738711
v 0.016684 -0.155050 0.738615
v 0.016684 -0.155637 0.739551
v 0.017029 -0.155637 0.739480
v 0.016684 -0.155637 0.739551
v 0.016684 -0.155749 0.739454
v 0.017516 -0.155396 0.738257
v 0.017255 -0.155283 0.738022
v 0.017430 -0.155283 0.738294
v 0.017255 -0.155283 0.738022
v 0.017516 -0.155396 0.738257
v 0.017321 -0.155396 0.737954
v 0.016855 -0.155066 0.738438
v 0.017115 -0.155113 0.738430
v 0.017014 -0.155113 0.738273
v 0.017115 -0.155113 0.738430
v 0.016855 -0.155066 0.738438
v 0.016907 -0.155066 0.738519
v 0.017321 -0.155396 0.739277
v 0.017430 -0.155283 0.738937
v 0.017255 -0.155283 0.739209
v 0.017430 -0.155283 0.738937
v 0.017321 -0.155396 0.739277
v 0.017516 -0.155396 0.738974
v 0.016048 -0.155396 0.737954
v 0.015939 -0.155283 0.738294
v 0.016114 -0.155283 0.738022
v 0.015939 -0.155283 0.738294
v 0.016048 -0.155396 0.737954
v 0.015853 -0.155396 0.738257
v 0.016328 -0.155516 0.737720
v 0.016048 -0.155396 0.737954
v 0.016340 -0.155396 0.737751
v 0.016048 -0.155396 0.737954
v 0.016328 -0.155516 0.737720
v 0.016026 -0.155516 0.737930
v 0.016684 -0.155187 0.737930
v 0.016993 -0.155283 0.737840
v 0.016684 -0.155283 0.737776
v 0.016993 -0.155283 0.737840
v 0.016684 -0.155187 0.737930
v 0.016936 -0.155187 0.737983
v 0.017115 -0.155113 0.738801
v 0.017343 -0.155187 0.738615
v 0.017150 -0.155113 0.738615
v 0.017343 -0.155187 0.738615
v 0.017115 -0.155113 0.738801
v 0.016907 -0.155066 0.738711
v 0.017150 -0.155113 0.738615
v 0.016925 -0.155066 0.738615
v 0.017150 -0.155113 0.738615
v 0.016907 -0.155066 0.738711
v 0.017115 -0.155113 0.738801
v 0.017150 -0.155187 0.739100
v 0.017430 -0.155283 0.738937
v 0.017293 -0.155187 0.738878
v 0.017430 -0.155283 0.738937
v 0.017150 -0.155187 0.739100
v 0.017255 -0.155283 0.739209
v 0.017014 -0.155113 0.738958
v 0.017293 -0.155187 0.738878
v 0.017115 -0.155113 0.738801
v 0.017293 -0.155187 0.738878
v 0.017014 -0.155113 0.738958
v 0.017150 -0.155187 0.739100
v 0.017041 -0.155516 0.737720
v 0.017321 -0.155396 0.737954
v 0.017343 -0.155516 0.737930
v 0.017321 -0.155396 0.737954
v 0.017041 -0.155516 0.737720
v 0.017029 -0.155396 0.737751
v 0.016993 -0.155749 0.739391
v 0.016993 -0.155749 0.739391
v 0.015939 -0.155749 0.738937
v 0.015939 -0.155749 0.738937
v 0.016114 -0.155749 0.739209
v 0.016114 -0.155749 0.739209
v 0.016376 -0.155749 0.739391
v 0.016376 -0.155749 0.739391
v 0.016993 -0.155749 0.739391
v 0.016376 -0.155749 0.739391
v 0.016993 -0.155749 0.739391
v 0.016684 -0.155749 0.739454
v 0.016376 -0.155749 0.737840
v 0.016114 -0.155749 0.738022
v 0.016376 -0.155749 0.737840
v 0.016114 -0.155749 0.738022
v 0.016114 -0.155749 0.738022
v 0.015939 -0.155749 0.738294
v 0.015939 -0.155749 0.738294
v 0.015939 -0.155749 0.738294
v 0.015878 -0.155749 0.738615
v 0.015878 -0.155749 0.738615
v 0.015878 -0.155749 0.738615
v 0.015939 -0.155749 0.738937
v 0.016376 -0.155749 0.737840
v 0.016684 -0.155749 0.737776
v 0.016376 -0.155749 0.737840
v 0.016376 -0.155749 0.737840
v 0.016684 -0.155396 0.737680
v 0.016993 -0.155283 0.737840
v 0.017029 -0.155396 0.737751
v 0.016993 -0.155283 0.737840
v 0.016684 -0.155396 0.737680
v 0.016684 -0.155283 0.737776
v 0.016936 -0.155187 0.739248
v 0.017255 -0.155283 0.739209
v 0.017150 -0.155187 0.739100
v 0.017255 -0.155283 0.739209
v 0.016936 -0.155187 0.739248
v 0.016993 -0.155283 0.739391
v 0.017545 -0.155516 0.738986
v 0.017584 -0.155396 0.738615
v 0.017516 -0.155396 0.738974
v 0.017584 -0.155396 0.738615
v 0.017545 -0.155516 0.738986
v 0.017616 -0.155516 0.738615
v 0.016355 -0.155113 0.738958
v 0.016592 -0.155066 0.738847
v 0.016514 -0.155066 0.738793
v 0.016592 -0.155066 0.738847
v 0.016355 -0.155113 0.738958
v 0.016506 -0.155113 0.739063
v 0.016218 -0.155187 0.739100
v 0.016506 -0.155113 0.739063
v 0.016355 -0.155113 0.738958
v 0.016506 -0.155113 0.739063
v 0.016218 -0.155187 0.739100
v 0.016432 -0.155187 0.739248
v 0.016114 -0.155749 0.738022
v 0.016340 -0.155637 0.737751
v 0.016376 -0.155749 0.737840
v 0.016340 -0.155637 0.737751
v 0.016114 -0.155749 0.738022
v 0.016048 -0.155637 0.737954
v 0.015939 -0.155749 0.738294
v 0.015784 -0.155637 0.738615
v 0.015853 -0.155637 0.738257
v 0.015784 -0.155637 0.738615
v 0.015939 -0.155749 0.738294
v 0.015878 -0.155749 0.738615
v 0.017029 -0.155637 0.739480
v 0.017041 -0.155516 0.739510
v 0.017029 -0.155637 0.739480
v 0.016684 -0.155637 0.739551
v 0.017029 -0.155396 0.739480
v 0.016684 -0.155516 0.739584
v 0.017041 -0.155516 0.739510
v 0.016684 -0.155516 0.739584
v 0.017029 -0.155396 0.739480
v 0.016684 -0.155396 0.739551
v 0.016432 -0.155187 0.739248
v 0.016684 -0.155113 0.739100
v 0.016506 -0.155113 0.739063
v 0.016684 -0.155113 0.739100
v 0.016432 -0.155187 0.739248
v 0.016376 -0.155283 0.739391
v 0.016684 -0.155187 0.739300
v 0.016432 -0.155187 0.739248
v 0.016684 -0.155187 0.739300
v 0.016376 -0.155283 0.739391
v 0.016684 -0.155283 0.739454
v 0.016340 -0.155396 0.739480
v 0.016684 -0.155516 0.739584
v 0.016684 -0.155396 0.739551
v 0.016684 -0.155516 0.739584
v 0.016340 -0.155396 0.739480
v 0.016328 -0.155516 0.739510
v 0.017545 -0.155516 0.738245
v 0.017321 -0.155396 0.737954
v 0.017516 -0.155396 0.738257
v 0.017321 -0.155396 0.737954
v 0.017545 -0.155516 0.738245
v 0.017343 -0.155516 0.737930
v 0.017255 -0.155749 0.739209
v 0.017516 -0.155637 0.738974
v 0.017321 -0.155637 0.739277
v 0.017516 -0.155637 0.738974
v 0.017255 -0.155749 0.739209
v 0.017430 -0.155749 0.738937
v 0.016328 -0.155516 0.739510
v 0.016684 -0.155637 0.739551
v 0.016684 -0.155516 0.739584
v 0.016684 -0.155637 0.739551
v 0.016328 -0.155516 0.739510
v 0.016340 -0.155637 0.739480
v 0.016684 -0.155050 0.738615
v 0.016684 -0.155066 0.738365
v 0.016592 -0.155066 0.738384
v 0.016254 -0.155113 0.738801
v 0.016443 -0.155066 0.738615
v 0.016218 -0.155113 0.738615
v 0.016443 -0.155066 0.738615
v 0.016254 -0.155113 0.738801
v 0.016462 -0.155066 0.738711
v 0.016462 -0.155066 0.738711
v 0.016684 -0.155050 0.738615
v 0.016443 -0.155066 0.738615
v 0.016684 -0.155050 0.738615
v 0.016462 -0.155066 0.738519
v 0.016443 -0.155066 0.738615
v 0.016355 -0.155113 0.738273
v 0.016592 -0.155066 0.738384
v 0.016506 -0.155113 0.738168
v 0.016592 -0.155066 0.738384
v 0.016355 -0.155113 0.738273
v 0.016514 -0.155066 0.738438
v 0.016048 -0.155396 0.739277
v 0.016328 -0.155516 0.739510
v 0.016340 -0.155396 0.739480
v 0.016328 -0.155516 0.739510
v 0.016048 -0.155396 0.739277
v 0.016026 -0.155516 0.739300
v 0.017430 -0.155749 0.738294
v 0.017321 -0.155637 0.737954
v 0.017516 -0.155637 0.738257
v 0.017321 -0.155637 0.737954
v 0.017430 -0.155749 0.738294
v 0.017255 -0.155749 0.738022
v 0.017491 -0.155749 0.738615
v 0.017516 -0.155637 0.738257
v 0.017584 -0.155637 0.738615
v 0.017516 -0.155637 0.738257
v 0.017491 -0.155749 0.738615
v 0.017430 -0.155749 0.738294
v 0.016254 -0.155113 0.738430
v 0.016514 -0.155066 0.738438
v 0.016355 -0.155113 0.738273
v 0.016514 -0.155066 0.738438
v 0.016254 -0.155113 0.738430
v 0.016462 -0.155066 0.738519
v 0.017516 -0.155396 0.738257
v 0.017584 -0.155396 0.738615
v 0.017516 -0.155396 0.738257
v 0.017545 -0.155516 0.738245
v 0.016936 -0.155187 0.737983
v 0.017255 -0.155283 0.738022
v 0.016993 -0.155283 0.737840
v 0.017255 -0.155283 0.738022
v 0.016936 -0.155187 0.737983
v 0.017150 -0.155187 0.738131
v 0.017041 -0.155516 0.737720
v 0.016684 -0.155637 0.737680
v 0.016506 -0.155113 0.738168
v 0.016684 -0.155066 0.738365
v 0.016684 -0.155113 0.738131
v 0.016684 -0.155066 0.738365
v 0.016506 -0.155113 0.738168
v 0.016592 -0.155066 0.738384
v 0.016993 -0.155749 0.737840
v 0.016684 -0.155637 0.737680
v 0.017029 -0.155637 0.737751
v 0.016684 -0.155637 0.737680
v 0.016993 -0.155749 0.737840
v 0.016684 -0.155749 0.737776
v 0.016340 -0.155637 0.739480
v 0.016114 -0.155749 0.739209
v 0.016376 -0.155749 0.739391
v 0.016114 -0.155749 0.739209
v 0.016340 -0.155637 0.739480
v 0.016048 -0.155637 0.739277
v 0.015853 -0.155396 0.738974
v 0.016114 -0.155283 0.739209
v 0.015939 -0.155283 0.738937
v 0.016114 -0.155283 0.739209
v 0.015853 -0.155396 0.738974
v 0.016048 -0.155396 0.739277
v 0.017321 -0.155637 0.737954
v 0.017041 -0.155516 0.737720
v 0.017343 -0.155516 0.737930
v 0.017041 -0.155516 0.737720
v 0.017321 -0.155637 0.737954
v 0.017029 -0.155637 0.737751
v 0.015939 -0.155283 0.738294
v 0.016218 -0.155187 0.738131
v 0.016114 -0.155283 0.738022
v 0.016218 -0.155187 0.738131
v 0.015939 -0.155283 0.738294
v 0.016076 -0.155187 0.738353
v 0.016684 -0.155187 0.739300
v 0.016993 -0.155283 0.739391
v 0.016936 -0.155187 0.739248
v 0.016993 -0.155283 0.739391
v 0.016684 -0.155187 0.739300
v 0.016684 -0.155283 0.739454
v 0.016684 -0.155113 0.739100
v 0.016936 -0.155187 0.739248
v 0.016862 -0.155113 0.739063
v 0.016936 -0.155187 0.739248
v 0.016684 -0.155113 0.739100
v 0.016684 -0.155187 0.739300
v 0.017430 -0.155749 0.738937
v 0.017584 -0.155637 0.738615
v 0.017516 -0.155637 0.738974
v 0.017584 -0.155637 0.738615
v 0.017430 -0.155749 0.738937
v 0.017491 -0.155749 0.738615
v 0.016114 -0.155283 0.738022
v 0.016432 -0.155187 0.737983
v 0.016376 -0.155283 0.737840
v 0.016432 -0.155187 0.737983
v 0.016114 -0.155283 0.738022
v 0.016218 -0.155187 0.738131
v 0.017255 -0.155749 0.738022
v 0.017029 -0.155637 0.737751
v 0.017321 -0.155637 0.737954
v 0.017029 -0.155637 0.737751
v 0.017255 -0.155749 0.738022
v 0.016993 -0.155749 0.737840
v 0.017584 -0.155637 0.738615
v 0.017545 -0.155516 0.738245
v 0.017616 -0.155516 0.738615
v 0.017545 -0.155516 0.738245
v 0.017584 -0.155637 0.738615
v 0.017516 -0.155637 0.738257
v 0.015939 -0.155283 0.738937
v 0.016026 -0.155187 0.738615
v 0.015878 -0.155283 0.738615
v 0.016026 -0.155187 0.738615
v 0.015939 -0.155283 0.738937
v 0.016076 -0.155187 0.738878
v 0.015753 -0.155516 0.738615
v 0.015853 -0.155637 0.738974
v 0.015824 -0.155516 0.738986
v 0.015853 -0.155637 0.738974
v 0.015753 -0.155516 0.738615
v 0.015784 -0.155637 0.738615
v 0.016218 -0.155187 0.738131
v 0.016506 -0.155113 0.738168
v 0.016432 -0.155187 0.737983
v 0.016506 -0.155113 0.738168
v 0.016218 -0.155187 0.738131
v 0.016355 -0.155113 0.738273
v 0.015853 -0.155637 0.738257
v 0.015753 -0.155516 0.738615
v 0.015824 -0.155516 0.738245
v 0.015753 -0.155516 0.738615
v 0.015853 -0.155637 0.738257
v 0.015784 -0.155637 0.738615
v 0.017293 -0.155187 0.738878
v 0.017491 -0.155283 0.738615
v 0.017343 -0.155187 0.738615
v 0.017491 -0.155283 0.738615
v 0.017293 -0.155187 0.738878
v 0.017430 -0.155283 0.738937
v 0.016514 -0.155066 0.738793
v 0.016684 -0.155050 0.738615
v 0.016462 -0.155066 0.738711
v 0.016592 -0.155066 0.738847
v 0.016684 -0.155050 0.738615
v 0.016514 -0.155066 0.738793
v 0.015853 -0.155637 0.738974
v 0.016026 -0.155516 0.739300
v 0.015824 -0.155516 0.738986
v 0.016026 -0.155516 0.739300
v 0.015853 -0.155637 0.738974
v 0.016048 -0.155637 0.739277
v 0.016684 -0.155066 0.738365
v 0.016862 -0.155113 0.738168
v 0.016684 -0.155113 0.738131
v 0.016862 -0.155113 0.738168
v 0.016684 -0.155066 0.738365
v 0.016777 -0.155066 0.738384
v 0.017029 -0.155637 0.739480
v 0.017255 -0.155749 0.739209
v 0.017321 -0.155637 0.739277
v 0.017255 -0.155749 0.739209
v 0.017029 -0.155637 0.739480
v 0.016993 -0.155749 0.739391
v 0.016639 -0.155881 0.689106
v 0.016413 -0.155769 0.689377
v 0.016674 -0.155769 0.689195
v 0.016347 -0.155881 0.689309
v 0.016324 -0.155673 0.689971
v 0.016553 -0.155599 0.689785
v 0.016374 -0.155673 0.689708
v 0.016517 -0.155599 0.689971
v 0.016626 -0.156002 0.689076
v 0.016983 -0.155881 0.689035
v 0.016983 -0.156002 0.689002
v 0.016983 -0.155769 0.689132
v 0.016983 -0.155536 0.689971
v 0.017153 -0.155552 0.689793
v 0.017075 -0.155552 0.689739
v 0.016654 -0.155599 0.689628
v 0.016517 -0.155673 0.689486
v 0.017814 -0.156123 0.689612
v 0.017642 -0.156002 0.689286
v 0.017844 -0.156002 0.689600
v 0.017619 -0.156123 0.689309
v 0.016413 -0.156235 0.689377
v 0.016152 -0.156123 0.689612
v 0.016347 -0.156123 0.689309
v 0.016238 -0.156235 0.689649
v 0.016983 -0.155552 0.690221
v 0.017075 -0.155552 0.690202
v 0.016122 -0.156002 0.690341
v 0.016347 -0.155881 0.690632
v 0.016152 -0.155881 0.690329
v 0.016324 -0.156002 0.690656
v 0.017161 -0.155599 0.690418
v 0.016983 -0.155599 0.690455
v 0.017619 -0.155881 0.690632
v 0.017339 -0.156002 0.690866
v 0.017642 -0.156002 0.690656
v 0.017327 -0.155881 0.690835
v 0.017206 -0.155552 0.690067
v 0.017224 -0.155552 0.689971
v 0.016805 -0.155599 0.690418
v 0.016891 -0.155552 0.690202
v 0.017814 -0.156123 0.690329
v 0.017914 -0.156002 0.689971
v 0.017844 -0.156002 0.690341
v 0.017883 -0.156123 0.689971
v 0.016374 -0.155673 0.690233
v 0.016654 -0.155599 0.690313
v 0.016553 -0.155599 0.690156
v 0.016517 -0.155673 0.690455
v 0.016051 -0.156002 0.689971
v 0.016083 -0.155881 0.689971
v 0.016122 -0.156002 0.689600
v 0.016152 -0.155881 0.689612
v 0.016176 -0.156235 0.689971
v 0.016152 -0.156123 0.690329
v 0.016083 -0.156123 0.689971
v 0.016238 -0.156235 0.690292
v 0.016324 -0.156002 0.689286
v 0.016176 -0.155769 0.689971
v 0.016238 -0.155769 0.689649
v 0.016983 -0.155673 0.689286
v 0.016731 -0.155673 0.689338
v 0.016760 -0.155552 0.689875
v 0.016742 -0.155552 0.689971
v 0.016238 -0.155769 0.690292
v 0.017206 -0.155552 0.689875
v 0.016674 -0.156235 0.689195
v 0.016983 -0.156123 0.689035
v 0.016983 -0.156235 0.689132
v 0.016639 -0.156123 0.689106
v 0.017327 -0.155881 0.689106
v 0.017339 -0.156002 0.689076
v 0.017553 -0.155769 0.690564
v 0.017292 -0.155769 0.690746
v 0.017312 -0.155599 0.689628
v 0.017592 -0.155673 0.689708
v 0.017449 -0.155673 0.689486
v 0.017413 -0.155599 0.689785
v 0.017728 -0.155769 0.689649
v 0.017553 -0.155769 0.689377
v 0.017814 -0.155881 0.690329
v 0.017790 -0.155769 0.689971
v 0.017728 -0.155769 0.690292
v 0.017883 -0.155881 0.689971
v 0.016983 -0.155552 0.689720
v 0.016626 -0.156002 0.690866
v 0.016347 -0.156123 0.690632
v 0.016639 -0.156123 0.690835
v 0.017619 -0.156123 0.690632
v 0.016983 -0.155881 0.690906
v 0.016983 -0.155769 0.690810
v 0.017161 -0.155599 0.689523
v 0.016413 -0.155769 0.690564
v 0.016639 -0.155881 0.690835
v 0.016674 -0.155769 0.690746
v 0.016413 -0.156235 0.690564
v 0.017449 -0.155673 0.690455
v 0.017312 -0.155599 0.690313
v 0.017235 -0.155673 0.690603
v 0.017153 -0.155552 0.690148
v 0.016812 -0.155552 0.690148
v 0.016760 -0.155552 0.690067
v 0.017642 -0.155673 0.689971
v 0.017235 -0.155673 0.689338
v 0.016983 -0.155599 0.689486
v 0.016805 -0.155599 0.689523
v 0.017327 -0.156123 0.690835
v 0.016731 -0.155673 0.690603
v 0.017814 -0.155881 0.689612
v 0.016983 -0.156235 0.690810
v 0.016983 -0.156123 0.690906
v 0.016674 -0.156235 0.690746
v 0.016812 -0.155552 0.689793
v 0.017449 -0.155599 0.689971
v 0.017619 -0.155881 0.689309
v 0.017292 -0.155769 0.689195
v 0.017413 -0.155599 0.690156
v 0.016891 -0.155552 0.689739
v 0.017292 -0.156235 0.690746
v 0.017592 -0.155673 0.690233
v 0.017790 -0.156235 0.689971
v 0.017600 -0.156235 0.689865
v 0.017728 -0.156235 0.689649
v 0.017600 -0.156235 0.690169
v 0.017728 -0.156235 0.690292
v 0.017136 -0.156235 0.690169
v 0.017136 -0.156235 0.690633
v 0.017553 -0.156235 0.690564
v 0.016853 -0.156235 0.690633
v 0.016415 -0.156235 0.690169
v 0.016853 -0.156235 0.690169
v 0.016853 -0.156235 0.689356
v 0.017136 -0.156235 0.689356
v 0.016853 -0.156235 0.689865
v 0.016415 -0.156235 0.689865
v 0.017292 -0.156235 0.689195
v 0.017553 -0.156235 0.689377
v 0.017136 -0.156235 0.689865
v 0.016983 -0.156002 0.690939
v 0.016983 -0.155673 0.690656
v 0.017327 -0.156123 0.689106
v 0.017136 -0.156103 0.690633
v 0.016853 -0.156103 0.690169
v 0.017136 -0.156103 0.690169
v 0.016853 -0.156103 0.690633
v 0.017600 -0.156103 0.690169
v 0.017136 -0.156103 0.689865
v 0.017600 -0.156103 0.689865
v 0.016853 -0.156103 0.689865
v 0.016415 -0.156103 0.689865
v 0.016415 -0.156103 0.690169
v 0.016853 -0.156103 0.689356
v 0.017136 -0.156103 0.689356
v 0.016639 -0.155881 0.689106
v 0.016639 -0.155881 0.689106
v 0.016983 -0.155881 0.689035
v 0.016639 -0.155881 0.689106
v 0.016674 -0.155769 0.689195
v 0.016374 -0.155673 0.689708
v 0.016374 -0.155673 0.689708
v 0.016553 -0.155599 0.689785
v 0.016983 -0.155536 0.689971
v 0.016983 -0.155552 0.690221
v 0.017075 -0.155552 0.690202
v 0.016983 -0.155552 0.690221
v 0.016983 -0.155536 0.689971
v 0.016983 -0.155552 0.690221
v 0.016983 -0.155552 0.690221
v 0.016983 -0.155599 0.690455
v 0.016152 -0.155881 0.690329
v 0.016152 -0.155881 0.690329
v 0.016122 -0.156002 0.690341
v 0.016083 -0.155881 0.689971
v 0.016083 -0.155881 0.689971
v 0.016051 -0.156002 0.689971
v 0.016347 -0.156123 0.689309
v 0.016122 -0.156002 0.689600
v 0.016122 -0.156002 0.689600
v 0.016347 -0.156123 0.689309
v 0.016152 -0.156123 0.689612
v 0.016324 -0.156002 0.689286
v 0.016152 -0.155881 0.689612
v 0.016347 -0.155881 0.689309
v 0.016152 -0.155881 0.689612
v 0.016324 -0.156002 0.689286
v 0.016122 -0.156002 0.689600
v 0.016374 -0.155673 0.689708
v 0.016374 -0.155673 0.689708
v 0.016324 -0.155673 0.689971
v 0.016674 -0.155769 0.689195
v 0.016983 -0.155769 0.689132
v 0.016674 -0.155769 0.689195
v 0.016517 -0.155599 0.689971
v 0.016553 -0.155599 0.689785
v 0.016517 -0.155599 0.689971
v 0.016083 -0.155881 0.689971
v 0.016176 -0.155769 0.689971
v 0.016083 -0.155881 0.689971
v 0.016152 -0.155881 0.690329
v 0.016983 -0.155536 0.689971
v 0.017153 -0.155552 0.689793
v 0.016983 -0.156002 0.689002
v 0.016983 -0.156002 0.689002
v 0.016983 -0.155881 0.689035
v 0.016983 -0.155552 0.690221
v 0.016983 -0.155536 0.689971
v 0.016891 -0.155552 0.690202
v 0.017327 -0.155881 0.690835
v 0.017619 -0.155881 0.690632
v 0.017327 -0.155881 0.690835
v 0.017449 -0.155673 0.689486
v 0.017449 -0.155673 0.689486
v 0.017592 -0.155673 0.689708
v 0.016983 -0.155536 0.689971
v 0.017075 -0.155552 0.689739
v 0.017642 -0.156002 0.690656
v 0.017814 -0.155881 0.690329
v 0.017619 -0.155881 0.690632
v 0.017814 -0.155881 0.690329
v 0.017642 -0.156002 0.690656
v 0.017844 -0.156002 0.690341
v 0.016324 -0.156002 0.690656
v 0.017844 -0.156002 0.690341
v 0.017642 -0.156002 0.690656
v 0.017844 -0.156002 0.690341
v 0.017814 -0.156123 0.690329
v 0.017292 -0.155769 0.690746
v 0.017327 -0.155881 0.690835
v 0.017292 -0.155769 0.690746
v 0.017075 -0.155552 0.689739
v 0.017312 -0.155599 0.689628
v 0.017312 -0.155599 0.689628
v 0.017075 -0.155552 0.689739
v 0.017153 -0.155552 0.689793
v 0.016347 -0.155881 0.690632
v 0.016639 -0.156123 0.689106
v 0.016983 -0.156002 0.689002
v 0.016983 -0.156123 0.689035
v 0.016983 -0.156002 0.689002
v 0.016639 -0.156123 0.689106
v 0.016626 -0.156002 0.689076
v 0.016238 -0.156235 0.690292
v 0.016347 -0.156123 0.690632
v 0.016152 -0.156123 0.690329
v 0.016347 -0.156123 0.690632
v 0.016238 -0.156235 0.690292
v 0.017161 -0.155599 0.690418
v 0.017161 -0.155599 0.690418
v 0.017075 -0.155552 0.690202
v 0.017312 -0.155599 0.690313
v 0.017312 -0.155599 0.690313
v 0.017075 -0.155552 0.690202
v 0.017161 -0.155599 0.690418
v 0.017075 -0.155552 0.690202
v 0.017153 -0.155552 0.690148
v 0.016983 -0.155536 0.689971
v 0.016553 -0.155599 0.690156
v 0.016553 -0.155599 0.690156
v 0.016654 -0.155599 0.690313
v 0.016238 -0.155769 0.690292
v 0.016517 -0.155673 0.690455
v 0.016374 -0.155673 0.690233
v 0.016517 -0.155673 0.690455
v 0.016238 -0.155769 0.690292
v 0.016413 -0.155769 0.690564
v 0.016374 -0.155673 0.690233
v 0.016517 -0.155599 0.689971
v 0.016324 -0.155673 0.689971
v 0.016517 -0.155599 0.689971
v 0.016374 -0.155673 0.690233
v 0.016553 -0.155599 0.690156
v 0.017592 -0.155673 0.689708
v 0.017790 -0.155769 0.689971
v 0.017728 -0.155769 0.689649
v 0.017790 -0.155769 0.689971
v 0.017592 -0.155673 0.689708
v 0.017161 -0.155599 0.689523
v 0.017449 -0.155673 0.689486
v 0.017449 -0.155673 0.689486
v 0.017161 -0.155599 0.689523
v 0.017312 -0.155599 0.689628
v 0.016731 -0.155673 0.689338
v 0.016983 -0.155673 0.689286
v 0.016731 -0.155673 0.689338
v 0.017339 -0.156002 0.690866
v 0.017619 -0.156123 0.690632
v 0.017642 -0.156002 0.690656
v 0.017619 -0.156123 0.690632
v 0.017339 -0.156002 0.690866
v 0.016347 -0.156123 0.689309
v 0.016626 -0.156002 0.689076
v 0.016639 -0.156123 0.689106
v 0.016626 -0.156002 0.689076
v 0.016347 -0.156123 0.689309
v 0.016324 -0.156002 0.689286
v 0.016413 -0.155769 0.690564
v 0.016517 -0.155673 0.690455
v 0.016413 -0.155769 0.690564
v 0.016674 -0.155769 0.690746
v 0.017883 -0.155881 0.689971
v 0.017728 -0.155769 0.689649
v 0.017790 -0.155769 0.689971
v 0.017728 -0.155769 0.689649
v 0.017883 -0.155881 0.689971
v 0.016983 -0.155599 0.689486
v 0.017235 -0.155673 0.689338
v 0.016983 -0.155673 0.689286
v 0.017235 -0.155673 0.689338
v 0.016983 -0.155599 0.689486
v 0.017161 -0.155599 0.689523
v 0.017224 -0.155552 0.689971
v 0.017206 -0.155552 0.689875
v 0.016983 -0.155536 0.689971
v 0.016639 -0.156123 0.690835
v 0.016639 -0.156123 0.690835
v 0.016152 -0.155881 0.689612
v 0.016176 -0.155769 0.689971
v 0.016238 -0.155769 0.689649
v 0.016176 -0.155769 0.689971
v 0.016152 -0.155881 0.689612
v 0.016083 -0.155881 0.689971
v 0.016983 -0.155536 0.689971
v 0.016760 -0.155552 0.689875
v 0.017206 -0.155552 0.689875
v 0.017413 -0.155599 0.689785
v 0.017206 -0.155552 0.689875
v 0.017224 -0.155552 0.689971
v 0.017327 -0.155881 0.689106
v 0.017553 -0.155769 0.689377
v 0.017553 -0.155769 0.689377
v 0.017327 -0.155881 0.689106
v 0.017413 -0.155599 0.689785
v 0.017642 -0.155673 0.689971
v 0.017592 -0.155673 0.689708
v 0.017642 -0.155673 0.689971
v 0.017413 -0.155599 0.689785
v 0.017449 -0.155599 0.689971
v 0.016674 -0.155769 0.690746
v 0.016983 -0.155881 0.690906
v 0.016983 -0.155769 0.690810
v 0.016983 -0.155881 0.690906
v 0.016674 -0.155769 0.690746
v 0.016639 -0.155881 0.690835
v 0.017153 -0.155552 0.690148
v 0.017206 -0.155552 0.690067
v 0.017153 -0.155552 0.690148
v 0.017312 -0.155599 0.690313
v 0.016983 -0.155536 0.689971
v 0.016812 -0.155552 0.689793
v 0.017153 -0.155552 0.690148
v 0.017206 -0.155552 0.690067
v 0.016983 -0.155536 0.689971
v 0.016983 -0.156123 0.690906
v 0.017327 -0.156123 0.690835
v 0.016983 -0.156123 0.690906
v 0.016983 -0.156235 0.690810
v 0.017814 -0.155881 0.689612
v 0.017553 -0.155769 0.689377
v 0.017728 -0.155769 0.689649
v 0.017553 -0.155769 0.689377
v 0.017814 -0.155881 0.689612
v 0.017619 -0.155881 0.689309
v 0.017153 -0.155552 0.689793
v 0.017413 -0.155599 0.689785
v 0.017312 -0.155599 0.689628
v 0.017413 -0.155599 0.689785
v 0.017153 -0.155552 0.689793
v 0.017206 -0.155552 0.689875
v 0.017619 -0.155881 0.690632
v 0.017728 -0.155769 0.690292
v 0.017553 -0.155769 0.690564
v 0.017728 -0.155769 0.690292
v 0.017619 -0.155881 0.690632
v 0.017814 -0.155881 0.690329
v 0.016347 -0.155881 0.689309
v 0.016238 -0.155769 0.689649
v 0.016413 -0.155769 0.689377
v 0.016238 -0.155769 0.689649
v 0.016347 -0.155881 0.689309
v 0.016152 -0.155881 0.689612
v 0.016626 -0.156002 0.689076
v 0.016347 -0.155881 0.689309
v 0.016639 -0.155881 0.689106
v 0.016347 -0.155881 0.689309
v 0.016626 -0.156002 0.689076
v 0.016324 -0.156002 0.689286
v 0.016983 -0.155673 0.689286
v 0.017292 -0.155769 0.689195
v 0.016983 -0.155769 0.689132
v 0.017292 -0.155769 0.689195
v 0.016983 -0.155673 0.689286
v 0.017235 -0.155673 0.689338
v 0.017413 -0.155599 0.690156
v 0.017642 -0.155673 0.689971
v 0.017449 -0.155599 0.689971
v 0.017642 -0.155673 0.689971
v 0.017413 -0.155599 0.690156
v 0.017206 -0.155552 0.690067
v 0.017449 -0.155599 0.689971
v 0.017224 -0.155552 0.689971
v 0.017449 -0.155599 0.689971
v 0.017206 -0.155552 0.690067
v 0.017413 -0.155599 0.690156
v 0.017449 -0.155673 0.690455
v 0.017728 -0.155769 0.690292
v 0.017592 -0.155673 0.690233
v 0.017728 -0.155769 0.690292
v 0.017449 -0.155673 0.690455
v 0.017553 -0.155769 0.690564
v 0.017312 -0.155599 0.690313
v 0.017592 -0.155673 0.690233
v 0.017413 -0.155599 0.690156
v 0.017592 -0.155673 0.690233
v 0.017312 -0.155599 0.690313
v 0.017449 -0.155673 0.690455
v 0.017339 -0.156002 0.689076
v 0.017619 -0.155881 0.689309
v 0.017642 -0.156002 0.689286
v 0.017619 -0.155881 0.689309
v 0.017339 -0.156002 0.689076
v 0.017327 -0.155881 0.689106
v 0.017292 -0.156235 0.690746
v 0.017292 -0.156235 0.690746
v 0.016238 -0.156235 0.690292
v 0.016238 -0.156235 0.690292
v 0.016413 -0.156235 0.690564
v 0.016413 -0.156235 0.690564
v 0.016674 -0.156235 0.690746
v 0.016674 -0.156235 0.690746
v 0.017292 -0.156235 0.690746
v 0.016674 -0.156235 0.690746
v 0.017292 -0.156235 0.690746
v 0.016983 -0.156235 0.690810
v 0.016674 -0.156235 0.689195
v 0.016413 -0.156235 0.689377
v 0.016674 -0.156235 0.689195
v 0.016413 -0.156235 0.689377
v 0.016413 -0.156235 0.689377
v 0.016238 -0.156235 0.689649
v 0.016238 -0.156235 0.689649
v 0.016238 -0.156235 0.689649
v 0.016176 -0.156235 0.689971
v 0.016176 -0.156235 0.689971
v 0.016176 -0.156235 0.689971
v 0.016238 -0.156235 0.690292
v 0.016674 -0.156235 0.689195
v 0.016983 -0.156235 0.689132
v 0.016674 -0.156235 0.689195
v 0.016674 -0.156235 0.689195
v 0.016983 -0.155881 0.689035
v 0.017292 -0.155769 0.689195
v 0.017327 -0.155881 0.689106
v 0.017292 -0.155769 0.689195
v 0.016983 -0.155881 0.689035
v 0.016983 -0.155769 0.689132
v 0.017235 -0.155673 0.690603
v 0.017553 -0.155769 0.690564
v 0.017449 -0.155673 0.690455
v 0.017553 -0.155769 0.690564
v 0.017235 -0.155673 0.690603
v 0.017292 -0.155769 0.690746
v 0.017844 -0.156002 0.690341
v 0.017883 -0.155881 0.689971
v 0.017814 -0.155881 0.690329
v 0.017883 -0.155881 0.689971
v 0.017844 -0.156002 0.690341
v 0.017914 -0.156002 0.689971
v 0.016654 -0.155599 0.690313
v 0.016891 -0.155552 0.690202
v 0.016812 -0.155552 0.690148
v 0.016891 -0.155552 0.690202
v 0.016654 -0.155599 0.690313
v 0.016805 -0.155599 0.690418
v 0.016517 -0.155673 0.690455
v 0.016805 -0.155599 0.690418
v 0.016654 -0.155599 0.690313
v 0.016805 -0.155599 0.690418
v 0.016517 -0.155673 0.690455
v 0.016731 -0.155673 0.690603
v 0.016413 -0.156235 0.689377
v 0.016639 -0.156123 0.689106
v 0.016674 -0.156235 0.689195
v 0.016639 -0.156123 0.689106
v 0.016413 -0.156235 0.689377
v 0.016347 -0.156123 0.689309
v 0.016238 -0.156235 0.689649
v 0.016083 -0.156123 0.689971
v 0.016152 -0.156123 0.689612
v 0.016083 -0.156123 0.689971
v 0.016238 -0.156235 0.689649
v 0.016176 -0.156235 0.689971
v 0.017327 -0.156123 0.690835
v 0.017339 -0.156002 0.690866
v 0.017327 -0.156123 0.690835
v 0.016983 -0.156123 0.690906
v 0.017327 -0.155881 0.690835
v 0.016983 -0.156002 0.690939
v 0.017339 -0.156002 0.690866
v 0.016983 -0.156002 0.690939
v 0.017327 -0.155881 0.690835
v 0.016983 -0.155881 0.690906
v 0.016731 -0.155673 0.690603
v 0.016983 -0.155599 0.690455
v 0.016805 -0.155599 0.690418
v 0.016983 -0.155599 0.690455
v 0.016731 -0.155673 0.690603
v 0.016674 -0.155769 0.690746
v 0.016983 -0.155673 0.690656
v 0.016731 -0.155673 0.690603
v 0.016983 -0.155673 0.690656
v 0.016674 -0.155769 0.690746
v 0.016983 -0.155769 0.690810
v 0.016639 -0.155881 0.690835
v 0.016983 -0.156002 0.690939
v 0.016983 -0.155881 0.690906
v 0.016983 -0.156002 0.690939
v 0.016639 -0.155881 0.690835
v 0.016626 -0.156002 0.690866
v 0.017844 -0.156002 0.689600
v 0.017619 -0.155881 0.689309
v 0.017814 -0.155881 0.689612
v 0.017619 -0.155881 0.689309
v 0.017844 -0.156002 0.689600
v 0.017642 -0.156002 0.689286
v 0.017553 -0.156235 0.690564
v 0.017814 -0.156123 0.690329
v 0.017619 -0.156123 0.690632
v 0.017814 -0.156123 0.690329
v 0.017553 -0.156235 0.690564
v 0.017728 -0.156235 0.690292
v 0.016626 -0.156002 0.690866
v 0.016983 -0.156123 0.690906
v 0.016983 -0.156002 0.690939
v 0.016983 -0.156123 0.690906
v 0.016626 -0.156002 0.690866
v 0.016639 -0.156123 0.690835
v 0.016983 -0.155536 0.689971
v 0.016983 -0.155552 0.689720
v 0.016891 -0.155552 0.689739
v 0.016553 -0.155599 0.690156
v 0.016742 -0.155552 0.689971
v 0.016517 -0.155599 0.689971
v 0.016742 -0.155552 0.689971
v 0.016553 -0.155599 0.690156
v 0.016760 -0.155552 0.690067
v 0.016760 -0.155552 0.690067
v 0.016983 -0.155536 0.689971
v 0.016742 -0.155552 0.689971
v 0.016983 -0.155536 0.689971
v 0.016760 -0.155552 0.689875
v 0.016742 -0.155552 0.689971
v 0.016654 -0.155599 0.689628
v 0.016891 -0.155552 0.689739
v 0.016805 -0.155599 0.689523
v 0.016891 -0.155552 0.689739
v 0.016654 -0.155599 0.689628
v 0.016812 -0.155552 0.689793
v 0.016347 -0.155881 0.690632
v 0.016626 -0.156002 0.690866
v 0.016639 -0.155881 0.690835
v 0.016626 -0.156002 0.690866
v 0.016347 -0.155881 0.690632
v 0.016324 -0.156002 0.690656
v 0.017728 -0.156235 0.689649
v 0.017619 -0.156123 0.689309
v 0.017814 -0.156123 0.689612
v 0.017619 -0.156123 0.689309
v 0.017728 -0.156235 0.689649
v 0.017553 -0.156235 0.689377
v 0.017790 -0.156235 0.689971
v 0.017814 -0.156123 0.689612
v 0.017883 -0.156123 0.689971
v 0.017814 -0.156123 0.689612
v 0.017790 -0.156235 0.689971
v 0.017728 -0.156235 0.689649
v 0.016553 -0.155599 0.689785
v 0.016812 -0.155552 0.689793
v 0.016654 -0.155599 0.689628
v 0.016812 -0.155552 0.689793
v 0.016553 -0.155599 0.689785
v 0.016760 -0.155552 0.689875
v 0.017814 -0.155881 0.689612
v 0.017883 -0.155881 0.689971
v 0.017814 -0.155881 0.689612
v 0.017844 -0.156002 0.689600
v 0.017235 -0.155673 0.689338
v 0.017553 -0.155769 0.689377
v 0.017292 -0.155769 0.689195
v 0.017553 -0.155769 0.689377
v 0.017235 -0.155673 0.689338
v 0.017449 -0.155673 0.689486
v 0.017339 -0.156002 0.689076
v 0.016983 -0.156123 0.689035
v 0.016805 -0.155599 0.689523
v 0.016983 -0.155552 0.689720
v 0.016983 -0.155599 0.689486
v 0.016983 -0.155552 0.689720
v 0.016805 -0.155599 0.689523
v 0.016891 -0.155552 0.689739
v 0.017292 -0.156235 0.689195
v 0.016983 -0.156123 0.689035
v 0.017327 -0.156123 0.689106
v 0.016983 -0.156123 0.689035
v 0.017292 -0.156235 0.689195
v 0.016983 -0.156235 0.689132
v 0.016639 -0.156123 0.690835
v 0.016413 -0.156235 0.690564
v 0.016674 -0.156235 0.690746
v 0.016413 -0.156235 0.690564
v 0.016639 -0.156123 0.690835
v 0.016347 -0.156123 0.690632
v 0.016152 -0.155881 0.690329
v 0.016413 -0.155769 0.690564
v 0.016238 -0.155769 0.690292
v 0.016413 -0.155769 0.690564
v 0.016152 -0.155881 0.690329
v 0.016347 -0.155881 0.690632
v 0.017619 -0.156123 0.689309
v 0.017339 -0.156002 0.689076
v 0.017642 -0.156002 0.689286
v 0.017339 -0.156002 0.689076
v 0.017619 -0.156123 0.689309
v 0.017327 -0.156123 0.689106
v 0.016238 -0.155769 0.689649
v 0.016517 -0.155673 0.689486
v 0.016413 -0.155769 0.689377
v 0.016517 -0.155673 0.689486
v 0.016238 -0.155769 0.689649
v 0.016374 -0.155673 0.689708
v 0.016983 -0.155673 0.690656
v 0.017292 -0.155769 0.690746
v 0.017235 -0.155673 0.690603
v 0.017292 -0.155769 0.690746
v 0.016983 -0.155673 0.690656
v 0.016983 -0.155769 0.690810
v 0.016983 -0.155599 0.690455
v 0.017235 -0.155673 0.690603
v 0.017161 -0.155599 0.690418
v 0.017235 -0.155673 0.690603
v 0.016983 -0.155599 0.690455
v 0.016983 -0.155673 0.690656
v 0.017728 -0.156235 0.690292
v 0.017883 -0.156123 0.689971
v 0.017814 -0.156123 0.690329
v 0.017883 -0.156123 0.689971
v 0.017728 -0.156235 0.690292
v 0.017790 -0.156235 0.689971
v 0.016413 -0.155769 0.689377
v 0.016731 -0.155673 0.689338
v 0.016674 -0.155769 0.689195
v 0.016731 -0.155673 0.689338
v 0.016413 -0.155769 0.689377
v 0.016517 -0.155673 0.689486
v 0.017553 -0.156235 0.689377
v 0.017327 -0.156123 0.689106
v 0.017619 -0.156123 0.689309
v 0.017327 -0.156123 0.689106
v 0.017553 -0.156235 0.689377
v 0.017292 -0.156235 0.689195
v 0.017883 -0.156123 0.689971
v 0.017844 -0.156002 0.689600
v 0.017914 -0.156002 0.689971
v 0.017844 -0.156002 0.689600
v 0.017883 -0.156123 0.689971
v 0.017814 -0.156123 0.689612
v 0.016238 -0.155769 0.690292
v 0.016324 -0.155673 0.689971
v 0.016176 -0.155769 0.689971
v 0.016324 -0.155673 0.689971
v 0.016238 -0.155769 0.690292
v 0.016374 -0.155673 0.690233
v 0.016051 -0.156002 0.689971
v 0.016152 -0.156123 0.690329
v 0.016122 -0.156002 0.690341
v 0.016152 -0.156123 0.690329
v 0.016051 -0.156002 0.689971
v 0.016083 -0.156123 0.689971
v 0.016517 -0.155673 0.689486
v 0.016805 -0.155599 0.689523
v 0.016731 -0.155673 0.689338
v 0.016805 -0.155599 0.689523
v 0.016517 -0.155673 0.689486
v 0.016654 -0.155599 0.689628
v 0.016152 -0.156123 0.689612
v 0.016051 -0.156002 0.689971
v 0.016122 -0.156002 0.689600
v 0.016051 -0.156002 0.689971
v 0.016152 -0.156123 0.689612
v 0.016083 -0.156123 0.689971
v 0.017592 -0.155673 0.690233
v 0.017790 -0.155769 0.689971
v 0.017642 -0.155673 0.689971
v 0.017790 -0.155769 0.689971
v 0.017592 -0.155673 0.690233
v 0.017728 -0.155769 0.690292
v 0.016812 -0.155552 0.690148
v 0.016983 -0.155536 0.689971
v 0.016760 -0.155552 0.690067
v 0.016891 -0.155552 0.690202
v 0.016983 -0.155536 0.689971
v 0.016812 -0.155552 0.690148
v 0.016152 -0.156123 0.690329
v 0.016324 -0.156002 0.690656
v 0.016122 -0.156002 0.690341
v 0.016324 -0.156002 0.690656
v 0.016152 -0.156123 0.690329
v 0.016347 -0.156123 0.690632
v 0.016983 -0.155552 0.689720
v 0.017161 -0.155599 0.689523
v 0.016983 -0.155599 0.689486
v 0.017161 -0.155599 0.689523
v 0.016983 -0.155552 0.689720
v 0.017075 -0.155552 0.689739
v 0.017327 -0.156123 0.690835
v 0.017553 -0.156235 0.690564
v 0.017619 -0.156123 0.690632
v 0.017553 -0.156235 0.690564
v 0.017327 -0.156123 0.690835
v 0.017292 -0.156235 0.690746
f 1 2 3
f 2 1 4
f 5 6 7
f 6 5 8
f 9 10 11
f 10 9 154
f 155 12 156
f 12 157 158
f 13 14 15
f 159 16 17
f 16 160 161
f 18 19 20
f 19 18 21
f 22 23 24
f 23 22 25
f 26 27 162
f 28 29 30
f 29 28 31
f 163 32 164
f 32 165 33
f 34 35 36
f 35 34 37
f 38 39 166
f 40 167 41
f 168 40 169
f 42 43 44
f 43 42 45
f 46 47 48
f 47 46 49
f 50 170 51
f 171 50 172
f 52 173 53
f 174 52 175
f 54 55 56
f 55 54 57
f 176 177 58
f 178 179 180
f 181 182 183
f 184 185 186
f 59 187 60
f 188 59 189
f 190 61 191
f 61 192 62
f 193 63 194
f 63 195 64
f 196 65 197
f 65 198 199
f 200 66 201
f 67 68 69
f 68 67 70
f 202 71 72
f 71 203 204
f 205 206 207
f 73 208 209
f 210 73 74
f 75 76 77
f 76 75 78
f 211 79 80
f 79 212 213
f 81 82 83
f 82 81 84
f 214 215 85
f 216 217 218
f 219 220 221
f 86 87 88
f 87 86 222
f 89 223 224
f 225 89 226
f 227 90 228
f 90 229 91
f 230 231 92
f 232 233 234
f 93 94 95
f 94 93 235
f 236 237 238
f 239 240 241
f 242 243 244
f 245 246 96
f 247 97 98
f 97 248 99
f 249 250 100
f 251 252 253
f 254 255 256
f 257 101 102
f 101 258 259
f 260 261 262
f 263 264 265
f 266 267 268
f 269 270 271
f 272 273 274
f 275 276 103
f 277 278 104
f 279 280 281
f 282 105 283
f 105 284 106
f 285 286 287
f 288 289 107
f 290 291 292
f 293 294 295
f 296 108 297
f 108 298 299
f 300 301 302
f 303 304 109
f 305 306 307
f 308 309 310
f 311 312 313
f 314 110 111
f 110 315 112
f 316 317 318
f 319 320 321
f 322 113 323
f 324 114 325
f 114 326 327
f 328 329 115
f 330 331 116
f 332 333 334
f 335 336 337
f 338 339 340
f 341 342 343
f 344 117 345
f 117 346 347
f 348 118 349
f 350 351 352
f 353 119 354
f 119 355 356
f 357 358 359
f 360 361 362
f 363 364 365
f 366 367 368
f 369 370 371
f 372 373 374
f 375 376 377
f 378 379 380
f 381 382 383
f 384 385 386
f 387 388 389
f 390 391 392
f 393 394 395
f 396 397 120
f 398 399 400
f 401 402 403
f 404 405 406
f 407 408 409
f 410 411 412
f 413 414 415
f 416 417 418
f 419 420 421
f 121 122 123
f 122 121 124
f 124 121 125
f 124 125 126
f 126 125 127
f 127 125 128
f 127 128 422
f 127 423 129
f 129 130 131
f 130 129 424
f 425 129 426
f 427 129 428
f 429 129 430
f 431 432 433
f 434 132 435
f 132 436 133
f 437 132 134
f 438 134 439
f 440 134 135
f 441 135 442
f 443 135 130
f 444 130 445
f 136 446 447
f 448 136 137
f 449 137 133
f 133 137 138
f 138 137 123
f 138 123 122
f 450 451 452
f 453 454 455
f 456 457 458
f 459 460 461
f 462 463 464
f 465 466 467
f 468 469 470
f 471 472 473
f 474 475 476
f 477 478 479
f 480 481 482
f 483 484 485
f 486 487 488
f 489 490 491
f 139 492 493
f 494 139 495
f 496 497 498
f 499 500 501
f 502 503 504
f 505 506 140
f 507 508 509
f 510 511 512
f 513 514 515
f 516 517 518
f 519 520 521
f 522 523 524
f 525 526 527
f 528 529 530
f 531 532 533
f 534 535 536
f 537 538 539
f 540 541 542
f 543 544 545
f 546 547 548
f 549 550 551
f 552 553 554
f 555 556 557
f 558 559 560
f 561 562 563
f 564 565 566
f 567 568 569
f 570 571 572
f 573 574 575
f 576 577 578
f 579 580 581
f 43 582 583
f 584 43 585
f 586 587 588
f 589 590 591
f 141 11 592
f 11 141 593
f 594 595 596
f 597 598 599
f 600 601 602
f 603 604 605
f 606 607 608
f 609 610 611
f 612 613 614
f 615 616 617
f 618 619 620
f 621 622 623
f 624 625 626
f 627 628 629
f 630 631 632
f 633 634 635
f 636 637 638
f 639 640 641
f 642 643 644
f 645 646 647
f 648 649 650
f 651 652 653
f 654 655 656
f 657 658 659
f 660 661 662
f 663 664 665
f 666 667 668
f 669 670 671
f 672 673 674
f 675 676 677
f 678 679 680
f 681 682 683
f 684 685 686
f 687 688 689
f 690 691 692
f 693 694 695
f 696 697 698
f 699 700 701
f 702 703 704
f 705 706 707
f 708 709 710
f 711 712 713
f 714 715 716
f 717 718 719
f 142 143 144
f 143 142 145
f 146 147 148
f 147 146 149
f 149 146 150
f 150 146 151
f 151 146 144
f 151 144 143
f 147 152 153
f 152 147 149
f 720 721 722
f 721 720 723
f 724 725 726
f 725 724 727
f 728 729 730
f 729 728 873
f 874 731 875
f 731 876 877
f 732 733 734
f 878 735 736
f 735 879 880
f 737 738 739
f 738 737 740
f 741 742 743
f 742 741 744
f 745 746 881
f 747 748 749
f 748 747 750
f 882 751 883
f 751 884 752
f 753 754 755
f 754 753 756
f 757 758 885
f 759 886 760
f 887 759 888
f 761 762 763
f 762 761 764
f 765 766 767
f 766 765 768
f 769 889 770
f 890 769 891
f 771 892 772
f 893 771 894
f 773 774 775
f 774 773 776
f 895 896 777
f 897 898 899
f 900 901 902
f 903 904 905
f 778 906 779
f 907 778 908
f 909 780 910
f 780 911 781
f 912 782 913
f 782 914 783
f 915 784 916
f 784 917 918
f 919 785 920
f 786 787 788
f 787 786 789
f 921 790 791
f 790 922 923
f 924 925 926
f 792 927 928
f 929 792 793
f 794 795 796
f 795 794 797
f 930 798 799
f 798 931 932
f 800 801 802
f 801 800 803
f 933 934 804
f 935 936 937
f 938 939 940
f 805 806 807
f 806 805 941
f 808 942 943
f 944 808 945
f 946 809 947
f 809 948 810
f 949 950 811
f 951 952 953
f 812 813 814
f 813 812 954
f 955 956 957
f 958 959 960
f 961 962 963
f 964 965 815
f 966 816 817
f 816 967 818
f 968 969 819
f 970 971 972
f 973 974 975
f 976 820 821
f 820 977 978
f 979 980 981
f 982 983 984
f 985 986 987
f 988 989 990
f 991 992 993
f 994 995 822
f 996 997 823
f 998 999 1000
f 1001 824 1002
f 824 1003 825
f 1004 1005 1006
f 1007 1008 826
f 1009 1010 1011
f 1012 1013 1014
f 1015 827 1016
f 827 1017 1018
f 1019 1020 1021
f 1022 1023 828
f 1024 1025 1026
f 1027 1028 1029
f 1030 1031 1032
f 1033 829 830
f 829 1034 831
f 1035 1036 1037
f 1038 1039 1040
f 1041 832 1042
f 1043 833 1044
f 833 1045 1046
f 1047 1048 834
f 1049 1050 835
f 1051 1052 1053
f 1054 1055 1056
f 1057 1058 1059
f 1060 1061 1062
f 1063 836 1064
f 836 1065 1066
f 1067 837 1068
f 1069 1070 1071
f 1072 838 1073
f 838 1074 1075
f 1076 1077 1078
f 1079 1080 1081
f 1082 1083 1084
f 1085 1086 1087
f 1088 1089 1090
f 1091 1092 1093
f 1094 1095 1096
f 1097 1098 1099
f 1100 1101 1102
f 1103 1104 1105
f 1106 1107 1108
f 1109 1110 1111
f 1112 1113 1114
f 1115 1116 839
f 1117 1118 1119
f 1120 1121 1122
f 1123 1124 1125
f 1126 1127 1128
f 1129 1130 1131
f 1132 1133 1134
f 1135 1136 1137
f 1138 1139 1140
f 840 841 842
f 841 840 843
f 843 840 844
f 843 844 845
f 845 844 846
f 846 844 847
f 846 847 1141
f 846 1142 848
f 848 849 850
f 849 848 1143
f 1144 848 1145
f 1146 848 1147
f 1148 848 1149
f 1150 1151 1152
f 1153 851 1154
f 851 1155 852
f 1156 851 853
f 1157 853 1158
f 1159 853 854
f 1160 854 1161
f 1162 854 849
f 1163 849 1164
f 855 1165 1166
f 1167 855 856
f 1168 856 852
f 852 856 857
f 857 856 842
f 857 842 841
f 1169 1170 1171
f 1172 1173 1174
f 1175 1176 1177
f 1178 1179 1180
f 1181 1182 1183
f 1184 1185 1186
f 1187 1188 1189
f 1190 1191 1192
f 1193 1194 1195
f 1196 1197 1198
f 1199 1200 1201
f 1202 1203 1204
f 1205 1206 1207
f 1208 1209 1210
f 858 1211 1212
f 1213 858 1214
f 1215 1216 1217
f 1218 1219 1220
f 1221 1222 1223
f 1224 1225 859
f 1226 1227 1228
f 1229 1230 1231
f 1232 1233 1234
f 1235 1236 1237
f 1238 1239 1240
f 1241 1242 1243
f 1244 1245 1246
f 1247 1248 1249
f 1250 1251 1252
f 1253 1254 1255
f 1256 1257 1258
f 1259 1260 1261
f 1262 1263 1264
f 1265 1266 1267
f 1268 1269 1270
f 1271 1272 1273
f 1274 1275 1276
f 1277 1278 1279
f 1280 1281 1282
f 1283 1284 1285
f 1286 1287 1288
f 1289 1290 1291
f 1292 1293 1294
f 1295 1296 1297
f 1298 1299 1300
f 762 1301 1302
f 1303 762 1304
f 1305 1306 1307
f 1308 1309 1310
f 860 730 1311
f 730 860 1312
f 1313 1314 1315
f 1316 1317 1318
f 1319 1320 1321
f 1322 1323 1324
f 1325 1326 1327
f 1328 1329 1330
f 1331 1332 1333
f 1334 1335 1336
f 1337 1338 1339
f 1340 1341 1342
f 1343 1344 1345
f 1346 1347 1348
f 1349 1350 1351
f 1352 1353 1354
f 1355 1356 1357
f 1358 1359 1360
f 1361 1362 1363
f 1364 1365 1366
f 1367 1368 1369
f 1370 1371 1372
f 1373 1374 1375
f 1376 1377 1378
f 1379 1380 1381
f 1382 1383 1384
f 1385 1386 1387
f 1388 1389 1390
f 1391 1392 1393
f 1394 1395 1396
f 1397 1398 1399
f 1400 1401 1402
f 1403 1404 1405
f 1406 1407 1408
f 1409 1410 1411
f 1412 1413 1414
f 1415 1416 1417
f 1418 1419 1420
f 1421 1422 1423
f 1424 1425 1426
f 1427 1428 1429
f 1430 1431 1432
f 1433 1434 1435
f 1436 1437 1438
f 861 862 863
f 862 861 864
f 865 866 867
f 866 865 868
f 868 865 869
f 869 865 870
f 870 865 863
f 870 863 862
f 866 871 872
f 871 866 868
