v 0.035358 -0.113248 0.474634
v 0.044821 -0.103429 0.474634
v 0.044821 -0.113248 0.474634
v 0.035358 -0.103429 0.474634
v 0.042878 -0.118368 0.750623
v 0.044821 -0.118368 0.750623
v 0.042878 -0.113248 0.750623
v 0.044821 -0.103429 0.750623
v 0.035358 -0.103429 0.750623
v 0.037724 -0.113248 0.750623
v 0.037724 -0.118368 0.750623
v 0.035358 -0.118368 0.750623
v 0.035358 -0.113248 0.589409
v 0.035358 -0.118368 0.589409
v 0.037724 -0.118368 0.589409
v 0.044821 -0.113248 0.589409
v 0.044821 -0.118368 0.589409
v 0.042878 -0.118368 0.589409
v 0.042878 -0.113248 0.589409
v 0.037724 -0.113248 0.589409
v 0.035358 -0.103429 0.750623
v 0.044821 -0.103429 0.474634
v 0.035358 -0.103429 0.474634
v 0.044821 -0.103429 0.474634
v 0.035358 -0.103429 0.750623
v 0.044821 -0.103429 0.750623
v 0.035358 -0.113248 0.474634
v 0.035358 -0.103429 0.750623
v 0.035358 -0.103429 0.474634
v 0.035358 -0.103429 0.750623
v 0.035358 -0.113248 0.474634
v 0.035358 -0.118368 0.750623
v 0.035358 -0.103429 0.750623
v 0.035358 -0.118368 0.750623
v 0.035358 -0.118368 0.750623
v 0.035358 -0.118368 0.589409
v 0.035358 -0.118368 0.750623
v 0.037724 -0.118368 0.750623
v 0.044821 -0.118368 0.750623
v 0.044821 -0.103429 0.750623
v 0.044821 -0.118368 0.750623
v 0.044821 -0.103429 0.750623
v 0.044821 -0.113248 0.474634
v 0.044821 -0.103429 0.474634
v 0.044821 -0.113248 0.474634
v 0.044821 -0.103429 0.750623
v 0.044821 -0.118368 0.589409
v 0.042878 -0.118368 0.750623
v 0.042878 -0.118368 0.750623
v 0.044821 -0.118368 0.589409
v 0.044821 -0.118368 0.750623
v 0.044821 -0.113248 0.589409
v 0.035358 -0.113248 0.474634
v 0.044821 -0.113248 0.474634
v 0.035358 -0.113248 0.474634
v 0.044821 -0.113248 0.589409
v 0.035358 -0.113248 0.474634
v 0.035358 -0.113248 0.589409
v 0.035358 -0.113248 0.589409
v 0.037724 -0.113248 0.750623
v 0.037724 -0.113248 0.750623
v 0.042878 -0.113248 0.750623
v 0.037724 -0.113248 0.750623
v 0.037724 -0.118368 0.589409
v 0.037724 -0.113248 0.589409
v 0.037724 -0.118368 0.589409
v 0.037724 -0.113248 0.750623
v 0.037724 -0.118368 0.750623
v 0.042878 -0.118368 0.589409
v 0.042878 -0.113248 0.750623
v 0.042878 -0.113248 0.589409
v 0.042878 -0.113248 0.750623
v 0.042878 -0.118368 0.589409
v 0.042878 -0.118368 0.750623
v 0.044821 -0.118368 0.589409
v 0.042878 -0.113248 0.589409
v 0.044821 -0.113248 0.589409
v 0.042878 -0.113248 0.589409
v 0.044821 -0.118368 0.589409
v 0.042878 -0.118368 0.589409
v 0.035358 -0.118368 0.589409
v 0.037724 -0.113248 0.589409
v 0.037724 -0.118368 0.589409
v 0.037724 -0.113248 0.589409
v 0.035358 -0.118368 0.589409
v 0.035358 -0.113248 0.589409
f 1 2 3
f 2 1 4
f 5 6 7
f 8 7 6
f 7 8 9
f 7 9 10
f 10 9 11
f 11 9 12
f 21 22 23
f 24 25 26
f 27 28 29
f 30 31 13
f 13 32 33
f 34 13 14
f 15 35 36
f 37 15 38
f 39 16 40
f 16 41 17
f 42 43 44
f 45 46 16
f 47 48 18
f 49 50 51
f 52 53 54
f 55 56 19
f 57 19 58
f 59 19 20
f 19 60 20
f 61 19 62
f 63 64 65
f 66 67 68
f 69 70 71
f 72 73 74
f 75 76 77
f 78 79 80
f 81 82 83
f 84 85 86
