v -0.325468 0.008331 0.494139
v -0.320800 0.008633 0.494139
v -0.323095 0.007873 0.494139
v -0.327284 0.009885 0.494139
v -0.319199 0.010408 0.494139
v -0.328057 0.012118 0.494139
v -0.318721 0.012722 0.494139
v -0.327578 0.014432 0.494139
v -0.319493 0.014955 0.494139
v -0.325977 0.016207 0.494139
v -0.321310 0.016509 0.494139
v -0.323683 0.016967 0.494139
v -0.326032 0.016291 0.517724
v -0.323689 0.017066 0.517724
v -0.326034 0.016290 0.517724
v -0.323689 0.017068 0.517724
v -0.321266 0.016600 0.517724
v -0.321264 0.016598 0.517724
v -0.326663 0.017210 0.514523
v -0.326778 0.017379 0.512175
v -0.326778 0.017379 0.499885
v -0.324573 0.018109 0.508904
v -0.320454 0.008126 0.495349
v -0.325747 0.007783 0.495349
v -0.323055 0.007264 0.495349
v -0.318638 0.010138 0.495349
v -0.327806 0.009545 0.495349
v -0.318096 0.012762 0.495349
v -0.328682 0.012078 0.495349
v -0.318972 0.015295 0.495349
v -0.328139 0.014702 0.495349
v -0.326324 0.016714 0.495349
v -0.320596 0.016684 0.495349
v -0.321031 0.017057 0.495349
v -0.323722 0.017576 0.495349
v -0.323774 0.018374 0.511693
v -0.323774 0.018374 0.512175
v -0.323774 0.018374 0.499885
v -0.322928 0.018211 0.512175
v -0.320666 0.017774 0.499885
v -0.320666 0.017774 0.501723
v -0.323761 0.018171 0.497537
v -0.326663 0.017210 0.497537
v -0.320759 0.017591 0.497537
v -0.320248 0.017416 0.512175
v -0.319750 0.016990 0.499885
v -0.320035 0.016972 0.497537
v -0.383040 -0.061071 0.517413
v -0.380623 -0.061571 0.517413
v -0.383042 -0.061071 0.517413
v -0.380622 -0.061570 0.517413
v -0.378758 -0.063187 0.517413
v -0.378757 -0.063189 0.517413
v -0.406628 -0.186688 0.490252
v -0.402435 -0.188761 0.490252
v -0.404802 -0.188272 0.490252
v -0.407424 -0.184435 0.490252
v -0.400161 -0.188024 0.490252
v -0.406977 -0.182114 0.490252
v -0.398590 -0.186259 0.490252
v -0.405405 -0.180350 0.490252
v -0.398142 -0.183939 0.490252
v -0.403131 -0.179613 0.490252
v -0.398938 -0.181685 0.490252
v -0.400764 -0.180102 0.490252
v -0.403137 -0.179512 0.513836
v -0.400720 -0.180013 0.513836
v -0.403139 -0.179513 0.513836
v -0.400720 -0.180012 0.513836
v -0.398855 -0.181629 0.513836
v -0.398854 -0.181631 0.513836
v -0.403224 -0.178402 0.510636
v -0.403239 -0.178198 0.508287
v -0.403239 -0.178198 0.495997
v -0.400965 -0.178668 0.505017
v -0.402388 -0.189374 0.491461
v -0.407143 -0.187023 0.491461
v -0.405073 -0.188819 0.491461
v -0.399810 -0.188538 0.491461
v -0.408046 -0.184468 0.491461
v -0.398028 -0.186537 0.491461
v -0.407538 -0.181837 0.491461
v -0.397521 -0.183906 0.491461
v -0.405757 -0.179836 0.491461
v -0.403178 -0.179000 0.491461
v -0.398232 -0.181890 0.491461
v -0.398423 -0.181350 0.491461
v -0.400494 -0.179555 0.491461
v -0.400140 -0.178838 0.507805
v -0.400140 -0.178838 0.508287
v -0.400140 -0.178838 0.495997
v -0.399489 -0.179402 0.508287
v -0.397749 -0.180912 0.495997
v -0.397749 -0.180912 0.497835
v -0.400230 -0.179020 0.493649
v -0.403224 -0.178402 0.493649
v -0.397920 -0.181023 0.493649
v -0.397565 -0.181431 0.508287
v -0.397347 -0.182048 0.495997
v -0.397603 -0.181922 0.493649
v -0.196669 -0.127114 0.490744
v -0.194531 -0.122954 0.490744
v -0.195057 -0.125313 0.490744
v -0.198935 -0.127874 0.490744
v -0.195232 -0.120668 0.490744
v -0.201248 -0.127390 0.490744
v -0.196972 -0.119070 0.490744
v -0.202988 -0.125791 0.490744
v -0.199285 -0.118586 0.490744
v -0.203689 -0.123506 0.490744
v -0.201551 -0.119346 0.490744
v -0.203163 -0.121147 0.490744
v -0.203789 -0.123510 0.514328
v -0.203251 -0.121102 0.514328
v -0.203789 -0.123512 0.514328
v -0.203252 -0.121101 0.514328
v -0.201606 -0.119262 0.514328
v -0.201604 -0.119261 0.514328
v -0.204901 -0.123579 0.511128
v -0.205105 -0.123592 0.508779
v -0.205105 -0.123592 0.496489
v -0.204600 -0.121325 0.505508
v -0.193918 -0.122917 0.491953
v -0.196342 -0.127634 0.491953
v -0.194514 -0.125592 0.491953
v -0.194712 -0.120325 0.491953
v -0.198912 -0.128496 0.491953
v -0.196685 -0.118512 0.491953
v -0.201534 -0.127947 0.491953
v -0.199308 -0.117963 0.491953
v -0.203507 -0.126135 0.491953
v -0.204302 -0.123543 0.491953
v -0.201335 -0.118644 0.491953
v -0.201878 -0.118826 0.491953
v -0.203706 -0.120868 0.491953
v -0.204417 -0.120503 0.508297
v -0.204417 -0.120503 0.508779
v -0.204417 -0.120503 0.496489
v -0.203842 -0.119861 0.508779
v -0.202306 -0.118144 0.496489
v -0.202306 -0.118144 0.498327
v -0.204236 -0.120596 0.494141
v -0.204901 -0.123579 0.494141
v -0.202197 -0.118318 0.494141
v -0.201784 -0.117969 0.508779
v -0.201163 -0.117761 0.496489
v -0.201293 -0.118014 0.494141
v -0.182040 -0.134632 0.490744
v -0.179902 -0.130472 0.490744
v -0.180428 -0.132831 0.490744
v -0.184306 -0.135392 0.490744
v -0.180603 -0.128187 0.490744
v -0.186619 -0.134908 0.490744
v -0.182343 -0.126588 0.490744
v -0.188359 -0.133310 0.490744
v -0.184656 -0.126104 0.490744
v -0.189060 -0.131025 0.490744
v -0.186922 -0.126864 0.490744
v -0.188534 -0.128665 0.490744
v -0.189161 -0.131028 0.514328
v -0.188622 -0.128620 0.514328
v -0.189160 -0.131031 0.514328
v -0.188623 -0.128619 0.514328
v -0.186977 -0.126780 0.514328
v -0.186975 -0.126779 0.514328
v -0.190272 -0.131098 0.511128
v -0.190477 -0.131110 0.508779
v -0.190477 -0.131110 0.496489
v -0.189971 -0.128843 0.505508
v -0.179289 -0.130435 0.491953
v -0.181713 -0.135152 0.491953
v -0.179885 -0.133110 0.491953
v -0.180084 -0.127844 0.491953
v -0.184283 -0.136015 0.491953
v -0.182057 -0.126031 0.491953
v -0.186906 -0.135466 0.491953
v -0.184679 -0.125482 0.491953
v -0.188879 -0.133653 0.491953
v -0.189673 -0.131062 0.491953
v -0.186706 -0.126162 0.491953
v -0.187249 -0.126344 0.491953
v -0.189077 -0.128386 0.491953
v -0.189788 -0.128021 0.508297
v -0.189788 -0.128021 0.508779
v -0.189788 -0.128021 0.496489
v -0.189213 -0.127379 0.508779
v -0.187677 -0.125663 0.496489
v -0.187677 -0.125663 0.498327
v -0.189607 -0.128114 0.494141
v -0.190272 -0.131098 0.494141
v -0.187568 -0.125836 0.494141
v -0.187155 -0.125487 0.508779
v -0.186534 -0.125279 0.496489
v -0.186664 -0.125533 0.494141
v -0.168492 -0.141595 0.490744
v -0.166354 -0.137435 0.490744
v -0.166880 -0.139794 0.490744
v -0.170758 -0.142355 0.490744
v -0.167055 -0.135149 0.490744
v -0.173071 -0.141871 0.490744
v -0.168795 -0.133551 0.490744
v -0.174811 -0.140272 0.490744
v -0.171108 -0.133067 0.490744
v -0.175512 -0.137987 0.490744
v -0.173374 -0.133827 0.490744
v -0.174986 -0.135628 0.490744
v -0.175612 -0.137991 0.514328
v -0.175074 -0.135583 0.514328
v -0.175612 -0.137993 0.514328
v -0.175075 -0.135582 0.514328
v -0.173429 -0.133743 0.514328
v -0.173427 -0.133742 0.514328
v -0.176724 -0.138060 0.511128
v -0.176928 -0.138073 0.508779
v -0.176928 -0.138073 0.496489
v -0.176423 -0.135806 0.505508
v -0.165741 -0.137398 0.491953
v -0.168165 -0.142115 0.491953
v -0.166337 -0.140073 0.491953
v -0.166536 -0.134806 0.491953
v -0.170735 -0.142977 0.491953
v -0.168509 -0.132993 0.491953
v -0.173358 -0.142428 0.491953
v -0.171131 -0.132444 0.491953
v -0.175331 -0.140615 0.491953
v -0.176125 -0.138024 0.491953
v -0.173158 -0.133124 0.491953
v -0.173701 -0.133307 0.491953
v -0.175529 -0.135349 0.491953
v -0.176240 -0.134984 0.508297
v -0.176240 -0.134984 0.508779
v -0.176240 -0.134984 0.496489
v -0.175665 -0.134342 0.508779
v -0.174129 -0.132625 0.496489
v -0.174129 -0.132625 0.498327
v -0.176059 -0.135077 0.494141
v -0.176724 -0.138060 0.494141
v -0.174020 -0.132799 0.494141
v -0.173607 -0.132450 0.508779
v -0.172986 -0.132242 0.496489
v -0.173116 -0.132495 0.494141
v -0.154605 -0.148732 0.490744
v -0.152467 -0.144572 0.490744
v -0.152993 -0.146931 0.490744
v -0.156871 -0.149493 0.490744
v -0.153167 -0.142287 0.490744
v -0.159183 -0.149008 0.490744
v -0.154907 -0.140688 0.490744
v -0.160923 -0.147410 0.490744
v -0.157220 -0.140204 0.490744
v -0.161624 -0.145125 0.490744
v -0.159486 -0.140964 0.490744
v -0.161098 -0.142765 0.490744
v -0.161725 -0.145128 0.514328
v -0.161187 -0.142720 0.514328
v -0.161724 -0.145131 0.514328
v -0.161188 -0.142719 0.514328
v -0.159541 -0.140880 0.514328
v -0.159539 -0.140879 0.514328
v -0.162837 -0.145198 0.511128
v -0.163041 -0.145210 0.508779
v -0.163041 -0.145210 0.496489
v -0.162535 -0.142943 0.505508
v -0.151853 -0.144535 0.491953
v -0.154278 -0.149252 0.491953
v -0.152450 -0.147210 0.491953
v -0.152648 -0.141944 0.491953
v -0.156847 -0.150115 0.491953
v -0.154621 -0.140131 0.491953
v -0.159470 -0.149566 0.491953
v -0.157244 -0.139582 0.491953
v -0.161443 -0.147753 0.491953
v -0.162238 -0.145162 0.491953
v -0.159270 -0.140262 0.491953
v -0.159813 -0.140444 0.491953
v -0.161641 -0.142486 0.491953
v -0.162352 -0.142121 0.508297
v -0.162352 -0.142121 0.508779
v -0.162352 -0.142121 0.496489
v -0.161778 -0.141479 0.508779
v -0.160241 -0.139763 0.496489
v -0.160241 -0.139763 0.498327
v -0.162171 -0.142214 0.494141
v -0.162837 -0.145198 0.494141
v -0.160132 -0.139936 0.494141
v -0.159719 -0.139588 0.508779
v -0.159098 -0.139379 0.496489
v -0.159229 -0.139633 0.494141
v -0.140985 -0.155732 0.490744
v -0.138846 -0.151572 0.490744
v -0.139372 -0.153931 0.490744
v -0.143251 -0.156492 0.490744
v -0.139547 -0.149286 0.490744
v -0.145563 -0.156008 0.490744
v -0.141287 -0.147688 0.490744
v -0.147303 -0.154409 0.490744
v -0.143600 -0.147204 0.490744
v -0.148004 -0.152124 0.490744
v -0.145866 -0.147964 0.490744
v -0.147478 -0.149765 0.490744
v -0.148105 -0.152128 0.514328
v -0.147566 -0.149720 0.514328
v -0.148104 -0.152130 0.514328
v -0.147567 -0.149719 0.514328
v -0.145921 -0.147880 0.514328
v -0.145919 -0.147879 0.514328
v -0.149216 -0.152197 0.511128
v -0.149421 -0.152210 0.508779
v -0.149421 -0.152210 0.496489
v -0.148915 -0.149943 0.505508
v -0.138233 -0.151535 0.491953
v -0.140658 -0.156252 0.491953
v -0.138830 -0.154210 0.491953
v -0.139028 -0.148943 0.491953
v -0.143227 -0.157114 0.491953
v -0.141001 -0.147130 0.491953
v -0.145850 -0.156565 0.491953
v -0.143623 -0.146582 0.491953
v -0.147823 -0.154753 0.491953
v -0.148617 -0.152161 0.491953
v -0.145650 -0.147262 0.491953
v -0.146193 -0.147444 0.491953
v -0.148021 -0.149486 0.491953
v -0.148732 -0.149121 0.508297
v -0.148732 -0.149121 0.508779
v -0.148732 -0.149121 0.496489
v -0.148157 -0.148479 0.508779
v -0.146621 -0.146762 0.496489
v -0.146621 -0.146762 0.498327
v -0.148551 -0.149214 0.494141
v -0.149216 -0.152197 0.494141
v -0.146512 -0.146936 0.494141
v -0.146099 -0.146587 0.508779
v -0.145478 -0.146379 0.496489
v -0.145608 -0.146632 0.494141
v -0.244375 -0.172225 0.490744
v -0.240484 -0.169630 0.490744
v -0.242091 -0.171436 0.490744
v -0.246725 -0.171788 0.490744
v -0.239985 -0.167293 0.490744
v -0.248510 -0.170240 0.490744
v -0.240727 -0.165049 0.490744
v -0.249253 -0.167997 0.490744
v -0.242513 -0.163502 0.490744
v -0.248754 -0.165659 0.490744
v -0.244863 -0.163064 0.490744
v -0.247147 -0.163854 0.490744
v -0.248844 -0.165614 0.514328
v -0.247202 -0.163771 0.514328
v -0.248844 -0.165616 0.514328
v -0.247203 -0.163770 0.514328
v -0.244870 -0.162964 0.514328
v -0.244868 -0.162964 0.514328
v -0.249849 -0.165134 0.511128
v -0.250034 -0.165045 0.508779
v -0.250034 -0.165045 0.496489
v -0.248489 -0.163310 0.505508
v -0.239930 -0.169896 0.491953
v -0.244343 -0.172839 0.491953
v -0.241752 -0.171943 0.491953
v -0.239364 -0.167245 0.491953
v -0.247007 -0.172343 0.491953
v -0.240206 -0.164702 0.491953
v -0.249032 -0.170588 0.491953
v -0.242231 -0.162947 0.491953
v -0.249874 -0.168044 0.491953
v -0.249308 -0.165393 0.491953
v -0.244332 -0.162555 0.491953
v -0.244895 -0.162450 0.491953
v -0.247486 -0.163346 0.491953
v -0.247929 -0.162681 0.508297
v -0.247929 -0.162681 0.508779
v -0.247929 -0.162681 0.496489
v -0.247115 -0.162400 0.508779
v -0.244938 -0.161647 0.496489
v -0.244938 -0.161647 0.498327
v -0.247817 -0.162850 0.494141
v -0.249849 -0.165134 0.494141
v -0.244927 -0.161851 0.494141
v -0.244397 -0.161748 0.508779
v -0.243753 -0.161868 0.496489
v -0.243990 -0.162026 0.494141
v -0.209559 0.068375 0.514270
v -0.207194 0.069081 0.514270
v -0.209561 0.068374 0.514270
v -0.207194 0.069082 0.514270
v -0.204786 0.068542 0.514270
v -0.204784 0.068541 0.514270
v -0.226798 -0.198582 0.490744
v -0.222906 -0.195987 0.490744
v -0.224513 -0.197792 0.490744
v -0.229147 -0.198144 0.490744
v -0.222407 -0.193649 0.490744
v -0.230933 -0.196597 0.490744
v -0.223150 -0.191406 0.490744
v -0.231676 -0.194353 0.490744
v -0.224935 -0.189858 0.490744
v -0.231177 -0.192016 0.490744
v -0.227285 -0.189421 0.490744
v -0.229570 -0.190210 0.490744
v -0.231266 -0.191970 0.514328
v -0.229625 -0.190128 0.514328
v -0.231267 -0.191972 0.514328
v -0.229625 -0.190127 0.514328
v -0.227293 -0.189320 0.514328
v -0.227290 -0.189321 0.514328
v -0.232271 -0.191490 0.511128
v -0.232456 -0.191402 0.508779
v -0.232456 -0.191402 0.496489
v -0.230912 -0.189667 0.505508
v -0.222352 -0.196253 0.491953
v -0.226765 -0.199195 0.491953
v -0.224174 -0.198300 0.491953
v -0.221786 -0.193602 0.491953
v -0.229429 -0.198699 0.491953
v -0.222629 -0.191058 0.491953
v -0.231454 -0.196944 0.491953
v -0.224653 -0.189303 0.491953
v -0.232296 -0.194401 0.491953
v -0.231731 -0.191750 0.491953
v -0.226755 -0.188912 0.491953
v -0.227318 -0.188807 0.491953
v -0.229908 -0.189702 0.491953
v -0.230352 -0.189037 0.508297
v -0.230352 -0.189037 0.508779
v -0.230352 -0.189037 0.496489
v -0.229538 -0.188756 0.508779
v -0.227361 -0.188003 0.496489
v -0.227361 -0.188003 0.498327
v -0.230239 -0.189207 0.494141
v -0.232271 -0.191490 0.494141
v -0.227350 -0.188208 0.494141
v -0.226819 -0.188104 0.508779
v -0.226175 -0.188224 0.496489
v -0.226413 -0.188382 0.494141
v -0.390079 -0.171591 0.513836
v -0.387663 -0.172091 0.513836
v -0.390082 -0.171591 0.513836
v -0.387662 -0.172090 0.513836
v -0.385797 -0.173707 0.513836
v -0.385797 -0.173709 0.513836
v -0.377079 -0.162921 0.513836
v -0.374663 -0.163421 0.513836
v -0.377081 -0.162921 0.513836
v -0.374662 -0.163420 0.513836
v -0.372797 -0.165037 0.513836
v -0.372797 -0.165039 0.513836
v -0.272782 -0.177722 0.491554
v -0.268589 -0.179794 0.491554
v -0.270956 -0.179305 0.491554
v -0.273578 -0.175468 0.491554
v -0.266315 -0.179058 0.491554
v -0.273131 -0.173148 0.491554
v -0.264744 -0.177293 0.491554
v -0.271559 -0.171383 0.491554
v -0.264296 -0.174973 0.491554
v -0.269285 -0.170646 0.491554
v -0.265092 -0.172719 0.491554
v -0.266918 -0.171135 0.491554
v -0.269291 -0.170546 0.515138
v -0.266874 -0.171046 0.515138
v -0.269293 -0.170547 0.515138
v -0.266874 -0.171045 0.515138
v -0.265009 -0.172662 0.515138
v -0.265008 -0.172664 0.515138
v -0.269378 -0.169435 0.511938
v -0.269393 -0.169231 0.509590
v -0.269393 -0.169231 0.497300
v -0.267119 -0.169701 0.506319
v -0.268542 -0.180407 0.492763
v -0.273297 -0.178057 0.492763
v -0.271227 -0.179853 0.492763
v -0.265964 -0.179572 0.492763
v -0.274200 -0.175501 0.492763
v -0.264182 -0.177570 0.492763
v -0.273692 -0.172870 0.492763
v -0.263675 -0.174939 0.492763
v -0.271910 -0.170869 0.492763
v -0.269332 -0.170034 0.492763
v -0.264386 -0.172924 0.492763
v -0.264577 -0.172384 0.492763
v -0.266648 -0.170588 0.492763
v -0.266294 -0.169872 0.509107
v -0.266294 -0.169872 0.509590
v -0.266294 -0.169872 0.497300
v -0.265643 -0.170436 0.509590
v -0.263902 -0.171945 0.497300
v -0.263902 -0.171945 0.499137
v -0.266384 -0.170054 0.494951
v -0.269378 -0.169435 0.494951
v -0.264074 -0.172057 0.494951
v -0.263719 -0.172464 0.509590
v -0.263501 -0.173082 0.497300
v -0.263757 -0.172955 0.494951
v -0.239288 0.013638 0.514270
v -0.236922 0.014343 0.514270
v -0.239289 0.013637 0.514270
v -0.236922 0.014344 0.514270
v -0.234514 0.013805 0.514270
v -0.234512 0.013803 0.514270
v -0.224545 0.041365 0.514270
v -0.222180 0.042070 0.514270
v -0.224546 0.041363 0.514270
v -0.222180 0.042071 0.514270
v -0.219771 0.041531 0.514270
v -0.219770 0.041530 0.514270
v -0.231952 0.027435 0.514270
v -0.229586 0.028140 0.514270
v -0.231953 0.027433 0.514270
v -0.229586 0.028141 0.514270
v -0.227178 0.027602 0.514270
v -0.227176 0.027600 0.514270
v -0.306648 -0.175867 0.490744
v -0.302018 -0.176534 0.490744
v -0.304420 -0.176804 0.490744
v -0.308104 -0.173972 0.490744
v -0.300086 -0.175127 0.490744
v -0.308400 -0.171627 0.490744
v -0.299140 -0.172961 0.490744
v -0.307455 -0.169461 0.490744
v -0.299436 -0.170617 0.490744
v -0.305522 -0.168055 0.490744
v -0.300892 -0.168722 0.490744
v -0.303120 -0.167784 0.490744
v -0.305559 -0.167961 0.514328
v -0.303106 -0.167686 0.514328
v -0.305560 -0.167962 0.514328
v -0.303106 -0.167685 0.514328
v -0.300831 -0.168642 0.514328
v -0.300830 -0.168644 0.514328
v -0.305986 -0.166932 0.511128
v -0.306064 -0.166743 0.508779
v -0.306064 -0.166743 0.496489
v -0.303756 -0.166483 0.505508
v -0.301783 -0.177102 0.491953
v -0.307033 -0.176345 0.491953
v -0.304507 -0.177408 0.491953
v -0.299592 -0.175507 0.491953
v -0.308685 -0.174196 0.491953
v -0.298520 -0.173051 0.491953
v -0.309020 -0.171538 0.491953
v -0.298855 -0.170392 0.491953
v -0.307948 -0.169082 0.491953
v -0.305757 -0.167487 0.491953
v -0.300158 -0.168698 0.491953
v -0.300507 -0.168243 0.491953
v -0.303033 -0.167180 0.491953
v -0.302919 -0.166389 0.508297
v -0.302919 -0.166389 0.508779
v -0.302919 -0.166389 0.496489
v -0.302125 -0.166723 0.508779
v -0.300002 -0.167617 0.496489
v -0.300002 -0.167617 0.498327
v -0.302948 -0.166590 0.494141
v -0.305986 -0.166932 0.494141
v -0.300130 -0.167776 0.494141
v -0.299666 -0.168053 0.508779
v -0.299267 -0.168573 0.496489
v -0.299549 -0.168532 0.494141
v -0.308994 -0.192146 0.490744
v -0.304364 -0.192813 0.490744
v -0.306766 -0.193084 0.490744
v -0.310450 -0.190251 0.490744
v -0.302431 -0.191407 0.490744
v -0.310746 -0.187907 0.490744
v -0.301486 -0.189241 0.490744
v -0.309800 -0.185741 0.490744
v -0.301782 -0.186897 0.490744
v -0.307868 -0.184334 0.490744
v -0.303238 -0.185002 0.490744
v -0.305466 -0.184064 0.490744
v -0.307904 -0.184241 0.514328
v -0.305452 -0.183965 0.514328
v -0.307906 -0.184242 0.514328
v -0.305452 -0.183964 0.514328
v -0.303177 -0.184922 0.514328
v -0.303175 -0.184924 0.514328
v -0.308332 -0.183212 0.511128
v -0.308410 -0.183023 0.508779
v -0.308410 -0.183023 0.496489
v -0.306102 -0.182763 0.505508
v -0.304129 -0.193381 0.491953
v -0.309379 -0.192625 0.491953
v -0.306853 -0.193688 0.491953
v -0.301938 -0.191786 0.491953
v -0.311031 -0.190476 0.491953
v -0.300866 -0.189330 0.491953
v -0.311366 -0.187817 0.491953
v -0.301201 -0.186672 0.491953
v -0.310294 -0.185362 0.491953
v -0.308103 -0.183767 0.491953
v -0.302504 -0.184977 0.491953
v -0.302853 -0.184523 0.491953
v -0.305379 -0.183460 0.491953
v -0.305265 -0.182669 0.508297
v -0.305265 -0.182669 0.508779
v -0.305265 -0.182669 0.496489
v -0.304471 -0.183003 0.508779
v -0.302348 -0.183896 0.496489
v -0.302348 -0.183896 0.498327
v -0.305294 -0.182870 0.494141
v -0.308332 -0.183212 0.494141
v -0.302476 -0.184056 0.494141
v -0.302012 -0.184333 0.508779
v -0.301613 -0.184852 0.496489
v -0.301895 -0.184812 0.494141
v -0.311166 -0.207223 0.490744
v -0.306536 -0.207890 0.490744
v -0.308938 -0.208161 0.490744
v -0.312623 -0.205328 0.490744
v -0.304604 -0.206483 0.490744
v -0.312918 -0.202983 0.490744
v -0.303659 -0.204318 0.490744
v -0.311973 -0.200818 0.490744
v -0.303954 -0.201973 0.490744
v -0.310041 -0.199411 0.490744
v -0.305411 -0.200078 0.490744
v -0.307639 -0.199141 0.490744
v -0.310077 -0.199317 0.514328
v -0.307624 -0.199042 0.514328
v -0.310079 -0.199319 0.514328
v -0.307624 -0.199041 0.514328
v -0.305349 -0.199999 0.514328
v -0.305348 -0.200000 0.514328
v -0.310504 -0.198289 0.511128
v -0.310583 -0.198100 0.508779
v -0.310583 -0.198100 0.496489
v -0.308275 -0.197840 0.505508
v -0.306302 -0.208458 0.491953
v -0.311552 -0.207701 0.491953
v -0.309025 -0.208765 0.491953
v -0.304110 -0.206863 0.491953
v -0.313203 -0.205553 0.491953
v -0.303039 -0.204407 0.491953
v -0.313538 -0.202894 0.491953
v -0.303374 -0.201749 0.491953
v -0.312467 -0.200438 0.491953
v -0.310275 -0.198843 0.491953
v -0.304676 -0.200054 0.491953
v -0.305025 -0.199600 0.491953
v -0.307552 -0.198536 0.491953
v -0.307438 -0.197745 0.508297
v -0.307438 -0.197745 0.508779
v -0.307438 -0.197745 0.496489
v -0.306644 -0.198079 0.508779
v -0.304521 -0.198973 0.496489
v -0.304521 -0.198973 0.498327
v -0.307467 -0.197946 0.494141
v -0.310504 -0.198289 0.494141
v -0.304649 -0.199133 0.494141
v -0.304185 -0.199410 0.508779
v -0.303786 -0.199929 0.496489
v -0.304068 -0.199888 0.494141
v -0.313393 -0.222678 0.490744
v -0.308764 -0.223345 0.490744
v -0.311166 -0.223615 0.490744
v -0.314850 -0.220783 0.490744
v -0.306831 -0.221938 0.490744
v -0.315145 -0.218438 0.490744
v -0.305886 -0.219773 0.490744
v -0.314200 -0.216273 0.490744
v -0.306181 -0.217428 0.490744
v -0.312268 -0.214866 0.490744
v -0.307638 -0.215533 0.490744
v -0.309866 -0.214595 0.490744
v -0.312304 -0.214772 0.514328
v -0.309851 -0.214497 0.514328
v -0.312306 -0.214773 0.514328
v -0.309851 -0.214496 0.514328
v -0.307576 -0.215453 0.514328
v -0.307575 -0.215455 0.514328
v -0.312731 -0.213744 0.511128
v -0.312810 -0.213554 0.508779
v -0.312810 -0.213554 0.496489
v -0.310502 -0.213294 0.505508
v -0.308529 -0.223913 0.491953
v -0.313779 -0.223156 0.491953
v -0.311253 -0.224220 0.491953
v -0.306338 -0.222318 0.491953
v -0.315431 -0.221007 0.491953
v -0.305266 -0.219862 0.491953
v -0.315765 -0.218349 0.491953
v -0.305601 -0.217203 0.491953
v -0.314694 -0.215893 0.491953
v -0.312502 -0.214298 0.491953
v -0.306903 -0.215509 0.491953
v -0.307252 -0.215055 0.491953
v -0.309779 -0.213991 0.491953
v -0.309665 -0.213200 0.508297
v -0.309665 -0.213200 0.508779
v -0.309665 -0.213200 0.496489
v -0.308871 -0.213534 0.508779
v -0.306748 -0.214428 0.496489
v -0.306748 -0.214428 0.498327
v -0.309694 -0.213401 0.494141
v -0.312731 -0.213744 0.494141
v -0.306876 -0.214587 0.494141
v -0.306412 -0.214864 0.508779
v -0.306013 -0.215384 0.496489
v -0.306295 -0.215343 0.494141
v -0.315577 -0.237835 0.490744
v -0.310948 -0.238502 0.490744
v -0.313350 -0.238772 0.490744
v -0.317034 -0.235940 0.490744
v -0.309015 -0.237095 0.490744
v -0.317329 -0.233595 0.490744
v -0.308070 -0.234929 0.490744
v -0.316384 -0.231429 0.490744
v -0.308365 -0.232585 0.490744
v -0.314452 -0.230023 0.490744
v -0.309822 -0.230690 0.490744
v -0.312050 -0.229752 0.490744
v -0.314488 -0.229929 0.514328
v -0.312036 -0.229654 0.514328
v -0.314490 -0.229930 0.514328
v -0.312035 -0.229653 0.514328
v -0.309761 -0.230610 0.514328
v -0.309759 -0.230612 0.514328
v -0.314916 -0.228900 0.511128
v -0.314994 -0.228711 0.508779
v -0.314994 -0.228711 0.496489
v -0.312686 -0.228451 0.505508
v -0.310713 -0.239070 0.491953
v -0.315963 -0.238313 0.491953
v -0.313437 -0.239376 0.491953
v -0.308522 -0.237475 0.491953
v -0.317615 -0.236164 0.491953
v -0.307450 -0.235019 0.491953
v -0.317950 -0.233506 0.491953
v -0.307785 -0.232360 0.491953
v -0.316878 -0.231050 0.491953
v -0.314686 -0.229455 0.491953
v -0.309087 -0.230666 0.491953
v -0.309437 -0.230211 0.491953
v -0.311963 -0.229148 0.491953
v -0.311849 -0.228357 0.508297
v -0.311849 -0.228357 0.508779
v -0.311849 -0.228357 0.496489
v -0.311055 -0.228691 0.508779
v -0.308932 -0.229585 0.496489
v -0.308932 -0.229585 0.498327
v -0.311878 -0.228558 0.494141
v -0.314916 -0.228900 0.494141
v -0.309060 -0.229744 0.494141
v -0.308596 -0.230021 0.508779
v -0.308197 -0.230541 0.496489
v -0.308479 -0.230500 0.494141
v -0.355668 -0.152702 0.490252
v -0.351475 -0.154775 0.490252
v -0.353842 -0.154286 0.490252
v -0.356464 -0.150448 0.490252
v -0.349201 -0.154038 0.490252
v -0.356016 -0.148128 0.490252
v -0.347629 -0.152273 0.490252
v -0.354445 -0.146363 0.490252
v -0.347182 -0.149953 0.490252
v -0.352171 -0.145627 0.490252
v -0.347978 -0.147699 0.490252
v -0.349804 -0.146116 0.490252
v -0.352177 -0.145526 0.513836
v -0.349760 -0.146026 0.513836
v -0.352179 -0.145527 0.513836
v -0.349759 -0.146025 0.513836
v -0.347895 -0.147642 0.513836
v -0.347894 -0.147644 0.513836
v -0.352263 -0.144416 0.510636
v -0.352279 -0.144212 0.508287
v -0.352279 -0.144212 0.495997
v -0.350004 -0.144681 0.505017
v -0.351428 -0.155387 0.491461
v -0.356183 -0.153037 0.491461
v -0.354112 -0.154833 0.491461
v -0.348850 -0.154552 0.491461
v -0.357086 -0.150481 0.491461
v -0.347068 -0.152551 0.491461
v -0.356578 -0.147850 0.491461
v -0.346560 -0.149920 0.491461
v -0.354796 -0.145849 0.491461
v -0.352218 -0.145014 0.491461
v -0.347272 -0.147904 0.491461
v -0.347463 -0.147364 0.491461
v -0.349533 -0.145568 0.491461
v -0.349179 -0.144852 0.507805
v -0.349179 -0.144852 0.508287
v -0.349179 -0.144852 0.495997
v -0.348529 -0.145416 0.508287
v -0.346788 -0.146925 0.495997
v -0.346788 -0.146925 0.497835
v -0.349269 -0.145034 0.493649
v -0.352263 -0.144416 0.493649
v -0.346960 -0.147037 0.493649
v -0.346605 -0.147444 0.508287
v -0.346387 -0.148062 0.495997
v -0.346642 -0.147936 0.493649
v -0.363954 -0.154167 0.513836
v -0.361537 -0.154668 0.513836
v -0.363956 -0.154168 0.513836
v -0.361537 -0.154667 0.513836
v -0.359672 -0.156284 0.513836
v -0.359671 -0.156286 0.513836
v -0.184788 -0.092680 0.490744
v -0.183872 -0.088093 0.490744
v -0.183731 -0.090506 0.490744
v -0.186759 -0.094032 0.490744
v -0.185172 -0.086087 0.490744
v -0.189116 -0.094200 0.490744
v -0.187283 -0.085026 0.490744
v -0.191228 -0.093139 0.490744
v -0.189640 -0.085194 0.490744
v -0.192528 -0.091133 0.490744
v -0.191611 -0.086546 0.490744
v -0.192668 -0.088720 0.490744
v -0.192623 -0.091165 0.514328
v -0.192766 -0.088701 0.514328
v -0.192622 -0.091166 0.514328
v -0.192767 -0.088701 0.514328
v -0.191687 -0.086481 0.514328
v -0.191686 -0.086480 0.514328
v -0.193674 -0.091536 0.511128
v -0.193867 -0.091604 0.508779
v -0.193867 -0.091604 0.496489
v -0.194002 -0.089285 0.505508
v -0.183292 -0.087889 0.491953
v -0.184331 -0.093091 0.491953
v -0.183133 -0.090626 0.491953
v -0.184766 -0.085615 0.491953
v -0.186566 -0.094624 0.491953
v -0.187160 -0.084412 0.491953
v -0.189239 -0.094814 0.491953
v -0.189833 -0.084602 0.491953
v -0.191633 -0.093611 0.491953
v -0.193107 -0.091337 0.491953
v -0.191596 -0.085812 0.491953
v -0.192068 -0.086136 0.491953
v -0.193267 -0.088601 0.491953
v -0.194050 -0.088444 0.508297
v -0.194050 -0.088444 0.508779
v -0.194050 -0.088444 0.496489
v -0.193674 -0.087669 0.508779
v -0.192667 -0.085598 0.496489
v -0.192667 -0.085598 0.498327
v -0.193851 -0.088484 0.494141
v -0.193674 -0.091536 0.494141
v -0.192514 -0.085735 0.494141
v -0.192213 -0.085286 0.508779
v -0.191672 -0.084916 0.496489
v -0.191728 -0.085195 0.494141
v -0.168659 -0.095903 0.490744
v -0.167743 -0.091316 0.490744
v -0.167602 -0.093729 0.490744
v -0.170630 -0.097255 0.490744
v -0.169043 -0.089310 0.490744
v -0.172987 -0.097423 0.490744
v -0.171154 -0.088249 0.490744
v -0.175099 -0.096362 0.490744
v -0.173511 -0.088417 0.490744
v -0.176399 -0.094356 0.490744
v -0.175482 -0.089769 0.490744
v -0.176539 -0.091943 0.490744
v -0.176494 -0.094388 0.514328
v -0.176637 -0.091924 0.514328
v -0.176493 -0.094389 0.514328
v -0.176638 -0.091923 0.514328
v -0.175559 -0.089704 0.514328
v -0.175557 -0.089702 0.514328
v -0.177545 -0.094759 0.511128
v -0.177738 -0.094826 0.508779
v -0.177738 -0.094826 0.496489
v -0.177873 -0.092508 0.505508
v -0.167163 -0.091112 0.491953
v -0.168202 -0.096313 0.491953
v -0.167004 -0.093848 0.491953
v -0.168637 -0.088838 0.491953
v -0.170437 -0.097847 0.491953
v -0.171032 -0.087635 0.491953
v -0.173110 -0.098037 0.491953
v -0.173704 -0.087825 0.491953
v -0.175504 -0.096834 0.491953
v -0.176979 -0.094560 0.491953
v -0.175467 -0.089035 0.491953
v -0.175939 -0.089359 0.491953
v -0.177138 -0.091824 0.491953
v -0.177922 -0.091667 0.508297
v -0.177922 -0.091667 0.508779
v -0.177922 -0.091667 0.496489
v -0.177545 -0.090892 0.508779
v -0.176538 -0.088821 0.496489
v -0.176538 -0.088821 0.498327
v -0.177722 -0.091707 0.494141
v -0.177545 -0.094759 0.494141
v -0.176385 -0.088957 0.494141
v -0.176084 -0.088509 0.508779
v -0.175543 -0.088139 0.496489
v -0.175599 -0.088418 0.494141
v -0.153722 -0.098887 0.490744
v -0.152806 -0.094301 0.490744
v -0.152665 -0.096714 0.490744
v -0.155693 -0.100239 0.490744
v -0.154106 -0.092295 0.490744
v -0.158050 -0.100408 0.490744
v -0.156217 -0.091234 0.490744
v -0.160162 -0.099347 0.490744
v -0.158574 -0.091402 0.490744
v -0.161462 -0.097341 0.490744
v -0.160545 -0.092754 0.490744
v -0.161602 -0.094928 0.490744
v -0.161557 -0.097372 0.514328
v -0.161699 -0.094908 0.514328
v -0.161556 -0.097374 0.514328
v -0.161701 -0.094908 0.514328
v -0.160621 -0.092688 0.514328
v -0.160620 -0.092687 0.514328
v -0.162607 -0.097743 0.511128
v -0.162801 -0.097811 0.508779
v -0.162801 -0.097811 0.496489
v -0.162935 -0.095493 0.505508
v -0.152226 -0.094097 0.491953
v -0.153265 -0.099298 0.491953
v -0.152067 -0.096833 0.491953
v -0.153700 -0.091823 0.491953
v -0.155500 -0.100831 0.491953
v -0.156094 -0.090619 0.491953
v -0.158173 -0.101022 0.491953
v -0.158767 -0.090810 0.491953
v -0.160567 -0.099819 0.491953
v -0.162041 -0.097545 0.491953
v -0.160530 -0.092019 0.491953
v -0.161002 -0.092343 0.491953
v -0.162201 -0.094808 0.491953
v -0.162984 -0.094652 0.508297
v -0.162984 -0.094652 0.508779
v -0.162984 -0.094652 0.496489
v -0.162608 -0.093877 0.508779
v -0.161600 -0.091805 0.496489
v -0.161600 -0.091805 0.498327
v -0.162785 -0.094691 0.494141
v -0.162607 -0.097743 0.494141
v -0.161448 -0.091942 0.494141
v -0.161146 -0.091494 0.508779
v -0.160606 -0.091123 0.496489
v -0.160662 -0.091403 0.494141
v -0.138410 -0.101947 0.490744
v -0.137494 -0.097360 0.490744
v -0.137354 -0.099773 0.490744
v -0.140381 -0.103299 0.490744
v -0.138794 -0.095354 0.490744
v -0.142738 -0.103467 0.490744
v -0.140905 -0.094293 0.490744
v -0.144850 -0.102406 0.490744
v -0.143262 -0.094462 0.490744
v -0.146150 -0.100400 0.490744
v -0.145233 -0.095814 0.490744
v -0.146290 -0.097987 0.490744
v -0.146246 -0.100432 0.514328
v -0.146388 -0.097968 0.514328
v -0.146244 -0.100434 0.514328
v -0.146389 -0.097968 0.514328
v -0.145310 -0.095748 0.514328
v -0.145308 -0.095747 0.514328
v -0.147296 -0.100803 0.511128
v -0.147489 -0.100871 0.508779
v -0.147489 -0.100871 0.496489
v -0.147624 -0.098552 0.505508
v -0.136914 -0.097156 0.491953
v -0.137954 -0.102358 0.491953
v -0.136755 -0.099893 0.491953
v -0.138388 -0.094882 0.491953
v -0.140189 -0.103891 0.491953
v -0.140783 -0.093679 0.491953
v -0.142861 -0.104082 0.491953
v -0.143455 -0.093870 0.491953
v -0.145255 -0.102878 0.491953
v -0.146730 -0.100604 0.491953
v -0.145218 -0.095079 0.491953
v -0.145690 -0.095403 0.491953
v -0.146889 -0.097868 0.491953
v -0.147673 -0.097711 0.508297
v -0.147673 -0.097711 0.508779
v -0.147673 -0.097711 0.496489
v -0.147296 -0.096937 0.508779
v -0.146289 -0.094865 0.496489
v -0.146289 -0.094865 0.498327
v -0.147473 -0.097751 0.494141
v -0.147296 -0.100803 0.494141
v -0.146137 -0.095002 0.494141
v -0.145835 -0.094553 0.508779
v -0.145295 -0.094183 0.496489
v -0.145350 -0.094462 0.494141
v -0.123394 -0.104948 0.490744
v -0.122477 -0.100361 0.490744
v -0.122337 -0.102774 0.490744
v -0.125365 -0.106300 0.490744
v -0.123777 -0.098355 0.490744
v -0.127722 -0.106468 0.490744
v -0.125889 -0.097294 0.490744
v -0.129833 -0.105407 0.490744
v -0.128246 -0.097462 0.490744
v -0.131133 -0.103401 0.490744
v -0.130217 -0.098814 0.490744
v -0.131274 -0.100988 0.490744
v -0.131229 -0.103432 0.514328
v -0.131371 -0.100969 0.514328
v -0.131228 -0.103434 0.514328
v -0.131372 -0.100968 0.514328
v -0.130293 -0.098749 0.514328
v -0.130291 -0.098747 0.514328
v -0.132279 -0.103804 0.511128
v -0.132472 -0.103871 0.508779
v -0.132472 -0.103871 0.496489
v -0.132607 -0.101553 0.505508
v -0.121898 -0.100157 0.491953
v -0.122937 -0.105358 0.491953
v -0.121738 -0.102893 0.491953
v -0.123372 -0.097883 0.491953
v -0.125172 -0.106892 0.491953
v -0.125766 -0.096680 0.491953
v -0.127845 -0.107082 0.491953
v -0.128439 -0.096870 0.491953
v -0.130239 -0.105879 0.491953
v -0.131713 -0.103605 0.491953
v -0.130201 -0.098079 0.491953
v -0.130674 -0.098403 0.491953
v -0.131872 -0.100868 0.491953
v -0.132656 -0.100712 0.508297
v -0.132656 -0.100712 0.508779
v -0.132656 -0.100712 0.496489
v -0.132279 -0.099937 0.508779
v -0.131272 -0.097866 0.496489
v -0.131272 -0.097866 0.498327
v -0.132457 -0.100752 0.494141
v -0.132279 -0.103804 0.494141
v -0.131120 -0.098002 0.494141
v -0.130818 -0.097554 0.508779
v -0.130278 -0.097184 0.496489
v -0.130334 -0.097463 0.494141
v -0.216895 0.054578 0.514270
v -0.214530 0.055284 0.514270
v -0.216897 0.054577 0.514270
v -0.214530 0.055285 0.514270
v -0.212122 0.054745 0.514270
v -0.212120 0.054744 0.514270
v -0.335201 -0.166313 0.490744
v -0.331179 -0.168701 0.490744
v -0.333502 -0.168032 0.490744
v -0.335822 -0.164005 0.490744
v -0.328856 -0.168141 0.490744
v -0.335198 -0.161726 0.490744
v -0.327154 -0.166502 0.490744
v -0.333496 -0.160087 0.490744
v -0.326529 -0.164223 0.490744
v -0.331172 -0.159527 0.490744
v -0.327150 -0.161915 0.490744
v -0.328849 -0.160196 0.490744
v -0.331170 -0.159426 0.514328
v -0.328799 -0.160111 0.514328
v -0.331172 -0.159427 0.514328
v -0.328798 -0.160110 0.514328
v -0.327063 -0.161865 0.514328
v -0.327062 -0.161867 0.514328
v -0.331171 -0.158312 0.511128
v -0.331171 -0.158108 0.508779
v -0.331171 -0.158108 0.496489
v -0.328939 -0.158751 0.505508
v -0.331180 -0.169316 0.491953
v -0.335741 -0.166608 0.491953
v -0.333814 -0.168557 0.491953
v -0.328545 -0.168681 0.491953
v -0.336444 -0.163990 0.491953
v -0.326615 -0.166822 0.491953
v -0.335736 -0.161406 0.491953
v -0.325907 -0.164238 0.491953
v -0.333806 -0.159548 0.491953
v -0.331172 -0.158912 0.491953
v -0.326462 -0.162174 0.491953
v -0.326611 -0.161620 0.491953
v -0.328538 -0.159671 0.491953
v -0.328130 -0.158984 0.508297
v -0.328130 -0.158984 0.508779
v -0.328130 -0.158984 0.496489
v -0.327524 -0.159596 0.508779
v -0.325905 -0.161235 0.496489
v -0.325905 -0.161235 0.498327
v -0.328233 -0.159159 0.494141
v -0.331171 -0.158312 0.494141
v -0.326084 -0.161333 0.494141
v -0.325762 -0.161766 0.508779
v -0.325592 -0.162399 0.496489
v -0.325837 -0.162253 0.494141
v -0.343599 -0.180456 0.490744
v -0.339577 -0.182844 0.490744
v -0.341899 -0.182175 0.490744
v -0.344219 -0.178148 0.490744
v -0.337253 -0.182284 0.490744
v -0.343595 -0.175869 0.490744
v -0.335551 -0.180645 0.490744
v -0.341893 -0.174230 0.490744
v -0.334927 -0.178366 0.490744
v -0.339569 -0.173670 0.490744
v -0.335547 -0.176058 0.490744
v -0.337247 -0.174339 0.490744
v -0.339567 -0.173569 0.514328
v -0.337196 -0.174253 0.514328
v -0.339569 -0.173570 0.514328
v -0.337195 -0.174252 0.514328
v -0.335460 -0.176008 0.514328
v -0.335459 -0.176010 0.514328
v -0.339568 -0.172455 0.511128
v -0.339568 -0.172250 0.508779
v -0.339568 -0.172250 0.496489
v -0.337336 -0.172893 0.505508
v -0.339577 -0.183458 0.491953
v -0.344138 -0.180750 0.491953
v -0.342211 -0.182700 0.491953
v -0.336942 -0.182823 0.491953
v -0.344842 -0.178133 0.491953
v -0.335012 -0.180965 0.491953
v -0.344134 -0.175549 0.491953
v -0.334304 -0.178381 0.491953
v -0.342204 -0.173690 0.491953
v -0.339569 -0.173055 0.491953
v -0.334859 -0.176316 0.491953
v -0.335008 -0.175763 0.491953
v -0.336935 -0.173814 0.491953
v -0.336527 -0.173127 0.508297
v -0.336527 -0.173127 0.508779
v -0.336527 -0.173127 0.496489
v -0.335921 -0.173739 0.508779
v -0.334302 -0.175377 0.496489
v -0.334302 -0.175377 0.498327
v -0.336631 -0.173301 0.494141
v -0.339568 -0.172455 0.494141
v -0.334482 -0.175475 0.494141
v -0.334159 -0.175909 0.508779
v -0.333989 -0.176542 0.496489
v -0.334234 -0.176396 0.494141
v -0.351375 -0.193554 0.490744
v -0.347353 -0.195942 0.490744
v -0.349676 -0.195272 0.490744
v -0.351996 -0.191245 0.490744
v -0.345030 -0.195382 0.490744
v -0.351372 -0.188966 0.490744
v -0.343328 -0.193743 0.490744
v -0.349670 -0.187327 0.490744
v -0.342703 -0.191464 0.490744
v -0.347346 -0.186767 0.490744
v -0.343324 -0.189155 0.490744
v -0.345023 -0.187436 0.490744
v -0.347344 -0.186667 0.514328
v -0.344973 -0.187351 0.514328
v -0.347346 -0.186667 0.514328
v -0.344972 -0.187350 0.514328
v -0.343237 -0.189105 0.514328
v -0.343236 -0.189107 0.514328
v -0.347345 -0.185553 0.511128
v -0.347345 -0.185348 0.508779
v -0.347345 -0.185348 0.496489
v -0.345113 -0.185991 0.505508
v -0.347354 -0.196556 0.491953
v -0.351915 -0.193848 0.491953
v -0.349988 -0.195797 0.491953
v -0.344719 -0.195921 0.491953
v -0.352618 -0.191231 0.491953
v -0.342789 -0.194062 0.491953
v -0.351911 -0.188646 0.491953
v -0.342081 -0.191478 0.491953
v -0.349981 -0.186788 0.491953
v -0.347346 -0.186153 0.491953
v -0.342636 -0.189414 0.491953
v -0.342785 -0.188861 0.491953
v -0.344712 -0.186912 0.491953
v -0.344304 -0.186224 0.508297
v -0.344304 -0.186224 0.508779
v -0.344304 -0.186224 0.496489
v -0.343698 -0.186837 0.508779
v -0.342079 -0.188475 0.496489
v -0.342079 -0.188475 0.498327
v -0.344408 -0.186399 0.494141
v -0.347345 -0.185553 0.494141
v -0.342258 -0.188573 0.494141
v -0.341936 -0.189007 0.508779
v -0.341766 -0.189639 0.496489
v -0.342011 -0.189494 0.494141
v -0.359347 -0.206980 0.490744
v -0.355325 -0.209368 0.490744
v -0.357648 -0.208699 0.490744
v -0.359968 -0.204671 0.490744
v -0.353002 -0.208808 0.490744
v -0.359344 -0.202392 0.490744
v -0.351300 -0.207169 0.490744
v -0.357642 -0.200753 0.490744
v -0.350675 -0.204890 0.490744
v -0.355318 -0.200193 0.490744
v -0.351296 -0.202581 0.490744
v -0.352995 -0.200862 0.490744
v -0.355316 -0.200093 0.514328
v -0.352945 -0.200777 0.514328
v -0.355318 -0.200093 0.514328
v -0.352944 -0.200776 0.514328
v -0.351209 -0.202531 0.514328
v -0.351208 -0.202533 0.514328
v -0.355317 -0.198979 0.511128
v -0.355317 -0.198774 0.508779
v -0.355317 -0.198774 0.496489
v -0.353085 -0.199417 0.505508
v -0.355326 -0.209982 0.491953
v -0.359887 -0.207274 0.491953
v -0.357960 -0.209223 0.491953
v -0.352691 -0.209347 0.491953
v -0.360590 -0.204657 0.491953
v -0.350761 -0.207488 0.491953
v -0.359882 -0.202073 0.491953
v -0.350053 -0.204904 0.491953
v -0.357952 -0.200214 0.491953
v -0.355317 -0.199579 0.491953
v -0.350608 -0.202840 0.491953
v -0.350757 -0.202287 0.491953
v -0.352684 -0.200338 0.491953
v -0.352276 -0.199650 0.508297
v -0.352276 -0.199650 0.508779
v -0.352276 -0.199650 0.496489
v -0.351670 -0.200263 0.508779
v -0.350051 -0.201901 0.496489
v -0.350051 -0.201901 0.498327
v -0.352379 -0.199825 0.494141
v -0.355317 -0.198979 0.494141
v -0.350230 -0.201999 0.494141
v -0.349908 -0.202433 0.508779
v -0.349737 -0.203065 0.496489
v -0.349983 -0.202920 0.494141
v -0.367166 -0.220147 0.490744
v -0.363144 -0.222535 0.490744
v -0.365466 -0.221866 0.490744
v -0.367786 -0.217839 0.490744
v -0.360820 -0.221975 0.490744
v -0.367162 -0.215560 0.490744
v -0.359118 -0.220336 0.490744
v -0.365460 -0.213921 0.490744
v -0.358494 -0.218057 0.490744
v -0.363136 -0.213361 0.490744
v -0.359114 -0.215749 0.490744
v -0.360813 -0.214030 0.490744
v -0.363134 -0.213260 0.514328
v -0.360763 -0.213944 0.514328
v -0.363136 -0.213261 0.514328
v -0.360762 -0.213943 0.514328
v -0.359027 -0.215699 0.514328
v -0.359026 -0.215701 0.514328
v -0.363135 -0.212146 0.511128
v -0.363135 -0.211942 0.508779
v -0.363135 -0.211942 0.496489
v -0.360903 -0.212584 0.505508
v -0.363144 -0.223149 0.491953
v -0.367705 -0.220442 0.491953
v -0.365778 -0.222391 0.491953
v -0.360509 -0.222514 0.491953
v -0.368409 -0.217824 0.491953
v -0.358579 -0.220656 0.491953
v -0.367701 -0.215240 0.491953
v -0.357871 -0.218072 0.491953
v -0.365771 -0.213381 0.491953
v -0.363136 -0.212746 0.491953
v -0.358426 -0.216007 0.491953
v -0.358575 -0.215454 0.491953
v -0.360502 -0.213505 0.491953
v -0.360094 -0.212818 0.508297
v -0.360094 -0.212818 0.508779
v -0.360094 -0.212818 0.496489
v -0.359488 -0.213430 0.508779
v -0.357869 -0.215068 0.496489
v -0.357869 -0.215068 0.498327
v -0.360198 -0.212992 0.494141
v -0.363135 -0.212146 0.494141
v -0.358048 -0.215167 0.494141
v -0.357726 -0.215600 0.508779
v -0.357556 -0.216233 0.496489
v -0.357801 -0.216087 0.494141
v -0.412744 -0.055153 0.517413
v -0.410327 -0.055654 0.517413
v -0.412746 -0.055154 0.517413
v -0.410327 -0.055653 0.517413
v -0.408462 -0.057270 0.517413
v -0.408461 -0.057272 0.517413
v -0.209637 -0.224312 0.490744
v -0.205746 -0.221717 0.490744
v -0.207353 -0.223523 0.490744
v -0.211987 -0.223875 0.490744
v -0.205247 -0.219380 0.490744
v -0.213773 -0.222327 0.490744
v -0.205990 -0.217136 0.490744
v -0.214515 -0.220084 0.490744
v -0.207775 -0.215589 0.490744
v -0.214016 -0.217746 0.490744
v -0.210125 -0.215151 0.490744
v -0.212409 -0.215941 0.490744
v -0.214106 -0.217701 0.514328
v -0.212465 -0.215858 0.514328
v -0.214107 -0.217703 0.514328
v -0.212465 -0.215857 0.514328
v -0.210132 -0.215051 0.514328
v -0.210130 -0.215051 0.514328
v -0.215111 -0.217221 0.511128
v -0.215296 -0.217132 0.508779
v -0.215296 -0.217132 0.496489
v -0.213752 -0.215397 0.505508
v -0.205192 -0.221983 0.491953
v -0.209605 -0.224926 0.491953
v -0.207014 -0.224031 0.491953
v -0.204626 -0.219332 0.491953
v -0.212269 -0.224430 0.491953
v -0.205468 -0.216789 0.491953
v -0.214294 -0.222675 0.491953
v -0.207493 -0.215034 0.491953
v -0.215136 -0.220131 0.491953
v -0.214570 -0.217480 0.491953
v -0.209595 -0.214642 0.491953
v -0.210158 -0.214537 0.491953
v -0.212748 -0.215433 0.491953
v -0.213192 -0.214768 0.508297
v -0.213192 -0.214768 0.508779
v -0.213192 -0.214768 0.496489
v -0.212378 -0.214487 0.508779
v -0.210200 -0.213734 0.496489
v -0.210200 -0.213734 0.498327
v -0.213079 -0.214937 0.494141
v -0.215111 -0.217221 0.494141
v -0.210190 -0.213938 0.494141
v -0.209659 -0.213835 0.508779
v -0.209015 -0.213955 0.496489
v -0.209252 -0.214113 0.494141
v -0.218134 -0.211572 0.490744
v -0.214243 -0.208977 0.490744
v -0.215850 -0.210783 0.490744
v -0.220484 -0.211135 0.490744
v -0.213744 -0.206640 0.490744
v -0.222269 -0.209587 0.490744
v -0.214486 -0.204396 0.490744
v -0.223012 -0.207344 0.490744
v -0.216272 -0.202849 0.490744
v -0.222513 -0.205006 0.490744
v -0.218622 -0.202411 0.490744
v -0.220906 -0.203201 0.490744
v -0.222603 -0.204961 0.514328
v -0.220961 -0.203118 0.514328
v -0.222603 -0.204963 0.514328
v -0.220962 -0.203117 0.514328
v -0.218629 -0.202311 0.514328
v -0.218627 -0.202311 0.514328
v -0.223608 -0.204481 0.511128
v -0.223792 -0.204392 0.508779
v -0.223792 -0.204392 0.496489
v -0.222248 -0.202657 0.505508
v -0.213689 -0.209243 0.491953
v -0.218101 -0.212186 0.491953
v -0.215511 -0.211290 0.491953
v -0.213123 -0.206592 0.491953
v -0.220766 -0.211690 0.491953
v -0.213965 -0.204049 0.491953
v -0.222791 -0.209935 0.491953
v -0.215990 -0.202294 0.491953
v -0.223633 -0.207391 0.491953
v -0.223067 -0.204740 0.491953
v -0.218091 -0.201902 0.491953
v -0.218654 -0.201797 0.491953
v -0.221245 -0.202693 0.491953
v -0.221688 -0.202028 0.508297
v -0.221688 -0.202028 0.508779
v -0.221688 -0.202028 0.496489
v -0.220874 -0.201747 0.508779
v -0.218697 -0.200994 0.496489
v -0.218697 -0.200994 0.498327
v -0.221575 -0.202197 0.494141
v -0.223608 -0.204481 0.494141
v -0.218686 -0.201198 0.494141
v -0.218156 -0.201095 0.508779
v -0.217512 -0.201215 0.496489
v -0.217749 -0.201373 0.494141
v -0.235249 -0.185909 0.490744
v -0.231358 -0.183314 0.490744
v -0.232965 -0.185119 0.490744
v -0.237599 -0.185472 0.490744
v -0.230859 -0.180976 0.490744
v -0.239384 -0.183924 0.490744
v -0.231601 -0.178733 0.490744
v -0.240127 -0.181681 0.490744
v -0.233387 -0.177185 0.490744
v -0.239628 -0.179343 0.490744
v -0.235737 -0.176748 0.490744
v -0.238021 -0.177538 0.490744
v -0.239718 -0.179298 0.514328
v -0.238076 -0.177455 0.514328
v -0.239719 -0.179300 0.514328
v -0.238077 -0.177454 0.514328
v -0.235744 -0.176647 0.514328
v -0.235742 -0.176648 0.514328
v -0.240723 -0.178817 0.511128
v -0.240908 -0.178729 0.508779
v -0.240908 -0.178729 0.496489
v -0.239363 -0.176994 0.505508
v -0.230804 -0.183580 0.491953
v -0.235217 -0.186523 0.491953
v -0.232626 -0.185627 0.491953
v -0.230238 -0.180929 0.491953
v -0.237881 -0.186027 0.491953
v -0.231080 -0.178386 0.491953
v -0.239906 -0.184271 0.491953
v -0.233105 -0.176630 0.491953
v -0.240748 -0.181728 0.491953
v -0.240182 -0.179077 0.491953
v -0.235206 -0.176239 0.491953
v -0.235769 -0.176134 0.491953
v -0.238360 -0.177030 0.491953
v -0.238803 -0.176365 0.508297
v -0.238803 -0.176365 0.508779
v -0.238803 -0.176365 0.496489
v -0.237989 -0.176083 0.508779
v -0.235812 -0.175331 0.496489
v -0.235812 -0.175331 0.498327
v -0.238691 -0.176534 0.494141
v -0.240723 -0.178817 0.494141
v -0.235801 -0.175535 0.494141
v -0.235271 -0.175431 0.508779
v -0.234627 -0.175551 0.496489
v -0.234864 -0.175710 0.494141
v -0.004188 -0.136878 0.476976
v -0.001165 -0.140571 0.476976
v -0.003158 -0.139119 0.476976
v -0.003978 -0.134448 0.476976
v 0.001259 -0.140845 0.476976
v -0.002584 -0.132480 0.476976
v 0.003463 -0.139868 0.476976
v -0.000379 -0.131503 0.476976
v 0.004857 -0.137900 0.476976
v 0.002044 -0.131777 0.476976
v 0.005067 -0.135470 0.476976
v 0.004038 -0.133229 0.476976
v 0.002081 -0.131681 0.502005
v 0.004116 -0.133165 0.502005
v 0.002079 -0.131681 0.502005
v 0.004117 -0.133164 0.502005
v 0.005168 -0.135453 0.502005
v 0.005168 -0.135455 0.502005
v 0.002469 -0.130613 0.498608
v 0.002540 -0.130416 0.496116
v 0.002540 -0.130416 0.483074
v 0.004456 -0.131812 0.492645
v -0.001380 -0.141160 0.478260
v -0.004808 -0.136972 0.478260
v -0.003640 -0.139513 0.478260
v 0.001368 -0.141471 0.478260
v -0.004569 -0.134217 0.478260
v 0.003868 -0.140362 0.478260
v -0.002988 -0.131986 0.478260
v 0.005448 -0.138131 0.478260
v -0.000489 -0.130877 0.478260
v 0.002259 -0.131188 0.478260
v 0.005637 -0.135958 0.478260
v 0.005687 -0.135376 0.478260
v 0.004520 -0.132834 0.478260
v 0.005151 -0.132318 0.495604
v 0.005151 -0.132318 0.496116
v 0.005151 -0.132318 0.483074
v 0.005518 -0.133117 0.496116
v 0.006499 -0.135253 0.483074
v 0.006499 -0.135253 0.485024
v 0.002469 -0.130613 0.480582
v 0.004990 -0.132449 0.480582
v 0.006292 -0.135284 0.480582
v 0.006450 -0.135812 0.496116
v 0.006393 -0.136478 0.483074
v 0.006208 -0.136253 0.480582
v -0.027219 -0.128201 0.477929
v -0.024196 -0.131894 0.477929
v -0.026190 -0.130442 0.477929
v -0.027009 -0.125771 0.477929
v -0.021773 -0.132168 0.477929
v -0.025615 -0.123804 0.477929
v -0.019568 -0.131191 0.477929
v -0.023411 -0.122826 0.477929
v -0.018174 -0.129223 0.477929
v -0.020987 -0.123100 0.477929
v -0.017964 -0.126793 0.477929
v -0.018994 -0.124552 0.477929
v -0.020950 -0.123004 0.502957
v -0.018915 -0.124488 0.502957
v -0.020952 -0.123004 0.502957
v -0.018914 -0.124487 0.502957
v -0.017863 -0.126776 0.502957
v -0.017863 -0.126778 0.502957
v -0.020562 -0.121936 0.499561
v -0.020491 -0.121740 0.497069
v -0.020491 -0.121740 0.484026
v -0.018575 -0.123135 0.493598
v -0.024411 -0.132483 0.479212
v -0.027839 -0.128295 0.479212
v -0.026672 -0.130837 0.479212
v -0.021663 -0.132794 0.479212
v -0.027600 -0.125540 0.479212
v -0.019164 -0.131685 0.479212
v -0.026020 -0.123309 0.479212
v -0.017583 -0.129455 0.479212
v -0.023520 -0.122200 0.479212
v -0.020772 -0.122511 0.479212
v -0.017395 -0.127281 0.479212
v -0.017344 -0.126699 0.479212
v -0.018512 -0.124158 0.479212
v -0.017880 -0.123641 0.496557
v -0.017880 -0.123641 0.497069
v -0.017880 -0.123641 0.484026
v -0.017514 -0.124440 0.497069
v -0.016532 -0.126576 0.484026
v -0.016532 -0.126576 0.485977
v -0.020562 -0.121936 0.481535
v -0.018041 -0.123772 0.481535
v -0.016739 -0.126607 0.481535
v -0.016581 -0.127136 0.497069
v -0.016638 -0.127801 0.484026
v -0.016823 -0.127576 0.481535
f 1 2 3
f 2 1 4
f 2 4 5
f 5 4 6
f 5 6 7
f 7 6 8
f 7 8 9
f 9 8 10
f 9 10 11
f 11 10 12
f 13 14 15
f 14 13 16
f 14 17 18
f 17 14 16
f 19 20 21
f 21 22 19
f 23 24 25
f 24 23 26
f 24 26 27
f 27 26 28
f 27 28 29
f 29 28 30
f 29 30 31
f 31 30 32
f 32 30 33
f 32 33 34
f 32 34 35
f 22 36 37
f 36 22 38
f 38 22 21
f 39 40 41
f 40 39 38
f 38 39 36
f 21 42 38
f 42 21 43
f 42 34 44
f 34 42 35
f 43 35 42
f 35 43 32
f 38 44 40
f 44 38 42
f 45 40 46
f 40 45 41
f 40 47 46
f 47 40 44
f 44 33 47
f 33 44 34
f 48 49 50
f 49 48 51
f 49 52 53
f 52 49 51
f 54 55 56
f 55 54 57
f 55 57 58
f 58 57 59
f 58 59 60
f 60 59 61
f 60 61 62
f 62 61 63
f 62 63 64
f 64 63 65
f 66 67 68
f 67 66 69
f 67 70 71
f 70 67 69
f 72 73 74
f 74 75 72
f 76 77 78
f 77 76 79
f 77 79 80
f 80 79 81
f 80 81 82
f 82 81 83
f 82 83 84
f 84 83 85
f 85 83 86
f 85 86 87
f 85 87 88
f 75 89 90
f 89 75 91
f 91 75 74
f 92 93 94
f 93 92 91
f 91 92 89
f 74 95 91
f 95 74 96
f 95 87 97
f 87 95 88
f 96 88 95
f 88 96 85
f 91 97 93
f 97 91 95
f 98 93 99
f 93 98 94
f 93 100 99
f 100 93 97
f 97 86 100
f 86 97 87
f 101 102 103
f 102 101 104
f 102 104 105
f 105 104 106
f 105 106 107
f 107 106 108
f 107 108 109
f 109 108 110
f 109 110 111
f 111 110 112
f 113 114 115
f 114 113 116
f 114 117 118
f 117 114 116
f 119 120 121
f 121 122 119
f 123 124 125
f 124 123 126
f 124 126 127
f 127 126 128
f 127 128 129
f 129 128 130
f 129 130 131
f 131 130 132
f 132 130 133
f 132 133 134
f 132 134 135
f 122 136 137
f 136 122 138
f 138 122 121
f 139 140 141
f 140 139 138
f 138 139 136
f 121 142 138
f 142 121 143
f 142 134 144
f 134 142 135
f 143 135 142
f 135 143 132
f 138 144 140
f 144 138 142
f 145 140 146
f 140 145 141
f 140 147 146
f 147 140 144
f 144 133 147
f 133 144 134
f 148 149 150
f 149 148 151
f 149 151 152
f 152 151 153
f 152 153 154
f 154 153 155
f 154 155 156
f 156 155 157
f 156 157 158
f 158 157 159
f 160 161 162
f 161 160 163
f 161 164 165
f 164 161 163
f 166 167 168
f 168 169 166
f 170 171 172
f 171 170 173
f 171 173 174
f 174 173 175
f 174 175 176
f 176 175 177
f 176 177 178
f 178 177 179
f 179 177 180
f 179 180 181
f 179 181 182
f 169 183 184
f 183 169 185
f 185 169 168
f 186 187 188
f 187 186 185
f 185 186 183
f 168 189 185
f 189 168 190
f 189 181 191
f 181 189 182
f 190 182 189
f 182 190 179
f 185 191 187
f 191 185 189
f 192 187 193
f 187 192 188
f 187 194 193
f 194 187 191
f 191 180 194
f 180 191 181
f 195 196 197
f 196 195 198
f 196 198 199
f 199 198 200
f 199 200 201
f 201 200 202
f 201 202 203
f 203 202 204
f 203 204 205
f 205 204 206
f 207 208 209
f 208 207 210
f 208 211 212
f 211 208 210
f 213 214 215
f 215 216 213
f 217 218 219
f 218 217 220
f 218 220 221
f 221 220 222
f 221 222 223
f 223 222 224
f 223 224 225
f 225 224 226
f 226 224 227
f 226 227 228
f 226 228 229
f 216 230 231
f 230 216 232
f 232 216 215
f 233 234 235
f 234 233 232
f 232 233 230
f 215 236 232
f 236 215 237
f 236 228 238
f 228 236 229
f 237 229 236
f 229 237 226
f 232 238 234
f 238 232 236
f 239 234 240
f 234 239 235
f 234 241 240
f 241 234 238
f 238 227 241
f 227 238 228
f 242 243 244
f 243 242 245
f 243 245 246
f 246 245 247
f 246 247 248
f 248 247 249
f 248 249 250
f 250 249 251
f 250 251 252
f 252 251 253
f 254 255 256
f 255 254 257
f 255 258 259
f 258 255 257
f 260 261 262
f 262 263 260
f 264 265 266
f 265 264 267
f 265 267 268
f 268 267 269
f 268 269 270
f 270 269 271
f 270 271 272
f 272 271 273
f 273 271 274
f 273 274 275
f 273 275 276
f 263 277 278
f 277 263 279
f 279 263 262
f 280 281 282
f 281 280 279
f 279 280 277
f 262 283 279
f 283 262 284
f 283 275 285
f 275 283 276
f 284 276 283
f 276 284 273
f 279 285 281
f 285 279 283
f 286 281 287
f 281 286 282
f 281 288 287
f 288 281 285
f 285 274 288
f 274 285 275
f 289 290 291
f 290 289 292
f 290 292 293
f 293 292 294
f 293 294 295
f 295 294 296
f 295 296 297
f 297 296 298
f 297 298 299
f 299 298 300
f 301 302 303
f 302 301 304
f 302 305 306
f 305 302 304
f 307 308 309
f 309 310 307
f 311 312 313
f 312 311 314
f 312 314 315
f 315 314 316
f 315 316 317
f 317 316 318
f 317 318 319
f 319 318 320
f 320 318 321
f 320 321 322
f 320 322 323
f 310 324 325
f 324 310 326
f 326 310 309
f 327 328 329
f 328 327 326
f 326 327 324
f 309 330 326
f 330 309 331
f 330 322 332
f 322 330 323
f 331 323 330
f 323 331 320
f 326 332 328
f 332 326 330
f 333 328 334
f 328 333 329
f 328 335 334
f 335 328 332
f 332 321 335
f 321 332 322
f 336 337 338
f 337 336 339
f 337 339 340
f 340 339 341
f 340 341 342
f 342 341 343
f 342 343 344
f 344 343 345
f 344 345 346
f 346 345 347
f 348 349 350
f 349 348 351
f 349 352 353
f 352 349 351
f 354 355 356
f 356 357 354
f 358 359 360
f 359 358 361
f 359 361 362
f 362 361 363
f 362 363 364
f 364 363 365
f 364 365 366
f 366 365 367
f 367 365 368
f 367 368 369
f 367 369 370
f 357 371 372
f 371 357 373
f 373 357 356
f 374 375 376
f 375 374 373
f 373 374 371
f 356 377 373
f 377 356 378
f 377 369 379
f 369 377 370
f 378 370 377
f 370 378 367
f 373 379 375
f 379 373 377
f 380 375 381
f 375 380 376
f 375 382 381
f 382 375 379
f 379 368 382
f 368 379 369
f 383 384 385
f 384 383 386
f 384 387 388
f 387 384 386
f 389 390 391
f 390 389 392
f 390 392 393
f 393 392 394
f 393 394 395
f 395 394 396
f 395 396 397
f 397 396 398
f 397 398 399
f 399 398 400
f 401 402 403
f 402 401 404
f 402 405 406
f 405 402 404
f 407 408 409
f 409 410 407
f 411 412 413
f 412 411 414
f 412 414 415
f 415 414 416
f 415 416 417
f 417 416 418
f 417 418 419
f 419 418 420
f 420 418 421
f 420 421 422
f 420 422 423
f 410 424 425
f 424 410 426
f 426 410 409
f 427 428 429
f 428 427 426
f 426 427 424
f 409 430 426
f 430 409 431
f 430 422 432
f 422 430 423
f 431 423 430
f 423 431 420
f 426 432 428
f 432 426 430
f 433 428 434
f 428 433 429
f 428 435 434
f 435 428 432
f 432 421 435
f 421 432 422
f 436 437 438
f 437 436 439
f 437 440 441
f 440 437 439
f 442 443 444
f 443 442 445
f 443 446 447
f 446 443 445
f 448 449 450
f 449 448 451
f 449 451 452
f 452 451 453
f 452 453 454
f 454 453 455
f 454 455 456
f 456 455 457
f 456 457 458
f 458 457 459
f 460 461 462
f 461 460 463
f 461 464 465
f 464 461 463
f 466 467 468
f 468 469 466
f 470 471 472
f 471 470 473
f 471 473 474
f 474 473 475
f 474 475 476
f 476 475 477
f 476 477 478
f 478 477 479
f 479 477 480
f 479 480 481
f 479 481 482
f 469 483 484
f 483 469 485
f 485 469 468
f 486 487 488
f 487 486 485
f 485 486 483
f 468 489 485
f 489 468 490
f 489 481 491
f 481 489 482
f 490 482 489
f 482 490 479
f 485 491 487
f 491 485 489
f 492 487 493
f 487 492 488
f 487 494 493
f 494 487 491
f 491 480 494
f 480 491 481
f 495 496 497
f 496 495 498
f 496 499 500
f 499 496 498
f 501 502 503
f 502 501 504
f 502 505 506
f 505 502 504
f 507 508 509
f 508 507 510
f 508 511 512
f 511 508 510
f 513 514 515
f 514 513 516
f 514 516 517
f 517 516 518
f 517 518 519
f 519 518 520
f 519 520 521
f 521 520 522
f 521 522 523
f 523 522 524
f 525 526 527
f 526 525 528
f 526 529 530
f 529 526 528
f 531 532 533
f 533 534 531
f 535 536 537
f 536 535 538
f 536 538 539
f 539 538 540
f 539 540 541
f 541 540 542
f 541 542 543
f 543 542 544
f 544 542 545
f 544 545 546
f 544 546 547
f 534 548 549
f 548 534 550
f 550 534 533
f 551 552 553
f 552 551 550
f 550 551 548
f 533 554 550
f 554 533 555
f 554 546 556
f 546 554 547
f 555 547 554
f 547 555 544
f 550 556 552
f 556 550 554
f 557 552 558
f 552 557 553
f 552 559 558
f 559 552 556
f 556 545 559
f 545 556 546
f 560 561 562
f 561 560 563
f 561 563 564
f 564 563 565
f 564 565 566
f 566 565 567
f 566 567 568
f 568 567 569
f 568 569 570
f 570 569 571
f 572 573 574
f 573 572 575
f 573 576 577
f 576 573 575
f 578 579 580
f 580 581 578
f 582 583 584
f 583 582 585
f 583 585 586
f 586 585 587
f 586 587 588
f 588 587 589
f 588 589 590
f 590 589 591
f 591 589 592
f 591 592 593
f 591 593 594
f 581 595 596
f 595 581 597
f 597 581 580
f 598 599 600
f 599 598 597
f 597 598 595
f 580 601 597
f 601 580 602
f 601 593 603
f 593 601 594
f 602 594 601
f 594 602 591
f 597 603 599
f 603 597 601
f 604 599 605
f 599 604 600
f 599 606 605
f 606 599 603
f 603 592 606
f 592 603 593
f 607 608 609
f 608 607 610
f 608 610 611
f 611 610 612
f 611 612 613
f 613 612 614
f 613 614 615
f 615 614 616
f 615 616 617
f 617 616 618
f 619 620 621
f 620 619 622
f 620 623 624
f 623 620 622
f 625 626 627
f 627 628 625
f 629 630 631
f 630 629 632
f 630 632 633
f 633 632 634
f 633 634 635
f 635 634 636
f 635 636 637
f 637 636 638
f 638 636 639
f 638 639 640
f 638 640 641
f 628 642 643
f 642 628 644
f 644 628 627
f 645 646 647
f 646 645 644
f 644 645 642
f 627 648 644
f 648 627 649
f 648 640 650
f 640 648 641
f 649 641 648
f 641 649 638
f 644 650 646
f 650 644 648
f 651 646 652
f 646 651 647
f 646 653 652
f 653 646 650
f 650 639 653
f 639 650 640
f 654 655 656
f 655 654 657
f 655 657 658
f 658 657 659
f 658 659 660
f 660 659 661
f 660 661 662
f 662 661 663
f 662 663 664
f 664 663 665
f 666 667 668
f 667 666 669
f 667 670 671
f 670 667 669
f 672 673 674
f 674 675 672
f 676 677 678
f 677 676 679
f 677 679 680
f 680 679 681
f 680 681 682
f 682 681 683
f 682 683 684
f 684 683 685
f 685 683 686
f 685 686 687
f 685 687 688
f 675 689 690
f 689 675 691
f 691 675 674
f 692 693 694
f 693 692 691
f 691 692 689
f 674 695 691
f 695 674 696
f 695 687 697
f 687 695 688
f 696 688 695
f 688 696 685
f 691 697 693
f 697 691 695
f 698 693 699
f 693 698 694
f 693 700 699
f 700 693 697
f 697 686 700
f 686 697 687
f 701 702 703
f 702 701 704
f 702 704 705
f 705 704 706
f 705 706 707
f 707 706 708
f 707 708 709
f 709 708 710
f 709 710 711
f 711 710 712
f 713 714 715
f 714 713 716
f 714 717 718
f 717 714 716
f 719 720 721
f 721 722 719
f 723 724 725
f 724 723 726
f 724 726 727
f 727 726 728
f 727 728 729
f 729 728 730
f 729 730 731
f 731 730 732
f 732 730 733
f 732 733 734
f 732 734 735
f 722 736 737
f 736 722 738
f 738 722 721
f 739 740 741
f 740 739 738
f 738 739 736
f 721 742 738
f 742 721 743
f 742 734 744
f 734 742 735
f 743 735 742
f 735 743 732
f 738 744 740
f 744 738 742
f 745 740 746
f 740 745 741
f 740 747 746
f 747 740 744
f 744 733 747
f 733 744 734
f 748 749 750
f 749 748 751
f 749 751 752
f 752 751 753
f 752 753 754
f 754 753 755
f 754 755 756
f 756 755 757
f 756 757 758
f 758 757 759
f 760 761 762
f 761 760 763
f 761 764 765
f 764 761 763
f 766 767 768
f 768 769 766
f 770 771 772
f 771 770 773
f 771 773 774
f 774 773 775
f 774 775 776
f 776 775 777
f 776 777 778
f 778 777 779
f 779 777 780
f 779 780 781
f 779 781 782
f 769 783 784
f 783 769 785
f 785 769 768
f 786 787 788
f 787 786 785
f 785 786 783
f 768 789 785
f 789 768 790
f 789 781 791
f 781 789 782
f 790 782 789
f 782 790 779
f 785 791 787
f 791 785 789
f 792 787 793
f 787 792 788
f 787 794 793
f 794 787 791
f 791 780 794
f 780 791 781
f 795 796 797
f 796 795 798
f 796 799 800
f 799 796 798
f 801 802 803
f 802 801 804
f 802 804 805
f 805 804 806
f 805 806 807
f 807 806 808
f 807 808 809
f 809 808 810
f 809 810 811
f 811 810 812
f 813 814 815
f 814 813 816
f 814 817 818
f 817 814 816
f 819 820 821
f 821 822 819
f 823 824 825
f 824 823 826
f 824 826 827
f 827 826 828
f 827 828 829
f 829 828 830
f 829 830 831
f 831 830 832
f 832 830 833
f 832 833 834
f 832 834 835
f 822 836 837
f 836 822 838
f 838 822 821
f 839 840 841
f 840 839 838
f 838 839 836
f 821 842 838
f 842 821 843
f 842 834 844
f 834 842 835
f 843 835 842
f 835 843 832
f 838 844 840
f 844 838 842
f 845 840 846
f 840 845 841
f 840 847 846
f 847 840 844
f 844 833 847
f 833 844 834
f 848 849 850
f 849 848 851
f 849 851 852
f 852 851 853
f 852 853 854
f 854 853 855
f 854 855 856
f 856 855 857
f 856 857 858
f 858 857 859
f 860 861 862
f 861 860 863
f 861 864 865
f 864 861 863
f 866 867 868
f 868 869 866
f 870 871 872
f 871 870 873
f 871 873 874
f 874 873 875
f 874 875 876
f 876 875 877
f 876 877 878
f 878 877 879
f 879 877 880
f 879 880 881
f 879 881 882
f 869 883 884
f 883 869 885
f 885 869 868
f 886 887 888
f 887 886 885
f 885 886 883
f 868 889 885
f 889 868 890
f 889 881 891
f 881 889 882
f 890 882 889
f 882 890 879
f 885 891 887
f 891 885 889
f 892 887 893
f 887 892 888
f 887 894 893
f 894 887 891
f 891 880 894
f 880 891 881
f 895 896 897
f 896 895 898
f 896 898 899
f 899 898 900
f 899 900 901
f 901 900 902
f 901 902 903
f 903 902 904
f 903 904 905
f 905 904 906
f 907 908 909
f 908 907 910
f 908 911 912
f 911 908 910
f 913 914 915
f 915 916 913
f 917 918 919
f 918 917 920
f 918 920 921
f 921 920 922
f 921 922 923
f 923 922 924
f 923 924 925
f 925 924 926
f 926 924 927
f 926 927 928
f 926 928 929
f 916 930 931
f 930 916 932
f 932 916 915
f 933 934 935
f 934 933 932
f 932 933 930
f 915 936 932
f 936 915 937
f 936 928 938
f 928 936 929
f 937 929 936
f 929 937 926
f 932 938 934
f 938 932 936
f 939 934 940
f 934 939 935
f 934 941 940
f 941 934 938
f 938 927 941
f 927 938 928
f 942 943 944
f 943 942 945
f 943 945 946
f 946 945 947
f 946 947 948
f 948 947 949
f 948 949 950
f 950 949 951
f 950 951 952
f 952 951 953
f 954 955 956
f 955 954 957
f 955 958 959
f 958 955 957
f 960 961 962
f 962 963 960
f 964 965 966
f 965 964 967
f 965 967 968
f 968 967 969
f 968 969 970
f 970 969 971
f 970 971 972
f 972 971 973
f 973 971 974
f 973 974 975
f 973 975 976
f 963 977 978
f 977 963 979
f 979 963 962
f 980 981 982
f 981 980 979
f 979 980 977
f 962 983 979
f 983 962 984
f 983 975 985
f 975 983 976
f 984 976 983
f 976 984 973
f 979 985 981
f 985 979 983
f 986 981 987
f 981 986 982
f 981 988 987
f 988 981 985
f 985 974 988
f 974 985 975
f 989 990 991
f 990 989 992
f 990 992 993
f 993 992 994
f 993 994 995
f 995 994 996
f 995 996 997
f 997 996 998
f 997 998 999
f 999 998 1000
f 1001 1002 1003
f 1002 1001 1004
f 1002 1005 1006
f 1005 1002 1004
f 1007 1008 1009
f 1009 1010 1007
f 1011 1012 1013
f 1012 1011 1014
f 1012 1014 1015
f 1015 1014 1016
f 1015 1016 1017
f 1017 1016 1018
f 1017 1018 1019
f 1019 1018 1020
f 1020 1018 1021
f 1020 1021 1022
f 1020 1022 1023
f 1010 1024 1025
f 1024 1010 1026
f 1026 1010 1009
f 1027 1028 1029
f 1028 1027 1026
f 1026 1027 1024
f 1009 1030 1026
f 1030 1009 1031
f 1030 1022 1032
f 1022 1030 1023
f 1031 1023 1030
f 1023 1031 1020
f 1026 1032 1028
f 1032 1026 1030
f 1033 1028 1034
f 1028 1033 1029
f 1028 1035 1034
f 1035 1028 1032
f 1032 1021 1035
f 1021 1032 1022
f 1036 1037 1038
f 1037 1036 1039
f 1037 1040 1041
f 1040 1037 1039
f 1042 1043 1044
f 1043 1042 1045
f 1043 1045 1046
f 1046 1045 1047
f 1046 1047 1048
f 1048 1047 1049
f 1048 1049 1050
f 1050 1049 1051
f 1050 1051 1052
f 1052 1051 1053
f 1054 1055 1056
f 1055 1054 1057
f 1055 1058 1059
f 1058 1055 1057
f 1060 1061 1062
f 1062 1063 1060
f 1064 1065 1066
f 1065 1064 1067
f 1065 1067 1068
f 1068 1067 1069
f 1068 1069 1070
f 1070 1069 1071
f 1070 1071 1072
f 1072 1071 1073
f 1073 1071 1074
f 1073 1074 1075
f 1073 1075 1076
f 1063 1077 1078
f 1077 1063 1079
f 1079 1063 1062
f 1080 1081 1082
f 1081 1080 1079
f 1079 1080 1077
f 1062 1083 1079
f 1083 1062 1084
f 1083 1075 1085
f 1075 1083 1076
f 1084 1076 1083
f 1076 1084 1073
f 1079 1085 1081
f 1085 1079 1083
f 1086 1081 1087
f 1081 1086 1082
f 1081 1088 1087
f 1088 1081 1085
f 1085 1074 1088
f 1074 1085 1075
f 1089 1090 1091
f 1090 1089 1092
f 1090 1092 1093
f 1093 1092 1094
f 1093 1094 1095
f 1095 1094 1096
f 1095 1096 1097
f 1097 1096 1098
f 1097 1098 1099
f 1099 1098 1100
f 1101 1102 1103
f 1102 1101 1104
f 1102 1105 1106
f 1105 1102 1104
f 1107 1108 1109
f 1109 1110 1107
f 1111 1112 1113
f 1112 1111 1114
f 1112 1114 1115
f 1115 1114 1116
f 1115 1116 1117
f 1117 1116 1118
f 1117 1118 1119
f 1119 1118 1120
f 1120 1118 1121
f 1120 1121 1122
f 1120 1122 1123
f 1110 1124 1125
f 1124 1110 1126
f 1126 1110 1109
f 1127 1128 1129
f 1128 1127 1126
f 1126 1127 1124
f 1109 1130 1126
f 1130 1109 1131
f 1130 1122 1132
f 1122 1130 1123
f 1131 1123 1130
f 1123 1131 1120
f 1126 1132 1128
f 1132 1126 1130
f 1133 1128 1134
f 1128 1133 1129
f 1128 1135 1134
f 1135 1128 1132
f 1132 1121 1135
f 1121 1132 1122
f 1136 1137 1138
f 1137 1136 1139
f 1137 1139 1140
f 1140 1139 1141
f 1140 1141 1142
f 1142 1141 1143
f 1142 1143 1144
f 1144 1143 1145
f 1144 1145 1146
f 1146 1145 1147
f 1148 1149 1150
f 1149 1148 1151
f 1149 1152 1153
f 1152 1149 1151
f 1154 1155 1156
f 1156 1157 1154
f 1158 1159 1160
f 1159 1158 1161
f 1159 1161 1162
f 1162 1161 1163
f 1162 1163 1164
f 1164 1163 1165
f 1164 1165 1166
f 1166 1165 1167
f 1167 1165 1168
f 1167 1168 1169
f 1167 1169 1170
f 1157 1171 1172
f 1171 1157 1173
f 1173 1157 1156
f 1174 1175 1176
f 1175 1174 1173
f 1173 1174 1171
f 1156 1177 1173
f 1177 1156 1178
f 1177 1169 1179
f 1169 1177 1170
f 1178 1170 1177
f 1170 1178 1167
f 1173 1179 1175
f 1179 1173 1177
f 1180 1175 1181
f 1175 1180 1176
f 1175 1182 1181
f 1182 1175 1179
f 1179 1168 1182
f 1168 1179 1169
f 1183 1184 1185
f 1184 1183 1186
f 1184 1186 1187
f 1187 1186 1188
f 1187 1188 1189
f 1189 1188 1190
f 1189 1190 1191
f 1191 1190 1192
f 1191 1192 1193
f 1193 1192 1194
f 1195 1196 1197
f 1196 1195 1198
f 1196 1199 1200
f 1199 1196 1198
f 1201 1202 1203
f 1203 1204 1201
f 1205 1206 1207
f 1206 1205 1208
f 1206 1208 1209
f 1209 1208 1210
f 1209 1210 1211
f 1211 1210 1212
f 1211 1212 1213
f 1213 1212 1214
f 1214 1212 1215
f 1214 1215 1216
f 1214 1216 1217
f 1204 1218 1219
f 1218 1204 1220
f 1220 1204 1203
f 1221 1222 1223
f 1222 1221 1220
f 1220 1221 1218
f 1203 1224 1220
f 1224 1203 1225
f 1224 1216 1226
f 1216 1224 1217
f 1225 1217 1224
f 1217 1225 1214
f 1220 1226 1222
f 1226 1220 1224
f 1227 1222 1228
f 1222 1227 1223
f 1222 1229 1228
f 1229 1222 1226
f 1226 1215 1229
f 1215 1226 1216
f 1230 1231 1232
f 1231 1230 1233
f 1231 1233 1234
f 1234 1233 1235
f 1234 1235 1236
f 1236 1235 1237
f 1236 1237 1238
f 1238 1237 1239
f 1238 1239 1240
f 1240 1239 1241
f 1242 1243 1244
f 1243 1242 1245
f 1243 1246 1247
f 1246 1243 1245
f 1248 1249 1250
f 1250 1251 1248
f 1252 1253 1254
f 1253 1252 1255
f 1253 1255 1256
f 1256 1255 1257
f 1256 1257 1258
f 1258 1257 1259
f 1258 1259 1260
f 1260 1259 1261
f 1261 1259 1262
f 1261 1262 1263
f 1261 1263 1264
f 1251 1265 1266
f 1265 1251 1267
f 1267 1251 1250
f 1268 1269 1270
f 1269 1268 1267
f 1267 1268 1265
f 1250 1271 1267
f 1271 1250 1272
f 1271 1263 1273
f 1263 1271 1264
f 1272 1264 1271
f 1264 1272 1261
f 1267 1273 1269
f 1273 1267 1271
f 1274 1269 1275
f 1269 1274 1270
f 1269 1276 1275
f 1276 1269 1273
f 1273 1262 1276
f 1262 1273 1263
f 1277 1278 1279
f 1278 1277 1280
f 1278 1281 1282
f 1281 1278 1280
f 1283 1284 1285
f 1284 1283 1286
f 1284 1286 1287
f 1287 1286 1288
f 1287 1288 1289
f 1289 1288 1290
f 1289 1290 1291
f 1291 1290 1292
f 1291 1292 1293
f 1293 1292 1294
f 1295 1296 1297
f 1296 1295 1298
f 1296 1299 1300
f 1299 1296 1298
f 1301 1302 1303
f 1303 1304 1301
f 1305 1306 1307
f 1306 1305 1308
f 1306 1308 1309
f 1309 1308 1310
f 1309 1310 1311
f 1311 1310 1312
f 1311 1312 1313
f 1313 1312 1314
f 1314 1312 1315
f 1314 1315 1316
f 1314 1316 1317
f 1304 1318 1319
f 1318 1304 1320
f 1320 1304 1303
f 1321 1322 1323
f 1322 1321 1320
f 1320 1321 1318
f 1303 1324 1320
f 1324 1303 1325
f 1324 1316 1326
f 1316 1324 1317
f 1325 1317 1324
f 1317 1325 1314
f 1320 1326 1322
f 1326 1320 1324
f 1327 1322 1328
f 1322 1327 1323
f 1322 1329 1328
f 1329 1322 1326
f 1326 1315 1329
f 1315 1326 1316
f 1330 1331 1332
f 1331 1330 1333
f 1331 1333 1334
f 1334 1333 1335
f 1334 1335 1336
f 1336 1335 1337
f 1336 1337 1338
f 1338 1337 1339
f 1338 1339 1340
f 1340 1339 1341
f 1342 1343 1344
f 1343 1342 1345
f 1343 1346 1347
f 1346 1343 1345
f 1348 1349 1350
f 1350 1351 1348
f 1352 1353 1354
f 1353 1352 1355
f 1353 1355 1356
f 1356 1355 1357
f 1356 1357 1358
f 1358 1357 1359
f 1358 1359 1360
f 1360 1359 1361
f 1361 1359 1362
f 1361 1362 1363
f 1361 1363 1364
f 1351 1365 1366
f 1365 1351 1367
f 1367 1351 1350
f 1368 1369 1370
f 1369 1368 1367
f 1367 1368 1365
f 1350 1371 1367
f 1371 1350 1372
f 1371 1363 1373
f 1363 1371 1364
f 1372 1364 1371
f 1364 1372 1361
f 1367 1373 1369
f 1373 1367 1371
f 1374 1369 1375
f 1369 1374 1370
f 1369 1376 1375
f 1376 1369 1373
f 1373 1362 1376
f 1362 1373 1363
f 1377 1378 1379
f 1378 1377 1380
f 1378 1380 1381
f 1381 1380 1382
f 1381 1382 1383
f 1383 1382 1384
f 1383 1384 1385
f 1385 1384 1386
f 1385 1386 1387
f 1387 1386 1388
f 1389 1390 1391
f 1390 1389 1392
f 1390 1393 1394
f 1393 1390 1392
f 1395 1396 1397
f 1397 1398 1395
f 1399 1400 1401
f 1400 1399 1402
f 1400 1402 1403
f 1403 1402 1404
f 1403 1404 1405
f 1405 1404 1406
f 1405 1406 1407
f 1407 1406 1408
f 1408 1406 1409
f 1408 1409 1410
f 1408 1410 1411
f 1398 1412 1413
f 1412 1398 1414
f 1414 1398 1397
f 1415 1416 1417
f 1416 1415 1414
f 1414 1415 1412
f 1397 1418 1414
f 1418 1397 1419
f 1418 1410 1420
f 1410 1418 1411
f 1419 1411 1418
f 1411 1419 1408
f 1414 1420 1416
f 1420 1414 1418
f 1421 1416 1422
f 1416 1421 1417
f 1416 1423 1422
f 1423 1416 1420
f 1420 1409 1423
f 1409 1420 1410
f 1424 1425 1426
f 1425 1424 1427
f 1425 1427 1428
f 1428 1427 1429
f 1428 1429 1430
f 1430 1429 1431
f 1430 1431 1432
f 1432 1431 1433
f 1432 1433 1434
f 1434 1433 1435
f 1436 1437 1438
f 1437 1436 1439
f 1437 1440 1441
f 1440 1437 1439
f 1442 1443 1444
f 1444 1445 1442
f 1446 1447 1448
f 1447 1446 1449
f 1447 1449 1450
f 1450 1449 1451
f 1450 1451 1452
f 1452 1451 1453
f 1452 1453 1454
f 1454 1453 1455
f 1455 1453 1456
f 1455 1456 1457
f 1455 1457 1458
f 1445 1459 1460
f 1459 1445 1461
f 1461 1445 1444
f 1462 1463 1464
f 1463 1462 1461
f 1461 1462 1459
f 1461 1465 1466
f 1465 1461 1444
f 1466 1457 1467
f 1457 1466 1458
f 1465 1458 1466
f 1458 1465 1455
f 1461 1467 1463
f 1467 1461 1466
f 1468 1463 1469
f 1463 1468 1464
f 1463 1470 1469
f 1470 1463 1467
f 1467 1456 1470
f 1456 1467 1457
f 1471 1472 1473
f 1472 1471 1474
f 1472 1474 1475
f 1475 1474 1476
f 1475 1476 1477
f 1477 1476 1478
f 1477 1478 1479
f 1479 1478 1480
f 1479 1480 1481
f 1481 1480 1482
f 1483 1484 1485
f 1484 1483 1486
f 1484 1487 1488
f 1487 1484 1486
f 1489 1490 1491
f 1491 1492 1489
f 1493 1494 1495
f 1494 1493 1496
f 1494 1496 1497
f 1497 1496 1498
f 1497 1498 1499
f 1499 1498 1500
f 1499 1500 1501
f 1501 1500 1502
f 1502 1500 1503
f 1502 1503 1504
f 1502 1504 1505
f 1492 1506 1507
f 1506 1492 1508
f 1508 1492 1491
f 1509 1510 1511
f 1510 1509 1508
f 1508 1509 1506
f 1508 1512 1513
f 1512 1508 1491
f 1513 1504 1514
f 1504 1513 1505
f 1512 1505 1513
f 1505 1512 1502
f 1508 1514 1510
f 1514 1508 1513
f 1515 1510 1516
f 1510 1515 1511
f 1510 1517 1516
f 1517 1510 1514
f 1514 1503 1517
f 1503 1514 1504
