v 0.025844 -0.103734 0.605276
v 0.035358 -0.105092 0.605276
v 0.025844 -0.105092 0.605276
v 0.035358 -0.103734 0.605276
v 0.035358 -0.103734 0.744702
v 0.025844 -0.105092 0.744702
v 0.035358 -0.105092 0.744702
v 0.025844 -0.103734 0.744702
v 0.025844 -0.105092 0.639076
v 0.035358 -0.105163 0.744702
v 0.035358 -0.105163 0.639076
v 0.025802 -0.110785 0.744702
v 0.035315 -0.110855 0.639076
v 0.035315 -0.110855 0.744702
v 0.025802 -0.110785 0.639076
v 0.035358 -0.103734 0.744702
v 0.035358 -0.105092 0.605276
v 0.035358 -0.103734 0.605276
v 0.035358 -0.105092 0.605276
v 0.035358 -0.103734 0.744702
v 0.035358 -0.105092 0.744702
v 0.025844 -0.103734 0.605276
v 0.035358 -0.103734 0.744702
v 0.035358 -0.103734 0.605276
v 0.035358 -0.103734 0.744702
v 0.025844 -0.103734 0.605276
v 0.025844 -0.103734 0.744702
v 0.025844 -0.103734 0.605276
v 0.025844 -0.105092 0.605276
v 0.025844 -0.103734 0.605276
v 0.025844 -0.103734 0.744702
v 0.025844 -0.103734 0.744702
v 0.025844 -0.105092 0.744702
v 0.025844 -0.105092 0.744702
v 0.035358 -0.105092 0.605276
v 0.035358 -0.105092 0.744702
v 0.035358 -0.105092 0.605276
v 0.025844 -0.105092 0.744702
v 0.025844 -0.105092 0.605276
v 0.025844 -0.105092 0.605276
v 0.025844 -0.105092 0.744702
v 0.025844 -0.105092 0.639076
v 0.025844 -0.105092 0.639076
v 0.025844 -0.105092 0.639076
v 0.025844 -0.105092 0.744702
v 0.025802 -0.110785 0.639076
v 0.035358 -0.105163 0.639076
v 0.035315 -0.110855 0.639076
v 0.035358 -0.105163 0.639076
v 0.025802 -0.110785 0.639076
v 0.025844 -0.105092 0.639076
v 0.035358 -0.105163 0.744702
v 0.035315 -0.110855 0.639076
v 0.035358 -0.105163 0.639076
v 0.035315 -0.110855 0.639076
v 0.035358 -0.105163 0.744702
v 0.035315 -0.110855 0.744702
v 0.035358 -0.105163 0.744702
v 0.025802 -0.110785 0.744702
v 0.035315 -0.110855 0.744702
v 0.025802 -0.110785 0.744702
v 0.035358 -0.105163 0.744702
v 0.025802 -0.110785 0.744702
v 0.025844 -0.105092 0.639076
v 0.025802 -0.110785 0.639076
v 0.025844 -0.105092 0.639076
v 0.025802 -0.110785 0.744702
v 0.025844 -0.105092 0.744702
f 1 2 3
f 2 1 4
f 5 6 7
f 6 5 8
f 16 17 18
f 19 20 21
f 22 23 24
f 25 26 27
f 9 28 29
f 30 9 31
f 32 9 33
f 34 35 36
f 37 38 39
f 40 41 42
f 43 10 11
f 10 44 45
f 12 13 14
f 13 12 15
f 46 47 48
f 49 50 51
f 52 53 54
f 55 56 57
f 58 59 60
f 61 62 6
f 63 64 65
f 66 67 68
