v -0.197320 -0.128308 0.546557
v -0.197549 -0.128965 0.546557
v -0.197466 -0.128625 0.546557
v -0.197555 -0.129275 0.546557
v -0.197133 -0.128061 0.546557
v -0.197485 -0.129508 0.546557
v -0.196933 -0.127922 0.546557
v -0.197348 -0.129629 0.546557
v -0.196750 -0.127912 0.546557
v -0.197166 -0.129619 0.546557
v -0.196613 -0.128033 0.546557
v -0.196543 -0.128266 0.546557
v -0.196966 -0.129480 0.546557
v -0.196778 -0.129233 0.546557
v -0.196550 -0.128576 0.546557
v -0.196632 -0.128916 0.546557
v -0.197549 -0.128965 0.608629
v -0.197320 -0.128308 0.608629
v -0.197466 -0.128625 0.608629
v -0.197555 -0.129275 0.608629
v -0.197133 -0.128061 0.608629
v -0.197485 -0.129508 0.608629
v -0.196933 -0.127922 0.608629
v -0.197348 -0.129629 0.608629
v -0.196750 -0.127912 0.608629
v -0.197166 -0.129619 0.608629
v -0.196613 -0.128033 0.608629
v -0.196543 -0.128266 0.608629
v -0.196966 -0.129480 0.608629
v -0.196778 -0.129233 0.608629
v -0.196550 -0.128576 0.608629
v -0.196632 -0.128916 0.608629
v -0.196550 -0.128576 0.546557
v -0.196632 -0.128916 0.608629
v -0.196632 -0.128916 0.546557
v -0.196632 -0.128916 0.608629
v -0.196550 -0.128576 0.546557
v -0.196550 -0.128576 0.608629
v -0.196543 -0.128266 0.546557
v -0.196550 -0.128576 0.608629
v -0.196550 -0.128576 0.546557
v -0.196550 -0.128576 0.608629
v -0.196543 -0.128266 0.546557
v -0.196543 -0.128266 0.608629
v -0.196613 -0.128033 0.608629
v -0.196543 -0.128266 0.546557
v -0.196613 -0.128033 0.546557
v -0.196543 -0.128266 0.546557
v -0.196613 -0.128033 0.608629
v -0.196543 -0.128266 0.608629
v -0.196750 -0.127912 0.608629
v -0.196613 -0.128033 0.546557
v -0.196750 -0.127912 0.546557
v -0.196613 -0.128033 0.546557
v -0.196750 -0.127912 0.608629
v -0.196613 -0.128033 0.608629
v -0.196933 -0.127922 0.608629
v -0.196750 -0.127912 0.546557
v -0.196933 -0.127922 0.546557
v -0.196750 -0.127912 0.546557
v -0.196933 -0.127922 0.608629
v -0.196750 -0.127912 0.608629
v -0.197133 -0.128061 0.608629
v -0.196933 -0.127922 0.546557
v -0.197133 -0.128061 0.546557
v -0.196933 -0.127922 0.546557
v -0.197133 -0.128061 0.608629
v -0.196933 -0.127922 0.608629
v -0.197133 -0.128061 0.608629
v -0.197320 -0.128308 0.546557
v -0.197320 -0.128308 0.608629
v -0.197320 -0.128308 0.546557
v -0.197133 -0.128061 0.608629
v -0.197133 -0.128061 0.546557
v -0.197320 -0.128308 0.608629
v -0.197466 -0.128625 0.546557
v -0.197466 -0.128625 0.608629
v -0.197466 -0.128625 0.546557
v -0.197320 -0.128308 0.608629
v -0.197320 -0.128308 0.546557
v -0.197466 -0.128625 0.608629
v -0.197549 -0.128965 0.546557
v -0.197549 -0.128965 0.608629
v -0.197549 -0.128965 0.546557
v -0.197466 -0.128625 0.608629
v -0.197466 -0.128625 0.546557
v -0.197549 -0.128965 0.608629
v -0.197555 -0.129275 0.546557
v -0.197555 -0.129275 0.608629
v -0.197555 -0.129275 0.546557
v -0.197549 -0.128965 0.608629
v -0.197549 -0.128965 0.546557
v -0.197485 -0.129508 0.608629
v -0.197555 -0.129275 0.546557
v -0.197485 -0.129508 0.546557
v -0.197555 -0.129275 0.546557
v -0.197485 -0.129508 0.608629
v -0.197555 -0.129275 0.608629
v -0.197348 -0.129629 0.608629
v -0.197485 -0.129508 0.546557
v -0.197348 -0.129629 0.546557
v -0.197485 -0.129508 0.546557
v -0.197348 -0.129629 0.608629
v -0.197485 -0.129508 0.608629
v -0.197166 -0.129619 0.608629
v -0.197348 -0.129629 0.546557
v -0.197166 -0.129619 0.546557
v -0.197348 -0.129629 0.546557
v -0.197166 -0.129619 0.608629
v -0.197348 -0.129629 0.608629
v -0.196966 -0.129480 0.608629
v -0.197166 -0.129619 0.546557
v -0.196966 -0.129480 0.546557
v -0.197166 -0.129619 0.546557
v -0.196966 -0.129480 0.608629
v -0.197166 -0.129619 0.608629
v -0.196778 -0.129233 0.546557
v -0.196966 -0.129480 0.608629
v -0.196966 -0.129480 0.546557
v -0.196966 -0.129480 0.608629
v -0.196778 -0.129233 0.546557
v -0.196778 -0.129233 0.608629
v -0.196632 -0.128916 0.546557
v -0.196778 -0.129233 0.608629
v -0.196778 -0.129233 0.546557
v -0.196778 -0.129233 0.608629
v -0.196632 -0.128916 0.546557
v -0.196632 -0.128916 0.608629
f 1 2 3
f 2 1 4
f 4 1 5
f 4 5 6
f 6 5 7
f 6 7 8
f 8 7 9
f 8 9 10
f 10 9 11
f 10 11 12
f 10 12 13
f 13 12 14
f 14 12 15
f 14 15 16
f 17 18 19
f 18 17 20
f 18 20 21
f 21 20 22
f 21 22 23
f 23 22 24
f 23 24 25
f 25 24 26
f 25 26 27
f 27 26 28
f 28 26 29
f 28 29 30
f 28 30 31
f 31 30 32
f 33 34 35
f 36 37 38
f 39 40 41
f 42 43 44
f 45 46 47
f 48 49 50
f 51 52 53
f 54 55 56
f 57 58 59
f 60 61 62
f 63 64 65
f 66 67 68
f 69 70 71
f 72 73 74
f 75 76 77
f 78 79 80
f 81 82 83
f 84 85 86
f 87 88 89
f 90 91 92
f 93 94 95
f 96 97 98
f 99 100 101
f 102 103 104
f 105 106 107
f 108 109 110
f 111 112 113
f 114 115 116
f 117 118 119
f 120 121 122
f 123 124 125
f 126 127 128
