v -0.158083 0.156143 0.430769
v 0.308278 0.156143 0.000000
v -0.158083 0.156143 0.000000
v 0.308278 0.156143 0.430769
v 0.299980 0.156143 0.430769
v -0.158083 0.150294 0.430769
v -0.158083 -0.239669 0.000000
v -0.158083 -0.239669 0.430769
v -0.152461 0.150294 0.430769
v 0.299980 -0.229048 0.430769
v -0.152461 -0.229048 0.430769
v 0.299980 0.150294 0.430769
v 0.308278 -0.239669 0.430769
v 0.308278 -0.239669 0.000000
v 0.308278 -0.229048 0.430769
v -0.158083 0.156143 0.437006
v 0.054226 0.156143 0.519660
v 0.054226 0.156143 0.437006
v -0.158083 0.156143 0.467715
v -0.158083 0.156143 0.519660
v -0.158083 0.066778 0.467715
v -0.158083 -0.005641 0.437006
v -0.158083 -0.005641 0.467715
v -0.158083 0.150294 0.437006
v -0.158083 0.066778 0.519660
f 1 2 3
f 2 1 4
f 4 1 5
f 6 7 8
f 7 6 3
f 3 6 1
f 9 10 11
f 10 9 12
f 2 13 14
f 13 2 15
f 15 2 4
f 16 17 18
f 17 16 19
f 17 19 20
f 21 22 23
f 22 21 24
f 24 21 19
f 24 19 16
f 25 19 21
f 19 25 20
