v -0.325619 0.005975 0.520163
v -0.320391 0.006313 0.520163
v -0.322971 0.005624 0.520163
v -0.327931 0.007313 0.520163
v -0.318271 0.007937 0.520163
v -0.329554 0.009433 0.520163
v -0.316934 0.010249 0.520163
v -0.316583 0.012896 0.520163
v -0.330243 0.012013 0.520163
v -0.329892 0.014660 0.520163
v -0.317272 0.015476 0.520163
v -0.328555 0.016972 0.520163
v -0.318896 0.017597 0.520163
v -0.326435 0.018596 0.520163
v -0.321207 0.018934 0.520163
v -0.323855 0.019285 0.520163
v -0.387839 -0.070211 0.519853
v -0.383143 -0.072532 0.519853
v -0.385722 -0.071839 0.519853
v -0.389173 -0.067897 0.519853
v -0.380495 -0.072186 0.519853
v -0.389519 -0.065249 0.519853
v -0.378181 -0.070853 0.519853
v -0.376554 -0.068736 0.519853
v -0.388826 -0.062670 0.519853
v -0.387198 -0.060553 0.519853
v -0.375860 -0.066157 0.519853
v -0.384884 -0.059220 0.519853
v -0.376206 -0.063508 0.519853
v -0.382236 -0.058873 0.519853
v -0.377540 -0.061195 0.519853
v -0.379657 -0.059567 0.519853
v -0.407937 -0.188653 0.516276
v -0.403241 -0.190974 0.516276
v -0.405820 -0.190281 0.516276
v -0.409270 -0.186339 0.516276
v -0.400592 -0.190628 0.516276
v -0.409616 -0.183691 0.516276
v -0.398279 -0.189295 0.516276
v -0.396651 -0.187178 0.516276
v -0.408923 -0.181112 0.516276
v -0.407295 -0.178995 0.516276
v -0.395957 -0.184599 0.516276
v -0.404981 -0.177662 0.516276
v -0.396304 -0.181950 0.516276
v -0.402333 -0.177315 0.516276
v -0.397637 -0.179636 0.516276
v -0.399754 -0.178009 0.516276
v -0.194725 -0.128453 0.516768
v -0.192331 -0.123794 0.516768
v -0.193064 -0.126362 0.516768
v -0.197060 -0.129750 0.516768
v -0.192635 -0.121141 0.516768
v -0.199713 -0.130055 0.516768
v -0.193932 -0.118806 0.516768
v -0.196023 -0.117145 0.516768
v -0.202281 -0.129321 0.516768
v -0.204372 -0.127660 0.516768
v -0.198591 -0.116412 0.516768
v -0.205669 -0.125325 0.516768
v -0.201244 -0.116716 0.516768
v -0.205974 -0.122672 0.516768
v -0.203579 -0.118013 0.516768
v -0.205240 -0.120104 0.516768
v -0.180096 -0.135971 0.516768
v -0.177702 -0.131312 0.516768
v -0.178436 -0.133880 0.516768
v -0.182431 -0.137268 0.516768
v -0.178006 -0.128659 0.516768
v -0.185084 -0.137573 0.516768
v -0.179303 -0.126324 0.516768
v -0.181395 -0.124664 0.516768
v -0.187652 -0.136839 0.516768
v -0.189743 -0.135178 0.516768
v -0.183962 -0.123930 0.516768
v -0.191040 -0.132844 0.516768
v -0.186615 -0.124234 0.516768
v -0.191345 -0.130190 0.516768
v -0.188950 -0.125531 0.516768
v -0.190611 -0.127623 0.516768
v -0.166548 -0.142934 0.516768
v -0.164154 -0.138275 0.516768
v -0.164887 -0.140843 0.516768
v -0.168883 -0.144231 0.516768
v -0.164458 -0.135622 0.516768
v -0.171536 -0.144535 0.516768
v -0.165755 -0.133287 0.516768
v -0.167846 -0.131626 0.516768
v -0.174104 -0.143802 0.516768
v -0.176195 -0.142141 0.516768
v -0.170414 -0.130892 0.516768
v -0.177492 -0.139806 0.516768
v -0.173067 -0.131197 0.516768
v -0.177797 -0.137153 0.516768
v -0.175402 -0.132494 0.516768
v -0.177063 -0.134585 0.516768
v -0.152660 -0.150071 0.516768
v -0.150266 -0.145412 0.516768
v -0.151000 -0.147980 0.516768
v -0.154995 -0.151368 0.516768
v -0.150571 -0.142759 0.516768
v -0.157648 -0.151673 0.516768
v -0.151867 -0.140424 0.516768
v -0.153959 -0.138764 0.516768
v -0.160216 -0.150939 0.516768
v -0.162308 -0.149278 0.516768
v -0.156527 -0.138030 0.516768
v -0.163604 -0.146944 0.516768
v -0.159180 -0.138334 0.516768
v -0.163909 -0.144290 0.516768
v -0.161514 -0.139631 0.516768
v -0.163175 -0.141723 0.516768
v -0.139040 -0.157071 0.516768
v -0.136646 -0.152412 0.516768
v -0.137380 -0.154980 0.516768
v -0.141375 -0.158368 0.516768
v -0.136951 -0.149759 0.516768
v -0.144028 -0.158673 0.516768
v -0.138247 -0.147424 0.516768
v -0.140339 -0.145763 0.516768
v -0.146596 -0.157939 0.516768
v -0.148687 -0.156278 0.516768
v -0.142907 -0.145030 0.516768
v -0.149984 -0.153943 0.516768
v -0.145560 -0.145334 0.516768
v -0.150289 -0.151290 0.516768
v -0.147894 -0.146631 0.516768
v -0.149555 -0.148722 0.516768
v -0.243328 -0.174341 0.516768
v -0.238970 -0.171435 0.516768
v -0.240860 -0.173321 0.516768
v -0.245998 -0.174339 0.516768
v -0.237945 -0.168968 0.516768
v -0.248465 -0.173315 0.516768
v -0.237943 -0.166298 0.516768
v -0.238963 -0.163829 0.516768
v -0.250352 -0.171425 0.516768
v -0.251371 -0.168956 0.516768
v -0.240850 -0.161939 0.516768
v -0.251369 -0.166286 0.516768
v -0.243316 -0.160915 0.516768
v -0.250345 -0.163819 0.516768
v -0.245987 -0.160913 0.516768
v -0.248455 -0.161933 0.516768
v -0.209452 0.058052 0.516709
v -0.204216 0.058234 0.516709
v -0.206816 0.057622 0.516709
v -0.211723 0.059457 0.516709
v -0.202049 0.059795 0.516709
v -0.213283 0.061624 0.516709
v -0.200644 0.062066 0.516709
v -0.200214 0.064701 0.516709
v -0.213895 0.064224 0.516709
v -0.213466 0.066860 0.516709
v -0.200827 0.067301 0.516709
v -0.212061 0.069131 0.516709
v -0.202387 0.069468 0.516709
v -0.209893 0.070691 0.516709
v -0.204658 0.070874 0.516709
v -0.207294 0.071303 0.516709
v -0.225750 -0.200698 0.516768
v -0.221392 -0.197791 0.516768
v -0.223282 -0.199678 0.516768
v -0.228421 -0.200695 0.516768
v -0.220368 -0.195325 0.516768
v -0.230887 -0.199671 0.516768
v -0.220365 -0.192654 0.516768
v -0.221385 -0.190186 0.516768
v -0.232774 -0.197781 0.516768
v -0.233794 -0.195313 0.516768
v -0.223272 -0.188296 0.516768
v -0.233791 -0.192642 0.516768
v -0.225738 -0.187272 0.516768
v -0.232767 -0.190176 0.516768
v -0.228409 -0.187269 0.516768
v -0.230877 -0.188289 0.516768
v -0.394879 -0.180732 0.516276
v -0.390183 -0.183053 0.516276
v -0.392762 -0.182359 0.516276
v -0.396213 -0.178418 0.516276
v -0.387535 -0.182706 0.516276
v -0.396559 -0.175770 0.516276
v -0.385221 -0.181373 0.516276
v -0.383593 -0.179256 0.516276
v -0.395865 -0.173191 0.516276
v -0.394238 -0.171073 0.516276
v -0.382900 -0.176677 0.516276
v -0.391924 -0.169740 0.516276
v -0.383246 -0.174029 0.516276
v -0.389276 -0.169394 0.516276
v -0.384580 -0.171715 0.516276
v -0.386697 -0.170087 0.516276
v -0.381879 -0.172062 0.516276
v -0.377183 -0.174383 0.516276
v -0.379762 -0.173689 0.516276
v -0.383213 -0.169748 0.516276
v -0.374535 -0.174036 0.516276
v -0.383559 -0.167100 0.516276
v -0.372221 -0.172703 0.516276
v -0.370593 -0.170586 0.516276
v -0.382865 -0.164521 0.516276
v -0.381238 -0.162403 0.516276
v -0.369900 -0.168007 0.516276
v -0.378924 -0.161070 0.516276
v -0.370246 -0.165359 0.516276
v -0.376276 -0.160724 0.516276
v -0.371579 -0.163045 0.516276
v -0.373697 -0.161417 0.516276
v -0.274091 -0.179687 0.517578
v -0.269395 -0.182008 0.517578
v -0.271974 -0.181314 0.517578
v -0.275424 -0.177373 0.517578
v -0.266747 -0.181661 0.517578
v -0.275770 -0.174725 0.517578
v -0.264433 -0.180328 0.517578
v -0.262805 -0.178211 0.517578
v -0.275077 -0.172146 0.517578
v -0.273449 -0.170028 0.517578
v -0.262112 -0.175632 0.517578
v -0.271135 -0.168695 0.517578
v -0.262458 -0.172984 0.517578
v -0.268487 -0.168349 0.517578
v -0.263791 -0.170670 0.517578
v -0.265908 -0.169042 0.517578
v -0.239180 0.003314 0.516709
v -0.233945 0.003497 0.516709
v -0.236544 0.002885 0.516709
v -0.241451 0.004719 0.516709
v -0.231777 0.005057 0.516709
v -0.243011 0.006887 0.516709
v -0.230372 0.007328 0.516709
v -0.229943 0.009964 0.516709
v -0.243623 0.009486 0.516709
v -0.243194 0.012122 0.516709
v -0.230555 0.012564 0.516709
v -0.241789 0.014393 0.516709
v -0.232115 0.014731 0.516709
v -0.239622 0.015953 0.516709
v -0.234386 0.016136 0.516709
v -0.237022 0.016566 0.516709
v -0.224438 0.031041 0.516709
v -0.219202 0.031224 0.516709
v -0.221802 0.030612 0.516709
v -0.226709 0.032446 0.516709
v -0.217035 0.032784 0.516709
v -0.228269 0.034614 0.516709
v -0.215630 0.035055 0.516709
v -0.215200 0.037691 0.516709
v -0.228881 0.037213 0.516709
v -0.228452 0.039849 0.516709
v -0.215812 0.040290 0.516709
v -0.227046 0.042120 0.516709
v -0.217373 0.042458 0.516709
v -0.224879 0.043680 0.516709
v -0.219644 0.043863 0.516709
v -0.222279 0.044292 0.516709
v -0.231844 0.017111 0.516709
v -0.226609 0.017294 0.516709
v -0.229208 0.016682 0.516709
v -0.234115 0.018516 0.516709
v -0.224441 0.018854 0.516709
v -0.235675 0.020684 0.516709
v -0.223036 0.021125 0.516709
v -0.222607 0.023761 0.516709
v -0.236288 0.023283 0.516709
v -0.235858 0.025919 0.516709
v -0.223219 0.026361 0.516709
v -0.234453 0.028190 0.516709
v -0.224779 0.028528 0.516709
v -0.232286 0.029750 0.516709
v -0.227050 0.029933 0.516709
v -0.229686 0.030363 0.516709
v -0.307281 -0.178141 0.516768
v -0.302096 -0.178888 0.516768
v -0.304763 -0.179030 0.516768
v -0.309267 -0.176355 0.516768
v -0.299687 -0.177736 0.516768
v -0.310419 -0.173946 0.516768
v -0.297901 -0.175750 0.516768
v -0.297012 -0.173232 0.516768
v -0.310561 -0.171279 0.516768
v -0.309672 -0.168761 0.516768
v -0.297154 -0.170565 0.516768
v -0.307887 -0.166775 0.516768
v -0.298306 -0.168155 0.516768
v -0.305477 -0.165623 0.516768
v -0.300292 -0.166370 0.516768
v -0.302810 -0.165481 0.516768
v -0.309627 -0.194420 0.516768
v -0.304442 -0.195168 0.516768
v -0.307109 -0.195310 0.516768
v -0.311613 -0.192635 0.516768
v -0.302033 -0.194016 0.516768
v -0.312765 -0.190226 0.516768
v -0.300247 -0.192030 0.516768
v -0.299358 -0.189511 0.516768
v -0.312907 -0.187559 0.516768
v -0.312018 -0.185041 0.516768
v -0.299500 -0.186844 0.516768
v -0.310233 -0.183054 0.516768
v -0.300652 -0.184435 0.516768
v -0.307823 -0.181903 0.516768
v -0.302638 -0.182650 0.516768
v -0.305156 -0.181761 0.516768
v -0.311800 -0.209497 0.516768
v -0.306615 -0.210244 0.516768
v -0.309281 -0.210386 0.516768
v -0.313786 -0.207712 0.516768
v -0.304205 -0.209092 0.516768
v -0.314938 -0.205302 0.516768
v -0.302420 -0.207106 0.516768
v -0.301531 -0.204588 0.516768
v -0.315080 -0.202636 0.516768
v -0.314190 -0.200117 0.516768
v -0.301673 -0.201921 0.516768
v -0.312405 -0.198131 0.516768
v -0.302825 -0.199512 0.516768
v -0.309996 -0.196979 0.516768
v -0.304811 -0.197727 0.516768
v -0.307329 -0.196837 0.516768
v -0.314027 -0.224952 0.516768
v -0.308842 -0.225699 0.516768
v -0.311508 -0.225841 0.516768
v -0.316013 -0.223167 0.516768
v -0.306432 -0.224547 0.516768
v -0.317165 -0.220757 0.516768
v -0.304647 -0.222561 0.516768
v -0.303758 -0.220043 0.516768
v -0.317307 -0.218090 0.516768
v -0.316417 -0.215572 0.516768
v -0.303900 -0.217376 0.516768
v -0.314632 -0.213586 0.516768
v -0.305052 -0.214967 0.516768
v -0.312223 -0.212434 0.516768
v -0.307038 -0.213181 0.516768
v -0.309556 -0.212292 0.516768
v -0.316211 -0.240109 0.516768
v -0.311026 -0.240856 0.516768
v -0.313693 -0.240998 0.516768
v -0.318197 -0.238324 0.516768
v -0.308616 -0.239704 0.516768
v -0.319349 -0.235914 0.516768
v -0.306831 -0.237718 0.516768
v -0.305942 -0.235200 0.516768
v -0.319491 -0.233247 0.516768
v -0.318602 -0.230729 0.516768
v -0.306084 -0.232533 0.516768
v -0.316816 -0.228743 0.516768
v -0.307236 -0.230123 0.516768
v -0.314407 -0.227591 0.516768
v -0.309222 -0.228338 0.516768
v -0.311740 -0.227449 0.516768
v -0.356977 -0.154667 0.516276
v -0.352280 -0.156988 0.516276
v -0.354859 -0.156295 0.516276
v -0.358310 -0.152353 0.516276
v -0.349632 -0.156642 0.516276
v -0.358656 -0.149705 0.516276
v -0.347318 -0.155308 0.516276
v -0.345691 -0.153191 0.516276
v -0.357963 -0.147126 0.516276
v -0.356335 -0.145009 0.516276
v -0.344997 -0.150612 0.516276
v -0.354021 -0.143675 0.516276
v -0.345343 -0.147964 0.516276
v -0.351373 -0.143329 0.516276
v -0.346677 -0.145650 0.516276
v -0.348794 -0.144023 0.516276
v -0.426301 -0.160584 0.520480
v -0.421081 -0.160137 0.520480
v -0.423647 -0.160879 0.520480
v -0.428640 -0.159295 0.520480
v -0.418996 -0.158469 0.520480
v -0.430308 -0.157210 0.520480
v -0.417707 -0.156130 0.520480
v -0.417412 -0.153475 0.520480
v -0.431051 -0.154645 0.520480
v -0.430755 -0.151990 0.520480
v -0.418155 -0.150910 0.520480
v -0.429467 -0.149651 0.520480
v -0.419823 -0.148824 0.520480
v -0.427381 -0.147983 0.520480
v -0.422162 -0.147536 0.520480
v -0.424816 -0.147240 0.520480
v -0.414656 -0.151749 0.520538
v -0.409437 -0.151302 0.520538
v -0.412002 -0.152045 0.520538
v -0.416995 -0.150461 0.520538
v -0.407351 -0.149634 0.520538
v -0.418663 -0.148375 0.520538
v -0.406062 -0.147295 0.520538
v -0.405767 -0.144640 0.520538
v -0.419406 -0.145810 0.520538
v -0.419111 -0.143156 0.520538
v -0.406510 -0.142075 0.520538
v -0.417822 -0.140816 0.520538
v -0.408178 -0.139990 0.520538
v -0.415736 -0.139148 0.520538
v -0.410517 -0.138701 0.520538
v -0.413171 -0.138406 0.520538
v -0.388655 -0.131960 0.520538
v -0.383436 -0.131512 0.520538
v -0.386001 -0.132255 0.520538
v -0.390994 -0.130671 0.520538
v -0.381350 -0.129844 0.520538
v -0.392662 -0.128586 0.520538
v -0.380062 -0.127505 0.520538
v -0.379766 -0.124851 0.520538
v -0.393405 -0.126020 0.520538
v -0.393110 -0.123366 0.520538
v -0.380509 -0.122286 0.520538
v -0.391821 -0.121027 0.520538
v -0.382177 -0.120200 0.520538
v -0.389736 -0.119359 0.520538
v -0.384516 -0.118912 0.520538
v -0.387170 -0.118616 0.520538
v -0.377144 -0.123715 0.520538
v -0.371925 -0.123267 0.520538
v -0.374490 -0.124010 0.520538
v -0.379483 -0.122426 0.520538
v -0.369839 -0.121599 0.520538
v -0.381151 -0.120340 0.520538
v -0.368550 -0.119260 0.520538
v -0.368255 -0.116606 0.520538
v -0.381894 -0.117775 0.520538
v -0.381599 -0.115121 0.520538
v -0.368998 -0.114041 0.520538
v -0.380310 -0.112782 0.520538
v -0.370666 -0.111955 0.520538
v -0.378224 -0.111114 0.520538
v -0.373005 -0.110666 0.520538
v -0.375659 -0.110371 0.520538
v -0.402212 -0.141789 0.520538
v -0.396992 -0.141342 0.520538
v -0.399558 -0.142085 0.520538
v -0.404551 -0.140501 0.520538
v -0.394907 -0.139674 0.520538
v -0.406219 -0.138415 0.520538
v -0.393618 -0.137335 0.520538
v -0.393323 -0.134680 0.520538
v -0.406962 -0.135850 0.520538
v -0.406666 -0.133195 0.520538
v -0.394066 -0.132115 0.520538
v -0.405378 -0.130856 0.520538
v -0.395733 -0.130030 0.520538
v -0.403292 -0.129188 0.520538
v -0.398073 -0.128741 0.520538
v -0.400727 -0.128446 0.520538
v -0.258783 0.013178 0.516709
v -0.255667 0.017389 0.516709
v -0.256806 0.014974 0.516709
v -0.261297 0.012276 0.516709
v -0.255539 0.020057 0.516709
v -0.263964 0.012404 0.516709
v -0.256441 0.022570 0.516709
v -0.258237 0.024547 0.516709
v -0.266380 0.013543 0.516709
v -0.268175 0.015520 0.516709
v -0.260653 0.025686 0.516709
v -0.269078 0.018033 0.516709
v -0.263320 0.025814 0.516709
v -0.268950 0.020701 0.516709
v -0.265834 0.024912 0.516709
v -0.267810 0.023116 0.516709
v -0.257709 0.027756 0.516768
v -0.254593 0.031967 0.516768
v -0.255733 0.029551 0.516768
v -0.260223 0.026853 0.516768
v -0.254465 0.034634 0.516768
v -0.262890 0.026981 0.516768
v -0.255368 0.037148 0.516768
v -0.257163 0.039124 0.516768
v -0.265306 0.028120 0.516768
v -0.267101 0.030097 0.516768
v -0.259579 0.040264 0.516768
v -0.268004 0.032611 0.516768
v -0.262246 0.040392 0.516768
v -0.267876 0.035278 0.516768
v -0.264760 0.039489 0.516768
v -0.266737 0.037694 0.516768
v -0.255359 0.060346 0.516768
v -0.252243 0.064557 0.516768
v -0.253382 0.062142 0.516768
v -0.257873 0.059444 0.516768
v -0.252115 0.067225 0.516768
v -0.260540 0.059572 0.516768
v -0.253017 0.069738 0.516768
v -0.254813 0.071715 0.516768
v -0.262956 0.060711 0.516768
v -0.264751 0.062688 0.516768
v -0.257228 0.072854 0.516768
v -0.265654 0.065201 0.516768
v -0.259896 0.072982 0.516768
v -0.265525 0.067869 0.516768
v -0.262409 0.072080 0.516768
v -0.264386 0.070284 0.516768
v -0.253931 0.074433 0.516768
v -0.250815 0.078644 0.516768
v -0.251954 0.076229 0.516768
v -0.256445 0.073531 0.516768
v -0.250687 0.081312 0.516768
v -0.259112 0.073659 0.516768
v -0.251590 0.083825 0.516768
v -0.253385 0.085802 0.516768
v -0.261528 0.074798 0.516768
v -0.263323 0.076775 0.516768
v -0.255801 0.086941 0.516768
v -0.264226 0.079289 0.516768
v -0.258468 0.087070 0.516768
v -0.264098 0.081956 0.516768
v -0.260982 0.086167 0.516768
v -0.262958 0.084372 0.516768
v -0.256951 0.043677 0.516768
v -0.253835 0.047888 0.516768
v -0.254974 0.045472 0.516768
v -0.259465 0.042774 0.516768
v -0.253707 0.050555 0.516768
v -0.262132 0.042903 0.516768
v -0.254609 0.053069 0.516768
v -0.256405 0.055046 0.516768
v -0.264548 0.044042 0.516768
v -0.266343 0.046019 0.516768
v -0.258820 0.056185 0.516768
v -0.267246 0.048532 0.516768
v -0.261488 0.056313 0.516768
v -0.267117 0.051200 0.516768
v -0.264001 0.055411 0.516768
v -0.265978 0.053615 0.516768
v -0.368754 -0.163308 0.516276
v -0.364058 -0.165629 0.516276
v -0.366637 -0.164936 0.516276
v -0.370087 -0.160994 0.516276
v -0.361410 -0.165283 0.516276
v -0.370434 -0.158346 0.516276
v -0.359096 -0.163950 0.516276
v -0.357468 -0.161832 0.516276
v -0.369740 -0.155767 0.516276
v -0.368113 -0.153650 0.516276
v -0.356775 -0.159253 0.516276
v -0.365799 -0.152316 0.516276
v -0.357121 -0.156605 0.516276
v -0.363151 -0.151970 0.516276
v -0.358454 -0.154291 0.516276
v -0.360572 -0.152664 0.516276
v -0.182552 -0.093435 0.516768
v -0.181525 -0.088298 0.516768
v -0.181528 -0.090969 0.516768
v -0.184442 -0.095322 0.516768
v -0.182545 -0.085830 0.516768
v -0.186910 -0.096342 0.516768
v -0.184432 -0.083940 0.516768
v -0.186898 -0.082916 0.516768
v -0.189581 -0.096339 0.516768
v -0.192047 -0.095315 0.516768
v -0.189569 -0.082913 0.516768
v -0.193934 -0.093425 0.516768
v -0.192037 -0.083933 0.516768
v -0.194954 -0.090957 0.516768
v -0.193927 -0.085820 0.516768
v -0.194951 -0.088286 0.516768
v -0.166423 -0.096658 0.516768
v -0.165396 -0.091521 0.516768
v -0.165399 -0.094192 0.516768
v -0.168313 -0.098545 0.516768
v -0.166416 -0.089053 0.516768
v -0.170781 -0.099565 0.516768
v -0.168303 -0.087163 0.516768
v -0.170769 -0.086139 0.516768
v -0.173452 -0.099562 0.516768
v -0.175918 -0.098538 0.516768
v -0.173440 -0.086136 0.516768
v -0.177805 -0.096648 0.516768
v -0.175908 -0.087156 0.516768
v -0.178825 -0.094180 0.516768
v -0.177798 -0.089043 0.516768
v -0.178822 -0.091509 0.516768
v -0.151486 -0.099643 0.516768
v -0.150459 -0.094506 0.516768
v -0.150461 -0.097176 0.516768
v -0.153376 -0.101530 0.516768
v -0.151479 -0.092038 0.516768
v -0.155844 -0.102549 0.516768
v -0.153366 -0.090148 0.516768
v -0.155832 -0.089123 0.516768
v -0.158514 -0.102547 0.516768
v -0.160981 -0.101523 0.516768
v -0.158503 -0.089121 0.516768
v -0.162868 -0.099633 0.516768
v -0.160971 -0.090141 0.516768
v -0.163887 -0.097165 0.516768
v -0.162861 -0.092028 0.516768
v -0.163885 -0.094494 0.516768
v -0.136174 -0.102702 0.516768
v -0.135147 -0.097565 0.516768
v -0.135150 -0.100236 0.516768
v -0.138064 -0.104589 0.516768
v -0.136167 -0.095097 0.516768
v -0.140532 -0.105609 0.516768
v -0.138054 -0.093207 0.516768
v -0.140520 -0.092183 0.516768
v -0.143203 -0.105607 0.516768
v -0.145669 -0.104583 0.516768
v -0.143191 -0.092181 0.516768
v -0.147556 -0.102692 0.516768
v -0.145659 -0.093201 0.516768
v -0.148576 -0.100224 0.516768
v -0.147549 -0.095087 0.516768
v -0.148573 -0.097554 0.516768
v -0.121157 -0.105703 0.516768
v -0.120131 -0.100566 0.516768
v -0.120133 -0.103237 0.516768
v -0.123047 -0.107590 0.516768
v -0.121151 -0.098098 0.516768
v -0.125516 -0.108610 0.516768
v -0.123037 -0.096208 0.516768
v -0.125504 -0.095184 0.516768
v -0.128186 -0.108607 0.516768
v -0.130653 -0.107583 0.516768
v -0.128174 -0.095181 0.516768
v -0.132539 -0.105693 0.516768
v -0.130643 -0.096201 0.516768
v -0.133559 -0.103225 0.516768
v -0.132533 -0.098088 0.516768
v -0.133557 -0.100554 0.516768
v -0.448989 -0.111102 0.520480
v -0.444115 -0.113022 0.520480
v -0.446743 -0.112547 0.520480
v -0.450512 -0.108908 0.520480
v -0.441506 -0.112456 0.520480
v -0.451078 -0.106298 0.520480
v -0.439311 -0.110933 0.520480
v -0.437866 -0.108687 0.520480
v -0.450603 -0.103670 0.520480
v -0.449158 -0.101424 0.520480
v -0.437391 -0.106059 0.520480
v -0.446964 -0.099902 0.520480
v -0.437958 -0.103450 0.520480
v -0.444354 -0.099335 0.520480
v -0.439480 -0.101255 0.520480
v -0.441726 -0.099811 0.520480
v -0.434631 -0.108367 0.520538
v -0.429757 -0.110287 0.520538
v -0.432385 -0.109811 0.520538
v -0.436153 -0.106172 0.520538
v -0.427147 -0.109720 0.520538
v -0.436720 -0.103562 0.520538
v -0.424953 -0.108198 0.520538
v -0.423508 -0.105952 0.520538
v -0.436244 -0.100935 0.520538
v -0.434800 -0.098688 0.520538
v -0.423033 -0.103324 0.520538
v -0.432605 -0.097166 0.520538
v -0.423599 -0.100714 0.520538
v -0.429995 -0.096600 0.520538
v -0.425121 -0.098520 0.520538
v -0.427368 -0.097075 0.520538
v -0.402542 -0.102202 0.520538
v -0.397668 -0.104122 0.520538
v -0.400296 -0.103647 0.520538
v -0.404065 -0.100008 0.520538
v -0.395059 -0.103555 0.520538
v -0.404631 -0.097398 0.520538
v -0.392864 -0.102033 0.520538
v -0.391420 -0.099787 0.520538
v -0.404156 -0.094770 0.520538
v -0.402711 -0.092524 0.520538
v -0.390944 -0.097159 0.520538
v -0.400517 -0.091002 0.520538
v -0.391511 -0.094549 0.520538
v -0.397907 -0.090435 0.520538
v -0.393033 -0.092355 0.520538
v -0.395279 -0.090910 0.520538
v -0.388566 -0.099935 0.520538
v -0.383691 -0.101855 0.520538
v -0.386319 -0.101380 0.520538
v -0.390088 -0.097741 0.520538
v -0.381082 -0.101288 0.520538
v -0.390654 -0.095131 0.520538
v -0.378887 -0.099766 0.520538
v -0.377443 -0.097520 0.520538
v -0.390179 -0.092503 0.520538
v -0.388734 -0.090257 0.520538
v -0.376967 -0.094892 0.520538
v -0.386540 -0.088735 0.520538
v -0.377534 -0.092282 0.520538
v -0.383930 -0.088168 0.520538
v -0.379056 -0.090088 0.520538
v -0.381302 -0.088643 0.520538
v -0.419056 -0.104978 0.520538
v -0.414182 -0.106898 0.520538
v -0.416809 -0.106423 0.520538
v -0.420578 -0.102784 0.520538
v -0.411572 -0.106332 0.520538
v -0.421144 -0.100174 0.520538
v -0.409377 -0.104809 0.520538
v -0.407933 -0.102563 0.520538
v -0.420669 -0.097546 0.520538
v -0.419224 -0.095300 0.520538
v -0.407457 -0.099935 0.520538
v -0.417030 -0.093778 0.520538
v -0.408024 -0.097326 0.520538
v -0.414420 -0.093211 0.520538
v -0.409546 -0.095131 0.520538
v -0.411792 -0.093687 0.520538
v -0.216788 0.044255 0.516709
v -0.211552 0.044437 0.516709
v -0.214152 0.043825 0.516709
v -0.219059 0.045660 0.516709
v -0.209385 0.045998 0.516709
v -0.220619 0.047827 0.516709
v -0.207980 0.048269 0.516709
v -0.207550 0.050905 0.516709
v -0.221231 0.050427 0.516709
v -0.220802 0.053063 0.516709
v -0.208163 0.053504 0.516709
v -0.219397 0.055334 0.516709
v -0.209723 0.055671 0.516709
v -0.217229 0.056894 0.516709
v -0.211994 0.057077 0.516709
v -0.214630 0.057506 0.516709
v -0.336657 -0.168172 0.516768
v -0.332152 -0.170846 0.516768
v -0.334671 -0.169957 0.516768
v -0.337809 -0.165763 0.516768
v -0.329486 -0.170704 0.516768
v -0.337951 -0.163096 0.516768
v -0.327076 -0.169553 0.516768
v -0.325291 -0.167566 0.516768
v -0.337061 -0.160578 0.516768
v -0.335276 -0.158591 0.516768
v -0.324402 -0.165048 0.516768
v -0.332867 -0.157440 0.516768
v -0.324544 -0.162381 0.516768
v -0.330200 -0.157297 0.516768
v -0.325696 -0.159972 0.516768
v -0.327682 -0.158187 0.516768
v -0.345054 -0.182315 0.516768
v -0.340550 -0.184989 0.516768
v -0.343068 -0.184100 0.516768
v -0.346206 -0.179905 0.516768
v -0.337883 -0.184847 0.516768
v -0.346348 -0.177238 0.516768
v -0.335474 -0.183695 0.516768
v -0.333688 -0.181709 0.516768
v -0.345459 -0.174720 0.516768
v -0.343674 -0.172734 0.516768
v -0.332799 -0.179191 0.516768
v -0.341264 -0.171582 0.516768
v -0.332941 -0.176524 0.516768
v -0.338597 -0.171440 0.516768
v -0.334093 -0.174115 0.516768
v -0.336079 -0.172329 0.516768
v -0.352831 -0.195412 0.516768
v -0.348327 -0.198087 0.516768
v -0.350845 -0.197198 0.516768
v -0.353983 -0.193003 0.516768
v -0.345660 -0.197945 0.516768
v -0.354125 -0.190336 0.516768
v -0.343250 -0.196793 0.516768
v -0.341465 -0.194807 0.516768
v -0.353236 -0.187818 0.516768
v -0.351450 -0.185832 0.516768
v -0.340576 -0.192288 0.516768
v -0.349041 -0.184680 0.516768
v -0.340718 -0.189622 0.516768
v -0.346374 -0.184538 0.516768
v -0.341870 -0.187212 0.516768
v -0.343856 -0.185427 0.516768
v -0.360803 -0.208838 0.516768
v -0.356298 -0.211513 0.516768
v -0.358817 -0.210624 0.516768
v -0.361955 -0.206429 0.516768
v -0.353632 -0.211371 0.516768
v -0.362097 -0.203762 0.516768
v -0.351222 -0.210219 0.516768
v -0.349437 -0.208233 0.516768
v -0.361207 -0.201244 0.516768
v -0.359422 -0.199258 0.516768
v -0.348548 -0.205715 0.516768
v -0.357013 -0.198106 0.516768
v -0.348690 -0.203048 0.516768
v -0.354346 -0.197964 0.516768
v -0.349842 -0.200638 0.516768
v -0.351828 -0.198853 0.516768
v -0.368621 -0.222006 0.516768
v -0.364117 -0.224680 0.516768
v -0.366635 -0.223791 0.516768
v -0.369773 -0.219596 0.516768
v -0.361450 -0.224538 0.516768
v -0.369915 -0.216929 0.516768
v -0.359040 -0.223386 0.516768
v -0.357255 -0.221400 0.516768
v -0.369026 -0.214411 0.516768
v -0.367240 -0.212425 0.516768
v -0.356366 -0.218882 0.516768
v -0.364831 -0.211273 0.516768
v -0.356508 -0.216215 0.516768
v -0.362164 -0.211131 0.516768
v -0.357660 -0.213806 0.516768
v -0.359646 -0.212020 0.516768
v -0.417544 -0.064294 0.519853
v -0.412848 -0.066615 0.519853
v -0.415427 -0.065922 0.519853
v -0.418877 -0.061980 0.519853
v -0.410199 -0.066269 0.519853
v -0.419223 -0.059332 0.519853
v -0.407885 -0.064936 0.519853
v -0.406258 -0.062819 0.519853
v -0.418530 -0.056753 0.519853
v -0.416902 -0.054636 0.519853
v -0.405564 -0.060240 0.519853
v -0.414588 -0.053303 0.519853
v -0.405911 -0.057591 0.519853
v -0.411940 -0.052956 0.519853
v -0.407244 -0.055277 0.519853
v -0.409361 -0.053650 0.519853
v -0.208590 -0.226428 0.516768
v -0.204232 -0.223522 0.516768
v -0.206122 -0.225408 0.516768
v -0.211261 -0.226426 0.516768
v -0.203208 -0.221055 0.516768
v -0.213727 -0.225402 0.516768
v -0.203205 -0.218385 0.516768
v -0.204225 -0.215916 0.516768
v -0.215614 -0.223512 0.516768
v -0.216634 -0.221043 0.516768
v -0.206112 -0.214026 0.516768
v -0.216631 -0.218373 0.516768
v -0.208578 -0.213002 0.516768
v -0.215607 -0.215906 0.516768
v -0.211249 -0.213000 0.516768
v -0.213717 -0.214020 0.516768
v -0.217087 -0.213688 0.516768
v -0.212728 -0.210781 0.516768
v -0.214618 -0.212668 0.516768
v -0.219757 -0.213686 0.516768
v -0.211704 -0.208315 0.516768
v -0.222224 -0.212662 0.516768
v -0.211702 -0.205644 0.516768
v -0.212722 -0.203176 0.516768
v -0.224110 -0.210772 0.516768
v -0.225130 -0.208303 0.516768
v -0.214608 -0.201286 0.516768
v -0.225128 -0.205633 0.516768
v -0.217075 -0.200262 0.516768
v -0.224104 -0.203166 0.516768
v -0.219745 -0.200260 0.516768
v -0.222214 -0.201280 0.516768
v -0.219449 -0.009851 0.516709
v -0.214216 -0.009613 0.516709
v -0.216808 -0.010252 0.516709
v -0.221734 -0.008469 0.516709
v -0.212065 -0.008030 0.516709
v -0.223317 -0.006318 0.516709
v -0.210683 -0.005745 0.516709
v -0.210282 -0.003105 0.516709
v -0.223956 -0.003725 0.516709
v -0.223555 -0.001085 0.516709
v -0.210921 -0.000512 0.516709
v -0.222173 0.001200 0.516709
v -0.212504 0.001639 0.516709
v -0.220022 0.002783 0.516709
v -0.214789 0.003021 0.516709
v -0.217429 0.003422 0.516709
v -0.207459 -0.001490 0.516768
v -0.202226 -0.001253 0.516768
v -0.204819 -0.001892 0.516768
v -0.209744 -0.000109 0.516768
v -0.200075 0.000330 0.516768
v -0.211327 0.002042 0.516768
v -0.198693 0.002616 0.516768
v -0.198292 0.005256 0.516768
v -0.211966 0.004635 0.516768
v -0.211565 0.007275 0.516768
v -0.198931 0.007849 0.516768
v -0.210183 0.009561 0.516768
v -0.200514 0.010000 0.516768
v -0.208032 0.011144 0.516768
v -0.202799 0.011381 0.516768
v -0.205439 0.011783 0.516768
v -0.180685 0.017240 0.516768
v -0.175452 0.017477 0.516768
v -0.178045 0.016838 0.516768
v -0.182970 0.018621 0.516768
v -0.173301 0.019060 0.516768
v -0.184553 0.020772 0.516768
v -0.171919 0.021346 0.516768
v -0.171518 0.023986 0.516768
v -0.185192 0.023365 0.516768
v -0.184791 0.026005 0.516768
v -0.172157 0.026579 0.516768
v -0.183409 0.028291 0.516768
v -0.173740 0.028730 0.516768
v -0.181258 0.029874 0.516768
v -0.176025 0.030111 0.516768
v -0.178665 0.030513 0.516768
v -0.168852 0.025016 0.516768
v -0.163619 0.025254 0.516768
v -0.166212 0.024614 0.516768
v -0.171137 0.026398 0.516768
v -0.161468 0.026837 0.516768
v -0.172720 0.028548 0.516768
v -0.160086 0.029122 0.516768
v -0.159685 0.031762 0.516768
v -0.173360 0.031141 0.516768
v -0.172958 0.033782 0.516768
v -0.160324 0.034355 0.516768
v -0.171576 0.036067 0.516768
v -0.161907 0.036506 0.516768
v -0.169426 0.037650 0.516768
v -0.164192 0.037888 0.516768
v -0.166833 0.038289 0.516768
v -0.194625 0.007962 0.516768
v -0.189392 0.008200 0.516768
v -0.191985 0.007561 0.516768
v -0.196910 0.009344 0.516768
v -0.187241 0.009783 0.516768
v -0.198493 0.011495 0.516768
v -0.185859 0.012068 0.516768
v -0.185458 0.014709 0.516768
v -0.199132 0.014088 0.516768
v -0.198731 0.016728 0.516768
v -0.186097 0.017301 0.516768
v -0.197349 0.019013 0.516768
v -0.187680 0.019452 0.516768
v -0.195198 0.020596 0.516768
v -0.189965 0.020834 0.516768
v -0.192606 0.021235 0.516768
v -0.234202 -0.188025 0.516768
v -0.229844 -0.185118 0.516768
v -0.231734 -0.187005 0.516768
v -0.236872 -0.188023 0.516768
v -0.228819 -0.182652 0.516768
v -0.239339 -0.186998 0.516768
v -0.228817 -0.179981 0.516768
v -0.229837 -0.177513 0.516768
v -0.241226 -0.185108 0.516768
v -0.242245 -0.182640 0.516768
v -0.231724 -0.175623 0.516768
v -0.242243 -0.179970 0.516768
v -0.234190 -0.174599 0.516768
v -0.241219 -0.177503 0.516768
v -0.236861 -0.174597 0.516768
v -0.239329 -0.175616 0.516768
v -0.401957 -0.067386 0.519853
v -0.397083 -0.069306 0.519853
v -0.399711 -0.068831 0.519853
v -0.403479 -0.065192 0.519853
v -0.394473 -0.068739 0.519853
v -0.404046 -0.062582 0.519853
v -0.392279 -0.067217 0.519853
v -0.390834 -0.064971 0.519853
v -0.403571 -0.059954 0.519853
v -0.402126 -0.057708 0.519853
v -0.390359 -0.062343 0.519853
v -0.399932 -0.056186 0.519853
v -0.390926 -0.059733 0.519853
v -0.397322 -0.055619 0.519853
v -0.392448 -0.057539 0.519853
v -0.394694 -0.056094 0.519853
v 0.019585 -0.154048 0.735478
v 0.018544 -0.154048 0.734395
v 0.019585 -0.154048 0.729815
v 0.014140 -0.154048 0.735478
v 0.015181 -0.154048 0.734395
v 0.015181 -0.154048 0.730898
v 0.018544 -0.154048 0.730898
v 0.014140 -0.154048 0.729815
v 0.019774 -0.153906 0.725725
v 0.018806 -0.153906 0.724718
v 0.019774 -0.153906 0.720062
v 0.014329 -0.153906 0.725725
v 0.015297 -0.153906 0.724718
v 0.015297 -0.153906 0.721069
v 0.018806 -0.153906 0.721069
v 0.014329 -0.153906 0.720062
v 0.019585 -0.153906 0.715394
v 0.018832 -0.153906 0.714611
v 0.019585 -0.153906 0.709731
v 0.014140 -0.153906 0.715394
v 0.014894 -0.153906 0.714611
v 0.014894 -0.153906 0.710515
v 0.018832 -0.153906 0.710515
v 0.014140 -0.153906 0.709731
v 0.019585 -0.153906 0.705678
v 0.018760 -0.153906 0.704820
v 0.019585 -0.153906 0.700015
v 0.014140 -0.153906 0.705678
v 0.014966 -0.153906 0.704820
v 0.014966 -0.153906 0.700874
v 0.018760 -0.153906 0.700874
v 0.014140 -0.153906 0.700015
v -0.006232 -0.138152 0.504594
v -0.002847 -0.142289 0.504594
v -0.004951 -0.140557 0.504594
v -0.006496 -0.135440 0.504594
v -0.000240 -0.143083 0.504594
v -0.005701 -0.132833 0.504594
v 0.002472 -0.142819 0.504594
v 0.004877 -0.141538 0.504594
v -0.003970 -0.130729 0.504594
v -0.001565 -0.129447 0.504594
v 0.006609 -0.139434 0.504594
v 0.001147 -0.129184 0.504594
v 0.007403 -0.136827 0.504594
v 0.003754 -0.129978 0.504594
v 0.007140 -0.134115 0.504594
v 0.005858 -0.131710 0.504594
v -0.029263 -0.129475 0.505546
v -0.025878 -0.133612 0.505546
v -0.027982 -0.131880 0.505546
v -0.029527 -0.126763 0.505546
v -0.023271 -0.134406 0.505546
v -0.028733 -0.124156 0.505546
v -0.020559 -0.134143 0.505546
v -0.018154 -0.132861 0.505546
v -0.027001 -0.122052 0.505546
v -0.024596 -0.120770 0.505546
v -0.016422 -0.130757 0.505546
v -0.021884 -0.120507 0.505546
v -0.015628 -0.128150 0.505546
v -0.019277 -0.121301 0.505546
v -0.015891 -0.125438 0.505546
v -0.017173 -0.123033 0.505546
f 1 2 3
f 2 1 4
f 2 4 5
f 5 4 6
f 5 6 7
f 7 6 8
f 8 6 9
f 8 9 10
f 8 10 11
f 11 10 12
f 11 12 13
f 13 12 14
f 13 14 15
f 15 14 16
f 17 18 19
f 18 17 20
f 18 20 21
f 21 20 22
f 21 22 23
f 23 22 24
f 24 22 25
f 24 25 26
f 24 26 27
f 27 26 28
f 27 28 29
f 29 28 30
f 29 30 31
f 31 30 32
f 33 34 35
f 34 33 36
f 34 36 37
f 37 36 38
f 37 38 39
f 39 38 40
f 40 38 41
f 40 41 42
f 40 42 43
f 43 42 44
f 43 44 45
f 45 44 46
f 45 46 47
f 47 46 48
f 49 50 51
f 50 49 52
f 50 52 53
f 53 52 54
f 53 54 55
f 55 54 56
f 56 54 57
f 56 57 58
f 56 58 59
f 59 58 60
f 59 60 61
f 61 60 62
f 61 62 63
f 63 62 64
f 65 66 67
f 66 65 68
f 66 68 69
f 69 68 70
f 69 70 71
f 71 70 72
f 72 70 73
f 72 73 74
f 72 74 75
f 75 74 76
f 75 76 77
f 77 76 78
f 77 78 79
f 79 78 80
f 81 82 83
f 82 81 84
f 82 84 85
f 85 84 86
f 85 86 87
f 87 86 88
f 88 86 89
f 88 89 90
f 88 90 91
f 91 90 92
f 91 92 93
f 93 92 94
f 93 94 95
f 95 94 96
f 97 98 99
f 98 97 100
f 98 100 101
f 101 100 102
f 101 102 103
f 103 102 104
f 104 102 105
f 104 105 106
f 104 106 107
f 107 106 108
f 107 108 109
f 109 108 110
f 109 110 111
f 111 110 112
f 113 114 115
f 114 113 116
f 114 116 117
f 117 116 118
f 117 118 119
f 119 118 120
f 120 118 121
f 120 121 122
f 120 122 123
f 123 122 124
f 123 124 125
f 125 124 126
f 125 126 127
f 127 126 128
f 129 130 131
f 130 129 132
f 130 132 133
f 133 132 134
f 133 134 135
f 135 134 136
f 136 134 137
f 136 137 138
f 136 138 139
f 139 138 140
f 139 140 141
f 141 140 142
f 141 142 143
f 143 142 144
f 145 146 147
f 146 145 148
f 146 148 149
f 149 148 150
f 149 150 151
f 151 150 152
f 152 150 153
f 152 153 154
f 152 154 155
f 155 154 156
f 155 156 157
f 157 156 158
f 157 158 159
f 159 158 160
f 161 162 163
f 162 161 164
f 162 164 165
f 165 164 166
f 165 166 167
f 167 166 168
f 168 166 169
f 168 169 170
f 168 170 171
f 171 170 172
f 171 172 173
f 173 172 174
f 173 174 175
f 175 174 176
f 177 178 179
f 178 177 180
f 178 180 181
f 181 180 182
f 181 182 183
f 183 182 184
f 184 182 185
f 184 185 186
f 184 186 187
f 187 186 188
f 187 188 189
f 189 188 190
f 189 190 191
f 191 190 192
f 193 194 195
f 194 193 196
f 194 196 197
f 197 196 198
f 197 198 199
f 199 198 200
f 200 198 201
f 200 201 202
f 200 202 203
f 203 202 204
f 203 204 205
f 205 204 206
f 205 206 207
f 207 206 208
f 209 210 211
f 210 209 212
f 210 212 213
f 213 212 214
f 213 214 215
f 215 214 216
f 216 214 217
f 216 217 218
f 216 218 219
f 219 218 220
f 219 220 221
f 221 220 222
f 221 222 223
f 223 222 224
f 225 226 227
f 226 225 228
f 226 228 229
f 229 228 230
f 229 230 231
f 231 230 232
f 232 230 233
f 232 233 234
f 232 234 235
f 235 234 236
f 235 236 237
f 237 236 238
f 237 238 239
f 239 238 240
f 241 242 243
f 242 241 244
f 242 244 245
f 245 244 246
f 245 246 247
f 247 246 248
f 248 246 249
f 248 249 250
f 248 250 251
f 251 250 252
f 251 252 253
f 253 252 254
f 253 254 255
f 255 254 256
f 257 258 259
f 258 257 260
f 258 260 261
f 261 260 262
f 261 262 263
f 263 262 264
f 264 262 265
f 264 265 266
f 264 266 267
f 267 266 268
f 267 268 269
f 269 268 270
f 269 270 271
f 271 270 272
f 273 274 275
f 274 273 276
f 274 276 277
f 277 276 278
f 277 278 279
f 279 278 280
f 280 278 281
f 280 281 282
f 280 282 283
f 283 282 284
f 283 284 285
f 285 284 286
f 285 286 287
f 287 286 288
f 289 290 291
f 290 289 292
f 290 292 293
f 293 292 294
f 293 294 295
f 295 294 296
f 296 294 297
f 296 297 298
f 296 298 299
f 299 298 300
f 299 300 301
f 301 300 302
f 301 302 303
f 303 302 304
f 305 306 307
f 306 305 308
f 306 308 309
f 309 308 310
f 309 310 311
f 311 310 312
f 312 310 313
f 312 313 314
f 312 314 315
f 315 314 316
f 315 316 317
f 317 316 318
f 317 318 319
f 319 318 320
f 321 322 323
f 322 321 324
f 322 324 325
f 325 324 326
f 325 326 327
f 327 326 328
f 328 326 329
f 328 329 330
f 328 330 331
f 331 330 332
f 331 332 333
f 333 332 334
f 333 334 335
f 335 334 336
f 337 338 339
f 338 337 340
f 338 340 341
f 341 340 342
f 341 342 343
f 343 342 344
f 344 342 345
f 344 345 346
f 344 346 347
f 347 346 348
f 347 348 349
f 349 348 350
f 349 350 351
f 351 350 352
f 353 354 355
f 354 353 356
f 354 356 357
f 357 356 358
f 357 358 359
f 359 358 360
f 360 358 361
f 360 361 362
f 360 362 363
f 363 362 364
f 363 364 365
f 365 364 366
f 365 366 367
f 367 366 368
f 369 370 371
f 370 369 372
f 370 372 373
f 373 372 374
f 373 374 375
f 375 374 376
f 376 374 377
f 376 377 378
f 376 378 379
f 379 378 380
f 379 380 381
f 381 380 382
f 381 382 383
f 383 382 384
f 385 386 387
f 386 385 388
f 386 388 389
f 389 388 390
f 389 390 391
f 391 390 392
f 392 390 393
f 392 393 394
f 392 394 395
f 395 394 396
f 395 396 397
f 397 396 398
f 397 398 399
f 399 398 400
f 401 402 403
f 402 401 404
f 402 404 405
f 405 404 406
f 405 406 407
f 407 406 408
f 408 406 409
f 408 409 410
f 408 410 411
f 411 410 412
f 411 412 413
f 413 412 414
f 413 414 415
f 415 414 416
f 417 418 419
f 418 417 420
f 418 420 421
f 421 420 422
f 421 422 423
f 423 422 424
f 424 422 425
f 424 425 426
f 424 426 427
f 427 426 428
f 427 428 429
f 429 428 430
f 429 430 431
f 431 430 432
f 433 434 435
f 434 433 436
f 434 436 437
f 437 436 438
f 437 438 439
f 439 438 440
f 440 438 441
f 440 441 442
f 440 442 443
f 443 442 444
f 443 444 445
f 445 444 446
f 445 446 447
f 447 446 448
f 449 450 451
f 450 449 452
f 450 452 453
f 453 452 454
f 453 454 455
f 455 454 456
f 456 454 457
f 456 457 458
f 456 458 459
f 459 458 460
f 459 460 461
f 461 460 462
f 461 462 463
f 463 462 464
f 465 466 467
f 466 465 468
f 466 468 469
f 469 468 470
f 469 470 471
f 471 470 472
f 472 470 473
f 472 473 474
f 472 474 475
f 475 474 476
f 475 476 477
f 477 476 478
f 477 478 479
f 479 478 480
f 481 482 483
f 482 481 484
f 482 484 485
f 485 484 486
f 485 486 487
f 487 486 488
f 488 486 489
f 488 489 490
f 488 490 491
f 491 490 492
f 491 492 493
f 493 492 494
f 493 494 495
f 495 494 496
f 497 498 499
f 498 497 500
f 498 500 501
f 501 500 502
f 501 502 503
f 503 502 504
f 504 502 505
f 504 505 506
f 504 506 507
f 507 506 508
f 507 508 509
f 509 508 510
f 509 510 511
f 511 510 512
f 513 514 515
f 514 513 516
f 514 516 517
f 517 516 518
f 517 518 519
f 519 518 520
f 520 518 521
f 520 521 522
f 520 522 523
f 523 522 524
f 523 524 525
f 525 524 526
f 525 526 527
f 527 526 528
f 529 530 531
f 530 529 532
f 530 532 533
f 533 532 534
f 533 534 535
f 535 534 536
f 536 534 537
f 536 537 538
f 536 538 539
f 539 538 540
f 539 540 541
f 541 540 542
f 541 542 543
f 543 542 544
f 545 546 547
f 546 545 548
f 546 548 549
f 549 548 550
f 549 550 551
f 551 550 552
f 552 550 553
f 552 553 554
f 552 554 555
f 555 554 556
f 555 556 557
f 557 556 558
f 557 558 559
f 559 558 560
f 561 562 563
f 562 561 564
f 562 564 565
f 565 564 566
f 565 566 567
f 567 566 568
f 568 566 569
f 568 569 570
f 568 570 571
f 571 570 572
f 571 572 573
f 573 572 574
f 573 574 575
f 575 574 576
f 577 578 579
f 578 577 580
f 578 580 581
f 581 580 582
f 581 582 583
f 583 582 584
f 584 582 585
f 584 585 586
f 584 586 587
f 587 586 588
f 587 588 589
f 589 588 590
f 589 590 591
f 591 590 592
f 593 594 595
f 594 593 596
f 594 596 597
f 597 596 598
f 597 598 599
f 599 598 600
f 600 598 601
f 600 601 602
f 600 602 603
f 603 602 604
f 603 604 605
f 605 604 606
f 605 606 607
f 607 606 608
f 609 610 611
f 610 609 612
f 610 612 613
f 613 612 614
f 613 614 615
f 615 614 616
f 616 614 617
f 616 617 618
f 616 618 619
f 619 618 620
f 619 620 621
f 621 620 622
f 621 622 623
f 623 622 624
f 625 626 627
f 626 625 628
f 626 628 629
f 629 628 630
f 629 630 631
f 631 630 632
f 632 630 633
f 632 633 634
f 632 634 635
f 635 634 636
f 635 636 637
f 637 636 638
f 637 638 639
f 639 638 640
f 641 642 643
f 642 641 644
f 642 644 645
f 645 644 646
f 645 646 647
f 647 646 648
f 648 646 649
f 648 649 650
f 648 650 651
f 651 650 652
f 651 652 653
f 653 652 654
f 653 654 655
f 655 654 656
f 657 658 659
f 658 657 660
f 658 660 661
f 661 660 662
f 661 662 663
f 663 662 664
f 664 662 665
f 664 665 666
f 664 666 667
f 667 666 668
f 667 668 669
f 669 668 670
f 669 670 671
f 671 670 672
f 673 674 675
f 674 673 676
f 674 676 677
f 677 676 678
f 677 678 679
f 679 678 680
f 680 678 681
f 680 681 682
f 680 682 683
f 683 682 684
f 683 684 685
f 685 684 686
f 685 686 687
f 687 686 688
f 689 690 691
f 690 689 692
f 690 692 693
f 693 692 694
f 693 694 695
f 695 694 696
f 696 694 697
f 696 697 698
f 696 698 699
f 699 698 700
f 699 700 701
f 701 700 702
f 701 702 703
f 703 702 704
f 705 706 707
f 706 705 708
f 706 708 709
f 709 708 710
f 709 710 711
f 711 710 712
f 712 710 713
f 712 713 714
f 712 714 715
f 715 714 716
f 715 716 717
f 717 716 718
f 717 718 719
f 719 718 720
f 721 722 723
f 722 721 724
f 722 724 725
f 725 724 726
f 725 726 727
f 727 726 728
f 728 726 729
f 728 729 730
f 728 730 731
f 731 730 732
f 731 732 733
f 733 732 734
f 733 734 735
f 735 734 736
f 737 738 739
f 738 737 740
f 738 740 741
f 741 740 742
f 741 742 743
f 743 742 744
f 744 742 745
f 744 745 746
f 744 746 747
f 747 746 748
f 747 748 749
f 749 748 750
f 749 750 751
f 751 750 752
f 753 754 755
f 754 753 756
f 754 756 757
f 757 756 758
f 757 758 759
f 759 758 760
f 760 758 761
f 760 761 762
f 760 762 763
f 763 762 764
f 763 764 765
f 765 764 766
f 765 766 767
f 767 766 768
f 769 770 771
f 770 769 772
f 770 772 773
f 773 772 774
f 773 774 775
f 775 774 776
f 776 774 777
f 776 777 778
f 776 778 779
f 779 778 780
f 779 780 781
f 781 780 782
f 781 782 783
f 783 782 784
f 785 786 787
f 786 785 788
f 786 788 789
f 789 788 790
f 789 790 791
f 791 790 792
f 792 790 793
f 792 793 794
f 792 794 795
f 795 794 796
f 795 796 797
f 797 796 798
f 797 798 799
f 799 798 800
f 801 802 803
f 802 801 804
f 802 804 805
f 805 804 806
f 805 806 807
f 807 806 808
f 808 806 809
f 808 809 810
f 808 810 811
f 811 810 812
f 811 812 813
f 813 812 814
f 813 814 815
f 815 814 816
f 817 818 819
f 818 817 820
f 818 820 821
f 821 820 822
f 821 822 823
f 823 822 824
f 824 822 825
f 824 825 826
f 824 826 827
f 827 826 828
f 827 828 829
f 829 828 830
f 829 830 831
f 831 830 832
f 833 834 835
f 834 833 836
f 834 836 837
f 837 836 838
f 837 838 839
f 839 838 840
f 840 838 841
f 840 841 842
f 840 842 843
f 843 842 844
f 843 844 845
f 845 844 846
f 845 846 847
f 847 846 848
f 849 850 851
f 850 849 852
f 850 852 853
f 853 852 854
f 853 854 855
f 855 854 856
f 856 854 857
f 856 857 858
f 856 858 859
f 859 858 860
f 859 860 861
f 861 860 862
f 861 862 863
f 863 862 864
f 865 866 867
f 866 865 868
f 866 868 869
f 869 868 870
f 869 870 871
f 871 870 872
f 872 870 873
f 872 873 874
f 872 874 875
f 875 874 876
f 875 876 877
f 877 876 878
f 877 878 879
f 879 878 880
f 881 882 883
f 882 881 884
f 882 884 885
f 885 884 886
f 885 886 887
f 887 886 888
f 888 886 889
f 888 889 890
f 888 890 891
f 891 890 892
f 891 892 893
f 893 892 894
f 893 894 895
f 895 894 896
f 897 898 899
f 898 897 900
f 898 900 901
f 901 900 902
f 901 902 903
f 903 902 904
f 904 902 905
f 904 905 906
f 904 906 907
f 907 906 908
f 907 908 909
f 909 908 910
f 909 910 911
f 911 910 912
f 913 914 915
f 914 913 916
f 914 916 917
f 917 916 918
f 917 918 919
f 919 918 920
f 920 918 921
f 920 921 922
f 920 922 923
f 923 922 924
f 923 924 925
f 925 924 926
f 925 926 927
f 927 926 928
f 929 930 931
f 930 929 932
f 930 932 933
f 933 932 934
f 933 934 935
f 935 934 936
f 936 934 937
f 936 937 938
f 936 938 939
f 939 938 940
f 939 940 941
f 941 940 942
f 941 942 943
f 943 942 944
f 945 946 947
f 946 945 948
f 946 948 949
f 949 948 950
f 949 950 951
f 951 950 952
f 952 950 953
f 952 953 954
f 952 954 955
f 955 954 956
f 955 956 957
f 957 956 958
f 957 958 959
f 959 958 960
f 961 962 963
f 962 961 964
f 962 964 965
f 965 964 966
f 963 967 968
f 967 963 962
f 968 967 966
f 968 966 964
f 969 970 971
f 970 969 972
f 970 972 973
f 973 972 974
f 971 975 976
f 975 971 970
f 976 975 974
f 976 974 972
f 977 978 979
f 978 977 980
f 978 980 981
f 981 980 982
f 979 983 984
f 983 979 978
f 984 983 982
f 984 982 980
f 985 986 987
f 986 985 988
f 986 988 989
f 989 988 990
f 987 991 992
f 991 987 986
f 992 991 990
f 992 990 988
f 993 994 995
f 994 993 996
f 994 996 997
f 997 996 998
f 997 998 999
f 999 998 1000
f 1000 998 1001
f 1000 1001 1002
f 1000 1002 1003
f 1003 1002 1004
f 1003 1004 1005
f 1005 1004 1006
f 1005 1006 1007
f 1007 1006 1008
f 1009 1010 1011
f 1010 1009 1012
f 1010 1012 1013
f 1013 1012 1014
f 1013 1014 1015
f 1015 1014 1016
f 1016 1014 1017
f 1016 1017 1018
f 1016 1018 1019
f 1019 1018 1020
f 1019 1020 1021
f 1021 1020 1022
f 1021 1022 1023
f 1023 1022 1024
