v 0.038591 -0.120714 0.675136
v 0.035966 -0.119532 0.674953
v 0.038591 -0.119532 0.674953
v 0.035966 -0.120714 0.675136
v 0.035966 -0.119894 0.680431
v 0.035966 -0.118712 0.680248
v 0.038591 -0.118712 0.680248
v 0.038591 -0.119894 0.680431
v 0.045350 -0.121239 0.675182
v 0.042726 -0.120057 0.674999
v 0.045350 -0.120057 0.674999
v 0.042726 -0.121239 0.675182
v 0.042726 -0.120419 0.680477
v 0.042726 -0.119237 0.680294
v 0.045350 -0.119237 0.680294
v 0.045350 -0.120419 0.680477
v 0.041323 -0.126572 0.676937
v 0.041776 -0.125498 0.680303
v 0.041323 -0.126034 0.680387
v 0.041776 -0.126037 0.676854
v 0.040010 -0.123914 0.680056
v 0.039598 -0.123625 0.676477
v 0.039598 -0.123086 0.679927
v 0.040010 -0.124452 0.676606
v 0.040405 -0.126572 0.676937
v 0.040864 -0.126213 0.680415
v 0.040405 -0.126034 0.680387
v 0.040864 -0.126752 0.676965
v 0.041294 -0.124954 0.676685
v 0.040864 -0.124583 0.680160
v 0.041294 -0.124415 0.680134
v 0.040864 -0.125121 0.676711
v 0.042525 -0.122482 0.676299
v 0.042130 -0.123086 0.679927
v 0.042525 -0.121944 0.679748
v 0.042130 -0.123625 0.676477
v 0.043245 -0.119288 0.675800
v 0.042896 -0.120503 0.679523
v 0.043245 -0.118749 0.679249
v 0.042896 -0.121041 0.676073
v 0.039203 -0.121944 0.679748
v 0.039203 -0.122482 0.676299
v 0.042217 -0.124614 0.680165
v 0.042217 -0.125153 0.676716
v 0.041718 -0.124452 0.676606
v 0.041718 -0.123914 0.680056
v 0.038483 -0.119288 0.675800
v 0.038694 -0.122394 0.676285
v 0.038333 -0.120582 0.676002
v 0.038832 -0.121041 0.676073
v 0.039090 -0.123933 0.676525
v 0.039511 -0.125153 0.676716
v 0.039952 -0.126037 0.676854
v 0.040434 -0.124954 0.676685
v 0.042638 -0.123933 0.676525
v 0.043034 -0.122394 0.676285
v 0.043395 -0.120582 0.676002
v 0.038694 -0.121855 0.679734
v 0.038483 -0.118749 0.679249
v 0.038333 -0.120043 0.679451
v 0.038832 -0.120503 0.679523
v 0.039090 -0.123394 0.679975
v 0.039511 -0.124614 0.680165
v 0.039952 -0.125498 0.680303
v 0.040434 -0.124415 0.680134
v 0.042638 -0.123394 0.679975
v 0.043034 -0.121855 0.679734
v 0.043395 -0.120043 0.679451
v 0.029811 -0.112286 0.664875
v 0.029811 -0.109557 0.674616
v 0.029811 -0.111103 0.664690
v 0.029811 -0.110740 0.674801
v 0.034963 -0.110740 0.674801
v 0.034963 -0.109557 0.674616
v 0.034963 -0.111103 0.664690
v 0.034963 -0.112286 0.664875
v 0.029775 -0.116616 0.639361
v 0.029775 -0.113887 0.649103
v 0.029775 -0.115433 0.639177
v 0.029775 -0.115070 0.649287
v 0.034927 -0.115070 0.649287
v 0.034927 -0.113887 0.649103
v 0.034927 -0.115433 0.639177
v 0.034927 -0.116616 0.639361
v 0.030637 -0.119794 0.655473
v 0.033997 -0.119527 0.653676
v 0.033997 -0.119794 0.655473
v 0.030637 -0.119527 0.653676
v 0.033997 -0.116896 0.660110
v 0.030637 -0.115825 0.661539
v 0.033997 -0.115825 0.661539
v 0.030637 -0.116896 0.660110
v 0.030637 -0.119250 0.658949
v 0.033997 -0.119701 0.657239
v 0.033997 -0.119250 0.658949
v 0.030637 -0.119701 0.657239
v 0.030637 -0.118158 0.655331
v 0.033997 -0.118071 0.656984
v 0.033997 -0.118158 0.655331
v 0.030637 -0.118071 0.656984
v 0.030637 -0.116416 0.650289
v 0.033997 -0.117324 0.651960
v 0.033997 -0.116416 0.650289
v 0.030637 -0.117324 0.651960
v 0.030637 -0.113648 0.647064
v 0.033997 -0.115195 0.648660
v 0.033997 -0.113648 0.647064
v 0.030637 -0.115195 0.648660
v 0.033997 -0.114449 0.662852
v 0.030637 -0.114449 0.662852
v 0.033997 -0.118904 0.651873
v 0.030637 -0.118904 0.651873
v 0.030637 -0.117908 0.653648
v 0.033997 -0.117908 0.653648
v 0.030637 -0.110828 0.665077
v 0.030637 -0.114059 0.664765
v 0.030637 -0.112033 0.665847
v 0.030637 -0.112788 0.664030
v 0.030637 -0.115832 0.663507
v 0.030637 -0.117302 0.662105
v 0.030637 -0.118446 0.660578
v 0.030637 -0.117649 0.658585
v 0.030637 -0.117933 0.650089
v 0.030637 -0.116629 0.648349
v 0.030637 -0.115031 0.646700
v 0.033997 -0.114059 0.664765
v 0.033997 -0.110828 0.665077
v 0.033997 -0.112033 0.665847
v 0.033997 -0.112788 0.664030
v 0.033997 -0.115833 0.663507
v 0.033997 -0.117302 0.662105
v 0.033997 -0.118446 0.660578
v 0.033997 -0.117649 0.658585
v 0.033997 -0.117933 0.650089
v 0.033997 -0.116629 0.648349
v 0.033997 -0.115031 0.646700
f 1 2 3
f 2 1 4
f 5 2 4
f 2 5 6
f 5 7 6
f 7 5 8
f 7 1 3
f 1 7 8
f 2 7 6
f 7 2 3
f 4 8 5
f 8 4 1
f 9 10 11
f 10 9 12
f 13 10 12
f 10 13 14
f 13 15 14
f 15 13 16
f 15 9 11
f 9 15 16
f 10 15 14
f 15 10 11
f 12 16 13
f 16 12 9
f 17 18 19
f 18 17 20
f 21 22 23
f 22 21 24
f 25 26 27
f 26 25 28
f 29 30 31
f 30 29 32
f 33 34 35
f 34 33 36
f 37 38 39
f 38 37 40
f 22 41 23
f 41 22 42
f 20 43 18
f 43 20 44
f 45 31 46
f 31 45 29
f 47 48 49
f 48 47 50
f 48 50 51
f 51 50 42
f 51 42 52
f 52 42 22
f 52 22 53
f 53 22 24
f 53 24 25
f 25 24 54
f 25 54 28
f 28 54 32
f 28 32 29
f 28 29 17
f 17 29 45
f 17 45 20
f 20 45 36
f 20 36 44
f 44 36 33
f 44 33 55
f 55 33 40
f 55 40 56
f 56 40 37
f 56 37 57
f 58 59 60
f 59 58 61
f 61 58 62
f 61 62 41
f 41 62 63
f 41 63 23
f 23 63 64
f 23 64 21
f 21 64 27
f 21 27 65
f 65 27 26
f 65 26 30
f 30 26 31
f 31 26 19
f 31 19 46
f 46 19 18
f 46 18 34
f 34 18 43
f 34 43 35
f 35 43 66
f 35 66 38
f 38 66 67
f 38 67 39
f 39 67 68
f 26 17 19
f 17 26 28
f 44 66 43
f 66 44 55
f 54 21 65
f 21 54 24
f 53 27 64
f 27 53 25
f 32 65 30
f 65 32 54
f 47 60 59
f 60 47 49
f 50 59 61
f 59 50 47
f 55 67 66
f 67 55 56
f 48 62 58
f 62 48 51
f 60 48 58
f 48 60 49
f 63 53 64
f 53 63 52
f 41 50 61
f 50 41 42
f 34 45 46
f 45 34 36
f 67 57 68
f 57 67 56
f 40 35 38
f 35 40 33
f 51 63 62
f 63 51 52
f 39 57 37
f 57 39 68
f 69 70 71
f 70 69 72
f 73 70 72
f 70 73 74
f 73 75 74
f 75 73 76
f 75 69 71
f 69 75 76
f 70 75 74
f 75 70 71
f 72 76 73
f 76 72 69
f 77 78 79
f 78 77 80
f 81 78 80
f 78 81 82
f 81 83 82
f 83 81 84
f 83 77 79
f 77 83 84
f 78 83 82
f 83 78 79
f 80 84 81
f 84 80 77
f 85 86 87
f 86 85 88
f 89 90 91
f 90 89 92
f 93 94 95
f 94 93 96
f 97 98 99
f 98 97 100
f 101 102 103
f 102 101 104
f 105 106 107
f 106 105 108
f 90 109 91
f 109 90 110
f 88 111 86
f 111 88 112
f 113 99 114
f 99 113 97
f 115 116 117
f 116 115 118
f 116 118 119
f 119 118 110
f 119 110 120
f 120 110 90
f 120 90 121
f 121 90 92
f 121 92 93
f 93 92 122
f 93 122 96
f 96 122 100
f 96 100 97
f 96 97 85
f 85 97 113
f 85 113 88
f 88 113 104
f 88 104 112
f 112 104 101
f 112 101 123
f 123 101 108
f 123 108 124
f 124 108 105
f 124 105 125
f 126 127 128
f 127 126 129
f 129 126 130
f 129 130 109
f 109 130 131
f 109 131 91
f 91 131 132
f 91 132 89
f 89 132 95
f 89 95 133
f 133 95 94
f 133 94 98
f 98 94 99
f 99 94 87
f 99 87 114
f 114 87 86
f 114 86 102
f 102 86 111
f 102 111 103
f 103 111 134
f 103 134 106
f 106 134 135
f 106 135 107
f 107 135 136
f 94 85 87
f 85 94 96
f 112 134 111
f 134 112 123
f 122 89 133
f 89 122 92
f 121 95 132
f 95 121 93
f 100 133 98
f 133 100 122
f 115 128 127
f 128 115 117
f 118 127 129
f 127 118 115
f 123 135 134
f 135 123 124
f 116 130 126
f 130 116 119
f 128 116 126
f 116 128 117
f 131 121 132
f 121 131 120
f 109 118 129
f 118 109 110
f 102 113 114
f 113 102 104
f 135 125 136
f 125 135 124
f 108 103 106
f 103 108 101
f 119 131 130
f 131 119 120
f 107 125 105
f 125 107 136
