v 0.031576 -0.112826 0.634001
v 0.031576 -0.112826 0.636974
v 0.031576 -0.113110 0.635488
v 0.031576 -0.112017 0.632741
v 0.031576 -0.112017 0.638234
v 0.031576 -0.110805 0.631899
v 0.031576 -0.110805 0.639076
v 0.031576 -0.109376 0.639372
v 0.031576 -0.109376 0.631603
v 0.031576 -0.107946 0.631899
v 0.031576 -0.107946 0.639076
v 0.031576 -0.106735 0.638234
v 0.031576 -0.106735 0.632741
v 0.031576 -0.105925 0.634001
v 0.031576 -0.105925 0.636974
v 0.031576 -0.105641 0.635488
v 0.028514 -0.112826 0.636974
v 0.028514 -0.112826 0.634001
v 0.028514 -0.113110 0.635488
v 0.028514 -0.112017 0.638234
v 0.028514 -0.112467 0.635488
v 0.028514 -0.112231 0.636718
v 0.028514 -0.111561 0.637761
v 0.028514 -0.110805 0.639076
v 0.028514 -0.110558 0.638458
v 0.028514 -0.109376 0.639372
v 0.028514 -0.109376 0.638702
v 0.028514 -0.107946 0.639076
v 0.028514 -0.108193 0.638458
v 0.028514 -0.107190 0.637761
v 0.028514 -0.106735 0.638234
v 0.028514 -0.106520 0.636718
v 0.028514 -0.105925 0.636974
v 0.028514 -0.106284 0.635488
v 0.028514 -0.112017 0.632741
v 0.028514 -0.112231 0.634257
v 0.028514 -0.111561 0.633214
v 0.028514 -0.110805 0.631899
v 0.028514 -0.110558 0.632517
v 0.028514 -0.109376 0.631603
v 0.028514 -0.109376 0.632273
v 0.028514 -0.108193 0.632517
v 0.028514 -0.107946 0.631899
v 0.028514 -0.107190 0.633214
v 0.028514 -0.106735 0.632741
v 0.028514 -0.106520 0.634257
v 0.028514 -0.105925 0.634001
v 0.028514 -0.105641 0.635488
v 0.029567 -0.110558 0.638458
v 0.029567 -0.111561 0.637761
v 0.029567 -0.109376 0.638702
v 0.029567 -0.108193 0.638458
v 0.029567 -0.107190 0.637761
v 0.029567 -0.106520 0.636718
v 0.029567 -0.106284 0.635488
v 0.029567 -0.106520 0.634257
v 0.029567 -0.107190 0.633214
v 0.029567 -0.108193 0.632517
v 0.029567 -0.109376 0.632273
v 0.029567 -0.110558 0.632517
v 0.029567 -0.111561 0.633214
v 0.029567 -0.112231 0.634257
v 0.029567 -0.112467 0.635488
v 0.029567 -0.112231 0.636718
v 0.031576 -0.105925 0.634001
v 0.028514 -0.105641 0.635488
v 0.031576 -0.105641 0.635488
v 0.028514 -0.105641 0.635488
v 0.031576 -0.105925 0.634001
v 0.028514 -0.105925 0.634001
v 0.031576 -0.106735 0.632741
v 0.028514 -0.105925 0.634001
v 0.031576 -0.105925 0.634001
v 0.028514 -0.105925 0.634001
v 0.031576 -0.106735 0.632741
v 0.028514 -0.106735 0.632741
v 0.028514 -0.107946 0.631899
v 0.031576 -0.106735 0.632741
v 0.031576 -0.107946 0.631899
v 0.031576 -0.106735 0.632741
v 0.028514 -0.107946 0.631899
v 0.028514 -0.106735 0.632741
v 0.028514 -0.109376 0.631603
v 0.031576 -0.107946 0.631899
v 0.031576 -0.109376 0.631603
v 0.031576 -0.107946 0.631899
v 0.028514 -0.109376 0.631603
v 0.028514 -0.107946 0.631899
v 0.031576 -0.110805 0.631899
v 0.028514 -0.109376 0.631603
v 0.031576 -0.109376 0.631603
v 0.028514 -0.109376 0.631603
v 0.031576 -0.110805 0.631899
v 0.028514 -0.110805 0.631899
v 0.028514 -0.112017 0.632741
v 0.031576 -0.110805 0.631899
v 0.031576 -0.112017 0.632741
v 0.031576 -0.110805 0.631899
v 0.028514 -0.112017 0.632741
v 0.028514 -0.110805 0.631899
v 0.028514 -0.112017 0.632741
v 0.031576 -0.112826 0.634001
v 0.028514 -0.112826 0.634001
v 0.031576 -0.112826 0.634001
v 0.028514 -0.112017 0.632741
v 0.031576 -0.112017 0.632741
v 0.028514 -0.112826 0.634001
v 0.031576 -0.113110 0.635488
v 0.028514 -0.113110 0.635488
v 0.031576 -0.113110 0.635488
v 0.028514 -0.112826 0.634001
v 0.031576 -0.112826 0.634001
v 0.028514 -0.113110 0.635488
v 0.031576 -0.112826 0.636974
v 0.028514 -0.112826 0.636974
v 0.031576 -0.112826 0.636974
v 0.028514 -0.113110 0.635488
v 0.031576 -0.113110 0.635488
v 0.028514 -0.112826 0.636974
v 0.031576 -0.112017 0.638234
v 0.028514 -0.112017 0.638234
v 0.031576 -0.112017 0.638234
v 0.028514 -0.112826 0.636974
v 0.031576 -0.112826 0.636974
v 0.028514 -0.110805 0.639076
v 0.031576 -0.112017 0.638234
v 0.031576 -0.110805 0.639076
v 0.031576 -0.112017 0.638234
v 0.028514 -0.110805 0.639076
v 0.028514 -0.112017 0.638234
v 0.028514 -0.109376 0.639372
v 0.031576 -0.110805 0.639076
v 0.031576 -0.109376 0.639372
v 0.031576 -0.110805 0.639076
v 0.028514 -0.109376 0.639372
v 0.028514 -0.110805 0.639076
v 0.031576 -0.107946 0.639076
v 0.028514 -0.109376 0.639372
v 0.031576 -0.109376 0.639372
v 0.028514 -0.109376 0.639372
v 0.031576 -0.107946 0.639076
v 0.028514 -0.107946 0.639076
v 0.028514 -0.106735 0.638234
v 0.031576 -0.107946 0.639076
v 0.031576 -0.106735 0.638234
v 0.031576 -0.107946 0.639076
v 0.028514 -0.106735 0.638234
v 0.028514 -0.107946 0.639076
v 0.031576 -0.105925 0.636974
v 0.028514 -0.106735 0.638234
v 0.031576 -0.106735 0.638234
v 0.028514 -0.106735 0.638234
v 0.031576 -0.105925 0.636974
v 0.028514 -0.105925 0.636974
v 0.031576 -0.105641 0.635488
v 0.028514 -0.105925 0.636974
v 0.031576 -0.105925 0.636974
v 0.028514 -0.105925 0.636974
v 0.031576 -0.105641 0.635488
v 0.028514 -0.105641 0.635488
v 0.028514 -0.111561 0.637761
v 0.028514 -0.111561 0.637761
v 0.028514 -0.110558 0.638458
v 0.029567 -0.110558 0.638458
v 0.028514 -0.109376 0.638702
v 0.028514 -0.109376 0.638702
v 0.029567 -0.110558 0.638458
v 0.028514 -0.110558 0.638458
v 0.028514 -0.109376 0.638702
v 0.029567 -0.109376 0.638702
v 0.028514 -0.109376 0.638702
v 0.028514 -0.108193 0.638458
v 0.028514 -0.108193 0.638458
v 0.029567 -0.108193 0.638458
v 0.028514 -0.108193 0.638458
v 0.028514 -0.107190 0.637761
v 0.028514 -0.106520 0.636718
v 0.029567 -0.107190 0.637761
v 0.028514 -0.107190 0.637761
v 0.029567 -0.107190 0.637761
v 0.028514 -0.106520 0.636718
v 0.028514 -0.106284 0.635488
v 0.029567 -0.106520 0.636718
v 0.028514 -0.106520 0.636718
v 0.029567 -0.106520 0.636718
v 0.028514 -0.106284 0.635488
v 0.028514 -0.106520 0.634257
v 0.029567 -0.106284 0.635488
v 0.028514 -0.106284 0.635488
v 0.029567 -0.106284 0.635488
v 0.028514 -0.106520 0.634257
v 0.028514 -0.107190 0.633214
v 0.029567 -0.106520 0.634257
v 0.028514 -0.106520 0.634257
v 0.029567 -0.106520 0.634257
v 0.028514 -0.107190 0.633214
v 0.028514 -0.107190 0.633214
v 0.029567 -0.107190 0.633214
v 0.028514 -0.107190 0.633214
v 0.028514 -0.108193 0.632517
v 0.028514 -0.108193 0.632517
v 0.029567 -0.108193 0.632517
v 0.028514 -0.108193 0.632517
v 0.028514 -0.109376 0.632273
v 0.028514 -0.109376 0.632273
v 0.029567 -0.109376 0.632273
v 0.028514 -0.109376 0.632273
v 0.028514 -0.110558 0.632517
v 0.029567 -0.110558 0.632517
v 0.028514 -0.111561 0.633214
v 0.028514 -0.111561 0.633214
v 0.029567 -0.110558 0.632517
v 0.028514 -0.110558 0.632517
v 0.029567 -0.111561 0.633214
v 0.028514 -0.112231 0.634257
v 0.028514 -0.112231 0.634257
v 0.029567 -0.111561 0.633214
v 0.028514 -0.111561 0.633214
v 0.029567 -0.112231 0.634257
v 0.028514 -0.112467 0.635488
v 0.028514 -0.112467 0.635488
v 0.029567 -0.112231 0.634257
v 0.028514 -0.112231 0.634257
v 0.029567 -0.112467 0.635488
v 0.028514 -0.112231 0.636718
v 0.028514 -0.112231 0.636718
v 0.029567 -0.112467 0.635488
v 0.028514 -0.112467 0.635488
v 0.029567 -0.112231 0.636718
v 0.028514 -0.111561 0.637761
v 0.029567 -0.111561 0.637761
v 0.028514 -0.111561 0.637761
v 0.029567 -0.112231 0.636718
v 0.028514 -0.112231 0.636718
v 0.035768 -0.116568 0.642965
v 0.035768 -0.116568 0.645938
v 0.036052 -0.116568 0.644451
v 0.034958 -0.116568 0.641705
v 0.034958 -0.116568 0.647198
v 0.033746 -0.116568 0.640863
v 0.033746 -0.116568 0.648040
v 0.032317 -0.116568 0.648336
v 0.032317 -0.116568 0.640567
v 0.030888 -0.116568 0.640863
v 0.030888 -0.116568 0.648040
v 0.029676 -0.116568 0.647198
v 0.029676 -0.116568 0.641705
v 0.028867 -0.116568 0.642965
v 0.028867 -0.116568 0.645938
v 0.028582 -0.116568 0.644451
v 0.035768 -0.119629 0.645938
v 0.035768 -0.119629 0.642965
v 0.036052 -0.119629 0.644451
v 0.034958 -0.119629 0.647198
v 0.035408 -0.119629 0.644451
v 0.035173 -0.119629 0.645682
v 0.034503 -0.119629 0.646725
v 0.033746 -0.119629 0.648040
v 0.033500 -0.119629 0.647422
v 0.032317 -0.119629 0.648336
v 0.032317 -0.119629 0.647666
v 0.030888 -0.119629 0.648040
v 0.031134 -0.119629 0.647422
v 0.030131 -0.119629 0.646725
v 0.029676 -0.119629 0.647198
v 0.029461 -0.119629 0.645682
v 0.028867 -0.119629 0.645938
v 0.029226 -0.119629 0.644451
v 0.034958 -0.119629 0.641705
v 0.035173 -0.119629 0.643221
v 0.034503 -0.119629 0.642178
v 0.033746 -0.119629 0.640863
v 0.033500 -0.119629 0.641481
v 0.032317 -0.119629 0.640567
v 0.032317 -0.119629 0.641237
v 0.031134 -0.119629 0.641481
v 0.030888 -0.119629 0.640863
v 0.030131 -0.119629 0.642178
v 0.029676 -0.119629 0.641705
v 0.029461 -0.119629 0.643221
v 0.028867 -0.119629 0.642965
v 0.028582 -0.119629 0.644451
v 0.033500 -0.118577 0.647422
v 0.034503 -0.118577 0.646725
v 0.032317 -0.118577 0.647666
v 0.031134 -0.118577 0.647422
v 0.030131 -0.118577 0.646725
v 0.029461 -0.118577 0.645682
v 0.029226 -0.118577 0.644451
v 0.029461 -0.118577 0.643221
v 0.030131 -0.118577 0.642178
v 0.031134 -0.118577 0.641481
v 0.032317 -0.118577 0.641237
v 0.033500 -0.118577 0.641481
v 0.034503 -0.118577 0.642178
v 0.035173 -0.118577 0.643221
v 0.035408 -0.118577 0.644451
v 0.035173 -0.118577 0.645682
v 0.028867 -0.116568 0.642965
v 0.028582 -0.119629 0.644451
v 0.028582 -0.116568 0.644451
v 0.028582 -0.119629 0.644451
v 0.028867 -0.116568 0.642965
v 0.028867 -0.119629 0.642965
v 0.029676 -0.116568 0.641705
v 0.028867 -0.119629 0.642965
v 0.028867 -0.116568 0.642965
v 0.028867 -0.119629 0.642965
v 0.029676 -0.116568 0.641705
v 0.029676 -0.119629 0.641705
v 0.030888 -0.119629 0.640863
v 0.029676 -0.116568 0.641705
v 0.030888 -0.116568 0.640863
v 0.029676 -0.116568 0.641705
v 0.030888 -0.119629 0.640863
v 0.029676 -0.119629 0.641705
v 0.032317 -0.119629 0.640567
v 0.030888 -0.116568 0.640863
v 0.032317 -0.116568 0.640567
v 0.030888 -0.116568 0.640863
v 0.032317 -0.119629 0.640567
v 0.030888 -0.119629 0.640863
v 0.033746 -0.116568 0.640863
v 0.032317 -0.119629 0.640567
v 0.032317 -0.116568 0.640567
v 0.032317 -0.119629 0.640567
v 0.033746 -0.116568 0.640863
v 0.033746 -0.119629 0.640863
v 0.034958 -0.119629 0.641705
v 0.033746 -0.116568 0.640863
v 0.034958 -0.116568 0.641705
v 0.033746 -0.116568 0.640863
v 0.034958 -0.119629 0.641705
v 0.033746 -0.119629 0.640863
v 0.034958 -0.119629 0.641705
v 0.035768 -0.116568 0.642965
v 0.035768 -0.119629 0.642965
v 0.035768 -0.116568 0.642965
v 0.034958 -0.119629 0.641705
v 0.034958 -0.116568 0.641705
v 0.035768 -0.119629 0.642965
v 0.036052 -0.116568 0.644451
v 0.036052 -0.119629 0.644451
v 0.036052 -0.116568 0.644451
v 0.035768 -0.119629 0.642965
v 0.035768 -0.116568 0.642965
v 0.036052 -0.119629 0.644451
v 0.035768 -0.116568 0.645938
v 0.035768 -0.119629 0.645938
v 0.035768 -0.116568 0.645938
v 0.036052 -0.119629 0.644451
v 0.036052 -0.116568 0.644451
v 0.035768 -0.119629 0.645938
v 0.034958 -0.116568 0.647198
v 0.034958 -0.119629 0.647198
v 0.034958 -0.116568 0.647198
v 0.035768 -0.119629 0.645938
v 0.035768 -0.116568 0.645938
v 0.033746 -0.119629 0.648040
v 0.034958 -0.116568 0.647198
v 0.033746 -0.116568 0.648040
v 0.034958 -0.116568 0.647198
v 0.033746 -0.119629 0.648040
v 0.034958 -0.119629 0.647198
v 0.032317 -0.119629 0.648336
v 0.033746 -0.116568 0.648040
v 0.032317 -0.116568 0.648336
v 0.033746 -0.116568 0.648040
v 0.032317 -0.119629 0.648336
v 0.033746 -0.119629 0.648040
v 0.030888 -0.116568 0.648040
v 0.032317 -0.119629 0.648336
v 0.032317 -0.116568 0.648336
v 0.032317 -0.119629 0.648336
v 0.030888 -0.116568 0.648040
v 0.030888 -0.119629 0.648040
v 0.029676 -0.119629 0.647198
v 0.030888 -0.116568 0.648040
v 0.029676 -0.116568 0.647198
v 0.030888 -0.116568 0.648040
v 0.029676 -0.119629 0.647198
v 0.030888 -0.119629 0.648040
v 0.028867 -0.116568 0.645938
v 0.029676 -0.119629 0.647198
v 0.029676 -0.116568 0.647198
v 0.029676 -0.119629 0.647198
v 0.028867 -0.116568 0.645938
v 0.028867 -0.119629 0.645938
v 0.028582 -0.116568 0.644451
v 0.028867 -0.119629 0.645938
v 0.028867 -0.116568 0.645938
v 0.028867 -0.119629 0.645938
v 0.028582 -0.116568 0.644451
v 0.028582 -0.119629 0.644451
v 0.034503 -0.119629 0.646725
v 0.034503 -0.119629 0.646725
v 0.033500 -0.119629 0.647422
v 0.033500 -0.118577 0.647422
v 0.032317 -0.119629 0.647666
v 0.032317 -0.119629 0.647666
v 0.033500 -0.118577 0.647422
v 0.033500 -0.119629 0.647422
v 0.032317 -0.119629 0.647666
v 0.032317 -0.118577 0.647666
v 0.032317 -0.119629 0.647666
v 0.031134 -0.119629 0.647422
v 0.031134 -0.119629 0.647422
v 0.031134 -0.118577 0.647422
v 0.031134 -0.119629 0.647422
v 0.030131 -0.119629 0.646725
v 0.029461 -0.119629 0.645682
v 0.030131 -0.118577 0.646725
v 0.030131 -0.119629 0.646725
v 0.030131 -0.118577 0.646725
v 0.029461 -0.119629 0.645682
v 0.029226 -0.119629 0.644451
v 0.029461 -0.118577 0.645682
v 0.029461 -0.119629 0.645682
v 0.029461 -0.118577 0.645682
v 0.029226 -0.119629 0.644451
v 0.029461 -0.119629 0.643221
v 0.029226 -0.118577 0.644451
v 0.029226 -0.119629 0.644451
v 0.029226 -0.118577 0.644451
v 0.029461 -0.119629 0.643221
v 0.030131 -0.119629 0.642178
v 0.029461 -0.118577 0.643221
v 0.029461 -0.119629 0.643221
v 0.029461 -0.118577 0.643221
v 0.030131 -0.119629 0.642178
v 0.030131 -0.119629 0.642178
v 0.030131 -0.118577 0.642178
v 0.030131 -0.119629 0.642178
v 0.031134 -0.119629 0.641481
v 0.031134 -0.119629 0.641481
v 0.031134 -0.118577 0.641481
v 0.031134 -0.119629 0.641481
v 0.032317 -0.119629 0.641237
v 0.032317 -0.119629 0.641237
v 0.032317 -0.118577 0.641237
v 0.032317 -0.119629 0.641237
v 0.033500 -0.119629 0.641481
v 0.033500 -0.118577 0.641481
v 0.034503 -0.119629 0.642178
v 0.034503 -0.119629 0.642178
v 0.033500 -0.118577 0.641481
v 0.033500 -0.119629 0.641481
v 0.034503 -0.118577 0.642178
v 0.035173 -0.119629 0.643221
v 0.035173 -0.119629 0.643221
v 0.034503 -0.118577 0.642178
v 0.034503 -0.119629 0.642178
v 0.035173 -0.118577 0.643221
v 0.035408 -0.119629 0.644451
v 0.035408 -0.119629 0.644451
v 0.035173 -0.118577 0.643221
v 0.035173 -0.119629 0.643221
v 0.035408 -0.118577 0.644451
v 0.035173 -0.119629 0.645682
v 0.035173 -0.119629 0.645682
v 0.035408 -0.118577 0.644451
v 0.035408 -0.119629 0.644451
v 0.035173 -0.118577 0.645682
v 0.034503 -0.119629 0.646725
v 0.034503 -0.118577 0.646725
v 0.034503 -0.119629 0.646725
v 0.035173 -0.118577 0.645682
v 0.035173 -0.119629 0.645682
f 1 2 3
f 2 1 4
f 2 4 5
f 5 4 6
f 5 6 7
f 7 6 8
f 8 6 9
f 8 9 10
f 8 10 11
f 11 10 12
f 12 10 13
f 12 13 14
f 12 14 15
f 15 14 16
f 17 18 19
f 18 17 20
f 18 20 21
f 21 20 22
f 22 20 23
f 23 20 24
f 23 24 25
f 25 24 26
f 25 26 27
f 27 26 28
f 27 28 29
f 29 28 30
f 30 28 31
f 30 31 32
f 32 31 33
f 32 33 34
f 21 35 18
f 35 21 36
f 35 36 37
f 35 37 38
f 38 37 39
f 38 39 40
f 40 39 41
f 40 41 42
f 40 42 43
f 43 42 44
f 43 44 45
f 45 44 46
f 45 46 47
f 47 46 34
f 47 34 33
f 47 33 48
f 65 66 67
f 68 69 70
f 71 72 73
f 74 75 76
f 77 78 79
f 80 81 82
f 83 84 85
f 86 87 88
f 89 90 91
f 92 93 94
f 95 96 97
f 98 99 100
f 101 102 103
f 104 105 106
f 107 108 109
f 110 111 112
f 113 114 115
f 116 117 118
f 119 120 121
f 122 123 124
f 125 126 127
f 128 129 130
f 131 132 133
f 134 135 136
f 137 138 139
f 140 141 142
f 143 144 145
f 146 147 148
f 149 150 151
f 152 153 154
f 155 156 157
f 158 159 160
f 161 49 50
f 49 162 163
f 164 165 51
f 166 167 168
f 169 52 170
f 52 171 172
f 173 53 174
f 53 175 176
f 177 178 179
f 180 181 54
f 182 183 184
f 185 186 55
f 187 188 189
f 190 191 56
f 192 193 194
f 195 196 57
f 197 58 198
f 58 199 200
f 201 59 202
f 59 203 204
f 205 60 206
f 60 207 208
f 209 210 61
f 211 212 213
f 214 215 62
f 216 217 218
f 219 220 63
f 221 222 223
f 224 225 64
f 226 227 228
f 229 230 231
f 232 233 234
f 235 236 237
f 236 235 238
f 236 238 239
f 239 238 240
f 239 240 241
f 241 240 242
f 242 240 243
f 242 243 244
f 242 244 245
f 245 244 246
f 246 244 247
f 246 247 248
f 246 248 249
f 249 248 250
f 251 252 253
f 252 251 254
f 252 254 255
f 255 254 256
f 256 254 257
f 257 254 258
f 257 258 259
f 259 258 260
f 259 260 261
f 261 260 262
f 261 262 263
f 263 262 264
f 264 262 265
f 264 265 266
f 266 265 267
f 266 267 268
f 255 269 252
f 269 255 270
f 269 270 271
f 269 271 272
f 272 271 273
f 272 273 274
f 274 273 275
f 274 275 276
f 274 276 277
f 277 276 278
f 277 278 279
f 279 278 280
f 279 280 281
f 281 280 268
f 281 268 267
f 281 267 282
f 299 300 301
f 302 303 304
f 305 306 307
f 308 309 310
f 311 312 313
f 314 315 316
f 317 318 319
f 320 321 322
f 323 324 325
f 326 327 328
f 329 330 331
f 332 333 334
f 335 336 337
f 338 339 340
f 341 342 343
f 344 345 346
f 347 348 349
f 350 351 352
f 353 354 355
f 356 357 358
f 359 360 361
f 362 363 364
f 365 366 367
f 368 369 370
f 371 372 373
f 374 375 376
f 377 378 379
f 380 381 382
f 383 384 385
f 386 387 388
f 389 390 391
f 392 393 394
f 395 283 284
f 283 396 397
f 398 399 285
f 400 401 402
f 403 286 404
f 286 405 406
f 407 287 408
f 287 409 410
f 411 412 413
f 414 415 288
f 416 417 418
f 419 420 289
f 421 422 423
f 424 425 290
f 426 427 428
f 429 430 291
f 431 292 432
f 292 433 434
f 435 293 436
f 293 437 438
f 439 294 440
f 294 441 442
f 443 444 295
f 445 446 447
f 448 449 296
f 450 451 452
f 453 454 297
f 455 456 457
f 458 459 298
f 460 461 462
f 463 464 465
f 466 467 468
