v -0.426199 -0.158225 0.494456
v -0.421539 -0.157826 0.494456
v -0.423817 -0.158634 0.494456
v -0.428048 -0.156710 0.494456
v -0.419976 -0.156018 0.494456
v -0.428867 -0.154493 0.494456
v -0.419546 -0.153694 0.494456
v -0.428437 -0.152170 0.494456
v -0.420365 -0.151478 0.494456
v -0.426874 -0.150362 0.494456
v -0.422213 -0.149962 0.494456
v -0.424595 -0.149554 0.494456
v -0.427580 -0.149374 0.514840
v -0.427699 -0.149207 0.512491
v -0.427699 -0.149207 0.500201
v -0.425510 -0.148431 0.509220
v -0.421182 -0.158326 0.495665
v -0.426466 -0.158779 0.495665
v -0.423765 -0.159242 0.495665
v -0.419409 -0.156276 0.495665
v -0.428562 -0.157060 0.495665
v -0.418922 -0.153641 0.495665
v -0.429491 -0.154547 0.495665
v -0.419850 -0.151128 0.495665
v -0.429004 -0.151912 0.495665
v -0.421503 -0.149772 0.495665
v -0.427231 -0.149862 0.495665
v -0.421946 -0.149409 0.495665
v -0.424648 -0.148946 0.495665
v -0.424716 -0.148149 0.512009
v -0.424716 -0.148149 0.512491
v -0.424716 -0.148149 0.500201
v -0.423867 -0.148295 0.512491
v -0.421596 -0.148684 0.500201
v -0.421596 -0.148684 0.502039
v -0.424698 -0.148352 0.497853
v -0.427580 -0.149374 0.497853
v -0.421685 -0.148869 0.497853
v -0.421171 -0.149033 0.512491
v -0.420664 -0.149449 0.500201
v -0.420948 -0.149473 0.497853
v -0.414555 -0.149391 0.494514
v -0.409894 -0.148991 0.494514
v -0.412172 -0.149799 0.494514
v -0.416403 -0.147875 0.494514
v -0.408331 -0.147183 0.494514
v -0.417222 -0.145659 0.494514
v -0.407901 -0.144860 0.494514
v -0.416792 -0.143335 0.494514
v -0.408720 -0.142643 0.494514
v -0.415229 -0.141527 0.494514
v -0.410568 -0.141128 0.494514
v -0.412951 -0.140719 0.494514
v -0.415935 -0.140539 0.514898
v -0.416054 -0.140373 0.512550
v -0.416054 -0.140373 0.500259
v -0.413865 -0.139596 0.509279
v -0.409537 -0.149491 0.495723
v -0.414822 -0.149944 0.495723
v -0.412120 -0.150407 0.495723
v -0.407764 -0.147441 0.495723
v -0.416917 -0.148226 0.495723
v -0.407277 -0.144806 0.495723
v -0.417846 -0.145712 0.495723
v -0.408205 -0.142293 0.495723
v -0.417359 -0.143077 0.495723
v -0.409858 -0.140937 0.495723
v -0.415586 -0.141027 0.495723
v -0.410301 -0.140574 0.495723
v -0.413003 -0.140111 0.495723
v -0.413071 -0.139315 0.512067
v -0.413071 -0.139315 0.512550
v -0.413071 -0.139315 0.500259
v -0.412222 -0.139460 0.512550
v -0.409952 -0.139849 0.500259
v -0.409952 -0.139849 0.502097
v -0.413054 -0.139517 0.497911
v -0.415935 -0.140539 0.497911
v -0.410041 -0.140034 0.497911
v -0.409526 -0.140199 0.512550
v -0.409019 -0.140614 0.500259
v -0.409303 -0.140638 0.497911
v -0.388554 -0.129601 0.494514
v -0.383893 -0.129202 0.494514
v -0.386171 -0.130010 0.494514
v -0.390402 -0.128086 0.494514
v -0.382330 -0.127394 0.494514
v -0.391221 -0.125869 0.494514
v -0.381900 -0.125070 0.494514
v -0.390791 -0.123546 0.494514
v -0.382719 -0.122854 0.494514
v -0.389228 -0.121738 0.494514
v -0.384568 -0.121338 0.494514
v -0.386950 -0.120930 0.494514
v -0.389934 -0.120750 0.514898
v -0.390053 -0.120583 0.512550
v -0.390053 -0.120583 0.500259
v -0.387864 -0.119807 0.509279
v -0.383536 -0.129702 0.495723
v -0.388821 -0.130155 0.495723
v -0.386119 -0.130618 0.495723
v -0.381763 -0.127651 0.495723
v -0.390917 -0.128436 0.495723
v -0.381276 -0.125017 0.495723
v -0.391845 -0.125923 0.495723
v -0.382205 -0.122503 0.495723
v -0.391358 -0.123288 0.495723
v -0.383858 -0.121148 0.495723
v -0.389585 -0.121238 0.495723
v -0.384301 -0.120785 0.495723
v -0.387002 -0.120322 0.495723
v -0.387070 -0.119525 0.512067
v -0.387070 -0.119525 0.512550
v -0.387070 -0.119525 0.500259
v -0.386221 -0.119671 0.512550
v -0.383951 -0.120060 0.500259
v -0.383951 -0.120060 0.502097
v -0.387053 -0.119728 0.497911
v -0.389934 -0.120750 0.497911
v -0.384040 -0.120244 0.497911
v -0.383525 -0.120409 0.512550
v -0.383019 -0.120824 0.500259
v -0.383303 -0.120849 0.497911
v -0.377042 -0.121356 0.494514
v -0.372382 -0.120957 0.494514
v -0.374660 -0.121765 0.494514
v -0.378891 -0.119841 0.494514
v -0.370819 -0.119149 0.494514
v -0.379710 -0.117624 0.494514
v -0.370389 -0.116825 0.494514
v -0.379280 -0.115301 0.494514
v -0.371208 -0.114609 0.494514
v -0.377717 -0.113493 0.494514
v -0.373056 -0.113093 0.494514
v -0.375439 -0.112685 0.494514
v -0.378423 -0.112505 0.514898
v -0.378542 -0.112338 0.512550
v -0.378542 -0.112338 0.500259
v -0.376353 -0.111562 0.509279
v -0.372025 -0.121456 0.495723
v -0.377309 -0.121910 0.495723
v -0.374608 -0.122373 0.495723
v -0.370252 -0.119406 0.495723
v -0.379405 -0.120191 0.495723
v -0.369765 -0.116772 0.495723
v -0.380334 -0.117678 0.495723
v -0.370693 -0.114258 0.495723
v -0.379847 -0.115043 0.495723
v -0.372346 -0.112903 0.495723
v -0.378074 -0.112993 0.495723
v -0.372789 -0.112540 0.495723
v -0.375491 -0.112076 0.495723
v -0.375559 -0.111280 0.512067
v -0.375559 -0.111280 0.512550
v -0.375559 -0.111280 0.500259
v -0.374710 -0.111426 0.512550
v -0.372440 -0.111815 0.500259
v -0.372440 -0.111815 0.502097
v -0.375542 -0.111483 0.497911
v -0.378423 -0.112505 0.497911
v -0.372529 -0.111999 0.497911
v -0.372014 -0.112164 0.512550
v -0.371507 -0.112579 0.500259
v -0.371791 -0.112604 0.497911
v -0.402110 -0.139431 0.494514
v -0.397450 -0.139031 0.494514
v -0.399728 -0.139839 0.494514
v -0.403959 -0.137915 0.494514
v -0.395886 -0.137223 0.494514
v -0.404778 -0.135699 0.494514
v -0.395457 -0.134900 0.494514
v -0.404348 -0.133375 0.494514
v -0.396276 -0.132683 0.494514
v -0.402784 -0.131567 0.494514
v -0.398124 -0.131168 0.494514
v -0.400506 -0.130759 0.494514
v -0.403491 -0.130579 0.514898
v -0.403610 -0.130412 0.512550
v -0.403610 -0.130412 0.500259
v -0.401421 -0.129636 0.509279
v -0.397093 -0.139531 0.495723
v -0.402377 -0.139984 0.495723
v -0.399676 -0.140447 0.495723
v -0.395320 -0.137481 0.495723
v -0.404473 -0.138265 0.495723
v -0.394832 -0.134846 0.495723
v -0.405402 -0.135752 0.495723
v -0.395761 -0.132333 0.495723
v -0.404915 -0.133117 0.495723
v -0.397414 -0.130977 0.495723
v -0.403142 -0.131067 0.495723
v -0.397857 -0.130614 0.495723
v -0.400559 -0.130151 0.495723
v -0.400627 -0.129354 0.512067
v -0.400627 -0.129354 0.512550
v -0.400627 -0.129354 0.500259
v -0.399778 -0.129500 0.512550
v -0.397507 -0.129889 0.500259
v -0.397507 -0.129889 0.502097
v -0.400609 -0.129557 0.497911
v -0.403491 -0.130579 0.497911
v -0.397596 -0.130074 0.497911
v -0.397082 -0.130238 0.512550
v -0.396575 -0.130654 0.500259
v -0.396859 -0.130678 0.497911
v -0.260485 0.014814 0.490685
v -0.257703 0.018574 0.490685
v -0.258603 0.016331 0.490685
v -0.262844 0.014430 0.490685
v -0.258025 0.020942 0.490685
v -0.265049 0.015281 0.490685
v -0.259484 0.022801 0.490685
v -0.266507 0.017140 0.490685
v -0.261688 0.023653 0.490685
v -0.266830 0.019508 0.490685
v -0.264047 0.023269 0.490685
v -0.265929 0.021752 0.490685
v -0.268038 0.019632 0.511069
v -0.268241 0.019653 0.508721
v -0.268241 0.019653 0.496431
v -0.267376 0.021808 0.505450
v -0.257092 0.018511 0.491895
v -0.260247 0.014248 0.491895
v -0.258113 0.015968 0.491895
v -0.257457 0.021197 0.491895
v -0.262922 0.013812 0.491895
v -0.259111 0.023305 0.491895
v -0.265421 0.014777 0.491895
v -0.261611 0.024270 0.491895
v -0.267075 0.016885 0.491895
v -0.263721 0.023927 0.491895
v -0.267441 0.019571 0.491895
v -0.264286 0.023835 0.491895
v -0.266420 0.022115 0.491895
v -0.267062 0.022590 0.508239
v -0.267062 0.022590 0.508721
v -0.267062 0.022590 0.496431
v -0.266392 0.023131 0.508721
v -0.264598 0.024576 0.496431
v -0.264598 0.024576 0.498269
v -0.266899 0.022469 0.494083
v -0.268038 0.019632 0.494083
v -0.264519 0.024388 0.494083
v -0.264055 0.024665 0.508721
v -0.263408 0.024770 0.496431
v -0.263578 0.024541 0.494083
v -0.259412 0.029391 0.490744
v -0.256629 0.033151 0.490744
v -0.257530 0.030908 0.490744
v -0.261771 0.029007 0.490744
v -0.256952 0.035520 0.490744
v -0.263975 0.029859 0.490744
v -0.258410 0.037379 0.490744
v -0.265434 0.031718 0.490744
v -0.260615 0.038230 0.490744
v -0.265756 0.034086 0.490744
v -0.262974 0.037846 0.490744
v -0.264856 0.036329 0.490744
v -0.266964 0.034210 0.511128
v -0.267168 0.034231 0.508779
v -0.267168 0.034231 0.496489
v -0.266302 0.036386 0.505508
v -0.256018 0.033089 0.491953
v -0.259173 0.028825 0.491953
v -0.257039 0.030545 0.491953
v -0.256384 0.035774 0.491953
v -0.261848 0.028389 0.491953
v -0.258038 0.037882 0.491953
v -0.264348 0.029355 0.491953
v -0.260537 0.038848 0.491953
v -0.266002 0.031463 0.491953
v -0.262647 0.038504 0.491953
v -0.266367 0.034149 0.491953
v -0.263212 0.038412 0.491953
v -0.265346 0.036692 0.491953
v -0.265989 0.037168 0.508297
v -0.265989 0.037168 0.508779
v -0.265989 0.037168 0.496489
v -0.265318 0.037708 0.508779
v -0.263525 0.039154 0.496489
v -0.263525 0.039154 0.498327
v -0.265825 0.037047 0.494141
v -0.266964 0.034210 0.494141
v -0.263445 0.038965 0.494141
v -0.262981 0.039242 0.508779
v -0.262335 0.039348 0.496489
v -0.262504 0.039118 0.494141
v -0.257061 0.061982 0.490744
v -0.254279 0.065742 0.490744
v -0.255179 0.063499 0.490744
v -0.259420 0.061598 0.490744
v -0.254601 0.068110 0.490744
v -0.261624 0.062449 0.490744
v -0.256060 0.069969 0.490744
v -0.263083 0.064308 0.490744
v -0.258264 0.070821 0.490744
v -0.263405 0.066676 0.490744
v -0.260623 0.070436 0.490744
v -0.262505 0.068920 0.490744
v -0.264614 0.066800 0.511128
v -0.264817 0.066821 0.508779
v -0.264817 0.066821 0.496489
v -0.263952 0.068976 0.505508
v -0.253668 0.065679 0.491953
v -0.256823 0.061416 0.491953
v -0.254689 0.063136 0.491953
v -0.254033 0.068365 0.491953
v -0.259498 0.060980 0.491953
v -0.255687 0.070473 0.491953
v -0.261997 0.061945 0.491953
v -0.258187 0.071438 0.491953
v -0.263651 0.064053 0.491953
v -0.260296 0.071095 0.491953
v -0.264017 0.066739 0.491953
v -0.260862 0.071003 0.491953
v -0.262996 0.069283 0.491953
v -0.263638 0.069758 0.508297
v -0.263638 0.069758 0.508779
v -0.263638 0.069758 0.496489
v -0.262968 0.070299 0.508779
v -0.261174 0.071744 0.496489
v -0.261174 0.071744 0.498327
v -0.263475 0.069637 0.494141
v -0.264614 0.066800 0.494141
v -0.261095 0.071556 0.494141
v -0.260631 0.071833 0.508779
v -0.259984 0.071938 0.496489
v -0.260154 0.071709 0.494141
v -0.255633 0.076069 0.490744
v -0.252851 0.079829 0.490744
v -0.253751 0.077586 0.490744
v -0.257992 0.075685 0.490744
v -0.253173 0.082198 0.490744
v -0.260197 0.076536 0.490744
v -0.254632 0.084057 0.490744
v -0.261655 0.078395 0.490744
v -0.256836 0.084908 0.490744
v -0.261978 0.080764 0.490744
v -0.259195 0.084524 0.490744
v -0.261077 0.083007 0.490744
v -0.263186 0.080887 0.511128
v -0.263389 0.080908 0.508779
v -0.263389 0.080908 0.496489
v -0.262524 0.083064 0.505508
v -0.252240 0.079767 0.491953
v -0.255395 0.075503 0.491953
v -0.253261 0.077223 0.491953
v -0.252605 0.082452 0.491953
v -0.258070 0.075067 0.491953
v -0.254259 0.084560 0.491953
v -0.260569 0.076033 0.491953
v -0.256759 0.085526 0.491953
v -0.262223 0.078141 0.491953
v -0.258869 0.085182 0.491953
v -0.262589 0.080826 0.491953
v -0.259434 0.085090 0.491953
v -0.261568 0.083370 0.491953
v -0.262210 0.083845 0.508297
v -0.262210 0.083845 0.508779
v -0.262210 0.083845 0.496489
v -0.261540 0.084386 0.508779
v -0.259746 0.085832 0.496489
v -0.259746 0.085832 0.498327
v -0.262047 0.083724 0.494141
v -0.263186 0.080887 0.494141
v -0.259667 0.085643 0.494141
v -0.259203 0.085920 0.508779
v -0.258556 0.086025 0.496489
v -0.258726 0.085796 0.494141
v -0.258653 0.045313 0.490744
v -0.255871 0.049073 0.490744
v -0.256771 0.046830 0.490744
v -0.261012 0.044928 0.490744
v -0.256193 0.051441 0.490744
v -0.263216 0.045780 0.490744
v -0.257652 0.053300 0.490744
v -0.264675 0.047639 0.490744
v -0.259856 0.054152 0.490744
v -0.264997 0.050007 0.490744
v -0.262215 0.053767 0.490744
v -0.264097 0.052250 0.490744
v -0.266206 0.050131 0.511128
v -0.266409 0.050152 0.508779
v -0.266409 0.050152 0.496489
v -0.265544 0.052307 0.505508
v -0.255260 0.049010 0.491953
v -0.258415 0.044746 0.491953
v -0.256281 0.046467 0.491953
v -0.255625 0.051696 0.491953
v -0.261090 0.044311 0.491953
v -0.257279 0.053804 0.491953
v -0.263589 0.045276 0.491953
v -0.259779 0.054769 0.491953
v -0.265243 0.047384 0.491953
v -0.261888 0.054426 0.491953
v -0.265609 0.050070 0.491953
v -0.262454 0.054334 0.491953
v -0.264588 0.052613 0.491953
v -0.265230 0.053089 0.508297
v -0.265230 0.053089 0.508779
v -0.265230 0.053089 0.496489
v -0.264560 0.053629 0.508779
v -0.262766 0.055075 0.496489
v -0.262766 0.055075 0.498327
v -0.265067 0.052968 0.494141
v -0.266206 0.050131 0.494141
v -0.262687 0.054887 0.494141
v -0.262223 0.055164 0.508779
v -0.261576 0.055269 0.496489
v -0.261746 0.055040 0.494141
v -0.447850 -0.109035 0.494456
v -0.443498 -0.110749 0.494456
v -0.445897 -0.110460 0.494456
v -0.448831 -0.106856 0.494456
v -0.441293 -0.109825 0.494456
v -0.448580 -0.104506 0.494456
v -0.439875 -0.107935 0.494456
v -0.447161 -0.102616 0.494456
v -0.439623 -0.105585 0.494456
v -0.444957 -0.101692 0.494456
v -0.440605 -0.103406 0.494456
v -0.442557 -0.101981 0.494456
v -0.445150 -0.100493 0.514840
v -0.445183 -0.100291 0.512491
v -0.445183 -0.100291 0.500201
v -0.442877 -0.100568 0.509220
v -0.443400 -0.111356 0.495665
v -0.448335 -0.109412 0.495665
v -0.446121 -0.111028 0.495665
v -0.440900 -0.110308 0.495665
v -0.449448 -0.106941 0.495665
v -0.439292 -0.108164 0.495665
v -0.449162 -0.104276 0.495665
v -0.439007 -0.105500 0.495665
v -0.447554 -0.102133 0.495665
v -0.439885 -0.103551 0.495665
v -0.445055 -0.101085 0.495665
v -0.440120 -0.103029 0.495665
v -0.442334 -0.101413 0.495665
v -0.442041 -0.100669 0.512009
v -0.442041 -0.100669 0.512491
v -0.442041 -0.100669 0.500201
v -0.441345 -0.101177 0.512491
v -0.439485 -0.102535 0.500201
v -0.439485 -0.102535 0.502039
v -0.442115 -0.100858 0.497853
v -0.445150 -0.100493 0.497853
v -0.439646 -0.102661 0.497853
v -0.439258 -0.103037 0.512491
v -0.438989 -0.103634 0.500201
v -0.439255 -0.103530 0.497853
v -0.433491 -0.106299 0.494514
v -0.429139 -0.108013 0.494514
v -0.431539 -0.107724 0.494514
v -0.434473 -0.104120 0.494514
v -0.426935 -0.107089 0.494514
v -0.434221 -0.101770 0.494514
v -0.425517 -0.105199 0.494514
v -0.432803 -0.099880 0.494514
v -0.425265 -0.102849 0.494514
v -0.430599 -0.098956 0.494514
v -0.426247 -0.100670 0.494514
v -0.428199 -0.099245 0.494514
v -0.430792 -0.097757 0.514898
v -0.430824 -0.097555 0.512550
v -0.430824 -0.097555 0.500259
v -0.428518 -0.097833 0.509279
v -0.429041 -0.108620 0.495723
v -0.433976 -0.106676 0.495723
v -0.431763 -0.108292 0.495723
v -0.426542 -0.107572 0.495723
v -0.435090 -0.104205 0.495723
v -0.424934 -0.105429 0.495723
v -0.434804 -0.101541 0.495723
v -0.424648 -0.102764 0.495723
v -0.433196 -0.099397 0.495723
v -0.425526 -0.100815 0.495723
v -0.430696 -0.098349 0.495723
v -0.425761 -0.100293 0.495723
v -0.427975 -0.098677 0.495723
v -0.427682 -0.097933 0.512067
v -0.427682 -0.097933 0.512550
v -0.427682 -0.097933 0.500259
v -0.426986 -0.098441 0.512550
v -0.425126 -0.099799 0.500259
v -0.425126 -0.099799 0.502097
v -0.427757 -0.098123 0.497911
v -0.430792 -0.097757 0.497911
v -0.425287 -0.099925 0.497911
v -0.424900 -0.100302 0.512550
v -0.424631 -0.100899 0.500259
v -0.424896 -0.100794 0.497911
v -0.401403 -0.100134 0.494514
v -0.397051 -0.101849 0.494514
v -0.399451 -0.101560 0.494514
v -0.402385 -0.097955 0.494514
v -0.394847 -0.100924 0.494514
v -0.402133 -0.095606 0.494514
v -0.393429 -0.099034 0.494514
v -0.400715 -0.093715 0.494514
v -0.393177 -0.096685 0.494514
v -0.398510 -0.092791 0.494514
v -0.394158 -0.094505 0.494514
v -0.396111 -0.093080 0.494514
v -0.398704 -0.091592 0.514898
v -0.398736 -0.091390 0.512550
v -0.398736 -0.091390 0.500259
v -0.396430 -0.091668 0.509279
v -0.396953 -0.102455 0.495723
v -0.401888 -0.100511 0.495723
v -0.399674 -0.102127 0.495723
v -0.394454 -0.101407 0.495723
v -0.403001 -0.098040 0.495723
v -0.392846 -0.099264 0.495723
v -0.402716 -0.095376 0.495723
v -0.392560 -0.096600 0.495723
v -0.401108 -0.093233 0.495723
v -0.393438 -0.094651 0.495723
v -0.398608 -0.092185 0.495723
v -0.393673 -0.094128 0.495723
v -0.395887 -0.092512 0.495723
v -0.395594 -0.091769 0.512067
v -0.395594 -0.091769 0.512550
v -0.395594 -0.091769 0.500259
v -0.394898 -0.092277 0.512550
v -0.393038 -0.093635 0.500259
v -0.393038 -0.093635 0.502097
v -0.395668 -0.091958 0.497911
v -0.398704 -0.091592 0.497911
v -0.393199 -0.093760 0.497911
v -0.392811 -0.094137 0.512550
v -0.392542 -0.094734 0.500259
v -0.392808 -0.094629 0.497911
v -0.387426 -0.097867 0.494514
v -0.383074 -0.099582 0.494514
v -0.385474 -0.099293 0.494514
v -0.388408 -0.095688 0.494514
v -0.380870 -0.098657 0.494514
v -0.388156 -0.093339 0.494514
v -0.379452 -0.096767 0.494514
v -0.386738 -0.091449 0.494514
v -0.379200 -0.094418 0.494514
v -0.384533 -0.090524 0.494514
v -0.380181 -0.092239 0.494514
v -0.382134 -0.090813 0.494514
v -0.384727 -0.089325 0.514898
v -0.384759 -0.089123 0.512550
v -0.384759 -0.089123 0.500259
v -0.382453 -0.089401 0.509279
v -0.382976 -0.100188 0.495723
v -0.387911 -0.098244 0.495723
v -0.385697 -0.099860 0.495723
v -0.380477 -0.099140 0.495723
v -0.389024 -0.095773 0.495723
v -0.378869 -0.096997 0.495723
v -0.388739 -0.093109 0.495723
v -0.378583 -0.094333 0.495723
v -0.387131 -0.090966 0.495723
v -0.379461 -0.092384 0.495723
v -0.384631 -0.089918 0.495723
v -0.379696 -0.091862 0.495723
v -0.381910 -0.090245 0.495723
v -0.381617 -0.089502 0.512067
v -0.381617 -0.089502 0.512550
v -0.381617 -0.089502 0.500259
v -0.380921 -0.090010 0.512550
v -0.379061 -0.091368 0.500259
v -0.379061 -0.091368 0.502097
v -0.381691 -0.089691 0.497911
v -0.384727 -0.089325 0.497911
v -0.379222 -0.091493 0.497911
v -0.378835 -0.091870 0.512550
v -0.378566 -0.092467 0.500259
v -0.378831 -0.092363 0.497911
v -0.417916 -0.102911 0.494514
v -0.413564 -0.104625 0.494514
v -0.415964 -0.104336 0.494514
v -0.418898 -0.100732 0.494514
v -0.411360 -0.103701 0.494514
v -0.418646 -0.098382 0.494514
v -0.409942 -0.101811 0.494514
v -0.417228 -0.096492 0.494514
v -0.409690 -0.099461 0.494514
v -0.415023 -0.095568 0.494514
v -0.410671 -0.097282 0.494514
v -0.412624 -0.095857 0.494514
v -0.415217 -0.094369 0.514898
v -0.415249 -0.094167 0.512550
v -0.415249 -0.094167 0.500259
v -0.412943 -0.094444 0.509279
v -0.413466 -0.105232 0.495723
v -0.418401 -0.103288 0.495723
v -0.416187 -0.104904 0.495723
v -0.410967 -0.104184 0.495723
v -0.419514 -0.100817 0.495723
v -0.409359 -0.102040 0.495723
v -0.419229 -0.098152 0.495723
v -0.409073 -0.099376 0.495723
v -0.417621 -0.096009 0.495723
v -0.409951 -0.097427 0.495723
v -0.415121 -0.094961 0.495723
v -0.410186 -0.096905 0.495723
v -0.412400 -0.095289 0.495723
v -0.412107 -0.094545 0.512067
v -0.412107 -0.094545 0.512550
v -0.412107 -0.094545 0.500259
v -0.411411 -0.095053 0.512550
v -0.409551 -0.096411 0.500259
v -0.409551 -0.096411 0.502097
v -0.412182 -0.094734 0.497911
v -0.415217 -0.094369 0.497911
v -0.409712 -0.096537 0.497911
v -0.409325 -0.096913 0.512550
v -0.409056 -0.097510 0.500259
v -0.409321 -0.097406 0.497911
v -0.219253 -0.007498 0.490685
v -0.214580 -0.007286 0.490685
v -0.216889 -0.008002 0.490685
v -0.221039 -0.005910 0.490685
v -0.212945 -0.005542 0.490685
v -0.221768 -0.003662 0.490685
v -0.212423 -0.003238 0.490685
v -0.221245 -0.001358 0.490685
v -0.213152 -0.000990 0.490685
v -0.219611 0.000386 0.490685
v -0.214938 0.000598 0.490685
v -0.217302 0.001102 0.490685
v -0.220277 0.001402 0.511069
v -0.220389 0.001573 0.508721
v -0.220389 0.001573 0.496431
v -0.218171 0.002261 0.505450
v -0.214243 -0.007800 0.491895
v -0.219542 -0.008041 0.491895
v -0.216861 -0.008612 0.491895
v -0.212389 -0.005823 0.491895
v -0.221567 -0.006239 0.491895
v -0.211797 -0.003209 0.491895
v -0.222394 -0.003691 0.491895
v -0.212624 -0.000661 0.491895
v -0.221801 -0.001078 0.491895
v -0.214221 0.000760 0.491895
v -0.219948 0.000900 0.491895
v -0.214649 0.001140 0.491895
v -0.217330 0.001712 0.491895
v -0.217366 0.002510 0.508239
v -0.217366 0.002510 0.508721
v -0.217366 0.002510 0.496431
v -0.216524 0.002331 0.508721
v -0.214271 0.001851 0.496431
v -0.214271 0.001851 0.498269
v -0.217357 0.002307 0.494083
v -0.220277 0.001402 0.494083
v -0.214367 0.001670 0.494083
v -0.213859 0.001485 0.508721
v -0.213370 0.001049 0.496431
v -0.213655 0.001036 0.494083
v -0.207263 0.000862 0.490744
v -0.202590 0.001074 0.490744
v -0.204899 0.000358 0.490744
v -0.209049 0.002451 0.490744
v -0.200955 0.002818 0.490744
v -0.209778 0.004698 0.490744
v -0.200433 0.005123 0.490744
v -0.209255 0.007003 0.490744
v -0.201162 0.007370 0.490744
v -0.207621 0.008746 0.490744
v -0.202948 0.008959 0.490744
v -0.205312 0.009462 0.490744
v -0.208287 0.009762 0.511128
v -0.208399 0.009933 0.508779
v -0.208399 0.009933 0.496489
v -0.206181 0.010621 0.505508
v -0.202253 0.000560 0.491953
v -0.207552 0.000320 0.491953
v -0.204871 -0.000251 0.491953
v -0.200399 0.002538 0.491953
v -0.209577 0.002121 0.491953
v -0.199807 0.005151 0.491953
v -0.210404 0.004670 0.491953
v -0.200634 0.007700 0.491953
v -0.209811 0.007283 0.491953
v -0.202231 0.009120 0.491953
v -0.207958 0.009260 0.491953
v -0.202659 0.009501 0.491953
v -0.205340 0.010072 0.491953
v -0.205376 0.010871 0.508297
v -0.205376 0.010871 0.508779
v -0.205376 0.010871 0.496489
v -0.204534 0.010691 0.508779
v -0.202281 0.010211 0.496489
v -0.202281 0.010211 0.498327
v -0.205367 0.010668 0.494141
v -0.208287 0.009762 0.494141
v -0.202377 0.010030 0.494141
v -0.201869 0.009845 0.508779
v -0.201380 0.009410 0.496489
v -0.201665 0.009397 0.494141
v -0.180489 0.019592 0.490744
v -0.175816 0.019804 0.490744
v -0.178125 0.019088 0.490744
v -0.182275 0.021181 0.490744
v -0.174181 0.021548 0.490744
v -0.183004 0.023428 0.490744
v -0.173659 0.023853 0.490744
v -0.182481 0.025733 0.490744
v -0.174388 0.026100 0.490744
v -0.180847 0.027476 0.490744
v -0.176174 0.027689 0.490744
v -0.178538 0.028192 0.490744
v -0.181513 0.028492 0.511128
v -0.181625 0.028663 0.508779
v -0.181625 0.028663 0.496489
v -0.179407 0.029351 0.505508
v -0.175479 0.019291 0.491953
v -0.180778 0.019050 0.491953
v -0.178097 0.018479 0.491953
v -0.173625 0.021268 0.491953
v -0.182803 0.020851 0.491953
v -0.173033 0.023881 0.491953
v -0.183630 0.023400 0.491953
v -0.173860 0.026430 0.491953
v -0.183037 0.026013 0.491953
v -0.175457 0.027850 0.491953
v -0.181184 0.027990 0.491953
v -0.175885 0.028231 0.491953
v -0.178566 0.028802 0.491953
v -0.178602 0.029601 0.508297
v -0.178602 0.029601 0.508779
v -0.178602 0.029601 0.496489
v -0.177760 0.029421 0.508779
v -0.175507 0.028941 0.496489
v -0.175507 0.028941 0.498327
v -0.178593 0.029398 0.494141
v -0.181513 0.028492 0.494141
v -0.175603 0.028760 0.494141
v -0.175095 0.028575 0.508779
v -0.174606 0.028140 0.496489
v -0.174891 0.028127 0.494141
v -0.168656 0.027369 0.490744
v -0.163983 0.027581 0.490744
v -0.166292 0.026865 0.490744
v -0.170442 0.028957 0.490744
v -0.162348 0.029325 0.490744
v -0.171171 0.031205 0.490744
v -0.161826 0.031629 0.490744
v -0.170648 0.033509 0.490744
v -0.162555 0.033877 0.490744
v -0.169014 0.035253 0.490744
v -0.164341 0.035465 0.490744
v -0.166705 0.035969 0.490744
v -0.169680 0.036269 0.511128
v -0.169792 0.036440 0.508779
v -0.169792 0.036440 0.496489
v -0.167574 0.037128 0.505508
v -0.163646 0.027067 0.491953
v -0.168945 0.026826 0.491953
v -0.166264 0.026255 0.491953
v -0.161793 0.029044 0.491953
v -0.170970 0.028628 0.491953
v -0.161200 0.031657 0.491953
v -0.171797 0.031176 0.491953
v -0.162027 0.034206 0.491953
v -0.171204 0.033789 0.491953
v -0.163624 0.035627 0.491953
v -0.169351 0.035767 0.491953
v -0.164052 0.036007 0.491953
v -0.166733 0.036579 0.491953
v -0.166769 0.037377 0.508297
v -0.166769 0.037377 0.508779
v -0.166769 0.037377 0.496489
v -0.165927 0.037198 0.508779
v -0.163674 0.036718 0.496489
v -0.163674 0.036718 0.498327
v -0.166760 0.037174 0.494141
v -0.169680 0.036269 0.494141
v -0.163770 0.036537 0.494141
v -0.163262 0.036352 0.508779
v -0.162773 0.035916 0.496489
v -0.163058 0.035903 0.494141
v -0.194429 0.010315 0.490744
v -0.189756 0.010527 0.490744
v -0.192065 0.009811 0.490744
v -0.196215 0.011903 0.490744
v -0.188121 0.012271 0.490744
v -0.196944 0.014151 0.490744
v -0.187599 0.014575 0.490744
v -0.196422 0.016455 0.490744
v -0.188328 0.016823 0.490744
v -0.194787 0.018199 0.490744
v -0.190114 0.018411 0.490744
v -0.192478 0.018915 0.490744
v -0.195453 0.019215 0.511128
v -0.195565 0.019386 0.508779
v -0.195565 0.019386 0.496489
v -0.193347 0.020074 0.505508
v -0.189419 0.010013 0.491953
v -0.194718 0.009773 0.491953
v -0.192037 0.009201 0.491953
v -0.187566 0.011991 0.491953
v -0.196743 0.011574 0.491953
v -0.186973 0.014604 0.491953
v -0.197570 0.014122 0.491953
v -0.187800 0.017152 0.491953
v -0.196977 0.016736 0.491953
v -0.189397 0.018573 0.491953
v -0.195124 0.018713 0.491953
v -0.189825 0.018954 0.491953
v -0.192506 0.019525 0.491953
v -0.192542 0.020323 0.508297
v -0.192542 0.020323 0.508779
v -0.192542 0.020323 0.496489
v -0.191700 0.020144 0.508779
v -0.189447 0.019664 0.496489
v -0.189447 0.019664 0.498327
v -0.192533 0.020120 0.494141
v -0.195453 0.019215 0.494141
v -0.189543 0.019483 0.494141
v -0.189035 0.019298 0.508779
v -0.188546 0.018862 0.496489
v -0.188831 0.018850 0.494141
v -0.400817 -0.065319 0.493829
v -0.396465 -0.067033 0.493829
v -0.398865 -0.066744 0.493829
v -0.401799 -0.063139 0.493829
v -0.394261 -0.066109 0.493829
v -0.401547 -0.060790 0.493829
v -0.392843 -0.064219 0.493829
v -0.400129 -0.058900 0.493829
v -0.392591 -0.061869 0.493829
v -0.397925 -0.057975 0.493829
v -0.393573 -0.059690 0.493829
v -0.395525 -0.058265 0.493829
v -0.398118 -0.056776 0.514213
v -0.398151 -0.056574 0.511865
v -0.398151 -0.056574 0.499575
v -0.395845 -0.056852 0.508594
v -0.396368 -0.067640 0.495038
v -0.401303 -0.065696 0.495038
v -0.399089 -0.067312 0.495038
v -0.393868 -0.066591 0.495038
v -0.402416 -0.063224 0.495038
v -0.392260 -0.064448 0.495038
v -0.402130 -0.060560 0.495038
v -0.391974 -0.061784 0.495038
v -0.400522 -0.058417 0.495038
v -0.392852 -0.059835 0.495038
v -0.398023 -0.057369 0.495038
v -0.393088 -0.059313 0.495038
v -0.395301 -0.057697 0.495038
v -0.395008 -0.056953 0.511382
v -0.395008 -0.056953 0.511865
v -0.395008 -0.056953 0.499575
v -0.394313 -0.057461 0.511865
v -0.392452 -0.058819 0.499575
v -0.392452 -0.058819 0.501412
v -0.395083 -0.057142 0.497226
v -0.398118 -0.056776 0.497226
v -0.392614 -0.058945 0.497226
v -0.392226 -0.059321 0.511865
v -0.391957 -0.059918 0.499575
v -0.392222 -0.059814 0.497226
f 1 2 3
f 2 1 4
f 2 4 5
f 5 4 6
f 5 6 7
f 7 6 8
f 7 8 9
f 9 8 10
f 9 10 11
f 11 10 12
f 13 14 15
f 15 16 13
f 17 18 19
f 18 17 20
f 18 20 21
f 21 20 22
f 21 22 23
f 23 22 24
f 23 24 25
f 25 24 26
f 25 26 27
f 27 26 28
f 27 28 29
f 16 30 31
f 30 16 32
f 32 16 15
f 33 34 35
f 34 33 32
f 32 33 30
f 15 36 32
f 36 15 37
f 36 28 38
f 28 36 29
f 36 27 29
f 27 36 37
f 32 38 34
f 38 32 36
f 39 34 40
f 34 39 35
f 34 41 40
f 41 34 38
f 38 26 41
f 26 38 28
f 42 43 44
f 43 42 45
f 43 45 46
f 46 45 47
f 46 47 48
f 48 47 49
f 48 49 50
f 50 49 51
f 50 51 52
f 52 51 53
f 54 55 56
f 56 57 54
f 58 59 60
f 59 58 61
f 59 61 62
f 62 61 63
f 62 63 64
f 64 63 65
f 64 65 66
f 66 65 67
f 66 67 68
f 68 67 69
f 68 69 70
f 57 71 72
f 71 57 73
f 73 57 56
f 74 75 76
f 75 74 73
f 73 74 71
f 56 77 73
f 77 56 78
f 77 69 79
f 69 77 70
f 77 68 70
f 68 77 78
f 73 79 75
f 79 73 77
f 80 75 81
f 75 80 76
f 75 82 81
f 82 75 79
f 79 67 82
f 67 79 69
f 83 84 85
f 84 83 86
f 84 86 87
f 87 86 88
f 87 88 89
f 89 88 90
f 89 90 91
f 91 90 92
f 91 92 93
f 93 92 94
f 95 96 97
f 97 98 95
f 99 100 101
f 100 99 102
f 100 102 103
f 103 102 104
f 103 104 105
f 105 104 106
f 105 106 107
f 107 106 108
f 107 108 109
f 109 108 110
f 109 110 111
f 98 112 113
f 112 98 114
f 114 98 97
f 115 116 117
f 116 115 114
f 114 115 112
f 97 118 114
f 118 97 119
f 118 110 120
f 110 118 111
f 118 109 111
f 109 118 119
f 114 120 116
f 120 114 118
f 121 116 122
f 116 121 117
f 116 123 122
f 123 116 120
f 120 108 123
f 108 120 110
f 124 125 126
f 125 124 127
f 125 127 128
f 128 127 129
f 128 129 130
f 130 129 131
f 130 131 132
f 132 131 133
f 132 133 134
f 134 133 135
f 136 137 138
f 138 139 136
f 140 141 142
f 141 140 143
f 141 143 144
f 144 143 145
f 144 145 146
f 146 145 147
f 146 147 148
f 148 147 149
f 148 149 150
f 150 149 151
f 150 151 152
f 139 153 154
f 153 139 155
f 155 139 138
f 156 157 158
f 157 156 155
f 155 156 153
f 138 159 155
f 159 138 160
f 159 151 161
f 151 159 152
f 159 150 152
f 150 159 160
f 155 161 157
f 161 155 159
f 162 157 163
f 157 162 158
f 157 164 163
f 164 157 161
f 161 149 164
f 149 161 151
f 165 166 167
f 166 165 168
f 166 168 169
f 169 168 170
f 169 170 171
f 171 170 172
f 171 172 173
f 173 172 174
f 173 174 175
f 175 174 176
f 177 178 179
f 179 180 177
f 181 182 183
f 182 181 184
f 182 184 185
f 185 184 186
f 185 186 187
f 187 186 188
f 187 188 189
f 189 188 190
f 189 190 191
f 191 190 192
f 191 192 193
f 180 194 195
f 194 180 196
f 196 180 179
f 197 198 199
f 198 197 196
f 196 197 194
f 179 200 196
f 200 179 201
f 200 192 202
f 192 200 193
f 200 191 193
f 191 200 201
f 196 202 198
f 202 196 200
f 203 198 204
f 198 203 199
f 198 205 204
f 205 198 202
f 202 190 205
f 190 202 192
f 206 207 208
f 207 206 209
f 207 209 210
f 210 209 211
f 210 211 212
f 212 211 213
f 212 213 214
f 214 213 215
f 214 215 216
f 216 215 217
f 218 219 220
f 220 221 218
f 222 223 224
f 223 222 225
f 223 225 226
f 226 225 227
f 226 227 228
f 228 227 229
f 228 229 230
f 230 229 231
f 230 231 232
f 232 231 233
f 232 233 234
f 221 235 236
f 235 221 237
f 237 221 220
f 238 239 240
f 239 238 237
f 237 238 235
f 220 241 237
f 241 220 242
f 241 233 243
f 233 241 234
f 241 232 234
f 232 241 242
f 237 243 239
f 243 237 241
f 244 239 245
f 239 244 240
f 239 246 245
f 246 239 243
f 243 231 246
f 231 243 233
f 247 248 249
f 248 247 250
f 248 250 251
f 251 250 252
f 251 252 253
f 253 252 254
f 253 254 255
f 255 254 256
f 255 256 257
f 257 256 258
f 259 260 261
f 261 262 259
f 263 264 265
f 264 263 266
f 264 266 267
f 267 266 268
f 267 268 269
f 269 268 270
f 269 270 271
f 271 270 272
f 271 272 273
f 273 272 274
f 273 274 275
f 262 276 277
f 276 262 278
f 278 262 261
f 279 280 281
f 280 279 278
f 278 279 276
f 261 282 278
f 282 261 283
f 282 274 284
f 274 282 275
f 282 273 275
f 273 282 283
f 278 284 280
f 284 278 282
f 285 280 286
f 280 285 281
f 280 287 286
f 287 280 284
f 284 272 287
f 272 284 274
f 288 289 290
f 289 288 291
f 289 291 292
f 292 291 293
f 292 293 294
f 294 293 295
f 294 295 296
f 296 295 297
f 296 297 298
f 298 297 299
f 300 301 302
f 302 303 300
f 304 305 306
f 305 304 307
f 305 307 308
f 308 307 309
f 308 309 310
f 310 309 311
f 310 311 312
f 312 311 313
f 312 313 314
f 314 313 315
f 314 315 316
f 303 317 318
f 317 303 319
f 319 303 302
f 320 321 322
f 321 320 319
f 319 320 317
f 302 323 319
f 323 302 324
f 323 315 325
f 315 323 316
f 323 314 316
f 314 323 324
f 319 325 321
f 325 319 323
f 326 321 327
f 321 326 322
f 321 328 327
f 328 321 325
f 325 313 328
f 313 325 315
f 329 330 331
f 330 329 332
f 330 332 333
f 333 332 334
f 333 334 335
f 335 334 336
f 335 336 337
f 337 336 338
f 337 338 339
f 339 338 340
f 341 342 343
f 343 344 341
f 345 346 347
f 346 345 348
f 346 348 349
f 349 348 350
f 349 350 351
f 351 350 352
f 351 352 353
f 353 352 354
f 353 354 355
f 355 354 356
f 355 356 357
f 344 358 359
f 358 344 360
f 360 344 343
f 361 362 363
f 362 361 360
f 360 361 358
f 343 364 360
f 364 343 365
f 364 356 366
f 356 364 357
f 364 355 357
f 355 364 365
f 360 366 362
f 366 360 364
f 367 362 368
f 362 367 363
f 362 369 368
f 369 362 366
f 366 354 369
f 354 366 356
f 370 371 372
f 371 370 373
f 371 373 374
f 374 373 375
f 374 375 376
f 376 375 377
f 376 377 378
f 378 377 379
f 378 379 380
f 380 379 381
f 382 383 384
f 384 385 382
f 386 387 388
f 387 386 389
f 387 389 390
f 390 389 391
f 390 391 392
f 392 391 393
f 392 393 394
f 394 393 395
f 394 395 396
f 396 395 397
f 396 397 398
f 385 399 400
f 399 385 401
f 401 385 384
f 402 403 404
f 403 402 401
f 401 402 399
f 384 405 401
f 405 384 406
f 405 397 407
f 397 405 398
f 405 396 398
f 396 405 406
f 401 407 403
f 407 401 405
f 408 403 409
f 403 408 404
f 403 410 409
f 410 403 407
f 407 395 410
f 395 407 397
f 411 412 413
f 412 411 414
f 412 414 415
f 415 414 416
f 415 416 417
f 417 416 418
f 417 418 419
f 419 418 420
f 419 420 421
f 421 420 422
f 423 424 425
f 425 426 423
f 427 428 429
f 428 427 430
f 428 430 431
f 431 430 432
f 431 432 433
f 433 432 434
f 433 434 435
f 435 434 436
f 435 436 437
f 437 436 438
f 437 438 439
f 426 440 441
f 440 426 442
f 442 426 425
f 443 444 445
f 444 443 442
f 442 443 440
f 425 446 442
f 446 425 447
f 446 438 448
f 438 446 439
f 446 437 439
f 437 446 447
f 442 448 444
f 448 442 446
f 449 444 450
f 444 449 445
f 444 451 450
f 451 444 448
f 448 436 451
f 436 448 438
f 452 453 454
f 453 452 455
f 453 455 456
f 456 455 457
f 456 457 458
f 458 457 459
f 458 459 460
f 460 459 461
f 460 461 462
f 462 461 463
f 464 465 466
f 466 467 464
f 468 469 470
f 469 468 471
f 469 471 472
f 472 471 473
f 472 473 474
f 474 473 475
f 474 475 476
f 476 475 477
f 476 477 478
f 478 477 479
f 478 479 480
f 467 481 482
f 481 467 483
f 483 467 466
f 484 485 486
f 485 484 483
f 483 484 481
f 466 487 483
f 487 466 488
f 487 479 489
f 479 487 480
f 487 478 480
f 478 487 488
f 483 489 485
f 489 483 487
f 490 485 491
f 485 490 486
f 485 492 491
f 492 485 489
f 489 477 492
f 477 489 479
f 493 494 495
f 494 493 496
f 494 496 497
f 497 496 498
f 497 498 499
f 499 498 500
f 499 500 501
f 501 500 502
f 501 502 503
f 503 502 504
f 505 506 507
f 507 508 505
f 509 510 511
f 510 509 512
f 510 512 513
f 513 512 514
f 513 514 515
f 515 514 516
f 515 516 517
f 517 516 518
f 517 518 519
f 519 518 520
f 519 520 521
f 508 522 523
f 522 508 524
f 524 508 507
f 525 526 527
f 526 525 524
f 524 525 522
f 507 528 524
f 528 507 529
f 528 520 530
f 520 528 521
f 528 519 521
f 519 528 529
f 524 530 526
f 530 524 528
f 531 526 532
f 526 531 527
f 526 533 532
f 533 526 530
f 530 518 533
f 518 530 520
f 534 535 536
f 535 534 537
f 535 537 538
f 538 537 539
f 538 539 540
f 540 539 541
f 540 541 542
f 542 541 543
f 542 543 544
f 544 543 545
f 546 547 548
f 548 549 546
f 550 551 552
f 551 550 553
f 551 553 554
f 554 553 555
f 554 555 556
f 556 555 557
f 556 557 558
f 558 557 559
f 558 559 560
f 560 559 561
f 560 561 562
f 549 563 564
f 563 549 565
f 565 549 548
f 566 567 568
f 567 566 565
f 565 566 563
f 548 569 565
f 569 548 570
f 569 561 571
f 561 569 562
f 569 560 562
f 560 569 570
f 565 571 567
f 571 565 569
f 572 567 573
f 567 572 568
f 567 574 573
f 574 567 571
f 571 559 574
f 559 571 561
f 575 576 577
f 576 575 578
f 576 578 579
f 579 578 580
f 579 580 581
f 581 580 582
f 581 582 583
f 583 582 584
f 583 584 585
f 585 584 586
f 587 588 589
f 589 590 587
f 591 592 593
f 592 591 594
f 592 594 595
f 595 594 596
f 595 596 597
f 597 596 598
f 597 598 599
f 599 598 600
f 599 600 601
f 601 600 602
f 601 602 603
f 590 604 605
f 604 590 606
f 606 590 589
f 607 608 609
f 608 607 606
f 606 607 604
f 589 610 606
f 610 589 611
f 610 602 612
f 602 610 603
f 610 601 603
f 601 610 611
f 606 612 608
f 612 606 610
f 613 608 614
f 608 613 609
f 608 615 614
f 615 608 612
f 612 600 615
f 600 612 602
f 616 617 618
f 617 616 619
f 617 619 620
f 620 619 621
f 620 621 622
f 622 621 623
f 622 623 624
f 624 623 625
f 624 625 626
f 626 625 627
f 628 629 630
f 630 631 628
f 632 633 634
f 633 632 635
f 633 635 636
f 636 635 637
f 636 637 638
f 638 637 639
f 638 639 640
f 640 639 641
f 640 641 642
f 642 641 643
f 642 643 644
f 631 645 646
f 645 631 647
f 647 631 630
f 648 649 650
f 649 648 647
f 647 648 645
f 630 651 647
f 651 630 652
f 651 643 653
f 643 651 644
f 651 642 644
f 642 651 652
f 647 653 649
f 653 647 651
f 654 649 655
f 649 654 650
f 649 656 655
f 656 649 653
f 653 641 656
f 641 653 643
f 657 658 659
f 658 657 660
f 658 660 661
f 661 660 662
f 661 662 663
f 663 662 664
f 663 664 665
f 665 664 666
f 665 666 667
f 667 666 668
f 669 670 671
f 671 672 669
f 673 674 675
f 674 673 676
f 674 676 677
f 677 676 678
f 677 678 679
f 679 678 680
f 679 680 681
f 681 680 682
f 681 682 683
f 683 682 684
f 683 684 685
f 672 686 687
f 686 672 688
f 688 672 671
f 689 690 691
f 690 689 688
f 688 689 686
f 671 692 688
f 692 671 693
f 692 684 694
f 684 692 685
f 692 683 685
f 683 692 693
f 688 694 690
f 694 688 692
f 695 690 696
f 690 695 691
f 690 697 696
f 697 690 694
f 694 682 697
f 682 694 684
f 698 699 700
f 699 698 701
f 699 701 702
f 702 701 703
f 702 703 704
f 704 703 705
f 704 705 706
f 706 705 707
f 706 707 708
f 708 707 709
f 710 711 712
f 712 713 710
f 714 715 716
f 715 714 717
f 715 717 718
f 718 717 719
f 718 719 720
f 720 719 721
f 720 721 722
f 722 721 723
f 722 723 724
f 724 723 725
f 724 725 726
f 713 727 728
f 727 713 729
f 729 713 712
f 730 731 732
f 731 730 729
f 729 730 727
f 712 733 729
f 733 712 734
f 733 725 735
f 725 733 726
f 733 724 726
f 724 733 734
f 729 735 731
f 735 729 733
f 736 731 737
f 731 736 732
f 731 738 737
f 738 731 735
f 735 723 738
f 723 735 725
f 739 740 741
f 740 739 742
f 740 742 743
f 743 742 744
f 743 744 745
f 745 744 746
f 745 746 747
f 747 746 748
f 747 748 749
f 749 748 750
f 751 752 753
f 753 754 751
f 755 756 757
f 756 755 758
f 756 758 759
f 759 758 760
f 759 760 761
f 761 760 762
f 761 762 763
f 763 762 764
f 763 764 765
f 765 764 766
f 765 766 767
f 754 768 769
f 768 754 770
f 770 754 753
f 771 772 773
f 772 771 770
f 770 771 768
f 753 774 770
f 774 753 775
f 774 766 776
f 766 774 767
f 774 765 767
f 765 774 775
f 770 776 772
f 776 770 774
f 777 772 778
f 772 777 773
f 772 779 778
f 779 772 776
f 776 764 779
f 764 776 766
f 780 781 782
f 781 780 783
f 781 783 784
f 784 783 785
f 784 785 786
f 786 785 787
f 786 787 788
f 788 787 789
f 788 789 790
f 790 789 791
f 792 793 794
f 794 795 792
f 796 797 798
f 797 796 799
f 797 799 800
f 800 799 801
f 800 801 802
f 802 801 803
f 802 803 804
f 804 803 805
f 804 805 806
f 806 805 807
f 806 807 808
f 795 809 810
f 809 795 811
f 811 795 794
f 812 813 814
f 813 812 811
f 811 812 809
f 794 815 811
f 815 794 816
f 815 807 817
f 807 815 808
f 815 806 808
f 806 815 816
f 811 817 813
f 817 811 815
f 818 813 819
f 813 818 814
f 813 820 819
f 820 813 817
f 817 805 820
f 805 817 807
f 821 822 823
f 822 821 824
f 822 824 825
f 825 824 826
f 825 826 827
f 827 826 828
f 827 828 829
f 829 828 830
f 829 830 831
f 831 830 832
f 833 834 835
f 835 836 833
f 837 838 839
f 838 837 840
f 838 840 841
f 841 840 842
f 841 842 843
f 843 842 844
f 843 844 845
f 845 844 846
f 845 846 847
f 847 846 848
f 847 848 849
f 836 850 851
f 850 836 852
f 852 836 835
f 853 854 855
f 854 853 852
f 852 853 850
f 835 856 852
f 856 835 857
f 856 848 858
f 848 856 849
f 856 847 849
f 847 856 857
f 852 858 854
f 858 852 856
f 859 854 860
f 854 859 855
f 854 861 860
f 861 854 858
f 858 846 861
f 846 858 848
