v -0.381081 -0.232602 0.132463
v -0.388559 -0.236950 0.132463
v -0.388559 -0.232602 0.132463
v -0.381081 -0.236950 0.132463
v -0.388559 -0.232602 0.136729
v -0.388559 -0.236950 0.136729
v -0.392269 -0.232602 0.132463
v -0.399746 -0.236950 0.132463
v -0.399746 -0.232602 0.132463
v -0.392269 -0.236950 0.132463
v -0.431284 -0.236950 0.132463
v -0.431284 -0.232602 0.136729
v -0.431284 -0.236950 0.136729
v -0.431284 -0.232602 0.132463
v -0.392269 -0.236950 0.136729
v -0.399746 -0.236950 0.136729
v -0.381081 -0.236950 0.136729
v -0.438761 -0.236950 0.132463
v -0.438761 -0.236950 0.136729
v -0.381081 -0.232602 0.136729
v -0.399746 -0.232602 0.136729
v -0.406600 -0.236950 0.136729
v -0.414078 -0.232602 0.136729
v -0.414078 -0.236950 0.136729
v -0.406600 -0.232602 0.136729
v -0.406600 -0.236950 0.132463
v -0.406600 -0.232602 0.132463
v -0.414078 -0.236950 0.132463
v -0.414078 -0.232602 0.132463
v -0.438761 -0.232602 0.136729
v -0.438761 -0.232602 0.132463
v -0.406134 -0.232602 0.131998
v -0.414544 -0.232602 0.131998
v -0.406134 -0.232602 0.137195
v -0.414544 -0.232602 0.137195
v -0.451648 -0.232602 0.136729
v -0.451648 -0.236950 0.132463
v -0.451648 -0.236950 0.136729
v -0.451648 -0.232602 0.132463
v -0.419586 -0.236950 0.136729
v -0.427064 -0.236950 0.132463
v -0.419586 -0.236950 0.132463
v -0.427064 -0.236950 0.136729
v -0.443705 -0.232602 0.131998
v -0.444170 -0.232602 0.132463
v -0.452114 -0.232602 0.131998
v -0.443705 -0.232602 0.137195
v -0.444170 -0.232602 0.136729
v -0.452114 -0.232602 0.137195
v -0.444170 -0.236950 0.132463
v -0.444170 -0.236950 0.136729
v -0.430818 -0.232602 0.131998
v -0.439227 -0.232602 0.131998
v -0.430818 -0.232602 0.137195
v -0.439227 -0.232602 0.137195
v -0.380615 -0.232602 0.131998
v -0.389025 -0.232602 0.131998
v -0.380615 -0.232602 0.137195
v -0.389025 -0.232602 0.137195
v -0.392269 -0.232602 0.136729
v -0.427064 -0.232602 0.136729
v -0.427064 -0.232602 0.132463
v -0.419120 -0.232602 0.131998
v -0.419586 -0.232602 0.132463
v -0.427530 -0.232602 0.131998
v -0.419120 -0.232602 0.137195
v -0.419586 -0.232602 0.136729
v -0.427530 -0.232602 0.137195
v -0.389950 -0.232602 0.158345
v -0.389654 -0.232602 0.149123
v -0.389589 -0.232602 0.149124
v -0.391803 -0.232602 0.131998
v -0.400212 -0.232602 0.131998
v -0.391803 -0.232602 0.137195
v -0.400212 -0.232602 0.137195
f 1 2 3
f 2 1 4
f 5 2 6
f 2 5 3
f 7 8 9
f 8 7 10
f 11 12 13
f 12 11 14
f 15 8 10
f 8 15 16
f 17 2 4
f 2 17 6
f 13 18 11
f 18 13 19
f 4 20 17
f 20 4 1
f 21 8 16
f 8 21 9
f 22 23 24
f 23 22 25
f 26 25 22
f 25 26 27
f 23 28 24
f 28 23 29
f 30 18 19
f 18 30 31
f 14 18 31
f 18 14 11
f 13 30 19
f 30 13 12
f 32 27 33
f 27 32 34
f 27 34 25
f 25 34 23
f 33 29 35
f 29 33 27
f 35 29 23
f 35 23 34
f 36 37 38
f 37 36 39
f 40 41 42
f 41 40 43
f 44 45 46
f 45 44 47
f 45 47 48
f 48 47 36
f 46 39 49
f 39 46 45
f 49 39 36
f 49 36 47
f 17 5 6
f 5 17 20
f 22 28 26
f 28 22 24
f 50 48 51
f 48 50 45
f 45 37 39
f 37 45 50
f 52 14 53
f 14 52 54
f 14 54 12
f 12 54 30
f 53 31 55
f 31 53 14
f 55 31 30
f 55 30 54
f 56 1 57
f 1 56 58
f 1 58 20
f 20 58 5
f 57 3 59
f 3 57 1
f 59 3 5
f 59 5 58
f 51 36 38
f 36 51 48
f 10 60 15
f 60 10 7
f 61 41 43
f 41 61 62
f 63 64 65
f 64 63 66
f 64 66 67
f 67 66 61
f 65 62 68
f 62 65 64
f 68 62 61
f 68 61 66
f 15 21 16
f 21 15 60
f 27 28 29
f 28 27 26
f 42 67 40
f 67 42 64
f 64 41 62
f 41 64 42
f 40 61 43
f 61 40 67
f 69 70 71
f 72 7 73
f 7 72 74
f 7 74 60
f 60 74 21
f 73 9 75
f 9 73 7
f 75 9 21
f 75 21 74
f 51 37 50
f 37 51 38
