v -0.015991 -0.077679 0.287853
v -0.004912 -0.075740 0.298330
v -0.015690 -0.075740 0.287552
v -0.005145 -0.077243 0.298563
v -0.005213 -0.077679 0.298631
v -0.012590 -0.077679 0.293847
v -0.011458 -0.075683 0.295059
v -0.012590 -0.075683 0.293847
v -0.011458 -0.077679 0.295059
v -0.015371 -0.077679 0.292254
v -0.013925 -0.075683 0.292891
v -0.015371 -0.075683 0.292254
v -0.013925 -0.077679 0.292891
v 0.012326 -0.082059 0.264471
v 0.018161 -0.082059 0.270307
v -0.018204 -0.075683 0.292090
v -0.016830 -0.077679 0.291981
v -0.016830 -0.075683 0.291981
v -0.018204 -0.077679 0.292090
v -0.010800 -0.077679 0.301778
v -0.010192 -0.075683 0.300667
v -0.010192 -0.077679 0.300667
v -0.010800 -0.075683 0.301778
v -0.024073 -0.077679 0.311238
v -0.015758 -0.075683 0.302923
v -0.015758 -0.077679 0.302923
v -0.024073 -0.075683 0.311238
v -0.014299 -0.077679 0.303197
v -0.012925 -0.075683 0.303088
v -0.012925 -0.077679 0.303088
v -0.014299 -0.075683 0.303197
v -0.005145 -0.075683 0.298563
v -0.005213 -0.075683 0.298631
v 0.017861 -0.083998 0.270608
v -0.029529 -0.077679 0.309080
v -0.029752 -0.075683 0.308251
v -0.029529 -0.075683 0.309080
v -0.029752 -0.077679 0.308251
v -0.020835 -0.077679 0.297847
v -0.021037 -0.075683 0.297272
v -0.020835 -0.075683 0.297847
v -0.021037 -0.077679 0.297272
v -0.011732 -0.077679 0.302604
v -0.011732 -0.075683 0.302604
v -0.024652 -0.077679 0.311645
v -0.024652 -0.075683 0.311645
v -0.015991 -0.075683 0.287853
v -0.035932 -0.077679 0.307794
v -0.029556 -0.077679 0.306741
v -0.020329 -0.077679 0.293399
v -0.029761 -0.077679 0.307454
v -0.025154 -0.077679 0.318572
v -0.029150 -0.077679 0.306162
v -0.020937 -0.077679 0.294510
v -0.021178 -0.077679 0.295831
v -0.029107 -0.077679 0.309882
v -0.028515 -0.077679 0.310604
v -0.027793 -0.077679 0.311196
v -0.026991 -0.077679 0.311618
v -0.026163 -0.077679 0.311841
v -0.025365 -0.077679 0.311850
v -0.019397 -0.077679 0.292573
v -0.010606 -0.077679 0.296443
v -0.010092 -0.077679 0.297906
v -0.009951 -0.077679 0.299346
v -0.025154 -0.075683 0.318572
v -0.029556 -0.075683 0.306741
v -0.029150 -0.075683 0.306162
v -0.029761 -0.075683 0.307454
v 0.012025 -0.083998 0.264772
v -0.015923 -0.075683 0.287785
v -0.029107 -0.075683 0.309882
v -0.035932 -0.075683 0.307794
v -0.020329 -0.075683 0.293399
v -0.020937 -0.075683 0.294510
v -0.021178 -0.075683 0.295831
v -0.028515 -0.075683 0.310604
v -0.027793 -0.075683 0.311196
v -0.026991 -0.075683 0.311618
v -0.026163 -0.075683 0.311841
v -0.025365 -0.075683 0.311850
v -0.019397 -0.075683 0.292573
v -0.010606 -0.075683 0.296443
v -0.010092 -0.075683 0.297906
v -0.009951 -0.075683 0.299346
v -0.005145 -0.077679 0.298563
v -0.004912 -0.075740 0.298330
v -0.015690 -0.075740 0.287552
v -0.004912 -0.075740 0.298330
v -0.005213 -0.077679 0.298631
v -0.005145 -0.077243 0.298563
v -0.005213 -0.077679 0.298631
v -0.004912 -0.075740 0.298330
v 0.018161 -0.082059 0.270307
v -0.004912 -0.075740 0.298330
v -0.005145 -0.077243 0.298563
v -0.005145 -0.077243 0.298563
v -0.005213 -0.077679 0.298631
v -0.014299 -0.077679 0.303197
v -0.015758 -0.075683 0.302923
v -0.014299 -0.075683 0.303197
v -0.015758 -0.075683 0.302923
v -0.014299 -0.077679 0.303197
v -0.015758 -0.077679 0.302923
v -0.010800 -0.075683 0.301778
v -0.010800 -0.077679 0.301778
v -0.010800 -0.075683 0.301778
v -0.024073 -0.075683 0.311238
v -0.024073 -0.077679 0.311238
v -0.024073 -0.075683 0.311238
v -0.012925 -0.077679 0.303088
v -0.011732 -0.075683 0.302604
v -0.011732 -0.077679 0.302604
v -0.011732 -0.075683 0.302604
v -0.012925 -0.077679 0.303088
v -0.012925 -0.075683 0.303088
v -0.005213 -0.077679 0.298631
v -0.005213 -0.075683 0.298631
v -0.005213 -0.077679 0.298631
v -0.015991 -0.077679 0.287853
v -0.029752 -0.077679 0.308251
v -0.029752 -0.077679 0.308251
v -0.029529 -0.077679 0.309080
v -0.029529 -0.077679 0.309080
v -0.021037 -0.077679 0.297272
v -0.021037 -0.077679 0.297272
v -0.020835 -0.077679 0.297847
v -0.029529 -0.077679 0.309080
v -0.024652 -0.077679 0.311645
v -0.024652 -0.077679 0.311645
v -0.024073 -0.077679 0.311238
v -0.024073 -0.077679 0.311238
v -0.014299 -0.077679 0.303197
v -0.014299 -0.077679 0.303197
v -0.012925 -0.077679 0.303088
v -0.012925 -0.077679 0.303088
v -0.011732 -0.077679 0.302604
v -0.011732 -0.077679 0.302604
v -0.010800 -0.077679 0.301778
v -0.010800 -0.077679 0.301778
v -0.005213 -0.077679 0.298631
v -0.015991 -0.077679 0.287853
v -0.013925 -0.077679 0.292891
v -0.005213 -0.077679 0.298631
v -0.013925 -0.077679 0.292891
v -0.015991 -0.077679 0.287853
v -0.015371 -0.077679 0.292254
v -0.015371 -0.077679 0.292254
v -0.015991 -0.077679 0.287853
v -0.016830 -0.077679 0.291981
v -0.016830 -0.077679 0.291981
v -0.015991 -0.077679 0.287853
v -0.018204 -0.077679 0.292090
v -0.018204 -0.077679 0.292090
v -0.015991 -0.077679 0.287853
v -0.015991 -0.077679 0.287853
v -0.015991 -0.077679 0.287853
v -0.005213 -0.077679 0.298631
v -0.013925 -0.077679 0.292891
v -0.012590 -0.077679 0.293847
v -0.005213 -0.077679 0.298631
v -0.012590 -0.077679 0.293847
v -0.011458 -0.077679 0.295059
v -0.005213 -0.077679 0.298631
v -0.011458 -0.077679 0.295059
v -0.005213 -0.077679 0.298631
v -0.005213 -0.077679 0.298631
v -0.005213 -0.077679 0.298631
v -0.010192 -0.077679 0.300667
v -0.005213 -0.077679 0.298631
v -0.010192 -0.077679 0.300667
v -0.010800 -0.077679 0.301778
v -0.014299 -0.077679 0.303197
v -0.015758 -0.077679 0.302923
v -0.024073 -0.077679 0.311238
v -0.005213 -0.077679 0.298631
v -0.005213 -0.077679 0.298631
v -0.025154 -0.077679 0.318572
v -0.029150 -0.077679 0.306162
v -0.029150 -0.077679 0.306162
v -0.029556 -0.077679 0.306741
v -0.029556 -0.077679 0.306741
v -0.029556 -0.075683 0.306741
v -0.029556 -0.077679 0.306741
v -0.029761 -0.077679 0.307454
v 0.017861 -0.083998 0.270608
v 0.012326 -0.082059 0.264471
v 0.018161 -0.082059 0.270307
v 0.012326 -0.082059 0.264471
v 0.017861 -0.083998 0.270608
v -0.015991 -0.077679 0.287853
v -0.015690 -0.075740 0.287552
v -0.015991 -0.077679 0.287853
v -0.015991 -0.075683 0.287853
v -0.029107 -0.077679 0.309882
v -0.029529 -0.075683 0.309080
v -0.029529 -0.075683 0.309080
v -0.029107 -0.077679 0.309882
v -0.029529 -0.077679 0.309080
v -0.016830 -0.077679 0.291981
v -0.015371 -0.075683 0.292254
v -0.016830 -0.075683 0.291981
v -0.015371 -0.075683 0.292254
v -0.016830 -0.077679 0.291981
v -0.015371 -0.077679 0.292254
v -0.035932 -0.077679 0.307794
v -0.025154 -0.075683 0.318572
v -0.025154 -0.075683 0.318572
v -0.035932 -0.077679 0.307794
v -0.025154 -0.077679 0.318572
v -0.035932 -0.075683 0.307794
v -0.015991 -0.075683 0.287853
v -0.035932 -0.075683 0.307794
v -0.029556 -0.075683 0.306741
v -0.029556 -0.075683 0.306741
v -0.035932 -0.075683 0.307794
v -0.029761 -0.075683 0.307454
v -0.029761 -0.075683 0.307454
v -0.035932 -0.075683 0.307794
v -0.029752 -0.075683 0.308251
v -0.029752 -0.075683 0.308251
v -0.035932 -0.075683 0.307794
v -0.029529 -0.075683 0.309080
v -0.029529 -0.075683 0.309080
v -0.035932 -0.075683 0.307794
v -0.025154 -0.075683 0.318572
v -0.029556 -0.075683 0.306741
v -0.029150 -0.075683 0.306162
v -0.029150 -0.075683 0.306162
v -0.029150 -0.075683 0.306162
v -0.029150 -0.075683 0.306162
v -0.021037 -0.075683 0.297272
v -0.021037 -0.075683 0.297272
v -0.029150 -0.075683 0.306162
v -0.020835 -0.075683 0.297847
v -0.029529 -0.075683 0.309080
v -0.025154 -0.075683 0.318572
v -0.029107 -0.075683 0.309882
v -0.029107 -0.075683 0.309882
v -0.025154 -0.075683 0.318572
v -0.025154 -0.075683 0.318572
v -0.025154 -0.075683 0.318572
v -0.025154 -0.075683 0.318572
v -0.025154 -0.075683 0.318572
v -0.025154 -0.075683 0.318572
v -0.024652 -0.075683 0.311645
v -0.024652 -0.075683 0.311645
v -0.025154 -0.075683 0.318572
v -0.024073 -0.075683 0.311238
v -0.024073 -0.075683 0.311238
v -0.025154 -0.075683 0.318572
v -0.014299 -0.075683 0.303197
v -0.014299 -0.075683 0.303197
v -0.025154 -0.075683 0.318572
v -0.012925 -0.075683 0.303088
v -0.012925 -0.075683 0.303088
v -0.025154 -0.075683 0.318572
v -0.011732 -0.075683 0.302604
v -0.011732 -0.075683 0.302604
v -0.025154 -0.075683 0.318572
v -0.010800 -0.075683 0.301778
v -0.010800 -0.075683 0.301778
v -0.025154 -0.075683 0.318572
v -0.005213 -0.075683 0.298631
v -0.015991 -0.075683 0.287853
v -0.013925 -0.075683 0.292891
v -0.005213 -0.075683 0.298631
v -0.013925 -0.075683 0.292891
v -0.015991 -0.075683 0.287853
v -0.015371 -0.075683 0.292254
v -0.015371 -0.075683 0.292254
v -0.015991 -0.075683 0.287853
v -0.016830 -0.075683 0.291981
v -0.016830 -0.075683 0.291981
v -0.015991 -0.075683 0.287853
v -0.018204 -0.075683 0.292090
v -0.018204 -0.075683 0.292090
v -0.015991 -0.075683 0.287853
v -0.015991 -0.075683 0.287853
v -0.005213 -0.075683 0.298631
v -0.013925 -0.075683 0.292891
v -0.012590 -0.075683 0.293847
v -0.005213 -0.075683 0.298631
v -0.012590 -0.075683 0.293847
v -0.011458 -0.075683 0.295059
v -0.005213 -0.075683 0.298631
v -0.011458 -0.075683 0.295059
v -0.005213 -0.075683 0.298631
v -0.005213 -0.075683 0.298631
v -0.005213 -0.075683 0.298631
v -0.010192 -0.075683 0.300667
v -0.005213 -0.075683 0.298631
v -0.010192 -0.075683 0.300667
v -0.010800 -0.075683 0.301778
v -0.014299 -0.075683 0.303197
v -0.015758 -0.075683 0.302923
v -0.024073 -0.075683 0.311238
v -0.019397 -0.075683 0.292573
v -0.018204 -0.077679 0.292090
v -0.018204 -0.075683 0.292090
v -0.018204 -0.077679 0.292090
v -0.019397 -0.075683 0.292573
v -0.019397 -0.077679 0.292573
v -0.020329 -0.075683 0.293399
v -0.019397 -0.077679 0.292573
v -0.019397 -0.075683 0.292573
v -0.019397 -0.077679 0.292573
v -0.020329 -0.075683 0.293399
v -0.020329 -0.077679 0.293399
v -0.029752 -0.075683 0.308251
v -0.029761 -0.077679 0.307454
v -0.029761 -0.075683 0.307454
v -0.029761 -0.077679 0.307454
v -0.029752 -0.075683 0.308251
v -0.029752 -0.077679 0.308251
v -0.005213 -0.077679 0.298631
v 0.012025 -0.083998 0.264772
v -0.015991 -0.077679 0.287853
v 0.012025 -0.083998 0.264772
v -0.005213 -0.077679 0.298631
v 0.017861 -0.083998 0.270608
v -0.010192 -0.077679 0.300667
v -0.009951 -0.075683 0.299346
v -0.009951 -0.077679 0.299346
v -0.009951 -0.075683 0.299346
v -0.010192 -0.077679 0.300667
v -0.010192 -0.075683 0.300667
v -0.015991 -0.077679 0.287853
v -0.035932 -0.075683 0.307794
v -0.015991 -0.075683 0.287853
v -0.035932 -0.075683 0.307794
v -0.015991 -0.077679 0.287853
v -0.035932 -0.077679 0.307794
v -0.005145 -0.075683 0.298563
v -0.015991 -0.075683 0.287853
v -0.015923 -0.075683 0.287785
v -0.015991 -0.075683 0.287853
v -0.005145 -0.075683 0.298563
v -0.005213 -0.075683 0.298631
v -0.011458 -0.077679 0.295059
v -0.010606 -0.075683 0.296443
v -0.011458 -0.075683 0.295059
v -0.010606 -0.075683 0.296443
v -0.011458 -0.077679 0.295059
v -0.010606 -0.077679 0.296443
v -0.026163 -0.077679 0.311841
v -0.026991 -0.075683 0.311618
v -0.026163 -0.075683 0.311841
v -0.026991 -0.075683 0.311618
v -0.026163 -0.077679 0.311841
v -0.026991 -0.077679 0.311618
v -0.009951 -0.077679 0.299346
v -0.010092 -0.075683 0.297906
v -0.010092 -0.077679 0.297906
v -0.010092 -0.075683 0.297906
v -0.009951 -0.077679 0.299346
v -0.009951 -0.075683 0.299346
v -0.020937 -0.075683 0.294510
v -0.020329 -0.077679 0.293399
v -0.020329 -0.075683 0.293399
v -0.020329 -0.077679 0.293399
v -0.020937 -0.075683 0.294510
v -0.020937 -0.077679 0.294510
v -0.026163 -0.077679 0.311841
v -0.025365 -0.075683 0.311850
v -0.025365 -0.077679 0.311850
v -0.025365 -0.075683 0.311850
v -0.026163 -0.077679 0.311841
v -0.026163 -0.075683 0.311841
v -0.021178 -0.075683 0.295831
v -0.020937 -0.077679 0.294510
v -0.020937 -0.075683 0.294510
v -0.020937 -0.077679 0.294510
v -0.021178 -0.075683 0.295831
v -0.021178 -0.077679 0.295831
v -0.010606 -0.077679 0.296443
v -0.010092 -0.075683 0.297906
v -0.010606 -0.075683 0.296443
v -0.010092 -0.075683 0.297906
v -0.010606 -0.077679 0.296443
v -0.010092 -0.077679 0.297906
v -0.005145 -0.075683 0.298563
v -0.015690 -0.075740 0.287552
v -0.015923 -0.075683 0.287785
v -0.015690 -0.075740 0.287552
v -0.005145 -0.075683 0.298563
v -0.004912 -0.075740 0.298330
v -0.025365 -0.077679 0.311850
v -0.024652 -0.075683 0.311645
v -0.024652 -0.077679 0.311645
v -0.024652 -0.075683 0.311645
v -0.025365 -0.077679 0.311850
v -0.025365 -0.075683 0.311850
v -0.026991 -0.077679 0.311618
v -0.027793 -0.075683 0.311196
v -0.026991 -0.075683 0.311618
v -0.027793 -0.075683 0.311196
v -0.026991 -0.077679 0.311618
v -0.027793 -0.077679 0.311196
v -0.005213 -0.077679 0.298631
v -0.005145 -0.077243 0.298563
v -0.028515 -0.077679 0.310604
v -0.029107 -0.075683 0.309882
v -0.028515 -0.075683 0.310604
v -0.029107 -0.075683 0.309882
v -0.028515 -0.077679 0.310604
v -0.029107 -0.077679 0.309882
v -0.013925 -0.077679 0.292891
v -0.012590 -0.075683 0.293847
v -0.013925 -0.075683 0.292891
v -0.012590 -0.075683 0.293847
v -0.013925 -0.077679 0.292891
v -0.012590 -0.077679 0.293847
v -0.029150 -0.075683 0.306162
v -0.020835 -0.077679 0.297847
v -0.020835 -0.075683 0.297847
v -0.020835 -0.077679 0.297847
v -0.029150 -0.075683 0.306162
v -0.029150 -0.077679 0.306162
v -0.005145 -0.077243 0.298563
v -0.004912 -0.075740 0.298330
v -0.021037 -0.075683 0.297272
v -0.021178 -0.077679 0.295831
v -0.021178 -0.075683 0.295831
v -0.021178 -0.077679 0.295831
v -0.021037 -0.075683 0.297272
v -0.021037 -0.077679 0.297272
v -0.027793 -0.077679 0.311196
v -0.028515 -0.075683 0.310604
v -0.027793 -0.075683 0.311196
v -0.028515 -0.075683 0.310604
v -0.027793 -0.077679 0.311196
v -0.028515 -0.077679 0.310604
v 0.012025 -0.083998 0.264772
v -0.015690 -0.075740 0.287552
v 0.012326 -0.082059 0.264471
v -0.015690 -0.075740 0.287552
v 0.012025 -0.083998 0.264772
v -0.015991 -0.077679 0.287853
v 0.204383 -0.076824 0.133170
v 0.197819 -0.074886 0.119407
v 0.203994 -0.074886 0.133342
v 0.198120 -0.076388 0.119273
v 0.198207 -0.076824 0.119235
v 0.203368 -0.076824 0.126353
v 0.202748 -0.074829 0.124815
v 0.203368 -0.074829 0.126353
v 0.202748 -0.076824 0.124815
v 0.205389 -0.076824 0.128841
v 0.204269 -0.074829 0.127726
v 0.205389 -0.074829 0.128841
v 0.204269 -0.076824 0.127726
v 0.169548 -0.081205 0.144790
v 0.166204 -0.081205 0.137245
v 0.207972 -0.074829 0.130014
v 0.206652 -0.076824 0.129621
v 0.206652 -0.074829 0.129621
v 0.207972 -0.076824 0.130014
v 0.204553 -0.076824 0.118310
v 0.203586 -0.074829 0.119127
v 0.203586 -0.076824 0.119127
v 0.204553 -0.074829 0.118310
v 0.220342 -0.076824 0.114262
v 0.209591 -0.074829 0.119026
v 0.209591 -0.076824 0.119026
v 0.220342 -0.074829 0.114262
v 0.208328 -0.076824 0.118246
v 0.207007 -0.074829 0.117853
v 0.207007 -0.076824 0.117853
v 0.208328 -0.074829 0.118246
v 0.198120 -0.074829 0.119273
v 0.198207 -0.074829 0.119235
v 0.166592 -0.083143 0.137072
v 0.224655 -0.076824 0.118240
v 0.224565 -0.074829 0.119093
v 0.224655 -0.074829 0.118240
v 0.224565 -0.076824 0.119093
v 0.212500 -0.076824 0.125590
v 0.212481 -0.074829 0.126199
v 0.212500 -0.074829 0.125590
v 0.212481 -0.076824 0.126199
v 0.205720 -0.076824 0.117875
v 0.205720 -0.074829 0.117875
v 0.221029 -0.076824 0.114092
v 0.221029 -0.074829 0.114092
v 0.204383 -0.074829 0.133170
v 0.230166 -0.076824 0.121744
v 0.223838 -0.076824 0.120431
v 0.210427 -0.076824 0.129558
v 0.224286 -0.076824 0.119841
v 0.223991 -0.076824 0.107809
v 0.223250 -0.076824 0.120826
v 0.211394 -0.076824 0.128740
v 0.212094 -0.076824 0.127594
v 0.224550 -0.076824 0.117340
v 0.224258 -0.076824 0.116453
v 0.223797 -0.076824 0.115641
v 0.223201 -0.076824 0.114958
v 0.222508 -0.076824 0.114452
v 0.221767 -0.076824 0.114156
v 0.209260 -0.076824 0.129992
v 0.202452 -0.076824 0.123217
v 0.202499 -0.076824 0.121668
v 0.202885 -0.076824 0.120273
v 0.223991 -0.074829 0.107809
v 0.223838 -0.074829 0.120431
v 0.223250 -0.074829 0.120826
v 0.224286 -0.074829 0.119841
v 0.169936 -0.083143 0.144618
v 0.204295 -0.074829 0.133209
v 0.224550 -0.074829 0.117340
v 0.230166 -0.074829 0.121744
v 0.210427 -0.074829 0.129558
v 0.211394 -0.074829 0.128740
v 0.212094 -0.074829 0.127594
v 0.224258 -0.074829 0.116453
v 0.223797 -0.074829 0.115641
v 0.223201 -0.074829 0.114958
v 0.222508 -0.074829 0.114452
v 0.221767 -0.074829 0.114156
v 0.209260 -0.074829 0.129992
v 0.202452 -0.074829 0.123217
v 0.202499 -0.074829 0.121668
v 0.202885 -0.074829 0.120273
v 0.198120 -0.076824 0.119273
v 0.197819 -0.074886 0.119407
v 0.203994 -0.074886 0.133342
v 0.197819 -0.074886 0.119407
v 0.198207 -0.076824 0.119235
v 0.198120 -0.076388 0.119273
v 0.198207 -0.076824 0.119235
v 0.197819 -0.074886 0.119407
v 0.166204 -0.081205 0.137245
v 0.197819 -0.074886 0.119407
v 0.198120 -0.076388 0.119273
v 0.198120 -0.076388 0.119273
v 0.198207 -0.076824 0.119235
v 0.208328 -0.076824 0.118246
v 0.209591 -0.074829 0.119026
v 0.208328 -0.074829 0.118246
v 0.209591 -0.074829 0.119026
v 0.208328 -0.076824 0.118246
v 0.209591 -0.076824 0.119026
v 0.204553 -0.074829 0.118310
v 0.204553 -0.076824 0.118310
v 0.204553 -0.074829 0.118310
v 0.220342 -0.074829 0.114262
v 0.220342 -0.076824 0.114262
v 0.220342 -0.074829 0.114262
v 0.207007 -0.076824 0.117853
v 0.205720 -0.074829 0.117875
v 0.205720 -0.076824 0.117875
v 0.205720 -0.074829 0.117875
v 0.207007 -0.076824 0.117853
v 0.207007 -0.074829 0.117853
v 0.198207 -0.076824 0.119235
v 0.198207 -0.074829 0.119235
v 0.198207 -0.076824 0.119235
v 0.204383 -0.076824 0.133170
v 0.224565 -0.076824 0.119093
v 0.224565 -0.076824 0.119093
v 0.224655 -0.076824 0.118240
v 0.224655 -0.076824 0.118240
v 0.212481 -0.076824 0.126199
v 0.212481 -0.076824 0.126199
v 0.212500 -0.076824 0.125590
v 0.224655 -0.076824 0.118240
v 0.221029 -0.076824 0.114092
v 0.221029 -0.076824 0.114092
v 0.220342 -0.076824 0.114262
v 0.220342 -0.076824 0.114262
v 0.208328 -0.076824 0.118246
v 0.208328 -0.076824 0.118246
v 0.207007 -0.076824 0.117853
v 0.207007 -0.076824 0.117853
v 0.205720 -0.076824 0.117875
v 0.205720 -0.076824 0.117875
v 0.204553 -0.076824 0.118310
v 0.204553 -0.076824 0.118310
v 0.198207 -0.076824 0.119235
v 0.204383 -0.076824 0.133170
v 0.204269 -0.076824 0.127726
v 0.198207 -0.076824 0.119235
v 0.204269 -0.076824 0.127726
v 0.204383 -0.076824 0.133170
v 0.205389 -0.076824 0.128841
v 0.205389 -0.076824 0.128841
v 0.204383 -0.076824 0.133170
v 0.206652 -0.076824 0.129621
v 0.206652 -0.076824 0.129621
v 0.204383 -0.076824 0.133170
v 0.207972 -0.076824 0.130014
v 0.207972 -0.076824 0.130014
v 0.204383 -0.076824 0.133170
v 0.204383 -0.076824 0.133170
v 0.204383 -0.076824 0.133170
v 0.198207 -0.076824 0.119235
v 0.204269 -0.076824 0.127726
v 0.203368 -0.076824 0.126353
v 0.198207 -0.076824 0.119235
v 0.203368 -0.076824 0.126353
v 0.202748 -0.076824 0.124815
v 0.198207 -0.076824 0.119235
v 0.202748 -0.076824 0.124815
v 0.198207 -0.076824 0.119235
v 0.198207 -0.076824 0.119235
v 0.198207 -0.076824 0.119235
v 0.203586 -0.076824 0.119127
v 0.198207 -0.076824 0.119235
v 0.203586 -0.076824 0.119127
v 0.204553 -0.076824 0.118310
v 0.208328 -0.076824 0.118246
v 0.209591 -0.076824 0.119026
v 0.220342 -0.076824 0.114262
v 0.198207 -0.076824 0.119235
v 0.198207 -0.076824 0.119235
v 0.223991 -0.076824 0.107809
v 0.223250 -0.076824 0.120826
v 0.223250 -0.076824 0.120826
v 0.223838 -0.076824 0.120431
v 0.223838 -0.076824 0.120431
v 0.223838 -0.074829 0.120431
v 0.223838 -0.076824 0.120431
v 0.224286 -0.076824 0.119841
v 0.166592 -0.083143 0.137072
v 0.169548 -0.081205 0.144790
v 0.166204 -0.081205 0.137245
v 0.169548 -0.081205 0.144790
v 0.166592 -0.083143 0.137072
v 0.204383 -0.076824 0.133170
v 0.203994 -0.074886 0.133342
v 0.204383 -0.076824 0.133170
v 0.204383 -0.074829 0.133170
v 0.224550 -0.076824 0.117340
v 0.224655 -0.074829 0.118240
v 0.224655 -0.074829 0.118240
v 0.224550 -0.076824 0.117340
v 0.224655 -0.076824 0.118240
v 0.206652 -0.076824 0.129621
v 0.205389 -0.074829 0.128841
v 0.206652 -0.074829 0.129621
v 0.205389 -0.074829 0.128841
v 0.206652 -0.076824 0.129621
v 0.205389 -0.076824 0.128841
v 0.230166 -0.076824 0.121744
v 0.223991 -0.074829 0.107809
v 0.223991 -0.074829 0.107809
v 0.230166 -0.076824 0.121744
v 0.223991 -0.076824 0.107809
v 0.230166 -0.074829 0.121744
v 0.204383 -0.074829 0.133170
v 0.230166 -0.074829 0.121744
v 0.223838 -0.074829 0.120431
v 0.223838 -0.074829 0.120431
v 0.230166 -0.074829 0.121744
v 0.224286 -0.074829 0.119841
v 0.224286 -0.074829 0.119841
v 0.230166 -0.074829 0.121744
v 0.224565 -0.074829 0.119093
v 0.224565 -0.074829 0.119093
v 0.230166 -0.074829 0.121744
v 0.224655 -0.074829 0.118240
v 0.224655 -0.074829 0.118240
v 0.230166 -0.074829 0.121744
v 0.223991 -0.074829 0.107809
v 0.223838 -0.074829 0.120431
v 0.223250 -0.074829 0.120826
v 0.223250 -0.074829 0.120826
v 0.223250 -0.074829 0.120826
v 0.223250 -0.074829 0.120826
v 0.212481 -0.074829 0.126199
v 0.212481 -0.074829 0.126199
v 0.223250 -0.074829 0.120826
v 0.212500 -0.074829 0.125590
v 0.224655 -0.074829 0.118240
v 0.223991 -0.074829 0.107809
v 0.224550 -0.074829 0.117340
v 0.224550 -0.074829 0.117340
v 0.223991 -0.074829 0.107809
v 0.223991 -0.074829 0.107809
v 0.223991 -0.074829 0.107809
v 0.223991 -0.074829 0.107809
v 0.223991 -0.074829 0.107809
v 0.223991 -0.074829 0.107809
v 0.221029 -0.074829 0.114092
v 0.221029 -0.074829 0.114092
v 0.223991 -0.074829 0.107809
v 0.220342 -0.074829 0.114262
v 0.220342 -0.074829 0.114262
v 0.223991 -0.074829 0.107809
v 0.208328 -0.074829 0.118246
v 0.208328 -0.074829 0.118246
v 0.223991 -0.074829 0.107809
v 0.207007 -0.074829 0.117853
v 0.207007 -0.074829 0.117853
v 0.223991 -0.074829 0.107809
v 0.205720 -0.074829 0.117875
v 0.205720 -0.074829 0.117875
v 0.223991 -0.074829 0.107809
v 0.204553 -0.074829 0.118310
v 0.204553 -0.074829 0.118310
v 0.223991 -0.074829 0.107809
v 0.198207 -0.074829 0.119235
v 0.204383 -0.074829 0.133170
v 0.204269 -0.074829 0.127726
v 0.198207 -0.074829 0.119235
v 0.204269 -0.074829 0.127726
v 0.204383 -0.074829 0.133170
v 0.205389 -0.074829 0.128841
v 0.205389 -0.074829 0.128841
v 0.204383 -0.074829 0.133170
v 0.206652 -0.074829 0.129621
v 0.206652 -0.074829 0.129621
v 0.204383 -0.074829 0.133170
v 0.207972 -0.074829 0.130014
v 0.207972 -0.074829 0.130014
v 0.204383 -0.074829 0.133170
v 0.204383 -0.074829 0.133170
v 0.198207 -0.074829 0.119235
v 0.204269 -0.074829 0.127726
v 0.203368 -0.074829 0.126353
v 0.198207 -0.074829 0.119235
v 0.203368 -0.074829 0.126353
v 0.202748 -0.074829 0.124815
v 0.198207 -0.074829 0.119235
v 0.202748 -0.074829 0.124815
v 0.198207 -0.074829 0.119235
v 0.198207 -0.074829 0.119235
v 0.198207 -0.074829 0.119235
v 0.203586 -0.074829 0.119127
v 0.198207 -0.074829 0.119235
v 0.203586 -0.074829 0.119127
v 0.204553 -0.074829 0.118310
v 0.208328 -0.074829 0.118246
v 0.209591 -0.074829 0.119026
v 0.220342 -0.074829 0.114262
v 0.209260 -0.074829 0.129992
v 0.207972 -0.076824 0.130014
v 0.207972 -0.074829 0.130014
v 0.207972 -0.076824 0.130014
v 0.209260 -0.074829 0.129992
v 0.209260 -0.076824 0.129992
v 0.210427 -0.074829 0.129558
v 0.209260 -0.076824 0.129992
v 0.209260 -0.074829 0.129992
v 0.209260 -0.076824 0.129992
v 0.210427 -0.074829 0.129558
v 0.210427 -0.076824 0.129558
v 0.224565 -0.074829 0.119093
v 0.224286 -0.076824 0.119841
v 0.224286 -0.074829 0.119841
v 0.224286 -0.076824 0.119841
v 0.224565 -0.074829 0.119093
v 0.224565 -0.076824 0.119093
v 0.198207 -0.076824 0.119235
v 0.169936 -0.083143 0.144618
v 0.204383 -0.076824 0.133170
v 0.169936 -0.083143 0.144618
v 0.198207 -0.076824 0.119235
v 0.166592 -0.083143 0.137072
v 0.203586 -0.076824 0.119127
v 0.202885 -0.074829 0.120273
v 0.202885 -0.076824 0.120273
v 0.202885 -0.074829 0.120273
v 0.203586 -0.076824 0.119127
v 0.203586 -0.074829 0.119127
v 0.204383 -0.076824 0.133170
v 0.230166 -0.074829 0.121744
v 0.204383 -0.074829 0.133170
v 0.230166 -0.074829 0.121744
v 0.204383 -0.076824 0.133170
v 0.230166 -0.076824 0.121744
v 0.198120 -0.074829 0.119273
v 0.204383 -0.074829 0.133170
v 0.204295 -0.074829 0.133209
v 0.204383 -0.074829 0.133170
v 0.198120 -0.074829 0.119273
v 0.198207 -0.074829 0.119235
v 0.202748 -0.076824 0.124815
v 0.202452 -0.074829 0.123217
v 0.202748 -0.074829 0.124815
v 0.202452 -0.074829 0.123217
v 0.202748 -0.076824 0.124815
v 0.202452 -0.076824 0.123217
v 0.222508 -0.076824 0.114452
v 0.223201 -0.074829 0.114958
v 0.222508 -0.074829 0.114452
v 0.223201 -0.074829 0.114958
v 0.222508 -0.076824 0.114452
v 0.223201 -0.076824 0.114958
v 0.202885 -0.076824 0.120273
v 0.202499 -0.074829 0.121668
v 0.202499 -0.076824 0.121668
v 0.202499 -0.074829 0.121668
v 0.202885 -0.076824 0.120273
v 0.202885 -0.074829 0.120273
v 0.211394 -0.074829 0.128740
v 0.210427 -0.076824 0.129558
v 0.210427 -0.074829 0.129558
v 0.210427 -0.076824 0.129558
v 0.211394 -0.074829 0.128740
v 0.211394 -0.076824 0.128740
v 0.222508 -0.076824 0.114452
v 0.221767 -0.074829 0.114156
v 0.221767 -0.076824 0.114156
v 0.221767 -0.074829 0.114156
v 0.222508 -0.076824 0.114452
v 0.222508 -0.074829 0.114452
v 0.212094 -0.074829 0.127594
v 0.211394 -0.076824 0.128740
v 0.211394 -0.074829 0.128740
v 0.211394 -0.076824 0.128740
v 0.212094 -0.074829 0.127594
v 0.212094 -0.076824 0.127594
v 0.202452 -0.076824 0.123217
v 0.202499 -0.074829 0.121668
v 0.202452 -0.074829 0.123217
v 0.202499 -0.074829 0.121668
v 0.202452 -0.076824 0.123217
v 0.202499 -0.076824 0.121668
v 0.198120 -0.074829 0.119273
v 0.203994 -0.074886 0.133342
v 0.204295 -0.074829 0.133209
v 0.203994 -0.074886 0.133342
v 0.198120 -0.074829 0.119273
v 0.197819 -0.074886 0.119407
v 0.221767 -0.076824 0.114156
v 0.221029 -0.074829 0.114092
v 0.221029 -0.076824 0.114092
v 0.221029 -0.074829 0.114092
v 0.221767 -0.076824 0.114156
v 0.221767 -0.074829 0.114156
v 0.223201 -0.076824 0.114958
v 0.223797 -0.074829 0.115641
v 0.223201 -0.074829 0.114958
v 0.223797 -0.074829 0.115641
v 0.223201 -0.076824 0.114958
v 0.223797 -0.076824 0.115641
v 0.198207 -0.076824 0.119235
v 0.198120 -0.076388 0.119273
v 0.224258 -0.076824 0.116453
v 0.224550 -0.074829 0.117340
v 0.224258 -0.074829 0.116453
v 0.224550 -0.074829 0.117340
v 0.224258 -0.076824 0.116453
v 0.224550 -0.076824 0.117340
v 0.204269 -0.076824 0.127726
v 0.203368 -0.074829 0.126353
v 0.204269 -0.074829 0.127726
v 0.203368 -0.074829 0.126353
v 0.204269 -0.076824 0.127726
v 0.203368 -0.076824 0.126353
v 0.223250 -0.074829 0.120826
v 0.212500 -0.076824 0.125590
v 0.212500 -0.074829 0.125590
v 0.212500 -0.076824 0.125590
v 0.223250 -0.074829 0.120826
v 0.223250 -0.076824 0.120826
v 0.198120 -0.076388 0.119273
v 0.197819 -0.074886 0.119407
v 0.212481 -0.074829 0.126199
v 0.212094 -0.076824 0.127594
v 0.212094 -0.074829 0.127594
v 0.212094 -0.076824 0.127594
v 0.212481 -0.074829 0.126199
v 0.212481 -0.076824 0.126199
v 0.223797 -0.076824 0.115641
v 0.224258 -0.074829 0.116453
v 0.223797 -0.074829 0.115641
v 0.224258 -0.074829 0.116453
v 0.223797 -0.076824 0.115641
v 0.224258 -0.076824 0.116453
v 0.169936 -0.083143 0.144618
v 0.203994 -0.074886 0.133342
v 0.169548 -0.081205 0.144790
v 0.203994 -0.074886 0.133342
v 0.169936 -0.083143 0.144618
v 0.204383 -0.076824 0.133170
v 0.183547 -0.077720 0.310757
v 0.194986 -0.075781 0.300674
v 0.183275 -0.075781 0.310431
v 0.195196 -0.077284 0.300927
v 0.195258 -0.077720 0.301000
v 0.189825 -0.077720 0.307914
v 0.191135 -0.075724 0.306896
v 0.189825 -0.075724 0.307914
v 0.191135 -0.077720 0.306896
v 0.187986 -0.077720 0.310539
v 0.188751 -0.075724 0.309156
v 0.187986 -0.075724 0.310539
v 0.188751 -0.077720 0.309156
v 0.162828 -0.082100 0.280438
v 0.169169 -0.082100 0.275155
v 0.187566 -0.075724 0.313345
v 0.187582 -0.077720 0.311967
v 0.187582 -0.075724 0.311967
v 0.187566 -0.077720 0.313345
v 0.197886 -0.077720 0.306850
v 0.196834 -0.075724 0.306144
v 0.196834 -0.077720 0.306144
v 0.197886 -0.075724 0.306850
v 0.206104 -0.077720 0.320926
v 0.198577 -0.075724 0.311891
v 0.198577 -0.077720 0.311891
v 0.206104 -0.075724 0.320926
v 0.198981 -0.077720 0.310463
v 0.198997 -0.075724 0.309085
v 0.198997 -0.077720 0.309085
v 0.198981 -0.075724 0.310463
v 0.195196 -0.075724 0.300927
v 0.195258 -0.075724 0.301000
v 0.169441 -0.084039 0.275482
v 0.203460 -0.077720 0.326164
v 0.202615 -0.075724 0.326311
v 0.203460 -0.075724 0.326164
v 0.202615 -0.077720 0.326311
v 0.193061 -0.077720 0.316487
v 0.192470 -0.075724 0.316636
v 0.193061 -0.075724 0.316487
v 0.192470 -0.077720 0.316636
v 0.198623 -0.077720 0.307853
v 0.198623 -0.075724 0.307853
v 0.206456 -0.077720 0.321539
v 0.206456 -0.075724 0.321539
v 0.183547 -0.075724 0.310757
v 0.201599 -0.077720 0.332424
v 0.201128 -0.077720 0.325978
v 0.188677 -0.077720 0.315580
v 0.201819 -0.077720 0.326248
v 0.213310 -0.077720 0.322667
v 0.200588 -0.077720 0.325521
v 0.189729 -0.077720 0.316286
v 0.191022 -0.077720 0.316646
v 0.204297 -0.077720 0.325816
v 0.205069 -0.077720 0.325292
v 0.205724 -0.077720 0.324627
v 0.206217 -0.077720 0.323866
v 0.206515 -0.077720 0.323061
v 0.206596 -0.077720 0.322268
v 0.187940 -0.077720 0.314577
v 0.192590 -0.077720 0.306173
v 0.194093 -0.077720 0.305794
v 0.195541 -0.077720 0.305784
v 0.213310 -0.075724 0.322667
v 0.201128 -0.075724 0.325978
v 0.200588 -0.075724 0.325521
v 0.201819 -0.075724 0.326248
v 0.163100 -0.084039 0.280765
v 0.183486 -0.075724 0.310684
v 0.204297 -0.075724 0.325816
v 0.201599 -0.075724 0.332424
v 0.188677 -0.075724 0.315580
v 0.189729 -0.075724 0.316286
v 0.191022 -0.075724 0.316646
v 0.205069 -0.075724 0.325292
v 0.205724 -0.075724 0.324627
v 0.206217 -0.075724 0.323866
v 0.206515 -0.075724 0.323061
v 0.206596 -0.075724 0.322268
v 0.187940 -0.075724 0.314577
v 0.192590 -0.075724 0.306173
v 0.194093 -0.075724 0.305794
v 0.195541 -0.075724 0.305784
v 0.195196 -0.077720 0.300927
v 0.194986 -0.075781 0.300674
v 0.183275 -0.075781 0.310431
v 0.194986 -0.075781 0.300674
v 0.195258 -0.077720 0.301000
v 0.195196 -0.077284 0.300927
v 0.195258 -0.077720 0.301000
v 0.194986 -0.075781 0.300674
v 0.169169 -0.082100 0.275155
v 0.194986 -0.075781 0.300674
v 0.195196 -0.077284 0.300927
v 0.195196 -0.077284 0.300927
v 0.195258 -0.077720 0.301000
v 0.198981 -0.077720 0.310463
v 0.198577 -0.075724 0.311891
v 0.198981 -0.075724 0.310463
v 0.198577 -0.075724 0.311891
v 0.198981 -0.077720 0.310463
v 0.198577 -0.077720 0.311891
v 0.197886 -0.075724 0.306850
v 0.197886 -0.077720 0.306850
v 0.197886 -0.075724 0.306850
v 0.206104 -0.075724 0.320926
v 0.206104 -0.077720 0.320926
v 0.206104 -0.075724 0.320926
v 0.198997 -0.077720 0.309085
v 0.198623 -0.075724 0.307853
v 0.198623 -0.077720 0.307853
v 0.198623 -0.075724 0.307853
v 0.198997 -0.077720 0.309085
v 0.198997 -0.075724 0.309085
v 0.195258 -0.077720 0.301000
v 0.195258 -0.075724 0.301000
v 0.195258 -0.077720 0.301000
v 0.183547 -0.077720 0.310757
v 0.202615 -0.077720 0.326311
v 0.202615 -0.077720 0.326311
v 0.203460 -0.077720 0.326164
v 0.203460 -0.077720 0.326164
v 0.192470 -0.077720 0.316636
v 0.192470 -0.077720 0.316636
v 0.193061 -0.077720 0.316487
v 0.203460 -0.077720 0.326164
v 0.206456 -0.077720 0.321539
v 0.206456 -0.077720 0.321539
v 0.206104 -0.077720 0.320926
v 0.206104 -0.077720 0.320926
v 0.198981 -0.077720 0.310463
v 0.198981 -0.077720 0.310463
v 0.198997 -0.077720 0.309085
v 0.198997 -0.077720 0.309085
v 0.198623 -0.077720 0.307853
v 0.198623 -0.077720 0.307853
v 0.197886 -0.077720 0.306850
v 0.197886 -0.077720 0.306850
v 0.195258 -0.077720 0.301000
v 0.183547 -0.077720 0.310757
v 0.188751 -0.077720 0.309156
v 0.195258 -0.077720 0.301000
v 0.188751 -0.077720 0.309156
v 0.183547 -0.077720 0.310757
v 0.187986 -0.077720 0.310539
v 0.187986 -0.077720 0.310539
v 0.183547 -0.077720 0.310757
v 0.187582 -0.077720 0.311967
v 0.187582 -0.077720 0.311967
v 0.183547 -0.077720 0.310757
v 0.187566 -0.077720 0.313345
v 0.187566 -0.077720 0.313345
v 0.183547 -0.077720 0.310757
v 0.183547 -0.077720 0.310757
v 0.183547 -0.077720 0.310757
v 0.195258 -0.077720 0.301000
v 0.188751 -0.077720 0.309156
v 0.189825 -0.077720 0.307914
v 0.195258 -0.077720 0.301000
v 0.189825 -0.077720 0.307914
v 0.191135 -0.077720 0.306896
v 0.195258 -0.077720 0.301000
v 0.191135 -0.077720 0.306896
v 0.195258 -0.077720 0.301000
v 0.195258 -0.077720 0.301000
v 0.195258 -0.077720 0.301000
v 0.196834 -0.077720 0.306144
v 0.195258 -0.077720 0.301000
v 0.196834 -0.077720 0.306144
v 0.197886 -0.077720 0.306850
v 0.198981 -0.077720 0.310463
v 0.198577 -0.077720 0.311891
v 0.206104 -0.077720 0.320926
v 0.195258 -0.077720 0.301000
v 0.195258 -0.077720 0.301000
v 0.213310 -0.077720 0.322667
v 0.200588 -0.077720 0.325521
v 0.200588 -0.077720 0.325521
v 0.201128 -0.077720 0.325978
v 0.201128 -0.077720 0.325978
v 0.201128 -0.075724 0.325978
v 0.201128 -0.077720 0.325978
v 0.201819 -0.077720 0.326248
v 0.169441 -0.084039 0.275482
v 0.162828 -0.082100 0.280438
v 0.169169 -0.082100 0.275155
v 0.162828 -0.082100 0.280438
v 0.169441 -0.084039 0.275482
v 0.183547 -0.077720 0.310757
v 0.183275 -0.075781 0.310431
v 0.183547 -0.077720 0.310757
v 0.183547 -0.075724 0.310757
v 0.204297 -0.077720 0.325816
v 0.203460 -0.075724 0.326164
v 0.203460 -0.075724 0.326164
v 0.204297 -0.077720 0.325816
v 0.203460 -0.077720 0.326164
v 0.187582 -0.077720 0.311967
v 0.187986 -0.075724 0.310539
v 0.187582 -0.075724 0.311967
v 0.187986 -0.075724 0.310539
v 0.187582 -0.077720 0.311967
v 0.187986 -0.077720 0.310539
v 0.201599 -0.077720 0.332424
v 0.213310 -0.075724 0.322667
v 0.213310 -0.075724 0.322667
v 0.201599 -0.077720 0.332424
v 0.213310 -0.077720 0.322667
v 0.201599 -0.075724 0.332424
v 0.183547 -0.075724 0.310757
v 0.201599 -0.075724 0.332424
v 0.201128 -0.075724 0.325978
v 0.201128 -0.075724 0.325978
v 0.201599 -0.075724 0.332424
v 0.201819 -0.075724 0.326248
v 0.201819 -0.075724 0.326248
v 0.201599 -0.075724 0.332424
v 0.202615 -0.075724 0.326311
v 0.202615 -0.075724 0.326311
v 0.201599 -0.075724 0.332424
v 0.203460 -0.075724 0.326164
v 0.203460 -0.075724 0.326164
v 0.201599 -0.075724 0.332424
v 0.213310 -0.075724 0.322667
v 0.201128 -0.075724 0.325978
v 0.200588 -0.075724 0.325521
v 0.200588 -0.075724 0.325521
v 0.200588 -0.075724 0.325521
v 0.200588 -0.075724 0.325521
v 0.192470 -0.075724 0.316636
v 0.192470 -0.075724 0.316636
v 0.200588 -0.075724 0.325521
v 0.193061 -0.075724 0.316487
v 0.203460 -0.075724 0.326164
v 0.213310 -0.075724 0.322667
v 0.204297 -0.075724 0.325816
v 0.204297 -0.075724 0.325816
v 0.213310 -0.075724 0.322667
v 0.213310 -0.075724 0.322667
v 0.213310 -0.075724 0.322667
v 0.213310 -0.075724 0.322667
v 0.213310 -0.075724 0.322667
v 0.213310 -0.075724 0.322667
v 0.206456 -0.075724 0.321539
v 0.206456 -0.075724 0.321539
v 0.213310 -0.075724 0.322667
v 0.206104 -0.075724 0.320926
v 0.206104 -0.075724 0.320926
v 0.213310 -0.075724 0.322667
v 0.198981 -0.075724 0.310463
v 0.198981 -0.075724 0.310463
v 0.213310 -0.075724 0.322667
v 0.198997 -0.075724 0.309085
v 0.198997 -0.075724 0.309085
v 0.213310 -0.075724 0.322667
v 0.198623 -0.075724 0.307853
v 0.198623 -0.075724 0.307853
v 0.213310 -0.075724 0.322667
v 0.197886 -0.075724 0.306850
v 0.197886 -0.075724 0.306850
v 0.213310 -0.075724 0.322667
v 0.195258 -0.075724 0.301000
v 0.183547 -0.075724 0.310757
v 0.188751 -0.075724 0.309156
v 0.195258 -0.075724 0.301000
v 0.188751 -0.075724 0.309156
v 0.183547 -0.075724 0.310757
v 0.187986 -0.075724 0.310539
v 0.187986 -0.075724 0.310539
v 0.183547 -0.075724 0.310757
v 0.187582 -0.075724 0.311967
v 0.187582 -0.075724 0.311967
v 0.183547 -0.075724 0.310757
v 0.187566 -0.075724 0.313345
v 0.187566 -0.075724 0.313345
v 0.183547 -0.075724 0.310757
v 0.183547 -0.075724 0.310757
v 0.195258 -0.075724 0.301000
v 0.188751 -0.075724 0.309156
v 0.189825 -0.075724 0.307914
v 0.195258 -0.075724 0.301000
v 0.189825 -0.075724 0.307914
v 0.191135 -0.075724 0.306896
v 0.195258 -0.075724 0.301000
v 0.191135 -0.075724 0.306896
v 0.195258 -0.075724 0.301000
v 0.195258 -0.075724 0.301000
v 0.195258 -0.075724 0.301000
v 0.196834 -0.075724 0.306144
v 0.195258 -0.075724 0.301000
v 0.196834 -0.075724 0.306144
v 0.197886 -0.075724 0.306850
v 0.198981 -0.075724 0.310463
v 0.198577 -0.075724 0.311891
v 0.206104 -0.075724 0.320926
v 0.187940 -0.075724 0.314577
v 0.187566 -0.077720 0.313345
v 0.187566 -0.075724 0.313345
v 0.187566 -0.077720 0.313345
v 0.187940 -0.075724 0.314577
v 0.187940 -0.077720 0.314577
v 0.188677 -0.075724 0.315580
v 0.187940 -0.077720 0.314577
v 0.187940 -0.075724 0.314577
v 0.187940 -0.077720 0.314577
v 0.188677 -0.075724 0.315580
v 0.188677 -0.077720 0.315580
v 0.202615 -0.075724 0.326311
v 0.201819 -0.077720 0.326248
v 0.201819 -0.075724 0.326248
v 0.201819 -0.077720 0.326248
v 0.202615 -0.075724 0.326311
v 0.202615 -0.077720 0.326311
v 0.195258 -0.077720 0.301000
v 0.163100 -0.084039 0.280765
v 0.183547 -0.077720 0.310757
v 0.163100 -0.084039 0.280765
v 0.195258 -0.077720 0.301000
v 0.169441 -0.084039 0.275482
v 0.196834 -0.077720 0.306144
v 0.195541 -0.075724 0.305784
v 0.195541 -0.077720 0.305784
v 0.195541 -0.075724 0.305784
v 0.196834 -0.077720 0.306144
v 0.196834 -0.075724 0.306144
v 0.183547 -0.077720 0.310757
v 0.201599 -0.075724 0.332424
v 0.183547 -0.075724 0.310757
v 0.201599 -0.075724 0.332424
v 0.183547 -0.077720 0.310757
v 0.201599 -0.077720 0.332424
v 0.195196 -0.075724 0.300927
v 0.183547 -0.075724 0.310757
v 0.183486 -0.075724 0.310684
v 0.183547 -0.075724 0.310757
v 0.195196 -0.075724 0.300927
v 0.195258 -0.075724 0.301000
v 0.191135 -0.077720 0.306896
v 0.192590 -0.075724 0.306173
v 0.191135 -0.075724 0.306896
v 0.192590 -0.075724 0.306173
v 0.191135 -0.077720 0.306896
v 0.192590 -0.077720 0.306173
v 0.206515 -0.077720 0.323061
v 0.206217 -0.075724 0.323866
v 0.206515 -0.075724 0.323061
v 0.206217 -0.075724 0.323866
v 0.206515 -0.077720 0.323061
v 0.206217 -0.077720 0.323866
v 0.195541 -0.077720 0.305784
v 0.194093 -0.075724 0.305794
v 0.194093 -0.077720 0.305794
v 0.194093 -0.075724 0.305794
v 0.195541 -0.077720 0.305784
v 0.195541 -0.075724 0.305784
v 0.189729 -0.075724 0.316286
v 0.188677 -0.077720 0.315580
v 0.188677 -0.075724 0.315580
v 0.188677 -0.077720 0.315580
v 0.189729 -0.075724 0.316286
v 0.189729 -0.077720 0.316286
v 0.206515 -0.077720 0.323061
v 0.206596 -0.075724 0.322268
v 0.206596 -0.077720 0.322268
v 0.206596 -0.075724 0.322268
v 0.206515 -0.077720 0.323061
v 0.206515 -0.075724 0.323061
v 0.191022 -0.075724 0.316646
v 0.189729 -0.077720 0.316286
v 0.189729 -0.075724 0.316286
v 0.189729 -0.077720 0.316286
v 0.191022 -0.075724 0.316646
v 0.191022 -0.077720 0.316646
v 0.192590 -0.077720 0.306173
v 0.194093 -0.075724 0.305794
v 0.192590 -0.075724 0.306173
v 0.194093 -0.075724 0.305794
v 0.192590 -0.077720 0.306173
v 0.194093 -0.077720 0.305794
v 0.195196 -0.075724 0.300927
v 0.183275 -0.075781 0.310431
v 0.183486 -0.075724 0.310684
v 0.183275 -0.075781 0.310431
v 0.195196 -0.075724 0.300927
v 0.194986 -0.075781 0.300674
v 0.206596 -0.077720 0.322268
v 0.206456 -0.075724 0.321539
v 0.206456 -0.077720 0.321539
v 0.206456 -0.075724 0.321539
v 0.206596 -0.077720 0.322268
v 0.206596 -0.075724 0.322268
v 0.206217 -0.077720 0.323866
v 0.205724 -0.075724 0.324627
v 0.206217 -0.075724 0.323866
v 0.205724 -0.075724 0.324627
v 0.206217 -0.077720 0.323866
v 0.205724 -0.077720 0.324627
v 0.195258 -0.077720 0.301000
v 0.195196 -0.077284 0.300927
v 0.205069 -0.077720 0.325292
v 0.204297 -0.075724 0.325816
v 0.205069 -0.075724 0.325292
v 0.204297 -0.075724 0.325816
v 0.205069 -0.077720 0.325292
v 0.204297 -0.077720 0.325816
v 0.188751 -0.077720 0.309156
v 0.189825 -0.075724 0.307914
v 0.188751 -0.075724 0.309156
v 0.189825 -0.075724 0.307914
v 0.188751 -0.077720 0.309156
v 0.189825 -0.077720 0.307914
v 0.200588 -0.075724 0.325521
v 0.193061 -0.077720 0.316487
v 0.193061 -0.075724 0.316487
v 0.193061 -0.077720 0.316487
v 0.200588 -0.075724 0.325521
v 0.200588 -0.077720 0.325521
v 0.195196 -0.077284 0.300927
v 0.194986 -0.075781 0.300674
v 0.192470 -0.075724 0.316636
v 0.191022 -0.077720 0.316646
v 0.191022 -0.075724 0.316646
v 0.191022 -0.077720 0.316646
v 0.192470 -0.075724 0.316636
v 0.192470 -0.077720 0.316636
v 0.205724 -0.077720 0.324627
v 0.205069 -0.075724 0.325292
v 0.205724 -0.075724 0.324627
v 0.205069 -0.075724 0.325292
v 0.205724 -0.077720 0.324627
v 0.205069 -0.077720 0.325292
v 0.163100 -0.084039 0.280765
v 0.183275 -0.075781 0.310431
v 0.162828 -0.082100 0.280438
v 0.183275 -0.075781 0.310431
v 0.163100 -0.084039 0.280765
v 0.183547 -0.077720 0.310757
v -0.020381 -0.077701 0.135557
v -0.027634 -0.075763 0.148970
v -0.020013 -0.075763 0.135770
v -0.027919 -0.077266 0.148805
v -0.028002 -0.077701 0.148757
v -0.025291 -0.077701 0.140393
v -0.026169 -0.075706 0.141800
v -0.025291 -0.075706 0.140393
v -0.026169 -0.077701 0.141800
v -0.024472 -0.077701 0.137295
v -0.024712 -0.075706 0.138857
v -0.024472 -0.075706 0.137295
v -0.024712 -0.077701 0.138857
v 0.009532 -0.082082 0.156857
v 0.005406 -0.082082 0.164004
v -0.025046 -0.075706 0.134516
v -0.024586 -0.077701 0.135814
v -0.024586 -0.075706 0.135814
v -0.025046 -0.077701 0.134516
v -0.032489 -0.077701 0.144175
v -0.031258 -0.075706 0.144474
v -0.031258 -0.077701 0.144474
v -0.032489 -0.075706 0.144175
v -0.045062 -0.077701 0.133803
v -0.034878 -0.075706 0.139682
v -0.034878 -0.077701 0.139682
v -0.045062 -0.075706 0.133803
v -0.034764 -0.077701 0.141163
v -0.034303 -0.075706 0.142461
v -0.034303 -0.077701 0.142461
v -0.034764 -0.075706 0.141163
v -0.027919 -0.075706 0.148805
v -0.028002 -0.075706 0.148757
v 0.005038 -0.084021 0.163792
v -0.044389 -0.077701 0.127974
v -0.043646 -0.075706 0.127544
v -0.044389 -0.075706 0.127974
v -0.043646 -0.077701 0.127544
v -0.031288 -0.077701 0.133465
v -0.030785 -0.075706 0.133121
v -0.031288 -0.075706 0.133465
v -0.030785 -0.077701 0.133121
v -0.033527 -0.077701 0.143488
v -0.033527 -0.075706 0.143488
v -0.045604 -0.077701 0.133348
v -0.045604 -0.075706 0.133348
v -0.020381 -0.075706 0.135557
v -0.044804 -0.077701 0.121456
v -0.042137 -0.077701 0.127343
v -0.026861 -0.077701 0.132802
v -0.042878 -0.077701 0.127329
v -0.052426 -0.077701 0.134657
v -0.041472 -0.077701 0.127585
v -0.028092 -0.077701 0.132503
v -0.029430 -0.077701 0.132611
v -0.045054 -0.077701 0.128589
v -0.045598 -0.077701 0.129348
v -0.045983 -0.077701 0.130198
v -0.046183 -0.077701 0.131083
v -0.046185 -0.077701 0.131940
v -0.045987 -0.077701 0.132713
v -0.025822 -0.077701 0.133489
v -0.027285 -0.077701 0.142982
v -0.028565 -0.077701 0.143857
v -0.029920 -0.077701 0.144366
v -0.052426 -0.075706 0.134657
v -0.042137 -0.075706 0.127343
v -0.041472 -0.075706 0.127585
v -0.042878 -0.075706 0.127329
v 0.009165 -0.084021 0.156645
v -0.020298 -0.075706 0.135605
v -0.045054 -0.075706 0.128589
v -0.044804 -0.075706 0.121456
v -0.026861 -0.075706 0.132802
v -0.028092 -0.075706 0.132503
v -0.029430 -0.075706 0.132611
v -0.045598 -0.075706 0.129348
v -0.045983 -0.075706 0.130198
v -0.046183 -0.075706 0.131083
v -0.046185 -0.075706 0.131940
v -0.045987 -0.075706 0.132713
v -0.025822 -0.075706 0.133489
v -0.027285 -0.075706 0.142982
v -0.028565 -0.075706 0.143857
v -0.029920 -0.075706 0.144366
v -0.027919 -0.077701 0.148805
v -0.027634 -0.075763 0.148970
v -0.020013 -0.075763 0.135770
v -0.027634 -0.075763 0.148970
v -0.028002 -0.077701 0.148757
v -0.027919 -0.077266 0.148805
v -0.028002 -0.077701 0.148757
v -0.027634 -0.075763 0.148970
v 0.005406 -0.082082 0.164004
v -0.027634 -0.075763 0.148970
v -0.027919 -0.077266 0.148805
v -0.027919 -0.077266 0.148805
v -0.028002 -0.077701 0.148757
v -0.034764 -0.077701 0.141163
v -0.034878 -0.075706 0.139682
v -0.034764 -0.075706 0.141163
v -0.034878 -0.075706 0.139682
v -0.034764 -0.077701 0.141163
v -0.034878 -0.077701 0.139682
v -0.032489 -0.075706 0.144175
v -0.032489 -0.077701 0.144175
v -0.032489 -0.075706 0.144175
v -0.045062 -0.075706 0.133803
v -0.045062 -0.077701 0.133803
v -0.045062 -0.075706 0.133803
v -0.034303 -0.077701 0.142461
v -0.033527 -0.075706 0.143488
v -0.033527 -0.077701 0.143488
v -0.033527 -0.075706 0.143488
v -0.034303 -0.077701 0.142461
v -0.034303 -0.075706 0.142461
v -0.028002 -0.077701 0.148757
v -0.028002 -0.075706 0.148757
v -0.028002 -0.077701 0.148757
v -0.020381 -0.077701 0.135557
v -0.043646 -0.077701 0.127544
v -0.043646 -0.077701 0.127544
v -0.044389 -0.077701 0.127974
v -0.044389 -0.077701 0.127974
v -0.030785 -0.077701 0.133121
v -0.030785 -0.077701 0.133121
v -0.031288 -0.077701 0.133465
v -0.044389 -0.077701 0.127974
v -0.045604 -0.077701 0.133348
v -0.045604 -0.077701 0.133348
v -0.045062 -0.077701 0.133803
v -0.045062 -0.077701 0.133803
v -0.034764 -0.077701 0.141163
v -0.034764 -0.077701 0.141163
v -0.034303 -0.077701 0.142461
v -0.034303 -0.077701 0.142461
v -0.033527 -0.077701 0.143488
v -0.033527 -0.077701 0.143488
v -0.032489 -0.077701 0.144175
v -0.032489 -0.077701 0.144175
v -0.028002 -0.077701 0.148757
v -0.020381 -0.077701 0.135557
v -0.024712 -0.077701 0.138857
v -0.028002 -0.077701 0.148757
v -0.024712 -0.077701 0.138857
v -0.020381 -0.077701 0.135557
v -0.024472 -0.077701 0.137295
v -0.024472 -0.077701 0.137295
v -0.020381 -0.077701 0.135557
v -0.024586 -0.077701 0.135814
v -0.024586 -0.077701 0.135814
v -0.020381 -0.077701 0.135557
v -0.025046 -0.077701 0.134516
v -0.025046 -0.077701 0.134516
v -0.020381 -0.077701 0.135557
v -0.020381 -0.077701 0.135557
v -0.020381 -0.077701 0.135557
v -0.028002 -0.077701 0.148757
v -0.024712 -0.077701 0.138857
v -0.025291 -0.077701 0.140393
v -0.028002 -0.077701 0.148757
v -0.025291 -0.077701 0.140393
v -0.026169 -0.077701 0.141800
v -0.028002 -0.077701 0.148757
v -0.026169 -0.077701 0.141800
v -0.028002 -0.077701 0.148757
v -0.028002 -0.077701 0.148757
v -0.028002 -0.077701 0.148757
v -0.031258 -0.077701 0.144474
v -0.028002 -0.077701 0.148757
v -0.031258 -0.077701 0.144474
v -0.032489 -0.077701 0.144175
v -0.034764 -0.077701 0.141163
v -0.034878 -0.077701 0.139682
v -0.045062 -0.077701 0.133803
v -0.028002 -0.077701 0.148757
v -0.028002 -0.077701 0.148757
v -0.052426 -0.077701 0.134657
v -0.041472 -0.077701 0.127585
v -0.041472 -0.077701 0.127585
v -0.042137 -0.077701 0.127343
v -0.042137 -0.077701 0.127343
v -0.042137 -0.075706 0.127343
v -0.042137 -0.077701 0.127343
v -0.042878 -0.077701 0.127329
v 0.005038 -0.084021 0.163792
v 0.009532 -0.082082 0.156857
v 0.005406 -0.082082 0.164004
v 0.009532 -0.082082 0.156857
v 0.005038 -0.084021 0.163792
v -0.020381 -0.077701 0.135557
v -0.020013 -0.075763 0.135770
v -0.020381 -0.077701 0.135557
v -0.020381 -0.075706 0.135557
v -0.045054 -0.077701 0.128589
v -0.044389 -0.075706 0.127974
v -0.044389 -0.075706 0.127974
v -0.045054 -0.077701 0.128589
v -0.044389 -0.077701 0.127974
v -0.024586 -0.077701 0.135814
v -0.024472 -0.075706 0.137295
v -0.024586 -0.075706 0.135814
v -0.024472 -0.075706 0.137295
v -0.024586 -0.077701 0.135814
v -0.024472 -0.077701 0.137295
v -0.044804 -0.077701 0.121456
v -0.052426 -0.075706 0.134657
v -0.052426 -0.075706 0.134657
v -0.044804 -0.077701 0.121456
v -0.052426 -0.077701 0.134657
v -0.044804 -0.075706 0.121456
v -0.020381 -0.075706 0.135557
v -0.044804 -0.075706 0.121456
v -0.042137 -0.075706 0.127343
v -0.042137 -0.075706 0.127343
v -0.044804 -0.075706 0.121456
v -0.042878 -0.075706 0.127329
v -0.042878 -0.075706 0.127329
v -0.044804 -0.075706 0.121456
v -0.043646 -0.075706 0.127544
v -0.043646 -0.075706 0.127544
v -0.044804 -0.075706 0.121456
v -0.044389 -0.075706 0.127974
v -0.044389 -0.075706 0.127974
v -0.044804 -0.075706 0.121456
v -0.052426 -0.075706 0.134657
v -0.042137 -0.075706 0.127343
v -0.041472 -0.075706 0.127585
v -0.041472 -0.075706 0.127585
v -0.041472 -0.075706 0.127585
v -0.041472 -0.075706 0.127585
v -0.030785 -0.075706 0.133121
v -0.030785 -0.075706 0.133121
v -0.041472 -0.075706 0.127585
v -0.031288 -0.075706 0.133465
v -0.044389 -0.075706 0.127974
v -0.052426 -0.075706 0.134657
v -0.045054 -0.075706 0.128589
v -0.045054 -0.075706 0.128589
v -0.052426 -0.075706 0.134657
v -0.052426 -0.075706 0.134657
v -0.052426 -0.075706 0.134657
v -0.052426 -0.075706 0.134657
v -0.052426 -0.075706 0.134657
v -0.052426 -0.075706 0.134657
v -0.045604 -0.075706 0.133348
v -0.045604 -0.075706 0.133348
v -0.052426 -0.075706 0.134657
v -0.045062 -0.075706 0.133803
v -0.045062 -0.075706 0.133803
v -0.052426 -0.075706 0.134657
v -0.034764 -0.075706 0.141163
v -0.034764 -0.075706 0.141163
v -0.052426 -0.075706 0.134657
v -0.034303 -0.075706 0.142461
v -0.034303 -0.075706 0.142461
v -0.052426 -0.075706 0.134657
v -0.033527 -0.075706 0.143488
v -0.033527 -0.075706 0.143488
v -0.052426 -0.075706 0.134657
v -0.032489 -0.075706 0.144175
v -0.032489 -0.075706 0.144175
v -0.052426 -0.075706 0.134657
v -0.028002 -0.075706 0.148757
v -0.020381 -0.075706 0.135557
v -0.024712 -0.075706 0.138857
v -0.028002 -0.075706 0.148757
v -0.024712 -0.075706 0.138857
v -0.020381 -0.075706 0.135557
v -0.024472 -0.075706 0.137295
v -0.024472 -0.075706 0.137295
v -0.020381 -0.075706 0.135557
v -0.024586 -0.075706 0.135814
v -0.024586 -0.075706 0.135814
v -0.020381 -0.075706 0.135557
v -0.025046 -0.075706 0.134516
v -0.025046 -0.075706 0.134516
v -0.020381 -0.075706 0.135557
v -0.020381 -0.075706 0.135557
v -0.028002 -0.075706 0.148757
v -0.024712 -0.075706 0.138857
v -0.025291 -0.075706 0.140393
v -0.028002 -0.075706 0.148757
v -0.025291 -0.075706 0.140393
v -0.026169 -0.075706 0.141800
v -0.028002 -0.075706 0.148757
v -0.026169 -0.075706 0.141800
v -0.028002 -0.075706 0.148757
v -0.028002 -0.075706 0.148757
v -0.028002 -0.075706 0.148757
v -0.031258 -0.075706 0.144474
v -0.028002 -0.075706 0.148757
v -0.031258 -0.075706 0.144474
v -0.032489 -0.075706 0.144175
v -0.034764 -0.075706 0.141163
v -0.034878 -0.075706 0.139682
v -0.045062 -0.075706 0.133803
v -0.025822 -0.075706 0.133489
v -0.025046 -0.077701 0.134516
v -0.025046 -0.075706 0.134516
v -0.025046 -0.077701 0.134516
v -0.025822 -0.075706 0.133489
v -0.025822 -0.077701 0.133489
v -0.026861 -0.075706 0.132802
v -0.025822 -0.077701 0.133489
v -0.025822 -0.075706 0.133489
v -0.025822 -0.077701 0.133489
v -0.026861 -0.075706 0.132802
v -0.026861 -0.077701 0.132802
v -0.043646 -0.075706 0.127544
v -0.042878 -0.077701 0.127329
v -0.042878 -0.075706 0.127329
v -0.042878 -0.077701 0.127329
v -0.043646 -0.075706 0.127544
v -0.043646 -0.077701 0.127544
v -0.028002 -0.077701 0.148757
v 0.009165 -0.084021 0.156645
v -0.020381 -0.077701 0.135557
v 0.009165 -0.084021 0.156645
v -0.028002 -0.077701 0.148757
v 0.005038 -0.084021 0.163792
v -0.031258 -0.077701 0.144474
v -0.029920 -0.075706 0.144366
v -0.029920 -0.077701 0.144366
v -0.029920 -0.075706 0.144366
v -0.031258 -0.077701 0.144474
v -0.031258 -0.075706 0.144474
v -0.020381 -0.077701 0.135557
v -0.044804 -0.075706 0.121456
v -0.020381 -0.075706 0.135557
v -0.044804 -0.075706 0.121456
v -0.020381 -0.077701 0.135557
v -0.044804 -0.077701 0.121456
v -0.027919 -0.075706 0.148805
v -0.020381 -0.075706 0.135557
v -0.020298 -0.075706 0.135605
v -0.020381 -0.075706 0.135557
v -0.027919 -0.075706 0.148805
v -0.028002 -0.075706 0.148757
v -0.026169 -0.077701 0.141800
v -0.027285 -0.075706 0.142982
v -0.026169 -0.075706 0.141800
v -0.027285 -0.075706 0.142982
v -0.026169 -0.077701 0.141800
v -0.027285 -0.077701 0.142982
v -0.046185 -0.077701 0.131940
v -0.046183 -0.075706 0.131083
v -0.046185 -0.075706 0.131940
v -0.046183 -0.075706 0.131083
v -0.046185 -0.077701 0.131940
v -0.046183 -0.077701 0.131083
v -0.029920 -0.077701 0.144366
v -0.028565 -0.075706 0.143857
v -0.028565 -0.077701 0.143857
v -0.028565 -0.075706 0.143857
v -0.029920 -0.077701 0.144366
v -0.029920 -0.075706 0.144366
v -0.028092 -0.075706 0.132503
v -0.026861 -0.077701 0.132802
v -0.026861 -0.075706 0.132802
v -0.026861 -0.077701 0.132802
v -0.028092 -0.075706 0.132503
v -0.028092 -0.077701 0.132503
v -0.046185 -0.077701 0.131940
v -0.045987 -0.075706 0.132713
v -0.045987 -0.077701 0.132713
v -0.045987 -0.075706 0.132713
v -0.046185 -0.077701 0.131940
v -0.046185 -0.075706 0.131940
v -0.029430 -0.075706 0.132611
v -0.028092 -0.077701 0.132503
v -0.028092 -0.075706 0.132503
v -0.028092 -0.077701 0.132503
v -0.029430 -0.075706 0.132611
v -0.029430 -0.077701 0.132611
v -0.027285 -0.077701 0.142982
v -0.028565 -0.075706 0.143857
v -0.027285 -0.075706 0.142982
v -0.028565 -0.075706 0.143857
v -0.027285 -0.077701 0.142982
v -0.028565 -0.077701 0.143857
v -0.027919 -0.075706 0.148805
v -0.020013 -0.075763 0.135770
v -0.020298 -0.075706 0.135605
v -0.020013 -0.075763 0.135770
v -0.027919 -0.075706 0.148805
v -0.027634 -0.075763 0.148970
v -0.045987 -0.077701 0.132713
v -0.045604 -0.075706 0.133348
v -0.045604 -0.077701 0.133348
v -0.045604 -0.075706 0.133348
v -0.045987 -0.077701 0.132713
v -0.045987 -0.075706 0.132713
v -0.046183 -0.077701 0.131083
v -0.045983 -0.075706 0.130198
v -0.046183 -0.075706 0.131083
v -0.045983 -0.075706 0.130198
v -0.046183 -0.077701 0.131083
v -0.045983 -0.077701 0.130198
v -0.028002 -0.077701 0.148757
v -0.027919 -0.077266 0.148805
v -0.045598 -0.077701 0.129348
v -0.045054 -0.075706 0.128589
v -0.045598 -0.075706 0.129348
v -0.045054 -0.075706 0.128589
v -0.045598 -0.077701 0.129348
v -0.045054 -0.077701 0.128589
v -0.024712 -0.077701 0.138857
v -0.025291 -0.075706 0.140393
v -0.024712 -0.075706 0.138857
v -0.025291 -0.075706 0.140393
v -0.024712 -0.077701 0.138857
v -0.025291 -0.077701 0.140393
v -0.041472 -0.075706 0.127585
v -0.031288 -0.077701 0.133465
v -0.031288 -0.075706 0.133465
v -0.031288 -0.077701 0.133465
v -0.041472 -0.075706 0.127585
v -0.041472 -0.077701 0.127585
v -0.027919 -0.077266 0.148805
v -0.027634 -0.075763 0.148970
v -0.030785 -0.075706 0.133121
v -0.029430 -0.077701 0.132611
v -0.029430 -0.075706 0.132611
v -0.029430 -0.077701 0.132611
v -0.030785 -0.075706 0.133121
v -0.030785 -0.077701 0.133121
v -0.045983 -0.077701 0.130198
v -0.045598 -0.075706 0.129348
v -0.045983 -0.075706 0.130198
v -0.045598 -0.075706 0.129348
v -0.045983 -0.077701 0.130198
v -0.045598 -0.077701 0.129348
v 0.009165 -0.084021 0.156645
v -0.020013 -0.075763 0.135770
v 0.009532 -0.082082 0.156857
v -0.020013 -0.075763 0.135770
v 0.009165 -0.084021 0.156645
v -0.020381 -0.077701 0.135557
f 1 2 3
f 2 1 4
f 4 1 5
f 6 7 8
f 7 6 9
f 10 11 12
f 11 10 13
f 87 14 88
f 14 89 15
f 16 17 18
f 17 16 19
f 20 21 22
f 21 20 23
f 24 25 26
f 25 24 27
f 28 29 30
f 29 28 31
f 32 90 91
f 92 32 33
f 93 34 94
f 34 95 96
f 34 97 98
f 35 36 37
f 36 35 38
f 99 100 101
f 102 103 104
f 39 40 41
f 40 39 42
f 43 105 106
f 107 43 44
f 45 108 109
f 110 45 46
f 111 112 113
f 114 115 116
f 117 47 118
f 47 119 120
f 48 49 50
f 49 48 51
f 51 48 121
f 122 48 123
f 124 48 52
f 50 49 53
f 50 53 54
f 54 53 55
f 55 53 125
f 126 53 127
f 128 52 56
f 56 52 57
f 57 52 58
f 58 52 59
f 59 52 60
f 60 52 61
f 61 52 129
f 130 52 131
f 132 52 133
f 134 52 135
f 136 52 137
f 138 52 139
f 140 52 141
f 142 143 144
f 145 146 147
f 148 149 150
f 151 152 153
f 154 155 62
f 62 156 50
f 50 157 48
f 158 159 160
f 161 162 163
f 164 165 63
f 166 63 64
f 167 64 65
f 168 65 169
f 170 171 172
f 173 174 175
f 66 176 33
f 177 66 178
f 67 179 68
f 180 67 181
f 69 182 183
f 184 69 185
f 186 187 188
f 189 190 70
f 191 71 192
f 71 193 194
f 195 196 72
f 197 198 199
f 200 201 202
f 203 204 205
f 206 207 73
f 208 209 210
f 211 74 212
f 74 213 214
f 215 216 217
f 218 219 220
f 221 222 223
f 224 225 226
f 74 227 228
f 74 229 75
f 75 230 76
f 76 231 232
f 233 234 235
f 236 237 238
f 239 240 77
f 77 241 78
f 78 242 79
f 79 243 80
f 80 244 81
f 81 245 246
f 247 248 249
f 250 251 252
f 253 254 255
f 256 257 258
f 259 260 261
f 262 263 264
f 265 266 267
f 268 269 270
f 271 272 273
f 274 275 276
f 277 278 82
f 82 279 74
f 280 281 282
f 283 284 285
f 286 287 83
f 288 83 84
f 289 84 85
f 290 85 291
f 292 293 294
f 295 296 297
f 298 299 300
f 301 302 303
f 304 305 306
f 307 308 309
f 310 311 312
f 313 314 315
f 316 317 318
f 319 320 321
f 322 323 324
f 325 326 327
f 328 329 330
f 331 332 333
f 334 335 336
f 337 338 339
f 340 341 342
f 343 344 345
f 346 347 348
f 349 350 351
f 352 353 354
f 355 356 357
f 358 359 360
f 361 362 363
f 364 365 366
f 367 368 369
f 370 371 372
f 373 374 375
f 376 377 378
f 379 380 381
f 382 383 384
f 385 386 387
f 388 389 390
f 391 392 393
f 394 395 396
f 397 398 399
f 400 86 401
f 402 403 404
f 405 406 407
f 408 409 410
f 411 412 413
f 414 415 416
f 417 418 419
f 32 420 421
f 422 423 424
f 425 426 427
f 428 429 430
f 431 432 433
f 434 435 436
f 437 438 439
f 440 441 442
f 441 440 443
f 443 440 444
f 445 446 447
f 446 445 448
f 449 450 451
f 450 449 452
f 526 453 527
f 453 528 454
f 455 456 457
f 456 455 458
f 459 460 461
f 460 459 462
f 463 464 465
f 464 463 466
f 467 468 469
f 468 467 470
f 471 529 530
f 531 471 472
f 532 473 533
f 473 534 535
f 473 536 537
f 474 475 476
f 475 474 477
f 538 539 540
f 541 542 543
f 478 479 480
f 479 478 481
f 482 544 545
f 546 482 483
f 484 547 548
f 549 484 485
f 550 551 552
f 553 554 555
f 556 486 557
f 486 558 559
f 487 488 489
f 488 487 490
f 490 487 560
f 561 487 562
f 563 487 491
f 489 488 492
f 489 492 493
f 493 492 494
f 494 492 564
f 565 492 566
f 567 491 495
f 495 491 496
f 496 491 497
f 497 491 498
f 498 491 499
f 499 491 500
f 500 491 568
f 569 491 570
f 571 491 572
f 573 491 574
f 575 491 576
f 577 491 578
f 579 491 580
f 581 582 583
f 584 585 586
f 587 588 589
f 590 591 592
f 593 594 501
f 501 595 489
f 489 596 487
f 597 598 599
f 600 601 602
f 603 604 502
f 605 502 503
f 606 503 504
f 607 504 608
f 609 610 611
f 612 613 614
f 505 615 472
f 616 505 617
f 506 618 507
f 619 506 620
f 508 621 622
f 623 508 624
f 625 626 627
f 628 629 509
f 630 510 631
f 510 632 633
f 634 635 511
f 636 637 638
f 639 640 641
f 642 643 644
f 645 646 512
f 647 648 649
f 650 513 651
f 513 652 653
f 654 655 656
f 657 658 659
f 660 661 662
f 663 664 665
f 513 666 667
f 513 668 514
f 514 669 515
f 515 670 671
f 672 673 674
f 675 676 677
f 678 679 516
f 516 680 517
f 517 681 518
f 518 682 519
f 519 683 520
f 520 684 685
f 686 687 688
f 689 690 691
f 692 693 694
f 695 696 697
f 698 699 700
f 701 702 703
f 704 705 706
f 707 708 709
f 710 711 712
f 713 714 715
f 716 717 521
f 521 718 513
f 719 720 721
f 722 723 724
f 725 726 522
f 727 522 523
f 728 523 524
f 729 524 730
f 731 732 733
f 734 735 736
f 737 738 739
f 740 741 742
f 743 744 745
f 746 747 748
f 749 750 751
f 752 753 754
f 755 756 757
f 758 759 760
f 761 762 763
f 764 765 766
f 767 768 769
f 770 771 772
f 773 774 775
f 776 777 778
f 779 780 781
f 782 783 784
f 785 786 787
f 788 789 790
f 791 792 793
f 794 795 796
f 797 798 799
f 800 801 802
f 803 804 805
f 806 807 808
f 809 810 811
f 812 813 814
f 815 816 817
f 818 819 820
f 821 822 823
f 824 825 826
f 827 828 829
f 830 831 832
f 833 834 835
f 836 837 838
f 839 525 840
f 841 842 843
f 844 845 846
f 847 848 849
f 850 851 852
f 853 854 855
f 856 857 858
f 471 859 860
f 861 862 863
f 864 865 866
f 867 868 869
f 870 871 872
f 873 874 875
f 876 877 878
f 879 880 881
f 880 879 882
f 882 879 883
f 884 885 886
f 885 884 887
f 888 889 890
f 889 888 891
f 965 892 966
f 892 967 893
f 894 895 896
f 895 894 897
f 898 899 900
f 899 898 901
f 902 903 904
f 903 902 905
f 906 907 908
f 907 906 909
f 910 968 969
f 970 910 911
f 971 912 972
f 912 973 974
f 912 975 976
f 913 914 915
f 914 913 916
f 977 978 979
f 980 981 982
f 917 918 919
f 918 917 920
f 921 983 984
f 985 921 922
f 923 986 987
f 988 923 924
f 989 990 991
f 992 993 994
f 995 925 996
f 925 997 998
f 926 927 928
f 927 926 929
f 929 926 999
f 1000 926 1001
f 1002 926 930
f 928 927 931
f 928 931 932
f 932 931 933
f 933 931 1003
f 1004 931 1005
f 1006 930 934
f 934 930 935
f 935 930 936
f 936 930 937
f 937 930 938
f 938 930 939
f 939 930 1007
f 1008 930 1009
f 1010 930 1011
f 1012 930 1013
f 1014 930 1015
f 1016 930 1017
f 1018 930 1019
f 1020 1021 1022
f 1023 1024 1025
f 1026 1027 1028
f 1029 1030 1031
f 1032 1033 940
f 940 1034 928
f 928 1035 926
f 1036 1037 1038
f 1039 1040 1041
f 1042 1043 941
f 1044 941 942
f 1045 942 943
f 1046 943 1047
f 1048 1049 1050
f 1051 1052 1053
f 944 1054 911
f 1055 944 1056
f 945 1057 946
f 1058 945 1059
f 947 1060 1061
f 1062 947 1063
f 1064 1065 1066
f 1067 1068 948
f 1069 949 1070
f 949 1071 1072
f 1073 1074 950
f 1075 1076 1077
f 1078 1079 1080
f 1081 1082 1083
f 1084 1085 951
f 1086 1087 1088
f 1089 952 1090
f 952 1091 1092
f 1093 1094 1095
f 1096 1097 1098
f 1099 1100 1101
f 1102 1103 1104
f 952 1105 1106
f 952 1107 953
f 953 1108 954
f 954 1109 1110
f 1111 1112 1113
f 1114 1115 1116
f 1117 1118 955
f 955 1119 956
f 956 1120 957
f 957 1121 958
f 958 1122 959
f 959 1123 1124
f 1125 1126 1127
f 1128 1129 1130
f 1131 1132 1133
f 1134 1135 1136
f 1137 1138 1139
f 1140 1141 1142
f 1143 1144 1145
f 1146 1147 1148
f 1149 1150 1151
f 1152 1153 1154
f 1155 1156 960
f 960 1157 952
f 1158 1159 1160
f 1161 1162 1163
f 1164 1165 961
f 1166 961 962
f 1167 962 963
f 1168 963 1169
f 1170 1171 1172
f 1173 1174 1175
f 1176 1177 1178
f 1179 1180 1181
f 1182 1183 1184
f 1185 1186 1187
f 1188 1189 1190
f 1191 1192 1193
f 1194 1195 1196
f 1197 1198 1199
f 1200 1201 1202
f 1203 1204 1205
f 1206 1207 1208
f 1209 1210 1211
f 1212 1213 1214
f 1215 1216 1217
f 1218 1219 1220
f 1221 1222 1223
f 1224 1225 1226
f 1227 1228 1229
f 1230 1231 1232
f 1233 1234 1235
f 1236 1237 1238
f 1239 1240 1241
f 1242 1243 1244
f 1245 1246 1247
f 1248 1249 1250
f 1251 1252 1253
f 1254 1255 1256
f 1257 1258 1259
f 1260 1261 1262
f 1263 1264 1265
f 1266 1267 1268
f 1269 1270 1271
f 1272 1273 1274
f 1275 1276 1277
f 1278 964 1279
f 1280 1281 1282
f 1283 1284 1285
f 1286 1287 1288
f 1289 1290 1291
f 1292 1293 1294
f 1295 1296 1297
f 910 1298 1299
f 1300 1301 1302
f 1303 1304 1305
f 1306 1307 1308
f 1309 1310 1311
f 1312 1313 1314
f 1315 1316 1317
f 1318 1319 1320
f 1319 1318 1321
f 1321 1318 1322
f 1323 1324 1325
f 1324 1323 1326
f 1327 1328 1329
f 1328 1327 1330
f 1404 1331 1405
f 1331 1406 1332
f 1333 1334 1335
f 1334 1333 1336
f 1337 1338 1339
f 1338 1337 1340
f 1341 1342 1343
f 1342 1341 1344
f 1345 1346 1347
f 1346 1345 1348
f 1349 1407 1408
f 1409 1349 1350
f 1410 1351 1411
f 1351 1412 1413
f 1351 1414 1415
f 1352 1353 1354
f 1353 1352 1355
f 1416 1417 1418
f 1419 1420 1421
f 1356 1357 1358
f 1357 1356 1359
f 1360 1422 1423
f 1424 1360 1361
f 1362 1425 1426
f 1427 1362 1363
f 1428 1429 1430
f 1431 1432 1433
f 1434 1364 1435
f 1364 1436 1437
f 1365 1366 1367
f 1366 1365 1368
f 1368 1365 1438
f 1439 1365 1440
f 1441 1365 1369
f 1367 1366 1370
f 1367 1370 1371
f 1371 1370 1372
f 1372 1370 1442
f 1443 1370 1444
f 1445 1369 1373
f 1373 1369 1374
f 1374 1369 1375
f 1375 1369 1376
f 1376 1369 1377
f 1377 1369 1378
f 1378 1369 1446
f 1447 1369 1448
f 1449 1369 1450
f 1451 1369 1452
f 1453 1369 1454
f 1455 1369 1456
f 1457 1369 1458
f 1459 1460 1461
f 1462 1463 1464
f 1465 1466 1467
f 1468 1469 1470
f 1471 1472 1379
f 1379 1473 1367
f 1367 1474 1365
f 1475 1476 1477
f 1478 1479 1480
f 1481 1482 1380
f 1483 1380 1381
f 1484 1381 1382
f 1485 1382 1486
f 1487 1488 1489
f 1490 1491 1492
f 1383 1493 1350
f 1494 1383 1495
f 1384 1496 1385
f 1497 1384 1498
f 1386 1499 1500
f 1501 1386 1502
f 1503 1504 1505
f 1506 1507 1387
f 1508 1388 1509
f 1388 1510 1511
f 1512 1513 1389
f 1514 1515 1516
f 1517 1518 1519
f 1520 1521 1522
f 1523 1524 1390
f 1525 1526 1527
f 1528 1391 1529
f 1391 1530 1531
f 1532 1533 1534
f 1535 1536 1537
f 1538 1539 1540
f 1541 1542 1543
f 1391 1544 1545
f 1391 1546 1392
f 1392 1547 1393
f 1393 1548 1549
f 1550 1551 1552
f 1553 1554 1555
f 1556 1557 1394
f 1394 1558 1395
f 1395 1559 1396
f 1396 1560 1397
f 1397 1561 1398
f 1398 1562 1563
f 1564 1565 1566
f 1567 1568 1569
f 1570 1571 1572
f 1573 1574 1575
f 1576 1577 1578
f 1579 1580 1581
f 1582 1583 1584
f 1585 1586 1587
f 1588 1589 1590
f 1591 1592 1593
f 1594 1595 1399
f 1399 1596 1391
f 1597 1598 1599
f 1600 1601 1602
f 1603 1604 1400
f 1605 1400 1401
f 1606 1401 1402
f 1607 1402 1608
f 1609 1610 1611
f 1612 1613 1614
f 1615 1616 1617
f 1618 1619 1620
f 1621 1622 1623
f 1624 1625 1626
f 1627 1628 1629
f 1630 1631 1632
f 1633 1634 1635
f 1636 1637 1638
f 1639 1640 1641
f 1642 1643 1644
f 1645 1646 1647
f 1648 1649 1650
f 1651 1652 1653
f 1654 1655 1656
f 1657 1658 1659
f 1660 1661 1662
f 1663 1664 1665
f 1666 1667 1668
f 1669 1670 1671
f 1672 1673 1674
f 1675 1676 1677
f 1678 1679 1680
f 1681 1682 1683
f 1684 1685 1686
f 1687 1688 1689
f 1690 1691 1692
f 1693 1694 1695
f 1696 1697 1698
f 1699 1700 1701
f 1702 1703 1704
f 1705 1706 1707
f 1708 1709 1710
f 1711 1712 1713
f 1714 1715 1716
f 1717 1403 1718
f 1719 1720 1721
f 1722 1723 1724
f 1725 1726 1727
f 1728 1729 1730
f 1731 1732 1733
f 1734 1735 1736
f 1349 1737 1738
f 1739 1740 1741
f 1742 1743 1744
f 1745 1746 1747
f 1748 1749 1750
f 1751 1752 1753
f 1754 1755 1756
