v -0.386531 -0.068246 0.493829
v -0.382338 -0.070319 0.493829
v -0.384705 -0.069830 0.493829
v -0.387327 -0.065993 0.493829
v -0.380064 -0.069582 0.493829
v -0.386879 -0.063673 0.493829
v -0.378492 -0.067817 0.493829
v -0.385308 -0.061908 0.493829
v -0.378045 -0.065497 0.493829
v -0.383034 -0.061171 0.493829
v -0.378841 -0.063244 0.493829
v -0.380667 -0.061660 0.493829
v -0.383126 -0.059960 0.514213
v -0.383142 -0.059756 0.511865
v -0.383142 -0.059756 0.499575
v -0.380867 -0.060226 0.508594
v -0.382291 -0.070932 0.495038
v -0.387046 -0.068582 0.495038
v -0.384975 -0.070377 0.495038
v -0.387948 -0.066026 0.495038
v -0.379712 -0.070096 0.495038
v -0.377931 -0.068095 0.495038
v -0.387441 -0.063395 0.495038
v -0.377423 -0.065464 0.495038
v -0.385659 -0.061394 0.495038
v -0.378135 -0.063449 0.495038
v -0.383081 -0.060558 0.495038
v -0.378326 -0.062908 0.495038
v -0.380396 -0.061113 0.495038
v -0.380042 -0.060396 0.511382
v -0.380042 -0.060396 0.511865
v -0.380042 -0.060396 0.499575
v -0.379392 -0.060960 0.511865
v -0.377651 -0.062470 0.499575
v -0.377651 -0.062470 0.501412
v -0.383126 -0.059960 0.497226
v -0.380132 -0.060578 0.497226
v -0.377823 -0.062581 0.497226
v -0.377468 -0.062989 0.511865
v -0.377250 -0.063606 0.499575
v -0.377505 -0.063480 0.497226
v -0.209231 0.060402 0.490685
v -0.204557 0.060565 0.490685
v -0.206873 0.059873 0.490685
v -0.211000 0.062009 0.490685
v -0.202904 0.062292 0.490685
v -0.211706 0.064264 0.490685
v -0.202357 0.064591 0.490685
v -0.211159 0.066563 0.490685
v -0.203063 0.066846 0.490685
v -0.209507 0.068290 0.490685
v -0.204832 0.068453 0.490685
v -0.207191 0.068981 0.490685
v -0.210162 0.069312 0.511069
v -0.210272 0.069484 0.508721
v -0.210272 0.069484 0.496431
v -0.208047 0.070149 0.505450
v -0.204225 0.060048 0.491895
v -0.209526 0.059863 0.491895
v -0.206851 0.059263 0.491895
v -0.211532 0.061685 0.491895
v -0.202351 0.062006 0.491895
v -0.201731 0.064612 0.491895
v -0.212332 0.064242 0.491895
v -0.202531 0.067170 0.491895
v -0.211712 0.066849 0.491895
v -0.204113 0.068607 0.491895
v -0.209838 0.068807 0.491895
v -0.204537 0.068992 0.491895
v -0.207212 0.069591 0.491895
v -0.207240 0.070390 0.508239
v -0.207240 0.070390 0.508721
v -0.207240 0.070390 0.496431
v -0.206399 0.070202 0.508721
v -0.204151 0.069698 0.496431
v -0.204151 0.069698 0.498269
v -0.210162 0.069312 0.494083
v -0.207233 0.070187 0.494083
v -0.204250 0.069519 0.494083
v -0.203744 0.069328 0.508721
v -0.203259 0.068888 0.496431
v -0.203544 0.068878 0.494083
v -0.393571 -0.178767 0.490252
v -0.389378 -0.180839 0.490252
v -0.391745 -0.180350 0.490252
v -0.394367 -0.176513 0.490252
v -0.387104 -0.180102 0.490252
v -0.393919 -0.174193 0.490252
v -0.385532 -0.178338 0.490252
v -0.392348 -0.172428 0.490252
v -0.385085 -0.176017 0.490252
v -0.390074 -0.171691 0.490252
v -0.385881 -0.173764 0.490252
v -0.387707 -0.172180 0.490252
v -0.390166 -0.170480 0.510636
v -0.390182 -0.170276 0.508287
v -0.390182 -0.170276 0.495997
v -0.387907 -0.170746 0.505017
v -0.389331 -0.181452 0.491461
v -0.394086 -0.179102 0.491461
v -0.392015 -0.180897 0.491461
v -0.394988 -0.176546 0.491461
v -0.386752 -0.180616 0.491461
v -0.384971 -0.178615 0.491461
v -0.394481 -0.173915 0.491461
v -0.384463 -0.175984 0.491461
v -0.392699 -0.171914 0.491461
v -0.385175 -0.173969 0.491461
v -0.390121 -0.171079 0.491461
v -0.385366 -0.173429 0.491461
v -0.387436 -0.171633 0.491461
v -0.387082 -0.170916 0.507805
v -0.387082 -0.170916 0.508287
v -0.387082 -0.170916 0.495997
v -0.386431 -0.171481 0.508287
v -0.384691 -0.172990 0.495997
v -0.384691 -0.172990 0.497835
v -0.390166 -0.170480 0.493649
v -0.387172 -0.171099 0.493649
v -0.384863 -0.173101 0.493649
v -0.384508 -0.173509 0.508287
v -0.384290 -0.174127 0.495997
v -0.384545 -0.174000 0.493649
v -0.380571 -0.170097 0.490252
v -0.376377 -0.172169 0.490252
v -0.378745 -0.171680 0.490252
v -0.381367 -0.167843 0.490252
v -0.374104 -0.171433 0.490252
v -0.380919 -0.165523 0.490252
v -0.372532 -0.169668 0.490252
v -0.379348 -0.163758 0.490252
v -0.372085 -0.167348 0.490252
v -0.377074 -0.163021 0.490252
v -0.372880 -0.165094 0.490252
v -0.374707 -0.163510 0.490252
v -0.377166 -0.161810 0.510636
v -0.377182 -0.161606 0.508287
v -0.377182 -0.161606 0.495997
v -0.374907 -0.162076 0.505017
v -0.376331 -0.172782 0.491461
v -0.381086 -0.170432 0.491461
v -0.379015 -0.172227 0.491461
v -0.381988 -0.167876 0.491461
v -0.373752 -0.171947 0.491461
v -0.371971 -0.169945 0.491461
v -0.381481 -0.165245 0.491461
v -0.371463 -0.167314 0.491461
v -0.379699 -0.163244 0.491461
v -0.372175 -0.165299 0.491461
v -0.377120 -0.162409 0.491461
v -0.372365 -0.164759 0.491461
v -0.374436 -0.162963 0.491461
v -0.374082 -0.162246 0.507805
v -0.374082 -0.162246 0.508287
v -0.374082 -0.162246 0.495997
v -0.373431 -0.162811 0.508287
v -0.371691 -0.164320 0.495997
v -0.371691 -0.164320 0.497835
v -0.377166 -0.161810 0.493649
v -0.374172 -0.162429 0.493649
v -0.371862 -0.164431 0.493649
v -0.371508 -0.164839 0.508287
v -0.371289 -0.165457 0.495997
v -0.371545 -0.165330 0.493649
v -0.238960 0.005665 0.490685
v -0.234285 0.005828 0.490685
v -0.236601 0.005136 0.490685
v -0.240729 0.007272 0.490685
v -0.232632 0.007554 0.490685
v -0.241435 0.009527 0.490685
v -0.232085 0.009853 0.490685
v -0.240888 0.011826 0.490685
v -0.232791 0.012108 0.490685
v -0.239235 0.013552 0.490685
v -0.234560 0.013715 0.490685
v -0.236919 0.014244 0.490685
v -0.239890 0.014575 0.511069
v -0.240001 0.014747 0.508721
v -0.240001 0.014747 0.496431
v -0.237775 0.015412 0.505450
v -0.233953 0.005311 0.491895
v -0.239254 0.005125 0.491895
v -0.236580 0.004526 0.491895
v -0.241260 0.006948 0.491895
v -0.232079 0.007268 0.491895
v -0.231459 0.009875 0.491895
v -0.242061 0.009505 0.491895
v -0.232259 0.012432 0.491895
v -0.241441 0.012112 0.491895
v -0.233842 0.013870 0.491895
v -0.239567 0.014070 0.491895
v -0.234266 0.014255 0.491895
v -0.236940 0.014854 0.491895
v -0.236968 0.015653 0.508239
v -0.236968 0.015653 0.508721
v -0.236968 0.015653 0.496431
v -0.236128 0.015464 0.508721
v -0.233880 0.014961 0.496431
v -0.233880 0.014961 0.498269
v -0.239890 0.014575 0.494083
v -0.236961 0.015450 0.494083
v -0.233978 0.014781 0.494083
v -0.233472 0.014591 0.508721
v -0.232987 0.014150 0.496431
v -0.233272 0.014140 0.494083
v -0.224217 0.033391 0.490685
v -0.219542 0.033555 0.490685
v -0.221858 0.032863 0.490685
v -0.225986 0.034998 0.490685
v -0.217889 0.035281 0.490685
v -0.226692 0.037254 0.490685
v -0.217343 0.037580 0.490685
v -0.226145 0.039552 0.490685
v -0.218049 0.039835 0.490685
v -0.224492 0.041279 0.490685
v -0.219818 0.041442 0.490685
v -0.222176 0.041971 0.490685
v -0.225148 0.042301 0.511069
v -0.225258 0.042474 0.508721
v -0.225258 0.042474 0.496431
v -0.223033 0.043138 0.505450
v -0.219211 0.033037 0.491895
v -0.224512 0.032852 0.491895
v -0.221837 0.032253 0.491895
v -0.226518 0.034674 0.491895
v -0.217337 0.034995 0.491895
v -0.216717 0.037602 0.491895
v -0.227318 0.037232 0.491895
v -0.217517 0.040159 0.491895
v -0.226698 0.039838 0.491895
v -0.219099 0.041596 0.491895
v -0.224824 0.041796 0.491895
v -0.219523 0.041981 0.491895
v -0.222198 0.042581 0.491895
v -0.222226 0.043379 0.508239
v -0.222226 0.043379 0.508721
v -0.222226 0.043379 0.496431
v -0.221385 0.043191 0.508721
v -0.219137 0.042688 0.496431
v -0.219137 0.042688 0.498269
v -0.225148 0.042301 0.494083
v -0.222219 0.043176 0.494083
v -0.219235 0.042508 0.494083
v -0.218730 0.042317 0.508721
v -0.218245 0.041877 0.496431
v -0.218530 0.041867 0.494083
v -0.231624 0.019462 0.490685
v -0.226949 0.019625 0.490685
v -0.229265 0.018933 0.490685
v -0.233393 0.021069 0.490685
v -0.225296 0.021351 0.490685
v -0.234099 0.023324 0.490685
v -0.224749 0.023650 0.490685
v -0.233552 0.025623 0.490685
v -0.225455 0.025905 0.490685
v -0.231899 0.027349 0.490685
v -0.227224 0.027512 0.490685
v -0.229583 0.028041 0.490685
v -0.232554 0.028372 0.511069
v -0.232665 0.028544 0.508721
v -0.232665 0.028544 0.496431
v -0.230439 0.029209 0.505450
v -0.226617 0.019107 0.491895
v -0.231918 0.018922 0.491895
v -0.229244 0.018323 0.491895
v -0.233924 0.020745 0.491895
v -0.224743 0.021065 0.491895
v -0.224123 0.023672 0.491895
v -0.234725 0.023302 0.491895
v -0.224923 0.026229 0.491895
v -0.234105 0.025909 0.491895
v -0.226506 0.027666 0.491895
v -0.232231 0.027866 0.491895
v -0.226930 0.028052 0.491895
v -0.229604 0.028651 0.491895
v -0.229632 0.029450 0.508239
v -0.229632 0.029450 0.508721
v -0.229632 0.029450 0.496431
v -0.228792 0.029261 0.508721
v -0.226544 0.028758 0.496431
v -0.226544 0.028758 0.498269
v -0.232554 0.028372 0.494083
v -0.229625 0.029247 0.494083
v -0.226642 0.028578 0.494083
v -0.226136 0.028387 0.508721
v -0.225651 0.027947 0.496431
v -0.225936 0.027937 0.494083
v -0.367445 -0.161343 0.490252
v -0.363252 -0.163416 0.490252
v -0.365619 -0.162927 0.490252
v -0.368241 -0.159089 0.490252
v -0.360978 -0.162679 0.490252
v -0.367794 -0.156769 0.490252
v -0.359407 -0.160914 0.490252
v -0.366222 -0.155004 0.490252
v -0.358959 -0.158594 0.490252
v -0.363949 -0.154268 0.490252
v -0.359755 -0.156340 0.490252
v -0.361581 -0.154757 0.490252
v -0.364041 -0.153057 0.510636
v -0.364056 -0.152853 0.508287
v -0.364056 -0.152853 0.495997
v -0.361782 -0.153323 0.505017
v -0.363205 -0.164028 0.491461
v -0.367961 -0.161678 0.491461
v -0.365890 -0.163474 0.491461
v -0.368863 -0.159123 0.491461
v -0.360627 -0.163193 0.491461
v -0.358845 -0.161192 0.491461
v -0.368355 -0.156492 0.491461
v -0.358338 -0.158561 0.491461
v -0.366574 -0.154490 0.491461
v -0.359049 -0.156545 0.491461
v -0.363995 -0.153655 0.491461
v -0.359240 -0.156005 0.491461
v -0.361311 -0.154210 0.491461
v -0.360957 -0.153493 0.507805
v -0.360957 -0.153493 0.508287
v -0.360957 -0.153493 0.495997
v -0.360306 -0.154057 0.508287
v -0.358566 -0.155566 0.495997
v -0.358566 -0.155566 0.497835
v -0.364041 -0.153057 0.493649
v -0.361047 -0.153675 0.493649
v -0.358737 -0.155678 0.493649
v -0.358382 -0.156086 0.508287
v -0.358164 -0.156703 0.495997
v -0.358420 -0.156577 0.493649
v -0.216567 0.046605 0.490685
v -0.211892 0.046768 0.490685
v -0.214209 0.046077 0.490685
v -0.218336 0.048212 0.490685
v -0.210240 0.048495 0.490685
v -0.219042 0.050467 0.490685
v -0.209693 0.050794 0.490685
v -0.218495 0.052766 0.490685
v -0.210399 0.053049 0.490685
v -0.216843 0.054493 0.490685
v -0.212168 0.054656 0.490685
v -0.214527 0.055184 0.490685
v -0.217498 0.055515 0.511069
v -0.217608 0.055687 0.508721
v -0.217608 0.055687 0.496431
v -0.215383 0.056352 0.505450
v -0.211561 0.046251 0.491895
v -0.216862 0.046066 0.491895
v -0.214187 0.045467 0.491895
v -0.218868 0.047888 0.491895
v -0.209687 0.048209 0.491895
v -0.209067 0.050816 0.491895
v -0.219668 0.050445 0.491895
v -0.209867 0.053373 0.491895
v -0.219048 0.053052 0.491895
v -0.211449 0.054810 0.491895
v -0.217174 0.055010 0.491895
v -0.211873 0.055195 0.491895
v -0.214548 0.055794 0.491895
v -0.214576 0.056593 0.508239
v -0.214576 0.056593 0.508721
v -0.214576 0.056593 0.496431
v -0.213735 0.056405 0.508721
v -0.211487 0.055901 0.496431
v -0.211487 0.055901 0.498269
v -0.217498 0.055515 0.494083
v -0.214569 0.056390 0.494083
v -0.211586 0.055722 0.494083
v -0.211080 0.055531 0.508721
v -0.210595 0.055091 0.496431
v -0.210880 0.055081 0.494083
v -0.416235 -0.062329 0.493829
v -0.412042 -0.064402 0.493829
v -0.414409 -0.063913 0.493829
v -0.417031 -0.060076 0.493829
v -0.409768 -0.063665 0.493829
v -0.416583 -0.057755 0.493829
v -0.408197 -0.061900 0.493829
v -0.415012 -0.055991 0.493829
v -0.407749 -0.059580 0.493829
v -0.412738 -0.055254 0.493829
v -0.408545 -0.057326 0.493829
v -0.410371 -0.055743 0.493829
v -0.412831 -0.054043 0.514213
v -0.412846 -0.053839 0.511865
v -0.412846 -0.053839 0.499575
v -0.410572 -0.054309 0.508594
v -0.411995 -0.065015 0.495038
v -0.416750 -0.062664 0.495038
v -0.414680 -0.064460 0.495038
v -0.417653 -0.060109 0.495038
v -0.409417 -0.064179 0.495038
v -0.407635 -0.062178 0.495038
v -0.417145 -0.057478 0.495038
v -0.407127 -0.059547 0.495038
v -0.415363 -0.055477 0.495038
v -0.407839 -0.057531 0.495038
v -0.412785 -0.054641 0.495038
v -0.408030 -0.056991 0.495038
v -0.410101 -0.055196 0.495038
v -0.409747 -0.054479 0.511382
v -0.409747 -0.054479 0.511865
v -0.409747 -0.054479 0.499575
v -0.409096 -0.055043 0.511865
v -0.407355 -0.056553 0.499575
v -0.407355 -0.056553 0.501412
v -0.412831 -0.054043 0.497226
v -0.409837 -0.054661 0.497226
v -0.407527 -0.056664 0.497226
v -0.407172 -0.057072 0.511865
v -0.406954 -0.057689 0.499575
v -0.407210 -0.057563 0.497226
f 1 2 3
f 2 1 4
f 2 4 5
f 5 4 6
f 5 6 7
f 7 6 8
f 7 8 9
f 9 8 10
f 9 10 11
f 11 10 12
f 13 14 15
f 15 16 13
f 17 18 19
f 18 17 20
f 20 17 21
f 20 21 22
f 20 22 23
f 23 22 24
f 23 24 25
f 25 24 26
f 25 26 27
f 27 26 28
f 27 28 29
f 16 30 31
f 30 16 32
f 32 16 15
f 33 34 35
f 34 33 32
f 32 33 30
f 32 36 37
f 36 32 15
f 37 28 38
f 28 37 29
f 36 29 37
f 29 36 27
f 32 38 34
f 38 32 37
f 39 34 40
f 34 39 35
f 34 41 40
f 41 34 38
f 38 26 41
f 26 38 28
f 42 43 44
f 43 42 45
f 43 45 46
f 46 45 47
f 46 47 48
f 48 47 49
f 48 49 50
f 50 49 51
f 50 51 52
f 52 51 53
f 54 55 56
f 56 57 54
f 58 59 60
f 59 58 61
f 61 58 62
f 61 62 63
f 61 63 64
f 64 63 65
f 64 65 66
f 66 65 67
f 66 67 68
f 68 67 69
f 68 69 70
f 57 71 72
f 71 57 73
f 73 57 56
f 74 75 76
f 75 74 73
f 73 74 71
f 73 77 78
f 77 73 56
f 78 69 79
f 69 78 70
f 77 70 78
f 70 77 68
f 73 79 75
f 79 73 78
f 80 75 81
f 75 80 76
f 75 82 81
f 82 75 79
f 79 67 82
f 67 79 69
f 83 84 85
f 84 83 86
f 84 86 87
f 87 86 88
f 87 88 89
f 89 88 90
f 89 90 91
f 91 90 92
f 91 92 93
f 93 92 94
f 95 96 97
f 97 98 95
f 99 100 101
f 100 99 102
f 102 99 103
f 102 103 104
f 102 104 105
f 105 104 106
f 105 106 107
f 107 106 108
f 107 108 109
f 109 108 110
f 109 110 111
f 98 112 113
f 112 98 114
f 114 98 97
f 115 116 117
f 116 115 114
f 114 115 112
f 114 118 119
f 118 114 97
f 119 110 120
f 110 119 111
f 118 111 119
f 111 118 109
f 114 120 116
f 120 114 119
f 121 116 122
f 116 121 117
f 116 123 122
f 123 116 120
f 120 108 123
f 108 120 110
f 124 125 126
f 125 124 127
f 125 127 128
f 128 127 129
f 128 129 130
f 130 129 131
f 130 131 132
f 132 131 133
f 132 133 134
f 134 133 135
f 136 137 138
f 138 139 136
f 140 141 142
f 141 140 143
f 143 140 144
f 143 144 145
f 143 145 146
f 146 145 147
f 146 147 148
f 148 147 149
f 148 149 150
f 150 149 151
f 150 151 152
f 139 153 154
f 153 139 155
f 155 139 138
f 156 157 158
f 157 156 155
f 155 156 153
f 155 159 160
f 159 155 138
f 160 151 161
f 151 160 152
f 159 152 160
f 152 159 150
f 155 161 157
f 161 155 160
f 162 157 163
f 157 162 158
f 157 164 163
f 164 157 161
f 161 149 164
f 149 161 151
f 165 166 167
f 166 165 168
f 166 168 169
f 169 168 170
f 169 170 171
f 171 170 172
f 171 172 173
f 173 172 174
f 173 174 175
f 175 174 176
f 177 178 179
f 179 180 177
f 181 182 183
f 182 181 184
f 184 181 185
f 184 185 186
f 184 186 187
f 187 186 188
f 187 188 189
f 189 188 190
f 189 190 191
f 191 190 192
f 191 192 193
f 180 194 195
f 194 180 196
f 196 180 179
f 197 198 199
f 198 197 196
f 196 197 194
f 196 200 201
f 200 196 179
f 201 192 202
f 192 201 193
f 200 193 201
f 193 200 191
f 196 202 198
f 202 196 201
f 203 198 204
f 198 203 199
f 198 205 204
f 205 198 202
f 202 190 205
f 190 202 192
f 206 207 208
f 207 206 209
f 207 209 210
f 210 209 211
f 210 211 212
f 212 211 213
f 212 213 214
f 214 213 215
f 214 215 216
f 216 215 217
f 218 219 220
f 220 221 218
f 222 223 224
f 223 222 225
f 225 222 226
f 225 226 227
f 225 227 228
f 228 227 229
f 228 229 230
f 230 229 231
f 230 231 232
f 232 231 233
f 232 233 234
f 221 235 236
f 235 221 237
f 237 221 220
f 238 239 240
f 239 238 237
f 237 238 235
f 237 241 242
f 241 237 220
f 242 233 243
f 233 242 234
f 241 234 242
f 234 241 232
f 237 243 239
f 243 237 242
f 244 239 245
f 239 244 240
f 239 246 245
f 246 239 243
f 243 231 246
f 231 243 233
f 247 248 249
f 248 247 250
f 248 250 251
f 251 250 252
f 251 252 253
f 253 252 254
f 253 254 255
f 255 254 256
f 255 256 257
f 257 256 258
f 259 260 261
f 261 262 259
f 263 264 265
f 264 263 266
f 266 263 267
f 266 267 268
f 266 268 269
f 269 268 270
f 269 270 271
f 271 270 272
f 271 272 273
f 273 272 274
f 273 274 275
f 262 276 277
f 276 262 278
f 278 262 261
f 279 280 281
f 280 279 278
f 278 279 276
f 278 282 283
f 282 278 261
f 283 274 284
f 274 283 275
f 282 275 283
f 275 282 273
f 278 284 280
f 284 278 283
f 285 280 286
f 280 285 281
f 280 287 286
f 287 280 284
f 284 272 287
f 272 284 274
f 288 289 290
f 289 288 291
f 289 291 292
f 292 291 293
f 292 293 294
f 294 293 295
f 294 295 296
f 296 295 297
f 296 297 298
f 298 297 299
f 300 301 302
f 302 303 300
f 304 305 306
f 305 304 307
f 307 304 308
f 307 308 309
f 307 309 310
f 310 309 311
f 310 311 312
f 312 311 313
f 312 313 314
f 314 313 315
f 314 315 316
f 303 317 318
f 317 303 319
f 319 303 302
f 320 321 322
f 321 320 319
f 319 320 317
f 319 323 324
f 323 319 302
f 324 315 325
f 315 324 316
f 323 316 324
f 316 323 314
f 319 325 321
f 325 319 324
f 326 321 327
f 321 326 322
f 321 328 327
f 328 321 325
f 325 313 328
f 313 325 315
f 329 330 331
f 330 329 332
f 330 332 333
f 333 332 334
f 333 334 335
f 335 334 336
f 335 336 337
f 337 336 338
f 337 338 339
f 339 338 340
f 341 342 343
f 343 344 341
f 345 346 347
f 346 345 348
f 348 345 349
f 348 349 350
f 348 350 351
f 351 350 352
f 351 352 353
f 353 352 354
f 353 354 355
f 355 354 356
f 355 356 357
f 344 358 359
f 358 344 360
f 360 344 343
f 361 362 363
f 362 361 360
f 360 361 358
f 360 364 365
f 364 360 343
f 365 356 366
f 356 365 357
f 364 357 365
f 357 364 355
f 360 366 362
f 366 360 365
f 367 362 368
f 362 367 363
f 362 369 368
f 369 362 366
f 366 354 369
f 354 366 356
f 370 371 372
f 371 370 373
f 371 373 374
f 374 373 375
f 374 375 376
f 376 375 377
f 376 377 378
f 378 377 379
f 378 379 380
f 380 379 381
f 382 383 384
f 384 385 382
f 386 387 388
f 387 386 389
f 389 386 390
f 389 390 391
f 389 391 392
f 392 391 393
f 392 393 394
f 394 393 395
f 394 395 396
f 396 395 397
f 396 397 398
f 385 399 400
f 399 385 401
f 401 385 384
f 402 403 404
f 403 402 401
f 401 402 399
f 401 405 406
f 405 401 384
f 406 397 407
f 397 406 398
f 405 398 406
f 398 405 396
f 401 407 403
f 407 401 406
f 408 403 409
f 403 408 404
f 403 410 409
f 410 403 407
f 407 395 410
f 395 407 397
