v 0.102835 -0.075724 0.143480
v 0.060160 -0.075724 0.143480
v 0.081498 -0.075724 0.140671
v 0.122719 -0.075724 0.151716
v 0.040276 -0.075724 0.151716
v 0.139793 -0.075724 0.164818
v 0.023202 -0.075724 0.164818
v 0.152895 -0.075724 0.181892
v 0.010100 -0.075724 0.181892
v 0.161131 -0.075724 0.201776
v 0.001864 -0.075724 0.201776
v -0.000433 -0.075724 0.219221
v 0.163940 -0.075724 0.223114
v -0.000783 -0.075724 0.232145
v -0.004215 -0.075724 0.218390
v 0.161131 -0.075724 0.244451
v 0.000563 -0.075724 0.234572
v 0.001864 -0.075724 0.244451
v 0.152895 -0.075724 0.264335
v 0.010100 -0.075724 0.264335
v 0.023202 -0.075724 0.281409
v 0.139793 -0.075724 0.281409
v 0.122719 -0.075724 0.294511
v 0.040276 -0.075724 0.294511
v 0.102835 -0.075724 0.302747
v 0.060160 -0.075724 0.302747
v 0.090126 -0.075724 0.304420
v 0.081498 -0.075724 0.305556
v 0.082880 -0.075724 0.305953
f 1 2 3
f 2 1 4
f 2 4 5
f 5 4 6
f 5 6 7
f 7 6 8
f 7 8 9
f 9 8 10
f 9 10 11
f 11 10 12
f 12 10 13
f 12 14 15
f 14 12 13
f 14 13 16
f 14 16 17
f 17 16 18
f 18 16 19
f 18 19 20
f 20 19 21
f 21 19 22
f 21 22 23
f 21 23 24
f 24 23 25
f 24 25 26
f 26 25 27
f 26 27 28
f 28 27 29
