v -0.068391 -0.113245 0.314184
v -0.084837 -0.114503 0.316067
v -0.084837 -0.113245 0.314184
v -0.068391 -0.114503 0.316067
v -0.084837 -0.106920 0.323650
v -0.084837 -0.111362 0.323650
v -0.084837 -0.109141 0.324092
v -0.084837 -0.113245 0.322392
v -0.084837 -0.105037 0.322392
v -0.084837 -0.103779 0.320509
v -0.084837 -0.109141 0.321081
v -0.084837 -0.108073 0.320868
v -0.084837 -0.107167 0.320263
v -0.084837 -0.103338 0.318288
v -0.084837 -0.106561 0.319357
v -0.084837 -0.106349 0.318288
v -0.084837 -0.103779 0.316067
v -0.084837 -0.106561 0.317220
v -0.084837 -0.107167 0.316314
v -0.084837 -0.108073 0.315708
v -0.084837 -0.105037 0.314184
v -0.084837 -0.109141 0.315496
v -0.084837 -0.114503 0.320509
v -0.084837 -0.110210 0.320868
v -0.084837 -0.111116 0.320263
v -0.084837 -0.114945 0.318288
v -0.084837 -0.111721 0.319357
v -0.084837 -0.111934 0.318288
v -0.084837 -0.111721 0.317220
v -0.084837 -0.111116 0.316314
v -0.084837 -0.110210 0.315708
v -0.084837 -0.106920 0.312926
v -0.084837 -0.111362 0.312926
v -0.084837 -0.109141 0.312484
v -0.068391 -0.111362 0.312926
v -0.077469 -0.106920 0.312926
v -0.077469 -0.105037 0.314184
v -0.068391 -0.114945 0.318288
v -0.068391 -0.114503 0.320509
v -0.068391 -0.109141 0.324092
v -0.068391 -0.111362 0.323650
v -0.068391 -0.113245 0.322392
v -0.091744 -0.110210 0.315708
v -0.091744 -0.111116 0.316314
v -0.101233 -0.106826 0.323878
v -0.101233 -0.111457 0.323878
v -0.101233 -0.109141 0.324338
v -0.101233 -0.113419 0.322566
v -0.101233 -0.104863 0.322566
v -0.101233 -0.103552 0.320603
v -0.101233 -0.114731 0.320603
v -0.101233 -0.103091 0.318288
v -0.101233 -0.115191 0.318288
v -0.101233 -0.103552 0.315973
v -0.101233 -0.114731 0.315973
v -0.101233 -0.104863 0.314010
v -0.101233 -0.113419 0.314010
v -0.101233 -0.106826 0.312699
v -0.101233 -0.111457 0.312699
v -0.101233 -0.109141 0.312238
v -0.068391 -0.103338 0.318288
v -0.068391 -0.103779 0.316067
v -0.068391 -0.105037 0.314184
v -0.091744 -0.114731 0.315973
v -0.091744 -0.115191 0.318288
v -0.091744 -0.111457 0.323878
v -0.091744 -0.109141 0.324338
v -0.091744 -0.114731 0.320603
v -0.091744 -0.113419 0.322566
v -0.091744 -0.107167 0.316314
v -0.091744 -0.108073 0.315708
v -0.091744 -0.106561 0.319357
v -0.091744 -0.107167 0.320263
v -0.091744 -0.111721 0.319357
v -0.091744 -0.111934 0.318288
v -0.068391 -0.106920 0.323650
v -0.091744 -0.111116 0.320263
v -0.091744 -0.110210 0.320868
v -0.068391 -0.105037 0.322392
v -0.068391 -0.103779 0.320509
v -0.068391 -0.106920 0.312926
v -0.068391 -0.109141 0.312484
v -0.091744 -0.106826 0.323878
v -0.091744 -0.104863 0.322566
v -0.091744 -0.113419 0.314010
v -0.091744 -0.106561 0.317220
v -0.091744 -0.103552 0.315973
v -0.091744 -0.104863 0.314010
v -0.091744 -0.111721 0.317220
v -0.091744 -0.111457 0.312699
v -0.091744 -0.106349 0.318288
v -0.091744 -0.109141 0.321081
v -0.091744 -0.108073 0.320868
v -0.091744 -0.103552 0.320603
v -0.091744 -0.106826 0.312699
v -0.091744 -0.103091 0.318288
v -0.091744 -0.109141 0.315496
v -0.091744 -0.109141 0.312238
v -0.084837 -0.114503 0.316067
v -0.084837 -0.114503 0.316067
v -0.084837 -0.114503 0.316067
v -0.084837 -0.114503 0.316067
v -0.084837 -0.113245 0.314184
v -0.084837 -0.113245 0.314184
v -0.084837 -0.113245 0.314184
v -0.084837 -0.113245 0.314184
v -0.084837 -0.113245 0.314184
v -0.084837 -0.111362 0.312926
v -0.068391 -0.113245 0.314184
v -0.084837 -0.113245 0.314184
v -0.068391 -0.113245 0.314184
v -0.084837 -0.111362 0.312926
v -0.084837 -0.105037 0.314184
v -0.084837 -0.106920 0.312926
v -0.084837 -0.105037 0.314184
v -0.084837 -0.114503 0.320509
v -0.084837 -0.114945 0.318288
v -0.084837 -0.114503 0.320509
v -0.084837 -0.111362 0.323650
v -0.084837 -0.111362 0.323650
v -0.084837 -0.109141 0.324092
v -0.068391 -0.114503 0.320509
v -0.084837 -0.113245 0.322392
v -0.084837 -0.114503 0.320509
v -0.084837 -0.113245 0.322392
v -0.068391 -0.114503 0.320509
v -0.084837 -0.111116 0.316314
v -0.084837 -0.111116 0.316314
v -0.084837 -0.110210 0.315708
v -0.084837 -0.103779 0.316067
v -0.084837 -0.103338 0.318288
v -0.084837 -0.103779 0.316067
v -0.068391 -0.103779 0.316067
v -0.084837 -0.105037 0.314184
v -0.084837 -0.103779 0.316067
v -0.084837 -0.105037 0.314184
v -0.068391 -0.103779 0.316067
v -0.077469 -0.105037 0.314184
v -0.077469 -0.105037 0.314184
v -0.068391 -0.103779 0.316067
v -0.101233 -0.115191 0.318288
v -0.101233 -0.114731 0.315973
v -0.101233 -0.115191 0.318288
v -0.101233 -0.109141 0.324338
v -0.101233 -0.111457 0.323878
v -0.101233 -0.109141 0.324338
v -0.101233 -0.113419 0.322566
v -0.101233 -0.114731 0.320603
v -0.101233 -0.113419 0.322566
v -0.084837 -0.108073 0.315708
v -0.084837 -0.108073 0.315708
v -0.084837 -0.107167 0.316314
v -0.084837 -0.107167 0.320263
v -0.084837 -0.107167 0.320263
v -0.084837 -0.106561 0.319357
v -0.084837 -0.111934 0.318288
v -0.084837 -0.111934 0.318288
v -0.084837 -0.111721 0.319357
v -0.084837 -0.109141 0.324092
v -0.068391 -0.109141 0.324092
v -0.084837 -0.109141 0.324092
v -0.084837 -0.106920 0.323650
v -0.068391 -0.111362 0.323650
v -0.084837 -0.113245 0.322392
v -0.068391 -0.113245 0.322392
v -0.084837 -0.113245 0.322392
v -0.068391 -0.111362 0.323650
v -0.084837 -0.111362 0.323650
v -0.084837 -0.110210 0.320868
v -0.084837 -0.111116 0.320263
v -0.084837 -0.110210 0.320868
v -0.068391 -0.111362 0.323650
v -0.068391 -0.106920 0.323650
v -0.068391 -0.109141 0.324092
v -0.068391 -0.106920 0.323650
v -0.068391 -0.111362 0.323650
v -0.068391 -0.113245 0.322392
v -0.068391 -0.106920 0.323650
v -0.068391 -0.113245 0.322392
v -0.068391 -0.113245 0.322392
v -0.068391 -0.114503 0.320509
v -0.068391 -0.114503 0.320509
v -0.068391 -0.114503 0.320509
v -0.068391 -0.114945 0.318288
v -0.068391 -0.114945 0.318288
v -0.068391 -0.103338 0.318288
v -0.068391 -0.103338 0.318288
v -0.068391 -0.114945 0.318288
v -0.068391 -0.114503 0.316067
v -0.068391 -0.103338 0.318288
v -0.068391 -0.114503 0.316067
v -0.068391 -0.103779 0.316067
v -0.068391 -0.103779 0.316067
v -0.068391 -0.114503 0.316067
v -0.068391 -0.113245 0.314184
v -0.068391 -0.103779 0.316067
v -0.068391 -0.113245 0.314184
v -0.068391 -0.105037 0.314184
v -0.068391 -0.105037 0.314184
v -0.068391 -0.113245 0.314184
v -0.068391 -0.111362 0.312926
v -0.068391 -0.105037 0.314184
v -0.068391 -0.111362 0.312926
v -0.068391 -0.111362 0.312926
v -0.084837 -0.111721 0.319357
v -0.091744 -0.111116 0.320263
v -0.091744 -0.111721 0.319357
v -0.091744 -0.111116 0.320263
v -0.084837 -0.111721 0.319357
v -0.084837 -0.111116 0.320263
v -0.101233 -0.104863 0.322566
v -0.101233 -0.106826 0.323878
v -0.101233 -0.104863 0.322566
v -0.084837 -0.109141 0.312484
v -0.068391 -0.111362 0.312926
v -0.084837 -0.111362 0.312926
v -0.068391 -0.111362 0.312926
v -0.084837 -0.109141 0.312484
v -0.068391 -0.109141 0.312484
v -0.084837 -0.106920 0.312926
v -0.068391 -0.109141 0.312484
v -0.084837 -0.109141 0.312484
v -0.068391 -0.109141 0.312484
v -0.084837 -0.106920 0.312926
v -0.068391 -0.106920 0.312926
v -0.068391 -0.106920 0.312926
v -0.084837 -0.106920 0.312926
v -0.077469 -0.106920 0.312926
v -0.091744 -0.113419 0.322566
v -0.101233 -0.111457 0.323878
v -0.101233 -0.113419 0.322566
v -0.101233 -0.111457 0.323878
v -0.091744 -0.113419 0.322566
v -0.091744 -0.111457 0.323878
v -0.101233 -0.114731 0.315973
v -0.101233 -0.113419 0.314010
v -0.101233 -0.114731 0.315973
v -0.091744 -0.114731 0.315973
v -0.068391 -0.114503 0.316067
v -0.084837 -0.114945 0.318288
v -0.084837 -0.114503 0.316067
v -0.084837 -0.114945 0.318288
v -0.068391 -0.114503 0.316067
v -0.068391 -0.114945 0.318288
v -0.084837 -0.106561 0.317220
v -0.091744 -0.107167 0.316314
v -0.091744 -0.107167 0.316314
v -0.084837 -0.106561 0.317220
v -0.084837 -0.107167 0.316314
v -0.101233 -0.114731 0.320603
v -0.101233 -0.115191 0.318288
v -0.101233 -0.114731 0.320603
v -0.091744 -0.114731 0.320603
v -0.068391 -0.105037 0.322392
v -0.084837 -0.106920 0.323650
v -0.068391 -0.106920 0.323650
v -0.084837 -0.106920 0.323650
v -0.068391 -0.105037 0.322392
v -0.084837 -0.105037 0.322392
v -0.101233 -0.104863 0.314010
v -0.101233 -0.103552 0.315973
v -0.101233 -0.104863 0.314010
v -0.084837 -0.111721 0.317220
v -0.091744 -0.111934 0.318288
v -0.091744 -0.111934 0.318288
v -0.084837 -0.111721 0.317220
v -0.084837 -0.111934 0.318288
v -0.101233 -0.111457 0.312699
v -0.091744 -0.113419 0.314010
v -0.101233 -0.113419 0.314010
v -0.091744 -0.113419 0.314010
v -0.101233 -0.111457 0.312699
v -0.084837 -0.106349 0.318288
v -0.091744 -0.106561 0.317220
v -0.091744 -0.106561 0.317220
v -0.084837 -0.106349 0.318288
v -0.084837 -0.106561 0.317220
v -0.084837 -0.108073 0.320868
v -0.084837 -0.109141 0.321081
v -0.084837 -0.108073 0.320868
v -0.068391 -0.106920 0.312926
v -0.068391 -0.106920 0.312926
v -0.068391 -0.105037 0.314184
v -0.091744 -0.104863 0.322566
v -0.101233 -0.103552 0.320603
v -0.101233 -0.104863 0.322566
v -0.101233 -0.103552 0.320603
v -0.091744 -0.104863 0.322566
v -0.101233 -0.104863 0.314010
v -0.101233 -0.106826 0.312699
v -0.101233 -0.104863 0.314010
v -0.091744 -0.104863 0.314010
v -0.084837 -0.107167 0.320263
v -0.091744 -0.108073 0.320868
v -0.084837 -0.108073 0.320868
v -0.091744 -0.108073 0.320868
v -0.084837 -0.107167 0.320263
v -0.091744 -0.107167 0.320263
v -0.091744 -0.106826 0.323878
v -0.101233 -0.109141 0.324338
v -0.101233 -0.109141 0.324338
v -0.091744 -0.106826 0.323878
v -0.101233 -0.106826 0.323878
v -0.091744 -0.103552 0.320603
v -0.101233 -0.103091 0.318288
v -0.101233 -0.103552 0.320603
v -0.101233 -0.103091 0.318288
v -0.091744 -0.103552 0.320603
v -0.091744 -0.111457 0.323878
v -0.091744 -0.106826 0.323878
v -0.091744 -0.109141 0.324338
v -0.091744 -0.106826 0.323878
v -0.091744 -0.111457 0.323878
v -0.091744 -0.113419 0.322566
v -0.091744 -0.106826 0.323878
v -0.091744 -0.113419 0.322566
v -0.091744 -0.104863 0.322566
v -0.091744 -0.104863 0.322566
v -0.091744 -0.113419 0.322566
v -0.091744 -0.114731 0.320603
v -0.091744 -0.104863 0.322566
v -0.091744 -0.114731 0.320603
v -0.091744 -0.109141 0.321081
v -0.091744 -0.109141 0.321081
v -0.091744 -0.114731 0.320603
v -0.091744 -0.110210 0.320868
v -0.091744 -0.110210 0.320868
v -0.091744 -0.114731 0.320603
v -0.091744 -0.111116 0.320263
v -0.091744 -0.111116 0.320263
v -0.091744 -0.114731 0.320603
v -0.091744 -0.115191 0.318288
v -0.091744 -0.111116 0.320263
v -0.091744 -0.115191 0.318288
v -0.091744 -0.111721 0.319357
v -0.091744 -0.111721 0.319357
v -0.091744 -0.115191 0.318288
v -0.091744 -0.111934 0.318288
v -0.091744 -0.111934 0.318288
v -0.091744 -0.115191 0.318288
v -0.091744 -0.114731 0.315973
v -0.091744 -0.111934 0.318288
v -0.091744 -0.114731 0.315973
v -0.091744 -0.111721 0.317220
v -0.091744 -0.111721 0.317220
v -0.091744 -0.114731 0.315973
v -0.091744 -0.111116 0.316314
v -0.091744 -0.111116 0.316314
v -0.091744 -0.114731 0.315973
v -0.091744 -0.110210 0.315708
v -0.091744 -0.110210 0.315708
v -0.091744 -0.114731 0.315973
v -0.091744 -0.113419 0.314010
v -0.091744 -0.110210 0.315708
v -0.091744 -0.113419 0.314010
v -0.091744 -0.109141 0.321081
v -0.091744 -0.103552 0.320603
v -0.091744 -0.104863 0.322566
v -0.091744 -0.103552 0.320603
v -0.091744 -0.109141 0.321081
v -0.091744 -0.108073 0.320868
v -0.091744 -0.103552 0.320603
v -0.091744 -0.108073 0.320868
v -0.091744 -0.107167 0.320263
v -0.091744 -0.103552 0.320603
v -0.091744 -0.107167 0.320263
v -0.091744 -0.103091 0.318288
v -0.091744 -0.103091 0.318288
v -0.091744 -0.107167 0.320263
v -0.091744 -0.106561 0.319357
v -0.091744 -0.103091 0.318288
v -0.091744 -0.106561 0.319357
v -0.091744 -0.106349 0.318288
v -0.091744 -0.103091 0.318288
v -0.091744 -0.106349 0.318288
v -0.091744 -0.106561 0.317220
v -0.091744 -0.103091 0.318288
v -0.091744 -0.106561 0.317220
v -0.091744 -0.103552 0.315973
v -0.091744 -0.103552 0.315973
v -0.091744 -0.106561 0.317220
v -0.091744 -0.107167 0.316314
v -0.091744 -0.103552 0.315973
v -0.091744 -0.107167 0.316314
v -0.091744 -0.108073 0.315708
v -0.091744 -0.103552 0.315973
v -0.091744 -0.108073 0.315708
v -0.091744 -0.104863 0.314010
v -0.091744 -0.104863 0.314010
v -0.091744 -0.108073 0.315708
v -0.091744 -0.104863 0.314010
v -0.091744 -0.113419 0.314010
v -0.091744 -0.104863 0.314010
v -0.091744 -0.113419 0.314010
v -0.091744 -0.111457 0.312699
v -0.091744 -0.104863 0.314010
v -0.091744 -0.111457 0.312699
v -0.091744 -0.106826 0.312699
v -0.091744 -0.106826 0.312699
v -0.091744 -0.111457 0.312699
v -0.091744 -0.108073 0.315708
v -0.084837 -0.109141 0.315496
v -0.091744 -0.109141 0.315496
v -0.084837 -0.109141 0.315496
v -0.091744 -0.108073 0.315708
v -0.084837 -0.108073 0.315708
v -0.091744 -0.109141 0.315496
v -0.084837 -0.110210 0.315708
v -0.091744 -0.110210 0.315708
v -0.084837 -0.110210 0.315708
v -0.091744 -0.109141 0.315496
v -0.084837 -0.109141 0.315496
v -0.101233 -0.106826 0.312699
v -0.091744 -0.109141 0.312238
v -0.101233 -0.109141 0.312238
v -0.091744 -0.109141 0.312238
v -0.101233 -0.106826 0.312699
v -0.091744 -0.106826 0.312699
v -0.084837 -0.109141 0.321081
v -0.091744 -0.110210 0.320868
v -0.084837 -0.110210 0.320868
v -0.091744 -0.110210 0.320868
v -0.084837 -0.109141 0.321081
v -0.091744 -0.109141 0.321081
v -0.084837 -0.106561 0.319357
v -0.091744 -0.106349 0.318288
v -0.091744 -0.106561 0.319357
v -0.091744 -0.106349 0.318288
v -0.084837 -0.106561 0.319357
v -0.084837 -0.106349 0.318288
v -0.101233 -0.109141 0.312238
v -0.091744 -0.111457 0.312699
v -0.101233 -0.111457 0.312699
v -0.091744 -0.111457 0.312699
v -0.101233 -0.109141 0.312238
v -0.091744 -0.109141 0.312238
v -0.084837 -0.111116 0.316314
v -0.091744 -0.111721 0.317220
v -0.091744 -0.111116 0.316314
v -0.091744 -0.111721 0.317220
v -0.084837 -0.111116 0.316314
v -0.084837 -0.111721 0.317220
v -0.091744 -0.103091 0.318288
v -0.101233 -0.103552 0.315973
v -0.101233 -0.103091 0.318288
v -0.101233 -0.103552 0.315973
v -0.091744 -0.103091 0.318288
v -0.091744 -0.103552 0.315973
v -0.068391 -0.103779 0.320509
v -0.084837 -0.103338 0.318288
v -0.084837 -0.103779 0.320509
v -0.084837 -0.103338 0.318288
v -0.068391 -0.103779 0.320509
v -0.068391 -0.103338 0.318288
v -0.068391 -0.105037 0.322392
v -0.084837 -0.103779 0.320509
v -0.084837 -0.105037 0.322392
v -0.084837 -0.103779 0.320509
v -0.068391 -0.105037 0.322392
v -0.068391 -0.103779 0.320509
f 1 2 3
f 2 1 4
f 5 6 7
f 6 5 8
f 8 5 9
f 8 9 10
f 8 10 11
f 11 10 12
f 12 10 13
f 13 10 14
f 13 14 15
f 15 14 16
f 16 14 17
f 16 17 18
f 18 17 19
f 19 17 20
f 20 17 21
f 20 21 22
f 11 23 8
f 23 11 24
f 23 24 25
f 23 25 26
f 26 25 27
f 26 27 28
f 26 28 29
f 26 29 99
f 100 29 30
f 101 30 31
f 102 31 103
f 104 31 22
f 105 22 21
f 106 21 32
f 107 32 33
f 33 32 34
f 108 109 110
f 111 112 35
f 113 36 114
f 36 115 37
f 38 116 117
f 118 38 39
f 40 119 41
f 120 40 121
f 122 123 124
f 125 126 42
f 43 127 44
f 128 43 129
f 45 46 47
f 46 45 48
f 48 45 49
f 48 49 50
f 48 50 51
f 51 50 52
f 51 52 53
f 53 52 54
f 53 54 55
f 55 54 56
f 55 56 57
f 57 56 58
f 57 58 59
f 59 58 60
f 61 130 131
f 132 61 62
f 133 134 135
f 136 137 138
f 139 140 63
f 64 141 142
f 143 64 65
f 66 144 145
f 146 66 67
f 68 147 148
f 149 68 69
f 70 150 71
f 151 70 152
f 153 72 73
f 72 154 155
f 156 74 75
f 74 157 158
f 76 159 160
f 161 76 162
f 163 164 165
f 166 167 168
f 169 77 170
f 77 171 78
f 172 173 174
f 175 176 177
f 178 179 79
f 79 180 181
f 79 182 80
f 80 183 184
f 80 185 186
f 187 188 189
f 190 191 192
f 193 194 195
f 196 197 198
f 199 200 201
f 202 203 81
f 81 204 82
f 205 206 207
f 208 209 210
f 83 211 212
f 213 83 84
f 214 215 216
f 217 218 219
f 220 221 222
f 223 224 225
f 226 227 228
f 229 230 231
f 232 233 234
f 85 235 236
f 237 85 238
f 239 240 241
f 242 243 244
f 245 246 86
f 247 248 249
f 65 250 251
f 252 65 253
f 254 255 256
f 257 258 259
f 87 260 261
f 262 87 88
f 263 264 89
f 265 266 267
f 268 269 270
f 271 272 90
f 273 274 91
f 275 276 277
f 278 92 279
f 92 280 93
f 37 281 36
f 282 37 283
f 284 285 286
f 287 288 94
f 289 95 290
f 95 291 292
f 293 294 295
f 296 297 298
f 299 300 67
f 301 302 303
f 304 305 306
f 307 308 96
f 309 310 311
f 312 313 314
f 315 316 317
f 318 319 320
f 321 322 323
f 324 325 326
f 327 328 329
f 330 331 332
f 333 334 335
f 336 337 338
f 339 340 341
f 342 343 344
f 345 346 347
f 348 349 350
f 351 352 353
f 354 355 97
f 356 357 358
f 359 360 361
f 362 363 364
f 365 366 367
f 368 369 370
f 371 372 373
f 374 375 376
f 377 378 379
f 380 381 382
f 383 384 385
f 386 387 388
f 389 390 97
f 391 97 392
f 393 394 395
f 396 397 398
f 399 400 98
f 401 402 403
f 404 405 406
f 407 408 409
f 410 411 412
f 413 414 415
f 416 417 418
f 419 420 421
f 422 423 424
f 425 426 427
f 428 429 430
f 431 432 433
f 434 435 436
f 437 438 439
f 440 441 442
f 443 444 445
f 446 447 448
f 449 450 451
f 452 453 454
f 455 456 457
f 458 459 460
