v 0.091443 -0.058894 0.297400
v -0.093357 -0.058894 0.064600
v 0.091443 -0.058894 0.064600
v -0.093357 -0.058894 0.297400
v -0.093357 -0.058894 0.297400
v 0.091443 -0.058894 0.297400
v -0.093357 -0.058894 0.064600
v 0.091443 -0.058894 0.064600
v -0.100043 0.114091 0.297400
v -0.100043 -0.052209 0.064600
v -0.100043 -0.052209 0.297400
v -0.100043 0.114091 0.064600
v -0.100043 0.114091 0.064600
v -0.100043 0.114091 0.297400
v -0.100043 -0.052209 0.064600
v -0.100043 -0.052209 0.297400
v -0.094208 -0.053060 0.306000
v -0.013757 -0.032660 0.306000
v -0.094208 0.114942 0.306000
v 0.092293 -0.053060 0.306000
v 0.011843 -0.032660 0.306000
v 0.011843 -0.026460 0.306000
v -0.013757 -0.026460 0.306000
v 0.092293 0.114942 0.306000
v 0.092293 -0.053060 0.306000
v 0.011843 -0.026460 0.306000
v 0.092293 0.114942 0.306000
v -0.013757 -0.026460 0.306000
v -0.013757 -0.032660 0.306000
v -0.094208 0.114942 0.306000
v 0.011843 -0.032660 0.306000
v -0.094208 -0.053060 0.306000
v 0.098128 0.114057 0.064635
v 0.098128 -0.052174 0.297365
v 0.098128 -0.052174 0.064635
v 0.098128 0.114057 0.297365
v 0.098128 0.114057 0.297365
v 0.098128 0.114057 0.064635
v 0.098128 -0.052174 0.297365
v 0.098128 -0.052174 0.064635
f 1 2 3
f 2 1 4
f 5 6 7
f 8 7 6
f 9 10 11
f 10 9 12
f 13 14 15
f 16 15 14
f 17 18 19
f 18 17 20
f 18 20 21
f 21 20 22
f 19 23 24
f 23 19 18
f 24 23 22
f 24 22 20
f 25 26 27
f 26 28 27
f 29 30 28
f 27 28 30
f 26 25 31
f 31 25 29
f 25 32 29
f 30 29 32
f 33 34 35
f 34 33 36
f 37 38 39
f 40 39 38
