v -0.002096 0.058795 0.067439
v -0.005695 0.062529 0.068535
v -0.005695 0.058795 0.067439
v -0.001605 0.062529 0.068535
v -0.001605 0.062529 0.068535
v -0.002096 0.058795 0.067439
v -0.005695 0.062529 0.068535
v -0.005695 0.058795 0.067439
v -0.002096 0.003718 0.067439
v -0.005695 0.003718 0.067439
v 0.004908 0.005595 0.067439
v 0.004908 0.056919 0.067439
v 0.011187 0.009221 0.067439
v 0.011187 0.053293 0.067439
v 0.016315 0.014348 0.067439
v 0.016315 0.048166 0.067439
v 0.019940 0.020627 0.067439
v 0.019940 0.041886 0.067439
v 0.021817 0.027631 0.067439
v 0.021817 0.034882 0.067439
v 0.021817 0.034882 0.067439
v 0.021817 0.027631 0.067439
v 0.019940 0.041886 0.067439
v 0.019940 0.020627 0.067439
v 0.016315 0.048166 0.067439
v 0.016315 0.014348 0.067439
v 0.011187 0.053293 0.067439
v 0.011187 0.009221 0.067439
v 0.004908 0.056919 0.067439
v 0.004908 0.005595 0.067439
v -0.002096 0.003718 0.067439
v -0.005695 0.003718 0.067439
v 0.006349 0.060398 0.068535
v 0.006349 0.060398 0.068535
v -0.005695 0.065260 0.070578
v -0.001245 0.065260 0.070578
v -0.001245 0.065260 0.070578
v -0.005695 0.065260 0.070578
v -0.009294 0.058795 0.067439
v -0.005695 0.062529 0.068535
v -0.009786 0.062529 0.068535
v -0.005695 0.058795 0.067439
v -0.005695 0.058795 0.067439
v -0.009294 0.058795 0.067439
v -0.005695 0.062529 0.068535
v -0.009786 0.062529 0.068535
v -0.001605 -0.000015 0.068535
v -0.005695 -0.000015 0.068535
v -0.001605 -0.000015 0.068535
v -0.005695 -0.000015 0.068535
v 0.006349 0.002116 0.068535
v 0.006349 0.002116 0.068535
v 0.013480 0.006233 0.068535
v 0.013480 0.006233 0.068535
v 0.019302 0.012055 0.068535
v 0.019302 0.012055 0.068535
v 0.023419 0.019186 0.068535
v 0.023419 0.019186 0.068535
v 0.025550 0.027140 0.068535
v 0.025550 0.027140 0.068535
v 0.025550 0.035374 0.068535
v 0.025550 0.035374 0.068535
v 0.023419 0.043328 0.068535
v 0.023419 0.043328 0.068535
v 0.019302 0.050458 0.068535
v 0.019302 0.050458 0.068535
v 0.013480 0.056281 0.068535
v 0.013480 0.056281 0.068535
v -0.031330 0.020627 0.067439
v -0.033207 0.034882 0.067439
v -0.033207 0.027631 0.067439
v -0.031330 0.041886 0.067439
v -0.027705 0.014348 0.067439
v -0.027705 0.048166 0.067439
v -0.022578 0.009221 0.067439
v -0.022578 0.053293 0.067439
v -0.016298 0.005595 0.067439
v -0.016298 0.056919 0.067439
v -0.009294 0.003718 0.067439
v -0.005695 0.003718 0.067439
v -0.005695 0.003718 0.067439
v -0.009294 0.003718 0.067439
v -0.016298 0.005595 0.067439
v -0.016298 0.056919 0.067439
v -0.022578 0.053293 0.067439
v -0.022578 0.009221 0.067439
v -0.027705 0.048166 0.067439
v -0.027705 0.014348 0.067439
v -0.031330 0.041886 0.067439
v -0.031330 0.020627 0.067439
v -0.033207 0.034882 0.067439
v -0.033207 0.027631 0.067439
v 0.007403 0.062943 0.070578
v 0.007403 0.062943 0.070578
v -0.005695 0.066853 0.072827
v -0.001035 0.066853 0.072827
v -0.001035 0.066853 0.072827
v -0.005695 0.066853 0.072827
v -0.005695 0.065260 0.070578
v -0.010145 0.065260 0.070578
v -0.005695 0.065260 0.070578
v -0.010145 0.065260 0.070578
v -0.017739 0.060398 0.068535
v -0.017739 0.060398 0.068535
v -0.001245 -0.002747 0.070578
v -0.005695 -0.002747 0.070578
v -0.001245 -0.002747 0.070578
v -0.005695 -0.002747 0.070578
v -0.005695 -0.000015 0.068535
v -0.009786 -0.000015 0.068535
v -0.005695 -0.000015 0.068535
v -0.009786 -0.000015 0.068535
v 0.007403 -0.000429 0.070578
v 0.007403 -0.000429 0.070578
v 0.015157 0.004047 0.070578
v 0.015157 0.004047 0.070578
v 0.021488 0.010378 0.070578
v 0.021488 0.010378 0.070578
v 0.025964 0.018132 0.070578
v 0.025964 0.018132 0.070578
v 0.028282 0.026780 0.070578
v 0.028282 0.026780 0.070578
v 0.028282 0.035734 0.070578
v 0.028282 0.035734 0.070578
v 0.025964 0.044382 0.070578
v 0.025964 0.044382 0.070578
v 0.021488 0.052136 0.070578
v 0.021488 0.052136 0.070578
v 0.015157 0.058467 0.070578
v 0.015157 0.058467 0.070578
v -0.024870 0.056281 0.068535
v -0.024870 0.056281 0.068535
v -0.030693 0.050458 0.068535
v -0.030693 0.050458 0.068535
v -0.034810 0.043328 0.068535
v -0.034810 0.043328 0.068535
v -0.036941 0.035374 0.068535
v -0.036941 0.035374 0.068535
v -0.036941 0.027140 0.068535
v -0.036941 0.027140 0.068535
v -0.034810 0.019186 0.068535
v -0.034810 0.019186 0.068535
v -0.030693 0.012055 0.068535
v -0.030693 0.012055 0.068535
v -0.024870 0.006233 0.068535
v -0.024870 0.006233 0.068535
v -0.017739 0.002116 0.068535
v -0.017739 0.002116 0.068535
v 0.008018 0.064427 0.072827
v 0.008018 0.064427 0.072827
v -0.000986 0.067227 0.075170
v -0.005695 0.067227 0.075170
v -0.005695 0.067227 0.075170
v -0.000986 0.067227 0.075170
v -0.005695 0.066853 0.072827
v -0.010355 0.066853 0.072827
v -0.010355 0.066853 0.072827
v -0.005695 0.066853 0.072827
v -0.018793 0.062943 0.070578
v -0.018793 0.062943 0.070578
v -0.001035 -0.004339 0.072827
v -0.005695 -0.004339 0.072827
v -0.005695 -0.004339 0.072827
v -0.001035 -0.004339 0.072827
v -0.005695 -0.002747 0.070578
v -0.010145 -0.002747 0.070578
v -0.005695 -0.002747 0.070578
v -0.010145 -0.002747 0.070578
v 0.008018 -0.001913 0.072827
v 0.008018 -0.001913 0.072827
v 0.016135 0.002773 0.072827
v 0.016135 0.002773 0.072827
v 0.022762 0.009400 0.072827
v 0.022762 0.009400 0.072827
v 0.027449 0.017517 0.072827
v 0.027449 0.017517 0.072827
v 0.029874 0.026571 0.072827
v 0.029874 0.026571 0.072827
v 0.029874 0.035943 0.072827
v 0.029874 0.035943 0.072827
v 0.027449 0.044997 0.072827
v 0.027449 0.044997 0.072827
v 0.022762 0.053113 0.072827
v 0.022762 0.053113 0.072827
v 0.016135 0.059741 0.072827
v 0.016135 0.059741 0.072827
v -0.026547 0.058467 0.070578
v -0.026547 0.058467 0.070578
v -0.032878 0.052136 0.070578
v -0.032878 0.052136 0.070578
v -0.037355 0.044382 0.070578
v -0.037355 0.044382 0.070578
v -0.039672 0.035734 0.070578
v -0.039672 0.035734 0.070578
v -0.039672 0.026780 0.070578
v -0.039672 0.026780 0.070578
v -0.037355 0.018132 0.070578
v -0.037355 0.018132 0.070578
v -0.032878 0.010378 0.070578
v -0.032878 0.010378 0.070578
v -0.026547 0.004047 0.070578
v -0.026547 0.004047 0.070578
v -0.018793 -0.000429 0.070578
v -0.018793 -0.000429 0.070578
v 0.008162 0.064776 0.075170
v 0.008162 0.064776 0.075170
v -0.001100 0.066365 0.077489
v -0.005695 0.066365 0.077489
v -0.005695 0.066365 0.077489
v -0.001100 0.066365 0.077489
v -0.005695 0.067227 0.075170
v -0.010404 0.067227 0.075170
v -0.010404 0.067227 0.075170
v -0.005695 0.067227 0.075170
v -0.019408 0.064427 0.072827
v -0.019408 0.064427 0.072827
v -0.000986 -0.004714 0.075170
v -0.005695 -0.004714 0.075170
v -0.005695 -0.004714 0.075170
v -0.000986 -0.004714 0.075170
v -0.010355 -0.004339 0.072827
v -0.005695 -0.004339 0.072827
v -0.005695 -0.004339 0.072827
v -0.010355 -0.004339 0.072827
v 0.008162 -0.002262 0.075170
v 0.008162 -0.002262 0.075170
v 0.016365 0.002473 0.075170
v 0.016365 0.002473 0.075170
v 0.023062 0.009171 0.075170
v 0.023062 0.009171 0.075170
v 0.027797 0.017373 0.075170
v 0.027797 0.017373 0.075170
v 0.030249 0.026521 0.075170
v 0.030249 0.026521 0.075170
v 0.030249 0.035993 0.075170
v 0.030249 0.035993 0.075170
v 0.027797 0.045141 0.075170
v 0.027797 0.045141 0.075170
v 0.023062 0.053343 0.075170
v 0.023062 0.053343 0.075170
v 0.016365 0.060041 0.075170
v 0.016365 0.060041 0.075170
v -0.027525 0.059741 0.072827
v -0.027525 0.059741 0.072827
v -0.034153 0.053113 0.072827
v -0.034153 0.053113 0.072827
v -0.038839 0.044997 0.072827
v -0.038839 0.044997 0.072827
v -0.041265 0.035943 0.072827
v -0.041265 0.035943 0.072827
v -0.041265 0.026571 0.072827
v -0.041265 0.026571 0.072827
v -0.038839 0.017517 0.072827
v -0.038839 0.017517 0.072827
v -0.034153 0.009400 0.072827
v -0.034153 0.009400 0.072827
v -0.027525 0.002773 0.072827
v -0.027525 0.002773 0.072827
v -0.019408 -0.001913 0.072827
v -0.019408 -0.001913 0.072827
v 0.007829 0.063972 0.077489
v 0.007829 0.063972 0.077489
v -0.000103 -0.011421 0.077489
v -0.005695 -0.003851 0.077489
v -0.005695 -0.011421 0.077489
v -0.001100 -0.003851 0.077489
v 0.007829 -0.001459 0.077489
v 0.010751 -0.008512 0.077489
v 0.015835 0.003163 0.077489
v 0.020483 -0.002894 0.077489
v 0.022372 0.009700 0.077489
v 0.028429 0.005052 0.077489
v 0.026994 0.017706 0.077489
v 0.029386 0.026635 0.077489
v 0.034048 0.014784 0.077489
v 0.029386 0.035879 0.077489
v -0.001100 0.066365 0.077489
v -0.005695 0.073935 0.077489
v -0.005695 0.066365 0.077489
v -0.000103 0.073935 0.077489
v 0.007829 0.063972 0.077489
v 0.010751 0.071026 0.077489
v 0.015835 0.059350 0.077489
v 0.020483 0.065408 0.077489
v 0.022372 0.052814 0.077489
v 0.028429 0.057462 0.077489
v 0.026994 0.044808 0.077489
v 0.034048 0.047730 0.077489
v 0.036956 0.025638 0.077489
v 0.036956 0.036876 0.077489
v 0.036956 0.036876 0.077489
v 0.036956 0.025638 0.077489
v 0.034048 0.047730 0.077489
v 0.034048 0.014784 0.077489
v 0.029386 0.035879 0.077489
v 0.028429 0.057462 0.077489
v 0.026994 0.044808 0.077489
v 0.022372 0.052814 0.077489
v 0.020483 0.065408 0.077489
v 0.015835 0.059350 0.077489
v 0.010751 0.071026 0.077489
v 0.007829 0.063972 0.077489
v -0.000103 0.073935 0.077489
v -0.001100 0.066365 0.077489
v -0.005695 0.073935 0.077489
v -0.005695 0.066365 0.077489
v 0.029386 0.026635 0.077489
v 0.028429 0.005052 0.077489
v 0.026994 0.017706 0.077489
v 0.022372 0.009700 0.077489
v 0.020483 -0.002894 0.077489
v 0.015835 0.003163 0.077489
v 0.010751 -0.008512 0.077489
v 0.007829 -0.001459 0.077489
v -0.000103 -0.011421 0.077489
v -0.001100 -0.003851 0.077489
v -0.005695 -0.003851 0.077489
v -0.005695 -0.011421 0.077489
v -0.005695 0.066365 0.077489
v -0.010291 0.066365 0.077489
v -0.010291 0.066365 0.077489
v -0.005695 0.066365 0.077489
v -0.019553 0.064776 0.075170
v -0.019553 0.064776 0.075170
v -0.005695 -0.003851 0.077489
v -0.001100 -0.003851 0.077489
v -0.001100 -0.003851 0.077489
v -0.005695 -0.003851 0.077489
v -0.010404 -0.004714 0.075170
v -0.005695 -0.004714 0.075170
v -0.005695 -0.004714 0.075170
v -0.010404 -0.004714 0.075170
v 0.007829 -0.001459 0.077489
v 0.007829 -0.001459 0.077489
v 0.015835 0.003163 0.077489
v 0.015835 0.003163 0.077489
v 0.022372 0.009700 0.077489
v 0.022372 0.009700 0.077489
v 0.026994 0.017706 0.077489
v 0.026994 0.017706 0.077489
v 0.029386 0.026635 0.077489
v 0.029386 0.026635 0.077489
v 0.029386 0.035879 0.077489
v 0.029386 0.035879 0.077489
v 0.026994 0.044808 0.077489
v 0.026994 0.044808 0.077489
v 0.022372 0.052814 0.077489
v 0.022372 0.052814 0.077489
v 0.015835 0.059350 0.077489
v 0.015835 0.059350 0.077489
v -0.027755 0.060041 0.075170
v -0.027755 0.060041 0.075170
v -0.034452 0.053343 0.075170
v -0.034452 0.053343 0.075170
v -0.039188 0.045141 0.075170
v -0.039188 0.045141 0.075170
v -0.041639 0.035993 0.075170
v -0.041639 0.035993 0.075170
v -0.041639 0.026521 0.075170
v -0.041639 0.026521 0.075170
v -0.039188 0.017373 0.075170
v -0.039188 0.017373 0.075170
v -0.034452 0.009171 0.075170
v -0.034452 0.009171 0.075170
v -0.027755 0.002473 0.075170
v -0.027755 0.002473 0.075170
v -0.019553 -0.002262 0.075170
v -0.019553 -0.002262 0.075170
v -0.000103 -0.011421 0.077489
v -0.005695 -0.011395 0.075211
v -0.000107 -0.011395 0.075211
v -0.005695 -0.011421 0.077489
v -0.005695 -0.011421 0.077489
v -0.000103 -0.011421 0.077489
v -0.005695 -0.011395 0.075211
v -0.000107 -0.011395 0.075211
v 0.010751 -0.008512 0.077489
v 0.010741 -0.008488 0.075211
v 0.010751 -0.008512 0.077489
v 0.010741 -0.008488 0.075211
v 0.020483 -0.002894 0.077489
v 0.020467 -0.002873 0.075211
v 0.020483 -0.002894 0.077489
v 0.020467 -0.002873 0.075211
v 0.028429 0.005052 0.077489
v 0.028408 0.005068 0.075211
v 0.028408 0.005068 0.075211
v 0.028429 0.005052 0.077489
v 0.034048 0.014784 0.077489
v 0.034023 0.014794 0.075211
v 0.034023 0.014794 0.075211
v 0.034048 0.014784 0.077489
v 0.036956 0.025638 0.077489
v 0.036930 0.025642 0.075211
v 0.036930 0.025642 0.075211
v 0.036956 0.025638 0.077489
v 0.036956 0.036876 0.077489
v 0.036930 0.036872 0.075211
v 0.036930 0.036872 0.075211
v 0.036956 0.036876 0.077489
v 0.034023 0.047720 0.075211
v 0.034048 0.047730 0.077489
v 0.034048 0.047730 0.077489
v 0.034023 0.047720 0.075211
v 0.028408 0.057446 0.075211
v 0.028429 0.057462 0.077489
v 0.028429 0.057462 0.077489
v 0.028408 0.057446 0.075211
v 0.020483 0.065408 0.077489
v 0.020467 0.065387 0.075211
v 0.020483 0.065408 0.077489
v 0.020467 0.065387 0.075211
v 0.010751 0.071026 0.077489
v 0.010741 0.071002 0.075211
v 0.010751 0.071026 0.077489
v 0.010741 0.071002 0.075211
v -0.000103 0.073935 0.077489
v -0.000107 0.073909 0.075211
v -0.000103 0.073935 0.077489
v -0.000107 0.073909 0.075211
v -0.005695 0.073935 0.077489
v -0.005695 0.073909 0.075211
v -0.005695 0.073935 0.077489
v -0.005695 0.073909 0.075211
v -0.045438 0.014784 0.077489
v -0.048346 0.036876 0.077489
v -0.048346 0.025638 0.077489
v -0.045438 0.047730 0.077489
v -0.039819 0.005052 0.077489
v -0.040777 0.026635 0.077489
v -0.038384 0.017706 0.077489
v -0.031873 -0.002894 0.077489
v -0.033762 0.009700 0.077489
v -0.027226 0.003163 0.077489
v -0.022142 -0.008512 0.077489
v -0.019220 -0.001459 0.077489
v -0.011287 -0.011421 0.077489
v -0.010291 -0.003851 0.077489
v -0.005695 -0.011421 0.077489
v -0.005695 -0.003851 0.077489
v -0.040777 0.035879 0.077489
v -0.039819 0.057462 0.077489
v -0.038384 0.044808 0.077489
v -0.031873 0.065408 0.077489
v -0.033762 0.052814 0.077489
v -0.027226 0.059350 0.077489
v -0.022142 0.071026 0.077489
v -0.019220 0.063972 0.077489
v -0.011287 0.073935 0.077489
v -0.010291 0.066365 0.077489
v -0.005695 0.073935 0.077489
v -0.005695 0.066365 0.077489
v -0.005695 0.066365 0.077489
v -0.010291 0.066365 0.077489
v -0.005695 0.073935 0.077489
v -0.011287 0.073935 0.077489
v -0.019220 0.063972 0.077489
v -0.022142 0.071026 0.077489
v -0.027226 0.059350 0.077489
v -0.031873 0.065408 0.077489
v -0.033762 0.052814 0.077489
v -0.038384 0.044808 0.077489
v -0.039819 0.057462 0.077489
v -0.040777 0.035879 0.077489
v -0.040777 0.026635 0.077489
v -0.045438 0.047730 0.077489
v -0.005695 -0.003851 0.077489
v -0.005695 -0.011421 0.077489
v -0.010291 -0.003851 0.077489
v -0.011287 -0.011421 0.077489
v -0.019220 -0.001459 0.077489
v -0.022142 -0.008512 0.077489
v -0.027226 0.003163 0.077489
v -0.031873 -0.002894 0.077489
v -0.033762 0.009700 0.077489
v -0.038384 0.017706 0.077489
v -0.039819 0.005052 0.077489
v -0.045438 0.014784 0.077489
v -0.048346 0.036876 0.077489
v -0.048346 0.025638 0.077489
v -0.019220 0.063972 0.077489
v -0.019220 0.063972 0.077489
v -0.010291 -0.003851 0.077489
v -0.005695 -0.003851 0.077489
v -0.005695 -0.003851 0.077489
v -0.010291 -0.003851 0.077489
v -0.027226 0.059350 0.077489
v -0.027226 0.059350 0.077489
v -0.033762 0.052814 0.077489
v -0.033762 0.052814 0.077489
v -0.038384 0.044808 0.077489
v -0.038384 0.044808 0.077489
v -0.040777 0.035879 0.077489
v -0.040777 0.035879 0.077489
v -0.040777 0.026635 0.077489
v -0.040777 0.026635 0.077489
v -0.038384 0.017706 0.077489
v -0.038384 0.017706 0.077489
v -0.033762 0.009700 0.077489
v -0.033762 0.009700 0.077489
v -0.027226 0.003163 0.077489
v -0.027226 0.003163 0.077489
v -0.019220 -0.001459 0.077489
v -0.019220 -0.001459 0.077489
v -0.000211 -0.010601 0.072957
v -0.005695 -0.010601 0.072957
v -0.000211 -0.010601 0.072957
v -0.005695 -0.010601 0.072957
v -0.005695 -0.011395 0.075211
v -0.011287 -0.011421 0.077489
v -0.011284 -0.011395 0.075211
v -0.005695 -0.011421 0.077489
v -0.005695 -0.011421 0.077489
v -0.005695 -0.011395 0.075211
v -0.011287 -0.011421 0.077489
v -0.011284 -0.011395 0.075211
v 0.010435 -0.007749 0.072957
v 0.010435 -0.007749 0.072957
v 0.019980 -0.002238 0.072957
v 0.019980 -0.002238 0.072957
v 0.027773 0.005556 0.072957
v 0.027773 0.005556 0.072957
v 0.033284 0.015100 0.072957
v 0.033284 0.015100 0.072957
v 0.036136 0.025746 0.072957
v 0.036136 0.025746 0.072957
v 0.036136 0.036768 0.072957
v 0.036136 0.036768 0.072957
v 0.033284 0.047414 0.072957
v 0.033284 0.047414 0.072957
v 0.027773 0.056958 0.072957
v 0.027773 0.056958 0.072957
v 0.019980 0.064752 0.072957
v 0.019980 0.064752 0.072957
v 0.010435 0.070262 0.072957
v 0.010435 0.070262 0.072957
v -0.000211 0.073115 0.072957
v -0.000211 0.073115 0.072957
v -0.005695 0.073115 0.072957
v -0.005695 0.073115 0.072957
v -0.011284 0.073909 0.075211
v -0.005695 0.073935 0.077489
v -0.005695 0.073909 0.075211
v -0.011287 0.073935 0.077489
v -0.011287 0.073935 0.077489
v -0.011284 0.073909 0.075211
v -0.005695 0.073935 0.077489
v -0.005695 0.073909 0.075211
v -0.022142 0.071026 0.077489
v -0.022132 0.071002 0.075211
v -0.022142 0.071026 0.077489
v -0.022132 0.071002 0.075211
v -0.031873 0.065408 0.077489
v -0.031857 0.065387 0.075211
v -0.031873 0.065408 0.077489
v -0.031857 0.065387 0.075211
v -0.039819 0.057462 0.077489
v -0.039799 0.057446 0.075211
v -0.039819 0.057462 0.077489
v -0.039799 0.057446 0.075211
v -0.045438 0.047730 0.077489
v -0.045414 0.047720 0.075211
v -0.045438 0.047730 0.077489
v -0.045414 0.047720 0.075211
v -0.048346 0.036876 0.077489
v -0.048320 0.036872 0.075211
v -0.048346 0.036876 0.077489
v -0.048320 0.036872 0.075211
v -0.048320 0.025642 0.075211
v -0.048346 0.025638 0.077489
v -0.048320 0.025642 0.075211
v -0.048346 0.025638 0.077489
v -0.045414 0.014794 0.075211
v -0.045438 0.014784 0.077489
v -0.045414 0.014794 0.075211
v -0.045438 0.014784 0.077489
v -0.039799 0.005068 0.075211
v -0.039819 0.005052 0.077489
v -0.039799 0.005068 0.075211
v -0.039819 0.005052 0.077489
v -0.031857 -0.002873 0.075211
v -0.031873 -0.002894 0.077489
v -0.031857 -0.002873 0.075211
v -0.031873 -0.002894 0.077489
v -0.022142 -0.008512 0.077489
v -0.022132 -0.008488 0.075211
v -0.022142 -0.008512 0.077489
v -0.022132 -0.008488 0.075211
v -0.005695 -0.009056 0.070775
v -0.000415 -0.009056 0.070775
v -0.005695 -0.009056 0.070775
v -0.000415 -0.009056 0.070775
v -0.011179 -0.010601 0.072957
v -0.005695 -0.010601 0.072957
v -0.011179 -0.010601 0.072957
v -0.005695 -0.010601 0.072957
v 0.009838 -0.006308 0.070775
v 0.009838 -0.006308 0.070775
v 0.019031 -0.001001 0.070775
v 0.019031 -0.001001 0.070775
v 0.026536 0.006504 0.070775
v 0.026536 0.006504 0.070775
v 0.031844 0.015697 0.070775
v 0.031844 0.015697 0.070775
v 0.034591 0.025950 0.070775
v 0.034591 0.025950 0.070775
v 0.034591 0.036564 0.070775
v 0.034591 0.036564 0.070775
v 0.031844 0.046817 0.070775
v 0.031844 0.046817 0.070775
v 0.026536 0.056009 0.070775
v 0.026536 0.056009 0.070775
v 0.019031 0.063515 0.070775
v 0.019031 0.063515 0.070775
v 0.009838 0.068822 0.070775
v 0.009838 0.068822 0.070775
v -0.000415 0.071569 0.070775
v -0.000415 0.071569 0.070775
v -0.005695 0.071569 0.070775
v -0.005695 0.071569 0.070775
v -0.011179 0.073115 0.072957
v -0.005695 0.073115 0.072957
v -0.011179 0.073115 0.072957
v -0.005695 0.073115 0.072957
v -0.021825 0.070262 0.072957
v -0.021825 0.070262 0.072957
v -0.031370 0.064752 0.072957
v -0.031370 0.064752 0.072957
v -0.039163 0.056958 0.072957
v -0.039163 0.056958 0.072957
v -0.044674 0.047414 0.072957
v -0.044674 0.047414 0.072957
v -0.047527 0.036768 0.072957
v -0.047527 0.036768 0.072957
v -0.047527 0.025746 0.072957
v -0.047527 0.025746 0.072957
v -0.044674 0.015100 0.072957
v -0.044674 0.015100 0.072957
v -0.039163 0.005556 0.072957
v -0.039163 0.005556 0.072957
v -0.031370 -0.002238 0.072957
v -0.031370 -0.002238 0.072957
v -0.021825 -0.007749 0.072957
v -0.021825 -0.007749 0.072957
v -0.000713 -0.006790 0.068708
v -0.005695 -0.006790 0.068708
v -0.000713 -0.006790 0.068708
v -0.005695 -0.006790 0.068708
v -0.010976 -0.009056 0.070775
v -0.005695 -0.009056 0.070775
v -0.010976 -0.009056 0.070775
v -0.005695 -0.009056 0.070775
v 0.008964 -0.004197 0.068708
v 0.008964 -0.004197 0.068708
v 0.017640 0.000812 0.068708
v 0.017640 0.000812 0.068708
v 0.024723 0.007895 0.068708
v 0.024723 0.007895 0.068708
v 0.029732 0.016571 0.068708
v 0.029732 0.016571 0.068708
v 0.032325 0.026248 0.068708
v 0.032325 0.026248 0.068708
v 0.032325 0.036266 0.068708
v 0.032325 0.036266 0.068708
v 0.029732 0.045943 0.068708
v 0.029732 0.045943 0.068708
v 0.024723 0.054618 0.068708
v 0.024723 0.054618 0.068708
v 0.017640 0.061702 0.068708
v 0.017640 0.061702 0.068708
v 0.008964 0.066711 0.068708
v 0.008964 0.066711 0.068708
v -0.000713 0.069304 0.068708
v -0.000713 0.069304 0.068708
v -0.005695 0.069304 0.068708
v -0.005695 0.069304 0.068708
v -0.010976 0.071569 0.070775
v -0.005695 0.071569 0.070775
v -0.010976 0.071569 0.070775
v -0.005695 0.071569 0.070775
v -0.021229 0.068822 0.070775
v -0.021229 0.068822 0.070775
v -0.030421 0.063515 0.070775
v -0.030421 0.063515 0.070775
v -0.037927 0.056009 0.070775
v -0.037927 0.056009 0.070775
v -0.043234 0.046817 0.070775
v -0.043234 0.046817 0.070775
v -0.045981 0.036564 0.070775
v -0.045981 0.036564 0.070775
v -0.045981 0.025950 0.070775
v -0.045981 0.025950 0.070775
v -0.043234 0.015697 0.070775
v -0.043234 0.015697 0.070775
v -0.037927 0.006504 0.070775
v -0.037927 0.006504 0.070775
v -0.030421 -0.001001 0.070775
v -0.030421 -0.001001 0.070775
v -0.021229 -0.006308 0.070775
v -0.021229 -0.006308 0.070775
v -0.001100 -0.003851 0.066800
v -0.005695 -0.003851 0.066800
v -0.001100 -0.003851 0.066800
v -0.005695 -0.003851 0.066800
v -0.010678 -0.006790 0.068708
v -0.005695 -0.006790 0.068708
v -0.005695 -0.006790 0.068708
v -0.010678 -0.006790 0.068708
v 0.007829 -0.001459 0.066800
v 0.007829 -0.001459 0.066800
v 0.015835 0.003163 0.066800
v 0.015835 0.003163 0.066800
v 0.022372 0.009700 0.066800
v 0.022372 0.009700 0.066800
v 0.026994 0.017706 0.066800
v 0.026994 0.017706 0.066800
v 0.029386 0.026635 0.066800
v 0.029386 0.026635 0.066800
v 0.029386 0.035879 0.066800
v 0.029386 0.035879 0.066800
v 0.026994 0.044808 0.066800
v 0.026994 0.044808 0.066800
v 0.022372 0.052814 0.066800
v 0.022372 0.052814 0.066800
v 0.015835 0.059350 0.066800
v 0.015835 0.059350 0.066800
v 0.007829 0.063972 0.066800
v 0.007829 0.063972 0.066800
v -0.001100 0.066365 0.066800
v -0.001100 0.066365 0.066800
v -0.005695 0.066365 0.066800
v -0.005695 0.066365 0.066800
v -0.010678 0.069304 0.068708
v -0.005695 0.069304 0.068708
v -0.005695 0.069304 0.068708
v -0.010678 0.069304 0.068708
v -0.020354 0.066711 0.068708
v -0.020354 0.066711 0.068708
v -0.029030 0.061702 0.068708
v -0.029030 0.061702 0.068708
v -0.036114 0.054618 0.068708
v -0.036114 0.054618 0.068708
v -0.041123 0.045943 0.068708
v -0.041123 0.045943 0.068708
v -0.043716 0.036266 0.068708
v -0.043716 0.036266 0.068708
v -0.043716 0.026248 0.068708
v -0.043716 0.026248 0.068708
v -0.041123 0.016571 0.068708
v -0.041123 0.016571 0.068708
v -0.036114 0.007895 0.068708
v -0.036114 0.007895 0.068708
v -0.029030 0.000812 0.068708
v -0.029030 0.000812 0.068708
v -0.020354 -0.004197 0.068708
v -0.020354 -0.004197 0.068708
v -0.010291 -0.003851 0.066800
v -0.005695 -0.003851 0.066800
v -0.005695 -0.003851 0.066800
v -0.010291 -0.003851 0.066800
v -0.010291 0.066365 0.066800
v -0.005695 0.066365 0.066800
v -0.005695 0.066365 0.066800
v -0.010291 0.066365 0.066800
v -0.019220 0.063972 0.066800
v -0.019220 0.063972 0.066800
v -0.027226 0.059350 0.066800
v -0.027226 0.059350 0.066800
v -0.033762 0.052814 0.066800
v -0.033762 0.052814 0.066800
v -0.038384 0.044808 0.066800
v -0.038384 0.044808 0.066800
v -0.040777 0.035879 0.066800
v -0.040777 0.035879 0.066800
v -0.040777 0.026635 0.066800
v -0.040777 0.026635 0.066800
v -0.038384 0.017706 0.066800
v -0.038384 0.017706 0.066800
v -0.033762 0.009700 0.066800
v -0.033762 0.009700 0.066800
v -0.027226 0.003163 0.066800
v -0.027226 0.003163 0.066800
v -0.019220 -0.001459 0.066800
v -0.019220 -0.001459 0.066800
f 1 2 3
f 2 1 4
f 5 6 7
f 8 7 6
f 9 3 10
f 3 9 1
f 1 9 11
f 1 11 12
f 12 11 13
f 12 13 14
f 14 13 15
f 14 15 16
f 16 15 17
f 16 17 18
f 18 17 19
f 18 19 20
f 21 22 23
f 22 24 23
f 23 24 25
f 24 26 25
f 25 26 27
f 26 28 27
f 27 28 29
f 28 30 29
f 29 30 6
f 30 31 6
f 6 31 8
f 32 8 31
f 12 4 1
f 4 12 33
f 34 29 5
f 6 5 29
f 4 35 2
f 35 4 36
f 37 5 38
f 7 38 5
f 39 40 41
f 40 39 42
f 43 44 45
f 46 45 44
f 47 10 48
f 10 47 9
f 31 49 32
f 50 32 49
f 47 11 9
f 11 47 51
f 52 49 30
f 31 30 49
f 51 13 11
f 13 51 53
f 54 52 28
f 30 28 52
f 53 15 13
f 15 53 55
f 56 54 26
f 28 26 54
f 55 17 15
f 17 55 57
f 58 56 24
f 26 24 56
f 57 19 17
f 19 57 59
f 60 58 22
f 24 22 58
f 59 20 19
f 20 59 61
f 62 60 21
f 22 21 60
f 20 63 18
f 63 20 61
f 62 21 64
f 23 64 21
f 18 65 16
f 65 18 63
f 64 23 66
f 25 66 23
f 16 67 14
f 67 16 65
f 66 25 68
f 27 68 25
f 14 33 12
f 33 14 67
f 68 27 34
f 29 34 27
f 69 70 71
f 70 69 72
f 72 69 73
f 72 73 74
f 74 73 75
f 74 75 76
f 76 75 77
f 76 77 78
f 78 77 39
f 39 77 79
f 39 79 80
f 39 80 42
f 43 81 44
f 81 82 44
f 82 83 44
f 44 83 84
f 84 83 85
f 83 86 85
f 85 86 87
f 86 88 87
f 87 88 89
f 88 90 89
f 89 90 91
f 92 91 90
f 33 36 4
f 36 33 93
f 94 34 37
f 5 37 34
f 36 95 35
f 95 36 96
f 97 37 98
f 38 98 37
f 41 99 100
f 99 41 40
f 45 46 101
f 102 101 46
f 78 41 103
f 41 78 39
f 44 84 46
f 104 46 84
f 105 48 106
f 48 105 47
f 49 107 50
f 108 50 107
f 109 79 110
f 79 109 80
f 81 111 82
f 112 82 111
f 105 51 47
f 51 105 113
f 114 107 52
f 49 52 107
f 113 53 51
f 53 113 115
f 116 114 54
f 52 54 114
f 115 55 53
f 55 115 117
f 118 116 56
f 54 56 116
f 117 57 55
f 57 117 119
f 120 118 58
f 56 58 118
f 119 59 57
f 59 119 121
f 122 120 60
f 58 60 120
f 121 61 59
f 61 121 123
f 124 122 62
f 60 62 122
f 61 125 63
f 125 61 123
f 124 62 126
f 64 126 62
f 63 127 65
f 127 63 125
f 126 64 128
f 66 128 64
f 65 129 67
f 129 65 127
f 128 66 130
f 68 130 66
f 67 93 33
f 93 67 129
f 130 68 94
f 34 94 68
f 76 103 131
f 103 76 78
f 84 85 104
f 132 104 85
f 74 131 133
f 131 74 76
f 85 87 132
f 134 132 87
f 72 133 135
f 133 72 74
f 87 89 134
f 136 134 89
f 70 135 137
f 135 70 72
f 89 91 136
f 138 136 91
f 71 137 139
f 137 71 70
f 91 92 138
f 140 138 92
f 141 71 139
f 71 141 69
f 90 142 92
f 140 92 142
f 143 69 141
f 69 143 73
f 88 144 90
f 142 90 144
f 145 73 143
f 73 145 75
f 86 146 88
f 144 88 146
f 147 75 145
f 75 147 77
f 83 148 86
f 146 86 148
f 110 77 147
f 77 110 79
f 82 112 83
f 148 83 112
f 149 36 93
f 36 149 96
f 97 150 37
f 94 37 150
f 151 95 96
f 95 151 152
f 153 154 98
f 97 98 154
f 155 100 99
f 100 155 156
f 157 158 102
f 101 102 158
f 103 100 159
f 100 103 41
f 46 104 102
f 160 102 104
f 106 161 105
f 161 106 162
f 163 108 164
f 107 164 108
f 165 110 166
f 110 165 109
f 111 167 112
f 168 112 167
f 161 113 105
f 113 161 169
f 170 164 114
f 107 114 164
f 169 115 113
f 115 169 171
f 172 170 116
f 114 116 170
f 171 117 115
f 117 171 173
f 174 172 118
f 116 118 172
f 175 117 173
f 117 175 119
f 120 176 118
f 174 118 176
f 177 119 175
f 119 177 121
f 122 178 120
f 176 120 178
f 179 121 177
f 121 179 123
f 124 180 122
f 178 122 180
f 179 125 123
f 125 179 181
f 182 180 126
f 124 126 180
f 181 127 125
f 127 181 183
f 184 182 128
f 126 128 182
f 127 185 129
f 185 127 183
f 184 128 186
f 130 186 128
f 185 93 129
f 93 185 149
f 150 186 94
f 130 94 186
f 131 159 187
f 159 131 103
f 104 132 160
f 188 160 132
f 133 187 189
f 187 133 131
f 132 134 188
f 190 188 134
f 135 189 191
f 189 135 133
f 134 136 190
f 192 190 136
f 137 191 193
f 191 137 135
f 136 138 192
f 194 192 138
f 139 193 195
f 193 139 137
f 138 140 194
f 196 194 140
f 197 139 195
f 139 197 141
f 142 198 140
f 196 140 198
f 199 141 197
f 141 199 143
f 144 200 142
f 198 142 200
f 201 143 199
f 143 201 145
f 146 202 144
f 200 144 202
f 203 145 201
f 145 203 147
f 148 204 146
f 202 146 204
f 166 147 203
f 147 166 110
f 112 168 148
f 204 148 168
f 205 96 149
f 96 205 151
f 154 206 97
f 150 97 206
f 207 152 151
f 152 207 208
f 209 210 153
f 154 153 210
f 211 156 155
f 156 211 212
f 213 214 157
f 158 157 214
f 156 159 100
f 159 156 215
f 216 157 160
f 102 160 157
f 162 217 161
f 217 162 218
f 219 163 220
f 164 220 163
f 221 165 166
f 165 221 222
f 223 224 167
f 168 167 224
f 217 169 161
f 169 217 225
f 226 220 170
f 164 170 220
f 225 171 169
f 171 225 227
f 228 226 172
f 170 172 226
f 229 171 227
f 171 229 173
f 174 230 172
f 228 172 230
f 231 173 229
f 173 231 175
f 176 232 174
f 230 174 232
f 233 175 231
f 175 233 177
f 178 234 176
f 232 176 234
f 235 177 233
f 177 235 179
f 180 236 178
f 234 178 236
f 235 181 179
f 181 235 237
f 238 236 182
f 180 182 236
f 237 183 181
f 183 237 239
f 240 238 184
f 182 184 238
f 239 185 183
f 185 239 241
f 242 240 186
f 184 186 240
f 241 149 185
f 149 241 205
f 206 242 150
f 186 150 242
f 215 187 159
f 187 215 243
f 244 216 188
f 160 188 216
f 189 243 245
f 243 189 187
f 188 190 244
f 246 244 190
f 189 247 191
f 247 189 245
f 246 190 248
f 192 248 190
f 191 249 193
f 249 191 247
f 248 192 250
f 194 250 192
f 195 249 251
f 249 195 193
f 194 196 250
f 252 250 196
f 197 251 253
f 251 197 195
f 196 198 252
f 254 252 198
f 199 253 255
f 253 199 197
f 198 200 254
f 256 254 200
f 257 199 255
f 199 257 201
f 202 258 200
f 256 200 258
f 257 203 201
f 203 257 259
f 260 258 204
f 202 204 258
f 259 166 203
f 166 259 221
f 224 260 168
f 204 168 260
f 261 151 205
f 151 261 207
f 210 262 154
f 206 154 262
f 263 264 265
f 264 263 266
f 266 263 267
f 267 263 268
f 267 268 269
f 269 268 270
f 269 270 271
f 271 270 272
f 271 272 273
f 273 272 274
f 274 272 275
f 274 275 276
f 277 278 279
f 278 277 280
f 280 277 281
f 280 281 282
f 282 281 283
f 282 283 284
f 284 283 285
f 284 285 286
f 286 285 287
f 286 287 276
f 286 276 288
f 288 276 275
f 288 275 289
f 288 289 290
f 291 292 293
f 292 294 293
f 294 295 293
f 293 295 296
f 295 297 296
f 297 298 296
f 296 298 299
f 298 300 299
f 299 300 301
f 300 302 301
f 301 302 303
f 302 304 303
f 303 304 305
f 306 305 304
f 295 294 307
f 294 308 307
f 307 308 309
f 309 308 310
f 308 311 310
f 310 311 312
f 311 313 312
f 312 313 314
f 313 315 314
f 314 315 316
f 316 315 317
f 318 317 315
f 319 212 211
f 212 319 320
f 321 322 213
f 214 213 322
f 212 215 156
f 215 212 323
f 324 213 216
f 157 216 213
f 325 217 218
f 217 325 326
f 327 328 220
f 219 220 328
f 329 222 221
f 222 329 330
f 331 332 223
f 224 223 332
f 326 225 217
f 225 326 333
f 334 327 226
f 220 226 327
f 333 227 225
f 227 333 335
f 336 334 228
f 226 228 334
f 335 229 227
f 229 335 337
f 338 336 230
f 228 230 336
f 337 231 229
f 231 337 339
f 340 338 232
f 230 232 338
f 339 233 231
f 233 339 341
f 342 340 234
f 232 234 340
f 341 235 233
f 235 341 343
f 344 342 236
f 234 236 342
f 345 235 343
f 235 345 237
f 238 346 236
f 344 236 346
f 347 237 345
f 237 347 239
f 240 348 238
f 346 238 348
f 347 241 239
f 241 347 349
f 350 348 242
f 240 242 348
f 349 205 241
f 205 349 261
f 262 350 206
f 242 206 350
f 323 243 215
f 243 323 351
f 352 324 244
f 216 244 324
f 243 353 245
f 353 243 351
f 352 244 354
f 246 354 244
f 245 355 247
f 355 245 353
f 354 246 356
f 248 356 246
f 247 357 249
f 357 247 355
f 356 248 358
f 250 358 248
f 251 357 359
f 357 251 249
f 250 252 358
f 360 358 252
f 253 359 361
f 359 253 251
f 252 254 360
f 362 360 254
f 255 361 363
f 361 255 253
f 254 256 362
f 364 362 256
f 257 363 365
f 363 257 255
f 256 258 364
f 366 364 258
f 365 259 257
f 259 365 367
f 368 366 260
f 258 260 366
f 367 221 259
f 221 367 329
f 332 368 224
f 260 224 368
f 369 370 371
f 370 369 372
f 373 374 375
f 376 375 374
f 377 371 378
f 371 377 369
f 374 379 376
f 380 376 379
f 381 378 382
f 378 381 377
f 379 383 380
f 384 380 383
f 382 385 381
f 385 382 386
f 387 384 388
f 383 388 384
f 386 389 385
f 389 386 390
f 391 387 392
f 388 392 387
f 390 393 389
f 393 390 394
f 395 391 396
f 392 396 391
f 394 397 393
f 397 394 398
f 399 395 400
f 396 400 395
f 401 397 398
f 397 401 402
f 403 404 400
f 399 400 404
f 405 402 401
f 402 405 406
f 407 408 403
f 404 403 408
f 409 405 410
f 405 409 406
f 407 411 408
f 412 408 411
f 413 410 414
f 410 413 409
f 411 415 412
f 416 412 415
f 417 414 418
f 414 417 413
f 415 419 416
f 420 416 419
f 421 418 422
f 418 421 417
f 419 423 420
f 424 420 423
f 425 426 427
f 426 425 428
f 428 425 429
f 428 429 430
f 430 429 431
f 431 429 432
f 431 432 433
f 433 432 434
f 434 432 435
f 434 435 436
f 436 435 437
f 436 437 438
f 438 437 439
f 438 439 440
f 428 441 442
f 441 428 430
f 442 441 443
f 442 443 444
f 444 443 445
f 444 445 446
f 444 446 447
f 447 446 448
f 447 448 449
f 449 448 450
f 449 450 451
f 451 450 452
f 453 454 455
f 455 454 456
f 454 457 456
f 456 457 458
f 457 459 458
f 458 459 460
f 459 461 460
f 461 462 460
f 460 462 463
f 462 464 463
f 465 466 464
f 463 464 466
f 467 468 469
f 468 470 469
f 469 470 471
f 470 472 471
f 471 472 473
f 472 474 473
f 473 474 475
f 475 474 476
f 474 477 476
f 476 477 465
f 465 477 466
f 477 478 466
f 466 478 479
f 480 479 478
f 320 323 212
f 323 320 481
f 482 321 324
f 213 324 321
f 483 330 329
f 330 483 484
f 485 486 331
f 332 331 486
f 481 351 323
f 351 481 487
f 488 482 352
f 324 352 482
f 487 353 351
f 353 487 489
f 490 488 354
f 352 354 488
f 355 489 491
f 489 355 353
f 354 356 490
f 492 490 356
f 357 491 493
f 491 357 355
f 356 358 492
f 494 492 358
f 357 495 359
f 495 357 493
f 494 358 496
f 360 496 358
f 359 497 361
f 497 359 495
f 496 360 498
f 362 498 360
f 361 499 363
f 499 361 497
f 498 362 500
f 364 500 362
f 363 501 365
f 501 363 499
f 500 364 502
f 366 502 364
f 501 367 365
f 367 501 503
f 504 502 368
f 366 368 502
f 503 329 367
f 329 503 483
f 486 504 332
f 368 332 504
f 505 370 506
f 370 505 371
f 376 507 375
f 508 375 507
f 509 510 511
f 510 509 512
f 513 514 515
f 516 515 514
f 378 505 517
f 505 378 371
f 376 380 507
f 518 507 380
f 382 517 519
f 517 382 378
f 380 384 518
f 520 518 384
f 519 386 382
f 386 519 521
f 522 520 387
f 384 387 520
f 521 390 386
f 390 521 523
f 524 522 391
f 387 391 522
f 523 394 390
f 394 523 525
f 526 524 395
f 391 395 524
f 525 398 394
f 398 525 527
f 528 526 399
f 395 399 526
f 529 398 527
f 398 529 401
f 404 530 399
f 528 399 530
f 531 401 529
f 401 531 405
f 408 532 404
f 530 404 532
f 410 531 533
f 531 410 405
f 408 412 532
f 534 532 412
f 414 533 535
f 533 414 410
f 412 416 534
f 536 534 416
f 418 535 537
f 535 418 414
f 416 420 536
f 538 536 420
f 422 537 539
f 537 422 418
f 420 424 538
f 540 538 424
f 541 542 543
f 542 541 544
f 545 546 547
f 548 547 546
f 549 541 550
f 541 549 544
f 545 551 546
f 552 546 551
f 553 550 554
f 550 553 549
f 551 555 552
f 556 552 555
f 557 554 558
f 554 557 553
f 555 559 556
f 560 556 559
f 561 558 562
f 558 561 557
f 559 563 560
f 564 560 563
f 565 562 566
f 562 565 561
f 563 567 564
f 568 564 567
f 565 569 570
f 569 565 566
f 568 567 571
f 572 571 567
f 570 573 574
f 573 570 569
f 571 572 575
f 576 575 572
f 574 577 578
f 577 574 573
f 575 576 579
f 580 579 576
f 578 581 582
f 581 578 577
f 579 580 583
f 584 583 580
f 585 581 586
f 581 585 582
f 584 587 583
f 588 583 587
f 510 586 511
f 586 510 585
f 587 515 588
f 516 588 515
f 505 589 590
f 589 505 506
f 508 507 591
f 592 591 507
f 509 593 594
f 593 509 511
f 516 514 595
f 596 595 514
f 517 590 597
f 590 517 505
f 507 518 592
f 598 592 518
f 519 597 599
f 597 519 517
f 518 520 598
f 600 598 520
f 601 519 599
f 519 601 521
f 522 602 520
f 600 520 602
f 601 523 521
f 523 601 603
f 604 602 524
f 522 524 602
f 603 525 523
f 525 603 605
f 606 604 526
f 524 526 604
f 605 527 525
f 527 605 607
f 608 606 528
f 526 528 606
f 609 527 607
f 527 609 529
f 530 610 528
f 608 528 610
f 611 529 609
f 529 611 531
f 532 612 530
f 610 530 612
f 533 611 613
f 611 533 531
f 532 534 612
f 614 612 534
f 535 613 615
f 613 535 533
f 534 536 614
f 616 614 536
f 537 615 617
f 615 537 535
f 536 538 616
f 618 616 538
f 539 617 619
f 617 539 537
f 538 540 618
f 620 618 540
f 621 543 622
f 543 621 541
f 546 623 548
f 624 548 623
f 550 621 625
f 621 550 541
f 546 552 623
f 626 623 552
f 554 625 627
f 625 554 550
f 552 556 626
f 628 626 556
f 558 627 629
f 627 558 554
f 556 560 628
f 630 628 560
f 562 629 631
f 629 562 558
f 560 564 630
f 632 630 564
f 566 631 633
f 631 566 562
f 564 568 632
f 634 632 568
f 566 635 569
f 635 566 633
f 634 568 636
f 571 636 568
f 569 637 573
f 637 569 635
f 636 571 638
f 575 638 571
f 573 639 577
f 639 573 637
f 638 575 640
f 579 640 575
f 577 641 581
f 641 577 639
f 640 579 642
f 583 642 579
f 586 641 643
f 641 586 581
f 583 588 642
f 644 642 588
f 511 643 593
f 643 511 586
f 588 516 644
f 595 644 516
f 645 589 646
f 589 645 590
f 592 647 591
f 648 591 647
f 594 649 650
f 649 594 593
f 595 596 651
f 652 651 596
f 653 590 645
f 590 653 597
f 598 654 592
f 647 592 654
f 655 597 653
f 597 655 599
f 600 656 598
f 654 598 656
f 657 599 655
f 599 657 601
f 602 658 600
f 656 600 658
f 659 601 657
f 601 659 603
f 604 660 602
f 658 602 660
f 661 603 659
f 603 661 605
f 606 662 604
f 660 604 662
f 607 661 663
f 661 607 605
f 606 608 662
f 664 662 608
f 609 663 665
f 663 609 607
f 608 610 664
f 666 664 610
f 611 665 667
f 665 611 609
f 610 612 666
f 668 666 612
f 613 667 669
f 667 613 611
f 612 614 668
f 670 668 614
f 615 669 671
f 669 615 613
f 614 616 670
f 672 670 616
f 617 671 673
f 671 617 615
f 616 618 672
f 674 672 618
f 617 675 619
f 675 617 673
f 674 618 676
f 620 676 618
f 677 622 678
f 622 677 621
f 623 679 624
f 680 624 679
f 625 677 681
f 677 625 621
f 623 626 679
f 682 679 626
f 627 681 683
f 681 627 625
f 626 628 682
f 684 682 628
f 627 685 629
f 685 627 683
f 684 628 686
f 630 686 628
f 631 685 687
f 685 631 629
f 630 632 686
f 688 686 632
f 633 687 689
f 687 633 631
f 632 634 688
f 690 688 634
f 633 691 635
f 691 633 689
f 690 634 692
f 636 692 634
f 635 693 637
f 693 635 691
f 692 636 694
f 638 694 636
f 637 695 639
f 695 637 693
f 694 638 696
f 640 696 638
f 695 641 639
f 641 695 697
f 698 696 642
f 640 642 696
f 643 697 699
f 697 643 641
f 642 644 698
f 700 698 644
f 593 699 649
f 699 593 643
f 644 595 700
f 651 700 595
f 701 646 702
f 646 701 645
f 647 703 648
f 704 648 703
f 705 650 649
f 650 705 706
f 707 708 652
f 651 652 708
f 709 645 701
f 645 709 653
f 654 710 647
f 703 647 710
f 711 653 709
f 653 711 655
f 656 712 654
f 710 654 712
f 713 655 711
f 655 713 657
f 658 714 656
f 712 656 714
f 715 657 713
f 657 715 659
f 660 716 658
f 714 658 716
f 717 659 715
f 659 717 661
f 662 718 660
f 716 660 718
f 663 717 719
f 717 663 661
f 662 664 718
f 720 718 664
f 665 719 721
f 719 665 663
f 664 666 720
f 722 720 666
f 667 721 723
f 721 667 665
f 666 668 722
f 724 722 668
f 669 723 725
f 723 669 667
f 668 670 724
f 726 724 670
f 671 725 727
f 725 671 669
f 670 672 726
f 728 726 672
f 673 727 729
f 727 673 671
f 672 674 728
f 730 728 674
f 673 731 675
f 731 673 729
f 730 674 732
f 676 732 674
f 678 733 677
f 733 678 734
f 735 680 736
f 679 736 680
f 677 737 681
f 737 677 733
f 736 679 738
f 682 738 679
f 681 739 683
f 739 681 737
f 738 682 740
f 684 740 682
f 683 741 685
f 741 683 739
f 740 684 742
f 686 742 684
f 685 743 687
f 743 685 741
f 742 686 744
f 688 744 686
f 687 745 689
f 745 687 743
f 744 688 746
f 690 746 688
f 745 691 689
f 691 745 747
f 748 746 692
f 690 692 746
f 747 693 691
f 693 747 749
f 750 748 694
f 692 694 748
f 749 695 693
f 695 749 751
f 752 750 696
f 694 696 750
f 751 697 695
f 697 751 753
f 754 752 698
f 696 698 752
f 753 699 697
f 699 753 755
f 756 754 700
f 698 700 754
f 755 649 699
f 649 755 705
f 708 756 651
f 700 651 756
f 757 706 705
f 706 757 758
f 759 760 707
f 708 707 760
f 734 761 733
f 761 734 762
f 763 735 764
f 736 764 735
f 733 765 737
f 765 733 761
f 764 736 766
f 738 766 736
f 737 767 739
f 767 737 765
f 766 738 768
f 740 768 738
f 739 769 741
f 769 739 767
f 768 740 770
f 742 770 740
f 741 771 743
f 771 741 769
f 770 742 772
f 744 772 742
f 743 773 745
f 773 743 771
f 772 744 774
f 746 774 744
f 773 747 745
f 747 773 775
f 776 774 748
f 746 748 774
f 775 749 747
f 749 775 777
f 778 776 750
f 748 750 776
f 777 751 749
f 751 777 779
f 780 778 752
f 750 752 778
f 779 753 751
f 753 779 781
f 782 780 754
f 752 754 780
f 781 755 753
f 755 781 783
f 784 782 756
f 754 756 782
f 783 705 755
f 705 783 757
f 760 784 708
f 756 708 784
