v -0.092957 -0.079002 0.047678
v -0.083957 -0.101989 0.037850
v -0.060957 -0.079002 0.047678
v -0.083957 -0.114862 0.032347
v -0.064957 -0.101989 0.037850
v -0.060957 -0.121299 0.029595
v -0.092957 -0.140759 0.021275
v -0.053957 -0.131873 0.025074
v -0.000957 -0.140759 0.021275
v -0.060491 -0.122737 0.028980
v -0.060672 -0.122479 0.029090
v -0.064957 -0.114862 0.032347
v -0.060811 -0.122201 0.029209
v -0.060906 -0.121908 0.029334
v -0.060273 -0.122968 0.028881
v -0.060021 -0.123169 0.028795
v -0.059741 -0.123335 0.028724
v -0.059439 -0.123463 0.028670
v -0.059120 -0.123550 0.028632
v -0.058457 -0.123597 0.028612
v -0.034957 -0.131873 0.025074
v -0.031957 -0.131873 0.025074
v -0.034957 -0.123597 0.028612
v 0.030043 -0.131873 0.025074
v 0.052343 -0.140759 0.021275
v 0.033043 -0.131873 0.025074
v 0.030043 -0.123597 0.028612
v 0.052043 -0.131873 0.025074
v 0.052043 -0.123597 0.028612
v 0.056543 -0.123597 0.028612
v 0.080343 -0.140759 0.021275
v 0.057205 -0.123550 0.028632
v 0.057524 -0.123463 0.028670
v 0.057827 -0.123335 0.028724
v 0.058107 -0.123169 0.028795
v 0.058358 -0.122968 0.028881
v 0.058577 -0.122737 0.028980
v 0.058757 -0.122479 0.029090
v 0.058896 -0.122201 0.029209
v 0.058992 -0.121908 0.029334
v 0.059043 -0.121299 0.029595
v 0.063043 -0.114862 0.032347
v 0.059043 -0.079002 0.047678
v 0.082043 -0.114862 0.032347
v 0.091043 -0.140759 0.021275
v 0.082043 -0.101989 0.037850
v 0.063043 -0.101989 0.037850
v 0.091043 -0.079002 0.047678
v 0.033043 -0.123597 0.028612
v -0.031957 -0.123597 0.028612
v -0.053957 -0.123597 0.028612
f 1 2 3
f 2 1 4
f 3 2 5
f 3 5 6
f 7 4 1
f 4 7 8
f 8 7 9
f 4 8 10
f 4 10 11
f 4 11 12
f 12 11 13
f 12 13 14
f 12 14 5
f 5 14 6
f 10 8 15
f 15 8 16
f 16 8 17
f 17 8 18
f 18 8 19
f 19 8 20
f 8 9 21
f 21 9 22
f 21 22 23
f 22 9 24
f 24 9 25
f 24 25 26
f 24 26 27
f 26 25 28
f 28 25 29
f 29 25 30
f 30 25 31
f 30 31 32
f 32 31 33
f 33 31 34
f 34 31 35
f 35 31 36
f 36 31 37
f 37 31 38
f 38 31 39
f 39 31 40
f 40 31 41
f 41 31 42
f 41 42 43
f 42 31 44
f 44 31 45
f 44 45 46
f 43 47 48
f 47 43 42
f 48 47 46
f 48 46 45
f 49 27 26
f 50 23 22
f 51 20 8
