v -0.066323 0.227418 0.483655
v -0.065109 0.221982 0.404720
v -0.065109 0.221982 0.483655
v -0.066323 0.227418 0.404720
v -0.065255 0.216396 0.404720
v -0.065255 0.216396 0.483655
v -0.105020 0.217582 0.118582
v -0.103807 0.212146 0.365253
v -0.103807 0.212146 0.118582
v -0.105020 0.217582 0.365253
v -0.101316 0.207230 0.404720
v -0.101316 0.207230 0.365253
v -0.103807 0.212146 0.404720
v -0.097718 0.203170 0.404720
v -0.097718 0.203170 0.365253
v -0.087126 0.241076 0.365253
v -0.092221 0.239781 0.118582
v -0.087126 0.241076 0.118582
v -0.092221 0.239781 0.365253
v -0.072604 0.201413 0.118582
v -0.077484 0.198598 0.000180
v -0.072604 0.201413 0.000180
v -0.077484 0.198598 0.118582
v -0.082881 0.197226 0.000180
v -0.082881 0.197226 0.118582
v -0.097525 0.238151 0.118582
v -0.092645 0.240967 0.000180
v -0.097525 0.238151 0.000180
v -0.092645 0.240967 0.118582
v -0.104874 0.223169 0.404720
v -0.105020 0.217582 0.483655
v -0.105020 0.217582 0.404720
v -0.104874 0.223169 0.483655
v -0.088238 0.198644 0.404720
v -0.083003 0.198488 0.365253
v -0.088238 0.198644 0.365253
v -0.083003 0.198488 0.404720
v -0.077909 0.199783 0.365253
v -0.077909 0.199783 0.404720
v -0.100633 0.233284 0.365253
v -0.103378 0.228524 0.404720
v -0.103378 0.228524 0.365253
v -0.100633 0.233284 0.404720
v -0.065255 0.216396 0.365253
v -0.066752 0.211040 0.118582
v -0.066752 0.211040 0.365253
v -0.065255 0.216396 0.118582
v -0.103378 0.228524 0.118582
v -0.104874 0.223169 0.365253
v -0.104874 0.223169 0.118582
v -0.066323 0.227418 0.365253
v -0.065109 0.221982 0.118582
v -0.065109 0.221982 0.365253
v -0.066323 0.227418 0.118582
v -0.073302 0.202441 0.483655
v -0.069496 0.206280 0.404720
v -0.073302 0.202441 0.404720
v -0.069496 0.206280 0.483655
v -0.077909 0.199783 0.483655
v -0.088426 0.197391 0.000180
v -0.088426 0.197391 0.118582
v -0.100633 0.233284 0.118582
v -0.072412 0.236395 0.365253
v -0.076872 0.239323 0.118582
v -0.072412 0.236395 0.118582
v -0.076872 0.239323 0.365253
v -0.066752 0.211040 0.404720
v -0.069496 0.206280 0.365253
v -0.093743 0.199083 0.000180
v -0.093743 0.199083 0.118582
v -0.081891 0.240920 0.118582
v -0.081891 0.240920 0.365253
v -0.063926 0.222112 0.000180
v -0.064081 0.216195 0.118582
v -0.064081 0.216195 0.000180
v -0.063926 0.222112 0.118582
v -0.073302 0.202441 0.365253
v -0.101556 0.234084 0.118582
v -0.101556 0.234084 0.000180
v -0.104463 0.229042 0.000180
v -0.104463 0.229042 0.118582
v -0.101316 0.207230 0.118582
v -0.097718 0.203170 0.118582
v -0.069496 0.206280 0.118582
v -0.083003 0.198488 0.118582
v -0.088238 0.198644 0.118582
v -0.106048 0.223369 0.000180
v -0.106048 0.223369 0.118582
v -0.073302 0.202441 0.118582
v -0.066752 0.211040 0.483655
v -0.093257 0.200241 0.365253
v -0.093257 0.200241 0.118582
v -0.077909 0.199783 0.118582
v -0.097718 0.203170 0.483655
v -0.101316 0.207230 0.483655
v -0.088238 0.198644 0.483655
v -0.083003 0.198488 0.483655
v -0.106048 0.223369 0.365253
v -0.104463 0.229042 0.365253
v -0.101556 0.234084 0.365253
v -0.097525 0.238151 0.365253
v -0.096828 0.237123 0.365253
v -0.092645 0.240967 0.365253
v -0.087248 0.242338 0.365253
v -0.081703 0.242173 0.365253
v -0.076387 0.240481 0.365253
v -0.071662 0.237379 0.365253
v -0.068813 0.232334 0.365253
v -0.067850 0.233078 0.365253
v -0.065212 0.227871 0.365253
v -0.063926 0.222112 0.365253
v -0.064081 0.216195 0.365253
v -0.104918 0.211693 0.365253
v -0.106203 0.217452 0.365253
v -0.102279 0.206486 0.365253
v -0.098468 0.202185 0.365253
v -0.093743 0.199083 0.365253
v -0.088426 0.197391 0.365253
v -0.082881 0.197226 0.365253
v -0.077484 0.198598 0.365253
v -0.072604 0.201413 0.365253
v -0.068573 0.205480 0.365253
v -0.065666 0.210522 0.365253
v -0.096828 0.237123 0.079115
v -0.092221 0.239781 0.079115
v -0.096828 0.237123 0.118582
v -0.073302 0.202441 0.079115
v -0.077909 0.199783 0.079115
v -0.072412 0.236395 0.079115
v -0.076872 0.239323 0.000180
v -0.072412 0.236395 0.000180
v -0.076872 0.239323 0.079115
v -0.104874 0.223169 0.000180
v -0.105020 0.217582 0.000180
v -0.103378 0.228524 0.000180
v -0.100633 0.233284 0.000180
v -0.096828 0.237123 0.000180
v -0.092221 0.239781 0.000180
v -0.087248 0.242338 0.000180
v -0.087126 0.241076 0.000180
v -0.081703 0.242173 0.000180
v -0.081891 0.240920 0.000180
v -0.076387 0.240481 0.000180
v -0.071662 0.237379 0.000180
v -0.068813 0.232334 0.000180
v -0.067850 0.233078 0.000180
v -0.066323 0.227418 0.000180
v -0.065212 0.227871 0.000180
v -0.065109 0.221982 0.000180
v -0.104918 0.211693 0.000180
v -0.106203 0.217452 0.000180
v -0.103807 0.212146 0.000180
v -0.102279 0.206486 0.000180
v -0.101316 0.207230 0.000180
v -0.098468 0.202185 0.000180
v -0.097718 0.203170 0.000180
v -0.093257 0.200241 0.000180
v -0.088238 0.198644 0.000180
v -0.083003 0.198488 0.000180
v -0.077909 0.199783 0.000180
v -0.073302 0.202441 0.000180
v -0.069496 0.206280 0.000180
v -0.068573 0.205480 0.000180
v -0.066752 0.211040 0.000180
v -0.065666 0.210522 0.000180
v -0.065255 0.216396 0.000180
v -0.081891 0.240920 0.079115
v -0.087126 0.241076 0.079115
v -0.069779 0.231588 0.118582
v -0.067437 0.226964 0.404720
v -0.067437 0.226964 0.118582
v -0.069779 0.231588 0.404720
v -0.066295 0.221851 0.118582
v -0.066433 0.216597 0.404720
v -0.066433 0.216597 0.118582
v -0.066295 0.221851 0.404720
v -0.067840 0.211560 0.118582
v -0.070422 0.207083 0.404720
v -0.070422 0.207083 0.118582
v -0.067840 0.211560 0.404720
v -0.093257 0.200241 0.079115
v -0.097718 0.203170 0.079115
v -0.104874 0.223169 0.079115
v -0.105020 0.217582 0.079115
v -0.103807 0.212146 0.079115
v -0.101316 0.207230 0.079115
v -0.065255 0.216396 0.079115
v -0.065109 0.221982 0.079115
v -0.068813 0.232334 0.118582
v -0.066323 0.227418 0.079115
v -0.068813 0.232334 0.079115
v -0.096129 0.236093 0.404720
v -0.091796 0.238592 0.118582
v -0.096129 0.236093 0.118582
v -0.091796 0.238592 0.404720
v -0.087004 0.239810 0.404720
v -0.082080 0.239663 0.118582
v -0.087004 0.239810 0.118582
v -0.082080 0.239663 0.404720
v -0.103697 0.222967 0.404720
v -0.103834 0.217713 0.118582
v -0.103834 0.217713 0.404720
v -0.103697 0.222967 0.118582
v -0.077359 0.238162 0.404720
v -0.073164 0.235407 0.118582
v -0.077359 0.238162 0.118582
v -0.073164 0.235407 0.404720
v -0.068573 0.205480 0.118582
v -0.087248 0.242338 0.118582
v -0.081703 0.242173 0.118582
v -0.065666 0.210522 0.118582
v -0.067850 0.233078 0.118582
v -0.071662 0.237379 0.118582
v -0.093257 0.200241 0.404720
v -0.076387 0.240481 0.118582
v -0.103807 0.212146 0.483655
v -0.093257 0.200241 0.483655
v -0.068813 0.232334 0.404720
v -0.072412 0.236395 0.404720
v -0.102279 0.206486 0.118582
v -0.098468 0.202185 0.118582
v -0.104918 0.211693 0.118582
v -0.106203 0.217452 0.118582
v -0.092770 0.201403 0.404720
v -0.096966 0.204157 0.118582
v -0.092770 0.201403 0.118582
v -0.096966 0.204157 0.404720
v -0.065212 0.227871 0.118582
v -0.083126 0.199754 0.404720
v -0.088050 0.199901 0.118582
v -0.083126 0.199754 0.118582
v -0.088050 0.199901 0.404720
v -0.069496 0.206280 0.079115
v -0.066752 0.211040 0.079115
v -0.099708 0.232481 0.404720
v -0.099708 0.232481 0.118582
v -0.092221 0.239781 0.404720
v -0.096828 0.237123 0.404720
v -0.074001 0.203472 0.404720
v -0.078334 0.200972 0.118582
v -0.074001 0.203472 0.118582
v -0.078334 0.200972 0.404720
v -0.100633 0.233284 0.079115
v -0.083003 0.198488 0.079115
v -0.088238 0.198644 0.079115
v -0.102289 0.228004 0.404720
v -0.102289 0.228004 0.118582
v -0.100350 0.207976 0.118582
v -0.100350 0.207976 0.404720
v -0.102693 0.212600 0.404720
v -0.087126 0.241076 0.404720
v -0.081891 0.240920 0.404720
v -0.076872 0.239323 0.404720
v -0.103697 0.222967 0.079115
v -0.103834 0.217713 0.079115
v -0.103378 0.228524 0.079115
v -0.102289 0.228004 0.079115
v -0.099708 0.232481 0.079115
v -0.096129 0.236093 0.079115
v -0.091796 0.238592 0.079115
v -0.087004 0.239810 0.079115
v -0.082080 0.239663 0.079115
v -0.077359 0.238162 0.079115
v -0.073164 0.235407 0.079115
v -0.069779 0.231588 0.079115
v -0.067437 0.226964 0.079115
v -0.066295 0.221851 0.079115
v -0.102693 0.212600 0.079115
v -0.100350 0.207976 0.079115
v -0.096966 0.204157 0.079115
v -0.092770 0.201403 0.079115
v -0.088050 0.199901 0.079115
v -0.083126 0.199754 0.079115
v -0.078334 0.200972 0.079115
v -0.074001 0.203472 0.079115
v -0.070422 0.207083 0.079115
v -0.067840 0.211560 0.079115
v -0.066433 0.216597 0.079115
v -0.102693 0.212600 0.118582
v -0.088426 0.197391 0.483655
v -0.093743 0.199083 0.483655
v -0.082881 0.197226 0.483655
v -0.077484 0.198598 0.483655
v -0.072604 0.201413 0.483655
v -0.068573 0.205480 0.483655
v -0.065666 0.210522 0.483655
v -0.064081 0.216195 0.483655
v -0.103378 0.228524 0.483655
v -0.100633 0.233284 0.483655
v -0.096828 0.237123 0.483655
v -0.092221 0.239781 0.483655
v -0.087126 0.241076 0.483655
v -0.081891 0.240920 0.483655
v -0.076872 0.239323 0.483655
v -0.072412 0.236395 0.483655
v -0.068813 0.232334 0.483655
v -0.063926 0.222112 0.483655
v -0.065212 0.227871 0.483655
v -0.067850 0.233078 0.483655
v -0.071662 0.237379 0.483655
v -0.076387 0.240481 0.483655
v -0.081703 0.242173 0.483655
v -0.087248 0.242338 0.483655
v -0.092645 0.240967 0.483655
v -0.097525 0.238151 0.483655
v -0.101556 0.234084 0.483655
v -0.104463 0.229042 0.483655
v -0.106048 0.223369 0.483655
v -0.106203 0.217452 0.483655
v -0.104918 0.211693 0.483655
v -0.102279 0.206486 0.483655
v -0.098468 0.202185 0.483655
v -0.092496 0.239436 0.504491
v -0.096959 0.236814 0.483655
v -0.096959 0.236814 0.504428
v -0.092496 0.239436 0.483655
v -0.065769 0.221723 0.503880
v -0.065836 0.216187 0.483655
v -0.065769 0.221723 0.483655
v -0.065836 0.216187 0.503716
v -0.067029 0.227113 0.504044
v -0.067029 0.227113 0.483655
v -0.100624 0.233020 0.483655
v -0.100624 0.233020 0.504327
v -0.103240 0.228311 0.504196
v -0.103240 0.228311 0.483655
v -0.104628 0.223008 0.504044
v -0.104628 0.223008 0.483655
v -0.104695 0.217472 0.503880
v -0.104695 0.217472 0.483655
v -0.103435 0.212082 0.503716
v -0.103435 0.212082 0.483655
v -0.100935 0.207203 0.503563
v -0.100935 0.207203 0.483655
v -0.097364 0.203169 0.503432
v -0.097364 0.203169 0.483655
v -0.092967 0.200255 0.483655
v -0.092967 0.200255 0.503332
v -0.088043 0.198659 0.483655
v -0.089934 0.199272 0.503293
v -0.088043 0.198659 0.503269
v -0.088043 0.198659 0.502552
v -0.082927 0.198490 0.483655
v -0.082927 0.198490 0.503247
v -0.082927 0.198490 0.501893
v -0.077968 0.199759 0.483655
v -0.077968 0.199759 0.503269
v -0.077968 0.199759 0.502552
v -0.073504 0.202381 0.483655
v -0.076254 0.200766 0.503293
v -0.073504 0.202381 0.503332
v -0.069840 0.206175 0.483655
v -0.069840 0.206175 0.503432
v -0.067224 0.210884 0.503563
v -0.067224 0.210884 0.483655
v -0.069885 0.206587 0.534642
v -0.066346 0.202846 0.530876
v -0.066729 0.206353 0.530666
v -0.069455 0.202652 0.534878
v -0.073498 0.202321 0.537949
v -0.073964 0.206586 0.537693
v -0.078199 0.201878 0.539879
v -0.078688 0.206349 0.539610
v -0.083239 0.201351 0.540537
v -0.083735 0.205893 0.540265
v -0.088762 0.205249 0.539610
v -0.088274 0.200777 0.539879
v -0.092961 0.200196 0.537949
v -0.085788 0.178016 0.539879
v -0.090483 0.177504 0.537949
v -0.096979 0.199646 0.534878
v -0.094513 0.177064 0.534878
v -0.100057 0.199165 0.530876
v -0.097606 0.176726 0.530876
v -0.101983 0.198786 0.526216
v -0.099551 0.176513 0.526216
v -0.102627 0.198535 0.521215
v -0.100214 0.176441 0.521215
v -0.101944 0.198428 0.516214
v -0.099551 0.176513 0.516214
v -0.099981 0.198474 0.511554
v -0.097606 0.176726 0.511554
v -0.096873 0.198669 0.507553
v -0.094513 0.177064 0.507553
v -0.092830 0.198999 0.504482
v -0.090483 0.177504 0.504482
v -0.088128 0.199443 0.502552
v -0.085788 0.178016 0.502552
v -0.083088 0.199969 0.501893
v -0.080751 0.178566 0.501893
v -0.078054 0.200543 0.502552
v -0.075714 0.179117 0.502552
v -0.071020 0.179629 0.504482
v -0.073367 0.201124 0.504482
v -0.066989 0.180069 0.507553
v -0.069348 0.201674 0.507553
v -0.066271 0.202155 0.511554
v -0.063896 0.180407 0.511554
v -0.064345 0.202534 0.516214
v -0.061952 0.180619 0.516214
v -0.069529 0.231992 0.504196
v -0.069529 0.231992 0.483655
v -0.063701 0.202785 0.521215
v -0.061289 0.180692 0.521215
v -0.064384 0.202892 0.526216
v -0.061952 0.180619 0.526216
v -0.073100 0.236026 0.504327
v -0.073100 0.236026 0.483655
v -0.077497 0.238940 0.483655
v -0.077497 0.238940 0.504428
v -0.082421 0.240536 0.483655
v -0.082421 0.240536 0.504491
v -0.087537 0.240705 0.483655
v -0.087537 0.240705 0.504512
v -0.064712 0.205899 0.526036
v -0.063896 0.180407 0.530876
v -0.066989 0.180069 0.534878
v -0.071020 0.179629 0.537949
v -0.075714 0.179117 0.539879
v -0.080751 0.178566 0.540537
v -0.092464 0.239142 0.508584
v -0.096929 0.236535 0.508331
v -0.100596 0.232762 0.507930
v -0.103214 0.228081 0.507406
v -0.104606 0.222810 0.506797
v -0.104677 0.217310 0.506143
v -0.103421 0.211955 0.505488
v -0.100924 0.207109 0.504879
v -0.097357 0.203103 0.504355
v -0.092962 0.200211 0.503954
v -0.091521 0.199747 0.503880
v -0.088039 0.198628 0.503701
v -0.082924 0.198464 0.503615
v -0.077965 0.199729 0.503701
v -0.074807 0.201573 0.503880
v -0.073500 0.202336 0.503954
v -0.069833 0.206109 0.504355
v -0.067214 0.210790 0.504879
v -0.065822 0.216061 0.505488
v -0.065752 0.221561 0.506143
v -0.067007 0.226916 0.506797
v -0.069504 0.231762 0.507406
v -0.073071 0.235768 0.507930
v -0.077466 0.238660 0.508331
v -0.082389 0.240243 0.508584
v -0.087504 0.240407 0.508670
v -0.092354 0.238138 0.513207
v -0.096825 0.235584 0.512707
v -0.100501 0.231897 0.511910
v -0.103132 0.227328 0.510872
v -0.104538 0.222187 0.509664
v -0.104624 0.216827 0.508367
v -0.103383 0.211611 0.507069
v -0.100901 0.206896 0.505861
v -0.097346 0.203002 0.504823
v -0.092960 0.200195 0.504026
v -0.073498 0.202320 0.504026
v -0.069822 0.206008 0.504823
v -0.067191 0.210577 0.505861
v -0.065784 0.215717 0.507069
v -0.065699 0.221078 0.508367
v -0.066939 0.226293 0.509664
v -0.069422 0.231009 0.510872
v -0.072977 0.234903 0.511910
v -0.077362 0.237709 0.512707
v -0.082279 0.239238 0.513207
v -0.087393 0.239384 0.513378
v -0.096654 0.234018 0.516931
v -0.092173 0.236482 0.517671
v -0.100346 0.230472 0.515753
v -0.102997 0.226087 0.514219
v -0.104426 0.221161 0.512432
v -0.104537 0.216031 0.510514
v -0.103322 0.211045 0.508596
v -0.100863 0.206544 0.506809
v -0.097328 0.202834 0.505274
v -0.092958 0.200169 0.504097
v -0.069803 0.205840 0.505274
v -0.073495 0.202294 0.504097
v -0.067152 0.210225 0.506809
v -0.065723 0.215151 0.508596
v -0.065612 0.220281 0.510514
v -0.066827 0.225267 0.512432
v -0.069286 0.229768 0.514219
v -0.072821 0.233477 0.515753
v -0.077191 0.236143 0.516931
v -0.082099 0.237583 0.517671
v -0.087209 0.237698 0.517924
v -0.091924 0.234205 0.521899
v -0.096419 0.231862 0.520932
v -0.100132 0.228511 0.519393
v -0.102810 0.224379 0.517388
v -0.104272 0.219749 0.515053
v -0.104417 0.214935 0.512548
v -0.103237 0.210266 0.510042
v -0.100810 0.206060 0.507707
v -0.097302 0.202604 0.505702
v -0.092954 0.200133 0.504163
v -0.073491 0.202259 0.504163
v -0.069778 0.205610 0.505702
v -0.067099 0.209742 0.507707
v -0.065638 0.214372 0.510042
v -0.065492 0.219186 0.512548
v -0.066673 0.223855 0.515053
v -0.069100 0.228060 0.517388
v -0.072607 0.231517 0.519393
v -0.076956 0.233988 0.520932
v -0.081850 0.235305 0.521899
v -0.086955 0.235379 0.522229
v -0.091612 0.231344 0.525819
v -0.096123 0.229155 0.524641
v -0.099863 0.226048 0.522768
v -0.102576 0.222234 0.520327
v -0.104078 0.217975 0.517484
v -0.104267 0.213559 0.514433
v -0.103130 0.209288 0.511382
v -0.100743 0.205453 0.508539
v -0.097271 0.202315 0.506098
v -0.092949 0.200088 0.504225
v -0.073486 0.202214 0.504225
v -0.069747 0.205321 0.506098
v -0.067033 0.209134 0.508539
v -0.065531 0.213394 0.511382
v -0.065342 0.217810 0.514433
v -0.066479 0.222080 0.517484
v -0.068866 0.225916 0.520327
v -0.072338 0.229053 0.522768
v -0.076660 0.231280 0.524641
v -0.081537 0.232444 0.525819
v -0.086637 0.232466 0.526221
v -0.095772 0.225941 0.527995
v -0.091241 0.227948 0.529363
v -0.099543 0.223124 0.525820
v -0.102298 0.219689 0.522984
v -0.103848 0.215869 0.519682
v -0.104089 0.211925 0.516138
v -0.103003 0.208127 0.512594
v -0.100665 0.204732 0.509292
v -0.097233 0.201972 0.506456
v -0.092943 0.200035 0.504280
v -0.073480 0.202160 0.504280
v -0.069709 0.204977 0.506456
v -0.066954 0.208413 0.509292
v -0.065404 0.212233 0.512594
v -0.065164 0.216176 0.516138
v -0.066249 0.219975 0.519682
v -0.068588 0.223370 0.522984
v -0.072019 0.226130 0.525820
v -0.076309 0.228067 0.527995
v -0.081167 0.229048 0.529363
v -0.086260 0.229008 0.529830
v -0.090818 0.224076 0.532471
v -0.095372 0.222277 0.530937
v -0.099179 0.219791 0.528496
v -0.101981 0.216786 0.525314
v -0.103586 0.213468 0.521609
v -0.103885 0.210063 0.517633
v -0.102858 0.206803 0.513657
v -0.100575 0.203909 0.509952
v -0.097191 0.201580 0.506770
v -0.092936 0.199974 0.504329
v -0.073474 0.202099 0.504329
v -0.069666 0.204586 0.506770
v -0.066865 0.207591 0.509952
v -0.065259 0.210909 0.513657
v -0.064960 0.214314 0.517633
v -0.065987 0.217574 0.521609
v -0.068271 0.220468 0.525314
v -0.071655 0.222797 0.528496
v -0.075909 0.224403 0.530937
v -0.080744 0.225177 0.532471
v -0.085829 0.225065 0.532995
v -0.090351 0.219795 0.535090
v -0.094929 0.218225 0.533415
v -0.098777 0.216104 0.530750
v -0.101631 0.213576 0.527277
v -0.103296 0.210813 0.523233
v -0.103661 0.208003 0.518893
v -0.102698 0.205338 0.514553
v -0.100476 0.203000 0.510508
v -0.097143 0.201147 0.507035
v -0.092929 0.199907 0.504370
v -0.069619 0.204153 0.507035
v -0.073466 0.202032 0.504370
v -0.066765 0.206681 0.510508
v -0.065100 0.209444 0.514553
v -0.064735 0.212254 0.518893
v -0.065697 0.214919 0.523233
v -0.067920 0.217258 0.527277
v -0.071252 0.219110 0.530750
v -0.075467 0.220351 0.533415
v -0.080276 0.220895 0.535090
v -0.085353 0.220705 0.535662
v -0.089846 0.215176 0.537175
v -0.094452 0.213855 0.535388
v -0.098343 0.212128 0.532545
v -0.101252 0.210114 0.528840
v -0.102984 0.207949 0.524526
v -0.103418 0.205782 0.519896
v -0.102526 0.203759 0.515266
v -0.100368 0.202019 0.510951
v -0.097092 0.200680 0.507246
v -0.092921 0.199834 0.504403
v -0.069568 0.203686 0.507246
v -0.073458 0.201960 0.504403
v -0.066658 0.205700 0.510951
v -0.064927 0.207865 0.515266
v -0.064493 0.210033 0.519896
v -0.065385 0.212055 0.524526
v -0.067542 0.213795 0.528840
v -0.070818 0.215134 0.532545
v -0.074990 0.215980 0.535388
v -0.079772 0.216276 0.537175
v -0.084839 0.216002 0.537785
v -0.089314 0.210300 0.538691
v -0.093948 0.209240 0.536822
v -0.097884 0.207930 0.533850
v -0.100853 0.206458 0.529976
v -0.102653 0.204925 0.525465
v -0.103162 0.203436 0.520625
v -0.102344 0.202092 0.515784
v -0.100255 0.200983 0.511273
v -0.097039 0.200187 0.507399
v -0.092913 0.199758 0.504427
v -0.069514 0.203193 0.507399
v -0.073450 0.201883 0.504427
v -0.066545 0.204665 0.511273
v -0.064745 0.206197 0.515784
v -0.064236 0.207687 0.520625
v -0.065054 0.209031 0.525465
v -0.067143 0.210139 0.529976
v -0.070360 0.210936 0.533850
v -0.074486 0.211365 0.536822
v -0.079239 0.211400 0.538691
v -0.084297 0.211036 0.539328
v -0.093426 0.204460 0.537693
v -0.097409 0.203581 0.534642
v -0.100440 0.202672 0.530666
v -0.102311 0.201794 0.526036
v -0.102896 0.201007 0.521067
v -0.102155 0.200364 0.516098
v -0.100138 0.199911 0.511468
v -0.096983 0.199677 0.507492
v -0.092904 0.199678 0.504441
v -0.069458 0.202682 0.507492
v -0.073441 0.201804 0.504441
v -0.066428 0.203592 0.511468
v -0.064556 0.204470 0.516098
v -0.063971 0.205257 0.521067
v -0.088180 0.199915 0.502523
v -0.083132 0.200371 0.501869
v -0.078105 0.201015 0.502523
v -0.751000 0.377000 0.911180
v -0.751000 -0.377000 0.870180
v -0.751000 -0.377000 0.911180
v -0.751000 0.377000 0.870180
v 0.751000 -0.377000 0.911180
v 0.751000 -0.377000 0.870180
v 0.291000 -0.377000 0.911180
v 0.751000 -0.267640 0.870180
v 0.751000 0.377000 0.911180
v 0.751000 -0.237640 0.870180
v 0.751000 0.237360 0.870180
v 0.751000 0.267000 0.870180
v 0.751000 0.377000 0.870180
f 1 2 3
f 2 1 4
f 3 5 6
f 5 3 2
f 7 8 9
f 8 7 10
f 8 11 12
f 11 8 13
f 12 14 15
f 14 12 11
f 16 17 18
f 17 16 19
f 20 21 22
f 21 20 23
f 23 24 21
f 24 23 25
f 26 27 28
f 27 26 29
f 30 31 32
f 31 30 33
f 34 35 36
f 35 34 37
f 37 38 35
f 38 37 39
f 40 41 42
f 41 40 43
f 44 45 46
f 45 44 47
f 48 49 50
f 49 48 42
f 51 52 53
f 52 51 54
f 55 56 57
f 56 55 58
f 59 57 39
f 57 59 55
f 25 60 24
f 60 25 61
f 62 42 48
f 42 62 40
f 63 64 65
f 64 63 66
f 67 68 56
f 68 67 46
f 5 46 67
f 46 5 44
f 61 69 60
f 69 61 70
f 66 71 64
f 71 66 72
f 72 18 71
f 18 72 16
f 73 74 75
f 74 73 76
f 57 68 77
f 68 57 56
f 78 28 79
f 28 78 26
f 78 80 81
f 80 78 79
f 82 15 83
f 15 82 12
f 46 84 68
f 84 46 45
f 53 47 44
f 47 53 52
f 36 85 86
f 85 36 35
f 81 87 88
f 87 81 80
f 77 84 89
f 84 77 68
f 90 56 58
f 56 90 67
f 91 86 92
f 86 91 36
f 35 93 85
f 93 35 38
f 15 92 83
f 92 15 91
f 11 94 14
f 94 11 95
f 96 37 34
f 37 96 97
f 98 49 10
f 49 98 99
f 49 99 42
f 42 99 100
f 42 100 40
f 40 100 101
f 40 101 102
f 102 101 103
f 102 103 19
f 19 103 104
f 19 104 16
f 16 104 105
f 16 105 72
f 72 105 66
f 66 105 106
f 66 106 63
f 63 106 107
f 63 107 108
f 108 107 109
f 108 109 51
f 51 109 110
f 51 110 53
f 53 110 111
f 53 111 112
f 98 113 114
f 113 98 10
f 113 10 8
f 113 8 115
f 115 8 12
f 115 12 116
f 116 12 15
f 116 15 117
f 117 15 91
f 117 91 118
f 118 91 36
f 118 36 119
f 119 36 35
f 119 35 38
f 119 38 120
f 120 38 77
f 120 77 121
f 121 77 68
f 121 68 122
f 122 68 46
f 122 46 123
f 123 46 44
f 123 44 112
f 112 44 53
f 6 67 90
f 67 6 5
f 17 124 125
f 124 17 126
f 93 127 128
f 127 93 89
f 129 130 131
f 130 129 132
f 87 133 134
f 133 87 80
f 133 80 135
f 135 80 79
f 135 79 136
f 136 79 28
f 136 28 137
f 137 28 27
f 137 27 138
f 138 27 139
f 138 139 140
f 140 139 141
f 140 141 142
f 142 141 130
f 130 141 143
f 130 143 131
f 131 143 144
f 131 144 145
f 145 144 146
f 145 146 147
f 147 146 148
f 147 148 149
f 149 148 73
f 149 73 75
f 87 150 151
f 150 87 134
f 150 134 152
f 150 152 153
f 153 152 154
f 153 154 155
f 155 154 156
f 155 156 69
f 69 156 157
f 69 157 60
f 60 157 158
f 60 158 24
f 24 158 159
f 24 159 160
f 24 160 21
f 21 160 161
f 21 161 22
f 22 161 162
f 22 162 163
f 163 162 164
f 163 164 165
f 165 164 166
f 165 166 75
f 75 166 149
f 64 167 132
f 167 64 71
f 18 125 168
f 125 18 17
f 169 170 171
f 170 169 172
f 173 174 175
f 174 173 176
f 177 178 179
f 178 177 180
f 83 181 182
f 181 83 92
f 183 7 184
f 7 183 50
f 185 82 186
f 82 185 9
f 52 187 47
f 187 52 188
f 189 190 54
f 190 189 191
f 192 193 194
f 193 192 195
f 196 197 198
f 197 196 199
f 200 201 202
f 201 200 203
f 54 188 52
f 188 54 190
f 204 205 206
f 205 204 207
f 10 13 8
f 13 10 32
f 208 22 163
f 22 208 20
f 209 141 139
f 141 209 210
f 75 211 165
f 211 75 74
f 165 208 163
f 208 165 211
f 29 139 27
f 139 29 209
f 144 212 146
f 212 144 213
f 38 89 93
f 89 38 77
f 50 10 7
f 10 50 49
f 9 12 82
f 12 9 8
f 2 44 5
f 44 2 53
f 214 36 91
f 36 214 34
f 108 54 51
f 54 108 189
f 63 189 108
f 189 63 65
f 14 91 15
f 91 14 214
f 19 126 17
f 126 19 102
f 102 62 126
f 62 102 40
f 210 143 141
f 143 210 215
f 32 216 13
f 216 32 31
f 49 32 10
f 32 49 30
f 217 34 214
f 34 217 96
f 218 51 4
f 51 218 108
f 219 108 218
f 108 219 63
f 13 95 11
f 95 13 216
f 42 30 49
f 30 42 41
f 4 53 2
f 53 4 51
f 220 155 221
f 155 220 153
f 222 153 220
f 153 222 150
f 70 155 69
f 155 70 221
f 223 150 222
f 150 223 151
f 94 214 14
f 214 94 217
f 224 225 226
f 225 224 227
f 97 39 37
f 39 97 59
f 148 76 73
f 76 148 228
f 146 228 148
f 228 146 212
f 88 151 223
f 151 88 87
f 215 144 143
f 144 215 213
f 229 230 231
f 230 229 232
f 175 180 177
f 180 175 174
f 45 233 84
f 233 45 234
f 235 194 236
f 194 235 192
f 237 102 19
f 102 237 238
f 239 240 241
f 240 239 242
f 126 243 124
f 243 126 62
f 89 233 127
f 233 89 84
f 71 168 167
f 168 71 18
f 86 244 245
f 244 86 85
f 246 203 200
f 203 246 247
f 178 241 179
f 241 178 239
f 227 248 225
f 248 227 249
f 195 198 193
f 198 195 196
f 92 245 181
f 245 92 86
f 171 176 173
f 176 171 170
f 186 83 182
f 83 186 82
f 65 191 189
f 191 65 129
f 85 128 244
f 128 85 93
f 13 30 32
f 30 13 202
f 202 13 250
f 250 13 11
f 250 11 249
f 249 11 14
f 249 14 227
f 227 14 214
f 227 214 224
f 224 214 34
f 224 34 232
f 232 34 37
f 232 37 229
f 229 37 242
f 242 37 39
f 242 39 239
f 239 39 57
f 239 57 178
f 178 57 56
f 178 56 180
f 180 56 67
f 180 67 174
f 174 67 5
f 174 5 176
f 30 200 41
f 200 30 202
f 41 200 246
f 41 246 43
f 43 246 235
f 43 235 238
f 238 235 192
f 238 192 237
f 237 192 195
f 237 195 251
f 251 195 196
f 251 196 252
f 252 196 199
f 252 199 204
f 252 204 253
f 253 204 207
f 253 207 219
f 219 207 172
f 219 172 218
f 218 172 170
f 218 170 4
f 4 170 176
f 4 176 2
f 2 176 5
f 183 254 255
f 254 183 256
f 254 256 257
f 257 256 243
f 257 243 258
f 258 243 124
f 258 124 259
f 259 124 125
f 259 125 260
f 260 125 168
f 260 168 261
f 261 168 167
f 261 167 262
f 262 167 263
f 263 167 132
f 263 132 264
f 264 132 129
f 264 129 265
f 265 129 191
f 265 191 266
f 266 191 190
f 266 190 267
f 267 190 188
f 267 188 187
f 183 185 184
f 185 183 255
f 185 255 268
f 185 268 186
f 186 268 269
f 186 269 182
f 182 269 270
f 182 270 181
f 181 270 271
f 181 271 245
f 245 271 272
f 245 272 244
f 244 272 273
f 244 273 274
f 244 274 128
f 128 274 275
f 128 275 127
f 127 275 276
f 127 276 233
f 233 276 277
f 233 277 234
f 234 277 278
f 234 278 187
f 187 278 267
f 232 226 230
f 226 232 224
f 205 172 169
f 172 205 207
f 243 48 256
f 48 243 62
f 242 231 240
f 231 242 229
f 250 248 249
f 248 250 279
f 132 142 130
f 142 132 167
f 167 140 142
f 140 167 168
f 168 138 140
f 138 168 125
f 125 137 138
f 137 125 124
f 124 136 137
f 136 124 243
f 136 256 135
f 256 136 243
f 135 183 133
f 183 135 256
f 133 184 134
f 184 133 183
f 134 185 152
f 185 134 184
f 236 259 258
f 259 236 194
f 194 260 259
f 260 194 193
f 193 261 260
f 261 193 198
f 198 262 261
f 262 198 197
f 197 263 262
f 263 197 206
f 206 264 263
f 264 206 205
f 264 169 265
f 169 264 205
f 266 173 267
f 173 266 171
f 265 171 266
f 171 265 169
f 278 173 175
f 173 278 267
f 278 177 277
f 177 278 175
f 277 179 276
f 179 277 177
f 179 275 276
f 275 179 241
f 241 274 275
f 274 241 240
f 240 273 274
f 273 240 231
f 279 269 248
f 269 279 268
f 231 272 273
f 272 231 230
f 230 271 272
f 271 230 226
f 226 270 271
f 270 226 225
f 248 270 225
f 270 248 269
f 280 117 118
f 117 280 281
f 282 118 119
f 118 282 280
f 283 119 120
f 119 283 282
f 284 120 121
f 120 284 283
f 285 121 122
f 121 285 284
f 123 285 122
f 285 123 286
f 112 286 123
f 286 112 287
f 41 33 30
f 33 41 288
f 43 288 41
f 288 43 289
f 290 43 238
f 43 290 289
f 291 238 237
f 238 291 290
f 292 237 251
f 237 292 291
f 293 251 252
f 251 293 292
f 294 252 253
f 252 294 293
f 295 253 219
f 253 295 294
f 295 218 296
f 218 295 219
f 296 4 1
f 4 296 218
f 111 287 112
f 287 111 297
f 110 297 111
f 297 110 298
f 109 298 110
f 298 109 299
f 107 299 109
f 299 107 300
f 301 107 106
f 107 301 300
f 302 106 105
f 106 302 301
f 303 105 104
f 105 303 302
f 304 104 103
f 104 304 303
f 305 103 101
f 103 305 304
f 306 101 100
f 101 306 305
f 306 99 307
f 99 306 100
f 307 98 308
f 98 307 99
f 308 114 309
f 114 308 98
f 309 113 310
f 113 309 114
f 310 115 311
f 115 310 113
f 311 116 312
f 116 311 115
f 281 116 117
f 116 281 312
f 65 132 129
f 132 65 64
f 184 9 185
f 9 184 7
f 199 206 197
f 206 199 204
f 202 279 250
f 279 202 201
f 256 50 183
f 50 256 48
f 47 234 45
f 234 47 187
f 235 247 246
f 247 235 236
f 39 77 38
f 77 39 57
f 152 186 154
f 186 152 185
f 154 182 156
f 182 154 186
f 182 157 156
f 157 182 181
f 181 158 157
f 158 181 245
f 245 159 158
f 159 245 244
f 244 160 159
f 160 244 128
f 128 161 160
f 161 128 127
f 127 162 161
f 162 127 233
f 234 162 233
f 162 234 164
f 187 164 234
f 164 187 166
f 188 166 187
f 166 188 149
f 190 149 188
f 149 190 147
f 191 147 190
f 147 191 145
f 129 145 191
f 145 129 131
f 310 308 309
f 308 310 31
f 31 310 216
f 216 310 311
f 216 311 95
f 95 311 312
f 95 312 94
f 94 312 281
f 94 281 217
f 217 281 280
f 217 280 96
f 96 280 282
f 96 282 97
f 97 282 59
f 59 282 283
f 59 283 55
f 55 283 284
f 55 284 58
f 58 284 285
f 58 285 90
f 90 285 286
f 90 286 6
f 6 286 287
f 6 287 3
f 308 33 307
f 33 308 31
f 307 33 288
f 307 288 306
f 306 288 289
f 306 289 305
f 305 289 290
f 305 290 304
f 304 290 291
f 304 291 303
f 303 291 292
f 303 292 302
f 302 292 293
f 302 293 294
f 302 294 301
f 301 294 295
f 301 295 300
f 300 295 296
f 300 296 299
f 299 296 1
f 299 1 298
f 298 1 3
f 298 3 297
f 297 3 287
f 219 66 63
f 66 219 253
f 253 72 66
f 72 253 252
f 252 16 72
f 16 252 251
f 251 19 16
f 19 251 237
f 238 40 102
f 40 238 43
f 222 88 223
f 88 222 7
f 7 222 9
f 9 222 220
f 9 220 82
f 82 220 221
f 82 221 83
f 83 221 70
f 83 70 92
f 92 70 61
f 92 61 86
f 86 61 25
f 86 25 85
f 85 25 93
f 93 25 23
f 93 23 89
f 89 23 20
f 89 20 84
f 84 20 208
f 84 208 45
f 45 208 211
f 45 211 47
f 47 211 74
f 47 74 52
f 88 50 81
f 50 88 7
f 81 50 48
f 81 48 78
f 78 48 62
f 78 62 26
f 26 62 126
f 26 126 29
f 29 126 17
f 29 17 209
f 209 17 18
f 209 18 210
f 210 18 71
f 210 71 64
f 210 64 215
f 215 64 65
f 215 65 213
f 213 65 189
f 213 189 212
f 212 189 54
f 212 54 228
f 228 54 52
f 228 52 76
f 76 52 74
f 201 268 279
f 268 201 255
f 203 255 201
f 255 203 254
f 247 254 203
f 254 247 257
f 247 258 257
f 258 247 236
f 313 314 315
f 314 313 316
f 317 318 319
f 318 317 320
f 321 319 322
f 319 321 317
f 315 323 324
f 323 315 314
f 325 323 326
f 323 325 324
f 327 326 328
f 326 327 325
f 329 328 330
f 328 329 327
f 331 330 332
f 330 331 329
f 333 332 334
f 332 333 331
f 335 334 336
f 334 335 333
f 337 335 336
f 335 337 338
f 339 338 337
f 338 339 340
f 340 339 341
f 341 339 342
f 343 342 339
f 342 343 341
f 341 343 344
f 344 343 345
f 346 345 343
f 345 346 344
f 344 346 347
f 347 346 348
f 349 348 346
f 348 349 347
f 347 349 350
f 350 349 351
f 352 351 349
f 351 352 353
f 354 352 355
f 352 354 353
f 320 355 318
f 355 320 354
f 356 357 358
f 357 356 359
f 360 356 361
f 356 360 359
f 362 361 363
f 361 362 360
f 364 363 365
f 363 364 362
f 366 364 365
f 364 366 367
f 368 369 367
f 369 368 370
f 371 370 368
f 370 371 372
f 372 373 374
f 373 372 371
f 374 375 376
f 375 374 373
f 376 377 378
f 377 376 375
f 378 379 380
f 379 378 377
f 380 381 382
f 381 380 379
f 382 383 384
f 383 382 381
f 385 384 383
f 384 385 386
f 340 386 385
f 386 340 387
f 386 387 342
f 386 342 388
f 389 342 387
f 342 389 345
f 342 345 388
f 388 345 390
f 348 389 391
f 389 348 345
f 345 348 392
f 345 392 390
f 393 350 394
f 350 393 391
f 391 393 348
f 348 393 392
f 395 394 396
f 394 395 393
f 397 395 396
f 395 397 398
f 399 398 397
f 398 399 400
f 401 322 402
f 322 401 321
f 403 400 399
f 400 403 404
f 405 404 403
f 404 405 406
f 407 402 408
f 402 407 401
f 407 409 410
f 409 407 408
f 410 411 412
f 411 410 409
f 412 413 414
f 413 412 411
f 414 316 313
f 316 414 413
f 358 405 415
f 405 358 357
f 357 406 405
f 406 357 416
f 359 416 357
f 416 359 417
f 418 359 360
f 359 418 417
f 419 360 362
f 360 419 418
f 420 362 364
f 362 420 419
f 367 420 364
f 420 367 369
f 421 315 422
f 315 421 313
f 422 324 423
f 324 422 315
f 424 324 325
f 324 424 423
f 425 325 327
f 325 425 424
f 426 327 329
f 327 426 425
f 427 329 331
f 329 427 426
f 428 331 333
f 331 428 427
f 429 333 335
f 333 429 428
f 335 430 429
f 430 335 338
f 340 430 338
f 430 340 431
f 431 340 432
f 432 340 341
f 344 432 341
f 432 344 433
f 347 433 344
f 433 347 434
f 350 434 347
f 434 350 435
f 435 350 351
f 435 351 436
f 353 436 351
f 436 353 437
f 354 437 353
f 437 354 438
f 320 438 354
f 438 320 439
f 317 439 320
f 439 317 440
f 321 440 317
f 440 321 441
f 401 441 321
f 441 401 442
f 407 442 401
f 442 407 443
f 443 410 444
f 410 443 407
f 444 412 445
f 412 444 410
f 446 412 414
f 412 446 445
f 421 414 313
f 414 421 446
f 447 422 448
f 422 447 421
f 448 423 449
f 423 448 422
f 450 423 424
f 423 450 449
f 451 424 425
f 424 451 450
f 452 425 426
f 425 452 451
f 453 426 427
f 426 453 452
f 454 427 428
f 427 454 453
f 455 428 429
f 428 455 454
f 430 455 429
f 455 430 456
f 437 457 436
f 457 437 458
f 438 458 437
f 458 438 459
f 439 459 438
f 459 439 460
f 440 460 439
f 460 440 461
f 441 461 440
f 461 441 462
f 442 462 441
f 462 442 463
f 443 463 442
f 463 443 464
f 465 443 444
f 443 465 464
f 465 445 466
f 445 465 444
f 466 446 467
f 446 466 445
f 467 421 447
f 421 467 446
f 468 447 448
f 447 468 469
f 468 449 470
f 449 468 448
f 471 449 450
f 449 471 470
f 472 450 451
f 450 472 471
f 473 451 452
f 451 473 472
f 474 452 453
f 452 474 473
f 475 453 454
f 453 475 474
f 476 454 455
f 454 476 475
f 456 476 455
f 476 456 477
f 457 478 479
f 478 457 458
f 459 478 458
f 478 459 480
f 460 480 459
f 480 460 481
f 461 481 460
f 481 461 482
f 462 482 461
f 482 462 483
f 463 483 462
f 483 463 484
f 464 484 463
f 484 464 485
f 485 465 486
f 465 485 464
f 487 465 466
f 465 487 486
f 487 467 488
f 467 487 466
f 488 447 469
f 447 488 467
f 489 468 490
f 468 489 469
f 490 470 491
f 470 490 468
f 492 470 471
f 470 492 491
f 493 471 472
f 471 493 492
f 494 472 473
f 472 494 493
f 495 473 474
f 473 495 494
f 496 474 475
f 474 496 495
f 497 475 476
f 475 497 496
f 477 497 476
f 497 477 498
f 478 499 479
f 499 478 500
f 480 500 478
f 500 480 501
f 481 501 480
f 501 481 502
f 482 502 481
f 502 482 503
f 483 503 482
f 503 483 504
f 484 504 483
f 504 484 505
f 485 505 484
f 505 485 506
f 506 486 507
f 486 506 485
f 507 487 508
f 487 507 486
f 508 488 509
f 488 508 487
f 509 469 489
f 469 509 488
f 510 490 511
f 490 510 489
f 511 491 512
f 491 511 490
f 513 491 492
f 491 513 512
f 514 492 493
f 492 514 513
f 515 493 494
f 493 515 514
f 516 494 495
f 494 516 515
f 517 495 496
f 495 517 516
f 518 496 497
f 496 518 517
f 497 519 518
f 519 497 498
f 500 520 499
f 520 500 521
f 501 521 500
f 521 501 522
f 502 522 501
f 522 502 523
f 503 523 502
f 523 503 524
f 504 524 503
f 524 504 525
f 505 525 504
f 525 505 526
f 506 526 505
f 526 506 527
f 528 506 507
f 506 528 527
f 528 508 529
f 508 528 507
f 530 508 509
f 508 530 529
f 530 489 510
f 489 530 509
f 531 510 511
f 510 531 532
f 533 511 512
f 511 533 531
f 534 512 513
f 512 534 533
f 535 513 514
f 513 535 534
f 536 514 515
f 514 536 535
f 537 515 516
f 515 537 536
f 538 516 517
f 516 538 537
f 539 517 518
f 517 539 538
f 540 518 519
f 518 540 539
f 521 541 520
f 541 521 542
f 522 542 521
f 542 522 543
f 523 543 522
f 543 523 544
f 524 544 523
f 544 524 545
f 525 545 524
f 545 525 546
f 526 546 525
f 546 526 547
f 527 547 526
f 547 527 548
f 528 548 527
f 548 528 549
f 549 529 550
f 529 549 528
f 550 530 551
f 530 550 529
f 551 510 532
f 510 551 530
f 531 552 532
f 552 531 553
f 554 531 533
f 531 554 553
f 555 533 534
f 533 555 554
f 556 534 535
f 534 556 555
f 557 535 536
f 535 557 556
f 558 536 537
f 536 558 557
f 559 537 538
f 537 559 558
f 560 538 539
f 538 560 559
f 561 539 540
f 539 561 560
f 542 562 541
f 562 542 563
f 543 563 542
f 563 543 564
f 544 564 543
f 564 544 565
f 545 565 544
f 565 545 566
f 546 566 545
f 566 546 567
f 547 567 546
f 567 547 568
f 548 568 547
f 568 548 569
f 549 569 548
f 569 549 570
f 571 549 550
f 549 571 570
f 572 550 551
f 550 572 571
f 532 572 551
f 572 532 552
f 553 573 552
f 573 553 574
f 554 574 553
f 574 554 575
f 576 554 555
f 554 576 575
f 577 555 556
f 555 577 576
f 578 556 557
f 556 578 577
f 579 557 558
f 557 579 578
f 580 558 559
f 558 580 579
f 581 559 560
f 559 581 580
f 561 581 560
f 581 561 582
f 583 562 563
f 562 583 584
f 564 583 563
f 583 564 585
f 565 585 564
f 585 565 586
f 566 586 565
f 586 566 587
f 567 587 566
f 587 567 588
f 568 588 567
f 588 568 589
f 569 589 568
f 589 569 590
f 591 569 570
f 569 591 590
f 592 570 571
f 570 592 591
f 593 571 572
f 571 593 592
f 552 593 572
f 593 552 573
f 574 594 573
f 594 574 595
f 575 595 574
f 595 575 596
f 597 575 576
f 575 597 596
f 598 576 577
f 576 598 597
f 599 577 578
f 577 599 598
f 600 578 579
f 578 600 599
f 601 579 580
f 579 601 600
f 602 580 581
f 580 602 601
f 582 602 581
f 602 582 603
f 604 584 583
f 584 604 605
f 585 604 583
f 604 585 606
f 586 606 585
f 606 586 607
f 587 607 586
f 607 587 608
f 588 608 587
f 608 588 609
f 589 609 588
f 609 589 610
f 590 610 589
f 610 590 611
f 612 590 591
f 590 612 611
f 613 591 592
f 591 613 612
f 614 592 593
f 592 614 613
f 573 614 593
f 614 573 594
f 595 615 594
f 615 595 616
f 596 616 595
f 616 596 617
f 618 596 597
f 596 618 617
f 619 597 598
f 597 619 618
f 620 598 599
f 598 620 619
f 621 599 600
f 599 621 620
f 622 600 601
f 600 622 621
f 623 601 602
f 601 623 622
f 603 623 602
f 623 603 624
f 625 605 604
f 605 625 626
f 606 625 604
f 625 606 627
f 607 627 606
f 627 607 628
f 608 628 607
f 628 608 629
f 609 629 608
f 629 609 630
f 610 630 609
f 630 610 631
f 611 631 610
f 631 611 632
f 633 611 612
f 611 633 632
f 634 612 613
f 612 634 633
f 635 613 614
f 613 635 634
f 594 635 614
f 635 594 615
f 616 366 615
f 366 616 636
f 617 636 616
f 636 617 637
f 638 617 618
f 617 638 637
f 639 618 619
f 618 639 638
f 640 619 620
f 619 640 639
f 641 620 621
f 620 641 640
f 642 621 622
f 621 642 641
f 643 622 623
f 622 643 642
f 624 643 623
f 643 624 644
f 645 626 625
f 626 645 646
f 627 645 625
f 645 627 647
f 628 647 627
f 647 628 648
f 629 648 628
f 648 629 649
f 630 649 629
f 649 630 415
f 631 415 630
f 415 631 358
f 632 358 631
f 358 632 356
f 361 632 633
f 632 361 356
f 363 633 634
f 633 363 361
f 365 634 635
f 634 365 363
f 615 365 635
f 365 615 366
f 636 367 366
f 367 636 368
f 637 368 636
f 368 637 371
f 373 637 638
f 637 373 371
f 375 638 639
f 638 375 373
f 377 639 640
f 639 377 375
f 379 640 641
f 640 379 377
f 381 641 642
f 641 381 379
f 383 642 643
f 642 383 381
f 644 383 643
f 383 644 385
f 431 385 644
f 385 431 650
f 385 650 340
f 340 650 387
f 651 387 650
f 387 651 389
f 391 651 652
f 651 391 389
f 394 435 646
f 435 394 652
f 652 394 350
f 652 350 391
f 396 646 645
f 646 396 394
f 647 396 645
f 396 647 397
f 648 397 647
f 397 648 399
f 649 399 648
f 399 649 403
f 415 403 649
f 403 415 405
f 653 654 655
f 654 653 656
f 657 654 658
f 654 657 655
f 655 657 659
f 660 657 658
f 657 660 661
f 661 660 662
f 661 662 663
f 661 663 664
f 661 664 665
