v -0.143678 0.052383 0.557180
v -0.143678 0.062815 0.557180
v -0.143222 0.057599 0.557180
v -0.145033 0.047325 0.557180
v -0.145033 0.067872 0.557180
v -0.147246 0.042580 0.557180
v -0.147246 0.072618 0.557180
v -0.148241 0.057599 0.557180
v -0.148621 0.053254 0.557180
v -0.150249 0.038291 0.557180
v -0.149750 0.049042 0.557180
v -0.151593 0.045089 0.557180
v -0.153952 0.034588 0.557180
v -0.154094 0.041517 0.557180
v -0.158241 0.031585 0.557180
v -0.157178 0.038433 0.557180
v -0.160750 0.035932 0.557180
v -0.162986 0.029372 0.557180
v -0.164703 0.034088 0.557180
v -0.168044 0.028017 0.557180
v -0.168915 0.032960 0.557180
v -0.173260 0.027561 0.557180
v -0.173260 0.032580 0.557180
v -0.178476 0.028017 0.557180
v -0.177604 0.032960 0.557180
v -0.181817 0.034088 0.557180
v -0.183534 0.029372 0.557180
v -0.185769 0.035932 0.557180
v -0.188279 0.031585 0.557180
v -0.189342 0.038433 0.557180
v -0.192568 0.034588 0.557180
v -0.192426 0.041517 0.557180
v -0.194927 0.045089 0.557180
v -0.196270 0.038291 0.557180
v -0.196770 0.049042 0.557180
v -0.199274 0.042580 0.557180
v -0.197899 0.053254 0.557180
v -0.198279 0.057599 0.557180
v -0.148621 0.061943 0.557180
v -0.150249 0.076907 0.557180
v -0.149750 0.066156 0.557180
v -0.151593 0.070108 0.557180
v -0.153952 0.080609 0.557180
v -0.154094 0.073681 0.557180
v -0.158241 0.083613 0.557180
v -0.157178 0.076764 0.557180
v -0.160750 0.079266 0.557180
v -0.162986 0.085825 0.557180
v -0.164703 0.081109 0.557180
v -0.168044 0.087181 0.557180
v -0.168915 0.082238 0.557180
v -0.173260 0.087637 0.557180
v -0.173260 0.082618 0.557180
v -0.177604 0.082238 0.557180
v -0.178476 0.087181 0.557180
v -0.181817 0.081109 0.557180
v -0.183533 0.085825 0.557180
v -0.185769 0.079266 0.557180
v -0.188279 0.083613 0.557180
v -0.189342 0.076764 0.557180
v -0.192568 0.080609 0.557180
v -0.192426 0.073681 0.557180
v -0.194927 0.070108 0.557180
v -0.196270 0.076907 0.557180
v -0.196770 0.066156 0.557180
v -0.199274 0.072618 0.557180
v -0.197899 0.061943 0.557180
v -0.201487 0.047325 0.557180
v -0.201487 0.067872 0.557180
v -0.202842 0.052383 0.557180
v -0.202842 0.062815 0.557180
v -0.203298 0.057599 0.557180
v -0.143678 0.062815 0.620180
v -0.143678 0.052383 0.620180
v -0.143222 0.057599 0.620180
v -0.145033 0.067872 0.620180
v -0.145033 0.047325 0.620180
v -0.147246 0.072618 0.620180
v -0.147246 0.042580 0.620180
v -0.150249 0.076907 0.620180
v -0.150249 0.038291 0.620180
v -0.153952 0.080609 0.620180
v -0.153260 0.057599 0.620180
v -0.153564 0.061072 0.620180
v -0.154466 0.064439 0.620180
v -0.158241 0.083613 0.620180
v -0.155939 0.067599 0.620180
v -0.157939 0.070454 0.620180
v -0.160404 0.072920 0.620180
v -0.162986 0.085825 0.620180
v -0.163260 0.074919 0.620180
v -0.168044 0.087181 0.620180
v -0.166419 0.076393 0.620180
v -0.169787 0.077295 0.620180
v -0.173260 0.087637 0.620180
v -0.173260 0.077599 0.620180
v -0.178476 0.087181 0.620180
v -0.176733 0.077295 0.620180
v -0.180100 0.076393 0.620180
v -0.183533 0.085825 0.620180
v -0.183260 0.074919 0.620180
v -0.186116 0.072920 0.620180
v -0.188279 0.083613 0.620180
v -0.188581 0.070454 0.620180
v -0.192568 0.080609 0.620180
v -0.190580 0.067599 0.620180
v -0.192054 0.064439 0.620180
v -0.192956 0.061072 0.620180
v -0.196270 0.076907 0.620180
v -0.193260 0.057599 0.620180
v -0.153952 0.034588 0.620180
v -0.153564 0.054126 0.620180
v -0.154466 0.050758 0.620180
v -0.158241 0.031585 0.620180
v -0.155939 0.047599 0.620180
v -0.157939 0.044743 0.620180
v -0.160404 0.042278 0.620180
v -0.162986 0.029372 0.620180
v -0.163260 0.040278 0.620180
v -0.168044 0.028017 0.620180
v -0.166419 0.038805 0.620180
v -0.169787 0.037903 0.620180
v -0.173260 0.027561 0.620180
v -0.173260 0.037599 0.620180
v -0.176733 0.037903 0.620180
v -0.178476 0.028017 0.620180
v -0.180100 0.038805 0.620180
v -0.183534 0.029372 0.620180
v -0.183260 0.040278 0.620180
v -0.186116 0.042278 0.620180
v -0.188279 0.031585 0.620180
v -0.188581 0.044743 0.620180
v -0.192568 0.034588 0.620180
v -0.190580 0.047599 0.620180
v -0.192054 0.050758 0.620180
v -0.192956 0.054126 0.620180
v -0.196270 0.038291 0.620180
v -0.199274 0.072618 0.620180
v -0.199274 0.042580 0.620180
v -0.201487 0.067872 0.620180
v -0.201487 0.047325 0.620180
v -0.202842 0.062815 0.620180
v -0.202842 0.052383 0.620180
v -0.203298 0.057599 0.620180
v -0.162986 0.029372 0.617180
v -0.158241 0.031585 0.617180
v -0.143678 0.052383 0.617180
v -0.143678 0.062815 0.617180
v -0.143222 0.057599 0.617180
v -0.145033 0.047325 0.617180
v -0.145033 0.067872 0.617180
v -0.147246 0.042580 0.617180
v -0.147246 0.072618 0.617180
v -0.150249 0.038291 0.617180
v -0.150249 0.076907 0.617180
v -0.153952 0.034588 0.617180
v -0.153260 0.057599 0.617180
v -0.153564 0.054126 0.617180
v -0.154466 0.050758 0.617180
v -0.155939 0.047599 0.617180
v -0.157939 0.044743 0.617180
v -0.160404 0.042278 0.617180
v -0.163260 0.040278 0.617180
v -0.168044 0.028017 0.617180
v -0.166419 0.038805 0.617180
v -0.169787 0.037903 0.617180
v -0.173260 0.027561 0.617180
v -0.173260 0.037599 0.617180
v -0.178476 0.028017 0.617180
v -0.176733 0.037903 0.617180
v -0.180100 0.038805 0.617180
v -0.183534 0.029372 0.617180
v -0.183260 0.040278 0.617180
v -0.186116 0.042278 0.617180
v -0.188279 0.031585 0.617180
v -0.188581 0.044743 0.617180
v -0.192568 0.034588 0.617180
v -0.190580 0.047599 0.617180
v -0.192054 0.050758 0.617180
v -0.192956 0.054126 0.617180
v -0.196270 0.038291 0.617180
v -0.193260 0.057599 0.617180
v -0.153952 0.080609 0.617180
v -0.153564 0.061072 0.617180
v -0.154466 0.064439 0.617180
v -0.158241 0.083613 0.617180
v -0.155939 0.067599 0.617180
v -0.157939 0.070454 0.617180
v -0.160404 0.072920 0.617180
v -0.162986 0.085825 0.617180
v -0.163260 0.074919 0.617180
v -0.168044 0.087181 0.617180
v -0.166419 0.076393 0.617180
v -0.169787 0.077295 0.617180
v -0.173260 0.087637 0.617180
v -0.173260 0.077599 0.617180
v -0.176733 0.077295 0.617180
v -0.178476 0.087181 0.617180
v -0.180100 0.076393 0.617180
v -0.183533 0.085825 0.617180
v -0.183260 0.074919 0.617180
v -0.186116 0.072920 0.617180
v -0.188279 0.083613 0.617180
v -0.188581 0.070454 0.617180
v -0.192568 0.080609 0.617180
v -0.190580 0.067599 0.617180
v -0.192054 0.064439 0.617180
v -0.192956 0.061072 0.617180
v -0.196270 0.076907 0.617180
v -0.199274 0.042580 0.617180
v -0.199274 0.072618 0.617180
v -0.201487 0.047325 0.617180
v -0.201487 0.067872 0.617180
v -0.202842 0.052383 0.617180
v -0.202842 0.062815 0.617180
v -0.203298 0.057599 0.617180
v -0.143678 0.062815 0.567180
v -0.143678 0.052383 0.567180
v -0.143222 0.057599 0.567180
v -0.145033 0.067872 0.567180
v -0.145033 0.047325 0.567180
v -0.147246 0.072618 0.567180
v -0.147246 0.042580 0.567180
v -0.150249 0.076907 0.567180
v -0.150249 0.038291 0.567180
v -0.153952 0.080609 0.567180
v -0.153260 0.057599 0.567180
v -0.153564 0.061072 0.567180
v -0.154466 0.064439 0.567180
v -0.158241 0.083613 0.567180
v -0.155939 0.067599 0.567180
v -0.157939 0.070454 0.567180
v -0.160404 0.072920 0.567180
v -0.162986 0.085825 0.567180
v -0.163260 0.074919 0.567180
v -0.168044 0.087181 0.567180
v -0.166419 0.076393 0.567180
v -0.169787 0.077295 0.567180
v -0.173260 0.087637 0.567180
v -0.173260 0.077599 0.567180
v -0.178476 0.087181 0.567180
v -0.176733 0.077295 0.567180
v -0.180100 0.076393 0.567180
v -0.183533 0.085825 0.567180
v -0.183260 0.074919 0.567180
v -0.186116 0.072920 0.567180
v -0.188279 0.083613 0.567180
v -0.188581 0.070454 0.567180
v -0.192568 0.080609 0.567180
v -0.190580 0.067599 0.567180
v -0.192054 0.064439 0.567180
v -0.192956 0.061072 0.567180
v -0.196270 0.076907 0.567180
v -0.193260 0.057599 0.567180
v -0.153952 0.034588 0.567180
v -0.153564 0.054126 0.567180
v -0.154466 0.050758 0.567180
v -0.158241 0.031585 0.567180
v -0.155939 0.047599 0.567180
v -0.157939 0.044743 0.567180
v -0.160404 0.042278 0.567180
v -0.162986 0.029372 0.567180
v -0.163260 0.040278 0.567180
v -0.168044 0.028017 0.567180
v -0.166419 0.038805 0.567180
v -0.169787 0.037903 0.567180
v -0.173260 0.027561 0.567180
v -0.173260 0.037599 0.567180
v -0.176733 0.037903 0.567180
v -0.178476 0.028017 0.567180
v -0.180100 0.038805 0.567180
v -0.183534 0.029372 0.567180
v -0.183260 0.040278 0.567180
v -0.186116 0.042278 0.567180
v -0.188279 0.031585 0.567180
v -0.188581 0.044743 0.567180
v -0.192568 0.034588 0.567180
v -0.190580 0.047599 0.567180
v -0.192054 0.050758 0.567180
v -0.192956 0.054126 0.567180
v -0.196270 0.038291 0.567180
v -0.199274 0.072618 0.567180
v -0.199274 0.042580 0.567180
v -0.201487 0.067872 0.567180
v -0.201487 0.047325 0.567180
v -0.202842 0.062815 0.567180
v -0.202842 0.052383 0.567180
v -0.203298 0.057599 0.567180
v -0.126955 0.065764 0.492180
v -0.126955 0.049434 0.492180
v -0.126241 0.057599 0.492180
v -0.129076 0.073680 0.492180
v -0.128241 0.057599 0.492180
v -0.128925 0.065416 0.492180
v -0.130956 0.072996 0.492180
v -0.132540 0.081108 0.492180
v -0.134272 0.080108 0.492180
v -0.137241 0.087822 0.492180
v -0.138773 0.086536 0.492180
v -0.143037 0.093617 0.492180
v -0.144322 0.092085 0.492180
v -0.149750 0.098318 0.492180
v -0.150750 0.096586 0.492180
v -0.157178 0.101782 0.492180
v -0.157862 0.099903 0.492180
v -0.165095 0.103904 0.492180
v -0.165442 0.101934 0.492180
v -0.173260 0.104618 0.492180
v -0.173260 0.102618 0.492180
v -0.181425 0.103904 0.492180
v -0.181077 0.101934 0.492180
v -0.188657 0.099903 0.492180
v -0.189341 0.101782 0.492180
v -0.195769 0.096586 0.492180
v -0.196769 0.098319 0.492180
v -0.202198 0.092085 0.492180
v -0.203483 0.093618 0.492180
v -0.207746 0.086537 0.492180
v -0.209279 0.087822 0.492180
v -0.212248 0.080108 0.492180
v -0.213980 0.081108 0.492180
v -0.215564 0.072996 0.492180
v -0.217443 0.073680 0.492180
v -0.217595 0.065416 0.492180
v -0.219565 0.065764 0.492180
v -0.218279 0.057599 0.492180
v -0.129076 0.041517 0.492180
v -0.128925 0.049781 0.492180
v -0.130956 0.042201 0.492180
v -0.132540 0.034089 0.492180
v -0.134272 0.035089 0.492180
v -0.137241 0.027375 0.492180
v -0.138773 0.028661 0.492180
v -0.143037 0.021580 0.492180
v -0.144322 0.023112 0.492180
v -0.149750 0.016879 0.492180
v -0.150750 0.018611 0.492180
v -0.157178 0.013415 0.492180
v -0.157862 0.015295 0.492180
v -0.165095 0.011294 0.492180
v -0.165442 0.013264 0.492180
v -0.173260 0.010580 0.492180
v -0.173260 0.012580 0.492180
v -0.181077 0.013264 0.492180
v -0.181425 0.011294 0.492180
v -0.188657 0.015295 0.492180
v -0.189341 0.013415 0.492180
v -0.195769 0.018611 0.492180
v -0.196769 0.016879 0.492180
v -0.202198 0.023112 0.492180
v -0.203483 0.021580 0.492180
v -0.207746 0.028661 0.492180
v -0.209279 0.027375 0.492180
v -0.212248 0.035089 0.492180
v -0.213980 0.034089 0.492180
v -0.215564 0.042201 0.492180
v -0.217443 0.041517 0.492180
v -0.217595 0.049781 0.492180
v -0.219565 0.049434 0.492180
v -0.220279 0.057599 0.492180
v -0.198279 0.057599 0.407180
v -0.199868 0.062291 0.407492
v -0.197899 0.061943 0.407180
v -0.200279 0.057599 0.407492
v -0.198649 0.066840 0.407492
v -0.196770 0.066156 0.407180
v -0.196659 0.071108 0.407492
v -0.194927 0.070108 0.407180
v -0.193958 0.074966 0.407492
v -0.192426 0.073681 0.407180
v -0.190627 0.078297 0.407492
v -0.189342 0.076765 0.407180
v -0.186769 0.080998 0.407492
v -0.185769 0.079266 0.407180
v -0.182501 0.082988 0.407492
v -0.181817 0.081109 0.407180
v -0.164703 0.081109 0.407180
v -0.168568 0.084207 0.407492
v -0.164019 0.082988 0.407492
v -0.168915 0.082238 0.407180
v -0.177952 0.084207 0.407492
v -0.177604 0.082238 0.407180
v -0.173260 0.084618 0.407492
v -0.173260 0.082618 0.407180
v -0.177952 0.030990 0.407492
v -0.181817 0.034089 0.407180
v -0.177604 0.032960 0.407180
v -0.182501 0.032209 0.407492
v -0.160750 0.079266 0.407180
v -0.159750 0.080998 0.407492
v -0.146651 0.052907 0.407492
v -0.148241 0.057599 0.407180
v -0.146241 0.057599 0.407492
v -0.148621 0.053254 0.407180
v -0.157178 0.076765 0.407180
v -0.155892 0.078297 0.407492
v -0.154094 0.073681 0.407180
v -0.152562 0.074966 0.407492
v -0.151593 0.070108 0.407180
v -0.149861 0.071108 0.407492
v -0.149750 0.066156 0.407180
v -0.147870 0.066840 0.407492
v -0.164019 0.032209 0.407492
v -0.160750 0.035932 0.407180
v -0.159750 0.034200 0.407492
v -0.164703 0.034089 0.407180
v -0.148621 0.061943 0.407180
v -0.146651 0.062291 0.407492
v -0.147870 0.048358 0.407492
v -0.149750 0.049042 0.407180
v -0.149861 0.044089 0.407492
v -0.151593 0.045089 0.407180
v -0.152562 0.040231 0.407492
v -0.154094 0.041517 0.407180
v -0.155892 0.036901 0.407492
v -0.157178 0.038433 0.407180
v -0.168568 0.030990 0.407492
v -0.168915 0.032960 0.407180
v -0.173260 0.030580 0.407492
v -0.173260 0.032580 0.407180
v -0.185769 0.035932 0.407180
v -0.186769 0.034200 0.407492
v -0.189342 0.038433 0.407180
v -0.190627 0.036901 0.407492
v -0.192426 0.041517 0.407180
v -0.193958 0.040231 0.407492
v -0.126955 0.049434 0.472180
v -0.126955 0.065764 0.472180
v -0.126241 0.057599 0.472180
v -0.129076 0.041517 0.472180
v -0.128241 0.057599 0.472180
v -0.128925 0.049781 0.472180
v -0.130956 0.042201 0.472180
v -0.132540 0.034089 0.472180
v -0.134272 0.035089 0.472180
v -0.137241 0.027375 0.472180
v -0.138773 0.028661 0.472180
v -0.143037 0.021580 0.472180
v -0.144322 0.023112 0.472180
v -0.149750 0.016879 0.472180
v -0.150750 0.018611 0.472180
v -0.157178 0.013415 0.472180
v -0.157862 0.015295 0.472180
v -0.165095 0.011294 0.472180
v -0.165442 0.013264 0.472180
v -0.173260 0.010580 0.472180
v -0.173260 0.012580 0.472180
v -0.181425 0.011294 0.472180
v -0.181077 0.013264 0.472180
v -0.188657 0.015295 0.472180
v -0.189341 0.013415 0.472180
v -0.195769 0.018611 0.472180
v -0.196769 0.016879 0.472180
v -0.202198 0.023112 0.472180
v -0.203483 0.021580 0.472180
v -0.207746 0.028661 0.472180
v -0.209279 0.027375 0.472180
v -0.212248 0.035089 0.472180
v -0.213980 0.034089 0.472180
v -0.215564 0.042201 0.472180
v -0.217443 0.041517 0.472180
v -0.217595 0.049781 0.472180
v -0.219565 0.049434 0.472180
v -0.218279 0.057599 0.472180
v -0.129076 0.073680 0.472180
v -0.128925 0.065416 0.472180
v -0.130956 0.072996 0.472180
v -0.132540 0.081108 0.472180
v -0.134272 0.080108 0.472180
v -0.137241 0.087822 0.472180
v -0.138773 0.086536 0.472180
v -0.143037 0.093617 0.472180
v -0.144322 0.092085 0.472180
v -0.149750 0.098318 0.472180
v -0.150750 0.096586 0.472180
v -0.157178 0.101782 0.472180
v -0.157862 0.099903 0.472180
v -0.165095 0.103904 0.472180
v -0.165442 0.101934 0.472180
v -0.173260 0.104618 0.472180
v -0.173260 0.102618 0.472180
v -0.181077 0.101934 0.472180
v -0.181425 0.103904 0.472180
v -0.188657 0.099903 0.472180
v -0.189341 0.101782 0.472180
v -0.195769 0.096586 0.472180
v -0.196769 0.098319 0.472180
v -0.202198 0.092085 0.472180
v -0.203483 0.093618 0.472180
v -0.207746 0.086537 0.472180
v -0.209279 0.087822 0.472180
v -0.212248 0.080108 0.472180
v -0.213980 0.081108 0.472180
v -0.215564 0.072996 0.472180
v -0.217443 0.073680 0.472180
v -0.217595 0.065416 0.472180
v -0.219565 0.065764 0.472180
v -0.220279 0.057599 0.472180
v -0.194927 0.045089 0.407180
v -0.196659 0.044089 0.407492
v -0.196770 0.049042 0.407180
v -0.198649 0.048358 0.407492
v -0.197899 0.053254 0.407180
v -0.199868 0.052907 0.407492
v -0.146651 0.062291 0.415492
v -0.146651 0.052907 0.415492
v -0.146241 0.057599 0.415492
v -0.147870 0.066840 0.415492
v -0.147870 0.048358 0.415492
v -0.148241 0.057599 0.415492
v -0.148621 0.061943 0.415492
v -0.149861 0.071108 0.415492
v -0.149750 0.066156 0.415492
v -0.151593 0.070108 0.415492
v -0.152562 0.074966 0.415492
v -0.154094 0.073681 0.415492
v -0.155892 0.078297 0.415492
v -0.157178 0.076765 0.415492
v -0.159750 0.080998 0.415492
v -0.160750 0.079266 0.415492
v -0.164019 0.082988 0.415492
v -0.164703 0.081109 0.415492
v -0.168568 0.084207 0.415492
v -0.168915 0.082238 0.415492
v -0.173260 0.084618 0.415492
v -0.173260 0.082618 0.415492
v -0.177952 0.084207 0.415492
v -0.177604 0.082238 0.415492
v -0.181817 0.081109 0.415492
v -0.182501 0.082988 0.415492
v -0.185769 0.079266 0.415492
v -0.186769 0.080998 0.415492
v -0.189342 0.076765 0.415492
v -0.190627 0.078297 0.415492
v -0.192426 0.073681 0.415492
v -0.193958 0.074966 0.415492
v -0.194927 0.070108 0.415492
v -0.196659 0.071108 0.415492
v -0.196770 0.066156 0.415492
v -0.198649 0.066840 0.415492
v -0.197899 0.061943 0.415492
v -0.198279 0.057599 0.415492
v -0.148621 0.053254 0.415492
v -0.149861 0.044089 0.415492
v -0.149750 0.049042 0.415492
v -0.151593 0.045089 0.415492
v -0.152562 0.040231 0.415492
v -0.154094 0.041517 0.415492
v -0.155892 0.036901 0.415492
v -0.157178 0.038433 0.415492
v -0.159750 0.034200 0.415492
v -0.160750 0.035932 0.415492
v -0.164019 0.032209 0.415492
v -0.164703 0.034089 0.415492
v -0.168568 0.030990 0.415492
v -0.168915 0.032960 0.415492
v -0.173260 0.030580 0.415492
v -0.173260 0.032580 0.415492
v -0.177604 0.032960 0.415492
v -0.177952 0.030990 0.415492
v -0.181817 0.034089 0.415492
v -0.182501 0.032209 0.415492
v -0.185769 0.035932 0.415492
v -0.186769 0.034200 0.415492
v -0.189342 0.038433 0.415492
v -0.190627 0.036901 0.415492
v -0.192426 0.041517 0.415492
v -0.193958 0.040231 0.415492
v -0.194927 0.045089 0.415492
v -0.196659 0.044089 0.415492
v -0.196770 0.049042 0.415492
v -0.198649 0.048358 0.415492
v -0.197899 0.053254 0.415492
v -0.199868 0.062291 0.415492
v -0.199868 0.052907 0.415492
v -0.200279 0.057599 0.415492
v -0.153564 0.061072 0.623180
v -0.153564 0.054126 0.623180
v -0.153260 0.057599 0.623180
v -0.154466 0.064439 0.623180
v -0.154466 0.050758 0.623180
v -0.155939 0.067599 0.623180
v -0.155939 0.047599 0.623180
v -0.157939 0.070454 0.623180
v -0.157939 0.044743 0.623180
v -0.160404 0.072920 0.623180
v -0.160404 0.042278 0.623180
v -0.163260 0.074919 0.623180
v -0.163260 0.040278 0.623180
v -0.166419 0.076393 0.623180
v -0.166419 0.038805 0.623180
v -0.169787 0.077295 0.623180
v -0.169787 0.037903 0.623180
v -0.173260 0.077599 0.623180
v -0.173260 0.037599 0.623180
v -0.176733 0.077295 0.623180
v -0.176733 0.037903 0.623180
v -0.180100 0.076393 0.623180
v -0.180100 0.038805 0.623180
v -0.183260 0.074919 0.623180
v -0.183260 0.040278 0.623180
v -0.186116 0.072920 0.623180
v -0.186116 0.042278 0.623180
v -0.188581 0.070454 0.623180
v -0.188581 0.044743 0.623180
v -0.190580 0.067599 0.623180
v -0.190580 0.047599 0.623180
v -0.192054 0.064439 0.623180
v -0.192054 0.050758 0.623180
v -0.192956 0.061072 0.623180
v -0.192956 0.054126 0.623180
v -0.193260 0.057599 0.623180
v -0.153564 0.061072 0.626180
v -0.153564 0.054126 0.626180
v -0.153260 0.057599 0.626180
v -0.154466 0.064439 0.626180
v -0.154466 0.050758 0.626180
v -0.155939 0.067599 0.626180
v -0.155939 0.047599 0.626180
v -0.157939 0.070454 0.626180
v -0.157939 0.044743 0.626180
v -0.160404 0.072920 0.626180
v -0.160404 0.042278 0.626180
v -0.163260 0.074919 0.626180
v -0.163260 0.040278 0.626180
v -0.166419 0.076393 0.626180
v -0.166419 0.038805 0.626180
v -0.169787 0.077295 0.626180
v -0.169787 0.037903 0.626180
v -0.173260 0.077599 0.626180
v -0.173260 0.037599 0.626180
v -0.176733 0.077295 0.626180
v -0.176733 0.037903 0.626180
v -0.180100 0.076393 0.626180
v -0.180100 0.038805 0.626180
v -0.183260 0.074919 0.626180
v -0.183260 0.040278 0.626180
v -0.186116 0.072920 0.626180
v -0.186116 0.042278 0.626180
v -0.188581 0.070454 0.626180
v -0.188581 0.044743 0.626180
v -0.190580 0.067599 0.626180
v -0.190580 0.047599 0.626180
v -0.192054 0.064439 0.626180
v -0.192054 0.050758 0.626180
v -0.192956 0.061072 0.626180
v -0.192956 0.054126 0.626180
v -0.193260 0.057599 0.626180
v -0.169333 0.072058 0.503185
v -0.175349 0.072058 0.503185
v -0.172341 0.072058 0.502921
v -0.166417 0.072058 0.503966
v -0.178265 0.072058 0.503966
v -0.163681 0.072058 0.505242
v -0.181001 0.072058 0.505242
v -0.161207 0.072058 0.506974
v -0.183474 0.072058 0.506974
v -0.159073 0.072058 0.509109
v -0.185609 0.072058 0.509109
v -0.157341 0.072058 0.511582
v -0.187341 0.072058 0.511582
v -0.156065 0.072058 0.514318
v -0.188617 0.072058 0.514318
v -0.155283 0.072058 0.517234
v -0.189398 0.072058 0.517234
v -0.155020 0.072058 0.520242
v -0.189661 0.072058 0.520242
v -0.155283 0.072058 0.523250
v -0.189398 0.072058 0.523250
v -0.156065 0.072058 0.526166
v -0.188617 0.072058 0.526166
v -0.157341 0.072058 0.528902
v -0.187341 0.072058 0.528902
v -0.159073 0.072058 0.531375
v -0.185609 0.072058 0.531375
v -0.161207 0.072058 0.533510
v -0.183474 0.072058 0.533510
v -0.163681 0.072058 0.535242
v -0.181001 0.072058 0.535242
v -0.166417 0.072058 0.536518
v -0.178265 0.072058 0.536518
v -0.169333 0.072058 0.537299
v -0.175349 0.072058 0.537299
v -0.172341 0.072058 0.537563
v -0.158241 0.031585 0.620180
v -0.158241 0.031585 0.620180
v -0.162986 0.029372 0.620180
v -0.158241 0.031585 0.617180
v -0.158241 0.031585 0.617180
v -0.158241 0.031585 0.617180
v -0.158241 0.031585 0.617180
v -0.158241 0.031585 0.617180
v -0.162986 0.029372 0.617180
v -0.162986 0.029372 0.617180
v -0.162986 0.029372 0.617180
v -0.153952 0.034588 0.620180
v -0.150249 0.038291 0.617180
v -0.150249 0.038291 0.620180
v -0.150249 0.038291 0.617180
v -0.153952 0.034588 0.620180
v -0.153952 0.034588 0.617180
v -0.193260 0.057599 0.620180
v -0.192956 0.061072 0.617180
v -0.192956 0.061072 0.620180
v -0.192956 0.061072 0.617180
v -0.193260 0.057599 0.620180
v -0.193260 0.057599 0.617180
v -0.160404 0.042278 0.617180
v -0.157939 0.044743 0.620180
v -0.157939 0.044743 0.617180
v -0.157939 0.044743 0.620180
v -0.160404 0.042278 0.617180
v -0.160404 0.042278 0.620180
v -0.157939 0.044743 0.617180
v -0.155939 0.047599 0.620180
v -0.155939 0.047599 0.617180
v -0.155939 0.047599 0.620180
v -0.157939 0.044743 0.617180
v -0.157939 0.044743 0.620180
v -0.155939 0.047599 0.617180
v -0.154466 0.050758 0.620180
v -0.154466 0.050758 0.617180
v -0.154466 0.050758 0.620180
v -0.155939 0.047599 0.617180
v -0.155939 0.047599 0.620180
v -0.154466 0.050758 0.617180
v -0.153564 0.054126 0.620180
v -0.153564 0.054126 0.617180
v -0.153564 0.054126 0.620180
v -0.154466 0.050758 0.617180
v -0.154466 0.050758 0.620180
v -0.153564 0.054126 0.617180
v -0.153260 0.057599 0.620180
v -0.153260 0.057599 0.617180
v -0.153260 0.057599 0.620180
v -0.153564 0.054126 0.617180
v -0.153564 0.054126 0.620180
v -0.153260 0.057599 0.617180
v -0.153564 0.061072 0.620180
v -0.153564 0.061072 0.617180
v -0.153564 0.061072 0.620180
v -0.153260 0.057599 0.617180
v -0.153260 0.057599 0.620180
v -0.153564 0.061072 0.617180
v -0.154466 0.064439 0.620180
v -0.154466 0.064439 0.617180
v -0.154466 0.064439 0.620180
v -0.153564 0.061072 0.617180
v -0.153564 0.061072 0.620180
v -0.178476 0.028017 0.620180
v -0.183534 0.029372 0.617180
v -0.178476 0.028017 0.617180
v -0.183534 0.029372 0.617180
v -0.178476 0.028017 0.620180
v -0.183534 0.029372 0.620180
v -0.183534 0.029372 0.620180
v -0.188279 0.031585 0.617180
v -0.183534 0.029372 0.617180
v -0.188279 0.031585 0.617180
v -0.183534 0.029372 0.620180
v -0.188279 0.031585 0.620180
v -0.188279 0.031585 0.620180
v -0.192568 0.034588 0.617180
v -0.188279 0.031585 0.617180
v -0.192568 0.034588 0.617180
v -0.188279 0.031585 0.620180
v -0.192568 0.034588 0.620180
v -0.192568 0.034588 0.617180
v -0.196270 0.038291 0.620180
v -0.196270 0.038291 0.617180
v -0.196270 0.038291 0.620180
v -0.192568 0.034588 0.617180
v -0.192568 0.034588 0.620180
v -0.196270 0.038291 0.617180
v -0.199274 0.042580 0.620180
v -0.199274 0.042580 0.617180
v -0.199274 0.042580 0.620180
v -0.196270 0.038291 0.617180
v -0.196270 0.038291 0.620180
v -0.192956 0.054126 0.620180
v -0.193260 0.057599 0.617180
v -0.193260 0.057599 0.620180
v -0.193260 0.057599 0.617180
v -0.192956 0.054126 0.620180
v -0.192956 0.054126 0.617180
v -0.192054 0.050758 0.620180
v -0.192956 0.054126 0.617180
v -0.192956 0.054126 0.620180
v -0.192956 0.054126 0.617180
v -0.192054 0.050758 0.620180
v -0.192054 0.050758 0.617180
v -0.190580 0.047599 0.620180
v -0.192054 0.050758 0.617180
v -0.192054 0.050758 0.620180
v -0.192054 0.050758 0.617180
v -0.190580 0.047599 0.620180
v -0.190580 0.047599 0.617180
v -0.188581 0.044743 0.620180
v -0.190580 0.047599 0.617180
v -0.190580 0.047599 0.620180
v -0.190580 0.047599 0.617180
v -0.188581 0.044743 0.620180
v -0.188581 0.044743 0.617180
v -0.186116 0.042278 0.620180
v -0.188581 0.044743 0.617180
v -0.188581 0.044743 0.620180
v -0.188581 0.044743 0.617180
v -0.186116 0.042278 0.620180
v -0.186116 0.042278 0.617180
v -0.186116 0.042278 0.620180
v -0.183260 0.040278 0.617180
v -0.186116 0.042278 0.617180
v -0.183260 0.040278 0.617180
v -0.186116 0.042278 0.620180
v -0.183260 0.040278 0.620180
v -0.183260 0.040278 0.620180
v -0.180100 0.038805 0.617180
v -0.183260 0.040278 0.617180
v -0.180100 0.038805 0.617180
v -0.183260 0.040278 0.620180
v -0.180100 0.038805 0.620180
v -0.180100 0.038805 0.620180
v -0.176733 0.037903 0.617180
v -0.180100 0.038805 0.617180
v -0.176733 0.037903 0.617180
v -0.180100 0.038805 0.620180
v -0.176733 0.037903 0.620180
v -0.176733 0.037903 0.620180
v -0.173260 0.037599 0.617180
v -0.176733 0.037903 0.617180
v -0.173260 0.037599 0.617180
v -0.176733 0.037903 0.620180
v -0.173260 0.037599 0.620180
v -0.173260 0.037599 0.620180
v -0.169787 0.037903 0.617180
v -0.173260 0.037599 0.617180
v -0.169787 0.037903 0.617180
v -0.173260 0.037599 0.620180
v -0.169787 0.037903 0.620180
v -0.169787 0.037903 0.620180
v -0.166419 0.038805 0.617180
v -0.169787 0.037903 0.617180
v -0.166419 0.038805 0.617180
v -0.169787 0.037903 0.620180
v -0.166419 0.038805 0.620180
v -0.166419 0.038805 0.620180
v -0.163260 0.040278 0.617180
v -0.166419 0.038805 0.617180
v -0.163260 0.040278 0.617180
v -0.166419 0.038805 0.620180
v -0.163260 0.040278 0.620180
v -0.163260 0.040278 0.620180
v -0.160404 0.042278 0.617180
v -0.163260 0.040278 0.617180
v -0.160404 0.042278 0.617180
v -0.163260 0.040278 0.620180
v -0.160404 0.042278 0.620180
v -0.162986 0.029372 0.620180
v -0.168044 0.028017 0.617180
v -0.162986 0.029372 0.617180
v -0.168044 0.028017 0.617180
v -0.162986 0.029372 0.620180
v -0.168044 0.028017 0.620180
v -0.168044 0.028017 0.620180
v -0.173260 0.027561 0.617180
v -0.168044 0.028017 0.617180
v -0.173260 0.027561 0.617180
v -0.168044 0.028017 0.620180
v -0.173260 0.027561 0.620180
v -0.173260 0.027561 0.620180
v -0.178476 0.028017 0.617180
v -0.173260 0.027561 0.617180
v -0.178476 0.028017 0.617180
v -0.173260 0.027561 0.620180
v -0.178476 0.028017 0.620180
v -0.154466 0.064439 0.617180
v -0.155939 0.067599 0.620180
v -0.155939 0.067599 0.617180
v -0.155939 0.067599 0.620180
v -0.154466 0.064439 0.617180
v -0.154466 0.064439 0.620180
v -0.155939 0.067599 0.617180
v -0.157939 0.070454 0.620180
v -0.157939 0.070454 0.617180
v -0.157939 0.070454 0.620180
v -0.155939 0.067599 0.617180
v -0.155939 0.067599 0.620180
v -0.157939 0.070454 0.617180
v -0.160404 0.072920 0.620180
v -0.160404 0.072920 0.617180
v -0.160404 0.072920 0.620180
v -0.157939 0.070454 0.617180
v -0.157939 0.070454 0.620180
v -0.160404 0.072920 0.620180
v -0.163260 0.074919 0.617180
v -0.160404 0.072920 0.617180
v -0.163260 0.074919 0.617180
v -0.160404 0.072920 0.620180
v -0.163260 0.074919 0.620180
v -0.163260 0.074919 0.620180
v -0.166419 0.076393 0.617180
v -0.163260 0.074919 0.617180
v -0.166419 0.076393 0.617180
v -0.163260 0.074919 0.620180
v -0.166419 0.076393 0.620180
v -0.166419 0.076393 0.620180
v -0.169787 0.077295 0.617180
v -0.166419 0.076393 0.617180
v -0.169787 0.077295 0.617180
v -0.166419 0.076393 0.620180
v -0.169787 0.077295 0.620180
v -0.169787 0.077295 0.620180
v -0.173260 0.077599 0.617180
v -0.169787 0.077295 0.617180
v -0.173260 0.077599 0.617180
v -0.169787 0.077295 0.620180
v -0.173260 0.077599 0.620180
v -0.173260 0.077599 0.620180
v -0.176733 0.077295 0.617180
v -0.173260 0.077599 0.617180
v -0.176733 0.077295 0.617180
v -0.173260 0.077599 0.620180
v -0.176733 0.077295 0.620180
v -0.176733 0.077295 0.620180
v -0.180100 0.076393 0.617180
v -0.176733 0.077295 0.617180
v -0.180100 0.076393 0.617180
v -0.176733 0.077295 0.620180
v -0.180100 0.076393 0.620180
v -0.180100 0.076393 0.620180
v -0.183260 0.074919 0.617180
v -0.180100 0.076393 0.617180
v -0.183260 0.074919 0.617180
v -0.180100 0.076393 0.620180
v -0.183260 0.074919 0.620180
v -0.183260 0.074919 0.620180
v -0.186116 0.072920 0.617180
v -0.183260 0.074919 0.617180
v -0.186116 0.072920 0.617180
v -0.183260 0.074919 0.620180
v -0.186116 0.072920 0.620180
v -0.188581 0.070454 0.620180
v -0.186116 0.072920 0.617180
v -0.186116 0.072920 0.620180
v -0.186116 0.072920 0.617180
v -0.188581 0.070454 0.620180
v -0.188581 0.070454 0.617180
v -0.190580 0.067599 0.620180
v -0.188581 0.070454 0.617180
v -0.188581 0.070454 0.620180
v -0.188581 0.070454 0.617180
v -0.190580 0.067599 0.620180
v -0.190580 0.067599 0.617180
v -0.192054 0.064439 0.620180
v -0.190580 0.067599 0.617180
v -0.190580 0.067599 0.620180
v -0.190580 0.067599 0.617180
v -0.192054 0.064439 0.620180
v -0.192054 0.064439 0.617180
v -0.153952 0.034588 0.620180
v -0.158241 0.031585 0.617180
v -0.153952 0.034588 0.617180
v -0.158241 0.031585 0.617180
v -0.153952 0.034588 0.620180
v -0.158241 0.031585 0.620180
v -0.199274 0.042580 0.617180
v -0.201487 0.047325 0.620180
v -0.201487 0.047325 0.617180
v -0.201487 0.047325 0.620180
v -0.199274 0.042580 0.617180
v -0.199274 0.042580 0.620180
v -0.201487 0.047325 0.617180
v -0.202842 0.052383 0.620180
v -0.202842 0.052383 0.617180
v -0.202842 0.052383 0.620180
v -0.201487 0.047325 0.617180
v -0.201487 0.047325 0.620180
v -0.202842 0.052383 0.617180
v -0.203298 0.057599 0.620180
v -0.203298 0.057599 0.617180
v -0.203298 0.057599 0.620180
v -0.202842 0.052383 0.617180
v -0.202842 0.052383 0.620180
v -0.203298 0.057599 0.617180
v -0.202842 0.062815 0.620180
v -0.202842 0.062815 0.617180
v -0.202842 0.062815 0.620180
v -0.203298 0.057599 0.617180
v -0.203298 0.057599 0.620180
v -0.202842 0.062815 0.617180
v -0.201487 0.067872 0.620180
v -0.201487 0.067872 0.617180
v -0.201487 0.067872 0.620180
v -0.202842 0.062815 0.617180
v -0.202842 0.062815 0.620180
v -0.201487 0.067872 0.617180
v -0.199274 0.072618 0.620180
v -0.199274 0.072618 0.617180
v -0.199274 0.072618 0.620180
v -0.201487 0.067872 0.617180
v -0.201487 0.067872 0.620180
v -0.199274 0.072618 0.617180
v -0.196270 0.076907 0.620180
v -0.196270 0.076907 0.617180
v -0.196270 0.076907 0.620180
v -0.199274 0.072618 0.617180
v -0.199274 0.072618 0.620180
v -0.196270 0.076907 0.617180
v -0.192568 0.080609 0.620180
v -0.192568 0.080609 0.617180
v -0.192568 0.080609 0.620180
v -0.196270 0.076907 0.617180
v -0.196270 0.076907 0.620180
v -0.192568 0.080609 0.620180
v -0.188279 0.083613 0.617180
v -0.192568 0.080609 0.617180
v -0.188279 0.083613 0.617180
v -0.192568 0.080609 0.620180
v -0.188279 0.083613 0.620180
v -0.188279 0.083613 0.620180
v -0.183533 0.085825 0.617180
v -0.188279 0.083613 0.617180
v -0.183533 0.085825 0.617180
v -0.188279 0.083613 0.620180
v -0.183533 0.085825 0.620180
v -0.183533 0.085825 0.620180
v -0.178476 0.087181 0.617180
v -0.183533 0.085825 0.617180
v -0.178476 0.087181 0.617180
v -0.183533 0.085825 0.620180
v -0.178476 0.087181 0.620180
v -0.178476 0.087181 0.620180
v -0.173260 0.087637 0.617180
v -0.178476 0.087181 0.617180
v -0.173260 0.087637 0.617180
v -0.178476 0.087181 0.620180
v -0.173260 0.087637 0.620180
v -0.173260 0.087637 0.620180
v -0.168044 0.087181 0.617180
v -0.173260 0.087637 0.617180
v -0.168044 0.087181 0.617180
v -0.173260 0.087637 0.620180
v -0.168044 0.087181 0.620180
v -0.168044 0.087181 0.620180
v -0.162986 0.085825 0.617180
v -0.168044 0.087181 0.617180
v -0.162986 0.085825 0.617180
v -0.168044 0.087181 0.620180
v -0.162986 0.085825 0.620180
v -0.162986 0.085825 0.620180
v -0.158241 0.083613 0.617180
v -0.162986 0.085825 0.617180
v -0.158241 0.083613 0.617180
v -0.162986 0.085825 0.620180
v -0.158241 0.083613 0.620180
v -0.158241 0.083613 0.620180
v -0.153952 0.080609 0.617180
v -0.158241 0.083613 0.617180
v -0.153952 0.080609 0.617180
v -0.158241 0.083613 0.620180
v -0.153952 0.080609 0.620180
v -0.150249 0.076907 0.620180
v -0.153952 0.080609 0.617180
v -0.153952 0.080609 0.620180
v -0.153952 0.080609 0.617180
v -0.150249 0.076907 0.620180
v -0.150249 0.076907 0.617180
v -0.147246 0.072618 0.620180
v -0.150249 0.076907 0.617180
v -0.150249 0.076907 0.620180
v -0.150249 0.076907 0.617180
v -0.147246 0.072618 0.620180
v -0.147246 0.072618 0.617180
v -0.145033 0.067872 0.620180
v -0.147246 0.072618 0.617180
v -0.147246 0.072618 0.620180
v -0.147246 0.072618 0.617180
v -0.145033 0.067872 0.620180
v -0.145033 0.067872 0.617180
v -0.143678 0.062815 0.620180
v -0.145033 0.067872 0.617180
v -0.145033 0.067872 0.620180
v -0.145033 0.067872 0.617180
v -0.143678 0.062815 0.620180
v -0.143678 0.062815 0.617180
v -0.143222 0.057599 0.620180
v -0.143678 0.062815 0.617180
v -0.143678 0.062815 0.620180
v -0.143678 0.062815 0.617180
v -0.143222 0.057599 0.620180
v -0.143222 0.057599 0.617180
v -0.143678 0.052383 0.620180
v -0.143222 0.057599 0.617180
v -0.143222 0.057599 0.620180
v -0.143222 0.057599 0.617180
v -0.143678 0.052383 0.620180
v -0.143678 0.052383 0.617180
v -0.145033 0.047325 0.620180
v -0.143678 0.052383 0.617180
v -0.143678 0.052383 0.620180
v -0.143678 0.052383 0.617180
v -0.145033 0.047325 0.620180
v -0.145033 0.047325 0.617180
v -0.147246 0.042580 0.620180
v -0.145033 0.047325 0.617180
v -0.145033 0.047325 0.620180
v -0.145033 0.047325 0.617180
v -0.147246 0.042580 0.620180
v -0.147246 0.042580 0.617180
v -0.150249 0.038291 0.620180
v -0.147246 0.042580 0.617180
v -0.147246 0.042580 0.620180
v -0.147246 0.042580 0.617180
v -0.150249 0.038291 0.620180
v -0.150249 0.038291 0.617180
v -0.192956 0.061072 0.620180
v -0.192054 0.064439 0.617180
v -0.192054 0.064439 0.620180
v -0.192054 0.064439 0.617180
v -0.192956 0.061072 0.620180
v -0.192956 0.061072 0.617180
v -0.197899 0.061943 0.407180
v -0.197899 0.061943 0.407180
v -0.199868 0.062291 0.407492
v -0.196770 0.066156 0.407180
v -0.196770 0.066156 0.407180
v -0.198649 0.066840 0.407492
v -0.194927 0.070108 0.407180
v -0.194927 0.070108 0.407180
v -0.196659 0.071108 0.407492
v -0.192426 0.073681 0.407180
v -0.192426 0.073681 0.407180
v -0.193958 0.074966 0.407492
v -0.189342 0.076765 0.407180
v -0.189342 0.076765 0.407180
v -0.190627 0.078297 0.407492
v -0.185769 0.079266 0.407180
v -0.185769 0.079266 0.407180
v -0.186769 0.080998 0.407492
v -0.181817 0.081109 0.407180
v -0.181817 0.081109 0.407180
v -0.182501 0.082988 0.407492
v -0.177604 0.082238 0.407180
v -0.177604 0.082238 0.407180
v -0.177952 0.084207 0.407492
v -0.168915 0.082238 0.407180
v -0.173260 0.084618 0.407492
v -0.168568 0.084207 0.407492
v -0.173260 0.084618 0.407492
v -0.168915 0.082238 0.407180
v -0.173260 0.082618 0.407180
v -0.164019 0.082988 0.407492
v -0.164019 0.082988 0.407492
v -0.164703 0.081109 0.407180
v -0.159750 0.080998 0.407492
v -0.159750 0.080998 0.407492
v -0.160750 0.079266 0.407180
v -0.155892 0.078297 0.407492
v -0.155892 0.078297 0.407492
v -0.157178 0.076765 0.407180
v -0.152562 0.074966 0.407492
v -0.152562 0.074966 0.407492
v -0.154094 0.073681 0.407180
v -0.149861 0.071108 0.407492
v -0.149861 0.071108 0.407492
v -0.151593 0.070108 0.407180
v -0.147870 0.066840 0.407492
v -0.147870 0.066840 0.407492
v -0.149750 0.066156 0.407180
v -0.148241 0.057599 0.407180
v -0.146651 0.062291 0.407492
v -0.146241 0.057599 0.407492
v -0.146651 0.062291 0.407492
v -0.148241 0.057599 0.407180
v -0.148621 0.061943 0.407180
v -0.148621 0.053254 0.407180
v -0.146651 0.052907 0.407492
v -0.148621 0.053254 0.407180
v -0.149750 0.049042 0.407180
v -0.147870 0.048358 0.407492
v -0.149750 0.049042 0.407180
v -0.151593 0.045089 0.407180
v -0.149861 0.044089 0.407492
v -0.151593 0.045089 0.407180
v -0.154094 0.041517 0.407180
v -0.152562 0.040231 0.407492
v -0.154094 0.041517 0.407180
v -0.159750 0.034200 0.407492
v -0.157178 0.038433 0.407180
v -0.155892 0.036901 0.407492
v -0.157178 0.038433 0.407180
v -0.159750 0.034200 0.407492
v -0.160750 0.035932 0.407180
v -0.164703 0.034089 0.407180
v -0.164019 0.032209 0.407492
v -0.164703 0.034089 0.407180
v -0.168915 0.032960 0.407180
v -0.168568 0.030990 0.407492
v -0.168915 0.032960 0.407180
v -0.177952 0.030990 0.407492
v -0.173260 0.032580 0.407180
v -0.173260 0.030580 0.407492
v -0.173260 0.032580 0.407180
v -0.177952 0.030990 0.407492
v -0.177604 0.032960 0.407180
v -0.182501 0.032209 0.407492
v -0.181817 0.034089 0.407180
v -0.182501 0.032209 0.407492
v -0.186769 0.034200 0.407492
v -0.185769 0.035932 0.407180
v -0.186769 0.034200 0.407492
v -0.190627 0.036901 0.407492
v -0.189342 0.038433 0.407180
v -0.190627 0.036901 0.407492
v -0.193958 0.040231 0.407492
v -0.192426 0.041517 0.407180
v -0.193958 0.040231 0.407492
v -0.196659 0.044089 0.407492
v -0.194927 0.045089 0.407180
v -0.196659 0.044089 0.407492
v -0.198649 0.048358 0.407492
v -0.196770 0.049042 0.407180
v -0.198649 0.048358 0.407492
v -0.199868 0.052907 0.407492
v -0.198279 0.057599 0.407180
v -0.197899 0.053254 0.407180
v -0.198279 0.057599 0.407180
v -0.199868 0.052907 0.407492
v -0.200279 0.057599 0.407492
v -0.166419 0.038805 0.626180
v -0.169787 0.037903 0.623180
v -0.166419 0.038805 0.623180
v -0.169787 0.037903 0.623180
v -0.166419 0.038805 0.626180
v -0.169787 0.037903 0.626180
v -0.163260 0.040278 0.626180
v -0.166419 0.038805 0.623180
v -0.163260 0.040278 0.623180
v -0.166419 0.038805 0.623180
v -0.163260 0.040278 0.626180
v -0.166419 0.038805 0.626180
v -0.160404 0.042278 0.626180
v -0.163260 0.040278 0.623180
v -0.160404 0.042278 0.623180
v -0.163260 0.040278 0.623180
v -0.160404 0.042278 0.626180
v -0.163260 0.040278 0.626180
v -0.160404 0.042278 0.626180
v -0.157939 0.044743 0.623180
v -0.157939 0.044743 0.626180
v -0.157939 0.044743 0.623180
v -0.160404 0.042278 0.626180
v -0.160404 0.042278 0.623180
v -0.157939 0.044743 0.626180
v -0.155939 0.047599 0.623180
v -0.155939 0.047599 0.626180
v -0.155939 0.047599 0.623180
v -0.157939 0.044743 0.626180
v -0.157939 0.044743 0.623180
v -0.155939 0.047599 0.626180
v -0.154466 0.050758 0.623180
v -0.154466 0.050758 0.626180
v -0.154466 0.050758 0.623180
v -0.155939 0.047599 0.626180
v -0.155939 0.047599 0.623180
v -0.154466 0.050758 0.626180
v -0.153564 0.054126 0.623180
v -0.153564 0.054126 0.626180
v -0.153564 0.054126 0.623180
v -0.154466 0.050758 0.626180
v -0.154466 0.050758 0.623180
v -0.153564 0.054126 0.626180
v -0.153260 0.057599 0.623180
v -0.153260 0.057599 0.626180
v -0.153260 0.057599 0.623180
v -0.153564 0.054126 0.626180
v -0.153564 0.054126 0.623180
v -0.153260 0.057599 0.626180
v -0.153564 0.061072 0.623180
v -0.153564 0.061072 0.626180
v -0.153564 0.061072 0.623180
v -0.153260 0.057599 0.626180
v -0.153260 0.057599 0.623180
v -0.153564 0.061072 0.626180
v -0.154466 0.064439 0.623180
v -0.154466 0.064439 0.626180
v -0.154466 0.064439 0.623180
v -0.153564 0.061072 0.626180
v -0.153564 0.061072 0.623180
v -0.154466 0.064439 0.626180
v -0.155939 0.067599 0.623180
v -0.155939 0.067599 0.626180
v -0.155939 0.067599 0.623180
v -0.154466 0.064439 0.626180
v -0.154466 0.064439 0.623180
v -0.155939 0.067599 0.626180
v -0.157939 0.070454 0.623180
v -0.157939 0.070454 0.626180
v -0.157939 0.070454 0.623180
v -0.155939 0.067599 0.626180
v -0.155939 0.067599 0.623180
v -0.157939 0.070454 0.626180
v -0.160404 0.072920 0.623180
v -0.160404 0.072920 0.626180
v -0.160404 0.072920 0.623180
v -0.157939 0.070454 0.626180
v -0.157939 0.070454 0.623180
v -0.163260 0.074919 0.626180
v -0.160404 0.072920 0.623180
v -0.163260 0.074919 0.623180
v -0.160404 0.072920 0.623180
v -0.163260 0.074919 0.626180
v -0.160404 0.072920 0.626180
v -0.166419 0.076393 0.626180
v -0.163260 0.074919 0.623180
v -0.166419 0.076393 0.623180
v -0.163260 0.074919 0.623180
v -0.166419 0.076393 0.626180
v -0.163260 0.074919 0.626180
v -0.169787 0.077295 0.626180
v -0.166419 0.076393 0.623180
v -0.169787 0.077295 0.623180
v -0.166419 0.076393 0.623180
v -0.169787 0.077295 0.626180
v -0.166419 0.076393 0.626180
v -0.173260 0.077599 0.626180
v -0.169787 0.077295 0.623180
v -0.173260 0.077599 0.623180
v -0.169787 0.077295 0.623180
v -0.173260 0.077599 0.626180
v -0.169787 0.077295 0.626180
v -0.176733 0.077295 0.626180
v -0.173260 0.077599 0.623180
v -0.176733 0.077295 0.623180
v -0.173260 0.077599 0.623180
v -0.176733 0.077295 0.626180
v -0.173260 0.077599 0.626180
v -0.180100 0.076393 0.626180
v -0.176733 0.077295 0.623180
v -0.180100 0.076393 0.623180
v -0.176733 0.077295 0.623180
v -0.180100 0.076393 0.626180
v -0.176733 0.077295 0.626180
v -0.183260 0.074919 0.626180
v -0.180100 0.076393 0.623180
v -0.183260 0.074919 0.623180
v -0.180100 0.076393 0.623180
v -0.183260 0.074919 0.626180
v -0.180100 0.076393 0.626180
v -0.186116 0.072920 0.626180
v -0.183260 0.074919 0.623180
v -0.186116 0.072920 0.623180
v -0.183260 0.074919 0.623180
v -0.186116 0.072920 0.626180
v -0.183260 0.074919 0.626180
v -0.188581 0.070454 0.623180
v -0.186116 0.072920 0.626180
v -0.186116 0.072920 0.623180
v -0.186116 0.072920 0.626180
v -0.188581 0.070454 0.623180
v -0.188581 0.070454 0.626180
v -0.190580 0.067599 0.623180
v -0.188581 0.070454 0.626180
v -0.188581 0.070454 0.623180
v -0.188581 0.070454 0.626180
v -0.190580 0.067599 0.623180
v -0.190580 0.067599 0.626180
v -0.192054 0.064439 0.623180
v -0.190580 0.067599 0.626180
v -0.190580 0.067599 0.623180
v -0.190580 0.067599 0.626180
v -0.192054 0.064439 0.623180
v -0.192054 0.064439 0.626180
v -0.192956 0.061072 0.623180
v -0.192054 0.064439 0.626180
v -0.192054 0.064439 0.623180
v -0.192054 0.064439 0.626180
v -0.192956 0.061072 0.623180
v -0.192956 0.061072 0.626180
v -0.193260 0.057599 0.623180
v -0.192956 0.061072 0.626180
v -0.192956 0.061072 0.623180
v -0.192956 0.061072 0.626180
v -0.193260 0.057599 0.623180
v -0.193260 0.057599 0.626180
v -0.192956 0.054126 0.623180
v -0.193260 0.057599 0.626180
v -0.193260 0.057599 0.623180
v -0.193260 0.057599 0.626180
v -0.192956 0.054126 0.623180
v -0.192956 0.054126 0.626180
v -0.192054 0.050758 0.623180
v -0.192956 0.054126 0.626180
v -0.192956 0.054126 0.623180
v -0.192956 0.054126 0.626180
v -0.192054 0.050758 0.623180
v -0.192054 0.050758 0.626180
v -0.190580 0.047599 0.623180
v -0.192054 0.050758 0.626180
v -0.192054 0.050758 0.623180
v -0.192054 0.050758 0.626180
v -0.190580 0.047599 0.623180
v -0.190580 0.047599 0.626180
v -0.188581 0.044743 0.623180
v -0.190580 0.047599 0.626180
v -0.190580 0.047599 0.623180
v -0.190580 0.047599 0.626180
v -0.188581 0.044743 0.623180
v -0.188581 0.044743 0.626180
v -0.186116 0.042278 0.623180
v -0.188581 0.044743 0.626180
v -0.188581 0.044743 0.623180
v -0.188581 0.044743 0.626180
v -0.186116 0.042278 0.623180
v -0.186116 0.042278 0.626180
v -0.183260 0.040278 0.626180
v -0.186116 0.042278 0.623180
v -0.183260 0.040278 0.623180
v -0.186116 0.042278 0.623180
v -0.183260 0.040278 0.626180
v -0.186116 0.042278 0.626180
v -0.180100 0.038805 0.626180
v -0.183260 0.040278 0.623180
v -0.180100 0.038805 0.623180
v -0.183260 0.040278 0.623180
v -0.180100 0.038805 0.626180
v -0.183260 0.040278 0.626180
v -0.176733 0.037903 0.626180
v -0.180100 0.038805 0.623180
v -0.176733 0.037903 0.623180
v -0.180100 0.038805 0.623180
v -0.176733 0.037903 0.626180
v -0.180100 0.038805 0.626180
v -0.173260 0.037599 0.626180
v -0.176733 0.037903 0.623180
v -0.173260 0.037599 0.623180
v -0.176733 0.037903 0.623180
v -0.173260 0.037599 0.626180
v -0.176733 0.037903 0.626180
v -0.169787 0.037903 0.626180
v -0.173260 0.037599 0.623180
v -0.169787 0.037903 0.623180
v -0.173260 0.037599 0.623180
v -0.169787 0.037903 0.626180
v -0.173260 0.037599 0.626180
f 1 2 3
f 2 1 4
f 2 4 5
f 5 4 6
f 5 6 7
f 7 6 8
f 8 6 9
f 9 6 10
f 9 10 11
f 11 10 12
f 12 10 13
f 12 13 14
f 14 13 15
f 14 15 16
f 16 15 17
f 17 15 18
f 17 18 19
f 19 18 20
f 19 20 21
f 21 20 22
f 21 22 23
f 23 22 24
f 23 24 25
f 25 24 26
f 26 24 27
f 26 27 28
f 28 27 29
f 28 29 30
f 30 29 31
f 30 31 32
f 32 31 33
f 33 31 34
f 33 34 35
f 35 34 36
f 35 36 37
f 37 36 38
f 7 39 40
f 39 7 8
f 40 39 41
f 40 41 42
f 40 42 43
f 43 42 44
f 43 44 45
f 45 44 46
f 45 46 47
f 45 47 48
f 48 47 49
f 48 49 50
f 50 49 51
f 50 51 52
f 52 51 53
f 52 53 54
f 52 54 55
f 55 54 56
f 55 56 57
f 57 56 58
f 57 58 59
f 59 58 60
f 59 60 61
f 61 60 62
f 61 62 63
f 61 63 64
f 64 63 65
f 64 65 66
f 66 65 67
f 66 67 38
f 66 38 36
f 66 36 68
f 66 68 69
f 69 68 70
f 69 70 71
f 71 70 72
f 73 74 75
f 74 73 76
f 74 76 77
f 77 76 78
f 77 78 79
f 79 78 80
f 79 80 81
f 81 80 82
f 81 82 83
f 83 82 84
f 84 82 85
f 85 82 86
f 85 86 87
f 87 86 88
f 88 86 89
f 89 86 90
f 89 90 91
f 91 90 92
f 91 92 93
f 93 92 94
f 94 92 95
f 94 95 96
f 96 95 97
f 96 97 98
f 98 97 99
f 99 97 100
f 99 100 101
f 101 100 102
f 102 100 103
f 102 103 104
f 104 103 105
f 104 105 106
f 106 105 107
f 107 105 108
f 108 105 109
f 108 109 110
f 83 111 81
f 111 83 112
f 111 112 113
f 111 113 114
f 114 113 115
f 114 115 116
f 114 116 117
f 114 117 118
f 118 117 119
f 118 119 120
f 120 119 121
f 120 121 122
f 120 122 123
f 123 122 124
f 123 124 125
f 123 125 126
f 126 125 127
f 126 127 128
f 128 127 129
f 128 129 130
f 128 130 131
f 131 130 132
f 131 132 133
f 133 132 134
f 133 134 135
f 133 135 136
f 133 136 137
f 137 136 110
f 137 110 109
f 137 109 138
f 137 138 139
f 139 138 140
f 139 140 141
f 141 140 142
f 141 142 143
f 143 142 144
f 685 145 146
f 145 686 687
f 147 148 149
f 148 147 150
f 148 150 151
f 151 150 152
f 151 152 153
f 153 152 154
f 153 154 155
f 155 154 156
f 155 156 157
f 157 156 158
f 158 156 159
f 159 156 688
f 159 689 160
f 160 690 161
f 161 691 162
f 162 692 693
f 162 694 163
f 163 695 164
f 163 164 165
f 165 164 166
f 166 164 167
f 166 167 168
f 168 167 169
f 168 169 170
f 170 169 171
f 171 169 172
f 171 172 173
f 173 172 174
f 174 172 175
f 174 175 176
f 176 175 177
f 176 177 178
f 178 177 179
f 179 177 180
f 180 177 181
f 180 181 182
f 157 183 155
f 183 157 184
f 183 184 185
f 183 185 186
f 186 185 187
f 186 187 188
f 186 188 189
f 186 189 190
f 190 189 191
f 190 191 192
f 192 191 193
f 192 193 194
f 192 194 195
f 195 194 196
f 195 196 197
f 195 197 198
f 198 197 199
f 198 199 200
f 200 199 201
f 200 201 202
f 200 202 203
f 203 202 204
f 203 204 205
f 205 204 206
f 205 206 207
f 205 207 208
f 205 208 209
f 209 208 182
f 209 182 181
f 209 181 210
f 209 210 211
f 211 210 212
f 211 212 213
f 213 212 214
f 213 214 215
f 215 214 216
f 696 697 698
f 699 700 701
f 702 703 704
f 705 706 707
f 708 709 710
f 711 712 713
f 714 715 716
f 717 718 719
f 720 721 722
f 723 724 725
f 726 727 728
f 729 730 731
f 732 733 734
f 735 736 737
f 738 739 740
f 741 742 743
f 744 745 746
f 747 748 749
f 750 751 752
f 753 754 755
f 756 757 758
f 759 760 761
f 762 763 764
f 765 766 767
f 768 769 770
f 771 772 773
f 774 775 776
f 777 778 779
f 780 781 782
f 783 784 785
f 786 787 788
f 789 790 791
f 792 793 794
f 795 796 797
f 798 799 800
f 801 802 803
f 804 805 806
f 807 808 809
f 810 811 812
f 813 814 815
f 816 817 818
f 819 820 821
f 822 823 824
f 825 826 827
f 828 829 830
f 831 832 833
f 834 835 836
f 837 838 839
f 840 841 842
f 843 844 845
f 846 847 848
f 849 850 851
f 852 853 854
f 855 856 857
f 858 859 860
f 861 862 863
f 864 865 866
f 867 868 869
f 870 871 872
f 873 874 875
f 876 877 878
f 879 880 881
f 882 883 884
f 885 886 887
f 888 889 890
f 891 892 893
f 894 895 896
f 897 898 899
f 900 901 902
f 903 904 905
f 906 907 908
f 909 910 911
f 912 913 914
f 915 916 917
f 918 919 920
f 921 922 923
f 924 925 926
f 927 928 929
f 930 931 932
f 933 934 935
f 936 937 938
f 939 940 941
f 942 943 944
f 945 946 947
f 948 949 950
f 951 952 953
f 954 955 956
f 957 958 959
f 960 961 962
f 963 964 965
f 966 967 968
f 969 970 971
f 972 973 974
f 975 976 977
f 978 979 980
f 981 982 983
f 984 985 986
f 987 988 989
f 990 991 992
f 993 994 995
f 996 997 998
f 999 1000 1001
f 1002 1003 1004
f 1005 1006 1007
f 1008 1009 1010
f 1011 1012 1013
f 1014 1015 1016
f 1017 1018 1019
f 1020 1021 1022
f 1023 1024 1025
f 1026 1027 1028
f 1029 1030 1031
f 1032 1033 1034
f 1035 1036 1037
f 1038 1039 1040
f 1041 1042 1043
f 1044 1045 1046
f 1047 1048 1049
f 1050 1051 1052
f 1053 1054 1055
f 1056 1057 1058
f 1059 1060 1061
f 1062 1063 1064
f 1065 1066 1067
f 1068 1069 1070
f 1071 1072 1073
f 1074 1075 1076
f 1077 1078 1079
f 1080 1081 1082
f 1083 1084 1085
f 1086 1087 1088
f 1089 1090 1091
f 1092 1093 1094
f 1095 1096 1097
f 1098 1099 1100
f 1101 1102 1103
f 1104 1105 1106
f 1107 1108 1109
f 1110 1111 1112
f 1113 1114 1115
f 1116 1117 1118
f 1119 1120 1121
f 217 218 219
f 218 217 220
f 218 220 221
f 221 220 222
f 221 222 223
f 223 222 224
f 223 224 225
f 225 224 226
f 225 226 227
f 227 226 228
f 228 226 229
f 229 226 230
f 229 230 231
f 231 230 232
f 232 230 233
f 233 230 234
f 233 234 235
f 235 234 236
f 235 236 237
f 237 236 238
f 238 236 239
f 238 239 240
f 240 239 241
f 240 241 242
f 242 241 243
f 243 241 244
f 243 244 245
f 245 244 246
f 246 244 247
f 246 247 248
f 248 247 249
f 248 249 250
f 250 249 251
f 251 249 252
f 252 249 253
f 252 253 254
f 227 255 225
f 255 227 256
f 255 256 257
f 255 257 258
f 258 257 259
f 258 259 260
f 258 260 261
f 258 261 262
f 262 261 263
f 262 263 264
f 264 263 265
f 264 265 266
f 264 266 267
f 267 266 268
f 267 268 269
f 267 269 270
f 270 269 271
f 270 271 272
f 272 271 273
f 272 273 274
f 272 274 275
f 275 274 276
f 275 276 277
f 277 276 278
f 277 278 279
f 277 279 280
f 277 280 281
f 281 280 254
f 281 254 253
f 281 253 282
f 281 282 283
f 283 282 284
f 283 284 285
f 285 284 286
f 285 286 287
f 287 286 288
f 289 290 291
f 290 289 292
f 290 292 293
f 293 292 294
f 294 292 295
f 295 292 296
f 295 296 297
f 297 296 298
f 297 298 299
f 299 298 300
f 299 300 301
f 301 300 302
f 301 302 303
f 303 302 304
f 303 304 305
f 305 304 306
f 305 306 307
f 307 306 308
f 307 308 309
f 309 308 310
f 309 310 311
f 311 310 312
f 312 310 313
f 312 313 314
f 314 313 315
f 314 315 316
f 316 315 317
f 316 317 318
f 318 317 319
f 318 319 320
f 320 319 321
f 320 321 322
f 322 321 323
f 322 323 324
f 324 323 325
f 324 325 326
f 293 327 290
f 327 293 328
f 327 328 329
f 327 329 330
f 330 329 331
f 330 331 332
f 332 331 333
f 332 333 334
f 334 333 335
f 334 335 336
f 336 335 337
f 336 337 338
f 338 337 339
f 338 339 340
f 340 339 341
f 340 341 342
f 342 341 343
f 342 343 344
f 342 344 345
f 345 344 346
f 345 346 347
f 347 346 348
f 347 348 349
f 349 348 350
f 349 350 351
f 351 350 352
f 351 352 353
f 353 352 354
f 353 354 355
f 355 354 356
f 355 356 357
f 357 356 358
f 357 358 359
f 359 358 326
f 359 326 325
f 359 325 360
f 361 362 363
f 362 361 364
f 1122 365 366
f 365 1123 1124
f 1125 367 368
f 367 1126 1127
f 1128 369 370
f 369 1129 1130
f 1131 371 372
f 371 1132 1133
f 1134 373 374
f 373 1135 1136
f 1137 375 376
f 375 1138 1139
f 377 378 379
f 378 377 380
f 1140 381 382
f 381 1141 1142
f 84 112 83
f 112 84 85
f 112 85 113
f 113 85 87
f 113 87 115
f 115 87 88
f 115 88 116
f 116 88 89
f 116 89 117
f 117 89 91
f 117 91 119
f 119 91 93
f 119 93 121
f 121 93 94
f 121 94 122
f 122 94 96
f 122 96 124
f 124 96 98
f 124 98 125
f 125 98 99
f 125 99 127
f 127 99 101
f 127 101 129
f 129 101 102
f 129 102 130
f 130 102 104
f 130 104 132
f 132 104 106
f 132 106 134
f 134 106 107
f 134 107 135
f 135 107 108
f 135 108 136
f 136 108 110
f 1143 383 384
f 383 1144 1145
f 1146 1147 1148
f 1149 1150 1151
f 385 386 387
f 386 385 388
f 389 1152 390
f 1153 389 1154
f 391 392 393
f 392 391 394
f 395 1155 396
f 1156 395 1157
f 397 1158 398
f 1159 397 1160
f 399 1161 400
f 1162 399 1163
f 401 1164 402
f 1165 401 1166
f 403 404 405
f 404 403 406
f 407 1167 408
f 1168 407 1169
f 1170 1171 1172
f 1173 1174 1175
f 409 1176 1177
f 1178 409 410
f 411 1179 1180
f 1181 411 412
f 413 1182 1183
f 1184 413 414
f 415 1185 1186
f 1187 415 416
f 1188 1189 1190
f 1191 1192 1193
f 417 1194 1195
f 1196 417 418
f 419 1197 1198
f 1199 419 420
f 1200 1201 1202
f 1203 1204 1205
f 1206 421 1207
f 421 1208 422
f 1209 423 1210
f 423 1211 424
f 1212 425 1213
f 425 1214 426
f 427 428 429
f 428 427 430
f 428 430 431
f 431 430 432
f 432 430 433
f 433 430 434
f 433 434 435
f 435 434 436
f 435 436 437
f 437 436 438
f 437 438 439
f 439 438 440
f 439 440 441
f 441 440 442
f 441 442 443
f 443 442 444
f 443 444 445
f 445 444 446
f 445 446 447
f 447 446 448
f 447 448 449
f 449 448 450
f 450 448 451
f 450 451 452
f 452 451 453
f 452 453 454
f 454 453 455
f 454 455 456
f 456 455 457
f 456 457 458
f 458 457 459
f 458 459 460
f 460 459 461
f 460 461 462
f 462 461 463
f 462 463 464
f 431 465 428
f 465 431 466
f 465 466 467
f 465 467 468
f 468 467 469
f 468 469 470
f 470 469 471
f 470 471 472
f 472 471 473
f 472 473 474
f 474 473 475
f 474 475 476
f 476 475 477
f 476 477 478
f 478 477 479
f 478 479 480
f 480 479 481
f 480 481 482
f 480 482 483
f 483 482 484
f 483 484 485
f 485 484 486
f 485 486 487
f 487 486 488
f 487 488 489
f 489 488 490
f 489 490 491
f 491 490 492
f 491 492 493
f 493 492 494
f 493 494 495
f 495 494 496
f 495 496 497
f 497 496 464
f 497 464 463
f 497 463 498
f 1215 499 1216
f 499 1217 500
f 1218 501 1219
f 501 1220 502
f 1221 503 1222
f 503 1223 504
f 505 506 507
f 506 505 508
f 506 508 509
f 509 508 510
f 510 508 511
f 511 508 512
f 511 512 513
f 513 512 514
f 514 512 515
f 514 515 516
f 516 515 517
f 516 517 518
f 518 517 519
f 518 519 520
f 520 519 521
f 520 521 522
f 522 521 523
f 522 523 524
f 524 523 525
f 524 525 526
f 526 525 527
f 526 527 528
f 528 527 529
f 529 527 530
f 529 530 531
f 531 530 532
f 531 532 533
f 533 532 534
f 533 534 535
f 535 534 536
f 535 536 537
f 537 536 538
f 537 538 539
f 539 538 540
f 539 540 541
f 541 540 542
f 509 543 544
f 543 509 510
f 544 543 545
f 544 545 546
f 544 546 547
f 547 546 548
f 547 548 549
f 549 548 550
f 549 550 551
f 551 550 552
f 551 552 553
f 553 552 554
f 553 554 555
f 555 554 556
f 555 556 557
f 557 556 558
f 557 558 559
f 557 559 560
f 560 559 561
f 560 561 562
f 562 561 563
f 562 563 564
f 564 563 565
f 564 565 566
f 566 565 567
f 566 567 568
f 568 567 569
f 568 569 570
f 570 569 571
f 570 571 572
f 572 571 573
f 572 573 542
f 572 542 540
f 572 540 574
f 572 574 575
f 575 574 576
f 1224 1225 1226
f 1227 1228 1229
f 577 578 579
f 578 577 580
f 578 580 581
f 581 580 582
f 581 582 583
f 583 582 584
f 583 584 585
f 585 584 586
f 585 586 587
f 587 586 588
f 587 588 589
f 589 588 590
f 589 590 591
f 591 590 592
f 591 592 593
f 593 592 594
f 593 594 595
f 595 594 596
f 595 596 597
f 597 596 598
f 597 598 599
f 599 598 600
f 599 600 601
f 601 600 602
f 601 602 603
f 603 602 604
f 603 604 605
f 605 604 606
f 605 606 607
f 607 606 608
f 607 608 609
f 609 608 610
f 609 610 611
f 611 610 612
f 613 614 615
f 614 613 616
f 614 616 617
f 617 616 618
f 617 618 619
f 619 618 620
f 619 620 621
f 621 620 622
f 621 622 623
f 623 622 624
f 623 624 625
f 625 624 626
f 625 626 627
f 627 626 628
f 627 628 629
f 629 628 630
f 629 630 631
f 631 630 632
f 631 632 633
f 633 632 634
f 633 634 635
f 635 634 636
f 635 636 637
f 637 636 638
f 637 638 639
f 639 638 640
f 639 640 641
f 641 640 642
f 641 642 643
f 643 642 644
f 643 644 645
f 645 644 646
f 645 646 647
f 647 646 648
f 1230 1231 1232
f 1233 1234 1235
f 1236 1237 1238
f 1239 1240 1241
f 1242 1243 1244
f 1245 1246 1247
f 1248 1249 1250
f 1251 1252 1253
f 1254 1255 1256
f 1257 1258 1259
f 1260 1261 1262
f 1263 1264 1265
f 1266 1267 1268
f 1269 1270 1271
f 1272 1273 1274
f 1275 1276 1277
f 1278 1279 1280
f 1281 1282 1283
f 1284 1285 1286
f 1287 1288 1289
f 1290 1291 1292
f 1293 1294 1295
f 1296 1297 1298
f 1299 1300 1301
f 1302 1303 1304
f 1305 1306 1307
f 1308 1309 1310
f 1311 1312 1313
f 1314 1315 1316
f 1317 1318 1319
f 1320 1321 1322
f 1323 1324 1325
f 1326 1327 1328
f 1329 1330 1331
f 1332 1333 1334
f 1335 1336 1337
f 1338 1339 1340
f 1341 1342 1343
f 1344 1345 1346
f 1347 1348 1349
f 1350 1351 1352
f 1353 1354 1355
f 1356 1357 1358
f 1359 1360 1361
f 1362 1363 1364
f 1365 1366 1367
f 1368 1369 1370
f 1371 1372 1373
f 1374 1375 1376
f 1377 1378 1379
f 1380 1381 1382
f 1383 1384 1385
f 1386 1387 1388
f 1389 1390 1391
f 1392 1393 1394
f 1395 1396 1397
f 1398 1399 1400
f 1401 1402 1403
f 1404 1405 1406
f 1407 1408 1409
f 1410 1411 1412
f 1413 1414 1415
f 1416 1417 1418
f 1419 1420 1421
f 1422 1423 1424
f 1425 1426 1427
f 1428 1429 1430
f 1431 1432 1433
f 1434 1435 1436
f 1437 1438 1439
f 1440 1441 1442
f 1443 1444 1445
f 649 650 651
f 650 649 652
f 650 652 653
f 653 652 654
f 653 654 655
f 655 654 656
f 655 656 657
f 657 656 658
f 657 658 659
f 659 658 660
f 659 660 661
f 661 660 662
f 661 662 663
f 663 662 664
f 663 664 665
f 665 664 666
f 665 666 667
f 667 666 668
f 667 668 669
f 669 668 670
f 669 670 671
f 671 670 672
f 671 672 673
f 673 672 674
f 673 674 675
f 675 674 676
f 675 676 677
f 677 676 678
f 677 678 679
f 679 678 680
f 679 680 681
f 681 680 682
f 681 682 683
f 683 682 684
