v -0.153564 0.061072 0.617180
v -0.154466 0.064439 0.567180
v -0.154466 0.064439 0.617180
v -0.153564 0.061072 0.567180
v -0.153260 0.057599 0.617180
v -0.153260 0.057599 0.567180
v -0.155939 0.067599 0.617180
v -0.157939 0.070454 0.567180
v -0.157939 0.070454 0.617180
v -0.155939 0.067599 0.567180
v -0.176733 0.037903 0.617180
v -0.180100 0.038805 0.567180
v -0.176733 0.037903 0.567180
v -0.180100 0.038805 0.617180
v -0.173260 0.037599 0.617180
v -0.173260 0.037599 0.567180
v -0.183260 0.040278 0.567180
v -0.183260 0.040278 0.617180
v -0.186116 0.042278 0.567180
v -0.186116 0.042278 0.617180
v -0.188581 0.044743 0.617180
v -0.188581 0.044743 0.567180
v -0.190580 0.047599 0.617180
v -0.190580 0.047599 0.567180
v -0.169787 0.037903 0.617180
v -0.169787 0.037903 0.567180
v -0.160404 0.072920 0.567180
v -0.160404 0.072920 0.617180
v -0.157939 0.044743 0.617180
v -0.155939 0.047599 0.567180
v -0.155939 0.047599 0.617180
v -0.157939 0.044743 0.567180
v -0.160404 0.042278 0.617180
v -0.160404 0.042278 0.567180
v -0.163260 0.040278 0.567180
v -0.163260 0.040278 0.617180
v -0.166419 0.038805 0.567180
v -0.166419 0.038805 0.617180
v -0.153564 0.054126 0.617180
v -0.153564 0.054126 0.567180
v -0.154466 0.050758 0.617180
v -0.154466 0.050758 0.567180
v -0.192956 0.054126 0.567180
v -0.193260 0.057599 0.617180
v -0.193260 0.057599 0.567180
v -0.192956 0.054126 0.617180
v -0.192956 0.061072 0.617180
v -0.192956 0.061072 0.567180
v -0.192054 0.064439 0.617180
v -0.192054 0.064439 0.567180
v -0.190580 0.067599 0.617180
v -0.190580 0.067599 0.567180
v -0.188581 0.070454 0.617180
v -0.188581 0.070454 0.567180
v -0.186116 0.072920 0.617180
v -0.186116 0.072920 0.567180
v -0.183260 0.074919 0.567180
v -0.183260 0.074919 0.617180
v -0.180100 0.076393 0.567180
v -0.180100 0.076393 0.617180
v -0.176733 0.077295 0.567180
v -0.176733 0.077295 0.617180
v -0.173260 0.077599 0.567180
v -0.173260 0.077599 0.617180
v -0.169787 0.077295 0.567180
v -0.169787 0.077295 0.617180
v -0.166419 0.076393 0.567180
v -0.166419 0.076393 0.617180
v -0.163260 0.074919 0.567180
v -0.163260 0.074919 0.617180
v -0.158241 0.031585 0.567180
v -0.162986 0.029372 0.557180
v -0.158241 0.031585 0.557180
v -0.162986 0.029372 0.567180
v -0.168044 0.028017 0.557180
v -0.168044 0.028017 0.567180
v -0.173260 0.027561 0.557180
v -0.173260 0.027561 0.567180
v -0.178476 0.028017 0.557180
v -0.178476 0.028017 0.567180
v -0.183534 0.029372 0.557180
v -0.183534 0.029372 0.567180
v -0.188279 0.031585 0.557180
v -0.188279 0.031585 0.567180
v -0.192568 0.034588 0.557180
v -0.192568 0.034588 0.567180
v -0.196270 0.038291 0.567180
v -0.196270 0.038291 0.557180
v -0.199274 0.042580 0.567180
v -0.199274 0.042580 0.557180
v -0.201487 0.047325 0.567180
v -0.201487 0.047325 0.557180
v -0.202842 0.052383 0.567180
v -0.202842 0.052383 0.557180
v -0.192054 0.050758 0.617180
v -0.192054 0.050758 0.567180
v -0.203298 0.057599 0.567180
v -0.203298 0.057599 0.557180
v -0.202842 0.062815 0.567180
v -0.202842 0.062815 0.557180
v -0.201487 0.067872 0.567180
v -0.201487 0.067872 0.557180
v -0.199274 0.072618 0.567180
v -0.199274 0.072618 0.557180
v -0.196270 0.076907 0.567180
v -0.196270 0.076907 0.557180
v -0.192568 0.080609 0.567180
v -0.192568 0.080609 0.557180
v -0.188279 0.083613 0.557180
v -0.188279 0.083613 0.567180
v -0.183533 0.085825 0.557180
v -0.183533 0.085825 0.567180
v -0.178476 0.087181 0.557180
v -0.178476 0.087181 0.567180
v -0.173260 0.087637 0.557180
v -0.173260 0.087637 0.567180
v -0.168044 0.087181 0.557180
v -0.168044 0.087181 0.567180
v -0.162986 0.085825 0.557180
v -0.162986 0.085825 0.567180
v -0.158241 0.083613 0.557180
v -0.158241 0.083613 0.567180
v -0.153952 0.080609 0.557180
v -0.153952 0.080609 0.567180
v -0.150249 0.076907 0.567180
v -0.150249 0.076907 0.557180
v -0.147246 0.072618 0.567180
v -0.147246 0.072618 0.557180
v -0.145033 0.067872 0.567180
v -0.145033 0.067872 0.557180
v -0.143678 0.062815 0.567180
v -0.143678 0.062815 0.557180
v -0.143222 0.057599 0.567180
v -0.143222 0.057599 0.557180
v -0.143678 0.052383 0.567180
v -0.143678 0.052383 0.557180
v -0.145033 0.047325 0.567180
v -0.145033 0.047325 0.557180
v -0.147246 0.042580 0.567180
v -0.147246 0.042580 0.557180
v -0.150249 0.038291 0.567180
v -0.150249 0.038291 0.557180
v -0.153952 0.034588 0.567180
v -0.153952 0.034588 0.557180
v -0.172222 0.060449 0.386698
v -0.172200 0.063610 0.386679
v -0.171172 0.063335 0.386679
v -0.172733 0.060586 0.386698
v -0.171672 0.066603 0.387122
v -0.170133 0.066191 0.387122
v -0.171162 0.069496 0.388019
v -0.169128 0.068951 0.388019
v -0.170681 0.072223 0.389348
v -0.168181 0.071553 0.389348
v -0.170241 0.074721 0.391079
v -0.167313 0.073937 0.391079
v -0.169850 0.076934 0.393172
v -0.166545 0.076049 0.393172
v -0.185341 0.057599 0.388019
v -0.187884 0.060177 0.389348
v -0.185157 0.059697 0.388019
v -0.188110 0.057599 0.389348
v -0.190382 0.060618 0.391079
v -0.190647 0.057599 0.391079
v -0.192596 0.061008 0.393172
v -0.192894 0.057599 0.393172
v -0.194800 0.057599 0.395580
v -0.194473 0.061339 0.395580
v -0.196321 0.057599 0.398248
v -0.195971 0.061603 0.398248
v -0.197423 0.057599 0.401115
v -0.197056 0.061795 0.401115
v -0.198081 0.057599 0.404115
v -0.197704 0.061909 0.404115
v -0.198279 0.057599 0.407180
v -0.197899 0.061943 0.407180
v -0.200279 0.057599 0.407492
v -0.199868 0.062291 0.415492
v -0.199868 0.062291 0.407492
v -0.200279 0.057599 0.415492
v -0.197899 0.061943 0.415492
v -0.218279 0.057599 0.472180
v -0.217595 0.065416 0.472180
v -0.198279 0.057599 0.415492
v -0.176293 0.057599 0.386698
v -0.176247 0.058126 0.386698
v -0.173260 0.057599 0.387180
v -0.179271 0.058659 0.386679
v -0.179364 0.057599 0.386679
v -0.182264 0.059187 0.387122
v -0.182403 0.057599 0.387122
v -0.166417 0.072058 0.503966
v -0.163681 0.181941 0.505242
v -0.163681 0.072058 0.505242
v -0.166417 0.181941 0.503966
v -0.191710 0.064314 0.393172
v -0.193501 0.064966 0.395580
v -0.220279 0.057599 0.472180
v -0.219565 0.065764 0.492180
v -0.219565 0.065764 0.472180
v -0.220279 0.057599 0.492180
v -0.218279 0.057599 0.492180
v -0.197899 0.061943 0.548304
v -0.217595 0.065416 0.492180
v -0.198279 0.057599 0.548304
v -0.197899 0.061943 0.557180
v -0.198279 0.057599 0.557180
v -0.196770 0.066156 0.557180
v -0.196770 0.066156 0.548304
v -0.176110 0.058636 0.386698
v -0.178996 0.059687 0.386679
v -0.181852 0.060726 0.387122
v -0.184612 0.061731 0.388019
v -0.187214 0.062678 0.389348
v -0.189598 0.063545 0.391079
v -0.183722 0.063639 0.388019
v -0.181178 0.062171 0.387122
v -0.194931 0.065486 0.398248
v -0.195966 0.065863 0.401115
v -0.196584 0.066088 0.404115
v -0.196770 0.066156 0.407180
v -0.198649 0.066840 0.415492
v -0.198649 0.066840 0.407492
v -0.159073 0.072058 0.531375
v -0.157341 0.181941 0.528902
v -0.159072 0.181941 0.531375
v -0.157341 0.072058 0.528902
v -0.196770 0.066156 0.415492
v -0.215564 0.072996 0.472180
v -0.166417 0.181941 0.536518
v -0.163681 0.072058 0.535242
v -0.163681 0.181941 0.535242
v -0.166417 0.072058 0.536518
v -0.161207 0.181941 0.506974
v -0.161207 0.072058 0.506974
v -0.217443 0.073680 0.492180
v -0.217443 0.073680 0.472180
v -0.215564 0.072996 0.492180
v -0.194927 0.070108 0.557180
v -0.194927 0.070108 0.548304
v -0.175887 0.059115 0.386698
v -0.178546 0.060651 0.386679
v -0.189760 0.071444 0.395580
v -0.193232 0.069130 0.398248
v -0.190926 0.072422 0.398248
v -0.191914 0.068369 0.395580
v -0.186120 0.065024 0.389348
v -0.188317 0.066292 0.391079
v -0.190263 0.067416 0.393172
v -0.194186 0.069681 0.401115
v -0.194756 0.070009 0.404115
v -0.194927 0.070108 0.407180
v -0.196659 0.071108 0.415492
v -0.196659 0.071108 0.407492
v -0.194927 0.070108 0.415492
v -0.212248 0.080108 0.472180
v -0.213980 0.081108 0.492180
v -0.213980 0.081108 0.472180
v -0.188792 0.076109 0.401115
v -0.192274 0.073554 0.404115
v -0.189215 0.076613 0.404115
v -0.191770 0.073131 0.401115
v -0.212248 0.080108 0.492180
v -0.192426 0.073681 0.557180
v -0.192426 0.073681 0.548304
v -0.175583 0.059549 0.386698
v -0.177936 0.061523 0.386679
v -0.180264 0.063476 0.387122
v -0.182514 0.065364 0.388019
v -0.184635 0.067144 0.389348
v -0.186579 0.068775 0.391079
v -0.188300 0.070219 0.393172
v -0.184436 0.070918 0.391079
v -0.183077 0.074602 0.393172
v -0.181953 0.072656 0.391079
v -0.185880 0.072639 0.393172
v -0.187106 0.074099 0.395580
v -0.184030 0.076253 0.395580
v -0.188083 0.075265 0.398248
v -0.184791 0.077571 0.398248
v -0.192426 0.073681 0.407180
v -0.193958 0.074966 0.415492
v -0.193958 0.074966 0.407492
v -0.192426 0.073681 0.415492
v -0.207746 0.086537 0.472180
v -0.209279 0.087822 0.492180
v -0.209279 0.087822 0.472180
v -0.169333 0.181941 0.537299
v -0.169333 0.072058 0.537299
v -0.207746 0.086537 0.492180
v -0.189342 0.076764 0.557180
v -0.189342 0.076764 0.548304
v -0.175210 0.059922 0.386698
v -0.177184 0.062275 0.386679
v -0.179137 0.064603 0.387122
v -0.181025 0.066853 0.388019
v -0.182805 0.068974 0.389348
v -0.185769 0.079266 0.548304
v -0.188657 0.099903 0.492180
v -0.195769 0.096586 0.492180
v -0.181817 0.081109 0.548304
v -0.181817 0.081109 0.557180
v -0.177604 0.082238 0.548304
v -0.177604 0.082238 0.557180
v -0.189342 0.076765 0.407180
v -0.190627 0.078297 0.415492
v -0.190627 0.078297 0.407492
v -0.189342 0.076765 0.415492
v -0.202198 0.092085 0.472180
v -0.203483 0.093618 0.492180
v -0.203483 0.093618 0.472180
v -0.178265 0.181941 0.536518
v -0.175349 0.072058 0.537299
v -0.175348 0.181941 0.537299
v -0.178265 0.072058 0.536518
v -0.202198 0.092085 0.492180
v -0.185769 0.079266 0.557180
v -0.174776 0.060226 0.386698
v -0.176312 0.062885 0.386679
v -0.177832 0.065517 0.387122
v -0.179300 0.068061 0.388019
v -0.173260 0.082618 0.548304
v -0.173260 0.082618 0.557180
v -0.173787 0.060586 0.386698
v -0.173260 0.060632 0.386698
v -0.173260 0.063703 0.386679
v -0.174320 0.063610 0.386679
v -0.180685 0.070459 0.389348
v -0.185342 0.078525 0.401115
v -0.185670 0.079095 0.404115
v -0.185769 0.079266 0.407180
v -0.186769 0.080998 0.407492
v -0.186769 0.080998 0.415492
v -0.185769 0.079266 0.415492
v -0.195769 0.096586 0.472180
v -0.196769 0.098319 0.472180
v -0.196769 0.098319 0.492180
v -0.181001 0.181941 0.535242
v -0.181001 0.072058 0.535242
v -0.174297 0.060449 0.386698
v -0.175348 0.063335 0.386679
v -0.176387 0.066191 0.387122
v -0.177392 0.068951 0.388019
v -0.178339 0.071553 0.389348
v -0.179206 0.073937 0.391079
v -0.179975 0.076049 0.393172
v -0.180627 0.077840 0.395580
v -0.181147 0.079270 0.398248
v -0.181524 0.080305 0.401115
v -0.181749 0.080923 0.404115
v -0.181817 0.081109 0.407180
v -0.182501 0.082988 0.407492
v -0.182501 0.082988 0.415492
v -0.181817 0.081109 0.415492
v -0.188657 0.099903 0.472180
v -0.189341 0.101782 0.472180
v -0.189341 0.101782 0.492180
v -0.168915 0.082238 0.407180
v -0.164770 0.080923 0.404115
v -0.168950 0.082043 0.404115
v -0.164703 0.081109 0.407180
v -0.168568 0.084207 0.415492
v -0.164019 0.082988 0.407492
v -0.168568 0.084207 0.407492
v -0.164019 0.082988 0.415492
v -0.187341 0.072058 0.528902
v -0.185609 0.181941 0.531375
v -0.187341 0.181941 0.528902
v -0.185609 0.072058 0.531375
v -0.174848 0.066603 0.387122
v -0.175358 0.069496 0.388019
v -0.175838 0.072223 0.389348
v -0.176279 0.074721 0.391079
v -0.176669 0.076934 0.393172
v -0.177000 0.078812 0.395580
v -0.177264 0.080310 0.398248
v -0.177456 0.081395 0.401115
v -0.177570 0.082043 0.404115
v -0.177604 0.082238 0.407180
v -0.177952 0.084207 0.407492
v -0.177952 0.084207 0.415492
v -0.177604 0.082238 0.415492
v -0.181077 0.101934 0.472180
v -0.181425 0.103904 0.472180
v -0.181425 0.103904 0.492180
v -0.181077 0.101934 0.492180
v -0.165494 0.066853 0.388019
v -0.165835 0.070459 0.389348
v -0.163715 0.068974 0.389348
v -0.167219 0.068061 0.388019
v -0.164566 0.072656 0.391079
v -0.162084 0.070918 0.391079
v -0.163443 0.074602 0.393172
v -0.160639 0.072639 0.393172
v -0.162490 0.076253 0.395580
v -0.159414 0.074099 0.395580
v -0.161729 0.077571 0.398248
v -0.158436 0.075265 0.398248
v -0.161178 0.078525 0.401115
v -0.157728 0.076109 0.401115
v -0.173260 0.066742 0.387122
v -0.173260 0.069680 0.388019
v -0.173260 0.072449 0.389348
v -0.173260 0.074986 0.391079
v -0.173260 0.077233 0.393172
v -0.173260 0.079139 0.395580
v -0.173260 0.080660 0.398248
v -0.173260 0.081762 0.401115
v -0.173260 0.082420 0.404115
v -0.173260 0.082618 0.407180
v -0.173260 0.084618 0.407492
v -0.173260 0.084618 0.415492
v -0.173260 0.082618 0.415492
v -0.173260 0.102618 0.472180
v -0.173260 0.104618 0.472180
v -0.173260 0.104618 0.492180
v -0.172341 0.181941 0.537563
v -0.172341 0.072058 0.537563
v -0.173260 0.102618 0.492180
v -0.168915 0.082238 0.548304
v -0.168915 0.082238 0.557180
v -0.169519 0.078812 0.395580
v -0.169255 0.080310 0.398248
v -0.169064 0.081395 0.401115
v -0.188617 0.072058 0.526166
v -0.188617 0.181941 0.526166
v -0.168915 0.082238 0.415492
v -0.165442 0.101934 0.472180
v -0.165095 0.103904 0.472180
v -0.165095 0.103904 0.492180
v -0.165442 0.101934 0.492180
v -0.164703 0.081109 0.548304
v -0.164703 0.081109 0.557180
v -0.177952 0.030990 0.415492
v -0.182501 0.032209 0.407492
v -0.177952 0.030990 0.407492
v -0.182501 0.032209 0.415492
v -0.181077 0.013264 0.472180
v -0.181817 0.034089 0.415492
v -0.177604 0.032960 0.415492
v -0.188657 0.015295 0.472180
v -0.181425 0.011294 0.492180
v -0.189341 0.013415 0.472180
v -0.181425 0.011294 0.472180
v -0.189341 0.013415 0.492180
v -0.177604 0.032960 0.548304
v -0.188657 0.015295 0.492180
v -0.181077 0.013264 0.492180
v -0.181817 0.034088 0.548304
v -0.181817 0.034088 0.557180
v -0.185769 0.035932 0.548304
v -0.185769 0.035932 0.557180
v -0.165893 0.077840 0.395580
v -0.165372 0.079270 0.398248
v -0.164995 0.080305 0.401115
v -0.161362 0.059697 0.388019
v -0.159306 0.062678 0.389348
v -0.158636 0.060177 0.389348
v -0.161907 0.061731 0.388019
v -0.156922 0.063545 0.391079
v -0.156137 0.060618 0.391079
v -0.154810 0.064314 0.393172
v -0.153924 0.061008 0.393172
v -0.152047 0.061339 0.395580
v -0.153019 0.064966 0.395580
v -0.150549 0.061603 0.398248
v -0.151589 0.065486 0.398248
v -0.164703 0.081109 0.415492
v -0.157862 0.099903 0.472180
v -0.183474 0.181941 0.533510
v -0.183474 0.072058 0.533510
v -0.157178 0.101782 0.472180
v -0.157178 0.101782 0.492180
v -0.157862 0.099903 0.492180
v -0.160750 0.079266 0.548304
v -0.160750 0.079266 0.557180
v -0.171743 0.060226 0.386698
v -0.170208 0.062885 0.386679
v -0.168688 0.065517 0.387122
v -0.160849 0.079095 0.404115
v -0.160750 0.079266 0.407180
v -0.159750 0.080998 0.407492
v -0.159750 0.080998 0.415492
v -0.160750 0.079266 0.415492
v -0.150750 0.096586 0.472180
v -0.149750 0.098318 0.472180
v -0.149750 0.098318 0.492180
v -0.150750 0.096586 0.492180
v -0.157178 0.076764 0.548304
v -0.157178 0.076764 0.557180
v -0.171310 0.059922 0.386698
v -0.150549 0.053594 0.398248
v -0.151720 0.057599 0.395580
v -0.150198 0.057599 0.398248
v -0.152047 0.053858 0.395580
v -0.149463 0.053403 0.401115
v -0.149096 0.057599 0.401115
v -0.148816 0.053289 0.404115
v -0.148439 0.057599 0.404115
v -0.148621 0.053254 0.407180
v -0.148241 0.057599 0.407180
v -0.146651 0.052907 0.415492
v -0.146241 0.057599 0.407492
v -0.146241 0.057599 0.415492
v -0.146651 0.052907 0.407492
v -0.156065 0.072058 0.514318
v -0.157341 0.181941 0.511582
v -0.156065 0.181941 0.514318
v -0.157341 0.072058 0.511582
v -0.128925 0.049781 0.472180
v -0.148241 0.057599 0.415492
v -0.128241 0.057599 0.472180
v -0.148621 0.053254 0.415492
v -0.169336 0.062275 0.386679
v -0.167383 0.064603 0.387122
v -0.157305 0.076613 0.404115
v -0.157178 0.076765 0.407180
v -0.155892 0.078297 0.407492
v -0.155892 0.078297 0.415492
v -0.157178 0.076765 0.415492
v -0.144322 0.092085 0.472180
v -0.143037 0.093617 0.472180
v -0.143037 0.093617 0.492180
v -0.144322 0.092085 0.492180
v -0.154094 0.073681 0.557180
v -0.154094 0.073681 0.548304
v -0.170936 0.059549 0.386698
v -0.168584 0.061523 0.386679
v -0.166256 0.063476 0.387122
v -0.164005 0.065364 0.388019
v -0.161884 0.067144 0.389348
v -0.159941 0.068775 0.391079
v -0.158219 0.070219 0.393172
v -0.156759 0.071444 0.395580
v -0.155594 0.072422 0.398248
v -0.154749 0.073131 0.401115
v -0.154246 0.073554 0.404115
v -0.154094 0.073681 0.407180
v -0.152562 0.074966 0.415492
v -0.152562 0.074966 0.407492
v -0.138773 0.086536 0.472180
v -0.154094 0.073681 0.415492
v -0.137241 0.087822 0.492180
v -0.137241 0.087822 0.472180
v -0.152334 0.045517 0.401115
v -0.155594 0.042775 0.398248
v -0.153288 0.046068 0.398248
v -0.154749 0.042067 0.401115
v -0.138773 0.086536 0.492180
v -0.151593 0.070108 0.557180
v -0.151593 0.070108 0.548304
v -0.170633 0.059115 0.386698
v -0.167973 0.060651 0.386679
v -0.165341 0.062171 0.387122
v -0.162797 0.063639 0.388019
v -0.160400 0.065024 0.389348
v -0.158202 0.066292 0.391079
v -0.156256 0.067416 0.393172
v -0.154606 0.068369 0.395580
v -0.153288 0.069130 0.398248
v -0.152334 0.069681 0.401115
v -0.151764 0.070009 0.404115
v -0.151593 0.070108 0.407180
v -0.149861 0.071108 0.415492
v -0.149861 0.071108 0.407492
v -0.134272 0.080108 0.472180
v -0.151593 0.070108 0.415492
v -0.132540 0.081108 0.492180
v -0.132540 0.081108 0.472180
v -0.159072 0.181941 0.509109
v -0.159073 0.072058 0.509109
v -0.134272 0.080108 0.492180
v -0.149750 0.066156 0.557180
v -0.149750 0.066156 0.548304
v -0.170410 0.058636 0.386698
v -0.167524 0.059687 0.386679
v -0.164668 0.060726 0.387122
v -0.150553 0.065863 0.401115
v -0.149936 0.066088 0.404115
v -0.149750 0.066156 0.407180
v -0.147870 0.066840 0.415492
v -0.147870 0.066840 0.407492
v -0.130956 0.072996 0.472180
v -0.149750 0.066156 0.415492
v -0.129076 0.073680 0.492180
v -0.129076 0.073680 0.472180
v -0.130956 0.072996 0.492180
v -0.148621 0.061943 0.557180
v -0.148621 0.061943 0.548304
v -0.162490 0.038945 0.395580
v -0.166545 0.039149 0.393172
v -0.163443 0.040595 0.393172
v -0.165893 0.037358 0.395580
v -0.161729 0.037627 0.398248
v -0.165372 0.035928 0.398248
v -0.161178 0.036673 0.401115
v -0.164995 0.034892 0.401115
v -0.160849 0.036103 0.404115
v -0.164771 0.034275 0.404115
v -0.160750 0.035932 0.407180
v -0.164703 0.034089 0.407180
v -0.159750 0.034200 0.415492
v -0.164019 0.032209 0.407492
v -0.159750 0.034200 0.407492
v -0.164019 0.032209 0.415492
v -0.170273 0.058126 0.386698
v -0.167248 0.058659 0.386679
v -0.164255 0.059187 0.387122
v -0.149463 0.061795 0.401115
v -0.148816 0.061909 0.404115
v -0.148621 0.061943 0.407180
v -0.146651 0.062291 0.415492
v -0.146651 0.062291 0.407492
v -0.128925 0.065416 0.472180
v -0.148621 0.061943 0.415492
v -0.126955 0.065764 0.492180
v -0.126955 0.065764 0.472180
v -0.128925 0.065416 0.492180
v -0.148241 0.057599 0.557180
v -0.148241 0.057599 0.548304
v -0.187341 0.072058 0.511582
v -0.188617 0.181941 0.514318
v -0.187341 0.181941 0.511582
v -0.188617 0.072058 0.514318
v -0.170227 0.057599 0.386698
v -0.167155 0.057599 0.386679
v -0.164116 0.057599 0.387122
v -0.161179 0.057599 0.388019
v -0.158410 0.057599 0.389348
v -0.155873 0.057599 0.391079
v -0.153626 0.057599 0.393172
v -0.155283 0.072058 0.517234
v -0.155283 0.181941 0.517234
v -0.126241 0.057599 0.492180
v -0.126241 0.057599 0.472180
v -0.128241 0.057599 0.492180
v -0.148621 0.053254 0.557180
v -0.148621 0.053254 0.548304
v -0.185609 0.072058 0.509109
v -0.185609 0.181941 0.509109
v -0.170273 0.057072 0.386698
v -0.167248 0.056539 0.386679
v -0.164255 0.056011 0.387122
v -0.161362 0.055501 0.388019
v -0.158636 0.055020 0.389348
v -0.173260 0.030580 0.415492
v -0.173260 0.030580 0.407492
v -0.173260 0.012580 0.472180
v -0.173260 0.032580 0.415492
v -0.173260 0.010580 0.492180
v -0.173260 0.010580 0.472180
v -0.173260 0.032580 0.548304
v -0.173260 0.012580 0.492180
v -0.177604 0.032960 0.557180
v -0.174297 0.054749 0.386698
v -0.173787 0.054612 0.386698
v -0.174320 0.051587 0.386679
v -0.175348 0.051863 0.386679
v -0.174848 0.048594 0.387122
v -0.176387 0.049007 0.387122
v -0.175358 0.045701 0.388019
v -0.177392 0.046246 0.388019
v -0.175838 0.042975 0.389348
v -0.178339 0.043645 0.389348
v -0.156137 0.054580 0.391079
v -0.153924 0.054189 0.393172
v -0.126955 0.049434 0.492180
v -0.126955 0.049434 0.472180
v -0.189398 0.072058 0.523250
v -0.189398 0.181941 0.523250
v -0.128925 0.049781 0.492180
v -0.149750 0.049042 0.557180
v -0.149750 0.049042 0.548304
v -0.170410 0.056561 0.386698
v -0.167524 0.055511 0.386679
v -0.164668 0.054472 0.387122
v -0.161907 0.053467 0.388019
v -0.159306 0.052520 0.389348
v -0.156922 0.051652 0.391079
v -0.154810 0.050884 0.393172
v -0.153019 0.050232 0.395580
v -0.151589 0.049711 0.398248
v -0.150553 0.049334 0.401115
v -0.149936 0.049109 0.404115
v -0.149750 0.049042 0.407180
v -0.147870 0.048358 0.415492
v -0.147870 0.048358 0.407492
v -0.149750 0.049042 0.415492
v -0.130956 0.042201 0.472180
v -0.155020 0.072058 0.520242
v -0.155020 0.181941 0.520242
v -0.129076 0.041517 0.492180
v -0.129076 0.041517 0.472180
v -0.189661 0.072058 0.520242
v -0.189661 0.181941 0.520242
v -0.130956 0.042201 0.492180
v -0.151593 0.045089 0.557180
v -0.151593 0.045089 0.548304
v -0.170633 0.056082 0.386698
v -0.167973 0.054547 0.386679
v -0.165341 0.053027 0.387122
v -0.162797 0.051558 0.388019
v -0.160400 0.050174 0.389348
v -0.158202 0.048905 0.391079
v -0.156256 0.047782 0.393172
v -0.154606 0.046829 0.395580
v -0.151764 0.045188 0.404115
v -0.151593 0.045089 0.407180
v -0.149861 0.044089 0.415492
v -0.149861 0.044089 0.407492
v -0.151593 0.045089 0.415492
v -0.134272 0.035089 0.472180
v -0.155283 0.072058 0.523250
v -0.155283 0.181941 0.523250
v -0.132540 0.034089 0.492180
v -0.132540 0.034089 0.472180
v -0.134272 0.035089 0.492180
v -0.154094 0.041517 0.557180
v -0.154094 0.041517 0.548304
v -0.170936 0.055649 0.386698
v -0.168584 0.053675 0.386679
v -0.166256 0.051722 0.387122
v -0.164005 0.049833 0.388019
v -0.161884 0.048054 0.389348
v -0.159941 0.046423 0.391079
v -0.158219 0.044978 0.393172
v -0.156759 0.043753 0.395580
v -0.192426 0.041517 0.415492
v -0.212248 0.035089 0.472180
v -0.194927 0.045089 0.415492
v -0.207746 0.028661 0.472180
v -0.154246 0.041644 0.404115
v -0.154094 0.041517 0.407180
v -0.152562 0.040231 0.415492
v -0.152562 0.040231 0.407492
v -0.154094 0.041517 0.415492
v -0.138773 0.028661 0.472180
v -0.137241 0.027375 0.492180
v -0.137241 0.027375 0.472180
v -0.138773 0.028661 0.492180
v -0.157178 0.038433 0.548304
v -0.157178 0.038433 0.557180
v -0.171310 0.055275 0.386698
v -0.169336 0.052923 0.386679
v -0.167383 0.050595 0.387122
v -0.165494 0.048344 0.388019
v -0.163715 0.046223 0.389348
v -0.162084 0.044280 0.391079
v -0.160639 0.042558 0.393172
v -0.159414 0.041098 0.395580
v -0.158436 0.039933 0.398248
v -0.157728 0.039088 0.401115
v -0.157305 0.038585 0.404115
v -0.157178 0.038433 0.407180
v -0.155892 0.036901 0.407492
v -0.155892 0.036901 0.415492
v -0.157178 0.038433 0.415492
v -0.144322 0.023112 0.472180
v -0.143037 0.021580 0.472180
v -0.143037 0.021580 0.492180
v -0.144322 0.023112 0.492180
v -0.160750 0.035932 0.548304
v -0.160750 0.035932 0.557180
v -0.171743 0.054972 0.386698
v -0.170208 0.052312 0.386679
v -0.168688 0.049680 0.387122
v -0.167219 0.047136 0.388019
v -0.165835 0.044739 0.389348
v -0.164566 0.042541 0.391079
v -0.160750 0.035932 0.415492
v -0.150750 0.018611 0.472180
v -0.189398 0.072058 0.517234
v -0.189398 0.181941 0.517234
v -0.149750 0.016879 0.472180
v -0.149750 0.016879 0.492180
v -0.150750 0.018611 0.492180
v -0.164703 0.034088 0.548304
v -0.164703 0.034088 0.557180
v -0.172222 0.054749 0.386698
v -0.171172 0.051863 0.386679
v -0.170133 0.049007 0.387122
v -0.169128 0.046246 0.388019
v -0.168181 0.043645 0.389348
v -0.167313 0.041261 0.391079
v -0.164703 0.034089 0.415492
v -0.157862 0.015295 0.472180
v -0.157178 0.013415 0.472180
v -0.157178 0.013415 0.492180
v -0.157862 0.015295 0.492180
v -0.168915 0.032960 0.548304
v -0.168915 0.032960 0.557180
v -0.161207 0.072058 0.533510
v -0.161207 0.181941 0.533510
v -0.172733 0.054612 0.386698
v -0.172200 0.051587 0.386679
v -0.171672 0.048594 0.387122
v -0.171162 0.045701 0.388019
v -0.170681 0.042975 0.389348
v -0.170241 0.040476 0.391079
v -0.169850 0.038263 0.393172
v -0.169519 0.036386 0.395580
v -0.169255 0.034888 0.398248
v -0.169064 0.033802 0.401115
v -0.168950 0.033155 0.404115
v -0.168915 0.032960 0.407180
v -0.168568 0.030990 0.407492
v -0.168568 0.030990 0.415492
v -0.168915 0.032960 0.415492
v -0.165442 0.013264 0.472180
v -0.165095 0.011294 0.472180
v -0.165095 0.011294 0.492180
v -0.165442 0.013264 0.492180
v -0.173260 0.032580 0.557180
v -0.173260 0.054566 0.386698
v -0.173260 0.051494 0.386679
v -0.173260 0.048455 0.387122
v -0.173260 0.045518 0.388019
v -0.173260 0.042749 0.389348
v -0.173260 0.040212 0.391079
v -0.173260 0.037965 0.393172
v -0.173260 0.036059 0.395580
v -0.173260 0.034537 0.398248
v -0.173260 0.033435 0.401115
v -0.173260 0.032778 0.404115
v -0.173260 0.032580 0.407180
v -0.156065 0.072058 0.526166
v -0.156065 0.181941 0.526166
v -0.175583 0.055649 0.386698
v -0.175210 0.055275 0.386698
v -0.176279 0.040476 0.391079
v -0.176669 0.038263 0.393172
v -0.177000 0.036386 0.395580
v -0.177264 0.034888 0.398248
v -0.177456 0.033802 0.401115
v -0.177570 0.033155 0.404115
v -0.177604 0.032960 0.407180
v -0.179206 0.041261 0.391079
v -0.179975 0.039149 0.393172
v -0.180627 0.037358 0.395580
v -0.181147 0.035928 0.398248
v -0.181524 0.034892 0.401115
v -0.181749 0.034275 0.404115
v -0.181817 0.034089 0.407180
v -0.174776 0.054972 0.386698
v -0.176312 0.052312 0.386679
v -0.177832 0.049680 0.387122
v -0.179300 0.047136 0.388019
v -0.180685 0.044739 0.389348
v -0.181953 0.042541 0.391079
v -0.183077 0.040595 0.393172
v -0.184030 0.038945 0.395580
v -0.184791 0.037627 0.398248
v -0.185342 0.036673 0.401115
v -0.185670 0.036103 0.404115
v -0.185769 0.035932 0.407180
v -0.186769 0.034200 0.407492
v -0.186769 0.034200 0.415492
v -0.185769 0.035932 0.415492
v -0.195769 0.018611 0.472180
v -0.183474 0.181941 0.506974
v -0.183474 0.072058 0.506974
v -0.196769 0.016879 0.472180
v -0.196769 0.016879 0.492180
v -0.175349 0.072058 0.503185
v -0.172341 0.181941 0.502922
v -0.172341 0.072058 0.502921
v -0.175348 0.181941 0.503185
v -0.195769 0.018611 0.492180
v -0.189342 0.038433 0.548304
v -0.189342 0.038433 0.557180
v -0.177184 0.052923 0.386679
v -0.179137 0.050595 0.387122
v -0.181025 0.048344 0.388019
v -0.182805 0.046223 0.389348
v -0.184436 0.044280 0.391079
v -0.185880 0.042558 0.393172
v -0.187106 0.041098 0.395580
v -0.188084 0.039933 0.398248
v -0.188792 0.039088 0.401115
v -0.189215 0.038585 0.404115
v -0.189342 0.038433 0.407180
v -0.190627 0.036901 0.407492
v -0.190627 0.036901 0.415492
v -0.189342 0.038433 0.415492
v -0.202198 0.023112 0.472180
v -0.181001 0.181941 0.505242
v -0.181001 0.072058 0.505242
v -0.203483 0.021580 0.472180
v -0.203483 0.021580 0.492180
v -0.202198 0.023112 0.492180
v -0.192426 0.041517 0.557180
v -0.192426 0.041517 0.548304
v -0.177936 0.053675 0.386679
v -0.180264 0.051722 0.387122
v -0.182514 0.049833 0.388019
v -0.184635 0.048054 0.389348
v -0.186579 0.046423 0.391079
v -0.188300 0.044978 0.393172
v -0.189760 0.043753 0.395580
v -0.190926 0.042775 0.398248
v -0.191770 0.042067 0.401115
v -0.192274 0.041644 0.404115
v -0.192426 0.041517 0.407180
v -0.193958 0.040231 0.415492
v -0.193958 0.040231 0.407492
v -0.209279 0.027375 0.492180
v -0.209279 0.027375 0.472180
v -0.178265 0.181941 0.503966
v -0.178265 0.072058 0.503966
v -0.207746 0.028661 0.492180
v -0.194927 0.045089 0.557180
v -0.194927 0.045089 0.548304
v -0.175887 0.056082 0.386698
v -0.178546 0.054547 0.386679
v -0.181178 0.053027 0.387122
v -0.183722 0.051558 0.388019
v -0.186120 0.050174 0.389348
v -0.188317 0.048905 0.391079
v -0.190263 0.047782 0.393172
v -0.191914 0.046829 0.395580
v -0.193232 0.046068 0.398248
v -0.194186 0.045517 0.401115
v -0.194756 0.045188 0.404115
v -0.194927 0.045089 0.407180
v -0.196659 0.044089 0.415492
v -0.196659 0.044089 0.407492
v -0.213980 0.034089 0.492180
v -0.213980 0.034089 0.472180
v -0.212248 0.035089 0.492180
v -0.196770 0.049042 0.557180
v -0.196770 0.049042 0.548304
v -0.176110 0.056561 0.386698
v -0.178996 0.055511 0.386679
v -0.181852 0.054472 0.387122
v -0.184612 0.053467 0.388019
v -0.187214 0.052520 0.389348
v -0.189598 0.051652 0.391079
v -0.191710 0.050884 0.393172
v -0.193501 0.050232 0.395580
v -0.194931 0.049711 0.398248
v -0.195966 0.049334 0.401115
v -0.196584 0.049110 0.404115
v -0.196770 0.049042 0.407180
v -0.198649 0.048358 0.415492
v -0.198649 0.048358 0.407492
v -0.215564 0.042201 0.472180
v -0.196770 0.049042 0.415492
v -0.169333 0.181941 0.503185
v -0.169333 0.072058 0.503185
v -0.217443 0.041517 0.492180
v -0.217443 0.041517 0.472180
v -0.215564 0.042201 0.492180
v -0.197899 0.053254 0.557180
v -0.197899 0.053254 0.548304
v -0.176247 0.057072 0.386698
v -0.179271 0.056539 0.386679
v -0.182264 0.056011 0.387122
v -0.185157 0.055501 0.388019
v -0.187884 0.055020 0.389348
v -0.190382 0.054580 0.391079
v -0.192596 0.054189 0.393172
v -0.194473 0.053858 0.395580
v -0.195971 0.053594 0.398248
v -0.197056 0.053403 0.401115
v -0.197704 0.053289 0.404115
v -0.197899 0.053254 0.407180
v -0.199868 0.052907 0.415492
v -0.199868 0.052907 0.407492
v -0.217595 0.049781 0.472180
v -0.197899 0.053254 0.415492
v -0.219565 0.049434 0.492180
v -0.219565 0.049434 0.472180
v -0.217595 0.049781 0.492180
f 1 2 3
f 2 1 4
f 5 4 1
f 4 5 6
f 7 8 9
f 8 7 10
f 11 12 13
f 12 11 14
f 15 13 16
f 13 15 11
f 14 17 12
f 17 14 18
f 18 19 17
f 19 18 20
f 19 21 22
f 21 19 20
f 22 23 24
f 23 22 21
f 25 16 26
f 16 25 15
f 9 27 28
f 27 9 8
f 29 30 31
f 30 29 32
f 33 32 29
f 32 33 34
f 33 35 34
f 35 33 36
f 36 37 35
f 37 36 38
f 38 26 37
f 26 38 25
f 39 6 5
f 6 39 40
f 41 40 39
f 40 41 42
f 31 42 41
f 42 31 30
f 43 44 45
f 44 43 46
f 45 47 48
f 47 45 44
f 48 49 50
f 49 48 47
f 50 51 52
f 51 50 49
f 52 53 54
f 53 52 51
f 54 55 56
f 55 54 53
f 55 57 56
f 57 55 58
f 58 59 57
f 59 58 60
f 60 61 59
f 61 60 62
f 62 63 61
f 63 62 64
f 64 65 63
f 65 64 66
f 66 67 65
f 67 66 68
f 68 69 67
f 69 68 70
f 70 27 69
f 27 70 28
f 71 72 73
f 72 71 74
f 74 75 72
f 75 74 76
f 76 77 75
f 77 76 78
f 78 79 77
f 79 78 80
f 80 81 79
f 81 80 82
f 82 83 81
f 83 82 84
f 84 85 83
f 85 84 86
f 85 87 88
f 87 85 86
f 88 89 90
f 89 88 87
f 90 91 92
f 91 90 89
f 92 93 94
f 93 92 91
f 3 10 7
f 10 3 2
f 24 95 96
f 95 24 23
f 96 46 43
f 46 96 95
f 94 97 98
f 97 94 93
f 98 99 100
f 99 98 97
f 100 101 102
f 101 100 99
f 102 103 104
f 103 102 101
f 104 105 106
f 105 104 103
f 106 107 108
f 107 106 105
f 107 109 108
f 109 107 110
f 110 111 109
f 111 110 112
f 112 113 111
f 113 112 114
f 114 115 113
f 115 114 116
f 116 117 115
f 117 116 118
f 118 119 117
f 119 118 120
f 120 121 119
f 121 120 122
f 122 123 121
f 123 122 124
f 125 123 124
f 123 125 126
f 127 126 125
f 126 127 128
f 129 128 127
f 128 129 130
f 131 130 129
f 130 131 132
f 133 132 131
f 132 133 134
f 135 134 133
f 134 135 136
f 137 136 135
f 136 137 138
f 139 138 137
f 138 139 140
f 141 140 139
f 140 141 142
f 143 142 141
f 142 143 144
f 143 73 144
f 73 143 71
f 145 146 147
f 146 145 148
f 147 149 150
f 149 147 146
f 150 151 152
f 151 150 149
f 152 153 154
f 153 152 151
f 154 155 156
f 155 154 153
f 156 157 158
f 157 156 155
f 159 160 161
f 160 159 162
f 162 163 160
f 163 162 164
f 164 165 163
f 165 164 166
f 165 167 168
f 167 165 166
f 168 169 170
f 169 168 167
f 170 171 172
f 171 170 169
f 172 173 174
f 173 172 171
f 174 175 176
f 175 174 173
f 177 178 179
f 178 177 180
f 181 182 183
f 182 181 184
f 185 186 187
f 185 188 186
f 188 185 189
f 189 190 188
f 190 189 191
f 191 161 190
f 161 191 159
f 192 193 194
f 193 192 195
f 196 168 197
f 168 196 165
f 198 199 200
f 199 198 201
f 202 203 204
f 203 202 205
f 205 206 203
f 206 205 207
f 203 208 209
f 208 203 206
f 186 210 187
f 186 211 210
f 211 186 188
f 188 212 211
f 212 188 190
f 190 213 212
f 213 190 161
f 161 214 213
f 214 161 160
f 160 215 214
f 215 160 163
f 163 196 215
f 196 163 165
f 212 216 217
f 216 212 213
f 197 170 218
f 170 197 168
f 218 172 219
f 172 218 170
f 219 174 220
f 174 219 172
f 220 176 221
f 176 220 174
f 179 222 223
f 222 179 178
f 224 225 226
f 225 224 227
f 228 183 229
f 183 228 181
f 230 231 232
f 231 230 233
f 194 234 235
f 234 194 193
f 200 236 237
f 236 200 199
f 204 209 238
f 209 204 203
f 209 239 240
f 239 209 208
f 210 241 187
f 210 242 241
f 242 210 211
f 211 217 242
f 217 211 212
f 243 244 245
f 244 243 246
f 213 247 216
f 247 213 214
f 214 248 247
f 248 214 215
f 215 249 248
f 249 215 196
f 249 197 246
f 197 249 196
f 246 218 244
f 218 246 197
f 244 219 250
f 219 244 218
f 250 220 251
f 220 250 219
f 251 221 252
f 221 251 220
f 223 253 254
f 253 223 222
f 255 229 256
f 229 255 228
f 237 257 258
f 257 237 236
f 259 260 261
f 260 259 262
f 238 240 263
f 240 238 209
f 240 264 265
f 264 240 239
f 241 266 187
f 241 267 266
f 267 241 242
f 242 268 267
f 268 242 217
f 217 269 268
f 269 217 216
f 216 270 269
f 270 216 247
f 247 271 270
f 271 247 248
f 248 272 271
f 272 248 249
f 272 246 243
f 246 272 249
f 273 274 275
f 274 273 276
f 277 274 276
f 274 277 278
f 279 278 277
f 278 279 280
f 245 250 262
f 250 245 244
f 262 251 260
f 251 262 250
f 260 252 281
f 252 260 251
f 254 282 283
f 282 254 253
f 284 256 285
f 256 284 255
f 258 286 287
f 286 258 257
f 288 233 230
f 233 288 289
f 263 265 290
f 265 263 240
f 265 291 292
f 291 265 264
f 266 293 187
f 266 294 293
f 294 266 267
f 267 295 294
f 295 267 268
f 268 296 295
f 296 268 269
f 269 297 296
f 297 269 270
f 270 273 297
f 273 270 271
f 271 276 273
f 276 271 272
f 272 277 276
f 277 272 243
f 277 245 279
f 245 277 243
f 298 299 300
f 299 298 301
f 302 303 301
f 303 302 304
f 279 262 259
f 262 279 245
f 261 281 305
f 281 261 260
f 283 306 307
f 306 283 282
f 285 308 284
f 308 285 309
f 287 310 311
f 310 287 286
f 312 313 314
f 313 312 315
f 290 292 316
f 292 290 265
f 291 298 292
f 298 291 317
f 293 318 187
f 293 319 318
f 319 293 294
f 294 320 319
f 320 294 295
f 295 321 320
f 321 295 296
f 304 322 303
f 322 304 323
f 324 325 187
f 324 326 325
f 326 324 327
f 296 328 321
f 328 296 297
f 297 275 328
f 275 297 273
f 259 280 279
f 280 259 329
f 261 329 259
f 329 261 330
f 305 330 261
f 330 305 331
f 306 332 307
f 332 306 333
f 309 334 308
f 334 309 335
f 310 336 311
f 336 310 337
f 338 315 312
f 315 338 339
f 292 300 316
f 300 292 298
f 317 301 298
f 301 317 302
f 318 340 187
f 318 341 340
f 341 318 319
f 319 342 341
f 342 319 320
f 320 343 342
f 343 320 321
f 321 344 343
f 344 321 328
f 328 345 344
f 345 328 275
f 275 346 345
f 346 275 274
f 278 346 274
f 346 278 347
f 280 347 278
f 347 280 348
f 329 348 280
f 348 329 349
f 330 349 329
f 349 330 350
f 331 350 330
f 350 331 351
f 333 352 332
f 352 333 353
f 335 354 334
f 354 335 355
f 337 356 336
f 356 337 357
f 358 359 360
f 359 358 361
f 362 363 364
f 363 362 365
f 366 367 368
f 367 366 369
f 340 324 187
f 340 327 324
f 327 340 341
f 341 370 327
f 370 341 342
f 342 371 370
f 371 342 343
f 343 372 371
f 372 343 344
f 344 373 372
f 373 344 345
f 345 374 373
f 374 345 346
f 347 374 346
f 374 347 375
f 348 375 347
f 375 348 376
f 349 376 348
f 376 349 377
f 350 377 349
f 377 350 378
f 351 378 350
f 378 351 379
f 353 380 352
f 380 353 381
f 355 382 354
f 382 355 383
f 357 384 356
f 384 357 385
f 301 386 299
f 386 301 303
f 387 388 389
f 388 387 390
f 389 391 392
f 391 389 388
f 392 393 394
f 393 392 391
f 395 394 393
f 394 395 396
f 397 396 395
f 396 397 398
f 399 398 397
f 398 399 400
f 327 401 326
f 401 327 370
f 370 402 401
f 402 370 371
f 371 403 402
f 403 371 372
f 372 404 403
f 404 372 373
f 373 405 404
f 405 373 374
f 375 405 374
f 405 375 406
f 376 406 375
f 406 376 407
f 377 407 376
f 407 377 408
f 378 408 377
f 408 378 409
f 379 409 378
f 409 379 410
f 381 411 380
f 411 381 412
f 383 413 382
f 413 383 414
f 385 415 384
f 415 385 416
f 417 289 288
f 289 417 418
f 303 419 386
f 419 303 322
f 323 420 322
f 420 323 421
f 325 148 187
f 148 326 146
f 326 148 325
f 146 401 149
f 401 146 326
f 149 402 151
f 402 149 401
f 151 403 153
f 403 151 402
f 153 404 155
f 404 153 403
f 155 405 157
f 405 155 404
f 406 157 405
f 157 406 422
f 407 422 406
f 422 407 423
f 408 423 407
f 423 408 424
f 409 424 408
f 424 409 360
f 410 360 409
f 360 410 358
f 412 364 411
f 364 412 362
f 425 368 426
f 368 425 366
f 414 427 413
f 427 414 428
f 416 429 415
f 429 416 430
f 322 431 419
f 431 322 420
f 421 432 420
f 432 421 433
f 434 435 436
f 435 434 437
f 438 439 440
f 439 438 441
f 442 443 444
f 443 442 445
f 446 447 448
f 447 446 449
f 450 451 449
f 451 450 452
f 187 148 145
f 422 158 157
f 158 422 453
f 423 453 422
f 453 423 454
f 424 454 423
f 454 424 455
f 360 455 424
f 455 360 359
f 456 457 458
f 457 456 459
f 458 460 461
f 460 458 457
f 461 462 463
f 462 461 460
f 464 462 465
f 462 464 463
f 466 465 467
f 465 466 464
f 428 468 427
f 468 428 469
f 470 339 338
f 339 470 471
f 430 472 429
f 472 430 473
f 420 474 431
f 474 420 432
f 433 475 432
f 475 433 476
f 187 145 477
f 477 147 478
f 147 477 145
f 478 150 479
f 150 478 147
f 479 152 390
f 152 479 150
f 390 154 388
f 154 390 152
f 388 156 391
f 156 388 154
f 391 158 393
f 158 391 156
f 453 393 158
f 393 453 395
f 454 395 453
f 395 454 397
f 455 397 454
f 397 455 399
f 359 399 455
f 399 359 480
f 361 480 359
f 480 361 481
f 365 482 363
f 482 365 483
f 469 484 468
f 484 469 485
f 367 471 470
f 471 367 369
f 473 486 472
f 486 473 487
f 432 488 474
f 488 432 475
f 476 489 475
f 489 476 490
f 187 477 491
f 492 493 494
f 493 492 495
f 496 494 497
f 494 496 492
f 498 497 499
f 497 498 496
f 500 499 501
f 499 500 498
f 502 503 504
f 503 502 505
f 506 507 508
f 507 506 509
f 510 511 512
f 511 510 513
f 491 478 514
f 478 491 477
f 514 479 515
f 479 514 478
f 515 390 387
f 390 515 479
f 480 400 399
f 400 480 516
f 481 516 480
f 516 481 517
f 483 518 482
f 518 483 519
f 485 520 484
f 520 485 521
f 487 522 486
f 522 487 523
f 314 418 417
f 418 314 313
f 475 524 488
f 524 475 489
f 525 489 490
f 489 525 526
f 187 491 527
f 527 514 528
f 514 527 491
f 528 515 529
f 515 528 514
f 529 387 530
f 387 529 515
f 530 389 531
f 389 530 387
f 531 392 532
f 392 531 389
f 532 394 533
f 394 532 392
f 533 396 534
f 396 533 394
f 535 396 398
f 396 535 534
f 536 398 400
f 398 536 535
f 537 400 516
f 400 537 536
f 538 516 517
f 516 538 537
f 539 518 519
f 518 539 540
f 541 520 521
f 520 541 542
f 543 522 523
f 522 543 544
f 545 546 547
f 546 545 548
f 489 549 524
f 549 489 526
f 550 526 525
f 526 550 551
f 187 527 552
f 552 528 553
f 528 552 527
f 553 529 554
f 529 553 528
f 554 530 555
f 530 554 529
f 555 531 556
f 531 555 530
f 556 532 557
f 532 556 531
f 557 533 558
f 533 557 532
f 559 533 534
f 533 559 558
f 560 534 535
f 534 560 559
f 561 535 536
f 535 561 560
f 562 536 537
f 536 562 561
f 563 537 538
f 537 563 562
f 564 540 539
f 540 564 565
f 566 542 541
f 542 566 567
f 568 544 543
f 544 568 569
f 235 570 571
f 570 235 234
f 526 572 549
f 572 526 551
f 573 551 550
f 551 573 574
f 187 552 575
f 575 553 576
f 553 575 552
f 576 554 577
f 554 576 553
f 577 555 459
f 555 577 554
f 459 556 457
f 556 459 555
f 457 557 460
f 557 457 556
f 460 558 462
f 558 460 557
f 465 558 559
f 558 465 462
f 467 559 560
f 559 467 465
f 578 560 561
f 560 578 467
f 579 561 562
f 561 579 578
f 580 562 563
f 562 580 579
f 581 565 564
f 565 581 582
f 583 567 566
f 567 583 584
f 585 569 568
f 569 585 586
f 509 570 507
f 570 509 571
f 551 587 572
f 587 551 574
f 588 574 573
f 574 588 589
f 590 591 592
f 591 590 593
f 594 593 590
f 593 594 595
f 596 595 594
f 595 596 597
f 598 597 596
f 597 598 599
f 600 599 598
f 599 600 601
f 602 603 604
f 603 602 605
f 187 575 606
f 606 576 607
f 576 606 575
f 607 577 608
f 577 607 576
f 608 459 456
f 459 608 577
f 609 467 578
f 467 609 466
f 610 578 579
f 578 610 609
f 611 579 580
f 579 611 610
f 612 582 581
f 582 612 613
f 614 584 583
f 584 614 615
f 616 586 585
f 586 616 617
f 574 618 587
f 618 574 589
f 619 589 588
f 589 619 620
f 621 622 623
f 622 621 624
f 187 606 625
f 625 607 626
f 607 625 606
f 626 608 627
f 608 626 607
f 627 456 628
f 456 627 608
f 628 458 629
f 458 628 456
f 629 461 630
f 461 629 458
f 630 463 631
f 463 630 461
f 493 463 464
f 463 493 631
f 494 464 466
f 464 494 493
f 497 466 609
f 466 497 494
f 499 609 610
f 609 499 497
f 501 610 611
f 610 501 499
f 504 613 612
f 613 504 503
f 632 508 633
f 508 632 506
f 512 615 614
f 615 512 511
f 634 617 616
f 617 634 635
f 589 636 618
f 636 589 620
f 637 620 619
f 620 637 638
f 639 623 640
f 623 639 621
f 187 625 641
f 642 625 626
f 625 642 641
f 643 626 627
f 626 643 642
f 644 627 628
f 627 644 643
f 645 628 629
f 628 645 644
f 646 436 647
f 436 646 434
f 648 440 649
f 440 648 438
f 650 444 651
f 444 650 442
f 652 448 653
f 448 652 446
f 654 449 446
f 449 654 450
f 655 187 656
f 657 655 656
f 655 657 658
f 659 658 657
f 658 659 660
f 661 660 659
f 660 661 662
f 663 662 661
f 662 663 664
f 665 629 630
f 629 665 645
f 666 630 631
f 630 666 665
f 495 631 493
f 631 495 666
f 667 635 634
f 635 667 668
f 669 426 670
f 426 669 425
f 638 636 620
f 636 638 671
f 672 638 637
f 638 672 673
f 187 641 674
f 675 641 642
f 641 675 674
f 676 642 643
f 642 676 675
f 677 643 644
f 643 677 676
f 678 644 645
f 644 678 677
f 679 645 665
f 645 679 678
f 680 665 666
f 665 680 679
f 495 680 666
f 680 495 681
f 492 681 495
f 681 492 682
f 496 682 492
f 682 496 683
f 498 683 496
f 683 498 684
f 500 684 498
f 684 500 685
f 686 505 502
f 505 686 687
f 510 688 513
f 688 510 689
f 690 633 691
f 633 690 632
f 692 668 667
f 668 692 693
f 694 670 695
f 670 694 669
f 673 671 638
f 671 673 696
f 697 673 672
f 673 697 698
f 187 674 699
f 700 674 675
f 674 700 699
f 701 675 676
f 675 701 700
f 702 676 677
f 676 702 701
f 703 677 678
f 677 703 702
f 704 678 679
f 678 704 703
f 705 679 680
f 679 705 704
f 681 705 680
f 705 681 706
f 682 706 681
f 706 682 547
f 683 547 682
f 547 683 545
f 684 545 683
f 545 684 707
f 685 707 684
f 707 685 708
f 709 687 686
f 687 709 710
f 689 711 688
f 711 689 712
f 713 691 714
f 691 713 690
f 715 693 692
f 693 715 716
f 698 696 673
f 696 698 717
f 718 698 697
f 698 718 719
f 187 699 720
f 721 699 700
f 699 721 720
f 722 700 701
f 700 722 721
f 723 701 702
f 701 723 722
f 724 702 703
f 702 724 723
f 725 703 704
f 703 725 724
f 726 704 705
f 704 726 725
f 706 726 705
f 726 706 727
f 728 729 730
f 729 728 731
f 547 727 706
f 727 547 546
f 707 548 545
f 548 707 732
f 708 732 707
f 732 708 733
f 734 710 709
f 710 734 735
f 712 736 711
f 736 712 737
f 738 716 715
f 716 738 739
f 719 717 698
f 717 719 740
f 718 741 719
f 741 718 742
f 187 720 743
f 744 720 721
f 720 744 743
f 745 721 722
f 721 745 744
f 746 722 723
f 722 746 745
f 747 723 724
f 723 747 746
f 748 724 725
f 724 748 747
f 749 725 726
f 725 749 748
f 750 726 727
f 726 750 749
f 546 750 727
f 750 546 751
f 548 751 546
f 751 548 752
f 732 752 548
f 752 732 753
f 733 753 732
f 753 733 754
f 734 755 735
f 755 734 756
f 737 757 736
f 757 737 758
f 738 759 739
f 759 738 760
f 719 761 740
f 761 719 741
f 742 762 741
f 762 742 763
f 187 743 764
f 765 743 744
f 743 765 764
f 766 744 745
f 744 766 765
f 767 745 746
f 745 767 766
f 768 746 747
f 746 768 767
f 769 747 748
f 747 769 768
f 592 748 749
f 748 592 769
f 750 592 749
f 592 750 590
f 751 590 750
f 590 751 594
f 752 594 751
f 594 752 596
f 753 596 752
f 596 753 598
f 754 598 753
f 598 754 600
f 756 604 755
f 604 756 602
f 758 770 757
f 770 758 771
f 772 695 773
f 695 772 694
f 760 774 759
f 774 760 775
f 624 773 622
f 773 624 772
f 741 776 761
f 776 741 762
f 763 777 762
f 777 763 778
f 187 764 779
f 780 764 765
f 764 780 779
f 781 765 766
f 765 781 780
f 782 766 767
f 766 782 781
f 783 767 768
f 767 783 782
f 784 768 769
f 768 784 783
f 591 769 592
f 769 591 784
f 771 785 770
f 785 771 786
f 775 787 774
f 787 775 788
f 762 789 776
f 789 762 777
f 778 790 777
f 790 778 791
f 792 226 793
f 226 792 224
f 187 779 794
f 795 779 780
f 779 795 794
f 796 780 781
f 780 796 795
f 797 781 782
f 781 797 796
f 798 782 783
f 782 798 797
f 799 783 784
f 783 799 798
f 800 784 591
f 784 800 799
f 593 800 591
f 800 593 801
f 595 801 593
f 801 595 802
f 597 802 595
f 802 597 803
f 599 803 597
f 803 599 804
f 601 804 599
f 804 601 805
f 605 806 603
f 806 605 807
f 786 808 785
f 808 786 809
f 788 810 787
f 810 788 811
f 777 812 789
f 812 777 790
f 791 652 790
f 652 791 813
f 187 794 814
f 815 794 795
f 794 815 814
f 816 795 796
f 795 816 815
f 817 796 797
f 796 817 816
f 818 797 798
f 797 818 817
f 819 798 799
f 798 819 818
f 820 799 800
f 799 820 819
f 801 820 800
f 820 801 821
f 802 821 801
f 821 802 822
f 803 822 802
f 822 803 823
f 804 823 803
f 823 804 824
f 805 824 804
f 824 805 825
f 807 647 806
f 647 807 646
f 809 649 808
f 649 809 648
f 811 651 810
f 651 811 650
f 790 653 812
f 653 790 652
f 813 446 652
f 446 813 654
f 826 714 827
f 714 826 713
f 828 187 829
f 656 187 814
f 657 814 815
f 814 657 656
f 816 657 815
f 657 816 659
f 661 816 817
f 816 661 659
f 818 661 817
f 661 818 663
f 830 818 819
f 818 830 663
f 831 819 820
f 819 831 830
f 821 831 820
f 831 821 832
f 822 832 821
f 832 822 833
f 823 833 822
f 833 823 834
f 824 834 823
f 834 824 835
f 825 835 824
f 835 825 836
f 830 664 663
f 664 830 837
f 831 837 830
f 837 831 838
f 832 838 831
f 838 832 839
f 833 839 832
f 839 833 840
f 834 840 833
f 840 834 841
f 835 841 834
f 841 835 842
f 836 842 835
f 842 836 843
f 844 187 655
f 658 844 655
f 844 658 845
f 660 845 658
f 845 660 846
f 662 846 660
f 846 662 847
f 664 847 662
f 847 664 848
f 837 848 664
f 848 837 849
f 838 849 837
f 849 838 850
f 839 850 838
f 850 839 851
f 840 851 839
f 851 840 852
f 841 852 840
f 852 841 853
f 842 853 841
f 853 842 854
f 843 854 842
f 854 843 855
f 437 856 435
f 856 437 857
f 441 858 439
f 858 441 859
f 639 860 861
f 860 639 640
f 445 862 443
f 862 445 863
f 864 865 866
f 865 864 867
f 449 868 447
f 868 449 451
f 452 869 451
f 869 452 870
f 227 827 225
f 827 227 826
f 829 187 844
f 845 829 844
f 829 845 871
f 846 871 845
f 871 846 872
f 847 872 846
f 872 847 873
f 848 873 847
f 873 848 874
f 849 874 848
f 874 849 875
f 850 875 849
f 875 850 876
f 851 876 850
f 876 851 877
f 852 877 851
f 877 852 878
f 853 878 852
f 878 853 879
f 854 879 853
f 879 854 880
f 855 880 854
f 880 855 881
f 857 882 856
f 882 857 883
f 859 884 858
f 884 859 885
f 861 886 887
f 886 861 860
f 863 888 862
f 888 863 889
f 232 792 793
f 792 232 231
f 451 890 868
f 890 451 869
f 869 891 892
f 891 869 870
f 871 828 829
f 828 871 893
f 872 893 871
f 893 872 894
f 873 894 872
f 894 873 895
f 874 895 873
f 895 874 896
f 875 896 874
f 896 875 897
f 876 897 875
f 897 876 898
f 877 898 876
f 898 877 899
f 877 900 899
f 900 877 878
f 878 901 900
f 901 878 879
f 879 902 901
f 902 879 880
f 880 903 902
f 903 880 881
f 882 904 905
f 904 882 883
f 884 731 728
f 731 884 885
f 888 906 907
f 906 888 889
f 887 908 909
f 908 887 886
f 910 869 892
f 869 910 890
f 892 911 912
f 911 892 891
f 913 187 828
f 893 913 828
f 913 893 914
f 894 914 893
f 914 894 915
f 895 915 894
f 915 895 916
f 896 916 895
f 916 896 917
f 897 917 896
f 917 897 918
f 898 918 897
f 918 898 919
f 898 920 919
f 920 898 899
f 899 921 920
f 921 899 900
f 900 922 921
f 922 900 901
f 901 923 922
f 923 901 902
f 902 924 923
f 924 902 903
f 905 925 926
f 925 905 904
f 907 927 928
f 927 907 906
f 909 867 864
f 867 909 908
f 929 892 912
f 892 929 910
f 912 930 931
f 930 912 911
f 932 187 913
f 914 932 913
f 932 914 933
f 915 933 914
f 933 915 934
f 916 934 915
f 934 916 935
f 917 935 916
f 935 917 936
f 918 936 917
f 936 918 937
f 919 937 918
f 937 919 938
f 919 939 938
f 939 919 920
f 920 940 939
f 940 920 921
f 921 941 940
f 941 921 922
f 922 942 941
f 942 922 923
f 923 943 942
f 943 923 924
f 926 944 945
f 944 926 925
f 730 946 947
f 946 730 729
f 866 948 949
f 948 866 865
f 928 950 951
f 950 928 927
f 952 912 931
f 912 952 929
f 931 953 954
f 953 931 930
f 955 187 932
f 933 955 932
f 955 933 956
f 934 956 933
f 956 934 957
f 935 957 934
f 957 935 958
f 936 958 935
f 958 936 959
f 937 959 936
f 959 937 960
f 938 960 937
f 960 938 961
f 938 962 961
f 962 938 939
f 939 963 962
f 963 939 940
f 940 964 963
f 964 940 941
f 941 965 964
f 965 941 942
f 942 966 965
f 966 942 943
f 945 967 968
f 967 945 944
f 947 969 970
f 969 947 946
f 949 195 192
f 195 949 948
f 951 971 972
f 971 951 950
f 973 931 954
f 931 973 952
f 954 207 205
f 207 954 953
f 185 187 955
f 956 185 955
f 185 956 189
f 957 189 956
f 189 957 191
f 958 191 957
f 191 958 159
f 959 159 958
f 159 959 162
f 960 162 959
f 162 960 164
f 961 164 960
f 164 961 166
f 961 167 166
f 167 961 962
f 962 169 167
f 169 962 963
f 963 171 169
f 171 963 964
f 964 173 171
f 173 964 965
f 965 175 173
f 175 965 966
f 968 180 177
f 180 968 967
f 970 182 184
f 182 970 969
f 972 201 198
f 201 972 971
f 973 205 202
f 205 973 954
