v -0.077497 0.238940 0.483655
v -0.082815 0.237600 0.483655
v -0.087214 0.237746 0.483655
v -0.073100 0.236026 0.483655
v -0.078581 0.236228 0.483655
v -0.074800 0.233723 0.483655
v -0.069529 0.231992 0.483655
v -0.071731 0.230254 0.483655
v -0.067029 0.227113 0.483655
v -0.069581 0.226060 0.483655
v -0.065769 0.221723 0.483655
v -0.068498 0.221425 0.483655
v -0.068555 0.216666 0.483655
v -0.065836 0.216187 0.483655
v -0.069749 0.212106 0.483655
v -0.067224 0.210884 0.483655
v -0.071998 0.208057 0.483655
v -0.069840 0.206175 0.483655
v -0.075148 0.204794 0.483655
v -0.073504 0.202381 0.483655
v -0.078986 0.202540 0.483655
v -0.083250 0.201449 0.483655
v -0.092967 0.200255 0.483655
v -0.088043 0.198659 0.483655
v -0.077968 0.199759 0.483655
v -0.082927 0.198490 0.483655
v -0.082421 0.240536 0.483655
v -0.092496 0.239436 0.483655
v -0.087537 0.240705 0.483655
v -0.096959 0.236814 0.483655
v -0.091477 0.236654 0.483655
v -0.100624 0.233020 0.483655
v -0.095315 0.234401 0.483655
v -0.098466 0.231138 0.483655
v -0.103240 0.228311 0.483655
v -0.100715 0.227089 0.483655
v -0.104628 0.223008 0.483655
v -0.101909 0.222529 0.483655
v -0.104695 0.217472 0.483655
v -0.101966 0.217770 0.483655
v -0.100883 0.213135 0.483655
v -0.103435 0.212082 0.483655
v -0.098733 0.208941 0.483655
v -0.100935 0.207203 0.483655
v -0.095663 0.205472 0.483655
v -0.097364 0.203169 0.483655
v -0.091883 0.202967 0.483655
v -0.087649 0.201595 0.483655
v -0.068498 0.221425 0.503413
v -0.069581 0.226060 0.503413
v -0.070708 0.201763 0.514092
v -0.069515 0.204119 0.517403
v -0.070895 0.203471 0.513989
v -0.069288 0.202042 0.517528
v -0.072977 0.201408 0.511141
v -0.073129 0.202801 0.511058
v -0.076066 0.202152 0.508808
v -0.075940 0.201002 0.508877
v -0.079505 0.201571 0.507394
v -0.079396 0.200574 0.507454
v -0.083212 0.201096 0.506912
v -0.083108 0.200151 0.506968
v -0.086824 0.199762 0.507454
v -0.086933 0.200760 0.507394
v -0.090291 0.199435 0.508877
v -0.090417 0.200585 0.508808
v -0.093272 0.199192 0.511141
v -0.093424 0.200584 0.511058
v -0.095751 0.200757 0.513989
v -0.095564 0.199048 0.514092
v -0.097238 0.201091 0.517403
v -0.097011 0.199014 0.517528
v -0.097784 0.201565 0.521067
v -0.097515 0.199093 0.521215
v -0.097353 0.202145 0.524731
v -0.097040 0.199278 0.524903
v -0.095973 0.202793 0.528145
v -0.095620 0.199558 0.528339
v -0.093738 0.203463 0.531076
v -0.093351 0.199912 0.531289
v -0.090387 0.200318 0.533553
v -0.090802 0.204111 0.533326
v -0.086932 0.200747 0.534977
v -0.087363 0.204693 0.534740
v -0.083220 0.201170 0.535462
v -0.083656 0.205168 0.535222
v -0.079934 0.205504 0.534740
v -0.079503 0.201558 0.534977
v -0.076451 0.205679 0.533326
v -0.076037 0.201885 0.533553
v -0.073444 0.205680 0.531076
v -0.073056 0.202128 0.531289
v -0.070764 0.202272 0.528339
v -0.071117 0.205507 0.528145
v -0.069317 0.202306 0.524903
v -0.069630 0.205173 0.524731
v -0.068813 0.202227 0.521215
v -0.069083 0.204699 0.521067
v -0.071954 0.213173 0.503647
v -0.070930 0.217083 0.503413
v -0.071954 0.213173 0.503413
v -0.070930 0.217083 0.503759
v -0.073883 0.209701 0.503550
v -0.073883 0.209701 0.503413
v -0.076585 0.206903 0.503413
v -0.076585 0.206903 0.503476
v -0.079876 0.204970 0.503413
v -0.079876 0.204970 0.503429
v -0.083532 0.204034 0.503413
v -0.087304 0.204159 0.503413
v -0.087304 0.204159 0.503429
v -0.090935 0.205336 0.503413
v -0.090935 0.205336 0.503476
v -0.094178 0.207484 0.503413
v -0.094178 0.207484 0.503550
v -0.096810 0.210459 0.503647
v -0.096810 0.210459 0.503413
v -0.098654 0.214056 0.503759
v -0.098654 0.214056 0.503413
v -0.099583 0.218030 0.503880
v -0.099583 0.218030 0.503413
v -0.099533 0.222112 0.504000
v -0.099533 0.222112 0.503413
v -0.098510 0.226022 0.504113
v -0.098510 0.226022 0.503413
v -0.096581 0.229494 0.504210
v -0.096581 0.229494 0.503413
v -0.093879 0.232292 0.503413
v -0.093879 0.232292 0.504284
v -0.069247 0.201664 0.517528
v -0.070680 0.201508 0.514092
v -0.072961 0.201259 0.511141
v -0.075933 0.200934 0.508877
v -0.079394 0.200556 0.507454
v -0.086822 0.199745 0.507454
v -0.090284 0.199367 0.508877
v -0.093256 0.199042 0.511141
v -0.095536 0.198793 0.514092
v -0.096970 0.198637 0.517528
v -0.097459 0.198583 0.521215
v -0.096970 0.198637 0.524903
v -0.095536 0.198793 0.528339
v -0.093256 0.199042 0.531289
v -0.090284 0.199367 0.533553
v -0.086822 0.199745 0.534977
v -0.083108 0.200151 0.535462
v -0.079394 0.200556 0.534977
v -0.075933 0.200934 0.533553
v -0.072961 0.201259 0.531289
v -0.070680 0.201508 0.528339
v -0.069247 0.201664 0.524903
v -0.068758 0.201718 0.521215
v -0.099551 0.176513 0.516214
v -0.099551 0.176513 0.526216
v -0.100214 0.176441 0.521215
v -0.097606 0.176726 0.511554
v -0.097606 0.176726 0.530876
v -0.097485 0.176739 0.521215
v -0.096915 0.176801 0.516915
v -0.094513 0.177064 0.507553
v -0.095243 0.176984 0.512909
v -0.092584 0.177274 0.509468
v -0.090483 0.177504 0.504482
v -0.089118 0.177653 0.506828
v -0.085788 0.178016 0.502552
v -0.085082 0.178093 0.505168
v -0.080751 0.178566 0.501893
v -0.080751 0.178566 0.504602
v -0.075714 0.179117 0.502552
v -0.076420 0.179039 0.505168
v -0.072384 0.179480 0.506828
v -0.071020 0.179629 0.504482
v -0.068918 0.179859 0.509468
v -0.066989 0.180069 0.507553
v -0.066259 0.180149 0.512909
v -0.063896 0.180407 0.511554
v -0.064587 0.180332 0.516915
v -0.064017 0.180394 0.521215
v -0.096915 0.176801 0.525515
v -0.094513 0.177064 0.534878
v -0.095243 0.176984 0.529522
v -0.092584 0.177274 0.532963
v -0.090483 0.177504 0.537949
v -0.089118 0.177653 0.535603
v -0.085788 0.178016 0.539879
v -0.085082 0.178093 0.537262
v -0.080751 0.178566 0.540537
v -0.080751 0.178566 0.537828
v -0.076420 0.179039 0.537262
v -0.075714 0.179117 0.539879
v -0.072384 0.179480 0.535603
v -0.071020 0.179629 0.537949
v -0.068918 0.179859 0.532963
v -0.066989 0.180069 0.534878
v -0.066259 0.180149 0.529522
v -0.063896 0.180407 0.530876
v -0.064587 0.180332 0.525515
v -0.061952 0.180619 0.516214
v -0.061952 0.180619 0.526216
v -0.061289 0.180692 0.521215
v -0.082815 0.237600 0.503413
v -0.091477 0.236654 0.503413
v -0.087214 0.237746 0.503413
v -0.078581 0.236228 0.503413
v -0.095315 0.234401 0.503413
v -0.086931 0.235161 0.503413
v -0.083159 0.235036 0.503413
v -0.074800 0.233723 0.503413
v -0.079528 0.233859 0.503413
v -0.076286 0.231711 0.503413
v -0.071731 0.230254 0.503413
v -0.073654 0.228736 0.503413
v -0.071810 0.225139 0.503413
v -0.070881 0.221165 0.503413
v -0.068555 0.216666 0.503413
v -0.069749 0.212106 0.503413
v -0.071998 0.208057 0.503413
v -0.075148 0.204794 0.503413
v -0.090588 0.234225 0.503413
v -0.098466 0.231138 0.503413
v -0.100715 0.227089 0.503413
v -0.101909 0.222529 0.503413
v -0.101966 0.217770 0.503413
v -0.100883 0.213135 0.503413
v -0.098733 0.208941 0.503413
v -0.095663 0.205472 0.503413
v -0.091883 0.202967 0.503413
v -0.078986 0.202540 0.503413
v -0.087649 0.201595 0.503413
v -0.083250 0.201449 0.503413
v -0.066374 0.201978 0.521215
v -0.066944 0.201916 0.525515
v -0.068616 0.201733 0.529522
v -0.071275 0.201443 0.532963
v -0.074741 0.201064 0.535603
v -0.078777 0.200624 0.537262
v -0.083108 0.200151 0.537828
v -0.087439 0.199678 0.537262
v -0.091475 0.199237 0.535603
v -0.094941 0.198858 0.532963
v -0.097601 0.198568 0.529522
v -0.099272 0.198385 0.525515
v -0.099842 0.198323 0.521215
v -0.099272 0.198385 0.516915
v -0.097601 0.198568 0.512909
v -0.094941 0.198858 0.509468
v -0.091475 0.199237 0.506828
v -0.087439 0.199678 0.505168
v -0.083108 0.200151 0.504602
v -0.074741 0.201064 0.506828
v -0.078777 0.200624 0.505168
v -0.071275 0.201443 0.509468
v -0.068616 0.201733 0.512909
v -0.066944 0.201916 0.516915
v -0.090588 0.234225 0.504330
v -0.086931 0.235161 0.504346
v -0.083159 0.235036 0.504330
v -0.079528 0.233859 0.504284
v -0.076286 0.231711 0.504210
v -0.073654 0.228736 0.504113
v -0.071810 0.225139 0.504000
v -0.070881 0.221165 0.503880
v -0.071942 0.213061 0.505211
v -0.070915 0.216947 0.505660
v -0.073873 0.209609 0.504825
v -0.076576 0.206827 0.504529
v -0.079869 0.204905 0.504342
v -0.083526 0.203972 0.504279
v -0.087297 0.204093 0.504342
v -0.090927 0.205260 0.504529
v -0.094168 0.207393 0.504825
v -0.096798 0.210347 0.505211
v -0.098639 0.213920 0.505660
v -0.099565 0.217868 0.506143
v -0.099513 0.221924 0.506625
v -0.098487 0.225810 0.507074
v -0.096556 0.229262 0.507460
v -0.093852 0.232044 0.507756
v -0.090560 0.233966 0.507943
v -0.086903 0.234899 0.508006
v -0.083131 0.234778 0.507943
v -0.079501 0.233611 0.507756
v -0.076261 0.231478 0.507460
v -0.073630 0.228524 0.507074
v -0.071790 0.224951 0.506625
v -0.070864 0.221003 0.506143
v -0.071911 0.212777 0.506519
v -0.070874 0.216567 0.507410
v -0.073851 0.209408 0.505754
v -0.076561 0.206689 0.505166
v -0.079858 0.204806 0.504797
v -0.083516 0.203887 0.504671
v -0.087287 0.203995 0.504797
v -0.090912 0.205122 0.505166
v -0.094146 0.207191 0.505754
v -0.096767 0.210062 0.506519
v -0.098597 0.213539 0.507410
v -0.099512 0.217385 0.508367
v -0.099449 0.221338 0.509323
v -0.098412 0.225128 0.510214
v -0.096472 0.228497 0.510979
v -0.093762 0.231216 0.511567
v -0.090465 0.233099 0.511936
v -0.086807 0.234018 0.512062
v -0.083036 0.233910 0.511936
v -0.079411 0.232783 0.511567
v -0.076177 0.230713 0.510979
v -0.073556 0.227842 0.510214
v -0.071726 0.224365 0.509323
v -0.070811 0.220519 0.508367
v -0.071860 0.212308 0.507782
v -0.070806 0.215940 0.509100
v -0.073814 0.209075 0.506650
v -0.076536 0.206461 0.505782
v -0.079840 0.204643 0.505236
v -0.083501 0.203746 0.505050
v -0.087269 0.203832 0.505236
v -0.090887 0.204893 0.505782
v -0.094109 0.206859 0.506650
v -0.096716 0.209594 0.507782
v -0.098529 0.212913 0.509100
v -0.099425 0.216589 0.510514
v -0.099343 0.220372 0.511928
v -0.098289 0.224004 0.513246
v -0.096335 0.227237 0.514377
v -0.093613 0.229851 0.515246
v -0.090309 0.231669 0.515791
v -0.086648 0.232566 0.515978
v -0.082880 0.232480 0.515791
v -0.079262 0.231419 0.515246
v -0.076040 0.229453 0.514377
v -0.073433 0.226718 0.513246
v -0.071620 0.223399 0.511928
v -0.070724 0.219723 0.510514
v -0.071789 0.211664 0.508978
v -0.070711 0.215078 0.510700
v -0.073764 0.208617 0.507500
v -0.076502 0.206146 0.506365
v -0.079816 0.204419 0.505652
v -0.083480 0.203553 0.505409
v -0.087244 0.203608 0.505652
v -0.090853 0.204579 0.506365
v -0.094059 0.206401 0.507500
v -0.096645 0.208950 0.508978
v -0.098435 0.212051 0.510700
v -0.099306 0.215493 0.512548
v -0.099198 0.219043 0.514395
v -0.098120 0.222457 0.516117
v -0.096145 0.225503 0.517595
v -0.093408 0.227974 0.518730
v -0.090094 0.229702 0.519443
v -0.086430 0.230568 0.519686
v -0.082665 0.230513 0.519443
v -0.079057 0.229542 0.518730
v -0.075850 0.227720 0.517595
v -0.073264 0.225171 0.516117
v -0.071475 0.222070 0.514395
v -0.070604 0.218627 0.512548
v -0.071701 0.210854 0.510087
v -0.070593 0.213995 0.512183
v -0.073702 0.208043 0.508287
v -0.076459 0.205752 0.506906
v -0.079785 0.204138 0.506038
v -0.083453 0.203310 0.505741
v -0.087214 0.203326 0.506038
v -0.090810 0.204185 0.506906
v -0.093997 0.205826 0.508287
v -0.096557 0.208140 0.510087
v -0.098317 0.210968 0.512183
v -0.099155 0.214117 0.514433
v -0.099016 0.217373 0.516683
v -0.097908 0.220514 0.518779
v -0.095908 0.223326 0.520579
v -0.093150 0.225617 0.521960
v -0.089824 0.227231 0.522828
v -0.086156 0.228058 0.523125
v -0.082396 0.228042 0.522828
v -0.078799 0.227184 0.521960
v -0.075613 0.225542 0.520579
v -0.073052 0.223228 0.518779
v -0.071293 0.220400 0.516683
v -0.070454 0.217251 0.514433
v -0.071596 0.209894 0.511090
v -0.070453 0.212710 0.513525
v -0.073627 0.207361 0.508999
v -0.076408 0.205283 0.507395
v -0.079749 0.203804 0.506386
v -0.083422 0.203022 0.506042
v -0.087177 0.202992 0.506386
v -0.090759 0.203716 0.507395
v -0.093922 0.205144 0.508999
v -0.096452 0.207179 0.511090
v -0.098176 0.209683 0.513525
v -0.098977 0.212484 0.516138
v -0.098800 0.215392 0.518751
v -0.097656 0.218208 0.521186
v -0.095625 0.220741 0.523277
v -0.092845 0.222818 0.524881
v -0.089504 0.224298 0.525890
v -0.085831 0.225079 0.526233
v -0.082075 0.225109 0.525890
v -0.078494 0.224385 0.524881
v -0.075330 0.222957 0.523277
v -0.072800 0.220922 0.521186
v -0.071076 0.218419 0.518751
v -0.070276 0.215618 0.516138
v -0.071476 0.208798 0.511969
v -0.070293 0.211245 0.514701
v -0.073542 0.206583 0.509623
v -0.076350 0.204749 0.507823
v -0.079707 0.203423 0.506692
v -0.083386 0.202694 0.506306
v -0.087136 0.202612 0.506692
v -0.090700 0.203182 0.507823
v -0.093837 0.204367 0.509623
v -0.096332 0.206084 0.511969
v -0.098016 0.208217 0.514701
v -0.098774 0.210621 0.517633
v -0.098553 0.213132 0.520565
v -0.097369 0.215579 0.523296
v -0.095303 0.217794 0.525642
v -0.092496 0.219628 0.527442
v -0.089139 0.220954 0.528574
v -0.085460 0.221683 0.528960
v -0.081710 0.221765 0.528574
v -0.078145 0.221195 0.527442
v -0.075009 0.220010 0.525642
v -0.072513 0.218293 0.523296
v -0.070829 0.216160 0.520565
v -0.070072 0.213756 0.517633
v -0.071344 0.207587 0.512710
v -0.070116 0.209624 0.515693
v -0.073448 0.205723 0.510150
v -0.076285 0.204159 0.508185
v -0.079661 0.203002 0.506949
v -0.083346 0.202330 0.506528
v -0.087090 0.202191 0.506949
v -0.090636 0.202592 0.508185
v -0.093743 0.203506 0.510150
v -0.096200 0.204872 0.512710
v -0.097839 0.206597 0.515693
v -0.098549 0.208562 0.518893
v -0.098280 0.210633 0.522093
v -0.097052 0.212671 0.525075
v -0.094948 0.214535 0.527636
v -0.092111 0.216099 0.529601
v -0.088735 0.217256 0.530836
v -0.085050 0.217927 0.531257
v -0.081306 0.218067 0.530836
v -0.077760 0.217666 0.529601
v -0.074653 0.216751 0.527636
v -0.072196 0.215385 0.525075
v -0.070557 0.213661 0.522093
v -0.069847 0.211696 0.518893
v -0.071201 0.206280 0.513300
v -0.069925 0.207876 0.516482
v -0.073347 0.204795 0.510568
v -0.076215 0.203522 0.508472
v -0.079611 0.202547 0.507155
v -0.083303 0.201938 0.506705
v -0.087040 0.201736 0.507155
v -0.090566 0.201955 0.508472
v -0.093642 0.202579 0.510568
v -0.096057 0.203566 0.513300
v -0.097648 0.204849 0.516482
v -0.098306 0.206340 0.519896
v -0.097986 0.207938 0.523310
v -0.096709 0.209534 0.526491
v -0.094564 0.211019 0.529223
v -0.091695 0.212293 0.531319
v -0.088299 0.213267 0.532637
v -0.084607 0.213876 0.533086
v -0.080871 0.214078 0.532637
v -0.077344 0.213860 0.531319
v -0.074269 0.213236 0.529223
v -0.071853 0.212249 0.526491
v -0.070262 0.210966 0.523310
v -0.069605 0.209474 0.519896
v -0.071051 0.204900 0.513729
v -0.069723 0.206030 0.517055
v -0.073240 0.203815 0.510873
v -0.076142 0.202849 0.508681
v -0.079559 0.202068 0.507304
v -0.083258 0.201525 0.506834
v -0.086988 0.201257 0.507304
v -0.090493 0.201282 0.508681
v -0.093535 0.201599 0.510873
v -0.095907 0.202186 0.513729
v -0.097447 0.203003 0.517055
v -0.098050 0.203994 0.520625
v -0.097675 0.205092 0.524194
v -0.096348 0.206223 0.527520
v -0.094158 0.207308 0.530376
v -0.091256 0.208274 0.532568
v -0.087839 0.209055 0.533946
v -0.084140 0.209598 0.534416
v -0.080411 0.209866 0.533946
v -0.076906 0.209841 0.532568
v -0.073863 0.209524 0.530376
v -0.071491 0.208937 0.527520
v -0.069952 0.208120 0.524194
v -0.069348 0.207129 0.520625
v -0.044296 0.303695 1.007963
v 0.071274 0.309226 0.999388
v -0.044296 0.309226 0.999388
v 0.071274 0.303695 1.007963
v 0.067483 0.242970 1.273547
v 0.062122 0.270922 1.248423
v 0.062122 0.240878 1.268497
v 0.067483 0.274787 1.252288
v 0.062122 0.237920 1.261355
v 0.067483 0.261590 1.239091
v 0.067483 0.235828 1.256305
v 0.062122 0.265455 1.242957
v 0.071274 0.235828 1.256305
v 0.067483 0.205439 1.262350
v 0.071274 0.205439 1.262350
v 0.067483 0.296046 1.220471
v 0.071274 0.303332 1.183842
v 0.067483 0.303332 1.183842
v 0.071274 0.296046 1.220471
v 0.071274 0.205439 1.281013
v 0.067483 0.205439 1.281013
v 0.071274 0.242970 1.273547
v 0.062122 0.205439 1.275547
v 0.062122 0.297971 1.183313
v 0.062122 0.290996 1.218379
v 0.062122 0.205439 1.267816
v 0.067483 0.175050 1.256305
v 0.071274 0.175050 1.256305
v 0.071274 0.278804 1.213329
v 0.067483 0.285028 1.182039
v 0.071274 0.285028 1.182039
v 0.067483 0.278804 1.213329
v 0.062122 0.119882 1.218379
v 0.062122 0.127024 1.215421
v 0.062122 0.120489 1.182567
v 0.062122 0.139956 1.248423
v 0.062122 0.145423 1.242957
v 0.062122 0.170000 1.268497
v 0.062122 0.172958 1.261356
v 0.062122 0.283854 1.215421
v 0.062122 0.290389 1.182567
v 0.062122 0.290389 1.125155
v 0.062122 0.290389 1.011754
v 0.062122 0.297050 0.994954
v 0.062122 0.289480 0.995374
v 0.062122 0.297971 1.011544
v 0.062122 0.297971 1.125155
v 0.062122 0.112907 1.153016
v 0.062122 0.112907 1.183314
v 0.062122 0.120489 1.153016
v 0.067483 0.107546 1.183842
v 0.067483 0.107546 1.153016
v 0.071274 0.136091 1.252288
v 0.067483 0.114832 1.220471
v 0.071274 0.114832 1.220471
v 0.067483 0.136091 1.252288
v 0.071274 0.308660 0.989200
v -0.044296 0.308660 0.989200
v -0.044296 0.302215 0.981290
v 0.071274 0.302215 0.981290
v -0.044296 0.292350 0.978680
v 0.071274 0.292350 0.978680
v 0.067483 0.132074 1.213329
v 0.071274 0.125850 1.182039
v 0.067483 0.125850 1.182039
v 0.071274 0.132074 1.213329
v 0.071274 0.107546 1.183842
v 0.067483 0.285028 1.011903
v 0.071274 0.285028 1.011903
v 0.067483 0.285028 1.125155
v 0.071274 0.125850 1.153016
v 0.067483 0.125850 1.153016
v 0.071274 0.107546 1.153016
v 0.071274 0.261590 1.239091
v 0.071274 0.274787 1.252288
v 0.071274 0.284316 1.009038
v -0.044296 0.294180 1.011649
v -0.044296 0.284316 1.009038
v 0.071274 0.294180 1.011649
v 0.071274 0.277870 1.001128
v -0.044296 0.277870 1.001128
v -0.044296 0.277305 0.990940
v 0.071274 0.277305 0.990940
v -0.044296 0.282836 0.982366
v 0.071274 0.282836 0.982366
v 0.067483 0.303332 1.125155
v 0.067483 0.303332 1.011395
v 0.067483 0.284127 0.995671
v 0.071274 0.167908 1.273547
v 0.067483 0.167908 1.273547
v 0.067483 0.149288 1.239092
v 0.071274 0.149288 1.239092
v 0.071274 0.303332 1.011395
v 0.067483 0.302403 0.994657
v 0.071274 0.302403 0.994657
v 0.071274 0.284127 0.995671
v -0.037708 0.322658 1.037523
v -0.047412 0.264873 1.037523
v -0.047412 0.322658 1.037523
v -0.037708 0.264873 1.037523
v -0.013489 0.284662 1.046752
v -0.071274 0.292513 1.052456
v -0.071274 0.284662 1.046752
v -0.013489 0.292513 1.052456
v -0.036530 0.303997 1.024367
v -0.030631 0.293312 1.029527
v -0.030631 0.293312 1.024367
v -0.036530 0.303997 1.029527
v -0.048734 0.304231 1.029527
v -0.048734 0.304231 1.024367
v -0.036936 0.282860 1.029527
v -0.036936 0.282860 1.024367
v -0.042835 0.285291 1.040878
v -0.042835 0.301801 1.040877
v -0.051090 0.293546 1.040877
v -0.034580 0.293546 1.040877
v -0.071274 0.300364 1.046752
v -0.013489 0.300364 1.046752
v -0.034709 0.322658 1.046752
v -0.050411 0.322658 1.046752
v -0.042560 0.322658 1.052456
v -0.042851 0.282579 0.982366
v -0.042851 0.277614 1.001128
v -0.042851 0.277048 0.990940
v -0.042851 0.284059 1.009038
v -0.042851 0.292094 0.978680
v -0.042851 0.293924 1.011649
v -0.042851 0.301958 0.981290
v -0.042851 0.303438 1.007963
v -0.042851 0.308404 0.989200
v -0.042851 0.308969 0.999388
v -0.013489 0.287661 1.037523
v -0.071274 0.287661 1.037523
v -0.059539 0.269875 0.925307
v -0.070035 0.302178 0.925307
v -0.070035 0.284321 0.925307
v -0.059539 0.316624 0.925307
v -0.058259 0.288148 0.925307
v -0.042557 0.264357 0.925307
v -0.052261 0.279893 0.925307
v -0.042557 0.276739 0.925307
v -0.025574 0.269875 0.925307
v -0.032852 0.279893 0.925307
v -0.026855 0.288148 0.925307
v -0.026855 0.298351 0.925307
v -0.058259 0.298351 0.925307
v -0.042557 0.322142 0.925307
v -0.052261 0.306606 0.925307
v -0.042557 0.309759 0.925307
v -0.032852 0.306606 0.925307
v -0.025574 0.316624 0.925307
v -0.015078 0.284321 0.925307
v -0.015078 0.302178 0.925307
v -0.055038 0.293780 1.029527
v -0.049139 0.283094 1.024367
v -0.049139 0.283094 1.029527
v -0.055038 0.293780 1.024367
v -0.013489 0.297366 1.037523
v -0.042560 0.264873 1.052456
v -0.050411 0.264873 1.046752
v -0.071274 0.297366 1.037523
v -0.051090 0.293546 1.029527
v -0.042835 0.285291 1.029527
v -0.034580 0.293546 1.029527
v -0.042835 0.301801 1.029527
v -0.034709 0.264873 1.046752
v -0.025574 0.316624 0.921180
v -0.015078 0.302178 0.921180
v -0.052261 0.279893 1.024367
v -0.058259 0.298351 1.024367
v -0.058259 0.288148 1.024367
v -0.052261 0.306606 1.024367
v -0.042557 0.276739 1.024367
v -0.042557 0.309759 1.024367
v -0.032852 0.279893 1.024367
v -0.032852 0.306606 1.024367
v -0.026855 0.288148 1.024367
v -0.026855 0.298351 1.024367
v -0.070035 0.302178 0.921180
v -0.059539 0.316624 0.921180
v -0.015078 0.284321 0.921180
v -0.025574 0.269875 0.921180
v -0.042557 0.264357 0.921180
v -0.059539 0.269875 0.921180
v -0.070035 0.284321 0.921180
v -0.042557 0.322142 0.921180
v -0.751000 0.377000 0.870180
v -0.291000 0.216000 0.870180
v -0.751000 -0.377000 0.870180
v -0.014000 0.297000 0.870180
v 0.751000 0.377000 0.870180
v 0.016000 0.297000 0.870180
v 0.016000 0.267000 0.870180
v 0.291000 0.216000 0.870180
v 0.291000 -0.207000 0.870180
v 0.721000 0.267000 0.870180
v 0.751000 0.267000 0.870180
v 0.751000 0.237360 0.870180
v 0.721000 -0.237640 0.870180
v 0.721000 0.237360 0.870180
v 0.751000 -0.237640 0.870180
v -0.291000 -0.207000 0.870180
v 0.751000 -0.377000 0.870180
v 0.721000 -0.267640 0.870180
v 0.751000 -0.267640 0.870180
v -0.014000 0.267000 0.870180
v -0.719000 -0.237640 0.000000
v -0.749000 -0.267640 0.000000
v -0.749000 -0.237640 0.000000
v -0.719000 -0.267640 0.000000
v 0.291000 0.377000 0.921180
v 0.291000 0.216000 0.911180
v 0.291000 0.216000 0.921180
v 0.291000 0.377000 0.911180
v -0.719000 -0.267640 0.870000
v -0.749000 -0.237640 0.870000
v -0.749000 -0.267640 0.870000
v -0.719000 -0.237640 0.870000
v -0.751000 0.377000 0.911180
v 0.751000 0.377000 0.911180
v -0.291000 0.377000 0.911180
v -0.291000 0.216000 0.911180
v -0.749000 0.237360 0.290000
v -0.719000 0.237360 0.260000
v -0.749000 0.237360 0.260000
v -0.719000 0.237360 0.260360
v -0.719000 0.237360 0.290000
v -0.749000 -0.237640 0.260000
v -0.719000 -0.237640 0.260000
v -0.719000 0.267000 0.000000
v -0.749000 0.237360 0.000000
v -0.749000 0.267000 0.000000
v -0.719000 0.237360 0.000000
v 0.016000 0.297000 0.000180
v -0.014000 0.267000 0.000180
v -0.014000 0.297000 0.000180
v 0.016000 0.267000 0.000180
v -0.719000 0.237360 0.870000
v -0.749000 0.267000 0.870000
v -0.749000 0.237360 0.870000
v -0.719000 0.267000 0.870000
v -0.751000 0.377000 0.921180
v -0.291000 0.377000 0.921180
v 0.751000 -0.377000 0.921180
v 0.291000 -0.377000 0.911180
v 0.751000 -0.377000 0.911180
v 0.291000 -0.377000 0.921180
v 0.751000 0.377000 0.921180
v -0.291000 0.216000 0.921180
v 0.751000 -0.237640 0.000180
v 0.721000 -0.267640 0.000180
v 0.721000 -0.237640 0.000180
v 0.751000 -0.267640 0.000180
v 0.721000 0.237360 0.260360
v 0.751000 0.237360 0.260180
v 0.721000 0.237360 0.260180
v 0.751000 0.237360 0.260540
v 0.721000 0.237360 0.290000
v 0.751000 0.237360 0.290180
v 0.721000 0.237360 0.290180
v 0.721000 -0.237640 0.260180
v 0.751000 -0.237640 0.260180
v 0.751000 0.267000 0.000180
v 0.721000 0.237360 0.000180
v 0.721000 0.267000 0.000180
v 0.751000 0.237360 0.000180
v 0.291000 -0.207000 0.617180
v -0.291000 0.216000 0.617180
v -0.291000 -0.207000 0.617180
v 0.291000 0.216000 0.617180
v 0.721000 0.267000 0.260360
v 0.721000 0.267000 0.290000
v -0.719000 0.267000 0.260360
v 0.291000 -0.207000 0.911180
v -0.291000 -0.207000 0.911180
v 0.291000 -0.207000 0.921180
v -0.291000 -0.207000 0.921180
v -0.751000 -0.377000 0.911180
v -0.291000 -0.377000 0.921180
v -0.751000 -0.377000 0.921180
f 1 2 3
f 2 1 4
f 2 4 5
f 5 4 6
f 6 4 7
f 6 7 8
f 8 7 9
f 8 9 10
f 10 9 11
f 10 11 12
f 12 11 13
f 13 11 14
f 13 14 15
f 15 14 16
f 15 16 17
f 17 16 18
f 17 18 19
f 19 18 20
f 19 20 21
f 21 20 22
f 22 20 23
f 23 20 24
f 24 20 25
f 24 25 26
f 27 28 29
f 28 27 1
f 28 1 30
f 30 1 3
f 30 3 31
f 30 31 32
f 32 31 33
f 32 33 34
f 32 34 35
f 35 34 36
f 35 36 37
f 37 36 38
f 37 38 39
f 39 38 40
f 39 40 41
f 39 41 42
f 42 41 43
f 42 43 44
f 44 43 45
f 44 45 46
f 46 45 47
f 46 47 23
f 23 47 48
f 23 48 22
f 49 10 12
f 10 49 50
f 51 52 53
f 52 51 54
f 55 53 56
f 53 55 51
f 57 55 56
f 55 57 58
f 59 58 57
f 58 59 60
f 61 60 59
f 60 61 62
f 63 61 64
f 61 63 62
f 65 64 66
f 64 65 63
f 67 66 68
f 66 67 65
f 69 67 68
f 67 69 70
f 71 70 69
f 70 71 72
f 73 72 71
f 72 73 74
f 75 74 73
f 74 75 76
f 77 76 75
f 76 77 78
f 79 78 77
f 78 79 80
f 81 79 82
f 79 81 80
f 83 82 84
f 82 83 81
f 85 84 86
f 84 85 83
f 87 85 86
f 85 87 88
f 89 88 87
f 88 89 90
f 91 90 89
f 90 91 92
f 93 91 94
f 91 93 92
f 95 94 96
f 94 95 93
f 97 96 98
f 96 97 95
f 54 98 52
f 98 54 97
f 99 100 101
f 100 99 102
f 103 101 104
f 101 103 99
f 103 105 106
f 105 103 104
f 106 107 108
f 107 106 105
f 107 109 108
f 109 110 111
f 111 112 113
f 112 111 110
f 113 114 115
f 114 113 112
f 116 114 117
f 114 116 115
f 118 117 119
f 117 118 116
f 120 119 121
f 119 120 118
f 122 121 123
f 121 122 120
f 124 123 125
f 123 124 122
f 126 125 127
f 125 126 124
f 128 126 127
f 126 128 129
f 130 51 131
f 51 130 54
f 131 55 132
f 55 131 51
f 58 132 55
f 132 58 133
f 60 133 58
f 133 60 134
f 134 60 62
f 62 63 135
f 136 63 65
f 63 136 135
f 137 65 67
f 65 137 136
f 70 137 67
f 137 70 138
f 72 138 70
f 138 72 139
f 74 139 72
f 139 74 140
f 76 140 74
f 140 76 141
f 78 141 76
f 141 78 142
f 80 142 78
f 142 80 143
f 144 80 81
f 80 144 143
f 145 81 83
f 81 145 144
f 146 83 85
f 83 146 145
f 88 146 85
f 146 88 147
f 90 147 88
f 147 90 148
f 92 148 90
f 148 92 149
f 149 93 150
f 93 149 92
f 150 95 151
f 95 150 93
f 151 97 152
f 97 151 95
f 152 54 130
f 54 152 97
f 153 154 155
f 154 153 156
f 154 156 157
f 157 156 158
f 158 156 159
f 159 156 160
f 159 160 161
f 161 160 162
f 162 160 163
f 162 163 164
f 164 163 165
f 164 165 166
f 166 165 167
f 166 167 168
f 168 167 169
f 168 169 170
f 170 169 171
f 171 169 172
f 171 172 173
f 173 172 174
f 173 174 175
f 175 174 176
f 175 176 177
f 177 176 178
f 157 179 180
f 179 157 158
f 180 179 181
f 180 181 182
f 180 182 183
f 183 182 184
f 183 184 185
f 185 184 186
f 185 186 187
f 187 186 188
f 187 188 189
f 187 189 190
f 190 189 191
f 190 191 192
f 192 191 193
f 192 193 194
f 194 193 195
f 194 195 196
f 196 195 197
f 196 197 178
f 196 178 176
f 196 176 198
f 196 198 199
f 199 198 200
f 201 202 203
f 202 201 204
f 202 204 205
f 205 204 206
f 206 204 207
f 207 204 208
f 207 208 209
f 209 208 210
f 210 208 211
f 210 211 212
f 212 211 50
f 212 50 213
f 213 50 49
f 213 49 214
f 214 49 215
f 214 215 100
f 100 215 101
f 101 215 216
f 101 216 104
f 104 216 217
f 104 217 105
f 105 217 218
f 105 218 107
f 107 218 109
f 205 219 220
f 219 205 206
f 220 219 128
f 220 128 127
f 220 127 221
f 221 127 125
f 221 125 222
f 222 125 123
f 222 123 223
f 223 123 121
f 223 121 224
f 224 121 119
f 224 119 117
f 224 117 225
f 225 117 114
f 225 114 226
f 226 114 112
f 226 112 227
f 227 112 110
f 227 110 109
f 227 109 218
f 227 218 228
f 227 228 229
f 229 228 230
f 215 12 13
f 12 215 49
f 50 8 10
f 8 50 211
f 33 220 34
f 220 33 205
f 31 205 33
f 205 31 202
f 3 202 31
f 202 3 203
f 2 203 3
f 203 2 201
f 5 201 2
f 201 5 204
f 6 204 5
f 204 6 208
f 211 6 8
f 6 211 208
f 224 43 41
f 43 224 225
f 223 41 40
f 41 223 224
f 222 40 38
f 40 222 223
f 221 38 36
f 38 221 222
f 220 36 34
f 36 220 221
f 225 45 43
f 45 225 226
f 227 45 226
f 45 227 47
f 218 21 228
f 21 218 19
f 228 22 230
f 22 228 21
f 230 48 229
f 48 230 22
f 229 47 227
f 47 229 48
f 216 13 15
f 13 216 215
f 217 15 17
f 15 217 216
f 217 19 218
f 19 217 17
f 197 231 178
f 231 197 232
f 195 232 197
f 232 195 233
f 193 233 195
f 233 193 234
f 193 235 234
f 235 193 191
f 235 189 236
f 189 235 191
f 189 237 236
f 237 189 188
f 188 238 237
f 238 188 186
f 238 184 239
f 184 238 186
f 184 240 239
f 240 184 182
f 240 181 241
f 181 240 182
f 241 179 242
f 179 241 181
f 242 158 243
f 158 242 179
f 243 159 244
f 159 243 158
f 244 161 245
f 161 244 159
f 245 162 246
f 162 245 161
f 162 247 246
f 247 162 164
f 164 248 247
f 248 164 166
f 248 168 249
f 168 248 166
f 170 250 251
f 250 170 171
f 171 252 250
f 252 171 173
f 175 252 173
f 252 175 253
f 177 253 175
f 253 177 254
f 178 254 177
f 254 178 231
f 244 242 243
f 242 244 245
f 242 245 241
f 241 245 140
f 140 245 139
f 139 245 246
f 139 246 138
f 138 246 137
f 137 246 247
f 137 247 136
f 136 247 248
f 136 248 135
f 135 248 249
f 135 249 62
f 62 249 251
f 62 251 134
f 134 251 133
f 133 251 250
f 133 250 132
f 132 250 252
f 132 252 131
f 131 252 253
f 131 253 130
f 130 253 152
f 241 141 240
f 141 241 140
f 240 141 142
f 240 142 143
f 240 143 239
f 239 143 144
f 239 144 238
f 238 144 145
f 238 145 237
f 237 145 146
f 237 146 147
f 237 147 236
f 236 147 148
f 236 148 235
f 235 148 149
f 235 149 234
f 234 149 150
f 234 150 233
f 233 150 151
f 233 151 152
f 233 152 253
f 233 253 254
f 233 254 232
f 232 254 231
f 249 170 251
f 170 249 168
f 219 129 128
f 129 219 255
f 206 255 219
f 255 206 256
f 207 256 206
f 256 207 257
f 209 257 207
f 257 209 258
f 210 258 209
f 258 210 259
f 260 210 212
f 210 260 259
f 261 212 213
f 212 261 260
f 262 213 214
f 213 262 261
f 102 214 100
f 214 102 262
f 263 102 99
f 102 263 264
f 265 99 103
f 99 265 263
f 265 106 266
f 106 265 103
f 266 108 267
f 108 266 106
f 267 109 268
f 109 267 108
f 268 111 269
f 111 268 109
f 269 113 270
f 113 269 111
f 270 115 271
f 115 270 113
f 116 271 115
f 271 116 272
f 118 272 116
f 272 118 273
f 120 273 118
f 273 120 274
f 122 274 120
f 274 122 275
f 124 275 122
f 275 124 276
f 126 276 124
f 276 126 277
f 129 277 126
f 277 129 278
f 255 278 129
f 278 255 279
f 255 280 279
f 280 255 256
f 257 280 256
f 280 257 281
f 257 282 281
f 282 257 258
f 259 282 258
f 282 259 283
f 284 259 260
f 259 284 283
f 285 260 261
f 260 285 284
f 286 261 262
f 261 286 285
f 264 262 102
f 262 264 286
f 287 264 263
f 264 287 288
f 289 263 265
f 263 289 287
f 289 266 290
f 266 289 265
f 291 266 267
f 266 291 290
f 292 267 268
f 267 292 291
f 293 268 269
f 268 293 292
f 293 270 294
f 270 293 269
f 294 271 295
f 271 294 270
f 272 295 271
f 295 272 296
f 273 296 272
f 296 273 297
f 274 297 273
f 297 274 298
f 275 298 274
f 298 275 299
f 276 299 275
f 299 276 300
f 277 300 276
f 300 277 301
f 278 301 277
f 301 278 302
f 279 302 278
f 302 279 303
f 280 303 279
f 303 280 304
f 281 304 280
f 304 281 305
f 282 305 281
f 305 282 306
f 283 306 282
f 306 283 307
f 308 283 284
f 283 308 307
f 309 284 285
f 284 309 308
f 310 285 286
f 285 310 309
f 288 286 264
f 286 288 310
f 311 288 287
f 288 311 312
f 313 287 289
f 287 313 311
f 313 290 314
f 290 313 289
f 314 291 315
f 291 314 290
f 315 292 316
f 292 315 291
f 316 293 317
f 293 316 292
f 317 294 318
f 294 317 293
f 318 295 319
f 295 318 294
f 296 319 295
f 319 296 320
f 297 320 296
f 320 297 321
f 298 321 297
f 321 298 322
f 299 322 298
f 322 299 323
f 300 323 299
f 323 300 324
f 301 324 300
f 324 301 325
f 302 325 301
f 325 302 326
f 303 326 302
f 326 303 327
f 304 327 303
f 327 304 328
f 305 328 304
f 328 305 329
f 306 329 305
f 329 306 330
f 307 330 306
f 330 307 331
f 332 307 308
f 307 332 331
f 333 308 309
f 308 333 332
f 334 309 310
f 309 334 333
f 312 310 288
f 310 312 334
f 335 312 311
f 312 335 336
f 337 311 313
f 311 337 335
f 337 314 338
f 314 337 313
f 338 315 339
f 315 338 314
f 340 315 316
f 315 340 339
f 340 317 341
f 317 340 316
f 342 317 318
f 317 342 341
f 342 319 343
f 319 342 318
f 320 343 319
f 343 320 344
f 321 344 320
f 344 321 345
f 322 345 321
f 345 322 346
f 323 346 322
f 346 323 347
f 324 347 323
f 347 324 348
f 325 348 324
f 348 325 349
f 326 349 325
f 349 326 350
f 327 350 326
f 350 327 351
f 327 352 351
f 352 327 328
f 329 352 328
f 352 329 353
f 330 353 329
f 353 330 354
f 330 355 354
f 355 330 331
f 356 331 332
f 331 356 355
f 357 332 333
f 332 357 356
f 358 333 334
f 333 358 357
f 336 334 312
f 334 336 358
f 359 336 335
f 336 359 360
f 361 335 337
f 335 361 359
f 362 337 338
f 337 362 361
f 362 339 363
f 339 362 338
f 363 340 364
f 340 363 339
f 364 341 365
f 341 364 340
f 365 342 366
f 342 365 341
f 366 343 367
f 343 366 342
f 344 367 343
f 367 344 368
f 345 368 344
f 368 345 369
f 346 369 345
f 369 346 370
f 347 370 346
f 370 347 371
f 348 371 347
f 371 348 372
f 349 372 348
f 372 349 373
f 349 374 373
f 374 349 350
f 350 375 374
f 375 350 351
f 352 375 351
f 375 352 376
f 352 377 376
f 377 352 353
f 353 378 377
f 378 353 354
f 355 378 354
f 378 355 379
f 380 355 356
f 355 380 379
f 381 356 357
f 356 381 380
f 382 357 358
f 357 382 381
f 360 358 336
f 358 360 382
f 383 360 359
f 360 383 384
f 385 359 361
f 359 385 383
f 386 361 362
f 361 386 385
f 386 363 387
f 363 386 362
f 387 364 388
f 364 387 363
f 389 364 365
f 364 389 388
f 389 366 390
f 366 389 365
f 367 390 366
f 390 367 391
f 368 391 367
f 391 368 392
f 369 392 368
f 392 369 393
f 370 393 369
f 393 370 394
f 371 394 370
f 394 371 395
f 372 395 371
f 395 372 396
f 373 396 372
f 396 373 397
f 374 397 373
f 397 374 398
f 375 398 374
f 398 375 399
f 375 400 399
f 400 375 376
f 377 400 376
f 400 377 401
f 378 401 377
f 401 378 402
f 403 378 379
f 378 403 402
f 404 379 380
f 379 404 403
f 405 380 381
f 380 405 404
f 406 381 382
f 381 406 405
f 384 382 360
f 382 384 406
f 407 384 383
f 384 407 408
f 409 383 385
f 383 409 407
f 410 385 386
f 385 410 409
f 387 410 386
f 410 387 411
f 388 411 387
f 411 388 412
f 413 388 389
f 388 413 412
f 414 389 390
f 389 414 413
f 391 414 390
f 414 391 415
f 392 415 391
f 415 392 416
f 393 416 392
f 416 393 417
f 394 417 393
f 417 394 418
f 395 418 394
f 418 395 419
f 396 419 395
f 419 396 420
f 397 420 396
f 420 397 421
f 398 421 397
f 421 398 422
f 423 398 399
f 398 423 422
f 424 399 400
f 399 424 423
f 401 424 400
f 424 401 425
f 402 425 401
f 425 402 426
f 427 402 403
f 402 427 426
f 428 403 404
f 403 428 427
f 429 404 405
f 404 429 428
f 430 405 406
f 405 430 429
f 408 406 384
f 406 408 430
f 431 408 407
f 408 431 432
f 433 407 409
f 407 433 431
f 410 433 409
f 433 410 434
f 411 434 410
f 434 411 435
f 412 435 411
f 435 412 436
f 437 412 413
f 412 437 436
f 438 413 414
f 413 438 437
f 439 414 415
f 414 439 438
f 416 439 415
f 439 416 440
f 417 440 416
f 440 417 441
f 418 441 417
f 441 418 442
f 419 442 418
f 442 419 443
f 420 443 419
f 443 420 444
f 421 444 420
f 444 421 445
f 446 421 422
f 421 446 445
f 447 422 423
f 422 447 446
f 448 423 424
f 423 448 447
f 425 448 424
f 448 425 449
f 426 449 425
f 449 426 450
f 427 450 426
f 450 427 451
f 452 427 428
f 427 452 451
f 453 428 429
f 428 453 452
f 454 429 430
f 429 454 453
f 432 430 408
f 430 432 454
f 455 432 431
f 432 455 456
f 457 431 433
f 431 457 455
f 434 457 433
f 457 434 458
f 435 458 434
f 458 435 459
f 436 459 435
f 459 436 460
f 461 436 437
f 436 461 460
f 462 437 438
f 437 462 461
f 463 438 439
f 438 463 462
f 440 463 439
f 463 440 464
f 441 464 440
f 464 441 465
f 442 465 441
f 465 442 466
f 443 466 442
f 466 443 467
f 444 467 443
f 467 444 468
f 445 468 444
f 468 445 469
f 470 445 446
f 445 470 469
f 471 446 447
f 446 471 470
f 472 447 448
f 447 472 471
f 449 472 448
f 472 449 473
f 450 473 449
f 473 450 474
f 451 474 450
f 474 451 475
f 476 451 452
f 451 476 475
f 477 452 453
f 452 477 476
f 478 453 454
f 453 478 477
f 456 454 432
f 454 456 478
f 479 456 455
f 456 479 480
f 481 455 457
f 455 481 479
f 458 481 457
f 481 458 482
f 459 482 458
f 482 459 483
f 460 483 459
f 483 460 484
f 485 460 461
f 460 485 484
f 486 461 462
f 461 486 485
f 487 462 463
f 462 487 486
f 464 487 463
f 487 464 488
f 465 488 464
f 488 465 489
f 466 489 465
f 489 466 490
f 467 490 466
f 490 467 491
f 468 491 467
f 491 468 492
f 469 492 468
f 492 469 493
f 494 469 470
f 469 494 493
f 495 470 471
f 470 495 494
f 496 471 472
f 471 496 495
f 473 496 472
f 496 473 497
f 474 497 473
f 497 474 498
f 475 498 474
f 498 475 499
f 500 475 476
f 475 500 499
f 501 476 477
f 476 501 500
f 502 477 478
f 477 502 501
f 480 478 456
f 478 480 502
f 53 480 479
f 480 53 52
f 56 479 481
f 479 56 53
f 482 56 481
f 56 482 57
f 483 57 482
f 57 483 59
f 484 59 483
f 59 484 61
f 64 484 485
f 484 64 61
f 66 485 486
f 485 66 64
f 68 486 487
f 486 68 66
f 488 68 487
f 68 488 69
f 489 69 488
f 69 489 71
f 490 71 489
f 71 490 73
f 491 73 490
f 73 491 75
f 492 75 491
f 75 492 77
f 493 77 492
f 77 493 79
f 82 493 494
f 493 82 79
f 84 494 495
f 494 84 82
f 86 495 496
f 495 86 84
f 497 86 496
f 86 497 87
f 498 87 497
f 87 498 89
f 499 89 498
f 89 499 91
f 94 499 500
f 499 94 91
f 96 500 501
f 500 96 94
f 98 501 502
f 501 98 96
f 52 502 480
f 502 52 98
f 503 504 505
f 504 503 506
f 507 508 509
f 508 507 510
f 511 512 513
f 512 511 514
f 515 516 513
f 516 515 517
f 518 519 520
f 519 518 521
f 522 507 523
f 507 522 524
f 507 525 523
f 525 507 509
f 518 526 527
f 526 518 520
f 511 516 528
f 516 511 513
f 517 529 516
f 529 517 530
f 531 532 533
f 532 531 534
f 535 536 537
f 536 535 538
f 536 538 539
f 539 538 540
f 539 540 541
f 541 540 525
f 541 525 528
f 528 525 511
f 511 525 509
f 511 509 514
f 514 509 508
f 514 508 542
f 542 508 527
f 542 527 543
f 543 527 544
f 544 527 545
f 545 546 547
f 546 545 527
f 546 527 526
f 546 526 548
f 548 526 549
f 535 550 551
f 550 535 552
f 552 535 537
f 553 550 554
f 550 553 551
f 555 556 557
f 556 555 558
f 558 535 556
f 535 558 538
f 505 559 560
f 559 505 504
f 561 559 562
f 559 561 560
f 562 563 561
f 563 562 564
f 514 534 512
f 534 514 542
f 565 566 567
f 566 565 568
f 557 553 569
f 553 557 556
f 556 551 553
f 551 556 535
f 533 570 571
f 570 533 572
f 572 533 532
f 536 567 537
f 567 536 565
f 567 573 574
f 573 567 566
f 542 532 534
f 532 542 543
f 569 554 575
f 554 569 553
f 567 552 537
f 552 567 574
f 576 513 512
f 513 576 515
f 510 527 508
f 527 510 518
f 518 577 521
f 577 518 510
f 543 572 532
f 572 543 570
f 570 543 545
f 545 543 544
f 524 510 507
f 510 524 577
f 578 579 580
f 579 578 581
f 582 580 583
f 580 582 578
f 582 584 585
f 584 582 583
f 564 586 563
f 586 564 587
f 585 586 587
f 586 585 584
f 548 588 589
f 588 548 549
f 588 549 526
f 588 526 520
f 570 547 590
f 547 570 545
f 591 523 592
f 523 591 522
f 531 512 534
f 512 531 576
f 523 540 592
f 540 523 525
f 528 529 541
f 529 528 516
f 530 593 529
f 593 530 594
f 539 565 536
f 565 539 593
f 555 592 558
f 592 555 591
f 592 538 558
f 538 592 540
f 541 593 539
f 593 541 529
f 593 568 565
f 568 593 594
f 588 595 589
f 595 588 519
f 519 588 520
f 548 596 546
f 596 548 589
f 589 597 596
f 597 589 595
f 598 570 590
f 570 598 571
f 552 554 550
f 554 552 574
f 554 574 573
f 554 573 575
f 599 600 601
f 600 599 602
f 603 604 605
f 604 603 606
f 607 608 609
f 608 607 610
f 611 607 612
f 607 611 610
f 609 613 614
f 613 609 608
f 615 616 617
f 616 615 618
f 606 619 604
f 619 606 620
f 601 621 599
f 621 601 622
f 621 622 623
f 624 625 626
f 625 624 627
f 627 624 628
f 627 628 629
f 629 628 630
f 629 630 631
f 631 630 632
f 631 632 633
f 634 605 635
f 605 634 603
f 636 637 638
f 637 636 639
f 639 636 640
f 640 636 641
f 640 641 642
f 642 641 643
f 643 641 644
f 643 644 645
f 645 644 646
f 646 644 647
f 639 648 649
f 648 639 640
f 649 648 650
f 649 650 651
f 649 651 652
f 649 652 653
f 653 652 647
f 653 647 644
f 653 644 654
f 653 654 655
f 656 657 658
f 657 656 659
f 634 606 603
f 606 634 660
f 606 660 620
f 661 622 662
f 622 661 623
f 622 600 662
f 600 622 601
f 619 660 663
f 660 619 620
f 658 664 656
f 664 658 665
f 665 658 613
f 665 613 666
f 666 613 608
f 664 611 656
f 611 664 667
f 611 667 610
f 610 667 666
f 610 666 608
f 660 635 663
f 635 660 634
f 616 664 617
f 664 616 667
f 617 665 615
f 665 617 664
f 666 615 665
f 615 666 618
f 611 659 656
f 659 611 612
f 667 618 666
f 618 667 616
f 599 668 602
f 668 599 621
f 604 635 605
f 635 604 663
f 663 604 619
f 613 657 614
f 657 613 658
f 668 600 602
f 600 668 662
f 662 668 661
f 668 623 661
f 623 668 621
f 669 655 670
f 655 669 653
f 671 672 673
f 672 671 674
f 674 671 675
f 674 675 676
f 676 675 677
f 676 677 678
f 678 677 679
f 678 679 680
f 639 681 637
f 681 639 682
f 670 654 683
f 654 670 655
f 683 644 684
f 644 683 654
f 644 685 684
f 685 644 641
f 641 686 685
f 686 641 636
f 638 686 636
f 686 638 687
f 637 687 638
f 687 637 681
f 674 648 672
f 648 674 650
f 639 688 682
f 688 639 649
f 649 669 688
f 669 649 653
f 674 651 650
f 651 674 676
f 583 586 584
f 586 583 580
f 586 580 563
f 563 580 579
f 563 579 561
f 561 579 503
f 561 503 560
f 560 503 505
f 672 640 673
f 640 672 648
f 673 642 671
f 642 673 640
f 675 642 643
f 642 675 671
f 677 643 645
f 643 677 675
f 646 677 645
f 677 646 679
f 647 679 646
f 679 647 680
f 652 680 647
f 680 652 678
f 676 652 651
f 652 676 678
f 581 503 579
f 503 581 506
f 689 690 691
f 690 689 692
f 692 689 693
f 692 693 694
f 694 693 695
f 695 693 696
f 696 693 697
f 697 693 698
f 698 693 699
f 700 701 702
f 701 700 703
f 691 704 705
f 704 691 690
f 705 704 697
f 705 697 706
f 706 697 698
f 706 698 702
f 706 702 701
f 705 706 707
f 690 708 696
f 708 690 692
f 696 708 695
f 709 710 711
f 710 709 712
f 713 714 715
f 714 713 716
f 717 718 719
f 718 717 720
f 721 693 689
f 693 721 722
f 722 721 723
f 722 723 716
f 714 723 724
f 723 714 716
f 725 726 727
f 726 725 728
f 728 725 729
f 726 730 727
f 730 726 731
f 732 733 734
f 733 732 735
f 736 737 738
f 737 736 739
f 740 741 742
f 741 740 743
f 744 723 721
f 723 744 745
f 746 747 748
f 747 746 749
f 722 746 748
f 746 722 750
f 715 724 714
f 724 715 751
f 723 751 724
f 751 723 745
f 752 753 754
f 753 752 755
f 707 701 706
f 701 707 703
f 756 757 758
f 757 756 759
f 759 756 760
f 759 760 761
f 761 760 762
f 757 763 758
f 763 757 764
f 765 766 767
f 766 765 768
f 700 698 702
f 698 700 699
f 769 770 771
f 770 769 772
f 696 770 772
f 770 696 690
f 773 760 756
f 760 773 774
f 773 728 775
f 728 773 756
f 704 769 771
f 769 704 697
f 771 690 704
f 690 771 770
f 696 769 697
f 769 696 772
f 714 697 776
f 697 714 696
f 714 690 696
f 690 714 724
f 690 777 704
f 777 690 724
f 777 697 704
f 697 777 776
f 715 776 778
f 776 715 714
f 713 722 716
f 722 713 750
f 748 776 747
f 776 748 714
f 714 748 716
f 716 748 722
f 779 776 777
f 776 779 778
f 778 747 749
f 747 778 776
f 749 780 747
f 780 749 781
f 782 780 781
f 724 779 777
f 779 724 751
f 744 780 782
f 780 744 721
f 745 716 723
f 716 745 713
f 780 777 721
f 777 780 747
f 777 747 776
f 777 723 721
f 723 777 724
