v -0.719000 -0.267640 0.870000
v -0.749000 -0.267640 0.000000
v -0.719000 -0.267640 0.000000
v -0.749000 -0.267640 0.870000
v -0.749000 0.237360 0.290000
v -0.749000 -0.237640 0.260000
v -0.749000 -0.237640 0.290000
v -0.749000 0.237360 0.260000
v -0.749000 -0.237640 0.870000
v -0.749000 -0.237640 0.000000
v -0.719000 0.237360 0.260000
v -0.719000 -0.237640 0.290000
v -0.719000 -0.237640 0.260000
v -0.719000 0.237360 0.290000
v -0.719000 0.237360 0.260360
v -0.719000 -0.237640 0.000000
v -0.719000 -0.237640 0.870000
v -0.749000 0.267000 0.870000
v -0.719000 0.267000 0.000000
v -0.749000 0.267000 0.000000
v -0.719000 0.267000 0.260360
v -0.719000 0.267000 0.290000
v 0.721000 0.267000 0.260360
v -0.719000 0.267000 0.870000
v 0.721000 0.267000 0.290000
v -0.719000 0.237360 0.870000
v -0.749000 0.237360 0.000000
v -0.719000 0.237360 0.000000
v -0.749000 0.237360 0.870000
v 0.751000 -0.267640 0.870180
v 0.721000 -0.267640 0.000180
v 0.751000 -0.267640 0.000180
v 0.721000 -0.267640 0.870180
v 0.721000 0.237360 0.290180
v 0.721000 -0.237640 0.260180
v 0.721000 -0.237640 0.290180
v 0.721000 0.237360 0.260180
v 0.721000 0.237360 0.290000
v 0.721000 0.237360 0.260360
v 0.721000 -0.237640 0.870180
v 0.721000 -0.237640 0.000180
v 0.751000 0.237360 0.260180
v 0.751000 -0.237640 0.290180
v 0.751000 -0.237640 0.260180
v 0.751000 0.237360 0.290180
v 0.751000 0.237360 0.260540
v 0.751000 -0.237640 0.000180
v 0.751000 -0.237640 0.870180
v 0.751000 0.267000 0.870180
v 0.751000 0.237360 0.870180
v 0.751000 0.267000 0.290180
v 0.721000 0.237360 0.870180
v 0.721000 0.267000 0.870180
v 0.751000 0.267000 0.000180
v 0.751000 0.237360 0.000180
v 0.751000 0.267000 0.260540
v 0.721000 0.267000 0.000180
v 0.721000 0.237360 0.000180
v 0.016000 0.267000 0.870180
v -0.014000 0.267000 0.000180
v 0.016000 0.267000 0.000180
v -0.014000 0.267000 0.870180
v 0.016000 0.297000 0.000180
v 0.016000 0.297000 0.870180
v -0.014000 0.297000 0.870180
v -0.014000 0.297000 0.000180
f 1 2 3
f 2 1 4
f 5 6 7
f 6 5 8
f 9 2 4
f 2 9 10
f 10 9 7
f 10 7 6
f 11 12 13
f 12 11 14
f 14 11 15
f 16 1 3
f 1 16 17
f 17 16 13
f 17 13 12
f 9 12 7
f 12 9 17
f 6 16 10
f 16 6 13
f 12 5 7
f 5 12 14
f 18 19 20
f 19 18 21
f 21 18 22
f 21 22 23
f 22 18 24
f 25 23 22
f 14 24 26
f 24 14 22
f 11 27 28
f 27 11 29
f 29 11 15
f 29 15 14
f 29 14 26
f 18 27 29
f 27 18 20
f 30 31 32
f 31 30 33
f 34 35 36
f 35 34 37
f 37 34 38
f 37 38 39
f 40 31 33
f 31 40 41
f 41 40 36
f 41 36 35
f 42 43 44
f 43 42 45
f 45 42 46
f 47 30 32
f 30 47 48
f 48 47 44
f 48 44 43
f 40 43 36
f 43 40 48
f 35 47 41
f 47 35 44
f 43 34 36
f 34 43 45
f 45 49 50
f 49 45 51
f 50 34 45
f 34 50 52
f 53 34 52
f 34 53 38
f 38 53 39
f 39 53 23
f 23 53 25
f 54 42 55
f 42 54 46
f 46 54 56
f 23 37 39
f 37 57 58
f 57 37 23
f 19 11 28
f 11 19 15
f 15 19 21
f 38 15 39
f 15 38 14
f 38 22 14
f 22 38 25
f 23 54 57
f 54 23 56
f 56 23 25
f 56 25 51
f 51 25 53
f 51 53 49
f 56 45 46
f 45 56 51
f 42 58 55
f 58 42 37
f 59 60 61
f 60 59 62
f 63 59 61
f 59 63 64
f 65 63 66
f 63 65 64
f 65 60 62
f 60 65 66
