v -0.037460 0.000000 0.122500
v -0.037460 0.000000 0.131900
v -0.037380 -0.002450 0.122500
v -0.037380 -0.002450 0.131900
v -0.037382 0.000000 0.132394
v -0.037380 0.002450 0.122500
v -0.037380 0.002450 0.131900
v -0.037302 -0.002445 0.132394
v -0.037302 0.002445 0.132394
v -0.037154 0.000000 0.132840
v -0.037140 -0.004890 0.122500
v -0.037140 -0.004890 0.131900
v -0.037140 0.004890 0.122500
v -0.037140 0.004890 0.131900
v -0.037075 -0.002430 0.132840
v -0.037075 0.002430 0.132840
v -0.037062 -0.004879 0.132394
v -0.037062 0.004879 0.132394
v -0.036837 -0.004850 0.132840
v -0.036837 0.004850 0.132840
v -0.036800 0.000000 0.133194
v -0.036740 -0.007308 0.122500
v -0.036740 -0.007308 0.131900
v -0.036740 0.007308 0.122500
v -0.036740 0.007308 0.131900
v -0.036722 -0.002407 0.133194
v -0.036722 0.002407 0.133194
v -0.036663 -0.007293 0.132394
v -0.036663 0.007293 0.132394
v -0.036486 -0.004803 0.133194
v -0.036486 0.004803 0.133194
v -0.036441 -0.007248 0.132840
v -0.036441 0.007248 0.132840
v -0.036354 0.000000 0.133422
v -0.036277 -0.002378 0.133422
v -0.036277 0.002378 0.133422
v -0.036184 -0.009695 0.122500
v -0.036184 -0.009695 0.131900
v -0.036184 0.009695 0.122500
v -0.036184 0.009695 0.131900
v -0.036108 -0.009675 0.132394
v -0.036108 0.009675 0.132394
v -0.036093 -0.007179 0.133194
v -0.036093 0.007179 0.133194
v -0.036043 -0.004745 0.133422
v -0.036043 0.004745 0.133422
v -0.035888 -0.009616 0.132840
v -0.035888 0.009616 0.132840
v -0.035860 0.000000 0.122500
v -0.035860 0.000000 0.131900
v -0.035860 0.000000 0.133500
v -0.035783 -0.002345 0.122500
v -0.035783 -0.002345 0.131900
v -0.035783 -0.002345 0.133500
v -0.035783 0.002345 0.122500
v -0.035783 0.002345 0.131900
v -0.035783 0.002345 0.133500
v -0.035656 -0.007092 0.133422
v -0.035656 0.007092 0.133422
v -0.035547 -0.009525 0.133194
v -0.035553 -0.004681 0.122500
v -0.035553 -0.004681 0.131900
v -0.035553 -0.004681 0.133500
v -0.035553 0.004681 0.122500
v -0.035553 0.004681 0.131900
v -0.035553 0.004681 0.133500
v -0.035547 0.009525 0.133194
v -0.035472 -0.012041 0.122500
v -0.035472 -0.012041 0.131900
v -0.035472 0.012041 0.122500
v -0.035472 0.012041 0.131900
v -0.035398 -0.012016 0.132394
v -0.035398 0.012016 0.132394
v -0.035183 -0.011943 0.132840
v -0.035183 0.011943 0.132840
v -0.035171 -0.006996 0.122500
v -0.035171 -0.006996 0.131900
v -0.035171 -0.006996 0.133500
v -0.035171 0.006996 0.122500
v -0.035171 0.006996 0.131900
v -0.035171 0.006996 0.133500
v -0.035116 -0.009409 0.133422
v -0.035116 0.009409 0.133422
v -0.034847 -0.011829 0.133194
v -0.034847 0.011829 0.133194
v -0.034638 -0.009281 0.122500
v -0.034638 -0.009281 0.131900
v -0.034638 -0.009281 0.133500
v -0.034638 0.009281 0.122500
v -0.034638 0.009281 0.131900
v -0.034638 0.009281 0.133500
v -0.034609 -0.014335 0.122500
v -0.034609 -0.014335 0.131900
v -0.034609 0.014335 0.122500
v -0.034609 0.014335 0.131900
v -0.034536 -0.014305 0.132394
v -0.034536 0.014305 0.132394
v -0.034425 -0.011686 0.133422
v -0.034425 0.011686 0.133422
v -0.034326 -0.014218 0.132840
v -0.034326 0.014218 0.132840
v -0.033999 -0.014083 0.133194
v -0.033999 0.014083 0.133194
v -0.033957 -0.011527 0.122500
v -0.033957 -0.011527 0.131900
v -0.033957 -0.011527 0.133500
v -0.033957 0.011527 0.122500
v -0.033957 0.011527 0.131900
v -0.033957 0.011527 0.133500
v -0.033597 -0.016568 0.122500
v -0.033597 -0.016568 0.131900
v -0.033597 0.016568 0.122500
v -0.033597 0.016568 0.131900
v -0.033587 -0.013912 0.133422
v -0.033587 0.013912 0.133422
v -0.033527 -0.016533 0.132394
v -0.033527 0.016533 0.132394
v -0.033323 -0.016433 0.132840
v -0.033323 0.016433 0.132840
v -0.033130 -0.013723 0.122500
v -0.033130 -0.013723 0.131900
v -0.033130 -0.013723 0.133500
v -0.033130 0.013723 0.122500
v -0.033130 0.013723 0.131900
v -0.033130 0.013723 0.133500
v -0.033005 -0.016276 0.133194
v -0.033005 0.016276 0.133194
v -0.032605 -0.016079 0.133422
v -0.032605 0.016079 0.133422
v -0.032441 -0.018730 0.122500
v -0.032441 -0.018730 0.131900
v -0.032441 0.018730 0.122500
v -0.032441 0.018730 0.131900
v -0.032373 -0.018691 0.132394
v -0.032373 0.018691 0.132394
v -0.032177 -0.018577 0.132840
v -0.032177 0.018577 0.132840
v -0.032162 -0.015860 0.122500
v -0.032162 -0.015860 0.131900
v -0.032162 -0.015860 0.133500
v -0.032162 0.015860 0.122500
v -0.032162 0.015860 0.131900
v -0.032162 0.015860 0.133500
v -0.031870 -0.018400 0.133194
v -0.031870 0.018400 0.133194
v -0.031484 -0.018177 0.133422
v -0.031484 0.018177 0.133422
v -0.031147 -0.020812 0.122500
v -0.031147 -0.020812 0.131900
v -0.031147 0.020812 0.122500
v -0.031147 0.020812 0.131900
v -0.031082 -0.020768 0.132394
v -0.031082 0.020768 0.132394
v -0.031056 -0.017930 0.122500
v -0.031056 -0.017930 0.131900
v -0.031056 -0.017930 0.133500
v -0.031056 0.017930 0.122500
v -0.031056 0.017930 0.131900
v -0.031056 0.017930 0.133500
v -0.030893 -0.020642 0.132840
v -0.030893 0.020642 0.132840
v -0.030598 -0.020445 0.133194
v -0.030598 0.020445 0.133194
v -0.030228 -0.020197 0.133422
v -0.030228 0.020197 0.133422
v -0.029817 -0.019923 0.122500
v -0.029817 -0.019923 0.131900
v -0.029817 -0.019923 0.133500
v -0.029817 0.019923 0.122500
v -0.029817 0.019923 0.131900
v -0.029817 0.019923 0.133500
v -0.029719 -0.022804 0.122500
v -0.029719 -0.022804 0.131900
v -0.029719 0.022804 0.122500
v -0.029719 0.022804 0.131900
v -0.029657 -0.022757 0.132394
v -0.029657 0.022757 0.132394
v -0.029477 -0.022618 0.132840
v -0.029477 0.022618 0.132840
v -0.029196 -0.022403 0.133194
v -0.029196 0.022403 0.133194
v -0.028842 -0.022131 0.133422
v -0.028842 0.022131 0.133422
v -0.028450 -0.021830 0.122500
v -0.028450 -0.021830 0.131900
v -0.028450 -0.021830 0.133500
v -0.028450 0.021830 0.122500
v -0.028450 0.021830 0.131900
v -0.028450 0.021830 0.133500
v -0.028164 -0.024699 0.122500
v -0.028164 -0.024699 0.131900
v -0.028164 0.024699 0.122500
v -0.028164 0.024699 0.131900
v -0.028105 -0.024647 0.132394
v -0.028105 0.024647 0.132394
v -0.027934 -0.024498 0.132840
v -0.027934 0.024498 0.132840
v -0.027668 -0.024264 0.133194
v -0.027668 0.024264 0.133194
v -0.027333 -0.023970 0.133422
v -0.027333 0.023970 0.133422
v -0.026961 -0.023644 0.122500
v -0.026961 -0.023644 0.131900
v -0.026961 -0.023644 0.133500
v -0.026961 0.023644 0.122500
v -0.026961 0.023644 0.131900
v -0.026961 0.023644 0.133500
v -0.026488 -0.026488 0.122500
v -0.026488 -0.026488 0.131900
v -0.026488 0.026488 0.122500
v -0.026488 0.026488 0.131900
v -0.026433 -0.026433 0.132394
v -0.026433 0.026433 0.132394
v -0.026272 -0.026272 0.132840
v -0.026272 0.026272 0.132840
v -0.026022 -0.026022 0.133194
v -0.026022 0.026022 0.133194
v -0.025706 -0.025706 0.133422
v -0.025706 0.025706 0.133422
v -0.025357 -0.025357 0.122500
v -0.025357 -0.025357 0.131900
v -0.025357 -0.025357 0.133500
v -0.025357 0.025357 0.122500
v -0.025357 0.025357 0.131900
v -0.025357 0.025357 0.133500
v -0.024699 -0.028164 0.122500
v -0.024699 -0.028164 0.131900
v -0.024699 0.028164 0.122500
v -0.024699 0.028164 0.131900
v -0.024647 -0.028105 0.132394
v -0.024647 0.028105 0.132394
v -0.024498 -0.027934 0.132840
v -0.024498 0.027934 0.132840
v -0.024264 -0.027668 0.133194
v -0.024264 0.027668 0.133194
v -0.023970 -0.027333 0.133422
v -0.023970 0.027333 0.133422
v -0.023644 -0.026961 0.122500
v -0.023644 -0.026961 0.131900
v -0.023644 -0.026961 0.133500
v -0.023644 0.026961 0.122500
v -0.023644 0.026961 0.131900
v -0.023644 0.026961 0.133500
v -0.022804 -0.029719 0.122500
v -0.022804 -0.029719 0.131900
v -0.022804 0.029719 0.122500
v -0.022804 0.029719 0.131900
v -0.022757 -0.029657 0.132394
v -0.022757 0.029657 0.132394
v -0.022618 -0.029477 0.132840
v -0.022618 0.029477 0.132840
v -0.022403 -0.029196 0.133194
v -0.022403 0.029196 0.133194
v -0.022131 -0.028842 0.133422
v -0.022131 0.028842 0.133422
v -0.021830 -0.028450 0.122500
v -0.021830 -0.028450 0.131900
v -0.021830 -0.028450 0.133500
v -0.021830 0.028450 0.122500
v -0.021830 0.028450 0.131900
v -0.021830 0.028450 0.133500
v -0.020812 -0.031147 0.122500
v -0.020812 -0.031147 0.131900
v -0.020812 0.031147 0.122500
v -0.020812 0.031147 0.131900
v -0.020768 -0.031082 0.132394
v -0.020768 0.031082 0.132394
v -0.020642 -0.030893 0.132840
v -0.020642 0.030893 0.132840
v -0.020445 -0.030598 0.133194
v -0.020445 0.030598 0.133194
v -0.020197 -0.030228 0.133422
v -0.020197 0.030228 0.133422
v -0.019923 -0.029817 0.122500
v -0.019923 -0.029817 0.131900
v -0.019923 -0.029817 0.133500
v -0.019923 0.029817 0.122500
v -0.019923 0.029817 0.131900
v -0.019923 0.029817 0.133500
v -0.018730 -0.032441 0.122500
v -0.018730 -0.032441 0.131900
v -0.018730 0.032441 0.122500
v -0.018730 0.032441 0.131900
v -0.018691 -0.032373 0.132394
v -0.018691 0.032373 0.132394
v -0.018577 -0.032177 0.132840
v -0.018577 0.032177 0.132840
v -0.018400 -0.031870 0.133194
v -0.018400 0.031870 0.133194
v -0.018177 -0.031484 0.133422
v -0.018177 0.031484 0.133422
v -0.017930 -0.031056 0.122500
v -0.017930 -0.031056 0.131900
v -0.017930 -0.031056 0.133500
v -0.017930 0.031056 0.122500
v -0.017930 0.031056 0.131900
v -0.017930 0.031056 0.133500
v -0.016568 -0.033597 0.122500
v -0.016568 -0.033597 0.131900
v -0.016568 0.033597 0.122500
v -0.016568 0.033597 0.131900
v -0.016533 -0.033527 0.132394
v -0.016533 0.033527 0.132394
v -0.016433 -0.033323 0.132840
v -0.016433 0.033323 0.132840
v -0.016276 -0.033005 0.133194
v -0.016276 0.033005 0.133194
v -0.016079 -0.032605 0.133422
v -0.016079 0.032605 0.133422
v -0.015860 -0.032162 0.122500
v -0.015860 -0.032162 0.131900
v -0.015860 -0.032162 0.133500
v -0.015860 0.032162 0.122500
v -0.015860 0.032162 0.131900
v -0.015860 0.032162 0.133500
v -0.014335 -0.034609 0.122500
v -0.014335 -0.034609 0.131900
v -0.014335 0.034609 0.122500
v -0.014335 0.034609 0.131900
v -0.014305 -0.034536 0.132394
v -0.014305 0.034536 0.132394
v -0.014218 -0.034326 0.132840
v -0.014218 0.034326 0.132840
v -0.014083 -0.033999 0.133194
v -0.014083 0.033999 0.133194
v -0.013912 -0.033587 0.133422
v -0.013912 0.033587 0.133422
v -0.013723 -0.033130 0.122500
v -0.013723 -0.033130 0.131900
v -0.013723 -0.033130 0.133500
v -0.013723 0.033130 0.122500
v -0.013723 0.033130 0.131900
v -0.013723 0.033130 0.133500
v -0.012041 -0.035472 0.122500
v -0.012041 -0.035472 0.131900
v -0.012041 0.035472 0.122500
v -0.012041 0.035472 0.131900
v -0.012016 -0.035398 0.132394
v -0.012016 0.035398 0.132394
v -0.011943 -0.035183 0.132840
v -0.011943 0.035183 0.132840
v -0.011829 -0.034847 0.133194
v -0.011829 0.034847 0.133194
v -0.011686 -0.034425 0.133422
v -0.011686 0.034425 0.133422
v -0.011527 -0.033957 0.122500
v -0.011527 -0.033957 0.131900
v -0.011527 -0.033957 0.133500
v -0.011527 0.033957 0.122500
v -0.011527 0.033957 0.131900
v -0.011527 0.033957 0.133500
v -0.009695 -0.036184 0.122500
v -0.009695 -0.036184 0.131900
v -0.009695 0.036184 0.122500
v -0.009695 0.036184 0.131900
v -0.009675 -0.036108 0.132394
v -0.009675 0.036108 0.132394
v -0.009616 -0.035888 0.132840
v -0.009616 0.035888 0.132840
v -0.009525 -0.035547 0.133194
v -0.009525 0.035547 0.133194
v -0.009409 -0.035116 0.133422
v -0.009409 0.035116 0.133422
v -0.009281 -0.034638 0.122500
v -0.009281 -0.034638 0.131900
v -0.009281 -0.034638 0.133500
v -0.009281 0.034638 0.122500
v -0.009281 0.034638 0.131900
v -0.009281 0.034638 0.133500
v -0.007308 -0.036740 0.122500
v -0.007308 -0.036740 0.131900
v -0.007308 0.036740 0.122500
v -0.007308 0.036740 0.131900
v -0.007293 -0.036663 0.132394
v -0.007293 0.036663 0.132394
v -0.007248 -0.036441 0.132840
v -0.007248 0.036441 0.132840
v -0.007179 -0.036093 0.133194
v -0.007179 0.036093 0.133194
v -0.007092 -0.035656 0.133422
v -0.007092 0.035656 0.133422
v -0.006996 -0.035171 0.122500
v -0.006996 -0.035171 0.131900
v -0.006996 -0.035171 0.133500
v -0.006996 0.035171 0.122500
v -0.006996 0.035171 0.131900
v -0.006996 0.035171 0.133500
v -0.004890 -0.037140 0.122500
v -0.004890 -0.037140 0.131900
v -0.004890 0.037140 0.122500
v -0.004890 0.037140 0.131900
v -0.004879 -0.037062 0.132394
v -0.004879 0.037062 0.132394
v -0.004850 -0.036837 0.132840
v -0.004850 0.036837 0.132840
v -0.004803 -0.036486 0.133194
v -0.004803 0.036486 0.133194
v -0.004745 -0.036043 0.133422
v -0.004745 0.036043 0.133422
v -0.004681 -0.035553 0.122500
v -0.004681 -0.035553 0.131900
v -0.004681 -0.035553 0.133500
v -0.004681 0.035553 0.122500
v -0.004681 0.035553 0.131900
v -0.004681 0.035553 0.133500
v -0.002450 -0.037380 0.122500
v -0.002450 -0.037380 0.131900
v -0.002450 0.037380 0.122500
v -0.002450 0.037380 0.131900
v -0.002445 -0.037302 0.132394
v -0.002445 0.037302 0.132394
v -0.002430 -0.037075 0.132840
v -0.002430 0.037075 0.132840
v -0.002407 -0.036722 0.133194
v -0.002407 0.036722 0.133194
v -0.002378 -0.036277 0.133422
v -0.002378 0.036277 0.133422
v -0.002345 -0.035783 0.122500
v -0.002345 -0.035783 0.131900
v -0.002345 -0.035783 0.133500
v -0.002345 0.035783 0.122500
v -0.002345 0.035783 0.131900
v -0.002345 0.035783 0.133500
v -0.000000 -0.037460 0.122500
v -0.000000 -0.037460 0.131900
v -0.000000 -0.037382 0.132394
v -0.000000 -0.037154 0.132840
v -0.000000 -0.036800 0.133194
v -0.000000 -0.036354 0.133422
v -0.000000 -0.035860 0.122500
v -0.000000 -0.035860 0.131900
v -0.000000 -0.035860 0.133500
v 0.000000 0.000000 0.131900
v 0.000000 0.000000 0.133500
v 0.000000 0.035860 0.122500
v 0.000000 0.035860 0.131900
v 0.000000 0.035860 0.133500
v 0.000000 0.036354 0.133422
v 0.000000 0.036800 0.133194
v 0.000000 0.037154 0.132840
v 0.000000 0.037382 0.132394
v 0.000000 0.037460 0.122500
v 0.000000 0.037460 0.131900
v 0.002345 -0.035783 0.122500
v 0.002345 -0.035783 0.131900
v 0.002345 -0.035783 0.133500
v 0.002345 0.035783 0.122500
v 0.002345 0.035783 0.131900
v 0.002345 0.035783 0.133500
v 0.002378 -0.036277 0.133422
v 0.002378 0.036277 0.133422
v 0.002407 -0.036722 0.133194
v 0.002407 0.036722 0.133194
v 0.002430 -0.037075 0.132840
v 0.002430 0.037075 0.132840
v 0.002445 -0.037302 0.132394
v 0.002445 0.037302 0.132394
v 0.002450 -0.037380 0.122500
v 0.002450 -0.037380 0.131900
v 0.002450 0.037380 0.122500
v 0.002450 0.037380 0.131900
v 0.004681 -0.035553 0.122500
v 0.004681 -0.035553 0.131900
v 0.004681 -0.035553 0.133500
v 0.004681 0.035553 0.122500
v 0.004681 0.035553 0.131900
v 0.004681 0.035553 0.133500
v 0.004745 -0.036043 0.133422
v 0.004745 0.036043 0.133422
v 0.004803 -0.036486 0.133194
v 0.004803 0.036486 0.133194
v 0.004850 -0.036837 0.132840
v 0.004850 0.036837 0.132840
v 0.004879 -0.037062 0.132394
v 0.004879 0.037062 0.132394
v 0.004890 -0.037140 0.122500
v 0.004890 -0.037140 0.131900
v 0.004890 0.037140 0.122500
v 0.004890 0.037140 0.131900
v 0.006996 -0.035171 0.122500
v 0.006996 -0.035171 0.131900
v 0.006996 -0.035171 0.133500
v 0.006996 0.035171 0.122500
v 0.006996 0.035171 0.131900
v 0.006996 0.035171 0.133500
v 0.007092 -0.035656 0.133422
v 0.007092 0.035656 0.133422
v 0.007179 -0.036093 0.133194
v 0.007179 0.036093 0.133194
v 0.007248 -0.036441 0.132840
v 0.007248 0.036441 0.132840
v 0.007293 -0.036663 0.132394
v 0.007293 0.036663 0.132394
v 0.007308 -0.036740 0.122500
v 0.007308 -0.036740 0.131900
v 0.007308 0.036740 0.122500
v 0.007308 0.036740 0.131900
v 0.009281 -0.034638 0.122500
v 0.009281 -0.034638 0.131900
v 0.009281 -0.034638 0.133500
v 0.009281 0.034638 0.122500
v 0.009281 0.034638 0.131900
v 0.009281 0.034638 0.133500
v 0.009409 -0.035116 0.133422
v 0.009409 0.035116 0.133422
v 0.009525 -0.035547 0.133194
v 0.009525 0.035547 0.133194
v 0.009616 -0.035888 0.132840
v 0.009616 0.035888 0.132840
v 0.009675 -0.036108 0.132394
v 0.009675 0.036108 0.132394
v 0.009695 -0.036184 0.122500
v 0.009695 -0.036184 0.131900
v 0.009695 0.036184 0.122500
v 0.009695 0.036184 0.131900
v 0.011527 -0.033957 0.122500
v 0.011527 -0.033957 0.131900
v 0.011527 -0.033957 0.133500
v 0.011527 0.033957 0.122500
v 0.011527 0.033957 0.131900
v 0.011527 0.033957 0.133500
v 0.011686 -0.034425 0.133422
v 0.011686 0.034425 0.133422
v 0.011829 -0.034847 0.133194
v 0.011829 0.034847 0.133194
v 0.011943 -0.035183 0.132840
v 0.011943 0.035183 0.132840
v 0.012016 -0.035398 0.132394
v 0.012016 0.035398 0.132394
v 0.012041 -0.035472 0.122500
v 0.012041 -0.035472 0.131900
v 0.012041 0.035472 0.122500
v 0.012041 0.035472 0.131900
v 0.013723 -0.033130 0.122500
v 0.013723 -0.033130 0.131900
v 0.013723 -0.033130 0.133500
v 0.013723 0.033130 0.122500
v 0.013723 0.033130 0.131900
v 0.013723 0.033130 0.133500
v 0.013912 -0.033587 0.133422
v 0.013912 0.033587 0.133422
v 0.014083 -0.033999 0.133194
v 0.014083 0.033999 0.133194
v 0.014218 -0.034326 0.132840
v 0.014218 0.034326 0.132840
v 0.014305 -0.034536 0.132394
v 0.014305 0.034536 0.132394
v 0.014335 -0.034609 0.122500
v 0.014335 -0.034609 0.131900
v 0.014335 0.034609 0.122500
v 0.014335 0.034609 0.131900
v 0.015860 -0.032162 0.122500
v 0.015860 -0.032162 0.131900
v 0.015860 -0.032162 0.133500
v 0.015860 0.032162 0.122500
v 0.015860 0.032162 0.131900
v 0.015860 0.032162 0.133500
v 0.016079 -0.032605 0.133422
v 0.016079 0.032605 0.133422
v 0.016276 -0.033005 0.133194
v 0.016276 0.033005 0.133194
v 0.016433 -0.033323 0.132840
v 0.016433 0.033323 0.132840
v 0.016533 -0.033527 0.132394
v 0.016533 0.033527 0.132394
v 0.016568 -0.033597 0.122500
v 0.016568 -0.033597 0.131900
v 0.016568 0.033597 0.122500
v 0.016568 0.033597 0.131900
v 0.017930 -0.031056 0.122500
v 0.017930 -0.031056 0.131900
v 0.017930 -0.031056 0.133500
v 0.017930 0.031056 0.122500
v 0.017930 0.031056 0.131900
v 0.017930 0.031056 0.133500
v 0.018177 -0.031484 0.133422
v 0.018177 0.031484 0.133422
v 0.018400 -0.031870 0.133194
v 0.018400 0.031870 0.133194
v 0.018577 -0.032177 0.132840
v 0.018577 0.032177 0.132840
v 0.018691 -0.032373 0.132394
v 0.018691 0.032373 0.132394
v 0.018730 -0.032441 0.122500
v 0.018730 -0.032441 0.131900
v 0.018730 0.032441 0.122500
v 0.018730 0.032441 0.131900
v 0.019923 -0.029817 0.122500
v 0.019923 -0.029817 0.131900
v 0.019923 -0.029817 0.133500
v 0.019923 0.029817 0.122500
v 0.019923 0.029817 0.131900
v 0.019923 0.029817 0.133500
v 0.020197 -0.030228 0.133422
v 0.020197 0.030228 0.133422
v 0.020445 -0.030598 0.133194
v 0.020445 0.030598 0.133194
v 0.020642 -0.030893 0.132840
v 0.020642 0.030893 0.132840
v 0.020768 -0.031082 0.132394
v 0.020768 0.031082 0.132394
v 0.020812 -0.031147 0.122500
v 0.020812 -0.031147 0.131900
v 0.020812 0.031147 0.122500
v 0.020812 0.031147 0.131900
v 0.021830 -0.028450 0.122500
v 0.021830 -0.028450 0.131900
v 0.021830 -0.028450 0.133500
v 0.021830 0.028450 0.122500
v 0.021830 0.028450 0.131900
v 0.021830 0.028450 0.133500
v 0.022131 -0.028842 0.133422
v 0.022131 0.028842 0.133422
v 0.022403 -0.029196 0.133194
v 0.022403 0.029196 0.133194
v 0.022618 -0.029477 0.132840
v 0.022618 0.029477 0.132840
v 0.022757 -0.029657 0.132394
v 0.022757 0.029657 0.132394
v 0.022804 -0.029719 0.122500
v 0.022804 -0.029719 0.131900
v 0.022804 0.029719 0.122500
v 0.022804 0.029719 0.131900
v 0.023644 -0.026961 0.122500
v 0.023644 -0.026961 0.131900
v 0.023644 -0.026961 0.133500
v 0.023644 0.026961 0.122500
v 0.023644 0.026961 0.131900
v 0.023644 0.026961 0.133500
v 0.023970 -0.027333 0.133422
v 0.023970 0.027333 0.133422
v 0.024264 -0.027668 0.133194
v 0.024264 0.027668 0.133194
v 0.024498 -0.027934 0.132840
v 0.024498 0.027934 0.132840
v 0.024647 -0.028105 0.132394
v 0.024647 0.028105 0.132394
v 0.024699 -0.028164 0.122500
v 0.024699 -0.028164 0.131900
v 0.024699 0.028164 0.122500
v 0.024699 0.028164 0.131900
v 0.025357 -0.025357 0.122500
v 0.025357 -0.025357 0.131900
v 0.025357 -0.025357 0.133500
v 0.025357 0.025357 0.122500
v 0.025357 0.025357 0.131900
v 0.025357 0.025357 0.133500
v 0.025706 -0.025706 0.133422
v 0.025706 0.025706 0.133422
v 0.026022 -0.026022 0.133194
v 0.026022 0.026022 0.133194
v 0.026272 -0.026272 0.132840
v 0.026272 0.026272 0.132840
v 0.026433 -0.026433 0.132394
v 0.026433 0.026433 0.132394
v 0.026488 -0.026488 0.122500
v 0.026488 -0.026488 0.131900
v 0.026488 0.026488 0.122500
v 0.026488 0.026488 0.131900
v 0.026961 -0.023644 0.122500
v 0.026961 -0.023644 0.131900
v 0.026961 -0.023644 0.133500
v 0.026961 0.023644 0.122500
v 0.026961 0.023644 0.131900
v 0.026961 0.023644 0.133500
v 0.027333 -0.023970 0.133422
v 0.027333 0.023970 0.133422
v 0.027668 -0.024264 0.133194
v 0.027668 0.024264 0.133194
v 0.027934 -0.024498 0.132840
v 0.027934 0.024498 0.132840
v 0.028105 -0.024647 0.132394
v 0.028105 0.024647 0.132394
v 0.028164 -0.024699 0.122500
v 0.028164 -0.024699 0.131900
v 0.028164 0.024699 0.122500
v 0.028164 0.024699 0.131900
v 0.028450 -0.021830 0.122500
v 0.028450 -0.021830 0.131900
v 0.028450 -0.021830 0.133500
v 0.028450 0.021830 0.122500
v 0.028450 0.021830 0.131900
v 0.028450 0.021830 0.133500
v 0.028842 -0.022131 0.133422
v 0.028842 0.022131 0.133422
v 0.029196 -0.022403 0.133194
v 0.029196 0.022403 0.133194
v 0.029477 -0.022618 0.132840
v 0.029477 0.022618 0.132840
v 0.029657 -0.022757 0.132394
v 0.029657 0.022757 0.132394
v 0.029719 -0.022804 0.122500
v 0.029719 -0.022804 0.131900
v 0.029719 0.022804 0.122500
v 0.029719 0.022804 0.131900
v 0.029817 -0.019923 0.122500
v 0.029817 -0.019923 0.131900
v 0.029817 -0.019923 0.133500
v 0.029817 0.019923 0.122500
v 0.029817 0.019923 0.131900
v 0.029817 0.019923 0.133500
v 0.030228 -0.020197 0.133422
v 0.030228 0.020197 0.133422
v 0.030598 -0.020445 0.133194
v 0.030598 0.020445 0.133194
v 0.030893 -0.020642 0.132840
v 0.030893 0.020642 0.132840
v 0.031056 -0.017930 0.122500
v 0.031056 -0.017930 0.131900
v 0.031056 -0.017930 0.133500
v 0.031056 0.017930 0.122500
v 0.031056 0.017930 0.131900
v 0.031056 0.017930 0.133500
v 0.031082 -0.020768 0.132394
v 0.031082 0.020768 0.132394
v 0.031147 -0.020812 0.122500
v 0.031147 -0.020812 0.131900
v 0.031147 0.020812 0.122500
v 0.031147 0.020812 0.131900
v 0.031484 -0.018177 0.133422
v 0.031484 0.018177 0.133422
v 0.031870 -0.018400 0.133194
v 0.031870 0.018400 0.133194
v 0.032162 -0.015860 0.122500
v 0.032162 -0.015860 0.131900
v 0.032162 -0.015860 0.133500
v 0.032162 0.015860 0.122500
v 0.032162 0.015860 0.131900
v 0.032162 0.015860 0.133500
v 0.032177 -0.018577 0.132840
v 0.032177 0.018577 0.132840
v 0.032373 -0.018691 0.132394
v 0.032373 0.018691 0.132394
v 0.032441 -0.018730 0.122500
v 0.032441 -0.018730 0.131900
v 0.032441 0.018730 0.122500
v 0.032441 0.018730 0.131900
v 0.032605 -0.016079 0.133422
v 0.032605 0.016079 0.133422
v 0.033005 -0.016276 0.133194
v 0.033005 0.016276 0.133194
v 0.033130 -0.013723 0.122500
v 0.033130 -0.013723 0.131900
v 0.033130 -0.013723 0.133500
v 0.033130 0.013723 0.122500
v 0.033130 0.013723 0.131900
v 0.033130 0.013723 0.133500
v 0.033323 -0.016433 0.132840
v 0.033323 0.016433 0.132840
v 0.033527 -0.016533 0.132394
v 0.033527 0.016533 0.132394
v 0.033587 -0.013912 0.133422
v 0.033587 0.013912 0.133422
v 0.033597 -0.016568 0.122500
v 0.033597 -0.016568 0.131900
v 0.033597 0.016568 0.122500
v 0.033597 0.016568 0.131900
v 0.033957 -0.011527 0.122500
v 0.033957 -0.011527 0.131900
v 0.033957 -0.011527 0.133500
v 0.033957 0.011527 0.122500
v 0.033957 0.011527 0.131900
v 0.033957 0.011527 0.133500
v 0.033999 -0.014083 0.133194
v 0.033999 0.014083 0.133194
v 0.034326 -0.014218 0.132840
v 0.034326 0.014218 0.132840
v 0.034425 -0.011686 0.133422
v 0.034425 0.011686 0.133422
v 0.034536 -0.014305 0.132394
v 0.034536 0.014305 0.132394
v 0.034609 -0.014335 0.122500
v 0.034609 -0.014335 0.131900
v 0.034609 0.014335 0.122500
v 0.034609 0.014335 0.131900
v 0.034638 -0.009281 0.122500
v 0.034638 -0.009281 0.131900
v 0.034638 -0.009281 0.133500
v 0.034638 0.009281 0.122500
v 0.034638 0.009281 0.131900
v 0.034638 0.009281 0.133500
v 0.034847 -0.011829 0.133194
v 0.034847 0.011829 0.133194
v 0.035116 -0.009409 0.133422
v 0.035116 0.009409 0.133422
v 0.035171 -0.006996 0.122500
v 0.035171 -0.006996 0.131900
v 0.035171 -0.006996 0.133500
v 0.035171 0.006996 0.122500
v 0.035171 0.006996 0.131900
v 0.035171 0.006996 0.133500
v 0.035183 -0.011943 0.132840
v 0.035183 0.011943 0.132840
v 0.035398 -0.012016 0.132394
v 0.035398 0.012016 0.132394
v 0.035472 -0.012041 0.122500
v 0.035472 -0.012041 0.131900
v 0.035472 0.012041 0.122500
v 0.035472 0.012041 0.131900
v 0.035547 -0.009525 0.133194
v 0.035553 -0.004681 0.122500
v 0.035553 -0.004681 0.131900
v 0.035553 -0.004681 0.133500
v 0.035553 0.004681 0.122500
v 0.035553 0.004681 0.131900
v 0.035553 0.004681 0.133500
v 0.035547 0.009525 0.133194
v 0.035656 -0.007092 0.133422
v 0.035656 0.007092 0.133422
v 0.035783 -0.002345 0.122500
v 0.035783 -0.002345 0.131900
v 0.035783 -0.002345 0.133500
v 0.035783 0.002345 0.122500
v 0.035783 0.002345 0.131900
v 0.035783 0.002345 0.133500
v 0.035860 0.000000 0.122500
v 0.035860 0.000000 0.131900
v 0.035860 0.000000 0.133500
v 0.035888 -0.009616 0.132840
v 0.035888 0.009616 0.132840
v 0.036043 -0.004745 0.133422
v 0.036043 0.004745 0.133422
v 0.036093 -0.007179 0.133194
v 0.036093 0.007179 0.133194
v 0.036108 -0.009675 0.132394
v 0.036108 0.009675 0.132394
v 0.036184 -0.009695 0.122500
v 0.036184 -0.009695 0.131900
v 0.036184 0.009695 0.122500
v 0.036184 0.009695 0.131900
v 0.036277 -0.002378 0.133422
v 0.036277 0.002378 0.133422
v 0.036354 0.000000 0.133422
v 0.036441 -0.007248 0.132840
v 0.036441 0.007248 0.132840
v 0.036486 -0.004803 0.133194
v 0.036486 0.004803 0.133194
v 0.036663 -0.007293 0.132394
v 0.036663 0.007293 0.132394
v 0.036722 -0.002407 0.133194
v 0.036722 0.002407 0.133194
v 0.036740 -0.007308 0.122500
v 0.036740 -0.007308 0.131900
v 0.036740 0.007308 0.122500
v 0.036740 0.007308 0.131900
v 0.036800 0.000000 0.133194
v 0.036837 -0.004850 0.132840
v 0.036837 0.004850 0.132840
v 0.037062 -0.004879 0.132394
v 0.037062 0.004879 0.132394
v 0.037075 -0.002430 0.132840
v 0.037075 0.002430 0.132840
v 0.037140 -0.004890 0.122500
v 0.037140 -0.004890 0.131900
v 0.037140 0.004890 0.122500
v 0.037140 0.004890 0.131900
v 0.037154 0.000000 0.132840
v 0.037302 -0.002445 0.132394
v 0.037302 0.002445 0.132394
v 0.037380 -0.002450 0.122500
v 0.037380 -0.002450 0.131900
v 0.037382 0.000000 0.132394
v 0.037380 0.002450 0.122500
v 0.037380 0.002450 0.131900
v 0.037460 0.000000 0.122500
v 0.037460 0.000000 0.131900
f 434 818 815
f 818 833 832
f 818 832 815
f 833 846 841
f 833 841 832
f 846 857 852
f 846 852 841
f 857 862 859
f 857 859 852
f 862 866 864
f 862 864 859
f 866 865 863
f 866 863 864
f 865 816 813
f 865 813 863
f 816 817 814
f 816 814 813
f 817 433 814
f 434 815 806
f 815 832 822
f 815 822 806
f 832 841 837
f 832 837 822
f 841 852 848
f 841 848 837
f 852 859 850
f 852 850 848
f 859 864 856
f 859 856 850
f 864 863 855
f 864 855 856
f 863 813 804
f 863 804 855
f 813 814 805
f 813 805 804
f 814 433 805
f 434 806 791
f 806 822 809
f 806 809 791
f 822 837 824
f 822 824 809
f 837 848 835
f 837 835 824
f 848 850 839
f 848 839 835
f 850 856 845
f 850 845 839
f 856 855 844
f 856 844 845
f 855 804 789
f 855 789 844
f 804 805 790
f 804 790 789
f 805 433 790
f 434 791 781
f 791 809 785
f 791 785 781
f 809 824 807
f 809 807 785
f 824 835 820
f 824 820 807
f 835 839 826
f 835 826 820
f 839 845 830
f 839 830 826
f 845 844 829
f 845 829 830
f 844 789 779
f 844 779 829
f 789 790 780
f 789 780 779
f 790 433 780
f 434 781 763
f 781 785 769
f 781 769 763
f 785 807 783
f 785 783 769
f 807 820 793
f 807 793 783
f 820 826 795
f 820 795 793
f 826 830 799
f 826 799 795
f 830 829 798
f 830 798 799
f 829 779 761
f 829 761 798
f 779 780 762
f 779 762 761
f 780 433 762
f 434 763 747
f 763 769 753
f 763 753 747
f 769 783 765
f 769 765 753
f 783 793 767
f 783 767 765
f 793 795 771
f 793 771 767
f 795 799 775
f 795 775 771
f 799 798 774
f 799 774 775
f 798 761 745
f 798 745 774
f 761 762 746
f 761 746 745
f 762 433 746
f 434 747 729
f 747 753 739
f 747 739 729
f 753 765 741
f 753 741 739
f 765 767 749
f 765 749 741
f 767 771 751
f 767 751 749
f 771 775 757
f 771 757 751
f 775 774 756
f 775 756 757
f 774 745 727
f 774 727 756
f 745 746 728
f 745 728 727
f 746 433 728
f 434 729 713
f 729 739 721
f 729 721 713
f 739 741 723
f 739 723 721
f 741 749 731
f 741 731 723
f 749 751 733
f 749 733 731
f 751 757 737
f 751 737 733
f 757 756 736
f 757 736 737
f 756 727 711
f 756 711 736
f 727 728 712
f 727 712 711
f 728 433 712
f 434 713 701
f 713 721 703
f 713 703 701
f 721 723 705
f 721 705 703
f 723 731 707
f 723 707 705
f 731 733 715
f 731 715 707
f 733 737 719
f 733 719 715
f 737 736 718
f 737 718 719
f 736 711 699
f 736 699 718
f 711 712 700
f 711 700 699
f 712 433 700
f 434 701 683
f 701 703 685
f 701 685 683
f 703 705 687
f 703 687 685
f 705 707 689
f 705 689 687
f 707 715 691
f 707 691 689
f 715 719 695
f 715 695 691
f 719 718 694
f 719 694 695
f 718 699 681
f 718 681 694
f 699 700 682
f 699 682 681
f 700 433 682
f 434 683 665
f 683 685 667
f 683 667 665
f 685 687 669
f 685 669 667
f 687 689 671
f 687 671 669
f 689 691 673
f 689 673 671
f 691 695 677
f 691 677 673
f 695 694 676
f 695 676 677
f 694 681 663
f 694 663 676
f 681 682 664
f 681 664 663
f 682 433 664
f 434 665 647
f 665 667 649
f 665 649 647
f 667 669 651
f 667 651 649
f 669 671 653
f 669 653 651
f 671 673 655
f 671 655 653
f 673 677 659
f 673 659 655
f 677 676 658
f 677 658 659
f 676 663 645
f 676 645 658
f 663 664 646
f 663 646 645
f 664 433 646
f 434 647 629
f 647 649 631
f 647 631 629
f 649 651 633
f 649 633 631
f 651 653 635
f 651 635 633
f 653 655 637
f 653 637 635
f 655 659 641
f 655 641 637
f 659 658 640
f 659 640 641
f 658 645 627
f 658 627 640
f 645 646 628
f 645 628 627
f 646 433 628
f 434 629 611
f 629 631 613
f 629 613 611
f 631 633 615
f 631 615 613
f 633 635 617
f 633 617 615
f 635 637 619
f 635 619 617
f 637 641 623
f 637 623 619
f 641 640 622
f 641 622 623
f 640 627 609
f 640 609 622
f 627 628 610
f 627 610 609
f 628 433 610
f 434 611 593
f 611 613 595
f 611 595 593
f 613 615 597
f 613 597 595
f 615 617 599
f 615 599 597
f 617 619 601
f 617 601 599
f 619 623 605
f 619 605 601
f 623 622 604
f 623 604 605
f 622 609 591
f 622 591 604
f 609 610 592
f 609 592 591
f 610 433 592
f 434 593 575
f 593 595 577
f 593 577 575
f 595 597 579
f 595 579 577
f 597 599 581
f 597 581 579
f 599 601 583
f 599 583 581
f 601 605 587
f 601 587 583
f 605 604 586
f 605 586 587
f 604 591 573
f 604 573 586
f 591 592 574
f 591 574 573
f 592 433 574
f 434 575 557
f 575 577 559
f 575 559 557
f 577 579 561
f 577 561 559
f 579 581 563
f 579 563 561
f 581 583 565
f 581 565 563
f 583 587 569
f 583 569 565
f 587 586 568
f 587 568 569
f 586 573 555
f 586 555 568
f 573 574 556
f 573 556 555
f 574 433 556
f 434 557 539
f 557 559 541
f 557 541 539
f 559 561 543
f 559 543 541
f 561 563 545
f 561 545 543
f 563 565 547
f 563 547 545
f 565 569 551
f 565 551 547
f 569 568 550
f 569 550 551
f 568 555 537
f 568 537 550
f 555 556 538
f 555 538 537
f 556 433 538
f 434 539 521
f 539 541 523
f 539 523 521
f 541 543 525
f 541 525 523
f 543 545 527
f 543 527 525
f 545 547 529
f 545 529 527
f 547 551 533
f 547 533 529
f 551 550 532
f 551 532 533
f 550 537 519
f 550 519 532
f 537 538 520
f 537 520 519
f 538 433 520
f 434 521 503
f 521 523 505
f 521 505 503
f 523 525 507
f 523 507 505
f 525 527 509
f 525 509 507
f 527 529 511
f 527 511 509
f 529 533 515
f 529 515 511
f 533 532 514
f 533 514 515
f 532 519 501
f 532 501 514
f 519 520 502
f 519 502 501
f 520 433 502
f 434 503 485
f 503 505 487
f 503 487 485
f 505 507 489
f 505 489 487
f 507 509 491
f 507 491 489
f 509 511 493
f 509 493 491
f 511 515 497
f 511 497 493
f 515 514 496
f 515 496 497
f 514 501 483
f 514 483 496
f 501 502 484
f 501 484 483
f 502 433 484
f 434 485 467
f 485 487 469
f 485 469 467
f 487 489 471
f 487 471 469
f 489 491 473
f 489 473 471
f 491 493 475
f 491 475 473
f 493 497 479
f 493 479 475
f 497 496 478
f 497 478 479
f 496 483 465
f 496 465 478
f 483 484 466
f 483 466 465
f 484 433 466
f 434 467 449
f 467 469 451
f 467 451 449
f 469 471 453
f 469 453 451
f 471 473 455
f 471 455 453
f 473 475 457
f 473 457 455
f 475 479 461
f 475 461 457
f 479 478 460
f 479 460 461
f 478 465 447
f 478 447 460
f 465 466 448
f 465 448 447
f 466 433 448
f 434 449 437
f 449 451 438
f 449 438 437
f 451 453 439
f 451 439 438
f 453 455 440
f 453 440 439
f 455 457 441
f 455 441 440
f 457 461 443
f 457 443 441
f 461 460 442
f 461 442 443
f 460 447 435
f 460 435 442
f 447 448 436
f 447 436 435
f 448 433 436
f 434 437 423
f 437 438 417
f 437 417 423
f 438 439 415
f 438 415 417
f 439 440 413
f 439 413 415
f 440 441 411
f 440 411 413
f 441 443 409
f 441 409 411
f 443 442 408
f 443 408 409
f 442 435 421
f 442 421 408
f 435 436 422
f 435 422 421
f 436 433 422
f 434 423 405
f 423 417 399
f 423 399 405
f 417 415 397
f 417 397 399
f 415 413 395
f 415 395 397
f 413 411 393
f 413 393 395
f 411 409 391
f 411 391 393
f 409 408 390
f 409 390 391
f 408 421 403
f 408 403 390
f 421 422 404
f 421 404 403
f 422 433 404
f 434 405 387
f 405 399 381
f 405 381 387
f 399 397 379
f 399 379 381
f 397 395 377
f 397 377 379
f 395 393 375
f 395 375 377
f 393 391 373
f 393 373 375
f 391 390 372
f 391 372 373
f 390 403 385
f 390 385 372
f 403 404 386
f 403 386 385
f 404 433 386
f 434 387 369
f 387 381 363
f 387 363 369
f 381 379 361
f 381 361 363
f 379 377 359
f 379 359 361
f 377 375 357
f 377 357 359
f 375 373 355
f 375 355 357
f 373 372 354
f 373 354 355
f 372 385 367
f 372 367 354
f 385 386 368
f 385 368 367
f 386 433 368
f 434 369 351
f 369 363 345
f 369 345 351
f 363 361 343
f 363 343 345
f 361 359 341
f 361 341 343
f 359 357 339
f 359 339 341
f 357 355 337
f 357 337 339
f 355 354 336
f 355 336 337
f 354 367 349
f 354 349 336
f 367 368 350
f 367 350 349
f 368 433 350
f 434 351 333
f 351 345 327
f 351 327 333
f 345 343 325
f 345 325 327
f 343 341 323
f 343 323 325
f 341 339 321
f 341 321 323
f 339 337 319
f 339 319 321
f 337 336 318
f 337 318 319
f 336 349 331
f 336 331 318
f 349 350 332
f 349 332 331
f 350 433 332
f 434 333 315
f 333 327 309
f 333 309 315
f 327 325 307
f 327 307 309
f 325 323 305
f 325 305 307
f 323 321 303
f 323 303 305
f 321 319 301
f 321 301 303
f 319 318 300
f 319 300 301
f 318 331 313
f 318 313 300
f 331 332 314
f 331 314 313
f 332 433 314
f 434 315 297
f 315 309 291
f 315 291 297
f 309 307 289
f 309 289 291
f 307 305 287
f 307 287 289
f 305 303 285
f 305 285 287
f 303 301 283
f 303 283 285
f 301 300 282
f 301 282 283
f 300 313 295
f 300 295 282
f 313 314 296
f 313 296 295
f 314 433 296
f 434 297 279
f 297 291 273
f 297 273 279
f 291 289 271
f 291 271 273
f 289 287 269
f 289 269 271
f 287 285 267
f 287 267 269
f 285 283 265
f 285 265 267
f 283 282 264
f 283 264 265
f 282 295 277
f 282 277 264
f 295 296 278
f 295 278 277
f 296 433 278
f 434 279 261
f 279 273 255
f 279 255 261
f 273 271 253
f 273 253 255
f 271 269 251
f 271 251 253
f 269 267 249
f 269 249 251
f 267 265 247
f 267 247 249
f 265 264 246
f 265 246 247
f 264 277 259
f 264 259 246
f 277 278 260
f 277 260 259
f 278 433 260
f 434 261 243
f 261 255 237
f 261 237 243
f 255 253 235
f 255 235 237
f 253 251 233
f 253 233 235
f 251 249 231
f 251 231 233
f 249 247 229
f 249 229 231
f 247 246 228
f 247 228 229
f 246 259 241
f 246 241 228
f 259 260 242
f 259 242 241
f 260 433 242
f 434 243 225
f 243 237 219
f 243 219 225
f 237 235 217
f 237 217 219
f 235 233 215
f 235 215 217
f 233 231 213
f 233 213 215
f 231 229 211
f 231 211 213
f 229 228 210
f 229 210 211
f 228 241 223
f 228 223 210
f 241 242 224
f 241 224 223
f 242 433 224
f 434 225 207
f 225 219 201
f 225 201 207
f 219 217 199
f 219 199 201
f 217 215 197
f 217 197 199
f 215 213 195
f 215 195 197
f 213 211 193
f 213 193 195
f 211 210 192
f 211 192 193
f 210 223 205
f 210 205 192
f 223 224 206
f 223 206 205
f 224 433 206
f 434 207 189
f 207 201 183
f 207 183 189
f 201 199 181
f 201 181 183
f 199 197 179
f 199 179 181
f 197 195 177
f 197 177 179
f 195 193 175
f 195 175 177
f 193 192 174
f 193 174 175
f 192 205 187
f 192 187 174
f 205 206 188
f 205 188 187
f 206 433 188
f 434 189 171
f 189 183 165
f 189 165 171
f 183 181 163
f 183 163 165
f 181 179 161
f 181 161 163
f 179 177 153
f 179 153 161
f 177 175 151
f 177 151 153
f 175 174 150
f 175 150 151
f 174 187 169
f 174 169 150
f 187 188 170
f 187 170 169
f 188 433 170
f 434 171 159
f 171 165 147
f 171 147 159
f 165 163 145
f 165 145 147
f 163 161 137
f 163 137 145
f 161 153 135
f 161 135 137
f 153 151 133
f 153 133 135
f 151 150 132
f 151 132 133
f 150 169 157
f 150 157 132
f 169 170 158
f 169 158 157
f 170 433 158
f 434 159 143
f 159 147 129
f 159 129 143
f 147 145 127
f 147 127 129
f 145 137 119
f 145 119 127
f 137 135 117
f 137 117 119
f 135 133 113
f 135 113 117
f 133 132 112
f 133 112 113
f 132 157 141
f 132 141 112
f 157 158 142
f 157 142 141
f 158 433 142
f 434 143 125
f 143 129 115
f 143 115 125
f 129 127 103
f 129 103 115
f 127 119 101
f 127 101 103
f 119 117 97
f 119 97 101
f 117 113 95
f 117 95 97
f 113 112 94
f 113 94 95
f 112 141 123
f 112 123 94
f 141 142 124
f 141 124 123
f 142 433 124
f 434 125 109
f 125 115 99
f 125 99 109
f 115 103 85
f 115 85 99
f 103 101 75
f 103 75 85
f 101 97 73
f 101 73 75
f 97 95 71
f 97 71 73
f 95 94 70
f 95 70 71
f 94 123 107
f 94 107 70
f 123 124 108
f 123 108 107
f 124 433 108
f 434 109 91
f 109 99 83
f 109 83 91
f 99 85 67
f 99 67 83
f 85 75 48
f 85 48 67
f 75 73 42
f 75 42 48
f 73 71 40
f 73 40 42
f 71 70 39
f 71 39 40
f 70 107 89
f 70 89 39
f 107 108 90
f 107 90 89
f 108 433 90
f 434 91 81
f 91 83 59
f 91 59 81
f 83 67 44
f 83 44 59
f 67 48 33
f 67 33 44
f 48 42 29
f 48 29 33
f 42 40 25
f 42 25 29
f 40 39 24
f 40 24 25
f 39 89 79
f 39 79 24
f 89 90 80
f 89 80 79
f 90 433 80
f 434 81 66
f 81 59 46
f 81 46 66
f 59 44 31
f 59 31 46
f 44 33 20
f 44 20 31
f 33 29 18
f 33 18 20
f 29 25 14
f 29 14 18
f 25 24 13
f 25 13 14
f 24 79 64
f 24 64 13
f 79 80 65
f 79 65 64
f 80 433 65
f 434 66 57
f 66 46 36
f 66 36 57
f 46 31 27
f 46 27 36
f 31 20 16
f 31 16 27
f 20 18 9
f 20 9 16
f 18 14 7
f 18 7 9
f 14 13 6
f 14 6 7
f 13 64 55
f 13 55 6
f 64 65 56
f 64 56 55
f 65 433 56
f 434 57 51
f 57 36 34
f 57 34 51
f 36 27 21
f 36 21 34
f 27 16 10
f 27 10 21
f 16 9 5
f 16 5 10
f 9 7 2
f 9 2 5
f 7 6 1
f 7 1 2
f 6 55 49
f 6 49 1
f 55 56 50
f 55 50 49
f 56 433 50
f 434 51 54
f 51 34 35
f 51 35 54
f 34 21 26
f 34 26 35
f 21 10 15
f 21 15 26
f 10 5 8
f 10 8 15
f 5 2 4
f 5 4 8
f 2 1 3
f 2 3 4
f 1 49 52
f 1 52 3
f 49 50 53
f 49 53 52
f 50 433 53
f 434 54 63
f 54 35 45
f 54 45 63
f 35 26 30
f 35 30 45
f 26 15 19
f 26 19 30
f 15 8 17
f 15 17 19
f 8 4 12
f 8 12 17
f 4 3 11
f 4 11 12
f 3 52 61
f 3 61 11
f 52 53 62
f 52 62 61
f 53 433 62
f 434 63 78
f 63 45 58
f 63 58 78
f 45 30 43
f 45 43 58
f 30 19 32
f 30 32 43
f 19 17 28
f 19 28 32
f 17 12 23
f 17 23 28
f 12 11 22
f 12 22 23
f 11 61 76
f 11 76 22
f 61 62 77
f 61 77 76
f 62 433 77
f 434 78 88
f 78 58 82
f 78 82 88
f 58 43 60
f 58 60 82
f 43 32 47
f 43 47 60
f 32 28 41
f 32 41 47
f 28 23 38
f 28 38 41
f 23 22 37
f 23 37 38
f 22 76 86
f 22 86 37
f 76 77 87
f 76 87 86
f 77 433 87
f 434 88 106
f 88 82 98
f 88 98 106
f 82 60 84
f 82 84 98
f 60 47 74
f 60 74 84
f 47 41 72
f 47 72 74
f 41 38 69
f 41 69 72
f 38 37 68
f 38 68 69
f 37 86 104
f 37 104 68
f 86 87 105
f 86 105 104
f 87 433 105
f 434 106 122
f 106 98 114
f 106 114 122
f 98 84 102
f 98 102 114
f 84 74 100
f 84 100 102
f 74 72 96
f 74 96 100
f 72 69 93
f 72 93 96
f 69 68 92
f 69 92 93
f 68 104 120
f 68 120 92
f 104 105 121
f 104 121 120
f 105 433 121
f 434 122 140
f 122 114 128
f 122 128 140
f 114 102 126
f 114 126 128
f 102 100 118
f 102 118 126
f 100 96 116
f 100 116 118
f 96 93 111
f 96 111 116
f 93 92 110
f 93 110 111
f 92 120 138
f 92 138 110
f 120 121 139
f 120 139 138
f 121 433 139
f 434 140 156
f 140 128 146
f 140 146 156
f 128 126 144
f 128 144 146
f 126 118 136
f 126 136 144
f 118 116 134
f 118 134 136
f 116 111 131
f 116 131 134
f 111 110 130
f 111 130 131
f 110 138 154
f 110 154 130
f 138 139 155
f 138 155 154
f 139 433 155
f 434 156 168
f 156 146 164
f 156 164 168
f 146 144 162
f 146 162 164
f 144 136 160
f 144 160 162
f 136 134 152
f 136 152 160
f 134 131 149
f 134 149 152
f 131 130 148
f 131 148 149
f 130 154 166
f 130 166 148
f 154 155 167
f 154 167 166
f 155 433 167
f 434 168 186
f 168 164 182
f 168 182 186
f 164 162 180
f 164 180 182
f 162 160 178
f 162 178 180
f 160 152 176
f 160 176 178
f 152 149 173
f 152 173 176
f 149 148 172
f 149 172 173
f 148 166 184
f 148 184 172
f 166 167 185
f 166 185 184
f 167 433 185
f 434 186 204
f 186 182 200
f 186 200 204
f 182 180 198
f 182 198 200
f 180 178 196
f 180 196 198
f 178 176 194
f 178 194 196
f 176 173 191
f 176 191 194
f 173 172 190
f 173 190 191
f 172 184 202
f 172 202 190
f 184 185 203
f 184 203 202
f 185 433 203
f 434 204 222
f 204 200 218
f 204 218 222
f 200 198 216
f 200 216 218
f 198 196 214
f 198 214 216
f 196 194 212
f 196 212 214
f 194 191 209
f 194 209 212
f 191 190 208
f 191 208 209
f 190 202 220
f 190 220 208
f 202 203 221
f 202 221 220
f 203 433 221
f 434 222 240
f 222 218 236
f 222 236 240
f 218 216 234
f 218 234 236
f 216 214 232
f 216 232 234
f 214 212 230
f 214 230 232
f 212 209 227
f 212 227 230
f 209 208 226
f 209 226 227
f 208 220 238
f 208 238 226
f 220 221 239
f 220 239 238
f 221 433 239
f 434 240 258
f 240 236 254
f 240 254 258
f 236 234 252
f 236 252 254
f 234 232 250
f 234 250 252
f 232 230 248
f 232 248 250
f 230 227 245
f 230 245 248
f 227 226 244
f 227 244 245
f 226 238 256
f 226 256 244
f 238 239 257
f 238 257 256
f 239 433 257
f 434 258 276
f 258 254 272
f 258 272 276
f 254 252 270
f 254 270 272
f 252 250 268
f 252 268 270
f 250 248 266
f 250 266 268
f 248 245 263
f 248 263 266
f 245 244 262
f 245 262 263
f 244 256 274
f 244 274 262
f 256 257 275
f 256 275 274
f 257 433 275
f 434 276 294
f 276 272 290
f 276 290 294
f 272 270 288
f 272 288 290
f 270 268 286
f 270 286 288
f 268 266 284
f 268 284 286
f 266 263 281
f 266 281 284
f 263 262 280
f 263 280 281
f 262 274 292
f 262 292 280
f 274 275 293
f 274 293 292
f 275 433 293
f 434 294 312
f 294 290 308
f 294 308 312
f 290 288 306
f 290 306 308
f 288 286 304
f 288 304 306
f 286 284 302
f 286 302 304
f 284 281 299
f 284 299 302
f 281 280 298
f 281 298 299
f 280 292 310
f 280 310 298
f 292 293 311
f 292 311 310
f 293 433 311
f 434 312 330
f 312 308 326
f 312 326 330
f 308 306 324
f 308 324 326
f 306 304 322
f 306 322 324
f 304 302 320
f 304 320 322
f 302 299 317
f 302 317 320
f 299 298 316
f 299 316 317
f 298 310 328
f 298 328 316
f 310 311 329
f 310 329 328
f 311 433 329
f 434 330 348
f 330 326 344
f 330 344 348
f 326 324 342
f 326 342 344
f 324 322 340
f 324 340 342
f 322 320 338
f 322 338 340
f 320 317 335
f 320 335 338
f 317 316 334
f 317 334 335
f 316 328 346
f 316 346 334
f 328 329 347
f 328 347 346
f 329 433 347
f 434 348 366
f 348 344 362
f 348 362 366
f 344 342 360
f 344 360 362
f 342 340 358
f 342 358 360
f 340 338 356
f 340 356 358
f 338 335 353
f 338 353 356
f 335 334 352
f 335 352 353
f 334 346 364
f 334 364 352
f 346 347 365
f 346 365 364
f 347 433 365
f 434 366 384
f 366 362 380
f 366 380 384
f 362 360 378
f 362 378 380
f 360 358 376
f 360 376 378
f 358 356 374
f 358 374 376
f 356 353 371
f 356 371 374
f 353 352 370
f 353 370 371
f 352 364 382
f 352 382 370
f 364 365 383
f 364 383 382
f 365 433 383
f 434 384 402
f 384 380 398
f 384 398 402
f 380 378 396
f 380 396 398
f 378 376 394
f 378 394 396
f 376 374 392
f 376 392 394
f 374 371 389
f 374 389 392
f 371 370 388
f 371 388 389
f 370 382 400
f 370 400 388
f 382 383 401
f 382 401 400
f 383 433 401
f 434 402 420
f 402 398 416
f 402 416 420
f 398 396 414
f 398 414 416
f 396 394 412
f 396 412 414
f 394 392 410
f 394 410 412
f 392 389 407
f 392 407 410
f 389 388 406
f 389 406 407
f 388 400 418
f 388 418 406
f 400 401 419
f 400 419 418
f 401 433 419
f 434 420 432
f 420 416 429
f 420 429 432
f 416 414 428
f 416 428 429
f 414 412 427
f 414 427 428
f 412 410 426
f 412 426 427
f 410 407 425
f 410 425 426
f 407 406 424
f 407 424 425
f 406 418 430
f 406 430 424
f 418 419 431
f 418 431 430
f 419 433 431
f 434 432 446
f 432 429 450
f 432 450 446
f 429 428 452
f 429 452 450
f 428 427 454
f 428 454 452
f 427 426 456
f 427 456 454
f 426 425 459
f 426 459 456
f 425 424 458
f 425 458 459
f 424 430 444
f 424 444 458
f 430 431 445
f 430 445 444
f 431 433 445
f 434 446 464
f 446 450 468
f 446 468 464
f 450 452 470
f 450 470 468
f 452 454 472
f 452 472 470
f 454 456 474
f 454 474 472
f 456 459 477
f 456 477 474
f 459 458 476
f 459 476 477
f 458 444 462
f 458 462 476
f 444 445 463
f 444 463 462
f 445 433 463
f 434 464 482
f 464 468 486
f 464 486 482
f 468 470 488
f 468 488 486
f 470 472 490
f 470 490 488
f 472 474 492
f 472 492 490
f 474 477 495
f 474 495 492
f 477 476 494
f 477 494 495
f 476 462 480
f 476 480 494
f 462 463 481
f 462 481 480
f 463 433 481
f 434 482 500
f 482 486 504
f 482 504 500
f 486 488 506
f 486 506 504
f 488 490 508
f 488 508 506
f 490 492 510
f 490 510 508
f 492 495 513
f 492 513 510
f 495 494 512
f 495 512 513
f 494 480 498
f 494 498 512
f 480 481 499
f 480 499 498
f 481 433 499
f 434 500 518
f 500 504 522
f 500 522 518
f 504 506 524
f 504 524 522
f 506 508 526
f 506 526 524
f 508 510 528
f 508 528 526
f 510 513 531
f 510 531 528
f 513 512 530
f 513 530 531
f 512 498 516
f 512 516 530
f 498 499 517
f 498 517 516
f 499 433 517
f 434 518 536
f 518 522 540
f 518 540 536
f 522 524 542
f 522 542 540
f 524 526 544
f 524 544 542
f 526 528 546
f 526 546 544
f 528 531 549
f 528 549 546
f 531 530 548
f 531 548 549
f 530 516 534
f 530 534 548
f 516 517 535
f 516 535 534
f 517 433 535
f 434 536 554
f 536 540 558
f 536 558 554
f 540 542 560
f 540 560 558
f 542 544 562
f 542 562 560
f 544 546 564
f 544 564 562
f 546 549 567
f 546 567 564
f 549 548 566
f 549 566 567
f 548 534 552
f 548 552 566
f 534 535 553
f 534 553 552
f 535 433 553
f 434 554 572
f 554 558 576
f 554 576 572
f 558 560 578
f 558 578 576
f 560 562 580
f 560 580 578
f 562 564 582
f 562 582 580
f 564 567 585
f 564 585 582
f 567 566 584
f 567 584 585
f 566 552 570
f 566 570 584
f 552 553 571
f 552 571 570
f 553 433 571
f 434 572 590
f 572 576 594
f 572 594 590
f 576 578 596
f 576 596 594
f 578 580 598
f 578 598 596
f 580 582 600
f 580 600 598
f 582 585 603
f 582 603 600
f 585 584 602
f 585 602 603
f 584 570 588
f 584 588 602
f 570 571 589
f 570 589 588
f 571 433 589
f 434 590 608
f 590 594 612
f 590 612 608
f 594 596 614
f 594 614 612
f 596 598 616
f 596 616 614
f 598 600 618
f 598 618 616
f 600 603 621
f 600 621 618
f 603 602 620
f 603 620 621
f 602 588 606
f 602 606 620
f 588 589 607
f 588 607 606
f 589 433 607
f 434 608 626
f 608 612 630
f 608 630 626
f 612 614 632
f 612 632 630
f 614 616 634
f 614 634 632
f 616 618 636
f 616 636 634
f 618 621 639
f 618 639 636
f 621 620 638
f 621 638 639
f 620 606 624
f 620 624 638
f 606 607 625
f 606 625 624
f 607 433 625
f 434 626 644
f 626 630 648
f 626 648 644
f 630 632 650
f 630 650 648
f 632 634 652
f 632 652 650
f 634 636 654
f 634 654 652
f 636 639 657
f 636 657 654
f 639 638 656
f 639 656 657
f 638 624 642
f 638 642 656
f 624 625 643
f 624 643 642
f 625 433 643
f 434 644 662
f 644 648 666
f 644 666 662
f 648 650 668
f 648 668 666
f 650 652 670
f 650 670 668
f 652 654 672
f 652 672 670
f 654 657 675
f 654 675 672
f 657 656 674
f 657 674 675
f 656 642 660
f 656 660 674
f 642 643 661
f 642 661 660
f 643 433 661
f 434 662 680
f 662 666 684
f 662 684 680
f 666 668 686
f 666 686 684
f 668 670 688
f 668 688 686
f 670 672 690
f 670 690 688
f 672 675 693
f 672 693 690
f 675 674 692
f 675 692 693
f 674 660 678
f 674 678 692
f 660 661 679
f 660 679 678
f 661 433 679
f 434 680 698
f 680 684 702
f 680 702 698
f 684 686 704
f 684 704 702
f 686 688 706
f 686 706 704
f 688 690 714
f 688 714 706
f 690 693 717
f 690 717 714
f 693 692 716
f 693 716 717
f 692 678 696
f 692 696 716
f 678 679 697
f 678 697 696
f 679 433 697
f 434 698 710
f 698 702 720
f 698 720 710
f 702 704 722
f 702 722 720
f 704 706 730
f 704 730 722
f 706 714 732
f 706 732 730
f 714 717 735
f 714 735 732
f 717 716 734
f 717 734 735
f 716 696 708
f 716 708 734
f 696 697 709
f 696 709 708
f 697 433 709
f 434 710 726
f 710 720 738
f 710 738 726
f 720 722 740
f 720 740 738
f 722 730 748
f 722 748 740
f 730 732 750
f 730 750 748
f 732 735 755
f 732 755 750
f 735 734 754
f 735 754 755
f 734 708 724
f 734 724 754
f 708 709 725
f 708 725 724
f 709 433 725
f 434 726 744
f 726 738 752
f 726 752 744
f 738 740 764
f 738 764 752
f 740 748 766
f 740 766 764
f 748 750 770
f 748 770 766
f 750 755 773
f 750 773 770
f 755 754 772
f 755 772 773
f 754 724 742
f 754 742 772
f 724 725 743
f 724 743 742
f 725 433 743
f 434 744 760
f 744 752 768
f 744 768 760
f 752 764 782
f 752 782 768
f 764 766 792
f 764 792 782
f 766 770 794
f 766 794 792
f 770 773 797
f 770 797 794
f 773 772 796
f 773 796 797
f 772 742 758
f 772 758 796
f 742 743 759
f 742 759 758
f 743 433 759
f 434 760 778
f 760 768 784
f 760 784 778
f 768 782 800
f 768 800 784
f 782 792 819
f 782 819 800
f 792 794 825
f 792 825 819
f 794 797 828
f 794 828 825
f 797 796 827
f 797 827 828
f 796 758 776
f 796 776 827
f 758 759 777
f 758 777 776
f 759 433 777
f 434 778 788
f 778 784 808
f 778 808 788
f 784 800 823
f 784 823 808
f 800 819 834
f 800 834 823
f 819 825 838
f 819 838 834
f 825 828 843
f 825 843 838
f 828 827 842
f 828 842 843
f 827 776 786
f 827 786 842
f 776 777 787
f 776 787 786
f 777 433 787
f 434 788 803
f 788 808 821
f 788 821 803
f 808 823 836
f 808 836 821
f 823 834 847
f 823 847 836
f 834 838 849
f 834 849 847
f 838 843 854
f 838 854 849
f 843 842 853
f 843 853 854
f 842 786 801
f 842 801 853
f 786 787 802
f 786 802 801
f 787 433 802
f 434 803 812
f 803 821 831
f 803 831 812
f 821 836 840
f 821 840 831
f 836 847 851
f 836 851 840
f 847 849 858
f 847 858 851
f 849 854 861
f 849 861 858
f 854 853 860
f 854 860 861
f 853 801 810
f 853 810 860
f 801 802 811
f 801 811 810
f 802 433 811
f 434 812 818
f 812 831 833
f 812 833 818
f 831 840 846
f 831 846 833
f 840 851 857
f 840 857 846
f 851 858 862
f 851 862 857
f 858 861 866
f 858 866 862
f 861 860 865
f 861 865 866
f 860 810 816
f 860 816 865
f 810 811 817
f 810 817 816
f 811 433 817
