v -0.043250 0.000000 0.009000
v -0.043250 0.000000 0.114000
v -0.043085 -0.003769 0.009000
v -0.043085 -0.003769 0.114000
v -0.043085 0.003769 0.009000
v -0.043085 0.003769 0.114000
v -0.042593 -0.007510 0.009000
v -0.042593 -0.007510 0.114000
v -0.042593 0.007510 0.009000
v -0.042593 0.007510 0.114000
v -0.041776 -0.011194 0.009000
v -0.041776 -0.011194 0.114000
v -0.040642 -0.014792 0.009000
v -0.040642 -0.014792 0.114000
v -0.039198 -0.018278 0.009000
v -0.039198 -0.018278 0.114000
v -0.037456 -0.021625 0.009000
v -0.037456 -0.021625 0.114000
v -0.035428 -0.024807 0.009000
v -0.035428 -0.024807 0.114000
v -0.033131 -0.027801 0.009000
v -0.033131 -0.027801 0.114000
v -0.030582 -0.030582 0.009000
v -0.030582 -0.030582 0.114000
v -0.027801 -0.033131 0.009000
v -0.027801 -0.033131 0.114000
v -0.024807 -0.035428 0.009000
v -0.024807 -0.035428 0.114000
v -0.021625 -0.037456 0.009000
v -0.021625 -0.037456 0.114000
v -0.018278 -0.039198 0.009000
v -0.018278 -0.039198 0.114000
v -0.014792 -0.040642 0.009000
v -0.014792 -0.040642 0.114000
v -0.011194 -0.041776 0.009000
v -0.011194 -0.041776 0.114000
v -0.007510 -0.042593 0.009000
v -0.007510 -0.042593 0.114000
v -0.003769 -0.043085 0.009000
v -0.003769 -0.043085 0.114000
v 0.000000 -0.043250 0.009000
v 0.000000 -0.043250 0.114000
v 0.003769 -0.043085 0.009000
v 0.003769 -0.043085 0.114000
v 0.007510 -0.042593 0.009000
v 0.007510 -0.042593 0.114000
v 0.011194 -0.041776 0.009000
v 0.011194 -0.041776 0.114000
v 0.014792 -0.040642 0.009000
v 0.014792 -0.040642 0.114000
v 0.018278 -0.039198 0.009000
v 0.018278 -0.039198 0.114000
v 0.021625 -0.037456 0.009000
v 0.021625 -0.037456 0.114000
v 0.024807 -0.035428 0.009000
v 0.024807 -0.035428 0.114000
v 0.027801 -0.033131 0.009000
v 0.027801 -0.033131 0.114000
v 0.030582 -0.030582 0.009000
v 0.030582 -0.030582 0.114000
v 0.033131 -0.027801 0.009000
v 0.033131 -0.027801 0.114000
v 0.035428 -0.024807 0.009000
v 0.035428 -0.024807 0.114000
v 0.037456 -0.021625 0.009000
v 0.037456 -0.021625 0.114000
v 0.039198 -0.018278 0.009000
v 0.039198 -0.018278 0.114000
v 0.040642 -0.014792 0.009000
v 0.040642 -0.014792 0.114000
v 0.041776 -0.011194 0.009000
v 0.041776 -0.011194 0.114000
v 0.042593 -0.007510 0.009000
v 0.042593 -0.007510 0.114000
v 0.042593 0.007510 0.009000
v 0.042593 0.007510 0.114000
v 0.043085 -0.003769 0.009000
v 0.043085 -0.003769 0.114000
v 0.043085 0.003769 0.009000
v 0.043085 0.003769 0.114000
v 0.043250 -0.000000 0.009000
v 0.043250 -0.000000 0.114000
f 9 5 6
f 9 6 10
f 5 1 2
f 5 2 6
f 1 3 4
f 1 4 2
f 3 7 8
f 3 8 4
f 7 11 12
f 7 12 8
f 11 13 14
f 11 14 12
f 13 15 16
f 13 16 14
f 15 17 18
f 15 18 16
f 17 19 20
f 17 20 18
f 19 21 22
f 19 22 20
f 21 23 24
f 21 24 22
f 23 25 26
f 23 26 24
f 25 27 28
f 25 28 26
f 27 29 30
f 27 30 28
f 29 31 32
f 29 32 30
f 31 33 34
f 31 34 32
f 33 35 36
f 33 36 34
f 35 37 38
f 35 38 36
f 37 39 40
f 37 40 38
f 39 41 42
f 39 42 40
f 41 43 44
f 41 44 42
f 43 45 46
f 43 46 44
f 45 47 48
f 45 48 46
f 47 49 50
f 47 50 48
f 49 51 52
f 49 52 50
f 51 53 54
f 51 54 52
f 53 55 56
f 53 56 54
f 55 57 58
f 55 58 56
f 57 59 60
f 57 60 58
f 59 61 62
f 59 62 60
f 61 63 64
f 61 64 62
f 63 65 66
f 63 66 64
f 65 67 68
f 65 68 66
f 67 69 70
f 67 70 68
f 69 71 72
f 69 72 70
f 71 73 74
f 71 74 72
f 73 77 78
f 73 78 74
f 77 81 82
f 77 82 78
f 81 79 80
f 81 80 82
f 79 75 76
f 79 76 80
