v -0.041300 0.000000 0.001600
v -0.041300 0.000000 0.061519
v -0.041143 -0.003600 0.001600
v -0.041143 -0.003600 0.061512
v -0.041143 0.003600 0.001600
v -0.041143 0.003600 0.061798
v -0.040673 -0.007172 0.001600
v -0.040673 -0.007172 0.061393
v -0.040673 0.007172 0.001600
v -0.040673 0.007172 0.061740
v -0.039893 -0.010689 0.001600
v -0.039893 -0.010689 0.061326
v -0.039893 0.010689 0.001600
v -0.039893 0.010689 0.061705
v -0.038809 -0.014125 0.001600
v -0.038809 -0.014125 0.061447
v -0.038809 0.014125 0.001600
v -0.038809 0.014125 0.061542
v -0.037858 0.000000 0.061504
v -0.037714 -0.003300 0.061620
v -0.037714 0.003300 0.061637
v -0.037431 -0.017454 0.001600
v -0.037431 -0.017454 0.061567
v -0.037431 0.017454 0.001600
v -0.037431 0.017454 0.061480
v -0.037283 -0.006574 0.061655
v -0.037283 0.006574 0.061728
v -0.036568 -0.009798 0.061475
v -0.036568 0.009798 0.061742
v -0.035767 -0.020650 0.001600
v -0.035767 -0.020650 0.061661
v -0.035767 0.020650 0.001600
v -0.035767 0.020650 0.061237
v -0.035575 -0.012948 0.061591
v -0.035575 0.012948 0.061597
v -0.034417 0.000000 0.061806
v -0.034311 -0.016000 0.061778
v -0.034311 0.016000 0.061515
v -0.034286 -0.003000 0.061749
v -0.034286 0.003000 0.061839
v -0.033894 -0.005976 0.061578
v -0.033894 0.005976 0.061940
v -0.033831 -0.023689 0.001600
v -0.033831 -0.023689 0.061628
v -0.033831 0.023689 0.001600
v -0.033831 0.023689 0.061151
v -0.033244 -0.008908 0.061413
v -0.033244 0.008908 0.061912
v -0.032786 -0.018929 0.061837
v -0.032786 0.018929 0.061296
v -0.032341 -0.011771 0.061618
v -0.032341 0.011771 0.061536
v -0.031638 -0.026547 0.001600
v -0.031638 -0.026547 0.061693
v -0.031638 0.026547 0.001600
v -0.031638 0.026547 0.061100
v -0.031192 -0.014545 0.061788
v -0.031192 0.014545 0.061416
v -0.031012 -0.021715 0.061662
v -0.031012 0.021715 0.061242
v -0.030975 0.000000 0.061809
v -0.030857 -0.002700 0.061741
v -0.030857 0.002700 0.061957
v -0.030504 -0.005379 0.061547
v -0.030504 0.005379 0.062090
v -0.029920 -0.008017 0.061378
v -0.029920 0.008017 0.061912
v -0.029806 -0.017208 0.061636
v -0.029806 0.017208 0.061452
v -0.029204 -0.029204 0.001600
v -0.029204 -0.029204 0.061466
v -0.029204 0.029204 0.001600
v -0.029204 0.029204 0.061253
v -0.029107 -0.010594 0.061477
v -0.029107 0.010594 0.061531
v -0.029001 -0.024335 0.061731
v -0.029001 0.024335 0.061018
v -0.028192 -0.019741 0.061546
v -0.028192 0.019741 0.061275
v -0.028073 -0.013091 0.061523
v -0.028073 0.013091 0.061560
v -0.027533 0.000000 0.061815
v -0.027429 -0.002400 0.061815
v -0.027429 0.002400 0.061965
v -0.027115 -0.004781 0.061688
v -0.027115 0.004781 0.062059
v -0.026825 -0.015487 0.061404
v -0.026825 0.015487 0.061614
v -0.026770 -0.026770 0.061590
v -0.026770 0.026770 0.061042
v -0.026595 -0.007126 0.061456
v -0.026595 0.007126 0.061922
v -0.026547 -0.031638 0.001600
v -0.026547 -0.031638 0.061448
v -0.026547 0.031638 0.001600
v -0.026547 0.031638 0.061143
v -0.026365 -0.022123 0.061722
v -0.026365 0.022123 0.061116
v -0.025873 -0.009417 0.061329
v -0.025873 0.009417 0.061702
v -0.025373 -0.017767 0.061470
v -0.025373 0.017767 0.061449
v -0.024954 -0.011636 0.061328
v -0.024954 0.011636 0.061662
v -0.024336 -0.024336 0.061794
v -0.024336 0.024336 0.061125
v -0.024335 -0.029001 0.061578
v -0.024335 0.029001 0.061135
v -0.024092 0.000000 0.061763
v -0.024000 -0.002100 0.061634
v -0.024000 0.002100 0.061848
v -0.023845 -0.013767 0.061360
v -0.023845 0.013767 0.061621
v -0.023728 -0.019910 0.061611
v -0.023726 -0.004183 0.061452
v -0.023726 0.004183 0.061879
v -0.023728 0.019910 0.061404
v -0.023689 -0.033831 0.001600
v -0.023689 -0.033831 0.061602
v -0.023689 0.033831 0.001600
v -0.023689 0.033831 0.060849
v -0.023271 -0.006235 0.061278
v -0.023271 0.006235 0.061895
v -0.022639 -0.008240 0.061216
v -0.022639 0.008240 0.061947
v -0.022554 -0.015792 0.061330
v -0.022554 0.015792 0.061547
v -0.022123 -0.026365 0.061714
v -0.022123 0.026365 0.061219
v -0.021903 -0.021903 0.061621
v -0.021903 0.021903 0.061516
v -0.021834 -0.010182 0.061283
v -0.021834 0.010182 0.061967
v -0.021715 -0.031012 0.061701
v -0.021715 0.031012 0.061250
v -0.021092 -0.017698 0.061292
v -0.021092 0.017698 0.061542
v -0.020864 -0.012046 0.061305
v -0.020864 0.012046 0.061906
v -0.020650 -0.035767 0.001600
v -0.020650 -0.035767 0.061764
v -0.020650 0.000000 0.061448
v -0.020650 0.035767 0.001600
v -0.020650 0.035767 0.061195
v -0.020571 -0.001800 0.061312
v -0.020571 0.001800 0.061527
v -0.020336 -0.003586 0.061235
v -0.020336 0.003586 0.061545
v -0.019946 -0.005345 0.061222
v -0.019946 0.005345 0.061571
v -0.019910 -0.023728 0.061639
v -0.019910 0.023728 0.061460
v -0.019741 -0.028192 0.061582
v -0.019741 0.028192 0.061442
v -0.019735 -0.013818 0.061228
v -0.019735 0.013818 0.061882
v -0.019469 -0.019469 0.061383
v -0.019469 0.019469 0.061464
v -0.019405 -0.007063 0.061224
v -0.019405 0.007063 0.061627
v -0.018929 -0.032786 0.061914
v -0.018929 0.032786 0.061518
v -0.018715 -0.008727 0.061194
v -0.018715 0.008727 0.061732
v -0.018455 -0.015486 0.061234
v -0.018455 0.015486 0.061823
v -0.017883 -0.010325 0.061116
v -0.017883 0.010325 0.061849
v -0.017767 -0.025373 0.061506
v -0.017767 0.025373 0.061623
v -0.017698 -0.021092 0.061433
v -0.017698 0.021092 0.061361
v -0.017454 -0.037431 0.001600
v -0.017454 -0.037431 0.062009
v -0.017454 0.037431 0.001600
v -0.017454 0.037431 0.061471
v -0.017208 -0.029806 0.061635
v -0.017208 0.000000 0.061332
v -0.017208 0.029806 0.061675
v -0.017143 -0.001500 0.061268
v -0.017143 0.001500 0.061383
v -0.017035 -0.017035 0.061390
v -0.017035 0.017035 0.061593
v -0.016947 -0.002988 0.061241
v -0.016947 0.002988 0.061374
v -0.016915 -0.011844 0.061077
v -0.016915 0.011844 0.061923
v -0.016622 -0.004454 0.061205
v -0.016622 0.004454 0.061341
v -0.016171 -0.005886 0.061124
v -0.016171 0.005886 0.061315
v -0.016000 -0.034311 0.062154
v -0.016000 0.034311 0.061630
v -0.015819 -0.013274 0.061178
v -0.015819 0.013274 0.061859
v -0.015792 -0.022554 0.061460
v -0.015792 0.022554 0.061550
v -0.015596 -0.007273 0.060999
v -0.015596 0.007273 0.061322
v -0.015487 -0.026825 0.061630
v -0.015486 -0.018455 0.061585
v -0.015486 0.018455 0.061467
v -0.015487 0.026825 0.061755
v -0.014903 -0.008604 0.060848
v -0.014903 0.008604 0.061393
v -0.014602 -0.014602 0.061347
v -0.014602 0.014602 0.061625
v -0.014545 -0.031192 0.061943
v -0.014545 0.031192 0.061595
v -0.014125 -0.038809 0.001600
v -0.014125 -0.038809 0.062060
v -0.014125 0.038809 0.001600
v -0.014125 0.038809 0.061493
v -0.014096 -0.009870 0.060765
v -0.014096 0.009870 0.061459
v -0.013818 -0.019735 0.061686
v -0.013818 0.019735 0.061594
v -0.013767 -0.023845 0.061633
v -0.013767 0.000000 0.060916
v -0.013767 0.023845 0.061765
v -0.013714 -0.001200 0.060894
v -0.013714 0.001200 0.060998
v -0.013558 -0.002391 0.060900
v -0.013558 0.002391 0.061104
v -0.013298 -0.003563 0.060887
v -0.013298 0.003563 0.061202
v -0.013274 -0.015819 0.061504
v -0.013274 0.015819 0.061443
v -0.013182 -0.011061 0.060797
v -0.013182 0.011061 0.061486
v -0.013091 -0.028073 0.061879
v -0.013091 0.028073 0.061603
v -0.012948 -0.035575 0.062150
v -0.012948 0.035575 0.061592
v -0.012936 -0.004708 0.060837
v -0.012936 0.004708 0.061285
v -0.012477 -0.005818 0.060757
v -0.012477 0.005818 0.061352
v -0.012168 -0.012168 0.060924
v -0.012168 0.012168 0.061457
v -0.012046 -0.020864 0.061721
v -0.012046 0.020864 0.061804
v -0.011922 -0.006883 0.060674
v -0.011922 0.006883 0.061398
v -0.011844 -0.016915 0.061678
v -0.011844 0.016915 0.061429
v -0.011771 -0.032341 0.062108
v -0.011771 0.032341 0.061610
v -0.011636 -0.024954 0.061745
v -0.011636 0.024954 0.061735
v -0.011277 -0.007896 0.060613
v -0.011277 0.007896 0.061433
v -0.011061 -0.013182 0.061096
v -0.011061 0.013182 0.061379
v -0.010689 -0.039893 0.001600
v -0.010689 -0.039893 0.062360
v -0.010689 0.039893 0.001600
v -0.010689 0.039893 0.061813
v -0.010594 -0.029107 0.062007
v -0.010594 0.029107 0.061546
v -0.010546 -0.008849 0.060608
v -0.010546 0.008849 0.061465
v -0.010325 -0.017883 0.061795
v -0.010325 0.000000 0.060640
v -0.010325 0.017883 0.061494
v -0.010286 -0.000900 0.060601
v -0.010286 0.000900 0.060721
v -0.010182 -0.021834 0.061656
v -0.010182 0.021834 0.061872
v -0.010168 -0.001793 0.060588
v -0.010168 0.001793 0.060834
v -0.009973 -0.002672 0.060587
v -0.009973 0.002672 0.060960
v -0.009870 -0.014096 0.061257
v -0.009870 0.014096 0.061311
v -0.009798 -0.036568 0.062280
v -0.009798 0.036568 0.061747
v -0.009735 -0.009735 0.060675
v -0.009735 0.009735 0.061473
v -0.009702 -0.003531 0.060593
v -0.009702 0.003531 0.061075
v -0.009417 -0.025873 0.061663
v -0.009417 0.025873 0.061661
v -0.009358 -0.004364 0.060608
v -0.009358 0.004364 0.061166
v -0.008942 -0.005162 0.060637
v -0.008942 0.005162 0.061220
v -0.008908 -0.033244 0.062077
v -0.008908 0.033244 0.061815
v -0.008849 -0.010546 0.060785
v -0.008849 0.010546 0.061453
v -0.008727 -0.018715 0.061790
v -0.008727 0.018715 0.061469
v -0.008604 -0.014903 0.061418
v -0.008604 0.014903 0.061272
v -0.008458 -0.005922 0.060685
v -0.008458 0.005922 0.061239
v -0.008240 -0.022639 0.061475
v -0.008240 0.022639 0.061729
v -0.008017 -0.029920 0.061939
v -0.008017 0.029920 0.061824
v -0.007909 -0.006637 0.060752
v -0.007909 0.006637 0.061231
v -0.007896 -0.011277 0.060900
v -0.007896 0.011277 0.061415
v -0.007301 -0.007301 0.060829
v -0.007301 0.007301 0.061218
v -0.007273 -0.015596 0.061527
v -0.007273 0.015596 0.061203
v -0.007172 -0.040673 0.001600
v -0.007172 -0.040673 0.062157
v -0.007172 0.040673 0.001600
v -0.007172 0.040673 0.061691
v -0.007126 -0.026595 0.061558
v -0.007126 0.026595 0.061812
v -0.007063 -0.019405 0.061709
v -0.007063 0.019405 0.061331
v -0.006883 -0.011922 0.060979
v -0.006883 0.000000 0.060963
v -0.006883 0.011922 0.061356
v -0.006857 -0.000600 0.060921
v -0.006857 0.000600 0.061006
v -0.006779 -0.001195 0.060890
v -0.006779 0.001195 0.061041
v -0.006649 -0.001782 0.060870
v -0.006649 0.001782 0.061070
v -0.006637 -0.007909 0.060889
v -0.006637 0.007909 0.061220
v -0.006574 -0.037283 0.062050
v -0.006574 0.037283 0.061876
v -0.006468 -0.002354 0.060865
v -0.006468 0.002354 0.061093
v -0.006235 -0.023271 0.061359
v -0.006238 -0.002909 0.060872
v -0.006238 0.002909 0.061112
v -0.006235 0.023271 0.061633
v -0.005976 -0.033894 0.061766
v -0.005976 0.033894 0.062036
v -0.005961 -0.003442 0.060891
v -0.005961 0.003442 0.061127
v -0.005922 -0.008458 0.060928
v -0.005922 0.008458 0.061225
v -0.005886 -0.016171 0.061585
v -0.005886 0.016171 0.061118
v -0.005818 -0.012477 0.061051
v -0.005818 0.012477 0.061269
v -0.005638 -0.003948 0.060920
v -0.005638 0.003948 0.061142
v -0.005379 -0.030504 0.061710
v -0.005379 0.030504 0.062060
v -0.005345 -0.019946 0.061623
v -0.005345 0.019946 0.061296
v -0.005273 -0.004425 0.060957
v -0.005273 0.004425 0.061160
v -0.005162 -0.008942 0.060954
v -0.005162 0.008942 0.061218
v -0.004867 -0.004867 0.060996
v -0.004867 0.004867 0.061182
v -0.004781 -0.027115 0.061586
v -0.004781 0.027115 0.062020
v -0.004708 -0.012936 0.061150
v -0.004708 0.012936 0.061190
v -0.004454 -0.016622 0.061633
v -0.004454 0.016622 0.061140
v -0.004425 -0.005273 0.061035
v -0.004425 0.005273 0.061210
v -0.004364 -0.009358 0.060974
v -0.004364 0.009358 0.061197
v -0.004183 -0.023726 0.061360
v -0.004183 0.023726 0.061707
v -0.003948 -0.005638 0.061071
v -0.003948 0.005638 0.061244
v -0.003600 -0.041143 0.001600
v -0.003600 -0.041143 0.061659
v -0.003600 0.041143 0.001600
v -0.003600 0.041143 0.061601
v -0.003586 -0.020336 0.061522
v -0.003586 0.020336 0.061375
v -0.003563 -0.013298 0.061250
v -0.003563 0.013298 0.061155
v -0.003531 -0.009702 0.060994
v -0.003531 0.009702 0.061169
v -0.003442 -0.005961 0.061101
v -0.003442 0.000000 0.061228
v -0.003442 0.005961 0.061284
v -0.003429 -0.000300 0.061206
v -0.003429 0.000300 0.061254
v -0.003389 -0.000598 0.061189
v -0.003389 0.000598 0.061280
v -0.003324 -0.000891 0.061176
v -0.003324 0.000891 0.061307
v -0.003300 -0.037714 0.061680
v -0.003300 0.037714 0.062015
v -0.003234 -0.001177 0.061167
v -0.003234 0.001177 0.061334
v -0.003119 -0.001455 0.061163
v -0.003119 0.001455 0.061361
v -0.003000 -0.034286 0.061449
v -0.003000 0.034286 0.062092
v -0.002988 -0.016947 0.061648
v -0.002988 0.016947 0.061257
v -0.002981 -0.001721 0.061164
v -0.002981 0.001721 0.061390
v -0.002909 -0.006238 0.061124
v -0.002909 0.006238 0.061326
v -0.002819 -0.001974 0.061170
v -0.002819 0.001974 0.061420
v -0.002700 -0.030857 0.061352
v -0.002700 0.030857 0.062068
v -0.002672 -0.009973 0.061015
v -0.002672 0.009973 0.061147
v -0.002636 -0.002212 0.061178
v -0.002636 0.002212 0.061450
v -0.002434 -0.002434 0.061189
v -0.002434 0.002434 0.061483
v -0.002400 -0.027429 0.061556
v -0.002400 0.027429 0.062093
v -0.002391 -0.013558 0.061322
v -0.002391 0.013558 0.061174
v -0.002354 -0.006468 0.061144
v -0.002354 0.006468 0.061373
v -0.002212 -0.002636 0.061204
v -0.002212 0.002636 0.061518
v -0.002100 -0.024000 0.061439
v -0.002100 0.024000 0.061773
v -0.001974 -0.002819 0.061220
v -0.001974 0.002819 0.061552
v -0.001800 -0.020571 0.061478
v -0.001800 0.020571 0.061457
v -0.001793 -0.010168 0.061033
v -0.001793 0.010168 0.061140
v -0.001782 -0.006649 0.061160
v -0.001782 0.006649 0.061418
v -0.001721 -0.002981 0.061238
v -0.001721 0.002981 0.061586
v -0.001500 -0.017143 0.061639
v -0.001500 0.017143 0.061402
v -0.001455 -0.003119 0.061258
v -0.001455 0.003119 0.061621
v -0.001200 -0.013714 0.061340
v -0.001195 -0.006779 0.061180
v -0.001195 0.006779 0.061460
v -0.001200 0.013714 0.061237
v -0.001177 -0.003234 0.061280
v -0.001177 0.003234 0.061654
v -0.000900 -0.010286 0.061045
v -0.000900 0.010286 0.061152
v -0.000891 -0.003324 0.061303
v -0.000891 0.003324 0.061686
v -0.000600 -0.006857 0.061208
v -0.000598 -0.003389 0.061327
v -0.000598 0.003389 0.061715
v -0.000600 0.006857 0.061494
v -0.000300 -0.003429 0.061352
v -0.000300 0.003429 0.061739
v -0.000000 -0.041300 0.001600
v -0.000000 -0.041300 0.061482
v -0.000000 -0.037858 0.061604
v -0.000000 -0.034417 0.061371
v -0.000000 -0.030975 0.061135
v -0.000000 -0.027533 0.061460
v -0.000000 -0.024092 0.061494
v -0.000000 -0.020650 0.061508
v -0.000000 -0.017208 0.061617
v -0.000000 -0.013767 0.061296
v -0.000000 -0.010325 0.061053
v -0.000000 -0.006883 0.061248
v -0.000000 -0.003442 0.061378
v 0.000000 0.000000 0.001600
v 0.000000 0.000000 0.061500
v 0.000000 0.003442 0.061760
v 0.000000 0.006883 0.061516
v 0.000000 0.010325 0.061184
v 0.000000 0.013767 0.061319
v 0.000000 0.017208 0.061483
v 0.000000 0.020650 0.061453
v 0.000000 0.024092 0.061755
v 0.000000 0.027533 0.062045
v 0.000000 0.030975 0.062020
v 0.000000 0.034417 0.062171
v 0.000000 0.037858 0.062220
v 0.000000 0.041300 0.001600
v 0.000000 0.041300 0.061668
v 0.000300 -0.003429 0.061406
v 0.000300 0.003429 0.061777
v 0.000600 -0.006857 0.061305
v 0.000598 -0.003389 0.061433
v 0.000598 0.003389 0.061796
v 0.000600 0.006857 0.061539
v 0.000891 -0.003324 0.061459
v 0.000891 0.003324 0.061814
v 0.000900 -0.010286 0.061093
v 0.000900 0.010286 0.061243
v 0.001177 -0.003234 0.061484
v 0.001177 0.003234 0.061833
v 0.001200 -0.013714 0.061248
v 0.001195 -0.006779 0.061373
v 0.001195 0.006779 0.061580
v 0.001200 0.013714 0.061372
v 0.001455 -0.003119 0.061506
v 0.001455 0.003119 0.061849
v 0.001500 -0.017143 0.061559
v 0.001500 0.017143 0.061495
v 0.001721 -0.002981 0.061528
v 0.001721 0.002981 0.061866
v 0.001782 -0.006649 0.061444
v 0.001782 0.006649 0.061633
v 0.001793 -0.010168 0.061179
v 0.001793 0.010168 0.061338
v 0.001800 -0.020571 0.061548
v 0.001800 0.020571 0.061487
v 0.001974 -0.002819 0.061547
v 0.001974 0.002819 0.061880
v 0.002100 -0.024000 0.061444
v 0.002100 0.024000 0.061782
v 0.002212 -0.002636 0.061564
v 0.002212 0.002636 0.061891
v 0.002354 -0.006468 0.061511
v 0.002354 0.006468 0.061692
v 0.002391 -0.013558 0.061257
v 0.002391 0.013558 0.061407
v 0.002400 -0.027429 0.061308
v 0.002400 0.027429 0.061972
v 0.002434 -0.002434 0.061583
v 0.002434 0.002434 0.061901
v 0.002636 -0.002212 0.061601
v 0.002636 0.002212 0.061908
v 0.002672 -0.009973 0.061296
v 0.002672 0.009973 0.061465
v 0.002700 -0.030857 0.061145
v 0.002700 0.030857 0.061974
v 0.002819 -0.001974 0.061618
v 0.002819 0.001974 0.061910
v 0.002909 -0.006238 0.061569
v 0.002909 0.006238 0.061752
v 0.002981 -0.001721 0.061639
v 0.002981 0.001721 0.061909
v 0.002988 -0.016947 0.061472
v 0.002988 0.016947 0.061514
v 0.003000 -0.034286 0.061217
v 0.003000 0.034286 0.062073
v 0.003119 -0.001455 0.061662
v 0.003119 0.001455 0.061905
v 0.003234 -0.001177 0.061685
v 0.003234 0.001177 0.061894
v 0.003300 -0.037714 0.061247
v 0.003300 0.037714 0.062032
v 0.003324 -0.000891 0.061712
v 0.003324 0.000891 0.061879
v 0.003389 -0.000598 0.061741
v 0.003389 0.000598 0.061858
v 0.003429 -0.000300 0.061772
v 0.003429 0.000300 0.061833
v 0.003442 -0.005961 0.061611
v 0.003442 0.000000 0.061804
v 0.003442 0.005961 0.061806
v 0.003531 -0.009702 0.061420
v 0.003531 0.009702 0.061613
v 0.003563 -0.013298 0.061318
v 0.003563 0.013298 0.061465
v 0.003586 -0.020336 0.061534
v 0.003586 0.020336 0.061654
v 0.003600 -0.041143 0.001600
v 0.003600 -0.041143 0.061216
v 0.003600 0.041143 0.001600
v 0.003600 0.041143 0.061651
v 0.003948 -0.005638 0.061637
v 0.003948 0.005638 0.061854
v 0.004183 -0.023726 0.061397
v 0.004183 0.023726 0.061961
v 0.004364 -0.009358 0.061530
v 0.004364 0.009358 0.061763
v 0.004425 -0.005273 0.061650
v 0.004425 0.005273 0.061897
v 0.004454 -0.016622 0.061393
v 0.004454 0.016622 0.061559
v 0.004708 -0.012936 0.061417
v 0.004708 0.012936 0.061572
v 0.004781 -0.027115 0.061285
v 0.004781 0.027115 0.062035
v 0.004867 -0.004867 0.061651
v 0.004867 0.004867 0.061933
v 0.005162 -0.008942 0.061610
v 0.005162 0.008942 0.061889
v 0.005273 -0.004425 0.061648
v 0.005273 0.004425 0.061965
v 0.005345 -0.019946 0.061474
v 0.005345 0.019946 0.061805
v 0.005379 -0.030504 0.061391
v 0.005379 0.030504 0.062050
v 0.005638 -0.003948 0.061652
v 0.005638 0.003948 0.061997
v 0.005818 -0.012477 0.061522
v 0.005818 0.012477 0.061731
v 0.005886 -0.016171 0.061354
v 0.005886 0.016171 0.061650
v 0.005922 -0.008458 0.061654
v 0.005922 0.008458 0.061970
v 0.005961 -0.003442 0.061665
v 0.005961 0.003442 0.062028
v 0.005976 -0.033894 0.061211
v 0.005976 0.033894 0.062013
v 0.006235 -0.023271 0.061432
v 0.006238 -0.002909 0.061692
v 0.006238 0.002909 0.062057
v 0.006235 0.023271 0.062168
v 0.006468 -0.002354 0.061738
v 0.006468 0.002354 0.062082
v 0.006574 -0.037283 0.060903
v 0.006574 0.037283 0.061833
v 0.006637 -0.007909 0.061674
v 0.006637 0.007909 0.061992
v 0.006649 -0.001782 0.061799
v 0.006649 0.001782 0.062098
v 0.006779 -0.001195 0.061871
v 0.006779 0.001195 0.062097
v 0.006857 -0.000600 0.061948
v 0.006857 0.000600 0.062074
v 0.006883 -0.011922 0.061588
v 0.006883 0.000000 0.062021
v 0.006883 0.011922 0.061900
v 0.007063 -0.019405 0.061429
v 0.007063 0.019405 0.061833
v 0.007126 -0.026595 0.061451
v 0.007126 0.026595 0.062280
v 0.007172 -0.040673 0.001600
v 0.007172 -0.040673 0.060855
v 0.007172 0.040673 0.001600
v 0.007172 0.040673 0.061503
v 0.007273 -0.015596 0.061345
v 0.007273 0.015596 0.061798
v 0.007301 -0.007301 0.061694
v 0.007301 0.007301 0.061969
v 0.007896 -0.011277 0.061626
v 0.007896 0.011277 0.062006
v 0.007909 -0.006637 0.061716
v 0.007909 0.006637 0.061956
v 0.008017 -0.029920 0.061628
v 0.008017 0.029920 0.062268
v 0.008240 -0.022639 0.061555
v 0.008240 0.022639 0.062177
v 0.008458 -0.005922 0.061722
v 0.008458 0.005922 0.061980
v 0.008604 -0.014903 0.061392
v 0.008604 0.014903 0.061899
v 0.008727 -0.018715 0.061413
v 0.008727 0.018715 0.061825
v 0.008849 -0.010546 0.061667
v 0.008849 0.010546 0.062046
v 0.008908 -0.033244 0.061384
v 0.008908 0.033244 0.062141
v 0.008942 -0.005162 0.061731
v 0.008942 0.005162 0.062030
v 0.009358 -0.004364 0.061764
v 0.009358 0.004364 0.062087
v 0.009417 -0.025873 0.061714
v 0.009417 0.025873 0.062459
v 0.009702 -0.003531 0.061830
v 0.009702 0.003531 0.062139
v 0.009735 -0.009735 0.061697
v 0.009735 0.009735 0.062053
v 0.009798 -0.036568 0.060978
v 0.009798 0.036568 0.061926
v 0.009870 -0.014096 0.061482
v 0.009870 0.014096 0.061913
v 0.009973 -0.002672 0.061924
v 0.009973 0.002672 0.062177
v 0.010168 -0.001793 0.062030
v 0.010168 0.001793 0.062200
v 0.010182 -0.021834 0.061648
v 0.010182 0.021834 0.062128
v 0.010286 -0.000900 0.062127
v 0.010286 0.000900 0.062204
v 0.010325 -0.017883 0.061386
v 0.010325 0.000000 0.062187
v 0.010325 0.017883 0.061838
v 0.010546 -0.008849 0.061722
v 0.010546 0.008849 0.062050
v 0.010594 -0.029107 0.061704
v 0.010594 0.029107 0.062372
v 0.010689 -0.039893 0.001600
v 0.010689 -0.039893 0.060882
v 0.010689 0.039893 0.001600
v 0.010689 0.039893 0.061554
v 0.011061 -0.013182 0.061559
v 0.011061 0.013182 0.061874
v 0.011277 -0.007896 0.061742
v 0.011277 0.007896 0.062046
v 0.011636 -0.024954 0.061923
v 0.011636 0.024954 0.062356
v 0.011771 -0.032341 0.061496
v 0.011771 0.032341 0.061990
v 0.011844 -0.016915 0.061379
v 0.011844 0.016915 0.061833
v 0.011922 -0.006883 0.061761
v 0.011922 0.006883 0.062040
v 0.012046 -0.020864 0.061558
v 0.012046 0.020864 0.062092
v 0.012168 -0.012168 0.061622
v 0.012168 0.012168 0.061844
v 0.012477 -0.005818 0.061789
v 0.012477 0.005818 0.062028
v 0.012936 -0.004708 0.061841
v 0.012936 0.004708 0.062005
v 0.012948 -0.035575 0.061255
v 0.012948 0.035575 0.061629
v 0.013091 -0.028073 0.061729
v 0.013091 0.028073 0.062082
v 0.013182 -0.011061 0.061691
v 0.013182 0.011061 0.061813
v 0.013274 -0.015819 0.061397
v 0.013274 0.015819 0.061822
v 0.013298 -0.003563 0.061916
v 0.013298 0.003563 0.061983
v 0.013558 -0.002391 0.061998
v 0.013558 0.002391 0.061979
v 0.013714 -0.001200 0.062058
v 0.013714 0.001200 0.062003
v 0.013767 -0.023845 0.061948
v 0.013767 0.000000 0.062051
v 0.013767 0.023845 0.062167
v 0.013818 -0.019735 0.061381
v 0.013818 0.019735 0.061983
v 0.014096 -0.009870 0.061766
v 0.014096 0.009870 0.061757
v 0.014125 -0.038809 0.001600
v 0.014125 -0.038809 0.061146
v 0.014125 0.038809 0.001600
v 0.014125 0.038809 0.061385
v 0.014545 -0.031192 0.061679
v 0.014545 0.031192 0.061631
v 0.014602 -0.014602 0.061375
v 0.014602 0.014602 0.061875
v 0.014903 -0.008604 0.061808
v 0.014903 0.008604 0.061658
v 0.015487 -0.026825 0.061892
v 0.015486 -0.018455 0.061249
v 0.015486 0.018455 0.061819
v 0.015487 0.026825 0.061768
v 0.015596 -0.007273 0.061807
v 0.015596 0.007273 0.061579
v 0.015792 -0.022554 0.061796
v 0.015792 0.022554 0.061940
v 0.015819 -0.013274 0.061302
v 0.015819 0.013274 0.061897
v 0.016000 -0.034311 0.061766
v 0.016000 0.034311 0.061320
v 0.016171 -0.005886 0.061786
v 0.016171 0.005886 0.061588
v 0.016622 -0.004454 0.061811
v 0.016622 0.004454 0.061660
v 0.016915 -0.011844 0.061338
v 0.016915 0.011844 0.061719
v 0.016947 -0.002988 0.061869
v 0.016947 0.002988 0.061763
v 0.017035 -0.017035 0.061152
v 0.017035 0.017035 0.061812
v 0.017143 -0.001500 0.061920
v 0.017143 0.001500 0.061850
v 0.017208 -0.029806 0.061803
v 0.017208 0.000000 0.061911
v 0.017208 0.029806 0.061412
v 0.017454 -0.037431 0.001600
v 0.017454 -0.037431 0.061680
v 0.017454 0.037431 0.001600
v 0.017454 0.037431 0.061245
v 0.017698 -0.021092 0.061568
v 0.017698 0.021092 0.061689
v 0.017767 -0.025373 0.062040
v 0.017767 0.025373 0.061596
v 0.017883 -0.010325 0.061421
v 0.017883 0.010325 0.061441
v 0.018455 -0.015486 0.061144
v 0.018455 0.015486 0.061768
v 0.018715 -0.008727 0.061492
v 0.018715 0.008727 0.061282
v 0.018929 -0.032786 0.061899
v 0.018929 0.032786 0.061170
v 0.019405 -0.007063 0.061557
v 0.019405 0.007063 0.061315
v 0.019469 -0.019469 0.061330
v 0.019469 0.019469 0.061572
v 0.019735 -0.013818 0.061238
v 0.019735 0.013818 0.061480
v 0.019741 -0.028192 0.061997
v 0.019741 0.028192 0.061381
v 0.019910 -0.023728 0.061978
v 0.019910 0.023728 0.061530
v 0.019946 -0.005345 0.061614
v 0.019946 0.005345 0.061447
v 0.020336 -0.003586 0.061627
v 0.020336 0.003586 0.061558
v 0.020571 -0.001800 0.061599
v 0.020571 0.001800 0.061574
v 0.020650 -0.035767 0.001600
v 0.020650 -0.035767 0.062077
v 0.020650 0.000000 0.061562
v 0.020650 0.035767 0.001600
v 0.020650 0.035767 0.061213
v 0.020864 -0.012046 0.061300
v 0.020864 0.012046 0.061113
v 0.021092 -0.017698 0.061169
v 0.021092 0.017698 0.061474
v 0.021715 -0.031012 0.061938
v 0.021715 0.031012 0.061089
v 0.021834 -0.010182 0.061321
v 0.021834 0.010182 0.060932
v 0.021903 -0.021903 0.061567
v 0.021903 0.021903 0.061523
v 0.022123 -0.026365 0.062059
v 0.022123 0.026365 0.061358
v 0.022554 -0.015792 0.061229
v 0.022554 0.015792 0.061242
v 0.022639 -0.008240 0.061372
v 0.022639 0.008240 0.060941
v 0.023271 -0.006235 0.061474
v 0.023271 0.006235 0.061033
v 0.023689 -0.033831 0.001600
v 0.023689 -0.033831 0.062189
v 0.023689 0.033831 0.001600
v 0.023689 0.033831 0.060862
v 0.023728 -0.019910 0.061193
v 0.023726 -0.004183 0.061488
v 0.023726 0.004183 0.061084
v 0.023728 0.019910 0.061349
v 0.023845 -0.013767 0.061229
v 0.023845 0.013767 0.061054
v 0.024000 -0.002100 0.061353
v 0.024000 0.002100 0.061082
v 0.024092 0.000000 0.061148
v 0.024335 -0.029001 0.062103
v 0.024335 0.029001 0.061226
v 0.024336 -0.024336 0.061639
v 0.024336 0.024336 0.061401
v 0.024954 -0.011636 0.061009
v 0.024954 0.011636 0.060860
v 0.025373 -0.017767 0.061228
v 0.025373 0.017767 0.061074
v 0.025873 -0.009417 0.060917
v 0.025873 0.009417 0.060745
v 0.026365 -0.022123 0.061247
v 0.026365 0.022123 0.061240
v 0.026547 -0.031638 0.001600
v 0.026547 -0.031638 0.062288
v 0.026547 0.031638 0.001600
v 0.026547 0.031638 0.061010
v 0.026595 -0.007126 0.061104
v 0.026595 0.007126 0.060811
v 0.026770 -0.026770 0.061668
v 0.026770 0.026770 0.061148
v 0.026825 -0.015487 0.061181
v 0.026825 0.015487 0.060954
v 0.027115 -0.004781 0.061335
v 0.027115 0.004781 0.060847
v 0.027429 -0.002400 0.061340
v 0.027429 0.002400 0.060849
v 0.027533 0.000000 0.061031
v 0.028073 -0.013091 0.060902
v 0.028073 0.013091 0.060797
v 0.028192 -0.019741 0.061249
v 0.028192 0.019741 0.060942
v 0.029001 -0.024335 0.061214
v 0.029001 0.024335 0.061110
v 0.029107 -0.010594 0.060653
v 0.029107 0.010594 0.060673
v 0.029204 -0.029204 0.001600
v 0.029204 -0.029204 0.061785
v 0.029204 0.029204 0.001600
v 0.029204 0.029204 0.061012
v 0.029806 -0.017208 0.061256
v 0.029806 0.017208 0.060830
v 0.029920 -0.008017 0.060733
v 0.029920 0.008017 0.060796
v 0.030504 -0.005379 0.060919
v 0.030504 0.005379 0.060918
v 0.030857 -0.002700 0.060939
v 0.030857 0.002700 0.060825
v 0.030975 0.000000 0.060766
v 0.031012 -0.021715 0.061330
v 0.031012 0.021715 0.061041
v 0.031192 -0.014545 0.060988
v 0.031192 0.014545 0.060836
v 0.031638 -0.026547 0.001600
v 0.031638 -0.026547 0.061183
v 0.031638 0.026547 0.001600
v 0.031638 0.026547 0.060984
v 0.032341 -0.011771 0.060759
v 0.032341 0.011771 0.060743
v 0.032786 -0.018929 0.061170
v 0.032786 0.018929 0.061072
v 0.033244 -0.008908 0.060673
v 0.033244 0.008908 0.060763
v 0.033831 -0.023689 0.001600
v 0.033831 -0.023689 0.061212
v 0.033831 0.023689 0.001600
v 0.033831 0.023689 0.060905
v 0.033894 -0.005976 0.060796
v 0.033894 0.005976 0.061019
v 0.034286 -0.003000 0.060812
v 0.034286 0.003000 0.061097
v 0.034311 -0.016000 0.060966
v 0.034311 0.016000 0.061154
v 0.034417 0.000000 0.060855
v 0.035575 -0.012948 0.060975
v 0.035575 0.012948 0.060983
v 0.035767 -0.020650 0.001600
v 0.035767 -0.020650 0.061104
v 0.035767 0.020650 0.001600
v 0.035767 0.020650 0.061140
v 0.036568 -0.009798 0.060963
v 0.036568 0.009798 0.060956
v 0.037283 -0.006574 0.061152
v 0.037283 0.006574 0.061208
v 0.037431 -0.017454 0.001600
v 0.037431 -0.017454 0.061209
v 0.037431 0.017454 0.001600
v 0.037431 0.017454 0.061245
v 0.037714 -0.003300 0.061202
v 0.037714 0.003300 0.061376
v 0.037858 0.000000 0.061236
v 0.038809 -0.014125 0.001600
v 0.038809 -0.014125 0.061311
v 0.038809 0.014125 0.001600
v 0.038809 0.014125 0.061236
v 0.039893 -0.010689 0.001600
v 0.039893 -0.010689 0.061088
v 0.039893 0.010689 0.001600
v 0.039893 0.010689 0.061528
v 0.040673 -0.007172 0.001600
v 0.040673 -0.007172 0.061218
v 0.040673 0.007172 0.001600
v 0.040673 0.007172 0.061556
v 0.041143 -0.003600 0.001600
v 0.041143 -0.003600 0.061333
v 0.041143 0.003600 0.001600
v 0.041143 0.003600 0.061518
v 0.041300 0.000000 0.001600
v 0.041300 0.000000 0.061373
f 469 935 937
f 937 935 936
f 937 936 938
f 938 936 919
f 938 919 920
f 920 919 900
f 920 900 903
f 903 900 877
f 903 877 878
f 878 877 856
f 878 856 857
f 857 856 829
f 857 829 830
f 830 829 794
f 830 794 797
f 797 794 759
f 797 759 761
f 761 759 718
f 761 718 720
f 720 718 673
f 720 673 675
f 675 673 618
f 675 618 620
f 620 618 553
f 620 553 555
f 555 553 470
f 469 931 935
f 935 931 932
f 935 932 936
f 936 932 913
f 936 913 919
f 919 913 898
f 919 898 900
f 900 898 875
f 900 875 877
f 877 875 854
f 877 854 856
f 856 854 824
f 856 824 829
f 829 824 792
f 829 792 794
f 794 792 755
f 794 755 759
f 759 755 716
f 759 716 718
f 718 716 669
f 718 669 673
f 673 669 616
f 673 616 618
f 618 616 551
f 618 551 553
f 553 551 470
f 469 927 931
f 931 927 928
f 931 928 932
f 932 928 911
f 932 911 913
f 913 911 892
f 913 892 898
f 898 892 873
f 898 873 875
f 875 873 848
f 875 848 854
f 854 848 817
f 854 817 824
f 824 817 790
f 824 790 792
f 792 790 751
f 792 751 755
f 755 751 714
f 755 714 716
f 716 714 667
f 716 667 669
f 669 667 614
f 669 614 616
f 616 614 549
f 616 549 551
f 551 549 470
f 469 923 927
f 927 923 924
f 927 924 928
f 928 924 905
f 928 905 911
f 911 905 888
f 911 888 892
f 892 888 865
f 892 865 873
f 873 865 840
f 873 840 848
f 848 840 815
f 848 815 817
f 817 815 780
f 817 780 790
f 790 780 749
f 790 749 751
f 751 749 704
f 751 704 714
f 714 704 659
f 714 659 667
f 667 659 608
f 667 608 614
f 614 608 545
f 614 545 549
f 549 545 470
f 469 916 923
f 923 916 917
f 923 917 924
f 924 917 902
f 924 902 905
f 905 902 882
f 905 882 888
f 888 882 859
f 888 859 865
f 865 859 836
f 865 836 840
f 840 836 807
f 840 807 815
f 815 807 776
f 815 776 780
f 780 776 741
f 780 741 749
f 749 741 702
f 749 702 704
f 704 702 655
f 704 655 659
f 659 655 605
f 659 605 608
f 608 605 543
f 608 543 545
f 545 543 470
f 469 908 916
f 916 908 909
f 916 909 917
f 917 909 890
f 917 890 902
f 902 890 871
f 902 871 882
f 882 871 852
f 882 852 859
f 859 852 827
f 859 827 836
f 836 827 801
f 836 801 807
f 807 801 772
f 807 772 776
f 776 772 735
f 776 735 741
f 741 735 696
f 741 696 702
f 702 696 653
f 702 653 655
f 655 653 600
f 655 600 605
f 605 600 537
f 605 537 543
f 543 537 470
f 469 895 908
f 908 895 896
f 908 896 909
f 909 896 880
f 909 880 890
f 890 880 861
f 890 861 871
f 871 861 838
f 871 838 852
f 852 838 813
f 852 813 827
f 827 813 784
f 827 784 801
f 801 784 753
f 801 753 772
f 772 753 725
f 772 725 735
f 735 725 688
f 735 688 696
f 696 688 643
f 696 643 653
f 653 643 592
f 653 592 600
f 600 592 533
f 600 533 537
f 537 533 470
f 469 885 895
f 895 885 886
f 895 886 896
f 896 886 863
f 896 863 880
f 880 863 842
f 880 842 861
f 861 842 825
f 861 825 838
f 838 825 803
f 838 803 813
f 813 803 774
f 813 774 784
f 784 774 745
f 784 745 753
f 753 745 710
f 753 710 725
f 725 710 678
f 725 678 688
f 688 678 637
f 688 637 643
f 643 637 586
f 643 586 592
f 592 586 527
f 592 527 533
f 533 527 470
f 469 868 885
f 885 868 869
f 885 869 886
f 886 869 850
f 886 850 863
f 863 850 834
f 863 834 842
f 842 834 809
f 842 809 825
f 825 809 782
f 825 782 803
f 803 782 757
f 803 757 774
f 774 757 733
f 774 733 745
f 745 733 700
f 745 700 710
f 710 700 661
f 710 661 678
f 678 661 633
f 678 633 637
f 637 633 582
f 637 582 586
f 586 582 525
f 586 525 527
f 527 525 470
f 469 845 868
f 868 845 846
f 868 846 869
f 869 846 832
f 869 832 850
f 850 832 811
f 850 811 834
f 834 811 788
f 834 788 809
f 809 788 768
f 809 768 782
f 782 768 738
f 782 738 757
f 757 738 712
f 757 712 733
f 733 712 686
f 733 686 700
f 700 686 649
f 700 649 661
f 661 649 612
f 661 612 633
f 633 612 574
f 633 574 582
f 582 574 517
f 582 517 525
f 525 517 470
f 469 820 845
f 845 820 821
f 845 821 846
f 846 821 805
f 846 805 832
f 832 805 786
f 832 786 811
f 811 786 770
f 811 770 788
f 788 770 743
f 788 743 768
f 768 743 723
f 768 723 738
f 738 723 694
f 738 694 712
f 712 694 665
f 712 665 686
f 686 665 635
f 686 635 649
f 649 635 598
f 649 598 612
f 612 598 568
f 612 568 574
f 574 568 513
f 574 513 517
f 517 513 470
f 469 798 820
f 820 798 799
f 820 799 821
f 821 799 778
f 821 778 805
f 805 778 762
f 805 762 786
f 786 762 739
f 786 739 770
f 770 739 721
f 770 721 743
f 743 721 698
f 743 698 723
f 723 698 676
f 723 676 694
f 694 676 645
f 694 645 665
f 665 645 621
f 665 621 635
f 635 621 584
f 635 584 598
f 598 584 556
f 598 556 568
f 568 556 505
f 568 505 513
f 513 505 470
f 469 765 798
f 798 765 766
f 798 766 799
f 799 766 747
f 799 747 778
f 778 747 731
f 778 731 762
f 762 731 708
f 762 708 739
f 739 708 690
f 739 690 721
f 721 690 671
f 721 671 698
f 698 671 647
f 698 647 676
f 676 647 631
f 676 631 645
f 645 631 594
f 645 594 621
f 621 594 572
f 621 572 584
f 584 572 535
f 584 535 556
f 556 535 501
f 556 501 505
f 505 501 470
f 469 728 765
f 765 728 729
f 765 729 766
f 766 729 706
f 766 706 747
f 747 706 692
f 747 692 731
f 731 692 680
f 731 680 708
f 708 680 657
f 708 657 690
f 690 657 641
f 690 641 671
f 671 641 623
f 671 623 647
f 647 623 596
f 647 596 631
f 631 596 578
f 631 578 594
f 594 578 558
f 594 558 572
f 572 558 519
f 572 519 535
f 535 519 495
f 535 495 501
f 501 495 470
f 469 683 728
f 728 683 684
f 728 684 729
f 729 684 663
f 729 663 706
f 706 663 651
f 706 651 692
f 692 651 639
f 692 639 680
f 680 639 625
f 680 625 657
f 657 625 606
f 657 606 641
f 641 606 588
f 641 588 623
f 623 588 576
f 623 576 596
f 596 576 560
f 596 560 578
f 578 560 529
f 578 529 558
f 558 529 507
f 558 507 519
f 519 507 491
f 519 491 495
f 495 491 470
f 469 628 683
f 683 628 629
f 683 629 684
f 684 629 610
f 684 610 663
f 663 610 602
f 663 602 651
f 651 602 590
f 651 590 639
f 639 590 580
f 639 580 625
f 625 580 570
f 625 570 606
f 606 570 562
f 606 562 588
f 588 562 539
f 588 539 576
f 576 539 521
f 576 521 560
f 560 521 509
f 560 509 529
f 529 509 498
f 529 498 507
f 507 498 488
f 507 488 491
f 491 488 470
f 469 565 628
f 628 565 566
f 628 566 629
f 629 566 547
f 629 547 610
f 610 547 541
f 610 541 602
f 602 541 531
f 602 531 590
f 590 531 523
f 590 523 580
f 580 523 515
f 580 515 570
f 570 515 511
f 570 511 562
f 562 511 503
f 562 503 539
f 539 503 499
f 539 499 521
f 521 499 493
f 521 493 509
f 509 493 489
f 509 489 498
f 498 489 485
f 498 485 488
f 488 485 470
f 469 482 565
f 565 482 483
f 565 483 566
f 566 483 481
f 566 481 547
f 547 481 480
f 547 480 541
f 541 480 479
f 541 479 531
f 531 479 478
f 531 478 523
f 523 478 477
f 523 477 515
f 515 477 476
f 515 476 511
f 511 476 475
f 511 475 503
f 503 475 474
f 503 474 499
f 499 474 473
f 499 473 493
f 493 473 472
f 493 472 489
f 489 472 471
f 489 471 485
f 485 471 470
f 469 375 482
f 482 375 376
f 482 376 483
f 483 376 393
f 483 393 481
f 481 393 399
f 481 399 480
f 480 399 409
f 480 409 479
f 479 409 417
f 479 417 478
f 478 417 425
f 478 425 477
f 477 425 429
f 477 429 476
f 476 429 437
f 476 437 475
f 475 437 443
f 475 443 474
f 474 443 447
f 474 447 473
f 473 447 453
f 473 453 472
f 472 453 455
f 472 455 471
f 471 455 470
f 469 312 375
f 375 312 313
f 375 313 376
f 376 313 330
f 376 330 393
f 393 330 338
f 393 338 399
f 399 338 350
f 399 350 409
f 409 350 360
f 409 360 417
f 417 360 370
f 417 370 425
f 425 370 378
f 425 378 429
f 429 378 401
f 429 401 437
f 437 401 419
f 437 419 443
f 443 419 431
f 443 431 447
f 447 431 442
f 447 442 453
f 453 442 452
f 453 452 455
f 455 452 470
f 469 257 312
f 312 257 258
f 312 258 313
f 313 258 277
f 313 277 330
f 330 277 289
f 330 289 338
f 338 289 301
f 338 301 350
f 350 301 315
f 350 315 360
f 360 315 336
f 360 336 370
f 370 336 352
f 370 352 378
f 378 352 364
f 378 364 401
f 401 364 380
f 401 380 419
f 419 380 411
f 419 411 431
f 431 411 433
f 431 433 442
f 442 433 449
f 442 449 452
f 452 449 470
f 469 212 257
f 257 212 213
f 257 213 258
f 258 213 234
f 258 234 277
f 277 234 248
f 277 248 289
f 289 248 260
f 289 260 301
f 301 260 283
f 301 283 315
f 315 283 299
f 315 299 336
f 336 299 317
f 336 317 352
f 352 317 344
f 352 344 364
f 364 344 362
f 364 362 380
f 380 362 382
f 380 382 411
f 411 382 421
f 411 421 433
f 433 421 445
f 433 445 449
f 449 445 470
f 469 175 212
f 212 175 176
f 212 176 213
f 213 176 193
f 213 193 234
f 234 193 209
f 234 209 248
f 248 209 232
f 248 232 260
f 260 232 250
f 260 250 283
f 283 250 269
f 283 269 299
f 299 269 293
f 299 293 317
f 317 293 309
f 317 309 344
f 344 309 346
f 344 346 362
f 362 346 368
f 362 368 382
f 382 368 405
f 382 405 421
f 421 405 439
f 421 439 445
f 445 439 470
f 469 143 175
f 175 143 144
f 175 144 176
f 176 144 162
f 176 162 193
f 193 162 179
f 193 179 209
f 209 179 203
f 209 203 232
f 232 203 220
f 232 220 250
f 250 220 242
f 250 242 269
f 269 242 265
f 269 265 293
f 293 265 295
f 293 295 309
f 309 295 320
f 309 320 346
f 346 320 356
f 346 356 368
f 368 356 385
f 368 385 405
f 405 385 435
f 405 435 439
f 439 435 470
f 469 120 143
f 143 120 121
f 143 121 144
f 144 121 135
f 144 135 162
f 162 135 154
f 162 154 179
f 179 154 170
f 179 170 203
f 203 170 197
f 203 197 220
f 220 197 217
f 220 217 242
f 242 217 246
f 242 246 265
f 265 246 275
f 265 275 295
f 295 275 305
f 295 305 320
f 320 305 342
f 320 342 356
f 356 342 372
f 356 372 385
f 385 372 427
f 385 427 435
f 435 427 470
f 469 95 120
f 120 95 96
f 120 96 121
f 121 96 108
f 121 108 135
f 135 108 129
f 135 129 154
f 154 129 152
f 154 152 170
f 170 152 172
f 170 172 197
f 197 172 202
f 197 202 217
f 217 202 228
f 217 228 246
f 246 228 254
f 246 254 275
f 275 254 291
f 275 291 305
f 305 291 328
f 305 328 342
f 342 328 366
f 342 366 372
f 372 366 423
f 372 423 427
f 427 423 470
f 469 72 95
f 95 72 73
f 95 73 96
f 96 73 90
f 96 90 108
f 108 90 106
f 108 106 129
f 129 106 131
f 129 131 152
f 152 131 158
f 152 158 172
f 172 158 183
f 172 183 202
f 202 183 207
f 202 207 228
f 228 207 240
f 228 240 254
f 254 240 279
f 254 279 291
f 291 279 307
f 291 307 328
f 328 307 358
f 328 358 366
f 366 358 415
f 366 415 423
f 423 415 470
f 469 55 72
f 72 55 56
f 72 56 73
f 73 56 77
f 73 77 90
f 90 77 98
f 90 98 106
f 106 98 117
f 106 117 131
f 131 117 137
f 131 137 158
f 158 137 166
f 158 166 183
f 183 166 195
f 183 195 207
f 207 195 230
f 207 230 240
f 240 230 262
f 240 262 279
f 279 262 303
f 279 303 307
f 307 303 354
f 307 354 358
f 358 354 413
f 358 413 415
f 415 413 470
f 469 45 55
f 55 45 46
f 55 46 56
f 56 46 60
f 56 60 77
f 77 60 79
f 77 79 98
f 98 79 102
f 98 102 117
f 117 102 127
f 117 127 137
f 137 127 156
f 137 156 166
f 166 156 187
f 166 187 195
f 195 187 215
f 195 215 230
f 230 215 252
f 230 252 262
f 262 252 297
f 262 297 303
f 303 297 348
f 303 348 354
f 354 348 407
f 354 407 413
f 413 407 470
f 469 32 45
f 45 32 33
f 45 33 46
f 46 33 50
f 46 50 60
f 60 50 69
f 60 69 79
f 79 69 88
f 79 88 102
f 102 88 113
f 102 113 127
f 127 113 139
f 127 139 156
f 156 139 168
f 156 168 187
f 187 168 205
f 187 205 215
f 215 205 244
f 215 244 252
f 252 244 287
f 252 287 297
f 297 287 340
f 297 340 348
f 348 340 403
f 348 403 407
f 407 403 470
f 469 24 32
f 32 24 25
f 32 25 33
f 33 25 38
f 33 38 50
f 50 38 58
f 50 58 69
f 69 58 81
f 69 81 88
f 88 81 104
f 88 104 113
f 113 104 133
f 113 133 139
f 139 133 164
f 139 164 168
f 168 164 199
f 168 199 205
f 205 199 238
f 205 238 244
f 244 238 285
f 244 285 287
f 287 285 335
f 287 335 340
f 340 335 397
f 340 397 403
f 403 397 470
f 469 17 24
f 24 17 18
f 24 18 25
f 25 18 35
f 25 35 38
f 38 35 52
f 38 52 58
f 58 52 75
f 58 75 81
f 81 75 100
f 81 100 104
f 104 100 125
f 104 125 133
f 133 125 160
f 133 160 164
f 164 160 191
f 164 191 199
f 199 191 236
f 199 236 238
f 238 236 281
f 238 281 285
f 285 281 332
f 285 332 335
f 335 332 395
f 335 395 397
f 397 395 470
f 469 13 17
f 17 13 14
f 17 14 18
f 18 14 29
f 18 29 35
f 35 29 48
f 35 48 52
f 52 48 67
f 52 67 75
f 75 67 92
f 75 92 100
f 100 92 123
f 100 123 125
f 125 123 150
f 125 150 160
f 160 150 189
f 160 189 191
f 191 189 226
f 191 226 236
f 236 226 273
f 236 273 281
f 281 273 326
f 281 326 332
f 332 326 391
f 332 391 395
f 395 391 470
f 469 9 13
f 13 9 10
f 13 10 14
f 14 10 27
f 14 27 29
f 29 27 42
f 29 42 48
f 48 42 65
f 48 65 67
f 67 65 86
f 67 86 92
f 92 86 116
f 92 116 123
f 123 116 148
f 123 148 150
f 150 148 185
f 150 185 189
f 189 185 224
f 189 224 226
f 226 224 271
f 226 271 273
f 273 271 324
f 273 324 326
f 326 324 389
f 326 389 391
f 391 389 470
f 469 5 9
f 9 5 6
f 9 6 10
f 10 6 21
f 10 21 27
f 27 21 40
f 27 40 42
f 42 40 63
f 42 63 65
f 65 63 84
f 65 84 86
f 86 84 111
f 86 111 116
f 116 111 146
f 116 146 148
f 148 146 181
f 148 181 185
f 185 181 222
f 185 222 224
f 224 222 267
f 224 267 271
f 271 267 322
f 271 322 324
f 324 322 387
f 324 387 389
f 389 387 470
f 469 1 5
f 5 1 2
f 5 2 6
f 6 2 19
f 6 19 21
f 21 19 36
f 21 36 40
f 40 36 61
f 40 61 63
f 63 61 82
f 63 82 84
f 84 82 109
f 84 109 111
f 111 109 142
f 111 142 146
f 146 142 178
f 146 178 181
f 181 178 219
f 181 219 222
f 222 219 264
f 222 264 267
f 267 264 319
f 267 319 322
f 322 319 384
f 322 384 387
f 387 384 470
f 469 3 1
f 1 3 4
f 1 4 2
f 2 4 20
f 2 20 19
f 19 20 39
f 19 39 36
f 36 39 62
f 36 62 61
f 61 62 83
f 61 83 82
f 82 83 110
f 82 110 109
f 109 110 145
f 109 145 142
f 142 145 180
f 142 180 178
f 178 180 221
f 178 221 219
f 219 221 266
f 219 266 264
f 264 266 321
f 264 321 319
f 319 321 386
f 319 386 384
f 384 386 470
f 469 7 3
f 3 7 8
f 3 8 4
f 4 8 26
f 4 26 20
f 20 26 41
f 20 41 39
f 39 41 64
f 39 64 62
f 62 64 85
f 62 85 83
f 83 85 115
f 83 115 110
f 110 115 147
f 110 147 145
f 145 147 184
f 145 184 180
f 180 184 223
f 180 223 221
f 221 223 270
f 221 270 266
f 266 270 323
f 266 323 321
f 321 323 388
f 321 388 386
f 386 388 470
f 469 11 7
f 7 11 12
f 7 12 8
f 8 12 28
f 8 28 26
f 26 28 47
f 26 47 41
f 41 47 66
f 41 66 64
f 64 66 91
f 64 91 85
f 85 91 122
f 85 122 115
f 115 122 149
f 115 149 147
f 147 149 188
f 147 188 184
f 184 188 225
f 184 225 223
f 223 225 272
f 223 272 270
f 270 272 325
f 270 325 323
f 323 325 390
f 323 390 388
f 388 390 470
f 469 15 11
f 11 15 16
f 11 16 12
f 12 16 34
f 12 34 28
f 28 34 51
f 28 51 47
f 47 51 74
f 47 74 66
f 66 74 99
f 66 99 91
f 91 99 124
f 91 124 122
f 122 124 159
f 122 159 149
f 149 159 190
f 149 190 188
f 188 190 235
f 188 235 225
f 225 235 280
f 225 280 272
f 272 280 331
f 272 331 325
f 325 331 394
f 325 394 390
f 390 394 470
f 469 22 15
f 15 22 23
f 15 23 16
f 16 23 37
f 16 37 34
f 34 37 57
f 34 57 51
f 51 57 80
f 51 80 74
f 74 80 103
f 74 103 99
f 99 103 132
f 99 132 124
f 124 132 163
f 124 163 159
f 159 163 198
f 159 198 190
f 190 198 237
f 190 237 235
f 235 237 284
f 235 284 280
f 280 284 334
f 280 334 331
f 331 334 396
f 331 396 394
f 394 396 470
f 469 30 22
f 22 30 31
f 22 31 23
f 23 31 49
f 23 49 37
f 37 49 68
f 37 68 57
f 57 68 87
f 57 87 80
f 80 87 112
f 80 112 103
f 103 112 138
f 103 138 132
f 132 138 167
f 132 167 163
f 163 167 204
f 163 204 198
f 198 204 243
f 198 243 237
f 237 243 286
f 237 286 284
f 284 286 339
f 284 339 334
f 334 339 402
f 334 402 396
f 396 402 470
f 469 43 30
f 30 43 44
f 30 44 31
f 31 44 59
f 31 59 49
f 49 59 78
f 49 78 68
f 68 78 101
f 68 101 87
f 87 101 126
f 87 126 112
f 112 126 155
f 112 155 138
f 138 155 186
f 138 186 167
f 167 186 214
f 167 214 204
f 204 214 251
f 204 251 243
f 243 251 296
f 243 296 286
f 286 296 347
f 286 347 339
f 339 347 406
f 339 406 402
f 402 406 470
f 469 53 43
f 43 53 54
f 43 54 44
f 44 54 76
f 44 76 59
f 59 76 97
f 59 97 78
f 78 97 114
f 78 114 101
f 101 114 136
f 101 136 126
f 126 136 165
f 126 165 155
f 155 165 194
f 155 194 186
f 186 194 229
f 186 229 214
f 214 229 261
f 214 261 251
f 251 261 302
f 251 302 296
f 296 302 353
f 296 353 347
f 347 353 412
f 347 412 406
f 406 412 470
f 469 70 53
f 53 70 71
f 53 71 54
f 54 71 89
f 54 89 76
f 76 89 105
f 76 105 97
f 97 105 130
f 97 130 114
f 114 130 157
f 114 157 136
f 136 157 182
f 136 182 165
f 165 182 206
f 165 206 194
f 194 206 239
f 194 239 229
f 229 239 278
f 229 278 261
f 261 278 306
f 261 306 302
f 302 306 357
f 302 357 353
f 353 357 414
f 353 414 412
f 412 414 470
f 469 93 70
f 70 93 94
f 70 94 71
f 71 94 107
f 71 107 89
f 89 107 128
f 89 128 105
f 105 128 151
f 105 151 130
f 130 151 171
f 130 171 157
f 157 171 201
f 157 201 182
f 182 201 227
f 182 227 206
f 206 227 253
f 206 253 239
f 239 253 290
f 239 290 278
f 278 290 327
f 278 327 306
f 306 327 365
f 306 365 357
f 357 365 422
f 357 422 414
f 414 422 470
f 469 118 93
f 93 118 119
f 93 119 94
f 94 119 134
f 94 134 107
f 107 134 153
f 107 153 128
f 128 153 169
f 128 169 151
f 151 169 196
f 151 196 171
f 171 196 216
f 171 216 201
f 201 216 245
f 201 245 227
f 227 245 274
f 227 274 253
f 253 274 304
f 253 304 290
f 290 304 341
f 290 341 327
f 327 341 371
f 327 371 365
f 365 371 426
f 365 426 422
f 422 426 470
f 469 140 118
f 118 140 141
f 118 141 119
f 119 141 161
f 119 161 134
f 134 161 177
f 134 177 153
f 153 177 200
f 153 200 169
f 169 200 218
f 169 218 196
f 196 218 241
f 196 241 216
f 216 241 263
f 216 263 245
f 245 263 294
f 245 294 274
f 274 294 318
f 274 318 304
f 304 318 355
f 304 355 341
f 341 355 383
f 341 383 371
f 371 383 434
f 371 434 426
f 426 434 470
f 469 173 140
f 140 173 174
f 140 174 141
f 141 174 192
f 141 192 161
f 161 192 208
f 161 208 177
f 177 208 231
f 177 231 200
f 200 231 249
f 200 249 218
f 218 249 268
f 218 268 241
f 241 268 292
f 241 292 263
f 263 292 308
f 263 308 294
f 294 308 345
f 294 345 318
f 318 345 367
f 318 367 355
f 355 367 404
f 355 404 383
f 383 404 438
f 383 438 434
f 434 438 470
f 469 210 173
f 173 210 211
f 173 211 174
f 174 211 233
f 174 233 192
f 192 233 247
f 192 247 208
f 208 247 259
f 208 259 231
f 231 259 282
f 231 282 249
f 249 282 298
f 249 298 268
f 268 298 316
f 268 316 292
f 292 316 343
f 292 343 308
f 308 343 361
f 308 361 345
f 345 361 381
f 345 381 367
f 367 381 420
f 367 420 404
f 404 420 444
f 404 444 438
f 438 444 470
f 469 255 210
f 210 255 256
f 210 256 211
f 211 256 276
f 211 276 233
f 233 276 288
f 233 288 247
f 247 288 300
f 247 300 259
f 259 300 314
f 259 314 282
f 282 314 333
f 282 333 298
f 298 333 351
f 298 351 316
f 316 351 363
f 316 363 343
f 343 363 379
f 343 379 361
f 361 379 410
f 361 410 381
f 381 410 432
f 381 432 420
f 420 432 448
f 420 448 444
f 444 448 470
f 469 310 255
f 255 310 311
f 255 311 256
f 256 311 329
f 256 329 276
f 276 329 337
f 276 337 288
f 288 337 349
f 288 349 300
f 300 349 359
f 300 359 314
f 314 359 369
f 314 369 333
f 333 369 377
f 333 377 351
f 351 377 400
f 351 400 363
f 363 400 418
f 363 418 379
f 379 418 430
f 379 430 410
f 410 430 441
f 410 441 432
f 432 441 451
f 432 451 448
f 448 451 470
f 469 373 310
f 310 373 374
f 310 374 311
f 311 374 392
f 311 392 329
f 329 392 398
f 329 398 337
f 337 398 408
f 337 408 349
f 349 408 416
f 349 416 359
f 359 416 424
f 359 424 369
f 369 424 428
f 369 428 377
f 377 428 436
f 377 436 400
f 400 436 440
f 400 440 418
f 418 440 446
f 418 446 430
f 430 446 450
f 430 450 441
f 441 450 454
f 441 454 451
f 451 454 470
f 469 456 373
f 373 456 457
f 373 457 374
f 374 457 458
f 374 458 392
f 392 458 459
f 392 459 398
f 398 459 460
f 398 460 408
f 408 460 461
f 408 461 416
f 416 461 462
f 416 462 424
f 424 462 463
f 424 463 428
f 428 463 464
f 428 464 436
f 436 464 465
f 436 465 440
f 440 465 466
f 440 466 446
f 446 466 467
f 446 467 450
f 450 467 468
f 450 468 454
f 454 468 470
f 469 563 456
f 456 563 564
f 456 564 457
f 457 564 546
f 457 546 458
f 458 546 540
f 458 540 459
f 459 540 530
f 459 530 460
f 460 530 522
f 460 522 461
f 461 522 514
f 461 514 462
f 462 514 510
f 462 510 463
f 463 510 502
f 463 502 464
f 464 502 496
f 464 496 465
f 465 496 492
f 465 492 466
f 466 492 486
f 466 486 467
f 467 486 484
f 467 484 468
f 468 484 470
f 469 626 563
f 563 626 627
f 563 627 564
f 564 627 609
f 564 609 546
f 546 609 601
f 546 601 540
f 540 601 589
f 540 589 530
f 530 589 579
f 530 579 522
f 522 579 569
f 522 569 514
f 514 569 561
f 514 561 510
f 510 561 538
f 510 538 502
f 502 538 520
f 502 520 496
f 496 520 508
f 496 508 492
f 492 508 497
f 492 497 486
f 486 497 487
f 486 487 484
f 484 487 470
f 469 681 626
f 626 681 682
f 626 682 627
f 627 682 662
f 627 662 609
f 609 662 650
f 609 650 601
f 601 650 638
f 601 638 589
f 589 638 624
f 589 624 579
f 579 624 603
f 579 603 569
f 569 603 587
f 569 587 561
f 561 587 575
f 561 575 538
f 538 575 559
f 538 559 520
f 520 559 528
f 520 528 508
f 508 528 506
f 508 506 497
f 497 506 490
f 497 490 487
f 487 490 470
f 469 726 681
f 681 726 727
f 681 727 682
f 682 727 705
f 682 705 662
f 662 705 691
f 662 691 650
f 650 691 679
f 650 679 638
f 638 679 656
f 638 656 624
f 624 656 640
f 624 640 603
f 603 640 622
f 603 622 587
f 587 622 595
f 587 595 575
f 575 595 577
f 575 577 559
f 559 577 557
f 559 557 528
f 528 557 518
f 528 518 506
f 506 518 494
f 506 494 490
f 490 494 470
f 469 763 726
f 726 763 764
f 726 764 727
f 727 764 746
f 727 746 705
f 705 746 730
f 705 730 691
f 691 730 707
f 691 707 679
f 679 707 689
f 679 689 656
f 656 689 670
f 656 670 640
f 640 670 646
f 640 646 622
f 622 646 630
f 622 630 595
f 595 630 593
f 595 593 577
f 577 593 571
f 577 571 557
f 557 571 534
f 557 534 518
f 518 534 500
f 518 500 494
f 494 500 470
f 469 795 763
f 763 795 796
f 763 796 764
f 764 796 777
f 764 777 746
f 746 777 760
f 746 760 730
f 730 760 736
f 730 736 707
f 707 736 719
f 707 719 689
f 689 719 697
f 689 697 670
f 670 697 674
f 670 674 646
f 646 674 644
f 646 644 630
f 630 644 619
f 630 619 593
f 593 619 583
f 593 583 571
f 571 583 554
f 571 554 534
f 534 554 504
f 534 504 500
f 500 504 470
f 469 818 795
f 795 818 819
f 795 819 796
f 796 819 804
f 796 804 777
f 777 804 785
f 777 785 760
f 760 785 769
f 760 769 736
f 736 769 742
f 736 742 719
f 719 742 722
f 719 722 697
f 697 722 693
f 697 693 674
f 674 693 664
f 674 664 644
f 644 664 634
f 644 634 619
f 619 634 597
f 619 597 583
f 583 597 567
f 583 567 554
f 554 567 512
f 554 512 504
f 504 512 470
f 469 843 818
f 818 843 844
f 818 844 819
f 819 844 831
f 819 831 804
f 804 831 810
f 804 810 785
f 785 810 787
f 785 787 769
f 769 787 767
f 769 767 742
f 742 767 737
f 742 737 722
f 722 737 711
f 722 711 693
f 693 711 685
f 693 685 664
f 664 685 648
f 664 648 634
f 634 648 611
f 634 611 597
f 597 611 573
f 597 573 567
f 567 573 516
f 567 516 512
f 512 516 470
f 469 866 843
f 843 866 867
f 843 867 844
f 844 867 849
f 844 849 831
f 831 849 833
f 831 833 810
f 810 833 808
f 810 808 787
f 787 808 781
f 787 781 767
f 767 781 756
f 767 756 737
f 737 756 732
f 737 732 711
f 711 732 699
f 711 699 685
f 685 699 660
f 685 660 648
f 648 660 632
f 648 632 611
f 611 632 581
f 611 581 573
f 573 581 524
f 573 524 516
f 516 524 470
f 469 883 866
f 866 883 884
f 866 884 867
f 867 884 862
f 867 862 849
f 849 862 841
f 849 841 833
f 833 841 822
f 833 822 808
f 808 822 802
f 808 802 781
f 781 802 773
f 781 773 756
f 756 773 744
f 756 744 732
f 732 744 709
f 732 709 699
f 699 709 677
f 699 677 660
f 660 677 636
f 660 636 632
f 632 636 585
f 632 585 581
f 581 585 526
f 581 526 524
f 524 526 470
f 469 893 883
f 883 893 894
f 883 894 884
f 884 894 879
f 884 879 862
f 862 879 860
f 862 860 841
f 841 860 837
f 841 837 822
f 822 837 812
f 822 812 802
f 802 812 783
f 802 783 773
f 773 783 752
f 773 752 744
f 744 752 724
f 744 724 709
f 709 724 687
f 709 687 677
f 677 687 642
f 677 642 636
f 636 642 591
f 636 591 585
f 585 591 532
f 585 532 526
f 526 532 470
f 469 906 893
f 893 906 907
f 893 907 894
f 894 907 889
f 894 889 879
f 879 889 870
f 879 870 860
f 860 870 851
f 860 851 837
f 837 851 826
f 837 826 812
f 812 826 800
f 812 800 783
f 783 800 771
f 783 771 752
f 752 771 734
f 752 734 724
f 724 734 695
f 724 695 687
f 687 695 652
f 687 652 642
f 642 652 599
f 642 599 591
f 591 599 536
f 591 536 532
f 532 536 470
f 469 914 906
f 906 914 915
f 906 915 907
f 907 915 901
f 907 901 889
f 889 901 881
f 889 881 870
f 870 881 858
f 870 858 851
f 851 858 835
f 851 835 826
f 826 835 806
f 826 806 800
f 800 806 775
f 800 775 771
f 771 775 740
f 771 740 734
f 734 740 701
f 734 701 695
f 695 701 654
f 695 654 652
f 652 654 604
f 652 604 599
f 599 604 542
f 599 542 536
f 536 542 470
f 469 921 914
f 914 921 922
f 914 922 915
f 915 922 904
f 915 904 901
f 901 904 887
f 901 887 881
f 881 887 864
f 881 864 858
f 858 864 839
f 858 839 835
f 835 839 814
f 835 814 806
f 806 814 779
f 806 779 775
f 775 779 748
f 775 748 740
f 740 748 703
f 740 703 701
f 701 703 658
f 701 658 654
f 654 658 607
f 654 607 604
f 604 607 544
f 604 544 542
f 542 544 470
f 469 925 921
f 921 925 926
f 921 926 922
f 922 926 910
f 922 910 904
f 904 910 891
f 904 891 887
f 887 891 872
f 887 872 864
f 864 872 847
f 864 847 839
f 839 847 816
f 839 816 814
f 814 816 789
f 814 789 779
f 779 789 750
f 779 750 748
f 748 750 713
f 748 713 703
f 703 713 666
f 703 666 658
f 658 666 613
f 658 613 607
f 607 613 548
f 607 548 544
f 544 548 470
f 469 929 925
f 925 929 930
f 925 930 926
f 926 930 912
f 926 912 910
f 910 912 897
f 910 897 891
f 891 897 874
f 891 874 872
f 872 874 853
f 872 853 847
f 847 853 823
f 847 823 816
f 816 823 791
f 816 791 789
f 789 791 754
f 789 754 750
f 750 754 715
f 750 715 713
f 713 715 668
f 713 668 666
f 666 668 615
f 666 615 613
f 613 615 550
f 613 550 548
f 548 550 470
f 469 933 929
f 929 933 934
f 929 934 930
f 930 934 918
f 930 918 912
f 912 918 899
f 912 899 897
f 897 899 876
f 897 876 874
f 874 876 855
f 874 855 853
f 853 855 828
f 853 828 823
f 823 828 793
f 823 793 791
f 791 793 758
f 791 758 754
f 754 758 717
f 754 717 715
f 715 717 672
f 715 672 668
f 668 672 617
f 668 617 615
f 615 617 552
f 615 552 550
f 550 552 470
f 469 937 933
f 933 937 938
f 933 938 934
f 934 938 920
f 934 920 918
f 918 920 903
f 918 903 899
f 899 903 878
f 899 878 876
f 876 878 857
f 876 857 855
f 855 857 830
f 855 830 828
f 828 830 797
f 828 797 793
f 793 797 761
f 793 761 758
f 758 761 720
f 758 720 717
f 717 720 675
f 717 675 672
f 672 675 620
f 672 620 617
f 617 620 555
f 617 555 552
f 552 555 470
