v -0.035250 0.000000 0.009000
v -0.035250 0.000000 0.082000
v -0.035116 -0.003072 0.009000
v -0.035116 -0.003072 0.082000
v -0.035116 0.003072 0.009000
v -0.035116 0.003072 0.082000
v -0.034714 -0.006121 0.009000
v -0.034714 -0.006121 0.082000
v -0.034714 0.006121 0.009000
v -0.034714 0.006121 0.082000
v -0.034049 -0.009123 0.009000
v -0.034049 -0.009123 0.082000
v -0.033124 -0.012056 0.009000
v -0.033124 -0.012056 0.082000
v -0.031947 -0.014897 0.009000
v -0.031947 -0.014897 0.082000
v -0.030527 -0.017625 0.009000
v -0.030527 -0.017625 0.082000
v -0.028875 -0.020219 0.009000
v -0.028875 -0.020219 0.082000
v -0.027003 -0.022658 0.009000
v -0.027003 -0.022658 0.082000
v -0.024926 -0.024926 0.009000
v -0.024926 -0.024926 0.082000
v -0.022658 -0.027003 0.009000
v -0.022658 -0.027003 0.082000
v -0.020219 -0.028875 0.009000
v -0.020219 -0.028875 0.082000
v -0.017625 -0.030527 0.009000
v -0.017625 -0.030527 0.082000
v -0.014897 -0.031947 0.009000
v -0.014897 -0.031947 0.082000
v -0.012056 -0.033124 0.009000
v -0.012056 -0.033124 0.082000
v -0.009123 -0.034049 0.009000
v -0.009123 -0.034049 0.082000
v -0.006121 -0.034714 0.009000
v -0.006121 -0.034714 0.082000
v -0.003072 -0.035116 0.009000
v -0.003072 -0.035116 0.082000
v 0.000000 -0.035250 0.009000
v 0.000000 -0.035250 0.082000
v 0.003072 -0.035116 0.009000
v 0.003072 -0.035116 0.082000
v 0.006121 -0.034714 0.009000
v 0.006121 -0.034714 0.082000
v 0.009123 -0.034049 0.009000
v 0.009123 -0.034049 0.082000
v 0.012056 -0.033124 0.009000
v 0.012056 -0.033124 0.082000
v 0.014897 -0.031947 0.009000
v 0.014897 -0.031947 0.082000
v 0.017625 -0.030527 0.009000
v 0.017625 -0.030527 0.082000
v 0.020219 -0.028875 0.009000
v 0.020219 -0.028875 0.082000
v 0.022658 -0.027003 0.009000
v 0.022658 -0.027003 0.082000
v 0.024926 -0.024926 0.009000
v 0.024926 -0.024926 0.082000
v 0.027003 -0.022658 0.009000
v 0.027003 -0.022658 0.082000
v 0.028875 -0.020219 0.009000
v 0.028875 -0.020219 0.082000
v 0.030527 -0.017625 0.009000
v 0.030527 -0.017625 0.082000
v 0.031947 -0.014897 0.009000
v 0.031947 -0.014897 0.082000
v 0.033124 -0.012056 0.009000
v 0.033124 -0.012056 0.082000
v 0.034049 -0.009123 0.009000
v 0.034049 -0.009123 0.082000
v 0.034714 -0.006121 0.009000
v 0.034714 -0.006121 0.082000
v 0.034714 0.006121 0.009000
v 0.034714 0.006121 0.082000
v 0.035116 -0.003072 0.009000
v 0.035116 -0.003072 0.082000
v 0.035116 0.003072 0.009000
v 0.035116 0.003072 0.082000
v 0.035250 -0.000000 0.009000
v 0.035250 -0.000000 0.082000
f 9 5 6
f 9 6 10
f 5 1 2
f 5 2 6
f 1 3 4
f 1 4 2
f 3 7 8
f 3 8 4
f 7 11 12
f 7 12 8
f 11 13 14
f 11 14 12
f 13 15 16
f 13 16 14
f 15 17 18
f 15 18 16
f 17 19 20
f 17 20 18
f 19 21 22
f 19 22 20
f 21 23 24
f 21 24 22
f 23 25 26
f 23 26 24
f 25 27 28
f 25 28 26
f 27 29 30
f 27 30 28
f 29 31 32
f 29 32 30
f 31 33 34
f 31 34 32
f 33 35 36
f 33 36 34
f 35 37 38
f 35 38 36
f 37 39 40
f 37 40 38
f 39 41 42
f 39 42 40
f 41 43 44
f 41 44 42
f 43 45 46
f 43 46 44
f 45 47 48
f 45 48 46
f 47 49 50
f 47 50 48
f 49 51 52
f 49 52 50
f 51 53 54
f 51 54 52
f 53 55 56
f 53 56 54
f 55 57 58
f 55 58 56
f 57 59 60
f 57 60 58
f 59 61 62
f 59 62 60
f 61 63 64
f 61 64 62
f 63 65 66
f 63 66 64
f 65 67 68
f 65 68 66
f 67 69 70
f 67 70 68
f 69 71 72
f 69 72 70
f 71 73 74
f 71 74 72
f 73 77 78
f 73 78 74
f 77 81 82
f 77 82 78
f 81 79 80
f 81 80 82
f 79 75 76
f 79 76 80
