v -0.051300 0.000000 0.001600
v -0.051300 0.000000 0.066821
v -0.051105 -0.004471 0.001600
v -0.051105 -0.004471 0.066802
v -0.051105 0.004471 0.001600
v -0.051105 0.004471 0.067115
v -0.050521 -0.008908 0.001600
v -0.050521 -0.008908 0.066661
v -0.050521 0.008908 0.001600
v -0.050521 0.008908 0.067059
v -0.049552 -0.013277 0.001600
v -0.049552 -0.013277 0.066620
v -0.049552 0.013277 0.001600
v -0.049552 0.013277 0.067020
v -0.048206 -0.017546 0.001600
v -0.048206 -0.017546 0.066746
v -0.048206 0.017546 0.001600
v -0.048206 0.017546 0.066837
v -0.047025 0.000000 0.066792
v -0.046846 -0.004098 0.066911
v -0.046846 0.004098 0.066937
v -0.046494 -0.021680 0.001600
v -0.046494 -0.021680 0.066841
v -0.046494 0.021680 0.001600
v -0.046494 0.021680 0.066776
v -0.046311 -0.008166 0.066948
v -0.046311 0.008166 0.067013
v -0.045423 -0.012171 0.066766
v -0.045423 0.012171 0.067024
v -0.044427 -0.025650 0.001600
v -0.044427 -0.025650 0.066923
v -0.044427 0.025650 0.001600
v -0.044427 0.025650 0.066549
v -0.044189 -0.016083 0.066878
v -0.044189 0.016083 0.066897
v -0.042750 0.000000 0.067084
v -0.042619 -0.019874 0.067078
v -0.042619 0.019874 0.066821
v -0.042587 -0.003726 0.067041
v -0.042587 0.003726 0.067120
v -0.042101 -0.007423 0.066888
v -0.042101 0.007423 0.067225
v -0.042023 -0.029424 0.001600
v -0.042023 -0.029424 0.066903
v -0.042023 0.029424 0.001600
v -0.042023 0.029424 0.066458
v -0.041293 -0.011065 0.066723
v -0.041293 0.011065 0.067207
v -0.040725 -0.023512 0.067145
v -0.040725 0.023512 0.066579
v -0.040172 -0.014621 0.066919
v -0.040172 0.014621 0.066842
v -0.039298 -0.032975 0.001600
v -0.039298 -0.032975 0.066972
v -0.039298 0.032975 0.001600
v -0.039298 0.032975 0.066420
v -0.038745 -0.018067 0.067092
v -0.038745 0.018067 0.066719
v -0.038521 -0.026972 0.066974
v -0.038521 0.026972 0.066530
v -0.038475 0.000000 0.067117
v -0.038329 -0.003353 0.067042
v -0.038329 0.003353 0.067256
v -0.037890 -0.006681 0.066839
v -0.037890 0.006681 0.067385
v -0.037164 -0.009958 0.066671
v -0.037164 0.009958 0.067215
v -0.037023 -0.021375 0.066955
v -0.037023 0.021375 0.066743
v -0.036275 -0.036275 0.001600
v -0.036275 -0.036275 0.066756
v -0.036275 0.036275 0.001600
v -0.036275 0.036275 0.066571
v -0.036155 -0.013159 0.066790
v -0.036155 0.013159 0.066829
v -0.036023 -0.030227 0.067037
v -0.036023 0.030227 0.066317
v -0.035019 -0.024520 0.066848
v -0.035019 0.024520 0.066572
v -0.034870 -0.016260 0.066851
v -0.034870 0.016260 0.066848
v -0.034200 0.000000 0.067104
v -0.034070 -0.002981 0.067109
v -0.034070 0.002981 0.067262
v -0.033680 -0.005939 0.066989
v -0.033680 0.005939 0.067363
v -0.033320 -0.019237 0.066717
v -0.033320 0.019237 0.066909
v -0.033252 -0.033252 0.066870
v -0.033252 0.033252 0.066358
v -0.033035 -0.008852 0.066761
v -0.033035 0.008852 0.067216
v -0.032975 -0.039298 0.001600
v -0.032975 -0.039298 0.066744
v -0.032975 0.039298 0.001600
v -0.032975 0.039298 0.066451
v -0.032748 -0.027479 0.067018
v -0.032748 0.027479 0.066398
v -0.032137 -0.011697 0.066635
v -0.032137 0.011697 0.066982
v -0.031517 -0.022068 0.066783
v -0.031517 0.022068 0.066735
v -0.030996 -0.014454 0.066631
v -0.030996 0.014454 0.066949
v -0.030227 -0.036023 0.066862
v -0.030229 -0.030229 0.067089
v -0.030229 0.030229 0.066398
v -0.030227 0.036023 0.066435
v -0.029925 0.000000 0.067078
v -0.029811 -0.002608 0.066954
v -0.029811 0.002608 0.067164
v -0.029618 -0.017100 0.066657
v -0.029618 0.017100 0.066918
v -0.029474 -0.024731 0.066933
v -0.029470 -0.005196 0.066771
v -0.029470 0.005196 0.067197
v -0.029474 0.024731 0.066684
v -0.029424 -0.042023 0.001600
v -0.029424 -0.042023 0.066888
v -0.029424 0.042023 0.001600
v -0.029424 0.042023 0.066127
v -0.028905 -0.007745 0.066589
v -0.028905 0.007745 0.067205
v -0.028120 -0.010235 0.066522
v -0.028120 0.010235 0.067246
v -0.028015 -0.019616 0.066633
v -0.028015 0.019616 0.066838
v -0.027479 -0.032748 0.067008
v -0.027479 0.032748 0.066500
v -0.027206 -0.027206 0.066942
v -0.027206 0.027206 0.066798
v -0.027121 -0.012647 0.066587
v -0.027121 0.012647 0.067255
v -0.026972 -0.038521 0.066998
v -0.026972 0.038521 0.066521
v -0.026199 -0.021983 0.066605
v -0.026199 0.021983 0.066836
v -0.025916 -0.014962 0.066616
v -0.025916 0.014962 0.067189
v -0.025650 -0.044427 0.001600
v -0.025650 -0.044427 0.067041
v -0.025650 0.000000 0.066756
v -0.025650 0.044427 0.001600
v -0.025650 0.044427 0.066489
v -0.025552 -0.002236 0.066617
v -0.025552 0.002236 0.066835
v -0.025260 -0.004454 0.066534
v -0.025260 0.004454 0.066856
v -0.024776 -0.006639 0.066519
v -0.024776 0.006639 0.066889
v -0.024731 -0.029474 0.066954
v -0.024731 0.029474 0.066752
v -0.024520 -0.035019 0.066896
v -0.024520 0.035019 0.066727
v -0.024513 -0.017164 0.066536
v -0.024513 0.017164 0.067161
v -0.024183 -0.024183 0.066697
v -0.024183 0.024183 0.066771
v -0.024103 -0.008773 0.066521
v -0.024103 0.008773 0.066953
v -0.023512 -0.040725 0.067221
v -0.023512 0.040725 0.066789
v -0.023247 -0.010840 0.066499
v -0.023247 0.010840 0.067059
v -0.022924 -0.019235 0.066530
v -0.022924 0.019235 0.067104
v -0.022214 -0.012825 0.066426
v -0.022214 0.012825 0.067170
v -0.022068 -0.031517 0.066810
v -0.022068 0.031517 0.066919
v -0.021983 -0.026199 0.066738
v -0.021983 0.026199 0.066668
v -0.021680 -0.046494 0.001600
v -0.021680 -0.046494 0.067293
v -0.021680 0.046494 0.001600
v -0.021680 0.046494 0.066755
v -0.021375 -0.037023 0.066958
v -0.021375 0.000000 0.066641
v -0.021375 0.037023 0.066971
v -0.021294 -0.001863 0.066575
v -0.021294 0.001863 0.066694
v -0.021160 -0.021160 0.066682
v -0.021160 0.021160 0.066879
v -0.021050 -0.003712 0.066546
v -0.021050 0.003712 0.066679
v -0.021011 -0.014712 0.066388
v -0.021011 0.014712 0.067240
v -0.020647 -0.005532 0.066511
v -0.020647 0.005532 0.066644
v -0.020086 -0.007311 0.066433
v -0.020086 0.007311 0.066616
v -0.019874 -0.042619 0.067455
v -0.019874 0.042619 0.066925
v -0.019649 -0.016488 0.066488
v -0.019649 0.016488 0.067174
v -0.019616 -0.028015 0.066758
v -0.019616 0.028015 0.066854
v -0.019372 -0.009033 0.066310
v -0.019372 0.009033 0.066626
v -0.019237 -0.033320 0.066922
v -0.019235 -0.022924 0.066871
v -0.019235 0.022924 0.066758
v -0.019237 0.033320 0.067051
v -0.018511 -0.010688 0.066158
v -0.018511 0.010688 0.066702
v -0.018137 -0.018137 0.066663
v -0.018137 0.018137 0.066934
v -0.018067 -0.038745 0.067259
v -0.018067 0.038745 0.066900
v -0.017546 -0.048206 0.001600
v -0.017546 -0.048206 0.067366
v -0.017546 0.048206 0.001600
v -0.017546 0.048206 0.066790
v -0.017509 -0.012260 0.066076
v -0.017509 0.012260 0.066772
v -0.017164 -0.024513 0.066972
v -0.017164 0.024513 0.066896
v -0.017100 -0.029618 0.066935
v -0.017100 0.000000 0.066230
v -0.017100 0.029618 0.067066
v -0.017035 -0.001490 0.066208
v -0.017035 0.001490 0.066313
v -0.016840 -0.002969 0.066214
v -0.016840 0.002969 0.066416
v -0.016517 -0.004426 0.066200
v -0.016517 0.004426 0.066509
v -0.016488 -0.019649 0.066823
v -0.016488 0.019649 0.066748
v -0.016374 -0.013740 0.066112
v -0.016374 0.013740 0.066794
v -0.016260 -0.034870 0.067174
v -0.016260 0.034870 0.066900
v -0.016083 -0.044189 0.067440
v -0.016083 0.044189 0.066883
v -0.016069 -0.005849 0.066149
v -0.016069 0.005849 0.066589
v -0.015498 -0.007227 0.066065
v -0.015498 0.007227 0.066652
v -0.015114 -0.015114 0.066240
v -0.015114 0.015114 0.066759
v -0.014962 -0.025916 0.067010
v -0.014962 0.025916 0.067103
v -0.014809 -0.008550 0.065979
v -0.014809 0.008550 0.066693
v -0.014712 -0.021011 0.066991
v -0.014712 0.021011 0.066741
v -0.014621 -0.040172 0.067416
v -0.014621 0.040172 0.066916
v -0.014454 -0.030996 0.067063
v -0.014454 0.030996 0.067020
v -0.014008 -0.009808 0.065914
v -0.014008 0.009808 0.066732
v -0.013740 -0.016374 0.066412
v -0.013740 0.016374 0.066678
v -0.013277 -0.049552 0.001600
v -0.013277 -0.049552 0.067674
v -0.013277 0.049552 0.001600
v -0.013277 0.049552 0.067130
v -0.013159 -0.036155 0.067317
v -0.013159 0.036155 0.066848
v -0.013099 -0.010992 0.065909
v -0.013099 0.010992 0.066766
v -0.012825 -0.022214 0.067101
v -0.012825 0.000000 0.065938
v -0.012825 0.022214 0.066815
v -0.012776 -0.001118 0.065900
v -0.012776 0.001118 0.066019
v -0.012647 -0.027121 0.066948
v -0.012647 0.027121 0.067176
v -0.012630 -0.002227 0.065887
v -0.012630 0.002227 0.066135
v -0.012388 -0.003319 0.065887
v -0.012388 0.003319 0.066262
v -0.012260 -0.017509 0.066574
v -0.012260 0.017509 0.066610
v -0.012171 -0.045423 0.067585
v -0.012171 0.045423 0.067042
v -0.012092 -0.012092 0.065976
v -0.012092 0.012092 0.066773
v -0.012052 -0.004386 0.065893
v -0.012052 0.004386 0.066379
v -0.011697 -0.032137 0.066994
v -0.011697 0.032137 0.066946
v -0.011623 -0.005420 0.065907
v -0.011623 0.005420 0.066471
v -0.011107 -0.006413 0.065934
v -0.011107 0.006413 0.066528
v -0.011065 -0.041293 0.067393
v -0.011065 0.041293 0.067115
v -0.010992 -0.013099 0.066089
v -0.010992 0.013099 0.066754
v -0.010840 -0.023247 0.067088
v -0.010840 0.023247 0.066795
v -0.010688 -0.018511 0.066737
v -0.010688 0.018511 0.066570
v -0.010506 -0.007356 0.065981
v -0.010506 0.007356 0.066547
v -0.010235 -0.028120 0.066766
v -0.010235 0.028120 0.067040
v -0.009958 -0.037164 0.067252
v -0.009958 0.037164 0.067121
v -0.009825 -0.008244 0.066048
v -0.009825 0.008244 0.066540
v -0.009808 -0.014008 0.066207
v -0.009808 0.014008 0.066715
v -0.009069 -0.009069 0.066124
v -0.009069 0.009069 0.066526
v -0.009033 -0.019372 0.066848
v -0.009033 0.019372 0.066503
v -0.008908 -0.050521 0.001600
v -0.008908 -0.050521 0.067473
v -0.008908 0.050521 0.001600
v -0.008908 0.050521 0.066994
v -0.008852 -0.033035 0.066891
v -0.008852 0.033035 0.067116
v -0.008773 -0.024103 0.067000
v -0.008773 0.024103 0.066653
v -0.008550 -0.014809 0.066289
v -0.008550 0.000000 0.066259
v -0.008550 0.014809 0.066655
v -0.008517 -0.000745 0.066216
v -0.008517 0.000745 0.066302
v -0.008420 -0.001485 0.066185
v -0.008420 0.001485 0.066337
v -0.008259 -0.002213 0.066165
v -0.008259 0.002213 0.066367
v -0.008244 -0.009825 0.066184
v -0.008244 0.009825 0.066528
v -0.008166 -0.046311 0.067362
v -0.008166 0.046311 0.067150
v -0.008034 -0.002924 0.066160
v -0.008034 0.002924 0.066391
v -0.007745 -0.028905 0.066650
v -0.007749 -0.003613 0.066168
v -0.007749 0.003613 0.066409
v -0.007745 0.028905 0.066951
v -0.007423 -0.042101 0.067087
v -0.007423 0.042101 0.067337
v -0.007405 -0.004275 0.066187
v -0.007405 0.004275 0.066424
v -0.007356 -0.010506 0.066224
v -0.007356 0.010506 0.066531
v -0.007311 -0.020086 0.066901
v -0.007311 0.020086 0.066417
v -0.007227 -0.015498 0.066360
v -0.007227 0.015498 0.066568
v -0.007004 -0.004904 0.066216
v -0.007004 0.004904 0.066439
v -0.006681 -0.037890 0.067009
v -0.006681 0.037890 0.067356
v -0.006639 -0.024776 0.066912
v -0.006639 0.024776 0.066609
v -0.006550 -0.005496 0.066253
v -0.006550 0.005496 0.066456
v -0.006413 -0.011107 0.066250
v -0.006413 0.011107 0.066522
v -0.006046 -0.006046 0.066293
v -0.006046 0.006046 0.066478
v -0.005939 -0.033680 0.066907
v -0.005939 0.033680 0.067332
v -0.005849 -0.016069 0.066460
v -0.005849 0.016069 0.066490
v -0.005532 -0.020647 0.066943
v -0.005532 0.020647 0.066440
v -0.005496 -0.006550 0.066334
v -0.005496 0.006550 0.066506
v -0.005420 -0.011623 0.066272
v -0.005420 0.011623 0.066499
v -0.005196 -0.029470 0.066662
v -0.005196 0.029470 0.067030
v -0.004904 -0.007004 0.066368
v -0.004904 0.007004 0.066539
v -0.004471 -0.051105 0.001600
v -0.004471 -0.051105 0.066966
v -0.004471 0.051105 0.001600
v -0.004471 0.051105 0.066871
v -0.004454 -0.025260 0.066811
v -0.004454 0.025260 0.066682
v -0.004426 -0.016517 0.066561
v -0.004426 0.016517 0.066455
v -0.004386 -0.012052 0.066294
v -0.004386 0.012052 0.066469
v -0.004275 -0.007405 0.066399
v -0.004275 0.000000 0.066527
v -0.004275 0.007405 0.066579
v -0.004259 -0.000373 0.066503
v -0.004259 0.000373 0.066551
v -0.004210 -0.000742 0.066485
v -0.004210 0.000742 0.066578
v -0.004129 -0.001106 0.066472
v -0.004129 0.001106 0.066604
v -0.004098 -0.046846 0.066984
v -0.004098 0.046846 0.067288
v -0.004017 -0.001462 0.066466
v -0.004017 0.001462 0.066632
v -0.003874 -0.001807 0.066461
v -0.003874 0.001807 0.066659
v -0.003726 -0.042587 0.066772
v -0.003726 0.042587 0.067397
v -0.003712 -0.021050 0.066953
v -0.003712 0.021050 0.066560
v -0.003702 -0.002138 0.066462
v -0.003702 0.002138 0.066689
v -0.003613 -0.007749 0.066422
v -0.003613 0.007749 0.066621
v -0.003502 -0.002452 0.066468
v -0.003502 0.002452 0.066719
v -0.003353 -0.038329 0.066643
v -0.003353 0.038329 0.067364
v -0.003319 -0.012388 0.066316
v -0.003319 0.012388 0.066444
v -0.003275 -0.002748 0.066476
v -0.003275 0.002748 0.066749
v -0.003023 -0.003023 0.066487
v -0.003023 0.003023 0.066782
v -0.002981 -0.034070 0.066852
v -0.002981 0.034070 0.067405
v -0.002969 -0.016840 0.066632
v -0.002969 0.016840 0.066476
v -0.002924 -0.008034 0.066441
v -0.002924 0.008034 0.066668
v -0.002748 -0.003275 0.066502
v -0.002748 0.003275 0.066816
v -0.002608 -0.029811 0.066747
v -0.002608 0.029811 0.067095
v -0.002452 -0.003502 0.066519
v -0.002452 0.003502 0.066850
v -0.002236 -0.025552 0.066765
v -0.002236 0.025552 0.066762
v -0.002227 -0.012630 0.066335
v -0.002227 0.012630 0.066436
v -0.002213 -0.008259 0.066457
v -0.002213 0.008259 0.066712
v -0.002138 -0.003702 0.066536
v -0.002138 0.003702 0.066885
v -0.001863 -0.021294 0.066944
v -0.001863 0.021294 0.066706
v -0.001807 -0.003874 0.066557
v -0.001807 0.003874 0.066920
v -0.001490 -0.017035 0.066649
v -0.001490 0.017035 0.066541
v -0.001485 -0.008420 0.066477
v -0.001485 0.008420 0.066755
v -0.001462 -0.004017 0.066579
v -0.001462 0.004017 0.066954
v -0.001118 -0.012776 0.066347
v -0.001118 0.012776 0.066449
v -0.001106 -0.004129 0.066600
v -0.001106 0.004129 0.066985
v -0.000745 -0.008517 0.066504
v -0.000745 0.008517 0.066789
v -0.000742 -0.004210 0.066624
v -0.000742 0.004210 0.067013
v -0.000373 -0.004259 0.066651
v -0.000373 0.004259 0.067040
v -0.000000 -0.051300 0.001600
v -0.000000 -0.051300 0.066772
v -0.000000 -0.047025 0.066908
v -0.000000 -0.042750 0.066691
v -0.000000 -0.038475 0.066432
v -0.000000 -0.034200 0.066739
v -0.000000 -0.029925 0.066800
v -0.000000 -0.025650 0.066796
v -0.000000 -0.021375 0.066923
v -0.000000 -0.017100 0.066604
v -0.000000 -0.012825 0.066354
v -0.000000 -0.008550 0.066544
v -0.000000 -0.004275 0.066678
v 0.000000 0.000000 0.001600
v 0.000000 0.000000 0.066800
v 0.000000 0.004275 0.067060
v 0.000000 0.008550 0.066811
v 0.000000 0.012825 0.066481
v 0.000000 0.017100 0.066624
v 0.000000 0.021375 0.066785
v 0.000000 0.025650 0.066756
v 0.000000 0.029925 0.067077
v 0.000000 0.034200 0.067352
v 0.000000 0.038475 0.067323
v 0.000000 0.042750 0.067478
v 0.000000 0.047025 0.067499
v 0.000000 0.051300 0.001600
v 0.000000 0.051300 0.066909
v 0.000373 -0.004259 0.066705
v 0.000373 0.004259 0.067077
v 0.000742 -0.004210 0.066733
v 0.000742 0.004210 0.067097
v 0.000745 -0.008517 0.066601
v 0.000745 0.008517 0.066835
v 0.001106 -0.004129 0.066760
v 0.001106 0.004129 0.067115
v 0.001118 -0.012776 0.066392
v 0.001118 0.012776 0.066540
v 0.001462 -0.004017 0.066784
v 0.001462 0.004017 0.067132
v 0.001485 -0.008420 0.066670
v 0.001485 0.008420 0.066876
v 0.001490 -0.017035 0.066554
v 0.001490 0.017035 0.066678
v 0.001807 -0.003874 0.066807
v 0.001807 0.003874 0.067151
v 0.001863 -0.021294 0.066868
v 0.001863 0.021294 0.066796
v 0.002138 -0.003702 0.066829
v 0.002138 0.003702 0.067167
v 0.002213 -0.008259 0.066743
v 0.002213 0.008259 0.066931
v 0.002227 -0.012630 0.066478
v 0.002227 0.012630 0.066637
v 0.002236 -0.025552 0.066839
v 0.002236 0.025552 0.066792
v 0.002452 -0.003502 0.066848
v 0.002452 0.003502 0.067181
v 0.002608 -0.029811 0.066740
v 0.002608 0.029811 0.067099
v 0.002748 -0.003275 0.066865
v 0.002748 0.003275 0.067193
v 0.002924 -0.008034 0.066811
v 0.002924 0.008034 0.066990
v 0.002969 -0.016840 0.066561
v 0.002969 0.016840 0.066711
v 0.002981 -0.034070 0.066593
v 0.002981 0.034070 0.067277
v 0.003023 -0.003023 0.066883
v 0.003023 0.003023 0.067203
v 0.003275 -0.002748 0.066902
v 0.003275 0.002748 0.067210
v 0.003319 -0.012388 0.066595
v 0.003319 0.012388 0.066764
v 0.003353 -0.038329 0.066447
v 0.003353 0.038329 0.067277
v 0.003502 -0.002452 0.066919
v 0.003502 0.002452 0.067212
v 0.003613 -0.007749 0.066869
v 0.003613 0.007749 0.067050
v 0.003702 -0.002138 0.066939
v 0.003702 0.002138 0.067212
v 0.003712 -0.021050 0.066779
v 0.003712 0.021050 0.066816
v 0.003726 -0.042587 0.066515
v 0.003726 0.042587 0.067372
v 0.003874 -0.001807 0.066962
v 0.003874 0.001807 0.067207
v 0.004017 -0.001462 0.066986
v 0.004017 0.001462 0.067196
v 0.004098 -0.046846 0.066551
v 0.004098 0.046846 0.067315
v 0.004129 -0.001106 0.067014
v 0.004129 0.001106 0.067183
v 0.004210 -0.000742 0.067043
v 0.004210 0.000742 0.067162
v 0.004259 -0.000373 0.067075
v 0.004259 0.000373 0.067137
v 0.004275 -0.007405 0.066911
v 0.004275 0.000000 0.067106
v 0.004275 0.007405 0.067105
v 0.004386 -0.012052 0.066719
v 0.004386 0.012052 0.066911
v 0.004426 -0.016517 0.066619
v 0.004426 0.016517 0.066766
v 0.004454 -0.025260 0.066831
v 0.004454 0.025260 0.066966
v 0.004471 -0.051105 0.001600
v 0.004471 -0.051105 0.066502
v 0.004471 0.051105 0.001600
v 0.004471 0.051105 0.066910
v 0.004904 -0.007004 0.066939
v 0.004904 0.007004 0.067154
v 0.005196 -0.029470 0.066688
v 0.005196 0.029470 0.067273
v 0.005420 -0.011623 0.066831
v 0.005420 0.011623 0.067063
v 0.005496 -0.006550 0.066950
v 0.005496 0.006550 0.067195
v 0.005532 -0.020647 0.066696
v 0.005532 0.020647 0.066865
v 0.005849 -0.016069 0.066716
v 0.005849 0.016069 0.066872
v 0.005939 -0.033680 0.066583
v 0.005939 0.033680 0.067336
v 0.006046 -0.006046 0.066952
v 0.006046 0.006046 0.067232
v 0.006413 -0.011107 0.066912
v 0.006413 0.011107 0.067192
v 0.006550 -0.005496 0.066950
v 0.006550 0.005496 0.067265
v 0.006639 -0.024776 0.066777
v 0.006639 0.024776 0.067122
v 0.006681 -0.037890 0.066698
v 0.006681 0.037890 0.067348
v 0.007004 -0.004904 0.066952
v 0.007004 0.004904 0.067297
v 0.007227 -0.015498 0.066818
v 0.007227 0.015498 0.067029
v 0.007311 -0.020086 0.066652
v 0.007311 0.020086 0.066954
v 0.007356 -0.010506 0.066955
v 0.007356 0.010506 0.067273
v 0.007405 -0.004275 0.066965
v 0.007405 0.004275 0.067328
v 0.007423 -0.042101 0.066476
v 0.007423 0.042101 0.067305
v 0.007745 -0.028905 0.066727
v 0.007749 -0.003613 0.066992
v 0.007749 0.003613 0.067358
v 0.007745 0.028905 0.067482
v 0.008034 -0.002924 0.067039
v 0.008034 0.002924 0.067384
v 0.008166 -0.046311 0.066193
v 0.008166 0.046311 0.067107
v 0.008244 -0.009825 0.066975
v 0.008244 0.009825 0.067295
v 0.008259 -0.002213 0.067100
v 0.008259 0.002213 0.067400
v 0.008420 -0.001485 0.067173
v 0.008420 0.001485 0.067400
v 0.008517 -0.000745 0.067251
v 0.008517 0.000745 0.067377
v 0.008550 -0.014809 0.066881
v 0.008550 0.000000 0.067324
v 0.008550 0.014809 0.067198
v 0.008773 -0.024103 0.066738
v 0.008773 0.024103 0.067145
v 0.008852 -0.033035 0.066760
v 0.008852 0.033035 0.067581
v 0.008908 -0.050521 0.001600
v 0.008908 -0.050521 0.066145
v 0.008908 0.050521 0.001600
v 0.008908 0.050521 0.066777
v 0.009033 -0.019372 0.066641
v 0.009033 0.019372 0.067099
v 0.009069 -0.009069 0.066993
v 0.009069 0.009069 0.067272
v 0.009808 -0.014008 0.066922
v 0.009808 0.014008 0.067304
v 0.009825 -0.008244 0.067015
v 0.009825 0.008244 0.067259
v 0.009958 -0.037164 0.066932
v 0.009958 0.037164 0.067560
v 0.010235 -0.028120 0.066861
v 0.010235 0.028120 0.067499
v 0.010506 -0.007356 0.067022
v 0.010506 0.007356 0.067282
v 0.010688 -0.018511 0.066689
v 0.010688 0.018511 0.067196
v 0.010840 -0.023247 0.066723
v 0.010840 0.023247 0.067132
v 0.010992 -0.013099 0.066965
v 0.010992 0.013099 0.067343
v 0.011065 -0.041293 0.066645
v 0.011065 0.041293 0.067427
v 0.011107 -0.006413 0.067031
v 0.011107 0.006413 0.067331
v 0.011623 -0.005420 0.067065
v 0.011623 0.005420 0.067389
v 0.011697 -0.032137 0.067021
v 0.011697 0.032137 0.067764
v 0.012052 -0.004386 0.067132
v 0.012052 0.004386 0.067439
v 0.012092 -0.012092 0.066998
v 0.012092 0.012092 0.067350
v 0.012171 -0.045423 0.066262
v 0.012171 0.045423 0.067199
v 0.012260 -0.017509 0.066779
v 0.012260 0.017509 0.067210
v 0.012388 -0.003319 0.067225
v 0.012388 0.003319 0.067476
v 0.012630 -0.002227 0.067332
v 0.012630 0.002227 0.067498
v 0.012647 -0.027121 0.066966
v 0.012647 0.027121 0.067451
v 0.012776 -0.001118 0.067429
v 0.012776 0.001118 0.067503
v 0.012825 -0.022214 0.066690
v 0.012825 0.000000 0.067487
v 0.012825 0.022214 0.067142
v 0.013099 -0.010992 0.067023
v 0.013099 0.010992 0.067346
v 0.013159 -0.036155 0.066994
v 0.013159 0.036155 0.067652
v 0.013277 -0.049552 0.001600
v 0.013277 -0.049552 0.066172
v 0.013277 0.049552 0.001600
v 0.013277 0.049552 0.066822
v 0.013740 -0.016374 0.066854
v 0.013740 0.016374 0.067169
v 0.014008 -0.009808 0.067046
v 0.014008 0.009808 0.067341
v 0.014454 -0.030996 0.067226
v 0.014454 0.030996 0.067651
v 0.014621 -0.040172 0.066777
v 0.014621 0.040172 0.067258
v 0.014712 -0.021011 0.066674
v 0.014712 0.021011 0.067135
v 0.014809 -0.008550 0.067066
v 0.014809 0.008550 0.067334
v 0.014962 -0.025916 0.066875
v 0.014962 0.025916 0.067408
v 0.015114 -0.015114 0.066914
v 0.015114 0.015114 0.067138
v 0.015498 -0.007227 0.067091
v 0.015498 0.007227 0.067320
v 0.016069 -0.005849 0.067141
v 0.016069 0.005849 0.067294
v 0.016083 -0.044189 0.066539
v 0.016083 0.044189 0.066907
v 0.016260 -0.034870 0.067013
v 0.016260 0.034870 0.067355
v 0.016374 -0.013740 0.066982
v 0.016374 0.013740 0.067107
v 0.016488 -0.019649 0.066684
v 0.016488 0.019649 0.067123
v 0.016517 -0.004426 0.067214
v 0.016517 0.004426 0.067271
v 0.016840 -0.002969 0.067293
v 0.016840 0.002969 0.067268
v 0.017035 -0.001490 0.067352
v 0.017035 0.001490 0.067294
v 0.017100 -0.029618 0.067259
v 0.017100 0.000000 0.067344
v 0.017100 0.029618 0.067452
v 0.017164 -0.024513 0.066692
v 0.017164 0.024513 0.067289
v 0.017509 -0.012260 0.067056
v 0.017509 0.012260 0.067048
v 0.017546 -0.048206 0.001600
v 0.017546 -0.048206 0.066430
v 0.017546 0.048206 0.001600
v 0.017546 0.048206 0.066660
v 0.018067 -0.038745 0.066987
v 0.018067 0.038745 0.066897
v 0.018137 -0.018137 0.066659
v 0.018137 0.018137 0.067180
v 0.018511 -0.010688 0.067100
v 0.018511 0.010688 0.066945
v 0.019237 -0.033320 0.067177
v 0.019235 -0.022924 0.066556
v 0.019235 0.022924 0.067114
v 0.019237 0.033320 0.067041
v 0.019372 -0.009033 0.067100
v 0.019372 0.009033 0.066863
v 0.019616 -0.028015 0.067126
v 0.019616 0.028015 0.067223
v 0.019649 -0.016488 0.066586
v 0.019649 0.016488 0.067204
v 0.019874 -0.042619 0.067061
v 0.019874 0.042619 0.066610
v 0.020086 -0.007311 0.067080
v 0.020086 0.007311 0.066874
v 0.020647 -0.005532 0.067105
v 0.020647 0.005532 0.066952
v 0.021011 -0.014712 0.066621
v 0.021011 0.014712 0.067018
v 0.021050 -0.003712 0.067163
v 0.021050 0.003712 0.067058
v 0.021160 -0.021160 0.066454
v 0.021160 0.021160 0.067097
v 0.021294 -0.001863 0.067212
v 0.021294 0.001863 0.067143
v 0.021375 -0.037023 0.067102
v 0.021375 0.000000 0.067204
v 0.021375 0.037023 0.066687
v 0.021680 -0.046494 0.001600
v 0.021680 -0.046494 0.066966
v 0.021680 0.046494 0.001600
v 0.021680 0.046494 0.066534
v 0.021983 -0.026199 0.066894
v 0.021983 0.026199 0.066983
v 0.022068 -0.031517 0.067340
v 0.022068 0.031517 0.066873
v 0.022214 -0.012825 0.066705
v 0.022214 0.012825 0.066732
v 0.022924 -0.019235 0.066444
v 0.022924 0.019235 0.067047
v 0.023247 -0.010840 0.066777
v 0.023247 0.010840 0.066569
v 0.023512 -0.040725 0.067217
v 0.023512 0.040725 0.066462
v 0.024103 -0.008773 0.066845
v 0.024103 0.008773 0.066604
v 0.024183 -0.024183 0.066645
v 0.024183 0.024183 0.066866
v 0.024513 -0.017164 0.066543
v 0.024513 0.017164 0.066758
v 0.024520 -0.035019 0.067291
v 0.024520 0.035019 0.066664
v 0.024731 -0.029474 0.067297
v 0.024731 0.029474 0.066816
v 0.024776 -0.006639 0.066906
v 0.024776 0.006639 0.066734
v 0.025260 -0.004454 0.066916
v 0.025260 0.004454 0.066843
v 0.025552 -0.002236 0.066881
v 0.025552 0.002236 0.066855
v 0.025650 -0.044427 0.001600
v 0.025650 -0.044427 0.067374
v 0.025650 0.000000 0.066840
v 0.025650 0.044427 0.001600
v 0.025650 0.044427 0.066529
v 0.025916 -0.014962 0.066602
v 0.025916 0.014962 0.066399
v 0.026199 -0.021983 0.066469
v 0.026199 0.021983 0.066767
v 0.026972 -0.038521 0.067254
v 0.026972 0.038521 0.066363
v 0.027121 -0.012647 0.066611
v 0.027121 0.012647 0.066217
v 0.027206 -0.027206 0.066882
v 0.027206 0.027206 0.066816
v 0.027479 -0.032748 0.067353
v 0.027479 0.032748 0.066652
v 0.028015 -0.019616 0.066525
v 0.028015 0.019616 0.066536
v 0.028120 -0.010235 0.066655
v 0.028120 0.010235 0.066219
v 0.028905 -0.007745 0.066760
v 0.028905 0.007745 0.066311
v 0.029424 -0.042023 0.001600
v 0.029424 -0.042023 0.067495
v 0.029424 0.042023 0.001600
v 0.029424 0.042023 0.066162
v 0.029474 -0.024731 0.066497
v 0.029470 -0.005196 0.066783
v 0.029470 0.005196 0.066359
v 0.029474 0.024731 0.066638
v 0.029618 -0.017100 0.066521
v 0.029618 0.017100 0.066356
v 0.029811 -0.002608 0.066648
v 0.029811 0.002608 0.066359
v 0.029925 0.000000 0.066434
v 0.030227 -0.036023 0.067421
v 0.030229 -0.030229 0.066934
v 0.030229 0.030229 0.066689
v 0.030227 0.036023 0.066501
v 0.030996 -0.014454 0.066288
v 0.030996 0.014454 0.066164
v 0.031517 -0.022068 0.066532
v 0.031517 0.022068 0.066355
v 0.032137 -0.011697 0.066185
v 0.032137 0.011697 0.066043
v 0.032748 -0.027479 0.066544
v 0.032748 0.027479 0.066536
v 0.032975 -0.039298 0.001600
v 0.032975 -0.039298 0.067579
v 0.032975 0.039298 0.001600
v 0.032975 0.039298 0.066313
v 0.033035 -0.008852 0.066378
v 0.033035 0.008852 0.066108
v 0.033252 -0.033252 0.066983
v 0.033252 0.033252 0.066419
v 0.033320 -0.019237 0.066488
v 0.033320 0.019237 0.066233
v 0.033680 -0.005939 0.066620
v 0.033680 0.005939 0.066146
v 0.034070 -0.002981 0.066630
v 0.034070 0.002981 0.066141
v 0.034200 0.000000 0.066321
v 0.034870 -0.016260 0.066212
v 0.034870 0.016260 0.066083
v 0.035019 -0.024520 0.066551
v 0.035019 0.024520 0.066253
v 0.036023 -0.030227 0.066514
v 0.036023 0.030227 0.066389
v 0.036155 -0.013159 0.065950
v 0.036155 0.013159 0.065968
v 0.036275 -0.036275 0.001600
v 0.036275 -0.036275 0.067082
v 0.036275 0.036275 0.001600
v 0.036275 0.036275 0.066329
v 0.037023 -0.021375 0.066554
v 0.037023 0.021375 0.066147
v 0.037164 -0.009958 0.066012
v 0.037164 0.009958 0.066095
v 0.037890 -0.006681 0.066191
v 0.037890 0.006681 0.066227
v 0.038329 -0.003353 0.066210
v 0.038329 0.003353 0.066135
v 0.038475 0.000000 0.066053
v 0.038521 -0.026972 0.066627
v 0.038521 0.026972 0.066334
v 0.038745 -0.018067 0.066289
v 0.038745 0.018067 0.066158
v 0.039298 -0.032975 0.001600
v 0.039298 -0.032975 0.066481
v 0.039298 0.032975 0.001600
v 0.039298 0.032975 0.066295
v 0.040172 -0.014621 0.066074
v 0.040172 0.014621 0.066061
v 0.040725 -0.023512 0.066459
v 0.040725 0.023512 0.066382
v 0.041293 -0.011065 0.065989
v 0.041293 0.011065 0.066066
v 0.042023 -0.029424 0.001600
v 0.042023 -0.029424 0.066502
v 0.042023 0.029424 0.001600
v 0.042023 0.029424 0.066198
v 0.042101 -0.007423 0.066113
v 0.042101 0.007423 0.066327
v 0.042587 -0.003726 0.066134
v 0.042587 0.003726 0.066425
v 0.042619 -0.019874 0.066269
v 0.042619 0.019874 0.066468
v 0.042750 0.000000 0.066186
v 0.044189 -0.016083 0.066304
v 0.044189 0.016083 0.066301
v 0.044427 -0.025650 0.001600
v 0.044427 -0.025650 0.066409
v 0.044427 0.025650 0.001600
v 0.044427 0.025650 0.066461
v 0.045423 -0.012171 0.066287
v 0.045423 0.012171 0.066292
v 0.046311 -0.008166 0.066477
v 0.046311 0.008166 0.066533
v 0.046494 -0.021680 0.001600
v 0.046494 -0.021680 0.066544
v 0.046494 0.021680 0.001600
v 0.046494 0.021680 0.066556
v 0.046846 -0.004098 0.066527
v 0.046846 0.004098 0.066689
v 0.047025 0.000000 0.066556
v 0.048206 -0.017546 0.001600
v 0.048206 -0.017546 0.066635
v 0.048206 0.017546 0.001600
v 0.048206 0.017546 0.066568
v 0.049552 -0.013277 0.001600
v 0.049552 -0.013277 0.066386
v 0.049552 0.013277 0.001600
v 0.049552 0.013277 0.066884
v 0.050521 -0.008908 0.001600
v 0.050521 -0.008908 0.066511
v 0.050521 0.008908 0.001600
v 0.050521 0.008908 0.066889
v 0.051105 -0.004471 0.001600
v 0.051105 -0.004471 0.066642
v 0.051105 0.004471 0.001600
v 0.051105 0.004471 0.066841
v 0.051300 0.000000 0.001600
v 0.051300 0.000000 0.066693
f 469 935 937
f 937 935 936
f 937 936 938
f 938 936 919
f 938 919 920
f 920 919 900
f 920 900 903
f 903 900 877
f 903 877 878
f 878 877 856
f 878 856 857
f 857 856 829
f 857 829 830
f 830 829 794
f 830 794 797
f 797 794 759
f 797 759 761
f 761 759 718
f 761 718 720
f 720 718 673
f 720 673 675
f 675 673 618
f 675 618 620
f 620 618 553
f 620 553 555
f 555 553 470
f 469 931 935
f 935 931 932
f 935 932 936
f 936 932 913
f 936 913 919
f 919 913 898
f 919 898 900
f 900 898 875
f 900 875 877
f 877 875 854
f 877 854 856
f 856 854 824
f 856 824 829
f 829 824 792
f 829 792 794
f 794 792 755
f 794 755 759
f 759 755 716
f 759 716 718
f 718 716 669
f 718 669 673
f 673 669 616
f 673 616 618
f 618 616 551
f 618 551 553
f 553 551 470
f 469 927 931
f 931 927 928
f 931 928 932
f 932 928 911
f 932 911 913
f 913 911 892
f 913 892 898
f 898 892 873
f 898 873 875
f 875 873 848
f 875 848 854
f 854 848 817
f 854 817 824
f 824 817 790
f 824 790 792
f 792 790 751
f 792 751 755
f 755 751 714
f 755 714 716
f 716 714 667
f 716 667 669
f 669 667 614
f 669 614 616
f 616 614 549
f 616 549 551
f 551 549 470
f 469 923 927
f 927 923 924
f 927 924 928
f 928 924 905
f 928 905 911
f 911 905 888
f 911 888 892
f 892 888 865
f 892 865 873
f 873 865 840
f 873 840 848
f 848 840 815
f 848 815 817
f 817 815 780
f 817 780 790
f 790 780 749
f 790 749 751
f 751 749 704
f 751 704 714
f 714 704 659
f 714 659 667
f 667 659 608
f 667 608 614
f 614 608 545
f 614 545 549
f 549 545 470
f 469 916 923
f 923 916 917
f 923 917 924
f 924 917 902
f 924 902 905
f 905 902 882
f 905 882 888
f 888 882 859
f 888 859 865
f 865 859 836
f 865 836 840
f 840 836 807
f 840 807 815
f 815 807 776
f 815 776 780
f 780 776 741
f 780 741 749
f 749 741 702
f 749 702 704
f 704 702 655
f 704 655 659
f 659 655 605
f 659 605 608
f 608 605 543
f 608 543 545
f 545 543 470
f 469 908 916
f 916 908 909
f 916 909 917
f 917 909 890
f 917 890 902
f 902 890 871
f 902 871 882
f 882 871 852
f 882 852 859
f 859 852 827
f 859 827 836
f 836 827 801
f 836 801 807
f 807 801 772
f 807 772 776
f 776 772 735
f 776 735 741
f 741 735 696
f 741 696 702
f 702 696 653
f 702 653 655
f 655 653 600
f 655 600 605
f 605 600 537
f 605 537 543
f 543 537 470
f 469 895 908
f 908 895 896
f 908 896 909
f 909 896 880
f 909 880 890
f 890 880 861
f 890 861 871
f 871 861 838
f 871 838 852
f 852 838 813
f 852 813 827
f 827 813 784
f 827 784 801
f 801 784 753
f 801 753 772
f 772 753 725
f 772 725 735
f 735 725 688
f 735 688 696
f 696 688 643
f 696 643 653
f 653 643 592
f 653 592 600
f 600 592 533
f 600 533 537
f 537 533 470
f 469 885 895
f 895 885 886
f 895 886 896
f 896 886 863
f 896 863 880
f 880 863 842
f 880 842 861
f 861 842 825
f 861 825 838
f 838 825 803
f 838 803 813
f 813 803 774
f 813 774 784
f 784 774 745
f 784 745 753
f 753 745 710
f 753 710 725
f 725 710 678
f 725 678 688
f 688 678 637
f 688 637 643
f 643 637 586
f 643 586 592
f 592 586 527
f 592 527 533
f 533 527 470
f 469 868 885
f 885 868 869
f 885 869 886
f 886 869 850
f 886 850 863
f 863 850 833
f 863 833 842
f 842 833 809
f 842 809 825
f 825 809 782
f 825 782 803
f 803 782 757
f 803 757 774
f 774 757 733
f 774 733 745
f 745 733 700
f 745 700 710
f 710 700 661
f 710 661 678
f 678 661 633
f 678 633 637
f 637 633 582
f 637 582 586
f 586 582 525
f 586 525 527
f 527 525 470
f 469 845 868
f 868 845 846
f 868 846 869
f 869 846 834
f 869 834 850
f 850 834 811
f 850 811 833
f 833 811 788
f 833 788 809
f 809 788 768
f 809 768 782
f 782 768 738
f 782 738 757
f 757 738 712
f 757 712 733
f 733 712 686
f 733 686 700
f 700 686 649
f 700 649 661
f 661 649 612
f 661 612 633
f 633 612 574
f 633 574 582
f 582 574 517
f 582 517 525
f 525 517 470
f 469 820 845
f 845 820 821
f 845 821 846
f 846 821 805
f 846 805 834
f 834 805 786
f 834 786 811
f 811 786 770
f 811 770 788
f 788 770 743
f 788 743 768
f 768 743 723
f 768 723 738
f 738 723 694
f 738 694 712
f 712 694 665
f 712 665 686
f 686 665 635
f 686 635 649
f 649 635 598
f 649 598 612
f 612 598 568
f 612 568 574
f 574 568 513
f 574 513 517
f 517 513 470
f 469 798 820
f 820 798 799
f 820 799 821
f 821 799 778
f 821 778 805
f 805 778 762
f 805 762 786
f 786 762 739
f 786 739 770
f 770 739 721
f 770 721 743
f 743 721 698
f 743 698 723
f 723 698 676
f 723 676 694
f 694 676 645
f 694 645 665
f 665 645 621
f 665 621 635
f 635 621 584
f 635 584 598
f 598 584 556
f 598 556 568
f 568 556 505
f 568 505 513
f 513 505 470
f 469 765 798
f 798 765 766
f 798 766 799
f 799 766 747
f 799 747 778
f 778 747 731
f 778 731 762
f 762 731 708
f 762 708 739
f 739 708 690
f 739 690 721
f 721 690 671
f 721 671 698
f 698 671 647
f 698 647 676
f 676 647 631
f 676 631 645
f 645 631 594
f 645 594 621
f 621 594 572
f 621 572 584
f 584 572 535
f 584 535 556
f 556 535 501
f 556 501 505
f 505 501 470
f 469 728 765
f 765 728 729
f 765 729 766
f 766 729 706
f 766 706 747
f 747 706 692
f 747 692 731
f 731 692 680
f 731 680 708
f 708 680 657
f 708 657 690
f 690 657 641
f 690 641 671
f 671 641 623
f 671 623 647
f 647 623 596
f 647 596 631
f 631 596 578
f 631 578 594
f 594 578 558
f 594 558 572
f 572 558 519
f 572 519 535
f 535 519 495
f 535 495 501
f 501 495 470
f 469 683 728
f 728 683 684
f 728 684 729
f 729 684 663
f 729 663 706
f 706 663 651
f 706 651 692
f 692 651 639
f 692 639 680
f 680 639 625
f 680 625 657
f 657 625 606
f 657 606 641
f 641 606 588
f 641 588 623
f 623 588 576
f 623 576 596
f 596 576 560
f 596 560 578
f 578 560 529
f 578 529 558
f 558 529 507
f 558 507 519
f 519 507 491
f 519 491 495
f 495 491 470
f 469 628 683
f 683 628 629
f 683 629 684
f 684 629 610
f 684 610 663
f 663 610 602
f 663 602 651
f 651 602 590
f 651 590 639
f 639 590 580
f 639 580 625
f 625 580 570
f 625 570 606
f 606 570 562
f 606 562 588
f 588 562 539
f 588 539 576
f 576 539 521
f 576 521 560
f 560 521 509
f 560 509 529
f 529 509 497
f 529 497 507
f 507 497 487
f 507 487 491
f 491 487 470
f 469 565 628
f 628 565 566
f 628 566 629
f 629 566 547
f 629 547 610
f 610 547 541
f 610 541 602
f 602 541 531
f 602 531 590
f 590 531 523
f 590 523 580
f 580 523 515
f 580 515 570
f 570 515 511
f 570 511 562
f 562 511 503
f 562 503 539
f 539 503 499
f 539 499 521
f 521 499 493
f 521 493 509
f 509 493 489
f 509 489 497
f 497 489 485
f 497 485 487
f 487 485 470
f 469 482 565
f 565 482 483
f 565 483 566
f 566 483 481
f 566 481 547
f 547 481 480
f 547 480 541
f 541 480 479
f 541 479 531
f 531 479 478
f 531 478 523
f 523 478 477
f 523 477 515
f 515 477 476
f 515 476 511
f 511 476 475
f 511 475 503
f 503 475 474
f 503 474 499
f 499 474 473
f 499 473 493
f 493 473 472
f 493 472 489
f 489 472 471
f 489 471 485
f 485 471 470
f 469 375 482
f 482 375 376
f 482 376 483
f 483 376 393
f 483 393 481
f 481 393 399
f 481 399 480
f 480 399 409
f 480 409 479
f 479 409 417
f 479 417 478
f 478 417 425
f 478 425 477
f 477 425 429
f 477 429 476
f 476 429 437
f 476 437 475
f 475 437 441
f 475 441 474
f 474 441 447
f 474 447 473
f 473 447 451
f 473 451 472
f 472 451 455
f 472 455 471
f 471 455 470
f 469 312 375
f 375 312 313
f 375 313 376
f 376 313 330
f 376 330 393
f 393 330 338
f 393 338 399
f 399 338 350
f 399 350 409
f 409 350 360
f 409 360 417
f 417 360 370
f 417 370 425
f 425 370 378
f 425 378 429
f 429 378 401
f 429 401 437
f 437 401 419
f 437 419 441
f 441 419 431
f 441 431 447
f 447 431 443
f 447 443 451
f 451 443 453
f 451 453 455
f 455 453 470
f 469 257 312
f 312 257 258
f 312 258 313
f 313 258 277
f 313 277 330
f 330 277 289
f 330 289 338
f 338 289 301
f 338 301 350
f 350 301 315
f 350 315 360
f 360 315 336
f 360 336 370
f 370 336 352
f 370 352 378
f 378 352 364
f 378 364 401
f 401 364 380
f 401 380 419
f 419 380 411
f 419 411 431
f 431 411 433
f 431 433 443
f 443 433 449
f 443 449 453
f 453 449 470
f 469 212 257
f 257 212 213
f 257 213 258
f 258 213 234
f 258 234 277
f 277 234 248
f 277 248 289
f 289 248 260
f 289 260 301
f 301 260 283
f 301 283 315
f 315 283 299
f 315 299 336
f 336 299 317
f 336 317 352
f 352 317 344
f 352 344 364
f 364 344 362
f 364 362 380
f 380 362 382
f 380 382 411
f 411 382 421
f 411 421 433
f 433 421 445
f 433 445 449
f 449 445 470
f 469 175 212
f 212 175 176
f 212 176 213
f 213 176 193
f 213 193 234
f 234 193 209
f 234 209 248
f 248 209 232
f 248 232 260
f 260 232 250
f 260 250 283
f 283 250 269
f 283 269 299
f 299 269 293
f 299 293 317
f 317 293 309
f 317 309 344
f 344 309 346
f 344 346 362
f 362 346 368
f 362 368 382
f 382 368 405
f 382 405 421
f 421 405 439
f 421 439 445
f 445 439 470
f 469 143 175
f 175 143 144
f 175 144 176
f 176 144 162
f 176 162 193
f 193 162 179
f 193 179 209
f 209 179 203
f 209 203 232
f 232 203 220
f 232 220 250
f 250 220 242
f 250 242 269
f 269 242 265
f 269 265 293
f 293 265 295
f 293 295 309
f 309 295 320
f 309 320 346
f 346 320 356
f 346 356 368
f 368 356 385
f 368 385 405
f 405 385 435
f 405 435 439
f 439 435 470
f 469 120 143
f 143 120 121
f 143 121 144
f 144 121 135
f 144 135 162
f 162 135 154
f 162 154 179
f 179 154 170
f 179 170 203
f 203 170 197
f 203 197 220
f 220 197 217
f 220 217 242
f 242 217 246
f 242 246 265
f 265 246 275
f 265 275 295
f 295 275 305
f 295 305 320
f 320 305 342
f 320 342 356
f 356 342 372
f 356 372 385
f 385 372 427
f 385 427 435
f 435 427 470
f 469 95 120
f 120 95 96
f 120 96 121
f 121 96 108
f 121 108 135
f 135 108 129
f 135 129 154
f 154 129 152
f 154 152 170
f 170 152 172
f 170 172 197
f 197 172 202
f 197 202 217
f 217 202 228
f 217 228 246
f 246 228 254
f 246 254 275
f 275 254 291
f 275 291 305
f 305 291 328
f 305 328 342
f 342 328 366
f 342 366 372
f 372 366 423
f 372 423 427
f 427 423 470
f 469 72 95
f 95 72 73
f 95 73 96
f 96 73 90
f 96 90 108
f 108 90 107
f 108 107 129
f 129 107 131
f 129 131 152
f 152 131 158
f 152 158 172
f 172 158 183
f 172 183 202
f 202 183 207
f 202 207 228
f 228 207 240
f 228 240 254
f 254 240 279
f 254 279 291
f 291 279 307
f 291 307 328
f 328 307 358
f 328 358 366
f 366 358 415
f 366 415 423
f 423 415 470
f 469 55 72
f 72 55 56
f 72 56 73
f 73 56 77
f 73 77 90
f 90 77 98
f 90 98 107
f 107 98 117
f 107 117 131
f 131 117 137
f 131 137 158
f 158 137 166
f 158 166 183
f 183 166 195
f 183 195 207
f 207 195 230
f 207 230 240
f 240 230 262
f 240 262 279
f 279 262 303
f 279 303 307
f 307 303 354
f 307 354 358
f 358 354 413
f 358 413 415
f 415 413 470
f 469 45 55
f 55 45 46
f 55 46 56
f 56 46 60
f 56 60 77
f 77 60 79
f 77 79 98
f 98 79 102
f 98 102 117
f 117 102 127
f 117 127 137
f 137 127 156
f 137 156 166
f 166 156 187
f 166 187 195
f 195 187 215
f 195 215 230
f 230 215 252
f 230 252 262
f 262 252 297
f 262 297 303
f 303 297 348
f 303 348 354
f 354 348 407
f 354 407 413
f 413 407 470
f 469 32 45
f 45 32 33
f 45 33 46
f 46 33 50
f 46 50 60
f 60 50 69
f 60 69 79
f 79 69 88
f 79 88 102
f 102 88 113
f 102 113 127
f 127 113 139
f 127 139 156
f 156 139 168
f 156 168 187
f 187 168 205
f 187 205 215
f 215 205 244
f 215 244 252
f 252 244 287
f 252 287 297
f 297 287 340
f 297 340 348
f 348 340 403
f 348 403 407
f 407 403 470
f 469 24 32
f 32 24 25
f 32 25 33
f 33 25 38
f 33 38 50
f 50 38 58
f 50 58 69
f 69 58 81
f 69 81 88
f 88 81 104
f 88 104 113
f 113 104 133
f 113 133 139
f 139 133 164
f 139 164 168
f 168 164 199
f 168 199 205
f 205 199 238
f 205 238 244
f 244 238 285
f 244 285 287
f 287 285 335
f 287 335 340
f 340 335 397
f 340 397 403
f 403 397 470
f 469 17 24
f 24 17 18
f 24 18 25
f 25 18 35
f 25 35 38
f 38 35 52
f 38 52 58
f 58 52 75
f 58 75 81
f 81 75 100
f 81 100 104
f 104 100 125
f 104 125 133
f 133 125 160
f 133 160 164
f 164 160 191
f 164 191 199
f 199 191 236
f 199 236 238
f 238 236 281
f 238 281 285
f 285 281 332
f 285 332 335
f 335 332 395
f 335 395 397
f 397 395 470
f 469 13 17
f 17 13 14
f 17 14 18
f 18 14 29
f 18 29 35
f 35 29 48
f 35 48 52
f 52 48 67
f 52 67 75
f 75 67 92
f 75 92 100
f 100 92 123
f 100 123 125
f 125 123 150
f 125 150 160
f 160 150 189
f 160 189 191
f 191 189 226
f 191 226 236
f 236 226 273
f 236 273 281
f 281 273 326
f 281 326 332
f 332 326 391
f 332 391 395
f 395 391 470
f 469 9 13
f 13 9 10
f 13 10 14
f 14 10 27
f 14 27 29
f 29 27 42
f 29 42 48
f 48 42 65
f 48 65 67
f 67 65 86
f 67 86 92
f 92 86 116
f 92 116 123
f 123 116 148
f 123 148 150
f 150 148 185
f 150 185 189
f 189 185 224
f 189 224 226
f 226 224 271
f 226 271 273
f 273 271 324
f 273 324 326
f 326 324 389
f 326 389 391
f 391 389 470
f 469 5 9
f 9 5 6
f 9 6 10
f 10 6 21
f 10 21 27
f 27 21 40
f 27 40 42
f 42 40 63
f 42 63 65
f 65 63 84
f 65 84 86
f 86 84 111
f 86 111 116
f 116 111 146
f 116 146 148
f 148 146 181
f 148 181 185
f 185 181 222
f 185 222 224
f 224 222 267
f 224 267 271
f 271 267 322
f 271 322 324
f 324 322 387
f 324 387 389
f 389 387 470
f 469 1 5
f 5 1 2
f 5 2 6
f 6 2 19
f 6 19 21
f 21 19 36
f 21 36 40
f 40 36 61
f 40 61 63
f 63 61 82
f 63 82 84
f 84 82 109
f 84 109 111
f 111 109 142
f 111 142 146
f 146 142 178
f 146 178 181
f 181 178 219
f 181 219 222
f 222 219 264
f 222 264 267
f 267 264 319
f 267 319 322
f 322 319 384
f 322 384 387
f 387 384 470
f 469 3 1
f 1 3 4
f 1 4 2
f 2 4 20
f 2 20 19
f 19 20 39
f 19 39 36
f 36 39 62
f 36 62 61
f 61 62 83
f 61 83 82
f 82 83 110
f 82 110 109
f 109 110 145
f 109 145 142
f 142 145 180
f 142 180 178
f 178 180 221
f 178 221 219
f 219 221 266
f 219 266 264
f 264 266 321
f 264 321 319
f 319 321 386
f 319 386 384
f 384 386 470
f 469 7 3
f 3 7 8
f 3 8 4
f 4 8 26
f 4 26 20
f 20 26 41
f 20 41 39
f 39 41 64
f 39 64 62
f 62 64 85
f 62 85 83
f 83 85 115
f 83 115 110
f 110 115 147
f 110 147 145
f 145 147 184
f 145 184 180
f 180 184 223
f 180 223 221
f 221 223 270
f 221 270 266
f 266 270 323
f 266 323 321
f 321 323 388
f 321 388 386
f 386 388 470
f 469 11 7
f 7 11 12
f 7 12 8
f 8 12 28
f 8 28 26
f 26 28 47
f 26 47 41
f 41 47 66
f 41 66 64
f 64 66 91
f 64 91 85
f 85 91 122
f 85 122 115
f 115 122 149
f 115 149 147
f 147 149 188
f 147 188 184
f 184 188 225
f 184 225 223
f 223 225 272
f 223 272 270
f 270 272 325
f 270 325 323
f 323 325 390
f 323 390 388
f 388 390 470
f 469 15 11
f 11 15 16
f 11 16 12
f 12 16 34
f 12 34 28
f 28 34 51
f 28 51 47
f 47 51 74
f 47 74 66
f 66 74 99
f 66 99 91
f 91 99 124
f 91 124 122
f 122 124 159
f 122 159 149
f 149 159 190
f 149 190 188
f 188 190 235
f 188 235 225
f 225 235 280
f 225 280 272
f 272 280 331
f 272 331 325
f 325 331 394
f 325 394 390
f 390 394 470
f 469 22 15
f 15 22 23
f 15 23 16
f 16 23 37
f 16 37 34
f 34 37 57
f 34 57 51
f 51 57 80
f 51 80 74
f 74 80 103
f 74 103 99
f 99 103 132
f 99 132 124
f 124 132 163
f 124 163 159
f 159 163 198
f 159 198 190
f 190 198 237
f 190 237 235
f 235 237 284
f 235 284 280
f 280 284 334
f 280 334 331
f 331 334 396
f 331 396 394
f 394 396 470
f 469 30 22
f 22 30 31
f 22 31 23
f 23 31 49
f 23 49 37
f 37 49 68
f 37 68 57
f 57 68 87
f 57 87 80
f 80 87 112
f 80 112 103
f 103 112 138
f 103 138 132
f 132 138 167
f 132 167 163
f 163 167 204
f 163 204 198
f 198 204 243
f 198 243 237
f 237 243 286
f 237 286 284
f 284 286 339
f 284 339 334
f 334 339 402
f 334 402 396
f 396 402 470
f 469 43 30
f 30 43 44
f 30 44 31
f 31 44 59
f 31 59 49
f 49 59 78
f 49 78 68
f 68 78 101
f 68 101 87
f 87 101 126
f 87 126 112
f 112 126 155
f 112 155 138
f 138 155 186
f 138 186 167
f 167 186 214
f 167 214 204
f 204 214 251
f 204 251 243
f 243 251 296
f 243 296 286
f 286 296 347
f 286 347 339
f 339 347 406
f 339 406 402
f 402 406 470
f 469 53 43
f 43 53 54
f 43 54 44
f 44 54 76
f 44 76 59
f 59 76 97
f 59 97 78
f 78 97 114
f 78 114 101
f 101 114 136
f 101 136 126
f 126 136 165
f 126 165 155
f 155 165 194
f 155 194 186
f 186 194 229
f 186 229 214
f 214 229 261
f 214 261 251
f 251 261 302
f 251 302 296
f 296 302 353
f 296 353 347
f 347 353 412
f 347 412 406
f 406 412 470
f 469 70 53
f 53 70 71
f 53 71 54
f 54 71 89
f 54 89 76
f 76 89 106
f 76 106 97
f 97 106 130
f 97 130 114
f 114 130 157
f 114 157 136
f 136 157 182
f 136 182 165
f 165 182 206
f 165 206 194
f 194 206 239
f 194 239 229
f 229 239 278
f 229 278 261
f 261 278 306
f 261 306 302
f 302 306 357
f 302 357 353
f 353 357 414
f 353 414 412
f 412 414 470
f 469 93 70
f 70 93 94
f 70 94 71
f 71 94 105
f 71 105 89
f 89 105 128
f 89 128 106
f 106 128 151
f 106 151 130
f 130 151 171
f 130 171 157
f 157 171 201
f 157 201 182
f 182 201 227
f 182 227 206
f 206 227 253
f 206 253 239
f 239 253 290
f 239 290 278
f 278 290 327
f 278 327 306
f 306 327 365
f 306 365 357
f 357 365 422
f 357 422 414
f 414 422 470
f 469 118 93
f 93 118 119
f 93 119 94
f 94 119 134
f 94 134 105
f 105 134 153
f 105 153 128
f 128 153 169
f 128 169 151
f 151 169 196
f 151 196 171
f 171 196 216
f 171 216 201
f 201 216 245
f 201 245 227
f 227 245 274
f 227 274 253
f 253 274 304
f 253 304 290
f 290 304 341
f 290 341 327
f 327 341 371
f 327 371 365
f 365 371 426
f 365 426 422
f 422 426 470
f 469 140 118
f 118 140 141
f 118 141 119
f 119 141 161
f 119 161 134
f 134 161 177
f 134 177 153
f 153 177 200
f 153 200 169
f 169 200 218
f 169 218 196
f 196 218 241
f 196 241 216
f 216 241 263
f 216 263 245
f 245 263 294
f 245 294 274
f 274 294 318
f 274 318 304
f 304 318 355
f 304 355 341
f 341 355 383
f 341 383 371
f 371 383 434
f 371 434 426
f 426 434 470
f 469 173 140
f 140 173 174
f 140 174 141
f 141 174 192
f 141 192 161
f 161 192 208
f 161 208 177
f 177 208 231
f 177 231 200
f 200 231 249
f 200 249 218
f 218 249 268
f 218 268 241
f 241 268 292
f 241 292 263
f 263 292 308
f 263 308 294
f 294 308 345
f 294 345 318
f 318 345 367
f 318 367 355
f 355 367 404
f 355 404 383
f 383 404 438
f 383 438 434
f 434 438 470
f 469 210 173
f 173 210 211
f 173 211 174
f 174 211 233
f 174 233 192
f 192 233 247
f 192 247 208
f 208 247 259
f 208 259 231
f 231 259 282
f 231 282 249
f 249 282 298
f 249 298 268
f 268 298 316
f 268 316 292
f 292 316 343
f 292 343 308
f 308 343 361
f 308 361 345
f 345 361 381
f 345 381 367
f 367 381 420
f 367 420 404
f 404 420 444
f 404 444 438
f 438 444 470
f 469 255 210
f 210 255 256
f 210 256 211
f 211 256 276
f 211 276 233
f 233 276 288
f 233 288 247
f 247 288 300
f 247 300 259
f 259 300 314
f 259 314 282
f 282 314 333
f 282 333 298
f 298 333 351
f 298 351 316
f 316 351 363
f 316 363 343
f 343 363 379
f 343 379 361
f 361 379 410
f 361 410 381
f 381 410 432
f 381 432 420
f 420 432 448
f 420 448 444
f 444 448 470
f 469 310 255
f 255 310 311
f 255 311 256
f 256 311 329
f 256 329 276
f 276 329 337
f 276 337 288
f 288 337 349
f 288 349 300
f 300 349 359
f 300 359 314
f 314 359 369
f 314 369 333
f 333 369 377
f 333 377 351
f 351 377 400
f 351 400 363
f 363 400 418
f 363 418 379
f 379 418 430
f 379 430 410
f 410 430 442
f 410 442 432
f 432 442 452
f 432 452 448
f 448 452 470
f 469 373 310
f 310 373 374
f 310 374 311
f 311 374 392
f 311 392 329
f 329 392 398
f 329 398 337
f 337 398 408
f 337 408 349
f 349 408 416
f 349 416 359
f 359 416 424
f 359 424 369
f 369 424 428
f 369 428 377
f 377 428 436
f 377 436 400
f 400 436 440
f 400 440 418
f 418 440 446
f 418 446 430
f 430 446 450
f 430 450 442
f 442 450 454
f 442 454 452
f 452 454 470
f 469 456 373
f 373 456 457
f 373 457 374
f 374 457 458
f 374 458 392
f 392 458 459
f 392 459 398
f 398 459 460
f 398 460 408
f 408 460 461
f 408 461 416
f 416 461 462
f 416 462 424
f 424 462 463
f 424 463 428
f 428 463 464
f 428 464 436
f 436 464 465
f 436 465 440
f 440 465 466
f 440 466 446
f 446 466 467
f 446 467 450
f 450 467 468
f 450 468 454
f 454 468 470
f 469 563 456
f 456 563 564
f 456 564 457
f 457 564 546
f 457 546 458
f 458 546 540
f 458 540 459
f 459 540 530
f 459 530 460
f 460 530 522
f 460 522 461
f 461 522 514
f 461 514 462
f 462 514 510
f 462 510 463
f 463 510 502
f 463 502 464
f 464 502 498
f 464 498 465
f 465 498 492
f 465 492 466
f 466 492 488
f 466 488 467
f 467 488 484
f 467 484 468
f 468 484 470
f 469 626 563
f 563 626 627
f 563 627 564
f 564 627 609
f 564 609 546
f 546 609 601
f 546 601 540
f 540 601 589
f 540 589 530
f 530 589 579
f 530 579 522
f 522 579 569
f 522 569 514
f 514 569 561
f 514 561 510
f 510 561 538
f 510 538 502
f 502 538 520
f 502 520 498
f 498 520 508
f 498 508 492
f 492 508 496
f 492 496 488
f 488 496 486
f 488 486 484
f 484 486 470
f 469 681 626
f 626 681 682
f 626 682 627
f 627 682 662
f 627 662 609
f 609 662 650
f 609 650 601
f 601 650 638
f 601 638 589
f 589 638 624
f 589 624 579
f 579 624 603
f 579 603 569
f 569 603 587
f 569 587 561
f 561 587 575
f 561 575 538
f 538 575 559
f 538 559 520
f 520 559 528
f 520 528 508
f 508 528 506
f 508 506 496
f 496 506 490
f 496 490 486
f 486 490 470
f 469 726 681
f 681 726 727
f 681 727 682
f 682 727 705
f 682 705 662
f 662 705 691
f 662 691 650
f 650 691 679
f 650 679 638
f 638 679 656
f 638 656 624
f 624 656 640
f 624 640 603
f 603 640 622
f 603 622 587
f 587 622 595
f 587 595 575
f 575 595 577
f 575 577 559
f 559 577 557
f 559 557 528
f 528 557 518
f 528 518 506
f 506 518 494
f 506 494 490
f 490 494 470
f 469 763 726
f 726 763 764
f 726 764 727
f 727 764 746
f 727 746 705
f 705 746 730
f 705 730 691
f 691 730 707
f 691 707 679
f 679 707 689
f 679 689 656
f 656 689 670
f 656 670 640
f 640 670 646
f 640 646 622
f 622 646 630
f 622 630 595
f 595 630 593
f 595 593 577
f 577 593 571
f 577 571 557
f 557 571 534
f 557 534 518
f 518 534 500
f 518 500 494
f 494 500 470
f 469 795 763
f 763 795 796
f 763 796 764
f 764 796 777
f 764 777 746
f 746 777 760
f 746 760 730
f 730 760 736
f 730 736 707
f 707 736 719
f 707 719 689
f 689 719 697
f 689 697 670
f 670 697 674
f 670 674 646
f 646 674 644
f 646 644 630
f 630 644 619
f 630 619 593
f 593 619 583
f 593 583 571
f 571 583 554
f 571 554 534
f 534 554 504
f 534 504 500
f 500 504 470
f 469 818 795
f 795 818 819
f 795 819 796
f 796 819 804
f 796 804 777
f 777 804 785
f 777 785 760
f 760 785 769
f 760 769 736
f 736 769 742
f 736 742 719
f 719 742 722
f 719 722 697
f 697 722 693
f 697 693 674
f 674 693 664
f 674 664 644
f 644 664 634
f 644 634 619
f 619 634 597
f 619 597 583
f 583 597 567
f 583 567 554
f 554 567 512
f 554 512 504
f 504 512 470
f 469 843 818
f 818 843 844
f 818 844 819
f 819 844 831
f 819 831 804
f 804 831 810
f 804 810 785
f 785 810 787
f 785 787 769
f 769 787 767
f 769 767 742
f 742 767 737
f 742 737 722
f 722 737 711
f 722 711 693
f 693 711 685
f 693 685 664
f 664 685 648
f 664 648 634
f 634 648 611
f 634 611 597
f 597 611 573
f 597 573 567
f 567 573 516
f 567 516 512
f 512 516 470
f 469 866 843
f 843 866 867
f 843 867 844
f 844 867 849
f 844 849 831
f 831 849 832
f 831 832 810
f 810 832 808
f 810 808 787
f 787 808 781
f 787 781 767
f 767 781 756
f 767 756 737
f 737 756 732
f 737 732 711
f 711 732 699
f 711 699 685
f 685 699 660
f 685 660 648
f 648 660 632
f 648 632 611
f 611 632 581
f 611 581 573
f 573 581 524
f 573 524 516
f 516 524 470
f 469 883 866
f 866 883 884
f 866 884 867
f 867 884 862
f 867 862 849
f 849 862 841
f 849 841 832
f 832 841 822
f 832 822 808
f 808 822 802
f 808 802 781
f 781 802 773
f 781 773 756
f 756 773 744
f 756 744 732
f 732 744 709
f 732 709 699
f 699 709 677
f 699 677 660
f 660 677 636
f 660 636 632
f 632 636 585
f 632 585 581
f 581 585 526
f 581 526 524
f 524 526 470
f 469 893 883
f 883 893 894
f 883 894 884
f 884 894 879
f 884 879 862
f 862 879 860
f 862 860 841
f 841 860 837
f 841 837 822
f 822 837 812
f 822 812 802
f 802 812 783
f 802 783 773
f 773 783 752
f 773 752 744
f 744 752 724
f 744 724 709
f 709 724 687
f 709 687 677
f 677 687 642
f 677 642 636
f 636 642 591
f 636 591 585
f 585 591 532
f 585 532 526
f 526 532 470
f 469 906 893
f 893 906 907
f 893 907 894
f 894 907 889
f 894 889 879
f 879 889 870
f 879 870 860
f 860 870 851
f 860 851 837
f 837 851 826
f 837 826 812
f 812 826 800
f 812 800 783
f 783 800 771
f 783 771 752
f 752 771 734
f 752 734 724
f 724 734 695
f 724 695 687
f 687 695 652
f 687 652 642
f 642 652 599
f 642 599 591
f 591 599 536
f 591 536 532
f 532 536 470
f 469 914 906
f 906 914 915
f 906 915 907
f 907 915 901
f 907 901 889
f 889 901 881
f 889 881 870
f 870 881 858
f 870 858 851
f 851 858 835
f 851 835 826
f 826 835 806
f 826 806 800
f 800 806 775
f 800 775 771
f 771 775 740
f 771 740 734
f 734 740 701
f 734 701 695
f 695 701 654
f 695 654 652
f 652 654 604
f 652 604 599
f 599 604 542
f 599 542 536
f 536 542 470
f 469 921 914
f 914 921 922
f 914 922 915
f 915 922 904
f 915 904 901
f 901 904 887
f 901 887 881
f 881 887 864
f 881 864 858
f 858 864 839
f 858 839 835
f 835 839 814
f 835 814 806
f 806 814 779
f 806 779 775
f 775 779 748
f 775 748 740
f 740 748 703
f 740 703 701
f 701 703 658
f 701 658 654
f 654 658 607
f 654 607 604
f 604 607 544
f 604 544 542
f 542 544 470
f 469 925 921
f 921 925 926
f 921 926 922
f 922 926 910
f 922 910 904
f 904 910 891
f 904 891 887
f 887 891 872
f 887 872 864
f 864 872 847
f 864 847 839
f 839 847 816
f 839 816 814
f 814 816 789
f 814 789 779
f 779 789 750
f 779 750 748
f 748 750 713
f 748 713 703
f 703 713 666
f 703 666 658
f 658 666 613
f 658 613 607
f 607 613 548
f 607 548 544
f 544 548 470
f 469 929 925
f 925 929 930
f 925 930 926
f 926 930 912
f 926 912 910
f 910 912 897
f 910 897 891
f 891 897 874
f 891 874 872
f 872 874 853
f 872 853 847
f 847 853 823
f 847 823 816
f 816 823 791
f 816 791 789
f 789 791 754
f 789 754 750
f 750 754 715
f 750 715 713
f 713 715 668
f 713 668 666
f 666 668 615
f 666 615 613
f 613 615 550
f 613 550 548
f 548 550 470
f 469 933 929
f 929 933 934
f 929 934 930
f 930 934 918
f 930 918 912
f 912 918 899
f 912 899 897
f 897 899 876
f 897 876 874
f 874 876 855
f 874 855 853
f 853 855 828
f 853 828 823
f 823 828 793
f 823 793 791
f 791 793 758
f 791 758 754
f 754 758 717
f 754 717 715
f 715 717 672
f 715 672 668
f 668 672 617
f 668 617 615
f 615 617 552
f 615 552 550
f 550 552 470
f 469 937 933
f 933 937 938
f 933 938 934
f 934 938 920
f 934 920 918
f 918 920 903
f 918 903 899
f 899 903 878
f 899 878 876
f 876 878 857
f 876 857 855
f 855 857 830
f 855 830 828
f 828 830 797
f 828 797 793
f 793 797 761
f 793 761 758
f 758 761 720
f 758 720 717
f 717 720 675
f 717 675 672
f 672 675 620
f 672 620 617
f 617 620 555
f 617 555 552
f 552 555 470
