v -0.045660 0.000000 0.166500
v -0.045660 0.000000 0.175900
v -0.045582 0.000000 0.176394
v -0.045562 -0.002986 0.166500
v -0.045562 -0.002986 0.175900
v -0.045562 0.002986 0.166500
v -0.045562 0.002986 0.175900
v -0.045484 -0.002981 0.176394
v -0.045484 0.002981 0.176394
v -0.045354 0.000000 0.176840
v -0.045269 -0.005960 0.166500
v -0.045269 -0.005960 0.175900
v -0.045269 0.005960 0.166500
v -0.045269 0.005960 0.175900
v -0.045257 -0.002966 0.176840
v -0.045257 0.002966 0.176840
v -0.045192 -0.005950 0.176394
v -0.045192 0.005950 0.176394
v -0.045000 0.000000 0.177194
v -0.044966 -0.005920 0.176840
v -0.044966 0.005920 0.176840
v -0.044904 -0.002943 0.177194
v -0.044904 0.002943 0.177194
v -0.044783 -0.008908 0.166500
v -0.044783 -0.008908 0.175900
v -0.044783 0.008908 0.166500
v -0.044783 0.008908 0.175900
v -0.044706 -0.008893 0.176394
v -0.044706 0.008893 0.176394
v -0.044615 -0.005874 0.177194
v -0.044615 0.005874 0.177194
v -0.044554 0.000000 0.177422
v -0.044483 -0.008848 0.176840
v -0.044483 0.008848 0.176840
v -0.044459 -0.002914 0.177422
v -0.044459 0.002914 0.177422
v -0.044173 -0.005816 0.177422
v -0.044173 0.005816 0.177422
v -0.044136 -0.008779 0.177194
v -0.044136 0.008779 0.177194
v -0.044104 -0.011818 0.166500
v -0.044104 -0.011818 0.175900
v -0.044104 0.011818 0.166500
v -0.044104 0.011818 0.175900
v -0.044060 0.000000 0.166500
v -0.044060 0.000000 0.175900
v -0.044060 0.000000 0.177500
v -0.044029 -0.011797 0.176394
v -0.044029 0.011797 0.176394
v -0.043966 -0.002882 0.166500
v -0.043966 -0.002882 0.175900
v -0.043966 -0.002882 0.177500
v -0.043966 0.002882 0.166500
v -0.043966 0.002882 0.175900
v -0.043966 0.002882 0.177500
v -0.043809 -0.011739 0.176840
v -0.043809 0.011739 0.176840
v -0.043698 -0.008692 0.177422
v -0.043698 0.008692 0.177422
v -0.043683 -0.005751 0.166500
v -0.043683 -0.005751 0.175900
v -0.043683 -0.005751 0.177500
v -0.043683 0.005751 0.166500
v -0.043683 0.005751 0.175900
v -0.043683 0.005751 0.177500
v -0.043467 -0.011647 0.177194
v -0.043467 0.011647 0.177194
v -0.043237 -0.014677 0.166500
v -0.043237 -0.014677 0.175900
v -0.043237 0.014677 0.166500
v -0.043237 0.014677 0.175900
v -0.043213 -0.008596 0.166500
v -0.043213 -0.008596 0.175900
v -0.043213 -0.008596 0.177500
v -0.043213 0.008596 0.166500
v -0.043213 0.008596 0.175900
v -0.043213 0.008596 0.177500
v -0.043163 -0.014652 0.176394
v -0.043163 0.014652 0.176394
v -0.043036 -0.011532 0.177422
v -0.043036 0.011532 0.177422
v -0.042947 -0.014579 0.176840
v -0.042947 0.014579 0.176840
v -0.042612 -0.014465 0.177194
v -0.042612 0.014465 0.177194
v -0.042559 -0.011404 0.166500
v -0.042559 -0.011404 0.175900
v -0.042559 -0.011404 0.177500
v -0.042559 0.011404 0.166500
v -0.042559 0.011404 0.175900
v -0.042559 0.011404 0.177500
v -0.042190 -0.014322 0.177422
v -0.042190 0.014322 0.177422
v -0.042184 -0.017473 0.166500
v -0.042184 -0.017473 0.175900
v -0.042184 0.017473 0.166500
v -0.042184 0.017473 0.175900
v -0.042112 -0.017443 0.176394
v -0.042112 0.017443 0.176394
v -0.041902 -0.017356 0.176840
v -0.041902 0.017356 0.176840
v -0.041722 -0.014163 0.166500
v -0.041722 -0.014163 0.175900
v -0.041722 -0.014163 0.177500
v -0.041722 0.014163 0.166500
v -0.041722 0.014163 0.175900
v -0.041722 0.014163 0.177500
v -0.041575 -0.017221 0.177194
v -0.041575 0.017221 0.177194
v -0.041163 -0.017050 0.177422
v -0.041163 0.017050 0.177422
v -0.040951 -0.020195 0.166500
v -0.040951 -0.020195 0.175900
v -0.040951 0.020195 0.166500
v -0.040951 0.020195 0.175900
v -0.040881 -0.020160 0.176394
v -0.040881 0.020160 0.176394
v -0.040706 -0.016861 0.166500
v -0.040706 -0.016861 0.175900
v -0.040706 -0.016861 0.177500
v -0.040706 0.016861 0.166500
v -0.040706 0.016861 0.175900
v -0.040706 0.016861 0.177500
v -0.040677 -0.020060 0.176840
v -0.040677 0.020060 0.176840
v -0.040360 -0.019903 0.177194
v -0.040360 0.019903 0.177194
v -0.039960 -0.019706 0.177422
v -0.039960 0.019706 0.177422
v -0.039543 -0.022830 0.166500
v -0.039543 -0.022830 0.175900
v -0.039543 0.022830 0.166500
v -0.039543 0.022830 0.175900
v -0.039516 -0.019487 0.166500
v -0.039516 -0.019487 0.175900
v -0.039516 -0.019487 0.177500
v -0.039516 0.019487 0.166500
v -0.039516 0.019487 0.175900
v -0.039516 0.019487 0.177500
v -0.039475 -0.022791 0.176394
v -0.039475 0.022791 0.176394
v -0.039278 -0.022677 0.176840
v -0.039278 0.022677 0.176840
v -0.038972 -0.022500 0.177194
v -0.038972 0.022500 0.177194
v -0.038585 -0.022277 0.177422
v -0.038585 0.022277 0.177422
v -0.038157 -0.022030 0.166500
v -0.038157 -0.022030 0.175900
v -0.038157 -0.022030 0.177500
v -0.038157 0.022030 0.166500
v -0.038157 0.022030 0.175900
v -0.038157 0.022030 0.177500
v -0.037965 -0.025367 0.166500
v -0.037965 -0.025367 0.175900
v -0.037965 0.025367 0.166500
v -0.037965 0.025367 0.175900
v -0.037900 -0.025324 0.176394
v -0.037900 0.025324 0.176394
v -0.037711 -0.025198 0.176840
v -0.037711 0.025198 0.176840
v -0.037417 -0.025001 0.177194
v -0.037417 0.025001 0.177194
v -0.037046 -0.024753 0.177422
v -0.037046 0.024753 0.177422
v -0.036635 -0.024478 0.166500
v -0.036635 -0.024478 0.175900
v -0.036635 -0.024478 0.177500
v -0.036635 0.024478 0.166500
v -0.036635 0.024478 0.175900
v -0.036635 0.024478 0.177500
v -0.036225 -0.027796 0.166500
v -0.036225 -0.027796 0.175900
v -0.036225 0.027796 0.166500
v -0.036225 0.027796 0.175900
v -0.036162 -0.027748 0.176394
v -0.036162 0.027748 0.176394
v -0.035982 -0.027610 0.176840
v -0.035982 0.027610 0.176840
v -0.035701 -0.027395 0.177194
v -0.035701 0.027395 0.177194
v -0.035347 -0.027123 0.177422
v -0.035347 0.027123 0.177422
v -0.034955 -0.026822 0.166500
v -0.034955 -0.026822 0.175900
v -0.034955 -0.026822 0.177500
v -0.034955 0.026822 0.166500
v -0.034955 0.026822 0.175900
v -0.034955 0.026822 0.177500
v -0.034329 -0.030106 0.166500
v -0.034329 -0.030106 0.175900
v -0.034329 0.030106 0.166500
v -0.034329 0.030106 0.175900
v -0.034270 -0.030054 0.176394
v -0.034270 0.030054 0.176394
v -0.034099 -0.029904 0.176840
v -0.034099 0.029904 0.176840
v -0.033833 -0.029671 0.177194
v -0.033833 0.029671 0.177194
v -0.033498 -0.029377 0.177422
v -0.033498 0.029377 0.177422
v -0.033126 -0.029051 0.166500
v -0.033126 -0.029051 0.175900
v -0.033126 -0.029051 0.177500
v -0.033126 0.029051 0.166500
v -0.033126 0.029051 0.175900
v -0.033126 0.029051 0.177500
v -0.032286 -0.032286 0.166500
v -0.032286 -0.032286 0.175900
v -0.032286 0.032286 0.166500
v -0.032286 0.032286 0.175900
v -0.032231 -0.032231 0.176394
v -0.032231 0.032231 0.176394
v -0.032070 -0.032070 0.176840
v -0.032070 0.032070 0.176840
v -0.031820 -0.031820 0.177194
v -0.031820 0.031820 0.177194
v -0.031505 -0.031505 0.177422
v -0.031505 0.031505 0.177422
v -0.031155 -0.031155 0.166500
v -0.031155 -0.031155 0.175900
v -0.031155 -0.031155 0.177500
v -0.031155 0.031155 0.166500
v -0.031155 0.031155 0.175900
v -0.031155 0.031155 0.177500
v -0.030106 -0.034329 0.166500
v -0.030106 -0.034329 0.175900
v -0.030106 0.034329 0.166500
v -0.030106 0.034329 0.175900
v -0.030054 -0.034270 0.176394
v -0.030054 0.034270 0.176394
v -0.029904 -0.034099 0.176840
v -0.029904 0.034099 0.176840
v -0.029671 -0.033833 0.177194
v -0.029671 0.033833 0.177194
v -0.029377 -0.033498 0.177422
v -0.029377 0.033498 0.177422
v -0.029051 -0.033126 0.166500
v -0.029051 -0.033126 0.175900
v -0.029051 -0.033126 0.177500
v -0.029051 0.033126 0.166500
v -0.029051 0.033126 0.175900
v -0.029051 0.033126 0.177500
v -0.027796 -0.036225 0.166500
v -0.027796 -0.036225 0.175900
v -0.027796 0.036225 0.166500
v -0.027796 0.036225 0.175900
v -0.027748 -0.036162 0.176394
v -0.027748 0.036162 0.176394
v -0.027610 -0.035982 0.176840
v -0.027610 0.035982 0.176840
v -0.027395 -0.035701 0.177194
v -0.027395 0.035701 0.177194
v -0.027123 -0.035347 0.177422
v -0.027123 0.035347 0.177422
v -0.026822 -0.034955 0.166500
v -0.026822 -0.034955 0.175900
v -0.026822 -0.034955 0.177500
v -0.026822 0.034955 0.166500
v -0.026822 0.034955 0.175900
v -0.026822 0.034955 0.177500
v -0.025367 -0.037965 0.166500
v -0.025367 -0.037965 0.175900
v -0.025367 0.037965 0.166500
v -0.025367 0.037965 0.175900
v -0.025324 -0.037900 0.176394
v -0.025324 0.037900 0.176394
v -0.025198 -0.037711 0.176840
v -0.025198 0.037711 0.176840
v -0.025001 -0.037417 0.177194
v -0.025001 0.037417 0.177194
v -0.024753 -0.037046 0.177422
v -0.024753 0.037046 0.177422
v -0.024478 -0.036635 0.166500
v -0.024478 -0.036635 0.175900
v -0.024478 -0.036635 0.177500
v -0.024478 0.036635 0.166500
v -0.024478 0.036635 0.175900
v -0.024478 0.036635 0.177500
v -0.022830 -0.039543 0.166500
v -0.022830 -0.039543 0.175900
v -0.022830 0.039543 0.166500
v -0.022830 0.039543 0.175900
v -0.022791 -0.039475 0.176394
v -0.022791 0.039475 0.176394
v -0.022677 -0.039278 0.176840
v -0.022677 0.039278 0.176840
v -0.022500 -0.038972 0.177194
v -0.022500 0.038972 0.177194
v -0.022277 -0.038585 0.177422
v -0.022277 0.038585 0.177422
v -0.022030 -0.038157 0.166500
v -0.022030 -0.038157 0.175900
v -0.022030 -0.038157 0.177500
v -0.022030 0.038157 0.166500
v -0.022030 0.038157 0.175900
v -0.022030 0.038157 0.177500
v -0.020195 -0.040951 0.166500
v -0.020195 -0.040951 0.175900
v -0.020195 0.040951 0.166500
v -0.020195 0.040951 0.175900
v -0.020160 -0.040881 0.176394
v -0.020160 0.040881 0.176394
v -0.020060 -0.040677 0.176840
v -0.020060 0.040677 0.176840
v -0.019903 -0.040360 0.177194
v -0.019903 0.040360 0.177194
v -0.019706 -0.039960 0.177422
v -0.019706 0.039960 0.177422
v -0.019487 -0.039516 0.166500
v -0.019487 -0.039516 0.175900
v -0.019487 -0.039516 0.177500
v -0.019487 0.039516 0.166500
v -0.019487 0.039516 0.175900
v -0.019487 0.039516 0.177500
v -0.017473 -0.042184 0.166500
v -0.017473 -0.042184 0.175900
v -0.017473 0.042184 0.166500
v -0.017473 0.042184 0.175900
v -0.017443 -0.042112 0.176394
v -0.017443 0.042112 0.176394
v -0.017356 -0.041902 0.176840
v -0.017356 0.041902 0.176840
v -0.017221 -0.041575 0.177194
v -0.017221 0.041575 0.177194
v -0.017050 -0.041163 0.177422
v -0.017050 0.041163 0.177422
v -0.016861 -0.040706 0.166500
v -0.016861 -0.040706 0.175900
v -0.016861 -0.040706 0.177500
v -0.016861 0.040706 0.166500
v -0.016861 0.040706 0.175900
v -0.016861 0.040706 0.177500
v -0.014677 -0.043237 0.166500
v -0.014677 -0.043237 0.175900
v -0.014677 0.043237 0.166500
v -0.014677 0.043237 0.175900
v -0.014652 -0.043163 0.176394
v -0.014652 0.043163 0.176394
v -0.014579 -0.042947 0.176840
v -0.014579 0.042947 0.176840
v -0.014465 -0.042612 0.177194
v -0.014465 0.042612 0.177194
v -0.014322 -0.042190 0.177422
v -0.014322 0.042190 0.177422
v -0.014163 -0.041722 0.166500
v -0.014163 -0.041722 0.175900
v -0.014163 -0.041722 0.177500
v -0.014163 0.041722 0.166500
v -0.014163 0.041722 0.175900
v -0.014163 0.041722 0.177500
v -0.011818 -0.044104 0.166500
v -0.011818 -0.044104 0.175900
v -0.011818 0.044104 0.166500
v -0.011818 0.044104 0.175900
v -0.011797 -0.044029 0.176394
v -0.011797 0.044029 0.176394
v -0.011739 -0.043809 0.176840
v -0.011739 0.043809 0.176840
v -0.011647 -0.043467 0.177194
v -0.011647 0.043467 0.177194
v -0.011532 -0.043036 0.177422
v -0.011532 0.043036 0.177422
v -0.011404 -0.042559 0.166500
v -0.011404 -0.042559 0.175900
v -0.011404 -0.042559 0.177500
v -0.011404 0.042559 0.166500
v -0.011404 0.042559 0.175900
v -0.011404 0.042559 0.177500
v -0.008908 -0.044783 0.166500
v -0.008908 -0.044783 0.175900
v -0.008908 0.044783 0.166500
v -0.008908 0.044783 0.175900
v -0.008893 -0.044706 0.176394
v -0.008893 0.044706 0.176394
v -0.008848 -0.044483 0.176840
v -0.008848 0.044483 0.176840
v -0.008779 -0.044136 0.177194
v -0.008779 0.044136 0.177194
v -0.008692 -0.043698 0.177422
v -0.008692 0.043698 0.177422
v -0.008596 -0.043213 0.166500
v -0.008596 -0.043213 0.175900
v -0.008596 -0.043213 0.177500
v -0.008596 0.043213 0.166500
v -0.008596 0.043213 0.175900
v -0.008596 0.043213 0.177500
v -0.005960 -0.045269 0.166500
v -0.005960 -0.045269 0.175900
v -0.005960 0.045269 0.166500
v -0.005960 0.045269 0.175900
v -0.005950 -0.045192 0.176394
v -0.005950 0.045192 0.176394
v -0.005920 -0.044966 0.176840
v -0.005920 0.044966 0.176840
v -0.005874 -0.044615 0.177194
v -0.005874 0.044615 0.177194
v -0.005816 -0.044173 0.177422
v -0.005816 0.044173 0.177422
v -0.005751 -0.043683 0.166500
v -0.005751 -0.043683 0.175900
v -0.005751 -0.043683 0.177500
v -0.005751 0.043683 0.166500
v -0.005751 0.043683 0.175900
v -0.005751 0.043683 0.177500
v -0.002986 -0.045562 0.166500
v -0.002986 -0.045562 0.175900
v -0.002986 0.045562 0.166500
v -0.002986 0.045562 0.175900
v -0.002981 -0.045484 0.176394
v -0.002981 0.045484 0.176394
v -0.002966 -0.045257 0.176840
v -0.002966 0.045257 0.176840
v -0.002943 -0.044904 0.177194
v -0.002943 0.044904 0.177194
v -0.002914 -0.044459 0.177422
v -0.002914 0.044459 0.177422
v -0.002882 -0.043966 0.166500
v -0.002882 -0.043966 0.175900
v -0.002882 -0.043966 0.177500
v -0.002882 0.043966 0.166500
v -0.002882 0.043966 0.175900
v -0.002882 0.043966 0.177500
v -0.000000 -0.045660 0.166500
v -0.000000 -0.045660 0.175900
v -0.000000 -0.045582 0.176394
v -0.000000 -0.045354 0.176840
v -0.000000 -0.045000 0.177194
v -0.000000 -0.044554 0.177422
v -0.000000 -0.044060 0.166500
v -0.000000 -0.044060 0.175900
v -0.000000 -0.044060 0.177500
v 0.000000 0.000000 0.175900
v 0.000000 0.000000 0.177500
v 0.000000 0.044060 0.166500
v 0.000000 0.044060 0.175900
v 0.000000 0.044060 0.177500
v 0.000000 0.044554 0.177422
v 0.000000 0.045000 0.177194
v 0.000000 0.045354 0.176840
v 0.000000 0.045582 0.176394
v 0.000000 0.045660 0.166500
v 0.000000 0.045660 0.175900
v 0.002882 -0.043966 0.166500
v 0.002882 -0.043966 0.175900
v 0.002882 -0.043966 0.177500
v 0.002882 0.043966 0.166500
v 0.002882 0.043966 0.175900
v 0.002882 0.043966 0.177500
v 0.002914 -0.044459 0.177422
v 0.002914 0.044459 0.177422
v 0.002943 -0.044904 0.177194
v 0.002943 0.044904 0.177194
v 0.002966 -0.045257 0.176840
v 0.002966 0.045257 0.176840
v 0.002981 -0.045484 0.176394
v 0.002981 0.045484 0.176394
v 0.002986 -0.045562 0.166500
v 0.002986 -0.045562 0.175900
v 0.002986 0.045562 0.166500
v 0.002986 0.045562 0.175900
v 0.005751 -0.043683 0.166500
v 0.005751 -0.043683 0.175900
v 0.005751 -0.043683 0.177500
v 0.005751 0.043683 0.166500
v 0.005751 0.043683 0.175900
v 0.005751 0.043683 0.177500
v 0.005816 -0.044173 0.177422
v 0.005816 0.044173 0.177422
v 0.005874 -0.044615 0.177194
v 0.005874 0.044615 0.177194
v 0.005920 -0.044966 0.176840
v 0.005920 0.044966 0.176840
v 0.005950 -0.045192 0.176394
v 0.005950 0.045192 0.176394
v 0.005960 -0.045269 0.166500
v 0.005960 -0.045269 0.175900
v 0.005960 0.045269 0.166500
v 0.005960 0.045269 0.175900
v 0.008596 -0.043213 0.166500
v 0.008596 -0.043213 0.175900
v 0.008596 -0.043213 0.177500
v 0.008596 0.043213 0.166500
v 0.008596 0.043213 0.175900
v 0.008596 0.043213 0.177500
v 0.008692 -0.043698 0.177422
v 0.008692 0.043698 0.177422
v 0.008779 -0.044136 0.177194
v 0.008779 0.044136 0.177194
v 0.008848 -0.044483 0.176840
v 0.008848 0.044483 0.176840
v 0.008893 -0.044706 0.176394
v 0.008893 0.044706 0.176394
v 0.008908 -0.044783 0.166500
v 0.008908 -0.044783 0.175900
v 0.008908 0.044783 0.166500
v 0.008908 0.044783 0.175900
v 0.011404 -0.042559 0.166500
v 0.011404 -0.042559 0.175900
v 0.011404 -0.042559 0.177500
v 0.011404 0.042559 0.166500
v 0.011404 0.042559 0.175900
v 0.011404 0.042559 0.177500
v 0.011532 -0.043036 0.177422
v 0.011532 0.043036 0.177422
v 0.011647 -0.043467 0.177194
v 0.011647 0.043467 0.177194
v 0.011739 -0.043809 0.176840
v 0.011739 0.043809 0.176840
v 0.011797 -0.044029 0.176394
v 0.011797 0.044029 0.176394
v 0.011818 -0.044104 0.166500
v 0.011818 -0.044104 0.175900
v 0.011818 0.044104 0.166500
v 0.011818 0.044104 0.175900
v 0.014163 -0.041722 0.166500
v 0.014163 -0.041722 0.175900
v 0.014163 -0.041722 0.177500
v 0.014163 0.041722 0.166500
v 0.014163 0.041722 0.175900
v 0.014163 0.041722 0.177500
v 0.014322 -0.042190 0.177422
v 0.014322 0.042190 0.177422
v 0.014465 -0.042612 0.177194
v 0.014465 0.042612 0.177194
v 0.014579 -0.042947 0.176840
v 0.014579 0.042947 0.176840
v 0.014652 -0.043163 0.176394
v 0.014652 0.043163 0.176394
v 0.014677 -0.043237 0.166500
v 0.014677 -0.043237 0.175900
v 0.014677 0.043237 0.166500
v 0.014677 0.043237 0.175900
v 0.016861 -0.040706 0.166500
v 0.016861 -0.040706 0.175900
v 0.016861 -0.040706 0.177500
v 0.016861 0.040706 0.166500
v 0.016861 0.040706 0.175900
v 0.016861 0.040706 0.177500
v 0.017050 -0.041163 0.177422
v 0.017050 0.041163 0.177422
v 0.017221 -0.041575 0.177194
v 0.017221 0.041575 0.177194
v 0.017356 -0.041902 0.176840
v 0.017356 0.041902 0.176840
v 0.017443 -0.042112 0.176394
v 0.017443 0.042112 0.176394
v 0.017473 -0.042184 0.166500
v 0.017473 -0.042184 0.175900
v 0.017473 0.042184 0.166500
v 0.017473 0.042184 0.175900
v 0.019487 -0.039516 0.166500
v 0.019487 -0.039516 0.175900
v 0.019487 -0.039516 0.177500
v 0.019487 0.039516 0.166500
v 0.019487 0.039516 0.175900
v 0.019487 0.039516 0.177500
v 0.019706 -0.039960 0.177422
v 0.019706 0.039960 0.177422
v 0.019903 -0.040360 0.177194
v 0.019903 0.040360 0.177194
v 0.020060 -0.040677 0.176840
v 0.020060 0.040677 0.176840
v 0.020160 -0.040881 0.176394
v 0.020160 0.040881 0.176394
v 0.020195 -0.040951 0.166500
v 0.020195 -0.040951 0.175900
v 0.020195 0.040951 0.166500
v 0.020195 0.040951 0.175900
v 0.022030 -0.038157 0.166500
v 0.022030 -0.038157 0.175900
v 0.022030 -0.038157 0.177500
v 0.022030 0.038157 0.166500
v 0.022030 0.038157 0.175900
v 0.022030 0.038157 0.177500
v 0.022277 -0.038585 0.177422
v 0.022277 0.038585 0.177422
v 0.022500 -0.038972 0.177194
v 0.022500 0.038972 0.177194
v 0.022677 -0.039278 0.176840
v 0.022677 0.039278 0.176840
v 0.022791 -0.039475 0.176394
v 0.022791 0.039475 0.176394
v 0.022830 -0.039543 0.166500
v 0.022830 -0.039543 0.175900
v 0.022830 0.039543 0.166500
v 0.022830 0.039543 0.175900
v 0.024478 -0.036635 0.166500
v 0.024478 -0.036635 0.175900
v 0.024478 -0.036635 0.177500
v 0.024478 0.036635 0.166500
v 0.024478 0.036635 0.175900
v 0.024478 0.036635 0.177500
v 0.024753 -0.037046 0.177422
v 0.024753 0.037046 0.177422
v 0.025001 -0.037417 0.177194
v 0.025001 0.037417 0.177194
v 0.025198 -0.037711 0.176840
v 0.025198 0.037711 0.176840
v 0.025324 -0.037900 0.176394
v 0.025324 0.037900 0.176394
v 0.025367 -0.037965 0.166500
v 0.025367 -0.037965 0.175900
v 0.025367 0.037965 0.166500
v 0.025367 0.037965 0.175900
v 0.026822 -0.034955 0.166500
v 0.026822 -0.034955 0.175900
v 0.026822 -0.034955 0.177500
v 0.026822 0.034955 0.166500
v 0.026822 0.034955 0.175900
v 0.026822 0.034955 0.177500
v 0.027123 -0.035347 0.177422
v 0.027123 0.035347 0.177422
v 0.027395 -0.035701 0.177194
v 0.027395 0.035701 0.177194
v 0.027610 -0.035982 0.176840
v 0.027610 0.035982 0.176840
v 0.027748 -0.036162 0.176394
v 0.027748 0.036162 0.176394
v 0.027796 -0.036225 0.166500
v 0.027796 -0.036225 0.175900
v 0.027796 0.036225 0.166500
v 0.027796 0.036225 0.175900
v 0.029051 -0.033126 0.166500
v 0.029051 -0.033126 0.175900
v 0.029051 -0.033126 0.177500
v 0.029051 0.033126 0.166500
v 0.029051 0.033126 0.175900
v 0.029051 0.033126 0.177500
v 0.029377 -0.033498 0.177422
v 0.029377 0.033498 0.177422
v 0.029671 -0.033833 0.177194
v 0.029671 0.033833 0.177194
v 0.029904 -0.034099 0.176840
v 0.029904 0.034099 0.176840
v 0.030054 -0.034270 0.176394
v 0.030054 0.034270 0.176394
v 0.030106 -0.034329 0.166500
v 0.030106 -0.034329 0.175900
v 0.030106 0.034329 0.166500
v 0.030106 0.034329 0.175900
v 0.031155 -0.031155 0.166500
v 0.031155 -0.031155 0.175900
v 0.031155 -0.031155 0.177500
v 0.031155 0.031155 0.166500
v 0.031155 0.031155 0.175900
v 0.031155 0.031155 0.177500
v 0.031505 -0.031505 0.177422
v 0.031505 0.031505 0.177422
v 0.031820 -0.031820 0.177194
v 0.031820 0.031820 0.177194
v 0.032070 -0.032070 0.176840
v 0.032070 0.032070 0.176840
v 0.032231 -0.032231 0.176394
v 0.032231 0.032231 0.176394
v 0.032286 -0.032286 0.166500
v 0.032286 -0.032286 0.175900
v 0.032286 0.032286 0.166500
v 0.032286 0.032286 0.175900
v 0.033126 -0.029051 0.166500
v 0.033126 -0.029051 0.175900
v 0.033126 -0.029051 0.177500
v 0.033126 0.029051 0.166500
v 0.033126 0.029051 0.175900
v 0.033126 0.029051 0.177500
v 0.033498 -0.029377 0.177422
v 0.033498 0.029377 0.177422
v 0.033833 -0.029671 0.177194
v 0.033833 0.029671 0.177194
v 0.034099 -0.029904 0.176840
v 0.034099 0.029904 0.176840
v 0.034270 -0.030054 0.176394
v 0.034270 0.030054 0.176394
v 0.034329 -0.030106 0.166500
v 0.034329 -0.030106 0.175900
v 0.034329 0.030106 0.166500
v 0.034329 0.030106 0.175900
v 0.034955 -0.026822 0.166500
v 0.034955 -0.026822 0.175900
v 0.034955 -0.026822 0.177500
v 0.034955 0.026822 0.166500
v 0.034955 0.026822 0.175900
v 0.034955 0.026822 0.177500
v 0.035347 -0.027123 0.177422
v 0.035347 0.027123 0.177422
v 0.035701 -0.027395 0.177194
v 0.035701 0.027395 0.177194
v 0.035982 -0.027610 0.176840
v 0.035982 0.027610 0.176840
v 0.036162 -0.027748 0.176394
v 0.036162 0.027748 0.176394
v 0.036225 -0.027796 0.166500
v 0.036225 -0.027796 0.175900
v 0.036225 0.027796 0.166500
v 0.036225 0.027796 0.175900
v 0.036635 -0.024478 0.166500
v 0.036635 -0.024478 0.175900
v 0.036635 -0.024478 0.177500
v 0.036635 0.024478 0.166500
v 0.036635 0.024478 0.175900
v 0.036635 0.024478 0.177500
v 0.037046 -0.024753 0.177422
v 0.037046 0.024753 0.177422
v 0.037417 -0.025001 0.177194
v 0.037417 0.025001 0.177194
v 0.037711 -0.025198 0.176840
v 0.037711 0.025198 0.176840
v 0.037900 -0.025324 0.176394
v 0.037900 0.025324 0.176394
v 0.037965 -0.025367 0.166500
v 0.037965 -0.025367 0.175900
v 0.037965 0.025367 0.166500
v 0.037965 0.025367 0.175900
v 0.038157 -0.022030 0.166500
v 0.038157 -0.022030 0.175900
v 0.038157 -0.022030 0.177500
v 0.038157 0.022030 0.166500
v 0.038157 0.022030 0.175900
v 0.038157 0.022030 0.177500
v 0.038585 -0.022277 0.177422
v 0.038585 0.022277 0.177422
v 0.038972 -0.022500 0.177194
v 0.038972 0.022500 0.177194
v 0.039278 -0.022677 0.176840
v 0.039278 0.022677 0.176840
v 0.039475 -0.022791 0.176394
v 0.039475 0.022791 0.176394
v 0.039516 -0.019487 0.166500
v 0.039516 -0.019487 0.175900
v 0.039516 -0.019487 0.177500
v 0.039516 0.019487 0.166500
v 0.039516 0.019487 0.175900
v 0.039516 0.019487 0.177500
v 0.039543 -0.022830 0.166500
v 0.039543 -0.022830 0.175900
v 0.039543 0.022830 0.166500
v 0.039543 0.022830 0.175900
v 0.039960 -0.019706 0.177422
v 0.039960 0.019706 0.177422
v 0.040360 -0.019903 0.177194
v 0.040360 0.019903 0.177194
v 0.040677 -0.020060 0.176840
v 0.040677 0.020060 0.176840
v 0.040706 -0.016861 0.166500
v 0.040706 -0.016861 0.175900
v 0.040706 -0.016861 0.177500
v 0.040706 0.016861 0.166500
v 0.040706 0.016861 0.175900
v 0.040706 0.016861 0.177500
v 0.040881 -0.020160 0.176394
v 0.040881 0.020160 0.176394
v 0.040951 -0.020195 0.166500
v 0.040951 -0.020195 0.175900
v 0.040951 0.020195 0.166500
v 0.040951 0.020195 0.175900
v 0.041163 -0.017050 0.177422
v 0.041163 0.017050 0.177422
v 0.041575 -0.017221 0.177194
v 0.041575 0.017221 0.177194
v 0.041722 -0.014163 0.166500
v 0.041722 -0.014163 0.175900
v 0.041722 -0.014163 0.177500
v 0.041722 0.014163 0.166500
v 0.041722 0.014163 0.175900
v 0.041722 0.014163 0.177500
v 0.041902 -0.017356 0.176840
v 0.041902 0.017356 0.176840
v 0.042112 -0.017443 0.176394
v 0.042112 0.017443 0.176394
v 0.042184 -0.017473 0.166500
v 0.042184 -0.017473 0.175900
v 0.042184 0.017473 0.166500
v 0.042184 0.017473 0.175900
v 0.042190 -0.014322 0.177422
v 0.042190 0.014322 0.177422
v 0.042559 -0.011404 0.166500
v 0.042559 -0.011404 0.175900
v 0.042559 -0.011404 0.177500
v 0.042559 0.011404 0.166500
v 0.042559 0.011404 0.175900
v 0.042559 0.011404 0.177500
v 0.042612 -0.014465 0.177194
v 0.042612 0.014465 0.177194
v 0.042947 -0.014579 0.176840
v 0.042947 0.014579 0.176840
v 0.043036 -0.011532 0.177422
v 0.043036 0.011532 0.177422
v 0.043163 -0.014652 0.176394
v 0.043163 0.014652 0.176394
v 0.043213 -0.008596 0.166500
v 0.043213 -0.008596 0.175900
v 0.043213 -0.008596 0.177500
v 0.043213 0.008596 0.166500
v 0.043213 0.008596 0.175900
v 0.043213 0.008596 0.177500
v 0.043237 -0.014677 0.166500
v 0.043237 -0.014677 0.175900
v 0.043237 0.014677 0.166500
v 0.043237 0.014677 0.175900
v 0.043467 -0.011647 0.177194
v 0.043467 0.011647 0.177194
v 0.043683 -0.005751 0.166500
v 0.043683 -0.005751 0.175900
v 0.043683 -0.005751 0.177500
v 0.043683 0.005751 0.166500
v 0.043683 0.005751 0.175900
v 0.043683 0.005751 0.177500
v 0.043698 -0.008692 0.177422
v 0.043698 0.008692 0.177422
v 0.043809 -0.011739 0.176840
v 0.043809 0.011739 0.176840
v 0.043966 -0.002882 0.166500
v 0.043966 -0.002882 0.175900
v 0.043966 -0.002882 0.177500
v 0.043966 0.002882 0.166500
v 0.043966 0.002882 0.175900
v 0.043966 0.002882 0.177500
v 0.044029 -0.011797 0.176394
v 0.044029 0.011797 0.176394
v 0.044060 0.000000 0.166500
v 0.044060 0.000000 0.175900
v 0.044060 0.000000 0.177500
v 0.044104 -0.011818 0.166500
v 0.044104 -0.011818 0.175900
v 0.044104 0.011818 0.166500
v 0.044104 0.011818 0.175900
v 0.044136 -0.008779 0.177194
v 0.044136 0.008779 0.177194
v 0.044173 -0.005816 0.177422
v 0.044173 0.005816 0.177422
v 0.044459 -0.002914 0.177422
v 0.044459 0.002914 0.177422
v 0.044483 -0.008848 0.176840
v 0.044483 0.008848 0.176840
v 0.044554 0.000000 0.177422
v 0.044615 -0.005874 0.177194
v 0.044615 0.005874 0.177194
v 0.044706 -0.008893 0.176394
v 0.044706 0.008893 0.176394
v 0.044783 -0.008908 0.166500
v 0.044783 -0.008908 0.175900
v 0.044783 0.008908 0.166500
v 0.044783 0.008908 0.175900
v 0.044904 -0.002943 0.177194
v 0.044904 0.002943 0.177194
v 0.044966 -0.005920 0.176840
v 0.044966 0.005920 0.176840
v 0.045000 0.000000 0.177194
v 0.045192 -0.005950 0.176394
v 0.045192 0.005950 0.176394
v 0.045257 -0.002966 0.176840
v 0.045257 0.002966 0.176840
v 0.045269 -0.005960 0.166500
v 0.045269 -0.005960 0.175900
v 0.045269 0.005960 0.166500
v 0.045269 0.005960 0.175900
v 0.045354 0.000000 0.176840
v 0.045484 -0.002981 0.176394
v 0.045484 0.002981 0.176394
v 0.045562 -0.002986 0.166500
v 0.045562 -0.002986 0.175900
v 0.045562 0.002986 0.166500
v 0.045562 0.002986 0.175900
v 0.045582 0.000000 0.176394
v 0.045660 0.000000 0.166500
v 0.045660 0.000000 0.175900
f 434 822 817
f 822 835 832
f 822 832 817
f 835 848 845
f 835 845 832
f 848 857 852
f 848 852 845
f 857 864 859
f 857 859 852
f 864 866 863
f 864 863 859
f 866 865 862
f 866 862 863
f 865 820 815
f 865 815 862
f 820 821 816
f 820 816 815
f 821 433 816
f 434 817 807
f 817 832 830
f 817 830 807
f 832 845 837
f 832 837 830
f 845 852 847
f 845 847 837
f 852 859 850
f 852 850 847
f 859 863 856
f 859 856 850
f 863 862 855
f 863 855 856
f 862 815 805
f 862 805 855
f 815 816 806
f 815 806 805
f 816 433 806
f 434 807 795
f 807 830 809
f 807 809 795
f 830 837 828
f 830 828 809
f 837 847 834
f 837 834 828
f 847 850 839
f 847 839 834
f 850 856 843
f 850 843 839
f 856 855 842
f 856 842 843
f 855 805 793
f 855 793 842
f 805 806 794
f 805 794 793
f 806 433 794
f 434 795 781
f 795 809 787
f 795 787 781
f 809 828 801
f 809 801 787
f 828 834 811
f 828 811 801
f 834 839 819
f 834 819 811
f 839 843 826
f 839 826 819
f 843 842 825
f 843 825 826
f 842 793 779
f 842 779 825
f 793 794 780
f 793 780 779
f 794 433 780
f 434 781 765
f 781 787 775
f 781 775 765
f 787 801 783
f 787 783 775
f 801 811 785
f 801 785 783
f 811 819 789
f 811 789 785
f 819 826 799
f 819 799 789
f 826 825 798
f 826 798 799
f 825 779 763
f 825 763 798
f 779 780 764
f 779 764 763
f 780 433 764
f 434 765 749
f 765 775 757
f 765 757 749
f 775 783 759
f 775 759 757
f 783 785 767
f 783 767 759
f 785 789 769
f 785 769 767
f 789 799 773
f 789 773 769
f 799 798 772
f 799 772 773
f 798 763 747
f 798 747 772
f 763 764 748
f 763 748 747
f 764 433 748
f 434 749 733
f 749 757 739
f 749 739 733
f 757 759 741
f 757 741 739
f 759 767 743
f 759 743 741
f 767 769 751
f 767 751 743
f 769 773 755
f 769 755 751
f 773 772 754
f 773 754 755
f 772 747 731
f 772 731 754
f 747 748 732
f 747 732 731
f 748 433 732
f 434 733 719
f 733 739 721
f 733 721 719
f 739 741 723
f 739 723 721
f 741 743 725
f 741 725 723
f 743 751 727
f 743 727 725
f 751 755 737
f 751 737 727
f 755 754 736
f 755 736 737
f 754 731 717
f 754 717 736
f 731 732 718
f 731 718 717
f 732 433 718
f 434 719 701
f 719 721 703
f 719 703 701
f 721 723 705
f 721 705 703
f 723 725 707
f 723 707 705
f 725 727 709
f 725 709 707
f 727 737 713
f 727 713 709
f 737 736 712
f 737 712 713
f 736 717 699
f 736 699 712
f 717 718 700
f 717 700 699
f 718 433 700
f 434 701 683
f 701 703 685
f 701 685 683
f 703 705 687
f 703 687 685
f 705 707 689
f 705 689 687
f 707 709 691
f 707 691 689
f 709 713 695
f 709 695 691
f 713 712 694
f 713 694 695
f 712 699 681
f 712 681 694
f 699 700 682
f 699 682 681
f 700 433 682
f 434 683 665
f 683 685 667
f 683 667 665
f 685 687 669
f 685 669 667
f 687 689 671
f 687 671 669
f 689 691 673
f 689 673 671
f 691 695 677
f 691 677 673
f 695 694 676
f 695 676 677
f 694 681 663
f 694 663 676
f 681 682 664
f 681 664 663
f 682 433 664
f 434 665 647
f 665 667 649
f 665 649 647
f 667 669 651
f 667 651 649
f 669 671 653
f 669 653 651
f 671 673 655
f 671 655 653
f 673 677 659
f 673 659 655
f 677 676 658
f 677 658 659
f 676 663 645
f 676 645 658
f 663 664 646
f 663 646 645
f 664 433 646
f 434 647 629
f 647 649 631
f 647 631 629
f 649 651 633
f 649 633 631
f 651 653 635
f 651 635 633
f 653 655 637
f 653 637 635
f 655 659 641
f 655 641 637
f 659 658 640
f 659 640 641
f 658 645 627
f 658 627 640
f 645 646 628
f 645 628 627
f 646 433 628
f 434 629 611
f 629 631 613
f 629 613 611
f 631 633 615
f 631 615 613
f 633 635 617
f 633 617 615
f 635 637 619
f 635 619 617
f 637 641 623
f 637 623 619
f 641 640 622
f 641 622 623
f 640 627 609
f 640 609 622
f 627 628 610
f 627 610 609
f 628 433 610
f 434 611 593
f 611 613 595
f 611 595 593
f 613 615 597
f 613 597 595
f 615 617 599
f 615 599 597
f 617 619 601
f 617 601 599
f 619 623 605
f 619 605 601
f 623 622 604
f 623 604 605
f 622 609 591
f 622 591 604
f 609 610 592
f 609 592 591
f 610 433 592
f 434 593 575
f 593 595 577
f 593 577 575
f 595 597 579
f 595 579 577
f 597 599 581
f 597 581 579
f 599 601 583
f 599 583 581
f 601 605 587
f 601 587 583
f 605 604 586
f 605 586 587
f 604 591 573
f 604 573 586
f 591 592 574
f 591 574 573
f 592 433 574
f 434 575 557
f 575 577 559
f 575 559 557
f 577 579 561
f 577 561 559
f 579 581 563
f 579 563 561
f 581 583 565
f 581 565 563
f 583 587 569
f 583 569 565
f 587 586 568
f 587 568 569
f 586 573 555
f 586 555 568
f 573 574 556
f 573 556 555
f 574 433 556
f 434 557 539
f 557 559 541
f 557 541 539
f 559 561 543
f 559 543 541
f 561 563 545
f 561 545 543
f 563 565 547
f 563 547 545
f 565 569 551
f 565 551 547
f 569 568 550
f 569 550 551
f 568 555 537
f 568 537 550
f 555 556 538
f 555 538 537
f 556 433 538
f 434 539 521
f 539 541 523
f 539 523 521
f 541 543 525
f 541 525 523
f 543 545 527
f 543 527 525
f 545 547 529
f 545 529 527
f 547 551 533
f 547 533 529
f 551 550 532
f 551 532 533
f 550 537 519
f 550 519 532
f 537 538 520
f 537 520 519
f 538 433 520
f 434 521 503
f 521 523 505
f 521 505 503
f 523 525 507
f 523 507 505
f 525 527 509
f 525 509 507
f 527 529 511
f 527 511 509
f 529 533 515
f 529 515 511
f 533 532 514
f 533 514 515
f 532 519 501
f 532 501 514
f 519 520 502
f 519 502 501
f 520 433 502
f 434 503 485
f 503 505 487
f 503 487 485
f 505 507 489
f 505 489 487
f 507 509 491
f 507 491 489
f 509 511 493
f 509 493 491
f 511 515 497
f 511 497 493
f 515 514 496
f 515 496 497
f 514 501 483
f 514 483 496
f 501 502 484
f 501 484 483
f 502 433 484
f 434 485 467
f 485 487 469
f 485 469 467
f 487 489 471
f 487 471 469
f 489 491 473
f 489 473 471
f 491 493 475
f 491 475 473
f 493 497 479
f 493 479 475
f 497 496 478
f 497 478 479
f 496 483 465
f 496 465 478
f 483 484 466
f 483 466 465
f 484 433 466
f 434 467 449
f 467 469 451
f 467 451 449
f 469 471 453
f 469 453 451
f 471 473 455
f 471 455 453
f 473 475 457
f 473 457 455
f 475 479 461
f 475 461 457
f 479 478 460
f 479 460 461
f 478 465 447
f 478 447 460
f 465 466 448
f 465 448 447
f 466 433 448
f 434 449 437
f 449 451 438
f 449 438 437
f 451 453 439
f 451 439 438
f 453 455 440
f 453 440 439
f 455 457 441
f 455 441 440
f 457 461 443
f 457 443 441
f 461 460 442
f 461 442 443
f 460 447 435
f 460 435 442
f 447 448 436
f 447 436 435
f 448 433 436
f 434 437 423
f 437 438 417
f 437 417 423
f 438 439 415
f 438 415 417
f 439 440 413
f 439 413 415
f 440 441 411
f 440 411 413
f 441 443 409
f 441 409 411
f 443 442 408
f 443 408 409
f 442 435 421
f 442 421 408
f 435 436 422
f 435 422 421
f 436 433 422
f 434 423 405
f 423 417 399
f 423 399 405
f 417 415 397
f 417 397 399
f 415 413 395
f 415 395 397
f 413 411 393
f 413 393 395
f 411 409 391
f 411 391 393
f 409 408 390
f 409 390 391
f 408 421 403
f 408 403 390
f 421 422 404
f 421 404 403
f 422 433 404
f 434 405 387
f 405 399 381
f 405 381 387
f 399 397 379
f 399 379 381
f 397 395 377
f 397 377 379
f 395 393 375
f 395 375 377
f 393 391 373
f 393 373 375
f 391 390 372
f 391 372 373
f 390 403 385
f 390 385 372
f 403 404 386
f 403 386 385
f 404 433 386
f 434 387 369
f 387 381 363
f 387 363 369
f 381 379 361
f 381 361 363
f 379 377 359
f 379 359 361
f 377 375 357
f 377 357 359
f 375 373 355
f 375 355 357
f 373 372 354
f 373 354 355
f 372 385 367
f 372 367 354
f 385 386 368
f 385 368 367
f 386 433 368
f 434 369 351
f 369 363 345
f 369 345 351
f 363 361 343
f 363 343 345
f 361 359 341
f 361 341 343
f 359 357 339
f 359 339 341
f 357 355 337
f 357 337 339
f 355 354 336
f 355 336 337
f 354 367 349
f 354 349 336
f 367 368 350
f 367 350 349
f 368 433 350
f 434 351 333
f 351 345 327
f 351 327 333
f 345 343 325
f 345 325 327
f 343 341 323
f 343 323 325
f 341 339 321
f 341 321 323
f 339 337 319
f 339 319 321
f 337 336 318
f 337 318 319
f 336 349 331
f 336 331 318
f 349 350 332
f 349 332 331
f 350 433 332
f 434 333 315
f 333 327 309
f 333 309 315
f 327 325 307
f 327 307 309
f 325 323 305
f 325 305 307
f 323 321 303
f 323 303 305
f 321 319 301
f 321 301 303
f 319 318 300
f 319 300 301
f 318 331 313
f 318 313 300
f 331 332 314
f 331 314 313
f 332 433 314
f 434 315 297
f 315 309 291
f 315 291 297
f 309 307 289
f 309 289 291
f 307 305 287
f 307 287 289
f 305 303 285
f 305 285 287
f 303 301 283
f 303 283 285
f 301 300 282
f 301 282 283
f 300 313 295
f 300 295 282
f 313 314 296
f 313 296 295
f 314 433 296
f 434 297 279
f 297 291 273
f 297 273 279
f 291 289 271
f 291 271 273
f 289 287 269
f 289 269 271
f 287 285 267
f 287 267 269
f 285 283 265
f 285 265 267
f 283 282 264
f 283 264 265
f 282 295 277
f 282 277 264
f 295 296 278
f 295 278 277
f 296 433 278
f 434 279 261
f 279 273 255
f 279 255 261
f 273 271 253
f 273 253 255
f 271 269 251
f 271 251 253
f 269 267 249
f 269 249 251
f 267 265 247
f 267 247 249
f 265 264 246
f 265 246 247
f 264 277 259
f 264 259 246
f 277 278 260
f 277 260 259
f 278 433 260
f 434 261 243
f 261 255 237
f 261 237 243
f 255 253 235
f 255 235 237
f 253 251 233
f 253 233 235
f 251 249 231
f 251 231 233
f 249 247 229
f 249 229 231
f 247 246 228
f 247 228 229
f 246 259 241
f 246 241 228
f 259 260 242
f 259 242 241
f 260 433 242
f 434 243 225
f 243 237 219
f 243 219 225
f 237 235 217
f 237 217 219
f 235 233 215
f 235 215 217
f 233 231 213
f 233 213 215
f 231 229 211
f 231 211 213
f 229 228 210
f 229 210 211
f 228 241 223
f 228 223 210
f 241 242 224
f 241 224 223
f 242 433 224
f 434 225 207
f 225 219 201
f 225 201 207
f 219 217 199
f 219 199 201
f 217 215 197
f 217 197 199
f 215 213 195
f 215 195 197
f 213 211 193
f 213 193 195
f 211 210 192
f 211 192 193
f 210 223 205
f 210 205 192
f 223 224 206
f 223 206 205
f 224 433 206
f 434 207 189
f 207 201 183
f 207 183 189
f 201 199 181
f 201 181 183
f 199 197 179
f 199 179 181
f 197 195 177
f 197 177 179
f 195 193 175
f 195 175 177
f 193 192 174
f 193 174 175
f 192 205 187
f 192 187 174
f 205 206 188
f 205 188 187
f 206 433 188
f 434 189 171
f 189 183 165
f 189 165 171
f 183 181 163
f 183 163 165
f 181 179 161
f 181 161 163
f 179 177 159
f 179 159 161
f 177 175 157
f 177 157 159
f 175 174 156
f 175 156 157
f 174 187 169
f 174 169 156
f 187 188 170
f 187 170 169
f 188 433 170
f 434 171 153
f 171 165 147
f 171 147 153
f 165 163 145
f 165 145 147
f 163 161 143
f 163 143 145
f 161 159 141
f 161 141 143
f 159 157 133
f 159 133 141
f 157 156 132
f 157 132 133
f 156 169 151
f 156 151 132
f 169 170 152
f 169 152 151
f 170 433 152
f 434 153 139
f 153 147 129
f 153 129 139
f 147 145 127
f 147 127 129
f 145 143 125
f 145 125 127
f 143 141 117
f 143 117 125
f 141 133 115
f 141 115 117
f 133 132 114
f 133 114 115
f 132 151 137
f 132 137 114
f 151 152 138
f 151 138 137
f 152 433 138
f 434 139 123
f 139 129 111
f 139 111 123
f 129 127 109
f 129 109 111
f 127 125 101
f 127 101 109
f 125 117 99
f 125 99 101
f 117 115 97
f 117 97 99
f 115 114 96
f 115 96 97
f 114 137 121
f 114 121 96
f 137 138 122
f 137 122 121
f 138 433 122
f 434 123 107
f 123 111 93
f 123 93 107
f 111 109 85
f 111 85 93
f 109 101 83
f 109 83 85
f 101 99 79
f 101 79 83
f 99 97 71
f 99 71 79
f 97 96 70
f 97 70 71
f 96 121 105
f 96 105 70
f 121 122 106
f 121 106 105
f 122 433 106
f 434 107 91
f 107 93 81
f 107 81 91
f 93 85 67
f 93 67 81
f 85 83 57
f 85 57 67
f 83 79 49
f 83 49 57
f 79 71 44
f 79 44 49
f 71 70 43
f 71 43 44
f 70 105 89
f 70 89 43
f 105 106 90
f 105 90 89
f 106 433 90
f 434 91 77
f 91 81 59
f 91 59 77
f 81 67 40
f 81 40 59
f 67 57 34
f 67 34 40
f 57 49 29
f 57 29 34
f 49 44 27
f 49 27 29
f 44 43 26
f 44 26 27
f 43 89 75
f 43 75 26
f 89 90 76
f 89 76 75
f 90 433 76
f 434 77 65
f 77 59 38
f 77 38 65
f 59 40 31
f 59 31 38
f 40 34 21
f 40 21 31
f 34 29 18
f 34 18 21
f 29 27 14
f 29 14 18
f 27 26 13
f 27 13 14
f 26 75 63
f 26 63 13
f 75 76 64
f 75 64 63
f 76 433 64
f 434 65 55
f 65 38 36
f 65 36 55
f 38 31 23
f 38 23 36
f 31 21 16
f 31 16 23
f 21 18 9
f 21 9 16
f 18 14 7
f 18 7 9
f 14 13 6
f 14 6 7
f 13 63 53
f 13 53 6
f 63 64 54
f 63 54 53
f 64 433 54
f 434 55 47
f 55 36 32
f 55 32 47
f 36 23 19
f 36 19 32
f 23 16 10
f 23 10 19
f 16 9 3
f 16 3 10
f 9 7 2
f 9 2 3
f 7 6 1
f 7 1 2
f 6 53 45
f 6 45 1
f 53 54 46
f 53 46 45
f 54 433 46
f 434 47 52
f 47 32 35
f 47 35 52
f 32 19 22
f 32 22 35
f 19 10 15
f 19 15 22
f 10 3 8
f 10 8 15
f 3 2 5
f 3 5 8
f 2 1 4
f 2 4 5
f 1 45 50
f 1 50 4
f 45 46 51
f 45 51 50
f 46 433 51
f 434 52 62
f 52 35 37
f 52 37 62
f 35 22 30
f 35 30 37
f 22 15 20
f 22 20 30
f 15 8 17
f 15 17 20
f 8 5 12
f 8 12 17
f 5 4 11
f 5 11 12
f 4 50 60
f 4 60 11
f 50 51 61
f 50 61 60
f 51 433 61
f 434 62 74
f 62 37 58
f 62 58 74
f 37 30 39
f 37 39 58
f 30 20 33
f 30 33 39
f 20 17 28
f 20 28 33
f 17 12 25
f 17 25 28
f 12 11 24
f 12 24 25
f 11 60 72
f 11 72 24
f 60 61 73
f 60 73 72
f 61 433 73
f 434 74 88
f 74 58 80
f 74 80 88
f 58 39 66
f 58 66 80
f 39 33 56
f 39 56 66
f 33 28 48
f 33 48 56
f 28 25 42
f 28 42 48
f 25 24 41
f 25 41 42
f 24 72 86
f 24 86 41
f 72 73 87
f 72 87 86
f 73 433 87
f 434 88 104
f 88 80 92
f 88 92 104
f 80 66 84
f 80 84 92
f 66 56 82
f 66 82 84
f 56 48 78
f 56 78 82
f 48 42 69
f 48 69 78
f 42 41 68
f 42 68 69
f 41 86 102
f 41 102 68
f 86 87 103
f 86 103 102
f 87 433 103
f 434 104 120
f 104 92 110
f 104 110 120
f 92 84 108
f 92 108 110
f 84 82 100
f 84 100 108
f 82 78 98
f 82 98 100
f 78 69 95
f 78 95 98
f 69 68 94
f 69 94 95
f 68 102 118
f 68 118 94
f 102 103 119
f 102 119 118
f 103 433 119
f 434 120 136
f 120 110 128
f 120 128 136
f 110 108 126
f 110 126 128
f 108 100 124
f 108 124 126
f 100 98 116
f 100 116 124
f 98 95 113
f 98 113 116
f 95 94 112
f 95 112 113
f 94 118 134
f 94 134 112
f 118 119 135
f 118 135 134
f 119 433 135
f 434 136 150
f 136 128 146
f 136 146 150
f 128 126 144
f 128 144 146
f 126 124 142
f 126 142 144
f 124 116 140
f 124 140 142
f 116 113 131
f 116 131 140
f 113 112 130
f 113 130 131
f 112 134 148
f 112 148 130
f 134 135 149
f 134 149 148
f 135 433 149
f 434 150 168
f 150 146 164
f 150 164 168
f 146 144 162
f 146 162 164
f 144 142 160
f 144 160 162
f 142 140 158
f 142 158 160
f 140 131 155
f 140 155 158
f 131 130 154
f 131 154 155
f 130 148 166
f 130 166 154
f 148 149 167
f 148 167 166
f 149 433 167
f 434 168 186
f 168 164 182
f 168 182 186
f 164 162 180
f 164 180 182
f 162 160 178
f 162 178 180
f 160 158 176
f 160 176 178
f 158 155 173
f 158 173 176
f 155 154 172
f 155 172 173
f 154 166 184
f 154 184 172
f 166 167 185
f 166 185 184
f 167 433 185
f 434 186 204
f 186 182 200
f 186 200 204
f 182 180 198
f 182 198 200
f 180 178 196
f 180 196 198
f 178 176 194
f 178 194 196
f 176 173 191
f 176 191 194
f 173 172 190
f 173 190 191
f 172 184 202
f 172 202 190
f 184 185 203
f 184 203 202
f 185 433 203
f 434 204 222
f 204 200 218
f 204 218 222
f 200 198 216
f 200 216 218
f 198 196 214
f 198 214 216
f 196 194 212
f 196 212 214
f 194 191 209
f 194 209 212
f 191 190 208
f 191 208 209
f 190 202 220
f 190 220 208
f 202 203 221
f 202 221 220
f 203 433 221
f 434 222 240
f 222 218 236
f 222 236 240
f 218 216 234
f 218 234 236
f 216 214 232
f 216 232 234
f 214 212 230
f 214 230 232
f 212 209 227
f 212 227 230
f 209 208 226
f 209 226 227
f 208 220 238
f 208 238 226
f 220 221 239
f 220 239 238
f 221 433 239
f 434 240 258
f 240 236 254
f 240 254 258
f 236 234 252
f 236 252 254
f 234 232 250
f 234 250 252
f 232 230 248
f 232 248 250
f 230 227 245
f 230 245 248
f 227 226 244
f 227 244 245
f 226 238 256
f 226 256 244
f 238 239 257
f 238 257 256
f 239 433 257
f 434 258 276
f 258 254 272
f 258 272 276
f 254 252 270
f 254 270 272
f 252 250 268
f 252 268 270
f 250 248 266
f 250 266 268
f 248 245 263
f 248 263 266
f 245 244 262
f 245 262 263
f 244 256 274
f 244 274 262
f 256 257 275
f 256 275 274
f 257 433 275
f 434 276 294
f 276 272 290
f 276 290 294
f 272 270 288
f 272 288 290
f 270 268 286
f 270 286 288
f 268 266 284
f 268 284 286
f 266 263 281
f 266 281 284
f 263 262 280
f 263 280 281
f 262 274 292
f 262 292 280
f 274 275 293
f 274 293 292
f 275 433 293
f 434 294 312
f 294 290 308
f 294 308 312
f 290 288 306
f 290 306 308
f 288 286 304
f 288 304 306
f 286 284 302
f 286 302 304
f 284 281 299
f 284 299 302
f 281 280 298
f 281 298 299
f 280 292 310
f 280 310 298
f 292 293 311
f 292 311 310
f 293 433 311
f 434 312 330
f 312 308 326
f 312 326 330
f 308 306 324
f 308 324 326
f 306 304 322
f 306 322 324
f 304 302 320
f 304 320 322
f 302 299 317
f 302 317 320
f 299 298 316
f 299 316 317
f 298 310 328
f 298 328 316
f 310 311 329
f 310 329 328
f 311 433 329
f 434 330 348
f 330 326 344
f 330 344 348
f 326 324 342
f 326 342 344
f 324 322 340
f 324 340 342
f 322 320 338
f 322 338 340
f 320 317 335
f 320 335 338
f 317 316 334
f 317 334 335
f 316 328 346
f 316 346 334
f 328 329 347
f 328 347 346
f 329 433 347
f 434 348 366
f 348 344 362
f 348 362 366
f 344 342 360
f 344 360 362
f 342 340 358
f 342 358 360
f 340 338 356
f 340 356 358
f 338 335 353
f 338 353 356
f 335 334 352
f 335 352 353
f 334 346 364
f 334 364 352
f 346 347 365
f 346 365 364
f 347 433 365
f 434 366 384
f 366 362 380
f 366 380 384
f 362 360 378
f 362 378 380
f 360 358 376
f 360 376 378
f 358 356 374
f 358 374 376
f 356 353 371
f 356 371 374
f 353 352 370
f 353 370 371
f 352 364 382
f 352 382 370
f 364 365 383
f 364 383 382
f 365 433 383
f 434 384 402
f 384 380 398
f 384 398 402
f 380 378 396
f 380 396 398
f 378 376 394
f 378 394 396
f 376 374 392
f 376 392 394
f 374 371 389
f 374 389 392
f 371 370 388
f 371 388 389
f 370 382 400
f 370 400 388
f 382 383 401
f 382 401 400
f 383 433 401
f 434 402 420
f 402 398 416
f 402 416 420
f 398 396 414
f 398 414 416
f 396 394 412
f 396 412 414
f 394 392 410
f 394 410 412
f 392 389 407
f 392 407 410
f 389 388 406
f 389 406 407
f 388 400 418
f 388 418 406
f 400 401 419
f 400 419 418
f 401 433 419
f 434 420 432
f 420 416 429
f 420 429 432
f 416 414 428
f 416 428 429
f 414 412 427
f 414 427 428
f 412 410 426
f 412 426 427
f 410 407 425
f 410 425 426
f 407 406 424
f 407 424 425
f 406 418 430
f 406 430 424
f 418 419 431
f 418 431 430
f 419 433 431
f 434 432 446
f 432 429 450
f 432 450 446
f 429 428 452
f 429 452 450
f 428 427 454
f 428 454 452
f 427 426 456
f 427 456 454
f 426 425 459
f 426 459 456
f 425 424 458
f 425 458 459
f 424 430 444
f 424 444 458
f 430 431 445
f 430 445 444
f 431 433 445
f 434 446 464
f 446 450 468
f 446 468 464
f 450 452 470
f 450 470 468
f 452 454 472
f 452 472 470
f 454 456 474
f 454 474 472
f 456 459 477
f 456 477 474
f 459 458 476
f 459 476 477
f 458 444 462
f 458 462 476
f 444 445 463
f 444 463 462
f 445 433 463
f 434 464 482
f 464 468 486
f 464 486 482
f 468 470 488
f 468 488 486
f 470 472 490
f 470 490 488
f 472 474 492
f 472 492 490
f 474 477 495
f 474 495 492
f 477 476 494
f 477 494 495
f 476 462 480
f 476 480 494
f 462 463 481
f 462 481 480
f 463 433 481
f 434 482 500
f 482 486 504
f 482 504 500
f 486 488 506
f 486 506 504
f 488 490 508
f 488 508 506
f 490 492 510
f 490 510 508
f 492 495 513
f 492 513 510
f 495 494 512
f 495 512 513
f 494 480 498
f 494 498 512
f 480 481 499
f 480 499 498
f 481 433 499
f 434 500 518
f 500 504 522
f 500 522 518
f 504 506 524
f 504 524 522
f 506 508 526
f 506 526 524
f 508 510 528
f 508 528 526
f 510 513 531
f 510 531 528
f 513 512 530
f 513 530 531
f 512 498 516
f 512 516 530
f 498 499 517
f 498 517 516
f 499 433 517
f 434 518 536
f 518 522 540
f 518 540 536
f 522 524 542
f 522 542 540
f 524 526 544
f 524 544 542
f 526 528 546
f 526 546 544
f 528 531 549
f 528 549 546
f 531 530 548
f 531 548 549
f 530 516 534
f 530 534 548
f 516 517 535
f 516 535 534
f 517 433 535
f 434 536 554
f 536 540 558
f 536 558 554
f 540 542 560
f 540 560 558
f 542 544 562
f 542 562 560
f 544 546 564
f 544 564 562
f 546 549 567
f 546 567 564
f 549 548 566
f 549 566 567
f 548 534 552
f 548 552 566
f 534 535 553
f 534 553 552
f 535 433 553
f 434 554 572
f 554 558 576
f 554 576 572
f 558 560 578
f 558 578 576
f 560 562 580
f 560 580 578
f 562 564 582
f 562 582 580
f 564 567 585
f 564 585 582
f 567 566 584
f 567 584 585
f 566 552 570
f 566 570 584
f 552 553 571
f 552 571 570
f 553 433 571
f 434 572 590
f 572 576 594
f 572 594 590
f 576 578 596
f 576 596 594
f 578 580 598
f 578 598 596
f 580 582 600
f 580 600 598
f 582 585 603
f 582 603 600
f 585 584 602
f 585 602 603
f 584 570 588
f 584 588 602
f 570 571 589
f 570 589 588
f 571 433 589
f 434 590 608
f 590 594 612
f 590 612 608
f 594 596 614
f 594 614 612
f 596 598 616
f 596 616 614
f 598 600 618
f 598 618 616
f 600 603 621
f 600 621 618
f 603 602 620
f 603 620 621
f 602 588 606
f 602 606 620
f 588 589 607
f 588 607 606
f 589 433 607
f 434 608 626
f 608 612 630
f 608 630 626
f 612 614 632
f 612 632 630
f 614 616 634
f 614 634 632
f 616 618 636
f 616 636 634
f 618 621 639
f 618 639 636
f 621 620 638
f 621 638 639
f 620 606 624
f 620 624 638
f 606 607 625
f 606 625 624
f 607 433 625
f 434 626 644
f 626 630 648
f 626 648 644
f 630 632 650
f 630 650 648
f 632 634 652
f 632 652 650
f 634 636 654
f 634 654 652
f 636 639 657
f 636 657 654
f 639 638 656
f 639 656 657
f 638 624 642
f 638 642 656
f 624 625 643
f 624 643 642
f 625 433 643
f 434 644 662
f 644 648 666
f 644 666 662
f 648 650 668
f 648 668 666
f 650 652 670
f 650 670 668
f 652 654 672
f 652 672 670
f 654 657 675
f 654 675 672
f 657 656 674
f 657 674 675
f 656 642 660
f 656 660 674
f 642 643 661
f 642 661 660
f 643 433 661
f 434 662 680
f 662 666 684
f 662 684 680
f 666 668 686
f 666 686 684
f 668 670 688
f 668 688 686
f 670 672 690
f 670 690 688
f 672 675 693
f 672 693 690
f 675 674 692
f 675 692 693
f 674 660 678
f 674 678 692
f 660 661 679
f 660 679 678
f 661 433 679
f 434 680 698
f 680 684 702
f 680 702 698
f 684 686 704
f 684 704 702
f 686 688 706
f 686 706 704
f 688 690 708
f 688 708 706
f 690 693 711
f 690 711 708
f 693 692 710
f 693 710 711
f 692 678 696
f 692 696 710
f 678 679 697
f 678 697 696
f 679 433 697
f 434 698 716
f 698 702 720
f 698 720 716
f 702 704 722
f 702 722 720
f 704 706 724
f 704 724 722
f 706 708 726
f 706 726 724
f 708 711 735
f 708 735 726
f 711 710 734
f 711 734 735
f 710 696 714
f 710 714 734
f 696 697 715
f 696 715 714
f 697 433 715
f 434 716 730
f 716 720 738
f 716 738 730
f 720 722 740
f 720 740 738
f 722 724 742
f 722 742 740
f 724 726 750
f 724 750 742
f 726 735 753
f 726 753 750
f 735 734 752
f 735 752 753
f 734 714 728
f 734 728 752
f 714 715 729
f 714 729 728
f 715 433 729
f 434 730 746
f 730 738 756
f 730 756 746
f 738 740 758
f 738 758 756
f 740 742 766
f 740 766 758
f 742 750 768
f 742 768 766
f 750 753 771
f 750 771 768
f 753 752 770
f 753 770 771
f 752 728 744
f 752 744 770
f 728 729 745
f 728 745 744
f 729 433 745
f 434 746 762
f 746 756 774
f 746 774 762
f 756 758 782
f 756 782 774
f 758 766 784
f 758 784 782
f 766 768 788
f 766 788 784
f 768 771 797
f 768 797 788
f 771 770 796
f 771 796 797
f 770 744 760
f 770 760 796
f 744 745 761
f 744 761 760
f 745 433 761
f 434 762 778
f 762 774 786
f 762 786 778
f 774 782 800
f 774 800 786
f 782 784 810
f 782 810 800
f 784 788 818
f 784 818 810
f 788 797 824
f 788 824 818
f 797 796 823
f 797 823 824
f 796 760 776
f 796 776 823
f 760 761 777
f 760 777 776
f 761 433 777
f 434 778 792
f 778 786 808
f 778 808 792
f 786 800 827
f 786 827 808
f 800 810 833
f 800 833 827
f 810 818 838
f 810 838 833
f 818 824 841
f 818 841 838
f 824 823 840
f 824 840 841
f 823 776 790
f 823 790 840
f 776 777 791
f 776 791 790
f 777 433 791
f 434 792 804
f 792 808 829
f 792 829 804
f 808 827 836
f 808 836 829
f 827 833 846
f 827 846 836
f 833 838 849
f 833 849 846
f 838 841 854
f 838 854 849
f 841 840 853
f 841 853 854
f 840 790 802
f 840 802 853
f 790 791 803
f 790 803 802
f 791 433 803
f 434 804 814
f 804 829 831
f 804 831 814
f 829 836 844
f 829 844 831
f 836 846 851
f 836 851 844
f 846 849 858
f 846 858 851
f 849 854 861
f 849 861 858
f 854 853 860
f 854 860 861
f 853 802 812
f 853 812 860
f 802 803 813
f 802 813 812
f 803 433 813
f 434 814 822
f 814 831 835
f 814 835 822
f 831 844 848
f 831 848 835
f 844 851 857
f 844 857 848
f 851 858 864
f 851 864 857
f 858 861 866
f 858 866 864
f 861 860 865
f 861 865 866
f 860 812 820
f 860 820 865
f 812 813 821
f 812 821 820
f 813 433 821
