v -0.030900 0.000000 0.090500
v -0.030900 0.000000 0.099900
v -0.030834 -0.002021 0.090500
v -0.030834 -0.002021 0.099900
v -0.030834 0.002021 0.090500
v -0.030834 0.002021 0.099900
v -0.030822 0.000000 0.100394
v -0.030756 -0.002016 0.100394
v -0.030756 0.002016 0.100394
v -0.030636 -0.004033 0.090500
v -0.030636 -0.004033 0.099900
v -0.030636 0.004033 0.090500
v -0.030636 0.004033 0.099900
v -0.030594 0.000000 0.100840
v -0.030558 -0.004023 0.100394
v -0.030558 0.004023 0.100394
v -0.030529 -0.002001 0.100840
v -0.030529 0.002001 0.100840
v -0.030333 -0.003993 0.100840
v -0.030333 0.003993 0.100840
v -0.030306 -0.006028 0.090500
v -0.030306 -0.006028 0.099900
v -0.030306 0.006028 0.090500
v -0.030306 0.006028 0.099900
v -0.030240 0.000000 0.101194
v -0.030229 -0.006013 0.100394
v -0.030229 0.006013 0.100394
v -0.030176 -0.001978 0.101194
v -0.030176 0.001978 0.101194
v -0.030007 -0.005969 0.100840
v -0.030007 0.005969 0.100840
v -0.029982 -0.003947 0.101194
v -0.029982 0.003947 0.101194
v -0.029847 -0.007998 0.090500
v -0.029847 -0.007998 0.099900
v -0.029847 0.007998 0.090500
v -0.029847 0.007998 0.099900
v -0.029794 0.000000 0.101422
v -0.029771 -0.007977 0.100394
v -0.029771 0.007977 0.100394
v -0.029731 -0.001949 0.101422
v -0.029731 0.001949 0.101422
v -0.029659 -0.005900 0.101194
v -0.029659 0.005900 0.101194
v -0.029552 -0.007918 0.100840
v -0.029552 0.007918 0.100840
v -0.029540 -0.003889 0.101422
v -0.029540 0.003889 0.101422
v -0.029300 0.000000 0.090500
v -0.029300 0.000000 0.099900
v -0.029300 0.000000 0.101500
v -0.029260 -0.009932 0.090500
v -0.029260 -0.009932 0.099900
v -0.029260 0.009932 0.090500
v -0.029260 0.009932 0.099900
v -0.029237 -0.001916 0.090500
v -0.029237 -0.001916 0.099900
v -0.029237 -0.001916 0.101500
v -0.029237 0.001916 0.090500
v -0.029237 0.001916 0.099900
v -0.029237 0.001916 0.101500
v -0.029222 -0.005813 0.101422
v -0.029222 0.005813 0.101422
v -0.029210 -0.007827 0.101194
v -0.029210 0.007827 0.101194
v -0.029186 -0.009907 0.100394
v -0.029186 0.009907 0.100394
v -0.029049 -0.003824 0.090500
v -0.029049 -0.003824 0.099900
v -0.029049 -0.003824 0.101500
v -0.029049 0.003824 0.090500
v -0.029049 0.003824 0.099900
v -0.029049 0.003824 0.101500
v -0.028971 -0.009834 0.100840
v -0.028971 0.009834 0.100840
v -0.028779 -0.007711 0.101422
v -0.028779 0.007711 0.101422
v -0.028737 -0.005716 0.090500
v -0.028737 -0.005716 0.099900
v -0.028737 -0.005716 0.101500
v -0.028737 0.005716 0.090500
v -0.028737 0.005716 0.099900
v -0.028737 0.005716 0.101500
v -0.028636 -0.009720 0.101194
v -0.028636 0.009720 0.101194
v -0.028548 -0.011825 0.090500
v -0.028548 -0.011825 0.099900
v -0.028548 0.011825 0.090500
v -0.028548 0.011825 0.099900
v -0.028476 -0.011795 0.100394
v -0.028476 0.011795 0.100394
v -0.028302 -0.007583 0.090500
v -0.028302 -0.007583 0.099900
v -0.028302 -0.007583 0.101500
v -0.028302 0.007583 0.090500
v -0.028302 0.007583 0.099900
v -0.028302 0.007583 0.101500
v -0.028266 -0.011708 0.100840
v -0.028266 0.011708 0.100840
v -0.028213 -0.009577 0.101422
v -0.028213 0.009577 0.101422
v -0.027939 -0.011573 0.101194
v -0.027939 0.011573 0.101194
v -0.027745 -0.009418 0.090500
v -0.027745 -0.009418 0.099900
v -0.027745 -0.009418 0.101500
v -0.027745 0.009418 0.090500
v -0.027745 0.009418 0.099900
v -0.027745 0.009418 0.101500
v -0.027713 -0.013667 0.090500
v -0.027713 -0.013667 0.099900
v -0.027713 0.013667 0.090500
v -0.027713 0.013667 0.099900
v -0.027643 -0.013632 0.100394
v -0.027643 0.013632 0.100394
v -0.027526 -0.011402 0.101422
v -0.027526 0.011402 0.101422
v -0.027439 -0.013532 0.100840
v -0.027439 0.013532 0.100840
v -0.027122 -0.013375 0.101194
v -0.027122 0.013375 0.101194
v -0.027070 -0.011213 0.090500
v -0.027070 -0.011213 0.099900
v -0.027070 -0.011213 0.101500
v -0.027070 0.011213 0.090500
v -0.027070 0.011213 0.099900
v -0.027070 0.011213 0.101500
v -0.026760 -0.015450 0.090500
v -0.026760 -0.015450 0.099900
v -0.026760 0.015450 0.090500
v -0.026760 0.015450 0.099900
v -0.026722 -0.013178 0.101422
v -0.026722 0.013178 0.101422
v -0.026692 -0.015411 0.100394
v -0.026692 0.015411 0.100394
v -0.026496 -0.015297 0.100840
v -0.026496 0.015297 0.100840
v -0.026278 -0.012959 0.090500
v -0.026278 -0.012959 0.099900
v -0.026278 -0.012959 0.101500
v -0.026278 0.012959 0.090500
v -0.026278 0.012959 0.099900
v -0.026278 0.012959 0.101500
v -0.026189 -0.015120 0.101194
v -0.026189 0.015120 0.101194
v -0.025803 -0.014897 0.101422
v -0.025803 0.014897 0.101422
v -0.025692 -0.017167 0.090500
v -0.025692 -0.017167 0.099900
v -0.025692 0.017167 0.090500
v -0.025692 0.017167 0.099900
v -0.025627 -0.017124 0.100394
v -0.025627 0.017124 0.100394
v -0.025438 -0.016997 0.100840
v -0.025438 0.016997 0.100840
v -0.025375 -0.014650 0.090500
v -0.025375 -0.014650 0.099900
v -0.025375 -0.014650 0.101500
v -0.025375 0.014650 0.090500
v -0.025375 0.014650 0.099900
v -0.025375 0.014650 0.101500
v -0.025144 -0.016801 0.101194
v -0.025144 0.016801 0.101194
v -0.024773 -0.016553 0.101422
v -0.024773 0.016553 0.101422
v -0.024515 -0.018811 0.090500
v -0.024515 -0.018811 0.099900
v -0.024515 0.018811 0.090500
v -0.024515 0.018811 0.099900
v -0.024452 -0.018763 0.100394
v -0.024452 0.018763 0.100394
v -0.024362 -0.016278 0.090500
v -0.024362 -0.016278 0.099900
v -0.024362 -0.016278 0.101500
v -0.024362 0.016278 0.090500
v -0.024362 0.016278 0.099900
v -0.024362 0.016278 0.101500
v -0.024272 -0.018625 0.100840
v -0.024272 0.018625 0.100840
v -0.023991 -0.018409 0.101194
v -0.023991 0.018409 0.101194
v -0.023638 -0.018138 0.101422
v -0.023638 0.018138 0.101422
v -0.023245 -0.017837 0.090500
v -0.023245 -0.017837 0.099900
v -0.023245 -0.017837 0.101500
v -0.023245 0.017837 0.090500
v -0.023245 0.017837 0.099900
v -0.023245 0.017837 0.101500
v -0.023232 -0.020374 0.090500
v -0.023232 -0.020374 0.099900
v -0.023232 0.020374 0.090500
v -0.023232 0.020374 0.099900
v -0.023173 -0.020322 0.100394
v -0.023173 0.020322 0.100394
v -0.023002 -0.020172 0.100840
v -0.023002 0.020172 0.100840
v -0.022736 -0.019939 0.101194
v -0.022736 0.019939 0.101194
v -0.022401 -0.019645 0.101422
v -0.022401 0.019645 0.101422
v -0.022029 -0.019319 0.090500
v -0.022029 -0.019319 0.099900
v -0.022029 -0.019319 0.101500
v -0.022029 0.019319 0.090500
v -0.022029 0.019319 0.099900
v -0.022029 0.019319 0.101500
v -0.021850 -0.021850 0.090500
v -0.021850 -0.021850 0.099900
v -0.021850 0.021850 0.090500
v -0.021850 0.021850 0.099900
v -0.021794 -0.021794 0.100394
v -0.021794 0.021794 0.100394
v -0.021634 -0.021634 0.100840
v -0.021634 0.021634 0.100840
v -0.021383 -0.021383 0.101194
v -0.021383 0.021383 0.101194
v -0.021068 -0.021068 0.101422
v -0.021068 0.021068 0.101422
v -0.020718 -0.020718 0.090500
v -0.020718 -0.020718 0.099900
v -0.020718 -0.020718 0.101500
v -0.020718 0.020718 0.090500
v -0.020718 0.020718 0.099900
v -0.020718 0.020718 0.101500
v -0.020374 -0.023232 0.090500
v -0.020374 -0.023232 0.099900
v -0.020374 0.023232 0.090500
v -0.020374 0.023232 0.099900
v -0.020322 -0.023173 0.100394
v -0.020322 0.023173 0.100394
v -0.020172 -0.023002 0.100840
v -0.020172 0.023002 0.100840
v -0.019939 -0.022736 0.101194
v -0.019939 0.022736 0.101194
v -0.019645 -0.022401 0.101422
v -0.019645 0.022401 0.101422
v -0.019319 -0.022029 0.090500
v -0.019319 -0.022029 0.099900
v -0.019319 -0.022029 0.101500
v -0.019319 0.022029 0.090500
v -0.019319 0.022029 0.099900
v -0.019319 0.022029 0.101500
v -0.018811 -0.024515 0.090500
v -0.018811 -0.024515 0.099900
v -0.018811 0.024515 0.090500
v -0.018811 0.024515 0.099900
v -0.018763 -0.024452 0.100394
v -0.018763 0.024452 0.100394
v -0.018625 -0.024272 0.100840
v -0.018625 0.024272 0.100840
v -0.018409 -0.023991 0.101194
v -0.018409 0.023991 0.101194
v -0.018138 -0.023638 0.101422
v -0.018138 0.023638 0.101422
v -0.017837 -0.023245 0.090500
v -0.017837 -0.023245 0.099900
v -0.017837 -0.023245 0.101500
v -0.017837 0.023245 0.090500
v -0.017837 0.023245 0.099900
v -0.017837 0.023245 0.101500
v -0.017167 -0.025692 0.090500
v -0.017167 -0.025692 0.099900
v -0.017167 0.025692 0.090500
v -0.017167 0.025692 0.099900
v -0.017124 -0.025627 0.100394
v -0.017124 0.025627 0.100394
v -0.016997 -0.025438 0.100840
v -0.016997 0.025438 0.100840
v -0.016801 -0.025144 0.101194
v -0.016801 0.025144 0.101194
v -0.016553 -0.024773 0.101422
v -0.016553 0.024773 0.101422
v -0.016278 -0.024362 0.090500
v -0.016278 -0.024362 0.099900
v -0.016278 -0.024362 0.101500
v -0.016278 0.024362 0.090500
v -0.016278 0.024362 0.099900
v -0.016278 0.024362 0.101500
v -0.015450 -0.026760 0.090500
v -0.015450 -0.026760 0.099900
v -0.015450 0.026760 0.090500
v -0.015450 0.026760 0.099900
v -0.015411 -0.026692 0.100394
v -0.015411 0.026692 0.100394
v -0.015297 -0.026496 0.100840
v -0.015297 0.026496 0.100840
v -0.015120 -0.026189 0.101194
v -0.015120 0.026189 0.101194
v -0.014897 -0.025803 0.101422
v -0.014897 0.025803 0.101422
v -0.014650 -0.025375 0.090500
v -0.014650 -0.025375 0.099900
v -0.014650 -0.025375 0.101500
v -0.014650 0.025375 0.090500
v -0.014650 0.025375 0.099900
v -0.014650 0.025375 0.101500
v -0.013667 -0.027713 0.090500
v -0.013667 -0.027713 0.099900
v -0.013667 0.027713 0.090500
v -0.013667 0.027713 0.099900
v -0.013632 -0.027643 0.100394
v -0.013632 0.027643 0.100394
v -0.013532 -0.027439 0.100840
v -0.013532 0.027439 0.100840
v -0.013375 -0.027122 0.101194
v -0.013375 0.027122 0.101194
v -0.013178 -0.026722 0.101422
v -0.013178 0.026722 0.101422
v -0.012959 -0.026278 0.090500
v -0.012959 -0.026278 0.099900
v -0.012959 -0.026278 0.101500
v -0.012959 0.026278 0.090500
v -0.012959 0.026278 0.099900
v -0.012959 0.026278 0.101500
v -0.011825 -0.028548 0.090500
v -0.011825 -0.028548 0.099900
v -0.011825 0.028548 0.090500
v -0.011825 0.028548 0.099900
v -0.011795 -0.028476 0.100394
v -0.011795 0.028476 0.100394
v -0.011708 -0.028266 0.100840
v -0.011708 0.028266 0.100840
v -0.011573 -0.027939 0.101194
v -0.011573 0.027939 0.101194
v -0.011402 -0.027526 0.101422
v -0.011402 0.027526 0.101422
v -0.011213 -0.027070 0.090500
v -0.011213 -0.027070 0.099900
v -0.011213 -0.027070 0.101500
v -0.011213 0.027070 0.090500
v -0.011213 0.027070 0.099900
v -0.011213 0.027070 0.101500
v -0.009932 -0.029260 0.090500
v -0.009932 -0.029260 0.099900
v -0.009932 0.029260 0.090500
v -0.009932 0.029260 0.099900
v -0.009907 -0.029186 0.100394
v -0.009907 0.029186 0.100394
v -0.009834 -0.028971 0.100840
v -0.009834 0.028971 0.100840
v -0.009720 -0.028636 0.101194
v -0.009720 0.028636 0.101194
v -0.009577 -0.028213 0.101422
v -0.009577 0.028213 0.101422
v -0.009418 -0.027745 0.090500
v -0.009418 -0.027745 0.099900
v -0.009418 -0.027745 0.101500
v -0.009418 0.027745 0.090500
v -0.009418 0.027745 0.099900
v -0.009418 0.027745 0.101500
v -0.007998 -0.029847 0.090500
v -0.007998 -0.029847 0.099900
v -0.007998 0.029847 0.090500
v -0.007998 0.029847 0.099900
v -0.007977 -0.029771 0.100394
v -0.007977 0.029771 0.100394
v -0.007918 -0.029552 0.100840
v -0.007918 0.029552 0.100840
v -0.007827 -0.029210 0.101194
v -0.007827 0.029210 0.101194
v -0.007711 -0.028779 0.101422
v -0.007711 0.028779 0.101422
v -0.007583 -0.028302 0.090500
v -0.007583 -0.028302 0.099900
v -0.007583 -0.028302 0.101500
v -0.007583 0.028302 0.090500
v -0.007583 0.028302 0.099900
v -0.007583 0.028302 0.101500
v -0.006028 -0.030306 0.090500
v -0.006028 -0.030306 0.099900
v -0.006028 0.030306 0.090500
v -0.006028 0.030306 0.099900
v -0.006013 -0.030229 0.100394
v -0.006013 0.030229 0.100394
v -0.005969 -0.030007 0.100840
v -0.005969 0.030007 0.100840
v -0.005900 -0.029659 0.101194
v -0.005900 0.029659 0.101194
v -0.005813 -0.029222 0.101422
v -0.005813 0.029222 0.101422
v -0.005716 -0.028737 0.090500
v -0.005716 -0.028737 0.099900
v -0.005716 -0.028737 0.101500
v -0.005716 0.028737 0.090500
v -0.005716 0.028737 0.099900
v -0.005716 0.028737 0.101500
v -0.004033 -0.030636 0.090500
v -0.004033 -0.030636 0.099900
v -0.004033 0.030636 0.090500
v -0.004033 0.030636 0.099900
v -0.004023 -0.030558 0.100394
v -0.004023 0.030558 0.100394
v -0.003993 -0.030333 0.100840
v -0.003993 0.030333 0.100840
v -0.003947 -0.029982 0.101194
v -0.003947 0.029982 0.101194
v -0.003889 -0.029540 0.101422
v -0.003889 0.029540 0.101422
v -0.003824 -0.029049 0.090500
v -0.003824 -0.029049 0.099900
v -0.003824 -0.029049 0.101500
v -0.003824 0.029049 0.090500
v -0.003824 0.029049 0.099900
v -0.003824 0.029049 0.101500
v -0.002021 -0.030834 0.090500
v -0.002021 -0.030834 0.099900
v -0.002016 -0.030756 0.100394
v -0.002016 0.030756 0.100394
v -0.002021 0.030834 0.090500
v -0.002021 0.030834 0.099900
v -0.002001 -0.030529 0.100840
v -0.002001 0.030529 0.100840
v -0.001978 -0.030176 0.101194
v -0.001978 0.030176 0.101194
v -0.001949 -0.029731 0.101422
v -0.001949 0.029731 0.101422
v -0.001916 -0.029237 0.090500
v -0.001916 -0.029237 0.099900
v -0.001916 -0.029237 0.101500
v -0.001916 0.029237 0.090500
v -0.001916 0.029237 0.099900
v -0.001916 0.029237 0.101500
v -0.000000 -0.030900 0.090500
v -0.000000 -0.030900 0.099900
v -0.000000 -0.030822 0.100394
v -0.000000 -0.030594 0.100840
v -0.000000 -0.030240 0.101194
v -0.000000 -0.029794 0.101422
v -0.000000 -0.029300 0.090500
v -0.000000 -0.029300 0.099900
v -0.000000 -0.029300 0.101500
v 0.000000 0.000000 0.099900
v 0.000000 0.000000 0.101500
v 0.000000 0.029300 0.090500
v 0.000000 0.029300 0.099900
v 0.000000 0.029300 0.101500
v 0.000000 0.029794 0.101422
v 0.000000 0.030240 0.101194
v 0.000000 0.030594 0.100840
v 0.000000 0.030822 0.100394
v 0.000000 0.030900 0.090500
v 0.000000 0.030900 0.099900
v 0.001916 -0.029237 0.090500
v 0.001916 -0.029237 0.099900
v 0.001916 -0.029237 0.101500
v 0.001916 0.029237 0.090500
v 0.001916 0.029237 0.099900
v 0.001916 0.029237 0.101500
v 0.001949 -0.029731 0.101422
v 0.001949 0.029731 0.101422
v 0.001978 -0.030176 0.101194
v 0.001978 0.030176 0.101194
v 0.002001 -0.030529 0.100840
v 0.002001 0.030529 0.100840
v 0.002021 -0.030834 0.090500
v 0.002021 -0.030834 0.099900
v 0.002016 -0.030756 0.100394
v 0.002016 0.030756 0.100394
v 0.002021 0.030834 0.090500
v 0.002021 0.030834 0.099900
v 0.003824 -0.029049 0.090500
v 0.003824 -0.029049 0.099900
v 0.003824 -0.029049 0.101500
v 0.003824 0.029049 0.090500
v 0.003824 0.029049 0.099900
v 0.003824 0.029049 0.101500
v 0.003889 -0.029540 0.101422
v 0.003889 0.029540 0.101422
v 0.003947 -0.029982 0.101194
v 0.003947 0.029982 0.101194
v 0.003993 -0.030333 0.100840
v 0.003993 0.030333 0.100840
v 0.004023 -0.030558 0.100394
v 0.004023 0.030558 0.100394
v 0.004033 -0.030636 0.090500
v 0.004033 -0.030636 0.099900
v 0.004033 0.030636 0.090500
v 0.004033 0.030636 0.099900
v 0.005716 -0.028737 0.090500
v 0.005716 -0.028737 0.099900
v 0.005716 -0.028737 0.101500
v 0.005716 0.028737 0.090500
v 0.005716 0.028737 0.099900
v 0.005716 0.028737 0.101500
v 0.005813 -0.029222 0.101422
v 0.005813 0.029222 0.101422
v 0.005900 -0.029659 0.101194
v 0.005900 0.029659 0.101194
v 0.005969 -0.030007 0.100840
v 0.005969 0.030007 0.100840
v 0.006013 -0.030229 0.100394
v 0.006013 0.030229 0.100394
v 0.006028 -0.030306 0.090500
v 0.006028 -0.030306 0.099900
v 0.006028 0.030306 0.090500
v 0.006028 0.030306 0.099900
v 0.007583 -0.028302 0.090500
v 0.007583 -0.028302 0.099900
v 0.007583 -0.028302 0.101500
v 0.007583 0.028302 0.090500
v 0.007583 0.028302 0.099900
v 0.007583 0.028302 0.101500
v 0.007711 -0.028779 0.101422
v 0.007711 0.028779 0.101422
v 0.007827 -0.029210 0.101194
v 0.007827 0.029210 0.101194
v 0.007918 -0.029552 0.100840
v 0.007918 0.029552 0.100840
v 0.007977 -0.029771 0.100394
v 0.007977 0.029771 0.100394
v 0.007998 -0.029847 0.090500
v 0.007998 -0.029847 0.099900
v 0.007998 0.029847 0.090500
v 0.007998 0.029847 0.099900
v 0.009418 -0.027745 0.090500
v 0.009418 -0.027745 0.099900
v 0.009418 -0.027745 0.101500
v 0.009418 0.027745 0.090500
v 0.009418 0.027745 0.099900
v 0.009418 0.027745 0.101500
v 0.009577 -0.028213 0.101422
v 0.009577 0.028213 0.101422
v 0.009720 -0.028636 0.101194
v 0.009720 0.028636 0.101194
v 0.009834 -0.028971 0.100840
v 0.009834 0.028971 0.100840
v 0.009907 -0.029186 0.100394
v 0.009907 0.029186 0.100394
v 0.009932 -0.029260 0.090500
v 0.009932 -0.029260 0.099900
v 0.009932 0.029260 0.090500
v 0.009932 0.029260 0.099900
v 0.011213 -0.027070 0.090500
v 0.011213 -0.027070 0.099900
v 0.011213 -0.027070 0.101500
v 0.011213 0.027070 0.090500
v 0.011213 0.027070 0.099900
v 0.011213 0.027070 0.101500
v 0.011402 -0.027526 0.101422
v 0.011402 0.027526 0.101422
v 0.011573 -0.027939 0.101194
v 0.011573 0.027939 0.101194
v 0.011708 -0.028266 0.100840
v 0.011708 0.028266 0.100840
v 0.011795 -0.028476 0.100394
v 0.011795 0.028476 0.100394
v 0.011825 -0.028548 0.090500
v 0.011825 -0.028548 0.099900
v 0.011825 0.028548 0.090500
v 0.011825 0.028548 0.099900
v 0.012959 -0.026278 0.090500
v 0.012959 -0.026278 0.099900
v 0.012959 -0.026278 0.101500
v 0.012959 0.026278 0.090500
v 0.012959 0.026278 0.099900
v 0.012959 0.026278 0.101500
v 0.013178 -0.026722 0.101422
v 0.013178 0.026722 0.101422
v 0.013375 -0.027122 0.101194
v 0.013375 0.027122 0.101194
v 0.013532 -0.027439 0.100840
v 0.013532 0.027439 0.100840
v 0.013632 -0.027643 0.100394
v 0.013632 0.027643 0.100394
v 0.013667 -0.027713 0.090500
v 0.013667 -0.027713 0.099900
v 0.013667 0.027713 0.090500
v 0.013667 0.027713 0.099900
v 0.014650 -0.025375 0.090500
v 0.014650 -0.025375 0.099900
v 0.014650 -0.025375 0.101500
v 0.014650 0.025375 0.090500
v 0.014650 0.025375 0.099900
v 0.014650 0.025375 0.101500
v 0.014897 -0.025803 0.101422
v 0.014897 0.025803 0.101422
v 0.015120 -0.026189 0.101194
v 0.015120 0.026189 0.101194
v 0.015297 -0.026496 0.100840
v 0.015297 0.026496 0.100840
v 0.015411 -0.026692 0.100394
v 0.015411 0.026692 0.100394
v 0.015450 -0.026760 0.090500
v 0.015450 -0.026760 0.099900
v 0.015450 0.026760 0.090500
v 0.015450 0.026760 0.099900
v 0.016278 -0.024362 0.090500
v 0.016278 -0.024362 0.099900
v 0.016278 -0.024362 0.101500
v 0.016278 0.024362 0.090500
v 0.016278 0.024362 0.099900
v 0.016278 0.024362 0.101500
v 0.016553 -0.024773 0.101422
v 0.016553 0.024773 0.101422
v 0.016801 -0.025144 0.101194
v 0.016801 0.025144 0.101194
v 0.016997 -0.025438 0.100840
v 0.016997 0.025438 0.100840
v 0.017124 -0.025627 0.100394
v 0.017124 0.025627 0.100394
v 0.017167 -0.025692 0.090500
v 0.017167 -0.025692 0.099900
v 0.017167 0.025692 0.090500
v 0.017167 0.025692 0.099900
v 0.017837 -0.023245 0.090500
v 0.017837 -0.023245 0.099900
v 0.017837 -0.023245 0.101500
v 0.017837 0.023245 0.090500
v 0.017837 0.023245 0.099900
v 0.017837 0.023245 0.101500
v 0.018138 -0.023638 0.101422
v 0.018138 0.023638 0.101422
v 0.018409 -0.023991 0.101194
v 0.018409 0.023991 0.101194
v 0.018625 -0.024272 0.100840
v 0.018625 0.024272 0.100840
v 0.018763 -0.024452 0.100394
v 0.018763 0.024452 0.100394
v 0.018811 -0.024515 0.090500
v 0.018811 -0.024515 0.099900
v 0.018811 0.024515 0.090500
v 0.018811 0.024515 0.099900
v 0.019319 -0.022029 0.090500
v 0.019319 -0.022029 0.099900
v 0.019319 -0.022029 0.101500
v 0.019319 0.022029 0.090500
v 0.019319 0.022029 0.099900
v 0.019319 0.022029 0.101500
v 0.019645 -0.022401 0.101422
v 0.019645 0.022401 0.101422
v 0.019939 -0.022736 0.101194
v 0.019939 0.022736 0.101194
v 0.020172 -0.023002 0.100840
v 0.020172 0.023002 0.100840
v 0.020322 -0.023173 0.100394
v 0.020322 0.023173 0.100394
v 0.020374 -0.023232 0.090500
v 0.020374 -0.023232 0.099900
v 0.020374 0.023232 0.090500
v 0.020374 0.023232 0.099900
v 0.020718 -0.020718 0.090500
v 0.020718 -0.020718 0.099900
v 0.020718 -0.020718 0.101500
v 0.020718 0.020718 0.090500
v 0.020718 0.020718 0.099900
v 0.020718 0.020718 0.101500
v 0.021068 -0.021068 0.101422
v 0.021068 0.021068 0.101422
v 0.021383 -0.021383 0.101194
v 0.021383 0.021383 0.101194
v 0.021634 -0.021634 0.100840
v 0.021634 0.021634 0.100840
v 0.021794 -0.021794 0.100394
v 0.021794 0.021794 0.100394
v 0.021850 -0.021850 0.090500
v 0.021850 -0.021850 0.099900
v 0.021850 0.021850 0.090500
v 0.021850 0.021850 0.099900
v 0.022029 -0.019319 0.090500
v 0.022029 -0.019319 0.099900
v 0.022029 -0.019319 0.101500
v 0.022029 0.019319 0.090500
v 0.022029 0.019319 0.099900
v 0.022029 0.019319 0.101500
v 0.022401 -0.019645 0.101422
v 0.022401 0.019645 0.101422
v 0.022736 -0.019939 0.101194
v 0.022736 0.019939 0.101194
v 0.023002 -0.020172 0.100840
v 0.023002 0.020172 0.100840
v 0.023173 -0.020322 0.100394
v 0.023173 0.020322 0.100394
v 0.023232 -0.020374 0.090500
v 0.023232 -0.020374 0.099900
v 0.023232 0.020374 0.090500
v 0.023232 0.020374 0.099900
v 0.023245 -0.017837 0.090500
v 0.023245 -0.017837 0.099900
v 0.023245 -0.017837 0.101500
v 0.023245 0.017837 0.090500
v 0.023245 0.017837 0.099900
v 0.023245 0.017837 0.101500
v 0.023638 -0.018138 0.101422
v 0.023638 0.018138 0.101422
v 0.023991 -0.018409 0.101194
v 0.023991 0.018409 0.101194
v 0.024272 -0.018625 0.100840
v 0.024272 0.018625 0.100840
v 0.024362 -0.016278 0.090500
v 0.024362 -0.016278 0.099900
v 0.024362 -0.016278 0.101500
v 0.024362 0.016278 0.090500
v 0.024362 0.016278 0.099900
v 0.024362 0.016278 0.101500
v 0.024452 -0.018763 0.100394
v 0.024452 0.018763 0.100394
v 0.024515 -0.018811 0.090500
v 0.024515 -0.018811 0.099900
v 0.024515 0.018811 0.090500
v 0.024515 0.018811 0.099900
v 0.024773 -0.016553 0.101422
v 0.024773 0.016553 0.101422
v 0.025144 -0.016801 0.101194
v 0.025144 0.016801 0.101194
v 0.025375 -0.014650 0.090500
v 0.025375 -0.014650 0.099900
v 0.025375 -0.014650 0.101500
v 0.025375 0.014650 0.090500
v 0.025375 0.014650 0.099900
v 0.025375 0.014650 0.101500
v 0.025438 -0.016997 0.100840
v 0.025438 0.016997 0.100840
v 0.025627 -0.017124 0.100394
v 0.025627 0.017124 0.100394
v 0.025692 -0.017167 0.090500
v 0.025692 -0.017167 0.099900
v 0.025692 0.017167 0.090500
v 0.025692 0.017167 0.099900
v 0.025803 -0.014897 0.101422
v 0.025803 0.014897 0.101422
v 0.026189 -0.015120 0.101194
v 0.026189 0.015120 0.101194
v 0.026278 -0.012959 0.090500
v 0.026278 -0.012959 0.099900
v 0.026278 -0.012959 0.101500
v 0.026278 0.012959 0.090500
v 0.026278 0.012959 0.099900
v 0.026278 0.012959 0.101500
v 0.026496 -0.015297 0.100840
v 0.026496 0.015297 0.100840
v 0.026692 -0.015411 0.100394
v 0.026692 0.015411 0.100394
v 0.026722 -0.013178 0.101422
v 0.026722 0.013178 0.101422
v 0.026760 -0.015450 0.090500
v 0.026760 -0.015450 0.099900
v 0.026760 0.015450 0.090500
v 0.026760 0.015450 0.099900
v 0.027070 -0.011213 0.090500
v 0.027070 -0.011213 0.099900
v 0.027070 -0.011213 0.101500
v 0.027070 0.011213 0.090500
v 0.027070 0.011213 0.099900
v 0.027070 0.011213 0.101500
v 0.027122 -0.013375 0.101194
v 0.027122 0.013375 0.101194
v 0.027439 -0.013532 0.100840
v 0.027439 0.013532 0.100840
v 0.027526 -0.011402 0.101422
v 0.027526 0.011402 0.101422
v 0.027643 -0.013632 0.100394
v 0.027643 0.013632 0.100394
v 0.027713 -0.013667 0.090500
v 0.027713 -0.013667 0.099900
v 0.027713 0.013667 0.090500
v 0.027713 0.013667 0.099900
v 0.027745 -0.009418 0.090500
v 0.027745 -0.009418 0.099900
v 0.027745 -0.009418 0.101500
v 0.027745 0.009418 0.090500
v 0.027745 0.009418 0.099900
v 0.027745 0.009418 0.101500
v 0.027939 -0.011573 0.101194
v 0.027939 0.011573 0.101194
v 0.028213 -0.009577 0.101422
v 0.028213 0.009577 0.101422
v 0.028266 -0.011708 0.100840
v 0.028266 0.011708 0.100840
v 0.028302 -0.007583 0.090500
v 0.028302 -0.007583 0.099900
v 0.028302 -0.007583 0.101500
v 0.028302 0.007583 0.090500
v 0.028302 0.007583 0.099900
v 0.028302 0.007583 0.101500
v 0.028476 -0.011795 0.100394
v 0.028476 0.011795 0.100394
v 0.028548 -0.011825 0.090500
v 0.028548 -0.011825 0.099900
v 0.028548 0.011825 0.090500
v 0.028548 0.011825 0.099900
v 0.028636 -0.009720 0.101194
v 0.028636 0.009720 0.101194
v 0.028737 -0.005716 0.090500
v 0.028737 -0.005716 0.099900
v 0.028737 -0.005716 0.101500
v 0.028737 0.005716 0.090500
v 0.028737 0.005716 0.099900
v 0.028737 0.005716 0.101500
v 0.028779 -0.007711 0.101422
v 0.028779 0.007711 0.101422
v 0.028971 -0.009834 0.100840
v 0.028971 0.009834 0.100840
v 0.029049 -0.003824 0.090500
v 0.029049 -0.003824 0.099900
v 0.029049 -0.003824 0.101500
v 0.029049 0.003824 0.090500
v 0.029049 0.003824 0.099900
v 0.029049 0.003824 0.101500
v 0.029186 -0.009907 0.100394
v 0.029186 0.009907 0.100394
v 0.029210 -0.007827 0.101194
v 0.029210 0.007827 0.101194
v 0.029222 -0.005813 0.101422
v 0.029222 0.005813 0.101422
v 0.029237 -0.001916 0.090500
v 0.029237 -0.001916 0.099900
v 0.029237 -0.001916 0.101500
v 0.029237 0.001916 0.090500
v 0.029237 0.001916 0.099900
v 0.029237 0.001916 0.101500
v 0.029260 -0.009932 0.090500
v 0.029260 -0.009932 0.099900
v 0.029260 0.009932 0.090500
v 0.029260 0.009932 0.099900
v 0.029300 0.000000 0.090500
v 0.029300 0.000000 0.099900
v 0.029300 0.000000 0.101500
v 0.029540 -0.003889 0.101422
v 0.029540 0.003889 0.101422
v 0.029552 -0.007918 0.100840
v 0.029552 0.007918 0.100840
v 0.029659 -0.005900 0.101194
v 0.029659 0.005900 0.101194
v 0.029731 -0.001949 0.101422
v 0.029731 0.001949 0.101422
v 0.029771 -0.007977 0.100394
v 0.029771 0.007977 0.100394
v 0.029794 0.000000 0.101422
v 0.029847 -0.007998 0.090500
v 0.029847 -0.007998 0.099900
v 0.029847 0.007998 0.090500
v 0.029847 0.007998 0.099900
v 0.029982 -0.003947 0.101194
v 0.029982 0.003947 0.101194
v 0.030007 -0.005969 0.100840
v 0.030007 0.005969 0.100840
v 0.030176 -0.001978 0.101194
v 0.030176 0.001978 0.101194
v 0.030229 -0.006013 0.100394
v 0.030229 0.006013 0.100394
v 0.030240 0.000000 0.101194
v 0.030306 -0.006028 0.090500
v 0.030306 -0.006028 0.099900
v 0.030306 0.006028 0.090500
v 0.030306 0.006028 0.099900
v 0.030333 -0.003993 0.100840
v 0.030333 0.003993 0.100840
v 0.030529 -0.002001 0.100840
v 0.030529 0.002001 0.100840
v 0.030558 -0.004023 0.100394
v 0.030558 0.004023 0.100394
v 0.030594 0.000000 0.100840
v 0.030636 -0.004033 0.090500
v 0.030636 -0.004033 0.099900
v 0.030636 0.004033 0.090500
v 0.030636 0.004033 0.099900
v 0.030756 -0.002016 0.100394
v 0.030756 0.002016 0.100394
v 0.030822 0.000000 0.100394
v 0.030834 -0.002021 0.090500
v 0.030834 -0.002021 0.099900
v 0.030834 0.002021 0.090500
v 0.030834 0.002021 0.099900
v 0.030900 0.000000 0.090500
v 0.030900 0.000000 0.099900
f 434 818 811
f 818 829 826
f 818 826 811
f 829 842 839
f 829 839 826
f 842 853 850
f 842 850 839
f 853 860 859
f 853 859 850
f 860 866 864
f 860 864 859
f 866 865 863
f 866 863 864
f 865 816 809
f 865 809 863
f 816 817 810
f 816 810 809
f 817 433 810
f 434 811 799
f 811 826 820
f 811 820 799
f 826 839 835
f 826 835 820
f 839 850 848
f 839 848 835
f 850 859 852
f 850 852 848
f 859 864 857
f 859 857 852
f 864 863 856
f 864 856 857
f 863 809 797
f 863 797 856
f 809 810 798
f 809 798 797
f 810 433 798
f 434 799 789
f 799 820 805
f 799 805 789
f 820 835 824
f 820 824 805
f 835 848 837
f 835 837 824
f 848 852 841
f 848 841 837
f 852 857 846
f 852 846 841
f 857 856 845
f 857 845 846
f 856 797 787
f 856 787 845
f 797 798 788
f 797 788 787
f 798 433 788
f 434 789 775
f 789 805 791
f 789 791 775
f 805 824 803
f 805 803 791
f 824 837 822
f 824 822 803
f 837 841 828
f 837 828 822
f 841 846 833
f 841 833 828
f 846 845 832
f 846 832 833
f 845 787 773
f 845 773 832
f 787 788 774
f 787 774 773
f 788 433 774
f 434 775 763
f 775 791 767
f 775 767 763
f 791 803 783
f 791 783 767
f 803 822 793
f 803 793 783
f 822 828 801
f 822 801 793
f 828 833 815
f 828 815 801
f 833 832 814
f 833 814 815
f 832 773 761
f 832 761 814
f 773 774 762
f 773 762 761
f 774 433 762
f 434 763 745
f 763 767 751
f 763 751 745
f 767 783 765
f 767 765 751
f 783 793 769
f 783 769 765
f 793 801 777
f 793 777 769
f 801 815 781
f 801 781 777
f 815 814 780
f 815 780 781
f 814 761 743
f 814 743 780
f 761 762 744
f 761 744 743
f 762 433 744
f 434 745 729
f 745 751 735
f 745 735 729
f 751 765 747
f 751 747 735
f 765 769 749
f 765 749 747
f 769 777 753
f 769 753 749
f 777 781 757
f 777 757 753
f 781 780 756
f 781 756 757
f 780 743 727
f 780 727 756
f 743 744 728
f 743 728 727
f 744 433 728
f 434 729 711
f 729 735 721
f 729 721 711
f 735 747 723
f 735 723 721
f 747 749 731
f 747 731 723
f 749 753 733
f 749 733 731
f 753 757 739
f 753 739 733
f 757 756 738
f 757 738 739
f 756 727 709
f 756 709 738
f 727 728 710
f 727 710 709
f 728 433 710
f 434 711 695
f 711 721 703
f 711 703 695
f 721 723 705
f 721 705 703
f 723 731 713
f 723 713 705
f 731 733 715
f 731 715 713
f 733 739 719
f 733 719 715
f 739 738 718
f 739 718 719
f 738 709 693
f 738 693 718
f 709 710 694
f 709 694 693
f 710 433 694
f 434 695 683
f 695 703 685
f 695 685 683
f 703 705 687
f 703 687 685
f 705 713 689
f 705 689 687
f 713 715 697
f 713 697 689
f 715 719 701
f 715 701 697
f 719 718 700
f 719 700 701
f 718 693 681
f 718 681 700
f 693 694 682
f 693 682 681
f 694 433 682
f 434 683 665
f 683 685 667
f 683 667 665
f 685 687 669
f 685 669 667
f 687 689 671
f 687 671 669
f 689 697 673
f 689 673 671
f 697 701 677
f 697 677 673
f 701 700 676
f 701 676 677
f 700 681 663
f 700 663 676
f 681 682 664
f 681 664 663
f 682 433 664
f 434 665 647
f 665 667 649
f 665 649 647
f 667 669 651
f 667 651 649
f 669 671 653
f 669 653 651
f 671 673 655
f 671 655 653
f 673 677 659
f 673 659 655
f 677 676 658
f 677 658 659
f 676 663 645
f 676 645 658
f 663 664 646
f 663 646 645
f 664 433 646
f 434 647 629
f 647 649 631
f 647 631 629
f 649 651 633
f 649 633 631
f 651 653 635
f 651 635 633
f 653 655 637
f 653 637 635
f 655 659 641
f 655 641 637
f 659 658 640
f 659 640 641
f 658 645 627
f 658 627 640
f 645 646 628
f 645 628 627
f 646 433 628
f 434 629 611
f 629 631 613
f 629 613 611
f 631 633 615
f 631 615 613
f 633 635 617
f 633 617 615
f 635 637 619
f 635 619 617
f 637 641 623
f 637 623 619
f 641 640 622
f 641 622 623
f 640 627 609
f 640 609 622
f 627 628 610
f 627 610 609
f 628 433 610
f 434 611 593
f 611 613 595
f 611 595 593
f 613 615 597
f 613 597 595
f 615 617 599
f 615 599 597
f 617 619 601
f 617 601 599
f 619 623 605
f 619 605 601
f 623 622 604
f 623 604 605
f 622 609 591
f 622 591 604
f 609 610 592
f 609 592 591
f 610 433 592
f 434 593 575
f 593 595 577
f 593 577 575
f 595 597 579
f 595 579 577
f 597 599 581
f 597 581 579
f 599 601 583
f 599 583 581
f 601 605 587
f 601 587 583
f 605 604 586
f 605 586 587
f 604 591 573
f 604 573 586
f 591 592 574
f 591 574 573
f 592 433 574
f 434 575 557
f 575 577 559
f 575 559 557
f 577 579 561
f 577 561 559
f 579 581 563
f 579 563 561
f 581 583 565
f 581 565 563
f 583 587 569
f 583 569 565
f 587 586 568
f 587 568 569
f 586 573 555
f 586 555 568
f 573 574 556
f 573 556 555
f 574 433 556
f 434 557 539
f 557 559 541
f 557 541 539
f 559 561 543
f 559 543 541
f 561 563 545
f 561 545 543
f 563 565 547
f 563 547 545
f 565 569 551
f 565 551 547
f 569 568 550
f 569 550 551
f 568 555 537
f 568 537 550
f 555 556 538
f 555 538 537
f 556 433 538
f 434 539 521
f 539 541 523
f 539 523 521
f 541 543 525
f 541 525 523
f 543 545 527
f 543 527 525
f 545 547 529
f 545 529 527
f 547 551 533
f 547 533 529
f 551 550 532
f 551 532 533
f 550 537 519
f 550 519 532
f 537 538 520
f 537 520 519
f 538 433 520
f 434 521 503
f 521 523 505
f 521 505 503
f 523 525 507
f 523 507 505
f 525 527 509
f 525 509 507
f 527 529 511
f 527 511 509
f 529 533 515
f 529 515 511
f 533 532 514
f 533 514 515
f 532 519 501
f 532 501 514
f 519 520 502
f 519 502 501
f 520 433 502
f 434 503 485
f 503 505 487
f 503 487 485
f 505 507 489
f 505 489 487
f 507 509 491
f 507 491 489
f 509 511 493
f 509 493 491
f 511 515 497
f 511 497 493
f 515 514 496
f 515 496 497
f 514 501 483
f 514 483 496
f 501 502 484
f 501 484 483
f 502 433 484
f 434 485 467
f 485 487 469
f 485 469 467
f 487 489 471
f 487 471 469
f 489 491 473
f 489 473 471
f 491 493 475
f 491 475 473
f 493 497 479
f 493 479 475
f 497 496 478
f 497 478 479
f 496 483 465
f 496 465 478
f 483 484 466
f 483 466 465
f 484 433 466
f 434 467 449
f 467 469 451
f 467 451 449
f 469 471 453
f 469 453 451
f 471 473 455
f 471 455 453
f 473 475 459
f 473 459 455
f 475 479 461
f 475 461 459
f 479 478 460
f 479 460 461
f 478 465 447
f 478 447 460
f 465 466 448
f 465 448 447
f 466 433 448
f 434 449 437
f 449 451 438
f 449 438 437
f 451 453 439
f 451 439 438
f 453 455 440
f 453 440 439
f 455 459 441
f 455 441 440
f 459 461 443
f 459 443 441
f 461 460 442
f 461 442 443
f 460 447 435
f 460 435 442
f 447 448 436
f 447 436 435
f 448 433 436
f 434 437 423
f 437 438 417
f 437 417 423
f 438 439 415
f 438 415 417
f 439 440 413
f 439 413 415
f 440 441 409
f 440 409 413
f 441 443 411
f 441 411 409
f 443 442 410
f 443 410 411
f 442 435 421
f 442 421 410
f 435 436 422
f 435 422 421
f 436 433 422
f 434 423 405
f 423 417 399
f 423 399 405
f 417 415 397
f 417 397 399
f 415 413 395
f 415 395 397
f 413 409 393
f 413 393 395
f 409 411 391
f 409 391 393
f 411 410 390
f 411 390 391
f 410 421 403
f 410 403 390
f 421 422 404
f 421 404 403
f 422 433 404
f 434 405 387
f 405 399 381
f 405 381 387
f 399 397 379
f 399 379 381
f 397 395 377
f 397 377 379
f 395 393 375
f 395 375 377
f 393 391 373
f 393 373 375
f 391 390 372
f 391 372 373
f 390 403 385
f 390 385 372
f 403 404 386
f 403 386 385
f 404 433 386
f 434 387 369
f 387 381 363
f 387 363 369
f 381 379 361
f 381 361 363
f 379 377 359
f 379 359 361
f 377 375 357
f 377 357 359
f 375 373 355
f 375 355 357
f 373 372 354
f 373 354 355
f 372 385 367
f 372 367 354
f 385 386 368
f 385 368 367
f 386 433 368
f 434 369 351
f 369 363 345
f 369 345 351
f 363 361 343
f 363 343 345
f 361 359 341
f 361 341 343
f 359 357 339
f 359 339 341
f 357 355 337
f 357 337 339
f 355 354 336
f 355 336 337
f 354 367 349
f 354 349 336
f 367 368 350
f 367 350 349
f 368 433 350
f 434 351 333
f 351 345 327
f 351 327 333
f 345 343 325
f 345 325 327
f 343 341 323
f 343 323 325
f 341 339 321
f 341 321 323
f 339 337 319
f 339 319 321
f 337 336 318
f 337 318 319
f 336 349 331
f 336 331 318
f 349 350 332
f 349 332 331
f 350 433 332
f 434 333 315
f 333 327 309
f 333 309 315
f 327 325 307
f 327 307 309
f 325 323 305
f 325 305 307
f 323 321 303
f 323 303 305
f 321 319 301
f 321 301 303
f 319 318 300
f 319 300 301
f 318 331 313
f 318 313 300
f 331 332 314
f 331 314 313
f 332 433 314
f 434 315 297
f 315 309 291
f 315 291 297
f 309 307 289
f 309 289 291
f 307 305 287
f 307 287 289
f 305 303 285
f 305 285 287
f 303 301 283
f 303 283 285
f 301 300 282
f 301 282 283
f 300 313 295
f 300 295 282
f 313 314 296
f 313 296 295
f 314 433 296
f 434 297 279
f 297 291 273
f 297 273 279
f 291 289 271
f 291 271 273
f 289 287 269
f 289 269 271
f 287 285 267
f 287 267 269
f 285 283 265
f 285 265 267
f 283 282 264
f 283 264 265
f 282 295 277
f 282 277 264
f 295 296 278
f 295 278 277
f 296 433 278
f 434 279 261
f 279 273 255
f 279 255 261
f 273 271 253
f 273 253 255
f 271 269 251
f 271 251 253
f 269 267 249
f 269 249 251
f 267 265 247
f 267 247 249
f 265 264 246
f 265 246 247
f 264 277 259
f 264 259 246
f 277 278 260
f 277 260 259
f 278 433 260
f 434 261 243
f 261 255 237
f 261 237 243
f 255 253 235
f 255 235 237
f 253 251 233
f 253 233 235
f 251 249 231
f 251 231 233
f 249 247 229
f 249 229 231
f 247 246 228
f 247 228 229
f 246 259 241
f 246 241 228
f 259 260 242
f 259 242 241
f 260 433 242
f 434 243 225
f 243 237 219
f 243 219 225
f 237 235 217
f 237 217 219
f 235 233 215
f 235 215 217
f 233 231 213
f 233 213 215
f 231 229 211
f 231 211 213
f 229 228 210
f 229 210 211
f 228 241 223
f 228 223 210
f 241 242 224
f 241 224 223
f 242 433 224
f 434 225 207
f 225 219 201
f 225 201 207
f 219 217 199
f 219 199 201
f 217 215 197
f 217 197 199
f 215 213 195
f 215 195 197
f 213 211 193
f 213 193 195
f 211 210 192
f 211 192 193
f 210 223 205
f 210 205 192
f 223 224 206
f 223 206 205
f 224 433 206
f 434 207 189
f 207 201 183
f 207 183 189
f 201 199 181
f 201 181 183
f 199 197 179
f 199 179 181
f 197 195 171
f 197 171 179
f 195 193 169
f 195 169 171
f 193 192 168
f 193 168 169
f 192 205 187
f 192 187 168
f 205 206 188
f 205 188 187
f 206 433 188
f 434 189 177
f 189 183 165
f 189 165 177
f 183 181 163
f 183 163 165
f 181 179 155
f 181 155 163
f 179 171 153
f 179 153 155
f 171 169 151
f 171 151 153
f 169 168 150
f 169 150 151
f 168 187 175
f 168 175 150
f 187 188 176
f 187 176 175
f 188 433 176
f 434 177 161
f 177 165 147
f 177 147 161
f 165 163 145
f 165 145 147
f 163 155 137
f 163 137 145
f 155 153 135
f 155 135 137
f 153 151 131
f 153 131 135
f 151 150 130
f 151 130 131
f 150 175 159
f 150 159 130
f 175 176 160
f 175 160 159
f 176 433 160
f 434 161 143
f 161 147 133
f 161 133 143
f 147 145 121
f 147 121 133
f 145 137 119
f 145 119 121
f 137 135 115
f 137 115 119
f 135 131 113
f 135 113 115
f 131 130 112
f 131 112 113
f 130 159 141
f 130 141 112
f 159 160 142
f 159 142 141
f 160 433 142
f 434 143 127
f 143 133 117
f 143 117 127
f 133 121 103
f 133 103 117
f 121 119 99
f 121 99 103
f 119 115 91
f 119 91 99
f 115 113 89
f 115 89 91
f 113 112 88
f 113 88 89
f 112 141 125
f 112 125 88
f 141 142 126
f 141 126 125
f 142 433 126
f 434 127 109
f 127 117 101
f 127 101 109
f 117 103 85
f 117 85 101
f 103 99 75
f 103 75 85
f 99 91 67
f 99 67 75
f 91 89 55
f 91 55 67
f 89 88 54
f 89 54 55
f 88 125 107
f 88 107 54
f 125 126 108
f 125 108 107
f 126 433 108
f 434 109 97
f 109 101 77
f 109 77 97
f 101 85 65
f 101 65 77
f 85 75 46
f 85 46 65
f 75 67 40
f 75 40 46
f 67 55 37
f 67 37 40
f 55 54 36
f 55 36 37
f 54 107 95
f 54 95 36
f 107 108 96
f 107 96 95
f 108 433 96
f 434 97 83
f 97 77 63
f 97 63 83
f 77 65 44
f 77 44 63
f 65 46 31
f 65 31 44
f 46 40 27
f 46 27 31
f 40 37 24
f 40 24 27
f 37 36 23
f 37 23 24
f 36 95 81
f 36 81 23
f 95 96 82
f 95 82 81
f 96 433 82
f 434 83 73
f 83 63 48
f 83 48 73
f 63 44 33
f 63 33 48
f 44 31 20
f 44 20 33
f 31 27 16
f 31 16 20
f 27 24 13
f 27 13 16
f 24 23 12
f 24 12 13
f 23 81 71
f 23 71 12
f 81 82 72
f 81 72 71
f 82 433 72
f 434 73 61
f 73 48 42
f 73 42 61
f 48 33 29
f 48 29 42
f 33 20 18
f 33 18 29
f 20 16 9
f 20 9 18
f 16 13 6
f 16 6 9
f 13 12 5
f 13 5 6
f 12 71 59
f 12 59 5
f 71 72 60
f 71 60 59
f 72 433 60
f 434 61 51
f 61 42 38
f 61 38 51
f 42 29 25
f 42 25 38
f 29 18 14
f 29 14 25
f 18 9 7
f 18 7 14
f 9 6 2
f 9 2 7
f 6 5 1
f 6 1 2
f 5 59 49
f 5 49 1
f 59 60 50
f 59 50 49
f 60 433 50
f 434 51 58
f 51 38 41
f 51 41 58
f 38 25 28
f 38 28 41
f 25 14 17
f 25 17 28
f 14 7 8
f 14 8 17
f 7 2 4
f 7 4 8
f 2 1 3
f 2 3 4
f 1 49 56
f 1 56 3
f 49 50 57
f 49 57 56
f 50 433 57
f 434 58 70
f 58 41 47
f 58 47 70
f 41 28 32
f 41 32 47
f 28 17 19
f 28 19 32
f 17 8 15
f 17 15 19
f 8 4 11
f 8 11 15
f 4 3 10
f 4 10 11
f 3 56 68
f 3 68 10
f 56 57 69
f 56 69 68
f 57 433 69
f 434 70 80
f 70 47 62
f 70 62 80
f 47 32 43
f 47 43 62
f 32 19 30
f 32 30 43
f 19 15 26
f 19 26 30
f 15 11 22
f 15 22 26
f 11 10 21
f 11 21 22
f 10 68 78
f 10 78 21
f 68 69 79
f 68 79 78
f 69 433 79
f 434 80 94
f 80 62 76
f 80 76 94
f 62 43 64
f 62 64 76
f 43 30 45
f 43 45 64
f 30 26 39
f 30 39 45
f 26 22 35
f 26 35 39
f 22 21 34
f 22 34 35
f 21 78 92
f 21 92 34
f 78 79 93
f 78 93 92
f 79 433 93
f 434 94 106
f 94 76 100
f 94 100 106
f 76 64 84
f 76 84 100
f 64 45 74
f 64 74 84
f 45 39 66
f 45 66 74
f 39 35 53
f 39 53 66
f 35 34 52
f 35 52 53
f 34 92 104
f 34 104 52
f 92 93 105
f 92 105 104
f 93 433 105
f 434 106 124
f 106 100 116
f 106 116 124
f 100 84 102
f 100 102 116
f 84 74 98
f 84 98 102
f 74 66 90
f 74 90 98
f 66 53 87
f 66 87 90
f 53 52 86
f 53 86 87
f 52 104 122
f 52 122 86
f 104 105 123
f 104 123 122
f 105 433 123
f 434 124 140
f 124 116 132
f 124 132 140
f 116 102 120
f 116 120 132
f 102 98 118
f 102 118 120
f 98 90 114
f 98 114 118
f 90 87 111
f 90 111 114
f 87 86 110
f 87 110 111
f 86 122 138
f 86 138 110
f 122 123 139
f 122 139 138
f 123 433 139
f 434 140 158
f 140 132 146
f 140 146 158
f 132 120 144
f 132 144 146
f 120 118 136
f 120 136 144
f 118 114 134
f 118 134 136
f 114 111 129
f 114 129 134
f 111 110 128
f 111 128 129
f 110 138 156
f 110 156 128
f 138 139 157
f 138 157 156
f 139 433 157
f 434 158 174
f 158 146 164
f 158 164 174
f 146 144 162
f 146 162 164
f 144 136 154
f 144 154 162
f 136 134 152
f 136 152 154
f 134 129 149
f 134 149 152
f 129 128 148
f 129 148 149
f 128 156 172
f 128 172 148
f 156 157 173
f 156 173 172
f 157 433 173
f 434 174 186
f 174 164 182
f 174 182 186
f 164 162 180
f 164 180 182
f 162 154 178
f 162 178 180
f 154 152 170
f 154 170 178
f 152 149 167
f 152 167 170
f 149 148 166
f 149 166 167
f 148 172 184
f 148 184 166
f 172 173 185
f 172 185 184
f 173 433 185
f 434 186 204
f 186 182 200
f 186 200 204
f 182 180 198
f 182 198 200
f 180 178 196
f 180 196 198
f 178 170 194
f 178 194 196
f 170 167 191
f 170 191 194
f 167 166 190
f 167 190 191
f 166 184 202
f 166 202 190
f 184 185 203
f 184 203 202
f 185 433 203
f 434 204 222
f 204 200 218
f 204 218 222
f 200 198 216
f 200 216 218
f 198 196 214
f 198 214 216
f 196 194 212
f 196 212 214
f 194 191 209
f 194 209 212
f 191 190 208
f 191 208 209
f 190 202 220
f 190 220 208
f 202 203 221
f 202 221 220
f 203 433 221
f 434 222 240
f 222 218 236
f 222 236 240
f 218 216 234
f 218 234 236
f 216 214 232
f 216 232 234
f 214 212 230
f 214 230 232
f 212 209 227
f 212 227 230
f 209 208 226
f 209 226 227
f 208 220 238
f 208 238 226
f 220 221 239
f 220 239 238
f 221 433 239
f 434 240 258
f 240 236 254
f 240 254 258
f 236 234 252
f 236 252 254
f 234 232 250
f 234 250 252
f 232 230 248
f 232 248 250
f 230 227 245
f 230 245 248
f 227 226 244
f 227 244 245
f 226 238 256
f 226 256 244
f 238 239 257
f 238 257 256
f 239 433 257
f 434 258 276
f 258 254 272
f 258 272 276
f 254 252 270
f 254 270 272
f 252 250 268
f 252 268 270
f 250 248 266
f 250 266 268
f 248 245 263
f 248 263 266
f 245 244 262
f 245 262 263
f 244 256 274
f 244 274 262
f 256 257 275
f 256 275 274
f 257 433 275
f 434 276 294
f 276 272 290
f 276 290 294
f 272 270 288
f 272 288 290
f 270 268 286
f 270 286 288
f 268 266 284
f 268 284 286
f 266 263 281
f 266 281 284
f 263 262 280
f 263 280 281
f 262 274 292
f 262 292 280
f 274 275 293
f 274 293 292
f 275 433 293
f 434 294 312
f 294 290 308
f 294 308 312
f 290 288 306
f 290 306 308
f 288 286 304
f 288 304 306
f 286 284 302
f 286 302 304
f 284 281 299
f 284 299 302
f 281 280 298
f 281 298 299
f 280 292 310
f 280 310 298
f 292 293 311
f 292 311 310
f 293 433 311
f 434 312 330
f 312 308 326
f 312 326 330
f 308 306 324
f 308 324 326
f 306 304 322
f 306 322 324
f 304 302 320
f 304 320 322
f 302 299 317
f 302 317 320
f 299 298 316
f 299 316 317
f 298 310 328
f 298 328 316
f 310 311 329
f 310 329 328
f 311 433 329
f 434 330 348
f 330 326 344
f 330 344 348
f 326 324 342
f 326 342 344
f 324 322 340
f 324 340 342
f 322 320 338
f 322 338 340
f 320 317 335
f 320 335 338
f 317 316 334
f 317 334 335
f 316 328 346
f 316 346 334
f 328 329 347
f 328 347 346
f 329 433 347
f 434 348 366
f 348 344 362
f 348 362 366
f 344 342 360
f 344 360 362
f 342 340 358
f 342 358 360
f 340 338 356
f 340 356 358
f 338 335 353
f 338 353 356
f 335 334 352
f 335 352 353
f 334 346 364
f 334 364 352
f 346 347 365
f 346 365 364
f 347 433 365
f 434 366 384
f 366 362 380
f 366 380 384
f 362 360 378
f 362 378 380
f 360 358 376
f 360 376 378
f 358 356 374
f 358 374 376
f 356 353 371
f 356 371 374
f 353 352 370
f 353 370 371
f 352 364 382
f 352 382 370
f 364 365 383
f 364 383 382
f 365 433 383
f 434 384 402
f 384 380 398
f 384 398 402
f 380 378 396
f 380 396 398
f 378 376 394
f 378 394 396
f 376 374 392
f 376 392 394
f 374 371 389
f 374 389 392
f 371 370 388
f 371 388 389
f 370 382 400
f 370 400 388
f 382 383 401
f 382 401 400
f 383 433 401
f 434 402 420
f 402 398 416
f 402 416 420
f 398 396 414
f 398 414 416
f 396 394 412
f 396 412 414
f 394 392 408
f 394 408 412
f 392 389 407
f 392 407 408
f 389 388 406
f 389 406 407
f 388 400 418
f 388 418 406
f 400 401 419
f 400 419 418
f 401 433 419
f 434 420 432
f 420 416 429
f 420 429 432
f 416 414 428
f 416 428 429
f 414 412 427
f 414 427 428
f 412 408 426
f 412 426 427
f 408 407 425
f 408 425 426
f 407 406 424
f 407 424 425
f 406 418 430
f 406 430 424
f 418 419 431
f 418 431 430
f 419 433 431
f 434 432 446
f 432 429 450
f 432 450 446
f 429 428 452
f 429 452 450
f 428 427 454
f 428 454 452
f 427 426 458
f 427 458 454
f 426 425 457
f 426 457 458
f 425 424 456
f 425 456 457
f 424 430 444
f 424 444 456
f 430 431 445
f 430 445 444
f 431 433 445
f 434 446 464
f 446 450 468
f 446 468 464
f 450 452 470
f 450 470 468
f 452 454 472
f 452 472 470
f 454 458 474
f 454 474 472
f 458 457 477
f 458 477 474
f 457 456 476
f 457 476 477
f 456 444 462
f 456 462 476
f 444 445 463
f 444 463 462
f 445 433 463
f 434 464 482
f 464 468 486
f 464 486 482
f 468 470 488
f 468 488 486
f 470 472 490
f 470 490 488
f 472 474 492
f 472 492 490
f 474 477 495
f 474 495 492
f 477 476 494
f 477 494 495
f 476 462 480
f 476 480 494
f 462 463 481
f 462 481 480
f 463 433 481
f 434 482 500
f 482 486 504
f 482 504 500
f 486 488 506
f 486 506 504
f 488 490 508
f 488 508 506
f 490 492 510
f 490 510 508
f 492 495 513
f 492 513 510
f 495 494 512
f 495 512 513
f 494 480 498
f 494 498 512
f 480 481 499
f 480 499 498
f 481 433 499
f 434 500 518
f 500 504 522
f 500 522 518
f 504 506 524
f 504 524 522
f 506 508 526
f 506 526 524
f 508 510 528
f 508 528 526
f 510 513 531
f 510 531 528
f 513 512 530
f 513 530 531
f 512 498 516
f 512 516 530
f 498 499 517
f 498 517 516
f 499 433 517
f 434 518 536
f 518 522 540
f 518 540 536
f 522 524 542
f 522 542 540
f 524 526 544
f 524 544 542
f 526 528 546
f 526 546 544
f 528 531 549
f 528 549 546
f 531 530 548
f 531 548 549
f 530 516 534
f 530 534 548
f 516 517 535
f 516 535 534
f 517 433 535
f 434 536 554
f 536 540 558
f 536 558 554
f 540 542 560
f 540 560 558
f 542 544 562
f 542 562 560
f 544 546 564
f 544 564 562
f 546 549 567
f 546 567 564
f 549 548 566
f 549 566 567
f 548 534 552
f 548 552 566
f 534 535 553
f 534 553 552
f 535 433 553
f 434 554 572
f 554 558 576
f 554 576 572
f 558 560 578
f 558 578 576
f 560 562 580
f 560 580 578
f 562 564 582
f 562 582 580
f 564 567 585
f 564 585 582
f 567 566 584
f 567 584 585
f 566 552 570
f 566 570 584
f 552 553 571
f 552 571 570
f 553 433 571
f 434 572 590
f 572 576 594
f 572 594 590
f 576 578 596
f 576 596 594
f 578 580 598
f 578 598 596
f 580 582 600
f 580 600 598
f 582 585 603
f 582 603 600
f 585 584 602
f 585 602 603
f 584 570 588
f 584 588 602
f 570 571 589
f 570 589 588
f 571 433 589
f 434 590 608
f 590 594 612
f 590 612 608
f 594 596 614
f 594 614 612
f 596 598 616
f 596 616 614
f 598 600 618
f 598 618 616
f 600 603 621
f 600 621 618
f 603 602 620
f 603 620 621
f 602 588 606
f 602 606 620
f 588 589 607
f 588 607 606
f 589 433 607
f 434 608 626
f 608 612 630
f 608 630 626
f 612 614 632
f 612 632 630
f 614 616 634
f 614 634 632
f 616 618 636
f 616 636 634
f 618 621 639
f 618 639 636
f 621 620 638
f 621 638 639
f 620 606 624
f 620 624 638
f 606 607 625
f 606 625 624
f 607 433 625
f 434 626 644
f 626 630 648
f 626 648 644
f 630 632 650
f 630 650 648
f 632 634 652
f 632 652 650
f 634 636 654
f 634 654 652
f 636 639 657
f 636 657 654
f 639 638 656
f 639 656 657
f 638 624 642
f 638 642 656
f 624 625 643
f 624 643 642
f 625 433 643
f 434 644 662
f 644 648 666
f 644 666 662
f 648 650 668
f 648 668 666
f 650 652 670
f 650 670 668
f 652 654 672
f 652 672 670
f 654 657 675
f 654 675 672
f 657 656 674
f 657 674 675
f 656 642 660
f 656 660 674
f 642 643 661
f 642 661 660
f 643 433 661
f 434 662 680
f 662 666 684
f 662 684 680
f 666 668 686
f 666 686 684
f 668 670 688
f 668 688 686
f 670 672 696
f 670 696 688
f 672 675 699
f 672 699 696
f 675 674 698
f 675 698 699
f 674 660 678
f 674 678 698
f 660 661 679
f 660 679 678
f 661 433 679
f 434 680 692
f 680 684 702
f 680 702 692
f 684 686 704
f 684 704 702
f 686 688 712
f 686 712 704
f 688 696 714
f 688 714 712
f 696 699 717
f 696 717 714
f 699 698 716
f 699 716 717
f 698 678 690
f 698 690 716
f 678 679 691
f 678 691 690
f 679 433 691
f 434 692 708
f 692 702 720
f 692 720 708
f 702 704 722
f 702 722 720
f 704 712 730
f 704 730 722
f 712 714 732
f 712 732 730
f 714 717 737
f 714 737 732
f 717 716 736
f 717 736 737
f 716 690 706
f 716 706 736
f 690 691 707
f 690 707 706
f 691 433 707
f 434 708 726
f 708 720 734
f 708 734 726
f 720 722 746
f 720 746 734
f 722 730 748
f 722 748 746
f 730 732 752
f 730 752 748
f 732 737 755
f 732 755 752
f 737 736 754
f 737 754 755
f 736 706 724
f 736 724 754
f 706 707 725
f 706 725 724
f 707 433 725
f 434 726 742
f 726 734 750
f 726 750 742
f 734 746 764
f 734 764 750
f 746 748 768
f 746 768 764
f 748 752 776
f 748 776 768
f 752 755 779
f 752 779 776
f 755 754 778
f 755 778 779
f 754 724 740
f 754 740 778
f 724 725 741
f 724 741 740
f 725 433 741
f 434 742 760
f 742 750 766
f 742 766 760
f 750 764 782
f 750 782 766
f 764 768 792
f 764 792 782
f 768 776 800
f 768 800 792
f 776 779 813
f 776 813 800
f 779 778 812
f 779 812 813
f 778 740 758
f 778 758 812
f 740 741 759
f 740 759 758
f 741 433 759
f 434 760 772
f 760 766 790
f 760 790 772
f 766 782 802
f 766 802 790
f 782 792 821
f 782 821 802
f 792 800 827
f 792 827 821
f 800 813 831
f 800 831 827
f 813 812 830
f 813 830 831
f 812 758 770
f 812 770 830
f 758 759 771
f 758 771 770
f 759 433 771
f 434 772 786
f 772 790 804
f 772 804 786
f 790 802 823
f 790 823 804
f 802 821 836
f 802 836 823
f 821 827 840
f 821 840 836
f 827 831 844
f 827 844 840
f 831 830 843
f 831 843 844
f 830 770 784
f 830 784 843
f 770 771 785
f 770 785 784
f 771 433 785
f 434 786 796
f 786 804 819
f 786 819 796
f 804 823 834
f 804 834 819
f 823 836 847
f 823 847 834
f 836 840 851
f 836 851 847
f 840 844 855
f 840 855 851
f 844 843 854
f 844 854 855
f 843 784 794
f 843 794 854
f 784 785 795
f 784 795 794
f 785 433 795
f 434 796 808
f 796 819 825
f 796 825 808
f 819 834 838
f 819 838 825
f 834 847 849
f 834 849 838
f 847 851 858
f 847 858 849
f 851 855 862
f 851 862 858
f 855 854 861
f 855 861 862
f 854 794 806
f 854 806 861
f 794 795 807
f 794 807 806
f 795 433 807
f 434 808 818
f 808 825 829
f 808 829 818
f 825 838 842
f 825 842 829
f 838 849 853
f 838 853 842
f 849 858 860
f 849 860 853
f 858 862 866
f 858 866 860
f 862 861 865
f 862 865 866
f 861 806 816
f 861 816 865
f 806 807 817
f 806 817 816
f 807 433 817
