v -0.008310 -0.011226 0.005080
v -0.008310 -0.011226 0.041849
v -0.007857 -0.011548 0.005080
v -0.007857 -0.011548 0.041849
v -0.007391 -0.011852 0.005080
v -0.007391 -0.011852 0.041849
v -0.006913 -0.012137 0.005080
v -0.006913 -0.012137 0.041849
v -0.006424 -0.012402 0.005080
v -0.006424 -0.012402 0.041849
v -0.005925 -0.012648 0.005080
v -0.005925 -0.012648 0.041849
v -0.005417 -0.012874 0.005080
v -0.005417 -0.012874 0.041849
v -0.004900 -0.013079 0.005080
v -0.004900 -0.013079 0.041849
v -0.004375 -0.013264 0.005080
v -0.004375 -0.013264 0.041849
v -0.003844 -0.013428 0.005080
v -0.003844 -0.013428 0.041849
v -0.003306 -0.013570 0.005080
v -0.003306 -0.013570 0.041849
v -0.002763 -0.013691 0.005080
v -0.002763 -0.013691 0.041849
v -0.002216 -0.013790 0.005080
v -0.002216 -0.013790 0.041849
v -0.001665 -0.013868 0.005080
v -0.001665 -0.013868 0.041849
v -0.001111 -0.013923 0.005080
v -0.001111 -0.013923 0.041849
v -0.000556 -0.013956 0.005080
v -0.000556 -0.013956 0.041849
v 0.000000 -0.013967 0.005080
v 0.000000 -0.013967 0.041849
v 0.000556 -0.013956 0.005080
v 0.000556 -0.013956 0.041849
v 0.001111 -0.013923 0.005080
v 0.001111 -0.013923 0.041849
v 0.001665 -0.013868 0.005080
v 0.001665 -0.013868 0.041849
v 0.002216 -0.013790 0.005080
v 0.002216 -0.013790 0.041849
v 0.002763 -0.013691 0.005080
v 0.002763 -0.013691 0.041849
v 0.003306 -0.013570 0.005080
v 0.003306 -0.013570 0.041849
v 0.003844 -0.013428 0.005080
v 0.003844 -0.013428 0.041849
v 0.004375 -0.013264 0.005080
v 0.004375 -0.013264 0.041849
v 0.004900 -0.013079 0.005080
v 0.004900 -0.013079 0.041849
v 0.005417 -0.012874 0.005080
v 0.005417 -0.012874 0.041849
v 0.005925 -0.012648 0.005080
v 0.005925 -0.012648 0.041849
v 0.006424 -0.012402 0.005080
v 0.006424 -0.012402 0.041849
v 0.006913 -0.012137 0.005080
v 0.006913 -0.012137 0.041849
v 0.007391 -0.011852 0.005080
v 0.007391 -0.011852 0.041849
v 0.007857 -0.011548 0.005080
v 0.007857 -0.011548 0.041849
v 0.008310 -0.011226 0.005080
v 0.008310 -0.011226 0.041849
f 4 3 1
f 6 5 3
f 8 7 5
f 10 9 7
f 12 11 9
f 14 13 11
f 16 15 13
f 18 17 15
f 20 19 17
f 22 21 19
f 24 23 21
f 26 25 23
f 28 27 25
f 30 29 27
f 32 31 29
f 34 33 31
f 36 35 33
f 38 37 35
f 40 39 37
f 42 41 39
f 44 43 41
f 46 45 43
f 48 47 45
f 50 49 47
f 52 51 49
f 54 53 51
f 56 55 53
f 58 57 55
f 60 59 57
f 62 61 59
f 64 63 61
f 66 65 63
f 2 4 1
f 4 6 3
f 6 8 5
f 8 10 7
f 10 12 9
f 12 14 11
f 14 16 13
f 16 18 15
f 18 20 17
f 20 22 19
f 22 24 21
f 24 26 23
f 26 28 25
f 28 30 27
f 30 32 29
f 32 34 31
f 34 36 33
f 36 38 35
f 38 40 37
f 40 42 39
f 42 44 41
f 44 46 43
f 46 48 45
f 48 50 47
f 50 52 49
f 52 54 51
f 54 56 53
f 56 58 55
f 58 60 57
f 60 62 59
f 62 64 61
f 64 66 63
