v 0.000000 0.000000 0.072500
v 0.014015 0.000000 0.072500
v 0.013537 0.003627 0.072500
v 0.012137 0.007007 0.072500
v 0.009910 0.009910 0.072500
v 0.007007 0.012137 0.072500
v 0.003627 0.013537 0.072500
v 0.000000 0.014015 0.072500
v -0.003627 0.013537 0.072500
v -0.007007 0.012137 0.072500
v -0.009910 0.009910 0.072500
v -0.012137 0.007007 0.072500
v -0.013537 0.003627 0.072500
v -0.014015 0.000000 0.072500
v -0.013537 -0.003627 0.072500
v -0.012137 -0.007007 0.072500
v -0.009910 -0.009910 0.072500
v -0.007007 -0.012137 0.072500
v -0.003627 -0.013537 0.072500
v -0.000000 -0.014015 0.072500
v 0.003627 -0.013537 0.072500
v 0.007007 -0.012137 0.072500
v 0.009910 -0.009910 0.072500
v 0.012137 -0.007007 0.072500
v 0.013537 -0.003627 0.072500
v 0.014400 0.000000 0.073075
v 0.013909 0.003727 0.073075
v 0.012471 0.007200 0.073075
v 0.010182 0.010182 0.073075
v 0.007200 0.012471 0.073075
v 0.003727 0.013909 0.073075
v 0.000000 0.014400 0.073075
v -0.003727 0.013909 0.073075
v -0.007200 0.012471 0.073075
v -0.010182 0.010182 0.073075
v -0.012471 0.007200 0.073075
v -0.013909 0.003727 0.073075
v -0.014400 0.000000 0.073075
v -0.013909 -0.003727 0.073075
v -0.012471 -0.007200 0.073075
v -0.010182 -0.010182 0.073075
v -0.007200 -0.012471 0.073075
v -0.003727 -0.013909 0.073075
v -0.000000 -0.014400 0.073075
v 0.003727 -0.013909 0.073075
v 0.007200 -0.012471 0.073075
v 0.010182 -0.010182 0.073075
v 0.012471 -0.007200 0.073075
v 0.013909 -0.003727 0.073075
v 0.014400 0.000000 0.076522
v 0.013909 0.003727 0.076522
v 0.012471 0.007200 0.076522
v 0.010182 0.010182 0.076522
v 0.007200 0.012471 0.076522
v 0.003727 0.013909 0.076522
v 0.000000 0.014400 0.076522
v -0.003727 0.013909 0.076522
v -0.007200 0.012471 0.076522
v -0.010182 0.010182 0.076522
v -0.012471 0.007200 0.076522
v -0.013909 0.003727 0.076522
v -0.014400 0.000000 0.076522
v -0.013909 -0.003727 0.076522
v -0.012471 -0.007200 0.076522
v -0.010182 -0.010182 0.076522
v -0.007200 -0.012471 0.076522
v -0.003727 -0.013909 0.076522
v -0.000000 -0.014400 0.076522
v 0.003727 -0.013909 0.076522
v 0.007200 -0.012471 0.076522
v 0.010182 -0.010182 0.076522
v 0.012471 -0.007200 0.076522
v 0.013909 -0.003727 0.076522
v 0.012900 0.000000 0.076637
v 0.012460 0.003339 0.076637
v 0.011172 0.006450 0.076637
v 0.009122 0.009122 0.076637
v 0.006450 0.011172 0.076637
v 0.003339 0.012460 0.076637
v 0.000000 0.012900 0.076637
v -0.003339 0.012460 0.076637
v -0.006450 0.011172 0.076637
v -0.009122 0.009122 0.076637
v -0.011172 0.006450 0.076637
v -0.012460 0.003339 0.076637
v -0.012900 0.000000 0.076637
v -0.012460 -0.003339 0.076637
v -0.011172 -0.006450 0.076637
v -0.009122 -0.009122 0.076637
v -0.006450 -0.011172 0.076637
v -0.003339 -0.012460 0.076637
v -0.000000 -0.012900 0.076637
v 0.003339 -0.012460 0.076637
v 0.006450 -0.011172 0.076637
v 0.009122 -0.009122 0.076637
v 0.011172 -0.006450 0.076637
v 0.012460 -0.003339 0.076637
v 0.012900 0.000000 0.077326
v 0.012460 0.003339 0.077326
v 0.011172 0.006450 0.077326
v 0.009122 0.009122 0.077326
v 0.006450 0.011172 0.077326
v 0.003339 0.012460 0.077326
v 0.000000 0.012900 0.077326
v -0.003339 0.012460 0.077326
v -0.006450 0.011172 0.077326
v -0.009122 0.009122 0.077326
v -0.011172 0.006450 0.077326
v -0.012460 0.003339 0.077326
v -0.012900 0.000000 0.077326
v -0.012460 -0.003339 0.077326
v -0.011172 -0.006450 0.077326
v -0.009122 -0.009122 0.077326
v -0.006450 -0.011172 0.077326
v -0.003339 -0.012460 0.077326
v -0.000000 -0.012900 0.077326
v 0.003339 -0.012460 0.077326
v 0.006450 -0.011172 0.077326
v 0.009122 -0.009122 0.077326
v 0.011172 -0.006450 0.077326
v 0.012460 -0.003339 0.077326
v 0.014000 0.000000 0.077786
v 0.013523 0.003623 0.077786
v 0.012124 0.007000 0.077786
v 0.009899 0.009899 0.077786
v 0.007000 0.012124 0.077786
v 0.003623 0.013523 0.077786
v 0.000000 0.014000 0.077786
v -0.003623 0.013523 0.077786
v -0.007000 0.012124 0.077786
v -0.009899 0.009899 0.077786
v -0.012124 0.007000 0.077786
v -0.013523 0.003623 0.077786
v -0.014000 0.000000 0.077786
v -0.013523 -0.003623 0.077786
v -0.012124 -0.007000 0.077786
v -0.009899 -0.009899 0.077786
v -0.007000 -0.012124 0.077786
v -0.003623 -0.013523 0.077786
v -0.000000 -0.014000 0.077786
v 0.003623 -0.013523 0.077786
v 0.007000 -0.012124 0.077786
v 0.009899 -0.009899 0.077786
v 0.012124 -0.007000 0.077786
v 0.013523 -0.003623 0.077786
v 0.014000 0.000000 0.088817
v 0.013523 0.003623 0.088817
v 0.012124 0.007000 0.088817
v 0.009899 0.009899 0.088817
v 0.007000 0.012124 0.088817
v 0.003623 0.013523 0.088817
v 0.000000 0.014000 0.088817
v -0.003623 0.013523 0.088817
v -0.007000 0.012124 0.088817
v -0.009899 0.009899 0.088817
v -0.012124 0.007000 0.088817
v -0.013523 0.003623 0.088817
v -0.014000 0.000000 0.088817
v -0.013523 -0.003623 0.088817
v -0.012124 -0.007000 0.088817
v -0.009899 -0.009899 0.088817
v -0.007000 -0.012124 0.088817
v -0.003623 -0.013523 0.088817
v -0.000000 -0.014000 0.088817
v 0.003623 -0.013523 0.088817
v 0.007000 -0.012124 0.088817
v 0.009899 -0.009899 0.088817
v 0.012124 -0.007000 0.088817
v 0.013523 -0.003623 0.088817
v 0.012815 0.000000 0.091000
v 0.012378 0.003317 0.091000
v 0.011098 0.006407 0.091000
v 0.009062 0.009062 0.091000
v 0.006407 0.011098 0.091000
v 0.003317 0.012378 0.091000
v 0.000000 0.012815 0.091000
v -0.003317 0.012378 0.091000
v -0.006407 0.011098 0.091000
v -0.009062 0.009062 0.091000
v -0.011098 0.006407 0.091000
v -0.012378 0.003317 0.091000
v -0.012815 0.000000 0.091000
v -0.012378 -0.003317 0.091000
v -0.011098 -0.006407 0.091000
v -0.009062 -0.009062 0.091000
v -0.006407 -0.011098 0.091000
v -0.003317 -0.012378 0.091000
v -0.000000 -0.012815 0.091000
v 0.003317 -0.012378 0.091000
v 0.006407 -0.011098 0.091000
v 0.009062 -0.009062 0.091000
v 0.011098 -0.006407 0.091000
v 0.012378 -0.003317 0.091000
v 0.000000 0.000000 0.091000
f 1 3 2
f 1 4 3
f 1 5 4
f 1 6 5
f 1 7 6
f 1 8 7
f 1 9 8
f 1 10 9
f 1 11 10
f 1 12 11
f 1 13 12
f 1 14 13
f 1 15 14
f 1 16 15
f 1 17 16
f 1 18 17
f 1 19 18
f 1 20 19
f 1 21 20
f 1 22 21
f 1 23 22
f 1 24 23
f 1 25 24
f 1 2 25
f 2 3 27
f 2 27 26
f 3 4 28
f 3 28 27
f 4 5 29
f 4 29 28
f 5 6 30
f 5 30 29
f 6 7 31
f 6 31 30
f 7 8 32
f 7 32 31
f 8 9 33
f 8 33 32
f 9 10 34
f 9 34 33
f 10 11 35
f 10 35 34
f 11 12 36
f 11 36 35
f 12 13 37
f 12 37 36
f 13 14 38
f 13 38 37
f 14 15 39
f 14 39 38
f 15 16 40
f 15 40 39
f 16 17 41
f 16 41 40
f 17 18 42
f 17 42 41
f 18 19 43
f 18 43 42
f 19 20 44
f 19 44 43
f 20 21 45
f 20 45 44
f 21 22 46
f 21 46 45
f 22 23 47
f 22 47 46
f 23 24 48
f 23 48 47
f 24 25 49
f 24 49 48
f 25 2 26
f 25 26 49
f 26 27 51
f 26 51 50
f 27 28 52
f 27 52 51
f 28 29 53
f 28 53 52
f 29 30 54
f 29 54 53
f 30 31 55
f 30 55 54
f 31 32 56
f 31 56 55
f 32 33 57
f 32 57 56
f 33 34 58
f 33 58 57
f 34 35 59
f 34 59 58
f 35 36 60
f 35 60 59
f 36 37 61
f 36 61 60
f 37 38 62
f 37 62 61
f 38 39 63
f 38 63 62
f 39 40 64
f 39 64 63
f 40 41 65
f 40 65 64
f 41 42 66
f 41 66 65
f 42 43 67
f 42 67 66
f 43 44 68
f 43 68 67
f 44 45 69
f 44 69 68
f 45 46 70
f 45 70 69
f 46 47 71
f 46 71 70
f 47 48 72
f 47 72 71
f 48 49 73
f 48 73 72
f 49 26 50
f 49 50 73
f 50 51 75
f 50 75 74
f 51 52 76
f 51 76 75
f 52 53 77
f 52 77 76
f 53 54 78
f 53 78 77
f 54 55 79
f 54 79 78
f 55 56 80
f 55 80 79
f 56 57 81
f 56 81 80
f 57 58 82
f 57 82 81
f 58 59 83
f 58 83 82
f 59 60 84
f 59 84 83
f 60 61 85
f 60 85 84
f 61 62 86
f 61 86 85
f 62 63 87
f 62 87 86
f 63 64 88
f 63 88 87
f 64 65 89
f 64 89 88
f 65 66 90
f 65 90 89
f 66 67 91
f 66 91 90
f 67 68 92
f 67 92 91
f 68 69 93
f 68 93 92
f 69 70 94
f 69 94 93
f 70 71 95
f 70 95 94
f 71 72 96
f 71 96 95
f 72 73 97
f 72 97 96
f 73 50 74
f 73 74 97
f 74 75 99
f 74 99 98
f 75 76 100
f 75 100 99
f 76 77 101
f 76 101 100
f 77 78 102
f 77 102 101
f 78 79 103
f 78 103 102
f 79 80 104
f 79 104 103
f 80 81 105
f 80 105 104
f 81 82 106
f 81 106 105
f 82 83 107
f 82 107 106
f 83 84 108
f 83 108 107
f 84 85 109
f 84 109 108
f 85 86 110
f 85 110 109
f 86 87 111
f 86 111 110
f 87 88 112
f 87 112 111
f 88 89 113
f 88 113 112
f 89 90 114
f 89 114 113
f 90 91 115
f 90 115 114
f 91 92 116
f 91 116 115
f 92 93 117
f 92 117 116
f 93 94 118
f 93 118 117
f 94 95 119
f 94 119 118
f 95 96 120
f 95 120 119
f 96 97 121
f 96 121 120
f 97 74 98
f 97 98 121
f 98 99 123
f 98 123 122
f 99 100 124
f 99 124 123
f 100 101 125
f 100 125 124
f 101 102 126
f 101 126 125
f 102 103 127
f 102 127 126
f 103 104 128
f 103 128 127
f 104 105 129
f 104 129 128
f 105 106 130
f 105 130 129
f 106 107 131
f 106 131 130
f 107 108 132
f 107 132 131
f 108 109 133
f 108 133 132
f 109 110 134
f 109 134 133
f 110 111 135
f 110 135 134
f 111 112 136
f 111 136 135
f 112 113 137
f 112 137 136
f 113 114 138
f 113 138 137
f 114 115 139
f 114 139 138
f 115 116 140
f 115 140 139
f 116 117 141
f 116 141 140
f 117 118 142
f 117 142 141
f 118 119 143
f 118 143 142
f 119 120 144
f 119 144 143
f 120 121 145
f 120 145 144
f 121 98 122
f 121 122 145
f 122 123 147
f 122 147 146
f 123 124 148
f 123 148 147
f 124 125 149
f 124 149 148
f 125 126 150
f 125 150 149
f 126 127 151
f 126 151 150
f 127 128 152
f 127 152 151
f 128 129 153
f 128 153 152
f 129 130 154
f 129 154 153
f 130 131 155
f 130 155 154
f 131 132 156
f 131 156 155
f 132 133 157
f 132 157 156
f 133 134 158
f 133 158 157
f 134 135 159
f 134 159 158
f 135 136 160
f 135 160 159
f 136 137 161
f 136 161 160
f 137 138 162
f 137 162 161
f 138 139 163
f 138 163 162
f 139 140 164
f 139 164 163
f 140 141 165
f 140 165 164
f 141 142 166
f 141 166 165
f 142 143 167
f 142 167 166
f 143 144 168
f 143 168 167
f 144 145 169
f 144 169 168
f 145 122 146
f 145 146 169
f 146 147 171
f 146 171 170
f 147 148 172
f 147 172 171
f 148 149 173
f 148 173 172
f 149 150 174
f 149 174 173
f 150 151 175
f 150 175 174
f 151 152 176
f 151 176 175
f 152 153 177
f 152 177 176
f 153 154 178
f 153 178 177
f 154 155 179
f 154 179 178
f 155 156 180
f 155 180 179
f 156 157 181
f 156 181 180
f 157 158 182
f 157 182 181
f 158 159 183
f 158 183 182
f 159 160 184
f 159 184 183
f 160 161 185
f 160 185 184
f 161 162 186
f 161 186 185
f 162 163 187
f 162 187 186
f 163 164 188
f 163 188 187
f 164 165 189
f 164 189 188
f 165 166 190
f 165 190 189
f 166 167 191
f 166 191 190
f 167 168 192
f 167 192 191
f 168 169 193
f 168 193 192
f 169 146 170
f 169 170 193
f 170 171 194
f 171 172 194
f 172 173 194
f 173 174 194
f 174 175 194
f 175 176 194
f 176 177 194
f 177 178 194
f 178 179 194
f 179 180 194
f 180 181 194
f 181 182 194
f 182 183 194
f 183 184 194
f 184 185 194
f 185 186 194
f 186 187 194
f 187 188 194
f 188 189 194
f 189 190 194
f 190 191 194
f 191 192 194
f 192 193 194
f 193 170 194
