# https://github.com/mikedh/trimesh
v -0.23212865 0.25636073 0.44375817
v -0.22443806 0.25636073 0.44304867
v -0.22443806 0.25636073 0.44304867
v -0.22207038 0.25636073 0.44572052
v -0.22207038 0.25636073 0.44572052
v -0.23147819 0.25636073 0.44434471
v -0.22933106 0.25636073 0.44676766
v -0.22021258 0.25636073 0.44846590
v -0.22021258 0.25636073 0.44846590
v -0.22764634 0.25636073 0.44925734
v -0.21887686 0.25636073 0.45126688
v -0.21887686 0.25636073 0.45126688
v -0.22643503 0.25636073 0.45179740
v -0.21807189 0.25636073 0.45410511
v -0.21807189 0.25636073 0.45410511
v -0.22570506 0.25636073 0.45437125
v -0.21780300 0.25636073 0.45696202
v -0.21780300 0.25636073 0.45696202
v -0.22546120 0.25636073 0.45696202
v -0.22570506 0.25636073 0.45955280
v -0.21807189 0.25636073 0.45981893
v -0.21807189 0.25636073 0.45981893
v -0.22643503 0.25636073 0.46212665
v -0.21887686 0.25636073 0.46265717
v -0.21887686 0.25636073 0.46265717
v -0.22764634 0.25636073 0.46466670
v -0.22021258 0.25636073 0.46545814
v -0.22021258 0.25636073 0.46545814
v -0.22933106 0.25636073 0.46715638
v -0.22207038 0.25636073 0.46820353
v -0.22207038 0.25636073 0.46820353
v -0.23147819 0.25636073 0.46957934
v -0.22443806 0.25636073 0.47087538
v -0.22443806 0.25636073 0.47087538
v -0.23212865 0.25636073 0.47016587
v -0.30340182 0.25636076 0.47016587
v -0.31119433 0.25636076 0.47094106
v -0.31119433 0.25636076 0.47094106
v -0.30438255 0.25636076 0.46943399
v -0.31399427 0.25636076 0.46829972
v -0.31399427 0.25636076 0.46829972
v -0.30688060 0.25636076 0.46707742
v -0.31619861 0.25636079 0.46555609
v -0.31619861 0.25636079 0.46555609
v -0.30884730 0.25636076 0.46462954
v -0.31778753 0.25636079 0.46273487
v -0.31778753 0.25636079 0.46273487
v -0.31026490 0.25636076 0.46211248
v -0.31874664 0.25636079 0.45986153
v -0.31874664 0.25636079 0.45986153
v -0.31112065 0.25636076 0.45954893
v -0.31140674 0.25636076 0.45696202
v -0.31906733 0.25636079 0.45696202
v -0.31906733 0.25636079 0.45696202
v -0.31112065 0.25636076 0.45437511
v -0.31874664 0.25636079 0.45406252
v -0.31874664 0.25636079 0.45406252
v -0.31026490 0.25636076 0.45181156
v -0.31778753 0.25636079 0.45118917
v -0.31778753 0.25636079 0.45118917
v -0.30884730 0.25636076 0.44929451
v -0.31619861 0.25636079 0.44836796
v -0.31619861 0.25636079 0.44836796
v -0.30688060 0.25636076 0.44684662
v -0.31399427 0.25636076 0.44562432
v -0.31399427 0.25636076 0.44562432
v -0.30438255 0.25636076 0.44449006
v -0.30340182 0.25636076 0.44375817
v -0.31119433 0.25636076 0.44298298
v -0.31119433 0.25636076 0.44298298
v -0.30782413 0.25636076 0.44046782
v -0.30782413 0.25636076 0.44046782
v -0.30782413 0.25636076 0.44046782
v -0.22730014 0.25636073 0.44046782
v -0.22730014 0.25636073 0.44046782
v -0.22730014 0.25636073 0.44046782
v -0.22730014 0.25636073 0.47345622
v -0.22730014 0.25636073 0.47345622
v -0.22730014 0.25636073 0.47345622
v -0.30782413 0.25636076 0.47345622
v -0.30782413 0.25636076 0.47345622
v -0.30782413 0.25636076 0.47345622
v -0.23145202 0.13906933 0.44329704
v -0.22443812 0.13906933 0.44304867
v -0.22443812 0.13906933 0.44304867
v -0.22207044 0.13906933 0.44572052
v -0.22207044 0.13906933 0.44572052
v -0.23049161 0.13906933 0.44416306
v -0.22831357 0.13906933 0.44662094
v -0.22021266 0.13906933 0.44846590
v -0.22021266 0.13906933 0.44846590
v -0.22660458 0.13906933 0.44914643
v -0.21887692 0.13906933 0.45126688
v -0.21887692 0.13906933 0.45126688
v -0.22537583 0.13906933 0.45172304
v -0.21807196 0.13906933 0.45410511
v -0.21807196 0.13906933 0.45410511
v -0.22463536 0.13906933 0.45433393
v -0.21780306 0.13906933 0.45696202
v -0.21780306 0.13906933 0.45696202
v -0.22438799 0.13906933 0.45696202
v -0.21807196 0.13906933 0.45981893
v -0.21807196 0.13906933 0.45981893
v -0.22463536 0.13906933 0.45959012
v -0.22537583 0.13906933 0.46220101
v -0.21887692 0.13906933 0.46265717
v -0.21887692 0.13906933 0.46265717
v -0.22660458 0.13906933 0.46477762
v -0.22021266 0.13906933 0.46545814
v -0.22021266 0.13906933 0.46545814
v -0.22831357 0.13906933 0.46730311
v -0.22207044 0.13906933 0.46820353
v -0.22207044 0.13906933 0.46820353
v -0.23049161 0.13906933 0.46976099
v -0.22443812 0.13906933 0.47087538
v -0.22443812 0.13906933 0.47087538
v -0.23145202 0.13906933 0.47062700
v -0.30402167 0.13906937 0.47062700
v -0.31119439 0.13906937 0.47094106
v -0.31119439 0.13906937 0.47094106
v -0.30533725 0.13906937 0.46964520
v -0.31399433 0.13906937 0.46829972
v -0.31399433 0.13906937 0.46829972
v -0.30787761 0.13906937 0.46724871
v -0.31619868 0.13906937 0.46555609
v -0.31619868 0.13906937 0.46555609
v -0.30987764 0.13906937 0.46475940
v -0.31778759 0.13906937 0.46273487
v -0.31778759 0.13906937 0.46273487
v -0.31131926 0.13906937 0.46219972
v -0.31874670 0.13906937 0.45986153
v -0.31874670 0.13906937 0.45986153
v -0.31218947 0.13906937 0.45959272
v -0.31906739 0.13906937 0.45696202
v -0.31906739 0.13906937 0.45696202
v -0.31248041 0.13906937 0.45696202
v -0.31218947 0.13906937 0.45433132
v -0.31874670 0.13906937 0.45406252
v -0.31874670 0.13906937 0.45406252
v -0.31131926 0.13906937 0.45172432
v -0.31778759 0.13906937 0.45118917
v -0.31778759 0.13906937 0.45118917
v -0.30987764 0.13906937 0.44916464
v -0.31619868 0.13906937 0.44836796
v -0.31619868 0.13906937 0.44836796
v -0.30787761 0.13906937 0.44667533
v -0.31399433 0.13906937 0.44562432
v -0.31399433 0.13906937 0.44562432
v -0.30533725 0.13906937 0.44427884
v -0.30402167 0.13906937 0.44329704
v -0.31119439 0.13906937 0.44298298
v -0.31119439 0.13906937 0.44298298
v -0.30782420 0.13906937 0.44046782
v -0.30782420 0.13906937 0.44046782
v -0.30782420 0.13906937 0.44046782
v -0.22730020 0.13906933 0.44046782
v -0.22730020 0.13906933 0.44046782
v -0.22730020 0.13906933 0.44046782
v -0.22730020 0.13906933 0.47345622
v -0.22730020 0.13906933 0.47345622
v -0.22730020 0.13906933 0.47345622
v -0.30782420 0.13906937 0.47345622
v -0.30782420 0.13906937 0.47345622
v -0.30782420 0.13906937 0.47345622
v -0.35617477 0.12901469 0.41124209
v -0.18455720 0.12901469 0.41124209
v -0.18455720 0.12901469 0.41124209
v -0.18455720 0.12901469 0.44046782
v -0.35617477 0.24603185 0.41124209
v -0.18455720 0.24603185 0.44046782
v -0.18455720 0.24603185 0.41124209
v -0.18455720 0.24603185 0.41124209
v -0.24585553 -0.11509356 0.50270692
v -0.24585553 -0.11509356 0.50270692
v -0.24585553 -0.11509356 0.50270692
v -0.24585553 -0.11509356 0.48161789
v -0.24585553 -0.11509356 0.48161789
v -0.24585553 -0.11509356 0.48161789
v -0.02362851 -0.11509359 0.48161789
v -0.02362851 -0.11509359 0.48161789
v -0.02362851 -0.11509359 0.48161789
v -0.09512986 -0.11509359 0.50270692
v -0.09512986 -0.11509359 0.50270692
v -0.09512986 -0.11509359 0.50270692
v -0.24585556 -0.21768562 0.50270692
v -0.24585556 -0.21768562 0.50270692
v -0.24585556 -0.21768562 0.50270692
v -0.24585556 -0.21768562 0.48161789
v -0.24585556 -0.21768562 0.48161789
v -0.24585556 -0.21768562 0.48161789
v -0.02362852 -0.21768567 0.48161789
v -0.02362852 -0.21768567 0.48161789
v -0.02362852 -0.21768567 0.48161789
v -0.09512988 -0.21768565 0.50270692
v -0.09512988 -0.21768565 0.50270692
v -0.09512988 -0.21768565 0.50270692
v 0.32514623 -0.15089125 0.02705164
v 0.49940697 -0.15089125 0.02705164
v 0.49940697 -0.22984627 0.02705164
v 0.32514623 -0.22984627 0.02705164
v 0.49940703 0.09258998 0.02705164
v 0.32640061 0.09258998 0.02705164
v 0.49940703 0.16593480 0.02705164
v 0.32640061 0.16593480 0.02705164
v 0.06104885 0.16342938 0.48954207
v 0.06104885 0.16342938 0.48954207
v 0.06104885 0.16342938 0.48954207
v 0.32266441 0.16342935 0.48954207
v 0.32266441 0.16342935 0.48954207
v 0.32266441 0.16342935 0.48954207
v 0.32266435 -0.25085345 0.48954207
v 0.32266435 -0.25085345 0.48954207
v 0.32266435 -0.25085345 0.48954207
v 0.06104879 -0.25085342 0.48954207
v 0.06104879 -0.25085342 0.48954207
v 0.06104879 -0.25085342 0.48954207
v 0.31316333 0.15392829 0.54333898
v 0.31316333 0.15392829 0.54333898
v 0.31316333 0.15392829 0.54333898
v 0.07054993 0.15392832 0.54333898
v 0.07054993 0.15392832 0.54333898
v 0.07054993 0.15392832 0.54333898
v 0.07054987 -0.24135236 0.54333898
v 0.07054987 -0.24135236 0.54333898
v 0.07054987 -0.24135236 0.54333898
v 0.31316327 -0.24135239 0.54333898
v 0.31316327 -0.24135239 0.54333898
v 0.31316327 -0.24135239 0.54333898
v 0.06104885 0.16342938 0.53598708
v 0.06104885 0.16342938 0.53598708
v 0.06104885 0.16342938 0.53598708
v 0.06104885 0.16342938 0.53598708
v 0.06104885 0.16342938 0.53598708
v 0.06104879 -0.25085342 0.53598708
v 0.06104879 -0.25085342 0.53598708
v 0.06104879 -0.25085342 0.53598708
v 0.06104879 -0.25085342 0.53598708
v 0.06104879 -0.25085342 0.53598708
v 0.32266435 -0.25085345 0.53598708
v 0.32266435 -0.25085345 0.53598708
v 0.32266435 -0.25085345 0.53598708
v 0.32266435 -0.25085345 0.53598708
v 0.32266435 -0.25085345 0.53598708
v 0.32266441 0.16342935 0.53598708
v 0.32266441 0.16342935 0.53598708
v 0.32266441 0.16342935 0.53598708
v 0.32266441 0.16342935 0.53598708
v 0.32266441 0.16342935 0.53598708
v -0.16546037 -0.00590417 0.45739935
v -0.16546037 -0.23973673 0.45739935
v -0.15957593 -0.23973673 0.45739935
v -0.15957593 -0.23973673 0.45739935
v -0.15957593 -0.23973673 0.45739935
v -0.16546037 0.15730779 0.45739935
v -0.15957593 0.15730779 0.45739935
v -0.15957593 0.15730779 0.45739935
v -0.15957593 0.15730779 0.45739935
v 0.31397857 0.15730779 0.45739935
v 0.31397857 0.15730779 0.45739935
v 0.31397857 0.15730779 0.45739935
v 0.31397857 -0.23973673 0.45739935
v 0.31397857 -0.23973673 0.45739935
v 0.31397857 -0.23973673 0.45739935
v 0.32266441 -0.23973673 0.45739935
v 0.31397857 0.16342938 0.45739935
v 0.32266441 0.16342938 0.45739935
v -0.16546037 0.16342938 0.45739935
v 0.05675645 0.16342938 0.45739935
v 0.05675645 0.16342938 0.45739935
v 0.05675645 0.16342938 0.45739935
v 0.06104887 0.16342938 0.45739935
v 0.06104887 0.16342938 0.45739935
v 0.06104887 0.16342938 0.45739935
v 0.32266441 -0.25085344 0.00000000
v 0.32266441 -0.25085344 0.00000000
v -0.16546037 -0.25085344 0.00000000
v -0.16546037 -0.25085344 0.00000000
v -0.16546037 0.16342938 0.00000000
v 0.32266441 0.16342938 0.00000000
v 0.31397857 0.15730779 0.45087149
v 0.31397857 0.15730779 0.45087149
v 0.31397857 0.15730779 0.45087149
v -0.15957593 0.15730779 0.45087149
v -0.15957593 0.15730779 0.45087149
v -0.15957593 0.15730779 0.45087149
v 0.30092469 -0.25085344 0.02502002
v 0.30092469 -0.25085344 0.02502002
v -0.14371605 -0.25085344 0.02502002
v -0.14371605 -0.25085344 0.02502002
v -0.14371605 -0.25085344 0.02502002
v -0.14371605 -0.23973673 0.02502002
v -0.14371605 -0.23973673 0.02502002
v 0.30092469 -0.23973673 0.02502002
v -0.15957593 -0.23973673 0.45087149
v -0.15957593 -0.23973673 0.45087149
v -0.15957593 -0.23973673 0.45087149
v -0.16546037 0.15730779 0.45087149
v -0.16546037 0.16342938 0.45087149
v 0.31397857 0.16342938 0.45087149
v 0.31397857 -0.23973673 0.45087149
v 0.31397857 -0.23973673 0.45087149
v 0.31397857 -0.23973673 0.45087149
v -0.14371605 -0.25085344 0.44529996
v -0.14371605 -0.25085344 0.44529996
v -0.14371605 -0.23973673 0.44529996
v -0.16546037 -0.25085344 0.45087149
v -0.16546037 -0.25085344 0.45087149
v 0.32266441 -0.25085344 0.45087149
v 0.32266441 -0.25085344 0.45087149
v 0.32266441 -0.23973673 0.45087149
v 0.30092469 -0.25085344 0.44529996
v 0.32266441 0.16342938 0.45087149
v 0.32266441 -0.25085344 0.45739935
v 0.06104887 -0.25085344 0.45739935
v 0.06104887 -0.25085344 0.45739935
v 0.06104887 -0.25085344 0.45739935
v 0.06104887 -0.25085344 0.48954207
v 0.06104887 -0.25085344 0.48954207
v 0.32266441 -0.25085344 0.48954207
v 0.05675645 -0.25085344 0.45739935
v 0.05675645 -0.25085344 0.45739935
v 0.05675645 -0.25085344 0.45739935
v -0.16546037 -0.25085344 0.45739935
v -0.16546037 -0.25085344 0.48954207
v -0.16546037 -0.25085344 0.48954207
v 0.05675645 -0.25085344 0.48954207
v 0.05675645 -0.25085344 0.48954207
v 0.05675645 -0.25085344 0.48954207
v 0.05675645 -0.00590417 0.48954207
v 0.05675645 -0.00590417 0.48954207
v 0.05675645 0.06989427 0.48954207
v 0.05675645 0.06989427 0.48954207
v 0.05675645 0.06989427 0.48954207
v 0.05675645 0.06989427 0.54391104
v 0.05675645 0.06989427 0.54391104
v 0.05675645 0.06989427 0.54391104
v 0.05675645 0.16342938 0.54391104
v 0.05675645 0.16342938 0.54391104
v 0.06104887 0.16342938 0.48954207
v -0.16546037 -0.00590417 0.48954207
v -0.16546037 0.06989427 0.48954207
v -0.16546037 0.06989427 0.48954207
v -0.16546037 0.06989427 0.54391104
v -0.16546037 0.06989427 0.54391104
v -0.16546037 0.16342938 0.54391104
f 1 2 4
f 4 6 1
f 7 6 4
f 4 9 7
f 10 7 9
f 9 11 10
f 13 10 11
f 11 15 13
f 16 13 15
f 15 17 16
f 19 16 17
f 17 20 19
f 20 17 22
f 22 23 20
f 23 22 24
f 24 26 23
f 26 24 28
f 28 29 26
f 29 28 31
f 31 32 29
f 32 31 34
f 34 35 32
f 36 35 34
f 34 38 36
f 39 36 38
f 38 41 39
f 42 39 41
f 41 44 42
f 45 42 44
f 44 46 45
f 48 45 46
f 46 50 48
f 51 48 50
f 50 52 51
f 52 50 53
f 53 55 52
f 55 53 56
f 56 58 55
f 58 56 59
f 59 61 58
f 61 59 62
f 62 64 61
f 64 62 66
f 66 67 64
f 68 67 66
f 66 69 68
f 2 68 69
f 69 72 2
f 2 72 76
f 68 2 1
f 38 34 79
f 79 82 38
f 83 84 86
f 86 88 83
f 89 88 86
f 86 91 89
f 92 89 91
f 91 93 92
f 95 92 93
f 93 97 95
f 98 95 97
f 97 100 98
f 101 98 100
f 100 102 101
f 104 101 102
f 102 105 104
f 105 102 107
f 107 108 105
f 108 107 110
f 110 111 108
f 111 110 113
f 113 114 111
f 114 113 115
f 115 117 114
f 118 117 115
f 115 120 118
f 121 118 120
f 120 122 121
f 124 121 122
f 122 125 124
f 127 124 125
f 125 128 127
f 130 127 128
f 128 131 130
f 133 130 131
f 131 134 133
f 136 133 134
f 134 137 136
f 137 134 139
f 139 140 137
f 140 139 142
f 142 143 140
f 143 142 145
f 145 146 143
f 146 145 147
f 147 149 146
f 150 149 147
f 147 151 150
f 84 150 151
f 151 154 84
f 84 154 158
f 150 84 83
f 120 115 159
f 159 163 120
f 74 157 153
f 153 71 74
f 152 70 73
f 73 155 152
f 65 70 152
f 152 148 65
f 63 65 148
f 148 144 63
f 60 63 144
f 144 141 60
f 57 60 141
f 141 138 57
f 54 57 138
f 138 135 54
f 49 54 135
f 135 132 49
f 47 49 132
f 132 129 47
f 43 47 129
f 129 126 43
f 40 43 126
f 126 123 40
f 37 40 123
f 123 119 37
f 80 37 119
f 119 162 80
f 160 77 81
f 81 164 160
f 33 78 161
f 161 116 33
f 30 33 116
f 116 112 30
f 27 30 112
f 112 109 27
f 25 27 109
f 109 106 25
f 21 25 106
f 106 103 21
f 18 21 103
f 103 99 18
f 14 18 99
f 99 96 14
f 12 14 96
f 96 94 12
f 8 12 94
f 94 90 8
f 5 8 90
f 90 87 5
f 3 5 87
f 87 85 3
f 75 3 85
f 85 156 75
f 150 83 88
f 88 149 150
f 149 88 89
f 89 146 149
f 146 89 92
f 92 143 146
f 143 92 95
f 95 140 143
f 140 95 98
f 98 137 140
f 136 137 98
f 98 101 136
f 133 136 101
f 101 104 133
f 133 104 105
f 105 130 133
f 127 130 105
f 105 108 127
f 124 127 108
f 108 111 124
f 121 124 111
f 111 114 121
f 118 121 114
f 114 117 118
f 68 1 6
f 6 67 68
f 67 6 7
f 7 64 67
f 64 7 10
f 10 61 64
f 61 10 13
f 13 58 61
f 58 13 16
f 16 55 58
f 55 16 19
f 19 52 55
f 52 19 20
f 20 51 52
f 48 51 20
f 20 23 48
f 45 48 23
f 23 26 45
f 42 45 26
f 26 29 42
f 39 42 29
f 29 32 39
f 36 39 32
f 32 35 36
f 165 169 171
f 171 166 165
f 168 167 172
f 172 170 168
f 175 178 180
f 180 184 175
f 187 190 192
f 192 194 187
f 182 174 185
f 185 195 182
f 191 179 183
f 183 196 191
f 177 181 193
f 193 188 177
f 176 189 186
f 186 173 176
f 197 200 199
f 199 198 197
f 204 202 201
f 201 203 204
f 206 208 211
f 211 214 206
f 218 222 223
f 223 226 218
f 232 205 215
f 215 236 232
f 234 216 213
f 213 242 234
f 241 246 217
f 217 227 241
f 207 230 244
f 244 210 207
f 228 224 237
f 237 239 228
f 221 233 238
f 238 225 221
f 219 245 231
f 231 220 219
f 212 209 248
f 248 240 212
f 243 247 229
f 229 235 243
f 249 250 251
f 251 254 249
f 254 251 257
f 260 263 264
f 264 265 260
f 265 264 266
f 267 254 257
f 257 270 267
f 270 257 260
f 260 273 270
f 273 260 265
f 275 276 278
f 278 279 275
f 280 285 255
f 255 258 280
f 286 290 292
f 292 293 286
f 294 252 256
f 256 283 294
f 297 298 299
f 299 284 297
f 284 299 281
f 262 301 282
f 282 259 262
f 291 288 304
f 304 305 291
f 297 284 295
f 295 307 297
f 308 307 295
f 295 300 308
f 308 300 310
f 289 274 277
f 277 306 289
f 303 289 306
f 306 311 303
f 311 306 309
f 309 287 311
f 287 309 274
f 274 289 287
f 281 299 312
f 312 310 281
f 310 300 281
f 313 316 317
f 317 319 313
f 322 323 324
f 324 327 322
f 321 269 271
f 271 314 321
f 268 320 328
f 328 329 268
f 268 329 333
f 333 334 268
f 268 334 337
f 318 315 272
f 272 339 318
f 330 340 342
f 342 332 330
f 326 325 340
f 340 330 326
f 335 343 345
f 345 338 335
f 331 341 344
f 344 336 331
f 302 296 253
f 253 261 302

