# https://github.com/mikedh/trimesh
v 0.03484095 -0.11690533 0.66186570
v 0.03484095 -0.11690533 0.66186570
v 0.03484095 -0.11690533 0.66186570
v 0.03487396 -0.11663131 0.66186570
v 0.03487396 -0.11663131 0.66186570
v 0.03487396 -0.11663131 0.77958405
v 0.03487396 -0.11663131 0.77958405
v 0.03484095 -0.11690533 0.77958405
v 0.03484095 -0.11690533 0.77958405
v 0.03484095 -0.11690533 0.77958405
v 0.03415581 -0.11765394 0.66186570
v 0.03415581 -0.11765394 0.66186570
v 0.03415581 -0.11765394 0.66186570
v 0.03415581 -0.11765394 0.77958405
v 0.03415581 -0.11765394 0.77958405
v 0.03415581 -0.11765394 0.77958405
v 0.03390504 -0.11769002 0.77958405
v 0.03390504 -0.11769002 0.77958405
v 0.03390504 -0.11769002 0.66186570
v 0.03390504 -0.11769002 0.66186570
v 0.03438950 -0.11754818 0.66186570
v 0.03438950 -0.11754818 0.66186570
v 0.03438950 -0.11754818 0.66186570
v 0.03438950 -0.11754818 0.77958405
v 0.03438950 -0.11754818 0.77958405
v 0.03438950 -0.11754818 0.77958405
v 0.03484095 -0.11635730 0.66186570
v 0.03484095 -0.11635730 0.66186570
v 0.03484095 -0.11635730 0.66186570
v 0.03474415 -0.11610196 0.66186570
v 0.03474415 -0.11610196 0.66186570
v 0.03474415 -0.11610196 0.66186570
v 0.03474415 -0.11610196 0.77958405
v 0.03474415 -0.11610196 0.77958405
v 0.03474415 -0.11610196 0.77958405
v 0.03484095 -0.11635730 0.77958405
v 0.03484095 -0.11635730 0.77958405
v 0.03484095 -0.11635730 0.77958405
v 0.03459017 -0.11737993 0.66186570
v 0.03459017 -0.11737993 0.66186570
v 0.03459017 -0.11737993 0.66186570
v 0.03474415 -0.11716067 0.66186570
v 0.03474415 -0.11716067 0.66186570
v 0.03474415 -0.11716067 0.66186570
v 0.03474415 -0.11716067 0.77958405
v 0.03474415 -0.11716067 0.77958405
v 0.03474415 -0.11716067 0.77958405
v 0.03459017 -0.11737993 0.77958405
v 0.03459017 -0.11737993 0.77958405
v 0.03459017 -0.11737993 0.77958405
v 0.03342057 -0.11754818 0.66186570
v 0.03342057 -0.11754818 0.66186570
v 0.03342057 -0.11754818 0.66186570
v 0.03342057 -0.11754818 0.77958405
v 0.03342057 -0.11754818 0.77958405
v 0.03342057 -0.11754818 0.77958405
v 0.03321990 -0.11737993 0.77958405
v 0.03321990 -0.11737993 0.77958405
v 0.03321990 -0.11737993 0.77958405
v 0.03321990 -0.11737993 0.66186570
v 0.03321990 -0.11737993 0.66186570
v 0.03321990 -0.11737993 0.66186570
v 0.03306592 -0.11610196 0.66186570
v 0.03306592 -0.11610196 0.66186570
v 0.03306592 -0.11610196 0.66186570
v 0.03296912 -0.11635730 0.66186570
v 0.03296912 -0.11635730 0.66186570
v 0.03296912 -0.11635730 0.66186570
v 0.03296912 -0.11635730 0.77958405
v 0.03296912 -0.11635730 0.77958405
v 0.03296912 -0.11635730 0.77958405
v 0.03306592 -0.11610196 0.77958405
v 0.03306592 -0.11610196 0.77958405
v 0.03306592 -0.11610196 0.77958405
v 0.03415581 -0.11560868 0.77958405
v 0.03415581 -0.11560868 0.77958405
v 0.03415581 -0.11560868 0.77958405
v 0.03415581 -0.11560868 0.66186570
v 0.03415581 -0.11560868 0.66186570
v 0.03415581 -0.11560868 0.66186570
v 0.03390504 -0.11557260 0.66186570
v 0.03390504 -0.11557260 0.66186570
v 0.03390504 -0.11557260 0.66186570
v 0.03390504 -0.11557260 0.77958405
v 0.03390504 -0.11557260 0.77958405
v 0.03390504 -0.11557260 0.77958405
v 0.03365426 -0.11560868 0.77958405
v 0.03365426 -0.11560868 0.77958405
v 0.03365426 -0.11560868 0.77958405
v 0.03365426 -0.11560868 0.66186570
v 0.03365426 -0.11560868 0.66186570
v 0.03365426 -0.11560868 0.66186570
v 0.03342057 -0.11571445 0.66186570
v 0.03342057 -0.11571445 0.66186570
v 0.03342057 -0.11571445 0.66186570
v 0.03342057 -0.11571445 0.77958405
v 0.03342057 -0.11571445 0.77958405
v 0.03342057 -0.11571445 0.77958405
v 0.03293610 -0.11663131 0.66186570
v 0.03293610 -0.11663131 0.66186570
v 0.03293610 -0.11663131 0.66186570
v 0.03293610 -0.11663131 0.77958405
v 0.03293610 -0.11663131 0.77958405
v 0.03293610 -0.11663131 0.77958405
v 0.03365426 -0.11765394 0.66186570
v 0.03365426 -0.11765394 0.66186570
v 0.03365426 -0.11765394 0.66186570
v 0.03306592 -0.11716067 0.66186570
v 0.03306592 -0.11716067 0.66186570
v 0.03306592 -0.11716067 0.66186570
v 0.03296912 -0.11690533 0.66186570
v 0.03296912 -0.11690533 0.66186570
v 0.03296912 -0.11690533 0.66186570
v 0.03321990 -0.11588270 0.66186570
v 0.03321990 -0.11588270 0.66186570
v 0.03321990 -0.11588270 0.66186570
v 0.03459017 -0.11588270 0.66186570
v 0.03459017 -0.11588270 0.66186570
v 0.03459017 -0.11588270 0.66186570
v 0.03438950 -0.11571445 0.66186570
v 0.03438950 -0.11571445 0.66186570
v 0.03438950 -0.11571445 0.66186570
v 0.03306592 -0.11716067 0.77958405
v 0.03306592 -0.11716067 0.77958405
v 0.03306592 -0.11716067 0.77958405
v 0.03296912 -0.11690533 0.77958405
v 0.03296912 -0.11690533 0.77958405
v 0.03296912 -0.11690533 0.77958405
v 0.03365426 -0.11765394 0.77958405
v 0.03365426 -0.11765394 0.77958405
v 0.03365426 -0.11765394 0.77958405
v 0.03459017 -0.11588270 0.77958405
v 0.03459017 -0.11588270 0.77958405
v 0.03459017 -0.11588270 0.77958405
v 0.03438950 -0.11571445 0.77958405
v 0.03438950 -0.11571445 0.77958405
v 0.03438950 -0.11571445 0.77958405
v 0.03321990 -0.11588270 0.77958405
v 0.03321990 -0.11588270 0.77958405
v 0.03321990 -0.11588270 0.77958405
f 1 4 7
f 11 14 17
f 21 25 16
f 27 32 33
f 39 42 47
f 51 56 58
f 63 68 69
f 77 80 81
f 43 2 8
f 40 49 26
f 87 90 93
f 67 101 102
f 12 19 107
f 23 12 53
f 41 23 60
f 44 41 108
f 3 44 113
f 5 3 99
f 29 5 66
f 30 29 65
f 119 30 114
f 120 119 94
f 79 120 91
f 112 109 123
f 20 17 129
f 134 117 121
f 105 130 54
f 4 28 36
f 98 95 116
f 31 118 133
f 135 122 78
f 86 83 92
f 100 111 128
f 131 18 15
f 55 131 24
f 57 55 48
f 125 57 46
f 127 125 9
f 104 127 6
f 70 104 37
f 73 70 35
f 140 73 132
f 97 140 137
f 89 97 76
f 115 64 74
f 110 61 59
f 7 10 1
f 17 20 11
f 16 13 21
f 33 38 27
f 47 50 39
f 58 62 51
f 69 72 63
f 81 85 77
f 8 45 43
f 26 22 40
f 93 96 87
f 102 71 67
f 107 53 12
f 53 60 23
f 60 108 41
f 108 113 44
f 113 99 3
f 99 66 5
f 66 65 29
f 65 114 30
f 114 94 119
f 94 91 120
f 91 82 79
f 123 126 112
f 129 106 20
f 121 136 134
f 54 52 105
f 36 7 4
f 116 138 98
f 133 34 31
f 78 75 135
f 92 88 86
f 128 103 100
f 15 24 131
f 24 48 55
f 48 46 57
f 46 9 125
f 9 6 127
f 6 37 104
f 37 35 70
f 35 132 73
f 132 137 140
f 137 76 97
f 76 84 89
f 74 139 115
f 59 124 110

