# https://github.com/mikedh/trimesh
v 0.01686578 -0.16252985 0.77246318
v 0.01686578 -0.16252985 0.77246318
v 0.01686578 -0.16252985 0.77246318
v 0.01686578 -0.16252985 0.77246318
v 0.01713971 -0.16252985 0.77227282
v 0.01713971 -0.16252985 0.77227282
v 0.01713971 -0.16252985 0.77227282
v 0.01713971 -0.16252985 0.77227282
v 0.01710244 -0.16264743 0.77217923
v 0.01710244 -0.16264743 0.77217923
v 0.01710244 -0.16264743 0.77217923
v 0.01710244 -0.16264743 0.77217923
v 0.01679690 -0.16264743 0.77239155
v 0.01679690 -0.16264743 0.77239155
v 0.01679690 -0.16264743 0.77239155
v 0.01679690 -0.16264743 0.77239155
v 0.01701245 -0.16235141 0.77289009
v 0.01701245 -0.16235141 0.77289009
v 0.01701245 -0.16235141 0.77289009
v 0.01701245 -0.16235141 0.77289009
v 0.01682589 -0.16242889 0.77280975
v 0.01682589 -0.16242889 0.77280975
v 0.01682589 -0.16242889 0.77280975
v 0.01682589 -0.16242889 0.77280975
v 0.01677341 -0.16242889 0.77308413
v 0.01677341 -0.16242889 0.77308413
v 0.01677341 -0.16242889 0.77308413
v 0.01677341 -0.16242889 0.77308413
v 0.01697534 -0.16235141 0.77308413
v 0.01697534 -0.16235141 0.77308413
v 0.01697534 -0.16235141 0.77308413
v 0.01697534 -0.16235141 0.77308413
v 0.01746284 -0.16264743 0.77210466
v 0.01746284 -0.16264743 0.77210466
v 0.01746284 -0.16264743 0.77210466
v 0.01746284 -0.16264743 0.77210466
v 0.01746284 -0.16277360 0.77207013
v 0.01746284 -0.16277360 0.77207013
v 0.01708972 -0.16277360 0.77214734
v 0.01708972 -0.16277360 0.77214734
v 0.01708972 -0.16277360 0.77214734
v 0.01708972 -0.16277360 0.77214734
v 0.01746284 -0.16252985 0.77220597
v 0.01746284 -0.16252985 0.77220597
v 0.01746284 -0.16252985 0.77220597
v 0.01746284 -0.16252985 0.77220597
v 0.01746284 -0.16228610 0.77308413
v 0.01746284 -0.16228610 0.77308413
v 0.01746284 -0.16228610 0.77308413
v 0.01746284 -0.16228610 0.77308413
v 0.01746284 -0.16228610 0.77308413
v 0.01746284 -0.16228610 0.77308413
v 0.01746284 -0.16228610 0.77308413
v 0.01746284 -0.16228610 0.77308413
v 0.01746284 -0.16228610 0.77308413
v 0.01746284 -0.16228610 0.77308413
v 0.01746284 -0.16228610 0.77308413
v 0.01746284 -0.16228610 0.77308413
v 0.01746284 -0.16228610 0.77308413
v 0.01746284 -0.16228610 0.77308413
v 0.01746284 -0.16228610 0.77308413
v 0.01746284 -0.16228610 0.77308413
v 0.01764128 -0.16230271 0.77289855
v 0.01764128 -0.16230271 0.77289855
v 0.01764128 -0.16230271 0.77289855
v 0.01764128 -0.16230271 0.77289855
v 0.01755941 -0.16230271 0.77284164
v 0.01755941 -0.16230271 0.77284164
v 0.01755941 -0.16230271 0.77284164
v 0.01755941 -0.16230271 0.77284164
v 0.01711812 -0.16235141 0.77272560
v 0.01711812 -0.16235141 0.77272560
v 0.01711812 -0.16235141 0.77272560
v 0.01711812 -0.16235141 0.77272560
v 0.01697534 -0.16242889 0.77257713
v 0.01697534 -0.16242889 0.77257713
v 0.01697534 -0.16242889 0.77257713
v 0.01697534 -0.16242889 0.77257713
v 0.01815227 -0.16277360 0.77236714
v 0.01815227 -0.16277360 0.77236714
v 0.01815227 -0.16277360 0.77236714
v 0.01815227 -0.16277360 0.77236714
v 0.01836362 -0.16277360 0.77269611
v 0.01836362 -0.16277360 0.77269611
v 0.01836362 -0.16277360 0.77269611
v 0.01836362 -0.16277360 0.77269611
v 0.01833293 -0.16289978 0.77270929
v 0.01833293 -0.16289978 0.77270929
v 0.01833293 -0.16289978 0.77270929
v 0.01833293 -0.16289978 0.77270929
v 0.01812878 -0.16289978 0.77239155
v 0.01812878 -0.16289978 0.77239155
v 0.01812878 -0.16289978 0.77239155
v 0.01812878 -0.16289978 0.77239155
v 0.01659275 -0.16289978 0.77270929
v 0.01659275 -0.16289978 0.77270929
v 0.01659275 -0.16289978 0.77270929
v 0.01659275 -0.16289978 0.77270929
v 0.01679690 -0.16289978 0.77239155
v 0.01679690 -0.16289978 0.77239155
v 0.01679690 -0.16289978 0.77239155
v 0.01679690 -0.16289978 0.77239155
v 0.01686578 -0.16301735 0.77246318
v 0.01686578 -0.16301735 0.77246318
v 0.01686578 -0.16301735 0.77246318
v 0.01668274 -0.16301735 0.77274805
v 0.01668274 -0.16301735 0.77274805
v 0.01668274 -0.16301735 0.77274805
v 0.01746284 -0.16230271 0.77334655
v 0.01746284 -0.16230271 0.77334655
v 0.01746284 -0.16230271 0.77334655
v 0.01746284 -0.16230271 0.77334655
v 0.01755941 -0.16230271 0.77332662
v 0.01755941 -0.16230271 0.77332662
v 0.01755941 -0.16230271 0.77332662
v 0.01755941 -0.16230271 0.77332662
v 0.01679690 -0.16264743 0.77377671
v 0.01679690 -0.16264743 0.77377671
v 0.01679690 -0.16264743 0.77377671
v 0.01679690 -0.16264743 0.77377671
v 0.01659275 -0.16264743 0.77345897
v 0.01659275 -0.16264743 0.77345897
v 0.01659275 -0.16264743 0.77345897
v 0.01659275 -0.16264743 0.77345897
v 0.01656206 -0.16277360 0.77347215
v 0.01656206 -0.16277360 0.77347215
v 0.01656206 -0.16277360 0.77347215
v 0.01656206 -0.16277360 0.77347215
v 0.01677341 -0.16277360 0.77380112
v 0.01677341 -0.16277360 0.77380112
v 0.01677341 -0.16277360 0.77380112
v 0.01677341 -0.16277360 0.77380112
v 0.01764940 -0.16235141 0.77355255
v 0.01764940 -0.16235141 0.77355255
v 0.01764940 -0.16235141 0.77355255
v 0.01764940 -0.16235141 0.77355255
v 0.01746284 -0.16235141 0.77359113
v 0.01746284 -0.16235141 0.77359113
v 0.01746284 -0.16235141 0.77359113
v 0.01746284 -0.16235141 0.77359113
v 0.01783596 -0.16277360 0.77402098
v 0.01783596 -0.16277360 0.77402098
v 0.01783596 -0.16277360 0.77402098
v 0.01783596 -0.16277360 0.77402098
v 0.01815227 -0.16277360 0.77380112
v 0.01815227 -0.16277360 0.77380112
v 0.01815227 -0.16277360 0.77380112
v 0.01815227 -0.16277360 0.77380112
v 0.01812878 -0.16264743 0.77377671
v 0.01812878 -0.16264743 0.77377671
v 0.01812878 -0.16264743 0.77377671
v 0.01812878 -0.16264743 0.77377671
v 0.01782324 -0.16264743 0.77398902
v 0.01782324 -0.16264743 0.77398902
v 0.01782324 -0.16264743 0.77398902
v 0.01782324 -0.16264743 0.77398902
v 0.01769598 -0.16230271 0.77318459
v 0.01769598 -0.16230271 0.77318459
v 0.01769598 -0.16230271 0.77318459
v 0.01769598 -0.16230271 0.77318459
v 0.01771519 -0.16230271 0.77308413
v 0.01771519 -0.16230271 0.77308413
v 0.01771519 -0.16230271 0.77308413
v 0.01771519 -0.16230271 0.77308413
v 0.01736627 -0.16230271 0.77332662
v 0.01736627 -0.16230271 0.77332662
v 0.01736627 -0.16230271 0.77332662
v 0.01736627 -0.16230271 0.77332662
v 0.01727628 -0.16235141 0.77355255
v 0.01727628 -0.16235141 0.77355255
v 0.01727628 -0.16235141 0.77355255
v 0.01727628 -0.16235141 0.77355255
v 0.01843784 -0.16277360 0.77308413
v 0.01843784 -0.16277360 0.77308413
v 0.01836362 -0.16277360 0.77347215
v 0.01836362 -0.16277360 0.77347215
v 0.01836362 -0.16277360 0.77347215
v 0.01836362 -0.16277360 0.77347215
v 0.01833293 -0.16289978 0.77345897
v 0.01833293 -0.16289978 0.77345897
v 0.01833293 -0.16289978 0.77345897
v 0.01833293 -0.16289978 0.77345897
v 0.01840462 -0.16289978 0.77308413
v 0.01840462 -0.16289978 0.77308413
v 0.01840462 -0.16289978 0.77308413
v 0.01840462 -0.16289978 0.77308413
v 0.01711812 -0.16235141 0.77344265
v 0.01711812 -0.16235141 0.77344265
v 0.01711812 -0.16235141 0.77344265
v 0.01711812 -0.16235141 0.77344265
v 0.01701245 -0.16235141 0.77327817
v 0.01701245 -0.16235141 0.77327817
v 0.01701245 -0.16235141 0.77327817
v 0.01701245 -0.16235141 0.77327817
v 0.01682589 -0.16242889 0.77335851
v 0.01682589 -0.16242889 0.77335851
v 0.01682589 -0.16242889 0.77335851
v 0.01682589 -0.16242889 0.77335851
v 0.01697534 -0.16242889 0.77359113
v 0.01697534 -0.16242889 0.77359113
v 0.01697534 -0.16242889 0.77359113
v 0.01697534 -0.16242889 0.77359113
v 0.01652106 -0.16264743 0.77308413
v 0.01652106 -0.16264743 0.77308413
v 0.01652106 -0.16264743 0.77308413
v 0.01652106 -0.16264743 0.77308413
v 0.01648784 -0.16277360 0.77308413
v 0.01648784 -0.16277360 0.77308413
v 0.01648784 -0.16277360 0.77308413
v 0.01648784 -0.16277360 0.77308413
v 0.01659275 -0.16264743 0.77270929
v 0.01659275 -0.16264743 0.77270929
v 0.01659275 -0.16264743 0.77270929
v 0.01659275 -0.16264743 0.77270929
v 0.01656206 -0.16277360 0.77269611
v 0.01656206 -0.16277360 0.77269611
v 0.01656206 -0.16277360 0.77269611
v 0.01656206 -0.16277360 0.77269611
v 0.01659275 -0.16289978 0.77345897
v 0.01659275 -0.16289978 0.77345897
v 0.01659275 -0.16289978 0.77345897
v 0.01659275 -0.16289978 0.77345897
v 0.01652106 -0.16289978 0.77308413
v 0.01652106 -0.16289978 0.77308413
v 0.01652106 -0.16289978 0.77308413
v 0.01652106 -0.16289978 0.77308413
v 0.01661846 -0.16301735 0.77308413
v 0.01661846 -0.16301735 0.77308413
v 0.01661846 -0.16301735 0.77308413
v 0.01668274 -0.16301735 0.77342021
v 0.01668274 -0.16301735 0.77342021
v 0.01668274 -0.16301735 0.77342021
v 0.01677341 -0.16277360 0.77236714
v 0.01677341 -0.16277360 0.77236714
v 0.01677341 -0.16277360 0.77236714
v 0.01677341 -0.16277360 0.77236714
v 0.01668274 -0.16252985 0.77274805
v 0.01668274 -0.16252985 0.77274805
v 0.01668274 -0.16252985 0.77274805
v 0.01668274 -0.16252985 0.77274805
v 0.01661846 -0.16252985 0.77308413
v 0.01661846 -0.16252985 0.77308413
v 0.01661846 -0.16252985 0.77308413
v 0.01661846 -0.16252985 0.77308413
v 0.01746284 -0.16242889 0.77236714
v 0.01746284 -0.16242889 0.77236714
v 0.01746284 -0.16242889 0.77236714
v 0.01746284 -0.16242889 0.77236714
v 0.01719900 -0.16242889 0.77242173
v 0.01719900 -0.16242889 0.77242173
v 0.01719900 -0.16242889 0.77242173
v 0.01719900 -0.16242889 0.77242173
v 0.01722970 -0.16230271 0.77298368
v 0.01722970 -0.16230271 0.77298368
v 0.01722970 -0.16230271 0.77298368
v 0.01722970 -0.16230271 0.77298368
v 0.01721049 -0.16230271 0.77308413
v 0.01721049 -0.16230271 0.77308413
v 0.01721049 -0.16230271 0.77308413
v 0.01721049 -0.16230271 0.77308413
v 0.01668274 -0.16252985 0.77342021
v 0.01668274 -0.16252985 0.77342021
v 0.01668274 -0.16252985 0.77342021
v 0.01668274 -0.16252985 0.77342021
v 0.01769598 -0.16230271 0.77298368
v 0.01769598 -0.16230271 0.77298368
v 0.01769598 -0.16230271 0.77298368
v 0.01769598 -0.16230271 0.77298368
v 0.01746284 -0.16289978 0.77210466
v 0.01746284 -0.16289978 0.77210466
v 0.01746284 -0.16289978 0.77210466
v 0.01746284 -0.16289978 0.77210466
v 0.01746284 -0.16301735 0.77220597
v 0.01746284 -0.16301735 0.77220597
v 0.01746284 -0.16301735 0.77220597
v 0.01713971 -0.16301735 0.77227282
v 0.01713971 -0.16301735 0.77227282
v 0.01713971 -0.16301735 0.77227282
v 0.01710244 -0.16289978 0.77217923
v 0.01710244 -0.16289978 0.77217923
v 0.01710244 -0.16289978 0.77217923
v 0.01710244 -0.16289978 0.77217923
v 0.01782324 -0.16264743 0.77217923
v 0.01782324 -0.16264743 0.77217923
v 0.01782324 -0.16264743 0.77217923
v 0.01782324 -0.16264743 0.77217923
v 0.01783596 -0.16277360 0.77214734
v 0.01783596 -0.16277360 0.77214734
v 0.01783596 -0.16277360 0.77214734
v 0.01783596 -0.16277360 0.77214734
v 0.01805990 -0.16252985 0.77370508
v 0.01805990 -0.16252985 0.77370508
v 0.01805990 -0.16252985 0.77370508
v 0.01805990 -0.16252985 0.77370508
v 0.01778597 -0.16252985 0.77389544
v 0.01778597 -0.16252985 0.77389544
v 0.01778597 -0.16252985 0.77389544
v 0.01778597 -0.16252985 0.77389544
v 0.01809979 -0.16242889 0.77280975
v 0.01809979 -0.16242889 0.77280975
v 0.01809979 -0.16242889 0.77280975
v 0.01809979 -0.16242889 0.77280975
v 0.01795034 -0.16242889 0.77257713
v 0.01795034 -0.16242889 0.77257713
v 0.01795034 -0.16242889 0.77257713
v 0.01795034 -0.16242889 0.77257713
v 0.01780756 -0.16235141 0.77272560
v 0.01780756 -0.16235141 0.77272560
v 0.01780756 -0.16235141 0.77272560
v 0.01780756 -0.16235141 0.77272560
v 0.01791323 -0.16235141 0.77289009
v 0.01791323 -0.16235141 0.77289009
v 0.01791323 -0.16235141 0.77289009
v 0.01791323 -0.16235141 0.77289009
v 0.01824294 -0.16252985 0.77274805
v 0.01824294 -0.16252985 0.77274805
v 0.01824294 -0.16252985 0.77274805
v 0.01824294 -0.16252985 0.77274805
v 0.01805990 -0.16252985 0.77246318
v 0.01805990 -0.16252985 0.77246318
v 0.01805990 -0.16252985 0.77246318
v 0.01805990 -0.16252985 0.77246318
v 0.01830722 -0.16252985 0.77308413
v 0.01830722 -0.16252985 0.77308413
v 0.01830722 -0.16252985 0.77308413
v 0.01830722 -0.16252985 0.77308413
v 0.01824294 -0.16252985 0.77342021
v 0.01824294 -0.16252985 0.77342021
v 0.01824294 -0.16252985 0.77342021
v 0.01824294 -0.16252985 0.77342021
v 0.01833293 -0.16264743 0.77345897
v 0.01833293 -0.16264743 0.77345897
v 0.01833293 -0.16264743 0.77345897
v 0.01833293 -0.16264743 0.77345897
v 0.01840462 -0.16264743 0.77308413
v 0.01840462 -0.16264743 0.77308413
v 0.01840462 -0.16264743 0.77308413
v 0.01840462 -0.16264743 0.77308413
v 0.01746284 -0.16230271 0.77282171
v 0.01746284 -0.16230271 0.77282171
v 0.01746284 -0.16230271 0.77282171
v 0.01746284 -0.16230271 0.77282171
v 0.01679690 -0.16289978 0.77377671
v 0.01679690 -0.16289978 0.77377671
v 0.01679690 -0.16289978 0.77377671
v 0.01679690 -0.16289978 0.77377671
v 0.01710244 -0.16289978 0.77398902
v 0.01710244 -0.16289978 0.77398902
v 0.01710244 -0.16289978 0.77398902
v 0.01710244 -0.16289978 0.77398902
v 0.01708972 -0.16277360 0.77402098
v 0.01708972 -0.16277360 0.77402098
v 0.01708972 -0.16277360 0.77402098
v 0.01708972 -0.16277360 0.77402098
v 0.01812878 -0.16289978 0.77377671
v 0.01812878 -0.16289978 0.77377671
v 0.01812878 -0.16289978 0.77377671
v 0.01812878 -0.16289978 0.77377671
v 0.01746284 -0.16264743 0.77406360
v 0.01746284 -0.16264743 0.77406360
v 0.01746284 -0.16264743 0.77406360
v 0.01746284 -0.16264743 0.77406360
v 0.01746284 -0.16252985 0.77396229
v 0.01746284 -0.16252985 0.77396229
v 0.01746284 -0.16252985 0.77396229
v 0.01746284 -0.16252985 0.77396229
v 0.01764940 -0.16235141 0.77261570
v 0.01764940 -0.16235141 0.77261570
v 0.01764940 -0.16235141 0.77261570
v 0.01764940 -0.16235141 0.77261570
v 0.01710244 -0.16264743 0.77398902
v 0.01710244 -0.16264743 0.77398902
v 0.01710244 -0.16264743 0.77398902
v 0.01710244 -0.16264743 0.77398902
v 0.01713971 -0.16252985 0.77389544
v 0.01713971 -0.16252985 0.77389544
v 0.01713971 -0.16252985 0.77389544
v 0.01713971 -0.16252985 0.77389544
v 0.01686578 -0.16252985 0.77370508
v 0.01686578 -0.16252985 0.77370508
v 0.01686578 -0.16252985 0.77370508
v 0.01686578 -0.16252985 0.77370508
v 0.01686578 -0.16301735 0.77370508
v 0.01686578 -0.16301735 0.77370508
v 0.01686578 -0.16301735 0.77370508
v 0.01795034 -0.16242889 0.77359113
v 0.01795034 -0.16242889 0.77359113
v 0.01795034 -0.16242889 0.77359113
v 0.01795034 -0.16242889 0.77359113
v 0.01780756 -0.16235141 0.77344265
v 0.01780756 -0.16235141 0.77344265
v 0.01780756 -0.16235141 0.77344265
v 0.01780756 -0.16235141 0.77344265
v 0.01772667 -0.16242889 0.77374654
v 0.01772667 -0.16242889 0.77374654
v 0.01772667 -0.16242889 0.77374654
v 0.01772667 -0.16242889 0.77374654
v 0.01764128 -0.16230271 0.77326971
v 0.01764128 -0.16230271 0.77326971
v 0.01764128 -0.16230271 0.77326971
v 0.01764128 -0.16230271 0.77326971
v 0.01728440 -0.16230271 0.77326971
v 0.01728440 -0.16230271 0.77326971
v 0.01728440 -0.16230271 0.77326971
v 0.01728440 -0.16230271 0.77326971
v 0.01722970 -0.16230271 0.77318459
v 0.01722970 -0.16230271 0.77318459
v 0.01722970 -0.16230271 0.77318459
v 0.01722970 -0.16230271 0.77318459
v 0.01815227 -0.16242889 0.77308413
v 0.01815227 -0.16242889 0.77308413
v 0.01815227 -0.16242889 0.77308413
v 0.01815227 -0.16242889 0.77308413
v 0.01772667 -0.16242889 0.77242173
v 0.01772667 -0.16242889 0.77242173
v 0.01772667 -0.16242889 0.77242173
v 0.01772667 -0.16242889 0.77242173
v 0.01746284 -0.16235141 0.77257713
v 0.01746284 -0.16235141 0.77257713
v 0.01746284 -0.16235141 0.77257713
v 0.01746284 -0.16235141 0.77257713
v 0.01727628 -0.16235141 0.77261570
v 0.01727628 -0.16235141 0.77261570
v 0.01727628 -0.16235141 0.77261570
v 0.01727628 -0.16235141 0.77261570
v 0.01782324 -0.16289978 0.77398902
v 0.01782324 -0.16289978 0.77398902
v 0.01782324 -0.16289978 0.77398902
v 0.01782324 -0.16289978 0.77398902
v 0.01719900 -0.16242889 0.77374654
v 0.01719900 -0.16242889 0.77374654
v 0.01719900 -0.16242889 0.77374654
v 0.01719900 -0.16242889 0.77374654
v 0.01833293 -0.16264743 0.77270929
v 0.01833293 -0.16264743 0.77270929
v 0.01833293 -0.16264743 0.77270929
v 0.01833293 -0.16264743 0.77270929
v 0.01746284 -0.16301735 0.77396229
v 0.01746284 -0.16301735 0.77396229
v 0.01746284 -0.16301735 0.77396229
v 0.01746284 -0.16289978 0.77406360
v 0.01746284 -0.16289978 0.77406360
v 0.01746284 -0.16289978 0.77406360
v 0.01746284 -0.16289978 0.77406360
v 0.01713971 -0.16301735 0.77389544
v 0.01713971 -0.16301735 0.77389544
v 0.01713971 -0.16301735 0.77389544
v 0.01728440 -0.16230271 0.77289855
v 0.01728440 -0.16230271 0.77289855
v 0.01728440 -0.16230271 0.77289855
v 0.01728440 -0.16230271 0.77289855
v 0.01795034 -0.16235141 0.77308413
v 0.01795034 -0.16235141 0.77308413
v 0.01795034 -0.16235141 0.77308413
v 0.01795034 -0.16235141 0.77308413
v 0.01812878 -0.16264743 0.77239155
v 0.01812878 -0.16264743 0.77239155
v 0.01812878 -0.16264743 0.77239155
v 0.01812878 -0.16264743 0.77239155
v 0.01778597 -0.16252985 0.77227282
v 0.01778597 -0.16252985 0.77227282
v 0.01778597 -0.16252985 0.77227282
v 0.01778597 -0.16252985 0.77227282
v 0.01791323 -0.16235141 0.77327817
v 0.01791323 -0.16235141 0.77327817
v 0.01791323 -0.16235141 0.77327817
v 0.01791323 -0.16235141 0.77327817
v 0.01736627 -0.16230271 0.77284164
v 0.01736627 -0.16230271 0.77284164
v 0.01736627 -0.16230271 0.77284164
v 0.01736627 -0.16230271 0.77284164
v 0.01778597 -0.16301735 0.77389544
v 0.01778597 -0.16301735 0.77389544
v 0.01778597 -0.16301735 0.77389544
v 0.01809979 -0.16242889 0.77335851
v 0.01809979 -0.16242889 0.77335851
v 0.01809979 -0.16242889 0.77335851
v 0.01809979 -0.16242889 0.77335851
v 0.01810844 -0.16301735 0.77297331
v 0.01824294 -0.16301735 0.77274805
v 0.01824294 -0.16301735 0.77274805
v 0.01824294 -0.16301735 0.77274805
v 0.01830722 -0.16301735 0.77308413
v 0.01830722 -0.16301735 0.77308413
v 0.01830722 -0.16301735 0.77308413
v 0.01810844 -0.16301735 0.77329191
v 0.01824294 -0.16301735 0.77342021
v 0.01824294 -0.16301735 0.77342021
v 0.01824294 -0.16301735 0.77342021
v 0.01762288 -0.16301735 0.77329191
v 0.01762288 -0.16301735 0.77377726
v 0.01805990 -0.16301735 0.77370508
v 0.01805990 -0.16301735 0.77370508
v 0.01805990 -0.16301735 0.77370508
v 0.01732642 -0.16301735 0.77377726
v 0.01686823 -0.16301735 0.77329191
v 0.01732642 -0.16301735 0.77329191
v 0.01686823 -0.16301735 0.77297331
v 0.01732642 -0.16301735 0.77297331
v 0.01732642 -0.16301735 0.77244123
v 0.01762288 -0.16301735 0.77244123
v 0.01805990 -0.16301735 0.77246318
v 0.01805990 -0.16301735 0.77246318
v 0.01805990 -0.16301735 0.77246318
v 0.01778597 -0.16301735 0.77227282
v 0.01778597 -0.16301735 0.77227282
v 0.01778597 -0.16301735 0.77227282
v 0.01762288 -0.16301735 0.77297331
v 0.01746284 -0.16277360 0.77409813
v 0.01746284 -0.16277360 0.77409813
v 0.01746284 -0.16277360 0.77409813
v 0.01746284 -0.16277360 0.77409813
v 0.01746284 -0.16242889 0.77380112
v 0.01746284 -0.16242889 0.77380112
v 0.01746284 -0.16242889 0.77380112
v 0.01746284 -0.16242889 0.77380112
v 0.01782324 -0.16289978 0.77217923
v 0.01782324 -0.16289978 0.77217923
v 0.01782324 -0.16289978 0.77217923
v 0.01782324 -0.16289978 0.77217923
v 0.01732642 -0.16287901 0.77329191
v 0.01762288 -0.16287901 0.77329191
v 0.01762288 -0.16287901 0.77377726
v 0.01732642 -0.16287901 0.77377726
v 0.01686823 -0.16287901 0.77329191
v 0.01810844 -0.16287901 0.77329191
v 0.01686823 -0.16287901 0.77297331
v 0.01732642 -0.16287901 0.77297331
v 0.01762288 -0.16287901 0.77297331
v 0.01810844 -0.16287901 0.77297331
v 0.01732642 -0.16287901 0.77244123
v 0.01762288 -0.16287901 0.77244123
v 0.01717843 -0.16303835 0.72154821
v 0.01717843 -0.16303835 0.72154821
v 0.01717843 -0.16303835 0.72154821
v 0.01717843 -0.16303835 0.72154821
v 0.01745236 -0.16303835 0.72135784
v 0.01745236 -0.16303835 0.72135784
v 0.01745236 -0.16303835 0.72135784
v 0.01745236 -0.16303835 0.72135784
v 0.01741509 -0.16315593 0.72126425
v 0.01741509 -0.16315593 0.72126425
v 0.01741509 -0.16315593 0.72126425
v 0.01741509 -0.16315593 0.72126425
v 0.01710955 -0.16315593 0.72147657
v 0.01710955 -0.16315593 0.72147657
v 0.01710955 -0.16315593 0.72147657
v 0.01710955 -0.16315593 0.72147657
v 0.01732510 -0.16285992 0.72197511
v 0.01732510 -0.16285992 0.72197511
v 0.01732510 -0.16285992 0.72197511
v 0.01732510 -0.16285992 0.72197511
v 0.01713854 -0.16293739 0.72189477
v 0.01713854 -0.16293739 0.72189477
v 0.01713854 -0.16293739 0.72189477
v 0.01713854 -0.16293739 0.72189477
v 0.01708606 -0.16293739 0.72216915
v 0.01708606 -0.16293739 0.72216915
v 0.01708606 -0.16293739 0.72216915
v 0.01708606 -0.16293739 0.72216915
v 0.01728799 -0.16285992 0.72216915
v 0.01728799 -0.16285992 0.72216915
v 0.01728799 -0.16285992 0.72216915
v 0.01728799 -0.16285992 0.72216915
v 0.01777549 -0.16315593 0.72118968
v 0.01777549 -0.16315593 0.72118968
v 0.01777549 -0.16315593 0.72118968
v 0.01777549 -0.16315593 0.72118968
v 0.01777549 -0.16328210 0.72115515
v 0.01777549 -0.16328210 0.72115515
v 0.01740237 -0.16328210 0.72123237
v 0.01740237 -0.16328210 0.72123237
v 0.01740237 -0.16328210 0.72123237
v 0.01740237 -0.16328210 0.72123237
v 0.01777549 -0.16303835 0.72129100
v 0.01777549 -0.16303835 0.72129100
v 0.01777549 -0.16303835 0.72129100
v 0.01777549 -0.16303835 0.72129100
v 0.01777549 -0.16279460 0.72216915
v 0.01777549 -0.16279460 0.72216915
v 0.01777549 -0.16279460 0.72216915
v 0.01777549 -0.16279460 0.72216915
v 0.01777549 -0.16279460 0.72216915
v 0.01777549 -0.16279460 0.72216915
v 0.01777549 -0.16279460 0.72216915
v 0.01777549 -0.16279460 0.72216915
v 0.01777549 -0.16279460 0.72216915
v 0.01777549 -0.16279460 0.72216915
v 0.01777549 -0.16279460 0.72216915
v 0.01777549 -0.16279460 0.72216915
v 0.01777549 -0.16279460 0.72216915
v 0.01777549 -0.16279460 0.72216915
v 0.01777549 -0.16279460 0.72216915
v 0.01777549 -0.16279460 0.72216915
v 0.01795393 -0.16281121 0.72198357
v 0.01795393 -0.16281121 0.72198357
v 0.01795393 -0.16281121 0.72198357
v 0.01795393 -0.16281121 0.72198357
v 0.01787206 -0.16281121 0.72192666
v 0.01787206 -0.16281121 0.72192666
v 0.01787206 -0.16281121 0.72192666
v 0.01787206 -0.16281121 0.72192666
v 0.01743077 -0.16285992 0.72181063
v 0.01743077 -0.16285992 0.72181063
v 0.01743077 -0.16285992 0.72181063
v 0.01743077 -0.16285992 0.72181063
v 0.01728799 -0.16293739 0.72166215
v 0.01728799 -0.16293739 0.72166215
v 0.01728799 -0.16293739 0.72166215
v 0.01728799 -0.16293739 0.72166215
v 0.01846492 -0.16328210 0.72145217
v 0.01846492 -0.16328210 0.72145217
v 0.01846492 -0.16328210 0.72145217
v 0.01846492 -0.16328210 0.72145217
v 0.01867627 -0.16328210 0.72178113
v 0.01867627 -0.16328210 0.72178113
v 0.01867627 -0.16328210 0.72178113
v 0.01867627 -0.16328210 0.72178113
v 0.01864558 -0.16340828 0.72179432
v 0.01864558 -0.16340828 0.72179432
v 0.01864558 -0.16340828 0.72179432
v 0.01864558 -0.16340828 0.72179432
v 0.01844143 -0.16340828 0.72147657
v 0.01844143 -0.16340828 0.72147657
v 0.01844143 -0.16340828 0.72147657
v 0.01844143 -0.16340828 0.72147657
v 0.01690540 -0.16340828 0.72179432
v 0.01690540 -0.16340828 0.72179432
v 0.01690540 -0.16340828 0.72179432
v 0.01690540 -0.16340828 0.72179432
v 0.01710955 -0.16340828 0.72147657
v 0.01710955 -0.16340828 0.72147657
v 0.01710955 -0.16340828 0.72147657
v 0.01710955 -0.16340828 0.72147657
v 0.01717843 -0.16352585 0.72154821
v 0.01717843 -0.16352585 0.72154821
v 0.01717843 -0.16352585 0.72154821
v 0.01699539 -0.16352585 0.72183308
v 0.01699539 -0.16352585 0.72183308
v 0.01699539 -0.16352585 0.72183308
v 0.01777549 -0.16281121 0.72243157
v 0.01777549 -0.16281121 0.72243157
v 0.01777549 -0.16281121 0.72243157
v 0.01777549 -0.16281121 0.72243157
v 0.01787206 -0.16281121 0.72241164
v 0.01787206 -0.16281121 0.72241164
v 0.01787206 -0.16281121 0.72241164
v 0.01787206 -0.16281121 0.72241164
v 0.01710955 -0.16315593 0.72286173
v 0.01710955 -0.16315593 0.72286173
v 0.01710955 -0.16315593 0.72286173
v 0.01710955 -0.16315593 0.72286173
v 0.01690540 -0.16315593 0.72254399
v 0.01690540 -0.16315593 0.72254399
v 0.01690540 -0.16315593 0.72254399
v 0.01690540 -0.16315593 0.72254399
v 0.01687471 -0.16328210 0.72255717
v 0.01687471 -0.16328210 0.72255717
v 0.01687471 -0.16328210 0.72255717
v 0.01687471 -0.16328210 0.72255717
v 0.01708606 -0.16328210 0.72288614
v 0.01708606 -0.16328210 0.72288614
v 0.01708606 -0.16328210 0.72288614
v 0.01708606 -0.16328210 0.72288614
v 0.01796205 -0.16285992 0.72263757
v 0.01796205 -0.16285992 0.72263757
v 0.01796205 -0.16285992 0.72263757
v 0.01796205 -0.16285992 0.72263757
v 0.01777549 -0.16285992 0.72267615
v 0.01777549 -0.16285992 0.72267615
v 0.01777549 -0.16285992 0.72267615
v 0.01777549 -0.16285992 0.72267615
v 0.01814861 -0.16328210 0.72310600
v 0.01814861 -0.16328210 0.72310600
v 0.01814861 -0.16328210 0.72310600
v 0.01814861 -0.16328210 0.72310600
v 0.01846492 -0.16328210 0.72288614
v 0.01846492 -0.16328210 0.72288614
v 0.01846492 -0.16328210 0.72288614
v 0.01846492 -0.16328210 0.72288614
v 0.01844143 -0.16315593 0.72286173
v 0.01844143 -0.16315593 0.72286173
v 0.01844143 -0.16315593 0.72286173
v 0.01844143 -0.16315593 0.72286173
v 0.01813589 -0.16315593 0.72307405
v 0.01813589 -0.16315593 0.72307405
v 0.01813589 -0.16315593 0.72307405
v 0.01813589 -0.16315593 0.72307405
v 0.01800863 -0.16281121 0.72226961
v 0.01800863 -0.16281121 0.72226961
v 0.01800863 -0.16281121 0.72226961
v 0.01800863 -0.16281121 0.72226961
v 0.01802784 -0.16281121 0.72216915
v 0.01802784 -0.16281121 0.72216915
v 0.01802784 -0.16281121 0.72216915
v 0.01802784 -0.16281121 0.72216915
v 0.01767892 -0.16281121 0.72241164
v 0.01767892 -0.16281121 0.72241164
v 0.01767892 -0.16281121 0.72241164
v 0.01767892 -0.16281121 0.72241164
v 0.01758893 -0.16285992 0.72263757
v 0.01758893 -0.16285992 0.72263757
v 0.01758893 -0.16285992 0.72263757
v 0.01758893 -0.16285992 0.72263757
v 0.01875049 -0.16328210 0.72216915
v 0.01875049 -0.16328210 0.72216915
v 0.01867627 -0.16328210 0.72255717
v 0.01867627 -0.16328210 0.72255717
v 0.01867627 -0.16328210 0.72255717
v 0.01867627 -0.16328210 0.72255717
v 0.01864558 -0.16340828 0.72254399
v 0.01864558 -0.16340828 0.72254399
v 0.01864558 -0.16340828 0.72254399
v 0.01864558 -0.16340828 0.72254399
v 0.01871727 -0.16340828 0.72216915
v 0.01871727 -0.16340828 0.72216915
v 0.01871727 -0.16340828 0.72216915
v 0.01871727 -0.16340828 0.72216915
v 0.01743077 -0.16285992 0.72252767
v 0.01743077 -0.16285992 0.72252767
v 0.01743077 -0.16285992 0.72252767
v 0.01743077 -0.16285992 0.72252767
v 0.01732510 -0.16285992 0.72236320
v 0.01732510 -0.16285992 0.72236320
v 0.01732510 -0.16285992 0.72236320
v 0.01732510 -0.16285992 0.72236320
v 0.01713854 -0.16293739 0.72244354
v 0.01713854 -0.16293739 0.72244354
v 0.01713854 -0.16293739 0.72244354
v 0.01713854 -0.16293739 0.72244354
v 0.01728799 -0.16293739 0.72267615
v 0.01728799 -0.16293739 0.72267615
v 0.01728799 -0.16293739 0.72267615
v 0.01728799 -0.16293739 0.72267615
v 0.01683371 -0.16315593 0.72216915
v 0.01683371 -0.16315593 0.72216915
v 0.01683371 -0.16315593 0.72216915
v 0.01683371 -0.16315593 0.72216915
v 0.01680049 -0.16328210 0.72216915
v 0.01680049 -0.16328210 0.72216915
v 0.01680049 -0.16328210 0.72216915
v 0.01680049 -0.16328210 0.72216915
v 0.01690540 -0.16315593 0.72179432
v 0.01690540 -0.16315593 0.72179432
v 0.01690540 -0.16315593 0.72179432
v 0.01690540 -0.16315593 0.72179432
v 0.01687471 -0.16328210 0.72178113
v 0.01687471 -0.16328210 0.72178113
v 0.01687471 -0.16328210 0.72178113
v 0.01687471 -0.16328210 0.72178113
v 0.01690540 -0.16340828 0.72254399
v 0.01690540 -0.16340828 0.72254399
v 0.01690540 -0.16340828 0.72254399
v 0.01690540 -0.16340828 0.72254399
v 0.01683371 -0.16340828 0.72216915
v 0.01683371 -0.16340828 0.72216915
v 0.01683371 -0.16340828 0.72216915
v 0.01683371 -0.16340828 0.72216915
v 0.01693111 -0.16352585 0.72216915
v 0.01693111 -0.16352585 0.72216915
v 0.01693111 -0.16352585 0.72216915
v 0.01699539 -0.16352585 0.72250523
v 0.01699539 -0.16352585 0.72250523
v 0.01699539 -0.16352585 0.72250523
v 0.01708606 -0.16328210 0.72145217
v 0.01708606 -0.16328210 0.72145217
v 0.01708606 -0.16328210 0.72145217
v 0.01708606 -0.16328210 0.72145217
v 0.01699539 -0.16303835 0.72183308
v 0.01699539 -0.16303835 0.72183308
v 0.01699539 -0.16303835 0.72183308
v 0.01699539 -0.16303835 0.72183308
v 0.01693111 -0.16303835 0.72216915
v 0.01693111 -0.16303835 0.72216915
v 0.01693111 -0.16303835 0.72216915
v 0.01693111 -0.16303835 0.72216915
v 0.01777549 -0.16293739 0.72145217
v 0.01777549 -0.16293739 0.72145217
v 0.01777549 -0.16293739 0.72145217
v 0.01777549 -0.16293739 0.72145217
v 0.01751165 -0.16293739 0.72150675
v 0.01751165 -0.16293739 0.72150675
v 0.01751165 -0.16293739 0.72150675
v 0.01751165 -0.16293739 0.72150675
v 0.01754235 -0.16281121 0.72206870
v 0.01754235 -0.16281121 0.72206870
v 0.01754235 -0.16281121 0.72206870
v 0.01754235 -0.16281121 0.72206870
v 0.01752314 -0.16281121 0.72216915
v 0.01752314 -0.16281121 0.72216915
v 0.01752314 -0.16281121 0.72216915
v 0.01752314 -0.16281121 0.72216915
v 0.01699539 -0.16303835 0.72250523
v 0.01699539 -0.16303835 0.72250523
v 0.01699539 -0.16303835 0.72250523
v 0.01699539 -0.16303835 0.72250523
v 0.01800863 -0.16281121 0.72206870
v 0.01800863 -0.16281121 0.72206870
v 0.01800863 -0.16281121 0.72206870
v 0.01800863 -0.16281121 0.72206870
v 0.01777549 -0.16340828 0.72118968
v 0.01777549 -0.16340828 0.72118968
v 0.01777549 -0.16340828 0.72118968
v 0.01777549 -0.16340828 0.72118968
v 0.01777549 -0.16352585 0.72129100
v 0.01777549 -0.16352585 0.72129100
v 0.01777549 -0.16352585 0.72129100
v 0.01745236 -0.16352585 0.72135784
v 0.01745236 -0.16352585 0.72135784
v 0.01745236 -0.16352585 0.72135784
v 0.01741509 -0.16340828 0.72126425
v 0.01741509 -0.16340828 0.72126425
v 0.01741509 -0.16340828 0.72126425
v 0.01741509 -0.16340828 0.72126425
v 0.01813589 -0.16315593 0.72126425
v 0.01813589 -0.16315593 0.72126425
v 0.01813589 -0.16315593 0.72126425
v 0.01813589 -0.16315593 0.72126425
v 0.01814861 -0.16328210 0.72123237
v 0.01814861 -0.16328210 0.72123237
v 0.01814861 -0.16328210 0.72123237
v 0.01814861 -0.16328210 0.72123237
v 0.01837255 -0.16303835 0.72279010
v 0.01837255 -0.16303835 0.72279010
v 0.01837255 -0.16303835 0.72279010
v 0.01837255 -0.16303835 0.72279010
v 0.01809862 -0.16303835 0.72298046
v 0.01809862 -0.16303835 0.72298046
v 0.01809862 -0.16303835 0.72298046
v 0.01809862 -0.16303835 0.72298046
v 0.01841244 -0.16293739 0.72189477
v 0.01841244 -0.16293739 0.72189477
v 0.01841244 -0.16293739 0.72189477
v 0.01841244 -0.16293739 0.72189477
v 0.01826299 -0.16293739 0.72166215
v 0.01826299 -0.16293739 0.72166215
v 0.01826299 -0.16293739 0.72166215
v 0.01826299 -0.16293739 0.72166215
v 0.01812021 -0.16285992 0.72181063
v 0.01812021 -0.16285992 0.72181063
v 0.01812021 -0.16285992 0.72181063
v 0.01812021 -0.16285992 0.72181063
v 0.01822588 -0.16285992 0.72197511
v 0.01822588 -0.16285992 0.72197511
v 0.01822588 -0.16285992 0.72197511
v 0.01822588 -0.16285992 0.72197511
v 0.01855559 -0.16303835 0.72183308
v 0.01855559 -0.16303835 0.72183308
v 0.01855559 -0.16303835 0.72183308
v 0.01855559 -0.16303835 0.72183308
v 0.01837255 -0.16303835 0.72154821
v 0.01837255 -0.16303835 0.72154821
v 0.01837255 -0.16303835 0.72154821
v 0.01837255 -0.16303835 0.72154821
v 0.01861987 -0.16303835 0.72216915
v 0.01861987 -0.16303835 0.72216915
v 0.01861987 -0.16303835 0.72216915
v 0.01861987 -0.16303835 0.72216915
v 0.01855559 -0.16303835 0.72250523
v 0.01855559 -0.16303835 0.72250523
v 0.01855559 -0.16303835 0.72250523
v 0.01855559 -0.16303835 0.72250523
v 0.01864558 -0.16315593 0.72254399
v 0.01864558 -0.16315593 0.72254399
v 0.01864558 -0.16315593 0.72254399
v 0.01864558 -0.16315593 0.72254399
v 0.01871727 -0.16315593 0.72216915
v 0.01871727 -0.16315593 0.72216915
v 0.01871727 -0.16315593 0.72216915
v 0.01871727 -0.16315593 0.72216915
v 0.01777549 -0.16281121 0.72190673
v 0.01777549 -0.16281121 0.72190673
v 0.01777549 -0.16281121 0.72190673
v 0.01777549 -0.16281121 0.72190673
v 0.01710955 -0.16340828 0.72286173
v 0.01710955 -0.16340828 0.72286173
v 0.01710955 -0.16340828 0.72286173
v 0.01710955 -0.16340828 0.72286173
v 0.01741509 -0.16340828 0.72307405
v 0.01741509 -0.16340828 0.72307405
v 0.01741509 -0.16340828 0.72307405
v 0.01741509 -0.16340828 0.72307405
v 0.01740237 -0.16328210 0.72310600
v 0.01740237 -0.16328210 0.72310600
v 0.01740237 -0.16328210 0.72310600
v 0.01740237 -0.16328210 0.72310600
v 0.01844143 -0.16340828 0.72286173
v 0.01844143 -0.16340828 0.72286173
v 0.01844143 -0.16340828 0.72286173
v 0.01844143 -0.16340828 0.72286173
v 0.01777549 -0.16315593 0.72314862
v 0.01777549 -0.16315593 0.72314862
v 0.01777549 -0.16315593 0.72314862
v 0.01777549 -0.16315593 0.72314862
v 0.01777549 -0.16303835 0.72304731
v 0.01777549 -0.16303835 0.72304731
v 0.01777549 -0.16303835 0.72304731
v 0.01777549 -0.16303835 0.72304731
v 0.01796205 -0.16285992 0.72170073
v 0.01796205 -0.16285992 0.72170073
v 0.01796205 -0.16285992 0.72170073
v 0.01796205 -0.16285992 0.72170073
v 0.01741509 -0.16315593 0.72307405
v 0.01741509 -0.16315593 0.72307405
v 0.01741509 -0.16315593 0.72307405
v 0.01741509 -0.16315593 0.72307405
v 0.01745236 -0.16303835 0.72298046
v 0.01745236 -0.16303835 0.72298046
v 0.01745236 -0.16303835 0.72298046
v 0.01745236 -0.16303835 0.72298046
v 0.01717843 -0.16303835 0.72279010
v 0.01717843 -0.16303835 0.72279010
v 0.01717843 -0.16303835 0.72279010
v 0.01717843 -0.16303835 0.72279010
v 0.01717843 -0.16352585 0.72279010
v 0.01717843 -0.16352585 0.72279010
v 0.01717843 -0.16352585 0.72279010
v 0.01826299 -0.16293739 0.72267615
v 0.01826299 -0.16293739 0.72267615
v 0.01826299 -0.16293739 0.72267615
v 0.01826299 -0.16293739 0.72267615
v 0.01812021 -0.16285992 0.72252767
v 0.01812021 -0.16285992 0.72252767
v 0.01812021 -0.16285992 0.72252767
v 0.01812021 -0.16285992 0.72252767
v 0.01803932 -0.16293739 0.72283156
v 0.01803932 -0.16293739 0.72283156
v 0.01803932 -0.16293739 0.72283156
v 0.01803932 -0.16293739 0.72283156
v 0.01795393 -0.16281121 0.72235473
v 0.01795393 -0.16281121 0.72235473
v 0.01795393 -0.16281121 0.72235473
v 0.01795393 -0.16281121 0.72235473
v 0.01759705 -0.16281121 0.72235473
v 0.01759705 -0.16281121 0.72235473
v 0.01759705 -0.16281121 0.72235473
v 0.01759705 -0.16281121 0.72235473
v 0.01754235 -0.16281121 0.72226961
v 0.01754235 -0.16281121 0.72226961
v 0.01754235 -0.16281121 0.72226961
v 0.01754235 -0.16281121 0.72226961
v 0.01846492 -0.16293739 0.72216915
v 0.01846492 -0.16293739 0.72216915
v 0.01846492 -0.16293739 0.72216915
v 0.01846492 -0.16293739 0.72216915
v 0.01803932 -0.16293739 0.72150675
v 0.01803932 -0.16293739 0.72150675
v 0.01803932 -0.16293739 0.72150675
v 0.01803932 -0.16293739 0.72150675
v 0.01777549 -0.16285992 0.72166215
v 0.01777549 -0.16285992 0.72166215
v 0.01777549 -0.16285992 0.72166215
v 0.01777549 -0.16285992 0.72166215
v 0.01758893 -0.16285992 0.72170073
v 0.01758893 -0.16285992 0.72170073
v 0.01758893 -0.16285992 0.72170073
v 0.01758893 -0.16285992 0.72170073
v 0.01813589 -0.16340828 0.72307405
v 0.01813589 -0.16340828 0.72307405
v 0.01813589 -0.16340828 0.72307405
v 0.01813589 -0.16340828 0.72307405
v 0.01751165 -0.16293739 0.72283156
v 0.01751165 -0.16293739 0.72283156
v 0.01751165 -0.16293739 0.72283156
v 0.01751165 -0.16293739 0.72283156
v 0.01864558 -0.16315593 0.72179432
v 0.01864558 -0.16315593 0.72179432
v 0.01864558 -0.16315593 0.72179432
v 0.01864558 -0.16315593 0.72179432
v 0.01777549 -0.16352585 0.72304731
v 0.01777549 -0.16352585 0.72304731
v 0.01777549 -0.16352585 0.72304731
v 0.01777549 -0.16340828 0.72314862
v 0.01777549 -0.16340828 0.72314862
v 0.01777549 -0.16340828 0.72314862
v 0.01777549 -0.16340828 0.72314862
v 0.01745236 -0.16352585 0.72298046
v 0.01745236 -0.16352585 0.72298046
v 0.01745236 -0.16352585 0.72298046
v 0.01759705 -0.16281121 0.72198357
v 0.01759705 -0.16281121 0.72198357
v 0.01759705 -0.16281121 0.72198357
v 0.01759705 -0.16281121 0.72198357
v 0.01826299 -0.16285992 0.72216915
v 0.01826299 -0.16285992 0.72216915
v 0.01826299 -0.16285992 0.72216915
v 0.01826299 -0.16285992 0.72216915
v 0.01844143 -0.16315593 0.72147657
v 0.01844143 -0.16315593 0.72147657
v 0.01844143 -0.16315593 0.72147657
v 0.01844143 -0.16315593 0.72147657
v 0.01809862 -0.16303835 0.72135784
v 0.01809862 -0.16303835 0.72135784
v 0.01809862 -0.16303835 0.72135784
v 0.01809862 -0.16303835 0.72135784
v 0.01822588 -0.16285992 0.72236320
v 0.01822588 -0.16285992 0.72236320
v 0.01822588 -0.16285992 0.72236320
v 0.01822588 -0.16285992 0.72236320
v 0.01767892 -0.16281121 0.72192666
v 0.01767892 -0.16281121 0.72192666
v 0.01767892 -0.16281121 0.72192666
v 0.01767892 -0.16281121 0.72192666
v 0.01809862 -0.16352585 0.72298046
v 0.01809862 -0.16352585 0.72298046
v 0.01809862 -0.16352585 0.72298046
v 0.01841244 -0.16293739 0.72244354
v 0.01841244 -0.16293739 0.72244354
v 0.01841244 -0.16293739 0.72244354
v 0.01841244 -0.16293739 0.72244354
v 0.01842109 -0.16352585 0.72205833
v 0.01855559 -0.16352585 0.72183308
v 0.01855559 -0.16352585 0.72183308
v 0.01855559 -0.16352585 0.72183308
v 0.01861987 -0.16352585 0.72216915
v 0.01861987 -0.16352585 0.72216915
v 0.01861987 -0.16352585 0.72216915
v 0.01842109 -0.16352585 0.72237693
v 0.01855559 -0.16352585 0.72250523
v 0.01855559 -0.16352585 0.72250523
v 0.01855559 -0.16352585 0.72250523
v 0.01793553 -0.16352585 0.72237693
v 0.01793553 -0.16352585 0.72286228
v 0.01837255 -0.16352585 0.72279010
v 0.01837255 -0.16352585 0.72279010
v 0.01837255 -0.16352585 0.72279010
v 0.01763907 -0.16352585 0.72286228
v 0.01718088 -0.16352585 0.72237693
v 0.01763907 -0.16352585 0.72237693
v 0.01718088 -0.16352585 0.72205833
v 0.01763907 -0.16352585 0.72205833
v 0.01763907 -0.16352585 0.72152625
v 0.01793553 -0.16352585 0.72152625
v 0.01837255 -0.16352585 0.72154821
v 0.01837255 -0.16352585 0.72154821
v 0.01837255 -0.16352585 0.72154821
v 0.01809862 -0.16352585 0.72135784
v 0.01809862 -0.16352585 0.72135784
v 0.01809862 -0.16352585 0.72135784
v 0.01793553 -0.16352585 0.72205833
v 0.01777549 -0.16328210 0.72318315
v 0.01777549 -0.16328210 0.72318315
v 0.01777549 -0.16328210 0.72318315
v 0.01777549 -0.16328210 0.72318315
v 0.01777549 -0.16293739 0.72288614
v 0.01777549 -0.16293739 0.72288614
v 0.01777549 -0.16293739 0.72288614
v 0.01777549 -0.16293739 0.72288614
v 0.01813589 -0.16340828 0.72126425
v 0.01813589 -0.16340828 0.72126425
v 0.01813589 -0.16340828 0.72126425
v 0.01813589 -0.16340828 0.72126425
v 0.01763907 -0.16338751 0.72237693
v 0.01793553 -0.16338751 0.72237693
v 0.01793553 -0.16338751 0.72286228
v 0.01763907 -0.16338751 0.72286228
v 0.01718088 -0.16338751 0.72237693
v 0.01842109 -0.16338751 0.72237693
v 0.01718088 -0.16338751 0.72205833
v 0.01763907 -0.16338751 0.72205833
v 0.01793553 -0.16338751 0.72205833
v 0.01842109 -0.16338751 0.72205833
v 0.01763907 -0.16338751 0.72152625
v 0.01793553 -0.16338751 0.72152625
f 1 5 10
f 10 14 1
f 17 22 25
f 25 29 17
f 33 37 41
f 41 12 33
f 45 36 11
f 11 8 45
f 50 63 67
f 71 75 24
f 24 19 71
f 79 83 87
f 87 91 79
f 95 99 103
f 103 106 95
f 111 115 49
f 119 123 127
f 127 130 119
f 134 116 112
f 112 138 134
f 142 146 150
f 150 154 142
f 158 162 51
f 109 166 170
f 170 137 109
f 174 176 179
f 179 183 174
f 187 191 196
f 196 200 187
f 124 204 208
f 208 128 124
f 203 212 216
f 216 207 203
f 220 224 228
f 228 230 220
f 215 236 100
f 100 96 215
f 211 16 235
f 235 218 211
f 23 240 244
f 244 27 23
f 245 43 7
f 7 252 245
f 254 20 32
f 32 257 254
f 264 243 206
f 206 121 264
f 48 267 64
f 270 273 278
f 278 282 270
f 286 289 38
f 38 34 286
f 110 47 165
f 153 149 294
f 294 296 153
f 302 305 310
f 310 312 302
f 318 321 303
f 303 299 318
f 326 328 334
f 334 337 326
f 52 68 342
f 331 152 145
f 145 175 331
f 344 350 353
f 353 129 344
f 178 148 358
f 358 180 178
f 360 156 295
f 295 366 360
f 307 369 69
f 69 65 307
f 373 375 381
f 381 120 373
f 38 272 279
f 279 39 38
f 343 219 231
f 231 385 343
f 389 392 133
f 133 397 389
f 391 400 113
f 113 136 391
f 114 401 53
f 405 408 192
f 192 188 405
f 199 195 261
f 261 380 199
f 30 26 198
f 198 194 30
f 323 315 301
f 301 411 323
f 304 416 367
f 367 309 304
f 420 246 250
f 250 422 420
f 355 147 141
f 141 426 355
f 40 281 101
f 101 234 40
f 433 202 382
f 382 376 433
f 317 325 335
f 335 436 317
f 415 247 421
f 421 368 415
f 161 268 54
f 440 441 347
f 347 446 440
f 242 239 214
f 214 205 242
f 55 448 255
f 454 311 266
f 266 164 454
f 319 456 283
f 283 460 319
f 413 300 313
f 313 455 413
f 359 363 378
f 378 371 359
f 466 157 398
f 398 390 466
f 56 471 449
f 399 160 57
f 474 427 442
f 442 439 474
f 320 316 437
f 437 457 320
f 314 308 66
f 66 265 314
f 327 291 151
f 151 333 327
f 238 4 15
f 15 213 238
f 13 9 42
f 42 233 13
f 462 46 248
f 248 414 462
f 410 452 467
f 467 478 410
f 453 163 159
f 159 465 453
f 329 476 387
f 387 293 329
f 475 464 393
f 393 386 475
f 459 80 287
f 287 285 459
f 479 482 483
f 483 486 479
f 486 483 488
f 488 490 486
f 491 490 488
f 488 494 491
f 491 494 472
f 472 495 491
f 495 472 445
f 445 384 495
f 495 384 232
f 232 496 495
f 495 496 497
f 496 232 227
f 227 498 496
f 498 227 107
f 107 499 498
f 499 107 105
f 105 500 499
f 500 105 277
f 277 501 500
f 502 501 277
f 277 505 502
f 505 277 275
f 508 501 502
f 502 482 508
f 508 482 479
f 445 472 438
f 463 284 35
f 35 44 463
f 292 388 395
f 395 297 292
f 336 332 177
f 177 173 336
f 168 403 189
f 189 169 168
f 172 190 201
f 201 431 172
f 280 276 104
f 104 102 280
f 223 97 108
f 108 229 223
f 429 144 509
f 509 443 429
f 512 143 155
f 155 361 512
f 140 171 430
f 430 513 140
f 516 432 377
f 377 365 516
f 510 362 374
f 374 351 510
f 458 435 84
f 84 81 458
f 181 357 492
f 492 489 181
f 444 511 352
f 352 349 444
f 58 339 470
f 258 31 193
f 193 407 258
f 406 59 259
f 60 256 260
f 469 424 72
f 72 451 469
f 354 372 117
f 117 132 354
f 92 88 480
f 480 503 92
f 89 184 484
f 484 481 89
f 450 73 18
f 18 253 450
f 434 338 174
f 174 85 434
f 322 461 417
f 417 306 322
f 37 288 520
f 520 269 37
f 341 419 423
f 423 468 341
f 271 519 506
f 506 274 271
f 383 447 348
f 348 345 383
f 379 262 122
f 122 118 379
f 290 82 93
f 93 518 290
f 76 3 237
f 237 21 76
f 298 394 515
f 515 364 298
f 396 135 139
f 139 514 396
f 185 182 487
f 487 485 185
f 249 6 2
f 2 77 249
f 517 94 504
f 504 507 517
f 86 173 186
f 186 90 86
f 28 241 263
f 263 197 28
f 222 125 210
f 210 226 222
f 425 251 78
f 78 74 425
f 209 217 98
f 98 225 209
f 324 412 477
f 477 330 324
f 402 61 409
f 167 62 404
f 131 126 221
f 221 346 131
f 370 418 340
f 340 70 370
f 493 356 428
f 428 473 493
f 521 522 523
f 523 524 521
f 522 521 525
f 525 526 522
f 526 525 527
f 527 528 526
f 526 528 529
f 529 530 526
f 529 528 531
f 531 532 529
f 536 538 542
f 542 545 536
f 552 555 559
f 559 563 552
f 568 569 572
f 572 543 568
f 575 565 541
f 541 539 575
f 588 597 601
f 605 609 554
f 554 549 605
f 613 617 621
f 621 625 613
f 629 633 635
f 635 638 629
f 641 645 587
f 649 654 657
f 657 661 649
f 665 646 642
f 642 669 665
f 673 677 681
f 681 686 673
f 689 693 586
f 643 697 702
f 702 670 643
f 706 707 711
f 711 718 706
f 722 726 730
f 730 732 722
f 653 736 740
f 740 658 653
f 735 744 748
f 748 739 735
f 753 757 759
f 759 764 753
f 747 768 634
f 634 630 747
f 743 548 767
f 767 750 743
f 553 772 776
f 776 560 553
f 779 576 537
f 537 782 779
f 786 550 561
f 561 791 786
f 795 775 738
f 738 655 795
f 585 797 598
f 801 805 810
f 810 814 801
f 817 820 570
f 570 566 817
f 644 584 698
f 685 682 826
f 826 830 685
f 833 837 841
f 841 845 833
f 849 853 835
f 835 831 849
f 857 861 865
f 865 869 857
f 583 602 873
f 863 684 678
f 678 708 863
f 877 881 885
f 885 662 877
f 709 679 889
f 889 712 709
f 893 687 827
f 827 897 893
f 839 901 599
f 599 595 839
f 905 909 913
f 913 650 905
f 570 802 813
f 813 573 570
f 876 754 762
f 762 916 876
f 920 923 666
f 666 927 920
f 925 933 647
f 647 667 925
f 648 930 594
f 935 941 725
f 725 721 935
f 731 729 796
f 796 911 731
f 564 557 728
f 728 724 564
f 855 847 834
f 834 945 855
f 838 948 899
f 899 842 838
f 952 780 781
f 781 957 952
f 887 680 674
f 674 961 887
f 571 811 631
f 631 766 571
f 964 734 914
f 914 908 964
f 850 858 867
f 867 968 850
f 949 778 953
f 953 902 949
f 694 798 593
f 972 976 879
f 879 979 972
f 774 771 746
f 746 737 774
f 592 982 785
f 986 843 799
f 799 695 986
f 851 991 816
f 816 995 851
f 944 832 846
f 846 985 944
f 891 895 907
f 907 903 891
f 997 690 932
f 932 922 997
f 591 1001 981
f 931 691 581
f 1004 960 975
f 975 970 1004
f 854 848 966
f 966 989 854
f 844 840 596
f 596 800 844
f 859 823 683
f 683 866 859
f 770 533 546
f 546 745 770
f 547 544 574
f 574 765 547
f 994 578 777
f 777 946 994
f 942 987 996
f 996 1008 942
f 984 696 692
f 692 998 984
f 862 1009 918
f 918 824 862
f 1010 999 924
f 924 921 1010
f 990 614 821
f 821 815 990
f 1011 1013 1016
f 1016 1018 1011
f 1018 1016 1019
f 1019 1022 1018
f 1023 1022 1019
f 1019 1026 1023
f 1023 1026 1006
f 1006 1027 1023
f 1027 1006 978
f 978 915 1027
f 1027 915 763
f 763 1028 1027
f 1027 1028 1029
f 1028 763 761
f 761 1030 1028
f 1030 761 639
f 639 1031 1030
f 1031 639 636
f 636 1032 1031
f 1032 636 809
f 809 1033 1032
f 1034 1033 809
f 809 1037 1034
f 1037 809 806
f 1040 1033 1034
f 1034 1013 1040
f 1040 1013 1011
f 978 1006 971
f 992 818 567
f 567 577 992
f 825 919 928
f 928 828 825
f 870 864 710
f 710 705 870
f 700 936 720
f 720 701 700
f 704 719 733
f 733 962 704
f 812 808 637
f 637 632 812
f 758 627 640
f 640 760 758
f 958 675 1041
f 1041 973 958
f 1044 676 688
f 688 894 1044
f 671 703 965
f 965 1045 671
f 1047 963 910
f 910 898 1047
f 1043 892 906
f 906 883 1043
f 988 969 618
f 618 611 988
f 713 890 1024
f 1024 1020 713
f 974 1042 886
f 886 882 974
f 582 871 1003
f 792 562 723
f 723 938 792
f 939 589 789
f 590 788 790
f 1000 956 606
f 606 980 1000
f 884 904 652
f 652 663 884
f 626 622 1012
f 1012 1035 626
f 619 717 1015
f 1015 1014 619
f 983 603 551
f 551 787 983
f 967 868 706
f 706 615 967
f 852 993 947
f 947 836 852
f 569 819 1050
f 1050 804 569
f 874 950 954
f 954 1002 874
f 803 1051 1038
f 1038 807 803
f 917 977 880
f 880 875 917
f 912 793 656
f 656 651 912
f 822 612 623
f 623 1052 822
f 610 535 769
f 769 556 610
f 829 926 1048
f 1048 896 829
f 929 668 672
f 672 1046 929
f 715 714 1021
f 1021 1017 715
f 783 540 534
f 534 607 783
f 1049 624 1036
f 1036 1039 1049
f 616 705 716
f 716 620 616
f 558 773 794
f 794 727 558
f 751 659 742
f 742 756 751
f 955 784 608
f 608 604 955
f 741 749 628
f 628 755 741
f 856 943 1007
f 1007 860 856
f 937 579 940
f 699 580 934
f 664 660 752
f 752 878 664
f 900 951 872
f 872 600 900
f 1025 888 959
f 959 1005 1025
f 1053 1054 1055
f 1055 1056 1053
f 1054 1053 1057
f 1057 1058 1054
f 1058 1057 1059
f 1059 1060 1058
f 1058 1060 1061
f 1061 1062 1058
f 1061 1060 1063
f 1063 1064 1061

