# https://github.com/mikedh/trimesh
v -0.44685521 -0.15729358 0.54221532
v -0.44187083 -0.15686627 0.54221532
v -0.44441879 -0.15642940 0.54221532
v -0.44685371 -0.15729184 0.54221532
v -0.44441889 -0.15642822 0.54221532
v -0.44187261 -0.15686482 0.54221532
v -0.43466698 -0.14804645 0.54227622
v -0.42968260 -0.14761913 0.54227622
v -0.43223057 -0.14718226 0.54227622
v -0.43466548 -0.14804471 0.54227622
v -0.43223066 -0.14718110 0.54227622
v -0.42968438 -0.14761768 0.54227622
v -0.40745287 -0.12733356 0.54227622
v -0.40246849 -0.12690625 0.54227622
v -0.40501646 -0.12646938 0.54227622
v -0.40745137 -0.12733183 0.54227622
v -0.40501655 -0.12646821 0.54227622
v -0.40247027 -0.12690480 0.54227622
v -0.39540435 -0.11870365 0.54227622
v -0.39041996 -0.11827634 0.54227622
v -0.39296793 -0.11783947 0.54227622
v -0.39540285 -0.11870192 0.54227622
v -0.39296803 -0.11783831 0.54227622
v -0.39042174 -0.11827489 0.54227622
v -0.42164199 -0.13762158 0.54227622
v -0.41665761 -0.13719427 0.54227622
v -0.41920558 -0.13675740 0.54227622
v -0.42164049 -0.13761985 0.54227622
v -0.41920567 -0.13675624 0.54227622
v -0.41665939 -0.13719282 0.54227622
v -0.27938591 0.02042954 0.53826917
v -0.27641021 0.02445098 0.53826917
v -0.27842291 0.02282863 0.53826917
v -0.27938622 0.02043181 0.53826917
v -0.27842386 0.02282933 0.53826917
v -0.27641248 0.02445061 0.53826917
v -0.27826214 0.03568730 0.53833006
v -0.27528644 0.03970874 0.53833006
v -0.27729913 0.03808639 0.53833006
v -0.27826244 0.03568958 0.53833006
v -0.27730009 0.03808709 0.53833006
v -0.27528870 0.03970837 0.53833006
v -0.27580202 0.06979859 0.53833006
v -0.27282632 0.07382003 0.53833006
v -0.27483902 0.07219768 0.53833006
v -0.27580233 0.06980087 0.53833006
v -0.27483997 0.07219837 0.53833006
v -0.27282859 0.07381966 0.53833006
v -0.27430759 0.08454337 0.53833006
v -0.27133189 0.08856481 0.53833006
v -0.27334459 0.08694246 0.53833006
v -0.27430790 0.08454565 0.53833006
v -0.27334554 0.08694316 0.53833006
v -0.27133416 0.08856444 0.53833006
v -0.27746831 0.05235160 0.53833006
v -0.27449260 0.05637304 0.53833006
v -0.27650530 0.05475068 0.53833006
v -0.27746862 0.05235387 0.53833006
v -0.27650625 0.05475138 0.53833006
v -0.27449488 0.05637267 0.53833006
v -0.46573857 -0.10633381 0.54221532
v -0.46108398 -0.10816730 0.54221532
v -0.46317199 -0.10664307 0.54221532
v -0.46573645 -0.10633293 0.54221532
v -0.46317156 -0.10664198 0.54221532
v -0.46108493 -0.10816520 0.54221532
v -0.45070987 -0.10347035 0.54227622
v -0.44605527 -0.10530384 0.54227622
v -0.44814328 -0.10377961 0.54227622
v -0.45070775 -0.10346947 0.54227622
v -0.44814285 -0.10377853 0.54227622
v -0.44605623 -0.10530175 0.54227622
v -0.41712419 -0.09701793 0.54227622
v -0.41246960 -0.09885142 0.54227622
v -0.41455761 -0.09732719 0.54227622
v -0.41712208 -0.09701704 0.54227622
v -0.41455718 -0.09732610 0.54227622
v -0.41247055 -0.09884932 0.54227622
v -0.40249498 -0.09464519 0.54227622
v -0.39784039 -0.09647868 0.54227622
v -0.39992840 -0.09495445 0.54227622
v -0.40249286 -0.09464431 0.54227622
v -0.39992797 -0.09495336 0.54227622
v -0.39784134 -0.09647658 0.54227622
v -0.43440787 -0.09992404 0.54227622
v -0.42975328 -0.10175752 0.54227622
v -0.43184129 -0.10023330 0.54227622
v -0.43440575 -0.09992316 0.54227622
v -0.43184086 -0.10023221 0.54227622
v -0.42975423 -0.10175543 0.54227622
v -0.22991676 0.00049166 0.53826917
v -0.22491924 0.00071860 0.53826917
v -0.22744762 0.00125737 0.53826917
v -0.22991520 0.00049333 0.53826917
v -0.22744768 0.00125854 0.53826917
v -0.22492096 0.00072012 0.53826917
v -0.21736719 0.00924220 0.53833006
v -0.21236967 0.00946914 0.53833006
v -0.21489804 0.01000791 0.53833006
v -0.21736563 0.00924388 0.53833006
v -0.21489811 0.01000908 0.53833006
v -0.21237138 0.00947066 0.53833006
v -0.18934379 0.02884629 0.53833006
v -0.18434627 0.02907323 0.53833006
v -0.18687465 0.02961200 0.53833006
v -0.18934223 0.02884796 0.53833006
v -0.18687471 0.02961317 0.53833006
v -0.18434799 0.02907475 0.53833006
v -0.17695861 0.03698570 0.53833006
v -0.17196109 0.03721263 0.53833006
v -0.17448946 0.03775141 0.53833006
v -0.17695705 0.03698738 0.53833006
v -0.17448952 0.03775257 0.53833006
v -0.17196281 0.03721416 0.53833006
v -0.20393437 0.01913602 0.53833006
v -0.19893685 0.01936296 0.53833006
v -0.20146522 0.01990173 0.53833006
v -0.20393280 0.01913770 0.53833006
v -0.20146528 0.01990291 0.53833006
v -0.19893856 0.01936449 0.53833006
v -0.41651140 -0.06057746 0.54155929
v -0.41185681 -0.06241095 0.54155929
v -0.41394482 -0.06088672 0.54155929
v -0.41650928 -0.06057658 0.54155929
v -0.41394439 -0.06088564 0.54155929
v -0.41185776 -0.06240886 0.54155929
f 3 1 4
f 3 5 6
f 9 7 10
f 9 11 12
f 15 13 16
f 15 17 18
f 21 19 22
f 21 23 24
f 27 25 28
f 27 29 30
f 33 31 34
f 33 35 36
f 39 37 40
f 39 41 42
f 45 43 46
f 45 47 48
f 51 49 52
f 51 53 54
f 57 55 58
f 57 59 60
f 63 61 64
f 63 65 66
f 69 67 70
f 69 71 72
f 75 73 76
f 75 77 78
f 81 79 82
f 81 83 84
f 87 85 88
f 87 89 90
f 93 91 94
f 93 95 96
f 99 97 100
f 99 101 102
f 105 103 106
f 105 107 108
f 111 109 112
f 111 113 114
f 117 115 118
f 117 119 120
f 123 121 124
f 123 125 126
f 4 5 3
f 6 2 3
f 10 11 9
f 12 8 9
f 16 17 15
f 18 14 15
f 22 23 21
f 24 20 21
f 28 29 27
f 30 26 27
f 34 35 33
f 36 32 33
f 40 41 39
f 42 38 39
f 46 47 45
f 48 44 45
f 52 53 51
f 54 50 51
f 58 59 57
f 60 56 57
f 64 65 63
f 66 62 63
f 70 71 69
f 72 68 69
f 76 77 75
f 78 74 75
f 82 83 81
f 84 80 81
f 88 89 87
f 90 86 87
f 94 95 93
f 96 92 93
f 100 101 99
f 102 98 99
f 106 107 105
f 108 104 105
f 112 113 111
f 114 110 111
f 118 119 117
f 120 116 117
f 124 125 123
f 126 122 123

