# https://github.com/mikedh/trimesh
v -0.45843436 -0.05268278 0.52902959
v -0.45843436 -0.05268278 0.52902959
v -0.45843436 -0.05268278 0.52902959
v -0.45843436 -0.05268278 0.52031094
v -0.45843436 -0.05268278 0.52031094
v -0.45843436 -0.05268278 0.52031094
v -0.45843436 -0.05268278 0.52031094
v -0.45730703 -0.05594378 0.52031094
v -0.45730703 -0.05594378 0.52031094
v -0.45730703 -0.05594378 0.52031094
v -0.45730703 -0.05594378 0.52031094
v -0.45730703 -0.05594378 0.52902959
v -0.45730703 -0.05594378 0.52902959
v -0.45730703 -0.05594378 0.52902959
v -0.46101173 -0.05038880 0.52031094
v -0.46101173 -0.05038880 0.52031094
v -0.46101173 -0.05038880 0.52031094
v -0.46101173 -0.05038880 0.52031094
v -0.46434848 -0.04967651 0.52031094
v -0.46434848 -0.04967651 0.52031094
v -0.46434848 -0.04967651 0.52031094
v -0.46434848 -0.04967651 0.52031094
v -0.46433133 -0.04990192 0.51792552
v -0.46433133 -0.04990192 0.51792552
v -0.46433133 -0.04990192 0.51792552
v -0.46433133 -0.04990192 0.51792552
v -0.46110829 -0.05058994 0.51792552
v -0.46110829 -0.05058994 0.51792552
v -0.46110829 -0.05058994 0.51792552
v -0.46110829 -0.05058994 0.51792552
v -0.45793171 -0.05929803 0.52031094
v -0.45793171 -0.05929803 0.52031094
v -0.45793171 -0.05929803 0.52031094
v -0.45793171 -0.05929803 0.52031094
v -0.46014109 -0.06184675 0.52031094
v -0.46014109 -0.06184675 0.52031094
v -0.46014109 -0.06184675 0.52031094
v -0.46014109 -0.06184675 0.52031094
v -0.46014109 -0.06184675 0.52902959
v -0.46014109 -0.06184675 0.52902959
v -0.46014109 -0.06184675 0.52902959
v -0.45793171 -0.05929803 0.52902959
v -0.45793171 -0.05929803 0.52902959
v -0.45793171 -0.05929803 0.52902959
v -0.45752980 -0.05595564 0.51792552
v -0.45752980 -0.05595564 0.51792552
v -0.45752980 -0.05595564 0.51792552
v -0.45752980 -0.05595564 0.51792552
v -0.45818303 -0.05599040 0.51570275
v -0.45818303 -0.05599040 0.51570275
v -0.45818303 -0.05599040 0.51570275
v -0.45818303 -0.05599040 0.51570275
v -0.45872404 -0.05889527 0.51570275
v -0.45872404 -0.05889527 0.51570275
v -0.45872404 -0.05889527 0.51570275
v -0.45872404 -0.05889527 0.51570275
v -0.45813324 -0.05919560 0.51792552
v -0.45813324 -0.05919560 0.51792552
v -0.45813324 -0.05919560 0.51792552
v -0.45813324 -0.05919560 0.51792552
v -0.46168134 -0.05178352 0.51447398
v -0.46168134 -0.05178352 0.51447398
v -0.46168134 -0.05178352 0.51447398
v -0.45971296 -0.05353549 0.51447398
v -0.45971296 -0.05353549 0.51447398
v -0.45971296 -0.05353549 0.51447398
v -0.45885197 -0.05602600 0.51447398
v -0.45885197 -0.05602600 0.51447398
v -0.45885197 -0.05602600 0.51447398
v -0.46422971 -0.05123953 0.51447398
v -0.46422971 -0.05123953 0.51447398
v -0.46422971 -0.05123953 0.51447398
v -0.45932907 -0.05858772 0.51447398
v -0.45932907 -0.05858772 0.51447398
v -0.45932907 -0.05858772 0.51447398
v -0.46101643 -0.06053425 0.51447398
v -0.46101643 -0.06053425 0.51447398
v -0.46101643 -0.06053425 0.51447398
v -0.46667520 -0.05204928 0.51447398
v -0.46667520 -0.05204928 0.51447398
v -0.46667520 -0.05204928 0.51447398
v -0.46346192 -0.06134400 0.51447398
v -0.46346192 -0.06134400 0.51447398
v -0.46346192 -0.06134400 0.51447398
v -0.46836255 -0.05399580 0.51447398
v -0.46836255 -0.05399580 0.51447398
v -0.46836255 -0.05399580 0.51447398
v -0.46601028 -0.06080001 0.51447398
v -0.46601028 -0.06080001 0.51447398
v -0.46601028 -0.06080001 0.51447398
v -0.46883965 -0.05655753 0.51447398
v -0.46883965 -0.05655753 0.51447398
v -0.46883965 -0.05655753 0.51447398
v -0.46797867 -0.05904804 0.51447398
v -0.46797867 -0.05904804 0.51447398
v -0.46797867 -0.05904804 0.51447398
v -0.46853228 -0.05941724 0.51570275
v -0.46853228 -0.05941724 0.51570275
v -0.46853228 -0.05941724 0.51570275
v -0.46853228 -0.05941724 0.51570275
v -0.46630021 -0.06140388 0.51570275
v -0.46630021 -0.06140388 0.51570275
v -0.46630021 -0.06140388 0.51570275
v -0.46630021 -0.06140388 0.51570275
v -0.46950859 -0.05659313 0.51570275
v -0.46950859 -0.05659313 0.51570275
v -0.46950859 -0.05659313 0.51570275
v -0.46950859 -0.05659313 0.51570275
v -0.47016183 -0.05662789 0.51792552
v -0.47016183 -0.05662789 0.51792552
v -0.47016183 -0.05662789 0.51792552
v -0.47016183 -0.05662789 0.51792552
v -0.46907288 -0.05977778 0.51792552
v -0.46907288 -0.05977778 0.51792552
v -0.46907288 -0.05977778 0.51792552
v -0.46907288 -0.05977778 0.51792552
v -0.46168134 -0.05178352 0.54091106
v -0.45971296 -0.05353549 0.54091106
v -0.45885197 -0.05602600 0.54091106
v -0.46289328 -0.05152482 0.54091106
v -0.45907885 -0.05724430 0.54091106
v -0.46422971 -0.05123953 0.54091106
v -0.45932907 -0.05858772 0.54091106
v -0.46101643 -0.06053425 0.54091106
v -0.46667520 -0.05204928 0.54091106
v -0.46346192 -0.06134400 0.54091106
v -0.46836255 -0.05399580 0.54091106
v -0.46479835 -0.06105872 0.54091106
v -0.46861277 -0.05533923 0.54091106
v -0.46601028 -0.06080001 0.54091106
v -0.46883965 -0.05655753 0.54091106
v -0.46797867 -0.05904804 0.54091106
v -0.47038463 -0.05663975 0.52031094
v -0.47038463 -0.05663975 0.52031094
v -0.47038463 -0.05663975 0.52031094
v -0.47038463 -0.05663975 0.52031094
v -0.46975991 -0.05328550 0.52031094
v -0.46975991 -0.05328550 0.52031094
v -0.46975991 -0.05328550 0.52031094
v -0.46975991 -0.05328550 0.52031094
v -0.46975991 -0.05328550 0.52902959
v -0.46975991 -0.05328550 0.52902959
v -0.46975991 -0.05328550 0.52902959
v -0.47038463 -0.05663975 0.52902959
v -0.47038463 -0.05663975 0.52902959
v -0.47038463 -0.05663975 0.52902959
v -0.46896758 -0.05368826 0.51570275
v -0.46896758 -0.05368826 0.51570275
v -0.46896758 -0.05368826 0.51570275
v -0.46896758 -0.05368826 0.51570275
v -0.46705421 -0.05148101 0.51570275
v -0.46705421 -0.05148101 0.51570275
v -0.46705421 -0.05148101 0.51570275
v -0.46705421 -0.05148101 0.51570275
v -0.46742429 -0.05092606 0.51792552
v -0.46742429 -0.05092606 0.51792552
v -0.46742429 -0.05092606 0.51792552
v -0.46742429 -0.05092606 0.51792552
v -0.46955839 -0.05338793 0.51792552
v -0.46955839 -0.05338793 0.51792552
v -0.46955839 -0.05338793 0.51792552
v -0.46955839 -0.05338793 0.51792552
v -0.46755054 -0.05073678 0.52031094
v -0.46755054 -0.05073678 0.52031094
v -0.46755054 -0.05073678 0.52031094
v -0.46755054 -0.05073678 0.52031094
v -0.45861877 -0.05280575 0.51792552
v -0.45861877 -0.05280575 0.51792552
v -0.45861877 -0.05280575 0.51792552
v -0.45861877 -0.05280575 0.51792552
v -0.46063745 -0.06110253 0.51570275
v -0.46063745 -0.06110253 0.51570275
v -0.46063745 -0.06110253 0.51570275
v -0.46063745 -0.06110253 0.51570275
v -0.46341049 -0.06202074 0.51570275
v -0.46341049 -0.06202074 0.51570275
v -0.46341049 -0.06202074 0.51570275
v -0.46341049 -0.06202074 0.51570275
v -0.46336030 -0.06268161 0.51792552
v -0.46336030 -0.06268161 0.51792552
v -0.46336030 -0.06268161 0.51792552
v -0.46336030 -0.06268161 0.51792552
v -0.46026733 -0.06165747 0.51792552
v -0.46026733 -0.06165747 0.51792552
v -0.46026733 -0.06165747 0.51792552
v -0.46026733 -0.06165747 0.51792552
v -0.46925727 -0.05990075 0.52031094
v -0.46925727 -0.05990075 0.52031094
v -0.46925727 -0.05990075 0.52031094
v -0.46925727 -0.05990075 0.52031094
v -0.46925727 -0.05990075 0.52902959
v -0.46925727 -0.05990075 0.52902959
v -0.46925727 -0.05990075 0.52902959
v -0.46806888 -0.05910820 0.53843285
v -0.46605754 -0.06089841 0.53843285
v -0.46605987 -0.06089791 0.53843285
v -0.46806990 -0.05910888 0.53843285
v -0.46894910 -0.05656568 0.53843285
v -0.46894867 -0.05656333 0.53843285
v -0.46428113 -0.05056279 0.51570275
v -0.46428113 -0.05056279 0.51570275
v -0.46428113 -0.05056279 0.51570275
v -0.46428113 -0.05056279 0.51570275
v -0.46139141 -0.05117965 0.51570275
v -0.46139141 -0.05117965 0.51570275
v -0.46139141 -0.05117965 0.51570275
v -0.46139141 -0.05117965 0.51570275
v -0.45915938 -0.05316629 0.51570275
v -0.45915938 -0.05316629 0.51570275
v -0.45915938 -0.05316629 0.51570275
v -0.45915938 -0.05316629 0.51570275
v -0.46658333 -0.06199360 0.51792552
v -0.46658333 -0.06199360 0.51792552
v -0.46658333 -0.06199360 0.51792552
v -0.46658333 -0.06199360 0.51792552
v -0.46667993 -0.06219473 0.52031094
v -0.46667993 -0.06219473 0.52031094
v -0.46667993 -0.06219473 0.52031094
v -0.46667993 -0.06219473 0.52031094
v -0.46667993 -0.06219473 0.52902959
v -0.46667993 -0.06219473 0.52902959
v -0.46667993 -0.06219473 0.52902959
v -0.46334315 -0.06290702 0.52031094
v -0.46334315 -0.06290702 0.52031094
v -0.46334315 -0.06290702 0.52031094
v -0.46334315 -0.06290702 0.52031094
v -0.46334315 -0.06290702 0.52902959
v -0.46334315 -0.06290702 0.52902959
v -0.46334315 -0.06290702 0.52902959
v -0.46755054 -0.05073678 0.52902959
v -0.46755054 -0.05073678 0.52902959
v -0.46755054 -0.05073678 0.52902959
v -0.46434848 -0.04967651 0.52902959
v -0.46434848 -0.04967651 0.52902959
v -0.46434848 -0.04967651 0.52902959
v -0.46101173 -0.05038880 0.52902959
v -0.46101173 -0.05038880 0.52902959
v -0.46101173 -0.05038880 0.52902959
f 1 4 8
f 15 19 23
f 31 35 39
f 45 49 53
f 61 64 69
f 72 69 73
f 79 72 76
f 85 79 84
f 92 85 88
f 94 99 103
f 91 107 98
f 105 111 116
f 117 118 119
f 120 119 121
f 122 121 123
f 125 122 124
f 127 125 126
f 129 127 128
f 131 129 130
f 135 139 141
f 147 151 155
f 160 156 164
f 148 162 110
f 161 137 136
f 7 167 46
f 171 175 180
f 109 133 187
f 134 146 193
f 50 68 74
f 194 195 196
f 194 197 198
f 87 80 152
f 86 150 106
f 81 70 202
f 204 200 71
f 75 77 172
f 209 65 67
f 14 9 32
f 100 115 213
f 217 189 191
f 28 24 203
f 223 219 220
f 179 215 216
f 176 104 212
f 113 190 218
f 138 163 232
f 154 201 25
f 158 26 20
f 165 21 233
f 235 22 16
f 58 183 36
f 211 207 62
f 78 82 178
f 168 210 52
f 56 174 185
f 10 48 60
f 186 182 225
f 38 226 229
f 169 29 205
f 5 17 30
f 2 237 18
f 83 90 102
f 236 3 13
f 234 13 42
f 231 42 41
f 142 231 228
f 144 142 221
f 8 12 1
f 23 27 15
f 39 43 31
f 53 57 45
f 69 72 61
f 73 76 72
f 76 84 79
f 84 88 85
f 88 96 92
f 103 89 94
f 98 95 91
f 116 97 105
f 119 120 117
f 121 122 120
f 123 124 122
f 124 126 125
f 126 128 127
f 128 130 129
f 130 132 131
f 141 145 135
f 155 159 147
f 164 140 160
f 110 108 148
f 136 112 161
f 46 11 7
f 180 184 171
f 187 114 109
f 193 188 134
f 74 54 50
f 196 197 194
f 198 199 194
f 152 149 87
f 106 93 86
f 202 153 81
f 71 63 204
f 172 55 75
f 67 51 209
f 32 44 14
f 213 101 100
f 191 222 217
f 203 206 28
f 220 227 223
f 216 224 179
f 212 181 176
f 218 214 113
f 232 143 138
f 25 157 154
f 20 166 158
f 233 230 165
f 16 238 235
f 36 33 58
f 62 66 211
f 178 173 78
f 52 47 168
f 185 59 56
f 60 34 10
f 225 37 186
f 229 40 38
f 205 208 169
f 30 170 5
f 18 6 2
f 102 177 83
f 13 234 236
f 42 231 234
f 41 228 231
f 228 221 142
f 221 192 144

