# https://github.com/mikedh/trimesh
v 0.03124681 -0.11939004 0.59347429
v 0.03124496 -0.11939929 0.59350962
v 0.03185680 -0.11847711 0.59354298
v 0.03186205 -0.11847360 0.59356733
v 0.03490866 -0.12306963 0.59407046
v 0.03385719 -0.12327878 0.59407929
v 0.03103260 -0.12046690 0.59348140
v 0.03103843 -0.12049621 0.59359461
v 0.03583638 -0.11847711 0.59368428
v 0.03584142 -0.11848466 0.59371807
v 0.03492970 -0.11787129 0.59375248
v 0.03185680 -0.12245669 0.59386305
v 0.03187949 -0.12247185 0.59396822
v 0.03127216 -0.12158171 0.59379724
v 0.03280413 -0.12307353 0.59405752
v 0.03276972 -0.12306669 0.59401478
v 0.03189691 -0.12248349 0.59399392
v 0.03580906 -0.12247495 0.59403090
v 0.03492346 -0.12306669 0.59405206
v 0.03492346 -0.11786711 0.59372438
v 0.03385719 -0.11765502 0.59375253
v 0.03642567 -0.12157476 0.59396957
v 0.03642627 -0.12157385 0.59396822
v 0.03384659 -0.11765291 0.59371157
v 0.03278198 -0.11786468 0.59368348
v 0.03644638 -0.11939004 0.59365000
v 0.03644985 -0.11940751 0.59371660
v 0.03666058 -0.12046690 0.59368863
v 0.03665475 -0.12049621 0.59380178
v 0.03644638 -0.12154377 0.59382944
v 0.03644638 -0.12154377 0.59382944
v 0.03644604 -0.12154428 0.59383183
v 0.03124681 -0.12154377 0.59362228
v 0.03384659 -0.12328088 0.59406629
v 0.03583638 -0.12245669 0.59399061
v 0.03276972 -0.11786711 0.59363558
v 0.03644638 -0.11939004 0.59851902
v 0.03583638 -0.11847711 0.59851902
v 0.03583638 -0.11847711 0.65524754
v 0.03644638 -0.11939004 0.65524754
v 0.03666058 -0.12046690 0.59851902
v 0.03666058 -0.12046690 0.65524754
v 0.03384659 -0.12328088 0.59851902
v 0.03384659 -0.12328088 0.65524754
v 0.03276972 -0.12306669 0.65524754
v 0.03276972 -0.12306669 0.59851902
v 0.03185680 -0.11847711 0.59851902
v 0.03124681 -0.11939004 0.59851902
v 0.03124681 -0.11939004 0.65524754
v 0.03185680 -0.11847711 0.65524754
v 0.03492346 -0.11786711 0.59851902
v 0.03492346 -0.11786711 0.65524754
v 0.03492346 -0.12306669 0.59851902
v 0.03492346 -0.12306669 0.65524754
v 0.03276972 -0.11786711 0.65524754
v 0.03276972 -0.11786711 0.59851902
v 0.03103260 -0.12046690 0.59851902
v 0.03124681 -0.12154377 0.59851902
v 0.03124681 -0.12154377 0.65524754
v 0.03103260 -0.12046690 0.65524754
v 0.03644638 -0.12154377 0.59851902
v 0.03644638 -0.12154377 0.65524754
v 0.03583638 -0.12245669 0.59851902
v 0.03583638 -0.12245669 0.65524754
v 0.03384659 -0.11765291 0.59851902
v 0.03384659 -0.11765291 0.65524754
v 0.03185680 -0.12245669 0.59851902
v 0.03185680 -0.12245669 0.65524754
v 0.03583638 -0.11847711 0.66054407
v 0.03492346 -0.11786711 0.66054407
v 0.03124681 -0.12154377 0.66054407
v 0.03103260 -0.12046690 0.66054407
v 0.03644638 -0.12154377 0.59383183
v 0.03644638 -0.12154377 0.59383183
v 0.03666058 -0.12046690 0.66054407
v 0.03644638 -0.12154377 0.66054407
v 0.03644638 -0.11939004 0.66054407
v 0.03384659 -0.11765291 0.66054407
v 0.03276972 -0.11786711 0.66054407
v 0.03384659 -0.12328088 0.66054407
v 0.03276972 -0.12306669 0.66054407
v 0.03185680 -0.12245669 0.66054407
v 0.03124681 -0.11939004 0.66054407
v 0.03185680 -0.11847711 0.66054407
v 0.03492346 -0.12306669 0.66054407
v 0.03583638 -0.12245669 0.66054407
f 35 63 53
f 53 18 35
f 18 53 19
f 58 33 14
f 14 12 58
f 58 12 67
f 27 26 37
f 37 41 27
f 27 41 28
f 69 39 52
f 52 70 69
f 2 7 57
f 57 48 2
f 2 48 1
f 60 59 71
f 71 72 60
f 32 31 73
f 57 7 8
f 8 33 57
f 57 33 58
f 56 36 4
f 4 47 56
f 47 4 3
f 62 42 75
f 75 76 62
f 51 20 21
f 21 65 51
f 65 21 24
f 34 43 46
f 46 15 34
f 15 46 16
f 42 40 77
f 77 75 42
f 29 28 41
f 41 30 29
f 74 30 41
f 41 61 74
f 32 74 61
f 61 23 32
f 22 23 61
f 61 35 22
f 35 61 63
f 10 9 38
f 38 37 10
f 10 37 26
f 51 38 9
f 9 11 51
f 51 11 20
f 65 24 25
f 25 56 65
f 56 25 36
f 78 66 55
f 55 79 78
f 44 80 81
f 81 45 44
f 45 81 82
f 82 68 45
f 59 68 82
f 82 71 59
f 50 49 83
f 83 84 50
f 40 39 69
f 69 77 40
f 19 53 43
f 43 5 19
f 6 5 43
f 43 34 6
f 70 52 66
f 66 78 70
f 3 1 48
f 48 47 3
f 49 60 72
f 72 83 49
f 16 46 67
f 67 17 16
f 13 17 67
f 67 12 13
f 54 85 80
f 80 44 54
f 64 62 76
f 76 86 64
f 79 55 50
f 50 84 79
f 64 86 85
f 85 54 64

