# https://github.com/mikedh/trimesh
v 0.03304921 -0.11809137 0.66669952
v 0.03304921 -0.11809137 0.66669952
v 0.03304921 -0.11809137 0.66669952
v 0.03304921 -0.11838896 0.66514368
v 0.03304921 -0.11838896 0.66514368
v 0.03304921 -0.11838896 0.66514368
v 0.03304921 -0.11809137 0.66358785
v 0.03304921 -0.11809137 0.66358785
v 0.03304921 -0.11809137 0.66358785
v 0.03304921 -0.11724396 0.66226887
v 0.03304921 -0.11724396 0.66226887
v 0.03304921 -0.11724396 0.66226887
v 0.03304921 -0.11724396 0.66801850
v 0.03304921 -0.11724396 0.66801850
v 0.03304921 -0.11724396 0.66801850
v 0.03304921 -0.11597571 0.66138752
v 0.03304921 -0.11597571 0.66138752
v 0.03304921 -0.11597571 0.66138752
v 0.03304921 -0.11597571 0.66889985
v 0.03304921 -0.11597571 0.66889985
v 0.03304921 -0.11597571 0.66889985
v 0.03304921 -0.11447971 0.66920931
v 0.03304921 -0.11447971 0.66920931
v 0.03304921 -0.11447971 0.66920931
v 0.03304921 -0.11447971 0.66107806
v 0.03304921 -0.11447971 0.66107806
v 0.03304921 -0.11447971 0.66107806
v 0.03304921 -0.11298371 0.66138752
v 0.03304921 -0.11298371 0.66138752
v 0.03304921 -0.11298371 0.66138752
v 0.03304921 -0.11298371 0.66889985
v 0.03304921 -0.11298371 0.66889985
v 0.03304921 -0.11298371 0.66889985
v 0.03304921 -0.11171546 0.66801850
v 0.03304921 -0.11171546 0.66801850
v 0.03304921 -0.11171546 0.66801850
v 0.03304921 -0.11171546 0.66226887
v 0.03304921 -0.11171546 0.66226887
v 0.03304921 -0.11171546 0.66226887
v 0.03304921 -0.11086804 0.66358785
v 0.03304921 -0.11086804 0.66358785
v 0.03304921 -0.11086804 0.66358785
v 0.03304921 -0.11086804 0.66669952
v 0.03304921 -0.11086804 0.66669952
v 0.03304921 -0.11086804 0.66669952
v 0.03304921 -0.11057046 0.66514368
v 0.03304921 -0.11057046 0.66514368
v 0.03304921 -0.11057046 0.66514368
v 0.02984499 -0.11809138 0.66358785
v 0.02984499 -0.11809138 0.66358785
v 0.02984499 -0.11809138 0.66358785
v 0.02984499 -0.11838896 0.66514368
v 0.02984499 -0.11838896 0.66514368
v 0.02984499 -0.11838896 0.66514368
v 0.02984499 -0.11809138 0.66669952
v 0.02984499 -0.11809138 0.66669952
v 0.02984499 -0.11809138 0.66669952
v 0.02984498 -0.11724396 0.66801850
v 0.02984498 -0.11724396 0.66801850
v 0.02984498 -0.11724396 0.66801850
v 0.02984499 -0.11771516 0.66514368
v 0.02984499 -0.11771516 0.66514368
v 0.02984499 -0.11771516 0.66514368
v 0.02984499 -0.11746887 0.66643139
v 0.02984499 -0.11746887 0.66643139
v 0.02984499 -0.11746887 0.66643139
v 0.02984498 -0.11676752 0.66752303
v 0.02984498 -0.11676752 0.66752303
v 0.02984498 -0.11676752 0.66752303
v 0.02984498 -0.11597571 0.66889985
v 0.02984498 -0.11597571 0.66889985
v 0.02984498 -0.11597571 0.66889985
v 0.02984498 -0.11571786 0.66825241
v 0.02984498 -0.11571786 0.66825241
v 0.02984498 -0.11571786 0.66825241
v 0.02984498 -0.11447971 0.66920931
v 0.02984498 -0.11447971 0.66920931
v 0.02984498 -0.11447971 0.66920931
v 0.02984498 -0.11447971 0.66850857
v 0.02984498 -0.11447971 0.66850857
v 0.02984498 -0.11447971 0.66850857
v 0.02984498 -0.11298371 0.66889985
v 0.02984498 -0.11298371 0.66889985
v 0.02984498 -0.11298371 0.66889985
v 0.02984498 -0.11324155 0.66825241
v 0.02984498 -0.11324155 0.66825241
v 0.02984498 -0.11324155 0.66825241
v 0.02984498 -0.11219190 0.66752303
v 0.02984498 -0.11219190 0.66752303
v 0.02984498 -0.11219190 0.66752303
v 0.02984498 -0.11171546 0.66801850
v 0.02984498 -0.11171546 0.66801850
v 0.02984498 -0.11171546 0.66801850
v 0.02984498 -0.11149055 0.66643139
v 0.02984498 -0.11149055 0.66643139
v 0.02984498 -0.11149055 0.66643139
v 0.02984498 -0.11086804 0.66669952
v 0.02984498 -0.11086804 0.66669952
v 0.02984498 -0.11086804 0.66669952
v 0.02984498 -0.11124426 0.66514368
v 0.02984498 -0.11124426 0.66514368
v 0.02984498 -0.11124426 0.66514368
v 0.02984498 -0.11086804 0.66358785
v 0.02984498 -0.11086804 0.66358785
v 0.02984498 -0.11086804 0.66358785
v 0.02984498 -0.11149055 0.66385598
v 0.02984498 -0.11149055 0.66385598
v 0.02984498 -0.11149055 0.66385598
v 0.02984498 -0.11171546 0.66226887
v 0.02984498 -0.11171546 0.66226887
v 0.02984498 -0.11171546 0.66226887
v 0.02984498 -0.11219190 0.66276434
v 0.02984498 -0.11219190 0.66276434
v 0.02984498 -0.11219190 0.66276434
v 0.02984499 -0.11298371 0.66138752
v 0.02984499 -0.11298371 0.66138752
v 0.02984499 -0.11298371 0.66138752
v 0.02984499 -0.11324155 0.66203496
v 0.02984499 -0.11324155 0.66203496
v 0.02984499 -0.11324155 0.66203496
v 0.02984499 -0.11447971 0.66107806
v 0.02984499 -0.11447971 0.66107806
v 0.02984499 -0.11447971 0.66107806
v 0.02984499 -0.11447971 0.66177879
v 0.02984499 -0.11447971 0.66177879
v 0.02984499 -0.11447971 0.66177879
v 0.02984499 -0.11571786 0.66203496
v 0.02984499 -0.11571786 0.66203496
v 0.02984499 -0.11571786 0.66203496
v 0.02984499 -0.11597571 0.66138752
v 0.02984499 -0.11597571 0.66138752
v 0.02984499 -0.11597571 0.66138752
v 0.02984499 -0.11676752 0.66276434
v 0.02984499 -0.11676752 0.66276434
v 0.02984499 -0.11676752 0.66276434
v 0.02984499 -0.11724396 0.66226887
v 0.02984499 -0.11724396 0.66226887
v 0.02984499 -0.11724396 0.66226887
v 0.02984499 -0.11746887 0.66385598
v 0.02984499 -0.11746887 0.66385598
v 0.02984499 -0.11746887 0.66385598
v 0.02984498 -0.11057046 0.66514368
v 0.02984498 -0.11057046 0.66514368
v 0.02984498 -0.11057046 0.66514368
v 0.03094647 -0.11571786 0.66825241
v 0.03094647 -0.11571786 0.66825241
v 0.03094647 -0.11676752 0.66752303
v 0.03094647 -0.11676752 0.66752303
v 0.03094647 -0.11447971 0.66850857
v 0.03094647 -0.11447971 0.66850857
v 0.03094647 -0.11324155 0.66825241
v 0.03094647 -0.11324155 0.66825241
v 0.03094647 -0.11219190 0.66752303
v 0.03094647 -0.11219190 0.66752303
v 0.03094647 -0.11149055 0.66643139
v 0.03094647 -0.11149055 0.66643139
v 0.03094647 -0.11124426 0.66514368
v 0.03094647 -0.11124426 0.66514368
v 0.03094647 -0.11149055 0.66385598
v 0.03094647 -0.11149055 0.66385598
v 0.03094647 -0.11219190 0.66276434
v 0.03094647 -0.11219190 0.66276434
v 0.03094647 -0.11324155 0.66203496
v 0.03094647 -0.11324155 0.66203496
v 0.03094647 -0.11447971 0.66177879
v 0.03094647 -0.11447971 0.66177879
v 0.03094647 -0.11571786 0.66203496
v 0.03094647 -0.11571786 0.66203496
v 0.03094647 -0.11676752 0.66276434
v 0.03094647 -0.11676752 0.66276434
v 0.03094647 -0.11746887 0.66385598
v 0.03094647 -0.11746887 0.66385598
v 0.03094647 -0.11771516 0.66514368
v 0.03094647 -0.11771516 0.66514368
v 0.03094647 -0.11746887 0.66643139
v 0.03094647 -0.11746887 0.66643139
v 0.03743698 -0.12200749 0.67608168
v 0.03743698 -0.12200749 0.67608168
v 0.03743698 -0.12200749 0.67608168
v 0.03773456 -0.12200749 0.67452584
v 0.03773456 -0.12200749 0.67452584
v 0.03773456 -0.12200749 0.67452584
v 0.03743698 -0.12200749 0.67297001
v 0.03743698 -0.12200749 0.67297001
v 0.03743698 -0.12200749 0.67297001
v 0.03658957 -0.12200749 0.67165103
v 0.03658957 -0.12200749 0.67165103
v 0.03658957 -0.12200749 0.67165103
v 0.03658957 -0.12200749 0.67740066
v 0.03658957 -0.12200749 0.67740066
v 0.03658957 -0.12200749 0.67740066
v 0.03532132 -0.12200749 0.67076968
v 0.03532132 -0.12200749 0.67076968
v 0.03532132 -0.12200749 0.67076968
v 0.03532132 -0.12200749 0.67828201
v 0.03532132 -0.12200749 0.67828201
v 0.03532132 -0.12200749 0.67828201
v 0.03382531 -0.12200749 0.67859147
v 0.03382531 -0.12200749 0.67859147
v 0.03382531 -0.12200749 0.67859147
v 0.03382531 -0.12200749 0.67046022
v 0.03382531 -0.12200749 0.67046022
v 0.03382531 -0.12200749 0.67046022
v 0.03232931 -0.12200749 0.67076968
v 0.03232931 -0.12200749 0.67076968
v 0.03232931 -0.12200749 0.67076968
v 0.03232931 -0.12200749 0.67828201
v 0.03232931 -0.12200749 0.67828201
v 0.03232931 -0.12200749 0.67828201
v 0.03106106 -0.12200749 0.67740066
v 0.03106106 -0.12200749 0.67740066
v 0.03106106 -0.12200749 0.67740066
v 0.03106106 -0.12200749 0.67165103
v 0.03106106 -0.12200749 0.67165103
v 0.03106106 -0.12200749 0.67165103
v 0.03021364 -0.12200749 0.67297001
v 0.03021364 -0.12200749 0.67297001
v 0.03021364 -0.12200749 0.67297001
v 0.03021364 -0.12200749 0.67608168
v 0.03021364 -0.12200749 0.67608168
v 0.03021364 -0.12200749 0.67608168
v 0.02991607 -0.12200749 0.67452584
v 0.02991607 -0.12200749 0.67452584
v 0.02991607 -0.12200749 0.67452584
v 0.03743698 -0.12521172 0.67297001
v 0.03743698 -0.12521172 0.67297001
v 0.03743698 -0.12521172 0.67297001
v 0.03773455 -0.12521172 0.67452584
v 0.03773455 -0.12521172 0.67452584
v 0.03773455 -0.12521172 0.67452584
v 0.03743698 -0.12521172 0.67608168
v 0.03743698 -0.12521172 0.67608168
v 0.03743698 -0.12521172 0.67608168
v 0.03658956 -0.12521172 0.67740066
v 0.03658956 -0.12521172 0.67740066
v 0.03658956 -0.12521172 0.67740066
v 0.03706076 -0.12521172 0.67452584
v 0.03706076 -0.12521172 0.67452584
v 0.03706076 -0.12521172 0.67452584
v 0.03681448 -0.12521172 0.67581355
v 0.03681448 -0.12521172 0.67581355
v 0.03681448 -0.12521172 0.67581355
v 0.03611312 -0.12521172 0.67690519
v 0.03611312 -0.12521172 0.67690519
v 0.03611312 -0.12521172 0.67690519
v 0.03532131 -0.12521171 0.67828201
v 0.03532131 -0.12521171 0.67828201
v 0.03532131 -0.12521171 0.67828201
v 0.03506346 -0.12521171 0.67763457
v 0.03506346 -0.12521171 0.67763457
v 0.03506346 -0.12521171 0.67763457
v 0.03382531 -0.12521171 0.67859147
v 0.03382531 -0.12521171 0.67859147
v 0.03382531 -0.12521171 0.67859147
v 0.03382531 -0.12521171 0.67789074
v 0.03382531 -0.12521171 0.67789074
v 0.03382531 -0.12521171 0.67789074
v 0.03232931 -0.12521171 0.67828201
v 0.03232931 -0.12521171 0.67828201
v 0.03232931 -0.12521171 0.67828201
v 0.03258716 -0.12521171 0.67763457
v 0.03258716 -0.12521171 0.67763457
v 0.03258716 -0.12521171 0.67763457
v 0.03153750 -0.12521171 0.67690519
v 0.03153750 -0.12521171 0.67690519
v 0.03153750 -0.12521171 0.67690519
v 0.03106106 -0.12521171 0.67740066
v 0.03106106 -0.12521171 0.67740066
v 0.03106106 -0.12521171 0.67740066
v 0.03083615 -0.12521171 0.67581355
v 0.03083615 -0.12521171 0.67581355
v 0.03083615 -0.12521171 0.67581355
v 0.03021364 -0.12521171 0.67608168
v 0.03021364 -0.12521171 0.67608168
v 0.03021364 -0.12521171 0.67608168
v 0.03058986 -0.12521171 0.67452584
v 0.03058986 -0.12521171 0.67452584
v 0.03058986 -0.12521171 0.67452584
v 0.03021364 -0.12521171 0.67297001
v 0.03021364 -0.12521171 0.67297001
v 0.03021364 -0.12521171 0.67297001
v 0.03083615 -0.12521171 0.67323814
v 0.03083615 -0.12521171 0.67323814
v 0.03083615 -0.12521171 0.67323814
v 0.03106106 -0.12521171 0.67165103
v 0.03106106 -0.12521171 0.67165103
v 0.03106106 -0.12521171 0.67165103
v 0.03153750 -0.12521171 0.67214650
v 0.03153750 -0.12521171 0.67214650
v 0.03153750 -0.12521171 0.67214650
v 0.03232931 -0.12521171 0.67076968
v 0.03232931 -0.12521171 0.67076968
v 0.03232931 -0.12521171 0.67076968
v 0.03258716 -0.12521171 0.67141712
v 0.03258716 -0.12521171 0.67141712
v 0.03258716 -0.12521171 0.67141712
v 0.03382531 -0.12521171 0.67046022
v 0.03382531 -0.12521171 0.67046022
v 0.03382531 -0.12521171 0.67046022
v 0.03382531 -0.12521171 0.67116095
v 0.03382531 -0.12521171 0.67116095
v 0.03382531 -0.12521171 0.67116095
v 0.03506346 -0.12521171 0.67141712
v 0.03506346 -0.12521171 0.67141712
v 0.03506346 -0.12521171 0.67141712
v 0.03532131 -0.12521171 0.67076968
v 0.03532131 -0.12521171 0.67076968
v 0.03532131 -0.12521171 0.67076968
v 0.03611312 -0.12521171 0.67214650
v 0.03611312 -0.12521171 0.67214650
v 0.03611312 -0.12521171 0.67214650
v 0.03658956 -0.12521171 0.67165103
v 0.03658956 -0.12521171 0.67165103
v 0.03658956 -0.12521171 0.67165103
v 0.03681448 -0.12521171 0.67323814
v 0.03681448 -0.12521171 0.67323814
v 0.03681448 -0.12521171 0.67323814
v 0.02991607 -0.12521171 0.67452584
v 0.02991607 -0.12521171 0.67452584
v 0.02991607 -0.12521171 0.67452584
v 0.03506347 -0.12411022 0.67763457
v 0.03506347 -0.12411022 0.67763457
v 0.03611312 -0.12411022 0.67690519
v 0.03611312 -0.12411022 0.67690519
v 0.03382531 -0.12411022 0.67789074
v 0.03382531 -0.12411022 0.67789074
v 0.03258716 -0.12411022 0.67763457
v 0.03258716 -0.12411022 0.67763457
v 0.03153750 -0.12411022 0.67690519
v 0.03153750 -0.12411022 0.67690519
v 0.03083615 -0.12411022 0.67581355
v 0.03083615 -0.12411022 0.67581355
v 0.03058986 -0.12411022 0.67452584
v 0.03058986 -0.12411022 0.67452584
v 0.03083615 -0.12411022 0.67323814
v 0.03083615 -0.12411022 0.67323814
v 0.03153750 -0.12411022 0.67214650
v 0.03153750 -0.12411022 0.67214650
v 0.03258716 -0.12411022 0.67141712
v 0.03258716 -0.12411022 0.67141712
v 0.03382531 -0.12411022 0.67116095
v 0.03382531 -0.12411022 0.67116095
v 0.03506347 -0.12411022 0.67141712
v 0.03506347 -0.12411022 0.67141712
v 0.03611312 -0.12411022 0.67214650
v 0.03611312 -0.12411022 0.67214650
v 0.03681448 -0.12411022 0.67323814
v 0.03681448 -0.12411022 0.67323814
v 0.03706076 -0.12411022 0.67452584
v 0.03706076 -0.12411022 0.67452584
v 0.03681448 -0.12411022 0.67581355
v 0.03681448 -0.12411022 0.67581355
f 3 5 9
f 9 10 3
f 15 3 10
f 10 17 15
f 20 15 17
f 17 22 20
f 22 17 27
f 27 29 22
f 33 22 29
f 29 34 33
f 34 29 39
f 39 40 34
f 44 34 40
f 40 46 44
f 49 52 55
f 55 58 49
f 61 49 58
f 58 64 61
f 67 64 58
f 58 72 67
f 75 67 72
f 72 77 75
f 80 75 77
f 77 84 80
f 87 80 84
f 84 88 87
f 88 84 93
f 93 95 88
f 95 93 98
f 98 101 95
f 101 98 103
f 103 106 101
f 106 103 110
f 110 113 106
f 113 110 115
f 115 120 113
f 120 115 122
f 122 124 120
f 127 124 122
f 122 132 127
f 135 127 132
f 132 137 135
f 140 135 137
f 137 61 140
f 61 137 49
f 103 98 144
f 143 48 42
f 42 104 143
f 105 41 38
f 38 109 105
f 37 28 117
f 117 111 37
f 30 26 121
f 121 116 30
f 123 25 16
f 16 130 123
f 18 11 138
f 138 131 18
f 8 51 136
f 136 12 8
f 4 54 50
f 50 7 4
f 2 57 53
f 53 6 2
f 14 59 56
f 56 1 14
f 13 19 70
f 70 60 13
f 21 24 78
f 78 71 21
f 76 23 31
f 31 82 76
f 32 35 92
f 92 83 32
f 91 36 45
f 45 97 91
f 99 43 47
f 47 142 99
f 145 148 69
f 69 73 145
f 79 149 146
f 146 74 79
f 151 150 81
f 81 86 151
f 153 152 85
f 85 90 153
f 154 89 96
f 96 155 154
f 156 94 102
f 102 157 156
f 158 100 108
f 108 159 158
f 160 107 114
f 114 161 160
f 164 162 112
f 112 119 164
f 166 163 118
f 118 125 166
f 168 165 126
f 126 129 168
f 134 170 167
f 167 128 134
f 139 172 169
f 169 133 139
f 63 174 171
f 171 141 63
f 65 176 173
f 173 62 65
f 68 147 175
f 175 66 68
f 179 181 185
f 185 186 179
f 191 179 186
f 186 193 191
f 196 191 193
f 193 198 196
f 198 193 203
f 203 205 198
f 209 198 205
f 205 210 209
f 210 205 215
f 215 216 210
f 220 210 216
f 216 222 220
f 225 228 233
f 233 236 225
f 239 225 236
f 236 241 239
f 244 241 236
f 236 246 244
f 250 244 246
f 246 253 250
f 256 250 253
f 253 260 256
f 263 256 260
f 260 264 263
f 264 260 268
f 268 270 264
f 270 268 273
f 273 276 270
f 276 273 280
f 280 282 276
f 282 280 286
f 286 289 282
f 289 286 291
f 291 294 289
f 294 291 298
f 298 300 294
f 304 300 298
f 298 307 304
f 310 304 307
f 307 314 310
f 317 310 314
f 314 239 317
f 239 314 225
f 280 273 320
f 319 224 218
f 218 281 319
f 279 217 214
f 214 285 279
f 213 204 292
f 292 287 213
f 206 202 297
f 297 293 206
f 299 201 192
f 192 308 299
f 194 187 313
f 313 306 194
f 184 227 312
f 312 188 184
f 180 230 226
f 226 183 180
f 178 231 229
f 229 182 178
f 190 235 232
f 232 177 190
f 189 195 247
f 247 234 189
f 197 199 252
f 252 248 197
f 254 200 208
f 208 259 254
f 207 212 267
f 267 258 207
f 269 211 219
f 219 275 269
f 274 221 223
f 223 318 274
f 322 324 245
f 245 251 322
f 257 326 321
f 321 249 257
f 328 325 255
f 255 261 328
f 330 327 262
f 262 265 330
f 329 266 272
f 272 331 329
f 332 271 278
f 278 333 332
f 334 277 284
f 284 335 334
f 336 283 288
f 288 338 336
f 339 337 290
f 290 296 339
f 341 340 295
f 295 302 341
f 343 342 301
f 301 305 343
f 311 346 344
f 344 303 311
f 316 347 345
f 345 309 316
f 238 350 348
f 348 315 238
f 240 351 349
f 349 237 240
f 243 323 352
f 352 242 243

