# https://github.com/mikedh/trimesh
v 0.11580636 -0.08036179 0.11593131
v 0.11580636 -0.08036179 0.11593131
v 0.11580636 -0.08036179 0.11593131
v 0.08892197 -0.08036179 0.11546727
v 0.08892197 -0.08036179 0.11546727
v 0.08892197 -0.08036179 0.11546727
v 0.11624353 -0.08036179 0.11300228
v 0.11624353 -0.08036179 0.11300228
v 0.11624353 -0.08036179 0.11300228
v 0.14283495 -0.08036179 0.12062166
v 0.14283495 -0.08036179 0.12062166
v 0.14283495 -0.08036179 0.12062166
v 0.14165460 -0.08036179 0.12333773
v 0.14165460 -0.08036179 0.12333773
v 0.14165460 -0.08036179 0.12333773
v 0.16654827 -0.08036179 0.13486377
v 0.16654827 -0.08036179 0.13486377
v 0.16654827 -0.08036179 0.13486377
v 0.16470514 -0.08036179 0.13718180
v 0.16470514 -0.08036179 0.13718180
v 0.16470514 -0.08036179 0.13718180
v 0.18576743 -0.08036179 0.15475806
v 0.18576743 -0.08036179 0.15475806
v 0.18576743 -0.08036179 0.15475806
v 0.18338719 -0.08036179 0.15652006
v 0.18338719 -0.08036179 0.15652006
v 0.18338719 -0.08036179 0.15652006
v 0.19918268 -0.08036179 0.17894874
v 0.19918268 -0.08036179 0.17894874
v 0.19918268 -0.08036179 0.17894874
v 0.19642751 -0.08036179 0.18003466
v 0.19642751 -0.08036179 0.18003466
v 0.19642751 -0.08036179 0.18003466
v 0.20587983 -0.08036179 0.20578728
v 0.20587983 -0.08036179 0.20578728
v 0.20587983 -0.08036179 0.20578728
v 0.20293747 -0.08036179 0.20612309
v 0.20293747 -0.08036179 0.20612309
v 0.20293747 -0.08036179 0.20612309
v 0.20540246 -0.08036179 0.23344465
v 0.20540246 -0.08036179 0.23344465
v 0.20540246 -0.08036179 0.23344465
v 0.20247342 -0.08036179 0.23300749
v 0.20247342 -0.08036179 0.23300749
v 0.20247342 -0.08036179 0.23300749
v 0.19506701 -0.08036179 0.25885571
v 0.19506701 -0.08036179 0.25885571
v 0.19506701 -0.08036179 0.25885571
v 0.19778308 -0.08036179 0.26003610
v 0.19778308 -0.08036179 0.26003610
v 0.19778308 -0.08036179 0.26003610
v 0.18122295 -0.08036179 0.28190626
v 0.18122295 -0.08036179 0.28190626
v 0.18122295 -0.08036179 0.28190626
v 0.18354094 -0.08036179 0.28374938
v 0.18354094 -0.08036179 0.28374938
v 0.18354094 -0.08036179 0.28374938
v 0.16188466 -0.08036179 0.30058831
v 0.16188466 -0.08036179 0.30058831
v 0.16188466 -0.08036179 0.30058831
v 0.16364668 -0.08036179 0.30296854
v 0.16364668 -0.08036179 0.30296854
v 0.16364668 -0.08036179 0.30296854
v 0.13837008 -0.08036179 0.31362863
v 0.13837008 -0.08036179 0.31362863
v 0.13837008 -0.08036179 0.31362863
v 0.13945598 -0.08036179 0.31638383
v 0.13945598 -0.08036179 0.31638383
v 0.13945598 -0.08036179 0.31638383
v 0.11228165 -0.08036179 0.32013858
v 0.11228165 -0.08036179 0.32013858
v 0.11228165 -0.08036179 0.32013858
v 0.11261747 -0.08036179 0.32308095
v 0.11261747 -0.08036179 0.32308095
v 0.11261747 -0.08036179 0.32308095
v 0.08496008 -0.08036179 0.32260357
v 0.08496008 -0.08036179 0.32260357
v 0.08496008 -0.08036179 0.32260357
v 0.08539725 -0.08036179 0.31967457
v 0.08539725 -0.08036179 0.31967457
v 0.08539725 -0.08036179 0.31967457
v 0.07166437 -0.08036179 0.31879390
v 0.07166437 -0.08036179 0.31879390
v 0.07896799 -0.08036179 0.31783233
v 0.07896799 -0.08036179 0.31783233
v 0.08858615 -0.08036179 0.11252490
v 0.08858615 -0.08036179 0.11252490
v 0.08858615 -0.08036179 0.11252490
v 0.06174762 -0.08036179 0.11922204
v 0.06174762 -0.08036179 0.11922204
v 0.06174762 -0.08036179 0.11922204
v 0.06283354 -0.08036179 0.12197723
v 0.06283354 -0.08036179 0.12197723
v 0.06283354 -0.08036179 0.12197723
v 0.03755693 -0.08036179 0.13263731
v 0.03755693 -0.08036179 0.13263731
v 0.03755693 -0.08036179 0.13263731
v 0.03931895 -0.08036179 0.13501756
v 0.03931895 -0.08036179 0.13501756
v 0.03931895 -0.08036179 0.13501756
v 0.01766265 -0.08036179 0.15185647
v 0.01766265 -0.08036179 0.15185647
v 0.01766265 -0.08036179 0.15185647
v 0.01998068 -0.08036179 0.15369958
v 0.01998068 -0.08036179 0.15369958
v 0.01998068 -0.08036179 0.15369958
v 0.00342054 -0.08036179 0.17556977
v 0.00342054 -0.08036179 0.17556977
v 0.00342054 -0.08036179 0.17556977
v 0.00613661 -0.08036179 0.17675013
v 0.00613661 -0.08036179 0.17675013
v 0.00613661 -0.08036179 0.17675013
v -0.00419883 -0.08036179 0.20216120
v -0.00419883 -0.08036179 0.20216120
v -0.00419883 -0.08036179 0.20216120
v -0.00126981 -0.08036179 0.20259836
v -0.00126981 -0.08036179 0.20259836
v -0.00126981 -0.08036179 0.20259836
v -0.00467622 -0.08036179 0.22981859
v -0.00467622 -0.08036179 0.22981859
v -0.00467622 -0.08036179 0.22981859
v -0.00173385 -0.08036179 0.22948276
v -0.00173385 -0.08036179 0.22948276
v -0.00173385 -0.08036179 0.22948276
v 0.00231740 -0.08036179 0.24571799
v 0.00231740 -0.08036179 0.24571799
v 0.00188359 -0.08036179 0.24901310
v 0.00202093 -0.08036179 0.25665712
v 0.00202093 -0.08036179 0.25665712
v 0.00202093 -0.08036179 0.25665712
v 0.00316046 -0.08036179 0.25871196
v 0.00316046 -0.08036179 0.25871196
v 0.00572819 -0.13058631 0.25728798
v 0.00477611 -0.13058631 0.25557121
v 0.00477611 -0.13058631 0.25557121
v 0.00477611 -0.08036179 0.25557121
v 0.00477611 -0.08036179 0.25557121
v 0.00477611 -0.08036179 0.25557121
v 0.01781644 -0.13058631 0.27908577
v 0.01781644 -0.13058631 0.27908577
v 0.01781644 -0.08036179 0.27908577
v 0.01781644 -0.08036179 0.27908577
v 0.01781644 -0.08036179 0.27908577
v 0.14165460 -0.13058631 0.12333773
v 0.14165460 -0.13058631 0.12333773
v 0.16470514 -0.13058631 0.13718180
v 0.16470514 -0.13058631 0.13718180
v 0.08858615 -0.13058631 0.11252490
v 0.08858615 -0.13058631 0.11252490
v 0.06174762 -0.13058631 0.11922204
v 0.06174762 -0.13058631 0.11922204
v 0.03755693 -0.13058631 0.13263731
v 0.03755693 -0.13058631 0.13263731
v 0.03931895 -0.13058631 0.13501756
v 0.03931895 -0.13058631 0.13501756
v 0.06283354 -0.13058631 0.12197723
v 0.06283354 -0.13058631 0.12197723
v 0.20247342 -0.13058631 0.23300749
v 0.20247342 -0.13058631 0.23300749
v 0.19506701 -0.13058631 0.25885571
v 0.19506701 -0.13058631 0.25885571
v 0.16364668 -0.13058631 0.30296854
v 0.16364668 -0.13058631 0.30296854
v 0.18354094 -0.13058631 0.28374938
v 0.18354094 -0.13058631 0.28374938
v 0.19778308 -0.13058631 0.26003610
v 0.19778308 -0.13058631 0.26003610
v 0.20540246 -0.13058631 0.23344465
v 0.20540246 -0.13058631 0.23344465
v 0.20587983 -0.13058631 0.20578728
v 0.20587983 -0.13058631 0.20578728
v 0.14283495 -0.13058631 0.12062166
v 0.14283495 -0.13058631 0.12062166
v 0.11624353 -0.13058631 0.11300228
v 0.11624353 -0.13058631 0.11300228
v 0.13837008 -0.13058631 0.31362863
v 0.13837008 -0.13058631 0.31362863
v 0.11228165 -0.13058631 0.32013858
v 0.11228165 -0.13058631 0.32013858
v 0.16188466 -0.13058631 0.30058831
v 0.16188466 -0.13058631 0.30058831
v 0.03649846 -0.13058631 0.29842407
v 0.03649846 -0.13058631 0.29842407
v 0.03649846 -0.08036179 0.29842407
v 0.03649846 -0.08036179 0.29842407
v 0.03649846 -0.08036179 0.29842407
v 0.18122295 -0.13058631 0.28190626
v 0.18122295 -0.13058631 0.28190626
v 0.19918268 -0.13058631 0.17894874
v 0.19918268 -0.13058631 0.17894874
v 0.18576743 -0.13058631 0.15475806
v 0.18576743 -0.13058631 0.15475806
v 0.11580636 -0.13058631 0.11593131
v 0.11580636 -0.13058631 0.11593131
v 0.19642751 -0.13058631 0.18003466
v 0.19642751 -0.13058631 0.18003466
v 0.20293747 -0.13058631 0.20612309
v 0.20293747 -0.13058631 0.20612309
v 0.07247312 -0.13058631 0.31597133
v 0.05954901 -0.13058631 0.31226812
v 0.05954901 -0.13058631 0.31226812
v 0.05954901 -0.08036179 0.31226812
v 0.05954901 -0.08036179 0.31226812
v 0.05954901 -0.08036179 0.31226812
v 0.07896799 -0.13058631 0.31783233
v 0.08539725 -0.13058631 0.31967457
v 0.08539725 -0.13058631 0.31967457
v 0.00342054 -0.13058631 0.17556977
v 0.00342054 -0.13058631 0.17556977
v -0.00419883 -0.13058631 0.20216120
v -0.00419883 -0.13058631 0.20216120
v -0.00467622 -0.13058631 0.22981859
v -0.00467622 -0.13058631 0.22981859
v 0.08496008 -0.13058631 0.32260357
v 0.08496008 -0.13058631 0.32260357
v 0.11261747 -0.13058631 0.32308095
v 0.11261747 -0.13058631 0.32308095
v 0.18338719 -0.13058631 0.15652006
v 0.18338719 -0.13058631 0.15652006
v 0.16654827 -0.13058631 0.13486377
v 0.16654827 -0.13058631 0.13486377
v 0.05836866 -0.08036179 0.31498420
v 0.05836866 -0.08036179 0.31498420
v 0.05836866 -0.08036179 0.31498420
v 0.05836866 -0.13058631 0.31498420
v 0.05836866 -0.13058631 0.31498420
v 0.07166437 -0.13058631 0.31879390
v 0.03465535 -0.08036179 0.30074208
v 0.03465535 -0.08036179 0.30074208
v 0.03465535 -0.08036179 0.30074208
v 0.03465535 -0.13058631 0.30074208
v 0.03465535 -0.13058631 0.30074208
v 0.01543619 -0.13058631 0.28084780
v 0.01543619 -0.13058631 0.28084780
v 0.01543619 -0.08036179 0.28084780
v 0.01543619 -0.08036179 0.28084780
v 0.01543619 -0.08036179 0.28084780
v 0.00316046 -0.13058631 0.25871196
v 0.00202093 -0.13058631 0.25665712
v 0.00202093 -0.13058631 0.25665712
v 0.01766265 -0.13058631 0.15185647
v 0.01766265 -0.13058631 0.15185647
v -0.00126981 -0.13058631 0.20259836
v -0.00126981 -0.13058631 0.20259836
v 0.00613661 -0.13058631 0.17675013
v 0.00613661 -0.13058631 0.17675013
v -0.00173385 -0.13058631 0.22948276
v -0.00173385 -0.13058631 0.22948276
v 0.13945598 -0.13058631 0.31638383
v 0.13945598 -0.13058631 0.31638383
v 0.00231740 -0.13058631 0.24571799
v 0.08892197 -0.13058631 0.11546727
v 0.08892197 -0.13058631 0.11546727
v 0.01998068 -0.13058631 0.15369958
v 0.01998068 -0.13058631 0.15369958
v 0.11552980 -0.07925823 0.11249572
v 0.11552980 -0.07925823 0.11249572
v 0.11552980 -0.07925823 0.11249572
v 0.08805468 -0.07925823 0.11202148
v 0.08805468 -0.07925823 0.11202148
v 0.08805468 -0.07925823 0.11202148
v 0.11597658 -0.07925823 0.10950234
v 0.11597658 -0.07925823 0.10950234
v 0.11597658 -0.07925823 0.10950234
v 0.14315226 -0.07925823 0.11728913
v 0.14315226 -0.07925823 0.11728913
v 0.14315226 -0.07925823 0.11728913
v 0.14194599 -0.07925823 0.12006488
v 0.14194599 -0.07925823 0.12006488
v 0.14194599 -0.07925823 0.12006488
v 0.16738661 -0.07925823 0.13184417
v 0.16738661 -0.07925823 0.13184417
v 0.16738661 -0.07925823 0.13184417
v 0.16550301 -0.07925823 0.13421314
v 0.16550301 -0.07925823 0.13421314
v 0.16550301 -0.07925823 0.13421314
v 0.18702806 -0.07925823 0.15217559
v 0.18702806 -0.07925823 0.15217559
v 0.18702806 -0.07925823 0.15217559
v 0.18459551 -0.07925823 0.15397631
v 0.18459551 -0.07925823 0.15397631
v 0.18459551 -0.07925823 0.15397631
v 0.20073808 -0.07925823 0.17689779
v 0.20073808 -0.07925823 0.17689779
v 0.20073808 -0.07925823 0.17689779
v 0.19792237 -0.07925823 0.17800758
v 0.19792237 -0.07925823 0.17800758
v 0.19792237 -0.07925823 0.17800758
v 0.20758238 -0.07925823 0.20432602
v 0.20758238 -0.07925823 0.20432602
v 0.20758238 -0.07925823 0.20432602
v 0.20457537 -0.07925823 0.20466923
v 0.20457537 -0.07925823 0.20466923
v 0.20457537 -0.07925823 0.20466923
v 0.20709451 -0.07925823 0.23259112
v 0.20709451 -0.07925823 0.23259112
v 0.20709451 -0.07925823 0.23259112
v 0.20410113 -0.07925823 0.23214434
v 0.20410113 -0.07925823 0.23214434
v 0.20410113 -0.07925823 0.23214434
v 0.19653197 -0.07925823 0.25856054
v 0.19653197 -0.07925823 0.25856054
v 0.19653197 -0.07925823 0.25856054
v 0.19930773 -0.07925823 0.25976680
v 0.19930773 -0.07925823 0.25976680
v 0.19930773 -0.07925823 0.25976680
v 0.18238371 -0.07925823 0.28211756
v 0.18238371 -0.07925823 0.28211756
v 0.18238371 -0.07925823 0.28211756
v 0.18475266 -0.07925823 0.28400116
v 0.18475266 -0.07925823 0.28400116
v 0.18475266 -0.07925823 0.28400116
v 0.16262054 -0.07925823 0.30121008
v 0.16262054 -0.07925823 0.30121008
v 0.16262054 -0.07925823 0.30121008
v 0.16442125 -0.07925823 0.30364260
v 0.16442125 -0.07925823 0.30364260
v 0.16442125 -0.07925823 0.30364260
v 0.13858928 -0.07925823 0.31453693
v 0.13858928 -0.07925823 0.31453693
v 0.13858928 -0.07925823 0.31453693
v 0.13969906 -0.07925823 0.31735263
v 0.13969906 -0.07925823 0.31735263
v 0.13969906 -0.07925823 0.31735263
v 0.11192761 -0.07925823 0.32118992
v 0.11192761 -0.07925823 0.32118992
v 0.11192761 -0.07925823 0.32118992
v 0.11227082 -0.07925823 0.32419694
v 0.11227082 -0.07925823 0.32419694
v 0.11227082 -0.07925823 0.32419694
v 0.07709436 -0.07925823 0.32122010
v 0.07675347 -0.07925823 0.32136545
v 0.07648891 -0.07925823 0.32137459
v 0.08400573 -0.07925823 0.32370907
v 0.08400573 -0.07925823 0.32370907
v 0.08400573 -0.07925823 0.32370907
v 0.07609033 -0.07925823 0.32127781
v 0.07041788 -0.07925823 0.31981569
v 0.07041788 -0.07925823 0.31981569
v 0.07574263 -0.07925823 0.32107622
v 0.07546949 -0.07925823 0.32078356
v 0.07443635 -0.07925823 0.31928661
v 0.07733135 -0.07925823 0.32092425
v 0.08445250 -0.07925823 0.32071567
v 0.08445250 -0.07925823 0.32071567
v 0.08445250 -0.07925823 0.32071567
v 0.07742162 -0.07925823 0.32066250
v 0.07745763 -0.07925823 0.32023394
v 0.07738311 -0.07925823 0.31982378
v 0.07720315 -0.07925823 0.31945998
v 0.07686301 -0.07925823 0.31896715
v 0.07788198 -0.07925823 0.31883303
v 0.07788198 -0.07925823 0.31883303
v 0.08771148 -0.07925823 0.10901447
v 0.08771148 -0.07925823 0.10901447
v 0.08771148 -0.07925823 0.10901447
v 0.06028324 -0.07925823 0.11585876
v 0.06028324 -0.07925823 0.11585876
v 0.06028324 -0.07925823 0.11585876
v 0.06139302 -0.07925823 0.11867449
v 0.06139302 -0.07925823 0.11867449
v 0.06139302 -0.07925823 0.11867449
v 0.03556103 -0.07925823 0.12956879
v 0.03556103 -0.07925823 0.12956879
v 0.03556103 -0.07925823 0.12956879
v 0.03736175 -0.07925823 0.13200134
v 0.03736175 -0.07925823 0.13200134
v 0.03736175 -0.07925823 0.13200134
v 0.01522962 -0.07925823 0.14921025
v 0.01522962 -0.07925823 0.14921025
v 0.01522962 -0.07925823 0.14921025
v 0.01759858 -0.07925823 0.15109386
v 0.01759858 -0.07925823 0.15109386
v 0.01759858 -0.07925823 0.15109386
v 0.00067457 -0.07925823 0.17344459
v 0.00067457 -0.07925823 0.17344459
v 0.00067457 -0.07925823 0.17344459
v 0.00345032 -0.07925823 0.17465088
v 0.00345032 -0.07925823 0.17465088
v 0.00345032 -0.07925823 0.17465088
v -0.00711222 -0.07925823 0.20062029
v -0.00711222 -0.07925823 0.20062029
v -0.00711222 -0.07925823 0.20062029
v -0.00272606 -0.07925823 0.19356901
v -0.00186000 -0.07925823 0.19318378
v -0.00186000 -0.07925823 0.19318378
v -0.00186000 -0.07925823 0.19318378
v -0.00186000 -0.07925823 0.19318378
v -0.00208623 -0.07925823 0.19397331
v -0.00208623 -0.07925823 0.19397331
v -0.00208623 -0.07925823 0.19397331
v -0.00208623 -0.07925823 0.19397331
v -0.00411884 -0.07925823 0.20106705
v -0.00411884 -0.07925823 0.20106705
v -0.00411884 -0.07925823 0.20106705
v -0.00760009 -0.07925823 0.22888536
v -0.00760009 -0.07925823 0.22888536
v -0.00760009 -0.07925823 0.22888536
v -0.00459307 -0.07925823 0.22854217
v -0.00459307 -0.07925823 0.22854217
v -0.00459307 -0.07925823 0.22854217
v -0.00045281 -0.07925823 0.24513413
v -0.00045281 -0.07925823 0.24513413
v -0.00089615 -0.07925823 0.24850164
v -0.00075579 -0.07925823 0.25631362
v -0.00075579 -0.07925823 0.25631362
v -0.00075579 -0.07925823 0.25631362
v 0.00040878 -0.07925823 0.25841360
v 0.00040878 -0.07925823 0.25841360
v 0.00303292 -0.13058631 0.25695836
v 0.00205993 -0.13058631 0.25520384
v 0.00205993 -0.13058631 0.25520384
v 0.00205993 -0.08036179 0.25520384
v 0.00205993 -0.08036179 0.25520384
v 0.01538679 -0.13058631 0.27923511
v 0.01538679 -0.13058631 0.27923511
v 0.01538679 -0.08036179 0.27923511
v 0.01538679 -0.08036179 0.27923511
v 0.00289743 -0.08036179 0.25671401
v 0.14194599 -0.13058631 0.12006488
v 0.14194599 -0.13058631 0.12006488
v 0.16550301 -0.13058631 0.13421314
v 0.16550301 -0.13058631 0.13421314
v 0.08771148 -0.13058631 0.10901447
v 0.08771148 -0.13058631 0.10901447
v 0.06028324 -0.13058631 0.11585876
v 0.06028324 -0.13058631 0.11585876
v 0.03556103 -0.13058631 0.12956879
v 0.03556103 -0.13058631 0.12956879
v 0.03736175 -0.13058631 0.13200134
v 0.03736175 -0.13058631 0.13200134
v 0.06139302 -0.13058631 0.11867449
v 0.06139302 -0.13058631 0.11867449
v 0.20410113 -0.08036179 0.23214434
v 0.20410113 -0.08036179 0.23214434
v 0.19653197 -0.08036179 0.25856054
v 0.19653197 -0.08036179 0.25856054
v 0.16442125 -0.13058631 0.30364260
v 0.16442125 -0.13058631 0.30364260
v 0.18475266 -0.13058631 0.28400116
v 0.18475266 -0.13058631 0.28400116
v 0.19930773 -0.13058631 0.25976680
v 0.19930773 -0.13058631 0.25976680
v 0.20709451 -0.13058631 0.23259112
v 0.20709451 -0.13058631 0.23259112
v 0.20758238 -0.13058631 0.20432602
v 0.20758238 -0.13058631 0.20432602
v 0.14315226 -0.13058631 0.11728913
v 0.14315226 -0.13058631 0.11728913
v 0.11597658 -0.13058631 0.10950234
v 0.11597658 -0.13058631 0.10950234
v 0.13858928 -0.08036179 0.31453693
v 0.13858928 -0.08036179 0.31453693
v 0.11192761 -0.08036179 0.32118992
v 0.11192761 -0.08036179 0.32118992
v 0.16262054 -0.08036179 0.30121008
v 0.16262054 -0.08036179 0.30121008
v 0.03447929 -0.08036179 0.29899828
v 0.03447929 -0.08036179 0.29899828
v 0.02527405 -0.08036179 0.28946967
v 0.02530159 -0.07925823 0.28949819
v 0.02530159 -0.07925823 0.28949819
v 0.02530159 -0.07925823 0.28949819
v 0.02530159 -0.07925823 0.28949819
v 0.03447929 -0.07969908 0.29899828
v 0.03447929 -0.07969908 0.29899828
v 0.03447929 -0.07969908 0.29899828
v 0.03447929 -0.07969908 0.29899828
v 0.03438430 -0.07925823 0.29889994
v 0.03438430 -0.07925823 0.29889994
v 0.03438430 -0.07925823 0.29889994
v 0.03438430 -0.07925823 0.29889994
v 0.18238371 -0.08036179 0.28211756
v 0.18238371 -0.08036179 0.28211756
v 0.20073808 -0.13058631 0.17689779
v 0.20073808 -0.13058631 0.17689779
v 0.18702806 -0.13058631 0.15217559
v 0.18702806 -0.13058631 0.15217559
v 0.11552980 -0.13058631 0.11249572
v 0.11552980 -0.13058631 0.11249572
v 0.19792237 -0.08036179 0.17800758
v 0.19792237 -0.08036179 0.17800758
v 0.20457537 -0.08036179 0.20466923
v 0.20457537 -0.08036179 0.20466923
v 0.05803632 -0.08036179 0.31314653
v 0.05803632 -0.08036179 0.31314653
v 0.05945805 -0.08036179 0.31355390
v 0.05870659 -0.08261184 0.31333857
v 0.07124441 -0.13058631 0.31693112
v 0.05803632 -0.13058631 0.31314653
v 0.05803632 -0.13058631 0.31314653
v 0.07008169 -0.08325663 0.31659795
v 0.07018103 -0.08036179 0.31662641
v 0.07298817 -0.08036179 0.31743076
v 0.07788198 -0.13058631 0.31883303
v 0.07319673 -0.08112408 0.31749049
v 0.07389403 -0.08180702 0.31769030
v 0.07484657 -0.08205700 0.31796327
v 0.07579911 -0.08180702 0.31823618
v 0.07649643 -0.08112408 0.31843598
v 0.07670497 -0.08036179 0.31849578
v 0.08445250 -0.08036179 0.32071567
v 0.08445250 -0.08036179 0.32071567
v 0.08445250 -0.13058631 0.32071567
v 0.08445250 -0.13058631 0.32071567
v 0.00067457 -0.13058631 0.17344459
v 0.00067457 -0.13058631 0.17344459
v -0.00711222 -0.13058631 0.20062029
v -0.00711222 -0.13058631 0.20062029
v -0.00760009 -0.13058631 0.22888536
v -0.00760009 -0.13058631 0.22888536
v 0.08400573 -0.13058631 0.32370907
v 0.08400573 -0.13058631 0.32370907
v 0.11227082 -0.13058631 0.32419694
v 0.11227082 -0.13058631 0.32419694
v 0.16555563 -0.08036179 0.13426763
v 0.18459551 -0.08036179 0.15397631
v 0.18459551 -0.08036179 0.15397631
v 0.16555563 -0.13058631 0.13426763
v 0.16738661 -0.13058631 0.13184417
v 0.16738661 -0.13058631 0.13184417
v 0.05683003 -0.07925823 0.31592227
v 0.05683003 -0.07925823 0.31592227
v 0.05683003 -0.07925823 0.31592227
v 0.05683003 -0.13058631 0.31592227
v 0.05683003 -0.13058631 0.31592227
v 0.07041788 -0.13058631 0.31981569
v 0.07584258 -0.08019116 0.32137004
v 0.07593491 -0.08038423 0.32139648
v 0.07631686 -0.08067377 0.32150595
v 0.07660996 -0.08030291 0.32158991
v 0.07663043 -0.08019116 0.32159580
v 0.07660996 -0.08007941 0.32158991
v 0.07631686 -0.07970855 0.32150595
v 0.07593491 -0.07999808 0.32139648
v 0.03259569 -0.07925823 0.30136720
v 0.03259569 -0.07925823 0.30136720
v 0.03259569 -0.07925823 0.30136720
v 0.03259569 -0.13058631 0.30136720
v 0.03259569 -0.13058631 0.30136720
v 0.01295424 -0.13058631 0.28103582
v 0.01295424 -0.13058631 0.28103582
v 0.02532729 -0.08127467 0.29384353
v 0.02489277 -0.07925823 0.29339372
v 0.02489277 -0.07925823 0.29339372
v 0.02489277 -0.07925823 0.29339372
v 0.02489277 -0.07925823 0.29339372
v 0.02367989 -0.08125020 0.29213824
v 0.01295424 -0.07925823 0.28103582
v 0.01295424 -0.07925823 0.28103582
v 0.01295424 -0.07925823 0.28103582
v 0.02372961 -0.07925823 0.29218970
v 0.02372961 -0.07925823 0.29218970
v 0.02372961 -0.07925823 0.29218970
v 0.02372961 -0.07925823 0.29218970
v 0.00040878 -0.13058631 0.25841360
v -0.00075579 -0.13058631 0.25631362
v -0.00075579 -0.13058631 0.25631362
v 0.01522962 -0.13058631 0.14921025
v 0.01522962 -0.13058631 0.14921025
v -0.00411884 -0.13058631 0.20106705
v -0.00411884 -0.13058631 0.20106705
v 0.00345032 -0.13058631 0.17465088
v 0.00345032 -0.13058631 0.17465088
v -0.00188819 -0.07957042 0.19328215
v -0.00413381 -0.13058631 0.20193423
v -0.00413381 -0.08036179 0.20193423
v -0.00459307 -0.08036179 0.22854217
v -0.00459307 -0.08036179 0.22854217
v 0.03765257 -0.08036179 0.30090412
v 0.13969906 -0.13058631 0.31735263
v 0.13969906 -0.13058631 0.31735263
v 0.00205993 -0.07925823 0.25520384
v 0.00205993 -0.07925823 0.25520384
v 0.00205993 -0.07925823 0.25520384
v 0.08805468 -0.13058631 0.11202148
v 0.08805468 -0.13058631 0.11202148
v 0.09286833 -0.08211144 0.11210457
v 0.09371585 -0.08279438 0.11211919
v 0.09487357 -0.08304436 0.11213918
v 0.09603130 -0.08279438 0.11215916
v 0.09687883 -0.08211144 0.11217379
v 0.09718903 -0.08117852 0.11217914
v 0.09687883 -0.08024560 0.11217379
v 0.09603130 -0.07956266 0.11215916
v 0.09487357 -0.07931268 0.11213918
v 0.09371585 -0.07956266 0.11211919
v 0.09286833 -0.08024560 0.11210457
v 0.09255812 -0.08117852 0.11209921
v 0.01759858 -0.13058631 0.15109386
v 0.01759858 -0.13058631 0.15109386
v 0.07294149 -0.08019116 0.31741739
v 0.07319673 -0.07925823 0.31749049
v 0.07319673 -0.07925823 0.31749049
v 0.07319673 -0.07925823 0.31749049
v 0.07319673 -0.07925823 0.31749049
v 0.07583103 -0.08036179 0.31824535
v 0.07649643 -0.07925823 0.31843598
v 0.07649643 -0.07925823 0.31843598
v 0.07649643 -0.07925823 0.31843598
v 0.07649643 -0.07925823 0.31843598
v 0.07675165 -0.08019116 0.31850912
v -0.00045281 -0.13058631 0.24513413
v -0.00459307 -0.13058631 0.22854217
v -0.00459307 -0.13058631 0.22854217
v 0.18459551 -0.13058631 0.15397631
v 0.18459551 -0.13058631 0.15397631
v 0.03447929 -0.08165194 0.29899828
v 0.03447929 -0.08165194 0.29899828
v 0.02524525 -0.08151478 0.28943987
v 0.03447929 -0.07925823 0.29899828
v 0.03447929 -0.07925823 0.29899828
v 0.03447929 -0.07925823 0.29899828
v 0.05982662 -0.07925823 0.31365951
v 0.05982662 -0.07925823 0.31365951
v 0.05982662 -0.07925823 0.31365951
v 0.05982662 -0.07925823 0.31365951
v 0.07021889 -0.07925823 0.31663726
v 0.07021889 -0.07925823 0.31663726
v 0.07021889 -0.07925823 0.31663726
v 0.07021889 -0.07925823 0.31663726
v 0.04598659 -0.08210228 0.30590950
v 0.05803632 -0.07925823 0.31314653
v 0.05803632 -0.07925823 0.31314653
v 0.05803632 -0.07925823 0.31314653
v 0.06888793 -0.07925823 0.31891613
v 0.11192761 -0.13058631 0.32118992
v 0.11192761 -0.13058631 0.32118992
v 0.01538679 -0.07925823 0.27923511
v 0.01538679 -0.07925823 0.27923511
v 0.01538679 -0.07925823 0.27923511
v 0.19653197 -0.13058631 0.25856054
v 0.19653197 -0.13058631 0.25856054
v 0.18238371 -0.13058631 0.28211756
v 0.18238371 -0.13058631 0.28211756
v 0.20410113 -0.13058631 0.23214434
v 0.20410113 -0.13058631 0.23214434
v 0.13858928 -0.13058631 0.31453693
v 0.13858928 -0.13058631 0.31453693
v 0.20457537 -0.13058631 0.20466923
v 0.20457537 -0.13058631 0.20466923
v 0.03447929 -0.13058631 0.29899828
v 0.03447929 -0.13058631 0.29899828
v 0.19792237 -0.13058631 0.17800758
v 0.19792237 -0.13058631 0.17800758
v 0.16262054 -0.13058631 0.30121008
v 0.16262054 -0.13058631 0.30121008
f 1 4 9
f 9 12 1
f 15 1 12
f 12 18 15
f 19 15 18
f 18 22 19
f 27 19 22
f 22 30 27
f 33 27 30
f 30 35 33
f 38 33 35
f 35 40 38
f 45 38 40
f 40 47 45
f 47 40 50
f 50 53 47
f 53 50 57
f 57 59 53
f 59 57 62
f 62 65 59
f 65 62 67
f 67 70 65
f 70 67 74
f 74 78 70
f 81 70 78
f 78 82 81
f 81 82 85
f 87 9 4
f 4 91 87
f 91 4 93
f 93 96 91
f 96 93 99
f 99 101 96
f 101 99 106
f 106 109 101
f 109 106 112
f 112 113 109
f 113 112 116
f 116 119 113
f 119 116 124
f 124 125 119
f 119 125 127
f 127 128 119
f 128 127 132
f 133 134 136
f 136 140 133
f 140 136 142
f 13 145 147
f 147 20 13
f 148 150 89
f 89 88 148
f 151 152 97
f 97 90 151
f 100 154 156
f 156 92 100
f 158 160 46
f 46 44 158
f 61 163 165
f 165 56 61
f 164 167 51
f 51 55 164
f 166 169 42
f 42 49 166
f 168 170 34
f 34 41 168
f 172 174 8
f 8 11 172
f 176 179 72
f 72 64 176
f 181 177 66
f 66 58 181
f 183 139 143
f 143 186 183
f 188 180 60
f 60 54 188
f 190 192 24
f 24 29 190
f 3 194 144
f 144 14 3
f 195 198 37
f 37 32 195
f 197 159 43
f 43 39 197
f 199 201 202
f 202 84 199
f 205 199 84
f 84 80 205
f 205 80 207
f 108 209 210
f 210 115 108
f 211 213 121
f 121 114 211
f 77 214 217
f 217 73 77
f 178 206 79
f 79 71 178
f 146 218 25
f 25 21 146
f 23 191 221
f 221 16 23
f 222 225 227
f 227 83 222
f 83 227 215
f 215 76 83
f 228 232 226
f 226 223 228
f 234 231 229
f 229 235 234
f 238 233 236
f 236 240 238
f 130 240 236
f 236 131 130
f 219 196 31
f 31 26 219
f 127 125 138
f 138 132 127
f 132 138 141
f 141 237 132
f 237 141 184
f 184 230 237
f 230 184 203
f 203 224 230
f 224 203 85
f 85 82 224
f 153 242 102
f 102 95 153
f 244 246 111
f 111 118 244
f 247 243 117
f 117 122 247
f 241 208 107
f 107 103 241
f 200 182 185
f 185 204 200
f 175 149 86
f 86 7 175
f 68 249 162
f 162 63 68
f 75 216 250
f 250 69 75
f 220 173 10
f 10 17 220
f 135 251 248
f 248 137 135
f 137 248 123
f 123 126 137
f 94 157 252
f 252 6 94
f 171 189 28
f 28 36 171
f 5 253 193
f 193 2 5
f 161 187 52
f 52 48 161
f 212 239 129
f 129 120 212
f 105 254 155
f 155 98 105
f 245 255 104
f 104 110 245
f 258 260 263
f 263 265 258
f 270 258 265
f 265 271 270
f 275 270 271
f 271 277 275
f 280 275 277
f 277 285 280
f 288 280 285
f 285 289 288
f 292 288 289
f 289 295 292
f 300 292 295
f 295 302 300
f 302 295 305
f 305 307 302
f 307 305 311
f 311 314 307
f 314 311 317
f 317 320 314
f 320 317 324
f 324 326 320
f 326 324 329
f 329 331 326
f 332 331 329
f 329 333 332
f 333 329 336
f 336 337 333
f 337 336 339
f 339 340 337
f 341 340 339
f 339 342 341
f 326 331 343
f 343 344 326
f 344 343 347
f 347 348 344
f 344 348 349
f 349 350 344
f 344 350 351
f 351 353 344
f 354 263 260
f 260 357 354
f 357 260 362
f 362 365 357
f 365 362 366
f 366 369 365
f 369 366 372
f 372 377 369
f 377 372 379
f 379 382 377
f 384 382 379
f 379 385 384
f 382 384 392
f 392 394 382
f 398 382 394
f 394 399 398
f 398 399 403
f 403 404 398
f 405 398 404
f 404 409 405
f 410 412 413
f 413 416 410
f 418 416 413
f 413 419 418
f 268 421 423
f 423 276 268
f 425 426 358
f 358 356 425
f 427 428 363
f 363 359 427
f 367 431 433
f 433 360 367
f 434 436 301
f 301 298 434
f 316 438 440
f 440 310 316
f 441 443 304
f 304 312 441
f 442 444 297
f 297 306 442
f 445 447 290
f 290 296 445
f 448 450 262
f 262 267 448
f 452 455 327
f 327 321 452
f 453 319 313
f 313 456 453
f 459 460 461
f 461 465 459
f 465 461 469
f 457 315 308
f 308 474 457
f 476 478 279
f 279 284 476
f 257 479 420
f 420 269 257
f 481 483 293
f 293 286 481
f 484 435 299
f 299 294 484
f 486 487 488
f 488 489 486
f 486 489 491
f 489 488 492
f 492 493 489
f 489 493 494
f 494 495 489
f 495 494 496
f 496 497 495
f 495 497 498
f 498 499 495
f 495 499 500
f 500 501 495
f 495 501 503
f 503 504 495
f 375 507 508
f 508 381 375
f 509 510 396
f 396 383 509
f 335 513 514
f 514 330 335
f 502 345 325
f 325 454 502
f 516 517 281
f 281 274 516
f 516 274 422
f 422 519 516
f 278 477 521
f 521 273 278
f 524 525 527
f 527 338 524
f 338 527 512
f 512 528 338
f 529 528 512
f 512 530 529
f 531 530 512
f 512 532 531
f 532 512 334
f 334 533 532
f 534 533 334
f 334 338 534
f 535 534 338
f 338 528 535
f 538 540 526
f 526 522 538
f 541 539 537
f 537 543 541
f 543 537 544
f 541 543 548
f 548 549 541
f 549 548 555
f 556 542 550
f 550 557 556
f 406 557 550
f 550 408 406
f 282 518 482
f 482 287 282
f 552 463 472
f 472 546 552
f 429 559 371
f 371 364 429
f 561 564 378
f 378 565 561
f 565 378 387
f 393 561 565
f 565 389 393
f 566 562 395
f 395 567 566
f 569 567 395
f 395 400 569
f 560 506 376
f 376 370 560
f 570 458 468
f 451 424 355
f 355 264 451
f 322 572 439
f 439 318 322
f 328 515 571
f 571 323 328
f 520 449 266
f 266 272 520
f 414 568 401
f 401 573 414
f 573 401 402
f 361 432 576
f 576 261 361
f 446 475 283
f 283 291 446
f 259 577 480
f 480 578 259
f 579 578 480
f 480 580 579
f 581 580 480
f 480 582 581
f 583 582 480
f 480 256 583
f 584 583 256
f 256 585 584
f 586 585 256
f 256 259 586
f 587 586 259
f 259 588 587
f 589 588 259
f 259 578 589
f 437 473 309
f 309 303 437
f 511 558 407
f 407 397 511
f 373 590 430
f 430 368 373
f 563 591 374
f 374 380 563
f 494 592 594
f 594 597 494
f 597 594 599
f 599 501 597
f 501 599 602
f 411 603 605
f 605 414 411
f 414 605 568
f 519 607 517
f 517 516 519
f 535 528 529
f 529 534 535
f 534 529 530
f 530 533 534
f 533 530 531
f 531 532 533
f 342 351 350
f 350 341 342
f 341 350 349
f 349 348 341
f 341 348 347
f 347 343 341
f 340 341 343
f 343 331 340
f 337 340 331
f 331 332 337
f 337 332 333
f 459 609 610
f 610 460 459
f 612 467 471
f 390 384 388
f 391 565 386
f 351 601 353
f 493 487 614
f 614 621 493
f 608 458 570
f 570 622 608
f 466 613 624
f 624 570 466
f 570 624 485
f 342 595 600
f 600 351 342
f 626 618 593
f 593 342 626
f 626 342 339
f 339 523 626
f 617 626 523
f 523 625 617
f 625 523 536
f 536 611 625
f 470 611 536
f 536 545 470
f 619 596 592
f 592 494 619
f 619 494 493
f 602 598 352
f 352 503 602
f 602 503 501
f 503 352 346
f 496 494 597
f 597 497 496
f 498 497 597
f 597 499 498
f 500 499 597
f 597 501 500
f 628 505 502
f 502 454 628
f 404 403 574
f 574 409 404
f 409 574 631
f 631 551 409
f 551 631 462
f 462 553 551
f 548 543 547
f 547 554 548
f 588 589 578
f 578 579 588
f 587 588 579
f 579 580 587
f 586 587 580
f 580 581 586
f 585 586 581
f 581 582 585
f 584 585 582
f 582 583 584
f 460 417 629
f 629 464 460
f 626 615 620
f 486 623 616
f 616 487 486
f 492 488 487
f 487 493 492
f 633 635 473
f 473 437 633
f 636 632 436
f 436 434 636
f 419 413 575
f 575 630 419
f 419 630 418
f 627 455 452
f 452 638 627
f 641 637 435
f 435 484 641
f 642 415 417
f 417 610 642
f 610 417 460
f 642 610 609
f 622 570 485
f 485 490 622
f 622 490 643
f 643 608 622
f 606 644 482
f 482 518 606
f 634 647 457
f 457 474 634
f 645 640 483
f 483 481 645
f 646 639 453
f 453 456 646
f 569 604 566
f 566 567 569

