# https://github.com/mikedh/trimesh
v 0.00715552 -0.11181282 0.54734432
v 0.00715552 -0.11181282 0.54734432
v 0.00715552 -0.11181282 0.54734432
v 0.00715552 -0.11181282 0.54496515
v 0.00715552 -0.11181282 0.54496515
v 0.00715552 -0.11181282 0.54496515
v 0.00730977 -0.10728231 0.54496515
v 0.00730977 -0.10728231 0.54496515
v 0.00730977 -0.10728231 0.54496515
v 0.00730977 -0.10728231 0.54734432
v 0.00730977 -0.10728231 0.54734432
v 0.00730977 -0.10728231 0.54734432
v -0.01093516 -0.11859464 0.54496515
v -0.01093516 -0.11859464 0.54496515
v -0.01093516 -0.11859464 0.54496515
v -0.01093516 -0.11859464 0.54734432
v -0.01093516 -0.11859464 0.54734432
v -0.01093516 -0.11859464 0.54734432
v -0.01402964 -0.11528202 0.54734432
v -0.01402964 -0.11528202 0.54734432
v -0.01402964 -0.11528202 0.54734432
v -0.01402964 -0.11528202 0.54496515
v -0.01402964 -0.11528202 0.54496515
v -0.01402964 -0.11528202 0.54496515
v -0.01562088 -0.11103735 0.54734432
v -0.01562088 -0.11103735 0.54734432
v -0.01562088 -0.11103735 0.54496515
v -0.01562088 -0.11103735 0.54496515
v 0.00196664 -0.11903391 0.54496515
v 0.00196664 -0.11903391 0.54496515
v 0.00196664 -0.11903391 0.54496515
v 0.00527926 -0.11593943 0.54496515
v 0.00527926 -0.11593943 0.54496515
v 0.00527926 -0.11593943 0.54496515
v 0.00527926 -0.11593943 0.54734432
v 0.00527926 -0.11593943 0.54734432
v 0.00527926 -0.11593943 0.54734432
v 0.00196664 -0.11903391 0.54734432
v 0.00196664 -0.11903391 0.54734432
v 0.00196664 -0.11903391 0.54734432
v -0.00227804 -0.12062515 0.54496515
v -0.00227804 -0.12062515 0.54496515
v -0.00227804 -0.12062515 0.54734432
v -0.00227804 -0.12062515 0.54734432
v -0.00680854 -0.12047090 0.54496515
v -0.00680854 -0.12047090 0.54496515
v -0.00680854 -0.12047090 0.54496515
v -0.00680854 -0.12047090 0.54734432
v -0.00680854 -0.12047090 0.54734432
v -0.00680854 -0.12047090 0.54734432
v -0.01027774 -0.09928575 0.54496515
v -0.01027774 -0.09928575 0.54496515
v -0.01027774 -0.09928575 0.54496515
v -0.01359037 -0.10238023 0.54496515
v -0.01359037 -0.10238023 0.54496515
v -0.01359037 -0.10238023 0.54496515
v -0.01359037 -0.10238023 0.54734432
v -0.01359037 -0.10238023 0.54734432
v -0.01359037 -0.10238023 0.54734432
v -0.01027774 -0.09928575 0.54734432
v -0.01027774 -0.09928575 0.54734432
v -0.01027774 -0.09928575 0.54734432
v -0.00603307 -0.09769451 0.54496515
v -0.00603307 -0.09769451 0.54496515
v -0.00603307 -0.09769451 0.54496515
v -0.00603307 -0.09769451 0.54734432
v -0.00603307 -0.09769451 0.54734432
v -0.00603307 -0.09769451 0.54734432
v 0.00262405 -0.09972502 0.54496515
v 0.00262405 -0.09972502 0.54496515
v 0.00262405 -0.09972502 0.54496515
v -0.00150257 -0.09784876 0.54496515
v -0.00150257 -0.09784876 0.54496515
v -0.00150257 -0.09784876 0.54496515
v -0.00150257 -0.09784876 0.54734432
v -0.00150257 -0.09784876 0.54734432
v -0.00150257 -0.09784876 0.54734432
v 0.00262405 -0.09972502 0.54734432
v 0.00262405 -0.09972502 0.54734432
v 0.00262405 -0.09972502 0.54734432
v 0.00071936 -0.10341802 0.54427723
v 0.00071936 -0.10341802 0.54427723
v 0.00071936 -0.10341802 0.54427723
v 0.00071936 -0.10341802 0.54734432
v 0.00071936 -0.10341802 0.54734432
v 0.00071936 -0.10341802 0.54734432
v -0.00089845 -0.10224420 0.54734432
v -0.00089845 -0.10224420 0.54734432
v -0.00089845 -0.10224420 0.54734432
v -0.00089845 -0.10224420 0.54427723
v -0.00089845 -0.10224420 0.54427723
v -0.00089845 -0.10224420 0.54427723
v -0.01546663 -0.10650684 0.54734432
v -0.01546663 -0.10650684 0.54734432
v -0.01546663 -0.10650684 0.54734432
v -0.01546663 -0.10650684 0.54496515
v -0.01546663 -0.10650684 0.54496515
v -0.01546663 -0.10650684 0.54496515
v 0.00571853 -0.10303764 0.54496515
v 0.00571853 -0.10303764 0.54496515
v 0.00571853 -0.10303764 0.54496515
v 0.00571853 -0.10303764 0.54734432
v 0.00571853 -0.10303764 0.54734432
v 0.00571853 -0.10303764 0.54734432
v -0.01188753 -0.11115466 0.54734432
v -0.01188753 -0.11115466 0.54734432
v -0.01188753 -0.11115466 0.54734432
v -0.01107338 -0.11298012 0.54734432
v -0.01107338 -0.11298012 0.54734432
v -0.01107338 -0.11298012 0.54734432
v -0.00981450 -0.11453266 0.54734432
v -0.00981450 -0.11453266 0.54734432
v -0.00981450 -0.11453266 0.54734432
v -0.00819669 -0.11570648 0.54734432
v -0.00819669 -0.11570648 0.54734432
v -0.00819669 -0.11570648 0.54734432
v -0.00633021 -0.11642159 0.54734432
v -0.00633021 -0.11642159 0.54734432
v -0.00633021 -0.11642159 0.54734432
v -0.00434223 -0.11662924 0.54734432
v -0.00434223 -0.11662924 0.54734432
v -0.00434223 -0.11662924 0.54734432
v -0.00236825 -0.11631530 0.54734432
v -0.00236825 -0.11631530 0.54734432
v -0.00236825 -0.11631530 0.54734432
v -0.00054279 -0.11550114 0.54734432
v -0.00054279 -0.11550114 0.54734432
v -0.00054279 -0.11550114 0.54734432
v 0.00100975 -0.11424227 0.54734432
v 0.00100975 -0.11424227 0.54734432
v 0.00100975 -0.11424227 0.54734432
v 0.00218357 -0.11262446 0.54734432
v 0.00218357 -0.11262446 0.54734432
v 0.00218357 -0.11262446 0.54734432
v 0.00289868 -0.11075797 0.54734432
v 0.00289868 -0.11075797 0.54734432
v 0.00289868 -0.11075797 0.54734432
v 0.00310633 -0.10877000 0.54734432
v 0.00310633 -0.10877000 0.54734432
v 0.00310633 -0.10877000 0.54734432
v 0.00279238 -0.10679602 0.54734432
v 0.00279238 -0.10679602 0.54734432
v 0.00279238 -0.10679602 0.54734432
v 0.00197823 -0.10497056 0.54734432
v 0.00197823 -0.10497056 0.54734432
v 0.00197823 -0.10497056 0.54734432
v -0.00276494 -0.10152909 0.54734432
v -0.00276494 -0.10152909 0.54734432
v -0.00276494 -0.10152909 0.54734432
v -0.00475291 -0.10132144 0.54734432
v -0.00475291 -0.10132144 0.54734432
v -0.00475291 -0.10132144 0.54734432
v -0.00672689 -0.10163539 0.54734432
v -0.00672689 -0.10163539 0.54734432
v -0.00672689 -0.10163539 0.54734432
v -0.00855235 -0.10244954 0.54734432
v -0.00855235 -0.10244954 0.54734432
v -0.00855235 -0.10244954 0.54734432
v -0.01010490 -0.10370841 0.54734432
v -0.01010490 -0.10370841 0.54734432
v -0.01010490 -0.10370841 0.54734432
v -0.01127872 -0.10532623 0.54734432
v -0.01127872 -0.10532623 0.54734432
v -0.01127872 -0.10532623 0.54734432
v -0.01199382 -0.10719271 0.54734432
v -0.01199382 -0.10719271 0.54734432
v -0.01199382 -0.10719271 0.54734432
v -0.01220147 -0.10918068 0.54734432
v -0.01220147 -0.10918068 0.54734432
v -0.01220147 -0.10918068 0.54734432
v -0.00276494 -0.10152909 0.54320866
v -0.00276494 -0.10152909 0.54320866
v -0.00276494 -0.10152909 0.54320866
v -0.00089845 -0.10224420 0.54320866
v -0.00089845 -0.10224420 0.54320866
v -0.00089845 -0.10224420 0.54320866
v -0.00276494 -0.10152909 0.54427723
v -0.00276494 -0.10152909 0.54427723
v -0.00276494 -0.10152909 0.54427723
v -0.00633021 -0.11642159 0.54320866
v -0.00633021 -0.11642159 0.54320866
v -0.00633021 -0.11642159 0.54320866
v -0.00819669 -0.11570648 0.54320866
v -0.00819669 -0.11570648 0.54320866
v -0.00819669 -0.11570648 0.54320866
v -0.00819669 -0.11570648 0.54427723
v -0.00819669 -0.11570648 0.54427723
v -0.00819669 -0.11570648 0.54427723
v -0.00633021 -0.11642159 0.54427723
v -0.00633021 -0.11642159 0.54427723
v -0.00633021 -0.11642159 0.54427723
v -0.00475291 -0.10132144 0.54320866
v -0.00475291 -0.10132144 0.54320866
v -0.00475291 -0.10132144 0.54320866
v -0.00475291 -0.10132144 0.54427723
v -0.00475291 -0.10132144 0.54427723
v -0.00475291 -0.10132144 0.54427723
v -0.00855235 -0.10244954 0.54320866
v -0.00855235 -0.10244954 0.54320866
v -0.00855235 -0.10244954 0.54320866
v -0.00672689 -0.10163539 0.54320866
v -0.00672689 -0.10163539 0.54320866
v -0.00672689 -0.10163539 0.54320866
v -0.00672689 -0.10163539 0.54427723
v -0.00672689 -0.10163539 0.54427723
v -0.00672689 -0.10163539 0.54427723
v -0.00855235 -0.10244954 0.54427723
v -0.00855235 -0.10244954 0.54427723
v -0.00855235 -0.10244954 0.54427723
v 0.00279238 -0.10679602 0.54427723
v 0.00279238 -0.10679602 0.54427723
v 0.00279238 -0.10679602 0.54427723
v 0.00197823 -0.10497056 0.54427723
v 0.00197823 -0.10497056 0.54427723
v 0.00197823 -0.10497056 0.54427723
v -0.00434223 -0.11662924 0.54427723
v -0.00434223 -0.11662924 0.54427723
v -0.00434223 -0.11662924 0.54427723
v 0.00289868 -0.11075797 0.54427723
v 0.00289868 -0.11075797 0.54427723
v 0.00289868 -0.11075797 0.54427723
v 0.00310633 -0.10877000 0.54427723
v 0.00310633 -0.10877000 0.54427723
v 0.00310633 -0.10877000 0.54427723
v -0.00434223 -0.11662924 0.54320866
v -0.00434223 -0.11662924 0.54320866
v -0.00434223 -0.11662924 0.54320866
v -0.00981450 -0.11453266 0.54427723
v -0.00981450 -0.11453266 0.54427723
v -0.00981450 -0.11453266 0.54427723
v -0.01107338 -0.11298012 0.54427723
v -0.01107338 -0.11298012 0.54427723
v -0.01107338 -0.11298012 0.54427723
v -0.01188753 -0.11115466 0.54427723
v -0.01188753 -0.11115466 0.54427723
v -0.01188753 -0.11115466 0.54427723
v -0.01220147 -0.10918068 0.54427723
v -0.01220147 -0.10918068 0.54427723
v -0.01220147 -0.10918068 0.54427723
v -0.01107338 -0.11298012 0.54320866
v -0.01107338 -0.11298012 0.54320866
v -0.01107338 -0.11298012 0.54320866
v -0.01188753 -0.11115466 0.54320866
v -0.01188753 -0.11115466 0.54320866
v -0.01188753 -0.11115466 0.54320866
v -0.01220147 -0.10918068 0.54320866
v -0.01220147 -0.10918068 0.54320866
v -0.01220147 -0.10918068 0.54320866
v -0.01199382 -0.10719271 0.54320866
v -0.01199382 -0.10719271 0.54320866
v -0.01199382 -0.10719271 0.54320866
v -0.00981450 -0.11453266 0.54320866
v -0.00981450 -0.11453266 0.54320866
v -0.00981450 -0.11453266 0.54320866
v -0.01127872 -0.10532623 0.54320866
v -0.01127872 -0.10532623 0.54320866
v -0.01127872 -0.10532623 0.54320866
v -0.01010490 -0.10370841 0.54320866
v -0.01010490 -0.10370841 0.54320866
v -0.01010490 -0.10370841 0.54320866
v -0.00236825 -0.11631530 0.54320866
v -0.00236825 -0.11631530 0.54320866
v -0.00236825 -0.11631530 0.54320866
v -0.00054279 -0.11550114 0.54320866
v -0.00054279 -0.11550114 0.54320866
v -0.00054279 -0.11550114 0.54320866
v 0.00100975 -0.11424227 0.54320866
v 0.00100975 -0.11424227 0.54320866
v 0.00100975 -0.11424227 0.54320866
v 0.00218357 -0.11262446 0.54320866
v 0.00218357 -0.11262446 0.54320866
v 0.00218357 -0.11262446 0.54320866
v 0.00071936 -0.10341802 0.54320866
v 0.00071936 -0.10341802 0.54320866
v 0.00071936 -0.10341802 0.54320866
v 0.00289868 -0.11075797 0.54320866
v 0.00289868 -0.11075797 0.54320866
v 0.00289868 -0.11075797 0.54320866
v 0.00197823 -0.10497056 0.54320866
v 0.00197823 -0.10497056 0.54320866
v 0.00197823 -0.10497056 0.54320866
v 0.00310633 -0.10877000 0.54320866
v 0.00310633 -0.10877000 0.54320866
v 0.00310633 -0.10877000 0.54320866
v 0.00279238 -0.10679602 0.54320866
v 0.00279238 -0.10679602 0.54320866
v 0.00279238 -0.10679602 0.54320866
v -0.00054279 -0.11550114 0.54427723
v -0.00054279 -0.11550114 0.54427723
v -0.00054279 -0.11550114 0.54427723
v 0.00100975 -0.11424227 0.54427723
v 0.00100975 -0.11424227 0.54427723
v 0.00100975 -0.11424227 0.54427723
v -0.00236825 -0.11631530 0.54427723
v -0.00236825 -0.11631530 0.54427723
v -0.00236825 -0.11631530 0.54427723
v -0.01199382 -0.10719271 0.54427723
v -0.01199382 -0.10719271 0.54427723
v -0.01199382 -0.10719271 0.54427723
v -0.01127872 -0.10532623 0.54427723
v -0.01127872 -0.10532623 0.54427723
v -0.01127872 -0.10532623 0.54427723
v -0.01010490 -0.10370841 0.54427723
v -0.01010490 -0.10370841 0.54427723
v -0.01010490 -0.10370841 0.54427723
v 0.00218357 -0.11262446 0.54427723
v 0.00218357 -0.11262446 0.54427723
v 0.00218357 -0.11262446 0.54427723
v -0.01594608 -0.11650446 0.53688253
v -0.01594608 -0.11650446 0.53688253
v -0.01594608 -0.11650446 0.53688253
v -0.01777178 -0.11163437 0.53688253
v -0.01777178 -0.11163437 0.53688253
v -0.01777178 -0.11163437 0.53688253
v -0.01759480 -0.10643633 0.53688253
v -0.01759480 -0.10643633 0.53688253
v -0.01759480 -0.10643633 0.53688253
v -0.01239565 -0.12030518 0.53688253
v -0.01239565 -0.12030518 0.53688253
v -0.01239565 -0.12030518 0.53688253
v -0.01544208 -0.10170168 0.53688253
v -0.01544208 -0.10170168 0.53688253
v -0.01544208 -0.10170168 0.53688253
v -0.00766101 -0.12245788 0.53688253
v -0.00766101 -0.12245788 0.53688253
v -0.00766101 -0.12245788 0.53688253
v -0.01164137 -0.09815125 0.53688253
v -0.01164137 -0.09815125 0.53688253
v -0.01164137 -0.09815125 0.53688253
v -0.00246296 -0.12263486 0.53688253
v -0.00246296 -0.12263486 0.53688253
v -0.00246296 -0.12263486 0.53688253
v -0.00677127 -0.09632556 0.53688253
v -0.00677127 -0.09632556 0.53688253
v -0.00677127 -0.09632556 0.53688253
v 0.00240713 -0.12080917 0.53688253
v 0.00240713 -0.12080917 0.53688253
v 0.00240713 -0.12080917 0.53688253
v -0.00157323 -0.09650253 0.53688253
v -0.00157323 -0.09650253 0.53688253
v -0.00157323 -0.09650253 0.53688253
v 0.00316141 -0.09865524 0.53688253
v 0.00316141 -0.09865524 0.53688253
v 0.00316141 -0.09865524 0.53688253
v 0.00620785 -0.11725874 0.53688253
v 0.00620785 -0.11725874 0.53688253
v 0.00620785 -0.11725874 0.53688253
v 0.00836056 -0.11252409 0.53688253
v 0.00836056 -0.11252409 0.53688253
v 0.00836056 -0.11252409 0.53688253
v 0.00671184 -0.10245596 0.53688253
v 0.00671184 -0.10245596 0.53688253
v 0.00671184 -0.10245596 0.53688253
v 0.00853754 -0.10732605 0.53688253
v 0.00853754 -0.10732605 0.53688253
v 0.00853754 -0.10732605 0.53688253
v -0.01759480 -0.10643633 0.54510657
v -0.01759480 -0.10643633 0.54510657
v -0.01759480 -0.10643633 0.54510657
v -0.01777178 -0.11163437 0.54510657
v -0.01777178 -0.11163437 0.54510657
v -0.01777178 -0.11163437 0.54510657
v -0.01594608 -0.11650446 0.54510657
v -0.01594608 -0.11650446 0.54510657
v -0.01594608 -0.11650446 0.54510657
v -0.01239565 -0.12030518 0.54510657
v -0.01239565 -0.12030518 0.54510657
v -0.01239565 -0.12030518 0.54510657
v -0.01544208 -0.10170168 0.54510657
v -0.01544208 -0.10170168 0.54510657
v -0.01544208 -0.10170168 0.54510657
v -0.00766101 -0.12245788 0.54510657
v -0.00766101 -0.12245788 0.54510657
v -0.00766101 -0.12245788 0.54510657
v -0.01164137 -0.09815125 0.54510657
v -0.01164137 -0.09815125 0.54510657
v -0.01164137 -0.09815125 0.54510657
v -0.00246296 -0.12263486 0.54510657
v -0.00246296 -0.12263486 0.54510657
v -0.00246296 -0.12263486 0.54510657
v -0.00677127 -0.09632556 0.54510657
v -0.00677127 -0.09632556 0.54510657
v -0.00677127 -0.09632556 0.54510657
v 0.00240713 -0.12080917 0.54510657
v 0.00240713 -0.12080917 0.54510657
v 0.00240713 -0.12080917 0.54510657
v -0.00157323 -0.09650253 0.54510657
v -0.00157323 -0.09650253 0.54510657
v -0.00157323 -0.09650253 0.54510657
v 0.00316141 -0.09865524 0.54510657
v 0.00316141 -0.09865524 0.54510657
v 0.00316141 -0.09865524 0.54510657
v 0.00620785 -0.11725874 0.54510657
v 0.00620785 -0.11725874 0.54510657
v 0.00620785 -0.11725874 0.54510657
v 0.00836056 -0.11252409 0.54510657
v 0.00836056 -0.11252409 0.54510657
v 0.00836056 -0.11252409 0.54510657
v 0.00671184 -0.10245596 0.54510657
v 0.00671184 -0.10245596 0.54510657
v 0.00671184 -0.10245596 0.54510657
v 0.00853754 -0.10732605 0.54510657
v 0.00853754 -0.10732605 0.54510657
v 0.00853754 -0.10732605 0.54510657
f 1 4 9
f 9 11 1
f 13 17 19
f 19 24 13
f 23 20 26
f 26 28 23
f 30 32 37
f 37 40 30
f 42 29 38
f 38 43 42
f 15 46 50
f 50 18 15
f 45 42 43
f 43 48 45
f 35 34 5
f 5 2 35
f 51 56 59
f 59 62 51
f 63 52 61
f 61 67 63
f 70 74 76
f 76 80 70
f 73 64 66
f 66 75 73
f 83 86 89
f 89 91 83
f 28 26 94
f 94 97 28
f 98 95 57
f 57 55 98
f 12 7 100
f 100 103 12
f 104 99 69
f 69 79 104
f 93 25 21
f 21 16 93
f 58 93 16
f 16 107 58
f 110 107 16
f 16 49 110
f 111 110 49
f 49 115 111
f 119 115 49
f 49 44 119
f 122 119 44
f 44 123 122
f 123 44 39
f 39 126 123
f 130 126 39
f 39 133 130
f 133 39 36
f 36 137 133
f 139 137 36
f 36 142 139
f 142 36 78
f 78 144 142
f 84 144 78
f 78 77 84
f 88 84 77
f 77 149 88
f 151 149 77
f 77 68 151
f 154 151 68
f 68 156 154
f 156 68 60
f 60 159 156
f 162 159 60
f 60 167 162
f 167 60 58
f 58 168 167
f 168 58 107
f 78 36 3
f 3 102 78
f 102 3 10
f 172 176 92
f 92 179 172
f 182 185 188
f 188 189 182
f 192 171 177
f 177 195 192
f 199 201 206
f 206 207 199
f 203 194 196
f 196 204 203
f 212 141 146
f 146 213 212
f 215 145 85
f 85 81 215
f 217 191 118
f 118 121 217
f 221 136 138
f 138 223 221
f 227 181 191
f 191 217 227
f 114 187 228
f 228 113 114
f 112 230 231
f 231 109 112
f 108 233 234
f 234 105 108
f 106 236 237
f 237 170 106
f 242 244 248
f 248 249 242
f 253 242 249
f 249 255 253
f 184 253 255
f 255 258 184
f 180 184 258
f 258 198 180
f 226 180 198
f 198 202 226
f 263 226 202
f 202 193 263
f 264 263 193
f 193 173 264
f 269 264 173
f 173 174 269
f 270 269 174
f 174 273 270
f 277 270 273
f 273 281 277
f 284 277 281
f 281 286 284
f 268 265 288
f 288 293 268
f 261 225 218
f 218 296 261
f 232 235 238
f 238 298 232
f 229 232 298
f 298 301 229
f 186 229 301
f 301 304 186
f 190 186 304
f 304 208 190
f 216 190 208
f 208 205 216
f 294 216 205
f 205 197 294
f 290 294 197
f 197 178 290
f 291 290 178
f 178 90 291
f 308 291 90
f 90 82 308
f 220 308 82
f 82 214 220
f 222 220 214
f 214 210 222
f 274 83 91
f 91 175 274
f 279 215 81
f 81 275 279
f 287 212 213
f 213 280 287
f 283 224 211
f 211 285 283
f 278 221 223
f 223 282 278
f 272 306 219
f 219 276 272
f 271 267 292
f 292 307 271
f 306 134 135
f 135 219 306
f 266 262 295
f 295 289 266
f 189 188 116
f 116 117 189
f 259 200 209
f 209 303 259
f 293 288 127
f 127 131 293
f 289 295 125
f 125 128 289
f 22 27 96
f 96 54 22
f 14 22 54
f 54 53 14
f 47 14 53
f 53 65 47
f 41 47 65
f 65 72 41
f 31 41 72
f 72 71 31
f 33 31 71
f 71 101 33
f 6 33 101
f 101 8 6
f 207 206 155
f 155 158 207
f 303 209 157
f 157 160 303
f 165 297 300
f 300 163 165
f 169 239 299
f 299 166 169
f 302 305 161
f 161 164 302
f 224 140 143
f 143 211 224
f 296 218 120
f 120 124 296
f 257 260 305
f 305 302 257
f 204 196 150
f 150 153 204
f 195 177 147
f 147 152 195
f 179 92 87
f 87 148 179
f 239 247 250
f 250 299 239
f 297 251 256
f 256 300 297
f 233 240 243
f 243 234 233
f 236 245 246
f 246 237 236
f 230 252 241
f 241 231 230
f 187 183 254
f 254 228 187
f 307 292 129
f 129 132 307
f 311 312 317
f 317 320 311
f 320 317 321
f 321 324 320
f 324 321 328
f 328 330 324
f 330 328 335
f 335 337 330
f 337 335 340
f 340 342 337
f 346 337 342
f 342 349 346
f 349 342 352
f 352 354 349
f 358 360 364
f 364 367 358
f 370 358 367
f 367 374 370
f 375 370 374
f 374 379 375
f 382 375 379
f 379 384 382
f 388 382 384
f 384 391 388
f 391 384 395
f 395 397 391
f 399 391 397
f 397 403 399
f 402 356 351
f 351 400 402
f 401 353 344
f 344 392 401
f 343 341 389
f 389 390 343
f 339 334 383
f 383 387 339
f 333 329 377
f 377 381 333
f 327 322 369
f 369 376 327
f 315 357 371
f 371 323 315
f 313 361 359
f 359 316 313
f 309 363 362
f 362 314 309
f 318 368 365
f 365 310 318
f 319 325 372
f 372 366 319
f 326 332 378
f 378 373 326
f 331 336 386
f 386 380 331
f 338 345 394
f 394 385 338
f 393 347 350
f 350 396 393
f 398 348 355
f 355 404 398

