# https://github.com/mikedh/trimesh
v 0.03499702 -0.12414342 0.66054414
v 0.03499702 -0.12414342 0.66054414
v 0.03499702 -0.12414342 0.66054414
v 0.03356025 -0.12442921 0.66054414
v 0.03356025 -0.12442921 0.66054414
v 0.03356025 -0.12442921 0.66054414
v 0.03212348 -0.12414342 0.66054414
v 0.03212348 -0.12414342 0.66054414
v 0.03212348 -0.12414342 0.66054414
v 0.03621506 -0.12332955 0.66054414
v 0.03621506 -0.12332955 0.66054414
v 0.03621506 -0.12332955 0.66054414
v 0.03090544 -0.12332955 0.66054414
v 0.03090544 -0.12332955 0.66054414
v 0.03090544 -0.12332955 0.66054414
v 0.03702893 -0.12211151 0.66054414
v 0.03702893 -0.12211151 0.66054414
v 0.03702893 -0.12211151 0.66054414
v 0.03009157 -0.12211151 0.66054414
v 0.03009157 -0.12211151 0.66054414
v 0.03009157 -0.12211151 0.66054414
v 0.03731472 -0.12067474 0.66054414
v 0.03731472 -0.12067474 0.66054414
v 0.03731472 -0.12067474 0.66054414
v 0.02980578 -0.12067474 0.66054414
v 0.02980578 -0.12067474 0.66054414
v 0.02980578 -0.12067474 0.66054414
v 0.03702893 -0.11923796 0.66054414
v 0.03702893 -0.11923796 0.66054414
v 0.03702893 -0.11923796 0.66054414
v 0.03009157 -0.11923796 0.66054414
v 0.03009157 -0.11923796 0.66054414
v 0.03009157 -0.11923796 0.66054414
v 0.03090544 -0.11801993 0.66054414
v 0.03090544 -0.11801993 0.66054414
v 0.03090544 -0.11801993 0.66054414
v 0.03621506 -0.11801993 0.66054414
v 0.03621506 -0.11801993 0.66054414
v 0.03621506 -0.11801993 0.66054414
v 0.03499702 -0.11720606 0.66054414
v 0.03499702 -0.11720606 0.66054414
v 0.03499702 -0.11720606 0.66054414
v 0.03212348 -0.11720606 0.66054414
v 0.03212348 -0.11720606 0.66054414
v 0.03212348 -0.11720606 0.66054414
v 0.03356025 -0.11692027 0.66054414
v 0.03356025 -0.11692027 0.66054414
v 0.03356025 -0.11692027 0.66054414
v 0.03212348 -0.12414342 0.66273048
v 0.03212348 -0.12414342 0.66273048
v 0.03212348 -0.12414342 0.66273048
v 0.03356025 -0.12442921 0.66273048
v 0.03356025 -0.12442921 0.66273048
v 0.03356025 -0.12442921 0.66273048
v 0.03499702 -0.12414342 0.66273048
v 0.03499702 -0.12414342 0.66273048
v 0.03499702 -0.12414342 0.66273048
v 0.03621506 -0.12332955 0.66273048
v 0.03621506 -0.12332955 0.66273048
v 0.03621506 -0.12332955 0.66273048
v 0.03090544 -0.12332955 0.66273048
v 0.03090544 -0.12332955 0.66273048
v 0.03090544 -0.12332955 0.66273048
v 0.03702893 -0.12211151 0.66273048
v 0.03702893 -0.12211151 0.66273048
v 0.03702893 -0.12211151 0.66273048
v 0.03009157 -0.12211151 0.66273048
v 0.03009157 -0.12211151 0.66273048
v 0.03009157 -0.12211151 0.66273048
v 0.03731472 -0.12067474 0.66273048
v 0.03731472 -0.12067474 0.66273048
v 0.03731472 -0.12067474 0.66273048
v 0.02980578 -0.12067474 0.66273048
v 0.02980578 -0.12067474 0.66273048
v 0.02980578 -0.12067474 0.66273048
v 0.03702893 -0.11923796 0.66273048
v 0.03702893 -0.11923796 0.66273048
v 0.03702893 -0.11923796 0.66273048
v 0.03009157 -0.11923796 0.66273048
v 0.03009157 -0.11923796 0.66273048
v 0.03009157 -0.11923796 0.66273048
v 0.03090544 -0.11801993 0.66273048
v 0.03090544 -0.11801993 0.66273048
v 0.03090544 -0.11801993 0.66273048
v 0.03621506 -0.11801993 0.66273048
v 0.03621506 -0.11801993 0.66273048
v 0.03621506 -0.11801993 0.66273048
v 0.03499702 -0.11720606 0.66273048
v 0.03499702 -0.11720606 0.66273048
v 0.03499702 -0.11720606 0.66273048
v 0.03212348 -0.11720606 0.66273048
v 0.03212348 -0.11720606 0.66273048
v 0.03212348 -0.11720606 0.66273048
v 0.03356025 -0.11692027 0.66273048
v 0.03356025 -0.11692027 0.66273048
v 0.03356025 -0.11692027 0.66273048
f 1 4 7
f 10 7 13
f 16 13 19
f 22 19 25
f 28 25 31
f 37 28 34
f 40 34 43
f 49 52 55
f 61 49 58
f 67 61 64
f 73 67 70
f 79 73 76
f 82 76 85
f 91 82 88
f 95 47 45
f 92 44 36
f 35 33 81
f 32 27 75
f 26 21 69
f 20 15 63
f 9 51 62
f 6 54 50
f 3 57 53
f 12 60 56
f 11 18 66
f 17 24 72
f 23 30 78
f 29 39 87
f 86 38 42
f 89 41 48
f 7 10 1
f 13 16 10
f 19 22 16
f 25 28 22
f 31 34 28
f 34 40 37
f 43 46 40
f 55 58 49
f 58 64 61
f 64 70 67
f 70 76 73
f 76 82 79
f 85 88 82
f 88 94 91
f 45 93 95
f 36 84 92
f 81 83 35
f 75 80 32
f 69 74 26
f 63 68 20
f 62 14 9
f 50 8 6
f 53 5 3
f 56 2 12
f 66 59 11
f 72 65 17
f 78 71 23
f 87 77 29
f 42 90 86
f 48 96 89

