# https://github.com/mikedh/trimesh
v -0.08879613 -0.11984692 0.33081703
v -0.08879613 -0.11984692 0.33081703
v -0.08879613 -0.11984692 0.33081703
v -0.08879613 -0.11853009 0.32884625
v -0.08879613 -0.11853009 0.32884625
v -0.08879613 -0.11853009 0.32884625
v -0.07158244 -0.11853009 0.32884625
v -0.07158244 -0.11853009 0.32884625
v -0.07158244 -0.11853009 0.32884625
v -0.07158244 -0.11984692 0.33081703
v -0.07158244 -0.11984692 0.33081703
v -0.07158244 -0.11984692 0.33081703
v -0.08879613 -0.11655932 0.33875400
v -0.08879613 -0.11655932 0.33875400
v -0.08879613 -0.11655932 0.33875400
v -0.08879613 -0.11423463 0.33921641
v -0.08879613 -0.11423463 0.33921641
v -0.08879613 -0.11423463 0.33921641
v -0.08879613 -0.11190995 0.33875400
v -0.08879613 -0.11190995 0.33875400
v -0.08879613 -0.11190995 0.33875400
v -0.08879613 -0.11853009 0.33743719
v -0.08879613 -0.11853009 0.33743719
v -0.08879613 -0.11853009 0.33743719
v -0.08879613 -0.10993917 0.33743719
v -0.08879613 -0.10993917 0.33743719
v -0.08879613 -0.10993917 0.33743719
v -0.08879613 -0.10862234 0.33546641
v -0.08879613 -0.10862234 0.33546641
v -0.08879613 -0.10862234 0.33546641
v -0.08879613 -0.11423463 0.33606475
v -0.08879613 -0.11423463 0.33606475
v -0.08879613 -0.11423463 0.33606475
v -0.08879613 -0.11311603 0.33584226
v -0.08879613 -0.11311603 0.33584226
v -0.08879613 -0.11311603 0.33584226
v -0.08879613 -0.11216774 0.33520862
v -0.08879613 -0.11216774 0.33520862
v -0.08879613 -0.11216774 0.33520862
v -0.08879613 -0.10815993 0.33314170
v -0.08879613 -0.10815993 0.33314170
v -0.08879613 -0.10815993 0.33314170
v -0.08879613 -0.11153410 0.33426030
v -0.08879613 -0.11153410 0.33426030
v -0.08879613 -0.11153410 0.33426030
v -0.08879613 -0.11131160 0.33314170
v -0.08879613 -0.11131160 0.33314170
v -0.08879613 -0.11131160 0.33314170
v -0.08879613 -0.10862234 0.33081703
v -0.08879613 -0.10862234 0.33081703
v -0.08879613 -0.10862234 0.33081703
v -0.08879613 -0.11153410 0.33202311
v -0.08879613 -0.11153410 0.33202311
v -0.08879613 -0.11153410 0.33202311
v -0.08879613 -0.11216774 0.33107482
v -0.08879613 -0.11216774 0.33107482
v -0.08879613 -0.11216774 0.33107482
v -0.08879613 -0.11311603 0.33044118
v -0.08879613 -0.11311603 0.33044118
v -0.08879613 -0.11311603 0.33044118
v -0.08879613 -0.10993917 0.32884625
v -0.08879613 -0.10993917 0.32884625
v -0.08879613 -0.10993917 0.32884625
v -0.08879613 -0.11423463 0.33021868
v -0.08879613 -0.11423463 0.33021868
v -0.08879613 -0.11423463 0.33021868
v -0.08879613 -0.11535323 0.33044118
v -0.08879613 -0.11535323 0.33044118
v -0.08879613 -0.11535323 0.33044118
v -0.08879613 -0.11630153 0.33107482
v -0.08879613 -0.11630153 0.33107482
v -0.08879613 -0.11630153 0.33107482
v -0.08879613 -0.11693516 0.33202311
v -0.08879613 -0.11693516 0.33202311
v -0.08879613 -0.11693516 0.33202311
v -0.08879613 -0.12030933 0.33314170
v -0.08879613 -0.12030933 0.33314170
v -0.08879613 -0.12030933 0.33314170
v -0.08879613 -0.11715766 0.33314170
v -0.08879613 -0.11715766 0.33314170
v -0.08879613 -0.11715766 0.33314170
v -0.08879613 -0.11693516 0.33426030
v -0.08879613 -0.11693516 0.33426030
v -0.08879613 -0.11693516 0.33426030
v -0.08879613 -0.11630153 0.33520862
v -0.08879613 -0.11630153 0.33520862
v -0.08879613 -0.11630153 0.33520862
v -0.08879613 -0.11984692 0.33546641
v -0.08879613 -0.11984692 0.33546641
v -0.08879613 -0.11984692 0.33546641
v -0.08879613 -0.11535323 0.33584226
v -0.08879613 -0.11535323 0.33584226
v -0.08879613 -0.11535323 0.33584226
v -0.08879613 -0.11190995 0.32752941
v -0.08879613 -0.11190995 0.32752941
v -0.08879613 -0.11190995 0.32752941
v -0.08879613 -0.11655932 0.32752941
v -0.08879613 -0.11655932 0.32752941
v -0.08879613 -0.11655932 0.32752941
v -0.08879613 -0.11423463 0.32706700
v -0.08879613 -0.11423463 0.32706700
v -0.08879613 -0.11423463 0.32706700
v -0.07158244 -0.11655932 0.32752941
v -0.07158244 -0.11655932 0.32752941
v -0.07158244 -0.11655932 0.32752941
v -0.08108439 -0.11190995 0.32752941
v -0.08108439 -0.11190995 0.32752941
v -0.08108439 -0.10993917 0.32884625
v -0.08108439 -0.10993917 0.32884625
v -0.07158244 -0.12030933 0.33314170
v -0.07158244 -0.12030933 0.33314170
v -0.07158244 -0.12030933 0.33314170
v -0.07158244 -0.11984692 0.33546641
v -0.07158244 -0.11984692 0.33546641
v -0.07158244 -0.11984692 0.33546641
v -0.07158244 -0.11655932 0.33875400
v -0.07158244 -0.11655932 0.33875400
v -0.07158244 -0.11655932 0.33875400
v -0.07158244 -0.11423463 0.33921641
v -0.07158244 -0.11423463 0.33921641
v -0.07158244 -0.11423463 0.33921641
v -0.07158244 -0.11853009 0.33743719
v -0.07158244 -0.11853009 0.33743719
v -0.07158244 -0.11853009 0.33743719
v -0.09602588 -0.11630153 0.33107482
v -0.09602588 -0.11630153 0.33107482
v -0.09602588 -0.11630153 0.33107482
v -0.09602588 -0.11535323 0.33044118
v -0.09602588 -0.11535323 0.33044118
v -0.09602588 -0.11535323 0.33044118
v -0.10595752 -0.11665789 0.33899198
v -0.10595752 -0.11665789 0.33899198
v -0.10595752 -0.11665789 0.33899198
v -0.10595752 -0.11423463 0.33947398
v -0.10595752 -0.11423463 0.33947398
v -0.10595752 -0.11181137 0.33899198
v -0.10595752 -0.11181137 0.33899198
v -0.10595752 -0.11181137 0.33899198
v -0.10595751 -0.11871223 0.33761930
v -0.10595751 -0.11871223 0.33761930
v -0.10595751 -0.11871223 0.33761930
v -0.10595751 -0.10975704 0.33761930
v -0.10595751 -0.10975704 0.33761930
v -0.10595751 -0.10975704 0.33761930
v -0.10595751 -0.10838437 0.33556496
v -0.10595751 -0.10838437 0.33556496
v -0.10595751 -0.10838437 0.33556496
v -0.10595751 -0.12008489 0.33556496
v -0.10595751 -0.12008489 0.33556496
v -0.10595751 -0.12008489 0.33556496
v -0.10595751 -0.10790235 0.33314170
v -0.10595751 -0.10790235 0.33314170
v -0.10595751 -0.10790235 0.33314170
v -0.10595751 -0.12056691 0.33314170
v -0.10595751 -0.12056691 0.33314170
v -0.10595751 -0.10838437 0.33071845
v -0.10595751 -0.10838437 0.33071845
v -0.10595751 -0.10838437 0.33071845
v -0.10595751 -0.12008489 0.33071845
v -0.10595751 -0.12008489 0.33071845
v -0.10595751 -0.12008489 0.33071845
v -0.10595751 -0.10975704 0.32866411
v -0.10595751 -0.10975704 0.32866411
v -0.10595751 -0.10975704 0.32866411
v -0.10595751 -0.11871223 0.32866411
v -0.10595751 -0.11871223 0.32866411
v -0.10595751 -0.11871223 0.32866411
v -0.10595751 -0.11181137 0.32729146
v -0.10595751 -0.11181137 0.32729146
v -0.10595751 -0.11181137 0.32729146
v -0.10595751 -0.11665789 0.32729146
v -0.10595751 -0.11665789 0.32729146
v -0.10595751 -0.11665789 0.32729146
v -0.10595751 -0.11423463 0.32680942
v -0.10595751 -0.11423463 0.32680942
v -0.10595751 -0.11423463 0.32680942
v -0.07158244 -0.10815993 0.33314170
v -0.07158244 -0.10815993 0.33314170
v -0.07158244 -0.10815993 0.33314170
v -0.07158244 -0.10862234 0.33081703
v -0.07158244 -0.10862234 0.33081703
v -0.07158244 -0.10862234 0.33081703
v -0.07158244 -0.10993917 0.32884625
v -0.07158244 -0.10993917 0.32884625
v -0.07158244 -0.10993917 0.32884625
v -0.09602588 -0.12008489 0.33071845
v -0.09602588 -0.12008489 0.33071845
v -0.09602588 -0.12008489 0.33071845
v -0.09602588 -0.12056691 0.33314170
v -0.09602588 -0.12056691 0.33314170
v -0.09602588 -0.11665789 0.33899198
v -0.09602588 -0.11665789 0.33899198
v -0.09602588 -0.11665789 0.33899198
v -0.09602588 -0.11423463 0.33947398
v -0.09602588 -0.11423463 0.33947398
v -0.09602588 -0.12008489 0.33556496
v -0.09602588 -0.12008489 0.33556496
v -0.09602588 -0.12008489 0.33556496
v -0.09602588 -0.11871223 0.33761930
v -0.09602588 -0.11871223 0.33761930
v -0.09602588 -0.11871223 0.33761930
v -0.09602588 -0.11311603 0.33044118
v -0.09602588 -0.11311603 0.33044118
v -0.09602588 -0.11311603 0.33044118
v -0.09602588 -0.11216774 0.33107482
v -0.09602588 -0.11216774 0.33107482
v -0.09602588 -0.11216774 0.33107482
v -0.09602588 -0.11153410 0.33426030
v -0.09602588 -0.11153410 0.33426030
v -0.09602588 -0.11153410 0.33426030
v -0.09602588 -0.11216774 0.33520862
v -0.09602588 -0.11216774 0.33520862
v -0.09602588 -0.11216774 0.33520862
v -0.09602588 -0.11693516 0.33426030
v -0.09602588 -0.11693516 0.33426030
v -0.09602588 -0.11693516 0.33426030
v -0.09602588 -0.11715766 0.33314170
v -0.09602588 -0.11715766 0.33314170
v -0.09602588 -0.11715766 0.33314170
v -0.07158244 -0.11190995 0.33875400
v -0.07158244 -0.11190995 0.33875400
v -0.07158244 -0.11190995 0.33875400
v -0.09602588 -0.11630153 0.33520862
v -0.09602588 -0.11630153 0.33520862
v -0.09602588 -0.11630153 0.33520862
v -0.09602588 -0.11535323 0.33584223
v -0.09602588 -0.11535323 0.33584223
v -0.09602588 -0.11535323 0.33584223
v -0.07158244 -0.10993917 0.33743719
v -0.07158244 -0.10993917 0.33743719
v -0.07158244 -0.10993917 0.33743719
v -0.07158244 -0.10862234 0.33546641
v -0.07158244 -0.10862234 0.33546641
v -0.07158244 -0.10862234 0.33546641
v -0.07158244 -0.11190995 0.32752941
v -0.07158244 -0.11190995 0.32752941
v -0.07158244 -0.11190995 0.32752941
v -0.07158244 -0.11423463 0.32706703
v -0.07158244 -0.11423463 0.32706703
v -0.07158244 -0.11423463 0.32706703
v -0.09602588 -0.11181137 0.33899198
v -0.09602588 -0.11181137 0.33899198
v -0.09602588 -0.11181137 0.33899198
v -0.09602588 -0.10975704 0.33761930
v -0.09602588 -0.10975704 0.33761930
v -0.09602588 -0.10975704 0.33761930
v -0.09602588 -0.11871223 0.32866411
v -0.09602588 -0.11871223 0.32866411
v -0.09602588 -0.11871223 0.32866411
v -0.09602588 -0.11153410 0.33202311
v -0.09602588 -0.11153410 0.33202311
v -0.09602588 -0.11153410 0.33202311
v -0.09602588 -0.10838437 0.33071845
v -0.09602588 -0.10838437 0.33071845
v -0.09602588 -0.10838437 0.33071845
v -0.09602588 -0.10975704 0.32866411
v -0.09602588 -0.10975704 0.32866411
v -0.09602588 -0.10975704 0.32866411
v -0.09602588 -0.11693516 0.33202311
v -0.09602588 -0.11693516 0.33202311
v -0.09602588 -0.11693516 0.33202311
v -0.09602588 -0.11665789 0.32729146
v -0.09602588 -0.11665789 0.32729146
v -0.09602588 -0.11665789 0.32729146
v -0.09602588 -0.11131160 0.33314170
v -0.09602588 -0.11131160 0.33314170
v -0.09602588 -0.11131160 0.33314170
v -0.09602588 -0.11423463 0.33606475
v -0.09602588 -0.11423463 0.33606475
v -0.09602588 -0.11423463 0.33606475
v -0.09602588 -0.11311603 0.33584223
v -0.09602588 -0.11311603 0.33584223
v -0.09602588 -0.11311603 0.33584223
v -0.09602588 -0.10838437 0.33556496
v -0.09602588 -0.10838437 0.33556496
v -0.09602588 -0.10838437 0.33556496
v -0.09602588 -0.11181137 0.32729146
v -0.09602588 -0.11181137 0.32729146
v -0.09602588 -0.11181137 0.32729146
v -0.09602588 -0.10790235 0.33314170
v -0.09602588 -0.10790235 0.33314170
v -0.09602588 -0.10790235 0.33314170
v -0.09602588 -0.11423463 0.33021868
v -0.09602588 -0.11423463 0.33021868
v -0.09602588 -0.11423463 0.33021868
v -0.09602588 -0.11423463 0.32680942
v -0.09602588 -0.11423463 0.32680942
v -0.09602588 -0.11423463 0.32680942
f 2 5 8
f 8 11 2
f 15 16 20
f 20 24 15
f 24 20 27
f 27 28 24
f 31 24 28
f 28 36 31
f 37 36 28
f 28 42 37
f 45 37 42
f 42 46 45
f 46 42 51
f 51 54 46
f 56 54 51
f 51 60 56
f 60 51 62
f 62 64 60
f 64 62 4
f 4 68 64
f 68 4 1
f 1 72 68
f 73 72 1
f 1 78 73
f 79 73 78
f 78 82 79
f 87 82 78
f 78 90 87
f 91 87 90
f 90 31 91
f 31 90 24
f 4 62 95
f 95 98 4
f 98 95 101
f 9 6 97
f 97 105 9
f 106 94 63
f 63 109 106
f 89 76 111
f 111 113 89
f 13 116 121
f 121 18 13
f 23 88 115
f 115 123 23
f 71 127 130
f 130 69 71
f 131 135 138
f 138 139 131
f 139 138 144
f 144 147 139
f 150 139 147
f 147 151 150
f 155 150 151
f 151 158 155
f 159 155 158
f 158 162 159
f 167 159 162
f 162 168 167
f 171 167 168
f 168 176 171
f 50 40 179
f 179 181 50
f 61 49 180
f 180 108 61
f 108 180 184
f 154 161 188
f 188 189 154
f 134 133 191
f 191 195 134
f 141 149 196
f 196 201 141
f 59 203 206
f 206 55 59
f 208 212 39
f 39 43 208
f 216 218 80
f 80 84 216
f 17 119 221
f 221 19 17
f 22 124 118
f 118 14 22
f 224 85 93
f 93 228 224
f 220 120 117
f 117 122 220
f 229 220 122
f 122 114 229
f 234 229 114
f 114 112 234
f 178 234 112
f 112 12 178
f 182 178 12
f 12 7 182
f 185 182 7
f 7 103 185
f 235 185 103
f 103 239 235
f 225 215 83
f 83 86 225
f 143 136 241
f 241 245 143
f 104 99 102
f 102 240 104
f 238 100 96
f 96 237 238
f 237 96 107
f 132 140 200
f 200 192 132
f 160 166 247
f 247 186 160
f 77 3 10
f 10 110 77
f 205 252 52
f 52 57 205
f 148 154 189
f 189 198 148
f 21 222 230
f 230 25 21
f 164 156 255
f 255 257 164
f 219 261 75
f 75 81 219
f 248 165 173
f 173 263 248
f 251 266 48
f 48 53 251
f 268 33 35
f 35 271 268
f 236 106 109
f 109 183 236
f 146 142 246
f 246 275 146
f 278 170 163
f 163 258 278
f 272 34 38
f 38 213 272
f 134 195 243
f 243 137 134
f 152 145 274
f 274 280 152
f 242 194 193
f 193 199 242
f 244 242 199
f 199 197 244
f 270 244 197
f 197 226 270
f 223 226 197
f 197 190 223
f 214 223 190
f 190 217 214
f 217 190 187
f 187 259 217
f 126 259 187
f 187 129 126
f 129 187 249
f 249 284 129
f 284 249 256
f 256 204 284
f 204 256 253
f 253 207 204
f 250 207 253
f 253 281 250
f 265 250 281
f 281 210 265
f 211 210 281
f 281 276 211
f 273 211 276
f 276 270 273
f 270 276 244
f 256 249 262
f 262 277 256
f 277 262 287
f 65 283 202
f 202 58 65
f 67 128 285
f 285 66 67
f 286 174 169
f 169 279 286
f 227 92 32
f 32 269 227
f 267 209 44
f 44 47 267
f 264 172 175
f 175 288 264
f 260 125 70
f 70 74 260
f 157 153 282
f 282 254 157
f 41 30 232
f 232 177 41
f 29 26 231
f 231 233 29

