# https://github.com/mikedh/trimesh
v -0.04969374 -0.13841300 0.37347700
v -0.04969374 -0.13841300 0.37347700
v -0.04905943 -0.13522411 0.37347700
v -0.04905943 -0.13522411 0.37347700
v -0.04969373 -0.13203521 0.37347700
v -0.04969373 -0.13203521 0.37347700
v -0.05150010 -0.12933179 0.37347700
v -0.05150010 -0.12933179 0.37347700
v -0.05150011 -0.14111642 0.37347700
v -0.05150011 -0.14111642 0.37347700
v -0.05420353 -0.14292279 0.37347700
v -0.05420353 -0.14292279 0.37347700
v -0.05420352 -0.12752542 0.37347700
v -0.05420352 -0.12752542 0.37347700
v -0.05739243 -0.14355710 0.37347700
v -0.05739243 -0.14355710 0.37347700
v -0.05739242 -0.12689110 0.37347700
v -0.05739242 -0.12689110 0.37347700
v -0.06058133 -0.14292278 0.37347700
v -0.06058133 -0.14292278 0.37347700
v -0.06058132 -0.12752541 0.37347700
v -0.06058132 -0.12752541 0.37347700
v -0.06328474 -0.12933178 0.37347700
v -0.06328474 -0.12933178 0.37347700
v -0.06328474 -0.14111641 0.37347700
v -0.06328474 -0.14111641 0.37347700
v -0.06509111 -0.13841299 0.37347700
v -0.06509111 -0.13841299 0.37347700
v -0.06509111 -0.13203520 0.37347700
v -0.06509111 -0.13203520 0.37347700
v -0.06572542 -0.13522409 0.37347700
v -0.06572542 -0.13522409 0.37347700
v -0.04969373 -0.13203520 0.36089479
v -0.04969373 -0.13203520 0.36089479
v -0.04969373 -0.13203520 0.36089479
v -0.04905943 -0.13522410 0.36089479
v -0.04905943 -0.13522410 0.36089479
v -0.04905943 -0.13522410 0.36089479
v -0.04969374 -0.13841299 0.36089479
v -0.04969374 -0.13841299 0.36089479
v -0.04969374 -0.13841299 0.36089479
v -0.05150011 -0.14111641 0.36089479
v -0.05150011 -0.14111641 0.36089479
v -0.05150011 -0.14111641 0.36089479
v -0.05150010 -0.12933178 0.36089479
v -0.05150010 -0.12933178 0.36089479
v -0.05150010 -0.12933178 0.36089479
v -0.05420353 -0.14292278 0.36089479
v -0.05420353 -0.14292278 0.36089479
v -0.05420353 -0.14292278 0.36089479
v -0.05420352 -0.12752541 0.36089483
v -0.05420352 -0.12752541 0.36089483
v -0.05420352 -0.12752541 0.36089483
v -0.05739243 -0.14355709 0.36089479
v -0.05739243 -0.14355709 0.36089479
v -0.05739243 -0.14355709 0.36089479
v -0.05739242 -0.12689110 0.36089483
v -0.05739242 -0.12689110 0.36089483
v -0.05739242 -0.12689110 0.36089483
v -0.06058133 -0.14292277 0.36089479
v -0.06058133 -0.14292277 0.36089479
v -0.06058133 -0.14292277 0.36089479
v -0.06058132 -0.12752540 0.36089483
v -0.06058132 -0.12752540 0.36089483
v -0.06058132 -0.12752540 0.36089483
v -0.06328474 -0.12933177 0.36089479
v -0.06328474 -0.12933177 0.36089479
v -0.06328474 -0.12933177 0.36089479
v -0.06328474 -0.14111641 0.36089479
v -0.06328474 -0.14111641 0.36089479
v -0.06328474 -0.14111641 0.36089479
v -0.06509111 -0.13841299 0.36089479
v -0.06509111 -0.13841299 0.36089479
v -0.06509111 -0.13841299 0.36089479
v -0.06509111 -0.13203519 0.36089479
v -0.06509111 -0.13203519 0.36089479
v -0.06509111 -0.13203519 0.36089479
v -0.06572542 -0.13522408 0.36089479
v -0.06572542 -0.13522408 0.36089479
v -0.06572542 -0.13522408 0.36089479
v -0.08496521 -0.15181009 0.37347700
v -0.08496521 -0.15181009 0.37347700
v -0.08496521 -0.15181009 0.37347700
v -0.08739685 -0.13958542 0.37347700
v -0.08739685 -0.13958542 0.37347700
v -0.08739685 -0.13958542 0.37347700
v -0.08496521 -0.12736075 0.37347700
v -0.08496521 -0.12736075 0.37347700
v -0.08496521 -0.12736075 0.37347700
v -0.07804049 -0.11699718 0.37347700
v -0.07804049 -0.11699718 0.37347700
v -0.07804049 -0.11699718 0.37347700
v -0.07804049 -0.16217366 0.37347700
v -0.07804049 -0.16217366 0.37347700
v -0.07804049 -0.16217366 0.37347700
v -0.06767692 -0.16909838 0.37347700
v -0.06767692 -0.16909838 0.37347700
v -0.06767692 -0.16909838 0.37347700
v -0.06767692 -0.11007246 0.37347700
v -0.06767692 -0.11007246 0.37347700
v -0.06767692 -0.11007246 0.37347700
v -0.05545225 -0.17153001 0.37347700
v -0.05545225 -0.17153001 0.37347700
v -0.05545225 -0.17153001 0.37347700
v -0.05545225 -0.10764082 0.37347700
v -0.05545225 -0.10764082 0.37347700
v -0.05545225 -0.10764082 0.37347700
v -0.04322758 -0.16909838 0.37347700
v -0.04322758 -0.16909838 0.37347700
v -0.04322758 -0.16909838 0.37347700
v -0.04322758 -0.11007246 0.37347700
v -0.04322758 -0.11007246 0.37347700
v -0.04322758 -0.11007246 0.37347700
v -0.03286400 -0.11699718 0.37347700
v -0.03286400 -0.11699718 0.37347700
v -0.03286400 -0.11699718 0.37347700
v -0.03286400 -0.16217366 0.37347700
v -0.03286400 -0.16217366 0.37347700
v -0.03286400 -0.16217366 0.37347700
v -0.02593929 -0.15181009 0.37347700
v -0.02593929 -0.15181009 0.37347700
v -0.02593929 -0.15181009 0.37347700
v -0.02593929 -0.12736075 0.37347700
v -0.02593929 -0.12736075 0.37347700
v -0.02593929 -0.12736075 0.37347700
v -0.02350764 -0.13958542 0.37347700
v -0.02350764 -0.13958542 0.37347700
v -0.02350764 -0.13958542 0.37347700
v -0.08496521 -0.12736075 0.40152590
v -0.08496521 -0.12736075 0.40152590
v -0.08496521 -0.12736075 0.40152590
v -0.08739685 -0.13958542 0.40152590
v -0.08739685 -0.13958542 0.40152590
v -0.08739685 -0.13958542 0.40152590
v -0.08496521 -0.15181009 0.40152590
v -0.08496521 -0.15181009 0.40152590
v -0.08496521 -0.15181009 0.40152590
v -0.07804049 -0.16217366 0.40152590
v -0.07804049 -0.16217366 0.40152590
v -0.07804049 -0.16217366 0.40152590
v -0.07804049 -0.11699718 0.40152590
v -0.07804049 -0.11699718 0.40152590
v -0.07804049 -0.11699718 0.40152590
v -0.06767692 -0.16909838 0.40152590
v -0.06767692 -0.16909838 0.40152590
v -0.06767692 -0.16909838 0.40152590
v -0.06767692 -0.11007246 0.40152590
v -0.06767692 -0.11007246 0.40152590
v -0.06767692 -0.11007246 0.40152590
v -0.05545225 -0.17153001 0.40152590
v -0.05545225 -0.17153001 0.40152590
v -0.05545225 -0.17153001 0.40152590
v -0.05545225 -0.10764082 0.40152590
v -0.05545225 -0.10764082 0.40152590
v -0.05545225 -0.10764082 0.40152590
v -0.04322758 -0.16909838 0.40152590
v -0.04322758 -0.16909838 0.40152590
v -0.04322758 -0.16909838 0.40152590
v -0.04322758 -0.11007246 0.40152590
v -0.04322758 -0.11007246 0.40152590
v -0.04322758 -0.11007246 0.40152590
v -0.03286400 -0.11699718 0.40152590
v -0.03286400 -0.11699718 0.40152590
v -0.03286400 -0.11699718 0.40152590
v -0.03286400 -0.16217366 0.40152590
v -0.03286400 -0.16217366 0.40152590
v -0.03286400 -0.16217366 0.40152590
v -0.02593929 -0.15181009 0.40152590
v -0.02593929 -0.15181009 0.40152590
v -0.02593929 -0.15181009 0.40152590
v -0.02593929 -0.12736075 0.40152590
v -0.02593929 -0.12736075 0.40152590
v -0.02593929 -0.12736075 0.40152590
v -0.02350764 -0.13958542 0.40152590
v -0.02350764 -0.13958542 0.40152590
v -0.02350764 -0.13958542 0.40152590
f 1 4 5
f 9 1 8
f 11 8 13
f 16 13 17
f 19 17 21
f 26 19 24
f 27 24 29
f 35 38 40
f 45 35 42
f 52 45 48
f 58 52 54
f 65 58 60
f 67 60 71
f 75 67 72
f 78 32 30
f 76 30 23
f 23 22 64
f 22 18 59
f 18 14 53
f 14 7 47
f 6 33 46
f 3 36 34
f 2 41 37
f 10 43 39
f 10 12 50
f 12 15 55
f 15 20 61
f 20 25 70
f 69 25 28
f 73 28 32
f 81 84 87
f 93 81 92
f 96 92 101
f 104 101 105
f 108 105 111
f 117 108 116
f 120 116 124
f 131 133 136
f 143 131 138
f 148 143 145
f 155 148 150
f 161 155 157
f 163 157 167
f 171 163 168
f 176 128 125
f 173 123 115
f 114 112 159
f 113 107 154
f 106 100 147
f 99 90 141
f 89 129 142
f 86 134 130
f 83 135 132
f 95 139 137
f 94 98 144
f 97 102 152
f 103 109 156
f 110 119 165
f 166 118 122
f 169 121 127
f 5 8 1
f 8 11 9
f 13 16 11
f 17 19 16
f 21 24 19
f 24 27 26
f 29 31 27
f 40 42 35
f 42 48 45
f 48 54 52
f 54 60 58
f 60 67 65
f 71 72 67
f 72 79 75
f 30 77 78
f 23 68 76
f 64 66 23
f 59 63 22
f 53 57 18
f 47 51 14
f 46 7 6
f 34 6 3
f 37 3 2
f 39 2 10
f 50 44 10
f 55 49 12
f 61 56 15
f 70 62 20
f 28 74 69
f 32 80 73
f 87 92 81
f 92 96 93
f 101 104 96
f 105 108 104
f 111 116 108
f 116 120 117
f 124 126 120
f 136 138 131
f 138 145 143
f 145 150 148
f 150 157 155
f 157 163 161
f 167 168 163
f 168 175 171
f 125 172 176
f 115 164 173
f 159 162 114
f 154 160 113
f 147 153 106
f 141 149 99
f 142 91 89
f 130 88 86
f 132 85 83
f 137 82 95
f 144 140 94
f 152 146 97
f 156 151 103
f 165 158 110
f 122 170 166
f 127 174 169

