# https://github.com/mikedh/trimesh
v -0.40669167 -0.24800757 0.13864512
v -0.40669167 -0.24800757 0.13864512
v -0.40669167 -0.24800757 0.13864512
v -0.40669167 -0.24345711 0.13864512
v -0.40669167 -0.24345711 0.13864512
v -0.40669167 -0.24345711 0.13864512
v -0.39886509 -0.24345711 0.13864512
v -0.39886509 -0.24345711 0.13864512
v -0.39886509 -0.24345711 0.13864512
v -0.39886509 -0.24800757 0.13864512
v -0.39886509 -0.24800757 0.13864512
v -0.39886509 -0.24800757 0.13864512
v -0.40669167 -0.24800757 0.14310970
v -0.40669167 -0.24800757 0.14310970
v -0.40669167 -0.24800757 0.14310970
v -0.40669167 -0.24345711 0.14310970
v -0.40669167 -0.24345711 0.14310970
v -0.40669167 -0.24345711 0.14310970
v -0.41840126 -0.24800757 0.13864512
v -0.41840126 -0.24800757 0.13864512
v -0.41840126 -0.24800757 0.13864512
v -0.41840126 -0.24345711 0.13864512
v -0.41840126 -0.24345711 0.13864512
v -0.41840126 -0.24345711 0.13864512
v -0.41057472 -0.24345711 0.13864512
v -0.41057472 -0.24345711 0.13864512
v -0.41057472 -0.24345711 0.13864512
v -0.41057472 -0.24800757 0.13864512
v -0.41057472 -0.24800757 0.13864512
v -0.41057472 -0.24800757 0.13864512
v -0.45141011 -0.24345711 0.14310970
v -0.45141011 -0.24345711 0.14310970
v -0.45141011 -0.24345711 0.14310970
v -0.45141011 -0.24800757 0.14310970
v -0.45141011 -0.24800757 0.14310970
v -0.45141011 -0.24800757 0.14310970
v -0.45141011 -0.24800757 0.13864512
v -0.45141011 -0.24800757 0.13864512
v -0.45141011 -0.24800757 0.13864512
v -0.45141011 -0.24345711 0.13864512
v -0.45141011 -0.24345711 0.13864512
v -0.45141011 -0.24345711 0.13864512
v -0.41057472 -0.24800757 0.14310970
v -0.41057472 -0.24800757 0.14310970
v -0.41057472 -0.24800757 0.14310970
v -0.41840126 -0.24800757 0.14310970
v -0.41840126 -0.24800757 0.14310970
v -0.41840126 -0.24800757 0.14310970
v -0.39886509 -0.24800757 0.14310970
v -0.39886509 -0.24800757 0.14310970
v -0.39886509 -0.24800757 0.14310970
v -0.45923665 -0.24800757 0.13864512
v -0.45923665 -0.24800757 0.13864512
v -0.45923665 -0.24800757 0.13864512
v -0.45923665 -0.24800757 0.14310970
v -0.45923665 -0.24800757 0.14310970
v -0.45923665 -0.24800757 0.14310970
v -0.39886509 -0.24345711 0.14310970
v -0.39886509 -0.24345711 0.14310970
v -0.39886509 -0.24345711 0.14310970
v -0.41840126 -0.24345711 0.14310970
v -0.41840126 -0.24345711 0.14310970
v -0.41840126 -0.24345711 0.14310970
v -0.43340141 -0.24345711 0.14310970
v -0.43340141 -0.24345711 0.14310970
v -0.43340141 -0.24345711 0.14310970
v -0.43340141 -0.24800757 0.14310970
v -0.43340141 -0.24800757 0.14310970
v -0.43340141 -0.24800757 0.14310970
v -0.42557484 -0.24800757 0.14310970
v -0.42557484 -0.24800757 0.14310970
v -0.42557484 -0.24800757 0.14310970
v -0.42557484 -0.24345711 0.14310970
v -0.42557484 -0.24345711 0.14310970
v -0.42557484 -0.24345711 0.14310970
v -0.42557484 -0.24800757 0.13864512
v -0.42557484 -0.24800757 0.13864512
v -0.42557484 -0.24800757 0.13864512
v -0.42557484 -0.24345711 0.13864512
v -0.42557484 -0.24345711 0.13864512
v -0.42557484 -0.24345711 0.13864512
v -0.43340141 -0.24800757 0.13864512
v -0.43340141 -0.24800757 0.13864512
v -0.43340141 -0.24800757 0.13864512
v -0.43340141 -0.24345711 0.13864512
v -0.43340141 -0.24345711 0.13864512
v -0.43340141 -0.24345711 0.13864512
v -0.45923665 -0.24345711 0.14310970
v -0.45923665 -0.24345711 0.14310970
v -0.45923665 -0.24345711 0.14310970
v -0.45923665 -0.24345711 0.13864512
v -0.45923665 -0.24345711 0.13864512
v -0.45923665 -0.24345711 0.13864512
v -0.43388900 -0.24345711 0.13815752
v -0.42508725 -0.24345711 0.13815752
v -0.42508725 -0.24345711 0.14359729
v -0.43388900 -0.24345711 0.14359729
v -0.47272495 -0.24800757 0.13864512
v -0.47272495 -0.24800757 0.13864512
v -0.47272495 -0.24800757 0.13864512
v -0.47272495 -0.24800757 0.14310970
v -0.47272495 -0.24800757 0.14310970
v -0.47272495 -0.24800757 0.14310970
v -0.47272495 -0.24345711 0.14310970
v -0.47272495 -0.24345711 0.14310970
v -0.47272495 -0.24345711 0.14310970
v -0.47272495 -0.24345711 0.13864512
v -0.47272495 -0.24345711 0.13864512
v -0.47272495 -0.24345711 0.13864512
v -0.44699344 -0.24800757 0.13864512
v -0.44699344 -0.24800757 0.13864512
v -0.44699344 -0.24800757 0.13864512
v -0.43916690 -0.24800757 0.13864512
v -0.43916690 -0.24800757 0.13864512
v -0.43916690 -0.24800757 0.13864512
v -0.43916690 -0.24800757 0.14310970
v -0.43916690 -0.24800757 0.14310970
v -0.43916690 -0.24800757 0.14310970
v -0.44699344 -0.24800757 0.14310970
v -0.44699344 -0.24800757 0.14310970
v -0.44699344 -0.24800757 0.14310970
v -0.46489837 -0.24345711 0.13864512
v -0.46489837 -0.24345711 0.13864512
v -0.46489837 -0.24345711 0.13864512
v -0.47321254 -0.24345711 0.13815752
v -0.46441078 -0.24345711 0.13815752
v -0.46441078 -0.24345711 0.14359729
v -0.46489837 -0.24345711 0.14310970
v -0.46489837 -0.24345711 0.14310970
v -0.46489837 -0.24345711 0.14310970
v -0.47321254 -0.24345711 0.14359729
v -0.46489837 -0.24800757 0.14310970
v -0.46489837 -0.24800757 0.14310970
v -0.46489837 -0.24800757 0.14310970
v -0.46489837 -0.24800757 0.13864512
v -0.46489837 -0.24800757 0.13864512
v -0.46489837 -0.24800757 0.13864512
v -0.45972424 -0.24345711 0.13815752
v -0.45092249 -0.24345711 0.13815752
v -0.45092249 -0.24345711 0.14359729
v -0.45972424 -0.24345711 0.14359729
v -0.40717926 -0.24345711 0.13815752
v -0.39837750 -0.24345711 0.13815752
v -0.39837750 -0.24345711 0.14359729
v -0.40717926 -0.24345711 0.14359729
v -0.41057472 -0.24345711 0.14310970
v -0.41057472 -0.24345711 0.14310970
v -0.41057472 -0.24345711 0.14310970
v -0.44699344 -0.24345711 0.14310970
v -0.44699344 -0.24345711 0.14310970
v -0.44699344 -0.24345711 0.14310970
v -0.44699344 -0.24345711 0.13864512
v -0.44699344 -0.24345711 0.13864512
v -0.44699344 -0.24345711 0.13864512
v -0.43916690 -0.24345711 0.13864512
v -0.43916690 -0.24345711 0.13864512
v -0.43916690 -0.24345711 0.13864512
v -0.44748103 -0.24345711 0.13815752
v -0.43867928 -0.24345711 0.13815752
v -0.43867928 -0.24345711 0.14359729
v -0.43916690 -0.24345711 0.14310970
v -0.43916690 -0.24345711 0.14310970
v -0.43916690 -0.24345711 0.14310970
v -0.44748103 -0.24345711 0.14359729
v -0.40814766 -0.24345711 0.16573486
v -0.40783746 -0.24345711 0.15608164
v -0.40777006 -0.24345711 0.15608344
v -0.41888885 -0.24345711 0.13815752
v -0.41008710 -0.24345711 0.13815752
v -0.41008710 -0.24345711 0.14359729
v -0.41888885 -0.24345711 0.14359729
f 2 4 8
f 8 11 2
f 1 13 18
f 18 6 1
f 21 23 25
f 25 28 21
f 31 36 37
f 37 42 31
f 20 29 45
f 45 46 20
f 3 10 51
f 51 14 3
f 53 39 35
f 35 56 53
f 59 49 12
f 12 7 59
f 19 48 61
f 61 22 19
f 66 69 72
f 72 75 66
f 74 71 76
f 76 79 74
f 83 68 64
f 64 86 83
f 52 55 89
f 89 92 52
f 54 93 41
f 41 38 54
f 88 57 34
f 34 33 88
f 81 94 95
f 95 96 81
f 73 81 96
f 96 65 73
f 65 96 97
f 97 85 65
f 85 97 94
f 94 81 85
f 99 103 105
f 105 108 99
f 111 114 118
f 118 119 111
f 123 125 126
f 126 127 123
f 128 123 127
f 127 104 128
f 104 127 131
f 131 107 104
f 107 131 125
f 125 123 107
f 17 15 50
f 50 60 17
f 84 77 70
f 70 67 84
f 129 132 135
f 135 122 129
f 98 109 124
f 124 137 98
f 40 138 139
f 139 140 40
f 32 40 140
f 140 90 32
f 90 140 141
f 141 91 90
f 91 141 138
f 138 40 91
f 9 142 143
f 143 144 9
f 58 9 144
f 144 16 58
f 16 144 145
f 145 5 16
f 5 145 142
f 142 9 5
f 106 101 133
f 133 130 106
f 147 43 30
f 30 27 147
f 110 120 150
f 150 152 110
f 157 158 159
f 159 160 157
f 162 157 160
f 160 151 162
f 151 160 164
f 164 153 151
f 153 164 158
f 158 157 153
f 63 47 44
f 44 148 63
f 82 87 80
f 80 78 82
f 161 116 115
f 115 155 161
f 112 154 156
f 156 113 112
f 149 121 117
f 117 163 149
f 165 166 167
f 26 168 169
f 169 170 26
f 146 26 170
f 170 62 146
f 62 170 171
f 171 24 62
f 24 171 168
f 168 26 24
f 100 136 134
f 134 102 100

