# https://github.com/mikedh/trimesh
v 0.01940918 -0.16276954 0.76500642
v 0.01940918 -0.16276954 0.76500642
v 0.01940918 -0.16123662 0.76500642
v 0.01940918 -0.16123662 0.76866648
v 0.01940918 -0.16276954 0.76866648
v 0.01940918 -0.16276954 0.76866648
v 0.01588989 -0.16276954 0.76866648
v 0.01588989 -0.16276954 0.76866648
v 0.01588989 -0.16276954 0.76866648
v 0.01588989 -0.16276954 0.76500642
v 0.01588989 -0.16276954 0.76500642
v 0.01588989 -0.16276954 0.76500642
v 0.01968349 -0.16276954 0.75471862
v 0.01968349 -0.16276954 0.75471862
v 0.01968349 -0.16276954 0.75471862
v 0.01968349 -0.16276954 0.75853784
v 0.01968349 -0.16276954 0.75853784
v 0.01968349 -0.16276954 0.75853784
v 0.01601117 -0.16276954 0.75853784
v 0.01601117 -0.16276954 0.75853784
v 0.01601117 -0.16276954 0.75853784
v 0.01601117 -0.16276954 0.75471862
v 0.01601117 -0.16276954 0.75471862
v 0.01601117 -0.16276954 0.75471862
v 0.01971042 -0.16276954 0.74367245
v 0.01971042 -0.16276954 0.74367245
v 0.01971042 -0.16276954 0.74367245
v 0.01971042 -0.16276954 0.74795904
v 0.01971042 -0.16276954 0.74795904
v 0.01971042 -0.16276954 0.74795904
v 0.01558866 -0.16276954 0.74795904
v 0.01558866 -0.16276954 0.74795904
v 0.01558866 -0.16276954 0.74795904
v 0.01558866 -0.16276954 0.74367245
v 0.01558866 -0.16276954 0.74367245
v 0.01558866 -0.16276954 0.74367245
v 0.01588989 -0.16123662 0.76500642
v 0.01588989 -0.16123662 0.76500642
v 0.01588989 -0.16123662 0.76866648
v 0.01588989 -0.16123662 0.76866648
v 0.01968349 -0.16108827 0.75853784
v 0.01968349 -0.16108827 0.75853784
v 0.01601117 -0.16108827 0.75853784
v 0.01601117 -0.16108827 0.75853784
v 0.01968349 -0.16108827 0.75471862
v 0.01968349 -0.16108827 0.75471862
v 0.01601117 -0.16108827 0.75471862
v 0.01601117 -0.16108827 0.75471862
v 0.01558866 -0.16108827 0.74795904
v 0.01558866 -0.16108827 0.74795904
v 0.01971042 -0.16108827 0.74795904
v 0.01971042 -0.16108827 0.74795904
v 0.01971042 -0.16108827 0.74367245
v 0.01971042 -0.16108827 0.74367245
v 0.01558866 -0.16108827 0.74367245
v 0.01558866 -0.16108827 0.74367245
f 1 6 8
f 15 16 20
f 27 28 31
f 2 11 37
f 38 12 7
f 9 5 4
f 21 17 41
f 13 46 42
f 14 23 48
f 47 24 19
f 49 33 29
f 25 54 51
f 26 34 56
f 55 36 32
f 8 10 1
f 20 22 15
f 31 35 27
f 37 3 2
f 7 39 38
f 4 40 9
f 41 44 21
f 42 18 13
f 48 45 14
f 19 43 47
f 29 52 49
f 51 30 25
f 56 53 26
f 32 50 55

