# https://github.com/mikedh/trimesh
v -0.33577096 0.00903580 0.51719921
v -0.33817254 0.00824019 0.51719921
v -0.34065657 0.00871986 0.51719921
v -0.34255750 0.01034627 0.51719921
v -0.33409536 0.01089349 0.51719921
v -0.34336593 0.01268362 0.51719921
v -0.33359471 0.01331551 0.51719921
v -0.34286528 0.01510564 0.51719921
v -0.33440313 0.01565287 0.51719921
v -0.34118967 0.01696334 0.51719921
v -0.33630406 0.01727928 0.51719921
v -0.33878809 0.01775894 0.51719921
v -0.33879481 0.01786282 0.54188439
v -0.34124879 0.01704985 0.54188439
v -0.34124726 0.01705156 0.54188439
v -0.33879487 0.01786399 0.54188439
v -0.33625831 0.01737418 0.54188439
v -0.33625656 0.01737269 0.54188439
v -0.34190699 0.01801277 0.53853447
v -0.34202787 0.01818961 0.53607674
v -0.34202787 0.01818961 0.52321311
v -0.34202787 0.01818961 0.52321311
v -0.33972022 0.01895410 0.53265317
v -0.33972022 0.01895410 0.53265317
v -0.34094810 0.00814659 0.51846521
v -0.33813130 0.00760268 0.51846521
v -0.33540806 0.00850485 0.51846521
v -0.33350798 0.01061138 0.51846521
v -0.34310363 0.00999086 0.51846521
v -0.33294027 0.01335783 0.51846521
v -0.34402036 0.01264131 0.51846521
v -0.33385701 0.01600827 0.51846521
v -0.34345262 0.01538775 0.51846521
v -0.34155258 0.01749428 0.51846521
v -0.34155258 0.01749428 0.51846521
v -0.33555702 0.01746280 0.51846521
v -0.33555702 0.01746280 0.51846521
v -0.33601253 0.01785254 0.51846521
v -0.33601253 0.01785254 0.51846521
v -0.33882931 0.01839646 0.51846521
v -0.33882931 0.01839646 0.51846521
v -0.33888330 0.01923136 0.53557158
v -0.33888330 0.01923136 0.53607674
v -0.33888330 0.01923136 0.52321311
v -0.33563077 0.01860330 0.52321311
v -0.33563077 0.01860330 0.52513667
v -0.33799816 0.01906044 0.53607674
v -0.33886957 0.01901901 0.52075538
v -0.34190699 0.01801277 0.52075538
v -0.33572788 0.01841235 0.52075538
v -0.33467196 0.01778296 0.52321311
v -0.33519285 0.01822861 0.53607674
v -0.33496974 0.01776370 0.52075538
v -0.40091695 -0.06392121 0.54155929
v -0.39643212 -0.06613775 0.54155929
v -0.39838523 -0.06444415 0.54155929
v -0.40091477 -0.06392050 0.54155929
v -0.39838471 -0.06444310 0.54155929
v -0.39643288 -0.06613559 0.54155929
v -0.42121533 -0.19756972 0.51313003
v -0.42369295 -0.19705795 0.51313003
v -0.42560437 -0.19540053 0.51313003
v -0.42643742 -0.19304156 0.51313003
v -0.41883537 -0.19679872 0.51313003
v -0.42596884 -0.19061313 0.51313003
v -0.41719077 -0.19495152 0.51313003
v -0.42432427 -0.18876593 0.51313003
v -0.41672222 -0.19252309 0.51313003
v -0.42194431 -0.18799493 0.51313003
v -0.41755527 -0.19016412 0.51313003
v -0.41946668 -0.18850669 0.51313003
v -0.41942053 -0.18841337 0.53781521
v -0.42195225 -0.18789043 0.53781521
v -0.42195007 -0.18788972 0.53781521
v -0.41942001 -0.18841233 0.53781521
v -0.41746818 -0.19010482 0.53781521
v -0.41746741 -0.19010698 0.53781521
v -0.42204081 -0.18672743 0.53446529
v -0.42205706 -0.18651384 0.53200756
v -0.42205706 -0.18651384 0.51914393
v -0.42205706 -0.18651384 0.51914393
v -0.41967633 -0.18700560 0.52858398
v -0.41967633 -0.18700560 0.52858398
v -0.42614345 -0.19575123 0.51439603
v -0.42397602 -0.19763066 0.51439603
v -0.42116651 -0.19821100 0.51439603
v -0.41846774 -0.19733670 0.51439603
v -0.42708808 -0.19307629 0.51439603
v -0.41660287 -0.19524209 0.51439603
v -0.42655676 -0.19032256 0.51439603
v -0.41607156 -0.19248836 0.51439603
v -0.42469187 -0.18822794 0.51439603
v -0.42199313 -0.18735365 0.51439603
v -0.42199313 -0.18735365 0.51439603
v -0.41681654 -0.19037871 0.51439603
v -0.41681654 -0.19037871 0.51439603
v -0.41701616 -0.18981341 0.51439603
v -0.41701616 -0.18981341 0.51439603
v -0.41918362 -0.18793398 0.51439603
v -0.41918362 -0.18793398 0.51439603
v -0.41881292 -0.18718394 0.53150240
v -0.41881292 -0.18718394 0.53200756
v -0.41881292 -0.18718394 0.51914393
v -0.41631018 -0.18935413 0.51914393
v -0.41631018 -0.18935413 0.52106749
v -0.41813181 -0.18777455 0.53200756
v -0.41890719 -0.18737470 0.51668620
v -0.42204081 -0.18672743 0.51668620
v -0.41648972 -0.18947094 0.51668620
v -0.41589000 -0.19054395 0.51914393
v -0.41611826 -0.18989757 0.53200756
v -0.41615751 -0.19041175 0.51668620
v -0.20360924 -0.12869141 0.51364488
v -0.20415985 -0.13116068 0.51364488
v -0.20584710 -0.13304583 0.51364488
v -0.20821886 -0.13384170 0.51364488
v -0.20434277 -0.12629962 0.51364488
v -0.21063963 -0.13333506 0.51364488
v -0.20616389 -0.12462622 0.51364488
v -0.21246077 -0.13166166 0.51364488
v -0.20858466 -0.12411958 0.51364488
v -0.21319430 -0.12926988 0.51364488
v -0.21095642 -0.12491545 0.51364488
v -0.21264367 -0.12680060 0.51364488
v -0.21273626 -0.12675301 0.53833006
v -0.21329890 -0.12927619 0.53833006
v -0.21329957 -0.12927400 0.53833006
v -0.21273730 -0.12675248 0.53833006
v -0.21101436 -0.12482746 0.53833006
v -0.21101219 -0.12482673 0.53833006
v -0.21446315 -0.12934646 0.53498014
v -0.21467697 -0.12935936 0.53252241
v -0.21467697 -0.12935936 0.51965878
v -0.21467697 -0.12935936 0.51965878
v -0.21414788 -0.12698666 0.52909883
v -0.21414788 -0.12698666 0.52909883
v -0.20550491 -0.13359036 0.51491087
v -0.20359165 -0.13145270 0.51491087
v -0.20296727 -0.12865266 0.51491087
v -0.20379906 -0.12594050 0.51491087
v -0.20819436 -0.13449284 0.51491087
v -0.20586413 -0.12404295 0.51491087
v -0.21093939 -0.13391834 0.51491087
v -0.20860917 -0.12346844 0.51491087
v -0.21300447 -0.13202078 0.51491087
v -0.21383625 -0.12930863 0.51491087
v -0.21383625 -0.12930863 0.51491087
v -0.21073028 -0.12418021 0.51491087
v -0.21073028 -0.12418021 0.51491087
v -0.21129862 -0.12437093 0.51491087
v -0.21129862 -0.12437093 0.51491087
v -0.21321187 -0.12650858 0.51491087
v -0.21321187 -0.12650858 0.51491087
v -0.21395600 -0.12612616 0.53201725
v -0.21395600 -0.12612616 0.53252241
v -0.21395600 -0.12612616 0.51965878
v -0.21174677 -0.12365780 0.51965878
v -0.21174677 -0.12365780 0.52158233
v -0.21335478 -0.12545441 0.53252241
v -0.21376674 -0.12622342 0.51720105
v -0.21446315 -0.12934646 0.51720105
v -0.21163279 -0.12383918 0.51720105
v -0.21055049 -0.12325637 0.51965878
v -0.21120038 -0.12347445 0.53252241
v -0.21068687 -0.12352176 0.51720105
v -0.18829769 -0.13656051 0.51364488
v -0.18884831 -0.13902979 0.51364488
v -0.19053555 -0.14091493 0.51364488
v -0.19290731 -0.14171081 0.51364488
v -0.18903122 -0.13416873 0.51364488
v -0.19532808 -0.14120417 0.51364488
v -0.19085234 -0.13249532 0.51364488
v -0.19714922 -0.13953076 0.51364488
v -0.19327312 -0.13198868 0.51364488
v -0.19788275 -0.13713899 0.51364488
v -0.19564487 -0.13278456 0.51364488
v -0.19733212 -0.13466970 0.51364488
v -0.19742471 -0.13462212 0.53833006
v -0.19798735 -0.13714530 0.53833006
v -0.19798802 -0.13714310 0.53833006
v -0.19742575 -0.13462158 0.53833006
v -0.19570281 -0.13269656 0.53833006
v -0.19570064 -0.13269583 0.53833006
v -0.19915160 -0.13721556 0.53498014
v -0.19936542 -0.13722846 0.53252241
v -0.19936542 -0.13722846 0.51965878
v -0.19936542 -0.13722846 0.51965878
v -0.19883633 -0.13485576 0.52909883
v -0.19883633 -0.13485576 0.52909883
v -0.19019336 -0.14145946 0.51491087
v -0.18828010 -0.13932180 0.51491087
v -0.18765572 -0.13652176 0.51491087
v -0.18848751 -0.13380961 0.51491087
v -0.19288281 -0.14236194 0.51491087
v -0.19055259 -0.13191205 0.51491087
v -0.19562784 -0.14178744 0.51491087
v -0.19329762 -0.13133755 0.51491087
v -0.19769293 -0.13988988 0.51491087
v -0.19852471 -0.13717773 0.51491087
v -0.19852471 -0.13717773 0.51491087
v -0.19541873 -0.13204931 0.51491087
v -0.19541873 -0.13204931 0.51491087
v -0.19598707 -0.13224004 0.51491087
v -0.19598707 -0.13224004 0.51491087
v -0.19790032 -0.13437769 0.51491087
v -0.19790032 -0.13437769 0.51491087
v -0.19864445 -0.13399526 0.53201725
v -0.19864445 -0.13399526 0.53252241
v -0.19864445 -0.13399526 0.51965878
v -0.19643523 -0.13152690 0.51965878
v -0.19643523 -0.13152690 0.52158233
v -0.19804324 -0.13332352 0.53252241
v -0.19845519 -0.13409252 0.51720105
v -0.19915160 -0.13721556 0.51720105
v -0.19632125 -0.13170828 0.51720105
v -0.19523895 -0.13112547 0.51965878
v -0.19588884 -0.13134356 0.53252241
v -0.19537532 -0.13139086 0.51720105
v -0.17411740 -0.14384816 0.51364488
v -0.17466802 -0.14631744 0.51364488
v -0.17635526 -0.14820258 0.51364488
v -0.17872702 -0.14899846 0.51364488
v -0.17485093 -0.14145638 0.51364488
v -0.18114780 -0.14849182 0.51364488
v -0.17667205 -0.13978297 0.51364488
v -0.18296893 -0.14681841 0.51364488
v -0.17909283 -0.13927633 0.51364488
v -0.18370247 -0.14442664 0.51364488
v -0.18146458 -0.14007221 0.51364488
v -0.18315183 -0.14195735 0.51364488
v -0.18324442 -0.14190977 0.53833006
v -0.18380706 -0.14443295 0.53833006
v -0.18380773 -0.14443076 0.53833006
v -0.18324546 -0.14190923 0.53833006
v -0.18152253 -0.13998421 0.53833006
v -0.18152035 -0.13998348 0.53833006
v -0.18497131 -0.14450321 0.53498014
v -0.18518513 -0.14451612 0.53252241
v -0.18518513 -0.14451612 0.51965878
v -0.18518513 -0.14451612 0.51965878
v -0.18465604 -0.14214341 0.52909883
v -0.18465604 -0.14214341 0.52909883
v -0.17601307 -0.14874711 0.51491087
v -0.17409982 -0.14660945 0.51491087
v -0.17347543 -0.14380942 0.51491087
v -0.17430722 -0.14109726 0.51491087
v -0.17870252 -0.14964959 0.51491087
v -0.17637230 -0.13919970 0.51491087
v -0.18144755 -0.14907510 0.51491087
v -0.17911733 -0.13862520 0.51491087
v -0.18351264 -0.14717753 0.51491087
v -0.18434442 -0.14446538 0.51491087
v -0.18434442 -0.14446538 0.51491087
v -0.18123844 -0.13933696 0.51491087
v -0.18123844 -0.13933696 0.51491087
v -0.18180678 -0.13952769 0.51491087
v -0.18180678 -0.13952769 0.51491087
v -0.18372003 -0.14166534 0.51491087
v -0.18372003 -0.14166534 0.51491087
v -0.18446416 -0.14128291 0.53201725
v -0.18446416 -0.14128291 0.53252241
v -0.18446416 -0.14128291 0.51965878
v -0.18225494 -0.13881455 0.51965878
v -0.18225494 -0.13881455 0.52158233
v -0.18386294 -0.14061117 0.53252241
v -0.18427490 -0.14138017 0.51720105
v -0.18497131 -0.14450321 0.51720105
v -0.18214096 -0.13899593 0.51720105
v -0.18105865 -0.13841312 0.51965878
v -0.18170855 -0.13863121 0.53252241
v -0.18119503 -0.13867851 0.51720105
v -0.15958165 -0.15131854 0.51364488
v -0.16013227 -0.15378782 0.51364488
v -0.16181952 -0.15567296 0.51364488
v -0.16419128 -0.15646884 0.51364488
v -0.16031518 -0.14892676 0.51364488
v -0.16661205 -0.15596220 0.51364488
v -0.16213631 -0.14725335 0.51364488
v -0.16843319 -0.15428879 0.51364488
v -0.16455708 -0.14674671 0.51364488
v -0.16916672 -0.15189702 0.51364488
v -0.16692884 -0.14754259 0.51364488
v -0.16861608 -0.14942773 0.51364488
v -0.16870867 -0.14938015 0.53833006
v -0.16927131 -0.15190332 0.53833006
v -0.16927199 -0.15190113 0.53833006
v -0.16870972 -0.14937961 0.53833006
v -0.16698678 -0.14745459 0.53833006
v -0.16698460 -0.14745386 0.53833006
v -0.17043557 -0.15197359 0.53498014
v -0.17064939 -0.15198649 0.53252241
v -0.17064939 -0.15198649 0.51965878
v -0.17064939 -0.15198649 0.51965878
v -0.17012029 -0.14961379 0.52909883
v -0.17012029 -0.14961379 0.52909883
v -0.16147732 -0.15621748 0.51491087
v -0.15956407 -0.15407983 0.51491087
v -0.15893968 -0.15127980 0.51491087
v -0.15977148 -0.14856764 0.51491087
v -0.16416677 -0.15711997 0.51491087
v -0.16183655 -0.14667008 0.51491087
v -0.16691181 -0.15654547 0.51491087
v -0.16458158 -0.14609557 0.51491087
v -0.16897689 -0.15464791 0.51491087
v -0.16980867 -0.15193576 0.51491087
v -0.16980867 -0.15193576 0.51491087
v -0.16670269 -0.14680734 0.51491087
v -0.16670269 -0.14680734 0.51491087
v -0.16727103 -0.14699806 0.51491087
v -0.16727103 -0.14699806 0.51491087
v -0.16918429 -0.14913572 0.51491087
v -0.16918429 -0.14913572 0.51491087
v -0.16992841 -0.14875329 0.53201725
v -0.16992841 -0.14875329 0.53252241
v -0.16992841 -0.14875329 0.51965878
v -0.16771919 -0.14628494 0.51965878
v -0.16771919 -0.14628494 0.52158233
v -0.16932720 -0.14808155 0.53252241
v -0.16973916 -0.14885055 0.51720105
v -0.17043557 -0.15197359 0.51720105
v -0.16760521 -0.14646631 0.51720105
v -0.16652291 -0.14588350 0.51965878
v -0.16717280 -0.14610158 0.53252241
v -0.16665929 -0.14614889 0.51720105
v -0.14532592 -0.15864496 0.51364488
v -0.14587655 -0.16111424 0.51364488
v -0.14756379 -0.16299938 0.51364488
v -0.14993556 -0.16379526 0.51364488
v -0.14605945 -0.15625318 0.51364488
v -0.15235633 -0.16328862 0.51364488
v -0.14788059 -0.15457977 0.51364488
v -0.15417746 -0.16161522 0.51364488
v -0.15030136 -0.15407313 0.51364488
v -0.15491100 -0.15922344 0.51364488
v -0.15267312 -0.15486901 0.51364488
v -0.15436036 -0.15675415 0.51364488
v -0.15445295 -0.15670658 0.53833006
v -0.15501560 -0.15922975 0.53833006
v -0.15501627 -0.15922754 0.53833006
v -0.15445399 -0.15670604 0.53833006
v -0.15273106 -0.15478101 0.53833006
v -0.15272888 -0.15478028 0.53833006
v -0.15617984 -0.15930002 0.53498014
v -0.15639366 -0.15931291 0.53252241
v -0.15639366 -0.15931291 0.51965878
v -0.15639366 -0.15931291 0.51965878
v -0.15586458 -0.15694022 0.52909883
v -0.15586458 -0.15694022 0.52909883
v -0.14722160 -0.16354391 0.51491087
v -0.14530835 -0.16140626 0.51491087
v -0.14468397 -0.15860621 0.51491087
v -0.14551576 -0.15589405 0.51491087
v -0.14991106 -0.16444640 0.51491087
v -0.14758083 -0.15399650 0.51491087
v -0.15265609 -0.16387189 0.51491087
v -0.15032586 -0.15342200 0.51491087
v -0.15472116 -0.16197434 0.51491087
v -0.15555295 -0.15926218 0.51491087
v -0.15555295 -0.15926218 0.51491087
v -0.15244697 -0.15413376 0.51491087
v -0.15244697 -0.15413376 0.51491087
v -0.15301532 -0.15432448 0.51491087
v -0.15301532 -0.15432448 0.51491087
v -0.15492857 -0.15646214 0.51491087
v -0.15492857 -0.15646214 0.51491087
v -0.15567269 -0.15607971 0.53201725
v -0.15567269 -0.15607971 0.53252241
v -0.15567269 -0.15607971 0.51965878
v -0.15346347 -0.15361135 0.51965878
v -0.15346347 -0.15361135 0.52158233
v -0.15507147 -0.15540797 0.53252241
v -0.15548343 -0.15617698 0.51720105
v -0.15617984 -0.15930002 0.51720105
v -0.15334949 -0.15379272 0.51720105
v -0.15226718 -0.15320992 0.51965878
v -0.15291707 -0.15342801 0.53252241
v -0.15240357 -0.15347531 0.51720105
v -0.25170628 -0.17754615 0.51364488
v -0.25338829 -0.17943596 0.51364488
v -0.25577937 -0.18026257 0.51364488
v -0.25823881 -0.17980451 0.51364488
v -0.25118399 -0.17509954 0.51364488
v -0.26010762 -0.17818453 0.51364488
v -0.25196142 -0.17275168 0.51364488
v -0.26088504 -0.17583667 0.51364488
v -0.25383022 -0.17113169 0.51364488
v -0.26036277 -0.17339005 0.51364488
v -0.25628967 -0.17067364 0.51364488
v -0.25868074 -0.17150025 0.51364488
v -0.25873852 -0.17141364 0.53833006
v -0.26045723 -0.17334470 0.53833006
v -0.26045676 -0.17334244 0.53833006
v -0.25873916 -0.17141268 0.53833006
v -0.25629750 -0.17056857 0.53833006
v -0.25629523 -0.17056899 0.53833006
v -0.26150870 -0.17283987 0.53498014
v -0.26170181 -0.17274716 0.53252241
v -0.26170181 -0.17274716 0.51965878
v -0.26170181 -0.17274716 0.51965878
v -0.26008557 -0.17093128 0.52909883
v -0.26008557 -0.17093128 0.52909883
v -0.25574520 -0.18090478 0.51491087
v -0.25303383 -0.17996745 0.51491087
v -0.25112650 -0.17782450 0.51491087
v -0.25053428 -0.17505017 0.51491087
v -0.25853408 -0.18038538 0.51491087
v -0.25141583 -0.17238782 0.51491087
v -0.26065321 -0.17854839 0.51491087
v -0.25353496 -0.17055083 0.51491087
v -0.26153477 -0.17588604 0.51491087
v -0.26094254 -0.17311169 0.51491087
v -0.26094254 -0.17311169 0.51491087
v -0.25573449 -0.17014118 0.51491087
v -0.25573449 -0.17014118 0.51491087
v -0.25632384 -0.17003141 0.51491087
v -0.25632384 -0.17003141 0.51491087
v -0.25903520 -0.17096877 0.51491087
v -0.25903520 -0.17096877 0.51491087
v -0.25949941 -0.17027271 0.53201725
v -0.25949941 -0.17027271 0.53252241
v -0.25949941 -0.17027271 0.51965878
v -0.25636861 -0.16919036 0.51965878
v -0.25636861 -0.16919036 0.52158233
v -0.25864740 -0.16997815 0.53252241
v -0.25938135 -0.17044973 0.51720105
v -0.26150870 -0.17283987 0.51720105
v -0.25635722 -0.16940427 0.51720105
v -0.25512810 -0.16942140 0.51965878
v -0.25580202 -0.16929589 0.53252241
v -0.25537634 -0.16958695 0.51720105
v -0.21934019 0.07156460 0.53826917
v -0.21434055 0.07173919 0.53826917
v -0.21686316 0.07230441 0.53826917
v -0.21933860 0.07156626 0.53826917
v -0.21686320 0.07230558 0.53826917
v -0.21434226 0.07174074 0.53826917
v -0.23330841 -0.20513264 0.51364488
v -0.23499043 -0.20702245 0.51364488
v -0.23738150 -0.20784907 0.51364488
v -0.23984094 -0.20739101 0.51364488
v -0.23278612 -0.20268603 0.51364488
v -0.24170975 -0.20577102 0.51364488
v -0.23356355 -0.20033818 0.51364488
v -0.24248718 -0.20342317 0.51364488
v -0.23543235 -0.19871818 0.51364488
v -0.24196491 -0.20097654 0.51364488
v -0.23789180 -0.19826014 0.51364488
v -0.24028287 -0.19908675 0.51364488
v -0.24034063 -0.19900014 0.53833006
v -0.24205937 -0.20093119 0.53833006
v -0.24205889 -0.20092894 0.53833006
v -0.24034129 -0.19899917 0.53833006
v -0.23789963 -0.19815507 0.53833006
v -0.23789738 -0.19815548 0.53833006
v -0.24311084 -0.20042637 0.53498014
v -0.24330394 -0.20033365 0.53252241
v -0.24330394 -0.20033365 0.51965878
v -0.24330394 -0.20033365 0.51965878
v -0.24168770 -0.19851778 0.52909883
v -0.24168770 -0.19851778 0.52909883
v -0.23734732 -0.20849128 0.51491087
v -0.23463596 -0.20755394 0.51491087
v -0.23272863 -0.20541100 0.51491087
v -0.23213640 -0.20263667 0.51491087
v -0.24013621 -0.20797187 0.51491087
v -0.23301796 -0.19997432 0.51491087
v -0.24225534 -0.20613488 0.51491087
v -0.23513709 -0.19813733 0.51491087
v -0.24313690 -0.20347254 0.51491087
v -0.24254467 -0.20069819 0.51491087
v -0.24254467 -0.20069819 0.51491087
v -0.23733662 -0.19772767 0.51491087
v -0.23733662 -0.19772767 0.51491087
v -0.23792597 -0.19761791 0.51491087
v -0.23792597 -0.19761791 0.51491087
v -0.24063734 -0.19855526 0.51491087
v -0.24063734 -0.19855526 0.51491087
v -0.24110154 -0.19785920 0.53201725
v -0.24110154 -0.19785920 0.53252241
v -0.24110154 -0.19785920 0.51965878
v -0.23797074 -0.19677685 0.51965878
v -0.23797074 -0.19677685 0.52158233
v -0.24024953 -0.19756465 0.53252241
v -0.24098349 -0.19803623 0.51720105
v -0.24311084 -0.20042637 0.51720105
v -0.23795935 -0.19699077 0.51720105
v -0.23673023 -0.19700789 0.51965878
v -0.23740415 -0.19688238 0.53252241
v -0.23697847 -0.19717345 0.51720105
v -0.40828540 -0.17959899 0.53781521
v -0.40380056 -0.18181554 0.53781521
v -0.40575368 -0.18012193 0.53781521
v -0.40828322 -0.17959828 0.53781521
v -0.40575316 -0.18012089 0.53781521
v -0.40380133 -0.18181338 0.53781521
v -0.39467859 -0.17052442 0.53781521
v -0.39019375 -0.17274097 0.53781521
v -0.39214687 -0.17104736 0.53781521
v -0.39467641 -0.17052371 0.53781521
v -0.39214635 -0.17104632 0.53781521
v -0.39019452 -0.17273880 0.53781521
v -0.28112313 -0.18818468 0.51449292
v -0.28360075 -0.18767291 0.51449292
v -0.28551216 -0.18601549 0.51449292
v -0.28634522 -0.18365652 0.51449292
v -0.27874317 -0.18741368 0.51449292
v -0.28587664 -0.18122809 0.51449292
v -0.27709858 -0.18556647 0.51449292
v -0.28423207 -0.17938089 0.51449292
v -0.27663001 -0.18313805 0.51449292
v -0.28185209 -0.17860989 0.51449292
v -0.27746305 -0.18077908 0.51449292
v -0.27937446 -0.17912165 0.51449292
v -0.27932834 -0.17902833 0.53917811
v -0.28186005 -0.17850538 0.53917811
v -0.28185787 -0.17850468 0.53917811
v -0.27932782 -0.17902729 0.53917811
v -0.27737598 -0.18071977 0.53917811
v -0.27737521 -0.18072193 0.53917811
v -0.28194859 -0.17734239 0.53582818
v -0.28196486 -0.17712879 0.53337046
v -0.28196486 -0.17712879 0.52050682
v -0.28196486 -0.17712879 0.52050682
v -0.27958413 -0.17762056 0.52994688
v -0.27958413 -0.17762056 0.52994688
v -0.28605124 -0.18636619 0.51575892
v -0.28388381 -0.18824562 0.51575892
v -0.28107431 -0.18882595 0.51575892
v -0.27837555 -0.18795166 0.51575892
v -0.28699588 -0.18369124 0.51575892
v -0.27651067 -0.18585705 0.51575892
v -0.28646456 -0.18093752 0.51575892
v -0.27597935 -0.18310332 0.51575892
v -0.28459968 -0.17884290 0.51575892
v -0.28190092 -0.17796861 0.51575892
v -0.28190092 -0.17796861 0.51575892
v -0.27672435 -0.18099366 0.51575892
v -0.27672435 -0.18099366 0.51575892
v -0.27692398 -0.18042837 0.51575892
v -0.27692398 -0.18042837 0.51575892
v -0.27909142 -0.17854894 0.51575892
v -0.27909142 -0.17854894 0.51575892
v -0.27872072 -0.17779890 0.53286530
v -0.27872072 -0.17779890 0.53337046
v -0.27872072 -0.17779890 0.52050682
v -0.27621797 -0.17996908 0.52050682
v -0.27621797 -0.17996908 0.52243038
v -0.27803961 -0.17838950 0.53337046
v -0.27881500 -0.17798966 0.51804910
v -0.28194859 -0.17734239 0.51804910
v -0.27639753 -0.18008590 0.51804910
v -0.27579779 -0.18115891 0.52050682
v -0.27602606 -0.18051253 0.53337046
v -0.27606529 -0.18102670 0.51804910
v -0.25045588 0.01427288 0.53826917
v -0.24545624 0.01444747 0.53826917
v -0.24797885 0.01501269 0.53826917
v -0.25045428 0.01427453 0.53826917
v -0.24797888 0.01501386 0.53826917
v -0.24545794 0.01444901 0.53826917
v -0.23502535 0.04329350 0.53826917
v -0.23002571 0.04346809 0.53826917
v -0.23254832 0.04403331 0.53826917
v -0.23502376 0.04329516 0.53826917
v -0.23254835 0.04403448 0.53826917
v -0.23002742 0.04346964 0.53826917
v -0.24277753 0.02871366 0.53826917
v -0.23777789 0.02888825 0.53826917
v -0.24030050 0.02945347 0.53826917
v -0.24277594 0.02871532 0.53826917
v -0.24030054 0.02945464 0.53826917
v -0.23777960 0.02888979 0.53826917
v -0.31611223 -0.18477191 0.51364488
v -0.31862626 -0.18505519 0.51364488
v -0.32095798 -0.18407362 0.51364488
v -0.32248269 -0.18209018 0.51364488
v -0.31408957 -0.18329965 0.51364488
v -0.32279179 -0.17963636 0.51364488
v -0.31310022 -0.18103293 0.51364488
v -0.32180244 -0.17736963 0.51364488
v -0.31340932 -0.17857910 0.51364488
v -0.31977978 -0.17589737 0.51364488
v -0.31493400 -0.17659567 0.51364488
v -0.31726575 -0.17561408 0.51364488
v -0.31725091 -0.17551105 0.53833006
v -0.31981979 -0.17580054 0.53833006
v -0.31981796 -0.17579917 0.53833006
v -0.31725076 -0.17550989 0.53833006
v -0.31486966 -0.17651223 0.53833006
v -0.31486828 -0.17651406 0.53833006
v -0.32026528 -0.17472259 0.53498014
v -0.32034709 -0.17452462 0.53252241
v -0.32034709 -0.17452462 0.51965878
v -0.32034709 -0.17452462 0.51965878
v -0.31793141 -0.17425240 0.52909883
v -0.31793141 -0.17425240 0.52909883
v -0.32136146 -0.18457446 0.51491087
v -0.31871736 -0.18568752 0.51491087
v -0.31586658 -0.18536627 0.51491087
v -0.31357300 -0.18369681 0.51491087
v -0.32309036 -0.18232534 0.51491087
v -0.31245116 -0.18112647 0.51491087
v -0.32344085 -0.17954282 0.51491087
v -0.31280165 -0.17834395 0.51491087
v -0.32231901 -0.17697247 0.51491087
v -0.32002543 -0.17530301 0.51491087
v -0.32002543 -0.17530301 0.51491087
v -0.31416519 -0.17657013 0.51491087
v -0.31416519 -0.17657013 0.51491087
v -0.31453055 -0.17609483 0.51491087
v -0.31453055 -0.17609483 0.51491087
v -0.31717465 -0.17498178 0.51491087
v -0.31717465 -0.17498178 0.51491087
v -0.31705530 -0.17415368 0.53201725
v -0.31705530 -0.17415368 0.53252241
v -0.31705530 -0.17415368 0.51965878
v -0.31400218 -0.17543893 0.51965878
v -0.31400218 -0.17543893 0.52158233
v -0.31622443 -0.17450345 0.53252241
v -0.31708566 -0.17436429 0.51720105
v -0.32026528 -0.17472259 0.51720105
v -0.31413658 -0.17560574 0.51720105
v -0.31323315 -0.17643934 0.51965878
v -0.31365095 -0.17589587 0.53252241
v -0.31352848 -0.17639678 0.51720105
v -0.31856763 -0.20181126 0.51364488
v -0.32108165 -0.20209455 0.51364488
v -0.32341338 -0.20111298 0.51364488
v -0.32493809 -0.19912954 0.51364488
v -0.31654496 -0.20033901 0.51364488
v -0.32524718 -0.19667571 0.51364488
v -0.31555562 -0.19807229 0.51364488
v -0.32425783 -0.19440899 0.51364488
v -0.31586471 -0.19561846 0.51364488
v -0.32223517 -0.19293675 0.51364488
v -0.31738939 -0.19363503 0.51364488
v -0.31972115 -0.19265344 0.51364488
v -0.31970631 -0.19255041 0.53833006
v -0.32227519 -0.19283988 0.53833006
v -0.32227335 -0.19283853 0.53833006
v -0.31970615 -0.19254925 0.53833006
v -0.31732506 -0.19355159 0.53833006
v -0.31732368 -0.19355342 0.53833006
v -0.32272067 -0.19176195 0.53498014
v -0.32280249 -0.19156398 0.53252241
v -0.32280249 -0.19156398 0.51965878
v -0.32280249 -0.19156398 0.51965878
v -0.32038680 -0.19129176 0.52909883
v -0.32038680 -0.19129176 0.52909883
v -0.32381686 -0.20161382 0.51491087
v -0.32117275 -0.20272688 0.51491087
v -0.31832198 -0.20240563 0.51491087
v -0.31602840 -0.20073617 0.51491087
v -0.32554575 -0.19936470 0.51491087
v -0.31490655 -0.19816583 0.51491087
v -0.32589624 -0.19658218 0.51491087
v -0.31525704 -0.19538331 0.51491087
v -0.32477440 -0.19401183 0.51491087
v -0.32248082 -0.19234237 0.51491087
v -0.32248082 -0.19234237 0.51491087
v -0.31662058 -0.19360949 0.51491087
v -0.31662058 -0.19360949 0.51491087
v -0.31698594 -0.19313419 0.51491087
v -0.31698594 -0.19313419 0.51491087
v -0.31963005 -0.19202113 0.51491087
v -0.31963005 -0.19202113 0.51491087
v -0.31951070 -0.19119304 0.53201725
v -0.31951070 -0.19119304 0.53252241
v -0.31951070 -0.19119304 0.51965878
v -0.31645757 -0.19247829 0.51965878
v -0.31645757 -0.19247829 0.52158233
v -0.31867983 -0.19154281 0.53252241
v -0.31954106 -0.19140365 0.51720105
v -0.32272067 -0.19176195 0.51720105
v -0.31659197 -0.19264510 0.51720105
v -0.31568855 -0.19347871 0.51965878
v -0.31610635 -0.19293522 0.53252241
v -0.31598387 -0.19343614 0.51720105
v -0.32084155 -0.21759156 0.51364488
v -0.32335557 -0.21787485 0.51364488
v -0.32568730 -0.21689328 0.51364488
v -0.32721201 -0.21490983 0.51364488
v -0.31881889 -0.21611930 0.51364488
v -0.32752110 -0.21245602 0.51364488
v -0.31782954 -0.21385258 0.51364488
v -0.32653176 -0.21018929 0.51364488
v -0.31813864 -0.21139875 0.51364488
v -0.32450910 -0.20871703 0.51364488
v -0.31966331 -0.20941532 0.51364488
v -0.32199507 -0.20843374 0.51364488
v -0.32198023 -0.20833070 0.53833006
v -0.32454911 -0.20862019 0.53833006
v -0.32454727 -0.20861882 0.53833006
v -0.32198008 -0.20832954 0.53833006
v -0.31959898 -0.20933189 0.53833006
v -0.31959760 -0.20933371 0.53833006
v -0.32499460 -0.20754224 0.53498014
v -0.32507641 -0.20734427 0.53252241
v -0.32507641 -0.20734427 0.51965878
v -0.32507641 -0.20734427 0.51965878
v -0.32266073 -0.20707205 0.52909883
v -0.32266073 -0.20707205 0.52909883
v -0.32609078 -0.21739411 0.51491087
v -0.32344668 -0.21850717 0.51491087
v -0.32059590 -0.21818592 0.51491087
v -0.31830232 -0.21651646 0.51491087
v -0.32781968 -0.21514500 0.51491087
v -0.31718048 -0.21394612 0.51491087
v -0.32817017 -0.21236248 0.51491087
v -0.31753097 -0.21116361 0.51491087
v -0.32704833 -0.20979212 0.51491087
v -0.32475474 -0.20812266 0.51491087
v -0.32475474 -0.20812266 0.51491087
v -0.31889451 -0.20938978 0.51491087
v -0.31889451 -0.20938978 0.51491087
v -0.31925987 -0.20891449 0.51491087
v -0.31925987 -0.20891449 0.51491087
v -0.32190397 -0.20780143 0.51491087
v -0.32190397 -0.20780143 0.51491087
v -0.32178463 -0.20697333 0.53201725
v -0.32178463 -0.20697333 0.53252241
v -0.32178463 -0.20697333 0.51965878
v -0.31873150 -0.20825858 0.51965878
v -0.31873150 -0.20825858 0.52158233
v -0.32095375 -0.20732310 0.53252241
v -0.32181498 -0.20718394 0.51720105
v -0.32499460 -0.20754224 0.51720105
v -0.31886589 -0.20842540 0.51720105
v -0.31796247 -0.20925900 0.51965878
v -0.31838027 -0.20871552 0.53252241
v -0.31825780 -0.20921644 0.51720105
v -0.32317257 -0.23376753 0.51364488
v -0.32568660 -0.23405082 0.51364488
v -0.32801832 -0.23306924 0.51364488
v -0.32954303 -0.23108580 0.51364488
v -0.32114991 -0.23229527 0.51364488
v -0.32985212 -0.22863198 0.51364488
v -0.32016056 -0.23002855 0.51364488
v -0.32886278 -0.22636525 0.51364488
v -0.32046966 -0.22757472 0.51364488
v -0.32684012 -0.22489300 0.51364488
v -0.32199434 -0.22559129 0.51364488
v -0.32432609 -0.22460970 0.51364488
v -0.32431125 -0.22450667 0.53833006
v -0.32688013 -0.22479616 0.53833006
v -0.32687829 -0.22479479 0.53833006
v -0.32431110 -0.22450551 0.53833006
v -0.32193000 -0.22550785 0.53833006
v -0.32192862 -0.22550968 0.53833006
v -0.32732562 -0.22371821 0.53498014
v -0.32740743 -0.22352024 0.53252241
v -0.32740743 -0.22352024 0.51965878
v -0.32740743 -0.22352024 0.51965878
v -0.32499175 -0.22324802 0.52909883
v -0.32499175 -0.22324802 0.52909883
v -0.32842180 -0.23357008 0.51491087
v -0.32577770 -0.23468314 0.51491087
v -0.32292692 -0.23436189 0.51491087
v -0.32063334 -0.23269243 0.51491087
v -0.33015070 -0.23132096 0.51491087
v -0.31951150 -0.23012209 0.51491087
v -0.33050119 -0.22853844 0.51491087
v -0.31986199 -0.22733957 0.51491087
v -0.32937935 -0.22596809 0.51491087
v -0.32708576 -0.22429863 0.51491087
v -0.32708576 -0.22429863 0.51491087
v -0.32122553 -0.22556575 0.51491087
v -0.32122553 -0.22556575 0.51491087
v -0.32159089 -0.22509045 0.51491087
v -0.32159089 -0.22509045 0.51491087
v -0.32423499 -0.22397740 0.51491087
v -0.32423499 -0.22397740 0.51491087
v -0.32411565 -0.22314930 0.53201725
v -0.32411565 -0.22314930 0.53252241
v -0.32411565 -0.22314930 0.51965878
v -0.32106252 -0.22443455 0.51965878
v -0.32106252 -0.22443455 0.52158233
v -0.32328477 -0.22349907 0.53252241
v -0.32414600 -0.22335991 0.51720105
v -0.32732562 -0.22371821 0.51720105
v -0.32119692 -0.22460136 0.51720105
v -0.32029349 -0.22543497 0.51965878
v -0.32071129 -0.22489149 0.53252241
v -0.32058882 -0.22539240 0.51720105
v -0.32545864 -0.24963176 0.51364488
v -0.32797266 -0.24991505 0.51364488
v -0.33030439 -0.24893348 0.51364488
v -0.33182910 -0.24695004 0.51364488
v -0.32343598 -0.24815950 0.51364488
v -0.33213819 -0.24449622 0.51364488
v -0.32244663 -0.24589279 0.51364488
v -0.33114885 -0.24222949 0.51364488
v -0.32275572 -0.24343896 0.51364488
v -0.32912618 -0.24075723 0.51364488
v -0.32428040 -0.24145553 0.51364488
v -0.32661216 -0.24047394 0.51364488
v -0.32659732 -0.24037091 0.53833006
v -0.32916620 -0.24066039 0.53833006
v -0.32916436 -0.24065903 0.53833006
v -0.32659717 -0.24036974 0.53833006
v -0.32421607 -0.24137209 0.53833006
v -0.32421469 -0.24137392 0.53833006
v -0.32961169 -0.23958245 0.53498014
v -0.32969350 -0.23938448 0.53252241
v -0.32969350 -0.23938448 0.51965878
v -0.32969350 -0.23938448 0.51965878
v -0.32727781 -0.23911226 0.52909883
v -0.32727781 -0.23911226 0.52909883
v -0.33070787 -0.24943432 0.51491087
v -0.32806376 -0.25054738 0.51491087
v -0.32521299 -0.25022613 0.51491087
v -0.32291941 -0.24855667 0.51491087
v -0.33243677 -0.24718520 0.51491087
v -0.32179757 -0.24598633 0.51491087
v -0.33278726 -0.24440268 0.51491087
v -0.32214806 -0.24320381 0.51491087
v -0.33166541 -0.24183233 0.51491087
v -0.32937183 -0.24016287 0.51491087
v -0.32937183 -0.24016287 0.51491087
v -0.32351159 -0.24142998 0.51491087
v -0.32351159 -0.24142998 0.51491087
v -0.32387695 -0.24095469 0.51491087
v -0.32387695 -0.24095469 0.51491087
v -0.32652106 -0.23984163 0.51491087
v -0.32652106 -0.23984163 0.51491087
v -0.32640171 -0.23901353 0.53201725
v -0.32640171 -0.23901353 0.53252241
v -0.32640171 -0.23901353 0.51965878
v -0.32334858 -0.24029879 0.51965878
v -0.32334858 -0.24029879 0.52158233
v -0.32557084 -0.23936331 0.53252241
v -0.32643207 -0.23922415 0.51720105
v -0.32961169 -0.23958245 0.51720105
v -0.32348299 -0.24046560 0.51720105
v -0.32257956 -0.24129920 0.51965878
v -0.32299736 -0.24075573 0.53252241
v -0.32287488 -0.24125664 0.51720105
v -0.36787676 -0.16199732 0.51313003
v -0.37035438 -0.16148555 0.51313003
v -0.37226580 -0.15982813 0.51313003
v -0.37309882 -0.15746916 0.51313003
v -0.36549680 -0.16122632 0.51313003
v -0.37263027 -0.15504073 0.51313003
v -0.36385219 -0.15937912 0.51313003
v -0.37098570 -0.15319353 0.51313003
v -0.36338364 -0.15695069 0.51313003
v -0.36860573 -0.15242253 0.51313003
v -0.36421669 -0.15459173 0.51313003
v -0.36612811 -0.15293430 0.51313003
v -0.36608196 -0.15284098 0.53781521
v -0.36861368 -0.15231803 0.53781521
v -0.36861150 -0.15231732 0.53781521
v -0.36608147 -0.15283993 0.53781521
v -0.36412961 -0.15453241 0.53781521
v -0.36412884 -0.15453458 0.53781521
v -0.36870224 -0.15115503 0.53446529
v -0.36871848 -0.15094144 0.53200756
v -0.36871848 -0.15094144 0.51914393
v -0.36871848 -0.15094144 0.51914393
v -0.36633776 -0.15143320 0.52858398
v -0.36633776 -0.15143320 0.52858398
v -0.37280487 -0.16017884 0.51439603
v -0.37063744 -0.16205827 0.51439603
v -0.36782794 -0.16263860 0.51439603
v -0.36512917 -0.16176431 0.51439603
v -0.37374951 -0.15750389 0.51439603
v -0.36326430 -0.15966969 0.51439603
v -0.37321819 -0.15475017 0.51439603
v -0.36273299 -0.15691596 0.51439603
v -0.37135330 -0.15265554 0.51439603
v -0.36865455 -0.15178126 0.51439603
v -0.36865455 -0.15178126 0.51439603
v -0.36347797 -0.15480630 0.51439603
v -0.36347797 -0.15480630 0.51439603
v -0.36367759 -0.15424102 0.51439603
v -0.36367759 -0.15424102 0.51439603
v -0.36584505 -0.15236159 0.51439603
v -0.36584505 -0.15236159 0.51439603
v -0.36547435 -0.15161154 0.53150240
v -0.36547435 -0.15161154 0.53200756
v -0.36547435 -0.15161154 0.51914393
v -0.36297161 -0.15378173 0.51914393
v -0.36297161 -0.15378173 0.52106749
v -0.36479324 -0.15220214 0.53200756
v -0.36556864 -0.15180230 0.51668620
v -0.36870224 -0.15115503 0.51668620
v -0.36315115 -0.15389854 0.51668620
v -0.36255142 -0.15497156 0.51914393
v -0.36277969 -0.15432517 0.53200756
v -0.36281894 -0.15483936 0.51668620
v -0.38094081 -0.16136245 0.53781521
v -0.37645598 -0.16357901 0.53781521
v -0.37840910 -0.16188540 0.53781521
v -0.38093864 -0.16136175 0.53781521
v -0.37840861 -0.16188435 0.53781521
v -0.37645675 -0.16357684 0.53781521
v -0.19245249 -0.09220392 0.51364488
v -0.19230556 -0.09472958 0.51364488
v -0.19341179 -0.09700483 0.51364488
v -0.19547478 -0.09842003 0.51364488
v -0.19381319 -0.09010461 0.51364488
v -0.19794173 -0.09859597 0.51364488
v -0.19602310 -0.08899414 0.51364488
v -0.20015164 -0.09748550 0.51364488
v -0.19849006 -0.08917008 0.51364488
v -0.20151235 -0.09538619 0.51364488
v -0.20055304 -0.09058527 0.51364488
v -0.20165928 -0.09286052 0.51364488
v -0.20176136 -0.09284013 0.53833006
v -0.20161123 -0.09542092 0.53833006
v -0.20161247 -0.09541899 0.53833006
v -0.20176251 -0.09283990 0.53833006
v -0.20063286 -0.09051651 0.53833006
v -0.20063098 -0.09051521 0.53833006
v -0.20271168 -0.09580745 0.53498014
v -0.20291379 -0.09587844 0.53252241
v -0.20291379 -0.09587844 0.51965878
v -0.20291379 -0.09587844 0.51965878
v -0.20305497 -0.09345157 0.52909883
v -0.20305497 -0.09345157 0.52909883
v -0.19293351 -0.09743478 0.51491087
v -0.19167909 -0.09485476 0.51491087
v -0.19184570 -0.09199079 0.51491087
v -0.19338868 -0.08961027 0.51491087
v -0.19527283 -0.09903955 0.51491087
v -0.19589460 -0.08835106 0.51491087
v -0.19807023 -0.09923905 0.51491087
v -0.19869199 -0.08855057 0.51491087
v -0.20057616 -0.09797983 0.51491087
v -0.20211913 -0.09559932 0.51491087
v -0.20211913 -0.09559932 0.51491087
v -0.20053696 -0.08981620 0.51491087
v -0.20053696 -0.08981620 0.51491087
v -0.20103133 -0.09015533 0.51491087
v -0.20103133 -0.09015533 0.51491087
v -0.20228575 -0.09273535 0.51491087
v -0.20228575 -0.09273535 0.51491087
v -0.20310616 -0.09257141 0.53201725
v -0.20310616 -0.09257141 0.53252241
v -0.20310616 -0.09257141 0.51965878
v -0.20165768 -0.08959226 0.51965878
v -0.20165768 -0.08959226 0.52158233
v -0.20271198 -0.09176066 0.53252241
v -0.20289751 -0.09261310 0.51720105
v -0.20271168 -0.09580745 0.51720105
v -0.20149838 -0.08973547 0.51720105
v -0.20061715 -0.08887845 0.51965878
v -0.20118244 -0.08926623 0.53252241
v -0.20067562 -0.08917105 0.51720105
v -0.17557088 -0.09557719 0.51364488
v -0.17542395 -0.09810284 0.51364488
v -0.17653019 -0.10037809 0.51364488
v -0.17859317 -0.10179330 0.51364488
v -0.17693158 -0.09347787 0.51364488
v -0.18106013 -0.10196923 0.51364488
v -0.17914149 -0.09236740 0.51364488
v -0.18327003 -0.10085876 0.51364488
v -0.18160845 -0.09254334 0.51364488
v -0.18463074 -0.09875945 0.51364488
v -0.18367143 -0.09395854 0.51364488
v -0.18477767 -0.09623379 0.51364488
v -0.18487975 -0.09621339 0.53833006
v -0.18472962 -0.09879418 0.53833006
v -0.18473086 -0.09879225 0.53833006
v -0.18488090 -0.09621316 0.53833006
v -0.18375125 -0.09388977 0.53833006
v -0.18374936 -0.09388848 0.53833006
v -0.18583008 -0.09918071 0.53498014
v -0.18603218 -0.09925170 0.53252241
v -0.18603218 -0.09925170 0.51965878
v -0.18603218 -0.09925170 0.51965878
v -0.18617336 -0.09682483 0.52909883
v -0.18617336 -0.09682483 0.52909883
v -0.17605190 -0.10080805 0.51491087
v -0.17479748 -0.09822802 0.51491087
v -0.17496410 -0.09536405 0.51491087
v -0.17650706 -0.09298353 0.51491087
v -0.17839122 -0.10241281 0.51491087
v -0.17901300 -0.09172433 0.51491087
v -0.18118863 -0.10261231 0.51491087
v -0.18181038 -0.09192383 0.51491087
v -0.18369455 -0.10135310 0.51491087
v -0.18523752 -0.09897258 0.51491087
v -0.18523752 -0.09897258 0.51491087
v -0.18365535 -0.09318946 0.51491087
v -0.18365535 -0.09318946 0.51491087
v -0.18414971 -0.09352859 0.51491087
v -0.18414971 -0.09352859 0.51491087
v -0.18540414 -0.09610861 0.51491087
v -0.18540414 -0.09610861 0.51491087
v -0.18622455 -0.09594467 0.53201725
v -0.18622455 -0.09594467 0.53252241
v -0.18622455 -0.09594467 0.51965878
v -0.18477608 -0.09296552 0.51965878
v -0.18477608 -0.09296552 0.52158233
v -0.18583037 -0.09513392 0.53252241
v -0.18601590 -0.09598636 0.51720105
v -0.18583008 -0.09918071 0.51720105
v -0.18461677 -0.09310873 0.51720105
v -0.18373554 -0.09225171 0.51965878
v -0.18430083 -0.09263950 0.53252241
v -0.18379401 -0.09254431 0.51720105
v -0.15993662 -0.09870121 0.51364488
v -0.15978969 -0.10122687 0.51364488
v -0.16089593 -0.10350212 0.51364488
v -0.16295892 -0.10491732 0.51364488
v -0.16129732 -0.09660189 0.51364488
v -0.16542587 -0.10509325 0.51364488
v -0.16350724 -0.09549143 0.51364488
v -0.16763577 -0.10398279 0.51364488
v -0.16597419 -0.09566737 0.51364488
v -0.16899649 -0.10188347 0.51364488
v -0.16803718 -0.09708256 0.51364488
v -0.16914341 -0.09935781 0.51364488
v -0.16924549 -0.09933741 0.53833006
v -0.16909536 -0.10191820 0.53833006
v -0.16909661 -0.10191627 0.53833006
v -0.16924664 -0.09933718 0.53833006
v -0.16811699 -0.09701379 0.53833006
v -0.16811511 -0.09701250 0.53833006
v -0.17019582 -0.10230473 0.53498014
v -0.17039792 -0.10237572 0.53252241
v -0.17039792 -0.10237572 0.51965878
v -0.17039792 -0.10237572 0.51965878
v -0.17053910 -0.09994885 0.52909883
v -0.17053910 -0.09994885 0.52909883
v -0.16041765 -0.10393207 0.51491087
v -0.15916323 -0.10135205 0.51491087
v -0.15932984 -0.09848808 0.51491087
v -0.16087281 -0.09610756 0.51491087
v -0.16275696 -0.10553683 0.51491087
v -0.16337874 -0.09484834 0.51491087
v -0.16555437 -0.10573633 0.51491087
v -0.16617613 -0.09504785 0.51491087
v -0.16806030 -0.10447712 0.51491087
v -0.16960327 -0.10209660 0.51491087
v -0.16960327 -0.10209660 0.51491087
v -0.16802109 -0.09631348 0.51491087
v -0.16802109 -0.09631348 0.51491087
v -0.16851546 -0.09665261 0.51491087
v -0.16851546 -0.09665261 0.51491087
v -0.16976988 -0.09923263 0.51491087
v -0.16976988 -0.09923263 0.51491087
v -0.17059030 -0.09906870 0.53201725
v -0.17059030 -0.09906870 0.53252241
v -0.17059030 -0.09906870 0.51965878
v -0.16914182 -0.09608954 0.51965878
v -0.16914182 -0.09608954 0.52158233
v -0.17019611 -0.09825794 0.53252241
v -0.17038164 -0.09911039 0.51720105
v -0.17019582 -0.10230473 0.51720105
v -0.16898252 -0.09623275 0.51720105
v -0.16810128 -0.09537574 0.51965878
v -0.16866657 -0.09576352 0.53252241
v -0.16815975 -0.09566833 0.51720105
v -0.14391035 -0.10190358 0.51364488
v -0.14376343 -0.10442924 0.51364488
v -0.14486967 -0.10670449 0.51364488
v -0.14693265 -0.10811969 0.51364488
v -0.14527106 -0.09980426 0.51364488
v -0.14939960 -0.10829563 0.51364488
v -0.14748097 -0.09869380 0.51364488
v -0.15160951 -0.10718516 0.51364488
v -0.14994792 -0.09886974 0.51364488
v -0.15297022 -0.10508584 0.51364488
v -0.15201091 -0.10028493 0.51364488
v -0.15311715 -0.10256018 0.51364488
v -0.15321923 -0.10253978 0.53833006
v -0.15306910 -0.10512058 0.53833006
v -0.15307035 -0.10511864 0.53833006
v -0.15322038 -0.10253955 0.53833006
v -0.15209074 -0.10021617 0.53833006
v -0.15208884 -0.10021487 0.53833006
v -0.15416955 -0.10550711 0.53498014
v -0.15437166 -0.10557809 0.53252241
v -0.15437166 -0.10557809 0.51965878
v -0.15437166 -0.10557809 0.51965878
v -0.15451284 -0.10315122 0.52909883
v -0.15451284 -0.10315122 0.52909883
v -0.14439138 -0.10713444 0.51491087
v -0.14313697 -0.10455442 0.51491087
v -0.14330357 -0.10169045 0.51491087
v -0.14484655 -0.09930993 0.51491087
v -0.14673071 -0.10873920 0.51491087
v -0.14735247 -0.09805072 0.51491087
v -0.14952810 -0.10893870 0.51491087
v -0.15014987 -0.09825022 0.51491087
v -0.15203402 -0.10767949 0.51491087
v -0.15357701 -0.10529897 0.51491087
v -0.15357701 -0.10529897 0.51491087
v -0.15199483 -0.09951585 0.51491087
v -0.15199483 -0.09951585 0.51491087
v -0.15248919 -0.09985498 0.51491087
v -0.15248919 -0.09985498 0.51491087
v -0.15374361 -0.10243500 0.51491087
v -0.15374361 -0.10243500 0.51491087
v -0.15456403 -0.10227107 0.53201725
v -0.15456403 -0.10227107 0.53252241
v -0.15456403 -0.10227107 0.51965878
v -0.15311556 -0.09929191 0.51965878
v -0.15311556 -0.09929191 0.52158233
v -0.15416985 -0.10146031 0.53252241
v -0.15435537 -0.10231276 0.51720105
v -0.15416955 -0.10550711 0.51720105
v -0.15295625 -0.09943512 0.51720105
v -0.15207501 -0.09857811 0.51965878
v -0.15264030 -0.09896589 0.53252241
v -0.15213348 -0.09887070 0.51720105
v -0.12819299 -0.10504422 0.51364488
v -0.12804607 -0.10756988 0.51364488
v -0.12915231 -0.10984513 0.51364488
v -0.13121530 -0.11126033 0.51364488
v -0.12955371 -0.10294491 0.51364488
v -0.13368225 -0.11143627 0.51364488
v -0.13176362 -0.10183444 0.51364488
v -0.13589215 -0.11032580 0.51364488
v -0.13423057 -0.10201038 0.51364488
v -0.13725286 -0.10822649 0.51364488
v -0.13629356 -0.10342557 0.51364488
v -0.13739979 -0.10570082 0.51364488
v -0.13750187 -0.10568042 0.53833006
v -0.13735174 -0.10826122 0.53833006
v -0.13735299 -0.10825929 0.53833006
v -0.13750302 -0.10568019 0.53833006
v -0.13637338 -0.10335681 0.53833006
v -0.13637149 -0.10335551 0.53833006
v -0.13845220 -0.10864775 0.53498014
v -0.13865431 -0.10871874 0.53252241
v -0.13865431 -0.10871874 0.51965878
v -0.13865431 -0.10871874 0.51965878
v -0.13879548 -0.10629187 0.52909883
v -0.13879548 -0.10629187 0.52909883
v -0.12867403 -0.11027508 0.51491087
v -0.12741961 -0.10769506 0.51491087
v -0.12758621 -0.10483109 0.51491087
v -0.12912920 -0.10245057 0.51491087
v -0.13101335 -0.11187985 0.51491087
v -0.13163512 -0.10119136 0.51491087
v -0.13381075 -0.11207935 0.51491087
v -0.13443252 -0.10139087 0.51491087
v -0.13631667 -0.11082014 0.51491087
v -0.13785965 -0.10843962 0.51491087
v -0.13785965 -0.10843962 0.51491087
v -0.13627748 -0.10265650 0.51491087
v -0.13627748 -0.10265650 0.51491087
v -0.13677184 -0.10299563 0.51491087
v -0.13677184 -0.10299563 0.51491087
v -0.13802625 -0.10557565 0.51491087
v -0.13802625 -0.10557565 0.51491087
v -0.13884667 -0.10541171 0.53201725
v -0.13884667 -0.10541171 0.53252241
v -0.13884667 -0.10541171 0.51965878
v -0.13739820 -0.10243256 0.51965878
v -0.13739820 -0.10243256 0.52158233
v -0.13845249 -0.10460096 0.53252241
v -0.13863801 -0.10545341 0.51720105
v -0.13845220 -0.10864775 0.51720105
v -0.13723890 -0.10257576 0.51720105
v -0.13635766 -0.10171875 0.51965878
v -0.13692294 -0.10210654 0.53252241
v -0.13641613 -0.10201135 0.51720105
v -0.22701847 0.05712382 0.53826917
v -0.22201884 0.05729842 0.53826917
v -0.22454145 0.05786363 0.53826917
v -0.22701688 0.05712548 0.53826917
v -0.22454148 0.05786480 0.53826917
v -0.22202054 0.05729996 0.53826917
v -0.34663450 -0.17657402 0.51364488
v -0.34906558 -0.17587367 0.51364488
v -0.35084419 -0.17407450 0.51364488
v -0.35149381 -0.17165857 0.51364488
v -0.34420241 -0.17598788 0.51364488
v -0.35084033 -0.16927325 0.51364488
v -0.34242096 -0.17427230 0.51364488
v -0.34905887 -0.16755767 0.51364488
v -0.34176747 -0.17188697 0.51364488
v -0.34662678 -0.16697152 0.51364488
v -0.34241709 -0.16947104 0.51364488
v -0.34419570 -0.16767186 0.51364488
v -0.34414256 -0.16758235 0.53833006
v -0.34662668 -0.16686673 0.53833006
v -0.34662445 -0.16686619 0.53833006
v -0.34414195 -0.16758135 0.53833006
v -0.34232571 -0.16941859 0.53833006
v -0.34232510 -0.16942082 0.53833006
v -0.34662573 -0.16570036 0.53498014
v -0.34662555 -0.16548616 0.53252241
v -0.34662555 -0.16548616 0.51965878
v -0.34662555 -0.16548616 0.51965878
v -0.34428959 -0.16615909 0.52909883
v -0.34428959 -0.16615909 0.52909883
v -0.35140859 -0.17438281 0.51491087
v -0.34939172 -0.17642298 0.51491087
v -0.34663502 -0.17721715 0.51491087
v -0.34387716 -0.17655249 0.51491087
v -0.35214520 -0.17164327 0.51491087
v -0.34185708 -0.17460710 0.51491087
v -0.35140421 -0.16893844 0.51491087
v -0.34111605 -0.17190227 0.51491087
v -0.34938412 -0.16699305 0.51491087
v -0.34662625 -0.16632839 0.51491087
v -0.34662625 -0.16632839 0.51491087
v -0.34169701 -0.16974167 0.51491087
v -0.34169701 -0.16974167 0.51491087
v -0.34185269 -0.16916273 0.51491087
v -0.34185269 -0.16916273 0.51491087
v -0.34386956 -0.16712256 0.51491087
v -0.34386956 -0.16712256 0.51491087
v -0.34344240 -0.16640317 0.53201725
v -0.34344240 -0.16640317 0.53252241
v -0.34344240 -0.16640317 0.51965878
v -0.34111353 -0.16875896 0.51965878
v -0.34111353 -0.16875896 0.52158233
v -0.34280861 -0.16704427 0.53252241
v -0.34355105 -0.16658612 0.51720105
v -0.34662573 -0.16570036 0.51720105
v -0.34130150 -0.16886166 0.51720105
v -0.34078589 -0.16997752 0.51965878
v -0.34096386 -0.16931553 0.53252241
v -0.34104242 -0.16982518 0.51720105
v -0.35542368 -0.19137670 0.51364488
v -0.35785476 -0.19067635 0.51364488
v -0.35963337 -0.18887718 0.51364488
v -0.36028299 -0.18646125 0.51364488
v -0.35299159 -0.19079055 0.51364488
v -0.35962950 -0.18407592 0.51364488
v -0.35121013 -0.18907498 0.51364488
v -0.35784805 -0.18236035 0.51364488
v -0.35055665 -0.18668965 0.51364488
v -0.35541596 -0.18177420 0.51364488
v -0.35120627 -0.18427372 0.51364488
v -0.35298488 -0.18247454 0.51364488
v -0.35293174 -0.18238503 0.53833006
v -0.35541587 -0.18166941 0.53833006
v -0.35541363 -0.18166887 0.53833006
v -0.35293112 -0.18238403 0.53833006
v -0.35111489 -0.18422127 0.53833006
v -0.35111428 -0.18422349 0.53833006
v -0.35541491 -0.18050304 0.53498014
v -0.35541473 -0.18028883 0.53252241
v -0.35541473 -0.18028883 0.51965878
v -0.35541473 -0.18028883 0.51965878
v -0.35307877 -0.18096177 0.52909883
v -0.35307877 -0.18096177 0.52909883
v -0.36019777 -0.18918549 0.51491087
v -0.35818091 -0.19122566 0.51491087
v -0.35542421 -0.19201983 0.51491087
v -0.35266634 -0.19135517 0.51491087
v -0.36093438 -0.18644595 0.51491087
v -0.35064625 -0.18940978 0.51491087
v -0.36019338 -0.18374112 0.51491087
v -0.34990522 -0.18670495 0.51491087
v -0.35817330 -0.18179573 0.51491087
v -0.35541544 -0.18113107 0.51491087
v -0.35541544 -0.18113107 0.51491087
v -0.35048619 -0.18454435 0.51491087
v -0.35048619 -0.18454435 0.51491087
v -0.35064187 -0.18396541 0.51491087
v -0.35064187 -0.18396541 0.51491087
v -0.35265873 -0.18192524 0.51491087
v -0.35265873 -0.18192524 0.51491087
v -0.35223158 -0.18120584 0.53201725
v -0.35223158 -0.18120584 0.53252241
v -0.35223158 -0.18120584 0.51965878
v -0.34990271 -0.18356164 0.51965878
v -0.34990271 -0.18356164 0.52158233
v -0.35159779 -0.18184695 0.53252241
v -0.35234023 -0.18138880 0.51720105
v -0.35541491 -0.18050304 0.51720105
v -0.35009068 -0.18366433 0.51720105
v -0.34957507 -0.18478020 0.51965878
v -0.34975304 -0.18411821 0.53252241
v -0.34983160 -0.18462786 0.51720105
v -0.36356334 -0.20508556 0.51364488
v -0.36599441 -0.20438521 0.51364488
v -0.36777302 -0.20258604 0.51364488
v -0.36842264 -0.20017011 0.51364488
v -0.36113125 -0.20449941 0.51364488
v -0.36776916 -0.19778478 0.51364488
v -0.35934979 -0.20278384 0.51364488
v -0.36598770 -0.19606921 0.51364488
v -0.35869630 -0.20039851 0.51364488
v -0.36355561 -0.19548306 0.51364488
v -0.35934592 -0.19798258 0.51364488
v -0.36112453 -0.19618340 0.51364488
v -0.36107139 -0.19609389 0.53833006
v -0.36355552 -0.19537827 0.53833006
v -0.36355328 -0.19537773 0.53833006
v -0.36107078 -0.19609289 0.53833006
v -0.35925454 -0.19793013 0.53833006
v -0.35925393 -0.19793235 0.53833006
v -0.36355457 -0.19421190 0.53498014
v -0.36355438 -0.19399769 0.53252241
v -0.36355438 -0.19399769 0.51965878
v -0.36355438 -0.19399769 0.51965878
v -0.36121843 -0.19467063 0.52909883
v -0.36121843 -0.19467063 0.52909883
v -0.36833742 -0.20289435 0.51491087
v -0.36632056 -0.20493452 0.51491087
v -0.36356386 -0.20572869 0.51491087
v -0.36080599 -0.20506403 0.51491087
v -0.36907404 -0.20015481 0.51491087
v -0.35878590 -0.20311864 0.51491087
v -0.36833304 -0.19744998 0.51491087
v -0.35804488 -0.20041381 0.51491087
v -0.36631295 -0.19550459 0.51491087
v -0.36355509 -0.19483993 0.51491087
v -0.36355509 -0.19483993 0.51491087
v -0.35862584 -0.19825321 0.51491087
v -0.35862584 -0.19825321 0.51491087
v -0.35878152 -0.19767427 0.51491087
v -0.35878152 -0.19767427 0.51491087
v -0.36079839 -0.19563410 0.51491087
v -0.36079839 -0.19563410 0.51491087
v -0.36037124 -0.19491470 0.53201725
v -0.36037124 -0.19491470 0.53252241
v -0.36037124 -0.19491470 0.51965878
v -0.35804236 -0.19727050 0.51965878
v -0.35804236 -0.19727050 0.52158233
v -0.35973744 -0.19555581 0.53252241
v -0.36047988 -0.19509766 0.51720105
v -0.36355457 -0.19421190 0.51720105
v -0.35823034 -0.19737319 0.51720105
v -0.35771472 -0.19848906 0.51965878
v -0.35789269 -0.19782707 0.53252241
v -0.35797125 -0.19833672 0.51720105
v -0.37190721 -0.21913819 0.51364488
v -0.37433829 -0.21843784 0.51364488
v -0.37611690 -0.21663867 0.51364488
v -0.37676652 -0.21422274 0.51364488
v -0.36947512 -0.21855205 0.51364488
v -0.37611303 -0.21183742 0.51364488
v -0.36769366 -0.21683647 0.51364488
v -0.37433157 -0.21012184 0.51364488
v -0.36704018 -0.21445115 0.51364488
v -0.37189948 -0.20953569 0.51364488
v -0.36768980 -0.21203522 0.51364488
v -0.36946841 -0.21023603 0.51364488
v -0.36941527 -0.21014652 0.53833006
v -0.37189939 -0.20943090 0.53833006
v -0.37189715 -0.20943036 0.53833006
v -0.36941465 -0.21014553 0.53833006
v -0.36759842 -0.21198277 0.53833006
v -0.36759781 -0.21198499 0.53833006
v -0.37189844 -0.20826453 0.53498014
v -0.37189826 -0.20805033 0.53252241
v -0.37189826 -0.20805033 0.51965878
v -0.37189826 -0.20805033 0.51965878
v -0.36956230 -0.20872327 0.52909883
v -0.36956230 -0.20872327 0.52909883
v -0.37668130 -0.21694698 0.51491087
v -0.37466443 -0.21898716 0.51491087
v -0.37190773 -0.21978133 0.51491087
v -0.36914987 -0.21911667 0.51491087
v -0.37741791 -0.21420744 0.51491087
v -0.36712978 -0.21717128 0.51491087
v -0.37667692 -0.21150261 0.51491087
v -0.36638875 -0.21446645 0.51491087
v -0.37465683 -0.20955722 0.51491087
v -0.37189896 -0.20889256 0.51491087
v -0.37189896 -0.20889256 0.51491087
v -0.36696972 -0.21230584 0.51491087
v -0.36696972 -0.21230584 0.51491087
v -0.36712540 -0.21172690 0.51491087
v -0.36712540 -0.21172690 0.51491087
v -0.36914226 -0.20968673 0.51491087
v -0.36914226 -0.20968673 0.51491087
v -0.36871511 -0.20896734 0.53201725
v -0.36871511 -0.20896734 0.53252241
v -0.36871511 -0.20896734 0.51965878
v -0.36638624 -0.21132313 0.51965878
v -0.36638624 -0.21132313 0.52158233
v -0.36808132 -0.20960845 0.53252241
v -0.36882376 -0.20915029 0.51720105
v -0.37189844 -0.20826453 0.51720105
v -0.36657421 -0.21142583 0.51720105
v -0.36605859 -0.21254169 0.51965878
v -0.36623657 -0.21187970 0.53252241
v -0.36631513 -0.21238936 0.51720105
v -0.38009028 -0.23291997 0.51364488
v -0.38252136 -0.23221962 0.51364488
v -0.38429997 -0.23042045 0.51364488
v -0.38494959 -0.22800452 0.51364488
v -0.37765820 -0.23233383 0.51364488
v -0.38429611 -0.22561920 0.51364488
v -0.37587674 -0.23061825 0.51364488
v -0.38251465 -0.22390362 0.51364488
v -0.37522326 -0.22823292 0.51364488
v -0.38008256 -0.22331748 0.51364488
v -0.37587287 -0.22581699 0.51364488
v -0.37765148 -0.22401781 0.51364488
v -0.37759834 -0.22392830 0.53833006
v -0.38008246 -0.22321268 0.53833006
v -0.38008023 -0.22321214 0.53833006
v -0.37759773 -0.22392731 0.53833006
v -0.37578149 -0.22576454 0.53833006
v -0.37578088 -0.22576677 0.53833006
v -0.38008151 -0.22204631 0.53498014
v -0.38008133 -0.22183211 0.53252241
v -0.38008133 -0.22183211 0.51965878
v -0.38008133 -0.22183211 0.51965878
v -0.37774537 -0.22250504 0.52909883
v -0.37774537 -0.22250504 0.52909883
v -0.38486437 -0.23072876 0.51491087
v -0.38284750 -0.23276893 0.51491087
v -0.38009080 -0.23356310 0.51491087
v -0.37733294 -0.23289844 0.51491087
v -0.38560098 -0.22798922 0.51491087
v -0.37531286 -0.23095306 0.51491087
v -0.38485999 -0.22528439 0.51491087
v -0.37457183 -0.22824823 0.51491087
v -0.38283990 -0.22333900 0.51491087
v -0.38008203 -0.22267434 0.51491087
v -0.38008203 -0.22267434 0.51491087
v -0.37515279 -0.22608762 0.51491087
v -0.37515279 -0.22608762 0.51491087
v -0.37530847 -0.22550868 0.51491087
v -0.37530847 -0.22550868 0.51491087
v -0.37732534 -0.22346851 0.51491087
v -0.37732534 -0.22346851 0.51491087
v -0.37689818 -0.22274912 0.53201725
v -0.37689818 -0.22274912 0.53252241
v -0.37689818 -0.22274912 0.51965878
v -0.37456931 -0.22510491 0.51965878
v -0.37456931 -0.22510491 0.52158233
v -0.37626439 -0.22339023 0.53252241
v -0.37700683 -0.22293207 0.51720105
v -0.38008151 -0.22204631 0.51720105
v -0.37475728 -0.22520761 0.51720105
v -0.37424167 -0.22632347 0.51965878
v -0.37441964 -0.22566148 0.53252241
v -0.37449820 -0.22617113 0.51720105
v -0.43200749 -0.05772799 0.54155929
v -0.42752265 -0.05994453 0.54155929
v -0.42947577 -0.05825093 0.54155929
v -0.43200531 -0.05772728 0.54155929
v -0.42947525 -0.05824988 0.54155929
v -0.42752342 -0.05994236 0.54155929
v -0.21534742 -0.23206397 0.51364488
v -0.21702944 -0.23395378 0.51364488
v -0.21942052 -0.23478039 0.51364488
v -0.22187996 -0.23432233 0.51364488
v -0.21482514 -0.22961736 0.51364488
v -0.22374876 -0.23270235 0.51364488
v -0.21560256 -0.22726950 0.51364488
v -0.22452619 -0.23035449 0.51364488
v -0.21747137 -0.22564951 0.51364488
v -0.22400392 -0.22790787 0.51364488
v -0.21993081 -0.22519146 0.51364488
v -0.22232189 -0.22601807 0.51364488
v -0.22237965 -0.22593146 0.53833006
v -0.22409838 -0.22786252 0.53833006
v -0.22409791 -0.22786026 0.53833006
v -0.22238030 -0.22593050 0.53833006
v -0.21993865 -0.22508639 0.53833006
v -0.21993639 -0.22508681 0.53833006
v -0.22514985 -0.22735769 0.53498014
v -0.22534296 -0.22726498 0.53252241
v -0.22534296 -0.22726498 0.51965878
v -0.22534296 -0.22726498 0.51965878
v -0.22372672 -0.22544910 0.52909883
v -0.22372672 -0.22544910 0.52909883
v -0.21938634 -0.23542261 0.51491087
v -0.21667498 -0.23448527 0.51491087
v -0.21476764 -0.23234232 0.51491087
v -0.21417541 -0.22956799 0.51491087
v -0.22217522 -0.23490320 0.51491087
v -0.21505697 -0.22690564 0.51491087
v -0.22429435 -0.23306621 0.51491087
v -0.21717611 -0.22506865 0.51491087
v -0.22517592 -0.23040386 0.51491087
v -0.22458369 -0.22762952 0.51491087
v -0.22458369 -0.22762952 0.51491087
v -0.21937564 -0.22465900 0.51491087
v -0.21937564 -0.22465900 0.51491087
v -0.21996499 -0.22454923 0.51491087
v -0.21996499 -0.22454923 0.51491087
v -0.22267635 -0.22548659 0.51491087
v -0.22267635 -0.22548659 0.51491087
v -0.22314056 -0.22479053 0.53201725
v -0.22314056 -0.22479053 0.53252241
v -0.22314056 -0.22479053 0.51965878
v -0.22000976 -0.22370818 0.51965878
v -0.22000976 -0.22370818 0.52158233
v -0.22228854 -0.22449597 0.53252241
v -0.22302250 -0.22496755 0.51720105
v -0.22514985 -0.22735769 0.51720105
v -0.21999837 -0.22392209 0.51720105
v -0.21876924 -0.22393922 0.51965878
v -0.21944316 -0.22381371 0.53252241
v -0.21901748 -0.22410477 0.51720105
v -0.22424055 -0.21872933 0.51364488
v -0.22592257 -0.22061914 0.51364488
v -0.22831365 -0.22144576 0.51364488
v -0.23077309 -0.22098770 0.51364488
v -0.22371827 -0.21628273 0.51364488
v -0.23264189 -0.21936771 0.51364488
v -0.22449569 -0.21393487 0.51364488
v -0.23341932 -0.21701986 0.51364488
v -0.22636450 -0.21231487 0.51364488
v -0.23289705 -0.21457323 0.51364488
v -0.22882394 -0.21185683 0.51364488
v -0.23121502 -0.21268344 0.51364488
v -0.23127278 -0.21259683 0.53833006
v -0.23299151 -0.21452788 0.53833006
v -0.23299104 -0.21452563 0.53833006
v -0.23127343 -0.21259586 0.53833006
v -0.22883178 -0.21175176 0.53833006
v -0.22882952 -0.21175217 0.53833006
v -0.23404298 -0.21402306 0.53498014
v -0.23423609 -0.21393035 0.53252241
v -0.23423609 -0.21393035 0.51965878
v -0.23423609 -0.21393035 0.51965878
v -0.23261985 -0.21211447 0.52909883
v -0.23261985 -0.21211447 0.52909883
v -0.22827947 -0.22208797 0.51491087
v -0.22556811 -0.22115063 0.51491087
v -0.22366077 -0.21900769 0.51491087
v -0.22306854 -0.21623336 0.51491087
v -0.23106835 -0.22156856 0.51491087
v -0.22395010 -0.21357101 0.51491087
v -0.23318748 -0.21973157 0.51491087
v -0.22606924 -0.21173402 0.51491087
v -0.23406905 -0.21706923 0.51491087
v -0.23347682 -0.21429488 0.51491087
v -0.23347682 -0.21429488 0.51491087
v -0.22826877 -0.21132436 0.51491087
v -0.22826877 -0.21132436 0.51491087
v -0.22885812 -0.21121460 0.51491087
v -0.22885812 -0.21121460 0.51491087
v -0.23156948 -0.21215195 0.51491087
v -0.23156948 -0.21215195 0.51491087
v -0.23203369 -0.21145590 0.53201725
v -0.23203369 -0.21145590 0.53252241
v -0.23203369 -0.21145590 0.51965878
v -0.22890289 -0.21037354 0.51965878
v -0.22890289 -0.21037354 0.52158233
v -0.23118167 -0.21116134 0.53252241
v -0.23191563 -0.21163292 0.51720105
v -0.23404298 -0.21402306 0.51720105
v -0.22889150 -0.21058746 0.51720105
v -0.22766237 -0.21060458 0.51965878
v -0.22833629 -0.21047908 0.53252241
v -0.22791061 -0.21077014 0.51720105
v -0.24215444 -0.19186854 0.51364488
v -0.24383646 -0.19375834 0.51364488
v -0.24622753 -0.19458496 0.51364488
v -0.24868697 -0.19412690 0.51364488
v -0.24163215 -0.18942193 0.51364488
v -0.25055578 -0.19250692 0.51364488
v -0.24240958 -0.18707407 0.51364488
v -0.25133321 -0.19015906 0.51364488
v -0.24427838 -0.18545407 0.51364488
v -0.25081094 -0.18771243 0.51364488
v -0.24673783 -0.18499603 0.51364488
v -0.24912890 -0.18582264 0.51364488
v -0.24918666 -0.18573603 0.53833006
v -0.25090540 -0.18766708 0.53833006
v -0.25090492 -0.18766483 0.53833006
v -0.24918732 -0.18573506 0.53833006
v -0.24674566 -0.18489096 0.53833006
v -0.24674341 -0.18489137 0.53833006
v -0.25195687 -0.18716226 0.53498014
v -0.25214997 -0.18706955 0.53252241
v -0.25214997 -0.18706955 0.51965878
v -0.25214997 -0.18706955 0.51965878
v -0.25053373 -0.18525367 0.52909883
v -0.25053373 -0.18525367 0.52909883
v -0.24619335 -0.19522717 0.51491087
v -0.24348199 -0.19428983 0.51491087
v -0.24157466 -0.19214689 0.51491087
v -0.24098243 -0.18937256 0.51491087
v -0.24898224 -0.19470777 0.51491087
v -0.24186399 -0.18671021 0.51491087
v -0.25110137 -0.19287077 0.51491087
v -0.24398312 -0.18487322 0.51491087
v -0.25198293 -0.19020843 0.51491087
v -0.25139070 -0.18743408 0.51491087
v -0.25139070 -0.18743408 0.51491087
v -0.24618265 -0.18446356 0.51491087
v -0.24618265 -0.18446356 0.51491087
v -0.24677200 -0.18435380 0.51491087
v -0.24677200 -0.18435380 0.51491087
v -0.24948337 -0.18529116 0.51491087
v -0.24948337 -0.18529116 0.51491087
v -0.24994757 -0.18459510 0.53201725
v -0.24994757 -0.18459510 0.53252241
v -0.24994757 -0.18459510 0.51965878
v -0.24681677 -0.18351275 0.51965878
v -0.24681677 -0.18351275 0.52158233
v -0.24909556 -0.18430054 0.53252241
v -0.24982952 -0.18477212 0.51720105
v -0.25195687 -0.18716226 0.51720105
v -0.24680538 -0.18372666 0.51720105
v -0.24557626 -0.18374379 0.51965878
v -0.24625018 -0.18361828 0.53252241
v -0.24582450 -0.18390934 0.51720105
v -0.00121925 -0.14713118 0.49923522
v -0.00330590 -0.14561121 0.49923522
v -0.00438345 -0.14326528 0.49923522
v -0.00416317 -0.14072201 0.49923522
v 0.00131739 -0.14741795 0.49923522
v -0.00270409 -0.13866286 0.49923522
v 0.00362431 -0.14639467 0.49923522
v -0.00039717 -0.13763957 0.49923522
v 0.00508340 -0.14433551 0.49923522
v 0.00213947 -0.13792634 0.49923522
v 0.00530367 -0.14179224 0.49923522
v 0.00422612 -0.13944632 0.49923522
v 0.00430832 -0.13937904 0.52543171
v 0.00217612 -0.13782589 0.52543171
v 0.00217845 -0.13782615 0.52543171
v 0.00430924 -0.13937828 0.52543171
v 0.00540959 -0.14177383 0.52543171
v 0.00540939 -0.14177617 0.52543171
v 0.00258409 -0.13670782 0.52187671
v 0.00265901 -0.13650248 0.51926854
v 0.00265901 -0.13650248 0.50561734
v 0.00265901 -0.13650248 0.50561734
v 0.00466405 -0.13796301 0.51563534
v 0.00466405 -0.13796301 0.51563534
v -0.00503224 -0.14336394 0.50057874
v -0.00381035 -0.14602410 0.50057874
v -0.00144419 -0.14774768 0.50057874
v 0.00143222 -0.14807285 0.50057874
v -0.00478246 -0.14048000 0.50057874
v 0.00404816 -0.14691250 0.50057874
v -0.00312794 -0.13814503 0.50057874
v 0.00570268 -0.14457752 0.50057874
v -0.00051200 -0.13698467 0.50057874
v 0.00236442 -0.13730985 0.50057874
v 0.00236442 -0.13730985 0.50057874
v 0.00589968 -0.14230303 0.50057874
v 0.00589968 -0.14230303 0.50057874
v 0.00595246 -0.14169358 0.50057874
v 0.00595246 -0.14169358 0.50057874
v 0.00473057 -0.13903343 0.50057874
v 0.00473057 -0.13903343 0.50057874
v 0.00539121 -0.13849270 0.51873241
v 0.00539121 -0.13849270 0.51926854
v 0.00539121 -0.13849270 0.50561734
v 0.00680213 -0.14156438 0.50561734
v 0.00680213 -0.14156438 0.50765864
v 0.00577519 -0.13932863 0.51926854
v 0.00258409 -0.13670782 0.50300914
v 0.00522319 -0.13863022 0.50300914
v 0.00658603 -0.14159724 0.50300914
v 0.00669103 -0.14284717 0.50561734
v 0.00675139 -0.14215028 0.51926854
v 0.00649818 -0.14261156 0.50300914
v -0.02532525 -0.13804946 0.50023217
v -0.02741190 -0.13652948 0.50023217
v -0.02848945 -0.13418355 0.50023217
v -0.02826917 -0.13164028 0.50023217
v -0.02278861 -0.13833622 0.50023217
v -0.02681009 -0.12958113 0.50023217
v -0.02048169 -0.13731293 0.50023217
v -0.02450317 -0.12855784 0.50023217
v -0.01902261 -0.13525378 0.50023217
v -0.02196653 -0.12884461 0.50023217
v -0.01880233 -0.13271051 0.50023217
v -0.01987988 -0.13036459 0.50023217
v -0.01979768 -0.13029731 0.52642866
v -0.02192988 -0.12874415 0.52642866
v -0.02192755 -0.12874441 0.52642866
v -0.01979676 -0.13029655 0.52642866
v -0.01869641 -0.13269210 0.52642866
v -0.01869661 -0.13269444 0.52642866
v -0.02152191 -0.12762609 0.52287366
v -0.02144699 -0.12742075 0.52026549
v -0.02144699 -0.12742075 0.50661429
v -0.02144699 -0.12742075 0.50661429
v -0.01944195 -0.12888128 0.51663229
v -0.01944195 -0.12888128 0.51663229
v -0.02913824 -0.13428221 0.50157569
v -0.02791635 -0.13694237 0.50157569
v -0.02555020 -0.13866595 0.50157569
v -0.02267378 -0.13899113 0.50157569
v -0.02888846 -0.13139827 0.50157569
v -0.02005784 -0.13783077 0.50157569
v -0.02723394 -0.12906330 0.50157569
v -0.01840332 -0.13549579 0.50157569
v -0.02461800 -0.12790294 0.50157569
v -0.02174159 -0.12822812 0.50157569
v -0.02174159 -0.12822812 0.50157569
v -0.01820632 -0.13322130 0.50157569
v -0.01820632 -0.13322130 0.50157569
v -0.01815354 -0.13261185 0.50157569
v -0.01815354 -0.13261185 0.50157569
v -0.01937543 -0.12995170 0.50157569
v -0.01937543 -0.12995170 0.50157569
v -0.01871479 -0.12941097 0.51972936
v -0.01871479 -0.12941097 0.52026549
v -0.01871479 -0.12941097 0.50661429
v -0.01730387 -0.13248265 0.50661429
v -0.01730387 -0.13248265 0.50865559
v -0.01833082 -0.13024690 0.52026549
v -0.02152191 -0.12762609 0.50400609
v -0.01888281 -0.12954850 0.50400609
v -0.01751997 -0.13251551 0.50400609
v -0.01741497 -0.13376544 0.50661429
v -0.01735462 -0.13306855 0.52026549
v -0.01760782 -0.13352983 0.50400609
f 1 2 3
f 3 4 1
f 5 1 4
f 4 6 5
f 7 5 6
f 6 8 7
f 9 7 8
f 8 10 9
f 11 9 10
f 10 12 11
f 13 14 15
f 15 16 13
f 13 16 17
f 17 18 13
f 19 20 22
f 22 24 19
f 25 26 27
f 27 28 25
f 29 25 28
f 28 30 29
f 31 29 30
f 30 32 31
f 33 31 32
f 32 34 33
f 34 32 36
f 36 39 34
f 34 39 40
f 42 43 23
f 23 44 42
f 44 23 21
f 45 46 47
f 47 44 45
f 44 47 42
f 48 44 21
f 21 49 48
f 38 50 48
f 48 41 38
f 41 48 49
f 49 35 41
f 50 45 44
f 44 48 50
f 45 51 52
f 52 46 45
f 53 51 45
f 45 50 53
f 37 53 50
f 50 38 37
f 56 54 57
f 57 58 56
f 56 58 59
f 59 55 56
f 60 61 62
f 62 63 60
f 64 60 63
f 63 65 64
f 66 64 65
f 65 67 66
f 68 66 67
f 67 69 68
f 70 68 69
f 69 71 70
f 72 73 74
f 74 75 72
f 72 75 76
f 76 77 72
f 78 79 80
f 80 82 78
f 84 85 86
f 86 87 84
f 88 84 87
f 87 89 88
f 90 88 89
f 89 91 90
f 92 90 91
f 91 93 92
f 93 91 96
f 96 98 93
f 93 98 99
f 101 102 83
f 83 103 101
f 103 83 81
f 104 105 106
f 106 103 104
f 103 106 101
f 107 103 81
f 81 108 107
f 97 109 107
f 107 100 97
f 100 107 108
f 108 94 100
f 109 104 103
f 103 107 109
f 104 110 111
f 111 105 104
f 112 110 104
f 104 109 112
f 95 112 109
f 109 97 95
f 113 114 115
f 115 116 113
f 117 113 116
f 116 118 117
f 119 117 118
f 118 120 119
f 121 119 120
f 120 122 121
f 123 121 122
f 122 124 123
f 125 126 127
f 127 128 125
f 125 128 129
f 129 130 125
f 131 132 134
f 134 135 131
f 137 138 139
f 139 140 137
f 141 137 140
f 140 142 141
f 143 141 142
f 142 144 143
f 145 143 144
f 144 146 145
f 146 144 148
f 148 150 146
f 146 150 152
f 154 155 136
f 136 156 154
f 156 136 133
f 157 158 159
f 159 156 157
f 156 159 154
f 160 156 133
f 133 161 160
f 151 162 160
f 160 153 151
f 153 160 161
f 161 147 153
f 162 157 156
f 156 160 162
f 157 163 164
f 164 158 157
f 165 163 157
f 157 162 165
f 149 165 162
f 162 151 149
f 166 167 168
f 168 169 166
f 170 166 169
f 169 171 170
f 172 170 171
f 171 173 172
f 174 172 173
f 173 175 174
f 176 174 175
f 175 177 176
f 178 179 180
f 180 181 178
f 178 181 182
f 182 183 178
f 184 185 187
f 187 189 184
f 190 191 192
f 192 193 190
f 194 190 193
f 193 195 194
f 196 194 195
f 195 197 196
f 198 196 197
f 197 199 198
f 199 197 202
f 202 203 199
f 199 203 206
f 207 208 188
f 188 209 207
f 209 188 186
f 210 211 212
f 212 209 210
f 209 212 207
f 213 209 186
f 186 214 213
f 204 215 213
f 213 205 204
f 205 213 214
f 214 200 205
f 215 210 209
f 209 213 215
f 210 216 217
f 217 211 210
f 218 216 210
f 210 215 218
f 201 218 215
f 215 204 201
f 219 220 221
f 221 222 219
f 223 219 222
f 222 224 223
f 225 223 224
f 224 226 225
f 227 225 226
f 226 228 227
f 229 227 228
f 228 230 229
f 231 232 233
f 233 234 231
f 231 234 235
f 235 236 231
f 237 238 239
f 239 241 237
f 243 244 245
f 245 246 243
f 247 243 246
f 246 248 247
f 249 247 248
f 248 250 249
f 251 249 250
f 250 252 251
f 252 250 255
f 255 257 252
f 252 257 259
f 260 261 242
f 242 262 260
f 262 242 240
f 263 264 265
f 265 262 263
f 262 265 260
f 266 262 240
f 240 267 266
f 256 268 266
f 266 258 256
f 258 266 267
f 267 253 258
f 268 263 262
f 262 266 268
f 263 269 270
f 270 264 263
f 271 269 263
f 263 268 271
f 254 271 268
f 268 256 254
f 272 273 274
f 274 275 272
f 276 272 275
f 275 277 276
f 278 276 277
f 277 279 278
f 280 278 279
f 279 281 280
f 282 280 281
f 281 283 282
f 284 285 286
f 286 287 284
f 284 287 288
f 288 289 284
f 290 291 292
f 292 295 290
f 296 297 298
f 298 299 296
f 300 296 299
f 299 301 300
f 302 300 301
f 301 303 302
f 304 302 303
f 303 306 304
f 306 303 308
f 308 309 306
f 306 309 312
f 313 314 294
f 294 315 313
f 315 294 293
f 316 317 318
f 318 315 316
f 315 318 313
f 319 315 293
f 293 320 319
f 310 321 319
f 319 311 310
f 311 319 320
f 320 305 311
f 321 316 315
f 315 319 321
f 316 322 323
f 323 317 316
f 324 322 316
f 316 321 324
f 307 324 321
f 321 310 307
f 325 326 327
f 327 328 325
f 329 325 328
f 328 330 329
f 331 329 330
f 330 332 331
f 333 331 332
f 332 334 333
f 335 333 334
f 334 336 335
f 337 338 339
f 339 340 337
f 337 340 341
f 341 342 337
f 343 344 346
f 346 347 343
f 349 350 351
f 351 352 349
f 353 349 352
f 352 354 353
f 355 353 354
f 354 356 355
f 357 355 356
f 356 358 357
f 358 356 361
f 361 362 358
f 358 362 365
f 366 367 348
f 348 368 366
f 368 348 345
f 369 370 371
f 371 368 369
f 368 371 366
f 372 368 345
f 345 373 372
f 363 374 372
f 372 364 363
f 364 372 373
f 373 359 364
f 374 369 368
f 368 372 374
f 369 375 376
f 376 370 369
f 377 375 369
f 369 374 377
f 360 377 374
f 374 363 360
f 378 379 380
f 380 381 378
f 382 378 381
f 381 383 382
f 384 382 383
f 383 385 384
f 386 384 385
f 385 387 386
f 388 386 387
f 387 389 388
f 390 391 392
f 392 393 390
f 390 393 394
f 394 395 390
f 396 397 398
f 398 401 396
f 402 403 404
f 404 405 402
f 406 402 405
f 405 407 406
f 408 406 407
f 407 409 408
f 410 408 409
f 409 411 410
f 411 409 413
f 413 415 411
f 411 415 418
f 419 420 400
f 400 421 419
f 421 400 399
f 422 423 424
f 424 421 422
f 421 424 419
f 425 421 399
f 399 426 425
f 416 427 425
f 425 417 416
f 417 425 426
f 426 412 417
f 427 422 421
f 421 425 427
f 422 428 429
f 429 423 422
f 430 428 422
f 422 427 430
f 414 430 427
f 427 416 414
f 433 431 434
f 434 435 433
f 433 435 436
f 436 432 433
f 437 438 439
f 439 440 437
f 441 437 440
f 440 442 441
f 443 441 442
f 442 444 443
f 445 443 444
f 444 446 445
f 447 445 446
f 446 448 447
f 449 450 451
f 451 452 449
f 449 452 453
f 453 454 449
f 455 456 457
f 457 460 455
f 461 462 463
f 463 464 461
f 465 461 464
f 464 466 465
f 467 465 466
f 466 468 467
f 469 467 468
f 468 471 469
f 471 468 473
f 473 475 471
f 471 475 476
f 478 479 459
f 459 480 478
f 480 459 458
f 481 482 483
f 483 480 481
f 480 483 478
f 484 480 458
f 458 485 484
f 474 486 484
f 484 477 474
f 477 484 485
f 485 470 477
f 486 481 480
f 480 484 486
f 481 487 488
f 488 482 481
f 489 487 481
f 481 486 489
f 472 489 486
f 486 474 472
f 492 490 493
f 493 494 492
f 492 494 495
f 495 491 492
f 498 496 499
f 499 500 498
f 498 500 501
f 501 497 498
f 502 503 504
f 504 505 502
f 506 502 505
f 505 507 506
f 508 506 507
f 507 509 508
f 510 508 509
f 509 511 510
f 512 510 511
f 511 513 512
f 514 515 516
f 516 517 514
f 514 517 518
f 518 519 514
f 520 521 522
f 522 525 520
f 526 527 528
f 528 529 526
f 530 526 529
f 529 531 530
f 532 530 531
f 531 533 532
f 534 532 533
f 533 536 534
f 536 533 537
f 537 539 536
f 536 539 541
f 543 544 524
f 524 545 543
f 545 524 523
f 546 547 548
f 548 545 546
f 545 548 543
f 549 545 523
f 523 550 549
f 540 551 549
f 549 542 540
f 542 549 550
f 550 535 542
f 551 546 545
f 545 549 551
f 546 552 553
f 553 547 546
f 554 552 546
f 546 551 554
f 538 554 551
f 551 540 538
f 557 555 558
f 558 559 557
f 557 559 560
f 560 556 557
f 563 561 564
f 564 565 563
f 563 565 566
f 566 562 563
f 569 567 570
f 570 571 569
f 569 571 572
f 572 568 569
f 573 574 575
f 575 576 573
f 577 573 576
f 576 578 577
f 579 577 578
f 578 580 579
f 581 579 580
f 580 582 581
f 583 581 582
f 582 584 583
f 585 586 587
f 587 588 585
f 585 588 589
f 589 590 585
f 591 592 593
f 593 595 591
f 597 598 599
f 599 600 597
f 601 597 600
f 600 602 601
f 603 601 602
f 602 604 603
f 605 603 604
f 604 606 605
f 606 604 608
f 608 610 606
f 606 610 613
f 614 615 596
f 596 616 614
f 616 596 594
f 617 618 619
f 619 616 617
f 616 619 614
f 620 616 594
f 594 621 620
f 611 622 620
f 620 612 611
f 612 620 621
f 621 607 612
f 622 617 616
f 616 620 622
f 617 623 624
f 624 618 617
f 625 623 617
f 617 622 625
f 609 625 622
f 622 611 609
f 626 627 628
f 628 629 626
f 630 626 629
f 629 631 630
f 632 630 631
f 631 633 632
f 634 632 633
f 633 635 634
f 636 634 635
f 635 637 636
f 638 639 640
f 640 641 638
f 638 641 642
f 642 643 638
f 644 645 647
f 647 648 644
f 650 651 652
f 652 653 650
f 654 650 653
f 653 655 654
f 656 654 655
f 655 657 656
f 658 656 657
f 657 659 658
f 659 657 662
f 662 664 659
f 659 664 665
f 667 668 649
f 649 669 667
f 669 649 646
f 670 671 672
f 672 669 670
f 669 672 667
f 673 669 646
f 646 674 673
f 663 675 673
f 673 666 663
f 666 673 674
f 674 660 666
f 675 670 669
f 669 673 675
f 670 676 677
f 677 671 670
f 678 676 670
f 670 675 678
f 661 678 675
f 675 663 661
f 679 680 681
f 681 682 679
f 683 679 682
f 682 684 683
f 685 683 684
f 684 686 685
f 687 685 686
f 686 688 687
f 689 687 688
f 688 690 689
f 691 692 693
f 693 694 691
f 691 694 695
f 695 696 691
f 697 698 700
f 700 702 697
f 703 704 705
f 705 706 703
f 707 703 706
f 706 708 707
f 709 707 708
f 708 710 709
f 711 709 710
f 710 712 711
f 712 710 715
f 715 717 712
f 712 717 719
f 720 721 701
f 701 722 720
f 722 701 699
f 723 724 725
f 725 722 723
f 722 725 720
f 726 722 699
f 699 727 726
f 716 728 726
f 726 718 716
f 718 726 727
f 727 713 718
f 728 723 722
f 722 726 728
f 723 729 730
f 730 724 723
f 731 729 723
f 723 728 731
f 714 731 728
f 728 716 714
f 732 733 734
f 734 735 732
f 736 732 735
f 735 737 736
f 738 736 737
f 737 739 738
f 740 738 739
f 739 741 740
f 742 740 741
f 741 743 742
f 744 745 746
f 746 747 744
f 744 747 748
f 748 749 744
f 750 751 752
f 752 755 750
f 756 757 758
f 758 759 756
f 760 756 759
f 759 761 760
f 762 760 761
f 761 763 762
f 764 762 763
f 763 766 764
f 766 763 768
f 768 769 766
f 766 769 771
f 773 774 754
f 754 775 773
f 775 754 753
f 776 777 778
f 778 775 776
f 775 778 773
f 779 775 753
f 753 780 779
f 770 781 779
f 779 772 770
f 772 779 780
f 780 765 772
f 781 776 775
f 775 779 781
f 776 782 783
f 783 777 776
f 784 782 776
f 776 781 784
f 767 784 781
f 781 770 767
f 785 786 787
f 787 788 785
f 789 785 788
f 788 790 789
f 791 789 790
f 790 792 791
f 793 791 792
f 792 794 793
f 795 793 794
f 794 796 795
f 797 798 799
f 799 800 797
f 797 800 801
f 801 802 797
f 803 804 805
f 805 807 803
f 809 810 811
f 811 812 809
f 813 809 812
f 812 814 813
f 815 813 814
f 814 816 815
f 817 815 816
f 816 818 817
f 818 816 820
f 820 822 818
f 818 822 825
f 826 827 808
f 808 828 826
f 828 808 806
f 829 830 831
f 831 828 829
f 828 831 826
f 832 828 806
f 806 833 832
f 823 834 832
f 832 824 823
f 824 832 833
f 833 819 824
f 834 829 828
f 828 832 834
f 829 835 836
f 836 830 829
f 837 835 829
f 829 834 837
f 821 837 834
f 834 823 821
f 838 839 840
f 840 841 838
f 842 838 841
f 841 843 842
f 844 842 843
f 843 845 844
f 846 844 845
f 845 847 846
f 848 846 847
f 847 849 848
f 850 851 852
f 852 853 850
f 850 853 854
f 854 855 850
f 856 857 859
f 859 861 856
f 862 863 864
f 864 865 862
f 866 862 865
f 865 867 866
f 868 866 867
f 867 869 868
f 870 868 869
f 869 872 870
f 872 869 874
f 874 875 872
f 872 875 877
f 879 880 860
f 860 881 879
f 881 860 858
f 882 883 884
f 884 881 882
f 881 884 879
f 885 881 858
f 858 886 885
f 876 887 885
f 885 878 876
f 878 885 886
f 886 871 878
f 887 882 881
f 881 885 887
f 882 888 889
f 889 883 882
f 890 888 882
f 882 887 890
f 873 890 887
f 887 876 873
f 893 891 894
f 894 895 893
f 893 895 896
f 896 892 893
f 897 898 899
f 899 900 897
f 901 897 900
f 900 902 901
f 903 901 902
f 902 904 903
f 905 903 904
f 904 906 905
f 907 905 906
f 906 908 907
f 909 910 911
f 911 912 909
f 909 912 913
f 913 914 909
f 915 916 917
f 917 919 915
f 921 922 923
f 923 924 921
f 925 921 924
f 924 926 925
f 927 925 926
f 926 928 927
f 929 927 928
f 928 930 929
f 930 928 933
f 933 935 930
f 930 935 936
f 938 939 920
f 920 940 938
f 940 920 918
f 941 942 943
f 943 940 941
f 940 943 938
f 944 940 918
f 918 945 944
f 934 946 944
f 944 937 934
f 937 944 945
f 945 931 937
f 946 941 940
f 940 944 946
f 941 947 948
f 948 942 941
f 949 947 941
f 941 946 949
f 932 949 946
f 946 934 932
f 950 951 952
f 952 953 950
f 954 950 953
f 953 955 954
f 956 954 955
f 955 957 956
f 958 956 957
f 957 959 958
f 960 958 959
f 959 961 960
f 962 963 964
f 964 965 962
f 962 965 966
f 966 967 962
f 968 969 971
f 971 972 968
f 974 975 976
f 976 977 974
f 978 974 977
f 977 979 978
f 980 978 979
f 979 981 980
f 982 980 981
f 981 984 982
f 984 981 985
f 985 987 984
f 984 987 989
f 991 992 973
f 973 993 991
f 993 973 970
f 994 995 996
f 996 993 994
f 993 996 991
f 997 993 970
f 970 998 997
f 988 999 997
f 997 990 988
f 990 997 998
f 998 983 990
f 999 994 993
f 993 997 999
f 994 1000 1001
f 1001 995 994
f 1002 1000 994
f 994 999 1002
f 986 1002 999
f 999 988 986
f 1003 1004 1005
f 1005 1006 1003
f 1007 1003 1006
f 1006 1008 1007
f 1009 1007 1008
f 1008 1010 1009
f 1011 1009 1010
f 1010 1012 1011
f 1013 1011 1012
f 1012 1014 1013
f 1015 1016 1017
f 1017 1018 1015
f 1015 1018 1019
f 1019 1020 1015
f 1021 1022 1023
f 1023 1026 1021
f 1027 1028 1029
f 1029 1030 1027
f 1031 1027 1030
f 1030 1032 1031
f 1033 1031 1032
f 1032 1034 1033
f 1035 1033 1034
f 1034 1036 1035
f 1036 1034 1039
f 1039 1040 1036
f 1036 1040 1042
f 1044 1045 1025
f 1025 1046 1044
f 1046 1025 1024
f 1047 1048 1049
f 1049 1046 1047
f 1046 1049 1044
f 1050 1046 1024
f 1024 1051 1050
f 1041 1052 1050
f 1050 1043 1041
f 1043 1050 1051
f 1051 1037 1043
f 1052 1047 1046
f 1046 1050 1052
f 1047 1053 1054
f 1054 1048 1047
f 1055 1053 1047
f 1047 1052 1055
f 1038 1055 1052
f 1052 1041 1038
f 1056 1057 1058
f 1058 1059 1056
f 1060 1056 1059
f 1059 1061 1060
f 1062 1060 1061
f 1061 1063 1062
f 1064 1062 1063
f 1063 1065 1064
f 1066 1064 1065
f 1065 1067 1066
f 1068 1069 1070
f 1070 1071 1068
f 1068 1071 1072
f 1072 1073 1068
f 1074 1075 1077
f 1077 1078 1074
f 1080 1081 1082
f 1082 1083 1080
f 1084 1080 1083
f 1083 1085 1084
f 1086 1084 1085
f 1085 1087 1086
f 1088 1086 1087
f 1087 1090 1088
f 1090 1087 1092
f 1092 1093 1090
f 1090 1093 1096
f 1097 1098 1079
f 1079 1099 1097
f 1099 1079 1076
f 1100 1101 1102
f 1102 1099 1100
f 1099 1102 1097
f 1103 1099 1076
f 1076 1104 1103
f 1094 1105 1103
f 1103 1095 1094
f 1095 1103 1104
f 1104 1089 1095
f 1105 1100 1099
f 1099 1103 1105
f 1100 1106 1107
f 1107 1101 1100
f 1108 1106 1100
f 1100 1105 1108
f 1091 1108 1105
f 1105 1094 1091
f 1109 1110 1111
f 1111 1112 1109
f 1113 1109 1112
f 1112 1114 1113
f 1115 1113 1114
f 1114 1116 1115
f 1117 1115 1116
f 1116 1118 1117
f 1119 1117 1118
f 1118 1120 1119
f 1121 1122 1123
f 1123 1124 1121
f 1121 1124 1125
f 1125 1126 1121
f 1127 1128 1130
f 1130 1131 1127
f 1133 1134 1135
f 1135 1136 1133
f 1137 1133 1136
f 1136 1138 1137
f 1139 1137 1138
f 1138 1140 1139
f 1141 1139 1140
f 1140 1143 1141
f 1143 1140 1144
f 1144 1147 1143
f 1143 1147 1148
f 1150 1151 1132
f 1132 1152 1150
f 1152 1132 1129
f 1153 1154 1155
f 1155 1152 1153
f 1152 1155 1150
f 1156 1152 1129
f 1129 1157 1156
f 1146 1158 1156
f 1156 1149 1146
f 1149 1156 1157
f 1157 1142 1149
f 1158 1153 1152
f 1152 1156 1158
f 1153 1159 1160
f 1160 1154 1153
f 1161 1159 1153
f 1153 1158 1161
f 1145 1161 1158
f 1158 1146 1145
f 1164 1162 1165
f 1165 1166 1164
f 1164 1166 1167
f 1167 1163 1164
f 1168 1169 1170
f 1170 1171 1168
f 1172 1168 1171
f 1171 1173 1172
f 1174 1172 1173
f 1173 1175 1174
f 1176 1174 1175
f 1175 1177 1176
f 1178 1176 1177
f 1177 1179 1178
f 1180 1181 1182
f 1182 1183 1180
f 1180 1183 1184
f 1184 1185 1180
f 1186 1187 1188
f 1188 1191 1186
f 1192 1193 1194
f 1194 1195 1192
f 1196 1192 1195
f 1195 1197 1196
f 1198 1196 1197
f 1197 1199 1198
f 1200 1198 1199
f 1199 1201 1200
f 1201 1199 1203
f 1203 1206 1201
f 1201 1206 1208
f 1209 1210 1190
f 1190 1211 1209
f 1211 1190 1189
f 1212 1213 1214
f 1214 1211 1212
f 1211 1214 1209
f 1215 1211 1189
f 1189 1216 1215
f 1205 1217 1215
f 1215 1207 1205
f 1207 1215 1216
f 1216 1202 1207
f 1217 1212 1211
f 1211 1215 1217
f 1212 1218 1219
f 1219 1213 1212
f 1220 1218 1212
f 1212 1217 1220
f 1204 1220 1217
f 1217 1205 1204
f 1221 1222 1223
f 1223 1224 1221
f 1225 1221 1224
f 1224 1226 1225
f 1227 1225 1226
f 1226 1228 1227
f 1229 1227 1228
f 1228 1230 1229
f 1231 1229 1230
f 1230 1232 1231
f 1233 1234 1235
f 1235 1236 1233
f 1233 1236 1237
f 1237 1238 1233
f 1239 1240 1241
f 1241 1243 1239
f 1245 1246 1247
f 1247 1248 1245
f 1249 1245 1248
f 1248 1250 1249
f 1251 1249 1250
f 1250 1252 1251
f 1253 1251 1252
f 1252 1254 1253
f 1254 1252 1257
f 1257 1258 1254
f 1254 1258 1261
f 1262 1263 1244
f 1244 1264 1262
f 1264 1244 1242
f 1265 1266 1267
f 1267 1264 1265
f 1264 1267 1262
f 1268 1264 1242
f 1242 1269 1268
f 1259 1270 1268
f 1268 1260 1259
f 1260 1268 1269
f 1269 1255 1260
f 1270 1265 1264
f 1264 1268 1270
f 1265 1271 1272
f 1272 1266 1265
f 1273 1271 1265
f 1265 1270 1273
f 1256 1273 1270
f 1270 1259 1256
f 1274 1275 1276
f 1276 1277 1274
f 1278 1274 1277
f 1277 1279 1278
f 1280 1278 1279
f 1279 1281 1280
f 1282 1280 1281
f 1281 1283 1282
f 1284 1282 1283
f 1283 1285 1284
f 1286 1287 1288
f 1288 1289 1286
f 1286 1289 1290
f 1290 1291 1286
f 1292 1293 1294
f 1294 1297 1292
f 1298 1299 1300
f 1300 1301 1298
f 1302 1298 1301
f 1301 1303 1302
f 1304 1302 1303
f 1303 1305 1304
f 1306 1304 1305
f 1305 1307 1306
f 1307 1305 1309
f 1309 1312 1307
f 1307 1312 1314
f 1315 1316 1296
f 1296 1317 1315
f 1317 1296 1295
f 1318 1319 1320
f 1320 1317 1318
f 1317 1320 1315
f 1321 1317 1295
f 1295 1322 1321
f 1311 1323 1321
f 1321 1313 1311
f 1313 1321 1322
f 1322 1308 1313
f 1323 1318 1317
f 1317 1321 1323
f 1318 1324 1325
f 1325 1319 1318
f 1326 1324 1318
f 1318 1323 1326
f 1310 1326 1323
f 1323 1311 1310
f 1327 1328 1329
f 1329 1330 1327
f 1331 1327 1330
f 1330 1332 1331
f 1333 1331 1332
f 1332 1334 1333
f 1335 1333 1334
f 1334 1336 1335
f 1337 1335 1336
f 1336 1338 1337
f 1339 1340 1341
f 1341 1342 1339
f 1339 1342 1343
f 1343 1344 1339
f 1345 1346 1347
f 1347 1349 1345
f 1351 1352 1353
f 1353 1354 1351
f 1355 1351 1354
f 1354 1356 1355
f 1357 1355 1356
f 1356 1358 1357
f 1359 1357 1358
f 1358 1360 1359
f 1360 1358 1363
f 1363 1364 1360
f 1360 1364 1367
f 1368 1369 1350
f 1350 1370 1368
f 1370 1350 1348
f 1371 1372 1373
f 1373 1370 1371
f 1370 1373 1368
f 1374 1370 1348
f 1348 1375 1374
f 1365 1376 1374
f 1374 1366 1365
f 1366 1374 1375
f 1375 1361 1366
f 1376 1371 1370
f 1370 1374 1376
f 1371 1377 1378
f 1378 1372 1371
f 1379 1377 1371
f 1371 1376 1379
f 1362 1379 1376
f 1376 1365 1362
f 1380 1381 1382
f 1382 1383 1380
f 1384 1380 1383
f 1383 1385 1384
f 1386 1384 1385
f 1385 1387 1386
f 1388 1386 1387
f 1387 1389 1388
f 1390 1388 1389
f 1389 1391 1390
f 1392 1393 1394
f 1394 1395 1392
f 1392 1395 1396
f 1396 1397 1392
f 1398 1399 1400
f 1400 1403 1398
f 1404 1405 1406
f 1406 1407 1404
f 1408 1404 1407
f 1407 1409 1408
f 1410 1408 1409
f 1409 1411 1410
f 1412 1410 1411
f 1411 1413 1412
f 1413 1411 1415
f 1415 1418 1413
f 1413 1418 1419
f 1421 1422 1402
f 1402 1423 1421
f 1423 1402 1401
f 1424 1425 1426
f 1426 1423 1424
f 1423 1426 1421
f 1427 1423 1401
f 1401 1428 1427
f 1417 1429 1427
f 1427 1420 1417
f 1420 1427 1428
f 1428 1414 1420
f 1429 1424 1423
f 1423 1427 1429
f 1424 1430 1431
f 1431 1425 1424
f 1432 1430 1424
f 1424 1429 1432
f 1416 1432 1429
f 1429 1417 1416
f 1435 1433 1436
f 1436 1437 1435
f 1435 1437 1438
f 1438 1434 1435
f 1439 1440 1441
f 1441 1442 1439
f 1443 1439 1442
f 1442 1444 1443
f 1445 1443 1444
f 1444 1446 1445
f 1447 1445 1446
f 1446 1448 1447
f 1449 1447 1448
f 1448 1450 1449
f 1451 1452 1453
f 1453 1454 1451
f 1451 1454 1455
f 1455 1456 1451
f 1457 1458 1459
f 1459 1461 1457
f 1463 1464 1465
f 1465 1466 1463
f 1467 1463 1466
f 1466 1468 1467
f 1469 1467 1468
f 1468 1470 1469
f 1471 1469 1470
f 1470 1472 1471
f 1472 1470 1474
f 1474 1476 1472
f 1472 1476 1479
f 1480 1481 1462
f 1462 1482 1480
f 1482 1462 1460
f 1483 1484 1485
f 1485 1482 1483
f 1482 1485 1480
f 1486 1482 1460
f 1460 1487 1486
f 1477 1488 1486
f 1486 1478 1477
f 1478 1486 1487
f 1487 1473 1478
f 1488 1483 1482
f 1482 1486 1488
f 1483 1489 1490
f 1490 1484 1483
f 1491 1489 1483
f 1483 1488 1491
f 1475 1491 1488
f 1488 1477 1475
f 1492 1493 1494
f 1494 1495 1492
f 1496 1492 1495
f 1495 1497 1496
f 1498 1496 1497
f 1497 1499 1498
f 1500 1498 1499
f 1499 1501 1500
f 1502 1500 1501
f 1501 1503 1502
f 1504 1505 1506
f 1506 1507 1504
f 1504 1507 1508
f 1508 1509 1504
f 1510 1511 1513
f 1513 1514 1510
f 1516 1517 1518
f 1518 1519 1516
f 1520 1516 1519
f 1519 1521 1520
f 1522 1520 1521
f 1521 1523 1522
f 1524 1522 1523
f 1523 1525 1524
f 1525 1523 1527
f 1527 1530 1525
f 1525 1530 1531
f 1533 1534 1515
f 1515 1535 1533
f 1535 1515 1512
f 1536 1537 1538
f 1538 1535 1536
f 1535 1538 1533
f 1539 1535 1512
f 1512 1540 1539
f 1529 1541 1539
f 1539 1532 1529
f 1532 1539 1540
f 1540 1526 1532
f 1541 1536 1535
f 1535 1539 1541
f 1536 1542 1543
f 1543 1537 1536
f 1544 1542 1536
f 1536 1541 1544
f 1528 1544 1541
f 1541 1529 1528
f 1545 1546 1547
f 1547 1548 1545
f 1549 1545 1548
f 1548 1550 1549
f 1551 1549 1550
f 1550 1552 1551
f 1553 1551 1552
f 1552 1554 1553
f 1555 1553 1554
f 1554 1556 1555
f 1557 1558 1559
f 1559 1560 1557
f 1557 1560 1561
f 1561 1562 1557
f 1563 1564 1566
f 1566 1567 1563
f 1569 1570 1571
f 1571 1572 1569
f 1573 1569 1572
f 1572 1574 1573
f 1575 1573 1574
f 1574 1576 1575
f 1577 1575 1576
f 1576 1579 1577
f 1579 1576 1580
f 1580 1583 1579
f 1579 1583 1584
f 1586 1587 1568
f 1568 1588 1586
f 1588 1568 1565
f 1589 1590 1591
f 1591 1588 1589
f 1588 1591 1586
f 1592 1588 1565
f 1565 1593 1592
f 1582 1594 1592
f 1592 1585 1582
f 1585 1592 1593
f 1593 1578 1585
f 1594 1589 1588
f 1588 1592 1594
f 1589 1595 1596
f 1596 1590 1589
f 1597 1595 1589
f 1589 1594 1597
f 1581 1597 1594
f 1594 1582 1581
f 1598 1599 1600
f 1600 1601 1598
f 1602 1598 1601
f 1601 1603 1602
f 1604 1602 1603
f 1603 1605 1604
f 1606 1604 1605
f 1605 1607 1606
f 1608 1606 1607
f 1607 1609 1608
f 1610 1611 1612
f 1612 1613 1610
f 1610 1613 1614
f 1614 1615 1610
f 1616 1617 1618
f 1618 1621 1616
f 1622 1623 1624
f 1624 1625 1622
f 1626 1622 1625
f 1625 1627 1626
f 1628 1626 1627
f 1627 1629 1628
f 1630 1628 1629
f 1629 1631 1630
f 1631 1629 1633
f 1633 1635 1631
f 1631 1635 1637
f 1639 1640 1620
f 1620 1641 1639
f 1641 1620 1619
f 1642 1643 1644
f 1644 1641 1642
f 1641 1644 1639
f 1645 1646 1641
f 1641 1619 1645
f 1636 1647 1646
f 1646 1638 1636
f 1638 1646 1645
f 1645 1632 1638
f 1647 1642 1641
f 1641 1646 1647
f 1642 1648 1649
f 1649 1643 1642
f 1650 1648 1642
f 1642 1647 1650
f 1634 1650 1647
f 1647 1636 1634
f 1651 1652 1653
f 1653 1654 1651
f 1655 1651 1654
f 1654 1656 1655
f 1657 1655 1656
f 1656 1658 1657
f 1659 1657 1658
f 1658 1660 1659
f 1661 1659 1660
f 1660 1662 1661
f 1663 1664 1665
f 1665 1666 1663
f 1663 1666 1667
f 1667 1668 1663
f 1669 1670 1671
f 1671 1673 1669
f 1675 1676 1677
f 1677 1678 1675
f 1679 1675 1678
f 1678 1680 1679
f 1681 1679 1680
f 1680 1682 1681
f 1683 1681 1682
f 1682 1684 1683
f 1684 1682 1687
f 1687 1688 1684
f 1684 1688 1691
f 1692 1693 1674
f 1674 1694 1692
f 1694 1674 1672
f 1695 1696 1697
f 1697 1694 1695
f 1694 1697 1692
f 1698 1699 1694
f 1694 1672 1698
f 1689 1700 1699
f 1699 1690 1689
f 1690 1699 1698
f 1698 1685 1690
f 1700 1695 1694
f 1694 1699 1700
f 1695 1701 1702
f 1702 1696 1695
f 1703 1701 1695
f 1695 1700 1703
f 1686 1703 1700
f 1700 1689 1686

