# https://github.com/mikedh/trimesh
v 0.01963515 -0.16276954 0.73358103
v 0.01963515 -0.16276954 0.73358103
v 0.01963515 -0.16276954 0.73358103
v 0.01963515 -0.16276954 0.73771111
v 0.01963515 -0.16276954 0.73771111
v 0.01963515 -0.16276954 0.73771111
v 0.01566392 -0.16276954 0.73771111
v 0.01566392 -0.16276954 0.73771111
v 0.01566392 -0.16276954 0.73771111
v 0.01566392 -0.16276954 0.73358103
v 0.01566392 -0.16276954 0.73358103
v 0.01566392 -0.16276954 0.73358103
v 0.01566392 -0.16108827 0.73358103
v 0.01566392 -0.16108827 0.73358103
v 0.01963515 -0.16108827 0.73358103
v 0.01963515 -0.16108827 0.73358103
v 0.01566392 -0.16108827 0.73771111
v 0.01566392 -0.16108827 0.73771111
v 0.01963515 -0.16108827 0.73771111
v 0.01963515 -0.16108827 0.73771111
f 1 4 7
f 3 10 13
f 14 12 8
f 17 9 6
f 2 16 19
f 7 11 1
f 13 15 3
f 8 18 14
f 6 20 17
f 19 5 2

