# https://github.com/mikedh/trimesh
v -0.35617477 0.12901469 0.41124209
v -0.35617477 0.12901469 0.41124209
v -0.18455720 0.12901469 0.41124209
v -0.18455720 0.12901469 0.44046782
v -0.18455720 0.12901469 0.44046782
v -0.35617477 0.12901469 0.44046782
v -0.35617477 0.12901469 0.44046782
v -0.35617477 0.12901469 0.44046782
v -0.35617477 0.24603185 0.44046782
v -0.35617477 0.24603185 0.44046782
v -0.35617477 0.24603185 0.44046782
v -0.35617477 0.24603185 0.41124209
v -0.35617477 0.24603185 0.41124209
v -0.18455720 0.24603185 0.44046782
v -0.18455720 0.24603185 0.44046782
v -0.30885169 0.24603185 0.41763475
v -0.18455720 0.24603185 0.41124209
v -0.30885169 0.24603185 0.43419764
v -0.22435653 0.24603185 0.43419764
v -0.22435653 0.24603185 0.41763475
f 1 3 4
f 2 8 10
f 9 7 5
f 16 17 13
f 18 16 11
f 19 11 15
f 20 15 17
f 4 6 1
f 10 12 2
f 5 14 9
f 13 11 16
f 11 19 18
f 15 20 19
f 17 16 20

