# https://github.com/mikedh/trimesh
v -0.44627229 -0.05300669 0.54194824
v -0.44627229 -0.05300669 0.54194824
v -0.44373474 -0.05447469 0.54194824
v -0.44373474 -0.05447469 0.54194824
v -0.44195215 -0.05680202 0.54194824
v -0.44195215 -0.05680202 0.54194824
v -0.44119585 -0.05963437 0.54194824
v -0.44119585 -0.05963437 0.54194824
v -0.44917844 -0.05262151 0.54194824
v -0.44917844 -0.05262151 0.54194824
v -0.44158105 -0.06254053 0.54194824
v -0.44158105 -0.06254053 0.54194824
v -0.45201079 -0.05337778 0.54194824
v -0.45201079 -0.05337778 0.54194824
v -0.45433810 -0.05516038 0.54194824
v -0.45433810 -0.05516038 0.54194824
v -0.44304906 -0.06507807 0.54194824
v -0.44304906 -0.06507807 0.54194824
v -0.44537637 -0.06686067 0.54194824
v -0.44537637 -0.06686067 0.54194824
v -0.45580611 -0.05769792 0.54194824
v -0.45580611 -0.05769792 0.54194824
v -0.44820872 -0.06761694 0.54194824
v -0.44820872 -0.06761694 0.54194824
v -0.45619131 -0.06060408 0.54194824
v -0.45619131 -0.06060408 0.54194824
v -0.45111488 -0.06723176 0.54194824
v -0.45111488 -0.06723176 0.54194824
v -0.45543501 -0.06343642 0.54194824
v -0.45543501 -0.06343642 0.54194824
v -0.45365242 -0.06576376 0.54194824
v -0.45365242 -0.06576376 0.54194824
v -0.45365242 -0.06576376 0.55004790
v -0.45365242 -0.06576376 0.55004790
v -0.45111488 -0.06723176 0.55004790
v -0.45111488 -0.06723176 0.55004790
v -0.44820872 -0.06761694 0.55004790
v -0.44820872 -0.06761694 0.55004790
v -0.44537637 -0.06686067 0.55004790
v -0.44537637 -0.06686067 0.55004790
v -0.44304906 -0.06507807 0.55004790
v -0.44304906 -0.06507807 0.55004790
v -0.44158105 -0.06254053 0.55004790
v -0.44158105 -0.06254053 0.55004790
v -0.44119585 -0.05963437 0.55004790
v -0.44119585 -0.05963437 0.55004790
v -0.44195215 -0.05680202 0.55004790
v -0.44195215 -0.05680202 0.55004790
v -0.44373474 -0.05447469 0.55004790
v -0.44373474 -0.05447469 0.55004790
v -0.44627229 -0.05300669 0.55004790
v -0.44627229 -0.05300669 0.55004790
v -0.44917844 -0.05262151 0.55004790
v -0.44917844 -0.05262151 0.55004790
v -0.45201079 -0.05337778 0.55004790
v -0.45201079 -0.05337778 0.55004790
v -0.45433810 -0.05516038 0.55004790
v -0.45433810 -0.05516038 0.55004790
v -0.45580611 -0.05769792 0.55004790
v -0.45580611 -0.05769792 0.55004790
v -0.45619131 -0.06060408 0.55004790
v -0.45619131 -0.06060408 0.55004790
v -0.45543501 -0.06343642 0.55004790
v -0.45543501 -0.06343642 0.55004790
v -0.44509432 -0.05637477 0.55004790
v -0.44509432 -0.05637477 0.55004790
v -0.44618612 -0.05557080 0.55004790
v -0.44618612 -0.05557080 0.55004790
v -0.44744877 -0.05507680 0.55004790
v -0.44744877 -0.05507680 0.55004790
v -0.44879624 -0.05492643 0.55004790
v -0.44879624 -0.05492643 0.55004790
v -0.45013675 -0.05512995 0.55004790
v -0.45013675 -0.05512995 0.55004790
v -0.45137889 -0.05567347 0.55004790
v -0.45137889 -0.05567347 0.55004790
v -0.45243803 -0.05651997 0.55004790
v -0.45243803 -0.05651997 0.55004790
v -0.45257651 -0.05670800 0.55004790
v -0.45257651 -0.05670800 0.55004790
v -0.45324201 -0.05761175 0.55004790
v -0.45324201 -0.05761175 0.55004790
v -0.45373601 -0.05887441 0.55004790
v -0.45373601 -0.05887441 0.55004790
v -0.45388636 -0.06022190 0.55004790
v -0.45388636 -0.06022190 0.55004790
v -0.45368287 -0.06156239 0.55004790
v -0.45368287 -0.06156239 0.55004790
v -0.45313932 -0.06280454 0.55004790
v -0.45313932 -0.06280454 0.55004790
v -0.45229284 -0.06386368 0.55004790
v -0.45229284 -0.06386368 0.55004790
v -0.45210481 -0.06400215 0.55004790
v -0.45210481 -0.06400215 0.55004790
v -0.45120104 -0.06466765 0.55004790
v -0.45120104 -0.06466765 0.55004790
v -0.44993839 -0.06516165 0.55004790
v -0.44993839 -0.06516165 0.55004790
v -0.44859092 -0.06531202 0.55004790
v -0.44859092 -0.06531202 0.55004790
v -0.44725041 -0.06510850 0.55004790
v -0.44725041 -0.06510850 0.55004790
v -0.44600827 -0.06456498 0.55004790
v -0.44600827 -0.06456498 0.55004790
v -0.44494913 -0.06371848 0.55004790
v -0.44494913 -0.06371848 0.55004790
v -0.44481065 -0.06353045 0.55004790
v -0.44481065 -0.06353045 0.55004790
v -0.44414515 -0.06262670 0.55004790
v -0.44414515 -0.06262670 0.55004790
v -0.44365115 -0.06136404 0.55004790
v -0.44365115 -0.06136404 0.55004790
v -0.44350081 -0.06001655 0.55004790
v -0.44350081 -0.06001655 0.55004790
v -0.44370429 -0.05867606 0.55004790
v -0.44370429 -0.05867606 0.55004790
v -0.44424784 -0.05743391 0.55004790
v -0.44424784 -0.05743391 0.55004790
v -0.44528236 -0.05623630 0.55004790
v -0.44528236 -0.05623630 0.55004790
v -0.44414515 -0.06262670 0.55006514
v -0.44481065 -0.06353045 0.55006514
v -0.44494913 -0.06371848 0.55006514
v -0.44600827 -0.06456498 0.55006514
v -0.44725041 -0.06510850 0.55006514
v -0.44859092 -0.06531202 0.55006514
v -0.44993839 -0.06516165 0.55006514
v -0.45120104 -0.06466765 0.55006514
v -0.45210481 -0.06400215 0.55006514
v -0.45229284 -0.06386368 0.55006514
v -0.45313932 -0.06280454 0.55006514
v -0.45368287 -0.06156239 0.55006514
v -0.45388636 -0.06022190 0.55006514
v -0.45373601 -0.05887441 0.55006514
v -0.45324201 -0.05761175 0.55006514
v -0.45257651 -0.05670800 0.55006514
v -0.45243803 -0.05651997 0.55006514
v -0.45137889 -0.05567347 0.55006514
v -0.45013675 -0.05512995 0.55006514
v -0.44879624 -0.05492643 0.55006514
v -0.44744877 -0.05507680 0.55006514
v -0.44618612 -0.05557080 0.55006514
v -0.44528236 -0.05623630 0.55006514
v -0.44509432 -0.05637477 0.55006514
v -0.44424784 -0.05743391 0.55006514
v -0.44370429 -0.05867606 0.55006514
v -0.44350081 -0.06001655 0.55006514
v -0.44365115 -0.06136404 0.55006514
v -0.45357790 -0.06166753 0.53938668
v -0.45205902 -0.06391338 0.53938668
v -0.44963626 -0.06513037 0.53938668
v -0.44380110 -0.05975770 0.54194818
v -0.44369436 -0.06112952 0.54194818
v -0.44482819 -0.06346244 0.54194818
v -0.44699565 -0.06488732 0.54194818
v -0.44836980 -0.06495813 0.54194818
v -0.44538438 -0.05631577 0.54194818
v -0.44775538 -0.05512479 0.54194818
v -0.44900154 -0.05518901 0.54194818
v -0.44389793 -0.05851366 0.54194818
v -0.45037569 -0.05525982 0.54194818
v -0.45254315 -0.05668470 0.54194818
v -0.45367698 -0.05901762 0.54194818
v -0.45357024 -0.06038944 0.54194818
v -0.44961596 -0.06502235 0.54194818
v -0.45198696 -0.06383136 0.54194818
v -0.45347340 -0.06163348 0.54194818
v -0.44963865 -0.06513049 0.53938668
v -0.45205985 -0.06391431 0.53938668
v -0.45357772 -0.06166993 0.53938668
f 1 4 5
f 5 8 1
f 9 1 8
f 8 12 9
f 14 9 12
f 12 15 14
f 15 12 18
f 18 20 15
f 22 15 20
f 20 23 22
f 25 22 23
f 23 28 25
f 30 25 28
f 28 31 30
f 34 32 27
f 27 35 34
f 35 27 24
f 24 38 35
f 24 19 39
f 39 38 24
f 19 17 42
f 42 39 19
f 17 11 43
f 43 42 17
f 11 7 46
f 46 43 11
f 6 47 46
f 46 7 6
f 3 50 47
f 47 6 3
f 2 51 50
f 50 3 2
f 10 54 51
f 51 2 10
f 10 13 55
f 55 54 10
f 13 16 58
f 58 55 13
f 16 21 59
f 59 58 16
f 21 26 62
f 62 59 21
f 62 26 29
f 29 63 62
f 63 29 32
f 32 34 63
f 48 49 52
f 52 53 48
f 45 48 53
f 53 65 45
f 68 65 53
f 53 69 68
f 69 53 56
f 56 72 69
f 73 72 56
f 56 57 73
f 76 73 57
f 57 78 76
f 79 78 57
f 57 60 79
f 82 79 60
f 60 84 82
f 86 84 60
f 60 61 86
f 87 86 61
f 61 89 87
f 92 89 61
f 61 37 92
f 93 92 37
f 37 95 93
f 98 95 37
f 37 100 98
f 100 37 40
f 40 102 100
f 104 102 40
f 40 106 104
f 106 40 41
f 41 108 106
f 110 108 41
f 41 112 110
f 112 41 44
f 44 113 112
f 116 113 44
f 44 117 116
f 117 44 45
f 45 65 117
f 37 61 64
f 64 36 37
f 36 64 33
f 65 68 120
f 107 109 121
f 121 122 107
f 105 107 122
f 122 123 105
f 103 105 123
f 123 124 103
f 101 103 124
f 124 125 101
f 99 101 125
f 125 126 99
f 127 97 99
f 99 126 127
f 128 96 97
f 97 127 128
f 129 94 96
f 96 128 129
f 130 91 94
f 94 129 130
f 131 90 91
f 91 130 131
f 132 88 90
f 90 131 132
f 133 85 88
f 88 132 133
f 83 85 133
f 133 134 83
f 81 83 134
f 134 135 81
f 80 81 135
f 135 136 80
f 77 80 136
f 136 137 77
f 75 77 137
f 137 138 75
f 74 75 138
f 138 139 74
f 71 74 139
f 139 140 71
f 71 140 141
f 141 70 71
f 70 141 142
f 142 67 70
f 67 142 143
f 143 119 67
f 119 143 144
f 144 66 119
f 66 144 145
f 145 118 66
f 118 145 146
f 146 115 118
f 115 146 147
f 147 114 115
f 111 114 147
f 147 148 111
f 109 111 148
f 148 121 109
f 158 157 160
f 160 159 158
f 159 160 152
f 152 161 159
f 161 152 153
f 153 154 161
f 162 161 154
f 154 155 162
f 163 162 155
f 155 156 163
f 164 163 156
f 156 165 164
f 167 164 165
f 165 166 167
f 150 151 168
f 168 169 150
f 150 169 170
f 170 149 150

