# https://github.com/mikedh/trimesh
v -0.00514147 -0.07927463 0.31225240
v -0.00514147 -0.07927463 0.31225240
v -0.00514147 -0.07927463 0.31225240
v -0.00514147 -0.07927463 0.31225240
v -0.00514147 -0.07927463 0.31225240
v -0.01642240 -0.07927463 0.30097148
v -0.01642240 -0.07927463 0.30097148
v -0.01642240 -0.07927463 0.30097148
v -0.01642240 -0.07927463 0.30097148
v -0.01642240 -0.07927463 0.30097148
v -0.01673683 -0.08130364 0.30128591
v -0.01673683 -0.08130364 0.30128591
v -0.01673683 -0.08130364 0.30128591
v -0.01673683 -0.08130364 0.30128591
v -0.01673683 -0.08130364 0.30128591
v -0.01673683 -0.08130364 0.30128591
v -0.00538519 -0.08084741 0.31249614
v -0.00538519 -0.08084741 0.31249614
v -0.00538519 -0.08084741 0.31249614
v -0.00545590 -0.08130364 0.31256682
v -0.00545590 -0.08130364 0.31256682
v -0.00545590 -0.08130364 0.31256682
v -0.00545590 -0.08130364 0.31256682
v -0.00545590 -0.08130364 0.31256682
v -0.00545590 -0.08130364 0.31256682
v -0.01199287 -0.07921526 0.30882869
v -0.01199287 -0.07921526 0.30882869
v -0.01199287 -0.07921526 0.30882869
v -0.01317752 -0.07921526 0.30756030
v -0.01317752 -0.07921526 0.30756030
v -0.01317752 -0.07921526 0.30756030
v -0.01317752 -0.08130364 0.30756030
v -0.01317752 -0.08130364 0.30756030
v -0.01317752 -0.08130364 0.30756030
v -0.01199287 -0.08130364 0.30882869
v -0.01199287 -0.08130364 0.30882869
v -0.01199287 -0.08130364 0.30882869
v -0.01457433 -0.07921526 0.30655878
v -0.01457433 -0.07921526 0.30655878
v -0.01457433 -0.07921526 0.30655878
v -0.01608813 -0.07921526 0.30589236
v -0.01608813 -0.07921526 0.30589236
v -0.01608813 -0.07921526 0.30589236
v -0.01608813 -0.08130364 0.30589236
v -0.01608813 -0.08130364 0.30589236
v -0.01608813 -0.08130364 0.30589236
v -0.01457433 -0.08130364 0.30655878
v -0.01457433 -0.08130364 0.30655878
v -0.01457433 -0.08130364 0.30655878
v 0.01290072 -0.08588860 0.27681329
v 0.01290072 -0.08588860 0.27681329
v 0.01290072 -0.08588860 0.27681329
v 0.01900899 -0.08588860 0.28292157
v 0.01900899 -0.08588860 0.28292157
v 0.01900899 -0.08588860 0.28292157
v -0.01761573 -0.08130364 0.30560645
v -0.01761573 -0.08130364 0.30560645
v -0.01761573 -0.08130364 0.30560645
v -0.01761573 -0.07921526 0.30560645
v -0.01761573 -0.07921526 0.30560645
v -0.01761573 -0.07921526 0.30560645
v -0.01905306 -0.07921526 0.30572055
v -0.01905306 -0.07921526 0.30572055
v -0.01905306 -0.07921526 0.30572055
v -0.01905306 -0.08130364 0.30572055
v -0.01905306 -0.08130364 0.30572055
v -0.01905306 -0.08130364 0.30572055
v -0.01066800 -0.07921526 0.31469837
v -0.01066800 -0.07921526 0.31469837
v -0.01066800 -0.07921526 0.31469837
v -0.01066800 -0.08130364 0.31469837
v -0.01066800 -0.08130364 0.31469837
v -0.01066800 -0.08130364 0.31469837
v -0.01130386 -0.08130364 0.31586125
v -0.01130386 -0.08130364 0.31586125
v -0.01130386 -0.08130364 0.31586125
v -0.01130386 -0.07921526 0.31586125
v -0.01130386 -0.07921526 0.31586125
v -0.01130386 -0.07921526 0.31586125
v -0.01649359 -0.07921526 0.31705985
v -0.01649359 -0.07921526 0.31705985
v -0.01649359 -0.07921526 0.31705985
v -0.01649359 -0.08130364 0.31705985
v -0.01649359 -0.08130364 0.31705985
v -0.01649359 -0.08130364 0.31705985
v -0.02519660 -0.08130364 0.32576286
v -0.02519660 -0.08130364 0.32576286
v -0.02519660 -0.08130364 0.32576286
v -0.02519660 -0.07921525 0.32576286
v -0.02519660 -0.07921525 0.32576286
v -0.02519660 -0.07921525 0.32576286
v -0.01352866 -0.07921526 0.31723165
v -0.01352866 -0.07921526 0.31723165
v -0.01352866 -0.07921526 0.31723165
v -0.01352866 -0.08130364 0.31723165
v -0.01352866 -0.08130364 0.31723165
v -0.01352866 -0.08130364 0.31723165
v -0.01496598 -0.08130364 0.31734575
v -0.01496598 -0.08130364 0.31734575
v -0.01496598 -0.08130364 0.31734575
v -0.01496598 -0.07921526 0.31734575
v -0.01496598 -0.07921526 0.31734575
v -0.01496598 -0.07921526 0.31734575
v -0.00538519 -0.07921526 0.31249614
v -0.00538519 -0.07921526 0.31249614
v -0.00538519 -0.07921526 0.31249614
v -0.00545590 -0.07921526 0.31256682
v -0.00545590 -0.07921526 0.31256682
v -0.00545590 -0.07921526 0.31256682
v -0.00545590 -0.07921526 0.31256682
v 0.01869456 -0.08791762 0.28323600
v 0.01869456 -0.08791762 0.28323600
v 0.01869456 -0.08791762 0.28323600
v -0.03114069 -0.07921525 0.32263656
v -0.03114069 -0.07921525 0.32263656
v -0.03114069 -0.07921525 0.32263656
v -0.03090712 -0.07921525 0.32350344
v -0.03090712 -0.07921525 0.32350344
v -0.03090712 -0.07921525 0.32350344
v -0.03090712 -0.08130364 0.32350344
v -0.03090712 -0.08130364 0.32350344
v -0.03090712 -0.08130364 0.32350344
v -0.03114069 -0.08130364 0.32263656
v -0.03114069 -0.08130364 0.32263656
v -0.03114069 -0.08130364 0.32263656
v -0.02201867 -0.07921526 0.31114420
v -0.02201867 -0.07921526 0.31114420
v -0.02201867 -0.07921526 0.31114420
v -0.02180689 -0.07921526 0.31174656
v -0.02180689 -0.07921526 0.31174656
v -0.02180689 -0.07921526 0.31174656
v -0.02180689 -0.08130364 0.31174656
v -0.02180689 -0.08130364 0.31174656
v -0.02180689 -0.08130364 0.31174656
v -0.02201867 -0.08130364 0.31114420
v -0.02201867 -0.08130364 0.31114420
v -0.02201867 -0.08130364 0.31114420
v -0.01227958 -0.08130364 0.31672533
v -0.01227958 -0.08130364 0.31672533
v -0.01227958 -0.08130364 0.31672533
v -0.01227958 -0.07921526 0.31672533
v -0.01227958 -0.07921526 0.31672533
v -0.01227958 -0.07921526 0.31672533
v -0.02580282 -0.08130364 0.32618801
v -0.02580282 -0.08130364 0.32618801
v -0.02580282 -0.08130364 0.32618801
v -0.02580282 -0.07921525 0.32618801
v -0.02580282 -0.07921525 0.32618801
v -0.02580282 -0.07921525 0.32618801
v -0.01673683 -0.07921526 0.30128591
v -0.01673683 -0.07921526 0.30128591
v -0.01673683 -0.07921526 0.30128591
v -0.01673683 -0.07921526 0.30128591
v -0.03093508 -0.08130364 0.32105577
v -0.03093508 -0.08130364 0.32105577
v -0.03093508 -0.08130364 0.32105577
v -0.02127786 -0.08130364 0.30709093
v -0.02127786 -0.08130364 0.30709093
v -0.02127786 -0.08130364 0.30709093
v -0.03760905 -0.08130364 0.32215814
v -0.03760905 -0.08130364 0.32215814
v -0.03760905 -0.08130364 0.32215814
v -0.03115023 -0.08130364 0.32180174
v -0.03115023 -0.08130364 0.32180174
v -0.03115023 -0.08130364 0.32180174
v -0.02632812 -0.08130364 0.33343905
v -0.02632812 -0.08130364 0.33343905
v -0.02632812 -0.08130364 0.33343905
v -0.03046544 -0.08130364 0.32434320
v -0.03046544 -0.08130364 0.32434320
v -0.03046544 -0.08130364 0.32434320
v -0.02984574 -0.08130364 0.32509870
v -0.02984574 -0.08130364 0.32509870
v -0.02984574 -0.08130364 0.32509870
v -0.02909026 -0.08130364 0.32571840
v -0.02909026 -0.08130364 0.32571840
v -0.02909026 -0.08130364 0.32571840
v -0.02825047 -0.08130364 0.32616008
v -0.02825047 -0.08130364 0.32616008
v -0.02825047 -0.08130364 0.32616008
v -0.02738362 -0.08130364 0.32639365
v -0.02738362 -0.08130364 0.32639365
v -0.02738362 -0.08130364 0.32639365
v -0.02654877 -0.08130364 0.32640319
v -0.02654877 -0.08130364 0.32640319
v -0.02654877 -0.08130364 0.32640319
v -0.01041532 -0.08130364 0.31331589
v -0.01041532 -0.08130364 0.31331589
v -0.01041532 -0.08130364 0.31331589
v -0.01056305 -0.08130364 0.31180801
v -0.01056305 -0.08130364 0.31180801
v -0.01056305 -0.08130364 0.31180801
v -0.01110113 -0.08130364 0.31027750
v -0.01110113 -0.08130364 0.31027750
v -0.01110113 -0.08130364 0.31027750
v -0.02030214 -0.08130364 0.30622687
v -0.02030214 -0.08130364 0.30622687
v -0.02030214 -0.08130364 0.30622687
v -0.03050990 -0.08130364 0.32044957
v -0.03050990 -0.08130364 0.32044957
v -0.03050990 -0.08130364 0.32044957
v -0.02191372 -0.08130364 0.30825383
v -0.02191372 -0.08130364 0.30825383
v -0.02191372 -0.08130364 0.30825383
v -0.02216640 -0.08130364 0.30963632
v -0.02216640 -0.08130364 0.30963632
v -0.02216640 -0.08130364 0.30963632
v -0.02632812 -0.07921525 0.33343905
v -0.02632812 -0.07921525 0.33343905
v -0.02632812 -0.07921525 0.33343905
v -0.03050990 -0.07921525 0.32044957
v -0.03050990 -0.07921525 0.32044957
v -0.03050990 -0.07921525 0.32044957
v -0.03093508 -0.07921525 0.32105577
v -0.03093508 -0.07921525 0.32105577
v -0.03093508 -0.07921525 0.32105577
v -0.03115023 -0.07921525 0.32180174
v -0.03115023 -0.07921525 0.32180174
v -0.03115023 -0.07921525 0.32180174
v 0.01258629 -0.08791762 0.27712772
v 0.01258629 -0.08791762 0.27712772
v 0.01258629 -0.08791762 0.27712772
v -0.01666613 -0.07921526 0.30121520
v -0.01666613 -0.07921526 0.30121520
v -0.01666613 -0.07921526 0.30121520
v -0.03046544 -0.07921525 0.32434320
v -0.03046544 -0.07921525 0.32434320
v -0.03046544 -0.07921525 0.32434320
v -0.03760905 -0.07921525 0.32215814
v -0.03760905 -0.07921525 0.32215814
v -0.03760905 -0.07921525 0.32215814
v -0.02127786 -0.07921526 0.30709093
v -0.02127786 -0.07921526 0.30709093
v -0.02127786 -0.07921526 0.30709093
v -0.02984574 -0.07921525 0.32509870
v -0.02984574 -0.07921525 0.32509870
v -0.02984574 -0.07921525 0.32509870
v -0.02909026 -0.07921525 0.32571840
v -0.02909026 -0.07921525 0.32571840
v -0.02909026 -0.07921525 0.32571840
v -0.02825047 -0.07921525 0.32616008
v -0.02825047 -0.07921525 0.32616008
v -0.02825047 -0.07921525 0.32616008
v -0.02738362 -0.07921525 0.32639365
v -0.02738362 -0.07921525 0.32639365
v -0.02738362 -0.07921525 0.32639365
v -0.02654877 -0.07921525 0.32640319
v -0.02654877 -0.07921525 0.32640319
v -0.02654877 -0.07921525 0.32640319
v -0.01041532 -0.07921526 0.31331589
v -0.01041532 -0.07921526 0.31331589
v -0.01041532 -0.07921526 0.31331589
v -0.01056305 -0.07921526 0.31180801
v -0.01056305 -0.07921526 0.31180801
v -0.01056305 -0.07921526 0.31180801
v -0.01110113 -0.07921526 0.31027750
v -0.01110113 -0.07921526 0.31027750
v -0.01110113 -0.07921526 0.31027750
v -0.02030214 -0.07921526 0.30622687
v -0.02030214 -0.07921526 0.30622687
v -0.02030214 -0.07921526 0.30622687
v -0.02191372 -0.07921526 0.30825383
v -0.02191372 -0.07921526 0.30825383
v -0.02191372 -0.07921526 0.30825383
v -0.02216640 -0.07921526 0.30963632
v -0.02216640 -0.07921526 0.30963632
v -0.02216640 -0.07921526 0.30963632
v -0.00538519 -0.08130364 0.31249614
v 0.20705033 -0.07838023 0.12497912
v 0.20705033 -0.07838023 0.12497912
v 0.20705033 -0.07838023 0.12497912
v 0.20705033 -0.07838023 0.12497912
v 0.20705033 -0.07838023 0.12497912
v 0.21351382 -0.07838023 0.13956480
v 0.21351382 -0.07838023 0.13956480
v 0.21351382 -0.07838023 0.13956480
v 0.21351382 -0.07838023 0.13956480
v 0.21351382 -0.07838023 0.13956480
v 0.21392035 -0.08040925 0.13938465
v 0.21392035 -0.08040925 0.13938465
v 0.21392035 -0.08040925 0.13938465
v 0.21392035 -0.08040925 0.13938465
v 0.21392035 -0.08040925 0.13938465
v 0.21392035 -0.08040925 0.13938465
v 0.20736546 -0.07995301 0.12483947
v 0.20736546 -0.07995301 0.12483947
v 0.20736546 -0.07995301 0.12483947
v 0.20745687 -0.08040925 0.12479896
v 0.20745687 -0.08040925 0.12479896
v 0.20745687 -0.08040925 0.12479896
v 0.20745687 -0.08040925 0.12479896
v 0.20745687 -0.08040925 0.12479896
v 0.20745687 -0.08040925 0.12479896
v 0.21220985 -0.07832086 0.13063975
v 0.21220985 -0.07832086 0.13063975
v 0.21220985 -0.07832086 0.13063975
v 0.21285845 -0.07832086 0.13224956
v 0.21285845 -0.07832086 0.13224956
v 0.21285845 -0.07832086 0.13224956
v 0.21285845 -0.08040925 0.13224956
v 0.21285845 -0.08040925 0.13224956
v 0.21285845 -0.08040925 0.13224956
v 0.21220985 -0.08040925 0.13063975
v 0.21220985 -0.08040925 0.13063975
v 0.21220985 -0.08040925 0.13063975
v 0.21380107 -0.07832086 0.13368680
v 0.21380107 -0.07832086 0.13368680
v 0.21380107 -0.07832086 0.13368680
v 0.21497345 -0.07832086 0.13485352
v 0.21497345 -0.07832086 0.13485352
v 0.21497345 -0.07832086 0.13485352
v 0.21497345 -0.08040925 0.13485352
v 0.21497345 -0.08040925 0.13485352
v 0.21497345 -0.08040925 0.13485352
v 0.21380107 -0.08040925 0.13368680
v 0.21380107 -0.08040925 0.13368680
v 0.21380107 -0.08040925 0.13368680
v 0.17745984 -0.08499421 0.15154703
v 0.17745984 -0.08499421 0.15154703
v 0.17745984 -0.08499421 0.15154703
v 0.17396008 -0.08499421 0.14364933
v 0.17396008 -0.08499421 0.14364933
v 0.17396008 -0.08499421 0.14364933
v 0.21629571 -0.08040925 0.13567018
v 0.21629571 -0.08040925 0.13567018
v 0.21629571 -0.08040925 0.13567018
v 0.21629571 -0.07832086 0.13567018
v 0.21629571 -0.07832086 0.13567018
v 0.21629571 -0.07832086 0.13567018
v 0.21767774 -0.07832086 0.13608118
v 0.21767774 -0.07832086 0.13608118
v 0.21767774 -0.07832086 0.13608118
v 0.21767774 -0.08040925 0.13608118
v 0.21767774 -0.08040925 0.13608118
v 0.21767774 -0.08040925 0.13608118
v 0.21308686 -0.07832086 0.12468669
v 0.21308686 -0.07832086 0.12468669
v 0.21308686 -0.07832086 0.12468669
v 0.21308686 -0.08040925 0.12468669
v 0.21308686 -0.08040925 0.12468669
v 0.21308686 -0.08040925 0.12468669
v 0.21409874 -0.08040925 0.12383066
v 0.21409874 -0.08040925 0.12383066
v 0.21409874 -0.08040925 0.12383066
v 0.21409874 -0.07832086 0.12383066
v 0.21409874 -0.07832086 0.12383066
v 0.21409874 -0.07832086 0.12383066
v 0.21937199 -0.07832086 0.12458073
v 0.21937199 -0.07832086 0.12458073
v 0.21937199 -0.07832086 0.12458073
v 0.21937199 -0.08040925 0.12458073
v 0.21937199 -0.08040925 0.12458073
v 0.21937199 -0.08040925 0.12458073
v 0.23062457 -0.08040925 0.11959428
v 0.23062457 -0.08040925 0.11959428
v 0.23062457 -0.08040925 0.11959428
v 0.23062457 -0.07832086 0.11959428
v 0.23062457 -0.07832086 0.11959428
v 0.23062457 -0.07832086 0.11959428
v 0.21666770 -0.07832086 0.12335308
v 0.21666770 -0.07832086 0.12335308
v 0.21666770 -0.07832086 0.12335308
v 0.21666770 -0.08040925 0.12335308
v 0.21666770 -0.08040925 0.12335308
v 0.21666770 -0.08040925 0.12335308
v 0.21804973 -0.08040925 0.12376405
v 0.21804973 -0.08040925 0.12376405
v 0.21804973 -0.08040925 0.12376405
v 0.21804973 -0.07832086 0.12376405
v 0.21804973 -0.07832086 0.12376405
v 0.21804973 -0.07832086 0.12376405
v 0.20736546 -0.07832087 0.12483947
v 0.20736546 -0.07832087 0.12483947
v 0.20736546 -0.07832087 0.12483947
v 0.20745687 -0.07832087 0.12479896
v 0.20745687 -0.07832087 0.12479896
v 0.20745687 -0.07832087 0.12479896
v 0.20745687 -0.07832087 0.12479896
v 0.17436661 -0.08702323 0.14346917
v 0.17436661 -0.08702323 0.14346917
v 0.17436661 -0.08702323 0.14346917
v 0.23504467 -0.07832086 0.12465080
v 0.23504467 -0.07832086 0.12465080
v 0.23504467 -0.07832086 0.12465080
v 0.23513881 -0.07832086 0.12375799
v 0.23513881 -0.07832086 0.12375799
v 0.23513881 -0.07832086 0.12375799
v 0.23513881 -0.08040924 0.12375799
v 0.23513881 -0.08040924 0.12375799
v 0.23513881 -0.08040924 0.12375799
v 0.23504467 -0.08040924 0.12465080
v 0.23504467 -0.08040924 0.12465080
v 0.23504467 -0.08040924 0.12465080
v 0.22239702 -0.07832086 0.13208876
v 0.22239702 -0.07832086 0.13208876
v 0.22239702 -0.07832086 0.13208876
v 0.22241629 -0.07832086 0.13145055
v 0.22241629 -0.07832086 0.13145055
v 0.22241629 -0.07832086 0.13145055
v 0.22241629 -0.08040925 0.13145055
v 0.22241629 -0.08040925 0.13145055
v 0.22241629 -0.08040925 0.13145055
v 0.22239702 -0.08040925 0.13208876
v 0.22239702 -0.08040925 0.13208876
v 0.22239702 -0.08040925 0.13208876
v 0.21532009 -0.08040925 0.12337579
v 0.21532009 -0.08040925 0.12337579
v 0.21532009 -0.08040925 0.12337579
v 0.21532009 -0.07832086 0.12337579
v 0.21532009 -0.07832086 0.12337579
v 0.21532009 -0.07832086 0.12337579
v 0.23134318 -0.08040925 0.11941584
v 0.23134318 -0.08040925 0.11941584
v 0.23134318 -0.08040925 0.11941584
v 0.23134318 -0.07832086 0.11941584
v 0.23134318 -0.07832086 0.11941584
v 0.23134318 -0.07832086 0.11941584
v 0.21392035 -0.07832086 0.13938465
v 0.21392035 -0.07832086 0.13938465
v 0.21392035 -0.07832086 0.13938465
v 0.21392035 -0.07832086 0.13938465
v 0.23428374 -0.08040924 0.12605159
v 0.23428374 -0.08040924 0.12605159
v 0.23428374 -0.08040924 0.12605159
v 0.22024672 -0.08040925 0.13560358
v 0.22024672 -0.08040925 0.13560358
v 0.22024672 -0.08040925 0.13560358
v 0.24090712 -0.08040924 0.12742575
v 0.24090712 -0.08040924 0.12742575
v 0.24090712 -0.08040924 0.12742575
v 0.23475302 -0.08040924 0.12543311
v 0.23475302 -0.08040924 0.12543311
v 0.23475302 -0.08040924 0.12543311
v 0.23444362 -0.08040924 0.11284007
v 0.23444362 -0.08040924 0.11284007
v 0.23444362 -0.08040924 0.11284007
v 0.23502906 -0.08040924 0.12281550
v 0.23502906 -0.08040924 0.12281550
v 0.23502906 -0.08040924 0.12281550
v 0.23472288 -0.08040924 0.12188758
v 0.23472288 -0.08040924 0.12188758
v 0.23472288 -0.08040924 0.12188758
v 0.23424115 -0.08040924 0.12103746
v 0.23424115 -0.08040924 0.12103746
v 0.23424115 -0.08040924 0.12103746
v 0.23361668 -0.08040924 0.12032307
v 0.23361668 -0.08040924 0.12032307
v 0.23361668 -0.08040924 0.12032307
v 0.23289202 -0.08040924 0.11979310
v 0.23289202 -0.08040924 0.11979310
v 0.23289202 -0.08040924 0.11979310
v 0.23211659 -0.08040924 0.11948366
v 0.23211659 -0.08040924 0.11948366
v 0.23211659 -0.08040924 0.11948366
v 0.21235343 -0.08040925 0.12588552
v 0.21235343 -0.08040925 0.12588552
v 0.21235343 -0.08040925 0.12588552
v 0.21194844 -0.08040925 0.12734548
v 0.21194844 -0.08040925 0.12734548
v 0.21194844 -0.08040925 0.12734548
v 0.21189946 -0.08040925 0.12896705
v 0.21189946 -0.08040925 0.12896705
v 0.21189946 -0.08040925 0.12896705
v 0.21902535 -0.08040925 0.13605845
v 0.21902535 -0.08040925 0.13605845
v 0.21902535 -0.08040925 0.13605845
v 0.23366883 -0.08040924 0.12646411
v 0.23366883 -0.08040924 0.12646411
v 0.23366883 -0.08040924 0.12646411
v 0.22125858 -0.08040925 0.13474755
v 0.22125858 -0.08040925 0.13474755
v 0.22125858 -0.08040925 0.13474755
v 0.22199202 -0.08040925 0.13354872
v 0.22199202 -0.08040925 0.13354872
v 0.22199202 -0.08040925 0.13354872
v 0.23444362 -0.07832086 0.11284007
v 0.23444362 -0.07832086 0.11284007
v 0.23444362 -0.07832086 0.11284007
v 0.23366883 -0.07832086 0.12646411
v 0.23366883 -0.07832086 0.12646411
v 0.23366883 -0.07832086 0.12646411
v 0.23428374 -0.07832086 0.12605159
v 0.23428374 -0.07832086 0.12605159
v 0.23428374 -0.07832086 0.12605159
v 0.23475302 -0.07832086 0.12543311
v 0.23475302 -0.07832086 0.12543311
v 0.23475302 -0.07832086 0.12543311
v 0.17786639 -0.08702323 0.15136687
v 0.17786639 -0.08702323 0.15136687
v 0.17786639 -0.08702323 0.15136687
v 0.21382894 -0.07832086 0.13942515
v 0.21382894 -0.07832086 0.13942515
v 0.21382894 -0.07832086 0.13942515
v 0.23502906 -0.07832086 0.12281550
v 0.23502906 -0.07832086 0.12281550
v 0.23502906 -0.07832086 0.12281550
v 0.24090712 -0.07832086 0.12742575
v 0.24090712 -0.07832086 0.12742575
v 0.24090712 -0.07832086 0.12742575
v 0.22024672 -0.07832086 0.13560358
v 0.22024672 -0.07832086 0.13560358
v 0.22024672 -0.07832086 0.13560358
v 0.23472288 -0.07832086 0.12188758
v 0.23472288 -0.07832086 0.12188758
v 0.23472288 -0.07832086 0.12188758
v 0.23424115 -0.07832086 0.12103746
v 0.23424115 -0.07832086 0.12103746
v 0.23424115 -0.07832086 0.12103746
v 0.23361668 -0.07832086 0.12032307
v 0.23361668 -0.07832086 0.12032307
v 0.23361668 -0.07832086 0.12032307
v 0.23289202 -0.07832086 0.11979310
v 0.23289202 -0.07832086 0.11979310
v 0.23289202 -0.07832086 0.11979310
v 0.23211659 -0.07832086 0.11948366
v 0.23211659 -0.07832086 0.11948366
v 0.23211659 -0.07832086 0.11948366
v 0.21235343 -0.07832086 0.12588552
v 0.21235343 -0.07832086 0.12588552
v 0.21235343 -0.07832086 0.12588552
v 0.21194844 -0.07832086 0.12734548
v 0.21194844 -0.07832086 0.12734548
v 0.21194844 -0.07832086 0.12734548
v 0.21189946 -0.07832086 0.12896705
v 0.21189946 -0.07832086 0.12896705
v 0.21189946 -0.07832086 0.12896705
v 0.21902535 -0.07832086 0.13605845
v 0.21902535 -0.07832086 0.13605845
v 0.21902535 -0.07832086 0.13605845
v 0.22125858 -0.07832086 0.13474755
v 0.22125858 -0.07832086 0.13474755
v 0.22125858 -0.07832086 0.13474755
v 0.22199202 -0.07832086 0.13354872
v 0.22199202 -0.07832086 0.13354872
v 0.22199202 -0.07832086 0.13354872
v 0.20736546 -0.08040925 0.12483947
v 0.20408490 -0.07931761 0.31470530
v 0.20408490 -0.07931761 0.31470530
v 0.20408490 -0.07931761 0.31470530
v 0.20408490 -0.07931761 0.31470530
v 0.20408490 -0.07931761 0.31470530
v 0.19182798 -0.07931761 0.32491739
v 0.19182798 -0.07931761 0.32491739
v 0.19182798 -0.07931761 0.32491739
v 0.19182798 -0.07931761 0.32491739
v 0.19182798 -0.07931761 0.32491739
v 0.19211260 -0.08134663 0.32525902
v 0.19211260 -0.08134663 0.32525902
v 0.19211260 -0.08134663 0.32525902
v 0.19211260 -0.08134663 0.32525902
v 0.19211260 -0.08134663 0.32525902
v 0.19211260 -0.08134663 0.32525902
v 0.20430554 -0.08089039 0.31497012
v 0.20430554 -0.08089039 0.31497012
v 0.20430554 -0.08089039 0.31497012
v 0.20436954 -0.08134663 0.31504693
v 0.20436954 -0.08134663 0.31504693
v 0.20436954 -0.08134663 0.31504693
v 0.20436954 -0.08134663 0.31504693
v 0.20436954 -0.08134663 0.31504693
v 0.20436954 -0.08134663 0.31504693
v 0.20005432 -0.07925824 0.32121823
v 0.20005432 -0.07925824 0.32121823
v 0.20005432 -0.07925824 0.32121823
v 0.19868378 -0.07925824 0.32228304
v 0.19868378 -0.07925824 0.32228304
v 0.19868378 -0.07925824 0.32228304
v 0.19868378 -0.08134663 0.32228304
v 0.19868378 -0.08134663 0.32228304
v 0.19868378 -0.08134663 0.32228304
v 0.20005432 -0.08134663 0.32121823
v 0.20005432 -0.08134663 0.32121823
v 0.20005432 -0.08134663 0.32121823
v 0.19755977 -0.07925824 0.32358332
v 0.19755977 -0.07925824 0.32358332
v 0.19755977 -0.07925824 0.32358332
v 0.19675888 -0.07925824 0.32503048
v 0.19675888 -0.07925824 0.32503048
v 0.19675888 -0.07925824 0.32503048
v 0.19675888 -0.08134663 0.32503048
v 0.19675888 -0.08134663 0.32503048
v 0.19675888 -0.08134663 0.32503048
v 0.19755977 -0.08134663 0.32358332
v 0.19755977 -0.08134663 0.32358332
v 0.19755977 -0.08134663 0.32358332
v 0.17042686 -0.08593157 0.29352542
v 0.17042686 -0.08593157 0.29352542
v 0.17042686 -0.08593157 0.29352542
v 0.17706360 -0.08593157 0.28799590
v 0.17706360 -0.08593157 0.28799590
v 0.17706360 -0.08593157 0.28799590
v 0.19633571 -0.08134663 0.32652590
v 0.19633571 -0.08134663 0.32652590
v 0.19633571 -0.08134663 0.32652590
v 0.19633571 -0.07925824 0.32652590
v 0.19633571 -0.07925824 0.32652590
v 0.19633571 -0.07925824 0.32652590
v 0.19631905 -0.07925824 0.32796763
v 0.19631905 -0.07925824 0.32796763
v 0.19631905 -0.07925824 0.32796763
v 0.19631905 -0.08134663 0.32796763
v 0.19631905 -0.08134663 0.32796763
v 0.19631905 -0.08134663 0.32796763
v 0.20601991 -0.07925824 0.32043078
v 0.20601991 -0.07925824 0.32043078
v 0.20601991 -0.07925824 0.32043078
v 0.20601991 -0.08134663 0.32043078
v 0.20601991 -0.08134663 0.32043078
v 0.20601991 -0.08134663 0.32043078
v 0.20712038 -0.08134663 0.32116941
v 0.20712038 -0.08134663 0.32116941
v 0.20712038 -0.08134663 0.32116941
v 0.20712038 -0.07925824 0.32116941
v 0.20712038 -0.07925824 0.32116941
v 0.20712038 -0.07925824 0.32116941
v 0.20784367 -0.07925825 0.32644642
v 0.20784367 -0.07925825 0.32644642
v 0.20784367 -0.07925825 0.32644642
v 0.20784367 -0.08134663 0.32644642
v 0.20784367 -0.08134663 0.32644642
v 0.20784367 -0.08134663 0.32644642
v 0.21572209 -0.08134664 0.33590239
v 0.21572209 -0.08134664 0.33590239
v 0.21572209 -0.08134664 0.33590239
v 0.21572209 -0.07925825 0.33590239
v 0.21572209 -0.07925825 0.33590239
v 0.21572209 -0.07925825 0.33590239
v 0.20828350 -0.07925825 0.32350926
v 0.20828350 -0.07925825 0.32350926
v 0.20828350 -0.07925825 0.32350926
v 0.20828350 -0.08134663 0.32350926
v 0.20828350 -0.08134663 0.32350926
v 0.20828350 -0.08134663 0.32350926
v 0.20826685 -0.08134663 0.32495103
v 0.20826685 -0.08134663 0.32495103
v 0.20826685 -0.08134663 0.32495103
v 0.20826685 -0.07925825 0.32495103
v 0.20826685 -0.07925825 0.32495103
v 0.20826685 -0.07925825 0.32495103
v 0.20430554 -0.07925824 0.31497012
v 0.20430554 -0.07925824 0.31497012
v 0.20430554 -0.07925824 0.31497012
v 0.20436954 -0.07925824 0.31504693
v 0.20436954 -0.07925824 0.31504693
v 0.20436954 -0.07925824 0.31504693
v 0.20436954 -0.07925824 0.31504693
v 0.17734824 -0.08796058 0.28833752
v 0.17734824 -0.08796058 0.28833752
v 0.17734824 -0.08796058 0.28833752
v 0.21206994 -0.07925825 0.34153869
v 0.21206994 -0.07925825 0.34153869
v 0.21206994 -0.07925825 0.34153869
v 0.21295440 -0.07925825 0.34138463
v 0.21295440 -0.07925825 0.34138463
v 0.21295440 -0.07925825 0.34138463
v 0.21295440 -0.08134664 0.34138463
v 0.21295440 -0.08134664 0.34138463
v 0.21295440 -0.08134664 0.34138463
v 0.21206994 -0.08134664 0.34153869
v 0.21206994 -0.08134664 0.34153869
v 0.21206994 -0.08134664 0.34153869
v 0.20145161 -0.07925825 0.33141262
v 0.20145161 -0.07925825 0.33141262
v 0.20145161 -0.07925825 0.33141262
v 0.20207068 -0.07925825 0.33125629
v 0.20207068 -0.07925825 0.33125629
v 0.20207068 -0.07925825 0.33125629
v 0.20207068 -0.08134663 0.33125629
v 0.20207068 -0.08134663 0.33125629
v 0.20207068 -0.08134663 0.33125629
v 0.20145161 -0.08134663 0.33141262
v 0.20145161 -0.08134663 0.33141262
v 0.20145161 -0.08134663 0.33141262
v 0.20789245 -0.08134663 0.32221944
v 0.20789245 -0.08134663 0.32221944
v 0.20789245 -0.08134663 0.32221944
v 0.20789245 -0.07925825 0.32221944
v 0.20789245 -0.07925825 0.32221944
v 0.20789245 -0.07925825 0.32221944
v 0.21609057 -0.08134664 0.33654465
v 0.21609057 -0.08134664 0.33654465
v 0.21609057 -0.08134664 0.33654465
v 0.21609057 -0.07925825 0.33654465
v 0.21609057 -0.07925825 0.33654465
v 0.21609057 -0.07925825 0.33654465
v 0.19211260 -0.07925824 0.32525902
v 0.19211260 -0.07925824 0.32525902
v 0.19211260 -0.07925824 0.32525902
v 0.19211260 -0.07925824 0.32525902
v 0.21051428 -0.08134664 0.34119062
v 0.21051428 -0.08134664 0.34119062
v 0.21051428 -0.08134664 0.34119062
v 0.19748217 -0.08134663 0.33030749
v 0.19748217 -0.08134663 0.33030749
v 0.19748217 -0.08134663 0.33030749
v 0.21100723 -0.08134664 0.34793705
v 0.21100723 -0.08134664 0.34793705
v 0.21100723 -0.08134664 0.34793705
v 0.21123768 -0.08134664 0.34147252
v 0.21123768 -0.08134664 0.34147252
v 0.21123768 -0.08134664 0.34147252
v 0.22326415 -0.08134664 0.33772497
v 0.22326415 -0.08134664 0.33772497
v 0.22326415 -0.08134664 0.33772497
v 0.21383075 -0.08134664 0.34102090
v 0.21383075 -0.08134664 0.34102090
v 0.21383075 -0.08134664 0.34102090
v 0.21463930 -0.08134664 0.34047223
v 0.21463930 -0.08134664 0.34047223
v 0.21463930 -0.08134664 0.34047223
v 0.21532492 -0.08134664 0.33977600
v 0.21532492 -0.08134664 0.33977600
v 0.21532492 -0.08134664 0.33977600
v 0.21584090 -0.08134664 0.33897971
v 0.21584090 -0.08134664 0.33897971
v 0.21584090 -0.08134664 0.33897971
v 0.21615206 -0.08134664 0.33813759
v 0.21615206 -0.08134664 0.33813759
v 0.21615206 -0.08134664 0.33813759
v 0.21623722 -0.08134664 0.33730705
v 0.21623722 -0.08134664 0.33730705
v 0.21623722 -0.08134664 0.33730705
v 0.20466600 -0.08134663 0.32005385
v 0.20466600 -0.08134663 0.32005385
v 0.20466600 -0.08134663 0.32005385
v 0.20315095 -0.08134663 0.32006431
v 0.20315095 -0.08134663 0.32006431
v 0.20315095 -0.08134663 0.32006431
v 0.20157799 -0.08134663 0.32046144
v 0.20157799 -0.08134663 0.32046144
v 0.20157799 -0.08134663 0.32046144
v 0.19671010 -0.08134663 0.32925746
v 0.19671010 -0.08134663 0.32925746
v 0.19671010 -0.08134663 0.32925746
v 0.20994909 -0.08134664 0.34071226
v 0.20994909 -0.08134664 0.34071226
v 0.20994909 -0.08134664 0.34071226
v 0.19858266 -0.08134663 0.33104615
v 0.19858266 -0.08134663 0.33104615
v 0.19858266 -0.08134663 0.33104615
v 0.19993656 -0.08134663 0.33142307
v 0.19993656 -0.08134663 0.33142307
v 0.19993656 -0.08134663 0.33142307
v 0.22326415 -0.07925825 0.33772497
v 0.22326415 -0.07925825 0.33772497
v 0.22326415 -0.07925825 0.33772497
v 0.20994909 -0.07925825 0.34071226
v 0.20994909 -0.07925825 0.34071226
v 0.20994909 -0.07925825 0.34071226
v 0.21051428 -0.07925825 0.34119062
v 0.21051428 -0.07925825 0.34119062
v 0.21051428 -0.07925825 0.34119062
v 0.21123768 -0.07925825 0.34147252
v 0.21123768 -0.07925825 0.34147252
v 0.21123768 -0.07925825 0.34147252
v 0.17071150 -0.08796058 0.29386705
v 0.17071150 -0.08796058 0.29386705
v 0.17071150 -0.08796058 0.29386705
v 0.19204861 -0.07925824 0.32518220
v 0.19204861 -0.07925824 0.32518220
v 0.19204861 -0.07925824 0.32518220
v 0.21383075 -0.07925825 0.34102090
v 0.21383075 -0.07925825 0.34102090
v 0.21383075 -0.07925825 0.34102090
v 0.21100723 -0.07925825 0.34793705
v 0.21100723 -0.07925825 0.34793705
v 0.21100723 -0.07925825 0.34793705
v 0.19748217 -0.07925825 0.33030749
v 0.19748217 -0.07925825 0.33030749
v 0.19748217 -0.07925825 0.33030749
v 0.21463930 -0.07925825 0.34047223
v 0.21463930 -0.07925825 0.34047223
v 0.21463930 -0.07925825 0.34047223
v 0.21532492 -0.07925825 0.33977600
v 0.21532492 -0.07925825 0.33977600
v 0.21532492 -0.07925825 0.33977600
v 0.21584090 -0.07925825 0.33897971
v 0.21584090 -0.07925825 0.33897971
v 0.21584090 -0.07925825 0.33897971
v 0.21615206 -0.07925825 0.33813759
v 0.21615206 -0.07925825 0.33813759
v 0.21615206 -0.07925825 0.33813759
v 0.21623722 -0.07925825 0.33730705
v 0.21623722 -0.07925825 0.33730705
v 0.21623722 -0.07925825 0.33730705
v 0.20466600 -0.07925824 0.32005385
v 0.20466600 -0.07925824 0.32005385
v 0.20466600 -0.07925824 0.32005385
v 0.20315095 -0.07925824 0.32006431
v 0.20315095 -0.07925824 0.32006431
v 0.20315095 -0.07925824 0.32006431
v 0.20157799 -0.07925824 0.32046144
v 0.20157799 -0.07925824 0.32046144
v 0.20157799 -0.07925824 0.32046144
v 0.19671010 -0.07925824 0.32925746
v 0.19671010 -0.07925824 0.32925746
v 0.19671010 -0.07925824 0.32925746
v 0.19858266 -0.07925825 0.33104615
v 0.19858266 -0.07925825 0.33104615
v 0.19858266 -0.07925825 0.33104615
v 0.19993656 -0.07925825 0.33142307
v 0.19993656 -0.07925825 0.33142307
v 0.19993656 -0.07925825 0.33142307
v 0.20430554 -0.08134663 0.31497012
v -0.02892390 -0.07929850 0.15592181
v -0.02892390 -0.07929850 0.15592181
v -0.02892390 -0.07929850 0.15592181
v -0.02892390 -0.07929850 0.15592181
v -0.02892390 -0.07929850 0.15592181
v -0.02094705 -0.07929850 0.14210555
v -0.02094705 -0.07929850 0.14210555
v -0.02094705 -0.07929850 0.14210555
v -0.02094705 -0.07929850 0.14210555
v -0.02094705 -0.07929850 0.14210555
v -0.02133215 -0.08132751 0.14188321
v -0.02133215 -0.08132751 0.14188321
v -0.02133215 -0.08132751 0.14188321
v -0.02133215 -0.08132751 0.14188321
v -0.02133215 -0.08132751 0.14188321
v -0.02133215 -0.08132751 0.14188321
v -0.02922240 -0.08087128 0.15574946
v -0.02922240 -0.08087128 0.15574946
v -0.02922240 -0.08087128 0.15574946
v -0.02930899 -0.08132751 0.15569946
v -0.02930899 -0.08132751 0.15569946
v -0.02930899 -0.08132751 0.15569946
v -0.02930899 -0.08132751 0.15569946
v -0.02930899 -0.08132751 0.15569946
v -0.02930899 -0.08132751 0.15569946
v -0.02739011 -0.07923913 0.14841774
v -0.02739011 -0.07923913 0.14841774
v -0.02739011 -0.07923913 0.14841774
v -0.02647155 -0.07923913 0.14694518
v -0.02647155 -0.07923913 0.14694518
v -0.02647155 -0.07923913 0.14694518
v -0.02647155 -0.08132751 0.14694518
v -0.02647155 -0.08132751 0.14694518
v -0.02647155 -0.08132751 0.14694518
v -0.02739011 -0.08132751 0.14841774
v -0.02739011 -0.08132751 0.14841774
v -0.02739011 -0.08132751 0.14841774
v -0.02586565 -0.07923913 0.14533674
v -0.02586565 -0.07923913 0.14533674
v -0.02586565 -0.07923913 0.14533674
v -0.02561373 -0.07923913 0.14370204
v -0.02561373 -0.07923913 0.14370204
v -0.02561373 -0.07923913 0.14370204
v -0.02561373 -0.08132751 0.14370204
v -0.02561373 -0.08132751 0.14370204
v -0.02561373 -0.08132751 0.14370204
v -0.02586565 -0.08132751 0.14533674
v -0.02586565 -0.08132751 0.14533674
v -0.02586565 -0.08132751 0.14533674
v 0.00997730 -0.08591247 0.16417697
v 0.00997730 -0.08591247 0.16417697
v 0.00997730 -0.08591247 0.16417697
v 0.00565809 -0.08591247 0.17165803
v 0.00565809 -0.08591247 0.17165803
v 0.00565809 -0.08591247 0.17165803
v -0.02573294 -0.08132751 0.14215249
v -0.02573294 -0.08132751 0.14215249
v -0.02573294 -0.08132751 0.14215249
v -0.02573294 -0.07923913 0.14215249
v -0.02573294 -0.07923913 0.14215249
v -0.02573294 -0.07923913 0.14215249
v -0.02621515 -0.07923913 0.14079367
v -0.02621515 -0.07923913 0.14079367
v -0.02621515 -0.07923913 0.14079367
v -0.02621515 -0.08132751 0.14079367
v -0.02621515 -0.08132751 0.14079367
v -0.02621515 -0.08132751 0.14079367
v -0.03271687 -0.07923913 0.15121663
v -0.03271687 -0.07923913 0.15121663
v -0.03271687 -0.07923913 0.15121663
v -0.03271687 -0.08132751 0.15121663
v -0.03271687 -0.08132751 0.15121663
v -0.03271687 -0.08132751 0.15121663
v -0.03400472 -0.08132751 0.15090342
v -0.03400472 -0.08132751 0.15090342
v -0.03400472 -0.08132751 0.15090342
v -0.03400472 -0.07923913 0.15090342
v -0.03400472 -0.07923913 0.15090342
v -0.03400472 -0.07923913 0.15090342
v -0.03650566 -0.07923913 0.14620073
v -0.03650566 -0.07923913 0.14620073
v -0.03650566 -0.07923913 0.14620073
v -0.03650566 -0.08132751 0.14620073
v -0.03650566 -0.08132751 0.14620073
v -0.03650566 -0.08132751 0.14620073
v -0.04716461 -0.08132751 0.14004676
v -0.04716461 -0.08132751 0.14004676
v -0.04716461 -0.08132751 0.14004676
v -0.04716461 -0.07923913 0.14004676
v -0.04716461 -0.07923913 0.14004676
v -0.04716461 -0.07923913 0.14004676
v -0.03590423 -0.07923913 0.14910911
v -0.03590423 -0.07923913 0.14910911
v -0.03590423 -0.07923913 0.14910911
v -0.03590423 -0.08132751 0.14910911
v -0.03590423 -0.08132751 0.14910911
v -0.03590423 -0.08132751 0.14910911
v -0.03638645 -0.08132751 0.14775029
v -0.03638645 -0.08132751 0.14775029
v -0.03638645 -0.08132751 0.14775029
v -0.03638645 -0.07923913 0.14775029
v -0.03638645 -0.07923913 0.14775029
v -0.03638645 -0.07923913 0.14775029
v -0.02922240 -0.07923913 0.15574946
v -0.02922240 -0.07923913 0.15574946
v -0.02922240 -0.07923913 0.15574946
v -0.02930899 -0.07923913 0.15569946
v -0.02930899 -0.07923913 0.15569946
v -0.02930899 -0.07923913 0.15569946
v -0.02930899 -0.07923913 0.15569946
v 0.00527300 -0.08794148 0.17143570
v 0.00527300 -0.08794148 0.17143570
v 0.00527300 -0.08794148 0.17143570
v -0.04568329 -0.07923913 0.13349607
v -0.04568329 -0.07923913 0.13349607
v -0.04568329 -0.07923913 0.13349607
v -0.04646016 -0.07923913 0.13394604
v -0.04646016 -0.07923913 0.13394604
v -0.04646016 -0.07923913 0.13394604
v -0.04646016 -0.08132751 0.13394604
v -0.04646016 -0.08132751 0.13394604
v -0.04646016 -0.08132751 0.13394604
v -0.04568329 -0.08132751 0.13349607
v -0.04568329 -0.08132751 0.13349607
v -0.04568329 -0.08132751 0.13349607
v -0.03222155 -0.07923913 0.13933284
v -0.03222155 -0.07923913 0.13933284
v -0.03222155 -0.07923913 0.13933284
v -0.03274857 -0.07923913 0.13969330
v -0.03274857 -0.07923913 0.13969330
v -0.03274857 -0.07923913 0.13969330
v -0.03274857 -0.08132751 0.13969330
v -0.03274857 -0.08132751 0.13969330
v -0.03274857 -0.08132751 0.13969330
v -0.03222155 -0.08132751 0.13933284
v -0.03222155 -0.08132751 0.13933284
v -0.03222155 -0.08132751 0.13933284
v -0.03509187 -0.08132751 0.15018457
v -0.03509187 -0.08132751 0.15018457
v -0.03509187 -0.08132751 0.15018457
v -0.03509187 -0.07923913 0.15018457
v -0.03509187 -0.07923913 0.15018457
v -0.03509187 -0.07923913 0.15018457
v -0.04773220 -0.08132751 0.13957124
v -0.04773220 -0.08132751 0.13957124
v -0.04773220 -0.08132751 0.13957124
v -0.04773220 -0.07923913 0.13957124
v -0.04773220 -0.07923913 0.13957124
v -0.04773220 -0.07923913 0.13957124
v -0.02133215 -0.07923913 0.14188321
v -0.02133215 -0.07923913 0.14188321
v -0.02133215 -0.07923913 0.14188321
v -0.02133215 -0.07923913 0.14188321
v -0.04410314 -0.08132751 0.13328555
v -0.04410314 -0.08132751 0.13328555
v -0.04410314 -0.08132751 0.13328555
v -0.02811467 -0.08132751 0.13899935
v -0.02811467 -0.08132751 0.13899935
v -0.02811467 -0.08132751 0.13899935
v -0.04689528 -0.08132751 0.12712428
v -0.04689528 -0.08132751 0.12712428
v -0.04689528 -0.08132751 0.12712428
v -0.04487935 -0.08132751 0.13327078
v -0.04487935 -0.08132751 0.13327078
v -0.04487935 -0.08132751 0.13327078
v -0.05487212 -0.08132751 0.14094053
v -0.05487212 -0.08132751 0.14094053
v -0.05487212 -0.08132751 0.14094053
v -0.04715700 -0.08132751 0.13459003
v -0.04715700 -0.08132751 0.13459003
v -0.04715700 -0.08132751 0.13459003
v -0.04772636 -0.08132751 0.13538414
v -0.04772636 -0.08132751 0.13538414
v -0.04772636 -0.08132751 0.13538414
v -0.04812941 -0.08132751 0.13627427
v -0.04812941 -0.08132751 0.13627427
v -0.04812941 -0.08132751 0.13627427
v -0.04833869 -0.08132751 0.13719975
v -0.04833869 -0.08132751 0.13719975
v -0.04833869 -0.08132751 0.13719975
v -0.04833994 -0.08132751 0.13809752
v -0.04833994 -0.08132751 0.13809752
v -0.04833994 -0.08132751 0.13809752
v -0.04813309 -0.08132751 0.13890639
v -0.04813309 -0.08132751 0.13890639
v -0.04813309 -0.08132751 0.13890639
v -0.03131609 -0.08132751 0.15110289
v -0.03131609 -0.08132751 0.15110289
v -0.03131609 -0.08132751 0.15110289
v -0.02989783 -0.08132751 0.15056993
v -0.02989783 -0.08132751 0.15056993
v -0.02989783 -0.08132751 0.15056993
v -0.02855876 -0.08132751 0.14965407
v -0.02855876 -0.08132751 0.14965407
v -0.02855876 -0.08132751 0.14965407
v -0.02702752 -0.08132751 0.13971819
v -0.02702752 -0.08132751 0.13971819
v -0.02702752 -0.08132751 0.13971819
v -0.04340753 -0.08132751 0.13353932
v -0.04340753 -0.08132751 0.13353932
v -0.04340753 -0.08132751 0.13353932
v -0.02940252 -0.08132751 0.13868614
v -0.02940252 -0.08132751 0.13868614
v -0.02940252 -0.08132751 0.13868614
v -0.03080330 -0.08132751 0.13879988
v -0.03080330 -0.08132751 0.13879988
v -0.03080330 -0.08132751 0.13879988
v -0.05487212 -0.07923913 0.14094053
v -0.05487212 -0.07923913 0.14094053
v -0.05487212 -0.07923913 0.14094053
v -0.04340753 -0.07923913 0.13353932
v -0.04340753 -0.07923913 0.13353932
v -0.04340753 -0.07923913 0.13353932
v -0.04410314 -0.07923913 0.13328555
v -0.04410314 -0.07923913 0.13328555
v -0.04410314 -0.07923913 0.13328555
v -0.04487935 -0.07923913 0.13327078
v -0.04487935 -0.07923913 0.13327078
v -0.04487935 -0.07923913 0.13327078
v 0.00959221 -0.08794148 0.16395463
v 0.00959221 -0.08794148 0.16395463
v 0.00959221 -0.08794148 0.16395463
v -0.02124556 -0.07923913 0.14193321
v -0.02124556 -0.07923913 0.14193321
v -0.02124556 -0.07923913 0.14193321
v -0.04715700 -0.07923913 0.13459003
v -0.04715700 -0.07923913 0.13459003
v -0.04715700 -0.07923913 0.13459003
v -0.04689528 -0.07923913 0.12712428
v -0.04689528 -0.07923913 0.12712428
v -0.04689528 -0.07923913 0.12712428
v -0.02811467 -0.07923913 0.13899935
v -0.02811467 -0.07923913 0.13899935
v -0.02811467 -0.07923913 0.13899935
v -0.04772636 -0.07923913 0.13538414
v -0.04772636 -0.07923913 0.13538414
v -0.04772636 -0.07923913 0.13538414
v -0.04812941 -0.07923913 0.13627427
v -0.04812941 -0.07923913 0.13627427
v -0.04812941 -0.07923913 0.13627427
v -0.04833869 -0.07923913 0.13719975
v -0.04833869 -0.07923913 0.13719975
v -0.04833869 -0.07923913 0.13719975
v -0.04833994 -0.07923913 0.13809752
v -0.04833994 -0.07923913 0.13809752
v -0.04833994 -0.07923913 0.13809752
v -0.04813309 -0.07923913 0.13890639
v -0.04813309 -0.07923913 0.13890639
v -0.04813309 -0.07923913 0.13890639
v -0.03131609 -0.07923913 0.15110289
v -0.03131609 -0.07923913 0.15110289
v -0.03131609 -0.07923913 0.15110289
v -0.02989783 -0.07923913 0.15056993
v -0.02989783 -0.07923913 0.15056993
v -0.02989783 -0.07923913 0.15056993
v -0.02855876 -0.07923913 0.14965407
v -0.02855876 -0.07923913 0.14965407
v -0.02855876 -0.07923913 0.14965407
v -0.02702752 -0.07923913 0.13971819
v -0.02702752 -0.07923913 0.13971819
v -0.02702752 -0.07923913 0.13971819
v -0.02940252 -0.07923913 0.13868614
v -0.02940252 -0.07923913 0.13868614
v -0.02940252 -0.07923913 0.13868614
v -0.03080330 -0.07923913 0.13879988
v -0.03080330 -0.07923913 0.13879988
v -0.03080330 -0.07923913 0.13879988
v -0.02922240 -0.08132751 0.15574946
f 5 10 11
f 11 19 5
f 19 11 23
f 26 30 34
f 34 36 26
f 38 43 45
f 45 47 38
f 50 8 1
f 1 53 50
f 58 59 64
f 64 66 58
f 70 72 75
f 75 78 70
f 82 84 87
f 87 90 82
f 92 95 98
f 98 103 92
f 25 18 104
f 104 108 25
f 112 55 3
f 3 17 112
f 112 17 20
f 114 117 121
f 121 125 114
f 81 102 100
f 100 85 81
f 128 129 134
f 134 136 128
f 79 74 139
f 139 141 79
f 91 86 146
f 146 148 91
f 143 140 96
f 96 94 143
f 152 109 21
f 21 15 152
f 154 157 160
f 160 163 154
f 124 163 160
f 160 120 124
f 120 160 166
f 166 171 120
f 173 171 166
f 166 176 173
f 179 176 166
f 166 182 179
f 185 182 166
f 166 144 185
f 88 144 166
f 166 99 88
f 97 99 166
f 166 138 97
f 76 138 166
f 166 24 76
f 73 76 24
f 24 189 73
f 191 189 24
f 24 194 191
f 35 194 24
f 24 32 35
f 48 32 24
f 24 16 48
f 44 48 16
f 16 57 44
f 67 57 16
f 16 198 67
f 157 198 16
f 16 160 157
f 99 83 88
f 157 154 200
f 200 202 157
f 205 202 200
f 200 137 205
f 137 200 132
f 25 108 208
f 208 167 25
f 201 212 214
f 214 156 201
f 155 215 217
f 217 164 155
f 52 54 113
f 113 220 52
f 225 6 12
f 12 153 225
f 119 228 169
f 169 122 119
f 41 61 56
f 56 46 41
f 209 230 161
f 161 168 209
f 232 151 231
f 231 216 232
f 218 216 231
f 231 115 218
f 118 115 231
f 231 210 118
f 226 118 210
f 210 236 226
f 240 236 210
f 210 243 240
f 246 243 210
f 210 249 246
f 149 249 210
f 210 89 149
f 101 89 210
f 210 93 101
f 142 93 210
f 210 77 142
f 77 210 110
f 110 68 77
f 252 68 110
f 110 253 252
f 256 253 110
f 110 28 256
f 29 28 110
f 110 39 29
f 39 110 151
f 151 42 39
f 60 42 151
f 151 62 60
f 261 62 151
f 151 232 261
f 101 80 89
f 232 216 213
f 213 263 232
f 266 263 213
f 213 127 266
f 127 213 131
f 65 63 259
f 259 196 65
f 197 260 233
f 233 158 197
f 165 219 116
f 116 123 165
f 222 14 22
f 22 111 222
f 250 188 71
f 71 69 250
f 229 153 12
f 12 162 229
f 150 224 106
f 106 107 150
f 257 27 37
f 37 193 257
f 242 245 181
f 181 180 242
f 254 190 187
f 187 251 254
f 159 234 264
f 264 204 159
f 248 184 183
f 183 244 248
f 203 262 265
f 265 206 203
f 255 258 195
f 195 192 255
f 7 223 105
f 105 4 7
f 147 145 186
f 186 247 147
f 238 241 178
f 178 175 238
f 25 268 18
f 227 235 174
f 174 170 227
f 31 40 49
f 49 33 31
f 133 130 211
f 211 199 133
f 104 18 2
f 207 267 126
f 126 135 207
f 237 239 177
f 177 172 237
f 9 51 221
f 221 13 9
f 269 276 282
f 282 285 269
f 285 282 289
f 296 298 302
f 302 305 296
f 308 309 313
f 313 316 308
f 318 278 272
f 272 321 318
f 325 327 332
f 332 335 325
f 337 340 344
f 344 345 337
f 350 353 356
f 356 357 350
f 360 365 367
f 367 370 360
f 293 286 372
f 372 378 293
f 381 322 270
f 270 287 381
f 381 287 290
f 382 387 389
f 389 391 382
f 348 369 366
f 366 351 348
f 396 398 400
f 400 404 396
f 346 343 406
f 406 411 346
f 359 354 414
f 414 417 359
f 409 407 364
f 364 362 409
f 419 376 292
f 292 284 419
f 422 426 428
f 428 431 422
f 392 431 428
f 428 390 392
f 390 428 435
f 435 438 390
f 441 438 435
f 435 444 441
f 448 444 435
f 435 449 448
f 453 449 435
f 435 412 453
f 355 412 435
f 435 368 355
f 363 368 435
f 435 408 363
f 342 408 435
f 435 288 342
f 339 342 288
f 288 456 339
f 459 456 288
f 288 461 459
f 303 461 288
f 288 301 303
f 317 301 288
f 288 279 317
f 314 317 279
f 279 326 314
f 333 326 279
f 279 466 333
f 426 466 279
f 279 428 426
f 368 352 355
f 426 422 467
f 467 472 426
f 474 472 467
f 467 403 474
f 403 467 402
f 293 378 477
f 477 434 293
f 469 479 484
f 484 423 469
f 424 482 487
f 487 432 424
f 319 323 379
f 379 488 319
f 491 277 280
f 280 420 491
f 386 495 439
f 439 388 386
f 310 328 324
f 324 312 310
f 478 498 430
f 430 436 478
f 502 421 497
f 497 483 502
f 486 483 497
f 497 384 486
f 385 384 497
f 497 476 385
f 494 385 476
f 476 504 494
f 506 504 476
f 476 509 506
f 512 509 476
f 476 517 512
f 416 517 476
f 476 358 416
f 371 358 476
f 476 361 371
f 410 361 476
f 476 347 410
f 347 476 377
f 377 336 347
f 518 336 377
f 377 521 518
f 524 521 377
f 377 295 524
f 297 295 377
f 377 307 297
f 307 377 421
f 421 311 307
f 329 311 421
f 421 330 329
f 527 330 421
f 421 502 527
f 371 349 358
f 502 483 481
f 481 530 502
f 533 530 481
f 481 394 533
f 394 481 397
f 334 331 528
f 528 465 334
f 464 529 501
f 501 427 464
f 433 485 383
f 383 393 433
f 490 283 291
f 291 380 490
f 519 455 341
f 341 338 519
f 499 420 280
f 280 429 499
f 418 493 373
f 373 375 418
f 525 294 304
f 304 463 525
f 510 514 450
f 450 446 510
f 523 458 457
f 457 520 523
f 425 500 532
f 532 471 425
f 516 454 451
f 451 513 516
f 470 531 535
f 535 475 470
f 522 526 462
f 462 460 522
f 275 492 374
f 374 273 275
f 415 413 452
f 452 515 415
f 508 511 447
f 447 443 508
f 293 536 286
f 496 503 442
f 442 437 496
f 299 306 315
f 315 300 299
f 401 399 480
f 480 468 401
f 372 286 271
f 473 534 395
f 395 405 473
f 505 507 445
f 445 440 505
f 274 320 489
f 489 281 274
f 537 543 548
f 548 554 537
f 554 548 559
f 564 566 568
f 568 572 564
f 574 577 581
f 581 584 574
f 586 545 538
f 538 590 586
f 593 596 599
f 599 601 593
f 606 607 611
f 611 614 606
f 617 621 623
f 623 626 617
f 630 632 634
f 634 639 630
f 561 555 640
f 640 646 561
f 648 591 541
f 541 553 648
f 648 553 560
f 651 654 656
f 656 661 651
f 618 638 635
f 635 620 618
f 663 665 668
f 668 671 663
f 615 612 675
f 675 678 615
f 625 624 680
f 680 684 625
f 679 676 633
f 633 628 679
f 686 643 558
f 558 550 686
f 692 694 697
f 697 701 692
f 659 701 697
f 697 658 659
f 658 697 702
f 702 705 658
f 710 705 702
f 702 713 710
f 715 713 702
f 702 718 715
f 722 718 702
f 702 681 722
f 622 681 702
f 702 636 622
f 631 636 702
f 702 674 631
f 610 674 702
f 702 556 610
f 608 610 556
f 556 724 608
f 727 724 556
f 556 730 727
f 571 730 556
f 556 570 571
f 585 570 556
f 556 552 585
f 582 585 552
f 552 592 582
f 603 592 552
f 552 734 603
f 694 734 552
f 552 697 694
f 636 619 622
f 694 692 736
f 736 739 694
f 743 739 736
f 736 673 743
f 673 736 669
f 561 646 746
f 746 703 561
f 737 747 750
f 750 691 737
f 690 751 755
f 755 700 690
f 588 589 647
f 647 756 588
f 760 546 547
f 547 689 760
f 653 764 707
f 707 657 653
f 578 597 594
f 594 580 578
f 744 766 698
f 698 704 744
f 768 688 765
f 765 752 768
f 754 752 765
f 765 652 754
f 655 652 765
f 765 745 655
f 762 655 745
f 745 773 762
f 776 773 745
f 745 779 776
f 781 779 745
f 745 784 781
f 683 784 745
f 745 627 683
f 637 627 745
f 745 629 637
f 677 629 745
f 745 613 677
f 613 745 644
f 644 604 613
f 788 604 644
f 644 790 788
f 794 790 644
f 644 562 794
f 565 562 644
f 644 576 565
f 576 644 688
f 688 579 576
f 595 579 688
f 688 598 595
f 796 598 688
f 688 768 796
f 637 616 627
f 768 752 748
f 748 799 768
f 801 799 748
f 748 664 801
f 664 748 666
f 602 600 795
f 795 732 602
f 733 797 770
f 770 695 733
f 699 753 650
f 650 660 699
f 758 549 557
f 557 649 758
f 787 725 609
f 609 605 787
f 767 689 547
f 547 696 767
f 687 759 642
f 642 645 687
f 792 563 573
f 573 731 792
f 778 780 719
f 719 716 778
f 789 728 723
f 723 786 789
f 693 769 798
f 798 740 693
f 783 721 717
f 717 782 783
f 738 800 802
f 802 741 738
f 791 793 729
f 729 726 791
f 542 761 641
f 641 539 542
f 685 682 720
f 720 785 685
f 774 777 714
f 714 712 774
f 561 804 555
f 763 771 708
f 708 706 763
f 567 575 583
f 583 569 567
f 670 667 749
f 749 735 670
f 640 555 540
f 742 803 662
f 662 672 742
f 772 775 711
f 711 709 772
f 544 587 757
f 757 551 544
f 807 811 819
f 819 821 807
f 821 819 828
f 832 833 836
f 836 839 832
f 842 845 848
f 848 852 842
f 854 810 806
f 806 859 854
f 862 863 868
f 868 869 862
f 874 875 880
f 880 882 874
f 886 888 892
f 892 893 886
f 898 900 902
f 902 906 898
f 827 822 909
f 909 914 827
f 917 857 808
f 808 823 917
f 917 823 824
f 918 922 926
f 926 927 918
f 884 905 903
f 903 889 884
f 931 933 936
f 936 940 931
f 881 879 942
f 942 947 881
f 895 891 948
f 948 952 895
f 946 943 899
f 899 897 946
f 954 911 826
f 826 818 954
f 959 962 964
f 964 968 959
f 928 968 964
f 964 924 928
f 924 964 971
f 971 974 924
f 976 974 971
f 971 979 976
f 983 979 971
f 971 985 983
f 988 985 971
f 971 950 988
f 890 950 971
f 971 904 890
f 901 904 971
f 971 944 901
f 878 944 971
f 971 825 878
f 877 878 825
f 825 991 877
f 996 991 825
f 825 997 996
f 840 997 825
f 825 837 840
f 851 837 825
f 825 820 851
f 849 851 820
f 820 861 849
f 870 861 820
f 820 1000 870
f 962 1000 820
f 820 964 962
f 904 887 890
f 962 959 1005
f 1005 1006 962
f 1009 1006 1005
f 1005 939 1009
f 939 1005 938
f 827 914 1013
f 1013 972 827
f 1004 1017 1018
f 1018 958 1004
f 960 1020 1022
f 1022 967 960
f 855 858 915
f 915 1024 855
f 1027 813 815
f 815 957 1027
f 921 1032 973
f 973 925 921
f 847 865 860
f 860 850 847
f 1014 1035 965
f 965 970 1014
f 1037 955 1033
f 1033 1019 1037
f 1023 1019 1033
f 1033 920 1023
f 923 920 1033
f 1033 1012 923
f 1030 923 1012
f 1012 1039 1030
f 1043 1039 1012
f 1012 1046 1043
f 1050 1046 1012
f 1012 1052 1050
f 951 1052 1012
f 1012 894 951
f 907 894 1012
f 1012 896 907
f 945 896 1012
f 1012 883 945
f 883 1012 913
f 913 872 883
f 1054 872 913
f 913 1058 1054
f 1061 1058 913
f 913 831 1061
f 834 831 913
f 913 843 834
f 843 913 955
f 955 846 843
f 864 846 955
f 955 867 864
f 1065 867 955
f 955 1037 1065
f 907 885 894
f 1037 1019 1015
f 1015 1068 1037
f 1070 1068 1015
f 1015 932 1070
f 932 1015 935
f 871 866 1064
f 1064 1002 871
f 1001 1063 1036
f 1036 961 1001
f 969 1021 919
f 919 929 969
f 1026 816 829
f 829 916 1026
f 1055 993 876
f 876 873 1055
f 1034 957 815
f 815 966 1034
f 956 1028 908
f 908 912 956
f 1062 830 841
f 841 999 1062
f 1045 1049 986
f 986 982 1045
f 1057 994 992
f 992 1056 1057
f 963 1038 1067
f 1067 1008 963
f 1053 989 987
f 987 1048 1053
f 1007 1066 1069
f 1069 1011 1007
f 1059 1060 998
f 998 995 1059
f 812 1029 910
f 910 805 812
f 953 949 990
f 990 1051 953
f 1042 1047 984
f 984 981 1042
f 827 1072 822
f 1031 1040 978
f 978 975 1031
f 835 844 853
f 853 838 835
f 937 934 1016
f 1016 1003 937
f 909 822 809
f 1010 1071 930
f 930 941 1010
f 1041 1044 980
f 980 977 1041
f 814 856 1025
f 1025 817 814

