# https://github.com/mikedh/trimesh
v 0.03700769 -0.10999615 0.63352223
v 0.03700769 -0.10999615 0.63352223
v 0.03700769 -0.10999615 0.63352223
v 0.02705009 -0.10999615 0.63352223
v 0.02705009 -0.10999615 0.63352223
v 0.02705009 -0.10999615 0.63352223
v 0.02705009 -0.10857450 0.63352223
v 0.02705009 -0.10857450 0.63352223
v 0.02705009 -0.10857450 0.63352223
v 0.03700769 -0.10857450 0.63352223
v 0.03700769 -0.10857450 0.63352223
v 0.03700769 -0.10857450 0.63352223
v 0.02705009 -0.10999615 0.77945483
v 0.02705009 -0.10999615 0.77945483
v 0.02705009 -0.10999615 0.77945483
v 0.02705009 -0.10999615 0.77945483
v 0.02705009 -0.10999615 0.77945483
v 0.03700769 -0.10999615 0.77945483
v 0.03700769 -0.10999615 0.77945483
v 0.03700769 -0.10999615 0.77945483
v 0.03700769 -0.10857450 0.77945483
v 0.03700769 -0.10857450 0.77945483
v 0.03700769 -0.10857450 0.77945483
v 0.02705009 -0.10857450 0.77945483
v 0.02705009 -0.10857450 0.77945483
v 0.02705009 -0.10857450 0.77945483
v 0.02705009 -0.10999615 0.66889985
v 0.02705009 -0.10999615 0.66889985
v 0.02705009 -0.10999615 0.66889985
v 0.02705009 -0.10999615 0.66889985
v 0.02705009 -0.10999615 0.66889985
v 0.03700769 -0.11007032 0.77945483
v 0.03700769 -0.11007032 0.77945483
v 0.03700769 -0.11007032 0.77945483
v 0.03700769 -0.11007032 0.66889985
v 0.03700769 -0.11007032 0.66889985
v 0.03700769 -0.11007032 0.66889985
v 0.03696331 -0.11602874 0.66889985
v 0.03696331 -0.11602874 0.66889985
v 0.03696331 -0.11602874 0.66889985
v 0.03696331 -0.11602874 0.77945483
v 0.03696331 -0.11602874 0.77945483
v 0.03696331 -0.11602874 0.77945483
v 0.02700570 -0.11595457 0.77945483
v 0.02700570 -0.11595457 0.77945483
v 0.02700570 -0.11595457 0.77945483
v 0.02700570 -0.11595457 0.66889985
v 0.02700570 -0.11595457 0.66889985
v 0.02700570 -0.11595457 0.66889985
f 1 4 8
f 8 10 1
f 14 20 23
f 23 26 14
f 2 11 22
f 22 19 2
f 21 12 9
f 9 24 21
f 7 5 28
f 28 25 7
f 25 28 13
f 3 18 15
f 15 6 3
f 6 15 29
f 33 36 30
f 30 16 33
f 38 41 46
f 46 48 38
f 37 40 47
f 47 27 37
f 39 35 34
f 34 42 39
f 44 43 32
f 32 14 44
f 31 49 45
f 45 17 31

