# https://github.com/mikedh/trimesh
v -0.19940309 -0.12696555 0.61760335
v -0.20498714 -0.13826397 0.64807662
v -0.21597760 -0.13283213 0.64807662
v -0.21597760 -0.13283213 0.64807662
v -0.21039358 -0.12153372 0.64807662
v -0.21039358 -0.12153372 0.64807662
v -0.19940309 -0.12696555 0.64807662
v -0.21597760 -0.13283213 0.57206255
v -0.21597760 -0.13283213 0.57206255
v -0.21368039 -0.12818407 0.57206255
v -0.20498714 -0.13826397 0.62209956
v -0.20498714 -0.13826397 0.57206255
v -0.20025348 -0.12868613 0.57206255
v -0.20025348 -0.12868613 0.57648106
v -0.20025348 -0.12868613 0.57648106
v -0.19940309 -0.12696555 0.57648106
v -0.19940309 -0.12696555 0.57648106
v -0.20498714 -0.13826397 0.59638640
v -0.21124395 -0.12325431 0.57206255
v -0.21124395 -0.12325431 0.57206255
v -0.21124395 -0.12325431 0.57648106
v -0.21124395 -0.12325431 0.57648106
v -0.21124395 -0.12325431 0.57648106
v -0.21597760 -0.13283213 0.59638640
v -0.21597760 -0.13283213 0.59638640
v -0.21039358 -0.12153372 0.57648106
v -0.21039358 -0.12153372 0.57648106
v -0.21039358 -0.12153372 0.57648106
v 0.03620453 -0.12296624 0.63977335
v 0.03620453 -0.12296624 0.63977335
v 0.03629426 -0.12514972 0.63969564
v 0.03629426 -0.12514972 0.63969564
v 0.03658286 -0.12512675 0.63935822
v 0.03658286 -0.12512675 0.63935822
v 0.03649314 -0.12294327 0.63943592
v 0.03649314 -0.12294327 0.63943592
v 0.02846723 -0.12319279 0.63699634
v 0.02846723 -0.12319279 0.63699634
v 0.02846723 -0.12319279 0.63699634
v 0.02820060 -0.12319726 0.63679899
v 0.02820060 -0.12319726 0.63679899
v 0.02829033 -0.12538074 0.63672123
v 0.02829033 -0.12538074 0.63672123
v 0.02855696 -0.12537628 0.63691864
v 0.02855696 -0.12537628 0.63691864
v 0.02855696 -0.12537628 0.63691864
v 0.02800190 -0.12319571 0.63650425
v 0.02800190 -0.12319571 0.63650425
v 0.02809162 -0.12537920 0.63642649
v 0.02809162 -0.12537920 0.63642649
v 0.03486408 -0.12303246 0.64011151
v 0.03486408 -0.12303246 0.64011151
v 0.03486408 -0.12303246 0.64011151
v 0.03495381 -0.12521594 0.64003374
v 0.03495381 -0.12521594 0.64003374
v 0.03495381 -0.12521594 0.64003374
v 0.03518047 -0.12302230 0.64019804
v 0.03518047 -0.12302230 0.64019804
v 0.03527019 -0.12520578 0.64012028
v 0.03527019 -0.12520578 0.64012028
v 0.02867670 -0.12527543 0.63400427
v 0.02867670 -0.12527543 0.63400427
v 0.02858697 -0.12309194 0.63408203
v 0.02858697 -0.12309194 0.63408203
v 0.02891717 -0.12307015 0.63383236
v 0.02891717 -0.12307015 0.63383236
v 0.02900690 -0.12525364 0.63375466
v 0.02900690 -0.12525364 0.63375466
v 0.02794661 -0.12535896 0.63563051
v 0.02794661 -0.12535896 0.63563051
v 0.02785687 -0.12317548 0.63570827
v 0.02785687 -0.12317548 0.63570827
v 0.02792044 -0.12315815 0.63526125
v 0.02792044 -0.12315815 0.63526125
v 0.02801017 -0.12534163 0.63518348
v 0.02801017 -0.12534163 0.63518348
v 0.02797439 -0.12537178 0.63605447
v 0.02797439 -0.12537178 0.63605447
v 0.02788466 -0.12318829 0.63613223
v 0.02788466 -0.12318829 0.63613223
v 0.03672048 -0.12292069 0.63903373
v 0.03672048 -0.12292069 0.63903373
v 0.03681021 -0.12510418 0.63895603
v 0.03681021 -0.12510418 0.63895603
v 0.03696079 -0.12508352 0.63851643
v 0.03696079 -0.12508352 0.63851643
v 0.03687106 -0.12290004 0.63859413
v 0.03687106 -0.12290004 0.63859413
v 0.03659090 -0.12286093 0.63705638
v 0.03659090 -0.12286093 0.63705638
v 0.03678961 -0.12286247 0.63735113
v 0.03678961 -0.12286247 0.63735113
v 0.03687934 -0.12504595 0.63727342
v 0.03687934 -0.12504595 0.63727342
v 0.03668063 -0.12504441 0.63697868
v 0.03668063 -0.12504441 0.63697868
v 0.02838810 -0.12529839 0.63434169
v 0.02838810 -0.12529839 0.63434169
v 0.02829837 -0.12311491 0.63441946
v 0.02829837 -0.12311491 0.63441946
v 0.03690684 -0.12286990 0.63772315
v 0.03690684 -0.12286990 0.63772315
v 0.03699658 -0.12505337 0.63764544
v 0.03699658 -0.12505337 0.63764544
v 0.02926646 -0.12305103 0.63368751
v 0.02926646 -0.12305103 0.63368751
v 0.02961104 -0.12303588 0.63365733
v 0.02961104 -0.12303588 0.63365733
v 0.02970077 -0.12521937 0.63357963
v 0.02970077 -0.12521937 0.63357963
v 0.02935619 -0.12523451 0.63360981
v 0.02935619 -0.12523451 0.63360981
v 0.02807103 -0.12313749 0.63482165
v 0.02807103 -0.12313749 0.63482165
v 0.02816076 -0.12532097 0.63474388
v 0.02816076 -0.12532097 0.63474388
v 0.03552505 -0.12300715 0.64016787
v 0.03552505 -0.12300715 0.64016787
v 0.03561477 -0.12519064 0.64009011
v 0.03561477 -0.12519064 0.64009011
v 0.03693463 -0.12288271 0.63814717
v 0.03693463 -0.12288271 0.63814717
v 0.03702436 -0.12506619 0.63806940
v 0.03702436 -0.12506619 0.63806940
v 0.03587434 -0.12298803 0.64002301
v 0.03587434 -0.12298803 0.64002301
v 0.03632427 -0.12286539 0.63685903
v 0.03632427 -0.12286539 0.63685903
v 0.03632427 -0.12286539 0.63685903
v 0.02992742 -0.12302573 0.63374393
v 0.02992742 -0.12302573 0.63374393
v 0.02992742 -0.12302573 0.63374393
v 0.03641400 -0.12504887 0.63678127
v 0.03641400 -0.12504887 0.63678127
v 0.03641400 -0.12504887 0.63678127
v 0.03596406 -0.12517151 0.63994525
v 0.03596406 -0.12517151 0.63994525
v 0.03001715 -0.12520921 0.63366617
v 0.03001715 -0.12520921 0.63366617
v 0.03001715 -0.12520921 0.63366617
f 19 13 15
f 15 22 19
f 12 9 25
f 25 18 12
f 18 25 3
f 3 11 18
f 11 3 2
f 28 17 1
f 1 5 28
f 5 1 7
f 24 8 10
f 10 6 24
f 24 6 4
f 21 6 10
f 10 20 21
f 6 21 26
f 27 23 14
f 14 16 27
f 29 32 33
f 33 36 29
f 37 40 43
f 43 45 37
f 40 47 50
f 50 43 40
f 51 38 46
f 46 56 51
f 57 52 55
f 55 60 57
f 61 64 66
f 66 67 61
f 70 71 74
f 74 75 70
f 78 79 71
f 71 70 78
f 82 83 86
f 86 87 82
f 90 91 94
f 94 95 90
f 98 99 64
f 64 61 98
f 91 102 103
f 103 94 91
f 106 107 110
f 110 111 106
f 75 74 114
f 114 115 75
f 66 106 111
f 111 67 66
f 118 57 60
f 60 119 118
f 122 123 103
f 103 102 122
f 88 81 35
f 35 30 88
f 121 88 30
f 30 125 121
f 101 121 125
f 125 117 101
f 92 101 117
f 117 58 92
f 89 92 58
f 58 53 89
f 128 89 53
f 53 39 128
f 130 128 39
f 39 41 130
f 108 130 41
f 41 48 108
f 105 108 48
f 48 80 105
f 65 105 80
f 80 72 65
f 63 65 72
f 72 73 63
f 100 63 73
f 73 113 100
f 115 114 99
f 99 98 115
f 127 90 95
f 95 134 127
f 36 33 83
f 83 82 36
f 85 84 34
f 34 31 85
f 124 85 31
f 31 136 124
f 104 124 136
f 136 120 104
f 93 104 120
f 120 59 93
f 96 93 59
f 59 54 96
f 133 96 54
f 54 44 133
f 138 133 44
f 44 42 138
f 109 138 42
f 42 49 109
f 112 109 49
f 49 77 112
f 68 112 77
f 77 69 68
f 62 68 69
f 69 76 62
f 97 62 76
f 76 116 97
f 126 137 32
f 32 29 126
f 87 86 123
f 123 122 87
f 132 129 135
f 135 139 132
f 107 131 140
f 140 110 107
f 47 79 78
f 78 50 47
f 126 118 119
f 119 137 126

