# https://github.com/mikedh/trimesh
v 0.04080004 -0.07754421 0.27980393
v 0.04080004 -0.07754421 0.27980393
v 0.04080004 -0.07754421 0.27980393
v 0.03464839 -0.07604981 0.29854439
v 0.03464839 -0.07604981 0.29854439
v 0.03464839 -0.07604981 0.29854439
v 0.10124240 -0.07965336 0.32069154
v 0.10124240 -0.07965336 0.32069154
v 0.10124240 -0.07965336 0.32069154
v 0.10739404 -0.08114776 0.30195105
v 0.10739404 -0.08114776 0.30195105
v 0.10739404 -0.08114776 0.30195105
v 0.03431053 -0.08069735 0.29880412
v 0.03431053 -0.08069735 0.29880412
v 0.03431053 -0.08069735 0.29880412
v 0.04046218 -0.08219174 0.28006362
v 0.04046218 -0.08219174 0.28006362
v 0.04046218 -0.08219174 0.28006362
v 0.10705618 -0.08579529 0.30221077
v 0.10705618 -0.08579529 0.30221077
v 0.10705618 -0.08579529 0.30221077
v 0.10090454 -0.08430090 0.32095124
v 0.10090454 -0.08430090 0.32095124
v 0.10090454 -0.08430090 0.32095124
f 1 4 8
f 13 18 19
f 2 11 21
f 20 10 7
f 9 5 15
f 3 17 14
f 8 12 1
f 19 22 13
f 21 16 2
f 7 23 20
f 15 24 9
f 14 6 3

