# https://github.com/mikedh/trimesh
v -0.03607347 -0.07169831 0.54312157
v -0.03607347 -0.07169831 0.54312157
v -0.03607347 -0.07169831 0.54312157
v 0.01701528 -0.10234910 0.54312157
v 0.01701528 -0.10234910 0.54312157
v 0.01701528 -0.10234910 0.54312157
v 0.01701528 -0.10234910 0.54312157
v 0.02887310 -0.10456757 0.54312157
v 0.02887310 -0.10456757 0.54312157
v 0.02887310 -0.10456757 0.54312157
v -0.03082533 -0.06260827 0.54312157
v -0.03082533 -0.06260827 0.54312157
v -0.03082533 -0.06260827 0.54312157
v 0.03106177 -0.10077669 0.54312157
v 0.03106177 -0.10077669 0.54312157
v 0.03106177 -0.10077669 0.54312157
v 0.02226342 -0.09325906 0.54312157
v 0.02226342 -0.09325906 0.54312157
v 0.02226342 -0.09325906 0.54312157
v 0.01266202 -0.08771569 0.54312157
v 0.01266202 -0.08771569 0.54312157
v 0.01266202 -0.08771569 0.54312157
v 0.00680226 -0.08433256 0.54312157
v 0.00680226 -0.08433256 0.54312157
v 0.00680226 -0.08433256 0.54312157
v 0.01607998 -0.10396909 0.54036070
v 0.01607998 -0.10396909 0.54036070
v 0.01607998 -0.10396909 0.54036070
v -0.03700877 -0.07331829 0.54036070
v -0.03700877 -0.07331829 0.54036070
v -0.03700877 -0.07331829 0.54036070
v -0.03082533 -0.06260827 0.54036070
v -0.03082533 -0.06260827 0.54036070
v -0.03082533 -0.06260827 0.54036070
v 0.01701528 -0.10234910 0.54036070
v 0.01701528 -0.10234910 0.54036070
v 0.01701528 -0.10234910 0.54036070
v 0.02887310 -0.10456757 0.54036070
v 0.02887310 -0.10456757 0.54036070
v 0.02887310 -0.10456757 0.54036070
v 0.03106177 -0.10077669 0.54036070
v 0.03106177 -0.10077669 0.54036070
v 0.03106177 -0.10077669 0.54036070
v 0.02226342 -0.09325906 0.54036070
v 0.02226342 -0.09325906 0.54036070
v 0.02226342 -0.09325906 0.54036070
v -0.03700877 -0.07331829 0.54522298
v -0.03700877 -0.07331829 0.54522298
v -0.03700877 -0.07331829 0.54522298
v -0.03607347 -0.07169831 0.54522298
v -0.03607347 -0.07169831 0.54522298
v -0.03607347 -0.07169831 0.54522298
v 0.01607998 -0.10396909 0.54522298
v 0.01607998 -0.10396909 0.54522298
v 0.01607998 -0.10396909 0.54522298
v 0.01701528 -0.10234910 0.54522298
v 0.01701528 -0.10234910 0.54522298
v 0.01701528 -0.10234910 0.54522298
v 0.01266202 -0.08771569 0.54159609
v 0.01266202 -0.08771569 0.54159609
v 0.01266202 -0.08771569 0.54159609
v 0.00680226 -0.08433256 0.54159609
v 0.00680226 -0.08433256 0.54159609
v 0.00680226 -0.08433256 0.54159609
v 0.01028751 -0.07829593 0.54159609
v 0.01028751 -0.07829593 0.54159609
v 0.01028751 -0.07829593 0.54159609
v 0.01614727 -0.08167906 0.54159609
v 0.01614727 -0.08167906 0.54159609
v 0.01614727 -0.08167906 0.54159609
v 0.01066787 -0.07786769 0.54159609
v 0.01066787 -0.07786769 0.54159609
v 0.01066787 -0.07786769 0.54159609
v 0.01632797 -0.08113555 0.54159609
v 0.01632797 -0.08113555 0.54159609
v 0.01632797 -0.08113555 0.54159609
v 0.01122197 -0.07758391 0.54159609
v 0.01122197 -0.07758391 0.54159609
v 0.01122197 -0.07758391 0.54159609
v 0.01629667 -0.08051379 0.54159609
v 0.01629667 -0.08051379 0.54159609
v 0.01629667 -0.08051379 0.54159609
v 0.01191206 -0.07746393 0.54159609
v 0.01191206 -0.07746393 0.54159609
v 0.01191206 -0.07746393 0.54159609
v 0.01605554 -0.07985616 0.54159609
v 0.01605554 -0.07985616 0.54159609
v 0.01605554 -0.07985616 0.54159609
v 0.01269110 -0.07751593 0.54159609
v 0.01269110 -0.07751593 0.54159609
v 0.01269110 -0.07751593 0.54159609
v 0.01562098 -0.07920750 0.54159609
v 0.01562098 -0.07920750 0.54159609
v 0.01562098 -0.07920750 0.54159609
v 0.01350601 -0.07773636 0.54159609
v 0.01350601 -0.07773636 0.54159609
v 0.01350601 -0.07773636 0.54159609
v 0.01502263 -0.07861198 0.54159609
v 0.01502263 -0.07861198 0.54159609
v 0.01502263 -0.07861198 0.54159609
v 0.01430125 -0.07811020 0.54159609
v 0.01430125 -0.07811020 0.54159609
v 0.01430125 -0.07811020 0.54159609
v 0.01028751 -0.07829593 0.54312157
v 0.01028751 -0.07829593 0.54312157
v 0.01028751 -0.07829593 0.54312157
v 0.01614727 -0.08167906 0.54312157
v 0.01614727 -0.08167906 0.54312157
v 0.01614727 -0.08167906 0.54312157
v 0.01632797 -0.08113555 0.54312157
v 0.01632797 -0.08113555 0.54312157
v 0.01632797 -0.08113555 0.54312157
v 0.01562098 -0.07920750 0.54312157
v 0.01562098 -0.07920750 0.54312157
v 0.01562098 -0.07920750 0.54312157
v 0.01502263 -0.07861198 0.54312157
v 0.01502263 -0.07861198 0.54312157
v 0.01502263 -0.07861198 0.54312157
v 0.01605554 -0.07985616 0.54312157
v 0.01605554 -0.07985616 0.54312157
v 0.01605554 -0.07985616 0.54312157
v 0.01629667 -0.08051379 0.54312157
v 0.01629667 -0.08051379 0.54312157
v 0.01629667 -0.08051379 0.54312157
v 0.01269110 -0.07751593 0.54312157
v 0.01269110 -0.07751593 0.54312157
v 0.01269110 -0.07751593 0.54312157
v 0.01191206 -0.07746393 0.54312157
v 0.01191206 -0.07746393 0.54312157
v 0.01191206 -0.07746393 0.54312157
v 0.01122197 -0.07758391 0.54312157
v 0.01122197 -0.07758391 0.54312157
v 0.01122197 -0.07758391 0.54312157
v 0.01350601 -0.07773636 0.54312157
v 0.01350601 -0.07773636 0.54312157
v 0.01350601 -0.07773636 0.54312157
v 0.01430125 -0.07811020 0.54312157
v 0.01430125 -0.07811020 0.54312157
v 0.01430125 -0.07811020 0.54312157
v 0.01066787 -0.07786769 0.54312157
v 0.01066787 -0.07786769 0.54312157
v 0.01066787 -0.07786769 0.54312157
f 1 6 8
f 8 13 1
f 13 8 14
f 14 18 13
f 13 18 21
f 21 23 13
f 26 30 33
f 33 36 26
f 40 36 33
f 33 41 40
f 41 33 46
f 39 42 15
f 15 10 39
f 2 32 31
f 31 47 2
f 2 47 51
f 12 32 2
f 48 54 58
f 58 50 48
f 27 35 4
f 4 55 27
f 55 4 57
f 28 53 49
f 49 29 28
f 16 43 44
f 44 17 16
f 59 64 65
f 65 68 59
f 68 65 72
f 72 74 68
f 74 72 77
f 77 82 74
f 82 77 83
f 83 86 82
f 86 83 89
f 89 94 86
f 94 89 96
f 96 99 94
f 99 96 101
f 66 62 24
f 24 105 66
f 20 61 63
f 63 25 20
f 60 70 109
f 109 22 60
f 69 76 110
f 110 108 69
f 115 93 100
f 100 117 115
f 120 87 92
f 92 114 120
f 80 88 119
f 119 123 80
f 75 81 122
f 122 111 75
f 126 90 84
f 84 129 126
f 85 78 132
f 132 130 85
f 135 95 91
f 91 127 135
f 118 98 102
f 102 139 118
f 138 103 97
f 97 136 138
f 73 67 104
f 104 142 73
f 79 71 141
f 141 131 79
f 61 19 45
f 45 34 61
f 63 61 34
f 34 25 63
f 25 34 11
f 20 19 61
f 56 5 3
f 3 52 56
f 23 21 107
f 107 106 23
f 106 107 112
f 112 140 106
f 140 112 124
f 124 133 140
f 133 124 121
f 121 128 133
f 128 121 113
f 113 125 128
f 125 113 116
f 116 134 125
f 134 116 137
f 38 9 7
f 7 37 38

