# https://github.com/mikedh/trimesh
v -0.37366898 -0.25085344 0.21789726
v -0.37366898 -0.25085344 0.22130557
v -0.37366898 -0.25085344 0.22130557
v -0.37366898 -0.20342214 0.22130557
v -0.37366898 -0.25085344 0.21426419
v -0.37366898 -0.25085344 0.20025712
v -0.37366898 -0.25085344 0.20389021
v -0.49598247 -0.20342214 0.22130557
v -0.49598247 -0.20342214 0.22130557
v -0.49598247 -0.20342214 0.19697967
v -0.44524719 -0.25085344 0.19697967
v -0.49598247 -0.25085344 0.19697967
v -0.49598247 -0.25085344 0.19697967
v -0.41424944 -0.25085344 0.19697967
v -0.37366898 -0.25085344 0.19697967
v -0.49598247 -0.25085344 0.22130557
v -0.49598247 -0.25085344 0.22130557
v -0.49598247 -0.25085344 0.22130557
v -0.44524719 -0.25085344 0.22130557
v -0.44524719 -0.25085344 0.22130557
v -0.44995173 -0.24237517 0.22130557
v -0.44995173 -0.24237517 0.22130557
v -0.44524719 -0.24683083 0.22130557
v -0.44524719 -0.24683083 0.22130557
v -0.45160376 -0.23711937 0.22130557
v -0.45160376 -0.23711937 0.22130557
v -0.44995173 -0.23186358 0.22130557
v -0.44995173 -0.23186358 0.22130557
v -0.44524719 -0.22740792 0.22130557
v -0.44524719 -0.22740792 0.22130557
v -0.43820629 -0.22443075 0.22130557
v -0.43820629 -0.22443075 0.22130557
v -0.42990102 -0.22338530 0.22130557
v -0.42990102 -0.22338530 0.22130557
v -0.42159575 -0.22443075 0.22130557
v -0.42159575 -0.22443075 0.22130557
v -0.41455485 -0.22740792 0.22130557
v -0.41455485 -0.22740792 0.22130557
v -0.40985028 -0.23186358 0.22130557
v -0.40985028 -0.23186358 0.22130557
v -0.40819825 -0.23711937 0.22130557
v -0.40819825 -0.23711937 0.22130557
v -0.40985028 -0.24237517 0.22130557
v -0.40985028 -0.24237517 0.22130557
v -0.41424944 -0.25085344 0.22130557
v -0.41424944 -0.25085344 0.22130557
v -0.41455485 -0.24683083 0.22130557
v -0.41455485 -0.24683083 0.22130557
v -0.40819825 -0.23711937 0.19860144
v -0.40985028 -0.23186358 0.19860144
v -0.40985028 -0.24237517 0.19860144
v -0.41455485 -0.22740792 0.19860144
v -0.42159575 -0.22443075 0.19860144
v -0.42990102 -0.22338530 0.19860144
v -0.41455485 -0.24683083 0.19860144
v -0.43820629 -0.22443075 0.19860144
v -0.44524719 -0.22740792 0.19860144
v -0.44995173 -0.23186358 0.19860144
v -0.45160376 -0.23711937 0.19860144
v -0.44995173 -0.24237517 0.19860144
v -0.44524719 -0.24683083 0.19860144
f 13 16 8
f 8 10 13
f 12 11 19
f 19 17 12
f 9 18 20
f 20 21 9
f 21 20 24
f 9 21 25
f 25 27 9
f 9 27 30
f 30 31 9
f 4 9 31
f 31 34 4
f 4 34 36
f 36 37 4
f 4 37 40
f 40 42 4
f 3 4 42
f 42 44 3
f 46 3 44
f 44 47 46
f 14 15 6
f 6 45 14
f 45 6 7
f 7 5 45
f 45 5 1
f 1 2 45
f 39 41 49
f 49 50 39
f 43 51 49
f 49 41 43
f 50 52 38
f 38 39 50
f 52 53 35
f 35 38 52
f 53 54 33
f 33 35 53
f 55 51 43
f 43 48 55
f 56 57 29
f 29 32 56
f 57 58 28
f 28 29 57
f 59 26 28
f 28 58 59
f 60 22 26
f 26 59 60
f 54 56 32
f 32 33 54
f 60 61 23
f 23 22 60

