v 0.120084 0.021277 0.300220
v 0.238044 0.021277 0.057131
v 0.120084 0.021277 0.057131
v 0.238044 0.021277 0.300220
v 0.100395 -0.227443 0.132483
v 0.100437 -0.226262 0.121870
v 0.100392 -0.227551 0.127099
v 0.100448 -0.225946 0.137656
v 0.100529 -0.223665 0.117153
v 0.100546 -0.223162 0.142265
v 0.100660 -0.219936 0.113269
v 0.100683 -0.219281 0.145996
v 0.100823 -0.215330 0.110483
v 0.100849 -0.214567 0.148595
v 0.101005 -0.210160 0.108986
v 0.101034 -0.209341 0.149884
v 0.101195 -0.204779 0.108878
v 0.101224 -0.203960 0.149777
v 0.101379 -0.199554 0.110167
v 0.101406 -0.198790 0.148279
v 0.101545 -0.194839 0.112766
v 0.101568 -0.194184 0.145493
v 0.101682 -0.190958 0.116497
v 0.101700 -0.190455 0.141609
v 0.101780 -0.188174 0.121106
v 0.101791 -0.187858 0.136892
v 0.101833 -0.186677 0.126279
v 0.101837 -0.186569 0.131663
f 1 2 3
f 2 1 4
f 5 6 7
f 6 5 8
f 6 8 9
f 9 8 10
f 9 10 11
f 11 10 12
f 11 12 13
f 13 12 14
f 13 14 15
f 15 14 16
f 15 16 17
f 17 16 18
f 17 18 19
f 19 18 20
f 19 20 21
f 21 20 22
f 21 22 23
f 23 22 24
f 23 24 25
f 25 24 26
f 25 26 27
f 27 26 28
f 3 2 1
f 4 1 2
f 7 6 5
f 8 5 6
f 9 8 6
f 10 8 9
f 11 10 9
f 12 10 11
f 13 12 11
f 14 12 13
f 15 14 13
f 16 14 15
f 17 16 15
f 18 16 17
f 19 18 17
f 20 18 19
f 21 20 19
f 22 20 21
f 23 22 21
f 24 22 23
f 25 24 23
f 26 24 25
f 27 26 25
f 28 26 27
