v -0.432497 -0.324508 0.105982
v -0.432514 -0.324508 0.105942
v -0.429218 -0.324508 0.105982
v -0.421748 -0.324508 0.104466
v -0.433567 -0.324508 0.105333
v -0.444448 -0.324508 0.104466
v -0.433253 -0.324508 0.105375
v -0.421748 -0.324508 0.110022
v -0.432959 -0.324508 0.105496
v -0.432707 -0.324508 0.105690
v -0.429218 -0.324508 0.110022
v -0.437908 -0.324508 0.105982
v -0.444448 -0.324508 0.110022
v -0.433882 -0.324508 0.105375
v -0.434175 -0.324508 0.105496
v -0.434427 -0.324508 0.105690
v -0.434621 -0.324508 0.105942
v -0.434637 -0.324508 0.105982
v -0.437908 -0.324508 0.110022
v -0.443618 -0.324508 0.110022
v -0.421748 -0.324508 0.096202
v -0.431960 -0.324508 0.097968
v -0.444448 -0.324508 0.096202
v -0.421748 -0.324508 0.102937
v -0.431960 -0.324508 0.100258
v -0.432959 -0.324508 0.100258
v -0.434928 -0.324508 0.100258
v -0.435770 -0.324508 0.100258
v -0.435770 -0.324508 0.097968
v -0.444448 -0.324508 0.102937
v -0.434928 -0.324508 0.098968
v -0.432959 -0.324508 0.098968
v -0.433481 -0.324508 0.105897
v -0.433315 -0.324508 0.105942
v -0.433245 -0.324508 0.105982
v -0.432393 -0.324508 0.106235
v -0.433167 -0.324508 0.106027
v -0.433045 -0.324508 0.106149
v -0.432959 -0.324508 0.106298
v -0.432351 -0.324508 0.106550
v -0.432915 -0.324508 0.106464
v -0.432915 -0.324508 0.106635
v -0.432393 -0.324508 0.106864
v -0.432959 -0.324508 0.106801
v -0.433045 -0.324508 0.106950
v -0.432514 -0.324508 0.107158
v -0.433167 -0.324508 0.107072
v -0.433315 -0.324508 0.107158
v -0.432707 -0.324508 0.107410
v -0.433481 -0.324508 0.107202
v -0.433653 -0.324508 0.107202
v -0.433653 -0.324508 0.105897
v -0.433819 -0.324508 0.105942
v -0.433890 -0.324508 0.105982
v -0.433968 -0.324508 0.106027
v -0.434742 -0.324508 0.106235
v -0.434090 -0.324508 0.106149
v -0.434175 -0.324508 0.106298
v -0.434784 -0.324508 0.106550
v -0.434220 -0.324508 0.106464
v -0.434220 -0.324508 0.106635
v -0.434742 -0.324508 0.106864
v -0.434175 -0.324508 0.106801
v -0.434090 -0.324508 0.106950
v -0.434621 -0.324508 0.107158
v -0.433968 -0.324508 0.107072
v -0.433819 -0.324508 0.107158
v -0.434427 -0.324508 0.107410
v -0.432959 -0.324508 0.107603
v -0.434175 -0.324508 0.107603
v -0.433253 -0.324508 0.107724
v -0.433882 -0.324508 0.107724
v -0.433567 -0.324508 0.107766
f 1 2 3
f 4 5 6
f 5 4 7
f 7 4 3
f 3 4 8
f 7 3 9
f 9 3 10
f 10 3 2
f 3 8 11
f 6 12 13
f 12 6 14
f 14 6 5
f 12 14 15
f 12 15 16
f 12 16 17
f 12 17 18
f 13 12 19
f 13 19 20
f 21 22 23
f 22 21 24
f 22 24 25
f 25 24 26
f 26 24 27
f 27 24 28
f 23 29 30
f 29 23 22
f 30 29 28
f 30 28 24
f 26 31 32
f 31 26 27
f 7 14 5
f 14 7 9
f 14 9 15
f 15 9 10
f 15 10 16
f 16 10 2
f 16 2 33
f 33 2 34
f 34 2 1
f 34 1 35
f 35 1 36
f 35 36 37
f 37 36 38
f 38 36 39
f 39 36 40
f 39 40 41
f 41 40 42
f 42 40 43
f 42 43 44
f 44 43 45
f 45 43 46
f 45 46 47
f 47 46 48
f 48 46 49
f 48 49 50
f 50 49 51
f 16 52 17
f 52 16 33
f 17 52 53
f 17 53 54
f 17 54 18
f 18 54 55
f 18 55 56
f 56 55 57
f 56 57 58
f 56 58 59
f 59 58 60
f 59 60 61
f 59 61 62
f 62 61 63
f 62 63 64
f 62 64 65
f 65 64 66
f 65 66 67
f 65 67 51
f 65 51 68
f 68 51 49
f 68 49 69
f 68 69 70
f 70 69 71
f 70 71 72
f 72 71 73
f 3 2 1
f 6 5 4
f 7 4 5
f 3 4 7
f 8 4 3
f 9 3 7
f 10 3 9
f 2 3 10
f 11 8 3
f 13 12 6
f 14 6 12
f 5 6 14
f 15 14 12
f 16 15 12
f 17 16 12
f 18 17 12
f 19 12 13
f 20 19 13
f 23 22 21
f 24 21 22
f 25 24 22
f 26 24 25
f 27 24 26
f 28 24 27
f 30 29 23
f 22 23 29
f 28 29 30
f 24 28 30
f 32 31 26
f 27 26 31
f 5 14 7
f 9 7 14
f 15 9 14
f 10 9 15
f 16 10 15
f 2 10 16
f 33 2 16
f 34 2 33
f 1 2 34
f 35 1 34
f 36 1 35
f 37 36 35
f 38 36 37
f 39 36 38
f 40 36 39
f 41 40 39
f 42 40 41
f 43 40 42
f 44 43 42
f 45 43 44
f 46 43 45
f 47 46 45
f 48 46 47
f 49 46 48
f 50 49 48
f 51 49 50
f 17 52 16
f 33 16 52
f 53 52 17
f 54 53 17
f 18 54 17
f 55 54 18
f 56 55 18
f 57 55 56
f 58 57 56
f 59 58 56
f 60 58 59
f 61 60 59
f 62 61 59
f 63 61 62
f 64 63 62
f 65 64 62
f 66 64 65
f 67 66 65
f 51 67 65
f 68 51 65
f 49 51 68
f 69 49 68
f 70 69 68
f 71 69 70
f 72 71 70
f 73 71 72
