v 0.220017 -0.058518 0.646004
v 0.238044 0.021277 0.476341
v 0.232344 0.021277 0.476341
v 0.225849 -0.058518 0.646004
v 0.120084 0.021277 0.300220
v 0.127364 0.021277 0.306496
v 0.238044 0.021277 0.300220
v 0.120084 0.021277 0.476341
v 0.127364 0.021277 0.476341
v 0.232344 0.021277 0.306496
v 0.107889 -0.058518 0.646004
v 0.115037 -0.058518 0.646004
v 0.107889 -0.191064 0.646004
v 0.115037 -0.175871 0.646004
v 0.225849 -0.191064 0.646004
v 0.220017 -0.175871 0.646004
f 1 2 3
f 2 1 4
f 5 6 7
f 6 5 8
f 6 8 9
f 7 10 2
f 10 7 6
f 2 10 3
f 11 9 8
f 9 11 12
f 13 14 11
f 14 13 15
f 14 15 16
f 16 15 1
f 1 15 4
f 12 11 14
f 3 2 1
f 4 1 2
f 7 6 5
f 8 5 6
f 9 8 6
f 2 10 7
f 6 7 10
f 3 10 2
f 8 9 11
f 12 11 9
f 11 14 13
f 15 13 14
f 16 15 14
f 1 15 16
f 4 15 1
f 14 11 12
