v 0.109297 -0.317778 0.089271
v 0.120937 -0.314494 0.089271
v 0.111083 -0.269194 0.089271
v 0.224882 -0.317778 0.089271
v 0.214017 -0.314494 0.089271
v 0.214017 -0.269194 0.089271
v 0.226524 -0.269194 0.089271
v 0.120937 -0.269194 0.089271
v 0.120937 -0.314494 0.086971
v 0.122608 -0.305040 0.086971
v 0.120937 -0.269194 0.086971
v 0.122872 -0.306682 0.086971
v 0.123551 -0.308200 0.086971
v 0.124600 -0.309489 0.086971
v 0.125947 -0.310464 0.086971
v 0.127501 -0.311057 0.086971
v 0.129154 -0.311227 0.086971
v 0.214017 -0.314494 0.086971
v 0.130796 -0.310964 0.086971
v 0.143458 -0.311130 0.086971
v 0.132313 -0.310284 0.086971
v 0.141804 -0.310959 0.086971
v 0.133603 -0.309235 0.086971
v 0.140251 -0.310367 0.086971
v 0.134578 -0.307888 0.086971
v 0.138904 -0.309392 0.086971
v 0.135171 -0.306335 0.086971
v 0.137855 -0.308102 0.086971
v 0.135341 -0.304681 0.086971
v 0.137176 -0.306585 0.086971
v 0.136912 -0.304943 0.086971
v 0.145100 -0.310866 0.086971
v 0.157869 -0.311389 0.086971
v 0.156215 -0.311219 0.086971
v 0.146617 -0.310187 0.086971
v 0.147907 -0.309138 0.086971
v 0.154662 -0.310626 0.086971
v 0.148882 -0.307791 0.086971
v 0.153315 -0.309651 0.086971
v 0.149474 -0.306238 0.086971
v 0.152266 -0.308361 0.086971
v 0.149645 -0.304584 0.086971
v 0.151586 -0.306844 0.086971
v 0.151323 -0.305202 0.086971
v 0.159511 -0.311126 0.086971
v 0.161028 -0.310446 0.086971
v 0.172897 -0.311310 0.086971
v 0.171243 -0.311139 0.086971
v 0.162318 -0.309397 0.086971
v 0.169690 -0.310546 0.086971
v 0.163293 -0.308050 0.086971
v 0.163885 -0.306497 0.086971
v 0.168343 -0.309572 0.086971
v 0.164056 -0.304843 0.086971
v 0.167294 -0.308282 0.086971
v 0.166615 -0.306764 0.086971
v 0.166351 -0.305123 0.086971
v 0.174539 -0.311046 0.086971
v 0.176056 -0.310367 0.086971
v 0.185349 -0.310849 0.086971
v 0.177346 -0.309318 0.086971
v 0.183796 -0.310256 0.086971
v 0.178321 -0.307971 0.086971
v 0.182449 -0.309281 0.086971
v 0.178914 -0.306417 0.086971
v 0.181400 -0.307992 0.086971
v 0.179084 -0.304764 0.086971
v 0.180720 -0.306474 0.086971
v 0.180457 -0.304832 0.086971
v 0.187003 -0.311019 0.086971
v 0.188644 -0.310756 0.086971
v 0.190162 -0.310076 0.086971
v 0.191452 -0.309027 0.086971
v 0.192426 -0.307680 0.086971
v 0.193019 -0.306127 0.086971
v 0.193189 -0.304473 0.086971
v 0.127154 -0.298758 0.086971
v 0.214017 -0.269194 0.086971
v 0.125636 -0.299437 0.086971
v 0.124346 -0.300486 0.086971
v 0.123372 -0.301833 0.086971
v 0.122779 -0.303387 0.086971
v 0.128795 -0.298495 0.086971
v 0.130449 -0.298665 0.086971
v 0.132002 -0.299258 0.086971
v 0.133349 -0.300232 0.086971
v 0.134398 -0.301522 0.086971
v 0.141457 -0.298661 0.086971
v 0.139940 -0.299340 0.086971
v 0.135078 -0.303040 0.086971
v 0.138650 -0.300389 0.086971
v 0.137675 -0.301736 0.086971
v 0.137083 -0.303289 0.086971
v 0.143099 -0.298397 0.086971
v 0.144753 -0.298568 0.086971
v 0.146306 -0.299160 0.086971
v 0.147653 -0.300135 0.086971
v 0.148702 -0.301425 0.086971
v 0.154351 -0.299599 0.086971
v 0.149381 -0.302942 0.086971
v 0.153061 -0.300648 0.086971
v 0.152086 -0.301995 0.086971
v 0.151494 -0.303548 0.086971
v 0.155868 -0.298920 0.086971
v 0.157510 -0.298656 0.086971
v 0.159164 -0.298827 0.086971
v 0.160717 -0.299420 0.086971
v 0.162064 -0.300394 0.086971
v 0.163113 -0.301684 0.086971
v 0.163792 -0.303201 0.086971
v 0.169379 -0.299520 0.086971
v 0.168089 -0.300569 0.086971
v 0.167114 -0.301916 0.086971
v 0.166522 -0.303469 0.086971
v 0.170896 -0.298840 0.086971
v 0.172538 -0.298577 0.086971
v 0.174192 -0.298747 0.086971
v 0.175745 -0.299340 0.086971
v 0.177092 -0.300315 0.086971
v 0.178141 -0.301605 0.086971
v 0.178821 -0.303122 0.086971
v 0.182195 -0.300278 0.086971
v 0.181220 -0.301625 0.086971
v 0.180627 -0.303179 0.086971
v 0.183484 -0.299229 0.086971
v 0.185002 -0.298550 0.086971
v 0.186644 -0.298287 0.086971
v 0.188297 -0.298457 0.086971
v 0.189851 -0.299050 0.086971
v 0.191198 -0.300024 0.086971
v 0.192247 -0.301314 0.086971
v 0.192926 -0.302832 0.086971
f 1 2 3
f 2 1 4
f 2 4 5
f 5 4 6
f 6 4 7
f 8 3 2
f 9 10 11
f 10 9 12
f 12 9 13
f 13 9 14
f 14 9 15
f 15 9 16
f 16 9 17
f 17 9 18
f 17 18 19
f 19 18 20
f 19 20 21
f 21 20 22
f 21 22 23
f 23 22 24
f 23 24 25
f 25 24 26
f 25 26 27
f 27 26 28
f 27 28 29
f 29 28 30
f 29 30 31
f 20 18 32
f 32 18 33
f 32 33 34
f 32 34 35
f 35 34 36
f 36 34 37
f 36 37 38
f 38 37 39
f 38 39 40
f 40 39 41
f 40 41 42
f 42 41 43
f 42 43 44
f 33 18 45
f 45 18 46
f 46 18 47
f 46 47 48
f 46 48 49
f 49 48 50
f 49 50 51
f 51 50 52
f 52 50 53
f 52 53 54
f 54 53 55
f 54 55 56
f 54 56 57
f 47 18 58
f 58 18 59
f 59 18 60
f 59 60 61
f 61 60 62
f 61 62 63
f 63 62 64
f 63 64 65
f 65 64 66
f 65 66 67
f 67 66 68
f 67 68 69
f 60 18 70
f 70 18 71
f 71 18 72
f 72 18 73
f 73 18 74
f 74 18 75
f 75 18 76
f 11 77 78
f 77 11 79
f 79 11 80
f 80 11 81
f 81 11 82
f 82 11 10
f 78 77 83
f 78 83 84
f 78 84 85
f 78 85 86
f 78 86 87
f 78 87 88
f 88 87 89
f 89 87 90
f 89 90 91
f 91 90 29
f 91 29 92
f 92 29 93
f 93 29 31
f 78 88 94
f 78 94 95
f 78 95 96
f 78 96 97
f 78 97 98
f 78 98 99
f 99 98 100
f 99 100 101
f 101 100 42
f 101 42 102
f 102 42 103
f 103 42 44
f 78 99 104
f 78 104 105
f 78 105 106
f 78 106 107
f 78 107 108
f 78 108 109
f 78 109 110
f 78 110 111
f 111 110 112
f 112 110 54
f 112 54 113
f 113 54 114
f 114 54 57
f 78 111 115
f 78 115 116
f 78 116 117
f 78 117 118
f 78 118 119
f 78 119 120
f 78 120 121
f 78 121 122
f 122 121 123
f 123 121 67
f 123 67 124
f 124 67 69
f 78 122 125
f 78 125 126
f 78 126 127
f 78 127 128
f 78 128 129
f 78 129 130
f 78 130 131
f 78 131 132
f 78 132 76
f 78 76 18
f 3 2 1
f 4 1 2
f 5 4 2
f 6 4 5
f 7 4 6
f 2 3 8
f 11 10 9
f 12 9 10
f 13 9 12
f 14 9 13
f 15 9 14
f 16 9 15
f 17 9 16
f 18 9 17
f 19 18 17
f 20 18 19
f 21 20 19
f 22 20 21
f 23 22 21
f 24 22 23
f 25 24 23
f 26 24 25
f 27 26 25
f 28 26 27
f 29 28 27
f 30 28 29
f 31 30 29
f 32 18 20
f 33 18 32
f 34 33 32
f 35 34 32
f 36 34 35
f 37 34 36
f 38 37 36
f 39 37 38
f 40 39 38
f 41 39 40
f 42 41 40
f 43 41 42
f 44 43 42
f 45 18 33
f 46 18 45
f 47 18 46
f 48 47 46
f 49 48 46
f 50 48 49
f 51 50 49
f 52 50 51
f 53 50 52
f 54 53 52
f 55 53 54
f 56 55 54
f 57 56 54
f 58 18 47
f 59 18 58
f 60 18 59
f 61 60 59
f 62 60 61
f 63 62 61
f 64 62 63
f 65 64 63
f 66 64 65
f 67 66 65
f 68 66 67
f 69 68 67
f 70 18 60
f 71 18 70
f 72 18 71
f 73 18 72
f 74 18 73
f 75 18 74
f 76 18 75
f 78 77 11
f 79 11 77
f 80 11 79
f 81 11 80
f 82 11 81
f 10 11 82
f 83 77 78
f 84 83 78
f 85 84 78
f 86 85 78
f 87 86 78
f 88 87 78
f 89 87 88
f 90 87 89
f 91 90 89
f 29 90 91
f 92 29 91
f 93 29 92
f 31 29 93
f 94 88 78
f 95 94 78
f 96 95 78
f 97 96 78
f 98 97 78
f 99 98 78
f 100 98 99
f 101 100 99
f 42 100 101
f 102 42 101
f 103 42 102
f 44 42 103
f 104 99 78
f 105 104 78
f 106 105 78
f 107 106 78
f 108 107 78
f 109 108 78
f 110 109 78
f 111 110 78
f 112 110 111
f 54 110 112
f 113 54 112
f 114 54 113
f 57 54 114
f 115 111 78
f 116 115 78
f 117 116 78
f 118 117 78
f 119 118 78
f 120 119 78
f 121 120 78
f 122 121 78
f 123 121 122
f 67 121 123
f 124 67 123
f 69 67 124
f 125 122 78
f 126 125 78
f 127 126 78
f 128 127 78
f 129 128 78
f 130 129 78
f 131 130 78
f 132 131 78
f 76 132 78
f 18 76 78
