v 0.224699 -0.323193 0.089271
v 0.109297 -0.317778 0.089271
v 0.109099 -0.323193 0.089271
v 0.224882 -0.317778 0.089271
v 0.214017 -0.269194 0.089271
v 0.226524 -0.269194 0.086971
v 0.214017 -0.269194 0.086971
v 0.226524 -0.269194 0.089271
v 0.214017 -0.314494 0.086971
v 0.214017 -0.314494 0.089271
v 0.120937 -0.314494 0.089271
v 0.120937 -0.314494 0.086971
v 0.120937 -0.269194 0.089271
v 0.120937 -0.269194 0.086971
v 0.111083 -0.269194 0.089271
v 0.111083 -0.269194 0.086971
v 0.116338 -0.245222 0.091851
v 0.116544 -0.245597 0.091851
v 0.116688 -0.244766 0.091851
v 0.116544 -0.246547 0.091851
v 0.117674 -0.245597 0.091851
v 0.117143 -0.244417 0.091851
v 0.117634 -0.244677 0.091851
v 0.117674 -0.245307 0.091851
v 0.118243 -0.248522 0.091851
v 0.117674 -0.247677 0.091851
v 0.117674 -0.248447 0.091851
v 0.118654 -0.247677 0.091851
v 0.118813 -0.248447 0.091851
v 0.118654 -0.246547 0.091851
v 0.119924 -0.246547 0.091851
v 0.119343 -0.248227 0.091851
v 0.119799 -0.247878 0.091851
v 0.120149 -0.247422 0.091851
v 0.119924 -0.245567 0.091851
v 0.118644 -0.244677 0.091851
v 0.118644 -0.245567 0.091851
v 0.118813 -0.244197 0.091851
v 0.119343 -0.244417 0.091851
v 0.119799 -0.244766 0.091851
v 0.120149 -0.245222 0.091851
v 0.120368 -0.246892 0.091851
v 0.120368 -0.245753 0.091851
v 0.120443 -0.246322 0.091851
v 0.117674 -0.244197 0.091851
v 0.118243 -0.244122 0.091851
v 0.116118 -0.246892 0.091851
v 0.116118 -0.245753 0.091851
v 0.116043 -0.246322 0.091851
v 0.116338 -0.247422 0.091851
v 0.116688 -0.247878 0.091851
v 0.117674 -0.246547 0.091851
v 0.117143 -0.248227 0.091851
v 0.219805 -0.245772 0.091851
v 0.220011 -0.246146 0.091851
v 0.220155 -0.245316 0.091851
v 0.220011 -0.247096 0.091851
v 0.221141 -0.246146 0.091851
v 0.220611 -0.244966 0.091851
v 0.221101 -0.245226 0.091851
v 0.221141 -0.245856 0.091851
v 0.221711 -0.249072 0.091851
v 0.221141 -0.248226 0.091851
v 0.221141 -0.248997 0.091851
v 0.222121 -0.248226 0.091851
v 0.222280 -0.248997 0.091851
v 0.222121 -0.247096 0.091851
v 0.223391 -0.247096 0.091851
v 0.222811 -0.248777 0.091851
v 0.223266 -0.248427 0.091851
v 0.223616 -0.247972 0.091851
v 0.223391 -0.246116 0.091851
v 0.222111 -0.245226 0.091851
v 0.222111 -0.246116 0.091851
v 0.222280 -0.244747 0.091851
v 0.222811 -0.244966 0.091851
v 0.223266 -0.245316 0.091851
v 0.223616 -0.245772 0.091851
v 0.223836 -0.247441 0.091851
v 0.223836 -0.246302 0.091851
v 0.223911 -0.246872 0.091851
v 0.221141 -0.244747 0.091851
v 0.221711 -0.244672 0.091851
v 0.219586 -0.247441 0.091851
v 0.219586 -0.246302 0.091851
v 0.219511 -0.246872 0.091851
v 0.219805 -0.247972 0.091851
v 0.220155 -0.248427 0.091851
v 0.221141 -0.247096 0.091851
v 0.220611 -0.248777 0.091851
v 0.119768 -0.153517 0.091851
v 0.119974 -0.153891 0.091851
v 0.120118 -0.153061 0.091851
v 0.119974 -0.154841 0.091851
v 0.121104 -0.153891 0.091851
v 0.120574 -0.152712 0.091851
v 0.121064 -0.152971 0.091851
v 0.121104 -0.153601 0.091851
v 0.121674 -0.156817 0.091851
v 0.121104 -0.155971 0.091851
v 0.121104 -0.156742 0.091851
v 0.122084 -0.155971 0.091851
v 0.122243 -0.156742 0.091851
v 0.122084 -0.154841 0.091851
v 0.123354 -0.154841 0.091851
v 0.122774 -0.156522 0.091851
v 0.123229 -0.156173 0.091851
v 0.123579 -0.155717 0.091851
v 0.123354 -0.153861 0.091851
v 0.122074 -0.152971 0.091851
v 0.122074 -0.153861 0.091851
v 0.122243 -0.152492 0.091851
v 0.122774 -0.152712 0.091851
v 0.123229 -0.153061 0.091851
v 0.123579 -0.153517 0.091851
v 0.123799 -0.155186 0.091851
v 0.123799 -0.154047 0.091851
v 0.123874 -0.154617 0.091851
v 0.121104 -0.152492 0.091851
v 0.121674 -0.152417 0.091851
v 0.119549 -0.155186 0.091851
v 0.119549 -0.154047 0.091851
v 0.119474 -0.154617 0.091851
v 0.119768 -0.155717 0.091851
v 0.120118 -0.156173 0.091851
v 0.121104 -0.154841 0.091851
v 0.120574 -0.156522 0.091851
v 0.119339 -0.133775 0.091831
v 0.119545 -0.134149 0.091831
v 0.119689 -0.133319 0.091831
v 0.119545 -0.135099 0.091831
v 0.120675 -0.134149 0.091831
v 0.120145 -0.132969 0.091831
v 0.120635 -0.133229 0.091831
v 0.120675 -0.133859 0.091831
v 0.121245 -0.137075 0.091831
v 0.120675 -0.136229 0.091831
v 0.120675 -0.137000 0.091831
v 0.121655 -0.136229 0.091831
v 0.121814 -0.137000 0.091831
v 0.121655 -0.135099 0.091831
v 0.122925 -0.135099 0.091831
v 0.122345 -0.136780 0.091831
v 0.122800 -0.136430 0.091831
v 0.123150 -0.135975 0.091831
v 0.122925 -0.134119 0.091831
v 0.121645 -0.133229 0.091831
v 0.121645 -0.134119 0.091831
v 0.121814 -0.132750 0.091831
v 0.122345 -0.132969 0.091831
v 0.122800 -0.133319 0.091831
v 0.123150 -0.133775 0.091831
v 0.123370 -0.135444 0.091831
v 0.123370 -0.134305 0.091831
v 0.123445 -0.134875 0.091831
v 0.120675 -0.132750 0.091831
v 0.121245 -0.132675 0.091831
v 0.119120 -0.135444 0.091831
v 0.119120 -0.134305 0.091831
v 0.119045 -0.134875 0.091831
v 0.119339 -0.135975 0.091831
v 0.119689 -0.136430 0.091831
v 0.120675 -0.135099 0.091831
v 0.120145 -0.136780 0.091831
v 0.222960 -0.153921 0.091851
v 0.223166 -0.154296 0.091851
v 0.223310 -0.153465 0.091851
v 0.223166 -0.155246 0.091851
v 0.224296 -0.154296 0.091851
v 0.223765 -0.153116 0.091851
v 0.224256 -0.153376 0.091851
v 0.224296 -0.154006 0.091851
v 0.224865 -0.157221 0.091851
v 0.224296 -0.156376 0.091851
v 0.224296 -0.157146 0.091851
v 0.225276 -0.156376 0.091851
v 0.225435 -0.157146 0.091851
v 0.225276 -0.155246 0.091851
v 0.226546 -0.155246 0.091851
v 0.225965 -0.156926 0.091851
v 0.226421 -0.156577 0.091851
v 0.226771 -0.156121 0.091851
v 0.226546 -0.154266 0.091851
v 0.225266 -0.153376 0.091851
v 0.225266 -0.154266 0.091851
v 0.225435 -0.152896 0.091851
v 0.225965 -0.153116 0.091851
v 0.226421 -0.153465 0.091851
v 0.226771 -0.153921 0.091851
v 0.226990 -0.155591 0.091851
v 0.226990 -0.154452 0.091851
v 0.227065 -0.155021 0.091851
v 0.224296 -0.152896 0.091851
v 0.224865 -0.152821 0.091851
v 0.222740 -0.155591 0.091851
v 0.222740 -0.154452 0.091851
v 0.222665 -0.155021 0.091851
v 0.222960 -0.156121 0.091851
v 0.223310 -0.156577 0.091851
v 0.224296 -0.155246 0.091851
v 0.223765 -0.156926 0.091851
v 0.223361 -0.133775 0.091831
v 0.223567 -0.134149 0.091831
v 0.223710 -0.133319 0.091831
v 0.223567 -0.135099 0.091831
v 0.224697 -0.134149 0.091831
v 0.224166 -0.132969 0.091831
v 0.224657 -0.133229 0.091831
v 0.224697 -0.133859 0.091831
v 0.225266 -0.137075 0.091831
v 0.224697 -0.136229 0.091831
v 0.224697 -0.137000 0.091831
v 0.225677 -0.136229 0.091831
v 0.225836 -0.137000 0.091831
v 0.225677 -0.135099 0.091831
v 0.226947 -0.135099 0.091831
v 0.226366 -0.136780 0.091831
v 0.226822 -0.136430 0.091831
v 0.227171 -0.135975 0.091831
v 0.226947 -0.134119 0.091831
v 0.225667 -0.133229 0.091831
v 0.225667 -0.134119 0.091831
v 0.225836 -0.132750 0.091831
v 0.226366 -0.132969 0.091831
v 0.226822 -0.133319 0.091831
v 0.227171 -0.133775 0.091831
v 0.227391 -0.135444 0.091831
v 0.227391 -0.134305 0.091831
v 0.227466 -0.134875 0.091831
v 0.224697 -0.132750 0.091831
v 0.225266 -0.132675 0.091831
v 0.223141 -0.135444 0.091831
v 0.223141 -0.134305 0.091831
v 0.223066 -0.134875 0.091831
v 0.223361 -0.135975 0.091831
v 0.223710 -0.136430 0.091831
v 0.224697 -0.135099 0.091831
v 0.224166 -0.136780 0.091831
v 0.123446 -0.041302 0.091831
v 0.123651 -0.041676 0.091831
v 0.123795 -0.040846 0.091831
v 0.123651 -0.042626 0.091831
v 0.124781 -0.041676 0.091831
v 0.124251 -0.040496 0.091831
v 0.124741 -0.040756 0.091831
v 0.124781 -0.041386 0.091831
v 0.125351 -0.044602 0.091831
v 0.124781 -0.043756 0.091831
v 0.124781 -0.044527 0.091831
v 0.125761 -0.043756 0.091831
v 0.125920 -0.044527 0.091831
v 0.125761 -0.042626 0.091831
v 0.127031 -0.042626 0.091831
v 0.126451 -0.044307 0.091831
v 0.126907 -0.043957 0.091831
v 0.127256 -0.043502 0.091831
v 0.127031 -0.041646 0.091831
v 0.125751 -0.040756 0.091831
v 0.125751 -0.041646 0.091831
v 0.125920 -0.040277 0.091831
v 0.126451 -0.040496 0.091831
v 0.126907 -0.040846 0.091831
v 0.127256 -0.041302 0.091831
v 0.127476 -0.042971 0.091831
v 0.127476 -0.041832 0.091831
v 0.127551 -0.042402 0.091831
v 0.124781 -0.040277 0.091831
v 0.125351 -0.040202 0.091831
v 0.123226 -0.042971 0.091831
v 0.123226 -0.041832 0.091831
v 0.123151 -0.042402 0.091831
v 0.123446 -0.043502 0.091831
v 0.123795 -0.043957 0.091831
v 0.124781 -0.042626 0.091831
v 0.124251 -0.044307 0.091831
v 0.226723 -0.042188 0.091831
v 0.226929 -0.042563 0.091831
v 0.227073 -0.041732 0.091831
v 0.226929 -0.043513 0.091831
v 0.228059 -0.042563 0.091831
v 0.227528 -0.041383 0.091831
v 0.228019 -0.041643 0.091831
v 0.228059 -0.042273 0.091831
v 0.228628 -0.045488 0.091831
v 0.228059 -0.044643 0.091831
v 0.228059 -0.045413 0.091831
v 0.229039 -0.044643 0.091831
v 0.229198 -0.045413 0.091831
v 0.229039 -0.043513 0.091831
v 0.230309 -0.043513 0.091831
v 0.229728 -0.045193 0.091831
v 0.230184 -0.044844 0.091831
v 0.230533 -0.044388 0.091831
v 0.230309 -0.042533 0.091831
v 0.229029 -0.041643 0.091831
v 0.229029 -0.042533 0.091831
v 0.229198 -0.041163 0.091831
v 0.229728 -0.041383 0.091831
v 0.230184 -0.041732 0.091831
v 0.230533 -0.042188 0.091831
v 0.230753 -0.043857 0.091831
v 0.230753 -0.042719 0.091831
v 0.230828 -0.043288 0.091831
v 0.228059 -0.041163 0.091831
v 0.228628 -0.041088 0.091831
v 0.226503 -0.043857 0.091831
v 0.226503 -0.042719 0.091831
v 0.226428 -0.043288 0.091831
v 0.226723 -0.044388 0.091831
v 0.227073 -0.044844 0.091831
v 0.228059 -0.043513 0.091831
v 0.227528 -0.045193 0.091831
v 0.115452 -0.237173 0.117814
v 0.115388 -0.238991 0.134158
v 0.115382 -0.239157 0.125866
v 0.115469 -0.236686 0.142124
v 0.115593 -0.233173 0.110550
v 0.115620 -0.232399 0.149222
v 0.115795 -0.227431 0.104570
v 0.115782 -0.227816 0.127130
v 0.115827 -0.226545 0.121971
v 0.116045 -0.220338 0.100280
v 0.115917 -0.223983 0.117318
v 0.116047 -0.220305 0.113487
v 0.116326 -0.212377 0.097973
v 0.116207 -0.215761 0.110739
v 0.116387 -0.210661 0.109261
v 0.116619 -0.204090 0.097807
v 0.116574 -0.205352 0.109155
v 0.116756 -0.200197 0.110427
v 0.116902 -0.196043 0.099793
v 0.116920 -0.195547 0.112990
v 0.117158 -0.188783 0.103795
v 0.117055 -0.191718 0.116671
v 0.117152 -0.188972 0.121218
v 0.117204 -0.187495 0.126321
v 0.117369 -0.182807 0.109540
v 0.117208 -0.187389 0.131633
v 0.115785 -0.227710 0.132441
v 0.115831 -0.226422 0.154968
v 0.115838 -0.226233 0.137544
v 0.116087 -0.219162 0.158970
v 0.115934 -0.223487 0.142091
v 0.116069 -0.219658 0.145772
v 0.116233 -0.215008 0.148336
v 0.116371 -0.211115 0.160955
v 0.116415 -0.209853 0.149608
v 0.116663 -0.202829 0.160789
v 0.116603 -0.204544 0.149501
v 0.116782 -0.199444 0.148023
v 0.116944 -0.194867 0.158482
v 0.116943 -0.194900 0.145275
v 0.117072 -0.191222 0.141444
v 0.117194 -0.187774 0.154193
v 0.117163 -0.188660 0.136791
v 0.117397 -0.182032 0.148212
v 0.117520 -0.178519 0.116638
v 0.117538 -0.178033 0.140948
v 0.117602 -0.176214 0.124604
v 0.117608 -0.176048 0.132896
v 0.111116 -0.233015 0.110550
v 0.110975 -0.237015 0.117814
v 0.111318 -0.227273 0.104570
v 0.111568 -0.220180 0.100280
v 0.111849 -0.212219 0.097973
v 0.112141 -0.203932 0.097807
v 0.112425 -0.195885 0.099793
v 0.112681 -0.188626 0.103795
v 0.112892 -0.182649 0.109540
v 0.113043 -0.178362 0.116638
v 0.113124 -0.176056 0.124604
v 0.113130 -0.175890 0.132896
v 0.113060 -0.177875 0.140948
v 0.112919 -0.181874 0.148212
v 0.112717 -0.187616 0.154193
v 0.112467 -0.194709 0.158482
v 0.112186 -0.202671 0.160789
v 0.111894 -0.210957 0.160955
v 0.111610 -0.219004 0.158970
v 0.111354 -0.226264 0.154968
v 0.111143 -0.232241 0.149222
v 0.110992 -0.236528 0.142124
v 0.110910 -0.238833 0.134158
v 0.110905 -0.238999 0.125866
v 0.111756 -0.214850 0.148336
v 0.111592 -0.219500 0.145772
v 0.111938 -0.209695 0.149608
v 0.112125 -0.204386 0.149501
v 0.112305 -0.199286 0.148023
v 0.112465 -0.194742 0.145275
v 0.112595 -0.191064 0.141444
v 0.112686 -0.188502 0.136791
v 0.112730 -0.187231 0.131633
v 0.112727 -0.187337 0.126321
v 0.112675 -0.188814 0.121218
v 0.112578 -0.191560 0.116671
v 0.112443 -0.195389 0.112990
v 0.112279 -0.200039 0.110427
v 0.112097 -0.205195 0.109155
v 0.111910 -0.210503 0.109261
v 0.111730 -0.215603 0.110739
v 0.111569 -0.220147 0.113487
v 0.111440 -0.223825 0.117318
v 0.111349 -0.226387 0.121971
v 0.111305 -0.227659 0.127130
v 0.111308 -0.227552 0.132441
v 0.111360 -0.226075 0.137544
v 0.111457 -0.223329 0.142091
v 0.118804 -0.132181 0.116595
v 0.118740 -0.133999 0.132939
v 0.118735 -0.134165 0.124647
v 0.118822 -0.131694 0.140905
v 0.118946 -0.128182 0.109331
v 0.118973 -0.127407 0.148003
v 0.119148 -0.122440 0.103351
v 0.119128 -0.123000 0.125891
v 0.119174 -0.121717 0.120688
v 0.119398 -0.115346 0.099061
v 0.119265 -0.119133 0.115995
v 0.119396 -0.115423 0.112130
v 0.119557 -0.110840 0.109359
v 0.119679 -0.107385 0.096754
v 0.119739 -0.105696 0.107868
v 0.119971 -0.099098 0.096588
v 0.119927 -0.100341 0.107761
v 0.120111 -0.095142 0.109044
v 0.120255 -0.091051 0.098574
v 0.120276 -0.090451 0.111630
v 0.120511 -0.083792 0.102576
v 0.120412 -0.086589 0.115342
v 0.120510 -0.083819 0.119928
v 0.120563 -0.082330 0.125075
v 0.120722 -0.077815 0.108321
v 0.120566 -0.082222 0.130433
v 0.119132 -0.122892 0.131249
v 0.119184 -0.121430 0.153749
v 0.119185 -0.121403 0.136396
v 0.119440 -0.114171 0.157750
v 0.119282 -0.118633 0.140982
v 0.119419 -0.114771 0.144695
v 0.119584 -0.110080 0.147280
v 0.119724 -0.106124 0.159736
v 0.119767 -0.104881 0.148563
v 0.120016 -0.097837 0.159570
v 0.119956 -0.099526 0.148456
v 0.120138 -0.094382 0.146966
v 0.120297 -0.089876 0.157263
v 0.120299 -0.089799 0.144194
v 0.120547 -0.082782 0.152973
v 0.120430 -0.086089 0.140329
v 0.120521 -0.083505 0.135636
v 0.120749 -0.077040 0.146993
v 0.120873 -0.073528 0.115419
v 0.120890 -0.073041 0.139729
v 0.120954 -0.071223 0.123385
v 0.120960 -0.071057 0.131677
v 0.116833 -0.070911 0.131677
v 0.116827 -0.071077 0.123385
v 0.116763 -0.072895 0.139729
v 0.116622 -0.076895 0.146993
v 0.116419 -0.082637 0.152973
v 0.116169 -0.089730 0.157263
v 0.115888 -0.097691 0.159570
v 0.115596 -0.105978 0.159736
v 0.115312 -0.114025 0.157750
v 0.115056 -0.121285 0.153749
v 0.114845 -0.127261 0.148003
v 0.114694 -0.131549 0.140905
v 0.114613 -0.133854 0.132939
v 0.114607 -0.134020 0.124647
v 0.114677 -0.132035 0.116595
v 0.114818 -0.128036 0.109331
v 0.115021 -0.122294 0.103351
v 0.115271 -0.115201 0.099061
v 0.115552 -0.107239 0.096754
v 0.115844 -0.098953 0.096588
v 0.116128 -0.090906 0.098574
v 0.116384 -0.083646 0.102576
v 0.116594 -0.077669 0.108321
v 0.116746 -0.073382 0.115419
v 0.225065 -0.237511 0.143126
v 0.225220 -0.233098 0.126387
v 0.225216 -0.233206 0.121002
v 0.225275 -0.231534 0.148871
v 0.225273 -0.231601 0.131560
v 0.225371 -0.228817 0.136169
v 0.225531 -0.224275 0.152873
v 0.225508 -0.224936 0.139900
v 0.225674 -0.220222 0.142499
v 0.225815 -0.216228 0.154859
v 0.225859 -0.214996 0.143788
v 0.226108 -0.207941 0.154693
v 0.226049 -0.209615 0.143680
v 0.226231 -0.204445 0.142182
v 0.226388 -0.199980 0.152386
v 0.226393 -0.199839 0.139397
v 0.226638 -0.192887 0.148096
v 0.226525 -0.196110 0.135513
v 0.226616 -0.193513 0.130796
v 0.226662 -0.192225 0.125567
v 0.226841 -0.187145 0.142116
v 0.226814 -0.187919 0.103444
v 0.226965 -0.183632 0.110542
v 0.226982 -0.183145 0.134852
v 0.227046 -0.181327 0.118508
v 0.227052 -0.181161 0.126800
v 0.224832 -0.244103 0.128062
v 0.224896 -0.242285 0.111718
v 0.224826 -0.244270 0.119770
v 0.224913 -0.241798 0.136028
v 0.225037 -0.238286 0.104454
v 0.225240 -0.232544 0.098473
v 0.225262 -0.231917 0.115774
v 0.225490 -0.225450 0.094184
v 0.225354 -0.229320 0.111057
v 0.225485 -0.225591 0.107173
v 0.225647 -0.220985 0.104387
v 0.225771 -0.217489 0.091877
v 0.225830 -0.215815 0.102889
v 0.226063 -0.209203 0.091711
v 0.226020 -0.210434 0.102781
v 0.226204 -0.205209 0.104071
v 0.226347 -0.201156 0.093696
v 0.226370 -0.200495 0.106670
v 0.226603 -0.193896 0.097698
v 0.226507 -0.196613 0.110401
v 0.226605 -0.193829 0.115010
v 0.226658 -0.192332 0.120183
v 0.228744 -0.242421 0.111718
v 0.228885 -0.238422 0.104454
v 0.228674 -0.244405 0.119770
v 0.228680 -0.244239 0.128062
v 0.228761 -0.241934 0.136028
v 0.228912 -0.237647 0.143126
v 0.229123 -0.231670 0.148871
v 0.229379 -0.224411 0.152873
v 0.229663 -0.216363 0.154859
v 0.229955 -0.208077 0.154693
v 0.230236 -0.200116 0.152386
v 0.230486 -0.193022 0.148096
v 0.230689 -0.187280 0.142116
v 0.230830 -0.183281 0.134852
v 0.230900 -0.181297 0.126800
v 0.230894 -0.181463 0.118508
v 0.230813 -0.183768 0.110542
v 0.230661 -0.188055 0.103444
v 0.230451 -0.194032 0.097698
v 0.230194 -0.201291 0.093696
v 0.229911 -0.209338 0.091711
v 0.229618 -0.217625 0.091877
v 0.229338 -0.225586 0.094184
v 0.229087 -0.232679 0.098473
v 0.228469 -0.121121 0.146377
v 0.228625 -0.116708 0.129639
v 0.228621 -0.116816 0.124254
v 0.228680 -0.115144 0.152123
v 0.228678 -0.115211 0.134812
v 0.228776 -0.112427 0.139421
v 0.228936 -0.107885 0.156125
v 0.228913 -0.108546 0.143152
v 0.229079 -0.103832 0.145751
v 0.229220 -0.099838 0.158111
v 0.229263 -0.098606 0.147040
v 0.229512 -0.091551 0.157944
v 0.229453 -0.093225 0.146932
v 0.229635 -0.088055 0.145434
v 0.229793 -0.083590 0.155638
v 0.229798 -0.083449 0.142649
v 0.230043 -0.076496 0.151348
v 0.229929 -0.079720 0.138765
v 0.230021 -0.077123 0.134048
v 0.230066 -0.075834 0.128819
v 0.230246 -0.070754 0.145367
v 0.230218 -0.071529 0.106696
v 0.230369 -0.067242 0.113793
v 0.230387 -0.066755 0.138103
v 0.230451 -0.064937 0.121760
v 0.230457 -0.064771 0.130051
v 0.228237 -0.127713 0.131314
v 0.228301 -0.125895 0.114970
v 0.228231 -0.127879 0.123022
v 0.228318 -0.125408 0.139280
v 0.228442 -0.121896 0.107706
v 0.228644 -0.116154 0.101725
v 0.228666 -0.115527 0.119025
v 0.228895 -0.109060 0.097435
v 0.228758 -0.112930 0.114308
v 0.228890 -0.109201 0.110425
v 0.229052 -0.104595 0.107639
v 0.229175 -0.101099 0.095129
v 0.229234 -0.099425 0.106141
v 0.229468 -0.092813 0.094963
v 0.229424 -0.094044 0.106033
v 0.229608 -0.088818 0.107323
v 0.229751 -0.084765 0.096948
v 0.229775 -0.084104 0.109921
v 0.230007 -0.077506 0.100950
v 0.229912 -0.080223 0.113652
v 0.230010 -0.077439 0.118261
v 0.230063 -0.075942 0.123435
v 0.234917 -0.067402 0.113793
v 0.234998 -0.065097 0.121760
v 0.234765 -0.071689 0.106696
v 0.234555 -0.077666 0.100950
v 0.234299 -0.084926 0.096948
v 0.234015 -0.092973 0.094963
v 0.233723 -0.101259 0.095129
v 0.233442 -0.109221 0.097435
v 0.233192 -0.116314 0.101725
v 0.232989 -0.122056 0.107706
v 0.232848 -0.126055 0.114970
v 0.232778 -0.128040 0.123022
v 0.232784 -0.127874 0.131314
v 0.232865 -0.125569 0.139280
v 0.233016 -0.121281 0.146377
v 0.233227 -0.115305 0.152123
v 0.233483 -0.108045 0.156125
v 0.233767 -0.099998 0.158111
v 0.234059 -0.091711 0.157944
v 0.234340 -0.083750 0.155638
v 0.234590 -0.076657 0.151348
v 0.234793 -0.070915 0.145367
v 0.234934 -0.066915 0.138103
v 0.235004 -0.064931 0.130051
f 1 2 3
f 2 1 4
f 5 6 7
f 6 5 8
f 5 9 10
f 9 5 7
f 11 9 12
f 9 11 10
f 12 13 11
f 13 12 14
f 15 14 16
f 14 15 13
f 17 18 19
f 18 17 20
f 19 18 21
f 19 21 22
f 22 21 23
f 23 21 24
f 25 26 27
f 26 25 28
f 28 25 29
f 28 29 30
f 30 29 31
f 31 29 32
f 31 32 33
f 31 33 34
f 31 34 35
f 35 36 37
f 36 35 38
f 38 35 39
f 39 35 40
f 40 35 41
f 41 35 34
f 41 34 42
f 41 42 43
f 43 42 44
f 23 45 22
f 45 23 36
f 45 36 46
f 46 36 38
f 47 48 49
f 48 47 50
f 48 50 17
f 17 50 51
f 17 51 20
f 20 51 52
f 52 51 53
f 52 53 27
f 52 27 26
f 54 55 56
f 55 54 57
f 56 55 58
f 56 58 59
f 59 58 60
f 60 58 61
f 62 63 64
f 63 62 65
f 65 62 66
f 65 66 67
f 67 66 68
f 68 66 69
f 68 69 70
f 68 70 71
f 68 71 72
f 72 73 74
f 73 72 75
f 75 72 76
f 76 72 77
f 77 72 78
f 78 72 71
f 78 71 79
f 78 79 80
f 80 79 81
f 60 82 59
f 82 60 73
f 82 73 83
f 83 73 75
f 84 85 86
f 85 84 87
f 85 87 54
f 54 87 88
f 54 88 57
f 57 88 89
f 89 88 90
f 89 90 64
f 89 64 63
f 91 92 93
f 92 91 94
f 93 92 95
f 93 95 96
f 96 95 97
f 97 95 98
f 99 100 101
f 100 99 102
f 102 99 103
f 102 103 104
f 104 103 105
f 105 103 106
f 105 106 107
f 105 107 108
f 105 108 109
f 109 110 111
f 110 109 112
f 112 109 113
f 113 109 114
f 114 109 115
f 115 109 108
f 115 108 116
f 115 116 117
f 117 116 118
f 97 119 96
f 119 97 110
f 119 110 120
f 120 110 112
f 121 122 123
f 122 121 124
f 122 124 91
f 91 124 125
f 91 125 94
f 94 125 126
f 126 125 127
f 126 127 101
f 126 101 100
f 128 129 130
f 129 128 131
f 130 129 132
f 130 132 133
f 133 132 134
f 134 132 135
f 136 137 138
f 137 136 139
f 139 136 140
f 139 140 141
f 141 140 142
f 142 140 143
f 142 143 144
f 142 144 145
f 142 145 146
f 146 147 148
f 147 146 149
f 149 146 150
f 150 146 151
f 151 146 152
f 152 146 145
f 152 145 153
f 152 153 154
f 154 153 155
f 134 156 133
f 156 134 147
f 156 147 157
f 157 147 149
f 158 159 160
f 159 158 161
f 159 161 128
f 128 161 162
f 128 162 131
f 131 162 163
f 163 162 164
f 163 164 138
f 163 138 137
f 165 166 167
f 166 165 168
f 167 166 169
f 167 169 170
f 170 169 171
f 171 169 172
f 173 174 175
f 174 173 176
f 176 173 177
f 176 177 178
f 178 177 179
f 179 177 180
f 179 180 181
f 179 181 182
f 179 182 183
f 183 184 185
f 184 183 186
f 186 183 187
f 187 183 188
f 188 183 189
f 189 183 182
f 189 182 190
f 189 190 191
f 191 190 192
f 171 193 170
f 193 171 184
f 193 184 194
f 194 184 186
f 195 196 197
f 196 195 198
f 196 198 165
f 165 198 199
f 165 199 168
f 168 199 200
f 200 199 201
f 200 201 175
f 200 175 174
f 202 203 204
f 203 202 205
f 204 203 206
f 204 206 207
f 207 206 208
f 208 206 209
f 210 211 212
f 211 210 213
f 213 210 214
f 213 214 215
f 215 214 216
f 216 214 217
f 216 217 218
f 216 218 219
f 216 219 220
f 220 221 222
f 221 220 223
f 223 220 224
f 224 220 225
f 225 220 226
f 226 220 219
f 226 219 227
f 226 227 228
f 228 227 229
f 208 230 207
f 230 208 221
f 230 221 231
f 231 221 223
f 232 233 234
f 233 232 235
f 233 235 202
f 202 235 236
f 202 236 205
f 205 236 237
f 237 236 238
f 237 238 212
f 237 212 211
f 239 240 241
f 240 239 242
f 241 240 243
f 241 243 244
f 244 243 245
f 245 243 246
f 247 248 249
f 248 247 250
f 250 247 251
f 250 251 252
f 252 251 253
f 253 251 254
f 253 254 255
f 253 255 256
f 253 256 257
f 257 258 259
f 258 257 260
f 260 257 261
f 261 257 262
f 262 257 263
f 263 257 256
f 263 256 264
f 263 264 265
f 265 264 266
f 245 267 244
f 267 245 258
f 267 258 268
f 268 258 260
f 269 270 271
f 270 269 272
f 270 272 239
f 239 272 273
f 239 273 242
f 242 273 274
f 274 273 275
f 274 275 249
f 274 249 248
f 276 277 278
f 277 276 279
f 278 277 280
f 278 280 281
f 281 280 282
f 282 280 283
f 284 285 286
f 285 284 287
f 287 284 288
f 287 288 289
f 289 288 290
f 290 288 291
f 290 291 292
f 290 292 293
f 290 293 294
f 294 295 296
f 295 294 297
f 297 294 298
f 298 294 299
f 299 294 300
f 300 294 293
f 300 293 301
f 300 301 302
f 302 301 303
f 282 304 281
f 304 282 295
f 304 295 305
f 305 295 297
f 306 307 308
f 307 306 309
f 307 309 276
f 276 309 310
f 276 310 279
f 279 310 311
f 311 310 312
f 311 312 286
f 311 286 285
f 313 314 315
f 314 313 316
f 316 313 317
f 316 317 318
f 318 317 319
f 318 319 320
f 320 319 321
f 321 319 322
f 321 322 323
f 323 322 324
f 324 322 325
f 324 325 326
f 326 325 327
f 327 325 328
f 327 328 329
f 329 328 330
f 330 328 331
f 330 331 332
f 332 331 333
f 332 333 334
f 334 333 335
f 335 333 336
f 336 333 337
f 336 337 338
f 318 339 340
f 339 318 320
f 340 339 341
f 340 341 342
f 342 341 343
f 342 343 344
f 342 344 345
f 342 345 346
f 346 345 347
f 346 347 348
f 348 347 349
f 348 349 350
f 348 350 351
f 351 350 352
f 351 352 353
f 351 353 354
f 354 353 355
f 354 355 338
f 354 338 356
f 356 338 337
f 356 337 357
f 356 357 358
f 358 357 359
f 358 359 360
f 313 361 317
f 361 313 362
f 317 363 319
f 363 317 361
f 364 319 363
f 319 364 322
f 365 322 364
f 322 365 325
f 366 325 365
f 325 366 328
f 367 328 366
f 328 367 331
f 368 331 367
f 331 368 333
f 369 333 368
f 333 369 337
f 370 337 369
f 337 370 357
f 371 357 370
f 357 371 359
f 372 359 371
f 359 372 360
f 373 360 372
f 360 373 358
f 374 358 373
f 358 374 356
f 375 356 374
f 356 375 354
f 351 375 376
f 375 351 354
f 348 376 377
f 376 348 351
f 346 377 378
f 377 346 348
f 342 378 379
f 378 342 346
f 340 379 380
f 379 340 342
f 318 380 381
f 380 318 340
f 318 382 316
f 382 318 381
f 316 383 314
f 383 316 382
f 314 384 315
f 384 314 383
f 315 362 313
f 362 315 384
f 385 344 386
f 344 385 345
f 387 345 385
f 345 387 347
f 388 347 387
f 347 388 349
f 389 349 388
f 349 389 350
f 390 350 389
f 350 390 352
f 352 391 353
f 391 352 390
f 353 392 355
f 392 353 391
f 355 393 338
f 393 355 392
f 338 394 336
f 394 338 393
f 336 395 335
f 395 336 394
f 335 396 334
f 396 335 395
f 332 396 397
f 396 332 334
f 330 397 398
f 397 330 332
f 329 398 399
f 398 329 330
f 327 399 400
f 399 327 329
f 326 400 401
f 400 326 327
f 324 401 402
f 401 324 326
f 403 324 402
f 324 403 323
f 404 323 403
f 323 404 321
f 405 321 404
f 321 405 320
f 406 320 405
f 320 406 339
f 407 339 406
f 339 407 341
f 408 341 407
f 341 408 343
f 386 343 408
f 343 386 344
f 409 410 411
f 410 409 412
f 412 409 413
f 412 413 414
f 414 413 415
f 414 415 416
f 416 415 417
f 417 415 418
f 417 418 419
f 419 418 420
f 420 418 421
f 421 418 422
f 421 422 423
f 423 422 424
f 423 424 425
f 425 424 426
f 426 424 427
f 426 427 428
f 428 427 429
f 428 429 430
f 430 429 431
f 431 429 432
f 432 429 433
f 432 433 434
f 414 435 436
f 435 414 416
f 436 435 437
f 436 437 438
f 438 437 439
f 438 439 440
f 438 440 441
f 438 441 442
f 442 441 443
f 442 443 444
f 444 443 445
f 444 445 446
f 444 446 447
f 447 446 448
f 447 448 449
f 449 448 450
f 449 450 451
f 449 451 434
f 449 434 452
f 452 434 433
f 452 433 453
f 452 453 454
f 454 453 455
f 454 455 456
f 457 455 458
f 455 457 456
f 459 456 457
f 456 459 454
f 460 454 459
f 454 460 452
f 461 452 460
f 452 461 449
f 447 461 462
f 461 447 449
f 444 462 463
f 462 444 447
f 442 463 464
f 463 442 444
f 438 464 465
f 464 438 442
f 436 465 466
f 465 436 438
f 414 466 467
f 466 414 436
f 414 468 412
f 468 414 467
f 412 469 410
f 469 412 468
f 410 470 411
f 470 410 469
f 411 471 409
f 471 411 470
f 409 472 413
f 472 409 471
f 413 473 415
f 473 413 472
f 474 415 473
f 415 474 418
f 475 418 474
f 418 475 422
f 476 422 475
f 422 476 424
f 477 424 476
f 424 477 427
f 478 427 477
f 427 478 429
f 479 429 478
f 429 479 433
f 480 433 479
f 433 480 453
f 458 453 480
f 453 458 455
f 481 482 483
f 482 481 484
f 482 484 485
f 485 484 486
f 486 484 487
f 486 487 488
f 488 487 489
f 489 487 490
f 489 490 491
f 491 490 492
f 491 492 493
f 493 492 494
f 494 492 495
f 494 495 496
f 496 495 497
f 496 497 498
f 498 497 499
f 499 497 500
f 500 497 501
f 500 501 502
f 502 501 503
f 503 501 504
f 503 504 505
f 505 504 506
f 507 508 509
f 508 507 510
f 508 510 511
f 511 510 481
f 511 481 512
f 512 481 483
f 512 483 513
f 512 513 514
f 514 513 515
f 514 515 516
f 514 516 517
f 514 517 518
f 518 517 519
f 518 519 520
f 520 519 521
f 520 521 522
f 520 522 523
f 523 522 524
f 523 524 525
f 525 524 526
f 525 526 527
f 525 527 502
f 502 527 528
f 502 528 500
f 529 511 530
f 511 529 508
f 531 508 529
f 508 531 509
f 532 509 531
f 509 532 507
f 533 507 532
f 507 533 510
f 534 510 533
f 510 534 481
f 534 484 481
f 484 534 535
f 535 487 484
f 487 535 536
f 536 490 487
f 490 536 537
f 537 492 490
f 492 537 538
f 538 495 492
f 495 538 539
f 539 497 495
f 497 539 540
f 497 541 501
f 541 497 540
f 501 542 504
f 542 501 541
f 504 543 506
f 543 504 542
f 506 544 505
f 544 506 543
f 505 545 503
f 545 505 544
f 503 546 502
f 546 503 545
f 502 547 525
f 547 502 546
f 525 548 523
f 548 525 547
f 523 549 520
f 549 523 548
f 520 550 518
f 550 520 549
f 518 551 514
f 551 518 550
f 514 552 512
f 552 514 551
f 530 512 552
f 512 530 511
f 553 554 555
f 554 553 556
f 554 556 557
f 557 556 558
f 558 556 559
f 558 559 560
f 560 559 561
f 561 559 562
f 561 562 563
f 563 562 564
f 563 564 565
f 565 564 566
f 566 564 567
f 566 567 568
f 568 567 569
f 568 569 570
f 570 569 571
f 571 569 572
f 572 569 573
f 572 573 574
f 574 573 575
f 575 573 576
f 575 576 577
f 577 576 578
f 579 580 581
f 580 579 582
f 580 582 583
f 583 582 553
f 583 553 584
f 584 553 555
f 584 555 585
f 584 585 586
f 586 585 587
f 586 587 588
f 586 588 589
f 586 589 590
f 590 589 591
f 590 591 592
f 592 591 593
f 592 593 594
f 592 594 595
f 595 594 596
f 595 596 597
f 597 596 598
f 597 598 599
f 597 599 574
f 574 599 600
f 574 600 572
f 577 601 575
f 601 577 602
f 575 603 574
f 603 575 601
f 574 604 597
f 604 574 603
f 597 605 595
f 605 597 604
f 595 606 592
f 606 595 605
f 592 607 590
f 607 592 606
f 590 608 586
f 608 590 607
f 586 609 584
f 609 586 608
f 610 584 609
f 584 610 583
f 611 583 610
f 583 611 580
f 612 580 611
f 580 612 581
f 613 581 612
f 581 613 579
f 614 579 613
f 579 614 582
f 615 582 614
f 582 615 553
f 615 556 553
f 556 615 616
f 616 559 556
f 559 616 617
f 617 562 559
f 562 617 618
f 618 564 562
f 564 618 619
f 619 567 564
f 567 619 620
f 620 569 567
f 569 620 621
f 569 622 573
f 622 569 621
f 573 623 576
f 623 573 622
f 576 624 578
f 624 576 623
f 578 602 577
f 602 578 624
f 3 2 1
f 4 1 2
f 7 6 5
f 8 5 6
f 10 9 5
f 7 5 9
f 12 9 11
f 10 11 9
f 11 13 12
f 14 12 13
f 16 14 15
f 13 15 14
f 19 18 17
f 20 17 18
f 21 18 19
f 22 21 19
f 23 21 22
f 24 21 23
f 27 26 25
f 28 25 26
f 29 25 28
f 30 29 28
f 31 29 30
f 32 29 31
f 33 32 31
f 34 33 31
f 35 34 31
f 37 36 35
f 38 35 36
f 39 35 38
f 40 35 39
f 41 35 40
f 34 35 41
f 42 34 41
f 43 42 41
f 44 42 43
f 22 45 23
f 36 23 45
f 46 36 45
f 38 36 46
f 49 48 47
f 50 47 48
f 17 50 48
f 51 50 17
f 20 51 17
f 52 51 20
f 53 51 52
f 27 53 52
f 26 27 52
f 56 55 54
f 57 54 55
f 58 55 56
f 59 58 56
f 60 58 59
f 61 58 60
f 64 63 62
f 65 62 63
f 66 62 65
f 67 66 65
f 68 66 67
f 69 66 68
f 70 69 68
f 71 70 68
f 72 71 68
f 74 73 72
f 75 72 73
f 76 72 75
f 77 72 76
f 78 72 77
f 71 72 78
f 79 71 78
f 80 79 78
f 81 79 80
f 59 82 60
f 73 60 82
f 83 73 82
f 75 73 83
f 86 85 84
f 87 84 85
f 54 87 85
f 88 87 54
f 57 88 54
f 89 88 57
f 90 88 89
f 64 90 89
f 63 64 89
f 93 92 91
f 94 91 92
f 95 92 93
f 96 95 93
f 97 95 96
f 98 95 97
f 101 100 99
f 102 99 100
f 103 99 102
f 104 103 102
f 105 103 104
f 106 103 105
f 107 106 105
f 108 107 105
f 109 108 105
f 111 110 109
f 112 109 110
f 113 109 112
f 114 109 113
f 115 109 114
f 108 109 115
f 116 108 115
f 117 116 115
f 118 116 117
f 96 119 97
f 110 97 119
f 120 110 119
f 112 110 120
f 123 122 121
f 124 121 122
f 91 124 122
f 125 124 91
f 94 125 91
f 126 125 94
f 127 125 126
f 101 127 126
f 100 101 126
f 130 129 128
f 131 128 129
f 132 129 130
f 133 132 130
f 134 132 133
f 135 132 134
f 138 137 136
f 139 136 137
f 140 136 139
f 141 140 139
f 142 140 141
f 143 140 142
f 144 143 142
f 145 144 142
f 146 145 142
f 148 147 146
f 149 146 147
f 150 146 149
f 151 146 150
f 152 146 151
f 145 146 152
f 153 145 152
f 154 153 152
f 155 153 154
f 133 156 134
f 147 134 156
f 157 147 156
f 149 147 157
f 160 159 158
f 161 158 159
f 128 161 159
f 162 161 128
f 131 162 128
f 163 162 131
f 164 162 163
f 138 164 163
f 137 138 163
f 167 166 165
f 168 165 166
f 169 166 167
f 170 169 167
f 171 169 170
f 172 169 171
f 175 174 173
f 176 173 174
f 177 173 176
f 178 177 176
f 179 177 178
f 180 177 179
f 181 180 179
f 182 181 179
f 183 182 179
f 185 184 183
f 186 183 184
f 187 183 186
f 188 183 187
f 189 183 188
f 182 183 189
f 190 182 189
f 191 190 189
f 192 190 191
f 170 193 171
f 184 171 193
f 194 184 193
f 186 184 194
f 197 196 195
f 198 195 196
f 165 198 196
f 199 198 165
f 168 199 165
f 200 199 168
f 201 199 200
f 175 201 200
f 174 175 200
f 204 203 202
f 205 202 203
f 206 203 204
f 207 206 204
f 208 206 207
f 209 206 208
f 212 211 210
f 213 210 211
f 214 210 213
f 215 214 213
f 216 214 215
f 217 214 216
f 218 217 216
f 219 218 216
f 220 219 216
f 222 221 220
f 223 220 221
f 224 220 223
f 225 220 224
f 226 220 225
f 219 220 226
f 227 219 226
f 228 227 226
f 229 227 228
f 207 230 208
f 221 208 230
f 231 221 230
f 223 221 231
f 234 233 232
f 235 232 233
f 202 235 233
f 236 235 202
f 205 236 202
f 237 236 205
f 238 236 237
f 212 238 237
f 211 212 237
f 241 240 239
f 242 239 240
f 243 240 241
f 244 243 241
f 245 243 244
f 246 243 245
f 249 248 247
f 250 247 248
f 251 247 250
f 252 251 250
f 253 251 252
f 254 251 253
f 255 254 253
f 256 255 253
f 257 256 253
f 259 258 257
f 260 257 258
f 261 257 260
f 262 257 261
f 263 257 262
f 256 257 263
f 264 256 263
f 265 264 263
f 266 264 265
f 244 267 245
f 258 245 267
f 268 258 267
f 260 258 268
f 271 270 269
f 272 269 270
f 239 272 270
f 273 272 239
f 242 273 239
f 274 273 242
f 275 273 274
f 249 275 274
f 248 249 274
f 278 277 276
f 279 276 277
f 280 277 278
f 281 280 278
f 282 280 281
f 283 280 282
f 286 285 284
f 287 284 285
f 288 284 287
f 289 288 287
f 290 288 289
f 291 288 290
f 292 291 290
f 293 292 290
f 294 293 290
f 296 295 294
f 297 294 295
f 298 294 297
f 299 294 298
f 300 294 299
f 293 294 300
f 301 293 300
f 302 301 300
f 303 301 302
f 281 304 282
f 295 282 304
f 305 295 304
f 297 295 305
f 308 307 306
f 309 306 307
f 276 309 307
f 310 309 276
f 279 310 276
f 311 310 279
f 312 310 311
f 286 312 311
f 285 286 311
f 315 314 313
f 316 313 314
f 317 313 316
f 318 317 316
f 319 317 318
f 320 319 318
f 321 319 320
f 322 319 321
f 323 322 321
f 324 322 323
f 325 322 324
f 326 325 324
f 327 325 326
f 328 325 327
f 329 328 327
f 330 328 329
f 331 328 330
f 332 331 330
f 333 331 332
f 334 333 332
f 335 333 334
f 336 333 335
f 337 333 336
f 338 337 336
f 340 339 318
f 320 318 339
f 341 339 340
f 342 341 340
f 343 341 342
f 344 343 342
f 345 344 342
f 346 345 342
f 347 345 346
f 348 347 346
f 349 347 348
f 350 349 348
f 351 350 348
f 352 350 351
f 353 352 351
f 354 353 351
f 355 353 354
f 338 355 354
f 356 338 354
f 337 338 356
f 357 337 356
f 358 357 356
f 359 357 358
f 360 359 358
f 317 361 313
f 362 313 361
f 319 363 317
f 361 317 363
f 363 319 364
f 322 364 319
f 364 322 365
f 325 365 322
f 365 325 366
f 328 366 325
f 366 328 367
f 331 367 328
f 367 331 368
f 333 368 331
f 368 333 369
f 337 369 333
f 369 337 370
f 357 370 337
f 370 357 371
f 359 371 357
f 371 359 372
f 360 372 359
f 372 360 373
f 358 373 360
f 373 358 374
f 356 374 358
f 374 356 375
f 354 375 356
f 376 375 351
f 354 351 375
f 377 376 348
f 351 348 376
f 378 377 346
f 348 346 377
f 379 378 342
f 346 342 378
f 380 379 340
f 342 340 379
f 381 380 318
f 340 318 380
f 316 382 318
f 381 318 382
f 314 383 316
f 382 316 383
f 315 384 314
f 383 314 384
f 313 362 315
f 384 315 362
f 386 344 385
f 345 385 344
f 385 345 387
f 347 387 345
f 387 347 388
f 349 388 347
f 388 349 389
f 350 389 349
f 389 350 390
f 352 390 350
f 353 391 352
f 390 352 391
f 355 392 353
f 391 353 392
f 338 393 355
f 392 355 393
f 336 394 338
f 393 338 394
f 335 395 336
f 394 336 395
f 334 396 335
f 395 335 396
f 397 396 332
f 334 332 396
f 398 397 330
f 332 330 397
f 399 398 329
f 330 329 398
f 400 399 327
f 329 327 399
f 401 400 326
f 327 326 400
f 402 401 324
f 326 324 401
f 402 324 403
f 323 403 324
f 403 323 404
f 321 404 323
f 404 321 405
f 320 405 321
f 405 320 406
f 339 406 320
f 406 339 407
f 341 407 339
f 407 341 408
f 343 408 341
f 408 343 386
f 344 386 343
f 411 410 409
f 412 409 410
f 413 409 412
f 414 413 412
f 415 413 414
f 416 415 414
f 417 415 416
f 418 415 417
f 419 418 417
f 420 418 419
f 421 418 420
f 422 418 421
f 423 422 421
f 424 422 423
f 425 424 423
f 426 424 425
f 427 424 426
f 428 427 426
f 429 427 428
f 430 429 428
f 431 429 430
f 432 429 431
f 433 429 432
f 434 433 432
f 436 435 414
f 416 414 435
f 437 435 436
f 438 437 436
f 439 437 438
f 440 439 438
f 441 440 438
f 442 441 438
f 443 441 442
f 444 443 442
f 445 443 444
f 446 445 444
f 447 446 444
f 448 446 447
f 449 448 447
f 450 448 449
f 451 450 449
f 434 451 449
f 452 434 449
f 433 434 452
f 453 433 452
f 454 453 452
f 455 453 454
f 456 455 454
f 458 455 457
f 456 457 455
f 457 456 459
f 454 459 456
f 459 454 460
f 452 460 454
f 460 452 461
f 449 461 452
f 462 461 447
f 449 447 461
f 463 462 444
f 447 444 462
f 464 463 442
f 444 442 463
f 465 464 438
f 442 438 464
f 466 465 436
f 438 436 465
f 467 466 414
f 436 414 466
f 412 468 414
f 467 414 468
f 410 469 412
f 468 412 469
f 411 470 410
f 469 410 470
f 409 471 411
f 470 411 471
f 413 472 409
f 471 409 472
f 415 473 413
f 472 413 473
f 473 415 474
f 418 474 415
f 474 418 475
f 422 475 418
f 475 422 476
f 424 476 422
f 476 424 477
f 427 477 424
f 477 427 478
f 429 478 427
f 478 429 479
f 433 479 429
f 479 433 480
f 453 480 433
f 480 453 458
f 455 458 453
f 483 482 481
f 484 481 482
f 485 484 482
f 486 484 485
f 487 484 486
f 488 487 486
f 489 487 488
f 490 487 489
f 491 490 489
f 492 490 491
f 493 492 491
f 494 492 493
f 495 492 494
f 496 495 494
f 497 495 496
f 498 497 496
f 499 497 498
f 500 497 499
f 501 497 500
f 502 501 500
f 503 501 502
f 504 501 503
f 505 504 503
f 506 504 505
f 509 508 507
f 510 507 508
f 511 510 508
f 481 510 511
f 512 481 511
f 483 481 512
f 513 483 512
f 514 513 512
f 515 513 514
f 516 515 514
f 517 516 514
f 518 517 514
f 519 517 518
f 520 519 518
f 521 519 520
f 522 521 520
f 523 522 520
f 524 522 523
f 525 524 523
f 526 524 525
f 527 526 525
f 502 527 525
f 528 527 502
f 500 528 502
f 530 511 529
f 508 529 511
f 529 508 531
f 509 531 508
f 531 509 532
f 507 532 509
f 532 507 533
f 510 533 507
f 533 510 534
f 481 534 510
f 481 484 534
f 535 534 484
f 484 487 535
f 536 535 487
f 487 490 536
f 537 536 490
f 490 492 537
f 538 537 492
f 492 495 538
f 539 538 495
f 495 497 539
f 540 539 497
f 501 541 497
f 540 497 541
f 504 542 501
f 541 501 542
f 506 543 504
f 542 504 543
f 505 544 506
f 543 506 544
f 503 545 505
f 544 505 545
f 502 546 503
f 545 503 546
f 525 547 502
f 546 502 547
f 523 548 525
f 547 525 548
f 520 549 523
f 548 523 549
f 518 550 520
f 549 520 550
f 514 551 518
f 550 518 551
f 512 552 514
f 551 514 552
f 552 512 530
f 511 530 512
f 555 554 553
f 556 553 554
f 557 556 554
f 558 556 557
f 559 556 558
f 560 559 558
f 561 559 560
f 562 559 561
f 563 562 561
f 564 562 563
f 565 564 563
f 566 564 565
f 567 564 566
f 568 567 566
f 569 567 568
f 570 569 568
f 571 569 570
f 572 569 571
f 573 569 572
f 574 573 572
f 575 573 574
f 576 573 575
f 577 576 575
f 578 576 577
f 581 580 579
f 582 579 580
f 583 582 580
f 553 582 583
f 584 553 583
f 555 553 584
f 585 555 584
f 586 585 584
f 587 585 586
f 588 587 586
f 589 588 586
f 590 589 586
f 591 589 590
f 592 591 590
f 593 591 592
f 594 593 592
f 595 594 592
f 596 594 595
f 597 596 595
f 598 596 597
f 599 598 597
f 574 599 597
f 600 599 574
f 572 600 574
f 575 601 577
f 602 577 601
f 574 603 575
f 601 575 603
f 597 604 574
f 603 574 604
f 595 605 597
f 604 597 605
f 592 606 595
f 605 595 606
f 590 607 592
f 606 592 607
f 586 608 590
f 607 590 608
f 584 609 586
f 608 586 609
f 609 584 610
f 583 610 584
f 610 583 611
f 580 611 583
f 611 580 612
f 581 612 580
f 612 581 613
f 579 613 581
f 613 579 614
f 582 614 579
f 614 582 615
f 553 615 582
f 553 556 615
f 616 615 556
f 556 559 616
f 617 616 559
f 559 562 617
f 618 617 562
f 562 564 618
f 619 618 564
f 564 567 619
f 620 619 567
f 567 569 620
f 621 620 569
f 573 622 569
f 621 569 622
f 576 623 573
f 622 573 623
f 578 624 576
f 623 576 624
f 577 602 578
f 624 578 602
