v 0.118243 -0.244122 0.091851
v 0.118813 -0.244197 0.090911
v 0.118243 -0.244122 0.090911
v 0.118813 -0.244197 0.091851
v 0.117674 -0.244197 0.091851
v 0.117674 -0.244197 0.090911
v 0.117143 -0.244417 0.091851
v 0.117143 -0.244417 0.090911
v 0.116688 -0.244766 0.091851
v 0.116688 -0.244766 0.090911
v 0.116338 -0.245222 0.090911
v 0.116338 -0.245222 0.091851
v 0.116118 -0.245753 0.090911
v 0.116118 -0.245753 0.091851
v 0.116043 -0.246322 0.090911
v 0.116043 -0.246322 0.091851
v 0.116118 -0.246892 0.090911
v 0.116118 -0.246892 0.091851
v 0.116338 -0.247422 0.090911
v 0.116338 -0.247422 0.091851
v 0.116688 -0.247878 0.090911
v 0.116688 -0.247878 0.091851
v 0.117143 -0.248227 0.091851
v 0.117143 -0.248227 0.090911
v 0.117674 -0.248447 0.091851
v 0.117674 -0.248447 0.090911
v 0.118243 -0.248522 0.091851
v 0.118243 -0.248522 0.090911
v 0.118813 -0.248447 0.091851
v 0.118813 -0.248447 0.090911
v 0.119343 -0.248227 0.091851
v 0.119343 -0.248227 0.090911
v 0.119799 -0.247878 0.091851
v 0.119799 -0.247878 0.090911
v 0.120149 -0.247422 0.090911
v 0.120149 -0.247422 0.091851
v 0.120368 -0.246892 0.090911
v 0.120368 -0.246892 0.091851
v 0.120443 -0.246322 0.090911
v 0.120443 -0.246322 0.091851
v 0.120368 -0.245753 0.090911
v 0.120368 -0.245753 0.091851
v 0.120149 -0.245222 0.090911
v 0.120149 -0.245222 0.091851
v 0.119799 -0.244766 0.090911
v 0.119799 -0.244766 0.091851
v 0.119343 -0.244417 0.091851
v 0.119343 -0.244417 0.090911
v 0.118654 -0.247677 0.091491
v 0.117674 -0.246547 0.091491
v 0.117674 -0.247677 0.091491
v 0.117674 -0.245597 0.091491
v 0.117674 -0.245307 0.091491
v 0.118644 -0.245567 0.091491
v 0.118654 -0.246547 0.091491
v 0.119924 -0.245567 0.091491
v 0.119924 -0.246547 0.091491
v 0.118644 -0.244677 0.091491
v 0.117634 -0.244677 0.091491
v 0.116544 -0.245597 0.091491
v 0.116544 -0.246547 0.091491
v 0.117674 -0.245597 0.091851
v 0.117674 -0.245307 0.091851
v 0.116544 -0.245597 0.091851
v 0.116544 -0.246547 0.091851
v 0.117674 -0.246547 0.091851
v 0.117674 -0.247677 0.091851
v 0.118654 -0.247677 0.091851
v 0.118654 -0.246547 0.091851
v 0.119924 -0.246547 0.091851
v 0.119924 -0.245567 0.091851
v 0.118644 -0.245567 0.091851
v 0.118644 -0.244677 0.091851
v 0.117634 -0.244677 0.091851
v 0.220611 -0.248777 0.091851
v 0.220155 -0.248427 0.090911
v 0.220611 -0.248777 0.090911
v 0.220155 -0.248427 0.091851
v 0.223836 -0.246302 0.090911
v 0.223911 -0.246872 0.091851
v 0.223911 -0.246872 0.090911
v 0.223836 -0.246302 0.091851
v 0.222811 -0.244966 0.091851
v 0.223266 -0.245316 0.090911
v 0.222811 -0.244966 0.090911
v 0.223266 -0.245316 0.091851
v 0.223616 -0.245772 0.091851
v 0.223616 -0.245772 0.090911
v 0.223266 -0.248427 0.091851
v 0.222811 -0.248777 0.090911
v 0.223266 -0.248427 0.090911
v 0.222811 -0.248777 0.091851
v 0.219805 -0.245772 0.091851
v 0.219586 -0.246302 0.090911
v 0.219586 -0.246302 0.091851
v 0.219805 -0.245772 0.090911
v 0.222121 -0.247096 0.091851
v 0.222121 -0.248226 0.091491
v 0.222121 -0.248226 0.091851
v 0.222121 -0.247096 0.091491
v 0.219511 -0.246872 0.091851
v 0.219586 -0.247441 0.090911
v 0.219586 -0.247441 0.091851
v 0.219511 -0.246872 0.090911
v 0.223391 -0.246116 0.091851
v 0.223391 -0.247096 0.091491
v 0.223391 -0.247096 0.091851
v 0.223391 -0.246116 0.091491
v 0.223836 -0.247441 0.090911
v 0.223616 -0.247972 0.091851
v 0.223616 -0.247972 0.090911
v 0.223836 -0.247441 0.091851
v 0.222111 -0.245226 0.091851
v 0.222111 -0.246116 0.091491
v 0.222111 -0.246116 0.091851
v 0.222111 -0.245226 0.091491
v 0.221711 -0.249072 0.091851
v 0.221141 -0.248997 0.090911
v 0.221711 -0.249072 0.090911
v 0.221141 -0.248997 0.091851
v 0.221141 -0.247096 0.091491
v 0.221141 -0.248226 0.091851
v 0.221141 -0.248226 0.091491
v 0.221141 -0.247096 0.091851
v 0.222280 -0.248997 0.091851
v 0.222280 -0.248997 0.090911
v 0.221711 -0.244672 0.091851
v 0.222280 -0.244747 0.090911
v 0.221711 -0.244672 0.090911
v 0.222280 -0.244747 0.091851
v 0.220011 -0.246146 0.091491
v 0.220011 -0.247096 0.091851
v 0.220011 -0.247096 0.091491
v 0.220011 -0.246146 0.091851
v 0.221141 -0.246146 0.091491
v 0.221141 -0.245856 0.091491
v 0.221101 -0.245226 0.091491
v 0.219805 -0.247972 0.091851
v 0.219805 -0.247972 0.090911
v 0.220155 -0.245316 0.091851
v 0.220155 -0.245316 0.090911
v 0.221141 -0.246146 0.091851
v 0.221141 -0.245856 0.091851
v 0.220611 -0.244966 0.090911
v 0.220611 -0.244966 0.091851
v 0.221101 -0.245226 0.091851
v 0.221141 -0.244747 0.090911
v 0.221141 -0.244747 0.091851
v 0.119549 -0.154047 0.091851
v 0.119474 -0.154617 0.090911
v 0.119474 -0.154617 0.091851
v 0.119549 -0.154047 0.090911
v 0.119549 -0.155186 0.090911
v 0.119549 -0.155186 0.091851
v 0.120574 -0.152712 0.091851
v 0.121104 -0.152492 0.090911
v 0.120574 -0.152712 0.090911
v 0.121104 -0.152492 0.091851
v 0.122074 -0.152971 0.091851
v 0.122074 -0.153861 0.091491
v 0.122074 -0.153861 0.091851
v 0.122074 -0.152971 0.091491
v 0.123354 -0.153861 0.091851
v 0.123354 -0.154841 0.091491
v 0.123354 -0.154841 0.091851
v 0.123354 -0.153861 0.091491
v 0.122084 -0.154841 0.091851
v 0.122084 -0.154841 0.091491
v 0.123229 -0.153061 0.090911
v 0.123579 -0.153517 0.091851
v 0.123579 -0.153517 0.090911
v 0.123229 -0.153061 0.091851
v 0.121104 -0.153601 0.091491
v 0.121104 -0.153891 0.091851
v 0.121104 -0.153891 0.091491
v 0.121104 -0.153601 0.091851
v 0.122774 -0.156522 0.091851
v 0.122243 -0.156742 0.090911
v 0.122774 -0.156522 0.090911
v 0.122243 -0.156742 0.091851
v 0.119768 -0.155717 0.091851
v 0.120118 -0.156173 0.090911
v 0.120118 -0.156173 0.091851
v 0.119768 -0.155717 0.090911
v 0.122084 -0.155971 0.091491
v 0.122084 -0.155971 0.091851
v 0.121064 -0.152971 0.091491
v 0.121064 -0.152971 0.091851
v 0.123799 -0.154047 0.091851
v 0.123799 -0.154047 0.090911
v 0.123579 -0.155717 0.090911
v 0.123229 -0.156173 0.091851
v 0.123229 -0.156173 0.090911
v 0.123579 -0.155717 0.091851
v 0.121674 -0.156817 0.090911
v 0.121674 -0.156817 0.091851
v 0.120118 -0.153061 0.091851
v 0.120118 -0.153061 0.090911
v 0.119768 -0.153517 0.090911
v 0.119768 -0.153517 0.091851
v 0.121104 -0.156742 0.090911
v 0.121104 -0.156742 0.091851
v 0.123874 -0.154617 0.090911
v 0.123799 -0.155186 0.091851
v 0.123799 -0.155186 0.090911
v 0.123874 -0.154617 0.091851
v 0.119974 -0.153891 0.091491
v 0.119974 -0.153891 0.091851
v 0.121104 -0.154841 0.091491
v 0.121104 -0.155971 0.091491
v 0.119974 -0.154841 0.091491
v 0.119974 -0.154841 0.091851
v 0.121104 -0.155971 0.091851
v 0.121104 -0.154841 0.091851
v 0.120574 -0.156522 0.090911
v 0.120574 -0.156522 0.091851
v 0.121674 -0.152417 0.091851
v 0.121709 -0.152422 0.090911
v 0.121674 -0.152417 0.090911
v 0.122243 -0.152492 0.090911
v 0.122243 -0.152492 0.091851
v 0.122774 -0.152712 0.090911
v 0.122774 -0.152712 0.091851
v 0.121638 -0.152422 0.090911
v 0.119602 -0.153918 0.090911
v 0.122345 -0.136780 0.091831
v 0.121814 -0.137000 0.090891
v 0.122345 -0.136780 0.090891
v 0.121814 -0.137000 0.091831
v 0.122925 -0.134119 0.091831
v 0.122925 -0.135099 0.091471
v 0.122925 -0.135099 0.091831
v 0.122925 -0.134119 0.091471
v 0.119045 -0.134875 0.091831
v 0.119120 -0.135444 0.090891
v 0.119120 -0.135444 0.091831
v 0.119045 -0.134875 0.090891
v 0.119339 -0.133775 0.091831
v 0.119120 -0.134305 0.090891
v 0.119120 -0.134305 0.091831
v 0.119173 -0.134175 0.090891
v 0.119339 -0.133775 0.090891
v 0.122800 -0.133319 0.090891
v 0.123150 -0.133775 0.091831
v 0.123150 -0.133775 0.090891
v 0.122800 -0.133319 0.091831
v 0.120675 -0.135099 0.091471
v 0.120675 -0.136229 0.091831
v 0.120675 -0.136229 0.091471
v 0.120675 -0.135099 0.091831
v 0.122345 -0.132969 0.091831
v 0.122345 -0.132969 0.090891
v 0.119689 -0.133319 0.091831
v 0.120145 -0.132969 0.090891
v 0.119689 -0.133319 0.090891
v 0.120145 -0.132969 0.091831
v 0.121655 -0.136229 0.091471
v 0.121655 -0.136229 0.091831
v 0.123150 -0.135975 0.090891
v 0.122800 -0.136430 0.091831
v 0.122800 -0.136430 0.090891
v 0.123150 -0.135975 0.091831
v 0.121655 -0.135099 0.091831
v 0.121655 -0.135099 0.091471
v 0.120635 -0.133229 0.091471
v 0.120675 -0.133859 0.091831
v 0.120675 -0.133859 0.091471
v 0.120635 -0.133229 0.091831
v 0.120675 -0.137000 0.091831
v 0.120145 -0.136780 0.090891
v 0.120675 -0.137000 0.090891
v 0.120145 -0.136780 0.091831
v 0.119545 -0.134149 0.091471
v 0.119545 -0.135099 0.091831
v 0.119545 -0.135099 0.091471
v 0.119545 -0.134149 0.091831
v 0.121245 -0.132675 0.091831
v 0.121814 -0.132750 0.090891
v 0.121245 -0.132675 0.090891
v 0.121814 -0.132750 0.091831
v 0.119339 -0.135975 0.091831
v 0.119689 -0.136430 0.090891
v 0.119689 -0.136430 0.091831
v 0.119339 -0.135975 0.090891
v 0.121245 -0.137075 0.090891
v 0.121245 -0.137075 0.091831
v 0.120675 -0.132750 0.091831
v 0.120675 -0.132750 0.090891
v 0.120675 -0.134149 0.091831
v 0.120675 -0.134149 0.091471
v 0.121645 -0.134119 0.091471
v 0.121645 -0.133229 0.091471
v 0.121645 -0.133229 0.091831
v 0.121645 -0.134119 0.091831
v 0.123445 -0.134875 0.090891
v 0.123370 -0.135444 0.091831
v 0.123370 -0.135444 0.090891
v 0.123445 -0.134875 0.091831
v 0.123370 -0.134305 0.090891
v 0.123370 -0.134305 0.091831
v 0.224256 -0.153376 0.091491
v 0.224296 -0.154006 0.091851
v 0.224296 -0.154006 0.091491
v 0.224256 -0.153376 0.091851
v 0.226938 -0.154324 0.090911
v 0.226990 -0.154452 0.091851
v 0.226990 -0.154452 0.090911
v 0.226771 -0.153921 0.091851
v 0.226771 -0.153921 0.090911
v 0.225276 -0.156376 0.091491
v 0.224296 -0.155246 0.091491
v 0.224296 -0.156376 0.091491
v 0.224296 -0.154296 0.091491
v 0.225266 -0.154266 0.091491
v 0.225276 -0.155246 0.091491
v 0.226546 -0.154266 0.091491
v 0.226546 -0.155246 0.091491
v 0.225266 -0.153376 0.091491
v 0.223166 -0.154296 0.091491
v 0.223166 -0.155246 0.091491
v 0.224296 -0.156376 0.091851
v 0.225276 -0.156376 0.091851
v 0.227065 -0.155021 0.090911
v 0.226990 -0.155591 0.091851
v 0.226990 -0.155591 0.090911
v 0.227065 -0.155021 0.091851
v 0.224865 -0.152821 0.091851
v 0.225435 -0.152896 0.090911
v 0.224865 -0.152821 0.090911
v 0.225435 -0.152896 0.091851
v 0.224296 -0.157146 0.091851
v 0.223765 -0.156926 0.090911
v 0.224296 -0.157146 0.090911
v 0.223765 -0.156926 0.091851
v 0.222740 -0.154452 0.091851
v 0.222665 -0.155021 0.090911
v 0.222665 -0.155021 0.091851
v 0.222740 -0.154452 0.090911
v 0.224296 -0.152896 0.091851
v 0.224296 -0.152896 0.090911
v 0.224296 -0.155246 0.091851
v 0.223310 -0.156577 0.090911
v 0.223310 -0.156577 0.091851
v 0.226771 -0.156121 0.090911
v 0.226421 -0.156577 0.091851
v 0.226421 -0.156577 0.090911
v 0.226771 -0.156121 0.091851
v 0.225435 -0.157146 0.091851
v 0.224865 -0.157221 0.090911
v 0.225435 -0.157146 0.090911
v 0.224865 -0.157221 0.091851
v 0.226546 -0.154266 0.091851
v 0.226546 -0.155246 0.091851
v 0.225266 -0.153376 0.091851
v 0.225266 -0.154266 0.091851
v 0.224296 -0.154296 0.091851
v 0.223166 -0.154296 0.091851
v 0.223765 -0.153116 0.091851
v 0.223765 -0.153116 0.090911
v 0.226889 -0.155835 0.090911
v 0.223166 -0.155246 0.091851
v 0.225276 -0.155246 0.091851
v 0.225965 -0.153116 0.091851
v 0.226421 -0.153465 0.090911
v 0.225965 -0.153116 0.090911
v 0.226421 -0.153465 0.091851
v 0.223310 -0.153465 0.091851
v 0.223310 -0.153465 0.090911
v 0.222960 -0.153921 0.091851
v 0.222960 -0.153921 0.090911
v 0.222960 -0.156121 0.091851
v 0.222960 -0.156121 0.090911
v 0.225965 -0.156926 0.091851
v 0.225965 -0.156926 0.090911
v 0.222740 -0.155591 0.090911
v 0.222740 -0.155591 0.091851
v 0.222729 -0.155508 0.090911
v 0.222672 -0.155073 0.090911
v 0.224697 -0.134149 0.091831
v 0.223567 -0.134149 0.091471
v 0.224697 -0.134149 0.091471
v 0.223567 -0.134149 0.091831
v 0.227391 -0.134305 0.090891
v 0.227466 -0.134875 0.091831
v 0.227466 -0.134875 0.090891
v 0.227391 -0.134305 0.091831
v 0.227171 -0.133775 0.090891
v 0.227171 -0.133775 0.091831
v 0.223567 -0.135099 0.091831
v 0.223567 -0.135099 0.091471
v 0.225667 -0.133229 0.091831
v 0.224657 -0.133229 0.091471
v 0.225667 -0.133229 0.091471
v 0.224657 -0.133229 0.091831
v 0.224166 -0.136780 0.091831
v 0.223710 -0.136430 0.090891
v 0.224166 -0.136780 0.090891
v 0.223710 -0.136430 0.091831
v 0.223710 -0.133319 0.091831
v 0.223361 -0.133775 0.090891
v 0.223361 -0.133775 0.091831
v 0.223710 -0.133319 0.090891
v 0.224697 -0.132750 0.091831
v 0.225266 -0.132675 0.090891
v 0.224697 -0.132750 0.090891
v 0.225266 -0.132675 0.091831
v 0.225836 -0.132750 0.090891
v 0.225836 -0.132750 0.091831
v 0.224697 -0.135099 0.091471
v 0.224697 -0.135099 0.091831
v 0.226947 -0.134119 0.091831
v 0.225667 -0.134119 0.091471
v 0.226947 -0.134119 0.091471
v 0.225667 -0.134119 0.091831
v 0.223066 -0.134875 0.091831
v 0.223141 -0.135444 0.090891
v 0.223141 -0.135444 0.091831
v 0.223066 -0.134875 0.090891
v 0.227391 -0.135444 0.090891
v 0.227171 -0.135975 0.091831
v 0.227171 -0.135975 0.090891
v 0.227391 -0.135444 0.091831
v 0.225677 -0.135099 0.091831
v 0.225677 -0.136229 0.091471
v 0.225677 -0.136229 0.091831
v 0.225677 -0.135099 0.091471
v 0.224697 -0.136229 0.091471
v 0.224697 -0.133859 0.091471
v 0.226947 -0.135099 0.091471
v 0.226822 -0.133319 0.090891
v 0.226822 -0.133319 0.091831
v 0.226822 -0.136430 0.091831
v 0.226366 -0.136780 0.090891
v 0.226822 -0.136430 0.090891
v 0.226366 -0.136780 0.091831
v 0.223361 -0.135975 0.090891
v 0.223361 -0.135975 0.091831
v 0.225836 -0.137000 0.090891
v 0.225836 -0.137000 0.091831
v 0.226947 -0.135099 0.091831
v 0.226366 -0.132969 0.091831
v 0.226366 -0.132969 0.090891
v 0.224166 -0.132969 0.090891
v 0.224166 -0.132969 0.091831
v 0.224697 -0.137000 0.091831
v 0.224697 -0.137000 0.090891
v 0.223141 -0.134305 0.090891
v 0.223141 -0.134305 0.091831
v 0.225266 -0.137075 0.090891
v 0.225266 -0.137075 0.091831
v 0.224697 -0.133859 0.091831
v 0.224697 -0.136229 0.091831
v 0.127031 -0.041646 0.091831
v 0.125751 -0.041646 0.091471
v 0.127031 -0.041646 0.091471
v 0.125751 -0.041646 0.091831
v 0.127256 -0.043502 0.090891
v 0.126907 -0.043957 0.091831
v 0.126907 -0.043957 0.090891
v 0.127256 -0.043502 0.091831
v 0.125761 -0.042626 0.091831
v 0.127031 -0.042626 0.091471
v 0.125761 -0.042626 0.091471
v 0.127031 -0.042626 0.091831
v 0.125351 -0.044602 0.091831
v 0.124781 -0.044527 0.090891
v 0.125351 -0.044602 0.090891
v 0.124781 -0.044527 0.091831
v 0.123151 -0.042402 0.091831
v 0.123226 -0.042971 0.090891
v 0.123226 -0.042971 0.091831
v 0.123151 -0.042402 0.090891
v 0.126451 -0.044307 0.091831
v 0.125920 -0.044527 0.090891
v 0.126451 -0.044307 0.090891
v 0.125920 -0.044527 0.091831
v 0.123446 -0.041302 0.091831
v 0.123226 -0.041832 0.090891
v 0.123226 -0.041832 0.091831
v 0.123280 -0.041702 0.090891
v 0.123446 -0.041302 0.090891
v 0.124781 -0.041676 0.091831
v 0.123651 -0.041676 0.091471
v 0.124781 -0.041676 0.091471
v 0.123651 -0.041676 0.091831
v 0.125761 -0.043756 0.091471
v 0.125761 -0.043756 0.091831
v 0.124741 -0.040756 0.091471
v 0.124781 -0.041386 0.091831
v 0.124781 -0.041386 0.091471
v 0.124741 -0.040756 0.091831
v 0.125751 -0.040756 0.091831
v 0.125751 -0.040756 0.091471
v 0.125351 -0.040202 0.091831
v 0.125920 -0.040277 0.090891
v 0.125351 -0.040202 0.090891
v 0.125920 -0.040277 0.091831
v 0.124781 -0.040277 0.091831
v 0.124781 -0.040277 0.090891
v 0.126907 -0.040846 0.090891
v 0.127256 -0.041302 0.091831
v 0.127256 -0.041302 0.090891
v 0.126907 -0.040846 0.091831
v 0.123795 -0.040846 0.091831
v 0.124251 -0.040496 0.090891
v 0.123795 -0.040846 0.090891
v 0.124251 -0.040496 0.091831
v 0.124251 -0.044307 0.091831
v 0.123795 -0.043957 0.090891
v 0.124251 -0.044307 0.090891
v 0.123795 -0.043957 0.091831
v 0.124781 -0.042626 0.091471
v 0.124781 -0.043756 0.091831
v 0.124781 -0.043756 0.091471
v 0.124781 -0.042626 0.091831
v 0.126451 -0.040496 0.091831
v 0.126451 -0.040496 0.090891
v 0.127476 -0.042971 0.090891
v 0.127476 -0.042971 0.091831
v 0.123651 -0.042626 0.091831
v 0.123651 -0.042626 0.091471
v 0.124425 -0.040424 0.090891
v 0.123446 -0.043502 0.091831
v 0.123446 -0.043502 0.090891
v 0.127476 -0.041832 0.090891
v 0.127551 -0.042402 0.091831
v 0.127551 -0.042402 0.090891
v 0.127476 -0.041832 0.091831
v 0.126277 -0.040424 0.090891
v 0.226929 -0.043513 0.091831
v 0.228059 -0.043513 0.091471
v 0.226929 -0.043513 0.091471
v 0.228059 -0.043513 0.091831
v 0.229029 -0.041643 0.091831
v 0.229029 -0.042533 0.091471
v 0.229029 -0.042533 0.091831
v 0.229029 -0.041643 0.091471
v 0.230309 -0.042533 0.091831
v 0.230309 -0.042533 0.091471
v 0.227528 -0.041383 0.091831
v 0.228059 -0.041163 0.090891
v 0.227528 -0.041383 0.090891
v 0.228059 -0.041163 0.091831
v 0.230539 -0.044374 0.090891
v 0.230753 -0.043857 0.091831
v 0.230533 -0.044388 0.091831
v 0.230753 -0.043857 0.090891
v 0.229039 -0.043513 0.091831
v 0.229039 -0.044643 0.091471
v 0.229039 -0.044643 0.091831
v 0.229039 -0.043513 0.091471
v 0.226503 -0.042719 0.091831
v 0.226428 -0.043288 0.090891
v 0.226428 -0.043288 0.091831
v 0.226503 -0.042719 0.090891
v 0.228019 -0.041643 0.091471
v 0.228019 -0.041643 0.091831
v 0.228059 -0.042273 0.091831
v 0.228059 -0.042273 0.091471
v 0.229198 -0.041163 0.091831
v 0.229728 -0.041383 0.090891
v 0.229198 -0.041163 0.090891
v 0.229728 -0.041383 0.091831
v 0.228059 -0.042563 0.091831
v 0.228059 -0.042563 0.091471
v 0.228059 -0.044643 0.091471
v 0.230309 -0.043513 0.091471
v 0.226929 -0.042563 0.091471
v 0.230828 -0.043288 0.090891
v 0.230828 -0.043288 0.091831
v 0.228059 -0.044643 0.091831
v 0.230309 -0.043513 0.091831
v 0.229198 -0.045413 0.091831
v 0.228628 -0.045488 0.090891
v 0.229198 -0.045413 0.090891
v 0.228628 -0.045488 0.091831
v 0.226503 -0.043857 0.090891
v 0.226503 -0.043857 0.091831
v 0.229728 -0.045193 0.091831
v 0.229728 -0.045193 0.090891
v 0.230184 -0.041732 0.090891
v 0.230533 -0.042188 0.091831
v 0.230533 -0.042188 0.090891
v 0.230184 -0.041732 0.091831
v 0.226723 -0.044388 0.091831
v 0.227073 -0.044844 0.090891
v 0.227073 -0.044844 0.091831
v 0.226723 -0.044388 0.090891
v 0.226723 -0.042188 0.091831
v 0.226723 -0.042188 0.090891
v 0.227073 -0.041732 0.091831
v 0.227073 -0.041732 0.090891
v 0.228059 -0.045413 0.091831
v 0.227528 -0.045193 0.090891
v 0.228059 -0.045413 0.090891
v 0.227528 -0.045193 0.091831
v 0.230753 -0.042719 0.090891
v 0.230753 -0.042719 0.091831
v 0.230184 -0.044844 0.091831
v 0.230184 -0.044844 0.090891
v 0.228628 -0.041088 0.091831
v 0.228628 -0.041088 0.090891
v 0.230604 -0.042359 0.090891
v 0.226929 -0.042563 0.091831
v 0.189829 -0.241554 0.095681
v 0.189394 -0.238250 0.095681
v 0.189394 -0.241734 0.095681
v 0.189829 -0.238430 0.095681
v 0.190202 -0.241267 0.095681
v 0.190202 -0.238717 0.095681
v 0.190489 -0.240894 0.095681
v 0.190489 -0.239091 0.095681
v 0.190669 -0.240459 0.095681
v 0.190669 -0.239525 0.095681
v 0.190731 -0.239992 0.095681
v 0.189394 -0.238250 0.095221
v 0.189829 -0.238430 0.093461
v 0.189394 -0.238250 0.093461
v 0.188927 -0.238189 0.095221
v 0.188927 -0.238189 0.093461
v 0.188460 -0.238250 0.095221
v 0.188460 -0.238250 0.093461
v 0.188025 -0.238430 0.095681
v 0.188025 -0.238430 0.093461
v 0.188460 -0.238250 0.095681
v 0.187652 -0.238717 0.095681
v 0.187652 -0.238717 0.093461
v 0.187365 -0.239091 0.093461
v 0.187365 -0.239091 0.095681
v 0.187185 -0.239525 0.093461
v 0.187185 -0.239525 0.095681
v 0.187124 -0.239992 0.093461
v 0.187124 -0.239992 0.095681
v 0.187185 -0.240459 0.093461
v 0.187185 -0.240459 0.095681
v 0.187365 -0.240894 0.093461
v 0.187365 -0.240894 0.095681
v 0.187652 -0.241267 0.093461
v 0.187652 -0.241267 0.095681
v 0.188025 -0.241554 0.095681
v 0.188025 -0.241554 0.093461
v 0.188460 -0.241734 0.095221
v 0.188460 -0.241734 0.093461
v 0.188460 -0.241734 0.095681
v 0.189394 -0.241734 0.093461
v 0.189829 -0.241554 0.093461
v 0.189394 -0.241734 0.095221
v 0.190202 -0.241267 0.093461
v 0.190489 -0.240894 0.093461
v 0.190669 -0.240459 0.093461
v 0.190731 -0.239992 0.093461
v 0.190669 -0.239525 0.093461
v 0.190489 -0.239091 0.093461
v 0.190202 -0.238717 0.093461
v 0.186579 -0.240621 0.093461
v 0.186579 -0.239363 0.093461
v 0.186496 -0.239992 0.093461
v 0.186822 -0.241208 0.093461
v 0.186822 -0.238777 0.093461
v 0.187208 -0.241711 0.093461
v 0.187711 -0.242098 0.093461
v 0.188298 -0.242341 0.093461
v 0.188927 -0.242424 0.093461
v 0.188927 -0.241796 0.093461
v 0.189556 -0.242341 0.093461
v 0.190143 -0.242098 0.093461
v 0.190646 -0.241711 0.093461
v 0.191033 -0.241208 0.093461
v 0.187208 -0.238273 0.093461
v 0.187711 -0.237887 0.093461
v 0.188298 -0.237644 0.093461
v 0.188927 -0.237561 0.093461
v 0.189556 -0.237644 0.093461
v 0.190143 -0.237887 0.093461
v 0.190646 -0.238273 0.093461
v 0.191033 -0.238777 0.093461
v 0.191276 -0.240621 0.093461
v 0.191276 -0.239363 0.093461
v 0.191358 -0.239992 0.093461
v 0.186496 -0.239992 0.092341
v 0.186579 -0.239363 0.092341
v 0.186579 -0.240621 0.092341
v 0.186822 -0.241208 0.092341
v 0.187208 -0.241711 0.092341
v 0.187711 -0.242098 0.092341
v 0.188298 -0.242341 0.092341
v 0.188927 -0.242424 0.092341
v 0.189556 -0.242341 0.092341
v 0.190143 -0.242098 0.092341
v 0.190646 -0.241711 0.092341
v 0.191033 -0.241208 0.092341
v 0.191276 -0.240621 0.092341
v 0.191358 -0.239992 0.092341
v 0.191276 -0.239363 0.092341
v 0.191033 -0.238777 0.092341
v 0.190646 -0.238273 0.092341
v 0.190143 -0.237887 0.092341
v 0.189556 -0.237644 0.092341
v 0.188927 -0.237561 0.092341
v 0.188298 -0.237644 0.092341
v 0.187711 -0.237887 0.092341
v 0.187208 -0.238273 0.092341
v 0.186822 -0.238777 0.092341
v 0.188927 -0.241796 0.095221
v 0.214017 -0.168212 0.095681
v 0.214017 -0.171696 0.095221
v 0.214017 -0.171696 0.095681
v 0.214017 -0.168212 0.095221
v 0.214180 -0.172302 0.093461
v 0.213550 -0.172385 0.092341
v 0.214180 -0.172302 0.092341
v 0.213550 -0.172385 0.093461
v 0.215656 -0.168738 0.092341
v 0.215899 -0.169325 0.093461
v 0.215899 -0.169325 0.092341
v 0.215656 -0.168738 0.093461
v 0.213550 -0.171757 0.093461
v 0.214017 -0.171696 0.093461
v 0.213550 -0.171757 0.095221
v 0.211202 -0.170583 0.093461
v 0.211445 -0.171169 0.092341
v 0.211445 -0.171169 0.093461
v 0.211202 -0.170583 0.092341
v 0.214826 -0.171229 0.095681
v 0.214452 -0.171516 0.093461
v 0.214826 -0.171229 0.093461
v 0.214452 -0.171516 0.095681
v 0.215112 -0.170856 0.093461
v 0.215112 -0.170856 0.095681
v 0.215270 -0.168235 0.092341
v 0.215270 -0.168235 0.093461
v 0.215982 -0.169954 0.093461
v 0.215982 -0.169954 0.092341
v 0.211747 -0.169954 0.095681
v 0.211808 -0.170421 0.093461
v 0.211808 -0.170421 0.095681
v 0.211747 -0.169954 0.093461
v 0.211119 -0.169954 0.093461
v 0.211119 -0.169954 0.092341
v 0.214766 -0.172059 0.093461
v 0.214766 -0.172059 0.092341
v 0.212921 -0.167605 0.093461
v 0.213550 -0.167522 0.092341
v 0.212921 -0.167605 0.092341
v 0.213550 -0.167522 0.093461
v 0.215354 -0.169954 0.093461
v 0.215292 -0.170421 0.095681
v 0.215292 -0.170421 0.093461
v 0.215354 -0.169954 0.095681
v 0.211808 -0.169487 0.095681
v 0.211808 -0.169487 0.093461
v 0.211831 -0.168235 0.093461
v 0.212335 -0.167848 0.092341
v 0.211831 -0.168235 0.092341
v 0.212335 -0.167848 0.093461
v 0.213084 -0.168212 0.095221
v 0.213084 -0.171696 0.095681
v 0.213084 -0.171696 0.095221
v 0.213084 -0.168212 0.095681
v 0.211831 -0.171673 0.092341
v 0.211831 -0.171673 0.093461
v 0.211989 -0.170856 0.095681
v 0.212275 -0.171229 0.093461
v 0.212275 -0.171229 0.095681
v 0.211989 -0.170856 0.093461
v 0.212649 -0.171516 0.093461
v 0.212649 -0.171516 0.095681
v 0.212921 -0.172302 0.093461
v 0.212335 -0.172059 0.092341
v 0.212921 -0.172302 0.092341
v 0.212335 -0.172059 0.093461
v 0.215112 -0.169052 0.093461
v 0.215292 -0.169487 0.095681
v 0.215292 -0.169487 0.093461
v 0.215112 -0.169052 0.095681
v 0.212275 -0.168679 0.095681
v 0.212649 -0.168392 0.093461
v 0.212275 -0.168679 0.093461
v 0.212649 -0.168392 0.095681
v 0.213084 -0.171696 0.093461
v 0.214826 -0.168679 0.093461
v 0.214826 -0.168679 0.095681
v 0.211202 -0.169325 0.093461
v 0.211202 -0.169325 0.092341
v 0.213550 -0.168150 0.093461
v 0.213084 -0.168212 0.093461
v 0.213550 -0.168150 0.095221
v 0.214452 -0.168392 0.095681
v 0.211989 -0.169052 0.095681
v 0.211989 -0.169052 0.093461
v 0.214180 -0.167605 0.092341
v 0.214180 -0.167605 0.093461
v 0.214766 -0.167848 0.093461
v 0.214766 -0.167848 0.092341
v 0.211445 -0.168738 0.092341
v 0.211445 -0.168738 0.093461
v 0.215899 -0.170583 0.093461
v 0.215899 -0.170583 0.092341
v 0.215656 -0.171169 0.092341
v 0.215270 -0.171673 0.093461
v 0.215270 -0.171673 0.092341
v 0.215656 -0.171169 0.093461
v 0.214017 -0.168212 0.093461
v 0.214452 -0.168392 0.093461
v 0.213774 -0.053017 0.098731
v 0.214148 -0.052731 0.096511
v 0.213774 -0.053017 0.096511
v 0.214148 -0.052731 0.098731
v 0.188078 -0.124960 0.096511
v 0.188321 -0.125547 0.095391
v 0.188321 -0.125547 0.096511
v 0.188078 -0.124960 0.095391
v 0.216769 -0.052573 0.095391
v 0.217155 -0.053077 0.096511
v 0.217155 -0.053077 0.095391
v 0.216769 -0.052573 0.096511
v 0.215951 -0.055854 0.098731
v 0.215516 -0.056034 0.096511
v 0.215951 -0.055854 0.096511
v 0.215516 -0.056034 0.098271
v 0.215516 -0.056034 0.098731
v 0.189960 -0.122589 0.098271
v 0.189960 -0.126073 0.098731
v 0.189960 -0.126073 0.098271
v 0.189960 -0.122589 0.098731
v 0.214420 -0.051944 0.096511
v 0.215049 -0.051861 0.095391
v 0.214420 -0.051944 0.095391
v 0.215049 -0.051861 0.096511
v 0.190893 -0.122589 0.098271
v 0.191328 -0.122769 0.096511
v 0.190893 -0.122589 0.096511
v 0.191328 -0.122769 0.098731
v 0.190893 -0.122589 0.098731
v 0.192145 -0.126050 0.096511
v 0.191642 -0.126436 0.095391
v 0.192145 -0.126050 0.095391
v 0.191642 -0.126436 0.096511
v 0.188321 -0.123115 0.096511
v 0.188078 -0.123702 0.095391
v 0.188078 -0.123702 0.096511
v 0.188321 -0.123115 0.095391
v 0.214583 -0.052551 0.098271
v 0.214583 -0.056034 0.098731
v 0.214583 -0.056034 0.098271
v 0.214583 -0.052551 0.098731
v 0.192145 -0.122612 0.095391
v 0.192532 -0.123115 0.096511
v 0.192532 -0.123115 0.095391
v 0.192145 -0.122612 0.096511
v 0.217481 -0.054292 0.095391
v 0.217398 -0.054922 0.096511
v 0.217398 -0.054922 0.095391
v 0.217481 -0.054292 0.096511
v 0.191328 -0.125893 0.098731
v 0.190893 -0.126073 0.098731
v 0.191701 -0.125606 0.098731
v 0.191701 -0.123056 0.098731
v 0.191988 -0.125233 0.098731
v 0.191988 -0.123429 0.098731
v 0.192168 -0.124798 0.098731
v 0.192168 -0.123864 0.098731
v 0.192230 -0.124331 0.098731
v 0.212701 -0.054922 0.096511
v 0.212701 -0.053663 0.096511
v 0.212618 -0.054292 0.096511
v 0.212944 -0.055508 0.096511
v 0.212944 -0.053077 0.096511
v 0.213330 -0.056012 0.096511
v 0.213246 -0.054292 0.096511
v 0.213308 -0.054759 0.096511
v 0.213488 -0.055194 0.096511
v 0.213834 -0.056398 0.096511
v 0.213774 -0.055568 0.096511
v 0.214148 -0.055854 0.096511
v 0.214420 -0.056641 0.096511
v 0.214583 -0.056034 0.096511
v 0.215049 -0.056724 0.096511
v 0.215049 -0.056096 0.096511
v 0.215679 -0.056641 0.096511
v 0.216265 -0.056398 0.096511
v 0.216325 -0.055568 0.096511
v 0.216769 -0.056012 0.096511
v 0.216611 -0.055194 0.096511
v 0.216791 -0.054759 0.096511
v 0.217155 -0.055508 0.096511
v 0.216853 -0.054292 0.096511
v 0.213330 -0.052573 0.096511
v 0.213308 -0.053826 0.096511
v 0.213488 -0.053391 0.096511
v 0.213834 -0.052187 0.096511
v 0.214583 -0.052551 0.096511
v 0.215049 -0.052489 0.096511
v 0.215516 -0.052551 0.096511
v 0.215679 -0.051944 0.096511
v 0.215951 -0.052731 0.096511
v 0.216265 -0.052187 0.096511
v 0.216325 -0.053017 0.096511
v 0.216611 -0.053391 0.096511
v 0.216791 -0.053826 0.096511
v 0.217398 -0.053663 0.096511
v 0.216853 -0.054292 0.098731
v 0.216791 -0.053826 0.098731
v 0.215679 -0.051944 0.095391
v 0.187995 -0.124331 0.096511
v 0.187995 -0.124331 0.095391
v 0.188623 -0.124331 0.098731
v 0.188684 -0.124798 0.096511
v 0.188684 -0.124798 0.098731
v 0.188623 -0.124331 0.096511
v 0.190426 -0.126762 0.096511
v 0.189797 -0.126679 0.095391
v 0.190426 -0.126762 0.095391
v 0.189797 -0.126679 0.096511
v 0.215049 -0.056096 0.098271
v 0.215049 -0.052489 0.098271
v 0.215516 -0.052551 0.098271
v 0.213330 -0.056012 0.095391
v 0.212944 -0.055508 0.095391
v 0.192858 -0.124331 0.095391
v 0.192775 -0.124960 0.096511
v 0.192775 -0.124960 0.095391
v 0.192858 -0.124331 0.096511
v 0.216265 -0.052187 0.095391
v 0.188865 -0.125233 0.096511
v 0.188865 -0.125233 0.098731
v 0.192775 -0.123702 0.095391
v 0.192775 -0.123702 0.096511
v 0.191056 -0.126679 0.096511
v 0.191056 -0.126679 0.095391
v 0.190893 -0.126073 0.098271
v 0.190426 -0.122527 0.096511
v 0.189960 -0.122589 0.096511
v 0.190426 -0.122527 0.098271
v 0.215951 -0.052731 0.098731
v 0.215516 -0.052551 0.098731
v 0.215049 -0.056724 0.095391
v 0.215679 -0.056641 0.095391
v 0.212701 -0.053663 0.095391
v 0.212944 -0.053077 0.095391
v 0.188684 -0.123864 0.098731
v 0.188684 -0.123864 0.096511
v 0.192168 -0.123864 0.096511
v 0.192230 -0.124331 0.096511
v 0.192168 -0.124798 0.096511
v 0.191988 -0.125233 0.096511
v 0.189525 -0.125893 0.098731
v 0.189151 -0.125606 0.096511
v 0.189525 -0.125893 0.096511
v 0.189151 -0.125606 0.098731
v 0.213774 -0.055568 0.098731
v 0.214148 -0.055854 0.098731
v 0.188707 -0.126050 0.095391
v 0.188707 -0.126050 0.096511
v 0.191056 -0.121982 0.096511
v 0.191642 -0.122225 0.095391
v 0.191056 -0.121982 0.095391
v 0.191642 -0.122225 0.096511
v 0.213308 -0.054759 0.098731
v 0.213488 -0.055194 0.098731
v 0.213834 -0.056398 0.095391
v 0.189797 -0.121982 0.096511
v 0.190426 -0.121900 0.095391
v 0.189797 -0.121982 0.095391
v 0.190426 -0.121900 0.096511
v 0.188865 -0.123429 0.098731
v 0.188865 -0.123429 0.096511
v 0.191701 -0.125606 0.096511
v 0.216611 -0.053391 0.098731
v 0.216325 -0.053017 0.098731
v 0.216325 -0.055568 0.098731
v 0.216611 -0.055194 0.098731
v 0.216791 -0.054759 0.098731
v 0.189151 -0.123056 0.098731
v 0.189525 -0.122769 0.098731
v 0.190426 -0.126134 0.098271
v 0.189960 -0.126073 0.096511
v 0.190426 -0.126134 0.096511
v 0.188707 -0.122612 0.096511
v 0.188707 -0.122612 0.095391
v 0.189211 -0.122225 0.096511
v 0.189211 -0.122225 0.095391
v 0.189525 -0.122769 0.096511
v 0.217155 -0.055508 0.095391
v 0.217398 -0.053663 0.095391
v 0.216769 -0.056012 0.095391
v 0.212701 -0.054922 0.095391
v 0.189211 -0.126436 0.096511
v 0.189211 -0.126436 0.095391
v 0.190893 -0.126073 0.096511
v 0.191328 -0.125893 0.096511
v 0.192532 -0.125547 0.096511
v 0.189151 -0.123056 0.096511
v 0.191701 -0.123056 0.096511
v 0.191988 -0.123429 0.096511
v 0.214420 -0.056641 0.095391
v 0.213330 -0.052573 0.095391
v 0.213834 -0.052187 0.095391
v 0.213308 -0.053826 0.098731
v 0.213246 -0.054292 0.098731
v 0.213488 -0.053391 0.098731
v 0.212618 -0.054292 0.095391
v 0.192532 -0.125547 0.095391
v 0.216265 -0.056398 0.095391
f 1 2 3
f 2 1 4
f 5 3 6
f 3 5 1
f 7 6 8
f 6 7 5
f 9 8 10
f 8 9 7
f 9 11 12
f 11 9 10
f 12 13 14
f 13 12 11
f 14 15 16
f 15 14 13
f 16 17 18
f 17 16 15
f 18 19 20
f 19 18 17
f 20 21 22
f 21 20 19
f 23 21 24
f 21 23 22
f 25 24 26
f 24 25 23
f 27 26 28
f 26 27 25
f 29 28 30
f 28 29 27
f 31 30 32
f 30 31 29
f 33 32 34
f 32 33 31
f 35 33 34
f 33 35 36
f 37 36 35
f 36 37 38
f 39 38 37
f 38 39 40
f 41 40 39
f 40 41 42
f 43 42 41
f 42 43 44
f 45 44 43
f 44 45 46
f 47 45 48
f 45 47 46
f 4 48 2
f 48 4 47
f 49 50 51
f 50 49 52
f 52 49 53
f 53 49 54
f 54 49 55
f 54 55 56
f 56 55 57
f 53 58 59
f 58 53 54
f 50 60 61
f 60 50 52
f 53 62 52
f 62 53 63
f 62 60 52
f 60 62 64
f 60 65 61
f 65 60 64
f 65 50 61
f 50 65 66
f 50 67 51
f 67 50 66
f 67 49 51
f 49 67 68
f 69 49 68
f 49 69 55
f 69 57 55
f 57 69 70
f 71 57 70
f 57 71 56
f 71 54 56
f 54 71 72
f 73 54 72
f 54 73 58
f 73 59 58
f 59 73 74
f 59 63 53
f 63 59 74
f 75 76 77
f 76 75 78
f 79 80 81
f 80 79 82
f 83 84 85
f 84 83 86
f 84 87 88
f 87 84 86
f 89 90 91
f 90 89 92
f 93 94 95
f 94 93 96
f 97 98 99
f 98 97 100
f 101 102 103
f 102 101 104
f 105 106 107
f 106 105 108
f 109 110 111
f 110 109 112
f 113 114 115
f 114 113 116
f 105 114 108
f 114 105 115
f 117 118 119
f 118 117 120
f 121 122 123
f 122 121 124
f 122 98 123
f 98 122 99
f 125 119 126
f 119 125 117
f 127 128 129
f 128 127 130
f 131 132 133
f 132 131 134
f 98 121 123
f 121 98 135
f 135 98 136
f 136 98 114
f 114 98 100
f 114 100 108
f 108 100 106
f 136 116 137
f 116 136 114
f 121 131 133
f 131 121 135
f 138 76 78
f 76 138 139
f 81 112 109
f 112 81 80
f 111 89 91
f 89 111 110
f 92 126 90
f 126 92 125
f 130 85 128
f 85 130 83
f 140 96 93
f 96 140 141
f 97 106 100
f 106 97 107
f 132 121 133
f 121 132 124
f 136 142 135
f 142 136 143
f 142 131 135
f 131 142 134
f 88 82 79
f 82 88 87
f 140 144 141
f 144 140 145
f 113 137 116
f 137 113 146
f 137 143 136
f 143 137 146
f 145 147 144
f 147 145 148
f 120 77 118
f 77 120 75
f 95 104 101
f 104 95 94
f 148 129 147
f 129 148 127
f 103 139 138
f 139 103 102
f 149 150 151
f 150 149 152
f 151 153 154
f 153 151 150
f 155 156 157
f 156 155 158
f 159 160 161
f 160 159 162
f 163 164 165
f 164 163 166
f 163 160 166
f 160 163 161
f 167 164 168
f 164 167 165
f 169 170 171
f 170 169 172
f 173 174 175
f 174 173 176
f 177 178 179
f 178 177 180
f 181 182 183
f 182 181 184
f 167 185 186
f 185 167 168
f 159 187 162
f 187 159 188
f 171 189 190
f 189 171 170
f 191 192 193
f 192 191 194
f 180 195 178
f 195 180 196
f 197 157 198
f 157 197 155
f 197 199 200
f 199 197 198
f 192 179 193
f 179 192 177
f 196 201 195
f 201 196 202
f 203 204 205
f 204 203 206
f 174 207 175
f 207 174 208
f 185 209 210
f 209 185 175
f 175 185 173
f 173 185 160
f 160 185 168
f 160 168 166
f 166 168 164
f 173 162 187
f 162 173 160
f 209 207 211
f 207 209 175
f 207 212 211
f 212 207 208
f 209 213 210
f 213 209 214
f 202 215 201
f 215 202 216
f 217 218 219
f 218 217 220
f 220 217 221
f 216 182 215
f 182 216 183
f 190 206 203
f 206 190 189
f 205 194 191
f 194 205 204
f 187 176 173
f 176 187 188
f 221 222 220
f 222 221 223
f 158 224 156
f 224 158 219
f 219 158 217
f 223 169 222
f 169 223 172
f 213 185 210
f 185 213 186
f 154 184 181
f 184 154 153
f 200 152 149
f 152 200 225
f 225 200 199
f 212 209 211
f 209 212 214
f 226 227 228
f 227 226 229
f 230 231 232
f 231 230 233
f 234 235 236
f 235 234 237
f 238 239 240
f 239 238 241
f 241 238 242
f 243 244 245
f 244 243 246
f 247 248 249
f 248 247 250
f 251 243 252
f 243 251 246
f 253 254 255
f 254 253 256
f 248 257 249
f 257 248 258
f 259 260 261
f 260 259 262
f 253 242 238
f 242 253 255
f 263 231 264
f 231 263 232
f 240 237 234
f 237 240 239
f 265 266 267
f 266 265 268
f 269 270 271
f 270 269 272
f 273 274 275
f 274 273 276
f 277 278 279
f 278 277 280
f 281 282 283
f 282 281 284
f 229 285 227
f 285 229 286
f 287 279 288
f 279 287 277
f 236 284 281
f 284 236 235
f 260 228 261
f 228 260 226
f 280 252 278
f 252 280 251
f 267 289 290
f 289 267 266
f 257 247 249
f 247 257 290
f 290 257 267
f 267 257 291
f 291 257 264
f 291 264 233
f 233 264 231
f 267 292 265
f 292 267 291
f 247 273 275
f 273 247 290
f 293 291 294
f 291 293 292
f 256 288 254
f 288 256 287
f 286 271 285
f 271 286 269
f 289 273 290
f 273 289 276
f 295 296 297
f 296 295 298
f 263 257 258
f 257 263 264
f 299 298 295
f 298 299 300
f 274 247 275
f 247 274 250
f 293 265 292
f 265 293 268
f 297 262 259
f 262 297 296
f 230 291 233
f 291 230 294
f 245 300 299
f 300 245 244
f 272 282 270
f 282 272 283
f 301 302 303
f 302 301 304
f 305 306 307
f 306 305 308
f 308 305 309
f 310 311 312
f 311 310 313
f 313 310 303
f 303 310 314
f 314 310 315
f 314 315 316
f 316 315 317
f 303 318 301
f 318 303 314
f 311 319 320
f 319 311 313
f 321 310 312
f 310 321 322
f 323 324 325
f 324 323 326
f 327 328 329
f 328 327 330
f 331 332 333
f 332 331 334
f 335 336 337
f 336 335 338
f 339 329 340
f 329 339 327
f 311 321 312
f 321 311 341
f 334 342 332
f 342 334 343
f 344 345 346
f 345 344 347
f 348 349 350
f 349 348 351
f 352 317 353
f 317 352 316
f 354 301 318
f 301 354 304
f 307 326 323
f 326 307 306
f 354 314 355
f 314 354 318
f 356 319 313
f 319 356 357
f 358 340 359
f 340 358 339
f 352 314 316
f 314 352 355
f 360 347 344
f 347 360 324
f 324 360 325
f 361 311 320
f 311 361 341
f 362 310 322
f 310 362 315
f 303 356 313
f 356 303 302
f 363 364 365
f 364 363 366
f 367 359 368
f 359 367 358
f 369 338 335
f 338 369 370
f 371 342 343
f 342 371 372
f 364 308 309
f 308 364 366
f 373 350 374
f 350 373 348
f 337 375 376
f 375 337 377
f 377 337 378
f 378 337 336
f 367 370 369
f 370 367 368
f 351 333 349
f 333 351 331
f 345 374 346
f 374 345 373
f 319 361 320
f 361 319 357
f 376 372 371
f 372 376 375
f 362 317 315
f 317 362 353
f 330 365 328
f 365 330 363
f 379 380 381
f 380 379 382
f 383 384 385
f 384 383 386
f 387 386 383
f 386 387 388
f 380 389 390
f 389 380 382
f 391 392 393
f 392 391 394
f 395 396 397
f 396 395 398
f 399 400 401
f 400 399 402
f 403 404 405
f 404 403 406
f 406 407 404
f 407 406 408
f 389 409 390
f 409 389 410
f 411 412 413
f 412 411 414
f 415 416 417
f 416 415 418
f 419 420 421
f 420 419 422
f 423 424 425
f 424 423 426
f 424 409 427
f 409 424 381
f 381 424 428
f 428 424 412
f 412 424 426
f 412 426 413
f 413 426 429
f 428 393 392
f 393 428 412
f 409 380 390
f 380 409 381
f 430 388 387
f 388 430 431
f 432 433 434
f 433 432 435
f 417 436 437
f 436 417 416
f 435 438 433
f 438 435 439
f 411 429 440
f 429 411 413
f 441 430 442
f 430 441 431
f 421 432 434
f 432 421 420
f 399 443 402
f 443 399 444
f 444 405 443
f 405 444 403
f 445 397 446
f 397 445 395
f 437 396 398
f 396 437 436
f 423 429 426
f 429 423 440
f 401 447 448
f 447 401 400
f 439 449 438
f 449 439 450
f 392 451 428
f 451 392 394
f 409 452 427
f 452 409 410
f 448 418 415
f 418 448 447
f 408 442 407
f 442 408 441
f 391 412 414
f 412 391 393
f 385 422 419
f 422 385 384
f 428 379 381
f 379 428 451
f 452 424 427
f 424 452 425
f 450 446 449
f 446 450 445
f 453 454 455
f 454 453 456
f 457 458 459
f 458 457 460
f 461 462 463
f 462 461 464
f 465 466 467
f 466 465 468
f 469 470 471
f 470 469 472
f 473 474 475
f 474 473 476
f 477 478 479
f 478 477 480
f 480 477 481
f 482 483 484
f 483 482 485
f 461 486 487
f 486 461 463
f 488 489 490
f 489 488 491
f 492 488 493
f 488 492 491
f 494 495 496
f 495 494 497
f 453 462 464
f 462 453 455
f 476 467 474
f 467 476 465
f 498 496 499
f 496 498 494
f 500 501 502
f 501 500 503
f 504 505 506
f 505 504 507
f 508 509 510
f 509 508 511
f 512 513 514
f 513 512 515
f 479 472 469
f 472 479 478
f 468 510 466
f 510 468 508
f 492 454 456
f 454 492 493
f 516 500 517
f 500 516 503
f 518 460 457
f 460 518 519
f 483 520 521
f 520 483 485
f 507 522 505
f 522 507 499
f 499 507 498
f 504 481 477
f 481 504 506
f 523 509 511
f 509 523 524
f 525 526 527
f 526 525 528
f 497 529 495
f 529 497 517
f 517 497 516
f 490 482 484
f 482 490 489
f 458 475 459
f 475 458 473
f 520 512 521
f 512 520 515
f 486 512 514
f 512 486 484
f 484 486 490
f 490 486 454
f 454 486 463
f 454 463 455
f 455 463 462
f 490 493 488
f 493 490 454
f 512 483 521
f 483 512 484
f 471 524 523
f 524 471 470
f 513 486 514
f 486 513 487
f 502 528 525
f 528 502 501
f 527 519 518
f 519 527 526
f 530 531 532
f 531 530 533
f 534 535 536
f 535 534 537
f 538 535 539
f 535 538 536
f 540 541 542
f 541 540 543
f 544 545 546
f 545 544 547
f 548 549 550
f 549 548 551
f 552 553 554
f 553 552 555
f 534 556 537
f 556 534 557
f 556 558 559
f 558 556 557
f 560 561 562
f 561 560 563
f 559 564 565
f 564 559 558
f 549 531 566
f 531 549 565
f 565 549 559
f 559 549 535
f 535 549 551
f 535 551 539
f 539 551 567
f 559 537 556
f 537 559 535
f 531 568 532
f 568 531 565
f 569 545 547
f 545 569 570
f 571 549 566
f 549 571 550
f 538 567 572
f 567 538 539
f 573 574 575
f 574 573 576
f 554 577 578
f 577 554 553
f 579 575 580
f 575 579 573
f 581 582 583
f 582 581 584
f 585 586 587
f 586 585 588
f 589 555 552
f 555 589 590
f 591 542 592
f 542 591 540
f 593 594 595
f 594 593 596
f 596 586 594
f 586 596 587
f 548 567 551
f 567 548 572
f 597 570 569
f 570 597 598
f 531 571 566
f 571 531 533
f 544 599 600
f 599 544 546
f 601 562 602
f 562 601 560
f 599 580 600
f 580 599 579
f 543 602 541
f 602 543 601
f 563 581 561
f 581 563 584
f 603 598 597
f 598 603 582
f 582 603 583
f 578 588 585
f 588 578 577
f 576 595 574
f 595 576 593
f 591 590 589
f 590 591 592
f 568 530 532
f 530 568 604
f 564 568 565
f 568 564 604
f 605 606 607
f 606 605 608
f 608 605 609
f 608 609 610
f 610 609 611
f 610 611 612
f 612 611 613
f 612 613 614
f 614 613 615
f 616 617 618
f 617 616 608
f 608 616 606
f 619 618 620
f 618 619 616
f 621 620 622
f 620 621 619
f 623 622 624
f 622 623 621
f 621 623 625
f 626 624 627
f 624 626 623
f 626 628 629
f 628 626 627
f 629 630 631
f 630 629 628
f 631 632 633
f 632 631 630
f 633 634 635
f 634 633 632
f 635 636 637
f 636 635 634
f 637 638 639
f 638 637 636
f 640 638 641
f 638 640 639
f 642 641 643
f 641 642 640
f 640 642 644
f 605 645 646
f 645 605 647
f 647 605 607
f 609 646 648
f 646 609 605
f 649 609 648
f 609 649 611
f 650 611 649
f 611 650 613
f 651 613 650
f 613 651 615
f 652 615 651
f 615 652 614
f 653 614 652
f 614 653 612
f 654 612 653
f 612 654 610
f 608 654 617
f 654 608 610
f 655 656 657
f 656 655 658
f 656 658 659
f 659 658 660
f 659 660 632
f 632 660 634
f 634 660 636
f 636 660 661
f 636 661 638
f 638 661 641
f 641 661 662
f 641 662 643
f 643 662 663
f 643 663 664
f 664 663 665
f 664 665 645
f 645 665 646
f 646 665 666
f 646 666 648
f 648 666 667
f 648 667 649
f 649 667 650
f 650 667 668
f 650 668 651
f 632 669 659
f 669 632 630
f 669 630 628
f 669 628 670
f 670 628 627
f 670 627 624
f 670 624 671
f 671 624 622
f 671 622 672
f 672 622 620
f 672 620 618
f 672 618 673
f 673 618 617
f 673 617 674
f 674 617 654
f 674 654 675
f 675 654 653
f 675 653 652
f 675 652 676
f 676 652 651
f 676 651 668
f 676 668 677
f 676 677 678
f 678 677 679
f 656 680 657
f 680 656 681
f 657 682 655
f 682 657 680
f 655 683 658
f 683 655 682
f 658 684 660
f 684 658 683
f 661 684 685
f 684 661 660
f 662 685 686
f 685 662 661
f 663 686 687
f 686 663 662
f 665 687 688
f 687 665 663
f 666 688 689
f 688 666 665
f 667 689 690
f 689 667 666
f 691 667 690
f 667 691 668
f 692 668 691
f 668 692 677
f 693 677 692
f 677 693 679
f 694 679 693
f 679 694 678
f 695 678 694
f 678 695 676
f 696 676 695
f 676 696 675
f 674 696 697
f 696 674 675
f 673 697 698
f 697 673 674
f 672 698 699
f 698 672 673
f 671 699 700
f 699 671 672
f 670 700 701
f 700 670 671
f 669 701 702
f 701 669 670
f 669 703 659
f 703 669 702
f 659 681 656
f 681 659 703
f 635 631 633
f 631 635 637
f 631 637 629
f 629 637 639
f 629 639 626
f 626 639 640
f 626 640 623
f 623 640 644
f 623 644 625
f 647 664 645
f 664 647 704
f 704 643 664
f 643 704 642
f 704 621 642
f 621 704 619
f 619 704 647
f 619 647 616
f 621 644 642
f 644 621 625
f 606 647 607
f 647 606 616
f 705 706 707
f 706 705 708
f 709 710 711
f 710 709 712
f 713 714 715
f 714 713 716
f 706 717 718
f 717 706 719
f 720 721 722
f 721 720 723
f 724 725 726
f 725 724 727
f 728 724 726
f 724 728 729
f 730 716 713
f 716 730 731
f 715 732 733
f 732 715 714
f 734 735 736
f 735 734 737
f 738 723 720
f 723 738 739
f 740 711 741
f 711 740 709
f 742 743 744
f 743 742 745
f 746 747 748
f 747 746 749
f 750 737 734
f 737 750 751
f 752 753 754
f 753 752 755
f 756 757 758
f 757 756 759
f 727 718 725
f 718 727 706
f 706 727 707
f 722 760 761
f 760 722 721
f 762 763 764
f 763 762 765
f 766 764 763
f 764 766 767
f 768 769 770
f 769 768 771
f 772 773 774
f 773 772 775
f 776 777 778
f 777 776 779
f 719 780 717
f 780 719 758
f 736 765 762
f 765 736 735
f 781 775 772
f 775 781 782
f 783 739 738
f 739 783 784
f 756 785 786
f 785 756 787
f 771 760 769
f 760 771 761
f 727 705 707
f 705 727 788
f 788 727 724
f 788 724 782
f 782 724 729
f 782 729 775
f 775 729 747
f 775 747 773
f 773 747 749
f 789 751 750
f 751 789 790
f 736 750 734
f 750 736 762
f 750 762 789
f 789 762 764
f 789 764 776
f 776 764 767
f 776 767 779
f 779 767 757
f 779 757 759
f 745 791 743
f 791 745 792
f 793 730 794
f 730 793 731
f 752 795 796
f 795 752 754
f 792 794 791
f 794 792 793
f 733 797 798
f 797 733 732
f 719 756 758
f 756 719 787
f 787 719 706
f 787 706 708
f 712 770 710
f 770 712 768
f 799 800 801
f 800 799 802
f 720 783 738
f 783 720 722
f 783 722 796
f 796 722 761
f 796 761 737
f 737 761 735
f 735 761 765
f 765 761 771
f 765 771 763
f 763 771 766
f 766 771 768
f 766 768 780
f 780 768 712
f 780 712 717
f 717 712 709
f 717 709 718
f 718 709 725
f 725 709 740
f 725 740 726
f 726 740 800
f 726 800 728
f 728 800 748
f 748 800 802
f 748 802 746
f 737 752 796
f 752 737 751
f 752 751 790
f 752 790 755
f 755 790 778
f 755 778 777
f 755 777 742
f 742 777 786
f 742 786 745
f 745 786 785
f 745 785 803
f 745 803 792
f 792 803 804
f 792 804 793
f 793 804 781
f 793 781 731
f 731 781 772
f 731 772 774
f 731 774 716
f 716 774 746
f 716 746 802
f 716 802 797
f 716 797 714
f 714 797 732
f 787 803 785
f 803 787 708
f 779 786 777
f 786 779 756
f 756 779 759
f 800 741 801
f 741 800 740
f 788 781 804
f 781 788 782
f 774 749 746
f 749 774 773
f 758 766 780
f 766 758 767
f 767 758 757
f 798 802 799
f 802 798 797
f 776 790 789
f 790 776 778
f 748 729 728
f 729 748 747
f 755 744 753
f 744 755 742
f 708 804 803
f 804 708 788
f 788 708 705
f 796 784 783
f 784 796 795
f 805 806 807
f 806 805 808
f 809 810 811
f 810 809 812
f 813 814 815
f 814 813 816
f 817 818 819
f 818 817 820
f 820 817 821
f 822 823 824
f 823 822 825
f 826 827 828
f 827 826 829
f 830 831 832
f 831 830 833
f 833 830 834
f 835 836 837
f 836 835 838
f 839 840 841
f 840 839 842
f 843 844 845
f 844 843 846
f 847 848 849
f 848 847 850
f 851 852 853
f 852 851 854
f 855 834 856
f 834 855 833
f 833 855 857
f 833 857 858
f 858 857 859
f 858 859 860
f 860 859 861
f 860 861 862
f 862 861 863
f 864 865 866
f 865 864 867
f 865 867 868
f 868 867 869
f 868 869 870
f 870 869 871
f 871 869 872
f 872 869 873
f 872 873 874
f 874 873 875
f 875 873 876
f 875 876 877
f 877 876 878
f 877 878 879
f 879 878 880
f 879 880 818
f 818 880 819
f 819 880 881
f 819 881 882
f 882 881 883
f 882 883 884
f 884 883 885
f 885 883 886
f 885 886 887
f 870 888 868
f 888 870 889
f 888 889 890
f 888 890 891
f 891 890 807
f 891 807 806
f 891 806 826
f 826 806 892
f 826 892 829
f 829 892 893
f 829 893 894
f 829 894 895
f 895 894 896
f 895 896 897
f 897 896 898
f 897 898 816
f 816 898 899
f 816 899 900
f 816 900 814
f 814 900 887
f 814 887 886
f 814 886 852
f 814 852 901
f 901 852 854
f 900 902 887
f 902 900 903
f 829 904 827
f 904 829 895
f 905 812 809
f 812 905 906
f 907 908 909
f 908 907 910
f 911 912 913
f 912 911 914
f 915 843 845
f 843 915 916
f 916 915 820
f 916 820 917
f 867 918 869
f 918 867 919
f 920 921 922
f 921 920 923
f 897 813 924
f 813 897 816
f 909 925 926
f 925 909 908
f 916 894 893
f 894 916 917
f 927 923 920
f 923 927 928
f 929 913 930
f 913 929 911
f 834 931 856
f 931 834 830
f 822 932 933
f 932 822 934
f 917 896 894
f 896 917 935
f 935 917 936
f 880 937 938
f 937 880 878
f 868 939 865
f 939 868 940
f 941 910 907
f 910 941 942
f 943 863 944
f 863 943 862
f 945 859 946
f 859 945 861
f 915 877 879
f 877 915 845
f 838 930 836
f 930 838 929
f 947 948 949
f 948 947 950
f 875 951 874
f 951 875 952
f 811 953 954
f 953 811 810
f 955 956 957
f 956 955 958
f 843 893 892
f 893 843 916
f 959 872 960
f 872 959 871
f 873 918 961
f 918 873 869
f 895 924 904
f 924 895 897
f 962 963 964
f 963 962 965
f 966 942 941
f 942 966 967
f 946 857 968
f 857 946 859
f 898 969 899
f 969 898 970
f 845 875 877
f 875 845 952
f 952 845 844
f 817 936 821
f 936 817 935
f 935 817 971
f 935 971 970
f 970 971 972
f 970 972 969
f 969 972 973
f 969 973 903
f 903 973 902
f 926 948 950
f 948 926 925
f 934 832 932
f 832 934 830
f 909 941 907
f 941 909 926
f 941 926 966
f 966 926 950
f 966 950 974
f 974 950 947
f 974 947 975
f 975 947 823
f 975 823 825
f 976 977 978
f 977 976 824
f 979 842 839
f 842 979 980
f 981 964 982
f 964 981 962
f 975 933 983
f 933 975 822
f 822 975 825
f 853 886 984
f 886 853 852
f 841 906 905
f 906 841 840
f 815 901 985
f 901 815 814
f 984 883 986
f 883 984 886
f 808 892 806
f 892 808 843
f 843 808 846
f 884 971 882
f 971 884 972
f 979 982 980
f 982 979 981
f 864 919 867
f 919 864 987
f 820 879 818
f 879 820 915
f 988 953 989
f 953 988 954
f 985 854 851
f 854 985 901
f 809 841 905
f 841 809 811
f 841 811 839
f 839 811 954
f 839 954 910
f 910 954 908
f 908 954 925
f 925 954 988
f 925 988 948
f 948 988 949
f 949 988 914
f 949 914 977
f 977 914 911
f 977 911 978
f 978 911 929
f 978 929 990
f 990 929 991
f 991 929 838
f 991 838 968
f 968 838 835
f 968 835 946
f 946 835 945
f 945 835 992
f 945 992 944
f 910 979 839
f 979 910 942
f 979 942 967
f 979 967 981
f 981 967 993
f 981 993 983
f 981 983 962
f 962 983 933
f 962 933 965
f 965 933 932
f 965 932 832
f 965 832 955
f 955 832 831
f 955 831 958
f 958 831 994
f 958 994 850
f 850 994 995
f 850 995 943
f 850 943 848
f 848 943 944
f 848 944 992
f 848 992 921
f 848 921 928
f 928 921 923
f 899 903 900
f 903 899 969
f 878 996 937
f 996 878 876
f 855 990 991
f 990 855 931
f 931 855 856
f 965 957 963
f 957 965 955
f 887 973 885
f 973 887 902
f 888 940 868
f 940 888 997
f 935 898 896
f 898 935 970
f 994 860 995
f 860 994 858
f 891 828 998
f 828 891 826
f 936 820 821
f 820 936 917
f 959 999 1000
f 999 959 960
f 999 960 1001
f 1001 960 951
f 1001 951 805
f 805 951 952
f 805 952 808
f 808 952 844
f 808 844 846
f 866 987 864
f 987 866 1002
f 1003 835 837
f 835 1003 992
f 1000 871 959
f 871 1000 870
f 1001 889 999
f 889 1001 890
f 824 949 977
f 949 824 947
f 947 824 823
f 833 994 831
f 994 833 858
f 999 870 1000
f 870 999 889
f 971 819 882
f 819 971 817
f 922 992 1003
f 992 922 921
f 888 998 997
f 998 888 891
f 995 862 943
f 862 995 860
f 865 1002 866
f 1002 865 939
f 976 822 824
f 822 976 934
f 934 976 931
f 934 931 830
f 974 983 993
f 983 974 975
f 885 972 884
f 972 885 973
f 974 967 966
f 967 974 993
f 944 861 945
f 861 944 863
f 881 938 1004
f 938 881 880
f 931 978 990
f 978 931 976
f 958 847 956
f 847 958 850
f 914 989 912
f 989 914 988
f 876 961 996
f 961 876 873
f 883 1004 986
f 1004 883 881
f 805 890 1001
f 890 805 807
f 960 874 951
f 874 960 872
f 857 991 968
f 991 857 855
f 849 928 927
f 928 849 848
f 3 2 1
f 4 1 2
f 6 3 5
f 1 5 3
f 8 6 7
f 5 7 6
f 10 8 9
f 7 9 8
f 12 11 9
f 10 9 11
f 14 13 12
f 11 12 13
f 16 15 14
f 13 14 15
f 18 17 16
f 15 16 17
f 20 19 18
f 17 18 19
f 22 21 20
f 19 20 21
f 24 21 23
f 22 23 21
f 26 24 25
f 23 25 24
f 28 26 27
f 25 27 26
f 30 28 29
f 27 29 28
f 32 30 31
f 29 31 30
f 34 32 33
f 31 33 32
f 34 33 35
f 36 35 33
f 35 36 37
f 38 37 36
f 37 38 39
f 40 39 38
f 39 40 41
f 42 41 40
f 41 42 43
f 44 43 42
f 43 44 45
f 46 45 44
f 48 45 47
f 46 47 45
f 2 48 4
f 47 4 48
f 51 50 49
f 52 49 50
f 53 49 52
f 54 49 53
f 55 49 54
f 56 55 54
f 57 55 56
f 59 58 53
f 54 53 58
f 61 60 50
f 52 50 60
f 52 62 53
f 63 53 62
f 52 60 62
f 64 62 60
f 61 65 60
f 64 60 65
f 61 50 65
f 66 65 50
f 51 67 50
f 66 50 67
f 51 49 67
f 68 67 49
f 68 49 69
f 55 69 49
f 55 57 69
f 70 69 57
f 70 57 71
f 56 71 57
f 56 54 71
f 72 71 54
f 72 54 73
f 58 73 54
f 58 59 73
f 74 73 59
f 53 63 59
f 74 59 63
f 77 76 75
f 78 75 76
f 81 80 79
f 82 79 80
f 85 84 83
f 86 83 84
f 88 87 84
f 86 84 87
f 91 90 89
f 92 89 90
f 95 94 93
f 96 93 94
f 99 98 97
f 100 97 98
f 103 102 101
f 104 101 102
f 107 106 105
f 108 105 106
f 111 110 109
f 112 109 110
f 115 114 113
f 116 113 114
f 108 114 105
f 115 105 114
f 119 118 117
f 120 117 118
f 123 122 121
f 124 121 122
f 123 98 122
f 99 122 98
f 126 119 125
f 117 125 119
f 129 128 127
f 130 127 128
f 133 132 131
f 134 131 132
f 123 121 98
f 135 98 121
f 136 98 135
f 114 98 136
f 100 98 114
f 108 100 114
f 106 100 108
f 137 116 136
f 114 136 116
f 133 131 121
f 135 121 131
f 78 76 138
f 139 138 76
f 109 112 81
f 80 81 112
f 91 89 111
f 110 111 89
f 90 126 92
f 125 92 126
f 128 85 130
f 83 130 85
f 93 96 140
f 141 140 96
f 100 106 97
f 107 97 106
f 133 121 132
f 124 132 121
f 135 142 136
f 143 136 142
f 135 131 142
f 134 142 131
f 79 82 88
f 87 88 82
f 141 144 140
f 145 140 144
f 116 137 113
f 146 113 137
f 136 143 137
f 146 137 143
f 144 147 145
f 148 145 147
f 118 77 120
f 75 120 77
f 101 104 95
f 94 95 104
f 147 129 148
f 127 148 129
f 138 139 103
f 102 103 139
f 151 150 149
f 152 149 150
f 154 153 151
f 150 151 153
f 157 156 155
f 158 155 156
f 161 160 159
f 162 159 160
f 165 164 163
f 166 163 164
f 166 160 163
f 161 163 160
f 168 164 167
f 165 167 164
f 171 170 169
f 172 169 170
f 175 174 173
f 176 173 174
f 179 178 177
f 180 177 178
f 183 182 181
f 184 181 182
f 186 185 167
f 168 167 185
f 162 187 159
f 188 159 187
f 190 189 171
f 170 171 189
f 193 192 191
f 194 191 192
f 178 195 180
f 196 180 195
f 198 157 197
f 155 197 157
f 200 199 197
f 198 197 199
f 193 179 192
f 177 192 179
f 195 201 196
f 202 196 201
f 205 204 203
f 206 203 204
f 175 207 174
f 208 174 207
f 210 209 185
f 175 185 209
f 173 185 175
f 160 185 173
f 168 185 160
f 166 168 160
f 164 168 166
f 187 162 173
f 160 173 162
f 211 207 209
f 175 209 207
f 211 212 207
f 208 207 212
f 210 213 209
f 214 209 213
f 201 215 202
f 216 202 215
f 219 218 217
f 220 217 218
f 221 217 220
f 215 182 216
f 183 216 182
f 203 206 190
f 189 190 206
f 191 194 205
f 204 205 194
f 173 176 187
f 188 187 176
f 220 222 221
f 223 221 222
f 156 224 158
f 219 158 224
f 217 158 219
f 222 169 223
f 172 223 169
f 210 185 213
f 186 213 185
f 181 184 154
f 153 154 184
f 149 152 200
f 225 200 152
f 199 200 225
f 211 209 212
f 214 212 209
f 228 227 226
f 229 226 227
f 232 231 230
f 233 230 231
f 236 235 234
f 237 234 235
f 240 239 238
f 241 238 239
f 242 238 241
f 245 244 243
f 246 243 244
f 249 248 247
f 250 247 248
f 252 243 251
f 246 251 243
f 255 254 253
f 256 253 254
f 249 257 248
f 258 248 257
f 261 260 259
f 262 259 260
f 238 242 253
f 255 253 242
f 264 231 263
f 232 263 231
f 234 237 240
f 239 240 237
f 267 266 265
f 268 265 266
f 271 270 269
f 272 269 270
f 275 274 273
f 276 273 274
f 279 278 277
f 280 277 278
f 283 282 281
f 284 281 282
f 227 285 229
f 286 229 285
f 288 279 287
f 277 287 279
f 281 284 236
f 235 236 284
f 261 228 260
f 226 260 228
f 278 252 280
f 251 280 252
f 290 289 267
f 266 267 289
f 249 247 257
f 290 257 247
f 267 257 290
f 291 257 267
f 264 257 291
f 233 264 291
f 231 264 233
f 265 292 267
f 291 267 292
f 275 273 247
f 290 247 273
f 294 291 293
f 292 293 291
f 254 288 256
f 287 256 288
f 285 271 286
f 269 286 271
f 290 273 289
f 276 289 273
f 297 296 295
f 298 295 296
f 258 257 263
f 264 263 257
f 295 298 299
f 300 299 298
f 275 247 274
f 250 274 247
f 292 265 293
f 268 293 265
f 259 262 297
f 296 297 262
f 233 291 230
f 294 230 291
f 299 300 245
f 244 245 300
f 270 282 272
f 283 272 282
f 303 302 301
f 304 301 302
f 307 306 305
f 308 305 306
f 309 305 308
f 312 311 310
f 313 310 311
f 303 310 313
f 314 310 303
f 315 310 314
f 316 315 314
f 317 315 316
f 301 318 303
f 314 303 318
f 320 319 311
f 313 311 319
f 312 310 321
f 322 321 310
f 325 324 323
f 326 323 324
f 329 328 327
f 330 327 328
f 333 332 331
f 334 331 332
f 337 336 335
f 338 335 336
f 340 329 339
f 327 339 329
f 312 321 311
f 341 311 321
f 332 342 334
f 343 334 342
f 346 345 344
f 347 344 345
f 350 349 348
f 351 348 349
f 353 317 352
f 316 352 317
f 318 301 354
f 304 354 301
f 323 326 307
f 306 307 326
f 355 314 354
f 318 354 314
f 313 319 356
f 357 356 319
f 359 340 358
f 339 358 340
f 316 314 352
f 355 352 314
f 344 347 360
f 324 360 347
f 325 360 324
f 320 311 361
f 341 361 311
f 322 310 362
f 315 362 310
f 313 356 303
f 302 303 356
f 365 364 363
f 366 363 364
f 368 359 367
f 358 367 359
f 335 338 369
f 370 369 338
f 343 342 371
f 372 371 342
f 309 308 364
f 366 364 308
f 374 350 373
f 348 373 350
f 376 375 337
f 377 337 375
f 378 337 377
f 336 337 378
f 369 370 367
f 368 367 370
f 349 333 351
f 331 351 333
f 346 374 345
f 373 345 374
f 320 361 319
f 357 319 361
f 371 372 376
f 375 376 372
f 315 317 362
f 353 362 317
f 328 365 330
f 363 330 365
f 381 380 379
f 382 379 380
f 385 384 383
f 386 383 384
f 383 386 387
f 388 387 386
f 390 389 380
f 382 380 389
f 393 392 391
f 394 391 392
f 397 396 395
f 398 395 396
f 401 400 399
f 402 399 400
f 405 404 403
f 406 403 404
f 404 407 406
f 408 406 407
f 390 409 389
f 410 389 409
f 413 412 411
f 414 411 412
f 417 416 415
f 418 415 416
f 421 420 419
f 422 419 420
f 425 424 423
f 426 423 424
f 427 409 424
f 381 424 409
f 428 424 381
f 412 424 428
f 426 424 412
f 413 426 412
f 429 426 413
f 392 393 428
f 412 428 393
f 390 380 409
f 381 409 380
f 387 388 430
f 431 430 388
f 434 433 432
f 435 432 433
f 437 436 417
f 416 417 436
f 433 438 435
f 439 435 438
f 440 429 411
f 413 411 429
f 442 430 441
f 431 441 430
f 434 432 421
f 420 421 432
f 402 443 399
f 444 399 443
f 443 405 444
f 403 444 405
f 446 397 445
f 395 445 397
f 398 396 437
f 436 437 396
f 426 429 423
f 440 423 429
f 448 447 401
f 400 401 447
f 438 449 439
f 450 439 449
f 428 451 392
f 394 392 451
f 427 452 409
f 410 409 452
f 415 418 448
f 447 448 418
f 407 442 408
f 441 408 442
f 414 412 391
f 393 391 412
f 419 422 385
f 384 385 422
f 381 379 428
f 451 428 379
f 427 424 452
f 425 452 424
f 449 446 450
f 445 450 446
f 455 454 453
f 456 453 454
f 459 458 457
f 460 457 458
f 463 462 461
f 464 461 462
f 467 466 465
f 468 465 466
f 471 470 469
f 472 469 470
f 475 474 473
f 476 473 474
f 479 478 477
f 480 477 478
f 481 477 480
f 484 483 482
f 485 482 483
f 487 486 461
f 463 461 486
f 490 489 488
f 491 488 489
f 493 488 492
f 491 492 488
f 496 495 494
f 497 494 495
f 464 462 453
f 455 453 462
f 474 467 476
f 465 476 467
f 499 496 498
f 494 498 496
f 502 501 500
f 503 500 501
f 506 505 504
f 507 504 505
f 510 509 508
f 511 508 509
f 514 513 512
f 515 512 513
f 469 472 479
f 478 479 472
f 466 510 468
f 508 468 510
f 456 454 492
f 493 492 454
f 517 500 516
f 503 516 500
f 457 460 518
f 519 518 460
f 521 520 483
f 485 483 520
f 505 522 507
f 499 507 522
f 498 507 499
f 477 481 504
f 506 504 481
f 511 509 523
f 524 523 509
f 527 526 525
f 528 525 526
f 495 529 497
f 517 497 529
f 516 497 517
f 484 482 490
f 489 490 482
f 459 475 458
f 473 458 475
f 521 512 520
f 515 520 512
f 514 512 486
f 484 486 512
f 490 486 484
f 454 486 490
f 463 486 454
f 455 463 454
f 462 463 455
f 488 493 490
f 454 490 493
f 521 483 512
f 484 512 483
f 523 524 471
f 470 471 524
f 514 486 513
f 487 513 486
f 525 528 502
f 501 502 528
f 518 519 527
f 526 527 519
f 532 531 530
f 533 530 531
f 536 535 534
f 537 534 535
f 539 535 538
f 536 538 535
f 542 541 540
f 543 540 541
f 546 545 544
f 547 544 545
f 550 549 548
f 551 548 549
f 554 553 552
f 555 552 553
f 537 556 534
f 557 534 556
f 559 558 556
f 557 556 558
f 562 561 560
f 563 560 561
f 565 564 559
f 558 559 564
f 566 531 549
f 565 549 531
f 559 549 565
f 535 549 559
f 551 549 535
f 539 551 535
f 567 551 539
f 556 537 559
f 535 559 537
f 532 568 531
f 565 531 568
f 547 545 569
f 570 569 545
f 566 549 571
f 550 571 549
f 572 567 538
f 539 538 567
f 575 574 573
f 576 573 574
f 578 577 554
f 553 554 577
f 580 575 579
f 573 579 575
f 583 582 581
f 584 581 582
f 587 586 585
f 588 585 586
f 552 555 589
f 590 589 555
f 592 542 591
f 540 591 542
f 595 594 593
f 596 593 594
f 594 586 596
f 587 596 586
f 551 567 548
f 572 548 567
f 569 570 597
f 598 597 570
f 566 571 531
f 533 531 571
f 600 599 544
f 546 544 599
f 602 562 601
f 560 601 562
f 600 580 599
f 579 599 580
f 541 602 543
f 601 543 602
f 561 581 563
f 584 563 581
f 597 598 603
f 582 603 598
f 583 603 582
f 585 588 578
f 577 578 588
f 574 595 576
f 593 576 595
f 589 590 591
f 592 591 590
f 532 530 568
f 604 568 530
f 565 568 564
f 604 564 568
f 607 606 605
f 608 605 606
f 609 605 608
f 610 609 608
f 611 609 610
f 612 611 610
f 613 611 612
f 614 613 612
f 615 613 614
f 618 617 616
f 608 616 617
f 606 616 608
f 620 618 619
f 616 619 618
f 622 620 621
f 619 621 620
f 624 622 623
f 621 623 622
f 625 623 621
f 627 624 626
f 623 626 624
f 629 628 626
f 627 626 628
f 631 630 629
f 628 629 630
f 633 632 631
f 630 631 632
f 635 634 633
f 632 633 634
f 637 636 635
f 634 635 636
f 639 638 637
f 636 637 638
f 641 638 640
f 639 640 638
f 643 641 642
f 640 642 641
f 644 642 640
f 646 645 605
f 647 605 645
f 607 605 647
f 648 646 609
f 605 609 646
f 648 609 649
f 611 649 609
f 649 611 650
f 613 650 611
f 650 613 651
f 615 651 613
f 651 615 652
f 614 652 615
f 652 614 653
f 612 653 614
f 653 612 654
f 610 654 612
f 617 654 608
f 610 608 654
f 657 656 655
f 658 655 656
f 659 658 656
f 660 658 659
f 632 660 659
f 634 660 632
f 636 660 634
f 661 660 636
f 638 661 636
f 641 661 638
f 662 661 641
f 643 662 641
f 663 662 643
f 664 663 643
f 665 663 664
f 645 665 664
f 646 665 645
f 666 665 646
f 648 666 646
f 667 666 648
f 649 667 648
f 650 667 649
f 668 667 650
f 651 668 650
f 659 669 632
f 630 632 669
f 628 630 669
f 670 628 669
f 627 628 670
f 624 627 670
f 671 624 670
f 622 624 671
f 672 622 671
f 620 622 672
f 618 620 672
f 673 618 672
f 617 618 673
f 674 617 673
f 654 617 674
f 675 654 674
f 653 654 675
f 652 653 675
f 676 652 675
f 651 652 676
f 668 651 676
f 677 668 676
f 678 677 676
f 679 677 678
f 657 680 656
f 681 656 680
f 655 682 657
f 680 657 682
f 658 683 655
f 682 655 683
f 660 684 658
f 683 658 684
f 685 684 661
f 660 661 684
f 686 685 662
f 661 662 685
f 687 686 663
f 662 663 686
f 688 687 665
f 663 665 687
f 689 688 666
f 665 666 688
f 690 689 667
f 666 667 689
f 690 667 691
f 668 691 667
f 691 668 692
f 677 692 668
f 692 677 693
f 679 693 677
f 693 679 694
f 678 694 679
f 694 678 695
f 676 695 678
f 695 676 696
f 675 696 676
f 697 696 674
f 675 674 696
f 698 697 673
f 674 673 697
f 699 698 672
f 673 672 698
f 700 699 671
f 672 671 699
f 701 700 670
f 671 670 700
f 702 701 669
f 670 669 701
f 659 703 669
f 702 669 703
f 656 681 659
f 703 659 681
f 633 631 635
f 637 635 631
f 629 637 631
f 639 637 629
f 626 639 629
f 640 639 626
f 623 640 626
f 644 640 623
f 625 644 623
f 645 664 647
f 704 647 664
f 664 643 704
f 642 704 643
f 642 621 704
f 619 704 621
f 647 704 619
f 616 647 619
f 642 644 621
f 625 621 644
f 607 647 606
f 616 606 647
f 707 706 705
f 708 705 706
f 711 710 709
f 712 709 710
f 715 714 713
f 716 713 714
f 718 717 706
f 719 706 717
f 722 721 720
f 723 720 721
f 726 725 724
f 727 724 725
f 726 724 728
f 729 728 724
f 713 716 730
f 731 730 716
f 733 732 715
f 714 715 732
f 736 735 734
f 737 734 735
f 720 723 738
f 739 738 723
f 741 711 740
f 709 740 711
f 744 743 742
f 745 742 743
f 748 747 746
f 749 746 747
f 734 737 750
f 751 750 737
f 754 753 752
f 755 752 753
f 758 757 756
f 759 756 757
f 725 718 727
f 706 727 718
f 707 727 706
f 761 760 722
f 721 722 760
f 764 763 762
f 765 762 763
f 763 764 766
f 767 766 764
f 770 769 768
f 771 768 769
f 774 773 772
f 775 772 773
f 778 777 776
f 779 776 777
f 717 780 719
f 758 719 780
f 762 765 736
f 735 736 765
f 772 775 781
f 782 781 775
f 738 739 783
f 784 783 739
f 786 785 756
f 787 756 785
f 769 760 771
f 761 771 760
f 707 705 727
f 788 727 705
f 724 727 788
f 782 724 788
f 729 724 782
f 775 729 782
f 747 729 775
f 773 747 775
f 749 747 773
f 750 751 789
f 790 789 751
f 734 750 736
f 762 736 750
f 789 762 750
f 764 762 789
f 776 764 789
f 767 764 776
f 779 767 776
f 757 767 779
f 759 757 779
f 743 791 745
f 792 745 791
f 794 730 793
f 731 793 730
f 796 795 752
f 754 752 795
f 791 794 792
f 793 792 794
f 798 797 733
f 732 733 797
f 758 756 719
f 787 719 756
f 706 719 787
f 708 706 787
f 710 770 712
f 768 712 770
f 801 800 799
f 802 799 800
f 738 783 720
f 722 720 783
f 796 722 783
f 761 722 796
f 737 761 796
f 735 761 737
f 765 761 735
f 771 761 765
f 763 771 765
f 766 771 763
f 768 771 766
f 780 768 766
f 712 768 780
f 717 712 780
f 709 712 717
f 718 709 717
f 725 709 718
f 740 709 725
f 726 740 725
f 800 740 726
f 728 800 726
f 748 800 728
f 802 800 748
f 746 802 748
f 796 752 737
f 751 737 752
f 790 751 752
f 755 790 752
f 778 790 755
f 777 778 755
f 742 777 755
f 786 777 742
f 745 786 742
f 785 786 745
f 803 785 745
f 792 803 745
f 804 803 792
f 793 804 792
f 781 804 793
f 731 781 793
f 772 781 731
f 774 772 731
f 716 774 731
f 746 774 716
f 802 746 716
f 797 802 716
f 714 797 716
f 732 797 714
f 785 803 787
f 708 787 803
f 777 786 779
f 756 779 786
f 759 779 756
f 801 741 800
f 740 800 741
f 804 781 788
f 782 788 781
f 746 749 774
f 773 774 749
f 780 766 758
f 767 758 766
f 757 758 767
f 799 802 798
f 797 798 802
f 789 790 776
f 778 776 790
f 728 729 748
f 747 748 729
f 753 744 755
f 742 755 744
f 803 804 708
f 788 708 804
f 705 708 788
f 783 784 796
f 795 796 784
f 807 806 805
f 808 805 806
f 811 810 809
f 812 809 810
f 815 814 813
f 816 813 814
f 819 818 817
f 820 817 818
f 821 817 820
f 824 823 822
f 825 822 823
f 828 827 826
f 829 826 827
f 832 831 830
f 833 830 831
f 834 830 833
f 837 836 835
f 838 835 836
f 841 840 839
f 842 839 840
f 845 844 843
f 846 843 844
f 849 848 847
f 850 847 848
f 853 852 851
f 854 851 852
f 856 834 855
f 833 855 834
f 857 855 833
f 858 857 833
f 859 857 858
f 860 859 858
f 861 859 860
f 862 861 860
f 863 861 862
f 866 865 864
f 867 864 865
f 868 867 865
f 869 867 868
f 870 869 868
f 871 869 870
f 872 869 871
f 873 869 872
f 874 873 872
f 875 873 874
f 876 873 875
f 877 876 875
f 878 876 877
f 879 878 877
f 880 878 879
f 818 880 879
f 819 880 818
f 881 880 819
f 882 881 819
f 883 881 882
f 884 883 882
f 885 883 884
f 886 883 885
f 887 886 885
f 868 888 870
f 889 870 888
f 890 889 888
f 891 890 888
f 807 890 891
f 806 807 891
f 826 806 891
f 892 806 826
f 829 892 826
f 893 892 829
f 894 893 829
f 895 894 829
f 896 894 895
f 897 896 895
f 898 896 897
f 816 898 897
f 899 898 816
f 900 899 816
f 814 900 816
f 887 900 814
f 886 887 814
f 852 886 814
f 901 852 814
f 854 852 901
f 887 902 900
f 903 900 902
f 827 904 829
f 895 829 904
f 809 812 905
f 906 905 812
f 909 908 907
f 910 907 908
f 913 912 911
f 914 911 912
f 845 843 915
f 916 915 843
f 820 915 916
f 917 820 916
f 869 918 867
f 919 867 918
f 922 921 920
f 923 920 921
f 924 813 897
f 816 897 813
f 926 925 909
f 908 909 925
f 893 894 916
f 917 916 894
f 920 923 927
f 928 927 923
f 930 913 929
f 911 929 913
f 856 931 834
f 830 834 931
f 933 932 822
f 934 822 932
f 894 896 917
f 935 917 896
f 936 917 935
f 938 937 880
f 878 880 937
f 865 939 868
f 940 868 939
f 907 910 941
f 942 941 910
f 944 863 943
f 862 943 863
f 946 859 945
f 861 945 859
f 879 877 915
f 845 915 877
f 836 930 838
f 929 838 930
f 949 948 947
f 950 947 948
f 874 951 875
f 952 875 951
f 954 953 811
f 810 811 953
f 957 956 955
f 958 955 956
f 892 893 843
f 916 843 893
f 960 872 959
f 871 959 872
f 961 918 873
f 869 873 918
f 904 924 895
f 897 895 924
f 964 963 962
f 965 962 963
f 941 942 966
f 967 966 942
f 968 857 946
f 859 946 857
f 899 969 898
f 970 898 969
f 877 875 845
f 952 845 875
f 844 845 952
f 821 936 817
f 935 817 936
f 971 817 935
f 970 971 935
f 972 971 970
f 969 972 970
f 973 972 969
f 903 973 969
f 902 973 903
f 950 948 926
f 925 926 948
f 932 832 934
f 830 934 832
f 907 941 909
f 926 909 941
f 966 926 941
f 950 926 966
f 974 950 966
f 947 950 974
f 975 947 974
f 823 947 975
f 825 823 975
f 978 977 976
f 824 976 977
f 839 842 979
f 980 979 842
f 982 964 981
f 962 981 964
f 983 933 975
f 822 975 933
f 825 975 822
f 984 886 853
f 852 853 886
f 905 906 841
f 840 841 906
f 985 901 815
f 814 815 901
f 986 883 984
f 886 984 883
f 806 892 808
f 843 808 892
f 846 808 843
f 882 971 884
f 972 884 971
f 980 982 979
f 981 979 982
f 867 919 864
f 987 864 919
f 818 879 820
f 915 820 879
f 989 953 988
f 954 988 953
f 851 854 985
f 901 985 854
f 905 841 809
f 811 809 841
f 839 811 841
f 954 811 839
f 910 954 839
f 908 954 910
f 925 954 908
f 988 954 925
f 948 988 925
f 949 988 948
f 914 988 949
f 977 914 949
f 911 914 977
f 978 911 977
f 929 911 978
f 990 929 978
f 991 929 990
f 838 929 991
f 968 838 991
f 835 838 968
f 946 835 968
f 945 835 946
f 992 835 945
f 944 992 945
f 839 979 910
f 942 910 979
f 967 942 979
f 981 967 979
f 993 967 981
f 983 993 981
f 962 983 981
f 933 983 962
f 965 933 962
f 932 933 965
f 832 932 965
f 955 832 965
f 831 832 955
f 958 831 955
f 994 831 958
f 850 994 958
f 995 994 850
f 943 995 850
f 848 943 850
f 944 943 848
f 992 944 848
f 921 992 848
f 928 921 848
f 923 921 928
f 900 903 899
f 969 899 903
f 937 996 878
f 876 878 996
f 991 990 855
f 931 855 990
f 856 855 931
f 963 957 965
f 955 965 957
f 885 973 887
f 902 887 973
f 868 940 888
f 997 888 940
f 896 898 935
f 970 935 898
f 995 860 994
f 858 994 860
f 998 828 891
f 826 891 828
f 821 820 936
f 917 936 820
f 1000 999 959
f 960 959 999
f 1001 960 999
f 951 960 1001
f 805 951 1001
f 952 951 805
f 808 952 805
f 844 952 808
f 846 844 808
f 864 987 866
f 1002 866 987
f 837 835 1003
f 992 1003 835
f 959 871 1000
f 870 1000 871
f 999 889 1001
f 890 1001 889
f 977 949 824
f 947 824 949
f 823 824 947
f 831 994 833
f 858 833 994
f 1000 870 999
f 889 999 870
f 882 819 971
f 817 971 819
f 1003 992 922
f 921 922 992
f 997 998 888
f 891 888 998
f 943 862 995
f 860 995 862
f 866 1002 865
f 939 865 1002
f 824 822 976
f 934 976 822
f 931 976 934
f 830 931 934
f 993 983 974
f 975 974 983
f 884 972 885
f 973 885 972
f 966 967 974
f 993 974 967
f 945 861 944
f 863 944 861
f 1004 938 881
f 880 881 938
f 990 978 931
f 976 931 978
f 956 847 958
f 850 958 847
f 912 989 914
f 988 914 989
f 996 961 876
f 873 876 961
f 986 1004 883
f 881 883 1004
f 1001 890 805
f 807 805 890
f 951 874 960
f 872 960 874
f 968 991 857
f 855 857 991
f 927 928 849
f 848 849 928
