v 0.490435 -0.154845 0.300220
v 0.238044 0.021277 0.300220
v 0.238044 -0.154845 0.300220
v 0.490435 0.021277 0.300220
v 0.490435 -0.324508 0.220426
v 0.225849 -0.324508 0.101841
v 0.490435 -0.324508 0.101841
v 0.225849 -0.324508 0.220426
v -0.488285 0.322102 0.057131
v -0.488285 -0.317778 0.000000
v -0.488285 -0.317778 0.057131
v -0.488285 0.322102 0.000000
v 0.492345 0.322102 0.000000
v 0.492345 0.322102 0.057131
v 0.224882 -0.317778 0.089271
v 0.109297 -0.317778 0.057131
v 0.224882 -0.317778 0.057131
v 0.109297 -0.317778 0.089271
v 0.492345 -0.317778 0.000000
v 0.492345 -0.317778 0.057131
v 0.107889 -0.317778 0.057131
v 0.226086 -0.317778 0.057131
v 0.225849 -0.317778 0.057131
v 0.108126 -0.317778 0.057131
v 0.490435 -0.320438 0.101841
v 0.225849 -0.320438 0.091710
v 0.490435 -0.320438 0.091710
v 0.225849 -0.320438 0.101841
v 0.225849 -0.324508 0.091710
f 1 2 3
f 2 1 4
f 5 6 7
f 6 5 8
f 5 3 8
f 3 5 1
f 9 10 11
f 10 9 12
f 9 13 12
f 13 9 14
f 15 16 17
f 16 15 18
f 19 11 10
f 11 19 20
f 11 20 21
f 21 20 22
f 21 22 23
f 21 23 17
f 21 17 16
f 21 16 24
f 13 20 19
f 20 13 14
f 25 26 27
f 26 25 28
f 25 6 28
f 6 25 7
f 26 6 29
f 6 26 28
f 3 2 1
f 4 1 2
f 7 6 5
f 8 5 6
f 8 3 5
f 1 5 3
f 11 10 9
f 12 9 10
f 12 13 9
f 14 9 13
f 17 16 15
f 18 15 16
f 10 11 19
f 20 19 11
f 21 20 11
f 22 20 21
f 23 22 21
f 17 23 21
f 16 17 21
f 24 16 21
f 19 20 13
f 14 13 20
f 27 26 25
f 28 25 26
f 28 6 25
f 7 25 6
f 29 6 26
f 28 26 6
