v 0.127364 0.021277 0.476341
v 0.232344 0.021277 0.306496
v 0.127364 0.021277 0.306496
v 0.232344 0.021277 0.476341
v 0.115037 -0.058518 0.646004
v 0.220017 -0.058518 0.646004
v 0.220017 -0.175871 0.646004
v 0.115037 -0.175871 0.646004
v 0.101791 -0.187858 0.136892
v 0.112603 -0.190840 0.141609
v 0.112695 -0.188243 0.136892
v 0.101700 -0.190455 0.141609
v 0.112472 -0.194568 0.145493
v 0.101568 -0.194184 0.145493
v 0.112309 -0.199175 0.148279
v 0.101406 -0.198790 0.148279
v 0.112127 -0.204345 0.149777
v 0.101224 -0.203960 0.149777
v 0.111937 -0.209726 0.149884
v 0.101034 -0.209341 0.149884
v 0.111753 -0.214951 0.148595
v 0.100849 -0.214567 0.148595
v 0.111586 -0.219665 0.145996
v 0.100683 -0.219281 0.145996
v 0.111450 -0.223547 0.142265
v 0.100546 -0.223162 0.142265
v 0.100448 -0.225946 0.137656
v 0.111351 -0.226331 0.137656
v 0.100395 -0.227443 0.132483
v 0.111299 -0.227827 0.132483
v 0.100392 -0.227551 0.127099
v 0.111295 -0.227935 0.127099
v 0.100437 -0.226262 0.121870
v 0.111340 -0.226647 0.121870
v 0.100529 -0.223665 0.117153
v 0.111432 -0.224050 0.117153
v 0.100660 -0.219936 0.113269
v 0.111563 -0.220321 0.113269
v 0.100823 -0.215330 0.110483
v 0.111726 -0.215715 0.110483
v 0.101005 -0.210160 0.108986
v 0.111908 -0.210545 0.108986
v 0.101195 -0.204779 0.108878
v 0.112098 -0.205164 0.108878
v 0.101379 -0.199554 0.110167
v 0.112282 -0.199938 0.110167
v 0.101545 -0.194839 0.112766
v 0.112448 -0.195224 0.112766
v 0.101682 -0.190958 0.116497
v 0.112585 -0.191343 0.116497
v 0.112684 -0.188559 0.121106
v 0.101780 -0.188174 0.121106
v 0.112736 -0.187062 0.126279
v 0.101833 -0.186677 0.126279
v 0.112740 -0.186954 0.131663
v 0.101837 -0.186569 0.131663
f 1 2 3
f 2 1 4
f 5 4 1
f 4 5 6
f 7 5 8
f 5 7 6
f 9 10 11
f 10 9 12
f 12 13 10
f 13 12 14
f 15 14 16
f 14 15 13
f 17 16 18
f 16 17 15
f 19 18 20
f 18 19 17
f 21 20 22
f 20 21 19
f 23 22 24
f 22 23 21
f 25 24 26
f 24 25 23
f 25 27 28
f 27 25 26
f 28 29 30
f 29 28 27
f 30 31 32
f 31 30 29
f 32 33 34
f 33 32 31
f 34 35 36
f 35 34 33
f 36 37 38
f 37 36 35
f 39 38 37
f 38 39 40
f 41 40 39
f 40 41 42
f 43 42 41
f 42 43 44
f 45 44 43
f 44 45 46
f 47 46 45
f 46 47 48
f 49 48 47
f 48 49 50
f 49 51 50
f 51 49 52
f 52 53 51
f 53 52 54
f 54 55 53
f 55 54 56
f 56 11 55
f 11 56 9
f 3 2 1
f 4 1 2
f 1 4 5
f 6 5 4
f 8 5 7
f 6 7 5
f 11 10 9
f 12 9 10
f 10 13 12
f 14 12 13
f 16 14 15
f 13 15 14
f 18 16 17
f 15 17 16
f 20 18 19
f 17 19 18
f 22 20 21
f 19 21 20
f 24 22 23
f 21 23 22
f 26 24 25
f 23 25 24
f 28 27 25
f 26 25 27
f 30 29 28
f 27 28 29
f 32 31 30
f 29 30 31
f 34 33 32
f 31 32 33
f 36 35 34
f 33 34 35
f 38 37 36
f 35 36 37
f 37 38 39
f 40 39 38
f 39 40 41
f 42 41 40
f 41 42 43
f 44 43 42
f 43 44 45
f 46 45 44
f 45 46 47
f 48 47 46
f 47 48 49
f 50 49 48
f 50 51 49
f 52 49 51
f 51 53 52
f 54 52 53
f 53 55 54
f 56 54 55
f 55 11 56
f 9 56 11
