v 0.490435 -0.324508 0.091710
v 0.225849 -0.324508 0.057131
v 0.490435 -0.324508 0.057131
v 0.225849 -0.324508 0.091710
v 0.500005 -0.324508 0.220426
v 0.500005 -0.324508 0.057131
v 0.490435 -0.324508 0.101841
v 0.490435 -0.324508 0.220426
v 0.490435 -0.154845 0.300220
v 0.500005 -0.154845 0.300220
v 0.490435 0.021277 0.300220
v 0.500005 0.021277 0.300220
v 0.490435 -0.320438 0.101841
v 0.490435 -0.320438 0.091710
v 0.225849 -0.320438 0.091710
f 1 2 3
f 2 1 4
f 5 3 6
f 3 5 1
f 1 5 7
f 7 5 8
f 5 9 8
f 9 5 10
f 10 11 9
f 11 10 12
f 13 1 7
f 1 13 14
f 1 15 4
f 15 1 14
f 3 2 1
f 4 1 2
f 6 3 5
f 1 5 3
f 7 5 1
f 8 5 7
f 8 9 5
f 10 5 9
f 9 11 10
f 12 10 11
f 7 1 13
f 14 13 1
f 4 15 1
f 14 1 15
