v -0.387913 -0.324508 0.185070
v -0.473193 -0.324508 0.162828
v -0.387913 -0.324508 0.162828
v -0.473193 -0.324508 0.185070
v 0.120937 -0.269194 0.086971
v 0.115377 -0.249072 0.086971
v 0.111083 -0.269194 0.086971
v 0.223893 -0.249072 0.086971
v 0.214017 -0.269194 0.086971
v 0.226524 -0.269194 0.086971
v 0.226999 -0.152422 0.086971
v 0.236188 0.016693 0.086971
v 0.227561 -0.137075 0.086971
v 0.230666 -0.040424 0.086971
v 0.121588 0.016693 0.086971
v 0.119045 -0.137075 0.086971
v 0.123336 -0.040424 0.086971
v 0.119669 -0.152422 0.086971
v 0.180720 -0.306474 0.086971
v 0.180627 -0.303179 0.086971
v 0.180457 -0.304832 0.086971
v 0.181220 -0.301625 0.086971
v 0.181400 -0.307992 0.086971
v 0.182195 -0.300278 0.086971
v 0.182449 -0.309281 0.086971
v 0.183484 -0.299229 0.086971
v 0.183796 -0.310256 0.086971
v 0.185002 -0.298550 0.086971
v 0.185349 -0.310849 0.086971
v 0.186644 -0.298287 0.086971
v 0.187003 -0.311019 0.086971
v 0.188297 -0.298457 0.086971
v 0.188644 -0.310756 0.086971
v 0.189851 -0.299050 0.086971
v 0.190162 -0.310076 0.086971
v 0.191198 -0.300024 0.086971
v 0.191452 -0.309027 0.086971
v 0.192247 -0.301314 0.086971
v 0.192426 -0.307680 0.086971
v 0.192926 -0.302832 0.086971
v 0.193019 -0.306127 0.086971
v 0.193189 -0.304473 0.086971
v 0.122872 -0.306682 0.086971
v 0.122779 -0.303387 0.086971
v 0.122608 -0.305040 0.086971
v 0.123372 -0.301833 0.086971
v 0.123551 -0.308200 0.086971
v 0.124346 -0.300486 0.086971
v 0.124600 -0.309489 0.086971
v 0.125636 -0.299437 0.086971
v 0.125947 -0.310464 0.086971
v 0.127154 -0.298758 0.086971
v 0.127501 -0.311057 0.086971
v 0.128795 -0.298495 0.086971
v 0.129154 -0.311227 0.086971
v 0.130449 -0.298665 0.086971
v 0.130796 -0.310964 0.086971
v 0.132002 -0.299258 0.086971
v 0.132313 -0.310284 0.086971
v 0.133349 -0.300232 0.086971
v 0.133603 -0.309235 0.086971
v 0.134398 -0.301522 0.086971
v 0.134578 -0.307888 0.086971
v 0.135078 -0.303040 0.086971
v 0.135171 -0.306335 0.086971
v 0.135341 -0.304681 0.086971
v 0.137176 -0.306585 0.086971
v 0.137083 -0.303289 0.086971
v 0.136912 -0.304943 0.086971
v 0.137675 -0.301736 0.086971
v 0.137855 -0.308102 0.086971
v 0.138650 -0.300389 0.086971
v 0.138904 -0.309392 0.086971
v 0.139940 -0.299340 0.086971
v 0.140251 -0.310367 0.086971
v 0.141457 -0.298661 0.086971
v 0.141804 -0.310959 0.086971
v 0.143099 -0.298397 0.086971
v 0.143458 -0.311130 0.086971
v 0.144753 -0.298568 0.086971
v 0.145100 -0.310866 0.086971
v 0.146306 -0.299160 0.086971
v 0.146617 -0.310187 0.086971
v 0.147653 -0.300135 0.086971
v 0.147907 -0.309138 0.086971
v 0.148702 -0.301425 0.086971
v 0.148882 -0.307791 0.086971
v 0.149381 -0.302942 0.086971
v 0.149474 -0.306238 0.086971
v 0.149645 -0.304584 0.086971
v 0.151586 -0.306844 0.086971
v 0.151494 -0.303548 0.086971
v 0.151323 -0.305202 0.086971
v 0.152086 -0.301995 0.086971
v 0.152266 -0.308361 0.086971
v 0.153061 -0.300648 0.086971
v 0.153315 -0.309651 0.086971
v 0.154351 -0.299599 0.086971
v 0.154662 -0.310626 0.086971
v 0.155868 -0.298920 0.086971
v 0.156215 -0.311219 0.086971
v 0.157510 -0.298656 0.086971
v 0.157869 -0.311389 0.086971
v 0.159164 -0.298827 0.086971
v 0.159511 -0.311126 0.086971
v 0.160717 -0.299420 0.086971
v 0.161028 -0.310446 0.086971
v 0.162064 -0.300394 0.086971
v 0.162318 -0.309397 0.086971
v 0.163113 -0.301684 0.086971
v 0.163293 -0.308050 0.086971
v 0.163792 -0.303201 0.086971
v 0.163885 -0.306497 0.086971
v 0.164056 -0.304843 0.086971
v 0.166615 -0.306764 0.086971
v 0.166522 -0.303469 0.086971
v 0.166351 -0.305123 0.086971
v 0.167114 -0.301916 0.086971
v 0.167294 -0.308282 0.086971
v 0.168089 -0.300569 0.086971
v 0.168343 -0.309572 0.086971
v 0.169379 -0.299520 0.086971
v 0.169690 -0.310546 0.086971
v 0.170896 -0.298840 0.086971
v 0.171243 -0.311139 0.086971
v 0.172538 -0.298577 0.086971
v 0.172897 -0.311310 0.086971
v 0.174192 -0.298747 0.086971
v 0.174539 -0.311046 0.086971
v 0.175745 -0.299340 0.086971
v 0.176056 -0.310367 0.086971
v 0.177092 -0.300315 0.086971
v 0.177346 -0.309318 0.086971
v 0.178141 -0.301605 0.086971
v 0.178321 -0.307971 0.086971
v 0.178821 -0.303122 0.086971
v 0.178914 -0.306417 0.086971
v 0.179084 -0.304764 0.086971
v 0.223893 -0.249072 0.090911
v 0.115377 -0.249072 0.090911
v 0.221711 -0.249072 0.090911
v 0.226889 -0.155835 0.090911
v 0.226938 -0.154324 0.090911
v 0.226999 -0.152422 0.090911
v 0.119669 -0.152422 0.090911
v 0.121638 -0.152422 0.090911
v 0.121674 -0.152417 0.090911
v 0.121709 -0.152422 0.090911
v 0.119549 -0.155186 0.090911
v 0.119602 -0.153918 0.090911
v 0.123446 -0.041302 0.090891
v 0.123336 -0.040424 0.090891
v 0.123280 -0.041702 0.090891
v 0.123795 -0.040846 0.090891
v 0.124251 -0.040496 0.090891
v 0.124425 -0.040424 0.090891
v 0.227561 -0.137075 0.090891
v 0.119045 -0.137075 0.090891
v 0.225266 -0.137075 0.090891
v 0.121245 -0.137075 0.090891
v 0.230539 -0.044374 0.090891
v 0.230604 -0.042359 0.090891
v 0.230666 -0.040424 0.090891
v 0.126277 -0.040424 0.090891
v 0.119120 -0.135444 0.090891
v 0.119173 -0.134175 0.090891
v 0.123226 -0.042971 0.090891
v 0.176713 -0.245870 0.095681
v 0.185607 -0.239992 0.095681
v 0.176713 -0.155073 0.095681
v 0.185720 -0.240851 0.095681
v 0.186052 -0.241652 0.095681
v 0.186580 -0.242340 0.095681
v 0.187267 -0.242867 0.095681
v 0.188068 -0.243199 0.095681
v 0.188927 -0.243312 0.095681
v 0.219353 -0.245870 0.095681
v 0.189786 -0.243199 0.095681
v 0.190587 -0.242867 0.095681
v 0.191275 -0.242340 0.095681
v 0.191802 -0.241652 0.095681
v 0.192134 -0.240851 0.095681
v 0.192247 -0.239992 0.095681
v 0.206974 -0.243006 0.095681
v 0.206222 -0.242694 0.095681
v 0.205575 -0.242198 0.095681
v 0.205080 -0.241552 0.095681
v 0.204768 -0.240800 0.095681
v 0.204662 -0.239992 0.095681
v 0.207782 -0.243112 0.095681
v 0.208589 -0.243006 0.095681
v 0.209342 -0.242694 0.095681
v 0.209988 -0.242198 0.095681
v 0.210484 -0.241552 0.095681
v 0.210795 -0.240800 0.095681
v 0.210902 -0.239992 0.095681
v 0.211203 -0.172301 0.095681
v 0.211890 -0.172829 0.095681
v 0.212691 -0.173161 0.095681
v 0.213550 -0.173274 0.095681
v 0.214410 -0.173161 0.095681
v 0.215210 -0.172829 0.095681
v 0.215898 -0.172301 0.095681
v 0.216426 -0.171614 0.095681
v 0.216757 -0.170813 0.095681
v 0.216870 -0.169954 0.095681
v 0.190709 -0.168773 0.095681
v 0.222746 -0.155073 0.095681
v 0.190062 -0.169269 0.095681
v 0.189567 -0.169915 0.095681
v 0.189255 -0.170667 0.095681
v 0.189149 -0.171475 0.095681
v 0.185720 -0.239133 0.095681
v 0.186052 -0.238332 0.095681
v 0.186580 -0.237645 0.095681
v 0.187267 -0.237117 0.095681
v 0.188068 -0.236785 0.095681
v 0.188927 -0.236672 0.095681
v 0.191461 -0.168461 0.095681
v 0.192269 -0.168355 0.095681
v 0.193076 -0.168461 0.095681
v 0.193829 -0.168773 0.095681
v 0.194475 -0.169269 0.095681
v 0.194971 -0.169915 0.095681
v 0.195282 -0.170667 0.095681
v 0.195389 -0.171475 0.095681
v 0.211203 -0.167606 0.095681
v 0.210675 -0.168294 0.095681
v 0.210343 -0.169095 0.095681
v 0.210230 -0.169954 0.095681
v 0.211890 -0.167079 0.095681
v 0.212691 -0.166747 0.095681
v 0.213550 -0.166634 0.095681
v 0.214410 -0.166747 0.095681
v 0.215210 -0.167079 0.095681
v 0.215898 -0.167606 0.095681
v 0.216426 -0.168294 0.095681
v 0.216757 -0.169095 0.095681
v 0.192134 -0.239133 0.095681
v 0.192124 -0.224147 0.095681
v 0.191802 -0.238332 0.095681
v 0.210564 -0.224147 0.095681
v 0.204768 -0.239185 0.095681
v 0.205080 -0.238432 0.095681
v 0.205575 -0.237786 0.095681
v 0.206222 -0.237290 0.095681
v 0.206974 -0.236978 0.095681
v 0.207782 -0.236872 0.095681
v 0.208589 -0.236978 0.095681
v 0.209342 -0.237290 0.095681
v 0.209988 -0.237786 0.095681
v 0.210484 -0.238432 0.095681
v 0.210795 -0.239185 0.095681
v 0.210564 -0.196017 0.095681
v 0.210675 -0.171614 0.095681
v 0.189786 -0.236785 0.095681
v 0.189255 -0.172282 0.095681
v 0.189567 -0.173035 0.095681
v 0.190062 -0.173681 0.095681
v 0.190587 -0.237117 0.095681
v 0.190709 -0.174177 0.095681
v 0.191275 -0.237645 0.095681
v 0.191461 -0.174488 0.095681
v 0.191455 -0.195907 0.095681
v 0.191455 -0.201687 0.095681
v 0.192124 -0.196017 0.095681
v 0.192269 -0.174595 0.095681
v 0.193076 -0.174488 0.095681
v 0.193829 -0.174177 0.095681
v 0.194475 -0.173681 0.095681
v 0.194971 -0.173035 0.095681
v 0.195282 -0.172282 0.095681
v 0.210343 -0.170813 0.095681
v 0.194534 -0.220607 0.095681
v 0.193384 -0.219377 0.095681
v 0.193384 -0.220607 0.095681
v 0.208664 -0.220197 0.095681
v 0.195274 -0.218737 0.095681
v 0.195274 -0.220197 0.095681
v 0.195274 -0.202247 0.095681
v 0.195274 -0.200327 0.095681
v 0.208664 -0.200327 0.095681
v 0.194604 -0.202247 0.095681
v 0.194534 -0.218737 0.095681
v 0.192124 -0.219377 0.095681
v 0.193134 -0.201687 0.095681
v 0.193134 -0.199677 0.095681
v 0.194604 -0.199677 0.095681
v 0.176713 -0.245870 0.090911
v 0.176713 -0.155073 0.090911
v 0.219353 -0.245870 0.090911
v 0.222740 -0.155591 0.090911
v 0.222729 -0.155508 0.090911
v 0.222746 -0.155073 0.090911
v 0.222672 -0.155073 0.090911
v 0.176764 -0.133739 0.095391
v 0.187106 -0.124331 0.095391
v 0.176764 -0.042942 0.095391
v 0.187219 -0.125190 0.095391
v 0.187551 -0.125991 0.095391
v 0.188079 -0.126678 0.095391
v 0.188766 -0.127206 0.095391
v 0.189567 -0.127538 0.095391
v 0.222563 -0.133739 0.095391
v 0.190426 -0.127651 0.095391
v 0.191286 -0.127538 0.095391
v 0.192086 -0.127206 0.095391
v 0.192774 -0.126678 0.095391
v 0.193302 -0.125991 0.095391
v 0.193633 -0.125190 0.095391
v 0.193746 -0.124331 0.095391
v 0.211843 -0.055152 0.095391
v 0.211729 -0.054292 0.095391
v 0.212174 -0.055952 0.095391
v 0.212702 -0.056640 0.095391
v 0.213389 -0.057168 0.095391
v 0.214190 -0.057499 0.095391
v 0.215049 -0.057612 0.095391
v 0.215909 -0.057499 0.095391
v 0.216709 -0.057168 0.095391
v 0.217397 -0.056640 0.095391
v 0.217925 -0.055952 0.095391
v 0.218256 -0.055152 0.095391
v 0.218369 -0.054292 0.095391
v 0.213389 -0.051417 0.095391
v 0.225956 -0.042942 0.095391
v 0.212702 -0.051945 0.095391
v 0.212174 -0.052632 0.095391
v 0.211843 -0.053433 0.095391
v 0.187219 -0.123472 0.095391
v 0.187551 -0.122671 0.095391
v 0.188079 -0.121983 0.095391
v 0.188766 -0.121456 0.095391
v 0.189567 -0.121124 0.095391
v 0.190426 -0.121011 0.095391
v 0.191286 -0.121124 0.095391
v 0.192086 -0.121456 0.095391
v 0.192774 -0.121983 0.095391
v 0.193302 -0.122671 0.095391
v 0.193633 -0.123472 0.095391
v 0.214190 -0.051086 0.095391
v 0.215049 -0.050972 0.095391
v 0.215909 -0.051086 0.095391
v 0.216709 -0.051417 0.095391
v 0.217397 -0.051945 0.095391
v 0.217925 -0.052632 0.095391
v 0.218256 -0.053433 0.095391
v 0.176764 -0.133739 0.090891
v 0.176764 -0.042942 0.090891
v 0.222563 -0.133739 0.090891
v 0.225956 -0.042942 0.090891
v 0.119768 -0.153517 0.090911
v 0.120118 -0.153061 0.090911
v 0.120574 -0.152712 0.090911
v 0.121104 -0.152492 0.090911
v 0.119768 -0.155717 0.090911
v 0.120118 -0.156173 0.090911
v 0.120574 -0.156522 0.090911
v 0.121104 -0.156742 0.090911
v 0.121674 -0.156817 0.090911
v 0.122243 -0.156742 0.090911
v 0.122243 -0.152492 0.090911
v 0.122774 -0.156522 0.090911
v 0.122774 -0.152712 0.090911
v 0.123229 -0.156173 0.090911
v 0.123229 -0.153061 0.090911
v 0.123579 -0.155717 0.090911
v 0.123579 -0.153517 0.090911
v 0.123799 -0.155186 0.090911
v 0.123799 -0.154047 0.090911
v 0.123874 -0.154617 0.090911
v 0.119339 -0.135975 0.090891
v 0.119339 -0.133775 0.090891
v 0.119689 -0.136430 0.090891
v 0.119689 -0.133319 0.090891
v 0.120145 -0.136780 0.090891
v 0.120145 -0.132969 0.090891
v 0.120675 -0.137000 0.090891
v 0.120675 -0.132750 0.090891
v 0.121245 -0.132675 0.090891
v 0.121814 -0.137000 0.090891
v 0.121814 -0.132750 0.090891
v 0.122345 -0.136780 0.090891
v 0.122345 -0.132969 0.090891
v 0.122800 -0.136430 0.090891
v 0.122800 -0.133319 0.090891
v 0.123150 -0.135975 0.090891
v 0.123150 -0.133775 0.090891
v 0.123370 -0.135444 0.090891
v 0.123370 -0.134305 0.090891
v 0.123445 -0.134875 0.090891
v 0.226503 -0.043857 0.090891
v 0.226503 -0.042719 0.090891
v 0.226428 -0.043288 0.090891
v 0.226723 -0.044388 0.090891
v 0.226723 -0.042188 0.090891
v 0.227073 -0.044844 0.090891
v 0.227073 -0.041732 0.090891
v 0.227528 -0.045193 0.090891
v 0.227528 -0.041383 0.090891
v 0.228059 -0.045413 0.090891
v 0.228059 -0.041163 0.090891
v 0.228628 -0.045488 0.090891
v 0.228628 -0.041088 0.090891
v 0.229198 -0.045413 0.090891
v 0.229198 -0.041163 0.090891
v 0.229728 -0.045193 0.090891
v 0.229728 -0.041383 0.090891
v 0.230184 -0.044844 0.090891
v 0.230184 -0.041732 0.090891
v 0.230533 -0.042188 0.090891
v 0.123446 -0.043502 0.090891
v 0.123795 -0.043957 0.090891
v 0.124251 -0.044307 0.090891
v 0.124781 -0.044527 0.090891
v 0.125351 -0.044602 0.090891
v 0.125920 -0.044527 0.090891
v 0.126451 -0.044307 0.090891
v 0.126451 -0.040496 0.090891
v 0.126907 -0.043957 0.090891
v 0.126907 -0.040846 0.090891
v 0.127256 -0.043502 0.090891
v 0.127256 -0.041302 0.090891
v 0.127476 -0.042971 0.090891
v 0.127476 -0.041832 0.090891
v 0.127551 -0.042402 0.090891
v 0.135897 -0.108678 0.090891
v 0.135603 -0.108452 0.090891
v 0.135377 -0.108158 0.090891
v 0.135235 -0.107816 0.090891
v 0.135187 -0.107448 0.090891
v 0.136239 -0.108820 0.090891
v 0.136607 -0.108868 0.090891
v 0.136974 -0.108820 0.090891
v 0.137317 -0.108678 0.090891
v 0.137611 -0.108452 0.090891
v 0.137837 -0.108158 0.090891
v 0.137978 -0.107816 0.090891
v 0.138027 -0.107448 0.090891
v 0.135377 -0.106738 0.090891
v 0.135235 -0.107081 0.090891
v 0.135603 -0.106444 0.090891
v 0.135897 -0.106218 0.090891
v 0.136239 -0.106077 0.090891
v 0.136607 -0.106028 0.090891
v 0.136974 -0.106077 0.090891
v 0.137317 -0.106218 0.090891
v 0.137611 -0.106444 0.090891
v 0.137837 -0.106738 0.090891
v 0.137978 -0.107081 0.090891
v 0.185720 -0.240851 0.092341
v 0.185720 -0.239133 0.092341
v 0.185607 -0.239992 0.092341
v 0.186052 -0.241652 0.092341
v 0.186052 -0.238332 0.092341
v 0.186580 -0.242340 0.092341
v 0.186496 -0.239992 0.092341
v 0.186579 -0.240621 0.092341
v 0.186822 -0.241208 0.092341
v 0.187267 -0.242867 0.092341
v 0.187208 -0.241711 0.092341
v 0.187711 -0.242098 0.092341
v 0.188068 -0.243199 0.092341
v 0.188298 -0.242341 0.092341
v 0.188927 -0.243312 0.092341
v 0.188927 -0.242424 0.092341
v 0.189786 -0.243199 0.092341
v 0.189556 -0.242341 0.092341
v 0.190143 -0.242098 0.092341
v 0.190587 -0.242867 0.092341
v 0.190646 -0.241711 0.092341
v 0.191275 -0.242340 0.092341
v 0.191033 -0.241208 0.092341
v 0.191276 -0.240621 0.092341
v 0.191802 -0.241652 0.092341
v 0.191358 -0.239992 0.092341
v 0.186580 -0.237645 0.092341
v 0.186579 -0.239363 0.092341
v 0.186822 -0.238777 0.092341
v 0.187267 -0.237117 0.092341
v 0.187208 -0.238273 0.092341
v 0.187711 -0.237887 0.092341
v 0.188068 -0.236785 0.092341
v 0.188298 -0.237644 0.092341
v 0.188927 -0.236672 0.092341
v 0.188927 -0.237561 0.092341
v 0.189556 -0.237644 0.092341
v 0.189786 -0.236785 0.092341
v 0.190143 -0.237887 0.092341
v 0.190587 -0.237117 0.092341
v 0.190646 -0.238273 0.092341
v 0.191275 -0.237645 0.092341
v 0.191033 -0.238777 0.092341
v 0.191276 -0.239363 0.092341
v 0.191802 -0.238332 0.092341
v 0.192134 -0.240851 0.092341
v 0.192134 -0.239133 0.092341
v 0.192247 -0.239992 0.092341
v 0.252590 -0.247195 0.159842
v 0.252575 -0.247635 0.150882
v 0.252562 -0.248004 0.155391
v 0.252629 -0.246112 0.146623
v 0.252659 -0.245262 0.163932
v 0.252719 -0.243539 0.142903
v 0.252762 -0.242336 0.167382
v 0.252841 -0.240091 0.139976
v 0.252893 -0.238619 0.169956
v 0.252985 -0.236004 0.138041
v 0.253043 -0.234362 0.171480
v 0.253142 -0.231556 0.137231
v 0.253202 -0.229856 0.171850
v 0.253301 -0.227050 0.137601
v 0.253359 -0.225407 0.171040
v 0.253451 -0.222793 0.139125
v 0.253503 -0.221320 0.169105
v 0.253582 -0.219075 0.141700
v 0.253625 -0.217873 0.166178
v 0.253685 -0.216150 0.145149
v 0.253715 -0.215300 0.162458
v 0.253753 -0.214217 0.149239
v 0.253769 -0.213777 0.158199
v 0.253782 -0.213407 0.153690
v 0.257161 -0.128100 0.158437
v 0.257145 -0.128540 0.149477
v 0.257132 -0.128910 0.153986
v 0.257199 -0.127017 0.145218
v 0.257229 -0.126167 0.162527
v 0.257290 -0.124444 0.141498
v 0.257332 -0.123242 0.165976
v 0.257412 -0.120997 0.138571
v 0.257463 -0.119524 0.168551
v 0.257556 -0.116910 0.136636
v 0.257614 -0.115267 0.170075
v 0.257713 -0.112462 0.135826
v 0.257773 -0.110761 0.170444
v 0.257871 -0.107955 0.136196
v 0.257929 -0.106313 0.169634
v 0.258022 -0.103698 0.137720
v 0.258074 -0.102226 0.167700
v 0.258153 -0.099981 0.140294
v 0.258195 -0.098778 0.164773
v 0.258256 -0.097056 0.143744
v 0.258286 -0.096205 0.161053
v 0.258324 -0.095122 0.147834
v 0.258340 -0.094682 0.156794
v 0.258353 -0.094313 0.152285
v 0.135195 -0.227672 0.089751
v 0.135195 -0.226937 0.089751
v 0.135146 -0.227304 0.089751
v 0.135337 -0.228014 0.089751
v 0.135337 -0.226594 0.089751
v 0.135562 -0.228308 0.089751
v 0.135562 -0.226300 0.089751
v 0.135856 -0.228534 0.089751
v 0.135856 -0.226074 0.089751
v 0.136199 -0.228676 0.089751
v 0.136199 -0.225933 0.089751
v 0.136566 -0.228724 0.089751
v 0.136566 -0.225884 0.089751
v 0.136934 -0.228676 0.089751
v 0.136934 -0.225933 0.089751
v 0.137276 -0.228534 0.089751
v 0.137276 -0.226074 0.089751
v 0.137570 -0.228308 0.089751
v 0.137570 -0.226300 0.089751
v 0.137796 -0.228014 0.089751
v 0.137796 -0.226594 0.089751
v 0.137938 -0.227672 0.089751
v 0.137938 -0.226937 0.089751
v 0.137986 -0.227304 0.089751
v 0.137938 -0.227672 0.090911
v 0.137796 -0.228014 0.090911
v 0.137986 -0.227304 0.090911
v 0.137938 -0.226937 0.090911
v 0.137796 -0.226594 0.090911
v 0.137570 -0.226300 0.090911
v 0.137276 -0.226074 0.090911
v 0.136934 -0.225933 0.090911
v 0.136566 -0.225884 0.090911
v 0.136199 -0.225933 0.090911
v 0.135856 -0.226074 0.090911
v 0.135562 -0.226300 0.090911
v 0.135337 -0.226594 0.090911
v 0.135195 -0.226937 0.090911
v 0.135146 -0.227304 0.090911
v 0.135195 -0.227672 0.090911
v 0.135337 -0.228014 0.090911
v 0.135562 -0.228308 0.090911
v 0.135856 -0.228534 0.090911
v 0.136199 -0.228676 0.090911
v 0.136566 -0.228724 0.090911
v 0.136934 -0.228676 0.090911
v 0.137276 -0.228534 0.090911
v 0.137570 -0.228308 0.090911
v 0.116118 -0.246892 0.090911
v 0.116043 -0.246322 0.090911
v 0.116338 -0.247422 0.090911
v 0.116688 -0.247878 0.090911
v 0.117143 -0.248227 0.090911
v 0.117674 -0.248447 0.090911
v 0.118243 -0.248522 0.090911
v 0.118813 -0.248447 0.090911
v 0.119343 -0.248227 0.090911
v 0.119799 -0.247878 0.090911
v 0.120149 -0.247422 0.090911
v 0.120368 -0.246892 0.090911
v 0.120443 -0.246322 0.090911
v 0.116118 -0.245753 0.090911
v 0.116338 -0.245222 0.090911
v 0.116688 -0.244766 0.090911
v 0.117143 -0.244417 0.090911
v 0.117674 -0.244197 0.090911
v 0.118243 -0.244122 0.090911
v 0.118813 -0.244197 0.090911
v 0.119343 -0.244417 0.090911
v 0.119799 -0.244766 0.090911
v 0.120149 -0.245222 0.090911
v 0.120368 -0.245753 0.090911
v 0.135897 -0.106218 0.089731
v 0.136239 -0.106077 0.089731
v 0.135377 -0.108158 0.089731
v 0.135603 -0.108452 0.089731
v 0.135235 -0.107081 0.089731
v 0.135187 -0.107448 0.089731
v 0.137611 -0.108452 0.089731
v 0.137317 -0.108678 0.089731
v 0.137837 -0.108158 0.089731
v 0.137837 -0.106738 0.089731
v 0.137611 -0.106444 0.089731
v 0.135235 -0.107816 0.089731
v 0.137978 -0.107816 0.089731
v 0.138027 -0.107448 0.089731
v 0.136974 -0.106077 0.089731
v 0.137317 -0.106218 0.089731
v 0.135377 -0.106738 0.089731
v 0.135603 -0.106444 0.089731
v 0.135897 -0.108678 0.089731
v 0.136239 -0.108820 0.089731
v 0.136607 -0.108868 0.089731
v 0.136607 -0.106028 0.089731
v 0.136974 -0.108820 0.089731
v 0.137978 -0.107081 0.089731
v 0.216757 -0.170813 0.092341
v 0.216870 -0.169954 0.092341
v 0.210230 -0.169954 0.092341
v 0.210343 -0.170813 0.092341
v 0.212691 -0.173161 0.092341
v 0.211890 -0.172829 0.092341
v 0.216426 -0.171614 0.092341
v 0.212691 -0.166747 0.092341
v 0.213550 -0.166634 0.092341
v 0.215898 -0.172301 0.092341
v 0.215210 -0.172829 0.092341
v 0.216426 -0.168294 0.092341
v 0.215898 -0.167606 0.092341
v 0.215210 -0.167079 0.092341
v 0.214410 -0.166747 0.092341
v 0.214410 -0.173161 0.092341
v 0.213550 -0.173274 0.092341
v 0.210675 -0.171614 0.092341
v 0.216757 -0.169095 0.092341
v 0.211203 -0.172301 0.092341
v 0.210343 -0.169095 0.092341
v 0.210675 -0.168294 0.092341
v 0.211119 -0.169954 0.092341
v 0.211202 -0.170583 0.092341
v 0.211445 -0.171169 0.092341
v 0.211831 -0.171673 0.092341
v 0.212335 -0.172059 0.092341
v 0.212921 -0.172302 0.092341
v 0.213550 -0.172385 0.092341
v 0.214180 -0.172302 0.092341
v 0.214766 -0.172059 0.092341
v 0.215270 -0.171673 0.092341
v 0.215656 -0.171169 0.092341
v 0.215899 -0.170583 0.092341
v 0.215982 -0.169954 0.092341
v 0.211203 -0.167606 0.092341
v 0.211202 -0.169325 0.092341
v 0.211445 -0.168738 0.092341
v 0.211890 -0.167079 0.092341
v 0.211831 -0.168235 0.092341
v 0.212335 -0.167848 0.092341
v 0.212921 -0.167605 0.092341
v 0.213550 -0.167522 0.092341
v 0.214180 -0.167605 0.092341
v 0.214766 -0.167848 0.092341
v 0.215270 -0.168235 0.092341
v 0.215656 -0.168738 0.092341
v 0.215899 -0.169325 0.092341
v 0.195274 -0.202247 0.148761
v 0.194604 -0.199677 0.148761
v 0.194604 -0.202247 0.148761
v 0.192124 -0.224147 0.148761
v 0.193384 -0.220607 0.148761
v 0.192124 -0.219377 0.148761
v 0.210564 -0.224147 0.148761
v 0.194534 -0.220607 0.148761
v 0.195274 -0.220197 0.148761
v 0.194534 -0.218737 0.148761
v 0.208664 -0.220197 0.148761
v 0.208664 -0.200327 0.148761
v 0.193134 -0.201687 0.148761
v 0.191455 -0.195907 0.148761
v 0.191455 -0.201687 0.148761
v 0.192124 -0.196017 0.148761
v 0.193134 -0.199677 0.148761
v 0.210564 -0.196017 0.148761
v 0.195274 -0.200327 0.148761
v 0.195274 -0.218737 0.148761
v 0.193384 -0.219377 0.148761
v 0.208664 -0.217981 0.145981
v 0.208664 -0.204031 0.145981
v 0.208664 -0.204031 0.107431
v 0.208664 -0.217981 0.107431
v 0.210564 -0.217981 0.107431
v 0.210564 -0.204031 0.107431
v 0.210564 -0.204031 0.145981
v 0.210564 -0.217981 0.145981
v 0.192954 -0.080246 0.151811
v 0.193624 -0.080356 0.098731
v 0.192954 -0.080246 0.098731
v 0.193624 -0.080356 0.151811
v 0.196104 -0.084016 0.151811
v 0.194634 -0.084016 0.098731
v 0.196104 -0.084016 0.098731
v 0.194634 -0.084016 0.151811
v 0.217397 -0.051945 0.098731
v 0.216709 -0.051417 0.098731
v 0.211729 -0.054292 0.098731
v 0.211843 -0.053433 0.098731
v 0.210164 -0.104536 0.151811
v 0.210164 -0.102320 0.149031
v 0.210164 -0.104536 0.098731
v 0.210164 -0.084666 0.151811
v 0.210164 -0.088370 0.149031
v 0.210164 -0.088370 0.110481
v 0.210164 -0.102320 0.110481
v 0.210164 -0.084666 0.098731
v 0.212064 -0.088370 0.149031
v 0.212064 -0.102320 0.149031
v 0.212064 -0.102320 0.110481
v 0.212064 -0.088370 0.110481
v 0.193624 -0.103716 0.151811
v 0.193624 -0.108486 0.098731
v 0.193624 -0.108486 0.151811
v 0.193624 -0.103716 0.098731
v 0.194884 -0.103716 0.098731
v 0.194884 -0.104946 0.151811
v 0.194884 -0.104946 0.098731
v 0.194884 -0.103716 0.151811
v 0.215049 -0.050972 0.098731
v 0.214190 -0.051086 0.098731
v 0.196104 -0.086586 0.098731
v 0.196104 -0.086586 0.151811
v 0.194634 -0.086026 0.151811
v 0.192954 -0.086026 0.098731
v 0.194634 -0.086026 0.098731
v 0.192954 -0.086026 0.151811
v 0.196034 -0.103076 0.151811
v 0.196774 -0.103076 0.098731
v 0.196034 -0.103076 0.098731
v 0.196774 -0.103076 0.151811
v 0.212064 -0.108486 0.151811
v 0.212064 -0.108486 0.098731
v 0.215909 -0.057499 0.098731
v 0.216709 -0.057168 0.098731
v 0.212064 -0.080356 0.098731
v 0.212064 -0.080356 0.151811
v 0.217397 -0.056640 0.098731
v 0.212702 -0.056640 0.098731
v 0.213389 -0.057168 0.098731
v 0.217925 -0.052632 0.098731
v 0.196774 -0.086586 0.151811
v 0.196034 -0.104946 0.151811
v 0.196774 -0.104536 0.151811
v 0.196774 -0.084666 0.151811
v 0.212174 -0.055952 0.098731
v 0.211843 -0.055152 0.098731
v 0.212174 -0.052632 0.098731
v 0.214190 -0.057499 0.098731
v 0.215049 -0.057612 0.098731
v 0.212702 -0.051945 0.098731
v 0.218369 -0.054292 0.098731
v 0.218256 -0.055152 0.098731
v 0.212618 -0.054292 0.095391
v 0.212701 -0.054922 0.095391
v 0.212944 -0.055508 0.095391
v 0.213330 -0.056012 0.095391
v 0.213834 -0.056398 0.095391
v 0.214420 -0.056641 0.095391
v 0.215049 -0.056724 0.095391
v 0.215679 -0.056641 0.095391
v 0.216265 -0.056398 0.095391
v 0.216769 -0.056012 0.095391
v 0.217155 -0.055508 0.095391
v 0.217398 -0.054922 0.095391
v 0.217481 -0.054292 0.095391
v 0.212701 -0.053663 0.095391
v 0.212944 -0.053077 0.095391
v 0.213330 -0.052573 0.095391
v 0.213834 -0.052187 0.095391
v 0.214420 -0.051944 0.095391
v 0.215049 -0.051861 0.095391
v 0.215679 -0.051944 0.095391
v 0.216265 -0.052187 0.095391
v 0.216769 -0.052573 0.095391
v 0.217155 -0.053077 0.095391
v 0.217398 -0.053663 0.095391
v 0.218256 -0.053433 0.098731
v 0.217925 -0.055952 0.098731
v 0.196034 -0.104946 0.098731
v 0.187995 -0.124331 0.095391
v 0.188078 -0.124960 0.095391
v 0.188321 -0.125547 0.095391
v 0.188707 -0.126050 0.095391
v 0.189211 -0.126436 0.095391
v 0.189797 -0.126679 0.095391
v 0.190426 -0.126762 0.095391
v 0.191056 -0.126679 0.095391
v 0.191642 -0.126436 0.095391
v 0.192145 -0.126050 0.095391
v 0.192532 -0.125547 0.095391
v 0.192775 -0.124960 0.095391
v 0.192858 -0.124331 0.095391
v 0.188078 -0.123702 0.095391
v 0.188321 -0.123115 0.095391
v 0.188707 -0.122612 0.095391
v 0.189211 -0.122225 0.095391
v 0.189797 -0.121982 0.095391
v 0.190426 -0.121900 0.095391
v 0.191056 -0.121982 0.095391
v 0.191642 -0.122225 0.095391
v 0.192145 -0.122612 0.095391
v 0.192532 -0.123115 0.095391
v 0.192775 -0.123702 0.095391
v 0.196774 -0.104536 0.098731
v 0.196774 -0.084666 0.098731
v 0.196774 -0.086586 0.098731
v 0.215909 -0.051086 0.098731
v 0.213389 -0.051417 0.098731
v 0.107732 -0.118726 0.115995
v 0.119396 -0.115423 0.112130
v 0.107863 -0.115016 0.112130
v 0.119265 -0.119133 0.115995
v 0.108024 -0.110433 0.109359
v 0.119557 -0.110840 0.109359
v 0.108206 -0.105289 0.107868
v 0.119739 -0.105696 0.107868
v 0.108395 -0.099935 0.107761
v 0.119927 -0.100341 0.107761
v 0.108578 -0.094735 0.109044
v 0.120111 -0.095142 0.109044
v 0.108743 -0.090044 0.111630
v 0.120276 -0.090451 0.111630
v 0.108880 -0.086182 0.115342
v 0.120412 -0.086589 0.115342
v 0.108977 -0.083412 0.119928
v 0.120510 -0.083819 0.119928
v 0.120563 -0.082330 0.125075
v 0.109030 -0.081923 0.125075
v 0.109034 -0.081816 0.130433
v 0.120566 -0.082222 0.130433
v 0.108988 -0.083098 0.135636
v 0.120521 -0.083505 0.135636
v 0.108897 -0.085682 0.140329
v 0.120430 -0.086089 0.140329
v 0.108766 -0.089392 0.144194
v 0.120299 -0.089799 0.144194
v 0.120138 -0.094382 0.146966
v 0.108605 -0.093975 0.146966
v 0.119956 -0.099526 0.148456
v 0.108423 -0.099120 0.148456
v 0.119767 -0.104881 0.148563
v 0.108235 -0.104474 0.148563
v 0.119584 -0.110080 0.147280
v 0.108051 -0.109673 0.147280
v 0.119419 -0.114771 0.144695
v 0.107886 -0.114364 0.144695
v 0.119282 -0.118633 0.140982
v 0.107749 -0.118226 0.140982
v 0.119185 -0.121403 0.136396
v 0.107652 -0.120996 0.136396
v 0.119132 -0.122892 0.131249
v 0.107599 -0.122485 0.131249
v 0.119128 -0.123000 0.125891
v 0.107595 -0.122593 0.125891
v 0.119174 -0.121717 0.120688
v 0.107641 -0.121311 0.120688
v 0.239658 -0.099793 0.106141
v 0.229424 -0.094044 0.106033
v 0.229234 -0.099425 0.106141
v 0.239848 -0.094412 0.106033
v 0.239476 -0.104963 0.107639
v 0.229052 -0.104595 0.107639
v 0.239313 -0.109569 0.110425
v 0.228890 -0.109201 0.110425
v 0.228758 -0.112930 0.114308
v 0.239182 -0.113298 0.114308
v 0.228666 -0.115527 0.119025
v 0.239090 -0.115895 0.119025
v 0.228621 -0.116816 0.124254
v 0.239045 -0.117183 0.124254
v 0.228625 -0.116708 0.129639
v 0.239048 -0.117075 0.129639
v 0.228678 -0.115211 0.134812
v 0.239101 -0.115579 0.134812
v 0.228776 -0.112427 0.139421
v 0.239199 -0.112795 0.139421
v 0.228913 -0.108546 0.143152
v 0.239336 -0.108913 0.143152
v 0.229079 -0.103832 0.145751
v 0.239502 -0.104199 0.145751
v 0.229263 -0.098606 0.147040
v 0.239687 -0.098974 0.147040
v 0.229453 -0.093225 0.146932
v 0.239877 -0.093593 0.146932
v 0.229635 -0.088055 0.145434
v 0.240059 -0.088423 0.145434
v 0.229798 -0.083449 0.142649
v 0.240221 -0.083817 0.142649
v 0.229929 -0.079720 0.138765
v 0.240353 -0.080088 0.138765
v 0.230021 -0.077123 0.134048
v 0.240444 -0.077491 0.134048
v 0.230066 -0.075834 0.128819
v 0.240490 -0.076202 0.128819
v 0.230063 -0.075942 0.123435
v 0.240486 -0.076310 0.123435
v 0.230010 -0.077439 0.118261
v 0.240433 -0.077807 0.118261
v 0.229912 -0.080223 0.113652
v 0.240335 -0.080591 0.113652
v 0.240198 -0.084472 0.109921
v 0.229775 -0.084104 0.109921
v 0.240032 -0.089186 0.107323
v 0.229608 -0.088818 0.107323
v 0.225216 -0.233206 0.121002
v 0.237714 -0.232356 0.115774
v 0.225262 -0.231917 0.115774
v 0.237669 -0.233645 0.121002
v 0.225220 -0.233098 0.126387
v 0.237673 -0.233537 0.126387
v 0.225273 -0.231601 0.131560
v 0.237725 -0.232040 0.131560
v 0.225371 -0.228817 0.136169
v 0.237824 -0.229256 0.136169
v 0.225508 -0.224936 0.139900
v 0.237960 -0.225375 0.139900
v 0.225674 -0.220222 0.142499
v 0.238127 -0.220661 0.142499
v 0.225859 -0.214996 0.143788
v 0.238311 -0.215435 0.143788
v 0.226049 -0.209615 0.143680
v 0.238501 -0.210054 0.143680
v 0.226231 -0.204445 0.142182
v 0.238683 -0.204884 0.142182
v 0.226393 -0.199839 0.139397
v 0.238846 -0.200278 0.139397
v 0.226525 -0.196110 0.135513
v 0.238977 -0.196549 0.135513
v 0.226616 -0.193513 0.130796
v 0.239069 -0.193952 0.130796
v 0.226662 -0.192225 0.125567
v 0.239114 -0.192664 0.125567
v 0.226658 -0.192332 0.120183
v 0.239110 -0.192772 0.120183
v 0.226605 -0.193829 0.115010
v 0.239058 -0.194269 0.115010
v 0.226507 -0.196613 0.110401
v 0.238959 -0.197052 0.110401
v 0.238822 -0.200934 0.106670
v 0.226370 -0.200495 0.106670
v 0.238656 -0.205648 0.104071
v 0.226204 -0.205209 0.104071
v 0.238472 -0.210873 0.102781
v 0.226020 -0.210434 0.102781
v 0.238282 -0.216255 0.102889
v 0.225830 -0.215815 0.102889
v 0.238100 -0.221424 0.104387
v 0.225647 -0.220985 0.104387
v 0.237937 -0.226031 0.107173
v 0.225485 -0.225591 0.107173
v 0.225354 -0.229320 0.111057
v 0.237806 -0.229759 0.111057
f 1 2 3
f 2 1 4
f 5 6 7
f 6 5 8
f 8 5 9
f 8 9 10
f 8 10 11
f 11 10 12
f 11 12 13
f 13 12 14
f 6 15 7
f 15 6 16
f 15 16 17
f 15 17 12
f 12 17 14
f 18 16 6
f 16 18 13
f 13 18 11
f 19 20 21
f 20 19 22
f 22 19 23
f 22 23 24
f 24 23 25
f 24 25 26
f 26 25 27
f 26 27 28
f 28 27 29
f 28 29 30
f 30 29 31
f 30 31 32
f 32 31 33
f 32 33 34
f 34 33 35
f 34 35 36
f 36 35 37
f 36 37 38
f 38 37 39
f 38 39 40
f 40 39 41
f 40 41 42
f 43 44 45
f 44 43 46
f 46 43 47
f 46 47 48
f 48 47 49
f 48 49 50
f 50 49 51
f 50 51 52
f 52 51 53
f 52 53 54
f 54 53 55
f 54 55 56
f 56 55 57
f 56 57 58
f 58 57 59
f 58 59 60
f 60 59 61
f 60 61 62
f 62 61 63
f 62 63 64
f 64 63 65
f 64 65 66
f 67 68 69
f 68 67 70
f 70 67 71
f 70 71 72
f 72 71 73
f 72 73 74
f 74 73 75
f 74 75 76
f 76 75 77
f 76 77 78
f 78 77 79
f 78 79 80
f 80 79 81
f 80 81 82
f 82 81 83
f 82 83 84
f 84 83 85
f 84 85 86
f 86 85 87
f 86 87 88
f 88 87 89
f 88 89 90
f 91 92 93
f 92 91 94
f 94 91 95
f 94 95 96
f 96 95 97
f 96 97 98
f 98 97 99
f 98 99 100
f 100 99 101
f 100 101 102
f 102 101 103
f 102 103 104
f 104 103 105
f 104 105 106
f 106 105 107
f 106 107 108
f 108 107 109
f 108 109 110
f 110 109 111
f 110 111 112
f 112 111 113
f 112 113 114
f 115 116 117
f 116 115 118
f 118 115 119
f 118 119 120
f 120 119 121
f 120 121 122
f 122 121 123
f 122 123 124
f 124 123 125
f 124 125 126
f 126 125 127
f 126 127 128
f 128 127 129
f 128 129 130
f 130 129 131
f 130 131 132
f 132 131 133
f 132 133 134
f 134 133 135
f 134 135 136
f 136 135 137
f 136 137 138
f 139 6 8
f 6 139 140
f 140 139 141
f 8 142 139
f 142 8 11
f 142 11 143
f 143 11 144
f 145 11 18
f 11 145 144
f 144 145 146
f 144 146 147
f 144 147 148
f 149 6 140
f 6 149 18
f 18 149 150
f 18 150 145
f 151 152 153
f 152 151 154
f 152 154 155
f 152 155 156
f 157 16 13
f 16 157 158
f 158 157 159
f 158 159 160
f 14 157 13
f 157 14 161
f 161 14 162
f 162 14 163
f 152 14 17
f 14 152 163
f 163 152 156
f 163 156 164
f 165 16 158
f 16 165 17
f 17 165 166
f 17 166 167
f 17 167 153
f 17 153 152
f 168 169 170
f 169 168 171
f 171 168 172
f 172 168 173
f 173 168 174
f 174 168 175
f 175 168 176
f 176 168 177
f 176 177 178
f 178 177 179
f 179 177 180
f 180 177 181
f 181 177 182
f 182 177 183
f 183 177 184
f 183 184 185
f 183 185 186
f 183 186 187
f 183 187 188
f 183 188 189
f 184 177 190
f 190 177 191
f 191 177 192
f 192 177 193
f 193 177 194
f 194 177 195
f 195 177 196
f 196 177 197
f 197 177 198
f 198 177 199
f 199 177 200
f 200 177 201
f 201 177 202
f 202 177 203
f 203 177 204
f 204 177 205
f 205 177 206
f 170 207 208
f 207 170 209
f 209 170 210
f 210 170 211
f 211 170 212
f 212 170 169
f 212 169 213
f 212 213 214
f 212 214 215
f 212 215 216
f 212 216 217
f 212 217 218
f 208 207 219
f 208 219 220
f 208 220 221
f 208 221 222
f 208 222 223
f 208 223 224
f 208 224 225
f 208 225 226
f 208 226 227
f 227 226 228
f 228 226 229
f 229 226 230
f 208 227 231
f 208 231 232
f 208 232 233
f 208 233 234
f 208 234 235
f 208 235 236
f 208 236 237
f 208 237 238
f 208 238 206
f 208 206 177
f 239 240 241
f 240 239 242
f 242 239 183
f 242 183 243
f 243 183 189
f 242 243 244
f 242 244 245
f 242 245 246
f 242 246 247
f 242 247 248
f 242 248 249
f 242 249 250
f 242 250 251
f 242 251 252
f 242 252 253
f 242 253 254
f 254 253 255
f 255 253 197
f 197 253 196
f 256 212 218
f 212 256 257
f 257 256 258
f 258 256 259
f 259 256 260
f 259 260 261
f 261 260 262
f 261 262 263
f 263 262 264
f 264 262 265
f 263 264 266
f 263 266 267
f 267 266 254
f 267 254 268
f 268 254 269
f 269 254 270
f 270 254 271
f 271 254 272
f 272 254 226
f 226 254 230
f 230 254 273
f 273 254 255
f 274 275 276
f 277 278 279
f 278 277 280
f 280 277 281
f 281 277 282
f 278 283 284
f 283 278 280
f 241 265 262
f 265 241 285
f 265 285 286
f 285 241 240
f 286 285 275
f 286 275 287
f 287 275 288
f 288 275 284
f 284 275 274
f 288 284 283
f 170 289 168
f 289 170 290
f 177 289 291
f 289 177 168
f 292 177 291
f 177 292 208
f 208 292 293
f 208 293 294
f 170 295 290
f 295 170 294
f 294 170 208
f 296 297 298
f 297 296 299
f 299 296 300
f 300 296 301
f 301 296 302
f 302 296 303
f 303 296 304
f 303 304 305
f 305 304 306
f 306 304 307
f 307 304 308
f 308 304 309
f 309 304 310
f 310 304 311
f 311 304 312
f 311 312 313
f 312 304 314
f 314 304 315
f 315 304 316
f 316 304 317
f 317 304 318
f 318 304 319
f 319 304 320
f 320 304 321
f 321 304 322
f 322 304 323
f 323 304 324
f 298 325 326
f 325 298 327
f 327 298 328
f 328 298 329
f 329 298 330
f 330 298 297
f 329 330 331
f 329 331 332
f 329 332 333
f 329 333 334
f 329 334 335
f 329 335 336
f 329 336 337
f 329 337 338
f 329 338 339
f 329 339 340
f 329 340 311
f 329 311 313
f 326 325 341
f 326 341 342
f 326 342 343
f 326 343 344
f 326 344 345
f 326 345 346
f 326 346 347
f 326 347 324
f 326 324 304
f 298 348 296
f 348 298 349
f 304 348 350
f 348 304 296
f 351 304 350
f 304 351 326
f 298 351 349
f 351 298 326
f 352 145 150
f 145 352 353
f 145 353 354
f 145 354 355
f 145 355 146
f 356 150 149
f 150 356 352
f 352 356 357
f 352 357 353
f 353 357 358
f 353 358 354
f 354 358 359
f 354 359 355
f 355 359 360
f 355 360 146
f 146 360 147
f 147 360 361
f 147 361 148
f 148 361 362
f 362 361 363
f 362 363 364
f 364 363 365
f 364 365 366
f 366 365 367
f 366 367 368
f 368 367 369
f 368 369 370
f 370 369 371
f 372 166 165
f 166 372 373
f 373 372 374
f 373 374 375
f 375 374 376
f 375 376 377
f 377 376 378
f 377 378 379
f 379 378 160
f 379 160 380
f 380 160 381
f 380 381 382
f 382 381 383
f 382 383 384
f 384 383 385
f 384 385 386
f 386 385 387
f 386 387 388
f 388 387 389
f 388 389 390
f 390 389 391
f 392 393 394
f 393 392 395
f 393 395 396
f 396 395 397
f 396 397 398
f 398 397 399
f 398 399 400
f 400 399 401
f 400 401 402
f 402 401 403
f 402 403 404
f 404 403 405
f 404 405 406
f 406 405 407
f 406 407 408
f 408 407 409
f 408 409 410
f 410 409 161
f 410 161 411
f 411 161 162
f 412 153 167
f 153 412 151
f 151 412 413
f 151 413 154
f 154 413 414
f 154 414 155
f 155 414 415
f 155 415 156
f 156 415 164
f 164 415 416
f 164 416 417
f 164 417 418
f 164 418 419
f 419 418 420
f 419 420 421
f 421 420 422
f 421 422 423
f 423 422 424
f 423 424 425
f 425 424 426
f 159 381 160
f 381 159 383
f 383 159 385
f 385 159 387
f 387 159 389
f 389 159 391
f 391 159 348
f 391 348 427
f 391 427 428
f 391 428 429
f 391 429 430
f 391 430 412
f 412 430 413
f 413 430 414
f 414 430 415
f 415 430 416
f 416 430 417
f 417 430 418
f 418 430 431
f 418 431 420
f 420 431 422
f 422 431 424
f 424 431 426
f 427 348 432
f 432 348 433
f 433 348 434
f 434 348 435
f 435 348 436
f 436 348 437
f 437 348 438
f 438 348 439
f 348 159 350
f 350 159 351
f 351 159 157
f 351 157 394
f 394 157 392
f 392 157 395
f 395 157 397
f 397 157 399
f 399 157 401
f 401 157 403
f 403 157 405
f 405 157 407
f 407 157 409
f 409 157 161
f 419 163 164
f 163 419 421
f 163 421 423
f 163 423 425
f 163 425 426
f 163 426 349
f 349 426 440
f 440 426 441
f 441 426 431
f 349 440 442
f 349 442 443
f 349 443 444
f 349 444 445
f 349 445 446
f 349 446 447
f 349 447 448
f 349 448 449
f 349 449 450
f 349 450 439
f 349 439 348
f 163 349 402
f 402 349 400
f 400 349 398
f 398 349 351
f 398 351 396
f 396 351 393
f 393 351 394
f 163 402 404
f 163 404 406
f 163 406 408
f 163 408 410
f 163 410 411
f 163 411 162
f 373 167 166
f 167 373 375
f 167 375 377
f 167 377 379
f 167 379 380
f 167 380 382
f 167 382 384
f 167 384 386
f 167 386 388
f 167 388 390
f 167 390 412
f 412 390 391
f 158 372 165
f 372 158 374
f 374 158 376
f 376 158 378
f 378 158 160
f 451 452 453
f 452 451 454
f 452 454 455
f 455 454 456
f 455 456 457
f 457 456 458
f 458 456 459
f 459 456 460
f 459 460 461
f 461 460 462
f 462 460 463
f 462 463 464
f 464 463 465
f 464 465 466
f 466 465 467
f 466 467 468
f 468 467 469
f 469 467 470
f 469 470 471
f 471 470 472
f 471 472 473
f 473 472 474
f 474 472 475
f 474 475 476
f 457 477 455
f 477 457 478
f 477 478 479
f 477 479 480
f 480 479 481
f 480 481 482
f 480 482 483
f 483 482 484
f 483 484 485
f 485 484 486
f 485 486 487
f 485 487 488
f 488 487 489
f 488 489 490
f 490 489 491
f 490 491 492
f 492 491 493
f 492 493 494
f 492 494 495
f 495 494 476
f 495 476 475
f 495 475 496
f 495 496 497
f 497 496 498
f 174 463 460
f 463 174 175
f 175 465 463
f 465 175 176
f 176 467 465
f 467 176 178
f 178 470 467
f 470 178 179
f 179 472 470
f 472 179 180
f 181 472 180
f 472 181 475
f 182 475 181
f 475 182 496
f 183 496 182
f 496 183 498
f 239 498 183
f 498 239 497
f 241 497 239
f 497 241 495
f 262 495 241
f 495 262 492
f 262 490 492
f 490 262 260
f 260 488 490
f 488 260 256
f 256 485 488
f 485 256 218
f 218 483 485
f 483 218 217
f 217 480 483
f 480 217 216
f 216 477 480
f 477 216 215
f 477 214 455
f 214 477 215
f 455 213 452
f 213 455 214
f 452 169 453
f 169 452 213
f 453 171 451
f 171 453 169
f 451 172 454
f 172 451 171
f 454 173 456
f 173 454 172
f 173 460 456
f 460 173 174
f 499 500 501
f 500 499 502
f 502 499 503
f 502 503 504
f 504 503 505
f 504 505 506
f 506 505 507
f 506 507 508
f 508 507 509
f 508 509 510
f 510 509 511
f 510 511 512
f 512 511 513
f 512 513 514
f 514 513 515
f 514 515 516
f 516 515 517
f 516 517 518
f 518 517 519
f 518 519 520
f 520 519 521
f 520 521 522
f 523 524 525
f 524 523 526
f 526 523 527
f 526 527 528
f 528 527 529
f 528 529 530
f 530 529 531
f 530 531 532
f 532 531 533
f 532 533 534
f 534 533 535
f 534 535 536
f 536 535 537
f 536 537 538
f 538 537 539
f 538 539 540
f 540 539 541
f 540 541 542
f 542 541 543
f 542 543 544
f 544 543 545
f 544 545 546
f 547 548 549
f 548 547 550
f 548 550 551
f 551 550 552
f 551 552 553
f 553 552 554
f 553 554 555
f 555 554 556
f 555 556 557
f 557 556 558
f 557 558 559
f 559 558 560
f 559 560 561
f 561 560 562
f 561 562 563
f 563 562 564
f 563 564 565
f 565 564 566
f 565 566 567
f 567 566 568
f 567 568 569
f 569 568 570
f 571 566 572
f 566 571 568
f 573 568 571
f 568 573 570
f 574 570 573
f 570 574 569
f 575 569 574
f 569 575 567
f 576 567 575
f 567 576 565
f 576 563 565
f 563 576 577
f 577 561 563
f 561 577 578
f 578 559 561
f 559 578 579
f 579 557 559
f 557 579 580
f 580 555 557
f 555 580 581
f 581 553 555
f 553 581 582
f 553 583 551
f 583 553 582
f 551 584 548
f 584 551 583
f 548 585 549
f 585 548 584
f 549 586 547
f 586 549 585
f 547 587 550
f 587 547 586
f 550 588 552
f 588 550 587
f 588 554 552
f 554 588 589
f 589 556 554
f 556 589 590
f 590 558 556
f 558 590 591
f 591 560 558
f 560 591 592
f 592 562 560
f 562 592 593
f 593 564 562
f 564 593 594
f 572 564 594
f 564 572 566
f 140 595 596
f 595 140 597
f 597 140 598
f 598 140 599
f 599 140 600
f 600 140 601
f 601 140 141
f 601 141 602
f 602 141 603
f 603 141 604
f 604 141 605
f 605 141 606
f 606 141 607
f 607 141 289
f 607 289 589
f 607 589 588
f 607 588 587
f 607 587 586
f 607 586 358
f 358 586 359
f 359 586 360
f 360 586 361
f 361 586 363
f 363 586 365
f 365 586 367
f 367 586 369
f 369 586 371
f 371 586 585
f 589 289 590
f 590 289 591
f 591 289 592
f 592 289 593
f 593 289 594
f 594 289 572
f 572 289 571
f 571 289 573
f 289 141 291
f 291 141 292
f 292 141 139
f 292 139 294
f 362 144 148
f 144 362 364
f 144 364 366
f 144 366 368
f 144 368 370
f 144 370 371
f 144 371 290
f 290 371 583
f 583 371 584
f 584 371 585
f 290 583 582
f 290 582 581
f 290 581 580
f 290 580 579
f 290 579 578
f 290 578 577
f 290 577 576
f 290 576 575
f 290 575 574
f 290 574 573
f 290 573 289
f 144 290 295
f 144 295 294
f 144 294 142
f 142 294 139
f 144 142 143
f 294 293 292
f 596 149 140
f 149 596 608
f 149 608 609
f 149 609 610
f 149 610 611
f 149 611 612
f 149 612 613
f 149 613 614
f 149 614 615
f 149 615 616
f 149 616 356
f 356 616 357
f 357 616 617
f 357 617 358
f 358 617 618
f 358 618 607
f 444 619 620
f 619 444 443
f 621 428 622
f 428 621 429
f 623 431 624
f 431 623 441
f 435 625 626
f 625 435 436
f 437 625 436
f 625 437 627
f 448 628 449
f 628 448 629
f 630 429 621
f 429 630 430
f 439 631 438
f 631 439 632
f 447 633 634
f 633 447 446
f 630 623 624
f 623 630 621
f 623 621 635
f 635 621 622
f 635 622 636
f 636 622 637
f 636 637 619
f 619 637 638
f 619 638 620
f 620 638 639
f 620 639 640
f 640 639 641
f 640 641 633
f 633 641 626
f 633 626 634
f 634 626 625
f 634 625 629
f 629 625 627
f 629 627 628
f 628 627 631
f 628 631 642
f 642 631 632
f 450 632 439
f 632 450 642
f 635 441 623
f 441 635 440
f 624 430 630
f 430 624 431
f 443 636 619
f 636 443 442
f 636 440 635
f 440 636 442
f 432 639 638
f 639 432 433
f 438 627 437
f 627 438 631
f 446 640 633
f 640 446 445
f 448 634 629
f 634 448 447
f 427 638 637
f 638 427 432
f 449 642 450
f 642 449 628
f 445 620 640
f 620 445 444
f 428 637 622
f 637 428 427
f 433 641 639
f 641 433 434
f 434 626 641
f 626 434 435
f 206 643 205
f 643 206 644
f 645 273 646
f 273 645 230
f 198 647 648
f 647 198 199
f 205 649 204
f 649 205 643
f 233 650 651
f 650 233 232
f 202 652 653
f 652 202 203
f 236 654 237
f 654 236 655
f 236 656 655
f 656 236 235
f 234 651 657
f 651 234 233
f 200 658 659
f 658 200 201
f 646 255 660
f 255 646 273
f 235 657 656
f 657 235 234
f 237 661 238
f 661 237 654
f 660 197 662
f 197 660 255
f 663 230 645
f 230 663 229
f 646 663 645
f 663 646 660
f 663 660 664
f 664 660 662
f 664 662 665
f 665 662 666
f 666 662 667
f 667 662 648
f 667 648 668
f 668 648 669
f 669 648 647
f 669 647 670
f 670 647 659
f 670 659 671
f 671 659 658
f 671 658 672
f 672 658 673
f 673 658 653
f 673 653 674
f 674 653 652
f 674 652 675
f 675 652 676
f 676 652 649
f 676 649 677
f 665 678 664
f 678 665 679
f 678 679 680
f 678 680 681
f 681 680 682
f 681 682 683
f 681 683 650
f 650 683 684
f 650 684 651
f 651 684 685
f 651 685 686
f 651 686 657
f 657 686 687
f 657 687 656
f 656 687 688
f 656 688 655
f 655 688 689
f 655 689 690
f 655 690 654
f 654 690 677
f 654 677 649
f 654 649 643
f 654 643 661
f 661 643 644
f 232 681 650
f 681 232 231
f 204 652 203
f 652 204 649
f 678 228 664
f 228 678 227
f 197 648 662
f 648 197 198
f 664 229 663
f 229 664 228
f 199 659 647
f 659 199 200
f 231 678 681
f 678 231 227
f 201 653 658
f 653 201 202
f 238 644 206
f 644 238 661
f 691 692 693
f 694 695 696
f 695 694 697
f 695 697 698
f 698 697 699
f 698 699 700
f 699 697 701
f 701 697 702
f 703 704 705
f 704 703 706
f 706 703 707
f 706 707 708
f 708 707 692
f 708 692 709
f 709 692 691
f 708 709 702
f 708 702 697
f 710 700 699
f 711 696 695
f 704 265 705
f 265 704 264
f 703 265 286
f 265 703 705
f 287 703 286
f 703 287 707
f 692 287 288
f 287 692 707
f 692 283 693
f 283 692 288
f 691 283 280
f 283 691 693
f 281 691 280
f 691 281 709
f 702 281 282
f 281 702 709
f 701 712 277
f 712 701 702
f 712 702 713
f 713 702 714
f 277 715 282
f 715 277 712
f 282 715 714
f 282 714 702
f 699 277 279
f 277 699 701
f 278 699 279
f 699 278 710
f 700 278 284
f 278 700 710
f 700 274 698
f 274 700 284
f 695 274 276
f 274 695 698
f 275 695 276
f 695 275 711
f 696 275 285
f 275 696 711
f 696 240 694
f 240 696 285
f 697 240 242
f 240 697 694
f 242 716 697
f 716 242 254
f 716 254 717
f 717 254 718
f 697 719 708
f 719 697 716
f 708 719 718
f 708 718 254
f 706 254 266
f 254 706 708
f 704 266 264
f 266 704 706
f 718 712 713
f 712 718 719
f 716 714 715
f 714 716 717
f 712 716 715
f 716 712 719
f 718 714 717
f 714 718 713
f 720 721 722
f 721 720 723
f 724 725 726
f 725 724 727
f 728 344 345
f 344 728 729
f 329 730 313
f 730 329 731
f 732 733 734
f 733 732 735
f 733 735 736
f 736 735 737
f 734 738 739
f 738 734 733
f 739 738 737
f 739 737 735
f 740 733 736
f 733 740 741
f 742 737 738
f 737 742 743
f 744 745 746
f 745 744 747
f 748 749 750
f 749 748 751
f 752 341 342
f 341 752 753
f 724 754 755
f 754 724 726
f 756 757 758
f 757 756 759
f 760 761 762
f 761 760 763
f 764 745 765
f 745 764 746
f 766 320 319
f 320 766 767
f 765 742 764
f 742 765 768
f 742 768 743
f 743 768 740
f 764 741 769
f 741 764 742
f 769 741 740
f 769 740 768
f 767 321 320
f 321 767 770
f 771 316 315
f 316 771 772
f 728 346 773
f 346 728 345
f 774 724 755
f 746 749 744
f 749 746 764
f 749 764 775
f 775 764 776
f 775 776 760
f 776 764 732
f 732 764 735
f 756 720 759
f 720 756 723
f 723 756 727
f 723 727 769
f 769 727 724
f 769 724 777
f 777 724 774
f 769 777 735
f 769 735 764
f 763 760 776
f 751 744 749
f 312 778 314
f 778 312 779
f 328 731 329
f 731 328 780
f 781 318 317
f 318 781 782
f 327 780 328
f 780 327 783
f 784 323 785
f 323 784 324
f 312 329 313
f 329 312 314
f 329 314 328
f 328 314 315
f 328 315 786
f 786 315 787
f 787 315 788
f 788 315 316
f 788 316 789
f 789 316 790
f 790 316 317
f 790 317 791
f 791 317 318
f 791 318 792
f 792 318 319
f 792 319 793
f 793 319 794
f 794 319 320
f 794 320 795
f 795 320 321
f 795 321 796
f 796 321 797
f 797 321 322
f 797 322 798
f 786 327 328
f 327 786 799
f 327 799 800
f 327 800 325
f 325 800 801
f 325 801 802
f 325 802 341
f 341 802 803
f 341 803 342
f 342 803 804
f 342 804 805
f 342 805 343
f 343 805 806
f 343 806 344
f 344 806 807
f 344 807 345
f 345 807 808
f 345 808 809
f 345 809 346
f 346 809 798
f 346 798 322
f 346 322 323
f 346 323 347
f 347 323 324
f 810 324 784
f 324 810 347
f 811 321 770
f 321 811 322
f 313 779 312
f 779 313 730
f 749 812 750
f 812 749 775
f 299 330 297
f 330 299 300
f 330 300 331
f 331 300 301
f 331 301 813
f 813 301 814
f 814 301 815
f 815 301 302
f 815 302 816
f 816 302 817
f 817 302 303
f 817 303 818
f 818 303 305
f 818 305 819
f 819 305 306
f 819 306 820
f 820 306 821
f 821 306 307
f 821 307 822
f 822 307 308
f 822 308 823
f 823 308 824
f 824 308 309
f 824 309 825
f 813 332 331
f 332 813 826
f 332 826 827
f 332 827 333
f 333 827 828
f 333 828 829
f 333 829 334
f 334 829 830
f 334 830 335
f 335 830 831
f 335 831 832
f 335 832 336
f 336 832 833
f 336 833 337
f 337 833 834
f 337 834 338
f 338 834 835
f 338 835 836
f 338 836 339
f 339 836 825
f 339 825 309
f 339 309 310
f 339 310 340
f 340 310 311
f 782 319 318
f 319 782 766
f 720 757 759
f 757 720 722
f 776 734 837
f 734 776 732
f 314 771 315
f 771 314 778
f 773 347 810
f 347 773 346
f 740 737 743
f 737 740 736
f 760 812 775
f 812 760 762
f 735 838 739
f 838 735 777
f 772 317 316
f 317 772 781
f 774 754 839
f 754 774 755
f 785 322 811
f 322 785 323
f 723 768 721
f 768 723 769
f 840 342 343
f 342 840 752
f 838 774 839
f 774 838 777
f 725 756 758
f 756 725 727
f 753 325 341
f 325 753 841
f 841 327 325
f 327 841 783
f 733 742 738
f 742 733 741
f 761 776 837
f 776 761 763
f 729 343 344
f 343 729 840
f 744 748 747
f 748 744 751
f 842 843 844
f 843 842 845
f 843 846 844
f 846 843 847
f 847 848 846
f 848 847 849
f 849 850 848
f 850 849 851
f 851 852 850
f 852 851 853
f 853 854 852
f 854 853 855
f 855 856 854
f 856 855 857
f 857 858 856
f 858 857 859
f 860 858 859
f 858 860 861
f 860 862 861
f 862 860 863
f 863 864 862
f 864 863 865
f 865 866 864
f 866 865 867
f 867 868 866
f 868 867 869
f 868 870 871
f 870 868 869
f 871 872 873
f 872 871 870
f 873 874 875
f 874 873 872
f 875 876 877
f 876 875 874
f 877 878 879
f 878 877 876
f 879 880 881
f 880 879 878
f 881 882 883
f 882 881 880
f 883 884 885
f 884 883 882
f 885 886 887
f 886 885 884
f 887 888 889
f 888 887 886
f 889 845 842
f 845 889 888
f 890 891 892
f 891 890 893
f 894 892 895
f 892 894 890
f 896 895 897
f 895 896 894
f 898 896 897
f 896 898 899
f 900 899 898
f 899 900 901
f 902 901 900
f 901 902 903
f 904 903 902
f 903 904 905
f 906 905 904
f 905 906 907
f 908 907 906
f 907 908 909
f 910 909 908
f 909 910 911
f 912 911 910
f 911 912 913
f 914 913 912
f 913 914 915
f 916 915 914
f 915 916 917
f 918 917 916
f 917 918 919
f 920 919 918
f 919 920 921
f 921 922 923
f 922 921 920
f 923 924 925
f 924 923 922
f 925 926 927
f 926 925 924
f 927 928 929
f 928 927 926
f 929 930 931
f 930 929 928
f 931 932 933
f 932 931 930
f 934 932 935
f 932 934 933
f 936 935 937
f 935 936 934
f 893 937 891
f 937 893 936
f 938 939 940
f 939 938 941
f 942 941 938
f 941 942 943
f 944 943 942
f 943 944 945
f 946 945 944
f 945 946 947
f 948 947 946
f 947 948 949
f 950 949 948
f 949 950 951
f 952 951 950
f 951 952 953
f 954 953 952
f 953 954 955
f 956 955 954
f 955 956 957
f 958 957 956
f 957 958 959
f 959 960 961
f 960 959 958
f 961 962 963
f 962 961 960
f 963 964 965
f 964 963 962
f 965 966 967
f 966 965 964
f 967 968 969
f 968 967 966
f 969 970 971
f 970 969 968
f 972 970 973
f 970 972 971
f 974 973 975
f 973 974 972
f 976 975 977
f 975 976 974
f 978 977 979
f 977 978 976
f 980 979 981
f 979 980 978
f 982 981 983
f 981 982 980
f 984 982 983
f 982 984 985
f 940 985 984
f 985 940 939
f 3 2 1
f 4 1 2
f 7 6 5
f 8 5 6
f 9 5 8
f 10 9 8
f 11 10 8
f 12 10 11
f 13 12 11
f 14 12 13
f 7 15 6
f 16 6 15
f 17 16 15
f 12 17 15
f 14 17 12
f 6 16 18
f 13 18 16
f 11 18 13
f 21 20 19
f 22 19 20
f 23 19 22
f 24 23 22
f 25 23 24
f 26 25 24
f 27 25 26
f 28 27 26
f 29 27 28
f 30 29 28
f 31 29 30
f 32 31 30
f 33 31 32
f 34 33 32
f 35 33 34
f 36 35 34
f 37 35 36
f 38 37 36
f 39 37 38
f 40 39 38
f 41 39 40
f 42 41 40
f 45 44 43
f 46 43 44
f 47 43 46
f 48 47 46
f 49 47 48
f 50 49 48
f 51 49 50
f 52 51 50
f 53 51 52
f 54 53 52
f 55 53 54
f 56 55 54
f 57 55 56
f 58 57 56
f 59 57 58
f 60 59 58
f 61 59 60
f 62 61 60
f 63 61 62
f 64 63 62
f 65 63 64
f 66 65 64
f 69 68 67
f 70 67 68
f 71 67 70
f 72 71 70
f 73 71 72
f 74 73 72
f 75 73 74
f 76 75 74
f 77 75 76
f 78 77 76
f 79 77 78
f 80 79 78
f 81 79 80
f 82 81 80
f 83 81 82
f 84 83 82
f 85 83 84
f 86 85 84
f 87 85 86
f 88 87 86
f 89 87 88
f 90 89 88
f 93 92 91
f 94 91 92
f 95 91 94
f 96 95 94
f 97 95 96
f 98 97 96
f 99 97 98
f 100 99 98
f 101 99 100
f 102 101 100
f 103 101 102
f 104 103 102
f 105 103 104
f 106 105 104
f 107 105 106
f 108 107 106
f 109 107 108
f 110 109 108
f 111 109 110
f 112 111 110
f 113 111 112
f 114 113 112
f 117 116 115
f 118 115 116
f 119 115 118
f 120 119 118
f 121 119 120
f 122 121 120
f 123 121 122
f 124 123 122
f 125 123 124
f 126 125 124
f 127 125 126
f 128 127 126
f 129 127 128
f 130 129 128
f 131 129 130
f 132 131 130
f 133 131 132
f 134 133 132
f 135 133 134
f 136 135 134
f 137 135 136
f 138 137 136
f 8 6 139
f 140 139 6
f 141 139 140
f 139 142 8
f 11 8 142
f 143 11 142
f 144 11 143
f 18 11 145
f 144 145 11
f 146 145 144
f 147 146 144
f 148 147 144
f 140 6 149
f 18 149 6
f 150 149 18
f 145 150 18
f 153 152 151
f 154 151 152
f 155 154 152
f 156 155 152
f 13 16 157
f 158 157 16
f 159 157 158
f 160 159 158
f 13 157 14
f 161 14 157
f 162 14 161
f 163 14 162
f 17 14 152
f 163 152 14
f 156 152 163
f 164 156 163
f 158 16 165
f 17 165 16
f 166 165 17
f 167 166 17
f 153 167 17
f 152 153 17
f 170 169 168
f 171 168 169
f 172 168 171
f 173 168 172
f 174 168 173
f 175 168 174
f 176 168 175
f 177 168 176
f 178 177 176
f 179 177 178
f 180 177 179
f 181 177 180
f 182 177 181
f 183 177 182
f 184 177 183
f 185 184 183
f 186 185 183
f 187 186 183
f 188 187 183
f 189 188 183
f 190 177 184
f 191 177 190
f 192 177 191
f 193 177 192
f 194 177 193
f 195 177 194
f 196 177 195
f 197 177 196
f 198 177 197
f 199 177 198
f 200 177 199
f 201 177 200
f 202 177 201
f 203 177 202
f 204 177 203
f 205 177 204
f 206 177 205
f 208 207 170
f 209 170 207
f 210 170 209
f 211 170 210
f 212 170 211
f 169 170 212
f 213 169 212
f 214 213 212
f 215 214 212
f 216 215 212
f 217 216 212
f 218 217 212
f 219 207 208
f 220 219 208
f 221 220 208
f 222 221 208
f 223 222 208
f 224 223 208
f 225 224 208
f 226 225 208
f 227 226 208
f 228 226 227
f 229 226 228
f 230 226 229
f 231 227 208
f 232 231 208
f 233 232 208
f 234 233 208
f 235 234 208
f 236 235 208
f 237 236 208
f 238 237 208
f 206 238 208
f 177 206 208
f 241 240 239
f 242 239 240
f 183 239 242
f 243 183 242
f 189 183 243
f 244 243 242
f 245 244 242
f 246 245 242
f 247 246 242
f 248 247 242
f 249 248 242
f 250 249 242
f 251 250 242
f 252 251 242
f 253 252 242
f 254 253 242
f 255 253 254
f 197 253 255
f 196 253 197
f 218 212 256
f 257 256 212
f 258 256 257
f 259 256 258
f 260 256 259
f 261 260 259
f 262 260 261
f 263 262 261
f 264 262 263
f 265 262 264
f 266 264 263
f 267 266 263
f 254 266 267
f 268 254 267
f 269 254 268
f 270 254 269
f 271 254 270
f 272 254 271
f 226 254 272
f 230 254 226
f 273 254 230
f 255 254 273
f 276 275 274
f 279 278 277
f 280 277 278
f 281 277 280
f 282 277 281
f 284 283 278
f 280 278 283
f 262 265 241
f 285 241 265
f 286 285 265
f 240 241 285
f 275 285 286
f 287 275 286
f 288 275 287
f 284 275 288
f 274 275 284
f 283 284 288
f 168 289 170
f 290 170 289
f 291 289 177
f 168 177 289
f 291 177 292
f 208 292 177
f 293 292 208
f 294 293 208
f 290 295 170
f 294 170 295
f 208 170 294
f 298 297 296
f 299 296 297
f 300 296 299
f 301 296 300
f 302 296 301
f 303 296 302
f 304 296 303
f 305 304 303
f 306 304 305
f 307 304 306
f 308 304 307
f 309 304 308
f 310 304 309
f 311 304 310
f 312 304 311
f 313 312 311
f 314 304 312
f 315 304 314
f 316 304 315
f 317 304 316
f 318 304 317
f 319 304 318
f 320 304 319
f 321 304 320
f 322 304 321
f 323 304 322
f 324 304 323
f 326 325 298
f 327 298 325
f 328 298 327
f 329 298 328
f 330 298 329
f 297 298 330
f 331 330 329
f 332 331 329
f 333 332 329
f 334 333 329
f 335 334 329
f 336 335 329
f 337 336 329
f 338 337 329
f 339 338 329
f 340 339 329
f 311 340 329
f 313 311 329
f 341 325 326
f 342 341 326
f 343 342 326
f 344 343 326
f 345 344 326
f 346 345 326
f 347 346 326
f 324 347 326
f 304 324 326
f 296 348 298
f 349 298 348
f 350 348 304
f 296 304 348
f 350 304 351
f 326 351 304
f 349 351 298
f 326 298 351
f 150 145 352
f 353 352 145
f 354 353 145
f 355 354 145
f 146 355 145
f 149 150 356
f 352 356 150
f 357 356 352
f 353 357 352
f 358 357 353
f 354 358 353
f 359 358 354
f 355 359 354
f 360 359 355
f 146 360 355
f 147 360 146
f 361 360 147
f 148 361 147
f 362 361 148
f 363 361 362
f 364 363 362
f 365 363 364
f 366 365 364
f 367 365 366
f 368 367 366
f 369 367 368
f 370 369 368
f 371 369 370
f 165 166 372
f 373 372 166
f 374 372 373
f 375 374 373
f 376 374 375
f 377 376 375
f 378 376 377
f 379 378 377
f 160 378 379
f 380 160 379
f 381 160 380
f 382 381 380
f 383 381 382
f 384 383 382
f 385 383 384
f 386 385 384
f 387 385 386
f 388 387 386
f 389 387 388
f 390 389 388
f 391 389 390
f 394 393 392
f 395 392 393
f 396 395 393
f 397 395 396
f 398 397 396
f 399 397 398
f 400 399 398
f 401 399 400
f 402 401 400
f 403 401 402
f 404 403 402
f 405 403 404
f 406 405 404
f 407 405 406
f 408 407 406
f 409 407 408
f 410 409 408
f 161 409 410
f 411 161 410
f 162 161 411
f 167 153 412
f 151 412 153
f 413 412 151
f 154 413 151
f 414 413 154
f 155 414 154
f 415 414 155
f 156 415 155
f 164 415 156
f 416 415 164
f 417 416 164
f 418 417 164
f 419 418 164
f 420 418 419
f 421 420 419
f 422 420 421
f 423 422 421
f 424 422 423
f 425 424 423
f 426 424 425
f 160 381 159
f 383 159 381
f 385 159 383
f 387 159 385
f 389 159 387
f 391 159 389
f 348 159 391
f 427 348 391
f 428 427 391
f 429 428 391
f 430 429 391
f 412 430 391
f 413 430 412
f 414 430 413
f 415 430 414
f 416 430 415
f 417 430 416
f 418 430 417
f 431 430 418
f 420 431 418
f 422 431 420
f 424 431 422
f 426 431 424
f 432 348 427
f 433 348 432
f 434 348 433
f 435 348 434
f 436 348 435
f 437 348 436
f 438 348 437
f 439 348 438
f 350 159 348
f 351 159 350
f 157 159 351
f 394 157 351
f 392 157 394
f 395 157 392
f 397 157 395
f 399 157 397
f 401 157 399
f 403 157 401
f 405 157 403
f 407 157 405
f 409 157 407
f 161 157 409
f 164 163 419
f 421 419 163
f 423 421 163
f 425 423 163
f 426 425 163
f 349 426 163
f 440 426 349
f 441 426 440
f 431 426 441
f 442 440 349
f 443 442 349
f 444 443 349
f 445 444 349
f 446 445 349
f 447 446 349
f 448 447 349
f 449 448 349
f 450 449 349
f 439 450 349
f 348 439 349
f 402 349 163
f 400 349 402
f 398 349 400
f 351 349 398
f 396 351 398
f 393 351 396
f 394 351 393
f 404 402 163
f 406 404 163
f 408 406 163
f 410 408 163
f 411 410 163
f 162 411 163
f 166 167 373
f 375 373 167
f 377 375 167
f 379 377 167
f 380 379 167
f 382 380 167
f 384 382 167
f 386 384 167
f 388 386 167
f 390 388 167
f 412 390 167
f 391 390 412
f 165 372 158
f 374 158 372
f 376 158 374
f 378 158 376
f 160 158 378
f 453 452 451
f 454 451 452
f 455 454 452
f 456 454 455
f 457 456 455
f 458 456 457
f 459 456 458
f 460 456 459
f 461 460 459
f 462 460 461
f 463 460 462
f 464 463 462
f 465 463 464
f 466 465 464
f 467 465 466
f 468 467 466
f 469 467 468
f 470 467 469
f 471 470 469
f 472 470 471
f 473 472 471
f 474 472 473
f 475 472 474
f 476 475 474
f 455 477 457
f 478 457 477
f 479 478 477
f 480 479 477
f 481 479 480
f 482 481 480
f 483 482 480
f 484 482 483
f 485 484 483
f 486 484 485
f 487 486 485
f 488 487 485
f 489 487 488
f 490 489 488
f 491 489 490
f 492 491 490
f 493 491 492
f 494 493 492
f 495 494 492
f 476 494 495
f 475 476 495
f 496 475 495
f 497 496 495
f 498 496 497
f 460 463 174
f 175 174 463
f 463 465 175
f 176 175 465
f 465 467 176
f 178 176 467
f 467 470 178
f 179 178 470
f 470 472 179
f 180 179 472
f 180 472 181
f 475 181 472
f 181 475 182
f 496 182 475
f 182 496 183
f 498 183 496
f 183 498 239
f 497 239 498
f 239 497 241
f 495 241 497
f 241 495 262
f 492 262 495
f 492 490 262
f 260 262 490
f 490 488 260
f 256 260 488
f 488 485 256
f 218 256 485
f 485 483 218
f 217 218 483
f 483 480 217
f 216 217 480
f 480 477 216
f 215 216 477
f 455 214 477
f 215 477 214
f 452 213 455
f 214 455 213
f 453 169 452
f 213 452 169
f 451 171 453
f 169 453 171
f 454 172 451
f 171 451 172
f 456 173 454
f 172 454 173
f 456 460 173
f 174 173 460
f 501 500 499
f 502 499 500
f 503 499 502
f 504 503 502
f 505 503 504
f 506 505 504
f 507 505 506
f 508 507 506
f 509 507 508
f 510 509 508
f 511 509 510
f 512 511 510
f 513 511 512
f 514 513 512
f 515 513 514
f 516 515 514
f 517 515 516
f 518 517 516
f 519 517 518
f 520 519 518
f 521 519 520
f 522 521 520
f 525 524 523
f 526 523 524
f 527 523 526
f 528 527 526
f 529 527 528
f 530 529 528
f 531 529 530
f 532 531 530
f 533 531 532
f 534 533 532
f 535 533 534
f 536 535 534
f 537 535 536
f 538 537 536
f 539 537 538
f 540 539 538
f 541 539 540
f 542 541 540
f 543 541 542
f 544 543 542
f 545 543 544
f 546 545 544
f 549 548 547
f 550 547 548
f 551 550 548
f 552 550 551
f 553 552 551
f 554 552 553
f 555 554 553
f 556 554 555
f 557 556 555
f 558 556 557
f 559 558 557
f 560 558 559
f 561 560 559
f 562 560 561
f 563 562 561
f 564 562 563
f 565 564 563
f 566 564 565
f 567 566 565
f 568 566 567
f 569 568 567
f 570 568 569
f 572 566 571
f 568 571 566
f 571 568 573
f 570 573 568
f 573 570 574
f 569 574 570
f 574 569 575
f 567 575 569
f 575 567 576
f 565 576 567
f 565 563 576
f 577 576 563
f 563 561 577
f 578 577 561
f 561 559 578
f 579 578 559
f 559 557 579
f 580 579 557
f 557 555 580
f 581 580 555
f 555 553 581
f 582 581 553
f 551 583 553
f 582 553 583
f 548 584 551
f 583 551 584
f 549 585 548
f 584 548 585
f 547 586 549
f 585 549 586
f 550 587 547
f 586 547 587
f 552 588 550
f 587 550 588
f 552 554 588
f 589 588 554
f 554 556 589
f 590 589 556
f 556 558 590
f 591 590 558
f 558 560 591
f 592 591 560
f 560 562 592
f 593 592 562
f 562 564 593
f 594 593 564
f 594 564 572
f 566 572 564
f 596 595 140
f 597 140 595
f 598 140 597
f 599 140 598
f 600 140 599
f 601 140 600
f 141 140 601
f 602 141 601
f 603 141 602
f 604 141 603
f 605 141 604
f 606 141 605
f 607 141 606
f 289 141 607
f 589 289 607
f 588 589 607
f 587 588 607
f 586 587 607
f 358 586 607
f 359 586 358
f 360 586 359
f 361 586 360
f 363 586 361
f 365 586 363
f 367 586 365
f 369 586 367
f 371 586 369
f 585 586 371
f 590 289 589
f 591 289 590
f 592 289 591
f 593 289 592
f 594 289 593
f 572 289 594
f 571 289 572
f 573 289 571
f 291 141 289
f 292 141 291
f 139 141 292
f 294 139 292
f 148 144 362
f 364 362 144
f 366 364 144
f 368 366 144
f 370 368 144
f 371 370 144
f 290 371 144
f 583 371 290
f 584 371 583
f 585 371 584
f 582 583 290
f 581 582 290
f 580 581 290
f 579 580 290
f 578 579 290
f 577 578 290
f 576 577 290
f 575 576 290
f 574 575 290
f 573 574 290
f 289 573 290
f 295 290 144
f 294 295 144
f 142 294 144
f 139 294 142
f 143 142 144
f 292 293 294
f 140 149 596
f 608 596 149
f 609 608 149
f 610 609 149
f 611 610 149
f 612 611 149
f 613 612 149
f 614 613 149
f 615 614 149
f 616 615 149
f 356 616 149
f 357 616 356
f 617 616 357
f 358 617 357
f 618 617 358
f 607 618 358
f 620 619 444
f 443 444 619
f 622 428 621
f 429 621 428
f 624 431 623
f 441 623 431
f 626 625 435
f 436 435 625
f 436 625 437
f 627 437 625
f 449 628 448
f 629 448 628
f 621 429 630
f 430 630 429
f 438 631 439
f 632 439 631
f 634 633 447
f 446 447 633
f 624 623 630
f 621 630 623
f 635 621 623
f 622 621 635
f 636 622 635
f 637 622 636
f 619 637 636
f 638 637 619
f 620 638 619
f 639 638 620
f 640 639 620
f 641 639 640
f 633 641 640
f 626 641 633
f 634 626 633
f 625 626 634
f 629 625 634
f 627 625 629
f 628 627 629
f 631 627 628
f 642 631 628
f 632 631 642
f 439 632 450
f 642 450 632
f 623 441 635
f 440 635 441
f 630 430 624
f 431 624 430
f 619 636 443
f 442 443 636
f 635 440 636
f 442 636 440
f 638 639 432
f 433 432 639
f 437 627 438
f 631 438 627
f 633 640 446
f 445 446 640
f 629 634 448
f 447 448 634
f 637 638 427
f 432 427 638
f 450 642 449
f 628 449 642
f 640 620 445
f 444 445 620
f 622 637 428
f 427 428 637
f 639 641 433
f 434 433 641
f 641 626 434
f 435 434 626
f 205 643 206
f 644 206 643
f 646 273 645
f 230 645 273
f 648 647 198
f 199 198 647
f 204 649 205
f 643 205 649
f 651 650 233
f 232 233 650
f 653 652 202
f 203 202 652
f 237 654 236
f 655 236 654
f 655 656 236
f 235 236 656
f 657 651 234
f 233 234 651
f 659 658 200
f 201 200 658
f 660 255 646
f 273 646 255
f 656 657 235
f 234 235 657
f 238 661 237
f 654 237 661
f 662 197 660
f 255 660 197
f 645 230 663
f 229 663 230
f 645 663 646
f 660 646 663
f 664 660 663
f 662 660 664
f 665 662 664
f 666 662 665
f 667 662 666
f 648 662 667
f 668 648 667
f 669 648 668
f 647 648 669
f 670 647 669
f 659 647 670
f 671 659 670
f 658 659 671
f 672 658 671
f 673 658 672
f 653 658 673
f 674 653 673
f 652 653 674
f 675 652 674
f 676 652 675
f 649 652 676
f 677 649 676
f 664 678 665
f 679 665 678
f 680 679 678
f 681 680 678
f 682 680 681
f 683 682 681
f 650 683 681
f 684 683 650
f 651 684 650
f 685 684 651
f 686 685 651
f 657 686 651
f 687 686 657
f 656 687 657
f 688 687 656
f 655 688 656
f 689 688 655
f 690 689 655
f 654 690 655
f 677 690 654
f 649 677 654
f 643 649 654
f 661 643 654
f 644 643 661
f 650 681 232
f 231 232 681
f 203 652 204
f 649 204 652
f 664 228 678
f 227 678 228
f 662 648 197
f 198 197 648
f 663 229 664
f 228 664 229
f 647 659 199
f 200 199 659
f 681 678 231
f 227 231 678
f 658 653 201
f 202 201 653
f 206 644 238
f 661 238 644
f 693 692 691
f 696 695 694
f 697 694 695
f 698 697 695
f 699 697 698
f 700 699 698
f 701 697 699
f 702 697 701
f 705 704 703
f 706 703 704
f 707 703 706
f 708 707 706
f 692 707 708
f 709 692 708
f 691 692 709
f 702 709 708
f 697 702 708
f 699 700 710
f 695 696 711
f 705 265 704
f 264 704 265
f 286 265 703
f 705 703 265
f 286 703 287
f 707 287 703
f 288 287 692
f 707 692 287
f 693 283 692
f 288 692 283
f 280 283 691
f 693 691 283
f 280 691 281
f 709 281 691
f 282 281 702
f 709 702 281
f 277 712 701
f 702 701 712
f 713 702 712
f 714 702 713
f 282 715 277
f 712 277 715
f 714 715 282
f 702 714 282
f 279 277 699
f 701 699 277
f 279 699 278
f 710 278 699
f 284 278 700
f 710 700 278
f 698 274 700
f 284 700 274
f 276 274 695
f 698 695 274
f 276 695 275
f 711 275 695
f 285 275 696
f 711 696 275
f 694 240 696
f 285 696 240
f 242 240 697
f 694 697 240
f 697 716 242
f 254 242 716
f 717 254 716
f 718 254 717
f 708 719 697
f 716 697 719
f 718 719 708
f 254 718 708
f 266 254 706
f 708 706 254
f 264 266 704
f 706 704 266
f 713 712 718
f 719 718 712
f 715 714 716
f 717 716 714
f 715 716 712
f 719 712 716
f 717 714 718
f 713 718 714
f 722 721 720
f 723 720 721
f 726 725 724
f 727 724 725
f 345 344 728
f 729 728 344
f 313 730 329
f 731 329 730
f 734 733 732
f 735 732 733
f 736 735 733
f 737 735 736
f 739 738 734
f 733 734 738
f 737 738 739
f 735 737 739
f 736 733 740
f 741 740 733
f 738 737 742
f 743 742 737
f 746 745 744
f 747 744 745
f 750 749 748
f 751 748 749
f 342 341 752
f 753 752 341
f 755 754 724
f 726 724 754
f 758 757 756
f 759 756 757
f 762 761 760
f 763 760 761
f 765 745 764
f 746 764 745
f 319 320 766
f 767 766 320
f 764 742 765
f 768 765 742
f 743 768 742
f 740 768 743
f 769 741 764
f 742 764 741
f 740 741 769
f 768 740 769
f 320 321 767
f 770 767 321
f 315 316 771
f 772 771 316
f 773 346 728
f 345 728 346
f 755 724 774
f 744 749 746
f 764 746 749
f 775 764 749
f 776 764 775
f 760 776 775
f 732 764 776
f 735 764 732
f 759 720 756
f 723 756 720
f 727 756 723
f 769 727 723
f 724 727 769
f 777 724 769
f 774 724 777
f 735 777 769
f 764 735 769
f 776 760 763
f 749 744 751
f 314 778 312
f 779 312 778
f 329 731 328
f 780 328 731
f 317 318 781
f 782 781 318
f 328 780 327
f 783 327 780
f 785 323 784
f 324 784 323
f 313 329 312
f 314 312 329
f 328 314 329
f 315 314 328
f 786 315 328
f 787 315 786
f 788 315 787
f 316 315 788
f 789 316 788
f 790 316 789
f 317 316 790
f 791 317 790
f 318 317 791
f 792 318 791
f 319 318 792
f 793 319 792
f 794 319 793
f 320 319 794
f 795 320 794
f 321 320 795
f 796 321 795
f 797 321 796
f 322 321 797
f 798 322 797
f 328 327 786
f 799 786 327
f 800 799 327
f 325 800 327
f 801 800 325
f 802 801 325
f 341 802 325
f 803 802 341
f 342 803 341
f 804 803 342
f 805 804 342
f 343 805 342
f 806 805 343
f 344 806 343
f 807 806 344
f 345 807 344
f 808 807 345
f 809 808 345
f 346 809 345
f 798 809 346
f 322 798 346
f 323 322 346
f 347 323 346
f 324 323 347
f 784 324 810
f 347 810 324
f 770 321 811
f 322 811 321
f 312 779 313
f 730 313 779
f 750 812 749
f 775 749 812
f 297 330 299
f 300 299 330
f 331 300 330
f 301 300 331
f 813 301 331
f 814 301 813
f 815 301 814
f 302 301 815
f 816 302 815
f 817 302 816
f 303 302 817
f 818 303 817
f 305 303 818
f 819 305 818
f 306 305 819
f 820 306 819
f 821 306 820
f 307 306 821
f 822 307 821
f 308 307 822
f 823 308 822
f 824 308 823
f 309 308 824
f 825 309 824
f 331 332 813
f 826 813 332
f 827 826 332
f 333 827 332
f 828 827 333
f 829 828 333
f 334 829 333
f 830 829 334
f 335 830 334
f 831 830 335
f 832 831 335
f 336 832 335
f 833 832 336
f 337 833 336
f 834 833 337
f 338 834 337
f 835 834 338
f 836 835 338
f 339 836 338
f 825 836 339
f 309 825 339
f 310 309 339
f 340 310 339
f 311 310 340
f 318 319 782
f 766 782 319
f 759 757 720
f 722 720 757
f 837 734 776
f 732 776 734
f 315 771 314
f 778 314 771
f 810 347 773
f 346 773 347
f 743 737 740
f 736 740 737
f 775 812 760
f 762 760 812
f 739 838 735
f 777 735 838
f 316 317 772
f 781 772 317
f 839 754 774
f 755 774 754
f 811 322 785
f 323 785 322
f 721 768 723
f 769 723 768
f 343 342 840
f 752 840 342
f 839 774 838
f 777 838 774
f 758 756 725
f 727 725 756
f 341 325 753
f 841 753 325
f 325 327 841
f 783 841 327
f 738 742 733
f 741 733 742
f 837 776 761
f 763 761 776
f 344 343 729
f 840 729 343
f 747 748 744
f 751 744 748
f 844 843 842
f 845 842 843
f 844 846 843
f 847 843 846
f 846 848 847
f 849 847 848
f 848 850 849
f 851 849 850
f 850 852 851
f 853 851 852
f 852 854 853
f 855 853 854
f 854 856 855
f 857 855 856
f 856 858 857
f 859 857 858
f 859 858 860
f 861 860 858
f 861 862 860
f 863 860 862
f 862 864 863
f 865 863 864
f 864 866 865
f 867 865 866
f 866 868 867
f 869 867 868
f 871 870 868
f 869 868 870
f 873 872 871
f 870 871 872
f 875 874 873
f 872 873 874
f 877 876 875
f 874 875 876
f 879 878 877
f 876 877 878
f 881 880 879
f 878 879 880
f 883 882 881
f 880 881 882
f 885 884 883
f 882 883 884
f 887 886 885
f 884 885 886
f 889 888 887
f 886 887 888
f 842 845 889
f 888 889 845
f 892 891 890
f 893 890 891
f 895 892 894
f 890 894 892
f 897 895 896
f 894 896 895
f 897 896 898
f 899 898 896
f 898 899 900
f 901 900 899
f 900 901 902
f 903 902 901
f 902 903 904
f 905 904 903
f 904 905 906
f 907 906 905
f 906 907 908
f 909 908 907
f 908 909 910
f 911 910 909
f 910 911 912
f 913 912 911
f 912 913 914
f 915 914 913
f 914 915 916
f 917 916 915
f 916 917 918
f 919 918 917
f 918 919 920
f 921 920 919
f 923 922 921
f 920 921 922
f 925 924 923
f 922 923 924
f 927 926 925
f 924 925 926
f 929 928 927
f 926 927 928
f 931 930 929
f 928 929 930
f 933 932 931
f 930 931 932
f 935 932 934
f 933 934 932
f 937 935 936
f 934 936 935
f 891 937 893
f 936 893 937
f 940 939 938
f 941 938 939
f 938 941 942
f 943 942 941
f 942 943 944
f 945 944 943
f 944 945 946
f 947 946 945
f 946 947 948
f 949 948 947
f 948 949 950
f 951 950 949
f 950 951 952
f 953 952 951
f 952 953 954
f 955 954 953
f 954 955 956
f 957 956 955
f 956 957 958
f 959 958 957
f 961 960 959
f 958 959 960
f 963 962 961
f 960 961 962
f 965 964 963
f 962 963 964
f 967 966 965
f 964 965 966
f 969 968 967
f 966 967 968
f 971 970 969
f 968 969 970
f 973 970 972
f 971 972 970
f 975 973 974
f 972 974 973
f 977 975 976
f 974 976 975
f 979 977 978
f 976 978 977
f 981 979 980
f 978 980 979
f 983 981 982
f 980 982 981
f 983 982 984
f 985 984 982
f 984 985 940
f 939 940 985
