v 0.206222 -0.237290 0.129251
v 0.206974 -0.236978 0.118321
v 0.206222 -0.237290 0.118321
v 0.206974 -0.236978 0.129251
v 0.205575 -0.237786 0.129251
v 0.205575 -0.237786 0.118321
v 0.205080 -0.238432 0.118321
v 0.205080 -0.238432 0.129251
v 0.204768 -0.239185 0.118321
v 0.204768 -0.239185 0.129251
v 0.204662 -0.239992 0.118321
v 0.204662 -0.239992 0.129251
v 0.204768 -0.240800 0.118321
v 0.204768 -0.240800 0.129251
v 0.205080 -0.241552 0.118321
v 0.205080 -0.241552 0.129251
v 0.205575 -0.242198 0.118321
v 0.205575 -0.242198 0.129251
v 0.206222 -0.242694 0.129251
v 0.206222 -0.242694 0.118321
v 0.206974 -0.243006 0.129251
v 0.206974 -0.243006 0.118321
v 0.207782 -0.243112 0.129251
v 0.207782 -0.243112 0.118321
v 0.208589 -0.243006 0.129251
v 0.208589 -0.243006 0.118321
v 0.209342 -0.242694 0.129251
v 0.209342 -0.242694 0.118321
v 0.209988 -0.242198 0.129251
v 0.209988 -0.242198 0.118321
v 0.210484 -0.241552 0.118321
v 0.210484 -0.241552 0.129251
v 0.210795 -0.240800 0.118321
v 0.210795 -0.240800 0.129251
v 0.210902 -0.239992 0.118321
v 0.210902 -0.239992 0.129251
v 0.210795 -0.239185 0.118321
v 0.210795 -0.239185 0.129251
v 0.210484 -0.238432 0.118321
v 0.210484 -0.238432 0.129251
v 0.209988 -0.237786 0.118321
v 0.209988 -0.237786 0.129251
v 0.209342 -0.237290 0.129251
v 0.209342 -0.237290 0.118321
v 0.208589 -0.236978 0.129251
v 0.208589 -0.236978 0.118321
v 0.207782 -0.236872 0.129251
v 0.207782 -0.236872 0.118321
v 0.189567 -0.173035 0.129251
v 0.190062 -0.173681 0.118321
v 0.190062 -0.173681 0.129251
v 0.189567 -0.173035 0.118321
v 0.192269 -0.174595 0.129251
v 0.191461 -0.174488 0.118321
v 0.192269 -0.174595 0.118321
v 0.191461 -0.174488 0.129251
v 0.190709 -0.174177 0.129251
v 0.190709 -0.174177 0.118321
v 0.194475 -0.169269 0.118321
v 0.194971 -0.169915 0.129251
v 0.194971 -0.169915 0.118321
v 0.194475 -0.169269 0.129251
v 0.189149 -0.171475 0.129251
v 0.189255 -0.172282 0.118321
v 0.189255 -0.172282 0.129251
v 0.189149 -0.171475 0.118321
v 0.193829 -0.174177 0.129251
v 0.193076 -0.174488 0.118321
v 0.193829 -0.174177 0.118321
v 0.193076 -0.174488 0.129251
v 0.193076 -0.168461 0.129251
v 0.193829 -0.168773 0.118321
v 0.193076 -0.168461 0.118321
v 0.193829 -0.168773 0.129251
v 0.194971 -0.173035 0.118321
v 0.194475 -0.173681 0.129251
v 0.194475 -0.173681 0.118321
v 0.194971 -0.173035 0.129251
v 0.190709 -0.168773 0.129251
v 0.191461 -0.168461 0.118321
v 0.190709 -0.168773 0.118321
v 0.191461 -0.168461 0.129251
v 0.195389 -0.171475 0.118321
v 0.195282 -0.172282 0.129251
v 0.195282 -0.172282 0.118321
v 0.195389 -0.171475 0.129251
v 0.190062 -0.169269 0.129251
v 0.189567 -0.169915 0.118321
v 0.189567 -0.169915 0.129251
v 0.190062 -0.169269 0.118321
v 0.189255 -0.170667 0.118321
v 0.189255 -0.170667 0.129251
v 0.195282 -0.170667 0.129251
v 0.195282 -0.170667 0.118321
v 0.192269 -0.168355 0.118321
v 0.192269 -0.168355 0.129251
v 0.207075 -0.122125 0.132301
v 0.206579 -0.122771 0.121371
v 0.206579 -0.122771 0.132301
v 0.207075 -0.122125 0.121371
v 0.192208 -0.058515 0.132301
v 0.191562 -0.058020 0.121371
v 0.192208 -0.058515 0.121371
v 0.191562 -0.058020 0.132301
v 0.211487 -0.122125 0.121371
v 0.211983 -0.122771 0.132301
v 0.211983 -0.122771 0.121371
v 0.211487 -0.122125 0.132301
v 0.191562 -0.053607 0.132301
v 0.191066 -0.054253 0.121371
v 0.191066 -0.054253 0.132301
v 0.191562 -0.053607 0.121371
v 0.212294 -0.123523 0.132301
v 0.212294 -0.123523 0.121371
v 0.206267 -0.123523 0.121371
v 0.206267 -0.123523 0.132301
v 0.206161 -0.124331 0.132301
v 0.206267 -0.125138 0.121371
v 0.206267 -0.125138 0.132301
v 0.206161 -0.124331 0.121371
v 0.211487 -0.126537 0.132301
v 0.210841 -0.127033 0.121371
v 0.211487 -0.126537 0.121371
v 0.210841 -0.127033 0.132301
v 0.190754 -0.055006 0.121371
v 0.190754 -0.055006 0.132301
v 0.195328 -0.053111 0.132301
v 0.195974 -0.053607 0.121371
v 0.195328 -0.053111 0.121371
v 0.195974 -0.053607 0.132301
v 0.196470 -0.054253 0.121371
v 0.196781 -0.055006 0.132301
v 0.196781 -0.055006 0.121371
v 0.196470 -0.054253 0.132301
v 0.192208 -0.053111 0.121371
v 0.192208 -0.053111 0.132301
v 0.196781 -0.056621 0.121371
v 0.196470 -0.057373 0.132301
v 0.196470 -0.057373 0.121371
v 0.196781 -0.056621 0.132301
v 0.194575 -0.058827 0.132301
v 0.193768 -0.058933 0.121371
v 0.194575 -0.058827 0.121371
v 0.193768 -0.058933 0.132301
v 0.209281 -0.127451 0.132301
v 0.208473 -0.127345 0.121371
v 0.209281 -0.127451 0.121371
v 0.208473 -0.127345 0.132301
v 0.196888 -0.055813 0.121371
v 0.196888 -0.055813 0.132301
v 0.211983 -0.125891 0.121371
v 0.211983 -0.125891 0.132301
v 0.192960 -0.058827 0.121371
v 0.192960 -0.058827 0.132301
v 0.206579 -0.125891 0.121371
v 0.206579 -0.125891 0.132301
v 0.210088 -0.121317 0.132301
v 0.210841 -0.121629 0.121371
v 0.210088 -0.121317 0.121371
v 0.210841 -0.121629 0.132301
v 0.210088 -0.127345 0.121371
v 0.210088 -0.127345 0.132301
v 0.190754 -0.056621 0.132301
v 0.191066 -0.057373 0.121371
v 0.191066 -0.057373 0.132301
v 0.190754 -0.056621 0.121371
v 0.190648 -0.055813 0.121371
v 0.190648 -0.055813 0.132301
v 0.207721 -0.121629 0.132301
v 0.208473 -0.121317 0.121371
v 0.207721 -0.121629 0.121371
v 0.208473 -0.121317 0.132301
v 0.207721 -0.127033 0.132301
v 0.207075 -0.126537 0.121371
v 0.207721 -0.127033 0.121371
v 0.207075 -0.126537 0.132301
v 0.209281 -0.121211 0.132301
v 0.209281 -0.121211 0.121371
v 0.193768 -0.052693 0.132301
v 0.194575 -0.052800 0.121371
v 0.193768 -0.052693 0.121371
v 0.194575 -0.052800 0.132301
v 0.212294 -0.125138 0.121371
v 0.212294 -0.125138 0.132301
v 0.212401 -0.124331 0.121371
v 0.212401 -0.124331 0.132301
v 0.195974 -0.058020 0.132301
v 0.195974 -0.058020 0.121371
v 0.195328 -0.058515 0.132301
v 0.195328 -0.058515 0.121371
v 0.192960 -0.052800 0.132301
v 0.192960 -0.052800 0.121371
f 1 2 3
f 2 1 4
f 5 3 6
f 3 5 1
f 5 7 8
f 7 5 6
f 8 9 10
f 9 8 7
f 10 11 12
f 11 10 9
f 12 13 14
f 13 12 11
f 14 15 16
f 15 14 13
f 16 17 18
f 17 16 15
f 19 17 20
f 17 19 18
f 21 20 22
f 20 21 19
f 23 22 24
f 22 23 21
f 25 24 26
f 24 25 23
f 27 26 28
f 26 27 25
f 29 28 30
f 28 29 27
f 31 29 30
f 29 31 32
f 33 32 31
f 32 33 34
f 35 34 33
f 34 35 36
f 37 36 35
f 36 37 38
f 39 38 37
f 38 39 40
f 41 40 39
f 40 41 42
f 43 41 44
f 41 43 42
f 45 44 46
f 44 45 43
f 47 46 48
f 46 47 45
f 4 48 2
f 48 4 47
f 49 50 51
f 50 49 52
f 53 54 55
f 54 53 56
f 57 50 58
f 50 57 51
f 59 60 61
f 60 59 62
f 63 64 65
f 64 63 66
f 67 68 69
f 68 67 70
f 71 72 73
f 72 71 74
f 56 58 54
f 58 56 57
f 75 76 77
f 76 75 78
f 79 80 81
f 80 79 82
f 83 84 85
f 84 83 86
f 65 52 49
f 52 65 64
f 85 78 75
f 78 85 84
f 87 88 89
f 88 87 90
f 74 59 72
f 59 74 62
f 89 91 92
f 91 89 88
f 70 55 68
f 55 70 53
f 87 81 90
f 81 87 79
f 61 93 94
f 93 61 60
f 82 95 80
f 95 82 96
f 92 66 63
f 66 92 91
f 76 69 77
f 69 76 67
f 96 73 95
f 73 96 71
f 94 86 83
f 86 94 93
f 97 98 99
f 98 97 100
f 101 102 103
f 102 101 104
f 105 106 107
f 106 105 108
f 109 110 111
f 110 109 112
f 107 113 114
f 113 107 106
f 99 115 116
f 115 99 98
f 117 118 119
f 118 117 120
f 121 122 123
f 122 121 124
f 111 125 126
f 125 111 110
f 127 128 129
f 128 127 130
f 131 132 133
f 132 131 134
f 109 135 112
f 135 109 136
f 137 138 139
f 138 137 140
f 141 142 143
f 142 141 144
f 145 146 147
f 146 145 148
f 149 140 137
f 140 149 150
f 151 121 123
f 121 151 152
f 144 153 142
f 153 144 154
f 119 155 156
f 155 119 118
f 157 158 159
f 158 157 160
f 160 105 158
f 105 160 108
f 124 161 122
f 161 124 162
f 163 164 165
f 164 163 166
f 133 150 149
f 150 133 132
f 165 102 104
f 102 165 164
f 126 167 168
f 167 126 125
f 169 170 171
f 170 169 172
f 173 174 175
f 174 173 176
f 177 159 178
f 159 177 157
f 179 180 181
f 180 179 182
f 168 166 163
f 166 168 167
f 183 152 151
f 152 183 184
f 148 175 146
f 175 148 173
f 185 184 183
f 184 185 186
f 97 171 100
f 171 97 169
f 172 178 170
f 178 172 177
f 139 187 188
f 187 139 138
f 156 174 176
f 174 156 155
f 154 103 153
f 103 154 101
f 189 143 190
f 143 189 141
f 182 129 180
f 129 182 127
f 191 181 192
f 181 191 179
f 136 192 135
f 192 136 191
f 162 147 161
f 147 162 145
f 114 186 185
f 186 114 113
f 116 120 117
f 120 116 115
f 187 190 188
f 190 187 189
f 128 134 131
f 134 128 130
f 3 2 1
f 4 1 2
f 6 3 5
f 1 5 3
f 8 7 5
f 6 5 7
f 10 9 8
f 7 8 9
f 12 11 10
f 9 10 11
f 14 13 12
f 11 12 13
f 16 15 14
f 13 14 15
f 18 17 16
f 15 16 17
f 20 17 19
f 18 19 17
f 22 20 21
f 19 21 20
f 24 22 23
f 21 23 22
f 26 24 25
f 23 25 24
f 28 26 27
f 25 27 26
f 30 28 29
f 27 29 28
f 30 29 31
f 32 31 29
f 31 32 33
f 34 33 32
f 33 34 35
f 36 35 34
f 35 36 37
f 38 37 36
f 37 38 39
f 40 39 38
f 39 40 41
f 42 41 40
f 44 41 43
f 42 43 41
f 46 44 45
f 43 45 44
f 48 46 47
f 45 47 46
f 2 48 4
f 47 4 48
f 51 50 49
f 52 49 50
f 55 54 53
f 56 53 54
f 58 50 57
f 51 57 50
f 61 60 59
f 62 59 60
f 65 64 63
f 66 63 64
f 69 68 67
f 70 67 68
f 73 72 71
f 74 71 72
f 54 58 56
f 57 56 58
f 77 76 75
f 78 75 76
f 81 80 79
f 82 79 80
f 85 84 83
f 86 83 84
f 49 52 65
f 64 65 52
f 75 78 85
f 84 85 78
f 89 88 87
f 90 87 88
f 72 59 74
f 62 74 59
f 92 91 89
f 88 89 91
f 68 55 70
f 53 70 55
f 90 81 87
f 79 87 81
f 94 93 61
f 60 61 93
f 80 95 82
f 96 82 95
f 63 66 92
f 91 92 66
f 77 69 76
f 67 76 69
f 95 73 96
f 71 96 73
f 83 86 94
f 93 94 86
f 99 98 97
f 100 97 98
f 103 102 101
f 104 101 102
f 107 106 105
f 108 105 106
f 111 110 109
f 112 109 110
f 114 113 107
f 106 107 113
f 116 115 99
f 98 99 115
f 119 118 117
f 120 117 118
f 123 122 121
f 124 121 122
f 126 125 111
f 110 111 125
f 129 128 127
f 130 127 128
f 133 132 131
f 134 131 132
f 112 135 109
f 136 109 135
f 139 138 137
f 140 137 138
f 143 142 141
f 144 141 142
f 147 146 145
f 148 145 146
f 137 140 149
f 150 149 140
f 123 121 151
f 152 151 121
f 142 153 144
f 154 144 153
f 156 155 119
f 118 119 155
f 159 158 157
f 160 157 158
f 158 105 160
f 108 160 105
f 122 161 124
f 162 124 161
f 165 164 163
f 166 163 164
f 149 150 133
f 132 133 150
f 104 102 165
f 164 165 102
f 168 167 126
f 125 126 167
f 171 170 169
f 172 169 170
f 175 174 173
f 176 173 174
f 178 159 177
f 157 177 159
f 181 180 179
f 182 179 180
f 163 166 168
f 167 168 166
f 151 152 183
f 184 183 152
f 146 175 148
f 173 148 175
f 183 184 185
f 186 185 184
f 100 171 97
f 169 97 171
f 170 178 172
f 177 172 178
f 188 187 139
f 138 139 187
f 176 174 156
f 155 156 174
f 153 103 154
f 101 154 103
f 190 143 189
f 141 189 143
f 180 129 182
f 127 182 129
f 192 181 191
f 179 191 181
f 135 192 136
f 191 136 192
f 161 147 162
f 145 162 147
f 185 186 114
f 113 114 186
f 117 120 116
f 115 116 120
f 188 190 187
f 189 187 190
f 131 134 128
f 130 128 134
