v 0.238044 0.021277 0.300220
v 0.225849 -0.324508 0.101841
v 0.225849 -0.324508 0.220426
v 0.229123 -0.231670 0.148871
v 0.225849 -0.324508 0.091710
v 0.228912 -0.237647 0.143126
v 0.225849 -0.324508 0.057131
v 0.226086 -0.317778 0.057131
v 0.228761 -0.241934 0.136028
v 0.228680 -0.244239 0.128062
v 0.228674 -0.244405 0.119770
v 0.229379 -0.224411 0.152873
v 0.229663 -0.216363 0.154859
v 0.229955 -0.208077 0.154693
v 0.230236 -0.200116 0.152386
v 0.230486 -0.193022 0.148096
v 0.230689 -0.187280 0.142116
v 0.230830 -0.183281 0.134852
v 0.230900 -0.181297 0.126800
v 0.233016 -0.121281 0.146377
v 0.232865 -0.125569 0.139280
v 0.232784 -0.127874 0.131314
v 0.232778 -0.128040 0.123022
v 0.233227 -0.115305 0.152123
v 0.233483 -0.108045 0.156125
v 0.233767 -0.099998 0.158111
v 0.234059 -0.091711 0.157944
v 0.234340 -0.083750 0.155638
v 0.234590 -0.076657 0.151348
v 0.234793 -0.070915 0.145367
v 0.234934 -0.066915 0.138103
v 0.235004 -0.064931 0.130051
v 0.229618 -0.217625 0.091877
v 0.238044 0.021277 0.057131
v 0.229338 -0.225586 0.094184
v 0.229087 -0.232679 0.098473
v 0.228885 -0.238422 0.104454
v 0.228744 -0.242421 0.111718
v 0.229911 -0.209338 0.091711
v 0.230194 -0.201291 0.093696
v 0.230451 -0.194032 0.097698
v 0.230661 -0.188055 0.103444
v 0.230813 -0.183768 0.110542
v 0.230894 -0.181463 0.118508
v 0.233442 -0.109221 0.097435
v 0.233192 -0.116314 0.101725
v 0.232989 -0.122056 0.107706
v 0.232848 -0.126055 0.114970
v 0.233723 -0.101259 0.095129
v 0.234015 -0.092973 0.094963
v 0.234299 -0.084926 0.096948
v 0.234555 -0.077666 0.100950
v 0.234765 -0.071689 0.106696
v 0.234917 -0.067402 0.113793
v 0.234998 -0.065097 0.121760
f 1 2 3
f 2 1 4
f 2 4 5
f 5 4 6
f 5 6 7
f 7 6 8
f 8 6 9
f 8 9 10
f 8 10 11
f 4 1 12
f 12 1 13
f 13 1 14
f 14 1 15
f 15 1 16
f 16 1 17
f 17 1 18
f 18 1 19
f 19 1 20
f 19 20 21
f 19 21 22
f 19 22 23
f 20 1 24
f 24 1 25
f 25 1 26
f 26 1 27
f 27 1 28
f 28 1 29
f 29 1 30
f 30 1 31
f 31 1 32
f 8 33 34
f 33 8 35
f 35 8 36
f 36 8 37
f 37 8 38
f 38 8 11
f 34 33 39
f 34 39 40
f 34 40 41
f 34 41 42
f 34 42 43
f 34 43 44
f 34 44 45
f 45 44 19
f 45 19 46
f 46 19 47
f 47 19 48
f 48 19 23
f 34 45 49
f 34 49 50
f 34 50 51
f 34 51 52
f 34 52 53
f 34 53 54
f 34 54 55
f 34 55 32
f 34 32 1
f 3 2 1
f 4 1 2
f 5 4 2
f 6 4 5
f 7 6 5
f 8 6 7
f 9 6 8
f 10 9 8
f 11 10 8
f 12 1 4
f 13 1 12
f 14 1 13
f 15 1 14
f 16 1 15
f 17 1 16
f 18 1 17
f 19 1 18
f 20 1 19
f 21 20 19
f 22 21 19
f 23 22 19
f 24 1 20
f 25 1 24
f 26 1 25
f 27 1 26
f 28 1 27
f 29 1 28
f 30 1 29
f 31 1 30
f 32 1 31
f 34 33 8
f 35 8 33
f 36 8 35
f 37 8 36
f 38 8 37
f 11 8 38
f 39 33 34
f 40 39 34
f 41 40 34
f 42 41 34
f 43 42 34
f 44 43 34
f 45 44 34
f 19 44 45
f 46 19 45
f 47 19 46
f 48 19 47
f 23 19 48
f 49 45 34
f 50 49 34
f 51 50 34
f 52 51 34
f 53 52 34
f 54 53 34
f 55 54 34
f 32 55 34
f 1 32 34
