v 0.492345 0.322102 0.000000
v -0.488285 -0.317778 0.000000
v -0.488285 0.322102 0.000000
v 0.492345 -0.317778 0.000000
v 0.107889 -0.324508 0.220426
v -0.500005 -0.154845 0.300220
v -0.500005 -0.324508 0.220426
v 0.120084 -0.154845 0.300220
v -0.439567 0.170800 0.300220
v -0.500005 0.325792 0.300220
v 0.120084 0.021277 0.300220
v 0.322523 0.170800 0.300220
v 0.238044 0.021277 0.300220
v 0.490435 0.021277 0.300220
v 0.466233 0.170800 0.300220
v 0.466233 0.303100 0.300220
v -0.439567 0.303100 0.300220
v 0.500005 0.325792 0.300220
v 0.322523 0.303100 0.300220
v 0.500005 0.021277 0.300220
v 0.107889 -0.324508 0.091710
v -0.500005 -0.324508 0.057131
v 0.107889 -0.324508 0.057131
v -0.406181 -0.324508 0.081527
v -0.406181 -0.324508 0.120287
v -0.455771 -0.324508 0.120287
v -0.387913 -0.324508 0.136750
v -0.387913 -0.324508 0.161287
v -0.387913 -0.324508 0.162828
v -0.387913 -0.324508 0.185070
v -0.473193 -0.324508 0.185070
v -0.455771 -0.324508 0.081527
v -0.473193 -0.324508 0.136750
v -0.473193 -0.324508 0.161287
v -0.473193 -0.324508 0.162828
v -0.500005 -0.317778 0.057131
v -0.500005 0.325792 0.057131
v 0.225849 -0.317778 0.057131
v 0.236188 0.016693 0.057131
v 0.224882 -0.317778 0.057131
v 0.226086 -0.317778 0.057131
v 0.238044 0.021277 0.057131
v 0.109297 -0.317778 0.057131
v 0.120084 0.021277 0.057131
v 0.108126 -0.317778 0.057131
v 0.121588 0.016693 0.057131
v 0.109099 -0.323193 0.057131
v 0.225849 -0.324508 0.057131
v 0.224699 -0.323193 0.057131
v -0.488285 -0.317778 0.057131
v 0.107889 -0.317778 0.057131
v 0.490435 -0.324508 0.057131
v 0.492345 -0.317778 0.057131
v 0.500005 -0.324508 0.057131
v 0.500005 -0.317778 0.057131
v -0.488285 0.322102 0.057131
v -0.488285 0.325792 0.057131
v 0.492345 0.322102 0.057131
v 0.492345 0.325792 0.057131
v -0.406181 -0.321548 0.081527
v -0.413985 -0.321548 0.089807
v -0.455771 -0.321548 0.081527
v -0.406181 -0.321548 0.120287
v -0.413985 -0.321548 0.115267
v -0.449845 -0.321548 0.115267
v -0.449845 -0.321548 0.089807
v -0.455771 -0.321548 0.120287
v -0.449845 -0.324508 0.089807
v -0.449845 -0.324508 0.115267
v -0.413985 -0.324508 0.115267
v -0.413985 -0.324508 0.089807
v 0.225849 -0.324508 0.091710
v 0.226524 -0.269194 0.086971
v 0.236188 0.016693 0.086971
v 0.226524 -0.269194 0.089271
v 0.224882 -0.317778 0.089271
v 0.121588 0.016693 0.086971
v 0.111083 -0.269194 0.089271
v 0.109297 -0.317778 0.089271
v 0.111083 -0.269194 0.086971
v 0.109099 -0.323193 0.089271
v 0.224699 -0.323193 0.089271
v 0.500005 0.325792 0.057131
v 0.500005 -0.324508 0.220426
v 0.500005 -0.154845 0.300220
v -0.437854 0.172215 0.300220
v -0.429964 0.269844 0.300220
v -0.437854 0.302245 0.300220
v 0.321276 0.172215 0.300220
v -0.368854 0.269844 0.300220
v -0.356850 0.269973 0.300220
v -0.368854 0.272014 0.300220
v -0.368854 0.274290 0.300220
v -0.368854 0.276460 0.300220
v -0.368854 0.278727 0.300220
v -0.368854 0.280897 0.300220
v -0.368854 0.283216 0.300220
v -0.368854 0.285386 0.300220
v -0.368854 0.287505 0.300220
v -0.368854 0.289675 0.300220
v -0.368854 0.291252 0.300220
v -0.368854 0.293422 0.300220
v -0.295740 0.269973 0.300220
v -0.295740 0.272143 0.300220
v -0.278714 0.270675 0.300220
v -0.295740 0.274419 0.300220
v -0.295740 0.276589 0.300220
v -0.295740 0.278856 0.300220
v -0.295740 0.281026 0.300220
v -0.295740 0.283345 0.300220
v -0.295740 0.285515 0.300220
v -0.295740 0.287634 0.300220
v -0.295740 0.289804 0.300220
v -0.295740 0.291381 0.300220
v -0.295740 0.293551 0.300220
v -0.217604 0.270675 0.300220
v -0.217604 0.272845 0.300220
v -0.201021 0.271384 0.300220
v -0.217604 0.275120 0.300220
v -0.217604 0.277290 0.300220
v -0.217604 0.279557 0.300220
v -0.217604 0.281727 0.300220
v -0.217604 0.284046 0.300220
v -0.217604 0.286216 0.300220
v -0.217604 0.288335 0.300220
v -0.217604 0.290505 0.300220
v -0.217604 0.292083 0.300220
v -0.217604 0.294253 0.300220
v -0.139911 0.271384 0.300220
v -0.139911 0.273554 0.300220
v -0.123734 0.271455 0.300220
v -0.139911 0.275829 0.300220
v -0.139911 0.277999 0.300220
v -0.139911 0.280266 0.300220
v -0.139911 0.282436 0.300220
v -0.139911 0.284756 0.300220
v -0.139911 0.286926 0.300220
v -0.139911 0.289045 0.300220
v -0.139911 0.291215 0.300220
v -0.139911 0.292792 0.300220
v -0.139911 0.294962 0.300220
v -0.062624 0.271455 0.300220
v -0.062624 0.273625 0.300220
v -0.050322 0.272226 0.300220
v -0.062624 0.275900 0.300220
v -0.062624 0.278070 0.300220
v -0.062624 0.280337 0.300220
v -0.062624 0.282507 0.300220
v -0.062624 0.284826 0.300220
v -0.062624 0.286996 0.300220
v -0.062624 0.289116 0.300220
v -0.062624 0.291286 0.300220
v -0.062624 0.292863 0.300220
v -0.062624 0.295033 0.300220
v 0.010788 0.272226 0.300220
v 0.010788 0.274396 0.300220
v 0.024391 0.272012 0.300220
v 0.010788 0.276671 0.300220
v 0.010788 0.278841 0.300220
v 0.010788 0.281108 0.300220
v 0.010788 0.283279 0.300220
v 0.010788 0.285598 0.300220
v 0.010788 0.287768 0.300220
v 0.010788 0.289887 0.300220
v 0.010788 0.292057 0.300220
v 0.010788 0.293634 0.300220
v 0.010788 0.295804 0.300220
v 0.085501 0.272012 0.300220
v 0.085501 0.274182 0.300220
v 0.085501 0.276458 0.300220
v 0.095878 0.272179 0.300220
v 0.085501 0.278628 0.300220
v 0.085501 0.280895 0.300220
v 0.085501 0.283065 0.300220
v 0.085501 0.285384 0.300220
v 0.085501 0.287554 0.300220
v 0.085501 0.289673 0.300220
v 0.085501 0.291843 0.300220
v 0.085501 0.293420 0.300220
v 0.085501 0.295590 0.300220
v 0.156988 0.272179 0.300220
v 0.156988 0.274349 0.300220
v 0.156988 0.276624 0.300220
v 0.156988 0.278794 0.300220
v 0.156988 0.281061 0.300220
v 0.172323 0.272293 0.300220
v 0.156988 0.283231 0.300220
v 0.156988 0.285550 0.300220
v 0.156988 0.287720 0.300220
v 0.156988 0.289839 0.300220
v 0.156988 0.292010 0.300220
v 0.156988 0.293587 0.300220
v 0.156988 0.295757 0.300220
v 0.233433 0.272293 0.300220
v 0.233433 0.274463 0.300220
v 0.233433 0.276739 0.300220
v 0.233433 0.278909 0.300220
v 0.233433 0.281176 0.300220
v 0.233433 0.283346 0.300220
v 0.233433 0.285665 0.300220
v 0.233433 0.287835 0.300220
v 0.244970 0.272700 0.300220
v 0.233433 0.289954 0.300220
v 0.233433 0.292124 0.300220
v 0.233433 0.293701 0.300220
v 0.233433 0.295871 0.300220
v 0.306080 0.272700 0.300220
v 0.306080 0.274870 0.300220
v 0.306080 0.277145 0.300220
v 0.306080 0.279315 0.300220
v 0.306080 0.281582 0.300220
v 0.306080 0.283752 0.300220
v 0.306080 0.286071 0.300220
v 0.306080 0.288241 0.300220
v 0.306080 0.290360 0.300220
v 0.306080 0.292531 0.300220
v 0.306080 0.294108 0.300220
v 0.306080 0.296278 0.300220
v -0.429964 0.293422 0.300220
v 0.321276 0.302245 0.300220
v -0.429964 0.272014 0.300220
v -0.429964 0.274290 0.300220
v -0.429964 0.276460 0.300220
v -0.429964 0.278727 0.300220
v -0.429964 0.280897 0.300220
v -0.429964 0.283216 0.300220
v -0.429964 0.285386 0.300220
v -0.429964 0.287505 0.300220
v -0.429964 0.289675 0.300220
v -0.429964 0.291252 0.300220
v -0.356850 0.293551 0.300220
v -0.356850 0.272143 0.300220
v -0.356850 0.274419 0.300220
v -0.356850 0.276589 0.300220
v -0.356850 0.278856 0.300220
v -0.356850 0.281026 0.300220
v -0.356850 0.283345 0.300220
v -0.356850 0.285515 0.300220
v -0.356850 0.287634 0.300220
v -0.356850 0.289804 0.300220
v -0.356850 0.291381 0.300220
v -0.278714 0.294253 0.300220
v -0.278714 0.272845 0.300220
v -0.278714 0.275120 0.300220
v -0.278714 0.277290 0.300220
v -0.278714 0.279557 0.300220
v -0.278714 0.281727 0.300220
v -0.278714 0.284046 0.300220
v -0.278714 0.286216 0.300220
v -0.278714 0.288335 0.300220
v -0.278714 0.290505 0.300220
v -0.278714 0.292083 0.300220
v -0.201021 0.294962 0.300220
v -0.201021 0.273554 0.300220
v -0.201021 0.275829 0.300220
v -0.201021 0.277999 0.300220
v -0.201021 0.280266 0.300220
v -0.201021 0.282436 0.300220
v -0.201021 0.284756 0.300220
v -0.201021 0.286926 0.300220
v -0.201021 0.289045 0.300220
v -0.201021 0.291215 0.300220
v -0.201021 0.292792 0.300220
v -0.123734 0.295033 0.300220
v -0.123734 0.273625 0.300220
v -0.123734 0.275900 0.300220
v -0.123734 0.278070 0.300220
v -0.123734 0.280337 0.300220
v -0.123734 0.282507 0.300220
v -0.123734 0.284826 0.300220
v -0.123734 0.286996 0.300220
v -0.123734 0.289116 0.300220
v -0.123734 0.291286 0.300220
v -0.123734 0.292863 0.300220
v -0.050322 0.295804 0.300220
v -0.050322 0.274396 0.300220
v -0.050322 0.276671 0.300220
v -0.050322 0.278841 0.300220
v -0.050322 0.281108 0.300220
v -0.050322 0.283279 0.300220
v -0.050322 0.285598 0.300220
v -0.050322 0.287768 0.300220
v -0.050322 0.289887 0.300220
v -0.050322 0.292057 0.300220
v -0.050322 0.293634 0.300220
v 0.024391 0.295590 0.300220
v 0.024391 0.274182 0.300220
v 0.024391 0.276458 0.300220
v 0.024391 0.278628 0.300220
v 0.024391 0.280895 0.300220
v 0.024391 0.283065 0.300220
v 0.024391 0.285384 0.300220
v 0.024391 0.287554 0.300220
v 0.024391 0.289673 0.300220
v 0.024391 0.291843 0.300220
v 0.024391 0.293420 0.300220
v 0.095878 0.295757 0.300220
v 0.095878 0.274349 0.300220
v 0.095878 0.276624 0.300220
v 0.095878 0.278794 0.300220
v 0.095878 0.281061 0.300220
v 0.095878 0.283231 0.300220
v 0.095878 0.285550 0.300220
v 0.095878 0.287720 0.300220
v 0.095878 0.289839 0.300220
v 0.095878 0.292010 0.300220
v 0.095878 0.293587 0.300220
v 0.172323 0.295871 0.300220
v 0.172323 0.274463 0.300220
v 0.172323 0.276739 0.300220
v 0.172323 0.278909 0.300220
v 0.172323 0.281176 0.300220
v 0.172323 0.283346 0.300220
v 0.172323 0.285665 0.300220
v 0.172323 0.287835 0.300220
v 0.172323 0.289954 0.300220
v 0.172323 0.292124 0.300220
v 0.172323 0.293701 0.300220
v 0.244970 0.296278 0.300220
v 0.244970 0.274870 0.300220
v 0.244970 0.277145 0.300220
v 0.244970 0.279315 0.300220
v 0.244970 0.281582 0.300220
v 0.244970 0.283752 0.300220
v 0.244970 0.286071 0.300220
v 0.244970 0.288241 0.300220
v 0.244970 0.290360 0.300220
v 0.244970 0.292531 0.300220
v 0.244970 0.294108 0.300220
v 0.324226 0.172050 0.300220
v 0.332644 0.274939 0.300220
v 0.324226 0.302245 0.300220
v 0.465276 0.172050 0.300220
v 0.393754 0.274939 0.300220
v 0.393754 0.277109 0.300220
v 0.393754 0.279385 0.300220
v 0.393754 0.281555 0.300220
v 0.393754 0.283822 0.300220
v 0.393754 0.285992 0.300220
v 0.401258 0.275003 0.300220
v 0.393754 0.288311 0.300220
v 0.393754 0.290481 0.300220
v 0.393754 0.292600 0.300220
v 0.393754 0.294770 0.300220
v 0.393754 0.296347 0.300220
v 0.393754 0.298517 0.300220
v 0.462368 0.275003 0.300220
v 0.462368 0.277173 0.300220
v 0.462368 0.279448 0.300220
v 0.462368 0.281618 0.300220
v 0.462368 0.283885 0.300220
v 0.462368 0.286055 0.300220
v 0.462368 0.288374 0.300220
v 0.462368 0.290544 0.300220
v 0.462368 0.292663 0.300220
v 0.462368 0.294833 0.300220
v 0.462368 0.296411 0.300220
v 0.462368 0.298581 0.300220
v 0.332644 0.298517 0.300220
v 0.465276 0.302245 0.300220
v 0.332644 0.277109 0.300220
v 0.332644 0.279385 0.300220
v 0.332644 0.281555 0.300220
v 0.332644 0.283822 0.300220
v 0.332644 0.285992 0.300220
v 0.332644 0.288311 0.300220
v 0.332644 0.290481 0.300220
v 0.332644 0.292600 0.300220
v 0.332644 0.294770 0.300220
v 0.332644 0.296347 0.300220
v 0.401258 0.298581 0.300220
v 0.401258 0.277173 0.300220
v 0.401258 0.279448 0.300220
v 0.401258 0.281618 0.300220
v 0.401258 0.283885 0.300220
v 0.401258 0.286055 0.300220
v 0.401258 0.288374 0.300220
v 0.401258 0.290544 0.300220
v 0.401258 0.292663 0.300220
v 0.401258 0.294833 0.300220
v 0.401258 0.296411 0.300220
v 0.322523 0.170800 0.296700
v 0.324226 0.172050 0.296700
v 0.322523 0.303100 0.296700
v 0.466233 0.170800 0.296700
v 0.465276 0.172050 0.296700
v 0.465276 0.302245 0.296700
v 0.324226 0.302245 0.296700
v 0.466233 0.303100 0.296700
v 0.322523 0.170800 0.298500
v 0.322523 0.303100 0.298500
v -0.439567 0.170800 0.298500
v -0.437854 0.172215 0.298500
v -0.439567 0.303100 0.298500
v 0.321276 0.172215 0.298500
v 0.321276 0.302245 0.298500
v -0.437854 0.302245 0.298500
v 0.462368 0.275003 0.298040
v 0.401258 0.277173 0.298040
v 0.401258 0.275003 0.298040
v 0.462368 0.277173 0.298040
v 0.462368 0.279448 0.298170
v 0.401258 0.281618 0.298170
v 0.401258 0.279448 0.298170
v 0.462368 0.281618 0.298170
v 0.462368 0.283885 0.298140
v 0.401258 0.286055 0.298140
v 0.401258 0.283885 0.298140
v 0.462368 0.286055 0.298140
v 0.462368 0.288374 0.298140
v 0.401258 0.290544 0.298140
v 0.401258 0.288374 0.298140
v 0.462368 0.290544 0.298140
v 0.462368 0.292663 0.298250
v 0.401258 0.294833 0.298250
v 0.401258 0.292663 0.298250
v 0.462368 0.294833 0.298250
v 0.462368 0.296411 0.298720
v 0.401258 0.298581 0.298720
v 0.401258 0.296411 0.298720
v 0.462368 0.298581 0.298720
v 0.332644 0.277109 0.298040
v 0.393754 0.277109 0.298040
v 0.332644 0.298517 0.298720
v 0.393754 0.298517 0.298720
v 0.332644 0.296347 0.298720
v 0.332644 0.290481 0.298140
v 0.332644 0.288311 0.298140
v 0.393754 0.288311 0.298140
v 0.393754 0.290481 0.298140
v 0.393754 0.296347 0.298720
v 0.332644 0.281555 0.298170
v 0.393754 0.281555 0.298170
v 0.332644 0.274939 0.298040
v 0.332644 0.285992 0.298140
v 0.393754 0.285992 0.298140
v 0.393754 0.292600 0.298250
v 0.393754 0.294770 0.298250
v 0.332644 0.292600 0.298250
v 0.332644 0.294770 0.298250
v 0.393754 0.283822 0.298140
v 0.332644 0.283822 0.298140
v 0.332644 0.279385 0.298170
v 0.393754 0.279385 0.298170
v 0.393754 0.274939 0.298040
v 0.306080 0.294108 0.298720
v 0.244970 0.296278 0.298720
v 0.244970 0.294108 0.298720
v 0.306080 0.296278 0.298720
v 0.244970 0.279315 0.298170
v 0.244970 0.277145 0.298170
v 0.306080 0.290360 0.298250
v 0.306080 0.292531 0.298250
v 0.306080 0.281582 0.298140
v 0.306080 0.283752 0.298140
v 0.244970 0.281582 0.298140
v 0.306080 0.272700 0.298040
v 0.306080 0.274870 0.298040
v 0.244970 0.292531 0.298250
v 0.244970 0.290360 0.298250
v 0.244970 0.272700 0.298040
v 0.244970 0.274870 0.298040
v 0.244970 0.288241 0.298140
v 0.306080 0.288241 0.298140
v 0.306080 0.286071 0.298140
v 0.244970 0.286071 0.298140
v 0.306080 0.277145 0.298170
v 0.306080 0.279315 0.298170
v 0.244970 0.283752 0.298140
v 0.172323 0.287835 0.298140
v 0.172323 0.285665 0.298140
v 0.233433 0.281176 0.298140
v 0.172323 0.283346 0.298140
v 0.172323 0.281176 0.298140
v 0.233433 0.283346 0.298140
v 0.172323 0.278909 0.298170
v 0.172323 0.276739 0.298170
v 0.172323 0.292124 0.298250
v 0.172323 0.289954 0.298250
v 0.233433 0.276739 0.298170
v 0.233433 0.278909 0.298170
v 0.233433 0.289954 0.298250
v 0.233433 0.292124 0.298250
v 0.233433 0.287835 0.298140
v 0.233433 0.293701 0.298720
v 0.233433 0.295871 0.298720
v 0.233433 0.272293 0.298040
v 0.172323 0.274463 0.298040
v 0.172323 0.272293 0.298040
v 0.233433 0.274463 0.298040
v 0.233433 0.285665 0.298140
v 0.172323 0.295871 0.298720
v 0.172323 0.293701 0.298720
v 0.156988 0.289839 0.298250
v 0.095878 0.292010 0.298250
v 0.095878 0.289839 0.298250
v 0.156988 0.292010 0.298250
v 0.156988 0.272179 0.298040
v 0.095878 0.274349 0.298040
v 0.095878 0.272179 0.298040
v 0.156988 0.274349 0.298040
v 0.095878 0.295757 0.298720
v 0.095878 0.293587 0.298720
v 0.156988 0.281061 0.298140
v 0.095878 0.281061 0.298140
v 0.156988 0.283231 0.298140
v 0.095878 0.283231 0.298140
v 0.156988 0.285550 0.298140
v 0.156988 0.287720 0.298140
v 0.156988 0.276624 0.298170
v 0.095878 0.276624 0.298170
v 0.095878 0.287720 0.298140
v 0.095878 0.285550 0.298140
v 0.156988 0.293587 0.298720
v 0.156988 0.295757 0.298720
v 0.156988 0.278794 0.298170
v 0.095878 0.278794 0.298170
v 0.024391 0.291843 0.298250
v 0.024391 0.289673 0.298250
v 0.085501 0.289673 0.298250
v 0.085501 0.293420 0.298720
v 0.024391 0.295590 0.298720
v 0.024391 0.293420 0.298720
v 0.085501 0.295590 0.298720
v 0.024391 0.278628 0.298170
v 0.024391 0.276458 0.298170
v 0.085501 0.291843 0.298250
v 0.024391 0.274182 0.298040
v 0.024391 0.272012 0.298040
v 0.085501 0.285384 0.298140
v 0.024391 0.287554 0.298140
v 0.024391 0.285384 0.298140
v 0.085501 0.287554 0.298140
v 0.085501 0.276458 0.298170
v 0.085501 0.280895 0.298140
v 0.024391 0.280895 0.298140
v 0.024391 0.283065 0.298140
v 0.085501 0.278628 0.298170
v 0.085501 0.272012 0.298040
v 0.085501 0.283065 0.298140
v 0.085501 0.274182 0.298040
v 0.010788 0.285598 0.298140
v -0.050322 0.287768 0.298140
v -0.050322 0.285598 0.298140
v 0.010788 0.287768 0.298140
v 0.010788 0.272226 0.298040
v -0.050322 0.274396 0.298040
v -0.050322 0.272226 0.298040
v 0.010788 0.274396 0.298040
v 0.010788 0.289887 0.298250
v -0.050322 0.292057 0.298250
v -0.050322 0.289887 0.298250
v 0.010788 0.292057 0.298250
v 0.010788 0.276671 0.298170
v -0.050322 0.278841 0.298170
v -0.050322 0.276671 0.298170
v 0.010788 0.278841 0.298170
v 0.010788 0.293634 0.298720
v 0.010788 0.295804 0.298720
v -0.050322 0.295804 0.298720
v 0.010788 0.281108 0.298140
v 0.010788 0.283279 0.298140
v -0.050322 0.283279 0.298140
v -0.050322 0.281108 0.298140
v -0.050322 0.293634 0.298720
v -0.062624 0.284826 0.298140
v -0.062624 0.286996 0.298140
v -0.062624 0.292863 0.298720
v -0.123734 0.292863 0.298720
v -0.062624 0.280337 0.298140
v -0.123734 0.280337 0.298140
v -0.062624 0.271455 0.298040
v -0.062624 0.273625 0.298040
v -0.062624 0.275900 0.298170
v -0.123734 0.278070 0.298170
v -0.123734 0.275900 0.298170
v -0.062624 0.278070 0.298170
v -0.123734 0.291286 0.298250
v -0.062624 0.291286 0.298250
v -0.062624 0.289116 0.298250
v -0.123734 0.289116 0.298250
v -0.123734 0.284826 0.298140
v -0.123734 0.282507 0.298140
v -0.062624 0.282507 0.298140
v -0.123734 0.273625 0.298040
v -0.123734 0.271455 0.298040
v -0.123734 0.286996 0.298140
v -0.062624 0.295033 0.298720
v -0.123734 0.295033 0.298720
v -0.139911 0.275829 0.298170
v -0.201021 0.277999 0.298170
v -0.201021 0.275829 0.298170
v -0.139911 0.277999 0.298170
v -0.201021 0.291215 0.298250
v -0.201021 0.289045 0.298250
v -0.139911 0.289045 0.298250
v -0.139911 0.291215 0.298250
v -0.201021 0.273554 0.298040
v -0.201021 0.271384 0.298040
v -0.201021 0.294962 0.298720
v -0.139911 0.294962 0.298720
v -0.201021 0.286926 0.298140
v -0.201021 0.284756 0.298140
v -0.139911 0.280266 0.298140
v -0.139911 0.282436 0.298140
v -0.201021 0.282436 0.298140
v -0.201021 0.280266 0.298140
v -0.139911 0.286926 0.298140
v -0.139911 0.284756 0.298140
v -0.139911 0.271384 0.298040
v -0.139911 0.273554 0.298040
v -0.139911 0.292792 0.298720
v -0.201021 0.292792 0.298720
v -0.217604 0.292083 0.298720
v -0.278714 0.294253 0.298720
v -0.278714 0.292083 0.298720
v -0.217604 0.294253 0.298720
v -0.217604 0.275120 0.298170
v -0.278714 0.277290 0.298170
v -0.278714 0.275120 0.298170
v -0.217604 0.277290 0.298170
v -0.217604 0.279557 0.298140
v -0.278714 0.281727 0.298140
v -0.278714 0.279557 0.298140
v -0.217604 0.281727 0.298140
v -0.217604 0.270675 0.298040
v -0.217604 0.272845 0.298040
v -0.278714 0.272845 0.298040
v -0.278714 0.270675 0.298040
v -0.217604 0.284046 0.298140
v -0.278714 0.286216 0.298140
v -0.278714 0.284046 0.298140
v -0.217604 0.286216 0.298140
v -0.278714 0.290505 0.298250
v -0.278714 0.288335 0.298250
v -0.217604 0.288335 0.298250
v -0.217604 0.290505 0.298250
v -0.295740 0.269973 0.298040
v -0.356850 0.269973 0.298040
v -0.295740 0.278856 0.298140
v -0.295740 0.281026 0.298140
v -0.356850 0.293551 0.298720
v -0.356850 0.291381 0.298720
v -0.356850 0.285515 0.298140
v -0.356850 0.283345 0.298140
v -0.295740 0.293551 0.298720
v -0.295740 0.291381 0.298720
v -0.356850 0.272143 0.298040
v -0.295740 0.272143 0.298040
v -0.295740 0.287634 0.298250
v -0.356850 0.289804 0.298250
v -0.356850 0.287634 0.298250
v -0.295740 0.289804 0.298250
v -0.356850 0.278856 0.298140
v -0.356850 0.281026 0.298140
v -0.356850 0.276589 0.298170
v -0.356850 0.274419 0.298170
v -0.295740 0.283345 0.298140
v -0.295740 0.285515 0.298140
v -0.295740 0.274419 0.298170
v -0.295740 0.276589 0.298170
v -0.429964 0.293422 0.298720
v -0.368854 0.293422 0.298720
v -0.429964 0.272014 0.298040
v -0.368854 0.272014 0.298040
v -0.368854 0.269844 0.298040
v -0.368854 0.283216 0.298140
v -0.368854 0.285386 0.298140
v -0.429964 0.280897 0.298140
v -0.429964 0.278727 0.298140
v -0.368854 0.278727 0.298140
v -0.368854 0.280897 0.298140
v -0.429964 0.276460 0.298170
v -0.429964 0.274290 0.298170
v -0.429964 0.285386 0.298140
v -0.429964 0.283216 0.298140
v -0.429964 0.291252 0.298720
v -0.368854 0.274290 0.298170
v -0.429964 0.269844 0.298040
v -0.429964 0.289675 0.298250
v -0.429964 0.287505 0.298250
v -0.368854 0.276460 0.298170
v -0.368854 0.287505 0.298250
v -0.368854 0.289675 0.298250
v -0.368854 0.291252 0.298720
f 1 2 3
f 2 1 4
f 5 6 7
f 6 5 8
f 6 9 10
f 9 6 8
f 9 8 11
f 9 11 12
f 12 11 13
f 12 13 14
f 12 14 15
f 15 14 16
f 10 17 18
f 17 10 9
f 18 17 19
f 18 19 16
f 18 16 14
f 18 14 20
f 21 22 23
f 22 21 24
f 24 21 25
f 25 21 5
f 25 5 26
f 26 5 27
f 27 5 28
f 28 5 29
f 29 5 30
f 30 5 31
f 22 32 7
f 32 22 24
f 7 32 33
f 33 32 26
f 33 26 27
f 7 33 34
f 7 34 35
f 7 35 31
f 7 31 5
f 6 22 7
f 22 6 36
f 36 6 37
f 37 6 10
f 38 39 40
f 39 38 41
f 39 41 42
f 43 44 45
f 44 43 46
f 44 46 42
f 42 46 39
f 23 47 45
f 47 23 48
f 47 48 49
f 49 48 40
f 40 48 38
f 43 45 47
f 23 36 22
f 36 23 50
f 50 23 51
f 52 41 48
f 41 52 53
f 53 52 54
f 53 54 55
f 50 56 36
f 36 57 37
f 57 36 56
f 58 57 56
f 57 58 59
f 60 61 62
f 61 60 63
f 61 63 64
f 64 63 65
f 62 66 67
f 66 62 61
f 67 66 65
f 67 65 63
f 62 26 32
f 26 62 67
f 24 62 32
f 62 24 60
f 63 24 25
f 24 63 60
f 63 26 67
f 26 63 25
f 65 68 69
f 68 65 66
f 70 65 69
f 65 70 64
f 61 70 71
f 70 61 64
f 61 68 66
f 68 61 71
f 41 38 48
f 45 51 23
f 72 23 48
f 23 72 21
f 39 73 40
f 73 39 74
f 40 75 76
f 75 40 73
f 77 39 46
f 39 77 74
f 78 43 79
f 43 78 80
f 43 80 46
f 46 80 77
f 79 47 81
f 47 79 43
f 82 47 49
f 47 82 81
f 49 76 82
f 76 49 40
f 18 59 83
f 59 18 37
f 37 18 10
f 37 57 59
f 55 84 54
f 84 55 85
f 85 55 83
f 85 83 20
f 20 83 18
f 55 58 53
f 58 55 59
f 59 55 83
f 53 42 41
f 50 58 56
f 58 50 44
f 44 50 51
f 44 51 45
f 58 44 42
f 58 42 53
f 86 87 88
f 87 86 89
f 87 89 90
f 90 89 91
f 90 91 92
f 92 91 93
f 93 91 94
f 94 91 95
f 95 91 96
f 96 91 97
f 97 91 98
f 98 91 99
f 99 91 100
f 100 91 101
f 101 91 102
f 91 89 103
f 103 89 104
f 104 89 105
f 104 105 106
f 106 105 107
f 107 105 108
f 108 105 109
f 109 105 110
f 110 105 111
f 111 105 112
f 112 105 113
f 113 105 114
f 114 105 115
f 105 89 116
f 116 89 117
f 117 89 118
f 117 118 119
f 119 118 120
f 120 118 121
f 121 118 122
f 122 118 123
f 123 118 124
f 124 118 125
f 125 118 126
f 126 118 127
f 127 118 128
f 118 89 129
f 129 89 130
f 130 89 131
f 130 131 132
f 132 131 133
f 133 131 134
f 134 131 135
f 135 131 136
f 136 131 137
f 137 131 138
f 138 131 139
f 139 131 140
f 140 131 141
f 131 89 142
f 142 89 143
f 143 89 144
f 143 144 145
f 145 144 146
f 146 144 147
f 147 144 148
f 148 144 149
f 149 144 150
f 150 144 151
f 151 144 152
f 152 144 153
f 153 144 154
f 144 89 155
f 155 89 156
f 156 89 157
f 156 157 158
f 158 157 159
f 159 157 160
f 160 157 161
f 161 157 162
f 162 157 163
f 163 157 164
f 164 157 165
f 165 157 166
f 166 157 167
f 157 89 168
f 168 89 169
f 169 89 170
f 170 89 171
f 170 171 172
f 172 171 173
f 173 171 174
f 174 171 175
f 175 171 176
f 176 171 177
f 177 171 178
f 178 171 179
f 179 171 180
f 171 89 181
f 181 89 182
f 182 89 183
f 183 89 184
f 184 89 185
f 185 89 186
f 185 186 187
f 187 186 188
f 188 186 189
f 189 186 190
f 190 186 191
f 191 186 192
f 192 186 193
f 186 89 194
f 194 89 195
f 195 89 196
f 196 89 197
f 197 89 198
f 198 89 199
f 199 89 200
f 200 89 201
f 201 89 202
f 201 202 203
f 203 202 204
f 204 202 205
f 205 202 206
f 202 89 207
f 207 89 208
f 208 89 209
f 209 89 210
f 210 89 211
f 211 89 212
f 212 89 213
f 213 89 214
f 214 89 215
f 215 89 216
f 216 89 217
f 217 89 218
f 88 219 220
f 219 88 87
f 219 87 221
f 219 221 222
f 219 222 223
f 219 223 224
f 219 224 225
f 219 225 226
f 219 226 227
f 219 227 228
f 219 228 229
f 219 229 230
f 220 219 102
f 220 102 231
f 231 102 91
f 231 91 232
f 231 232 233
f 231 233 234
f 231 234 235
f 231 235 236
f 231 236 237
f 231 237 238
f 231 238 239
f 231 239 240
f 231 240 241
f 220 231 242
f 242 231 115
f 242 115 105
f 242 105 243
f 242 243 244
f 242 244 245
f 242 245 246
f 242 246 247
f 242 247 248
f 242 248 249
f 242 249 250
f 242 250 251
f 242 251 252
f 220 242 253
f 253 242 128
f 253 128 118
f 253 118 254
f 253 254 255
f 253 255 256
f 253 256 257
f 253 257 258
f 253 258 259
f 253 259 260
f 253 260 261
f 253 261 262
f 253 262 263
f 220 253 141
f 220 141 264
f 264 141 131
f 264 131 265
f 264 265 266
f 264 266 267
f 264 267 268
f 264 268 269
f 264 269 270
f 264 270 271
f 264 271 272
f 264 272 273
f 264 273 274
f 220 264 275
f 275 264 154
f 275 154 144
f 275 144 276
f 275 276 277
f 275 277 278
f 275 278 279
f 275 279 280
f 275 280 281
f 275 281 282
f 275 282 283
f 275 283 284
f 275 284 285
f 220 275 167
f 220 167 286
f 286 167 157
f 286 157 287
f 286 287 288
f 286 288 289
f 286 289 290
f 286 290 291
f 286 291 292
f 286 292 293
f 286 293 294
f 286 294 295
f 286 295 296
f 220 286 180
f 220 180 297
f 297 180 171
f 297 171 298
f 297 298 299
f 297 299 300
f 297 300 301
f 297 301 302
f 297 302 303
f 297 303 304
f 297 304 305
f 297 305 306
f 297 306 307
f 220 297 193
f 220 193 308
f 308 193 186
f 308 186 309
f 308 309 310
f 308 310 311
f 308 311 312
f 308 312 313
f 308 313 314
f 308 314 315
f 308 315 316
f 308 316 317
f 308 317 318
f 220 308 206
f 220 206 319
f 319 206 202
f 319 202 320
f 319 320 321
f 319 321 322
f 319 322 323
f 319 323 324
f 319 324 325
f 319 325 326
f 319 326 327
f 319 327 328
f 319 328 329
f 220 319 218
f 220 218 89
f 216 329 328
f 329 216 217
f 214 327 326
f 327 214 215
f 212 325 324
f 325 212 213
f 210 323 322
f 323 210 211
f 208 321 320
f 321 208 209
f 204 318 317
f 318 204 205
f 201 316 315
f 316 201 203
f 199 314 313
f 314 199 200
f 197 312 311
f 312 197 198
f 195 310 309
f 310 195 196
f 191 307 306
f 307 191 192
f 189 305 304
f 305 189 190
f 187 303 302
f 303 187 188
f 184 301 300
f 301 184 185
f 182 299 298
f 299 182 183
f 178 296 295
f 296 178 179
f 176 294 293
f 294 176 177
f 174 292 291
f 292 174 175
f 172 290 289
f 290 172 173
f 169 288 287
f 288 169 170
f 165 285 284
f 285 165 166
f 163 283 282
f 283 163 164
f 161 281 280
f 281 161 162
f 159 279 278
f 279 159 160
f 156 277 276
f 277 156 158
f 152 274 273
f 274 152 153
f 150 272 271
f 272 150 151
f 148 270 269
f 270 148 149
f 146 268 267
f 268 146 147
f 143 266 265
f 266 143 145
f 139 263 262
f 263 139 140
f 137 261 260
f 261 137 138
f 135 259 258
f 259 135 136
f 133 257 256
f 257 133 134
f 130 255 254
f 255 130 132
f 126 252 251
f 252 126 127
f 124 250 249
f 250 124 125
f 122 248 247
f 248 122 123
f 120 246 245
f 246 120 121
f 117 244 243
f 244 117 119
f 113 241 240
f 241 113 114
f 111 239 238
f 239 111 112
f 109 237 236
f 237 109 110
f 107 235 234
f 235 107 108
f 104 233 232
f 233 104 106
f 100 230 229
f 230 100 101
f 98 228 227
f 228 98 99
f 96 226 225
f 226 96 97
f 94 224 223
f 224 94 95
f 92 222 221
f 222 92 93
f 330 331 332
f 331 330 333
f 331 333 334
f 334 333 335
f 335 333 336
f 336 333 337
f 337 333 338
f 338 333 339
f 339 333 340
f 339 340 341
f 341 340 342
f 342 340 343
f 343 340 344
f 344 340 345
f 345 340 346
f 340 333 347
f 347 333 348
f 348 333 349
f 349 333 350
f 350 333 351
f 351 333 352
f 352 333 353
f 353 333 354
f 354 333 355
f 355 333 356
f 356 333 357
f 357 333 358
f 332 359 360
f 359 332 331
f 359 331 361
f 359 361 362
f 359 362 363
f 359 363 364
f 359 364 365
f 359 365 366
f 359 366 367
f 359 367 368
f 359 368 369
f 359 369 370
f 360 359 346
f 360 346 371
f 371 346 340
f 371 340 372
f 371 372 373
f 371 373 374
f 371 374 375
f 371 375 376
f 371 376 377
f 371 377 378
f 371 378 379
f 371 379 380
f 371 380 381
f 360 371 358
f 360 358 333
f 356 381 380
f 381 356 357
f 354 379 378
f 379 354 355
f 352 377 376
f 377 352 353
f 350 375 374
f 375 350 351
f 348 373 372
f 373 348 349
f 344 370 369
f 370 344 345
f 342 368 367
f 368 342 343
f 339 366 365
f 366 339 341
f 337 364 363
f 364 337 338
f 335 362 361
f 362 335 336
f 382 383 384
f 383 382 385
f 383 385 386
f 386 385 387
f 384 388 389
f 388 384 383
f 389 388 387
f 389 387 385
f 384 390 382
f 390 384 391
f 390 385 382
f 385 390 15
f 15 390 12
f 16 385 15
f 385 16 389
f 16 384 389
f 384 16 391
f 391 16 19
f 332 383 330
f 383 332 388
f 332 387 388
f 387 332 360
f 387 333 386
f 333 387 360
f 333 383 386
f 383 333 330
f 392 393 394
f 393 392 390
f 393 390 395
f 395 390 396
f 394 397 391
f 397 394 393
f 391 397 396
f 391 396 390
f 19 394 391
f 394 19 17
f 394 9 392
f 9 394 17
f 9 390 392
f 390 9 12
f 88 393 86
f 393 88 397
f 88 396 397
f 396 88 220
f 396 89 395
f 89 396 220
f 89 393 395
f 393 89 86
f 398 399 400
f 399 398 401
f 399 340 400
f 340 399 372
f 340 398 400
f 398 340 347
f 348 398 347
f 398 348 401
f 348 399 401
f 399 348 372
f 402 403 404
f 403 402 405
f 403 373 404
f 373 403 374
f 373 402 404
f 402 373 349
f 350 402 349
f 402 350 405
f 350 403 405
f 403 350 374
f 406 407 408
f 407 406 409
f 407 375 408
f 375 407 376
f 375 406 408
f 406 375 351
f 352 406 351
f 406 352 409
f 352 407 409
f 407 352 376
f 410 411 412
f 411 410 413
f 411 377 412
f 377 411 378
f 377 410 412
f 410 377 353
f 354 410 353
f 410 354 413
f 354 411 413
f 411 354 378
f 414 415 416
f 415 414 417
f 415 379 416
f 379 415 380
f 379 414 416
f 414 379 355
f 356 414 355
f 414 356 417
f 356 415 417
f 415 356 380
f 418 419 420
f 419 418 421
f 419 381 420
f 381 419 371
f 381 418 420
f 418 381 357
f 358 418 357
f 418 358 421
f 358 419 421
f 419 358 371
f 335 422 423
f 422 335 361
f 346 424 425
f 424 346 359
f 424 370 426
f 370 424 359
f 427 366 428
f 366 427 367
f 342 429 341
f 429 342 430
f 342 427 430
f 427 342 367
f 370 431 426
f 431 370 345
f 346 431 345
f 431 346 425
f 337 432 433
f 432 337 363
f 422 331 434
f 331 422 361
f 339 435 436
f 435 339 365
f 366 429 428
f 429 366 341
f 344 437 343
f 437 344 438
f 368 437 439
f 437 368 343
f 344 440 438
f 440 344 369
f 339 441 338
f 441 339 436
f 440 368 439
f 368 440 369
f 441 435 442
f 435 441 436
f 431 424 426
f 424 431 425
f 432 362 443
f 362 432 363
f 444 432 443
f 432 444 433
f 364 441 442
f 441 364 338
f 445 422 434
f 422 445 423
f 435 364 442
f 364 435 365
f 429 427 428
f 427 429 430
f 335 445 334
f 445 335 423
f 437 440 439
f 440 437 438
f 337 444 336
f 444 337 433
f 362 444 443
f 444 362 336
f 331 445 434
f 445 331 334
f 446 447 448
f 447 446 449
f 450 321 451
f 321 450 322
f 216 452 215
f 452 216 453
f 212 454 211
f 454 212 455
f 323 454 456
f 454 323 211
f 447 329 448
f 329 447 319
f 208 457 207
f 457 208 458
f 452 459 460
f 459 452 453
f 218 446 217
f 446 218 449
f 327 452 460
f 452 327 215
f 202 457 461
f 457 202 207
f 216 459 453
f 459 216 328
f 208 462 458
f 462 208 320
f 457 462 461
f 462 457 458
f 214 463 464
f 463 214 326
f 465 463 466
f 463 465 464
f 210 467 209
f 467 210 468
f 459 327 460
f 327 459 328
f 329 446 448
f 446 329 217
f 467 450 451
f 450 467 468
f 321 467 451
f 467 321 209
f 325 465 466
f 465 325 213
f 214 465 213
f 465 214 464
f 469 323 456
f 323 469 324
f 218 447 449
f 447 218 319
f 454 469 456
f 469 454 455
f 463 325 466
f 325 463 326
f 212 469 455
f 469 212 324
f 210 450 468
f 450 210 322
f 462 202 461
f 202 462 320
f 470 314 471
f 314 470 315
f 472 473 474
f 473 472 475
f 476 310 477
f 310 476 311
f 478 316 479
f 316 478 317
f 197 480 196
f 480 197 481
f 204 482 203
f 482 204 483
f 316 482 479
f 482 316 203
f 204 478 483
f 478 204 317
f 201 470 484
f 470 201 315
f 310 480 477
f 480 310 196
f 206 485 205
f 485 206 486
f 487 488 489
f 488 487 490
f 491 470 471
f 470 491 484
f 480 476 477
f 476 480 481
f 199 473 475
f 473 199 313
f 482 478 479
f 478 482 483
f 312 472 474
f 472 312 198
f 197 476 481
f 476 197 311
f 488 186 489
f 186 488 309
f 485 492 493
f 492 485 486
f 318 485 493
f 485 318 205
f 199 472 198
f 472 199 475
f 314 491 471
f 491 314 200
f 195 487 194
f 487 195 490
f 492 318 493
f 318 492 308
f 186 487 489
f 487 186 194
f 201 491 200
f 491 201 484
f 473 312 474
f 312 473 313
f 195 488 490
f 488 195 309
f 206 492 486
f 492 206 308
f 494 495 496
f 495 494 497
f 191 495 497
f 495 191 306
f 498 499 500
f 499 498 501
f 502 307 503
f 307 502 297
f 301 504 505
f 504 301 185
f 171 498 500
f 498 171 181
f 187 504 185
f 504 187 506
f 507 301 505
f 301 507 302
f 189 508 188
f 508 189 509
f 187 507 506
f 507 187 302
f 299 510 511
f 510 299 183
f 182 498 181
f 498 182 501
f 495 305 496
f 305 495 306
f 512 303 513
f 303 512 304
f 504 507 505
f 507 504 506
f 303 508 513
f 508 303 188
f 193 514 192
f 514 193 515
f 499 171 500
f 171 499 298
f 184 510 183
f 510 184 516
f 184 517 516
f 517 184 300
f 510 517 511
f 517 510 516
f 193 502 515
f 502 193 297
f 514 502 503
f 502 514 515
f 191 494 190
f 494 191 497
f 182 499 501
f 499 182 298
f 305 494 496
f 494 305 190
f 189 512 509
f 512 189 304
f 517 299 511
f 299 517 300
f 508 512 513
f 512 508 509
f 307 514 503
f 514 307 192
f 518 294 519
f 294 518 295
f 294 520 519
f 520 294 177
f 521 522 523
f 522 521 524
f 525 288 526
f 288 525 289
f 520 518 519
f 518 520 527
f 528 157 529
f 157 528 287
f 530 531 532
f 531 530 533
f 178 518 527
f 518 178 295
f 178 520 177
f 520 178 527
f 288 534 526
f 534 288 170
f 296 521 523
f 521 296 179
f 290 535 536
f 535 290 173
f 176 531 533
f 531 176 293
f 292 530 532
f 530 292 175
f 522 296 523
f 296 522 286
f 537 290 536
f 290 537 291
f 180 522 524
f 522 180 286
f 172 525 538
f 525 172 289
f 157 539 529
f 539 157 168
f 531 292 532
f 292 531 293
f 174 537 540
f 537 174 291
f 535 537 536
f 537 535 540
f 174 535 173
f 535 174 540
f 169 539 168
f 539 169 541
f 176 530 175
f 530 176 533
f 539 528 529
f 528 539 541
f 534 525 526
f 525 534 538
f 172 534 170
f 534 172 538
f 169 528 541
f 528 169 287
f 180 521 179
f 521 180 524
f 542 543 544
f 543 542 545
f 546 547 548
f 547 546 549
f 550 551 552
f 551 550 553
f 554 555 556
f 555 554 557
f 167 558 166
f 558 167 559
f 283 550 552
f 550 283 164
f 547 144 548
f 144 547 276
f 165 550 164
f 550 165 553
f 159 554 158
f 554 159 557
f 167 560 559
f 560 167 275
f 159 555 557
f 555 159 278
f 161 561 160
f 561 161 562
f 277 554 556
f 554 277 158
f 551 283 552
f 283 551 284
f 555 277 556
f 277 555 278
f 563 279 564
f 279 563 280
f 281 542 544
f 542 281 162
f 156 547 549
f 547 156 276
f 560 285 565
f 285 560 275
f 543 281 544
f 281 543 282
f 161 563 562
f 563 161 280
f 279 561 564
f 561 279 160
f 163 543 545
f 543 163 282
f 285 558 565
f 558 285 166
f 558 560 565
f 560 558 559
f 156 546 155
f 546 156 549
f 144 546 548
f 546 144 155
f 561 563 564
f 563 561 562
f 163 542 162
f 542 163 545
f 165 551 553
f 551 165 284
f 150 566 149
f 566 150 567
f 274 568 569
f 568 274 153
f 268 570 571
f 570 268 147
f 143 572 142
f 572 143 573
f 574 575 576
f 575 574 577
f 152 578 579
f 578 152 273
f 580 578 581
f 578 580 579
f 272 580 581
f 580 272 151
f 270 566 582
f 566 270 149
f 578 272 581
f 272 578 273
f 148 583 584
f 583 148 269
f 583 268 571
f 268 583 269
f 585 131 586
f 131 585 265
f 146 574 145
f 574 146 577
f 570 583 571
f 583 570 584
f 131 572 586
f 572 131 142
f 587 270 582
f 270 587 271
f 266 574 576
f 574 266 145
f 148 570 147
f 570 148 584
f 572 585 586
f 585 572 573
f 143 585 573
f 585 143 265
f 566 587 582
f 587 566 567
f 154 568 153
f 568 154 588
f 146 575 577
f 575 146 267
f 589 274 569
f 274 589 264
f 575 266 576
f 266 575 267
f 154 589 588
f 589 154 264
f 150 587 567
f 587 150 271
f 568 589 569
f 589 568 588
f 152 580 151
f 580 152 579
f 590 591 592
f 591 590 593
f 594 261 595
f 261 594 262
f 139 596 138
f 596 139 597
f 139 594 597
f 594 139 262
f 598 118 599
f 118 598 254
f 141 600 601
f 600 141 253
f 602 259 603
f 259 602 260
f 135 604 134
f 604 135 605
f 604 606 607
f 606 604 605
f 133 590 132
f 590 133 593
f 261 596 595
f 596 261 138
f 137 602 608
f 602 137 260
f 135 606 605
f 606 135 258
f 591 255 592
f 255 591 256
f 137 609 136
f 609 137 608
f 610 598 599
f 598 610 611
f 606 257 607
f 257 606 258
f 130 610 129
f 610 130 611
f 609 602 603
f 602 609 608
f 133 591 593
f 591 133 256
f 141 612 140
f 612 141 601
f 257 604 607
f 604 257 134
f 612 600 613
f 600 612 601
f 263 612 613
f 612 263 140
f 118 610 599
f 610 118 129
f 130 598 611
f 598 130 254
f 259 609 603
f 609 259 136
f 596 594 595
f 594 596 597
f 255 590 592
f 590 255 132
f 600 263 613
f 263 600 253
f 614 615 616
f 615 614 617
f 615 252 616
f 252 615 242
f 618 619 620
f 619 618 621
f 622 623 624
f 623 622 625
f 117 626 116
f 626 117 627
f 626 628 629
f 628 626 627
f 630 631 632
f 631 630 633
f 128 614 127
f 614 128 617
f 634 250 635
f 250 634 251
f 628 105 629
f 105 628 243
f 126 636 125
f 636 126 637
f 250 636 635
f 636 250 125
f 126 634 637
f 634 126 251
f 244 618 620
f 618 244 119
f 619 244 620
f 244 619 245
f 128 615 617
f 615 128 242
f 117 628 627
f 628 117 243
f 623 246 624
f 246 623 247
f 122 622 121
f 622 122 625
f 248 630 632
f 630 248 123
f 120 619 621
f 619 120 245
f 124 631 633
f 631 124 249
f 631 248 632
f 248 631 249
f 636 634 635
f 634 636 637
f 122 623 625
f 623 122 247
f 246 622 624
f 622 246 121
f 120 618 119
f 618 120 621
f 124 630 123
f 630 124 633
f 252 614 616
f 614 252 127
f 105 626 629
f 626 105 116
f 91 638 639
f 638 91 103
f 109 640 108
f 640 109 641
f 642 241 643
f 241 642 231
f 644 237 645
f 237 644 238
f 115 642 646
f 642 115 231
f 241 647 643
f 647 241 114
f 115 647 114
f 647 115 646
f 638 648 639
f 648 638 649
f 650 651 652
f 651 650 653
f 235 640 654
f 640 235 108
f 640 655 654
f 655 640 641
f 656 233 657
f 233 656 234
f 109 655 641
f 655 109 236
f 658 644 645
f 644 658 659
f 651 239 652
f 239 651 240
f 107 660 106
f 660 107 661
f 104 638 103
f 638 104 649
f 647 642 643
f 642 647 646
f 113 651 653
f 651 113 240
f 111 644 659
f 644 111 238
f 107 656 661
f 656 107 234
f 104 648 649
f 648 104 232
f 113 650 112
f 650 113 653
f 239 650 652
f 650 239 112
f 111 658 110
f 658 111 659
f 660 656 657
f 656 660 661
f 655 235 654
f 235 655 236
f 237 658 645
f 658 237 110
f 233 660 657
f 660 233 106
f 648 91 639
f 91 648 232
f 102 662 663
f 662 102 219
f 92 664 665
f 664 92 221
f 92 666 90
f 666 92 665
f 98 667 97
f 667 98 668
f 669 224 670
f 224 669 225
f 671 669 670
f 669 671 672
f 673 222 674
f 222 673 223
f 675 226 676
f 226 675 227
f 662 230 677
f 230 662 219
f 222 678 674
f 678 222 93
f 96 671 95
f 671 96 672
f 87 666 679
f 666 87 90
f 226 667 676
f 667 226 97
f 98 675 668
f 675 98 227
f 680 228 681
f 228 680 229
f 94 678 93
f 678 94 682
f 100 683 99
f 683 100 684
f 94 673 682
f 673 94 223
f 678 673 674
f 673 678 682
f 96 669 672
f 669 96 225
f 667 675 676
f 675 667 668
f 102 685 101
f 685 102 663
f 228 683 681
f 683 228 99
f 100 680 684
f 680 100 229
f 666 664 679
f 664 666 665
f 683 680 681
f 680 683 684
f 224 671 670
f 671 224 95
f 685 662 677
f 662 685 663
f 230 685 677
f 685 230 101
f 664 87 679
f 87 664 221
f 3 2 1
f 4 1 2
f 7 6 5
f 8 5 6
f 10 9 6
f 8 6 9
f 11 8 9
f 12 11 9
f 13 11 12
f 14 13 12
f 15 14 12
f 16 14 15
f 18 17 10
f 9 10 17
f 19 17 18
f 16 19 18
f 14 16 18
f 20 14 18
f 23 22 21
f 24 21 22
f 25 21 24
f 5 21 25
f 26 5 25
f 27 5 26
f 28 5 27
f 29 5 28
f 30 5 29
f 31 5 30
f 7 32 22
f 24 22 32
f 33 32 7
f 26 32 33
f 27 26 33
f 34 33 7
f 35 34 7
f 31 35 7
f 5 31 7
f 7 22 6
f 36 6 22
f 37 6 36
f 10 6 37
f 40 39 38
f 41 38 39
f 42 41 39
f 45 44 43
f 46 43 44
f 42 46 44
f 39 46 42
f 45 47 23
f 48 23 47
f 49 48 47
f 40 48 49
f 38 48 40
f 47 45 43
f 22 36 23
f 50 23 36
f 51 23 50
f 48 41 52
f 53 52 41
f 54 52 53
f 55 54 53
f 36 56 50
f 37 57 36
f 56 36 57
f 56 57 58
f 59 58 57
f 62 61 60
f 63 60 61
f 64 63 61
f 65 63 64
f 67 66 62
f 61 62 66
f 65 66 67
f 63 65 67
f 32 26 62
f 67 62 26
f 32 62 24
f 60 24 62
f 25 24 63
f 60 63 24
f 67 26 63
f 25 63 26
f 69 68 65
f 66 65 68
f 69 65 70
f 64 70 65
f 71 70 61
f 64 61 70
f 66 68 61
f 71 61 68
f 48 38 41
f 23 51 45
f 48 23 72
f 21 72 23
f 40 73 39
f 74 39 73
f 76 75 40
f 73 40 75
f 46 39 77
f 74 77 39
f 79 43 78
f 80 78 43
f 46 80 43
f 77 80 46
f 81 47 79
f 43 79 47
f 49 47 82
f 81 82 47
f 82 76 49
f 40 49 76
f 83 59 18
f 37 18 59
f 10 18 37
f 59 57 37
f 54 84 55
f 85 55 84
f 83 55 85
f 20 83 85
f 18 83 20
f 53 58 55
f 59 55 58
f 83 55 59
f 41 42 53
f 56 58 50
f 44 50 58
f 51 50 44
f 45 51 44
f 42 44 58
f 53 42 58
f 88 87 86
f 89 86 87
f 90 89 87
f 91 89 90
f 92 91 90
f 93 91 92
f 94 91 93
f 95 91 94
f 96 91 95
f 97 91 96
f 98 91 97
f 99 91 98
f 100 91 99
f 101 91 100
f 102 91 101
f 103 89 91
f 104 89 103
f 105 89 104
f 106 105 104
f 107 105 106
f 108 105 107
f 109 105 108
f 110 105 109
f 111 105 110
f 112 105 111
f 113 105 112
f 114 105 113
f 115 105 114
f 116 89 105
f 117 89 116
f 118 89 117
f 119 118 117
f 120 118 119
f 121 118 120
f 122 118 121
f 123 118 122
f 124 118 123
f 125 118 124
f 126 118 125
f 127 118 126
f 128 118 127
f 129 89 118
f 130 89 129
f 131 89 130
f 132 131 130
f 133 131 132
f 134 131 133
f 135 131 134
f 136 131 135
f 137 131 136
f 138 131 137
f 139 131 138
f 140 131 139
f 141 131 140
f 142 89 131
f 143 89 142
f 144 89 143
f 145 144 143
f 146 144 145
f 147 144 146
f 148 144 147
f 149 144 148
f 150 144 149
f 151 144 150
f 152 144 151
f 153 144 152
f 154 144 153
f 155 89 144
f 156 89 155
f 157 89 156
f 158 157 156
f 159 157 158
f 160 157 159
f 161 157 160
f 162 157 161
f 163 157 162
f 164 157 163
f 165 157 164
f 166 157 165
f 167 157 166
f 168 89 157
f 169 89 168
f 170 89 169
f 171 89 170
f 172 171 170
f 173 171 172
f 174 171 173
f 175 171 174
f 176 171 175
f 177 171 176
f 178 171 177
f 179 171 178
f 180 171 179
f 181 89 171
f 182 89 181
f 183 89 182
f 184 89 183
f 185 89 184
f 186 89 185
f 187 186 185
f 188 186 187
f 189 186 188
f 190 186 189
f 191 186 190
f 192 186 191
f 193 186 192
f 194 89 186
f 195 89 194
f 196 89 195
f 197 89 196
f 198 89 197
f 199 89 198
f 200 89 199
f 201 89 200
f 202 89 201
f 203 202 201
f 204 202 203
f 205 202 204
f 206 202 205
f 207 89 202
f 208 89 207
f 209 89 208
f 210 89 209
f 211 89 210
f 212 89 211
f 213 89 212
f 214 89 213
f 215 89 214
f 216 89 215
f 217 89 216
f 218 89 217
f 220 219 88
f 87 88 219
f 221 87 219
f 222 221 219
f 223 222 219
f 224 223 219
f 225 224 219
f 226 225 219
f 227 226 219
f 228 227 219
f 229 228 219
f 230 229 219
f 102 219 220
f 231 102 220
f 91 102 231
f 232 91 231
f 233 232 231
f 234 233 231
f 235 234 231
f 236 235 231
f 237 236 231
f 238 237 231
f 239 238 231
f 240 239 231
f 241 240 231
f 242 231 220
f 115 231 242
f 105 115 242
f 243 105 242
f 244 243 242
f 245 244 242
f 246 245 242
f 247 246 242
f 248 247 242
f 249 248 242
f 250 249 242
f 251 250 242
f 252 251 242
f 253 242 220
f 128 242 253
f 118 128 253
f 254 118 253
f 255 254 253
f 256 255 253
f 257 256 253
f 258 257 253
f 259 258 253
f 260 259 253
f 261 260 253
f 262 261 253
f 263 262 253
f 141 253 220
f 264 141 220
f 131 141 264
f 265 131 264
f 266 265 264
f 267 266 264
f 268 267 264
f 269 268 264
f 270 269 264
f 271 270 264
f 272 271 264
f 273 272 264
f 274 273 264
f 275 264 220
f 154 264 275
f 144 154 275
f 276 144 275
f 277 276 275
f 278 277 275
f 279 278 275
f 280 279 275
f 281 280 275
f 282 281 275
f 283 282 275
f 284 283 275
f 285 284 275
f 167 275 220
f 286 167 220
f 157 167 286
f 287 157 286
f 288 287 286
f 289 288 286
f 290 289 286
f 291 290 286
f 292 291 286
f 293 292 286
f 294 293 286
f 295 294 286
f 296 295 286
f 180 286 220
f 297 180 220
f 171 180 297
f 298 171 297
f 299 298 297
f 300 299 297
f 301 300 297
f 302 301 297
f 303 302 297
f 304 303 297
f 305 304 297
f 306 305 297
f 307 306 297
f 193 297 220
f 308 193 220
f 186 193 308
f 309 186 308
f 310 309 308
f 311 310 308
f 312 311 308
f 313 312 308
f 314 313 308
f 315 314 308
f 316 315 308
f 317 316 308
f 318 317 308
f 206 308 220
f 319 206 220
f 202 206 319
f 320 202 319
f 321 320 319
f 322 321 319
f 323 322 319
f 324 323 319
f 325 324 319
f 326 325 319
f 327 326 319
f 328 327 319
f 329 328 319
f 218 319 220
f 89 218 220
f 328 329 216
f 217 216 329
f 326 327 214
f 215 214 327
f 324 325 212
f 213 212 325
f 322 323 210
f 211 210 323
f 320 321 208
f 209 208 321
f 317 318 204
f 205 204 318
f 315 316 201
f 203 201 316
f 313 314 199
f 200 199 314
f 311 312 197
f 198 197 312
f 309 310 195
f 196 195 310
f 306 307 191
f 192 191 307
f 304 305 189
f 190 189 305
f 302 303 187
f 188 187 303
f 300 301 184
f 185 184 301
f 298 299 182
f 183 182 299
f 295 296 178
f 179 178 296
f 293 294 176
f 177 176 294
f 291 292 174
f 175 174 292
f 289 290 172
f 173 172 290
f 287 288 169
f 170 169 288
f 284 285 165
f 166 165 285
f 282 283 163
f 164 163 283
f 280 281 161
f 162 161 281
f 278 279 159
f 160 159 279
f 276 277 156
f 158 156 277
f 273 274 152
f 153 152 274
f 271 272 150
f 151 150 272
f 269 270 148
f 149 148 270
f 267 268 146
f 147 146 268
f 265 266 143
f 145 143 266
f 262 263 139
f 140 139 263
f 260 261 137
f 138 137 261
f 258 259 135
f 136 135 259
f 256 257 133
f 134 133 257
f 254 255 130
f 132 130 255
f 251 252 126
f 127 126 252
f 249 250 124
f 125 124 250
f 247 248 122
f 123 122 248
f 245 246 120
f 121 120 246
f 243 244 117
f 119 117 244
f 240 241 113
f 114 113 241
f 238 239 111
f 112 111 239
f 236 237 109
f 110 109 237
f 234 235 107
f 108 107 235
f 232 233 104
f 106 104 233
f 229 230 100
f 101 100 230
f 227 228 98
f 99 98 228
f 225 226 96
f 97 96 226
f 223 224 94
f 95 94 224
f 221 222 92
f 93 92 222
f 332 331 330
f 333 330 331
f 334 333 331
f 335 333 334
f 336 333 335
f 337 333 336
f 338 333 337
f 339 333 338
f 340 333 339
f 341 340 339
f 342 340 341
f 343 340 342
f 344 340 343
f 345 340 344
f 346 340 345
f 347 333 340
f 348 333 347
f 349 333 348
f 350 333 349
f 351 333 350
f 352 333 351
f 353 333 352
f 354 333 353
f 355 333 354
f 356 333 355
f 357 333 356
f 358 333 357
f 360 359 332
f 331 332 359
f 361 331 359
f 362 361 359
f 363 362 359
f 364 363 359
f 365 364 359
f 366 365 359
f 367 366 359
f 368 367 359
f 369 368 359
f 370 369 359
f 346 359 360
f 371 346 360
f 340 346 371
f 372 340 371
f 373 372 371
f 374 373 371
f 375 374 371
f 376 375 371
f 377 376 371
f 378 377 371
f 379 378 371
f 380 379 371
f 381 380 371
f 358 371 360
f 333 358 360
f 380 381 356
f 357 356 381
f 378 379 354
f 355 354 379
f 376 377 352
f 353 352 377
f 374 375 350
f 351 350 375
f 372 373 348
f 349 348 373
f 369 370 344
f 345 344 370
f 367 368 342
f 343 342 368
f 365 366 339
f 341 339 366
f 363 364 337
f 338 337 364
f 361 362 335
f 336 335 362
f 384 383 382
f 385 382 383
f 386 385 383
f 387 385 386
f 389 388 384
f 383 384 388
f 387 388 389
f 385 387 389
f 382 390 384
f 391 384 390
f 382 385 390
f 15 390 385
f 12 390 15
f 15 385 16
f 389 16 385
f 389 384 16
f 391 16 384
f 19 16 391
f 330 383 332
f 388 332 383
f 388 387 332
f 360 332 387
f 386 333 387
f 360 387 333
f 386 383 333
f 330 333 383
f 394 393 392
f 390 392 393
f 395 390 393
f 396 390 395
f 391 397 394
f 393 394 397
f 396 397 391
f 390 396 391
f 391 394 19
f 17 19 394
f 392 9 394
f 17 394 9
f 392 390 9
f 12 9 390
f 86 393 88
f 397 88 393
f 397 396 88
f 220 88 396
f 395 89 396
f 220 396 89
f 395 393 89
f 86 89 393
f 400 399 398
f 401 398 399
f 400 340 399
f 372 399 340
f 400 398 340
f 347 340 398
f 347 398 348
f 401 348 398
f 401 399 348
f 372 348 399
f 404 403 402
f 405 402 403
f 404 373 403
f 374 403 373
f 404 402 373
f 349 373 402
f 349 402 350
f 405 350 402
f 405 403 350
f 374 350 403
f 408 407 406
f 409 406 407
f 408 375 407
f 376 407 375
f 408 406 375
f 351 375 406
f 351 406 352
f 409 352 406
f 409 407 352
f 376 352 407
f 412 411 410
f 413 410 411
f 412 377 411
f 378 411 377
f 412 410 377
f 353 377 410
f 353 410 354
f 413 354 410
f 413 411 354
f 378 354 411
f 416 415 414
f 417 414 415
f 416 379 415
f 380 415 379
f 416 414 379
f 355 379 414
f 355 414 356
f 417 356 414
f 417 415 356
f 380 356 415
f 420 419 418
f 421 418 419
f 420 381 419
f 371 419 381
f 420 418 381
f 357 381 418
f 357 418 358
f 421 358 418
f 421 419 358
f 371 358 419
f 423 422 335
f 361 335 422
f 425 424 346
f 359 346 424
f 426 370 424
f 359 424 370
f 428 366 427
f 367 427 366
f 341 429 342
f 430 342 429
f 430 427 342
f 367 342 427
f 426 431 370
f 345 370 431
f 345 431 346
f 425 346 431
f 433 432 337
f 363 337 432
f 434 331 422
f 361 422 331
f 436 435 339
f 365 339 435
f 428 429 366
f 341 366 429
f 343 437 344
f 438 344 437
f 439 437 368
f 343 368 437
f 438 440 344
f 369 344 440
f 338 441 339
f 436 339 441
f 439 368 440
f 369 440 368
f 442 435 441
f 436 441 435
f 426 424 431
f 425 431 424
f 443 362 432
f 363 432 362
f 443 432 444
f 433 444 432
f 442 441 364
f 338 364 441
f 434 422 445
f 423 445 422
f 442 364 435
f 365 435 364
f 428 427 429
f 430 429 427
f 334 445 335
f 423 335 445
f 439 440 437
f 438 437 440
f 336 444 337
f 433 337 444
f 443 444 362
f 336 362 444
f 434 445 331
f 334 331 445
f 448 447 446
f 449 446 447
f 451 321 450
f 322 450 321
f 215 452 216
f 453 216 452
f 211 454 212
f 455 212 454
f 456 454 323
f 211 323 454
f 448 329 447
f 319 447 329
f 207 457 208
f 458 208 457
f 460 459 452
f 453 452 459
f 217 446 218
f 449 218 446
f 460 452 327
f 215 327 452
f 461 457 202
f 207 202 457
f 453 459 216
f 328 216 459
f 458 462 208
f 320 208 462
f 461 462 457
f 458 457 462
f 464 463 214
f 326 214 463
f 466 463 465
f 464 465 463
f 209 467 210
f 468 210 467
f 460 327 459
f 328 459 327
f 448 446 329
f 217 329 446
f 451 450 467
f 468 467 450
f 451 467 321
f 209 321 467
f 466 465 325
f 213 325 465
f 213 465 214
f 464 214 465
f 456 323 469
f 324 469 323
f 449 447 218
f 319 218 447
f 456 469 454
f 455 454 469
f 466 325 463
f 326 463 325
f 455 469 212
f 324 212 469
f 468 450 210
f 322 210 450
f 461 202 462
f 320 462 202
f 471 314 470
f 315 470 314
f 474 473 472
f 475 472 473
f 477 310 476
f 311 476 310
f 479 316 478
f 317 478 316
f 196 480 197
f 481 197 480
f 203 482 204
f 483 204 482
f 479 482 316
f 203 316 482
f 483 478 204
f 317 204 478
f 484 470 201
f 315 201 470
f 477 480 310
f 196 310 480
f 205 485 206
f 486 206 485
f 489 488 487
f 490 487 488
f 471 470 491
f 484 491 470
f 477 476 480
f 481 480 476
f 475 473 199
f 313 199 473
f 479 478 482
f 483 482 478
f 474 472 312
f 198 312 472
f 481 476 197
f 311 197 476
f 489 186 488
f 309 488 186
f 493 492 485
f 486 485 492
f 493 485 318
f 205 318 485
f 198 472 199
f 475 199 472
f 471 491 314
f 200 314 491
f 194 487 195
f 490 195 487
f 493 318 492
f 308 492 318
f 489 487 186
f 194 186 487
f 200 491 201
f 484 201 491
f 474 312 473
f 313 473 312
f 490 488 195
f 309 195 488
f 486 492 206
f 308 206 492
f 496 495 494
f 497 494 495
f 497 495 191
f 306 191 495
f 500 499 498
f 501 498 499
f 503 307 502
f 297 502 307
f 505 504 301
f 185 301 504
f 500 498 171
f 181 171 498
f 185 504 187
f 506 187 504
f 505 301 507
f 302 507 301
f 188 508 189
f 509 189 508
f 506 507 187
f 302 187 507
f 511 510 299
f 183 299 510
f 181 498 182
f 501 182 498
f 496 305 495
f 306 495 305
f 513 303 512
f 304 512 303
f 505 507 504
f 506 504 507
f 513 508 303
f 188 303 508
f 192 514 193
f 515 193 514
f 500 171 499
f 298 499 171
f 183 510 184
f 516 184 510
f 516 517 184
f 300 184 517
f 511 517 510
f 516 510 517
f 515 502 193
f 297 193 502
f 503 502 514
f 515 514 502
f 190 494 191
f 497 191 494
f 501 499 182
f 298 182 499
f 496 494 305
f 190 305 494
f 509 512 189
f 304 189 512
f 511 299 517
f 300 517 299
f 513 512 508
f 509 508 512
f 503 514 307
f 192 307 514
f 519 294 518
f 295 518 294
f 519 520 294
f 177 294 520
f 523 522 521
f 524 521 522
f 526 288 525
f 289 525 288
f 519 518 520
f 527 520 518
f 529 157 528
f 287 528 157
f 532 531 530
f 533 530 531
f 527 518 178
f 295 178 518
f 177 520 178
f 527 178 520
f 526 534 288
f 170 288 534
f 523 521 296
f 179 296 521
f 536 535 290
f 173 290 535
f 533 531 176
f 293 176 531
f 532 530 292
f 175 292 530
f 523 296 522
f 286 522 296
f 536 290 537
f 291 537 290
f 524 522 180
f 286 180 522
f 538 525 172
f 289 172 525
f 529 539 157
f 168 157 539
f 532 292 531
f 293 531 292
f 540 537 174
f 291 174 537
f 536 537 535
f 540 535 537
f 173 535 174
f 540 174 535
f 168 539 169
f 541 169 539
f 175 530 176
f 533 176 530
f 529 528 539
f 541 539 528
f 526 525 534
f 538 534 525
f 170 534 172
f 538 172 534
f 541 528 169
f 287 169 528
f 179 521 180
f 524 180 521
f 544 543 542
f 545 542 543
f 548 547 546
f 549 546 547
f 552 551 550
f 553 550 551
f 556 555 554
f 557 554 555
f 166 558 167
f 559 167 558
f 552 550 283
f 164 283 550
f 548 144 547
f 276 547 144
f 164 550 165
f 553 165 550
f 158 554 159
f 557 159 554
f 559 560 167
f 275 167 560
f 557 555 159
f 278 159 555
f 160 561 161
f 562 161 561
f 556 554 277
f 158 277 554
f 552 283 551
f 284 551 283
f 556 277 555
f 278 555 277
f 564 279 563
f 280 563 279
f 544 542 281
f 162 281 542
f 549 547 156
f 276 156 547
f 565 285 560
f 275 560 285
f 544 281 543
f 282 543 281
f 562 563 161
f 280 161 563
f 564 561 279
f 160 279 561
f 545 543 163
f 282 163 543
f 565 558 285
f 166 285 558
f 565 560 558
f 559 558 560
f 155 546 156
f 549 156 546
f 548 546 144
f 155 144 546
f 564 563 561
f 562 561 563
f 162 542 163
f 545 163 542
f 553 551 165
f 284 165 551
f 149 566 150
f 567 150 566
f 569 568 274
f 153 274 568
f 571 570 268
f 147 268 570
f 142 572 143
f 573 143 572
f 576 575 574
f 577 574 575
f 579 578 152
f 273 152 578
f 581 578 580
f 579 580 578
f 581 580 272
f 151 272 580
f 582 566 270
f 149 270 566
f 581 272 578
f 273 578 272
f 584 583 148
f 269 148 583
f 571 268 583
f 269 583 268
f 586 131 585
f 265 585 131
f 145 574 146
f 577 146 574
f 571 583 570
f 584 570 583
f 586 572 131
f 142 131 572
f 582 270 587
f 271 587 270
f 576 574 266
f 145 266 574
f 147 570 148
f 584 148 570
f 586 585 572
f 573 572 585
f 573 585 143
f 265 143 585
f 582 587 566
f 567 566 587
f 153 568 154
f 588 154 568
f 577 575 146
f 267 146 575
f 569 274 589
f 264 589 274
f 576 266 575
f 267 575 266
f 588 589 154
f 264 154 589
f 567 587 150
f 271 150 587
f 569 589 568
f 588 568 589
f 151 580 152
f 579 152 580
f 592 591 590
f 593 590 591
f 595 261 594
f 262 594 261
f 138 596 139
f 597 139 596
f 597 594 139
f 262 139 594
f 599 118 598
f 254 598 118
f 601 600 141
f 253 141 600
f 603 259 602
f 260 602 259
f 134 604 135
f 605 135 604
f 607 606 604
f 605 604 606
f 132 590 133
f 593 133 590
f 595 596 261
f 138 261 596
f 608 602 137
f 260 137 602
f 605 606 135
f 258 135 606
f 592 255 591
f 256 591 255
f 136 609 137
f 608 137 609
f 599 598 610
f 611 610 598
f 607 257 606
f 258 606 257
f 129 610 130
f 611 130 610
f 603 602 609
f 608 609 602
f 593 591 133
f 256 133 591
f 140 612 141
f 601 141 612
f 607 604 257
f 134 257 604
f 613 600 612
f 601 612 600
f 613 612 263
f 140 263 612
f 599 610 118
f 129 118 610
f 611 598 130
f 254 130 598
f 603 609 259
f 136 259 609
f 595 594 596
f 597 596 594
f 592 590 255
f 132 255 590
f 613 263 600
f 253 600 263
f 616 615 614
f 617 614 615
f 616 252 615
f 242 615 252
f 620 619 618
f 621 618 619
f 624 623 622
f 625 622 623
f 116 626 117
f 627 117 626
f 629 628 626
f 627 626 628
f 632 631 630
f 633 630 631
f 127 614 128
f 617 128 614
f 635 250 634
f 251 634 250
f 629 105 628
f 243 628 105
f 125 636 126
f 637 126 636
f 635 636 250
f 125 250 636
f 637 634 126
f 251 126 634
f 620 618 244
f 119 244 618
f 620 244 619
f 245 619 244
f 617 615 128
f 242 128 615
f 627 628 117
f 243 117 628
f 624 246 623
f 247 623 246
f 121 622 122
f 625 122 622
f 632 630 248
f 123 248 630
f 621 619 120
f 245 120 619
f 633 631 124
f 249 124 631
f 632 248 631
f 249 631 248
f 635 634 636
f 637 636 634
f 625 623 122
f 247 122 623
f 624 622 246
f 121 246 622
f 119 618 120
f 621 120 618
f 123 630 124
f 633 124 630
f 616 614 252
f 127 252 614
f 629 626 105
f 116 105 626
f 639 638 91
f 103 91 638
f 108 640 109
f 641 109 640
f 643 241 642
f 231 642 241
f 645 237 644
f 238 644 237
f 646 642 115
f 231 115 642
f 643 647 241
f 114 241 647
f 114 647 115
f 646 115 647
f 639 648 638
f 649 638 648
f 652 651 650
f 653 650 651
f 654 640 235
f 108 235 640
f 654 655 640
f 641 640 655
f 657 233 656
f 234 656 233
f 641 655 109
f 236 109 655
f 645 644 658
f 659 658 644
f 652 239 651
f 240 651 239
f 106 660 107
f 661 107 660
f 103 638 104
f 649 104 638
f 643 642 647
f 646 647 642
f 653 651 113
f 240 113 651
f 659 644 111
f 238 111 644
f 661 656 107
f 234 107 656
f 649 648 104
f 232 104 648
f 112 650 113
f 653 113 650
f 652 650 239
f 112 239 650
f 110 658 111
f 659 111 658
f 657 656 660
f 661 660 656
f 654 235 655
f 236 655 235
f 645 658 237
f 110 237 658
f 657 660 233
f 106 233 660
f 639 91 648
f 232 648 91
f 663 662 102
f 219 102 662
f 665 664 92
f 221 92 664
f 90 666 92
f 665 92 666
f 97 667 98
f 668 98 667
f 670 224 669
f 225 669 224
f 670 669 671
f 672 671 669
f 674 222 673
f 223 673 222
f 676 226 675
f 227 675 226
f 677 230 662
f 219 662 230
f 674 678 222
f 93 222 678
f 95 671 96
f 672 96 671
f 679 666 87
f 90 87 666
f 676 667 226
f 97 226 667
f 668 675 98
f 227 98 675
f 681 228 680
f 229 680 228
f 93 678 94
f 682 94 678
f 99 683 100
f 684 100 683
f 682 673 94
f 223 94 673
f 674 673 678
f 682 678 673
f 672 669 96
f 225 96 669
f 676 675 667
f 668 667 675
f 101 685 102
f 663 102 685
f 681 683 228
f 99 228 683
f 684 680 100
f 229 100 680
f 679 664 666
f 665 666 664
f 681 680 683
f 684 683 680
f 670 671 224
f 95 224 671
f 677 662 685
f 663 685 662
f 677 685 230
f 101 230 685
f 679 87 664
f 221 664 87
