v -0.429218 -0.324508 0.110022
v -0.432497 -0.324508 0.105982
v -0.429218 -0.324508 0.105982
v -0.432393 -0.324508 0.106235
v -0.432351 -0.324508 0.106550
v -0.432393 -0.324508 0.106864
v -0.432514 -0.324508 0.107158
v -0.432707 -0.324508 0.107410
v -0.432959 -0.324508 0.107603
v -0.433045 -0.324508 0.107810
v -0.433182 -0.324508 0.107988
v -0.433360 -0.324508 0.108125
v -0.433567 -0.324508 0.108211
v -0.433790 -0.324508 0.108240
v -0.413985 -0.324508 0.089807
v -0.421748 -0.324508 0.096202
v -0.449845 -0.324508 0.089807
v -0.413985 -0.324508 0.115267
v -0.421748 -0.324508 0.102937
v -0.421748 -0.324508 0.104466
v -0.421748 -0.324508 0.110022
v -0.437908 -0.324508 0.110022
v -0.443618 -0.324508 0.110022
v -0.444448 -0.324508 0.110022
v -0.444448 -0.324508 0.096202
v -0.449845 -0.324508 0.115267
v -0.444448 -0.324508 0.102937
v -0.444448 -0.324508 0.104466
v -0.434742 -0.324508 0.106235
v -0.437908 -0.324508 0.105982
v -0.434637 -0.324508 0.105982
v -0.434784 -0.324508 0.106550
v -0.434742 -0.324508 0.106864
v -0.434621 -0.324508 0.107158
v -0.434650 -0.324508 0.107380
v -0.434621 -0.324508 0.107603
v -0.434535 -0.324508 0.107810
v -0.434398 -0.324508 0.107988
v -0.434220 -0.324508 0.108125
v -0.434013 -0.324508 0.108211
v -0.431960 -0.324508 0.097968
v -0.432959 -0.324508 0.098968
v -0.435770 -0.324508 0.097968
v -0.431960 -0.324508 0.100258
v -0.432959 -0.324508 0.100258
v -0.434928 -0.324508 0.098968
v -0.435770 -0.324508 0.100258
v -0.434928 -0.324508 0.100258
v 0.238044 0.021277 0.300220
v 0.225849 -0.324508 0.220426
v 0.238044 -0.154845 0.300220
v 0.120084 0.021277 0.300220
v 0.120084 -0.154845 0.300220
v 0.107889 -0.324508 0.220426
v 0.206222 -0.237290 0.118321
v 0.206974 -0.236978 0.095681
v 0.206222 -0.237290 0.095681
v 0.206974 -0.236978 0.118321
v 0.205575 -0.237786 0.118321
v 0.205575 -0.237786 0.095681
v 0.205080 -0.238432 0.095681
v 0.205080 -0.238432 0.118321
v 0.204768 -0.239185 0.095681
v 0.204768 -0.239185 0.118321
v 0.204662 -0.239992 0.095681
v 0.204662 -0.239992 0.118321
v 0.204768 -0.240800 0.095681
v 0.204768 -0.240800 0.118321
v 0.205080 -0.241552 0.095681
v 0.205080 -0.241552 0.118321
v 0.205575 -0.242198 0.095681
v 0.205575 -0.242198 0.118321
v 0.206222 -0.242694 0.118321
v 0.206222 -0.242694 0.095681
v 0.206974 -0.243006 0.118321
v 0.206974 -0.243006 0.095681
v 0.207782 -0.243112 0.118321
v 0.207782 -0.243112 0.095681
v 0.208589 -0.243006 0.118321
v 0.208589 -0.243006 0.095681
v 0.209342 -0.242694 0.118321
v 0.209342 -0.242694 0.095681
v 0.209988 -0.242198 0.118321
v 0.209988 -0.242198 0.095681
v 0.210484 -0.241552 0.095681
v 0.210484 -0.241552 0.118321
v 0.210795 -0.240800 0.095681
v 0.210795 -0.240800 0.118321
v 0.210902 -0.239992 0.095681
v 0.210902 -0.239992 0.118321
v 0.210795 -0.239185 0.095681
v 0.210795 -0.239185 0.118321
v 0.210484 -0.238432 0.095681
v 0.210484 -0.238432 0.118321
v 0.209988 -0.237786 0.095681
v 0.209988 -0.237786 0.118321
v 0.209342 -0.237290 0.118321
v 0.209342 -0.237290 0.095681
v 0.208589 -0.236978 0.118321
v 0.208589 -0.236978 0.095681
v 0.207782 -0.236872 0.118321
v 0.207782 -0.236872 0.095681
v 0.108126 -0.317778 0.057131
v 0.110975 -0.237015 0.117814
v 0.110905 -0.238999 0.125866
v 0.111116 -0.233015 0.110550
v 0.111318 -0.227273 0.104570
v 0.111568 -0.220180 0.100280
v 0.111849 -0.212219 0.097973
v 0.120084 0.021277 0.057131
v 0.112141 -0.203932 0.097807
v 0.112425 -0.195885 0.099793
v 0.112681 -0.188626 0.103795
v 0.112892 -0.182649 0.109540
v 0.113043 -0.178362 0.116638
v 0.115271 -0.115201 0.099061
v 0.113124 -0.176056 0.124604
v 0.113130 -0.175890 0.132896
v 0.115021 -0.122294 0.103351
v 0.114818 -0.128036 0.109331
v 0.114677 -0.132035 0.116595
v 0.114607 -0.134020 0.124647
v 0.115552 -0.107239 0.096754
v 0.115844 -0.098953 0.096588
v 0.116128 -0.090906 0.098574
v 0.116384 -0.083646 0.102576
v 0.116594 -0.077669 0.108321
v 0.116746 -0.073382 0.115419
v 0.116827 -0.071077 0.123385
v 0.116833 -0.070911 0.131677
v 0.107889 -0.324508 0.091710
v 0.107889 -0.324508 0.057131
v 0.111143 -0.232241 0.149222
v 0.111354 -0.226264 0.154968
v 0.110992 -0.236528 0.142124
v 0.110910 -0.238833 0.134158
v 0.111610 -0.219004 0.158970
v 0.111894 -0.210957 0.160955
v 0.112186 -0.202671 0.160789
v 0.112467 -0.194709 0.158482
v 0.112717 -0.187616 0.154193
v 0.112919 -0.181874 0.148212
v 0.113060 -0.177875 0.140948
v 0.114845 -0.127261 0.148003
v 0.114694 -0.131549 0.140905
v 0.114613 -0.133854 0.132939
v 0.115056 -0.121285 0.153749
v 0.115312 -0.114025 0.157750
v 0.115596 -0.105978 0.159736
v 0.115888 -0.097691 0.159570
v 0.116169 -0.089730 0.157263
v 0.116419 -0.082637 0.152973
v 0.116622 -0.076895 0.146993
v 0.116763 -0.072895 0.139729
v 0.204768 -0.240800 0.129251
v 0.204768 -0.239185 0.129251
v 0.204662 -0.239992 0.129251
v 0.205080 -0.241552 0.129251
v 0.205080 -0.238432 0.129251
v 0.205575 -0.242198 0.129251
v 0.205575 -0.237786 0.129251
v 0.206222 -0.242694 0.129251
v 0.206222 -0.237290 0.129251
v 0.206974 -0.243006 0.129251
v 0.206974 -0.236978 0.129251
v 0.207782 -0.243112 0.129251
v 0.207782 -0.236872 0.129251
v 0.208589 -0.243006 0.129251
v 0.208589 -0.236978 0.129251
v 0.209342 -0.242694 0.129251
v 0.209342 -0.237290 0.129251
v 0.209988 -0.242198 0.129251
v 0.209988 -0.237786 0.129251
v 0.210484 -0.241552 0.129251
v 0.210484 -0.238432 0.129251
v 0.210795 -0.240800 0.129251
v 0.210795 -0.239185 0.129251
v 0.210902 -0.239992 0.129251
v 0.191461 -0.168461 0.118321
v 0.192269 -0.168355 0.095681
v 0.191461 -0.168461 0.095681
v 0.192269 -0.168355 0.118321
v 0.194971 -0.169915 0.095681
v 0.195282 -0.170667 0.118321
v 0.195282 -0.170667 0.095681
v 0.194971 -0.169915 0.118321
v 0.190062 -0.169269 0.118321
v 0.190709 -0.168773 0.095681
v 0.190062 -0.169269 0.095681
v 0.190709 -0.168773 0.118321
v 0.189149 -0.171475 0.118321
v 0.189255 -0.172282 0.095681
v 0.189255 -0.172282 0.118321
v 0.189149 -0.171475 0.095681
v 0.189255 -0.172282 0.129251
v 0.189255 -0.170667 0.129251
v 0.189149 -0.171475 0.129251
v 0.189567 -0.173035 0.129251
v 0.189567 -0.169915 0.129251
v 0.190062 -0.173681 0.129251
v 0.190062 -0.169269 0.129251
v 0.190709 -0.174177 0.129251
v 0.190709 -0.168773 0.129251
v 0.191461 -0.174488 0.129251
v 0.191461 -0.168461 0.129251
v 0.192269 -0.174595 0.129251
v 0.192269 -0.168355 0.129251
v 0.193076 -0.174488 0.129251
v 0.193076 -0.168461 0.129251
v 0.193829 -0.174177 0.129251
v 0.193829 -0.168773 0.129251
v 0.194475 -0.173681 0.129251
v 0.194475 -0.169269 0.129251
v 0.194971 -0.173035 0.129251
v 0.194971 -0.169915 0.129251
v 0.195282 -0.172282 0.129251
v 0.195282 -0.170667 0.129251
v 0.195389 -0.171475 0.129251
v 0.194475 -0.173681 0.118321
v 0.193829 -0.174177 0.095681
v 0.194475 -0.173681 0.095681
v 0.193829 -0.174177 0.118321
v 0.193829 -0.168773 0.118321
v 0.194475 -0.169269 0.095681
v 0.193829 -0.168773 0.095681
v 0.194475 -0.169269 0.118321
v 0.191461 -0.174488 0.118321
v 0.190709 -0.174177 0.095681
v 0.191461 -0.174488 0.095681
v 0.190709 -0.174177 0.118321
v 0.195389 -0.171475 0.118321
v 0.195389 -0.171475 0.095681
v 0.193076 -0.174488 0.118321
v 0.192269 -0.174595 0.095681
v 0.193076 -0.174488 0.095681
v 0.192269 -0.174595 0.118321
v 0.193076 -0.168461 0.118321
v 0.193076 -0.168461 0.095681
v 0.195282 -0.172282 0.118321
v 0.195282 -0.172282 0.095681
v 0.189567 -0.173035 0.118321
v 0.190062 -0.173681 0.095681
v 0.190062 -0.173681 0.118321
v 0.189567 -0.173035 0.095681
v 0.194971 -0.173035 0.118321
v 0.194971 -0.173035 0.095681
v 0.189567 -0.169915 0.095681
v 0.189567 -0.169915 0.118321
v 0.189255 -0.170667 0.118321
v 0.189255 -0.170667 0.095681
v 0.206579 -0.122771 0.121371
v 0.206267 -0.123523 0.098731
v 0.206267 -0.123523 0.121371
v 0.206579 -0.122771 0.098731
v 0.210841 -0.121629 0.121371
v 0.211487 -0.122125 0.098731
v 0.210841 -0.121629 0.098731
v 0.211487 -0.122125 0.121371
v 0.193768 -0.052693 0.121371
v 0.194575 -0.052800 0.098731
v 0.193768 -0.052693 0.098731
v 0.194575 -0.052800 0.121371
v 0.208473 -0.121317 0.121371
v 0.209281 -0.121211 0.098731
v 0.208473 -0.121317 0.098731
v 0.209281 -0.121211 0.121371
v 0.190754 -0.056621 0.121371
v 0.191066 -0.057373 0.098731
v 0.191066 -0.057373 0.121371
v 0.190754 -0.056621 0.098731
v 0.211983 -0.122771 0.121371
v 0.211983 -0.122771 0.098731
v 0.191066 -0.054253 0.121371
v 0.190754 -0.055006 0.098731
v 0.190754 -0.055006 0.121371
v 0.191066 -0.054253 0.098731
v 0.192960 -0.058827 0.121371
v 0.192208 -0.058515 0.098731
v 0.192960 -0.058827 0.098731
v 0.192208 -0.058515 0.121371
v 0.207075 -0.122125 0.121371
v 0.207721 -0.121629 0.098731
v 0.207075 -0.122125 0.098731
v 0.207721 -0.121629 0.121371
v 0.206161 -0.124331 0.098731
v 0.206161 -0.124331 0.121371
v 0.206579 -0.125891 0.121371
v 0.207075 -0.126537 0.098731
v 0.207075 -0.126537 0.121371
v 0.206579 -0.125891 0.098731
v 0.192208 -0.053111 0.121371
v 0.192960 -0.052800 0.098731
v 0.192208 -0.053111 0.098731
v 0.192960 -0.052800 0.121371
v 0.212401 -0.124331 0.098731
v 0.212294 -0.125138 0.121371
v 0.212294 -0.125138 0.098731
v 0.212401 -0.124331 0.121371
v 0.210088 -0.127345 0.121371
v 0.209281 -0.127451 0.098731
v 0.210088 -0.127345 0.098731
v 0.209281 -0.127451 0.121371
v 0.196781 -0.055006 0.098731
v 0.196888 -0.055813 0.121371
v 0.196888 -0.055813 0.098731
v 0.196781 -0.055006 0.121371
v 0.191562 -0.058020 0.098731
v 0.191562 -0.058020 0.121371
v 0.206267 -0.125138 0.132301
v 0.206267 -0.123523 0.132301
v 0.206161 -0.124331 0.132301
v 0.206579 -0.125891 0.132301
v 0.206579 -0.122771 0.132301
v 0.207075 -0.126537 0.132301
v 0.207075 -0.122125 0.132301
v 0.207721 -0.127033 0.132301
v 0.207721 -0.121629 0.132301
v 0.208473 -0.127345 0.132301
v 0.208473 -0.121317 0.132301
v 0.209281 -0.127451 0.132301
v 0.209281 -0.121211 0.132301
v 0.210088 -0.127345 0.132301
v 0.210088 -0.121317 0.132301
v 0.210841 -0.127033 0.132301
v 0.210841 -0.121629 0.132301
v 0.211487 -0.126537 0.132301
v 0.211487 -0.122125 0.132301
v 0.211983 -0.125891 0.132301
v 0.211983 -0.122771 0.132301
v 0.212294 -0.125138 0.132301
v 0.212294 -0.123523 0.132301
v 0.212401 -0.124331 0.132301
v 0.193768 -0.058933 0.121371
v 0.193768 -0.058933 0.098731
v 0.190648 -0.055813 0.121371
v 0.190648 -0.055813 0.098731
v 0.195328 -0.058515 0.121371
v 0.194575 -0.058827 0.098731
v 0.195328 -0.058515 0.098731
v 0.194575 -0.058827 0.121371
v 0.206267 -0.125138 0.121371
v 0.206267 -0.125138 0.098731
v 0.191562 -0.053607 0.121371
v 0.191562 -0.053607 0.098731
v 0.208473 -0.127345 0.098731
v 0.208473 -0.127345 0.121371
v 0.210088 -0.121317 0.098731
v 0.210088 -0.121317 0.121371
v 0.207721 -0.127033 0.098731
v 0.207721 -0.127033 0.121371
v 0.190754 -0.056621 0.132301
v 0.190754 -0.055006 0.132301
v 0.190648 -0.055813 0.132301
v 0.191066 -0.057373 0.132301
v 0.191066 -0.054253 0.132301
v 0.191562 -0.058020 0.132301
v 0.191562 -0.053607 0.132301
v 0.192208 -0.058515 0.132301
v 0.192208 -0.053111 0.132301
v 0.192960 -0.058827 0.132301
v 0.192960 -0.052800 0.132301
v 0.193768 -0.058933 0.132301
v 0.193768 -0.052693 0.132301
v 0.194575 -0.058827 0.132301
v 0.194575 -0.052800 0.132301
v 0.195328 -0.058515 0.132301
v 0.195328 -0.053111 0.132301
v 0.195974 -0.058020 0.132301
v 0.195974 -0.053607 0.132301
v 0.196470 -0.057373 0.132301
v 0.196470 -0.054253 0.132301
v 0.196781 -0.056621 0.132301
v 0.196781 -0.055006 0.132301
v 0.196888 -0.055813 0.132301
v 0.211983 -0.125891 0.121371
v 0.211983 -0.125891 0.098731
v 0.211487 -0.126537 0.121371
v 0.210841 -0.127033 0.098731
v 0.211487 -0.126537 0.098731
v 0.210841 -0.127033 0.121371
v 0.195974 -0.058020 0.121371
v 0.195974 -0.058020 0.098731
v 0.196781 -0.056621 0.121371
v 0.196781 -0.056621 0.098731
v 0.212294 -0.123523 0.098731
v 0.212294 -0.123523 0.121371
v 0.196470 -0.054253 0.098731
v 0.196470 -0.054253 0.121371
v 0.195328 -0.053111 0.098731
v 0.195328 -0.053111 0.121371
v 0.196470 -0.057373 0.121371
v 0.196470 -0.057373 0.098731
v 0.195974 -0.053607 0.098731
v 0.195974 -0.053607 0.121371
v 0.107641 -0.121311 0.120688
v 0.107599 -0.122485 0.131249
v 0.107595 -0.122593 0.125891
v 0.107652 -0.120996 0.136396
v 0.107732 -0.118726 0.115995
v 0.107749 -0.118226 0.140982
v 0.107863 -0.115016 0.112130
v 0.107886 -0.114364 0.144695
v 0.108024 -0.110433 0.109359
v 0.108051 -0.109673 0.147280
v 0.108206 -0.105289 0.107868
v 0.108235 -0.104474 0.148563
v 0.108395 -0.099935 0.107761
v 0.108423 -0.099120 0.148456
v 0.108578 -0.094735 0.109044
v 0.108605 -0.093975 0.146966
v 0.108743 -0.090044 0.111630
v 0.108766 -0.089392 0.144194
v 0.108880 -0.086182 0.115342
v 0.108897 -0.085682 0.140329
v 0.108977 -0.083412 0.119928
v 0.108988 -0.083098 0.135636
v 0.109030 -0.081923 0.125075
v 0.109034 -0.081816 0.130433
v 0.239048 -0.117075 0.129639
v 0.239090 -0.115895 0.119025
v 0.239045 -0.117183 0.124254
v 0.239101 -0.115579 0.134812
v 0.239182 -0.113298 0.114308
v 0.239199 -0.112795 0.139421
v 0.239313 -0.109569 0.110425
v 0.239336 -0.108913 0.143152
v 0.239476 -0.104963 0.107639
v 0.239502 -0.104199 0.145751
v 0.239658 -0.099793 0.106141
v 0.239687 -0.098974 0.147040
v 0.239848 -0.094412 0.106033
v 0.239877 -0.093593 0.146932
v 0.240032 -0.089186 0.107323
v 0.240059 -0.088423 0.145434
v 0.240198 -0.084472 0.109921
v 0.240221 -0.083817 0.142649
v 0.240335 -0.080591 0.113652
v 0.240353 -0.080088 0.138765
v 0.240433 -0.077807 0.118261
v 0.240444 -0.077491 0.134048
v 0.240486 -0.076310 0.123435
v 0.240490 -0.076202 0.128819
v 0.237673 -0.233537 0.126387
v 0.237714 -0.232356 0.115774
v 0.237669 -0.233645 0.121002
v 0.237725 -0.232040 0.131560
v 0.237806 -0.229759 0.111057
v 0.237824 -0.229256 0.136169
v 0.237937 -0.226031 0.107173
v 0.237960 -0.225375 0.139900
v 0.238100 -0.221424 0.104387
v 0.238127 -0.220661 0.142499
v 0.238282 -0.216255 0.102889
v 0.238311 -0.215435 0.143788
v 0.238472 -0.210873 0.102781
v 0.238501 -0.210054 0.143680
v 0.238656 -0.205648 0.104071
v 0.238683 -0.204884 0.142182
v 0.238822 -0.200934 0.106670
v 0.238846 -0.200278 0.139397
v 0.238959 -0.197052 0.110401
v 0.238977 -0.196549 0.135513
v 0.239058 -0.194269 0.115010
v 0.239069 -0.193952 0.130796
v 0.239110 -0.192772 0.120183
v 0.239114 -0.192664 0.125567
f 1 2 3
f 2 1 4
f 4 1 5
f 5 1 6
f 6 1 7
f 7 1 8
f 8 1 9
f 9 1 10
f 10 1 11
f 11 1 12
f 12 1 13
f 13 1 14
f 15 16 17
f 16 15 18
f 16 18 19
f 19 18 20
f 20 18 21
f 21 18 1
f 1 18 22
f 22 18 23
f 23 18 24
f 17 25 26
f 25 17 16
f 26 25 27
f 26 27 28
f 26 28 24
f 26 24 18
f 29 30 31
f 30 29 22
f 22 29 32
f 22 32 33
f 22 33 34
f 22 34 35
f 22 35 36
f 22 36 37
f 22 37 38
f 22 38 39
f 22 39 40
f 22 40 14
f 22 14 1
f 41 42 43
f 42 41 44
f 42 44 45
f 43 46 47
f 46 43 42
f 47 46 48
f 49 50 51
f 52 53 54
f 55 56 57
f 56 55 58
f 59 57 60
f 57 59 55
f 59 61 62
f 61 59 60
f 62 63 64
f 63 62 61
f 64 65 66
f 65 64 63
f 66 67 68
f 67 66 65
f 68 69 70
f 69 68 67
f 70 71 72
f 71 70 69
f 73 71 74
f 71 73 72
f 75 74 76
f 74 75 73
f 77 76 78
f 76 77 75
f 79 78 80
f 78 79 77
f 81 80 82
f 80 81 79
f 83 82 84
f 82 83 81
f 85 83 84
f 83 85 86
f 87 86 85
f 86 87 88
f 89 88 87
f 88 89 90
f 91 90 89
f 90 91 92
f 93 92 91
f 92 93 94
f 95 94 93
f 94 95 96
f 97 95 98
f 95 97 96
f 99 98 100
f 98 99 97
f 101 100 102
f 100 101 99
f 58 102 56
f 102 58 101
f 103 104 105
f 104 103 106
f 106 103 107
f 107 103 108
f 108 103 109
f 109 103 110
f 109 110 111
f 111 110 112
f 112 110 113
f 113 110 114
f 114 110 115
f 115 110 116
f 115 116 117
f 117 116 118
f 118 116 119
f 118 119 120
f 118 120 121
f 118 121 122
f 116 110 123
f 123 110 124
f 124 110 125
f 125 110 126
f 126 110 127
f 127 110 128
f 128 110 129
f 129 110 130
f 103 131 132
f 131 103 54
f 54 103 133
f 54 133 134
f 54 134 52
f 133 103 135
f 135 103 136
f 136 103 105
f 52 134 137
f 52 137 138
f 52 138 139
f 52 139 140
f 52 140 141
f 52 141 142
f 52 142 143
f 52 143 118
f 52 118 144
f 144 118 145
f 145 118 146
f 146 118 122
f 52 144 147
f 52 147 148
f 52 148 149
f 52 149 150
f 52 150 151
f 52 151 152
f 52 152 153
f 52 153 154
f 52 154 130
f 52 130 110
f 155 156 157
f 156 155 158
f 156 158 159
f 159 158 160
f 159 160 161
f 161 160 162
f 161 162 163
f 163 162 164
f 163 164 165
f 165 164 166
f 165 166 167
f 167 166 168
f 167 168 169
f 169 168 170
f 169 170 171
f 171 170 172
f 171 172 173
f 173 172 174
f 173 174 175
f 175 174 176
f 175 176 177
f 177 176 178
f 179 180 181
f 180 179 182
f 183 184 185
f 184 183 186
f 187 188 189
f 188 187 190
f 191 192 193
f 192 191 194
f 195 196 197
f 196 195 198
f 196 198 199
f 199 198 200
f 199 200 201
f 201 200 202
f 201 202 203
f 203 202 204
f 203 204 205
f 205 204 206
f 205 206 207
f 207 206 208
f 207 208 209
f 209 208 210
f 209 210 211
f 211 210 212
f 211 212 213
f 213 212 214
f 213 214 215
f 215 214 216
f 215 216 217
f 217 216 218
f 219 220 221
f 220 219 222
f 223 224 225
f 224 223 226
f 227 228 229
f 228 227 230
f 185 231 232
f 231 185 184
f 233 234 235
f 234 233 236
f 237 225 238
f 225 237 223
f 232 239 240
f 239 232 231
f 190 181 188
f 181 190 179
f 241 242 243
f 242 241 244
f 240 245 246
f 245 240 239
f 187 247 248
f 247 187 189
f 236 229 234
f 229 236 227
f 246 219 221
f 219 246 245
f 249 194 191
f 194 249 250
f 193 244 241
f 244 193 192
f 182 238 180
f 238 182 237
f 230 242 228
f 242 230 243
f 248 250 249
f 250 248 247
f 222 235 220
f 235 222 233
f 224 186 183
f 186 224 226
f 251 252 253
f 252 251 254
f 255 256 257
f 256 255 258
f 259 260 261
f 260 259 262
f 263 264 265
f 264 263 266
f 267 268 269
f 268 267 270
f 256 271 272
f 271 256 258
f 273 274 275
f 274 273 276
f 277 278 279
f 278 277 280
f 281 282 283
f 282 281 284
f 253 285 286
f 285 253 252
f 287 288 289
f 288 287 290
f 291 292 293
f 292 291 294
f 295 296 297
f 296 295 298
f 299 300 301
f 300 299 302
f 284 265 282
f 265 284 263
f 303 304 305
f 304 303 306
f 269 307 308
f 307 269 268
f 309 310 311
f 310 309 312
f 310 312 313
f 313 312 314
f 313 314 315
f 315 314 316
f 315 316 317
f 317 316 318
f 317 318 319
f 319 318 320
f 319 320 321
f 321 320 322
f 321 322 323
f 323 322 324
f 323 324 325
f 325 324 326
f 325 326 327
f 327 326 328
f 327 328 329
f 329 328 330
f 329 330 331
f 331 330 332
f 333 279 334
f 279 333 277
f 335 270 267
f 270 335 336
f 337 338 339
f 338 337 340
f 341 290 287
f 290 341 342
f 343 293 344
f 293 343 291
f 302 345 300
f 345 302 346
f 266 347 264
f 347 266 348
f 346 349 345
f 349 346 350
f 294 261 292
f 261 294 259
f 350 288 349
f 288 350 289
f 351 352 353
f 352 351 354
f 352 354 355
f 355 354 356
f 355 356 357
f 357 356 358
f 357 358 359
f 359 358 360
f 359 360 361
f 361 360 362
f 361 362 363
f 363 362 364
f 363 364 365
f 365 364 366
f 365 366 367
f 367 366 368
f 367 368 369
f 369 368 370
f 369 370 371
f 371 370 372
f 371 372 373
f 373 372 374
f 297 375 376
f 375 297 296
f 377 378 379
f 378 377 380
f 381 339 382
f 339 381 337
f 305 383 384
f 383 305 304
f 281 254 251
f 254 281 283
f 385 298 295
f 298 385 386
f 380 301 378
f 301 380 299
f 376 377 379
f 377 376 375
f 348 257 347
f 257 348 255
f 387 306 303
f 306 387 388
f 262 389 260
f 389 262 390
f 384 391 392
f 391 384 383
f 286 342 341
f 342 286 285
f 392 381 382
f 381 392 391
f 343 276 273
f 276 343 344
f 390 393 389
f 393 390 394
f 275 336 335
f 336 275 274
f 393 388 387
f 388 393 394
f 272 386 385
f 386 272 271
f 340 334 338
f 334 340 333
f 280 307 278
f 307 280 308
f 395 396 397
f 396 395 398
f 398 395 399
f 398 399 400
f 400 399 401
f 400 401 402
f 402 401 403
f 402 403 404
f 404 403 405
f 404 405 406
f 406 405 407
f 406 407 408
f 408 407 409
f 408 409 410
f 410 409 411
f 410 411 412
f 412 411 413
f 412 413 414
f 414 413 415
f 414 415 416
f 416 415 417
f 416 417 418
f 419 420 421
f 420 419 422
f 420 422 423
f 423 422 424
f 423 424 425
f 425 424 426
f 425 426 427
f 427 426 428
f 427 428 429
f 429 428 430
f 429 430 431
f 431 430 432
f 431 432 433
f 433 432 434
f 433 434 435
f 435 434 436
f 435 436 437
f 437 436 438
f 437 438 439
f 439 438 440
f 439 440 441
f 441 440 442
f 443 444 445
f 444 443 446
f 444 446 447
f 447 446 448
f 447 448 449
f 449 448 450
f 449 450 451
f 451 450 452
f 451 452 453
f 453 452 454
f 453 454 455
f 455 454 456
f 455 456 457
f 457 456 458
f 457 458 459
f 459 458 460
f 459 460 461
f 461 460 462
f 461 462 463
f 463 462 464
f 463 464 465
f 465 464 466
f 3 2 1
f 4 1 2
f 5 1 4
f 6 1 5
f 7 1 6
f 8 1 7
f 9 1 8
f 10 1 9
f 11 1 10
f 12 1 11
f 13 1 12
f 14 1 13
f 17 16 15
f 18 15 16
f 19 18 16
f 20 18 19
f 21 18 20
f 1 18 21
f 22 18 1
f 23 18 22
f 24 18 23
f 26 25 17
f 16 17 25
f 27 25 26
f 28 27 26
f 24 28 26
f 18 24 26
f 31 30 29
f 22 29 30
f 32 29 22
f 33 32 22
f 34 33 22
f 35 34 22
f 36 35 22
f 37 36 22
f 38 37 22
f 39 38 22
f 40 39 22
f 14 40 22
f 1 14 22
f 43 42 41
f 44 41 42
f 45 44 42
f 47 46 43
f 42 43 46
f 48 46 47
f 51 50 49
f 54 53 52
f 57 56 55
f 58 55 56
f 60 57 59
f 55 59 57
f 62 61 59
f 60 59 61
f 64 63 62
f 61 62 63
f 66 65 64
f 63 64 65
f 68 67 66
f 65 66 67
f 70 69 68
f 67 68 69
f 72 71 70
f 69 70 71
f 74 71 73
f 72 73 71
f 76 74 75
f 73 75 74
f 78 76 77
f 75 77 76
f 80 78 79
f 77 79 78
f 82 80 81
f 79 81 80
f 84 82 83
f 81 83 82
f 84 83 85
f 86 85 83
f 85 86 87
f 88 87 86
f 87 88 89
f 90 89 88
f 89 90 91
f 92 91 90
f 91 92 93
f 94 93 92
f 93 94 95
f 96 95 94
f 98 95 97
f 96 97 95
f 100 98 99
f 97 99 98
f 102 100 101
f 99 101 100
f 56 102 58
f 101 58 102
f 105 104 103
f 106 103 104
f 107 103 106
f 108 103 107
f 109 103 108
f 110 103 109
f 111 110 109
f 112 110 111
f 113 110 112
f 114 110 113
f 115 110 114
f 116 110 115
f 117 116 115
f 118 116 117
f 119 116 118
f 120 119 118
f 121 120 118
f 122 121 118
f 123 110 116
f 124 110 123
f 125 110 124
f 126 110 125
f 127 110 126
f 128 110 127
f 129 110 128
f 130 110 129
f 132 131 103
f 54 103 131
f 133 103 54
f 134 133 54
f 52 134 54
f 135 103 133
f 136 103 135
f 105 103 136
f 137 134 52
f 138 137 52
f 139 138 52
f 140 139 52
f 141 140 52
f 142 141 52
f 143 142 52
f 118 143 52
f 144 118 52
f 145 118 144
f 146 118 145
f 122 118 146
f 147 144 52
f 148 147 52
f 149 148 52
f 150 149 52
f 151 150 52
f 152 151 52
f 153 152 52
f 154 153 52
f 130 154 52
f 110 130 52
f 157 156 155
f 158 155 156
f 159 158 156
f 160 158 159
f 161 160 159
f 162 160 161
f 163 162 161
f 164 162 163
f 165 164 163
f 166 164 165
f 167 166 165
f 168 166 167
f 169 168 167
f 170 168 169
f 171 170 169
f 172 170 171
f 173 172 171
f 174 172 173
f 175 174 173
f 176 174 175
f 177 176 175
f 178 176 177
f 181 180 179
f 182 179 180
f 185 184 183
f 186 183 184
f 189 188 187
f 190 187 188
f 193 192 191
f 194 191 192
f 197 196 195
f 198 195 196
f 199 198 196
f 200 198 199
f 201 200 199
f 202 200 201
f 203 202 201
f 204 202 203
f 205 204 203
f 206 204 205
f 207 206 205
f 208 206 207
f 209 208 207
f 210 208 209
f 211 210 209
f 212 210 211
f 213 212 211
f 214 212 213
f 215 214 213
f 216 214 215
f 217 216 215
f 218 216 217
f 221 220 219
f 222 219 220
f 225 224 223
f 226 223 224
f 229 228 227
f 230 227 228
f 232 231 185
f 184 185 231
f 235 234 233
f 236 233 234
f 238 225 237
f 223 237 225
f 240 239 232
f 231 232 239
f 188 181 190
f 179 190 181
f 243 242 241
f 244 241 242
f 246 245 240
f 239 240 245
f 248 247 187
f 189 187 247
f 234 229 236
f 227 236 229
f 221 219 246
f 245 246 219
f 191 194 249
f 250 249 194
f 241 244 193
f 192 193 244
f 180 238 182
f 237 182 238
f 228 242 230
f 243 230 242
f 249 250 248
f 247 248 250
f 220 235 222
f 233 222 235
f 183 186 224
f 226 224 186
f 253 252 251
f 254 251 252
f 257 256 255
f 258 255 256
f 261 260 259
f 262 259 260
f 265 264 263
f 266 263 264
f 269 268 267
f 270 267 268
f 272 271 256
f 258 256 271
f 275 274 273
f 276 273 274
f 279 278 277
f 280 277 278
f 283 282 281
f 284 281 282
f 286 285 253
f 252 253 285
f 289 288 287
f 290 287 288
f 293 292 291
f 294 291 292
f 297 296 295
f 298 295 296
f 301 300 299
f 302 299 300
f 282 265 284
f 263 284 265
f 305 304 303
f 306 303 304
f 308 307 269
f 268 269 307
f 311 310 309
f 312 309 310
f 313 312 310
f 314 312 313
f 315 314 313
f 316 314 315
f 317 316 315
f 318 316 317
f 319 318 317
f 320 318 319
f 321 320 319
f 322 320 321
f 323 322 321
f 324 322 323
f 325 324 323
f 326 324 325
f 327 326 325
f 328 326 327
f 329 328 327
f 330 328 329
f 331 330 329
f 332 330 331
f 334 279 333
f 277 333 279
f 267 270 335
f 336 335 270
f 339 338 337
f 340 337 338
f 287 290 341
f 342 341 290
f 344 293 343
f 291 343 293
f 300 345 302
f 346 302 345
f 264 347 266
f 348 266 347
f 345 349 346
f 350 346 349
f 292 261 294
f 259 294 261
f 349 288 350
f 289 350 288
f 353 352 351
f 354 351 352
f 355 354 352
f 356 354 355
f 357 356 355
f 358 356 357
f 359 358 357
f 360 358 359
f 361 360 359
f 362 360 361
f 363 362 361
f 364 362 363
f 365 364 363
f 366 364 365
f 367 366 365
f 368 366 367
f 369 368 367
f 370 368 369
f 371 370 369
f 372 370 371
f 373 372 371
f 374 372 373
f 376 375 297
f 296 297 375
f 379 378 377
f 380 377 378
f 382 339 381
f 337 381 339
f 384 383 305
f 304 305 383
f 251 254 281
f 283 281 254
f 295 298 385
f 386 385 298
f 378 301 380
f 299 380 301
f 379 377 376
f 375 376 377
f 347 257 348
f 255 348 257
f 303 306 387
f 388 387 306
f 260 389 262
f 390 262 389
f 392 391 384
f 383 384 391
f 341 342 286
f 285 286 342
f 382 381 392
f 391 392 381
f 273 276 343
f 344 343 276
f 389 393 390
f 394 390 393
f 335 336 275
f 274 275 336
f 387 388 393
f 394 393 388
f 385 386 272
f 271 272 386
f 338 334 340
f 333 340 334
f 278 307 280
f 308 280 307
f 397 396 395
f 398 395 396
f 399 395 398
f 400 399 398
f 401 399 400
f 402 401 400
f 403 401 402
f 404 403 402
f 405 403 404
f 406 405 404
f 407 405 406
f 408 407 406
f 409 407 408
f 410 409 408
f 411 409 410
f 412 411 410
f 413 411 412
f 414 413 412
f 415 413 414
f 416 415 414
f 417 415 416
f 418 417 416
f 421 420 419
f 422 419 420
f 423 422 420
f 424 422 423
f 425 424 423
f 426 424 425
f 427 426 425
f 428 426 427
f 429 428 427
f 430 428 429
f 431 430 429
f 432 430 431
f 433 432 431
f 434 432 433
f 435 434 433
f 436 434 435
f 437 436 435
f 438 436 437
f 439 438 437
f 440 438 439
f 441 440 439
f 442 440 441
f 445 444 443
f 446 443 444
f 447 446 444
f 448 446 447
f 449 448 447
f 450 448 449
f 451 450 449
f 452 450 451
f 453 452 451
f 454 452 453
f 455 454 453
f 456 454 455
f 457 456 455
f 458 456 457
f 459 458 457
f 460 458 459
f 461 460 459
f 462 460 461
f 463 462 461
f 464 462 463
f 465 464 463
f 466 464 465
