v -0.433045 -0.324508 0.107810
v -0.433253 -0.324508 0.107724
v -0.432959 -0.324508 0.107603
v -0.433567 -0.324508 0.107766
v -0.434427 -0.324508 0.107410
v -0.434650 -0.324508 0.107380
v -0.434621 -0.324508 0.107158
v -0.434621 -0.324508 0.107603
v -0.434175 -0.324508 0.107603
v -0.433882 -0.324508 0.107724
v -0.434535 -0.324508 0.107810
v -0.433182 -0.324508 0.107988
v -0.434398 -0.324508 0.107988
v -0.433360 -0.324508 0.108125
v -0.434220 -0.324508 0.108125
v -0.433567 -0.324508 0.108211
v -0.434013 -0.324508 0.108211
v -0.433790 -0.324508 0.108240
v -0.433567 -0.324508 0.106550
v -0.434013 -0.324508 0.106550
v -0.433790 -0.324508 0.106520
v -0.433360 -0.324508 0.106635
v -0.434220 -0.324508 0.106635
v -0.433182 -0.324508 0.106772
v -0.434175 -0.324508 0.106801
v -0.433045 -0.324508 0.106950
v -0.434090 -0.324508 0.106950
v -0.433167 -0.324508 0.107072
v -0.433968 -0.324508 0.107072
v -0.433315 -0.324508 0.107158
v -0.433819 -0.324508 0.107158
v -0.433481 -0.324508 0.107202
v -0.433653 -0.324508 0.107202
v -0.433315 -0.324508 0.105942
v -0.433653 -0.324508 0.105897
v -0.433481 -0.324508 0.105897
v -0.433819 -0.324508 0.105942
v -0.433245 -0.324508 0.105982
v -0.433890 -0.324508 0.105982
v -0.433167 -0.324508 0.106027
v -0.433968 -0.324508 0.106027
v -0.433045 -0.324508 0.106149
v -0.434090 -0.324508 0.106149
v -0.432959 -0.324508 0.106298
v -0.434175 -0.324508 0.106298
v -0.432915 -0.324508 0.106464
v -0.434220 -0.324508 0.106464
v -0.432915 -0.324508 0.106635
v -0.432959 -0.324508 0.106801
f 1 2 3
f 2 1 4
f 5 6 7
f 6 5 8
f 8 5 9
f 8 9 10
f 8 10 11
f 11 10 4
f 11 4 1
f 11 1 12
f 11 12 13
f 13 12 14
f 13 14 15
f 15 14 16
f 15 16 17
f 17 16 18
f 19 20 21
f 20 19 22
f 20 22 23
f 23 22 24
f 23 24 25
f 25 24 26
f 25 26 27
f 27 26 28
f 27 28 29
f 29 28 30
f 29 30 31
f 31 30 32
f 31 32 33
f 34 35 36
f 35 34 37
f 37 34 38
f 37 38 39
f 40 39 38
f 39 40 41
f 41 40 42
f 41 42 43
f 43 42 44
f 43 44 45
f 45 44 46
f 45 46 47
f 47 46 21
f 21 46 19
f 19 46 48
f 19 48 22
f 22 48 24
f 24 48 49
f 24 49 26
f 47 20 23
f 20 47 21
f 3 2 1
f 4 1 2
f 7 6 5
f 8 5 6
f 9 5 8
f 10 9 8
f 11 10 8
f 4 10 11
f 1 4 11
f 12 1 11
f 13 12 11
f 14 12 13
f 15 14 13
f 16 14 15
f 17 16 15
f 18 16 17
f 21 20 19
f 22 19 20
f 23 22 20
f 24 22 23
f 25 24 23
f 26 24 25
f 27 26 25
f 28 26 27
f 29 28 27
f 30 28 29
f 31 30 29
f 32 30 31
f 33 32 31
f 36 35 34
f 37 34 35
f 38 34 37
f 39 38 37
f 38 39 40
f 41 40 39
f 42 40 41
f 43 42 41
f 44 42 43
f 45 44 43
f 46 44 45
f 47 46 45
f 21 46 47
f 19 46 21
f 48 46 19
f 22 48 19
f 24 48 22
f 49 48 24
f 26 49 24
f 23 20 47
f 21 47 20
